v -16.919872 7.480125 5.241148
v -16.916798 7.480125 -3.277857
v -16.916798 4.409912 -3.277857
v -16.919872 4.409912 5.241148
v -16.916798 7.480125 -3.277857
v -6.499941 7.480125 -3.277857
v -6.499941 4.409912 -3.277857
v -16.916798 4.409912 -3.277857
v -6.499941 7.480125 22.279158
v -16.916798 7.480125 22.279158
v -16.916798 4.409912 22.279158
v -6.499941 4.409912 22.279158
v -16.919872 4.409912 5.241148
v -16.916798 4.409912 -3.277857
v -6.499941 4.409912 -3.277857
v -6.499941 4.409912 5.241148
v -6.499941 7.480125 5.241148
v -6.499941 7.480125 -3.277857
v -16.916798 7.480125 -3.277857
v -16.919872 7.480125 5.241148
v -16.916798 7.480125 22.279158
v -16.919872 7.480125 13.760153
v -16.919872 4.409912 13.760153
v -16.916798 4.409912 22.279158
v -16.919872 7.480125 13.760153
v -16.919872 7.480125 5.241148
v -16.919872 4.409912 5.241148
v -16.919872 4.409912 13.760153
v -16.916798 4.409912 22.279158
v -16.919872 4.409912 13.760153
v -6.499941 4.409912 13.760153
v -6.499941 4.409912 22.279158
v -6.499941 7.480125 22.279158
v -6.499941 7.480125 13.760153
v -16.919872 7.480125 13.760153
v -16.916798 7.480125 22.279158
v -5.829262 7.474784 -3.173499
v -5.829262 4.409912 -3.173499
v -5.829262 4.409912 5.188462
v -5.829262 7.474784 5.188462
v -5.824220 7.474784 13.797827
v -5.824220 4.409912 13.797827
v -5.824220 4.409912 22.263763
v -5.824220 7.474784 22.263763
v -5.837884 7.474784 5.284885
v -5.837884 4.409912 5.284885
v -5.837884 4.409912 13.711809
v -5.837884 7.474784 13.711809
v -6.494855 7.474784 -3.173499
v -6.494855 7.474784 5.188462
v -6.494855 4.409912 5.188462
v -6.494855 4.409912 -3.173499
v -6.489814 7.474784 13.797827
v -6.489814 7.474784 22.263763
v -6.489814 4.409912 22.263763
v -6.489814 4.409912 13.797827
v -6.503478 7.474784 5.284885
v -6.503478 7.474784 13.711809
v -6.503478 4.409912 13.711809
v -6.503478 4.409912 5.284885
v -6.503478 4.409912 5.284885
v -6.503478 4.409912 13.711809
v -5.837884 4.409912 13.711809
v -5.837884 4.409912 5.284885
v -5.824220 7.474784 22.263763
v -5.824220 4.409912 22.263763
v -6.489814 4.409912 22.263763
v -6.489814 7.474784 22.263763
v -6.503478 7.474784 5.284885
v -6.503478 4.409912 5.284885
v -5.837884 4.409912 5.284885
v -5.837884 7.474784 5.284885
v -6.489814 4.409912 13.797827
v -6.489814 4.409912 22.263763
v -5.824220 4.409912 22.263763
v -5.824220 4.409912 13.797827
v -5.837884 7.474784 13.711809
v -5.837884 4.409912 13.711809
v -6.503478 4.409912 13.711809
v -6.503478 7.474784 13.711809
v -6.489814 7.474784 13.797827
v -6.489814 4.409912 13.797827
v -5.824220 4.409912 13.797827
v -5.824220 7.474784 13.797827
v -5.829262 7.474784 5.188462
v -5.829262 4.409912 5.188462
v -6.494855 4.409912 5.188462
v -6.494855 7.474784 5.188462
v -6.494855 7.474784 5.188462
v -6.494855 7.474784 -3.173499
v -5.829262 7.474784 -3.173499
v -5.829262 7.474784 5.188462
v -6.494855 7.474784 -3.173499
v -6.494855 4.409912 -3.173499
v -5.829262 4.409912 -3.173499
v -5.829262 7.474784 -3.173499
v -5.829262 4.409912 5.188462
v -5.829262 4.409912 -3.173499
v -6.494855 4.409912 -3.173499
v -6.494855 4.409912 5.188462
v -6.503478 7.474784 13.711809
v -6.503478 7.474784 5.284885
v -5.837884 7.474784 5.284885
v -5.837884 7.474784 13.711809
v -5.824220 7.474784 13.797827
v -5.824220 7.474784 22.263763
v -6.489814 7.474784 22.263763
v -6.489814 7.474784 13.797827
vn -1.000000 0.000000 -0.000400
vn -1.000000 0.000000 -0.000400
vn -1.000000 0.000000 -0.000400
vn -1.000000 0.000000 -0.000400
vn 0.000000 0.000000 -1.000000
vn 0.000000 0.000000 -1.000000
vn 0.000000 0.000000 -1.000000
vn 0.000000 0.000000 -1.000000
vn 0.000000 0.000000 1.000000
vn 0.000000 0.000000 1.000000
vn 0.000000 0.000000 1.000000
vn 0.000000 0.000000 1.000000
vn 0.000000 -1.000000 0.000000
vn 0.000000 -1.000000 0.000000
vn 0.000000 -1.000000 0.000000
vn 0.000000 -1.000000 0.000000
vn 0.000000 1.000000 0.000000
vn 0.000000 1.000000 0.000000
vn 0.000000 1.000000 0.000000
vn 0.000000 1.000000 0.000000
vn -1.000000 0.000000 0.000400
vn -1.000000 0.000000 0.000400
vn -1.000000 0.000000 0.000400
vn -1.000000 0.000000 0.000400
vn -1.000000 0.000000 0.000000
vn -1.000000 0.000000 0.000000
vn -1.000000 0.000000 0.000000
vn -1.000000 0.000000 0.000000
vn 0.000000 -1.000000 0.000000
vn 0.000000 -1.000000 0.000000
vn 0.000000 -1.000000 0.000000
vn 0.000000 -1.000000 0.000000
vn 0.000000 1.000000 0.000000
vn 0.000000 1.000000 0.000000
vn 0.000000 1.000000 0.000000
vn 0.000000 1.000000 0.000000
vn -1.000000 0.000000 0.000000
vn -1.000000 0.000000 0.000000
vn -1.000000 0.000000 0.000000
vn -1.000000 0.000000 0.000000
vn -1.000000 0.000000 0.000000
vn -1.000000 0.000000 0.000000
vn -1.000000 0.000000 0.000000
vn -1.000000 0.000000 0.000000
vn -1.000000 0.000000 0.000000
vn -1.000000 0.000000 0.000000
vn -1.000000 0.000000 0.000000
vn -1.000000 0.000000 0.000000
vn 1.000000 0.000000 0.000000
vn 1.000000 0.000000 0.000000
vn 1.000000 0.000000 0.000000
vn 1.000000 0.000000 0.000000
vn 1.000000 0.000000 0.000000
vn 1.000000 0.000000 0.000000
vn 1.000000 0.000000 0.000000
vn 1.000000 0.000000 0.000000
vn 1.000000 0.000000 0.000000
vn 1.000000 0.000000 0.000000
vn 1.000000 0.000000 0.000000
vn 1.000000 0.000000 0.000000
vn 0.000000 1.000000 0.000000
vn 0.000000 1.000000 0.000000
vn 0.000000 1.000000 0.000000
vn 0.000000 1.000000 0.000000
vn 0.000000 0.000000 -1.000000
vn 0.000000 0.000000 -1.000000
vn 0.000000 0.000000 -1.000000
vn 0.000000 0.000000 -1.000000
vn 0.000000 0.000000 1.000000
vn 0.000000 0.000000 1.000000
vn 0.000000 0.000000 1.000000
vn 0.000000 0.000000 1.000000
vn 0.000000 1.000000 0.000000
vn 0.000000 1.000000 0.000000
vn 0.000000 1.000000 0.000000
vn 0.000000 1.000000 0.000000
vn 0.000000 0.000000 -1.000000
vn 0.000000 0.000000 -1.000000
vn 0.000000 0.000000 -1.000000
vn 0.000000 0.000000 -1.000000
vn 0.000000 0.000000 1.000000
vn 0.000000 0.000000 1.000000
vn 0.000000 0.000000 1.000000
vn 0.000000 0.000000 1.000000
vn 0.000000 0.000000 -1.000000
vn 0.000000 0.000000 -1.000000
vn 0.000000 0.000000 -1.000000
vn 0.000000 0.000000 -1.000000
vn 0.000000 -1.000000 0.000000
vn 0.000000 -1.000000 0.000000
vn 0.000000 -1.000000 0.000000
vn 0.000000 -1.000000 0.000000
vn 0.000000 0.000000 1.000000
vn 0.000000 0.000000 1.000000
vn 0.000000 0.000000 1.000000
vn 0.000000 0.000000 1.000000
vn 0.000000 1.000000 0.000000
vn 0.000000 1.000000 0.000000
vn 0.000000 1.000000 0.000000
vn 0.000000 1.000000 0.000000
vn 0.000000 -1.000000 0.000000
vn 0.000000 -1.000000 0.000000
vn 0.000000 -1.000000 0.000000
vn 0.000000 -1.000000 0.000000
vn 0.000000 -1.000000 0.000000
vn 0.000000 -1.000000 0.000000
vn 0.000000 -1.000000 0.000000
vn 0.000000 -1.000000 0.000000
vt 0.595800 0.578200
vt 0.790800 0.578200
vt 0.790800 0.773300
vt 0.595800 0.773300
vt 0.985900 0.773300
vt 0.985900 0.968400
vt 0.790800 0.968400
vt 0.790800 0.773300
vt 0.800700 0.693400
vt 0.180500 0.693400
vt 0.180500 0.321200
vt 0.800700 0.321200
vt 0.595800 0.773300
vt 0.790800 0.773300
vt 0.790800 0.968400
vt 0.595800 0.968400
vt 0.595800 0.383200
vt 0.790800 0.383200
vt 0.790800 0.578200
vt 0.595800 0.578200
vt 0.205600 0.578200
vt 0.400700 0.578200
vt 0.400700 0.773300
vt 0.205600 0.773300
vt 0.400700 0.578200
vt 0.595800 0.578200
vt 0.595800 0.773300
vt 0.400700 0.773300
vt 0.205600 0.773300
vt 0.400700 0.773300
vt 0.400700 0.968400
vt 0.205600 0.968400
vt 0.205600 0.383200
vt 0.400700 0.383200
vt 0.400700 0.578200
vt 0.205600 0.578200
vt 0.587900 0.803000
vt 0.587400 0.975900
vt 0.399100 0.976200
vt 0.399600 0.803300
vt 0.968400 0.802300
vt 0.968400 0.975200
vt 0.777800 0.975500
vt 0.777700 0.802700
vt 0.777700 0.802700
vt 0.777800 0.975500
vt 0.588000 0.975900
vt 0.587900 0.803000
vt 0.595800 0.773300
vt 0.790800 0.773300
vt 0.790800 0.968400
vt 0.595800 0.968400
vt 0.595800 0.773300
vt 0.790800 0.773300
vt 0.790800 0.968400
vt 0.595800 0.968400
vt 0.595800 0.773300
vt 0.790800 0.773300
vt 0.790800 0.968400
vt 0.595800 0.968400
vt 0.595800 0.773300
vt 0.790800 0.773300
vt 0.790800 0.968400
vt 0.595800 0.968400
vt 0.595800 0.773300
vt 0.790800 0.773300
vt 0.790800 0.968400
vt 0.595800 0.968400
vt 0.595800 0.773300
vt 0.790800 0.773300
vt 0.790800 0.968400
vt 0.595800 0.968400
vt 0.595800 0.773300
vt 0.790800 0.773300
vt 0.790800 0.968400
vt 0.595800 0.968400
vt 0.595800 0.773300
vt 0.790800 0.773300
vt 0.790800 0.968400
vt 0.595800 0.968400
vt 0.595800 0.773300
vt 0.790800 0.773300
vt 0.790800 0.968400
vt 0.595800 0.968400
vt 0.595800 0.773300
vt 0.790800 0.773300
vt 0.790800 0.968400
vt 0.595800 0.968400
vt 0.595800 0.773300
vt 0.790800 0.773300
vt 0.790800 0.968400
vt 0.595800 0.968400
vt 0.595800 0.773300
vt 0.790800 0.773300
vt 0.790800 0.968400
vt 0.595800 0.968400
vt 0.595800 0.773300
vt 0.790800 0.773300
vt 0.790800 0.968400
vt 0.595800 0.968400
vt 0.595800 0.773300
vt 0.790800 0.773300
vt 0.790800 0.968400
vt 0.595800 0.968400
vt 0.595800 0.773300
vt 0.790800 0.773300
vt 0.790800 0.968400
vt 0.595800 0.968400
f 1/1/1 2/2/2 3/3/3
f 1/1/1 3/3/3 4/4/4
f 5/5/5 6/6/6 7/7/7
f 5/5/5 7/7/7 8/8/8
f 9/9/9 10/10/10 11/11/11
f 9/9/9 11/11/11 12/12/12
f 13/13/13 14/14/14 15/15/15
f 13/13/13 15/15/15 16/16/16
f 17/17/17 18/18/18 19/19/19
f 17/17/17 19/19/19 20/20/20
f 21/21/21 22/22/22 23/23/23
f 21/21/21 23/23/23 24/24/24
f 25/25/25 26/26/26 27/27/27
f 25/25/25 27/27/27 28/28/28
f 29/29/29 30/30/30 31/31/31
f 29/29/29 31/31/31 32/32/32
f 30/30/30 13/13/13 16/16/16
f 30/30/30 16/16/16 31/31/31
f 33/33/33 34/34/34 35/35/35
f 33/33/33 35/35/35 36/36/36
f 34/34/34 17/17/17 20/20/20
f 34/34/34 20/20/20 35/35/35
f 37/37/37 38/38/38 39/39/39
f 37/37/37 39/39/39 40/40/40
f 41/41/41 42/42/42 43/43/43
f 41/41/41 43/43/43 44/44/44
f 45/45/45 46/46/46 47/47/47
f 45/45/45 47/47/47 48/48/48
f 49/49/49 50/50/50 51/51/51
f 49/49/49 51/51/51 52/52/52
f 53/53/53 54/54/54 55/55/55
f 53/53/53 55/55/55 56/56/56
f 57/57/57 58/58/58 59/59/59
f 57/57/57 59/59/59 60/60/60
f 61/61/61 62/62/62 63/63/63
f 61/61/61 63/63/63 64/64/64
f 65/65/65 66/66/66 67/67/67
f 65/65/65 67/67/67 68/68/68
f 69/69/69 70/70/70 71/71/71
f 69/69/69 71/71/71 72/72/72
f 73/73/73 74/74/74 75/75/75
f 73/73/73 75/75/75 76/76/76
f 77/77/77 78/78/78 79/79/79
f 77/77/77 79/79/79 80/80/80
f 81/81/81 82/82/82 83/83/83
f 81/81/81 83/83/83 84/84/84
f 85/85/85 86/86/86 87/87/87
f 85/85/85 87/87/87 88/88/88
f 89/89/89 90/90/90 91/91/91
f 89/89/89 91/91/91 92/92/92
f 93/93/93 94/94/94 95/95/95
f 93/93/93 95/95/95 96/96/96
f 97/97/97 98/98/98 99/99/99
f 97/97/97 99/99/99 100/100/100
f 101/101/101 102/102/102 103/103/103
f 101/101/101 103/103/103 104/104/104
f 105/105/105 106/106/106 107/107/107
f 105/105/105 107/107/107 108/108/108
