v -16.909822 8.028896 22.279158
v -16.909822 8.028896 -3.277857
v -16.909822 7.527610 -3.277857
v -16.909822 7.527610 22.279158
v -16.701269 8.028896 -3.277857
v -5.814640 8.028896 -3.277857
v -5.814640 7.527610 -3.277857
v -16.701269 7.527610 -3.277857
v -5.814640 8.028896 -3.277857
v -5.814640 8.028896 22.279158
v -5.814640 7.527610 22.279158
v -5.814640 7.527610 -3.277857
v -16.701269 8.028896 22.279158
v -16.909822 8.028896 22.279158
v -16.909822 7.527610 22.279158
v -16.701269 7.527610 22.279158
v -16.701269 7.527610 22.279158
v -16.701269 7.527610 -3.277857
v -5.814640 7.527610 -3.277857
v -5.814640 7.527610 22.279158
v -16.701269 8.670934 22.279158
v -16.909822 8.670934 22.279158
v -16.909822 8.028896 -3.277857
v -16.701269 7.527610 -3.277857
v -16.909822 7.527610 -3.277857
v -5.814640 8.028896 22.279158
v -16.701269 8.028896 22.279158
v -16.701269 7.527610 22.279158
v -5.814640 7.527610 22.279158
v -16.909822 7.527610 22.279158
v -16.909822 7.527610 -3.277857
v -5.814640 8.028896 22.279158
v -5.814640 8.028896 -3.277857
v -16.701269 8.028896 -3.277857
v -16.701269 8.028896 22.279158
v -16.701269 8.670934 22.279158
v -16.701269 8.670934 -3.277857
v -16.909822 8.670934 -3.277857
v -16.909822 8.670934 22.279158
v -16.909822 8.670934 22.279158
v -16.909822 8.670934 -3.277857
v -16.701269 8.670934 -3.277857
v -16.701269 8.670934 22.279158
v -16.701269 8.028896 22.279158
v -16.701269 8.028896 -3.277857
v -16.909822 8.670934 -3.277857
v -16.701269 8.670934 -3.277857
vn -1.000000 0.000000 0.000000
vn -1.000000 0.000000 0.000000
vn -1.000000 0.000000 0.000000
vn -1.000000 0.000000 0.000000
vn 0.000000 0.000000 -1.000000
vn 0.000000 0.000000 -1.000000
vn 0.000000 0.000000 -1.000000
vn 0.000000 0.000000 -1.000000
vn 1.000000 0.000000 0.000000
vn 1.000000 0.000000 0.000000
vn 1.000000 0.000000 0.000000
vn 1.000000 0.000000 0.000000
vn 0.000000 0.000000 1.000000
vn 0.000000 0.000000 1.000000
vn 0.000000 0.000000 1.000000
vn 0.000000 0.000000 1.000000
vn 0.000000 -1.000000 0.000000
vn 0.000000 -1.000000 0.000000
vn 0.000000 -1.000000 0.000000
vn 0.000000 -1.000000 0.000000
vn 0.000000 0.000000 1.000000
vn 0.000000 0.000000 1.000000
vn 0.000000 0.000000 -1.000000
vn 0.000000 0.000000 -1.000000
vn 0.000000 0.000000 -1.000000
vn 0.000000 0.000000 1.000000
vn 0.000000 0.000000 1.000000
vn 0.000000 0.000000 1.000000
vn 0.000000 0.000000 1.000000
vn 0.000000 -1.000000 0.000000
vn 0.000000 -1.000000 0.000000
vn 0.000000 1.000000 0.000000
vn 0.000000 1.000000 0.000000
vn 0.000000 1.000000 0.000000
vn 0.000000 1.000000 0.000000
vn 0.000000 1.000000 0.000000
vn 0.000000 1.000000 0.000000
vn 0.000000 1.000000 0.000000
vn 0.000000 1.000000 0.000000
vn -1.000000 0.000000 0.000000
vn -1.000000 0.000000 0.000000
vn 1.000000 0.000000 0.000000
vn 1.000000 0.000000 0.000000
vn 1.000000 0.000000 0.000000
vn 1.000000 0.000000 0.000000
vn 0.000000 0.000000 -1.000000
vn 0.000000 0.000000 -1.000000
vt 0.984500 0.496500
vt 0.738300 0.496500
vt 0.738300 0.250200
vt 0.984500 0.250200
vt 0.492100 0.496500
vt 0.492100 0.250200
vt 0.738300 0.250200
vt 0.738300 0.496500
vt 0.920500 0.550500
vt 0.485800 0.550500
vt 0.485800 0.115800
vt 0.920500 0.115800
vt 0.245800 0.496500
vt -0.000400 0.496500
vt -0.000400 0.250200
vt 0.245800 0.250200
vt 0.984500 0.496500
vt 0.738300 0.496500
vt 0.738300 0.250200
vt 0.984500 0.250200
vt 0.245800 0.742700
vt -0.000400 0.742700
vt 0.738300 0.496500
vt 0.492100 0.250200
vt 0.738300 0.250200
vt 0.485800 0.550500
vt 0.051200 0.550500
vt 0.051200 0.115800
vt 0.485800 0.115800
vt 0.984500 0.742700
vt 0.738300 0.742700
vt 1.000000 0.000000
vt 1.000000 0.994700
vt 0.000000 0.994700
vt 0.000000 0.000000
vt 0.245800 0.742700
vt 0.492100 0.742700
vt 0.492100 0.988900
vt 0.245800 0.988900
vt 0.984500 0.742700
vt 0.738300 0.742700
vt 1.000000 0.057700
vt 0.000000 0.057700
vt 0.000000 0.000000
vt 1.000000 0.000000
vt 0.738300 0.742700
vt 0.492100 0.742700
f 1/1/1 2/2/2 3/3/3
f 1/1/1 3/3/3 4/4/4
f 5/5/5 6/6/6 7/7/7
f 5/5/5 7/7/7 8/8/8
f 9/9/9 10/10/10 11/11/11
f 9/9/9 11/11/11 12/12/12
f 13/13/13 14/14/14 15/15/15
f 13/13/13 15/15/15 16/16/16
f 17/17/17 18/18/18 19/19/19
f 17/17/17 19/19/19 20/20/20
f 21/21/21 22/22/22 14/14/14
f 21/21/21 14/14/14 13/13/13
f 23/23/23 5/5/5 24/24/24
f 23/23/23 24/24/24 25/25/25
f 26/26/26 27/27/27 28/28/28
f 26/26/26 28/28/28 29/29/29
f 30/30/30 31/31/31 18/18/18
f 30/30/30 18/18/18 17/17/17
f 32/32/32 33/33/33 34/34/34
f 32/32/32 34/34/34 35/35/35
f 36/36/36 37/37/37 38/38/38
f 36/36/36 38/38/38 39/39/39
f 40/40/40 41/41/41 2/2/2
f 40/40/40 2/2/2 1/1/1
f 42/42/42 43/43/43 44/44/44
f 42/42/42 44/44/44 45/45/45
f 5/5/5 23/23/23 46/46/46
f 5/5/5 46/46/46 47/47/47
