v 16.899389 0.922321 -21.321463
v 16.817009 0.924953 -21.321463
v 16.817011 0.924953 22.485916
v 16.899391 0.924953 22.485916
v 16.817011 0.109879 22.485916
v 16.817011 0.924953 22.485916
v 16.817009 0.924953 -21.321463
v 16.817009 0.109879 -21.321463
v 13.936014 0.922321 -19.939289
v 13.936014 0.109879 -19.939289
v 13.936014 0.109879 -20.031124
v 13.936014 0.922321 -20.031124
v -15.701201 33.609558 -21.321461
v -17.027702 33.609558 -21.321461
v 16.899389 5.898501 -21.321463
v 16.899389 5.086060 -21.321463
vn 0.016000 0.999900 -0.000000
vn 0.016000 0.999900 -0.000000
vn 0.016000 0.999900 -0.000000
vn 0.016000 0.999900 -0.000000
vn -1.000000 0.000000 0.000000
vn -1.000000 0.000000 0.000000
vn -1.000000 0.000000 0.000000
vn -1.000000 0.000000 0.000000
vn 1.000000 0.000000 0.000000
vn 1.000000 0.000000 0.000000
vn 1.000000 0.000000 0.000000
vn 1.000000 0.000000 0.000000
vn 0.000000 1.000000 0.000000
vn 0.000000 1.000000 0.000000
vn 0.000000 1.000000 0.000000
vn 0.000000 1.000000 0.000000
vt 0.000000 0.000000
vt 0.000000 0.000000
vt 0.000000 0.000000
vt 0.000000 0.000000
vt 0.000000 0.000000
vt 0.000000 0.000000
vt 0.000000 0.000000
vt 0.000000 0.000000
vt 0.000000 0.000000
vt 0.000000 0.000000
vt 0.000000 0.000000
vt 0.000000 0.000000
vt 0.000000 0.000000
vt 0.000000 0.000000
vt 0.000000 0.000000
vt 0.000000 0.000000
f 1/1/1 2/2/2 3/3/3
f 1/1/1 3/3/3 4/4/4
f 5/5/5 6/6/6 7/7/7
f 5/5/5 7/7/7 8/8/8
f 9/9/9 10/10/10 11/11/11
f 9/9/9 11/11/11 12/12/12
