v -2.433296 0.662159 -1.094213
v -2.434045 0.661344 -1.091602
v -2.430282 0.661096 -1.091435
v -2.429850 0.661972 -1.094433
v -2.429334 0.662887 -1.096640
v -2.432287 0.663028 -1.096116
v -2.434177 0.662737 -1.095338
v -2.435751 0.662128 -1.093979
v -2.436810 0.661397 -1.091745
v -2.433593 0.661302 -1.088803
v -2.432807 0.661523 -1.086629
v -2.429926 0.661178 -1.085862
v -2.430188 0.660997 -1.088285
v -2.436008 0.661386 -1.089296
v -2.434599 0.661518 -1.087655
v -2.418704 0.658200 -1.088162
v -2.418703 0.658115 -1.085846
v -2.414963 0.656648 -1.086500
v -2.414974 0.656707 -1.088552
v -2.414917 0.656935 -1.091252
v -2.418630 0.658471 -1.091212
v -2.422424 0.659743 -1.091218
v -2.422495 0.659486 -1.088024
v -2.422482 0.659439 -1.085594
v -2.418374 0.659155 -1.094187
v -2.414681 0.657552 -1.093880
v -2.414451 0.658128 -1.095837
v -2.418124 0.659789 -1.096402
v -2.421876 0.661190 -1.096635
v -2.422149 0.660485 -1.094325
v -2.426055 0.661419 -1.094439
v -2.426358 0.660590 -1.091300
v -2.425739 0.662248 -1.096764
v -2.426406 0.660405 -1.088045
v -2.426353 0.660471 -1.085558
v -2.411246 0.655171 -1.089286
v -2.411210 0.655185 -1.087742
v -2.409153 0.654308 -1.088832
v -2.408464 0.653967 -1.089968
v -2.408478 0.653993 -1.091365
v -2.411225 0.655296 -1.091309
v -2.411027 0.655801 -1.093262
v -2.408315 0.654399 -1.092692
v -2.408884 0.655086 -1.093734
v -2.410827 0.656290 -1.094714
v -2.433322 0.661878 -1.094301
v -2.434073 0.661053 -1.091650
v -2.436826 0.661178 -1.091781
v -2.435766 0.661917 -1.094046
v -2.434189 0.662583 -1.095397
v -2.432305 0.662822 -1.096202
v -2.429363 0.662681 -1.096720
v -2.429889 0.661690 -1.094517
v -2.430322 0.660806 -1.091483
v -2.433623 0.661007 -1.088810
v -2.432831 0.661302 -1.086613
v -2.434614 0.661354 -1.087649
v -2.436026 0.661164 -1.089299
v -2.430230 0.660704 -1.088297
v -2.429959 0.660957 -1.085853
v -2.418800 0.657919 -1.088185
v -2.418776 0.657903 -1.085850
v -2.422542 0.659224 -1.085595
v -2.422575 0.659200 -1.088045
v -2.422503 0.659461 -1.091268
v -2.418725 0.658193 -1.091261
v -2.415023 0.656661 -1.091301
v -2.415081 0.656430 -1.088575
v -2.415044 0.656439 -1.086504
v -2.418467 0.658882 -1.094262
v -2.422226 0.660208 -1.094402
v -2.421933 0.660985 -1.096706
v -2.418193 0.659587 -1.096471
v -2.414528 0.657929 -1.095906
v -2.414786 0.657283 -1.093955
v -2.426112 0.661139 -1.094519
v -2.426417 0.660303 -1.091349
v -2.425781 0.662042 -1.096839
v -2.426466 0.660115 -1.088062
v -2.426400 0.660253 -1.085555
v -2.411357 0.654895 -1.089307
v -2.411294 0.654977 -1.087744
v -2.411335 0.655023 -1.091358
v -2.408561 0.653789 -1.091402
v -2.408549 0.653761 -1.089982
v -2.409215 0.654155 -1.088837
v -2.411136 0.655534 -1.093339
v -2.410907 0.656094 -1.094785
v -2.408944 0.654939 -1.093783
v -2.408397 0.654200 -1.092751
v -2.411235 0.655097 -1.087225
v -2.408434 0.653978 -1.088840
v -2.414996 0.656535 -1.085815
v -2.409215 0.654155 -1.088837
v -2.407447 0.653843 -1.092529
v -2.408164 0.654756 -1.093752
v -2.407599 0.653469 -1.091400
v -2.408944 0.654939 -1.093783
v -2.431958 0.663227 -1.096793
v -2.434319 0.662854 -1.095651
v -2.429175 0.663101 -1.097415
v -2.434189 0.662583 -1.095397
v -2.436820 0.661315 -1.089461
v -2.434775 0.661536 -1.087339
v -2.437738 0.661317 -1.091809
v -2.434614 0.661354 -1.087649
v -2.432556 0.661499 -1.085892
v -2.429853 0.661140 -1.085046
v -2.407575 0.653474 -1.090201
v -2.410795 0.656367 -1.095232
v -2.414408 0.658232 -1.096523
v -2.436575 0.662024 -1.093931
v -2.425652 0.662434 -1.097575
v -2.421810 0.661334 -1.097440
v -2.426357 0.660396 -1.084724
v -2.422505 0.659327 -1.084781
v -2.418735 0.657992 -1.085073
v -2.418071 0.659911 -1.097174
vn 0.047900 0.928100 0.369300
vn 0.039700 0.986500 0.158600
vn 0.099400 0.981900 0.161100
vn 0.109100 0.930400 0.349800
vn 0.134600 0.930100 0.341700
vn 0.048800 0.930900 0.361800
vn -0.012200 0.927500 0.373500
vn -0.042200 0.944200 0.326600
vn -0.053600 0.986700 0.153500
vn 0.071300 0.995800 -0.057700
vn 0.071400 0.996200 -0.049700
vn 0.154600 0.987700 -0.021700
vn 0.130000 0.991000 -0.032000
vn -0.023000 0.999500 -0.022100
vn 0.012000 0.997600 -0.068400
vn 0.349700 0.935100 0.057200
vn 0.356700 0.929400 0.094200
vn 0.386600 0.917100 0.096800
vn 0.380700 0.923400 0.049000
vn 0.386300 0.907500 0.165100
vn 0.346700 0.923300 0.165400
vn 0.265300 0.949900 0.165100
vn 0.277500 0.959700 0.043700
vn 0.293500 0.953300 0.071100
vn 0.337900 0.901100 0.271600
vn 0.368100 0.886900 0.279100
vn 0.379100 0.895600 0.232500
vn 0.348900 0.907000 0.235700
vn 0.283300 0.923600 0.258200
vn 0.264300 0.921600 0.284300
vn 0.178500 0.932600 0.313500
vn 0.173300 0.971200 0.163500
vn 0.205700 0.932100 0.298100
vn 0.195100 0.980700 0.010300
vn 0.220600 0.975000 0.027700
vn 0.394000 0.918800 0.023200
vn 0.404900 0.911300 0.074200
vn 0.420600 0.906200 0.042100
vn 0.445300 0.895400 0.000300
vn 0.455600 0.875000 0.163700
vn 0.404700 0.899500 0.164800
vn 0.378600 0.874400 0.303500
vn 0.427600 0.844100 0.323400
vn 0.407300 0.867800 0.284600
vn 0.395000 0.882800 0.254100
vn -0.069500 -0.915600 -0.396100
vn -0.056200 -0.985600 -0.159300
vn -0.119600 -0.979500 -0.161800
vn -0.130200 -0.870800 -0.474000
vn -0.147700 -0.804700 -0.574900
vn -0.140100 -0.820300 -0.554500
vn -0.147400 -0.856700 -0.494200
vn -0.109600 -0.924900 -0.364100
vn -0.099300 -0.981900 -0.161100
vn -0.095900 -0.991800 0.084600
vn -0.184500 -0.948900 0.256100
vn -0.194600 -0.940200 0.279300
vn -0.165300 -0.972300 0.165400
vn -0.132100 -0.990100 0.047200
vn -0.184800 -0.964800 0.187100
vn -0.348700 -0.936300 -0.041000
vn -0.338500 -0.938200 0.071500
vn -0.287700 -0.954100 0.083100
vn -0.277400 -0.960300 -0.028700
vn -0.265500 -0.949900 -0.165200
vn -0.346800 -0.923200 -0.165400
vn -0.386400 -0.907400 -0.165100
vn -0.377600 -0.925400 -0.030200
vn -0.339700 -0.935500 0.096500
vn -0.335200 -0.897300 -0.287200
vn -0.262600 -0.917500 -0.298700
vn -0.261000 -0.876900 -0.403600
vn -0.312900 -0.864600 -0.393100
vn -0.311600 -0.854300 -0.416000
vn -0.363000 -0.883100 -0.297200
vn -0.177400 -0.928100 -0.327400
vn -0.173300 -0.971200 -0.163500
vn -0.193700 -0.876700 -0.440300
vn -0.195600 -0.980700 0.004300
vn -0.224800 -0.966300 0.125000
vn -0.375400 -0.926800 0.002300
vn -0.303800 -0.940700 0.150700
vn -0.393500 -0.904400 -0.165000
vn -0.343800 -0.924300 -0.165400
vn -0.306700 -0.948800 0.074900
vn -0.275900 -0.943700 0.182500
vn -0.357200 -0.874500 -0.328100
vn -0.270000 -0.843100 -0.464900
vn -0.238900 -0.836600 -0.493000
vn -0.280900 -0.874100 -0.396200
vn 0.370000 -0.101300 0.923500
vn 0.702900 -0.172900 0.689900
vn 0.221700 -0.088700 0.971000
vn -0.275900 -0.943700 0.182500
vn 0.920000 -0.311100 -0.238300
vn 0.775500 0.036300 -0.630300
vn 0.865400 -0.500000 -0.032000
vn -0.238900 -0.836600 -0.493000
vn -0.241400 0.488500 -0.838500
vn -0.536000 0.457600 -0.709400
vn -0.043400 0.442900 -0.895500
vn -0.147700 -0.804700 -0.574900
vn -0.887700 0.049500 0.457700
vn -0.616300 0.225500 0.754500
vn -0.998100 -0.020600 -0.057800
vn -0.194600 -0.940200 0.279300
vn -0.337800 0.210000 0.917500
vn -0.146200 0.145700 0.978500
vn 0.894500 -0.385000 0.227200
vn 0.467900 0.182200 -0.864800
vn 0.325500 0.211300 -0.921600
vn -0.834500 0.203400 -0.512100
vn 0.085500 0.375800 -0.922700
vn 0.152100 0.320700 -0.934800
vn -0.019700 0.071300 0.997300
vn 0.046100 0.014100 0.998800
vn 0.110400 -0.042800 0.993000
vn 0.216600 0.263600 -0.940000
vt 0.839504 0.118056
vt 0.856743 0.205307
vt 0.741230 0.205307
vt 0.734555 0.106726
vt 0.724541 0.032791
vt 0.813647 0.052618
vt 0.868992 0.081539
vt 0.913398 0.129584
vt 0.940923 0.205307
vt 0.839504 0.292557
vt 0.813647 0.357995
vt 0.724541 0.377822
vt 0.734555 0.303887
vt 0.913398 0.281029
vt 0.868992 0.329074
vt 0.369475 0.299954
vt 0.368286 0.370940
vt 0.245840 0.351447
vt 0.246397 0.288815
vt 0.246768 0.205307
vt 0.370268 0.205307
vt 0.494283 0.205307
vt 0.492822 0.304944
vt 0.490632 0.379672
vt 0.369475 0.110659
vt 0.246397 0.121798
vt 0.245841 0.059166
vt 0.368286 0.039673
vt 0.490632 0.030941
vt 0.492822 0.105669
vt 0.616755 0.103478
vt 0.619174 0.205307
vt 0.613127 0.027106
vt 0.616755 0.307135
vt 0.613126 0.383507
vt 0.123273 0.268175
vt 0.123047 0.315326
vt 0.054743 0.283353
vt 0.030912 0.249131
vt 0.030973 0.205306
vt 0.123423 0.205306
vt 0.123273 0.142438
vt 0.030912 0.161481
vt 0.054744 0.127260
vt 0.123047 0.095287
vt 0.839504 0.118056
vt 0.856743 0.205307
vt 0.968983 0.205307
vt 0.938030 0.133427
vt 0.876123 0.061548
vt 0.805028 0.030806
vt 0.721203 0.008146
vt 0.734555 0.106726
vt 0.741230 0.205307
vt 0.839504 0.292557
vt 0.805028 0.379807
vt 0.876123 0.349065
vt 0.938030 0.277186
vt 0.734555 0.303887
vt 0.721203 0.402467
vt 0.369475 0.299954
vt 0.367890 0.394602
vt 0.489902 0.404581
vt 0.492822 0.304944
vt 0.494283 0.205307
vt 0.370268 0.205307
vt 0.246768 0.205307
vt 0.246397 0.288815
vt 0.245655 0.372324
vt 0.369475 0.110659
vt 0.492822 0.105669
vt 0.489902 0.006032
vt 0.367890 0.016011
vt 0.245655 0.038289
vt 0.246397 0.121798
vt 0.616755 0.103478
vt 0.619174 0.205307
vt 0.611917 0.001649
vt 0.616755 0.307135
vt 0.611917 0.408964
vt 0.123273 0.268175
vt 0.122972 0.331043
vt 0.123423 0.205306
vt 0.000156 0.205306
vt 0.000125 0.242784
vt 0.000064 0.280261
vt 0.123273 0.142438
vt 0.122972 0.079570
vt 0.000064 0.130352
vt 0.000125 0.167829
vt 0.122972 0.331043
vt 0.030806 0.283587
vt 0.245655 0.372324
vt 0.030806 0.283587
vt 0.000125 0.167829
vt 0.030806 0.127026
vt 0.000156 0.205306
vt 0.030806 0.127026
vt 0.805028 0.030806
vt 0.873826 0.071832
vt 0.721203 0.008146
vt 0.873826 0.071832
vt 0.938030 0.277186
vt 0.873826 0.338781
vt 0.968983 0.205307
vt 0.873826 0.338781
vt 0.805028 0.379807
vt 0.721203 0.402467
vt 0.000125 0.242784
vt 0.122972 0.079570
vt 0.245655 0.038289
vt 0.938030 0.133427
vt 0.611917 0.001649
vt 0.489902 0.006032
vt 0.611917 0.408964
vt 0.489902 0.404581
vt 0.367890 0.394602
vt 0.367890 0.016011
f 1/1/1 2/2/2 3/3/3
f 1/1/1 3/3/3 4/4/4
f 1/1/1 4/4/4 5/5/5
f 1/1/1 5/5/5 6/6/6
f 1/1/1 6/6/6 7/7/7
f 1/1/1 7/7/7 8/8/8
f 1/1/1 8/8/8 9/9/9
f 1/1/1 9/9/9 2/2/2
f 10/10/10 11/11/11 12/12/12
f 10/10/10 12/12/12 13/13/13
f 10/10/10 13/13/13 3/3/3
f 10/10/10 3/3/3 2/2/2
f 10/10/10 2/2/2 9/9/9
f 10/10/10 9/9/9 14/14/14
f 10/10/10 14/14/14 15/15/15
f 10/10/10 15/15/15 11/11/11
f 16/16/16 17/17/17 18/18/18
f 16/16/16 18/18/18 19/19/19
f 16/16/16 19/19/19 20/20/20
f 16/16/16 20/20/20 21/21/21
f 16/16/16 21/21/21 22/22/22
f 16/16/16 22/22/22 23/23/23
f 16/16/16 23/23/23 24/24/24
f 16/16/16 24/24/24 17/17/17
f 25/25/25 21/21/21 20/20/20
f 25/25/25 20/20/20 26/26/26
f 25/25/25 26/26/26 27/27/27
f 25/25/25 27/27/27 28/28/28
f 25/25/25 28/28/28 29/29/29
f 25/25/25 29/29/29 30/30/30
f 25/25/25 30/30/30 22/22/22
f 25/25/25 22/22/22 21/21/21
f 31/31/31 32/32/32 22/22/22
f 31/31/31 22/22/22 30/30/30
f 31/31/31 30/30/30 29/29/29
f 31/31/31 29/29/29 33/33/33
f 31/31/31 33/33/33 5/5/5
f 31/31/31 5/5/5 4/4/4
f 31/31/31 4/4/4 3/3/3
f 31/31/31 3/3/3 32/32/32
f 34/34/34 35/35/35 24/24/24
f 34/34/34 24/24/24 23/23/23
f 34/34/34 23/23/23 22/22/22
f 34/34/34 22/22/22 32/32/32
f 34/34/34 32/32/32 3/3/3
f 34/34/34 3/3/3 13/13/13
f 34/34/34 13/13/13 12/12/12
f 34/34/34 12/12/12 35/35/35
f 36/36/36 37/37/37 38/38/38
f 36/36/36 38/38/38 39/39/39
f 36/36/36 39/39/39 40/40/40
f 36/36/36 40/40/40 41/41/41
f 36/36/36 41/41/41 20/20/20
f 36/36/36 20/20/20 19/19/19
f 36/36/36 19/19/19 18/18/18
f 36/36/36 18/18/18 37/37/37
f 42/42/42 41/41/41 40/40/40
f 42/42/42 40/40/40 43/43/43
f 42/42/42 43/43/43 44/44/44
f 42/42/42 44/44/44 45/45/45
f 42/42/42 45/45/45 27/27/27
f 42/42/42 27/27/27 26/26/26
f 42/42/42 26/26/26 20/20/20
f 42/42/42 20/20/20 41/41/41
f 46/46/46 47/47/47 48/48/48
f 46/46/46 48/48/48 49/49/49
f 46/46/46 49/49/49 50/50/50
f 46/46/46 50/50/50 51/51/51
f 46/46/46 51/51/51 52/52/52
f 46/46/46 52/52/52 53/53/53
f 46/46/46 53/53/53 54/54/54
f 46/46/46 54/54/54 47/47/47
f 55/55/55 56/56/56 57/57/57
f 55/55/55 57/57/57 58/58/58
f 55/55/55 58/58/58 48/48/48
f 55/55/55 48/48/48 47/47/47
f 55/55/55 47/47/47 54/54/54
f 55/55/55 54/54/54 59/59/59
f 55/55/55 59/59/59 60/60/60
f 55/55/55 60/60/60 56/56/56
f 61/61/61 62/62/62 63/63/63
f 61/61/61 63/63/63 64/64/64
f 61/61/61 64/64/64 65/65/65
f 61/61/61 65/65/65 66/66/66
f 61/61/61 66/66/66 67/67/67
f 61/61/61 67/67/67 68/68/68
f 61/61/61 68/68/68 69/69/69
f 61/61/61 69/69/69 62/62/62
f 70/70/70 66/66/66 65/65/65
f 70/70/70 65/65/65 71/71/71
f 70/70/70 71/71/71 72/72/72
f 70/70/70 72/72/72 73/73/73
f 70/70/70 73/73/73 74/74/74
f 70/70/70 74/74/74 75/75/75
f 70/70/70 75/75/75 67/67/67
f 70/70/70 67/67/67 66/66/66
f 76/76/76 77/77/77 54/54/54
f 76/76/76 54/54/54 53/53/53
f 76/76/76 53/53/53 52/52/52
f 76/76/76 52/52/52 78/78/78
f 76/76/76 78/78/78 72/72/72
f 76/76/76 72/72/72 71/71/71
f 76/76/76 71/71/71 65/65/65
f 76/76/76 65/65/65 77/77/77
f 79/79/79 80/80/80 60/60/60
f 79/79/79 60/60/60 59/59/59
f 79/79/79 59/59/59 54/54/54
f 79/79/79 54/54/54 77/77/77
f 79/79/79 77/77/77 65/65/65
f 79/79/79 65/65/65 64/64/64
f 79/79/79 64/64/64 63/63/63
f 79/79/79 63/63/63 80/80/80
f 81/81/81 82/82/82 69/69/69
f 81/81/81 69/69/69 68/68/68
f 81/81/81 68/68/68 67/67/67
f 81/81/81 67/67/67 83/83/83
f 81/81/81 83/83/83 84/84/84
f 81/81/81 84/84/84 85/85/85
f 81/81/81 85/85/85 86/86/86
f 81/81/81 86/86/86 82/82/82
f 87/87/87 83/83/83 67/67/67
f 87/87/87 67/67/67 75/75/75
f 87/87/87 75/75/75 74/74/74
f 87/87/87 74/74/74 88/88/88
f 87/87/87 88/88/88 89/89/89
f 87/87/87 89/89/89 90/90/90
f 87/87/87 90/90/90 84/84/84
f 87/87/87 84/84/84 83/83/83
f 91/91/91 92/92/92 38/38/38
f 91/91/91 38/38/38 37/37/37
f 91/91/91 37/37/37 18/18/18
f 91/91/91 18/18/18 93/93/93
f 91/91/91 93/93/93 69/69/69
f 91/91/91 69/69/69 82/82/82
f 91/91/91 82/82/82 94/94/94
f 91/91/91 94/94/94 92/92/92
f 95/95/95 96/96/96 44/44/44
f 95/95/95 44/44/44 43/43/43
f 95/95/95 43/43/43 40/40/40
f 95/95/95 40/40/40 97/97/97
f 95/95/95 97/97/97 84/84/84
f 95/95/95 84/84/84 90/90/90
f 95/95/95 90/90/90 98/98/98
f 95/95/95 98/98/98 96/96/96
f 99/99/99 100/100/100 7/7/7
f 99/99/99 7/7/7 6/6/6
f 99/99/99 6/6/6 5/5/5
f 99/99/99 5/5/5 101/101/101
f 99/99/99 101/101/101 52/52/52
f 99/99/99 52/52/52 51/51/51
f 99/99/99 51/51/51 102/102/102
f 99/99/99 102/102/102 100/100/100
f 103/103/103 104/104/104 15/15/15
f 103/103/103 15/15/15 14/14/14
f 103/103/103 14/14/14 9/9/9
f 103/103/103 9/9/9 105/105/105
f 103/103/103 105/105/105 48/48/48
f 103/103/103 48/48/48 58/58/58
f 103/103/103 58/58/58 106/106/106
f 103/103/103 106/106/106 104/104/104
f 107/107/107 108/108/108 12/12/12
f 107/107/107 12/12/12 11/11/11
f 107/107/107 11/11/11 15/15/15
f 107/107/107 15/15/15 104/104/104
f 107/107/107 104/104/104 106/106/106
f 107/107/107 106/106/106 56/56/56
f 107/107/107 56/56/56 60/60/60
f 107/107/107 60/60/60 108/108/108
f 109/109/109 97/97/97 40/40/40
f 109/109/109 40/40/40 39/39/39
f 109/109/109 39/39/39 38/38/38
f 109/109/109 38/38/38 92/92/92
f 109/109/109 92/92/92 94/94/94
f 109/109/109 94/94/94 85/85/85
f 109/109/109 85/85/85 84/84/84
f 109/109/109 84/84/84 97/97/97
f 110/110/110 111/111/111 27/27/27
f 110/110/110 27/27/27 45/45/45
f 110/110/110 45/45/45 44/44/44
f 110/110/110 44/44/44 96/96/96
f 110/110/110 96/96/96 98/98/98
f 110/110/110 98/98/98 88/88/88
f 110/110/110 88/88/88 74/74/74
f 110/110/110 74/74/74 111/111/111
f 112/112/112 105/105/105 9/9/9
f 112/112/112 9/9/9 8/8/8
f 112/112/112 8/8/8 7/7/7
f 112/112/112 7/7/7 100/100/100
f 112/112/112 100/100/100 102/102/102
f 112/112/112 102/102/102 49/49/49
f 112/112/112 49/49/49 48/48/48
f 112/112/112 48/48/48 105/105/105
f 113/113/113 101/101/101 5/5/5
f 113/113/113 5/5/5 33/33/33
f 113/113/113 33/33/33 29/29/29
f 113/113/113 29/29/29 114/114/114
f 113/113/113 114/114/114 72/72/72
f 113/113/113 72/72/72 78/78/78
f 113/113/113 78/78/78 52/52/52
f 113/113/113 52/52/52 101/101/101
f 115/115/115 116/116/116 24/24/24
f 115/115/115 24/24/24 35/35/35
f 115/115/115 35/35/35 12/12/12
f 115/115/115 12/12/12 108/108/108
f 115/115/115 108/108/108 60/60/60
f 115/115/115 60/60/60 80/80/80
f 115/115/115 80/80/80 63/63/63
f 115/115/115 63/63/63 116/116/116
f 117/117/117 93/93/93 18/18/18
f 117/117/117 18/18/18 17/17/17
f 117/117/117 17/17/17 24/24/24
f 117/117/117 24/24/24 116/116/116
f 117/117/117 116/116/116 63/63/63
f 117/117/117 63/63/63 62/62/62
f 117/117/117 62/62/62 69/69/69
f 117/117/117 69/69/69 93/93/93
f 118/118/118 114/114/114 29/29/29
f 118/118/118 29/29/29 28/28/28
f 118/118/118 28/28/28 27/27/27
f 118/118/118 27/27/27 111/111/111
f 118/118/118 111/111/111 74/74/74
f 118/118/118 74/74/74 73/73/73
f 118/118/118 73/73/73 72/72/72
f 118/118/118 72/72/72 114/114/114
