v -2.404446 0.791809 -1.215973
v -2.402630 0.792238 -1.215626
v -2.402404 0.790212 -1.217118
v -2.404485 0.789917 -1.217304
v -2.406067 0.789705 -1.217660
v -2.405816 0.791365 -1.216558
v -2.405296 0.792339 -1.215726
v -2.404335 0.793102 -1.214953
v -2.402783 0.793673 -1.214463
v -2.400827 0.792380 -1.216200
v -2.399469 0.792366 -1.216956
v -2.398857 0.790842 -1.218113
v -2.400372 0.790566 -1.217562
v -2.401203 0.793596 -1.215150
v -2.400156 0.793149 -1.216048
v -2.399521 0.783512 -1.221040
v -2.398026 0.783803 -1.221333
v -2.398080 0.781187 -1.222088
v -2.399402 0.780928 -1.221817
v -2.401169 0.780610 -1.221566
v -2.401520 0.783155 -1.220767
v -2.401850 0.785629 -1.219796
v -2.399760 0.786011 -1.220099
v -2.398200 0.786326 -1.220431
v -2.403551 0.782877 -1.220788
v -2.402966 0.780366 -1.221594
v -2.404326 0.780202 -1.221696
v -2.405087 0.782690 -1.220889
v -2.405586 0.785162 -1.219968
v -2.403976 0.785346 -1.219834
v -2.404308 0.787728 -1.218632
v -2.402144 0.787995 -1.218544
v -2.405952 0.787569 -1.218844
v -2.400030 0.788402 -1.218901
v -2.398455 0.788751 -1.219315
v -2.399493 0.778279 -1.222522
v -2.398510 0.778483 -1.222767
v -2.398992 0.776913 -1.223042
v -2.399636 0.776261 -1.222999
v -2.400533 0.776082 -1.222806
v -2.400809 0.778034 -1.222301
v -2.402153 0.777859 -1.222355
v -2.401458 0.775974 -1.222885
v -2.402272 0.776396 -1.222837
v -2.403174 0.777747 -1.222474
v -2.404446 0.791698 -1.215809
v -2.402603 0.792130 -1.215462
v -2.402762 0.793589 -1.214342
v -2.404336 0.793016 -1.214832
v -2.405303 0.792275 -1.215636
v -2.405829 0.791281 -1.216436
v -2.406078 0.789626 -1.217534
v -2.404483 0.789813 -1.217136
v -2.402377 0.790110 -1.216949
v -2.400773 0.792277 -1.216040
v -2.399415 0.792293 -1.216838
v -2.400119 0.793093 -1.215961
v -2.401160 0.793517 -1.215032
v -2.400321 0.790469 -1.217397
v -2.398807 0.790772 -1.217990
v -2.399481 0.783447 -1.220856
v -2.397987 0.783756 -1.221196
v -2.398159 0.786272 -1.220298
v -2.399718 0.785935 -1.219920
v -2.401826 0.785550 -1.219615
v -2.401498 0.783086 -1.220582
v -2.401148 0.780549 -1.221377
v -2.399363 0.780870 -1.221631
v -2.398042 0.781145 -1.221949
v -2.403546 0.782806 -1.220601
v -2.403971 0.785265 -1.219653
v -2.405592 0.785099 -1.219832
v -2.405092 0.782635 -1.220750
v -2.404332 0.780153 -1.221554
v -2.402962 0.780302 -1.221405
v -2.404304 0.787634 -1.218457
v -2.402119 0.787904 -1.218369
v -2.405959 0.787498 -1.218713
v -2.399984 0.788315 -1.218728
v -2.398410 0.788688 -1.219187
v -2.399454 0.778224 -1.222334
v -2.398471 0.778443 -1.222628
v -2.400788 0.777976 -1.222112
v -2.400517 0.776039 -1.222663
v -2.399605 0.776220 -1.222859
v -2.398965 0.776884 -1.222939
v -2.402151 0.777798 -1.222165
v -2.403182 0.777700 -1.222332
v -2.402275 0.776362 -1.222731
v -2.401458 0.775928 -1.222743
v -2.398163 0.778533 -1.222787
v -2.398918 0.776407 -1.223180
v -2.397621 0.781255 -1.222117
v -2.398965 0.776884 -1.222939
v -2.401227 0.775325 -1.222998
v -2.402203 0.775889 -1.222974
v -2.400434 0.775412 -1.222910
v -2.402275 0.776362 -1.222731
v -2.406281 0.791180 -1.216699
v -2.405522 0.792415 -1.215679
v -2.406602 0.789599 -1.217723
v -2.405303 0.792275 -1.215636
v -2.401309 0.793966 -1.214748
v -2.399961 0.793292 -1.216028
v -2.402825 0.794113 -1.214022
v -2.400119 0.793093 -1.215961
v -2.398989 0.792330 -1.217156
v -2.398327 0.790904 -1.218242
v -2.399669 0.775570 -1.223096
v -2.403520 0.777688 -1.222451
v -2.404784 0.780125 -1.221667
v -2.404299 0.793495 -1.214560
v -2.406506 0.787484 -1.218856
v -2.406128 0.785072 -1.219952
v -2.397908 0.788839 -1.219396
v -2.397659 0.786408 -1.220483
v -2.397508 0.783879 -1.221370
v -2.405603 0.782603 -1.220862
vn 0.075700 0.593900 -0.800900
vn -0.143000 0.590900 -0.793900
vn -0.137500 0.542500 -0.828700
vn 0.058000 0.543800 -0.837200
vn 0.051100 0.522200 -0.851300
vn 0.067800 0.593400 -0.802000
vn 0.078400 0.641100 -0.763500
vn 0.027700 0.664400 -0.746800
vn -0.150500 0.662300 -0.733900
vn -0.351200 0.526600 -0.774100
vn -0.343600 0.528500 -0.776300
vn -0.312100 0.464900 -0.828500
vn -0.323600 0.483600 -0.813200
vn -0.321000 0.609500 -0.724900
vn -0.363500 0.571500 -0.735700
vn -0.215700 0.298800 -0.929600
vn -0.178500 0.297800 -0.937800
vn -0.171500 0.267900 -0.948000
vn -0.219200 0.266100 -0.938700
vn -0.103500 0.276700 -0.955400
vn -0.109100 0.316800 -0.942200
vn -0.119500 0.395700 -0.910600
vn -0.237900 0.366600 -0.899400
vn -0.209500 0.356100 -0.910600
vn -0.001400 0.332700 -0.943000
vn 0.010800 0.302300 -0.953100
vn -0.035900 0.289200 -0.956600
vn -0.037100 0.320100 -0.946600
vn -0.022500 0.385700 -0.922300
vn 0.002500 0.404600 -0.914500
vn 0.024700 0.483800 -0.874800
vn -0.130000 0.479300 -0.867900
vn 0.010800 0.459200 -0.888200
vn -0.278400 0.436000 -0.855800
vn -0.259400 0.416500 -0.871300
vn -0.242100 0.247700 -0.938100
vn -0.190900 0.245600 -0.950400
vn -0.219600 0.223500 -0.949600
vn -0.255500 0.189100 -0.948100
vn -0.093200 0.203200 -0.974700
vn -0.100900 0.257600 -0.961000
vn 0.038100 0.291900 -0.955700
vn 0.067400 0.240000 -0.968400
vn 0.022900 0.261700 -0.964800
vn -0.011000 0.273800 -0.961700
vn -0.105600 -0.575300 0.811100
vn 0.141500 -0.577800 0.803800
vn 0.135600 -0.525600 0.839800
vn -0.194900 -0.517900 0.832900
vn -0.311500 -0.486000 0.816500
vn -0.287100 -0.496900 0.818900
vn -0.218900 -0.500500 0.837600
vn -0.073400 -0.543100 0.836400
vn 0.137500 -0.542600 0.828600
vn 0.374900 -0.499600 0.780800
vn 0.523300 -0.369100 0.768100
vn 0.542600 -0.351400 0.762900
vn 0.444300 -0.417200 0.792700
vn 0.337800 -0.478300 0.810600
vn 0.462200 -0.393100 0.794800
vn 0.231500 -0.296900 0.926400
vn 0.339800 -0.282400 0.897100
vn 0.357000 -0.328700 0.874300
vn 0.252500 -0.363900 0.896500
vn 0.119500 -0.395600 0.910600
vn 0.109000 -0.316700 0.942200
vn 0.103600 -0.276500 0.955400
vn 0.237800 -0.265800 0.934200
vn 0.362700 -0.274700 0.890500
vn -0.014500 -0.335700 0.941800
vn -0.017400 -0.406500 0.913500
vn -0.129600 -0.405500 0.904800
vn -0.124800 -0.355700 0.926200
vn -0.149600 -0.355400 0.922600
vn -0.029000 -0.307800 0.951000
vn -0.039300 -0.484800 0.873700
vn 0.130000 -0.479400 0.867900
vn -0.162700 -0.465200 0.870100
vn 0.292300 -0.432500 0.852900
vn 0.402400 -0.376000 0.834600
vn 0.269300 -0.261600 0.926800
vn 0.416900 -0.294300 0.860000
vn 0.102500 -0.269200 0.957600
vn 0.109500 -0.319700 0.941200
vn 0.347100 -0.312600 0.884200
vn 0.448800 -0.311000 0.837700
vn -0.060900 -0.313700 0.947600
vn -0.198500 -0.391300 0.898600
vn -0.226300 -0.417400 0.880100
vn -0.123800 -0.386900 0.913800
vn 0.921300 -0.153500 -0.357300
vn 0.728800 -0.503600 -0.463900
vn 0.958800 -0.021000 -0.283200
vn 0.448800 -0.311000 0.837700
vn -0.108300 -0.948400 -0.298000
vn -0.590700 -0.711200 -0.381000
vn 0.143700 -0.975300 -0.167400
vn -0.226300 -0.417400 0.880100
vn -0.952500 0.302900 -0.030500
vn -0.828200 0.539700 0.150600
vn -0.987900 0.110400 -0.109100
vn -0.311500 -0.486000 0.816500
vn 0.397200 0.813300 0.425200
vn 0.634700 0.770400 0.059000
vn -0.076400 0.748800 0.658300
vn 0.542600 -0.351400 0.762900
vn 0.802900 0.579100 -0.140900
vn 0.885600 0.405300 -0.227000
vn 0.357000 -0.874800 -0.327300
vn -0.866100 -0.435500 -0.245100
vn -0.933200 -0.319500 -0.164500
vn -0.572100 0.660500 0.486300
vn -0.990300 -0.035100 -0.134600
vn -0.983500 -0.122300 -0.133400
vn 0.929100 0.267300 -0.255500
vn 0.949600 0.182100 -0.254900
vn 0.962900 0.097000 -0.251800
vn -0.969500 -0.207300 -0.130500
vt 0.839504 0.118056
vt 0.856743 0.205307
vt 0.741230 0.205307
vt 0.734555 0.106726
vt 0.724541 0.032791
vt 0.813647 0.052618
vt 0.868992 0.081539
vt 0.913398 0.129584
vt 0.940923 0.205307
vt 0.839504 0.292557
vt 0.813647 0.357995
vt 0.724541 0.377822
vt 0.734555 0.303887
vt 0.913398 0.281029
vt 0.868992 0.329074
vt 0.369475 0.299954
vt 0.368286 0.370940
vt 0.245840 0.351447
vt 0.246397 0.288815
vt 0.246768 0.205307
vt 0.370268 0.205307
vt 0.494283 0.205307
vt 0.492822 0.304944
vt 0.490632 0.379672
vt 0.369475 0.110659
vt 0.246397 0.121798
vt 0.245841 0.059166
vt 0.368286 0.039673
vt 0.490632 0.030941
vt 0.492822 0.105669
vt 0.616755 0.103478
vt 0.619174 0.205307
vt 0.613127 0.027106
vt 0.616755 0.307135
vt 0.613126 0.383507
vt 0.123273 0.268175
vt 0.123047 0.315326
vt 0.054743 0.283353
vt 0.030912 0.249131
vt 0.030973 0.205306
vt 0.123423 0.205306
vt 0.123273 0.142438
vt 0.030912 0.161481
vt 0.054744 0.127260
vt 0.123047 0.095287
vt 0.839504 0.118056
vt 0.856743 0.205307
vt 0.968983 0.205307
vt 0.938030 0.133427
vt 0.876123 0.061548
vt 0.805028 0.030806
vt 0.721203 0.008146
vt 0.734555 0.106726
vt 0.741230 0.205307
vt 0.839504 0.292557
vt 0.805028 0.379807
vt 0.876123 0.349065
vt 0.938030 0.277186
vt 0.734555 0.303887
vt 0.721203 0.402467
vt 0.369475 0.299954
vt 0.367890 0.394602
vt 0.489902 0.404581
vt 0.492822 0.304944
vt 0.494283 0.205307
vt 0.370268 0.205307
vt 0.246768 0.205307
vt 0.246397 0.288815
vt 0.245655 0.372324
vt 0.369475 0.110659
vt 0.492822 0.105669
vt 0.489902 0.006032
vt 0.367890 0.016011
vt 0.245655 0.038289
vt 0.246397 0.121798
vt 0.616755 0.103478
vt 0.619174 0.205307
vt 0.611917 0.001649
vt 0.616755 0.307135
vt 0.611917 0.408964
vt 0.123273 0.268175
vt 0.122972 0.331043
vt 0.123423 0.205306
vt 0.000156 0.205306
vt 0.000125 0.242784
vt 0.000064 0.280261
vt 0.123273 0.142438
vt 0.122972 0.079570
vt 0.000064 0.130352
vt 0.000125 0.167829
vt 0.122972 0.331043
vt 0.030806 0.283587
vt 0.245655 0.372324
vt 0.030806 0.283587
vt 0.000125 0.167829
vt 0.030806 0.127026
vt 0.000156 0.205306
vt 0.030806 0.127026
vt 0.805028 0.030806
vt 0.873826 0.071832
vt 0.721203 0.008146
vt 0.873826 0.071832
vt 0.938030 0.277186
vt 0.873826 0.338781
vt 0.968983 0.205307
vt 0.873826 0.338781
vt 0.805028 0.379807
vt 0.721203 0.402467
vt 0.000125 0.242784
vt 0.122972 0.079570
vt 0.245655 0.038289
vt 0.938030 0.133427
vt 0.611917 0.001649
vt 0.489902 0.006032
vt 0.611917 0.408964
vt 0.489902 0.404581
vt 0.367890 0.394602
vt 0.367890 0.016011
f 1/1/1 2/2/2 3/3/3
f 1/1/1 3/3/3 4/4/4
f 1/1/1 4/4/4 5/5/5
f 1/1/1 5/5/5 6/6/6
f 1/1/1 6/6/6 7/7/7
f 1/1/1 7/7/7 8/8/8
f 1/1/1 8/8/8 9/9/9
f 1/1/1 9/9/9 2/2/2
f 10/10/10 11/11/11 12/12/12
f 10/10/10 12/12/12 13/13/13
f 10/10/10 13/13/13 3/3/3
f 10/10/10 3/3/3 2/2/2
f 10/10/10 2/2/2 9/9/9
f 10/10/10 9/9/9 14/14/14
f 10/10/10 14/14/14 15/15/15
f 10/10/10 15/15/15 11/11/11
f 16/16/16 17/17/17 18/18/18
f 16/16/16 18/18/18 19/19/19
f 16/16/16 19/19/19 20/20/20
f 16/16/16 20/20/20 21/21/21
f 16/16/16 21/21/21 22/22/22
f 16/16/16 22/22/22 23/23/23
f 16/16/16 23/23/23 24/24/24
f 16/16/16 24/24/24 17/17/17
f 25/25/25 21/21/21 20/20/20
f 25/25/25 20/20/20 26/26/26
f 25/25/25 26/26/26 27/27/27
f 25/25/25 27/27/27 28/28/28
f 25/25/25 28/28/28 29/29/29
f 25/25/25 29/29/29 30/30/30
f 25/25/25 30/30/30 22/22/22
f 25/25/25 22/22/22 21/21/21
f 31/31/31 32/32/32 22/22/22
f 31/31/31 22/22/22 30/30/30
f 31/31/31 30/30/30 29/29/29
f 31/31/31 29/29/29 33/33/33
f 31/31/31 33/33/33 5/5/5
f 31/31/31 5/5/5 4/4/4
f 31/31/31 4/4/4 3/3/3
f 31/31/31 3/3/3 32/32/32
f 34/34/34 35/35/35 24/24/24
f 34/34/34 24/24/24 23/23/23
f 34/34/34 23/23/23 22/22/22
f 34/34/34 22/22/22 32/32/32
f 34/34/34 32/32/32 3/3/3
f 34/34/34 3/3/3 13/13/13
f 34/34/34 13/13/13 12/12/12
f 34/34/34 12/12/12 35/35/35
f 36/36/36 37/37/37 38/38/38
f 36/36/36 38/38/38 39/39/39
f 36/36/36 39/39/39 40/40/40
f 36/36/36 40/40/40 41/41/41
f 36/36/36 41/41/41 20/20/20
f 36/36/36 20/20/20 19/19/19
f 36/36/36 19/19/19 18/18/18
f 36/36/36 18/18/18 37/37/37
f 42/42/42 41/41/41 40/40/40
f 42/42/42 40/40/40 43/43/43
f 42/42/42 43/43/43 44/44/44
f 42/42/42 44/44/44 45/45/45
f 42/42/42 45/45/45 27/27/27
f 42/42/42 27/27/27 26/26/26
f 42/42/42 26/26/26 20/20/20
f 42/42/42 20/20/20 41/41/41
f 46/46/46 47/47/47 48/48/48
f 46/46/46 48/48/48 49/49/49
f 46/46/46 49/49/49 50/50/50
f 46/46/46 50/50/50 51/51/51
f 46/46/46 51/51/51 52/52/52
f 46/46/46 52/52/52 53/53/53
f 46/46/46 53/53/53 54/54/54
f 46/46/46 54/54/54 47/47/47
f 55/55/55 56/56/56 57/57/57
f 55/55/55 57/57/57 58/58/58
f 55/55/55 58/58/58 48/48/48
f 55/55/55 48/48/48 47/47/47
f 55/55/55 47/47/47 54/54/54
f 55/55/55 54/54/54 59/59/59
f 55/55/55 59/59/59 60/60/60
f 55/55/55 60/60/60 56/56/56
f 61/61/61 62/62/62 63/63/63
f 61/61/61 63/63/63 64/64/64
f 61/61/61 64/64/64 65/65/65
f 61/61/61 65/65/65 66/66/66
f 61/61/61 66/66/66 67/67/67
f 61/61/61 67/67/67 68/68/68
f 61/61/61 68/68/68 69/69/69
f 61/61/61 69/69/69 62/62/62
f 70/70/70 66/66/66 65/65/65
f 70/70/70 65/65/65 71/71/71
f 70/70/70 71/71/71 72/72/72
f 70/70/70 72/72/72 73/73/73
f 70/70/70 73/73/73 74/74/74
f 70/70/70 74/74/74 75/75/75
f 70/70/70 75/75/75 67/67/67
f 70/70/70 67/67/67 66/66/66
f 76/76/76 77/77/77 54/54/54
f 76/76/76 54/54/54 53/53/53
f 76/76/76 53/53/53 52/52/52
f 76/76/76 52/52/52 78/78/78
f 76/76/76 78/78/78 72/72/72
f 76/76/76 72/72/72 71/71/71
f 76/76/76 71/71/71 65/65/65
f 76/76/76 65/65/65 77/77/77
f 79/79/79 80/80/80 60/60/60
f 79/79/79 60/60/60 59/59/59
f 79/79/79 59/59/59 54/54/54
f 79/79/79 54/54/54 77/77/77
f 79/79/79 77/77/77 65/65/65
f 79/79/79 65/65/65 64/64/64
f 79/79/79 64/64/64 63/63/63
f 79/79/79 63/63/63 80/80/80
f 81/81/81 82/82/82 69/69/69
f 81/81/81 69/69/69 68/68/68
f 81/81/81 68/68/68 67/67/67
f 81/81/81 67/67/67 83/83/83
f 81/81/81 83/83/83 84/84/84
f 81/81/81 84/84/84 85/85/85
f 81/81/81 85/85/85 86/86/86
f 81/81/81 86/86/86 82/82/82
f 87/87/87 83/83/83 67/67/67
f 87/87/87 67/67/67 75/75/75
f 87/87/87 75/75/75 74/74/74
f 87/87/87 74/74/74 88/88/88
f 87/87/87 88/88/88 89/89/89
f 87/87/87 89/89/89 90/90/90
f 87/87/87 90/90/90 84/84/84
f 87/87/87 84/84/84 83/83/83
f 91/91/91 92/92/92 38/38/38
f 91/91/91 38/38/38 37/37/37
f 91/91/91 37/37/37 18/18/18
f 91/91/91 18/18/18 93/93/93
f 91/91/91 93/93/93 69/69/69
f 91/91/91 69/69/69 82/82/82
f 91/91/91 82/82/82 94/94/94
f 91/91/91 94/94/94 92/92/92
f 95/95/95 96/96/96 44/44/44
f 95/95/95 44/44/44 43/43/43
f 95/95/95 43/43/43 40/40/40
f 95/95/95 40/40/40 97/97/97
f 95/95/95 97/97/97 84/84/84
f 95/95/95 84/84/84 90/90/90
f 95/95/95 90/90/90 98/98/98
f 95/95/95 98/98/98 96/96/96
f 99/99/99 100/100/100 7/7/7
f 99/99/99 7/7/7 6/6/6
f 99/99/99 6/6/6 5/5/5
f 99/99/99 5/5/5 101/101/101
f 99/99/99 101/101/101 52/52/52
f 99/99/99 52/52/52 51/51/51
f 99/99/99 51/51/51 102/102/102
f 99/99/99 102/102/102 100/100/100
f 103/103/103 104/104/104 15/15/15
f 103/103/103 15/15/15 14/14/14
f 103/103/103 14/14/14 9/9/9
f 103/103/103 9/9/9 105/105/105
f 103/103/103 105/105/105 48/48/48
f 103/103/103 48/48/48 58/58/58
f 103/103/103 58/58/58 106/106/106
f 103/103/103 106/106/106 104/104/104
f 107/107/107 108/108/108 12/12/12
f 107/107/107 12/12/12 11/11/11
f 107/107/107 11/11/11 15/15/15
f 107/107/107 15/15/15 104/104/104
f 107/107/107 104/104/104 106/106/106
f 107/107/107 106/106/106 56/56/56
f 107/107/107 56/56/56 60/60/60
f 107/107/107 60/60/60 108/108/108
f 109/109/109 97/97/97 40/40/40
f 109/109/109 40/40/40 39/39/39
f 109/109/109 39/39/39 38/38/38
f 109/109/109 38/38/38 92/92/92
f 109/109/109 92/92/92 94/94/94
f 109/109/109 94/94/94 85/85/85
f 109/109/109 85/85/85 84/84/84
f 109/109/109 84/84/84 97/97/97
f 110/110/110 111/111/111 27/27/27
f 110/110/110 27/27/27 45/45/45
f 110/110/110 45/45/45 44/44/44
f 110/110/110 44/44/44 96/96/96
f 110/110/110 96/96/96 98/98/98
f 110/110/110 98/98/98 88/88/88
f 110/110/110 88/88/88 74/74/74
f 110/110/110 74/74/74 111/111/111
f 112/112/112 105/105/105 9/9/9
f 112/112/112 9/9/9 8/8/8
f 112/112/112 8/8/8 7/7/7
f 112/112/112 7/7/7 100/100/100
f 112/112/112 100/100/100 102/102/102
f 112/112/112 102/102/102 49/49/49
f 112/112/112 49/49/49 48/48/48
f 112/112/112 48/48/48 105/105/105
f 113/113/113 101/101/101 5/5/5
f 113/113/113 5/5/5 33/33/33
f 113/113/113 33/33/33 29/29/29
f 113/113/113 29/29/29 114/114/114
f 113/113/113 114/114/114 72/72/72
f 113/113/113 72/72/72 78/78/78
f 113/113/113 78/78/78 52/52/52
f 113/113/113 52/52/52 101/101/101
f 115/115/115 116/116/116 24/24/24
f 115/115/115 24/24/24 35/35/35
f 115/115/115 35/35/35 12/12/12
f 115/115/115 12/12/12 108/108/108
f 115/115/115 108/108/108 60/60/60
f 115/115/115 60/60/60 80/80/80
f 115/115/115 80/80/80 63/63/63
f 115/115/115 63/63/63 116/116/116
f 117/117/117 93/93/93 18/18/18
f 117/117/117 18/18/18 17/17/17
f 117/117/117 17/17/17 24/24/24
f 117/117/117 24/24/24 116/116/116
f 117/117/117 116/116/116 63/63/63
f 117/117/117 63/63/63 62/62/62
f 117/117/117 62/62/62 69/69/69
f 117/117/117 69/69/69 93/93/93
f 118/118/118 114/114/114 29/29/29
f 118/118/118 29/29/29 28/28/28
f 118/118/118 28/28/28 27/27/27
f 118/118/118 27/27/27 111/111/111
f 118/118/118 111/111/111 74/74/74
f 118/118/118 74/74/74 73/73/73
f 118/118/118 73/73/73 72/72/72
f 118/118/118 72/72/72 114/114/114
