v -2.419610 0.737349 -1.110019
v -2.421072 0.736997 -1.108040
v -2.418266 0.735533 -1.107075
v -2.416941 0.736032 -1.109448
v -2.415723 0.736551 -1.111131
v -2.418094 0.737670 -1.111340
v -2.419843 0.738088 -1.111126
v -2.421585 0.738155 -1.110373
v -2.423171 0.737968 -1.108776
v -2.421388 0.736871 -1.105578
v -2.421211 0.736832 -1.103550
v -2.419264 0.735599 -1.102283
v -2.418961 0.735489 -1.104401
v -2.423123 0.737741 -1.106529
v -2.422367 0.737409 -1.104818
v -2.410981 0.729362 -1.101926
v -2.411550 0.729343 -1.099976
v -2.408973 0.726883 -1.099796
v -2.408481 0.726891 -1.101527
v -2.407731 0.726998 -1.103778
v -2.410122 0.729492 -1.104466
v -2.412652 0.731798 -1.105230
v -2.413538 0.731682 -1.102566
v -2.414111 0.731692 -1.100514
v -2.409002 0.729895 -1.106873
v -2.406731 0.727361 -1.105901
v -2.405905 0.727708 -1.107461
v -2.408082 0.730276 -1.108643
v -2.410483 0.732667 -1.109580
v -2.411468 0.732239 -1.107740
v -2.414171 0.734307 -1.108644
v -2.415413 0.733806 -1.106119
v -2.413108 0.734821 -1.110477
v -2.416271 0.733742 -1.103394
v -2.416789 0.733831 -1.101277
v -2.405918 0.724377 -1.101422
v -2.406245 0.724409 -1.100109
v -2.404680 0.722984 -1.100631
v -2.403992 0.722452 -1.101461
v -2.403668 0.722448 -1.102642
v -2.405387 0.724427 -1.103117
v -2.404611 0.724728 -1.104686
v -2.403097 0.722693 -1.103697
v -2.403070 0.723418 -1.104656
v -2.403955 0.725025 -1.105833
v -2.419703 0.737127 -1.110119
v -2.421178 0.736770 -1.108107
v -2.423248 0.737796 -1.108825
v -2.421650 0.737988 -1.110448
v -2.419889 0.737967 -1.111189
v -2.418157 0.737509 -1.111431
v -2.415794 0.736392 -1.111221
v -2.417044 0.735815 -1.109548
v -2.418381 0.735310 -1.107145
v -2.421507 0.736642 -1.105611
v -2.421307 0.736661 -1.103558
v -2.422435 0.737282 -1.104828
v -2.423210 0.737568 -1.106551
v -2.419088 0.735265 -1.104440
v -2.419364 0.735432 -1.102298
v -2.411144 0.729167 -1.101987
v -2.411675 0.729196 -1.100011
v -2.414228 0.731538 -1.100545
v -2.413689 0.731477 -1.102622
v -2.412795 0.731595 -1.105309
v -2.410276 0.729298 -1.104549
v -2.407893 0.726811 -1.103863
v -2.408651 0.726702 -1.101590
v -2.409103 0.726741 -1.099832
v -2.409147 0.729704 -1.106976
v -2.411601 0.732039 -1.107841
v -2.410578 0.732520 -1.109667
v -2.408185 0.730134 -1.108731
v -2.406014 0.727572 -1.107551
v -2.406883 0.727178 -1.106007
v -2.414288 0.734098 -1.108744
v -2.415542 0.733592 -1.106194
v -2.413191 0.734667 -1.110565
v -2.416410 0.733527 -1.103442
v -2.416898 0.733670 -1.101300
v -2.406090 0.724191 -1.101484
v -2.406379 0.724269 -1.100143
v -2.405552 0.724243 -1.103202
v -2.403791 0.722310 -1.102706
v -2.404123 0.722313 -1.101506
v -2.404778 0.722881 -1.100660
v -2.404766 0.724547 -1.104794
v -2.404065 0.724892 -1.105925
v -2.403153 0.723318 -1.104721
v -2.403213 0.722558 -1.103780
v -2.406415 0.724358 -1.099684
v -2.404228 0.722475 -1.100501
v -2.409195 0.726817 -1.099233
v -2.404778 0.722881 -1.100660
v -2.402644 0.721955 -1.103405
v -2.402615 0.722909 -1.104533
v -2.403149 0.721727 -1.102512
v -2.403153 0.723318 -1.104721
v -2.417615 0.737707 -1.111824
v -2.419841 0.738224 -1.111414
v -2.415347 0.736654 -1.111735
v -2.419889 0.737967 -1.111189
v -2.423739 0.737954 -1.106855
v -2.422572 0.737490 -1.104589
v -2.423904 0.738214 -1.109042
v -2.422435 0.737282 -1.104828
v -2.421196 0.736743 -1.102874
v -2.419410 0.735561 -1.101580
v -2.403409 0.721749 -1.101494
v -2.403784 0.725065 -1.106258
v -2.405677 0.727763 -1.108024
v -2.422271 0.738349 -1.110524
v -2.412789 0.734925 -1.111130
v -2.410196 0.732745 -1.110234
v -2.417011 0.733789 -1.100579
v -2.414355 0.731626 -1.099841
v -2.411796 0.729271 -1.099339
v -2.407820 0.730340 -1.109274
vn 0.293300 0.847200 0.442900
vn 0.364200 0.899100 0.242500
vn 0.414800 0.872000 0.259800
vn 0.353800 0.825400 0.439900
vn 0.378500 0.815100 0.438600
vn 0.297300 0.849300 0.436200
vn 0.238600 0.869900 0.431700
vn 0.230800 0.895600 0.380200
vn 0.282800 0.935000 0.213900
vn 0.453400 0.890300 0.042800
vn 0.451600 0.890800 0.050700
vn 0.514700 0.851700 0.098200
vn 0.496900 0.863900 0.082300
vn 0.361600 0.930800 0.053400
vn 0.404300 0.914400 0.017500
vn 0.647000 0.730100 0.219800
vn 0.641300 0.723100 0.256700
vn 0.662400 0.700300 0.266000
vn 0.672300 0.707100 0.218900
vn 0.640300 0.693200 0.330800
vn 0.611000 0.723000 0.322300
vn 0.548900 0.778800 0.303500
vn 0.595800 0.780200 0.190400
vn 0.600300 0.768800 0.220300
vn 0.566600 0.708500 0.420600
vn 0.586000 0.684000 0.434300
vn 0.611500 0.686700 0.393000
vn 0.588200 0.708800 0.389300
vn 0.530200 0.749900 0.395500
vn 0.505600 0.756000 0.415700
vn 0.425800 0.799900 0.422900
vn 0.475700 0.833800 0.280100
vn 0.453900 0.788500 0.414900
vn 0.539500 0.830400 0.138900
vn 0.555300 0.815800 0.161600
vn 0.689200 0.697300 0.197000
vn 0.682400 0.687500 0.248400
vn 0.703000 0.675900 0.221000
vn 0.732000 0.655300 0.186100
vn 0.690000 0.636500 0.344600
vn 0.653700 0.678700 0.334600
vn 0.584100 0.669000 0.459600
vn 0.610900 0.622900 0.488700
vn 0.612100 0.651400 0.448200
vn 0.615000 0.669300 0.416900
vn -0.300700 -0.828000 -0.473300
vn -0.378300 -0.892000 -0.247400
vn -0.431600 -0.862100 -0.265500
vn -0.317000 -0.765300 -0.560200
vn -0.280700 -0.700000 -0.656600
vn -0.285300 -0.716800 -0.636200
vn -0.321500 -0.746200 -0.582900
vn -0.348300 -0.820400 -0.453400
vn -0.414700 -0.872100 -0.259800
vn -0.480800 -0.876500 -0.022900
vn -0.589200 -0.798500 0.123300
vn -0.601000 -0.786200 0.143800
vn -0.556600 -0.829800 0.038800
vn -0.502500 -0.861900 -0.068100
vn -0.577000 -0.814900 0.055400
vn -0.650900 -0.731200 -0.204000
vn -0.672500 -0.734200 -0.093100
vn -0.636600 -0.768000 -0.070200
vn -0.599900 -0.780400 -0.175900
vn -0.549000 -0.778700 -0.303500
vn -0.611100 -0.722900 -0.322400
vn -0.640300 -0.693100 -0.330900
vn -0.675300 -0.709800 -0.200100
vn -0.679200 -0.730600 -0.069200
vn -0.558600 -0.706400 -0.434600
vn -0.498700 -0.753300 -0.428800
vn -0.454000 -0.719000 -0.526200
vn -0.498300 -0.687400 -0.528400
vn -0.487200 -0.679000 -0.549200
vn -0.575300 -0.682900 -0.450200
vn -0.419400 -0.796400 -0.435600
vn -0.475700 -0.833800 -0.280100
vn -0.384500 -0.745500 -0.544400
vn -0.543800 -0.829900 -0.124900
vn -0.596500 -0.802500 -0.014700
vn -0.682500 -0.711200 -0.168300
vn -0.663700 -0.747900 -0.008300
vn -0.645600 -0.687600 -0.332300
vn -0.608900 -0.725000 -0.321700
vn -0.649200 -0.756100 -0.082600
vn -0.648500 -0.760600 0.029200
vn -0.558700 -0.677900 -0.477800
vn -0.433000 -0.685800 -0.584900
vn -0.395400 -0.692500 -0.603400
vn -0.472700 -0.708600 -0.523900
vn 0.044100 -0.213300 0.976000
vn 0.375000 -0.412900 0.830000
vn -0.095300 -0.143500 0.985000
vn -0.648500 -0.760600 0.029200
vn 0.762800 -0.646300 -0.020100
vn 0.869700 -0.279400 -0.406900
vn 0.588100 -0.794700 0.149800
vn -0.395400 -0.692500 -0.603400
vn 0.193000 0.523200 -0.830000
vn -0.114300 0.611000 -0.783300
vn 0.366900 0.403500 -0.838100
vn -0.280700 -0.700000 -0.656600
vn -0.891000 0.397900 0.218700
vn -0.662900 0.463400 0.588100
vn -0.877800 0.363200 -0.312200
vn -0.601000 -0.786200 0.143800
vn -0.464900 0.346100 0.814900
vn -0.335700 0.214700 0.917100
vn 0.588100 -0.693400 0.416300
vn 0.714200 -0.032600 -0.699100
vn 0.613800 0.047700 -0.788000
vn -0.527300 0.495900 -0.690000
vn 0.463100 0.291500 -0.836900
vn 0.504800 0.214700 -0.836100
vn -0.256600 0.098000 0.961500
vn -0.220000 0.020000 0.975300
vn -0.182700 -0.057600 0.981500
vn 0.541900 0.137100 -0.829200
vt 0.839504 0.118056
vt 0.856743 0.205307
vt 0.741230 0.205307
vt 0.734555 0.106726
vt 0.724541 0.032791
vt 0.813647 0.052618
vt 0.868992 0.081539
vt 0.913398 0.129584
vt 0.940923 0.205307
vt 0.839504 0.292557
vt 0.813647 0.357995
vt 0.724541 0.377822
vt 0.734555 0.303887
vt 0.913398 0.281029
vt 0.868992 0.329074
vt 0.369475 0.299954
vt 0.368286 0.370940
vt 0.245840 0.351447
vt 0.246397 0.288815
vt 0.246768 0.205307
vt 0.370268 0.205307
vt 0.494283 0.205307
vt 0.492822 0.304944
vt 0.490632 0.379672
vt 0.369475 0.110659
vt 0.246397 0.121798
vt 0.245841 0.059166
vt 0.368286 0.039673
vt 0.490632 0.030941
vt 0.492822 0.105669
vt 0.616755 0.103478
vt 0.619174 0.205307
vt 0.613127 0.027106
vt 0.616755 0.307135
vt 0.613126 0.383507
vt 0.123273 0.268175
vt 0.123047 0.315326
vt 0.054743 0.283353
vt 0.030912 0.249131
vt 0.030973 0.205306
vt 0.123423 0.205306
vt 0.123273 0.142438
vt 0.030912 0.161481
vt 0.054744 0.127260
vt 0.123047 0.095287
vt 0.839504 0.118056
vt 0.856743 0.205307
vt 0.968983 0.205307
vt 0.938030 0.133427
vt 0.876123 0.061548
vt 0.805028 0.030806
vt 0.721203 0.008146
vt 0.734555 0.106726
vt 0.741230 0.205307
vt 0.839504 0.292557
vt 0.805028 0.379807
vt 0.876123 0.349065
vt 0.938030 0.277186
vt 0.734555 0.303887
vt 0.721203 0.402467
vt 0.369475 0.299954
vt 0.367890 0.394602
vt 0.489902 0.404581
vt 0.492822 0.304944
vt 0.494283 0.205307
vt 0.370268 0.205307
vt 0.246768 0.205307
vt 0.246397 0.288815
vt 0.245655 0.372324
vt 0.369475 0.110659
vt 0.492822 0.105669
vt 0.489902 0.006032
vt 0.367890 0.016011
vt 0.245655 0.038289
vt 0.246397 0.121798
vt 0.616755 0.103478
vt 0.619174 0.205307
vt 0.611917 0.001649
vt 0.616755 0.307135
vt 0.611917 0.408964
vt 0.123273 0.268175
vt 0.122972 0.331043
vt 0.123423 0.205306
vt 0.000156 0.205306
vt 0.000125 0.242784
vt 0.000064 0.280261
vt 0.123273 0.142438
vt 0.122972 0.079570
vt 0.000064 0.130352
vt 0.000125 0.167829
vt 0.122972 0.331043
vt 0.030806 0.283587
vt 0.245655 0.372324
vt 0.030806 0.283587
vt 0.000125 0.167829
vt 0.030806 0.127026
vt 0.000156 0.205306
vt 0.030806 0.127026
vt 0.805028 0.030806
vt 0.873826 0.071832
vt 0.721203 0.008146
vt 0.873826 0.071832
vt 0.938030 0.277186
vt 0.873826 0.338781
vt 0.968983 0.205307
vt 0.873826 0.338781
vt 0.805028 0.379807
vt 0.721203 0.402467
vt 0.000125 0.242784
vt 0.122972 0.079570
vt 0.245655 0.038289
vt 0.938030 0.133427
vt 0.611917 0.001649
vt 0.489902 0.006032
vt 0.611917 0.408964
vt 0.489902 0.404581
vt 0.367890 0.394602
vt 0.367890 0.016011
f 1/1/1 2/2/2 3/3/3
f 1/1/1 3/3/3 4/4/4
f 1/1/1 4/4/4 5/5/5
f 1/1/1 5/5/5 6/6/6
f 1/1/1 6/6/6 7/7/7
f 1/1/1 7/7/7 8/8/8
f 1/1/1 8/8/8 9/9/9
f 1/1/1 9/9/9 2/2/2
f 10/10/10 11/11/11 12/12/12
f 10/10/10 12/12/12 13/13/13
f 10/10/10 13/13/13 3/3/3
f 10/10/10 3/3/3 2/2/2
f 10/10/10 2/2/2 9/9/9
f 10/10/10 9/9/9 14/14/14
f 10/10/10 14/14/14 15/15/15
f 10/10/10 15/15/15 11/11/11
f 16/16/16 17/17/17 18/18/18
f 16/16/16 18/18/18 19/19/19
f 16/16/16 19/19/19 20/20/20
f 16/16/16 20/20/20 21/21/21
f 16/16/16 21/21/21 22/22/22
f 16/16/16 22/22/22 23/23/23
f 16/16/16 23/23/23 24/24/24
f 16/16/16 24/24/24 17/17/17
f 25/25/25 21/21/21 20/20/20
f 25/25/25 20/20/20 26/26/26
f 25/25/25 26/26/26 27/27/27
f 25/25/25 27/27/27 28/28/28
f 25/25/25 28/28/28 29/29/29
f 25/25/25 29/29/29 30/30/30
f 25/25/25 30/30/30 22/22/22
f 25/25/25 22/22/22 21/21/21
f 31/31/31 32/32/32 22/22/22
f 31/31/31 22/22/22 30/30/30
f 31/31/31 30/30/30 29/29/29
f 31/31/31 29/29/29 33/33/33
f 31/31/31 33/33/33 5/5/5
f 31/31/31 5/5/5 4/4/4
f 31/31/31 4/4/4 3/3/3
f 31/31/31 3/3/3 32/32/32
f 34/34/34 35/35/35 24/24/24
f 34/34/34 24/24/24 23/23/23
f 34/34/34 23/23/23 22/22/22
f 34/34/34 22/22/22 32/32/32
f 34/34/34 32/32/32 3/3/3
f 34/34/34 3/3/3 13/13/13
f 34/34/34 13/13/13 12/12/12
f 34/34/34 12/12/12 35/35/35
f 36/36/36 37/37/37 38/38/38
f 36/36/36 38/38/38 39/39/39
f 36/36/36 39/39/39 40/40/40
f 36/36/36 40/40/40 41/41/41
f 36/36/36 41/41/41 20/20/20
f 36/36/36 20/20/20 19/19/19
f 36/36/36 19/19/19 18/18/18
f 36/36/36 18/18/18 37/37/37
f 42/42/42 41/41/41 40/40/40
f 42/42/42 40/40/40 43/43/43
f 42/42/42 43/43/43 44/44/44
f 42/42/42 44/44/44 45/45/45
f 42/42/42 45/45/45 27/27/27
f 42/42/42 27/27/27 26/26/26
f 42/42/42 26/26/26 20/20/20
f 42/42/42 20/20/20 41/41/41
f 46/46/46 47/47/47 48/48/48
f 46/46/46 48/48/48 49/49/49
f 46/46/46 49/49/49 50/50/50
f 46/46/46 50/50/50 51/51/51
f 46/46/46 51/51/51 52/52/52
f 46/46/46 52/52/52 53/53/53
f 46/46/46 53/53/53 54/54/54
f 46/46/46 54/54/54 47/47/47
f 55/55/55 56/56/56 57/57/57
f 55/55/55 57/57/57 58/58/58
f 55/55/55 58/58/58 48/48/48
f 55/55/55 48/48/48 47/47/47
f 55/55/55 47/47/47 54/54/54
f 55/55/55 54/54/54 59/59/59
f 55/55/55 59/59/59 60/60/60
f 55/55/55 60/60/60 56/56/56
f 61/61/61 62/62/62 63/63/63
f 61/61/61 63/63/63 64/64/64
f 61/61/61 64/64/64 65/65/65
f 61/61/61 65/65/65 66/66/66
f 61/61/61 66/66/66 67/67/67
f 61/61/61 67/67/67 68/68/68
f 61/61/61 68/68/68 69/69/69
f 61/61/61 69/69/69 62/62/62
f 70/70/70 66/66/66 65/65/65
f 70/70/70 65/65/65 71/71/71
f 70/70/70 71/71/71 72/72/72
f 70/70/70 72/72/72 73/73/73
f 70/70/70 73/73/73 74/74/74
f 70/70/70 74/74/74 75/75/75
f 70/70/70 75/75/75 67/67/67
f 70/70/70 67/67/67 66/66/66
f 76/76/76 77/77/77 54/54/54
f 76/76/76 54/54/54 53/53/53
f 76/76/76 53/53/53 52/52/52
f 76/76/76 52/52/52 78/78/78
f 76/76/76 78/78/78 72/72/72
f 76/76/76 72/72/72 71/71/71
f 76/76/76 71/71/71 65/65/65
f 76/76/76 65/65/65 77/77/77
f 79/79/79 80/80/80 60/60/60
f 79/79/79 60/60/60 59/59/59
f 79/79/79 59/59/59 54/54/54
f 79/79/79 54/54/54 77/77/77
f 79/79/79 77/77/77 65/65/65
f 79/79/79 65/65/65 64/64/64
f 79/79/79 64/64/64 63/63/63
f 79/79/79 63/63/63 80/80/80
f 81/81/81 82/82/82 69/69/69
f 81/81/81 69/69/69 68/68/68
f 81/81/81 68/68/68 67/67/67
f 81/81/81 67/67/67 83/83/83
f 81/81/81 83/83/83 84/84/84
f 81/81/81 84/84/84 85/85/85
f 81/81/81 85/85/85 86/86/86
f 81/81/81 86/86/86 82/82/82
f 87/87/87 83/83/83 67/67/67
f 87/87/87 67/67/67 75/75/75
f 87/87/87 75/75/75 74/74/74
f 87/87/87 74/74/74 88/88/88
f 87/87/87 88/88/88 89/89/89
f 87/87/87 89/89/89 90/90/90
f 87/87/87 90/90/90 84/84/84
f 87/87/87 84/84/84 83/83/83
f 91/91/91 92/92/92 38/38/38
f 91/91/91 38/38/38 37/37/37
f 91/91/91 37/37/37 18/18/18
f 91/91/91 18/18/18 93/93/93
f 91/91/91 93/93/93 69/69/69
f 91/91/91 69/69/69 82/82/82
f 91/91/91 82/82/82 94/94/94
f 91/91/91 94/94/94 92/92/92
f 95/95/95 96/96/96 44/44/44
f 95/95/95 44/44/44 43/43/43
f 95/95/95 43/43/43 40/40/40
f 95/95/95 40/40/40 97/97/97
f 95/95/95 97/97/97 84/84/84
f 95/95/95 84/84/84 90/90/90
f 95/95/95 90/90/90 98/98/98
f 95/95/95 98/98/98 96/96/96
f 99/99/99 100/100/100 7/7/7
f 99/99/99 7/7/7 6/6/6
f 99/99/99 6/6/6 5/5/5
f 99/99/99 5/5/5 101/101/101
f 99/99/99 101/101/101 52/52/52
f 99/99/99 52/52/52 51/51/51
f 99/99/99 51/51/51 102/102/102
f 99/99/99 102/102/102 100/100/100
f 103/103/103 104/104/104 15/15/15
f 103/103/103 15/15/15 14/14/14
f 103/103/103 14/14/14 9/9/9
f 103/103/103 9/9/9 105/105/105
f 103/103/103 105/105/105 48/48/48
f 103/103/103 48/48/48 58/58/58
f 103/103/103 58/58/58 106/106/106
f 103/103/103 106/106/106 104/104/104
f 107/107/107 108/108/108 12/12/12
f 107/107/107 12/12/12 11/11/11
f 107/107/107 11/11/11 15/15/15
f 107/107/107 15/15/15 104/104/104
f 107/107/107 104/104/104 106/106/106
f 107/107/107 106/106/106 56/56/56
f 107/107/107 56/56/56 60/60/60
f 107/107/107 60/60/60 108/108/108
f 109/109/109 97/97/97 40/40/40
f 109/109/109 40/40/40 39/39/39
f 109/109/109 39/39/39 38/38/38
f 109/109/109 38/38/38 92/92/92
f 109/109/109 92/92/92 94/94/94
f 109/109/109 94/94/94 85/85/85
f 109/109/109 85/85/85 84/84/84
f 109/109/109 84/84/84 97/97/97
f 110/110/110 111/111/111 27/27/27
f 110/110/110 27/27/27 45/45/45
f 110/110/110 45/45/45 44/44/44
f 110/110/110 44/44/44 96/96/96
f 110/110/110 96/96/96 98/98/98
f 110/110/110 98/98/98 88/88/88
f 110/110/110 88/88/88 74/74/74
f 110/110/110 74/74/74 111/111/111
f 112/112/112 105/105/105 9/9/9
f 112/112/112 9/9/9 8/8/8
f 112/112/112 8/8/8 7/7/7
f 112/112/112 7/7/7 100/100/100
f 112/112/112 100/100/100 102/102/102
f 112/112/112 102/102/102 49/49/49
f 112/112/112 49/49/49 48/48/48
f 112/112/112 48/48/48 105/105/105
f 113/113/113 101/101/101 5/5/5
f 113/113/113 5/5/5 33/33/33
f 113/113/113 33/33/33 29/29/29
f 113/113/113 29/29/29 114/114/114
f 113/113/113 114/114/114 72/72/72
f 113/113/113 72/72/72 78/78/78
f 113/113/113 78/78/78 52/52/52
f 113/113/113 52/52/52 101/101/101
f 115/115/115 116/116/116 24/24/24
f 115/115/115 24/24/24 35/35/35
f 115/115/115 35/35/35 12/12/12
f 115/115/115 12/12/12 108/108/108
f 115/115/115 108/108/108 60/60/60
f 115/115/115 60/60/60 80/80/80
f 115/115/115 80/80/80 63/63/63
f 115/115/115 63/63/63 116/116/116
f 117/117/117 93/93/93 18/18/18
f 117/117/117 18/18/18 17/17/17
f 117/117/117 17/17/17 24/24/24
f 117/117/117 24/24/24 116/116/116
f 117/117/117 116/116/116 63/63/63
f 117/117/117 63/63/63 62/62/62
f 117/117/117 62/62/62 69/69/69
f 117/117/117 69/69/69 93/93/93
f 118/118/118 114/114/114 29/29/29
f 118/118/118 29/29/29 28/28/28
f 118/118/118 28/28/28 27/27/27
f 118/118/118 27/27/27 111/111/111
f 118/118/118 111/111/111 74/74/74
f 118/118/118 74/74/74 73/73/73
f 118/118/118 73/73/73 72/72/72
f 118/118/118 72/72/72 114/114/114
