v -2.422051 0.735272 -1.098052
v -2.422260 0.734687 -1.095684
v -2.419306 0.733512 -1.096400
v -2.419420 0.734244 -1.099019
v -2.419278 0.734954 -1.101001
v -2.421461 0.735805 -1.099893
v -2.422856 0.736019 -1.098804
v -2.423950 0.735866 -1.097294
v -2.424468 0.735445 -1.095171
v -2.421275 0.734424 -1.093458
v -2.420101 0.734317 -1.091836
v -2.417734 0.733263 -1.091848
v -2.418539 0.733279 -1.093798
v -2.423279 0.735132 -1.093317
v -2.421755 0.734814 -1.092279
v -2.410137 0.728027 -1.096241
v -2.409631 0.727864 -1.094313
v -2.407197 0.725724 -1.095669
v -2.407656 0.725858 -1.097375
v -2.408167 0.726140 -1.099641
v -2.410703 0.728355 -1.098804
v -2.413382 0.730376 -1.097979
v -2.412777 0.730053 -1.095297
v -2.412225 0.729913 -1.093277
v -2.411001 0.728973 -1.101358
v -2.408420 0.726694 -1.101900
v -2.408535 0.727188 -1.103598
v -2.411144 0.729520 -1.103277
v -2.413808 0.731645 -1.102654
v -2.413680 0.731041 -1.100649
v -2.416559 0.732816 -1.099877
v -2.416298 0.732084 -1.097171
v -2.416623 0.733512 -1.101908
v -2.415642 0.731813 -1.094447
v -2.415017 0.731754 -1.092392
v -2.405267 0.723667 -1.098793
v -2.404883 0.723607 -1.097517
v -2.403728 0.722403 -1.098869
v -2.403529 0.721991 -1.099961
v -2.403851 0.722072 -1.101121
v -2.405678 0.723846 -1.100485
v -2.405837 0.724291 -1.102170
v -2.403920 0.722418 -1.102275
v -2.404431 0.723172 -1.103032
v -2.405882 0.724701 -1.103438
v -2.422164 0.735050 -1.098111
v -2.422368 0.734457 -1.095708
v -2.424546 0.735271 -1.095190
v -2.424031 0.735699 -1.097340
v -2.422919 0.735898 -1.098845
v -2.421548 0.735645 -1.099954
v -2.419372 0.734795 -1.101055
v -2.419543 0.734025 -1.099072
v -2.419423 0.733285 -1.096422
v -2.421377 0.734189 -1.093447
v -2.420174 0.734140 -1.091810
v -2.421808 0.734682 -1.092265
v -2.423351 0.734954 -1.093308
v -2.418651 0.733049 -1.093789
v -2.417814 0.733090 -1.091825
v -2.410291 0.727822 -1.096230
v -2.409744 0.727708 -1.094293
v -2.412329 0.729751 -1.093258
v -2.412919 0.729839 -1.095288
v -2.413528 0.730165 -1.097993
v -2.410861 0.728153 -1.098814
v -2.408333 0.725944 -1.099649
v -2.407818 0.725659 -1.097361
v -2.407315 0.725573 -1.095647
v -2.411162 0.728775 -1.101391
v -2.413830 0.730836 -1.100686
v -2.413922 0.731494 -1.102694
v -2.411266 0.729375 -1.103313
v -2.408663 0.727047 -1.103632
v -2.408589 0.726503 -1.101930
v -2.416694 0.732603 -1.099922
v -2.416429 0.731865 -1.097189
v -2.416727 0.733356 -1.101955
v -2.415768 0.731590 -1.094438
v -2.415109 0.731586 -1.092372
v -2.405431 0.723470 -1.098777
v -2.405003 0.723458 -1.097493
v -2.405847 0.723652 -1.100492
v -2.403978 0.721927 -1.101126
v -2.403653 0.721843 -1.099947
v -2.403818 0.722292 -1.098854
v -2.406009 0.724102 -1.102201
v -2.406013 0.724562 -1.103473
v -2.404527 0.723068 -1.103055
v -2.404049 0.722277 -1.102299
v -2.404808 0.723521 -1.097079
v -2.403246 0.721946 -1.099030
v -2.407095 0.725611 -1.095088
v -2.403818 0.722292 -1.098854
v -2.403339 0.721732 -1.102320
v -2.403950 0.722717 -1.103201
v -2.403299 0.721417 -1.101335
v -2.404527 0.723068 -1.103055
v -2.421303 0.735913 -1.100537
v -2.423009 0.736165 -1.099035
v -2.419273 0.735121 -1.101689
v -2.422919 0.735898 -1.098845
v -2.423978 0.735289 -1.093266
v -2.421818 0.734861 -1.091976
v -2.425238 0.735620 -1.095009
v -2.421808 0.734682 -1.092265
v -2.419741 0.734203 -1.091280
v -2.417500 0.733181 -1.091184
v -2.403005 0.721366 -1.100344
v -2.405956 0.724777 -1.103879
v -2.408630 0.727291 -1.104182
v -2.424618 0.735990 -1.097062
v -2.416691 0.733675 -1.102609
v -2.413901 0.731780 -1.103343
v -2.414850 0.731659 -1.091695
v -2.412087 0.729794 -1.092593
v -2.409512 0.727740 -1.093658
v -2.411247 0.729638 -1.103935
vn 0.418300 0.853700 0.310300
vn 0.372600 0.921700 0.107400
vn 0.426600 0.899500 0.094100
vn 0.470000 0.838700 0.275100
vn 0.491200 0.831200 0.260500
vn 0.418000 0.856500 0.302700
vn 0.364100 0.870800 0.330500
vn 0.329200 0.897800 0.292600
vn 0.285700 0.949800 0.127200
vn 0.347300 0.931300 -0.109800
vn 0.349700 0.931300 -0.102000
vn 0.430900 0.897200 -0.096800
vn 0.406600 0.908000 -0.100400
vn 0.271300 0.961100 -0.050600
vn 0.290700 0.951100 -0.104400
vn 0.614900 0.785400 -0.070700
vn 0.629400 0.776200 -0.036800
vn 0.653800 0.755500 -0.041600
vn 0.637700 0.765400 -0.086400
vn 0.668700 0.743100 0.024400
vn 0.637100 0.770000 0.034700
vn 0.570400 0.819500 0.055100
vn 0.552500 0.830900 -0.065400
vn 0.572500 0.818800 -0.043100
vn 0.650500 0.746500 0.140100
vn 0.675900 0.723600 0.139800
vn 0.676400 0.730800 0.091600
vn 0.652900 0.750500 0.102300
vn 0.603500 0.784800 0.140800
vn 0.592400 0.787200 0.171100
vn 0.524700 0.821900 0.221700
vn 0.491900 0.867200 0.077200
vn 0.545400 0.814000 0.199600
vn 0.474300 0.877000 -0.076500
vn 0.500600 0.863100 -0.066300
vn 0.641700 0.758300 -0.114700
vn 0.662800 0.745600 -0.068100
vn 0.667300 0.737500 -0.103200
vn 0.675600 0.721900 -0.149500
vn 0.722300 0.691600 0.005800
vn 0.683100 0.730000 0.019600
vn 0.688200 0.707400 0.161000
vn 0.729500 0.663000 0.168200
vn 0.707600 0.693500 0.135300
vn 0.692700 0.712900 0.108700
vn -0.441500 -0.834000 -0.330900
vn -0.387700 -0.915900 -0.103800
vn -0.444600 -0.891200 -0.089600
vn -0.504300 -0.769800 -0.391300
vn -0.527300 -0.696800 -0.486200
vn -0.519500 -0.714900 -0.468000
vn -0.521200 -0.750300 -0.406700
vn -0.472500 -0.832600 -0.289000
vn -0.426500 -0.899500 -0.094200
vn -0.361600 -0.921400 0.142100
vn -0.384900 -0.862200 0.329300
vn -0.385500 -0.852000 0.354200
vn -0.398200 -0.885900 0.237800
vn -0.404200 -0.907300 0.115600
vn -0.408100 -0.874100 0.263400
vn -0.610100 -0.787600 0.086100
vn -0.571600 -0.797800 0.191900
vn -0.526700 -0.828500 0.190200
vn -0.548600 -0.832200 0.079900
vn -0.570500 -0.819400 -0.055100
vn -0.637300 -0.769800 -0.034600
vn -0.668800 -0.743100 -0.024400
vn -0.630500 -0.769100 0.103800
vn -0.565400 -0.796000 0.216100
vn -0.651000 -0.742900 -0.156000
vn -0.593400 -0.783200 -0.185600
vn -0.607500 -0.740000 -0.288600
vn -0.648700 -0.713300 -0.265100
vn -0.650400 -0.702900 -0.287900
vn -0.674900 -0.720600 -0.158700
vn -0.526000 -0.817200 -0.235500
vn -0.491900 -0.867200 -0.077200
vn -0.555400 -0.758100 -0.341700
vn -0.470900 -0.877500 0.090700
vn -0.461600 -0.860800 0.214300
vn -0.620300 -0.772700 0.134600
vn -0.519500 -0.814200 0.259000
vn -0.674400 -0.738000 -0.022500
vn -0.634900 -0.771800 -0.035400
vn -0.544700 -0.817400 0.187100
vn -0.486400 -0.826800 0.282400
vn -0.675100 -0.712700 -0.190400
vn -0.621800 -0.702300 -0.346500
vn -0.598700 -0.704000 -0.381900
vn -0.623000 -0.731800 -0.276200
vn 0.552800 -0.249800 0.795000
vn 0.775100 -0.405600 0.484400
vn 0.432800 -0.195900 0.879900
vn -0.486400 -0.826800 0.282400
vn 0.688200 -0.558700 -0.462900
vn 0.556000 -0.166200 -0.814400
vn 0.636200 -0.732400 -0.242700
vn -0.598700 -0.704000 -0.381900
vn -0.296500 0.576600 -0.761300
vn -0.542100 0.628700 -0.557500
vn -0.143700 0.477000 -0.867000
vn -0.527300 -0.696800 -0.486200
vn -0.678500 0.289400 0.675100
vn -0.299100 0.362800 0.882500
vn -0.937000 0.279300 0.209700
vn -0.385500 -0.852000 0.354200
vn -0.005100 0.257500 0.966200
vn 0.167300 0.136500 0.976400
vn 0.765600 -0.643300 -0.004300
vn 0.255600 0.075200 -0.963800
vn 0.118500 0.148100 -0.981800
vn -0.839700 0.465700 -0.279400
vn -0.052700 0.376100 -0.925000
vn -0.011200 0.304500 -0.952500
vn 0.265900 0.027300 0.963600
vn 0.309600 -0.046800 0.949700
vn 0.350100 -0.119900 0.929000
vn 0.029300 0.231200 -0.972400
vt 0.839504 0.118056
vt 0.856743 0.205307
vt 0.741230 0.205307
vt 0.734555 0.106726
vt 0.724541 0.032791
vt 0.813647 0.052618
vt 0.868992 0.081539
vt 0.913398 0.129584
vt 0.940923 0.205307
vt 0.839504 0.292557
vt 0.813647 0.357995
vt 0.724541 0.377822
vt 0.734555 0.303887
vt 0.913398 0.281029
vt 0.868992 0.329074
vt 0.369475 0.299954
vt 0.368286 0.370940
vt 0.245840 0.351447
vt 0.246397 0.288815
vt 0.246768 0.205307
vt 0.370268 0.205307
vt 0.494283 0.205307
vt 0.492822 0.304944
vt 0.490632 0.379672
vt 0.369475 0.110659
vt 0.246397 0.121798
vt 0.245841 0.059166
vt 0.368286 0.039673
vt 0.490632 0.030941
vt 0.492822 0.105669
vt 0.616755 0.103478
vt 0.619174 0.205307
vt 0.613127 0.027106
vt 0.616755 0.307135
vt 0.613126 0.383507
vt 0.123273 0.268175
vt 0.123047 0.315326
vt 0.054743 0.283353
vt 0.030912 0.249131
vt 0.030973 0.205306
vt 0.123423 0.205306
vt 0.123273 0.142438
vt 0.030912 0.161481
vt 0.054744 0.127260
vt 0.123047 0.095287
vt 0.839504 0.118056
vt 0.856743 0.205307
vt 0.968983 0.205307
vt 0.938030 0.133427
vt 0.876123 0.061548
vt 0.805028 0.030806
vt 0.721203 0.008146
vt 0.734555 0.106726
vt 0.741230 0.205307
vt 0.839504 0.292557
vt 0.805028 0.379807
vt 0.876123 0.349065
vt 0.938030 0.277186
vt 0.734555 0.303887
vt 0.721203 0.402467
vt 0.369475 0.299954
vt 0.367890 0.394602
vt 0.489902 0.404581
vt 0.492822 0.304944
vt 0.494283 0.205307
vt 0.370268 0.205307
vt 0.246768 0.205307
vt 0.246397 0.288815
vt 0.245655 0.372324
vt 0.369475 0.110659
vt 0.492822 0.105669
vt 0.489902 0.006032
vt 0.367890 0.016011
vt 0.245655 0.038289
vt 0.246397 0.121798
vt 0.616755 0.103478
vt 0.619174 0.205307
vt 0.611917 0.001649
vt 0.616755 0.307135
vt 0.611917 0.408964
vt 0.123273 0.268175
vt 0.122972 0.331043
vt 0.123423 0.205306
vt 0.000156 0.205306
vt 0.000125 0.242784
vt 0.000064 0.280261
vt 0.123273 0.142438
vt 0.122972 0.079570
vt 0.000064 0.130352
vt 0.000125 0.167829
vt 0.122972 0.331043
vt 0.030806 0.283587
vt 0.245655 0.372324
vt 0.030806 0.283587
vt 0.000125 0.167829
vt 0.030806 0.127026
vt 0.000156 0.205306
vt 0.030806 0.127026
vt 0.805028 0.030806
vt 0.873826 0.071832
vt 0.721203 0.008146
vt 0.873826 0.071832
vt 0.938030 0.277186
vt 0.873826 0.338781
vt 0.968983 0.205307
vt 0.873826 0.338781
vt 0.805028 0.379807
vt 0.721203 0.402467
vt 0.000125 0.242784
vt 0.122972 0.079570
vt 0.245655 0.038289
vt 0.938030 0.133427
vt 0.611917 0.001649
vt 0.489902 0.006032
vt 0.611917 0.408964
vt 0.489902 0.404581
vt 0.367890 0.394602
vt 0.367890 0.016011
f 1/1/1 2/2/2 3/3/3
f 1/1/1 3/3/3 4/4/4
f 1/1/1 4/4/4 5/5/5
f 1/1/1 5/5/5 6/6/6
f 1/1/1 6/6/6 7/7/7
f 1/1/1 7/7/7 8/8/8
f 1/1/1 8/8/8 9/9/9
f 1/1/1 9/9/9 2/2/2
f 10/10/10 11/11/11 12/12/12
f 10/10/10 12/12/12 13/13/13
f 10/10/10 13/13/13 3/3/3
f 10/10/10 3/3/3 2/2/2
f 10/10/10 2/2/2 9/9/9
f 10/10/10 9/9/9 14/14/14
f 10/10/10 14/14/14 15/15/15
f 10/10/10 15/15/15 11/11/11
f 16/16/16 17/17/17 18/18/18
f 16/16/16 18/18/18 19/19/19
f 16/16/16 19/19/19 20/20/20
f 16/16/16 20/20/20 21/21/21
f 16/16/16 21/21/21 22/22/22
f 16/16/16 22/22/22 23/23/23
f 16/16/16 23/23/23 24/24/24
f 16/16/16 24/24/24 17/17/17
f 25/25/25 21/21/21 20/20/20
f 25/25/25 20/20/20 26/26/26
f 25/25/25 26/26/26 27/27/27
f 25/25/25 27/27/27 28/28/28
f 25/25/25 28/28/28 29/29/29
f 25/25/25 29/29/29 30/30/30
f 25/25/25 30/30/30 22/22/22
f 25/25/25 22/22/22 21/21/21
f 31/31/31 32/32/32 22/22/22
f 31/31/31 22/22/22 30/30/30
f 31/31/31 30/30/30 29/29/29
f 31/31/31 29/29/29 33/33/33
f 31/31/31 33/33/33 5/5/5
f 31/31/31 5/5/5 4/4/4
f 31/31/31 4/4/4 3/3/3
f 31/31/31 3/3/3 32/32/32
f 34/34/34 35/35/35 24/24/24
f 34/34/34 24/24/24 23/23/23
f 34/34/34 23/23/23 22/22/22
f 34/34/34 22/22/22 32/32/32
f 34/34/34 32/32/32 3/3/3
f 34/34/34 3/3/3 13/13/13
f 34/34/34 13/13/13 12/12/12
f 34/34/34 12/12/12 35/35/35
f 36/36/36 37/37/37 38/38/38
f 36/36/36 38/38/38 39/39/39
f 36/36/36 39/39/39 40/40/40
f 36/36/36 40/40/40 41/41/41
f 36/36/36 41/41/41 20/20/20
f 36/36/36 20/20/20 19/19/19
f 36/36/36 19/19/19 18/18/18
f 36/36/36 18/18/18 37/37/37
f 42/42/42 41/41/41 40/40/40
f 42/42/42 40/40/40 43/43/43
f 42/42/42 43/43/43 44/44/44
f 42/42/42 44/44/44 45/45/45
f 42/42/42 45/45/45 27/27/27
f 42/42/42 27/27/27 26/26/26
f 42/42/42 26/26/26 20/20/20
f 42/42/42 20/20/20 41/41/41
f 46/46/46 47/47/47 48/48/48
f 46/46/46 48/48/48 49/49/49
f 46/46/46 49/49/49 50/50/50
f 46/46/46 50/50/50 51/51/51
f 46/46/46 51/51/51 52/52/52
f 46/46/46 52/52/52 53/53/53
f 46/46/46 53/53/53 54/54/54
f 46/46/46 54/54/54 47/47/47
f 55/55/55 56/56/56 57/57/57
f 55/55/55 57/57/57 58/58/58
f 55/55/55 58/58/58 48/48/48
f 55/55/55 48/48/48 47/47/47
f 55/55/55 47/47/47 54/54/54
f 55/55/55 54/54/54 59/59/59
f 55/55/55 59/59/59 60/60/60
f 55/55/55 60/60/60 56/56/56
f 61/61/61 62/62/62 63/63/63
f 61/61/61 63/63/63 64/64/64
f 61/61/61 64/64/64 65/65/65
f 61/61/61 65/65/65 66/66/66
f 61/61/61 66/66/66 67/67/67
f 61/61/61 67/67/67 68/68/68
f 61/61/61 68/68/68 69/69/69
f 61/61/61 69/69/69 62/62/62
f 70/70/70 66/66/66 65/65/65
f 70/70/70 65/65/65 71/71/71
f 70/70/70 71/71/71 72/72/72
f 70/70/70 72/72/72 73/73/73
f 70/70/70 73/73/73 74/74/74
f 70/70/70 74/74/74 75/75/75
f 70/70/70 75/75/75 67/67/67
f 70/70/70 67/67/67 66/66/66
f 76/76/76 77/77/77 54/54/54
f 76/76/76 54/54/54 53/53/53
f 76/76/76 53/53/53 52/52/52
f 76/76/76 52/52/52 78/78/78
f 76/76/76 78/78/78 72/72/72
f 76/76/76 72/72/72 71/71/71
f 76/76/76 71/71/71 65/65/65
f 76/76/76 65/65/65 77/77/77
f 79/79/79 80/80/80 60/60/60
f 79/79/79 60/60/60 59/59/59
f 79/79/79 59/59/59 54/54/54
f 79/79/79 54/54/54 77/77/77
f 79/79/79 77/77/77 65/65/65
f 79/79/79 65/65/65 64/64/64
f 79/79/79 64/64/64 63/63/63
f 79/79/79 63/63/63 80/80/80
f 81/81/81 82/82/82 69/69/69
f 81/81/81 69/69/69 68/68/68
f 81/81/81 68/68/68 67/67/67
f 81/81/81 67/67/67 83/83/83
f 81/81/81 83/83/83 84/84/84
f 81/81/81 84/84/84 85/85/85
f 81/81/81 85/85/85 86/86/86
f 81/81/81 86/86/86 82/82/82
f 87/87/87 83/83/83 67/67/67
f 87/87/87 67/67/67 75/75/75
f 87/87/87 75/75/75 74/74/74
f 87/87/87 74/74/74 88/88/88
f 87/87/87 88/88/88 89/89/89
f 87/87/87 89/89/89 90/90/90
f 87/87/87 90/90/90 84/84/84
f 87/87/87 84/84/84 83/83/83
f 91/91/91 92/92/92 38/38/38
f 91/91/91 38/38/38 37/37/37
f 91/91/91 37/37/37 18/18/18
f 91/91/91 18/18/18 93/93/93
f 91/91/91 93/93/93 69/69/69
f 91/91/91 69/69/69 82/82/82
f 91/91/91 82/82/82 94/94/94
f 91/91/91 94/94/94 92/92/92
f 95/95/95 96/96/96 44/44/44
f 95/95/95 44/44/44 43/43/43
f 95/95/95 43/43/43 40/40/40
f 95/95/95 40/40/40 97/97/97
f 95/95/95 97/97/97 84/84/84
f 95/95/95 84/84/84 90/90/90
f 95/95/95 90/90/90 98/98/98
f 95/95/95 98/98/98 96/96/96
f 99/99/99 100/100/100 7/7/7
f 99/99/99 7/7/7 6/6/6
f 99/99/99 6/6/6 5/5/5
f 99/99/99 5/5/5 101/101/101
f 99/99/99 101/101/101 52/52/52
f 99/99/99 52/52/52 51/51/51
f 99/99/99 51/51/51 102/102/102
f 99/99/99 102/102/102 100/100/100
f 103/103/103 104/104/104 15/15/15
f 103/103/103 15/15/15 14/14/14
f 103/103/103 14/14/14 9/9/9
f 103/103/103 9/9/9 105/105/105
f 103/103/103 105/105/105 48/48/48
f 103/103/103 48/48/48 58/58/58
f 103/103/103 58/58/58 106/106/106
f 103/103/103 106/106/106 104/104/104
f 107/107/107 108/108/108 12/12/12
f 107/107/107 12/12/12 11/11/11
f 107/107/107 11/11/11 15/15/15
f 107/107/107 15/15/15 104/104/104
f 107/107/107 104/104/104 106/106/106
f 107/107/107 106/106/106 56/56/56
f 107/107/107 56/56/56 60/60/60
f 107/107/107 60/60/60 108/108/108
f 109/109/109 97/97/97 40/40/40
f 109/109/109 40/40/40 39/39/39
f 109/109/109 39/39/39 38/38/38
f 109/109/109 38/38/38 92/92/92
f 109/109/109 92/92/92 94/94/94
f 109/109/109 94/94/94 85/85/85
f 109/109/109 85/85/85 84/84/84
f 109/109/109 84/84/84 97/97/97
f 110/110/110 111/111/111 27/27/27
f 110/110/110 27/27/27 45/45/45
f 110/110/110 45/45/45 44/44/44
f 110/110/110 44/44/44 96/96/96
f 110/110/110 96/96/96 98/98/98
f 110/110/110 98/98/98 88/88/88
f 110/110/110 88/88/88 74/74/74
f 110/110/110 74/74/74 111/111/111
f 112/112/112 105/105/105 9/9/9
f 112/112/112 9/9/9 8/8/8
f 112/112/112 8/8/8 7/7/7
f 112/112/112 7/7/7 100/100/100
f 112/112/112 100/100/100 102/102/102
f 112/112/112 102/102/102 49/49/49
f 112/112/112 49/49/49 48/48/48
f 112/112/112 48/48/48 105/105/105
f 113/113/113 101/101/101 5/5/5
f 113/113/113 5/5/5 33/33/33
f 113/113/113 33/33/33 29/29/29
f 113/113/113 29/29/29 114/114/114
f 113/113/113 114/114/114 72/72/72
f 113/113/113 72/72/72 78/78/78
f 113/113/113 78/78/78 52/52/52
f 113/113/113 52/52/52 101/101/101
f 115/115/115 116/116/116 24/24/24
f 115/115/115 24/24/24 35/35/35
f 115/115/115 35/35/35 12/12/12
f 115/115/115 12/12/12 108/108/108
f 115/115/115 108/108/108 60/60/60
f 115/115/115 60/60/60 80/80/80
f 115/115/115 80/80/80 63/63/63
f 115/115/115 63/63/63 116/116/116
f 117/117/117 93/93/93 18/18/18
f 117/117/117 18/18/18 17/17/17
f 117/117/117 17/17/17 24/24/24
f 117/117/117 24/24/24 116/116/116
f 117/117/117 116/116/116 63/63/63
f 117/117/117 63/63/63 62/62/62
f 117/117/117 62/62/62 69/69/69
f 117/117/117 69/69/69 93/93/93
f 118/118/118 114/114/114 29/29/29
f 118/118/118 29/29/29 28/28/28
f 118/118/118 28/28/28 27/27/27
f 118/118/118 27/27/27 111/111/111
f 118/118/118 111/111/111 74/74/74
f 118/118/118 74/74/74 73/73/73
f 118/118/118 73/73/73 72/72/72
f 118/118/118 72/72/72 114/114/114
