v -2.382173 0.743244 -1.102029
v -2.383114 0.744322 -1.104465
v -2.385784 0.741798 -1.103662
v -2.384387 0.740801 -1.101032
v -2.383574 0.740107 -1.098845
v -2.381890 0.742330 -1.099923
v -2.380989 0.743702 -1.101164
v -2.380599 0.744914 -1.102906
v -2.381102 0.746086 -1.105135
v -2.385237 0.745186 -1.106115
v -2.387263 0.745735 -1.107089
v -2.389678 0.743976 -1.106986
v -2.387868 0.743007 -1.105676
v -2.383251 0.746595 -1.106444
v -2.385341 0.746459 -1.106968
v -2.395185 0.733863 -1.104453
v -2.396666 0.734789 -1.105962
v -2.398439 0.731168 -1.105530
v -2.397115 0.730344 -1.104206
v -2.395466 0.729309 -1.102337
v -2.393332 0.732696 -1.102328
v -2.391035 0.735950 -1.102504
v -2.392989 0.737185 -1.104708
v -2.394564 0.738175 -1.106258
v -2.391773 0.731701 -1.099902
v -2.394098 0.728432 -1.100182
v -2.393152 0.727817 -1.098477
v -2.390688 0.731000 -1.097988
v -2.388310 0.734212 -1.097916
v -2.389420 0.734923 -1.099947
v -2.386880 0.737992 -1.100331
v -2.388472 0.738996 -1.102978
v -2.385826 0.737324 -1.098189
v -2.390501 0.740287 -1.105161
v -2.392173 0.741346 -1.106654
v -2.398809 0.726654 -1.103777
v -2.399842 0.727293 -1.104723
v -2.400323 0.724949 -1.104078
v -2.399969 0.723809 -1.103415
v -2.399059 0.723243 -1.102525
v -2.397545 0.725864 -1.102416
v -2.396557 0.725227 -1.100774
v -2.398426 0.722831 -1.101356
v -2.397546 0.723190 -1.100375
v -2.395893 0.724790 -1.099456
v -2.382018 0.743047 -1.102184
v -2.382980 0.744137 -1.104653
v -2.381005 0.745945 -1.105275
v -2.380485 0.744763 -1.103020
v -2.380899 0.743588 -1.101241
v -2.381763 0.742177 -1.100022
v -2.383443 0.739962 -1.098951
v -2.384225 0.740613 -1.101193
v -2.385642 0.741622 -1.103852
v -2.385128 0.745018 -1.106332
v -2.387193 0.745619 -1.107265
v -2.385288 0.746369 -1.107095
v -2.383174 0.746467 -1.106606
v -2.387748 0.742846 -1.105892
v -2.389598 0.743863 -1.107160
v -2.395022 0.733739 -1.104668
v -2.396553 0.734701 -1.106133
v -2.394459 0.738078 -1.106429
v -2.392838 0.737049 -1.104923
v -2.390868 0.735803 -1.102699
v -2.393154 0.732562 -1.102525
v -2.395282 0.729185 -1.102534
v -2.396947 0.730230 -1.104422
v -2.398321 0.731088 -1.105701
v -2.391581 0.731558 -1.100078
v -2.389237 0.734767 -1.100121
v -2.388166 0.734090 -1.098035
v -2.390538 0.730889 -1.098110
v -2.392996 0.727713 -1.098599
v -2.393900 0.728299 -1.100358
v -2.386708 0.737819 -1.100499
v -2.388318 0.738833 -1.103171
v -2.385689 0.737190 -1.098302
v -2.390366 0.740137 -1.105377
v -2.392081 0.741241 -1.106826
v -2.398639 0.726545 -1.103995
v -2.399723 0.727216 -1.104895
v -2.397358 0.725744 -1.102613
v -2.398919 0.723154 -1.102673
v -2.399842 0.723728 -1.103578
v -2.400232 0.724891 -1.104203
v -2.396355 0.725098 -1.100949
v -2.395735 0.724689 -1.099576
v -2.397431 0.723116 -1.100466
v -2.398274 0.722734 -1.101487
v -2.400135 0.727473 -1.105117
v -2.400726 0.724272 -1.104103
v -2.398829 0.731408 -1.106049
v -2.400232 0.724891 -1.104203
v -2.398981 0.721989 -1.101608
v -2.397944 0.722510 -1.100393
v -2.399502 0.722330 -1.102628
v -2.397431 0.723116 -1.100466
v -2.381736 0.741956 -1.099261
v -2.380721 0.743735 -1.100925
v -2.383243 0.739811 -1.098159
v -2.380899 0.743588 -1.101241
v -2.382556 0.747007 -1.106625
v -2.385428 0.746718 -1.107204
v -2.380389 0.746611 -1.105420
v -2.385288 0.746369 -1.107095
v -2.387910 0.745869 -1.107495
v -2.390248 0.744250 -1.107503
v -2.400299 0.722825 -1.103367
v -2.395600 0.724599 -1.099067
v -2.392765 0.727565 -1.097960
v -2.380024 0.745403 -1.103249
v -2.385413 0.737041 -1.097522
v -2.387875 0.733919 -1.097290
v -2.392691 0.741654 -1.107231
v -2.395044 0.738463 -1.106853
v -2.397111 0.735059 -1.106543
v -2.390258 0.730716 -1.097402
vn -0.539500 0.710100 0.452400
vn -0.413000 0.662800 0.624600
vn -0.455200 0.622200 0.636900
vn -0.570400 0.663500 0.484100
vn -0.583000 0.643200 0.496400
vn -0.536100 0.708100 0.459500
vn -0.499900 0.750700 0.431900
vn -0.453100 0.760800 0.464700
vn -0.344200 0.721500 0.600800
vn -0.296700 0.556200 0.776200
vn -0.302100 0.559900 0.771500
vn -0.376400 0.512300 0.771900
vn -0.353400 0.525900 0.773600
vn -0.254800 0.635100 0.729200
vn -0.248600 0.591400 0.767100
vn -0.549900 0.385700 0.740800
vn -0.577200 0.393300 0.715600
vn -0.596500 0.367200 0.713600
vn -0.562900 0.354700 0.746500
vn -0.638000 0.390300 0.663700
vn -0.614900 0.426200 0.663500
vn -0.565200 0.495800 0.659300
vn -0.497400 0.442500 0.746200
vn -0.524600 0.439600 0.729000
vn -0.671700 0.463000 0.578300
vn -0.693700 0.437500 0.572100
vn -0.673600 0.416100 0.610800
vn -0.657700 0.444200 0.608300
vn -0.631000 0.507000 0.587100
vn -0.634100 0.529200 0.563800
vn -0.596100 0.604400 0.528500
vn -0.505600 0.568300 0.649100
vn -0.605000 0.579700 0.545700
vn -0.423700 0.495100 0.758500
vn -0.451300 0.482300 0.750800
vn -0.554000 0.332300 0.763300
vn -0.592800 0.342100 0.729000
vn -0.581400 0.315000 0.750100
vn -0.568500 0.274400 0.775600
vn -0.676500 0.324100 0.661200
vn -0.648400 0.373200 0.663500
vn -0.713500 0.433200 0.550700
vn -0.752100 0.390900 0.530500
vn -0.719500 0.402400 0.566100
vn -0.695200 0.406900 0.592500
vn 0.568600 -0.699600 -0.432800
vn 0.424800 -0.651800 -0.628200
vn 0.469300 -0.607800 -0.640600
vn 0.649100 -0.665100 -0.369200
vn 0.708400 -0.654900 -0.263200
vn 0.694300 -0.660800 -0.285100
vn 0.670500 -0.653400 -0.351300
vn 0.578500 -0.665800 -0.471200
vn 0.455100 -0.622200 -0.636900
vn 0.295200 -0.526400 -0.797300
vn 0.233300 -0.368800 -0.899700
vn 0.222800 -0.346900 -0.911000
vn 0.285700 -0.434400 -0.854200
vn 0.344600 -0.517600 -0.783100
vn 0.283100 -0.408000 -0.868000
vn 0.538900 -0.380300 -0.751600
vn 0.458800 -0.340400 -0.820700
vn 0.420100 -0.378400 -0.824800
vn 0.487600 -0.436500 -0.756100
vn 0.565300 -0.495700 -0.659300
vn 0.615000 -0.426000 -0.663500
vn 0.638100 -0.390200 -0.663800
vn 0.549100 -0.350000 -0.758900
vn 0.442700 -0.327300 -0.834800
vn 0.678900 -0.468900 -0.564900
vn 0.641200 -0.533800 -0.551300
vn 0.696900 -0.553800 -0.455600
vn 0.723000 -0.507800 -0.468300
vn 0.734000 -0.511900 -0.446100
vn 0.700800 -0.446200 -0.556500
vn 0.603100 -0.608100 -0.516200
vn 0.505600 -0.568300 -0.649100
vn 0.673500 -0.613000 -0.412900
vn 0.414500 -0.488500 -0.767800
vn 0.352100 -0.409300 -0.841700
vn 0.526700 -0.338600 -0.779700
vn 0.383600 -0.330900 -0.862100
vn 0.642100 -0.383600 -0.663700
vn 0.613200 -0.428800 -0.663400
vn 0.437300 -0.366300 -0.821300
vn 0.344000 -0.337400 -0.876200
vn 0.714500 -0.457600 -0.529200
vn 0.733600 -0.552800 -0.395200
vn 0.728100 -0.580900 -0.364000
vn 0.705200 -0.536100 -0.464000
vn -0.833300 0.087500 -0.545900
vn -0.894300 -0.273500 -0.354300
vn -0.763700 0.212200 -0.609600
vn 0.344000 -0.337400 -0.876200
vn -0.401700 -0.895500 0.191500
vn -0.143800 -0.749100 0.646600
vn -0.444200 -0.891300 -0.090300
vn 0.728100 -0.580900 -0.364000
vn 0.577200 0.108900 0.809300
vn 0.708400 0.335600 0.620900
vn 0.488400 -0.072800 0.869500
vn 0.708400 -0.654900 -0.263200
vn 0.310200 0.803100 -0.508800
vn -0.123800 0.863300 -0.489200
vn 0.744200 0.611900 -0.267700
vn 0.222800 -0.346900 -0.911000
vn -0.421500 0.741400 -0.522100
vn -0.577300 0.602200 -0.551500
vn -0.666400 -0.727800 -0.161800
vn 0.183200 -0.556900 0.810100
vn 0.312200 -0.469900 0.825600
vn 0.861900 0.453600 0.226600
vn 0.434600 -0.210500 0.875700
vn 0.411400 -0.293800 0.862800
vn -0.657000 0.481100 -0.580400
vn -0.687800 0.403100 -0.603600
vn -0.712900 0.322900 -0.622400
vn 0.385800 -0.374000 0.843400
vt 0.839504 0.118056
vt 0.856743 0.205307
vt 0.741230 0.205307
vt 0.734555 0.106726
vt 0.724541 0.032791
vt 0.813647 0.052618
vt 0.868992 0.081539
vt 0.913398 0.129584
vt 0.940923 0.205307
vt 0.839504 0.292557
vt 0.813647 0.357995
vt 0.724541 0.377822
vt 0.734555 0.303887
vt 0.913398 0.281029
vt 0.868992 0.329074
vt 0.369475 0.299954
vt 0.368286 0.370940
vt 0.245840 0.351447
vt 0.246397 0.288815
vt 0.246768 0.205307
vt 0.370268 0.205307
vt 0.494283 0.205307
vt 0.492822 0.304944
vt 0.490632 0.379672
vt 0.369475 0.110659
vt 0.246397 0.121798
vt 0.245841 0.059166
vt 0.368286 0.039673
vt 0.490632 0.030941
vt 0.492822 0.105669
vt 0.616755 0.103478
vt 0.619174 0.205307
vt 0.613127 0.027106
vt 0.616755 0.307135
vt 0.613126 0.383507
vt 0.123273 0.268175
vt 0.123047 0.315326
vt 0.054743 0.283353
vt 0.030912 0.249131
vt 0.030973 0.205306
vt 0.123423 0.205306
vt 0.123273 0.142438
vt 0.030912 0.161481
vt 0.054744 0.127260
vt 0.123047 0.095287
vt 0.839504 0.118056
vt 0.856743 0.205307
vt 0.968983 0.205307
vt 0.938030 0.133427
vt 0.876123 0.061548
vt 0.805028 0.030806
vt 0.721203 0.008146
vt 0.734555 0.106726
vt 0.741230 0.205307
vt 0.839504 0.292557
vt 0.805028 0.379807
vt 0.876123 0.349065
vt 0.938030 0.277186
vt 0.734555 0.303887
vt 0.721203 0.402467
vt 0.369475 0.299954
vt 0.367890 0.394602
vt 0.489902 0.404581
vt 0.492822 0.304944
vt 0.494283 0.205307
vt 0.370268 0.205307
vt 0.246768 0.205307
vt 0.246397 0.288815
vt 0.245655 0.372324
vt 0.369475 0.110659
vt 0.492822 0.105669
vt 0.489902 0.006032
vt 0.367890 0.016011
vt 0.245655 0.038289
vt 0.246397 0.121798
vt 0.616755 0.103478
vt 0.619174 0.205307
vt 0.611917 0.001649
vt 0.616755 0.307135
vt 0.611917 0.408964
vt 0.123273 0.268175
vt 0.122972 0.331043
vt 0.123423 0.205306
vt 0.000156 0.205306
vt 0.000125 0.242784
vt 0.000064 0.280261
vt 0.123273 0.142438
vt 0.122972 0.079570
vt 0.000064 0.130352
vt 0.000125 0.167829
vt 0.122972 0.331043
vt 0.030806 0.283587
vt 0.245655 0.372324
vt 0.030806 0.283587
vt 0.000125 0.167829
vt 0.030806 0.127026
vt 0.000156 0.205306
vt 0.030806 0.127026
vt 0.805028 0.030806
vt 0.873826 0.071832
vt 0.721203 0.008146
vt 0.873826 0.071832
vt 0.938030 0.277186
vt 0.873826 0.338781
vt 0.968983 0.205307
vt 0.873826 0.338781
vt 0.805028 0.379807
vt 0.721203 0.402467
vt 0.000125 0.242784
vt 0.122972 0.079570
vt 0.245655 0.038289
vt 0.938030 0.133427
vt 0.611917 0.001649
vt 0.489902 0.006032
vt 0.611917 0.408964
vt 0.489902 0.404581
vt 0.367890 0.394602
vt 0.367890 0.016011
f 1/1/1 2/2/2 3/3/3
f 1/1/1 3/3/3 4/4/4
f 1/1/1 4/4/4 5/5/5
f 1/1/1 5/5/5 6/6/6
f 1/1/1 6/6/6 7/7/7
f 1/1/1 7/7/7 8/8/8
f 1/1/1 8/8/8 9/9/9
f 1/1/1 9/9/9 2/2/2
f 10/10/10 11/11/11 12/12/12
f 10/10/10 12/12/12 13/13/13
f 10/10/10 13/13/13 3/3/3
f 10/10/10 3/3/3 2/2/2
f 10/10/10 2/2/2 9/9/9
f 10/10/10 9/9/9 14/14/14
f 10/10/10 14/14/14 15/15/15
f 10/10/10 15/15/15 11/11/11
f 16/16/16 17/17/17 18/18/18
f 16/16/16 18/18/18 19/19/19
f 16/16/16 19/19/19 20/20/20
f 16/16/16 20/20/20 21/21/21
f 16/16/16 21/21/21 22/22/22
f 16/16/16 22/22/22 23/23/23
f 16/16/16 23/23/23 24/24/24
f 16/16/16 24/24/24 17/17/17
f 25/25/25 21/21/21 20/20/20
f 25/25/25 20/20/20 26/26/26
f 25/25/25 26/26/26 27/27/27
f 25/25/25 27/27/27 28/28/28
f 25/25/25 28/28/28 29/29/29
f 25/25/25 29/29/29 30/30/30
f 25/25/25 30/30/30 22/22/22
f 25/25/25 22/22/22 21/21/21
f 31/31/31 32/32/32 22/22/22
f 31/31/31 22/22/22 30/30/30
f 31/31/31 30/30/30 29/29/29
f 31/31/31 29/29/29 33/33/33
f 31/31/31 33/33/33 5/5/5
f 31/31/31 5/5/5 4/4/4
f 31/31/31 4/4/4 3/3/3
f 31/31/31 3/3/3 32/32/32
f 34/34/34 35/35/35 24/24/24
f 34/34/34 24/24/24 23/23/23
f 34/34/34 23/23/23 22/22/22
f 34/34/34 22/22/22 32/32/32
f 34/34/34 32/32/32 3/3/3
f 34/34/34 3/3/3 13/13/13
f 34/34/34 13/13/13 12/12/12
f 34/34/34 12/12/12 35/35/35
f 36/36/36 37/37/37 38/38/38
f 36/36/36 38/38/38 39/39/39
f 36/36/36 39/39/39 40/40/40
f 36/36/36 40/40/40 41/41/41
f 36/36/36 41/41/41 20/20/20
f 36/36/36 20/20/20 19/19/19
f 36/36/36 19/19/19 18/18/18
f 36/36/36 18/18/18 37/37/37
f 42/42/42 41/41/41 40/40/40
f 42/42/42 40/40/40 43/43/43
f 42/42/42 43/43/43 44/44/44
f 42/42/42 44/44/44 45/45/45
f 42/42/42 45/45/45 27/27/27
f 42/42/42 27/27/27 26/26/26
f 42/42/42 26/26/26 20/20/20
f 42/42/42 20/20/20 41/41/41
f 46/46/46 47/47/47 48/48/48
f 46/46/46 48/48/48 49/49/49
f 46/46/46 49/49/49 50/50/50
f 46/46/46 50/50/50 51/51/51
f 46/46/46 51/51/51 52/52/52
f 46/46/46 52/52/52 53/53/53
f 46/46/46 53/53/53 54/54/54
f 46/46/46 54/54/54 47/47/47
f 55/55/55 56/56/56 57/57/57
f 55/55/55 57/57/57 58/58/58
f 55/55/55 58/58/58 48/48/48
f 55/55/55 48/48/48 47/47/47
f 55/55/55 47/47/47 54/54/54
f 55/55/55 54/54/54 59/59/59
f 55/55/55 59/59/59 60/60/60
f 55/55/55 60/60/60 56/56/56
f 61/61/61 62/62/62 63/63/63
f 61/61/61 63/63/63 64/64/64
f 61/61/61 64/64/64 65/65/65
f 61/61/61 65/65/65 66/66/66
f 61/61/61 66/66/66 67/67/67
f 61/61/61 67/67/67 68/68/68
f 61/61/61 68/68/68 69/69/69
f 61/61/61 69/69/69 62/62/62
f 70/70/70 66/66/66 65/65/65
f 70/70/70 65/65/65 71/71/71
f 70/70/70 71/71/71 72/72/72
f 70/70/70 72/72/72 73/73/73
f 70/70/70 73/73/73 74/74/74
f 70/70/70 74/74/74 75/75/75
f 70/70/70 75/75/75 67/67/67
f 70/70/70 67/67/67 66/66/66
f 76/76/76 77/77/77 54/54/54
f 76/76/76 54/54/54 53/53/53
f 76/76/76 53/53/53 52/52/52
f 76/76/76 52/52/52 78/78/78
f 76/76/76 78/78/78 72/72/72
f 76/76/76 72/72/72 71/71/71
f 76/76/76 71/71/71 65/65/65
f 76/76/76 65/65/65 77/77/77
f 79/79/79 80/80/80 60/60/60
f 79/79/79 60/60/60 59/59/59
f 79/79/79 59/59/59 54/54/54
f 79/79/79 54/54/54 77/77/77
f 79/79/79 77/77/77 65/65/65
f 79/79/79 65/65/65 64/64/64
f 79/79/79 64/64/64 63/63/63
f 79/79/79 63/63/63 80/80/80
f 81/81/81 82/82/82 69/69/69
f 81/81/81 69/69/69 68/68/68
f 81/81/81 68/68/68 67/67/67
f 81/81/81 67/67/67 83/83/83
f 81/81/81 83/83/83 84/84/84
f 81/81/81 84/84/84 85/85/85
f 81/81/81 85/85/85 86/86/86
f 81/81/81 86/86/86 82/82/82
f 87/87/87 83/83/83 67/67/67
f 87/87/87 67/67/67 75/75/75
f 87/87/87 75/75/75 74/74/74
f 87/87/87 74/74/74 88/88/88
f 87/87/87 88/88/88 89/89/89
f 87/87/87 89/89/89 90/90/90
f 87/87/87 90/90/90 84/84/84
f 87/87/87 84/84/84 83/83/83
f 91/91/91 92/92/92 38/38/38
f 91/91/91 38/38/38 37/37/37
f 91/91/91 37/37/37 18/18/18
f 91/91/91 18/18/18 93/93/93
f 91/91/91 93/93/93 69/69/69
f 91/91/91 69/69/69 82/82/82
f 91/91/91 82/82/82 94/94/94
f 91/91/91 94/94/94 92/92/92
f 95/95/95 96/96/96 44/44/44
f 95/95/95 44/44/44 43/43/43
f 95/95/95 43/43/43 40/40/40
f 95/95/95 40/40/40 97/97/97
f 95/95/95 97/97/97 84/84/84
f 95/95/95 84/84/84 90/90/90
f 95/95/95 90/90/90 98/98/98
f 95/95/95 98/98/98 96/96/96
f 99/99/99 100/100/100 7/7/7
f 99/99/99 7/7/7 6/6/6
f 99/99/99 6/6/6 5/5/5
f 99/99/99 5/5/5 101/101/101
f 99/99/99 101/101/101 52/52/52
f 99/99/99 52/52/52 51/51/51
f 99/99/99 51/51/51 102/102/102
f 99/99/99 102/102/102 100/100/100
f 103/103/103 104/104/104 15/15/15
f 103/103/103 15/15/15 14/14/14
f 103/103/103 14/14/14 9/9/9
f 103/103/103 9/9/9 105/105/105
f 103/103/103 105/105/105 48/48/48
f 103/103/103 48/48/48 58/58/58
f 103/103/103 58/58/58 106/106/106
f 103/103/103 106/106/106 104/104/104
f 107/107/107 108/108/108 12/12/12
f 107/107/107 12/12/12 11/11/11
f 107/107/107 11/11/11 15/15/15
f 107/107/107 15/15/15 104/104/104
f 107/107/107 104/104/104 106/106/106
f 107/107/107 106/106/106 56/56/56
f 107/107/107 56/56/56 60/60/60
f 107/107/107 60/60/60 108/108/108
f 109/109/109 97/97/97 40/40/40
f 109/109/109 40/40/40 39/39/39
f 109/109/109 39/39/39 38/38/38
f 109/109/109 38/38/38 92/92/92
f 109/109/109 92/92/92 94/94/94
f 109/109/109 94/94/94 85/85/85
f 109/109/109 85/85/85 84/84/84
f 109/109/109 84/84/84 97/97/97
f 110/110/110 111/111/111 27/27/27
f 110/110/110 27/27/27 45/45/45
f 110/110/110 45/45/45 44/44/44
f 110/110/110 44/44/44 96/96/96
f 110/110/110 96/96/96 98/98/98
f 110/110/110 98/98/98 88/88/88
f 110/110/110 88/88/88 74/74/74
f 110/110/110 74/74/74 111/111/111
f 112/112/112 105/105/105 9/9/9
f 112/112/112 9/9/9 8/8/8
f 112/112/112 8/8/8 7/7/7
f 112/112/112 7/7/7 100/100/100
f 112/112/112 100/100/100 102/102/102
f 112/112/112 102/102/102 49/49/49
f 112/112/112 49/49/49 48/48/48
f 112/112/112 48/48/48 105/105/105
f 113/113/113 101/101/101 5/5/5
f 113/113/113 5/5/5 33/33/33
f 113/113/113 33/33/33 29/29/29
f 113/113/113 29/29/29 114/114/114
f 113/113/113 114/114/114 72/72/72
f 113/113/113 72/72/72 78/78/78
f 113/113/113 78/78/78 52/52/52
f 113/113/113 52/52/52 101/101/101
f 115/115/115 116/116/116 24/24/24
f 115/115/115 24/24/24 35/35/35
f 115/115/115 35/35/35 12/12/12
f 115/115/115 12/12/12 108/108/108
f 115/115/115 108/108/108 60/60/60
f 115/115/115 60/60/60 80/80/80
f 115/115/115 80/80/80 63/63/63
f 115/115/115 63/63/63 116/116/116
f 117/117/117 93/93/93 18/18/18
f 117/117/117 18/18/18 17/17/17
f 117/117/117 17/17/17 24/24/24
f 117/117/117 24/24/24 116/116/116
f 117/117/117 116/116/116 63/63/63
f 117/117/117 63/63/63 62/62/62
f 117/117/117 62/62/62 69/69/69
f 117/117/117 69/69/69 93/93/93
f 118/118/118 114/114/114 29/29/29
f 118/118/118 29/29/29 28/28/28
f 118/118/118 28/28/28 27/27/27
f 118/118/118 27/27/27 111/111/111
f 118/118/118 111/111/111 74/74/74
f 118/118/118 74/74/74 73/73/73
f 118/118/118 73/73/73 72/72/72
f 118/118/118 72/72/72 114/114/114
