v -2.449538 0.735988 -1.087324
v -2.449984 0.735869 -1.085088
v -2.446998 0.735306 -1.085155
v -2.446833 0.735441 -1.087684
v -2.446529 0.735730 -1.089606
v -2.448820 0.736239 -1.089032
v -2.450284 0.736342 -1.088250
v -2.451473 0.736262 -1.086977
v -2.452190 0.736178 -1.085033
v -2.449389 0.736258 -1.082919
v -2.448558 0.736713 -1.081308
v -2.446232 0.736268 -1.080832
v -2.446663 0.735748 -1.082679
v -2.451344 0.736496 -1.083165
v -2.450071 0.736726 -1.081995
v -2.437769 0.732374 -1.082824
v -2.437578 0.732696 -1.080997
v -2.434790 0.731047 -1.081489
v -2.434968 0.730750 -1.083104
v -2.435133 0.730469 -1.085261
v -2.437946 0.732066 -1.085263
v -2.440851 0.733458 -1.085250
v -2.440657 0.733801 -1.082700
v -2.440444 0.734171 -1.080791
v -2.437935 0.732073 -1.087729
v -2.435115 0.730484 -1.087442
v -2.435048 0.730581 -1.089090
v -2.437869 0.732169 -1.089591
v -2.440748 0.733619 -1.089781
v -2.440831 0.733486 -1.087831
v -2.443864 0.734608 -1.087834
v -2.443911 0.734520 -1.085212
v -2.443737 0.734831 -1.089821
v -2.443687 0.734927 -1.082628
v -2.443428 0.735391 -1.080698
v -2.432203 0.729035 -1.083646
v -2.432041 0.729301 -1.082442
v -2.430577 0.728218 -1.083272
v -2.430156 0.727688 -1.084145
v -2.430284 0.727476 -1.085242
v -2.432348 0.728791 -1.085252
v -2.432313 0.728836 -1.086883
v -2.430232 0.727552 -1.086363
v -2.430712 0.727973 -1.087263
v -2.432234 0.728953 -1.088118
v -2.449591 0.735756 -1.087341
v -2.450036 0.735636 -1.085072
v -2.452226 0.736003 -1.085021
v -2.451510 0.736087 -1.086992
v -2.450312 0.736214 -1.088268
v -2.448860 0.736066 -1.089061
v -2.446577 0.735558 -1.089631
v -2.446896 0.735211 -1.087698
v -2.447060 0.735076 -1.085139
v -2.449440 0.736030 -1.082871
v -2.448596 0.736545 -1.081254
v -2.450098 0.736601 -1.081960
v -2.451379 0.736325 -1.083127
v -2.446724 0.735521 -1.082633
v -2.446277 0.736101 -1.080783
v -2.437872 0.732161 -1.082786
v -2.437654 0.732538 -1.080958
v -2.440511 0.734009 -1.080750
v -2.440748 0.733583 -1.082661
v -2.440943 0.733237 -1.085234
v -2.438051 0.731851 -1.085247
v -2.435246 0.730258 -1.085244
v -2.435080 0.730542 -1.083066
v -2.434873 0.730892 -1.081450
v -2.438040 0.731857 -1.087733
v -2.440924 0.733265 -1.087837
v -2.440818 0.733454 -1.089796
v -2.437948 0.732008 -1.089604
v -2.435133 0.730422 -1.089104
v -2.435229 0.730273 -1.087446
v -2.443941 0.734382 -1.087844
v -2.443987 0.734294 -1.085195
v -2.443795 0.734662 -1.089840
v -2.443763 0.734704 -1.082587
v -2.443484 0.735226 -1.080653
v -2.432318 0.728828 -1.083606
v -2.432126 0.729148 -1.082401
v -2.432464 0.728582 -1.085236
v -2.430372 0.727319 -1.085229
v -2.430243 0.727533 -1.084114
v -2.430640 0.728104 -1.083245
v -2.432429 0.728627 -1.086889
v -2.432321 0.728796 -1.088134
v -2.430777 0.727857 -1.087272
v -2.430320 0.727395 -1.086368
v -2.432025 0.729322 -1.082020
v -2.430035 0.727882 -1.083266
v -2.434767 0.731077 -1.080930
v -2.430640 0.728104 -1.083245
v -2.429577 0.727054 -1.086192
v -2.430171 0.727637 -1.087265
v -2.429635 0.726968 -1.085233
v -2.430777 0.727857 -1.087272
v -2.448599 0.736246 -1.089618
v -2.450412 0.736396 -1.088507
v -2.446450 0.735750 -1.090261
v -2.450312 0.736214 -1.088268
v -2.452010 0.736499 -1.083230
v -2.450183 0.736811 -1.081739
v -2.452941 0.736203 -1.085009
v -2.450098 0.736601 -1.081960
v -2.448298 0.736791 -1.080743
v -2.446108 0.736368 -1.080191
v -2.429513 0.727170 -1.084297
v -2.432246 0.728922 -1.088540
v -2.435063 0.730543 -1.089648
v -2.452134 0.736275 -1.086869
v -2.443721 0.734831 -1.090494
v -2.440752 0.733590 -1.090440
v -2.443366 0.735473 -1.080031
v -2.440402 0.734222 -1.080134
v -2.437548 0.732734 -1.080368
v -2.437882 0.732130 -1.090220
vn 0.189400 0.970200 0.151100
vn 0.165500 0.984000 -0.066000
vn 0.224200 0.972200 -0.067200
vn 0.248100 0.960400 0.126700
vn 0.272400 0.955000 0.116800
vn 0.189800 0.971300 0.143100
vn 0.130400 0.978400 0.160300
vn 0.097700 0.988700 0.113300
vn 0.072700 0.995300 -0.063500
vn 0.174700 0.943700 -0.280900
vn 0.175700 0.945800 -0.273100
vn 0.260000 0.932500 -0.250700
vn 0.235000 0.936700 -0.259500
vn 0.085800 0.967100 -0.239500
vn 0.115200 0.951000 -0.286900
vn 0.455300 0.872300 -0.177900
vn 0.465500 0.873700 -0.141300
vn 0.494000 0.858300 -0.138400
vn 0.483800 0.855200 -0.185700
vn 0.499800 0.863300 -0.069900
vn 0.462500 0.883800 -0.069900
vn 0.385000 0.920300 -0.069500
vn 0.385300 0.902900 -0.190700
vn 0.403300 0.900200 -0.163900
vn 0.462700 0.885600 0.038900
vn 0.491700 0.869500 0.046900
vn 0.498700 0.866800 -0.001200
vn 0.470400 0.882400 0.001800
vn 0.409700 0.911800 0.025200
vn 0.393500 0.917800 0.052600
vn 0.313100 0.945900 0.085400
vn 0.296300 0.952600 -0.068500
vn 0.338300 0.938500 0.068300
vn 0.302700 0.927100 -0.221200
vn 0.329000 0.921800 -0.205100
vn 0.493600 0.843700 -0.211000
vn 0.509000 0.845600 -0.160500
vn 0.520700 0.831900 -0.191800
vn 0.539400 0.809400 -0.232100
vn 0.564700 0.822400 -0.069600
vn 0.517100 0.853100 -0.069900
vn 0.503300 0.861000 0.072600
vn 0.550500 0.829500 0.094600
vn 0.528900 0.846900 0.053300
vn 0.515200 0.856800 0.021300
vn -0.212200 -0.960800 -0.178100
vn -0.181700 -0.981100 0.066300
vn -0.243900 -0.967400 0.067600
vn -0.275600 -0.925700 -0.258900
vn -0.296300 -0.880400 -0.370200
vn -0.288200 -0.892300 -0.347400
vn -0.293100 -0.914100 -0.280200
vn -0.249500 -0.957900 -0.141800
vn -0.224100 -0.972200 0.067200
vn -0.195700 -0.931000 0.308100
vn -0.260400 -0.841900 0.472500
vn -0.266900 -0.827400 0.494000
vn -0.253600 -0.886100 0.388000
vn -0.235300 -0.932400 0.274200
vn -0.269700 -0.871800 0.408900
vn -0.452800 -0.870300 0.193900
vn -0.430900 -0.850000 0.303000
vn -0.381200 -0.869600 0.313700
vn -0.383700 -0.900300 0.205500
vn -0.385200 -0.920200 0.069500
vn -0.462700 -0.883800 0.069900
vn -0.500000 -0.863200 0.069900
vn -0.479000 -0.853700 0.204300
vn -0.429200 -0.842000 0.326700
vn -0.461200 -0.885600 -0.055100
vn -0.392900 -0.917100 -0.067600
vn -0.397900 -0.899800 -0.178700
vn -0.446900 -0.878800 -0.167100
vn -0.446800 -0.873800 -0.191600
vn -0.488200 -0.870300 -0.065700
vn -0.313000 -0.944500 -0.100000
vn -0.296300 -0.952600 0.068500
vn -0.335400 -0.916100 -0.219700
vn -0.301600 -0.923900 0.235500
vn -0.316000 -0.881000 0.352100
vn -0.473500 -0.848600 0.236000
vn -0.388600 -0.840500 0.377500
vn -0.506700 -0.859300 0.069900
vn -0.459800 -0.885200 0.069900
vn -0.400400 -0.863700 0.305900
vn -0.358000 -0.840400 0.406800
vn -0.484800 -0.869100 -0.098100
vn -0.409600 -0.878700 -0.245000
vn -0.381100 -0.882300 -0.276100
vn -0.416600 -0.892900 -0.170500
vn 0.452300 0.045700 0.890700
vn 0.748700 -0.116200 0.652600
vn 0.312100 0.087600 0.946000
vn -0.358000 -0.840400 0.406800
vn 0.849300 -0.471800 -0.236700
vn 0.703300 -0.197900 -0.682800
vn 0.796400 -0.604700 0.010000
vn -0.381100 -0.882300 -0.276100
vn -0.273400 0.330200 -0.903400
vn -0.554100 0.366000 -0.747600
vn -0.088700 0.248100 -0.964600
vn -0.296300 -0.880400 -0.370200
vn -0.823000 0.260000 0.505100
vn -0.503800 0.456900 0.733100
vn -0.994700 0.098900 0.028000
vn -0.266900 -0.827400 0.494000
vn -0.213000 0.439100 0.872800
vn -0.024500 0.364500 0.930900
vn 0.865300 -0.443100 0.234400
vn 0.390900 -0.065200 -0.918100
vn 0.247100 -0.030100 -0.968500
vn -0.856400 0.199900 -0.476000
vn 0.028400 0.160500 -0.986600
vn 0.086900 0.096000 -0.991600
vn 0.094200 0.279700 0.955400
vn 0.153200 0.215900 0.964300
vn 0.209700 0.151200 0.966000
vn 0.143400 0.031100 -0.989200
vt 0.839504 0.118056
vt 0.856743 0.205307
vt 0.741230 0.205307
vt 0.734555 0.106726
vt 0.724541 0.032791
vt 0.813647 0.052618
vt 0.868992 0.081539
vt 0.913398 0.129584
vt 0.940923 0.205307
vt 0.839504 0.292557
vt 0.813647 0.357995
vt 0.724541 0.377822
vt 0.734555 0.303887
vt 0.913398 0.281029
vt 0.868992 0.329074
vt 0.369475 0.299954
vt 0.368286 0.370940
vt 0.245840 0.351447
vt 0.246397 0.288815
vt 0.246768 0.205307
vt 0.370268 0.205307
vt 0.494283 0.205307
vt 0.492822 0.304944
vt 0.490632 0.379672
vt 0.369475 0.110659
vt 0.246397 0.121798
vt 0.245841 0.059166
vt 0.368286 0.039673
vt 0.490632 0.030941
vt 0.492822 0.105669
vt 0.616755 0.103478
vt 0.619174 0.205307
vt 0.613127 0.027106
vt 0.616755 0.307135
vt 0.613126 0.383507
vt 0.123273 0.268175
vt 0.123047 0.315326
vt 0.054743 0.283353
vt 0.030912 0.249131
vt 0.030973 0.205306
vt 0.123423 0.205306
vt 0.123273 0.142438
vt 0.030912 0.161481
vt 0.054744 0.127260
vt 0.123047 0.095287
vt 0.839504 0.118056
vt 0.856743 0.205307
vt 0.968983 0.205307
vt 0.938030 0.133427
vt 0.876123 0.061548
vt 0.805028 0.030806
vt 0.721203 0.008146
vt 0.734555 0.106726
vt 0.741230 0.205307
vt 0.839504 0.292557
vt 0.805028 0.379807
vt 0.876123 0.349065
vt 0.938030 0.277186
vt 0.734555 0.303887
vt 0.721203 0.402467
vt 0.369475 0.299954
vt 0.367890 0.394602
vt 0.489902 0.404581
vt 0.492822 0.304944
vt 0.494283 0.205307
vt 0.370268 0.205307
vt 0.246768 0.205307
vt 0.246397 0.288815
vt 0.245655 0.372324
vt 0.369475 0.110659
vt 0.492822 0.105669
vt 0.489902 0.006032
vt 0.367890 0.016011
vt 0.245655 0.038289
vt 0.246397 0.121798
vt 0.616755 0.103478
vt 0.619174 0.205307
vt 0.611917 0.001649
vt 0.616755 0.307135
vt 0.611917 0.408964
vt 0.123273 0.268175
vt 0.122972 0.331043
vt 0.123423 0.205306
vt 0.000156 0.205306
vt 0.000125 0.242784
vt 0.000064 0.280261
vt 0.123273 0.142438
vt 0.122972 0.079570
vt 0.000064 0.130352
vt 0.000125 0.167829
vt 0.122972 0.331043
vt 0.030806 0.283587
vt 0.245655 0.372324
vt 0.030806 0.283587
vt 0.000125 0.167829
vt 0.030806 0.127026
vt 0.000156 0.205306
vt 0.030806 0.127026
vt 0.805028 0.030806
vt 0.873826 0.071832
vt 0.721203 0.008146
vt 0.873826 0.071832
vt 0.938030 0.277186
vt 0.873826 0.338781
vt 0.968983 0.205307
vt 0.873826 0.338781
vt 0.805028 0.379807
vt 0.721203 0.402467
vt 0.000125 0.242784
vt 0.122972 0.079570
vt 0.245655 0.038289
vt 0.938030 0.133427
vt 0.611917 0.001649
vt 0.489902 0.006032
vt 0.611917 0.408964
vt 0.489902 0.404581
vt 0.367890 0.394602
vt 0.367890 0.016011
f 1/1/1 2/2/2 3/3/3
f 1/1/1 3/3/3 4/4/4
f 1/1/1 4/4/4 5/5/5
f 1/1/1 5/5/5 6/6/6
f 1/1/1 6/6/6 7/7/7
f 1/1/1 7/7/7 8/8/8
f 1/1/1 8/8/8 9/9/9
f 1/1/1 9/9/9 2/2/2
f 10/10/10 11/11/11 12/12/12
f 10/10/10 12/12/12 13/13/13
f 10/10/10 13/13/13 3/3/3
f 10/10/10 3/3/3 2/2/2
f 10/10/10 2/2/2 9/9/9
f 10/10/10 9/9/9 14/14/14
f 10/10/10 14/14/14 15/15/15
f 10/10/10 15/15/15 11/11/11
f 16/16/16 17/17/17 18/18/18
f 16/16/16 18/18/18 19/19/19
f 16/16/16 19/19/19 20/20/20
f 16/16/16 20/20/20 21/21/21
f 16/16/16 21/21/21 22/22/22
f 16/16/16 22/22/22 23/23/23
f 16/16/16 23/23/23 24/24/24
f 16/16/16 24/24/24 17/17/17
f 25/25/25 21/21/21 20/20/20
f 25/25/25 20/20/20 26/26/26
f 25/25/25 26/26/26 27/27/27
f 25/25/25 27/27/27 28/28/28
f 25/25/25 28/28/28 29/29/29
f 25/25/25 29/29/29 30/30/30
f 25/25/25 30/30/30 22/22/22
f 25/25/25 22/22/22 21/21/21
f 31/31/31 32/32/32 22/22/22
f 31/31/31 22/22/22 30/30/30
f 31/31/31 30/30/30 29/29/29
f 31/31/31 29/29/29 33/33/33
f 31/31/31 33/33/33 5/5/5
f 31/31/31 5/5/5 4/4/4
f 31/31/31 4/4/4 3/3/3
f 31/31/31 3/3/3 32/32/32
f 34/34/34 35/35/35 24/24/24
f 34/34/34 24/24/24 23/23/23
f 34/34/34 23/23/23 22/22/22
f 34/34/34 22/22/22 32/32/32
f 34/34/34 32/32/32 3/3/3
f 34/34/34 3/3/3 13/13/13
f 34/34/34 13/13/13 12/12/12
f 34/34/34 12/12/12 35/35/35
f 36/36/36 37/37/37 38/38/38
f 36/36/36 38/38/38 39/39/39
f 36/36/36 39/39/39 40/40/40
f 36/36/36 40/40/40 41/41/41
f 36/36/36 41/41/41 20/20/20
f 36/36/36 20/20/20 19/19/19
f 36/36/36 19/19/19 18/18/18
f 36/36/36 18/18/18 37/37/37
f 42/42/42 41/41/41 40/40/40
f 42/42/42 40/40/40 43/43/43
f 42/42/42 43/43/43 44/44/44
f 42/42/42 44/44/44 45/45/45
f 42/42/42 45/45/45 27/27/27
f 42/42/42 27/27/27 26/26/26
f 42/42/42 26/26/26 20/20/20
f 42/42/42 20/20/20 41/41/41
f 46/46/46 47/47/47 48/48/48
f 46/46/46 48/48/48 49/49/49
f 46/46/46 49/49/49 50/50/50
f 46/46/46 50/50/50 51/51/51
f 46/46/46 51/51/51 52/52/52
f 46/46/46 52/52/52 53/53/53
f 46/46/46 53/53/53 54/54/54
f 46/46/46 54/54/54 47/47/47
f 55/55/55 56/56/56 57/57/57
f 55/55/55 57/57/57 58/58/58
f 55/55/55 58/58/58 48/48/48
f 55/55/55 48/48/48 47/47/47
f 55/55/55 47/47/47 54/54/54
f 55/55/55 54/54/54 59/59/59
f 55/55/55 59/59/59 60/60/60
f 55/55/55 60/60/60 56/56/56
f 61/61/61 62/62/62 63/63/63
f 61/61/61 63/63/63 64/64/64
f 61/61/61 64/64/64 65/65/65
f 61/61/61 65/65/65 66/66/66
f 61/61/61 66/66/66 67/67/67
f 61/61/61 67/67/67 68/68/68
f 61/61/61 68/68/68 69/69/69
f 61/61/61 69/69/69 62/62/62
f 70/70/70 66/66/66 65/65/65
f 70/70/70 65/65/65 71/71/71
f 70/70/70 71/71/71 72/72/72
f 70/70/70 72/72/72 73/73/73
f 70/70/70 73/73/73 74/74/74
f 70/70/70 74/74/74 75/75/75
f 70/70/70 75/75/75 67/67/67
f 70/70/70 67/67/67 66/66/66
f 76/76/76 77/77/77 54/54/54
f 76/76/76 54/54/54 53/53/53
f 76/76/76 53/53/53 52/52/52
f 76/76/76 52/52/52 78/78/78
f 76/76/76 78/78/78 72/72/72
f 76/76/76 72/72/72 71/71/71
f 76/76/76 71/71/71 65/65/65
f 76/76/76 65/65/65 77/77/77
f 79/79/79 80/80/80 60/60/60
f 79/79/79 60/60/60 59/59/59
f 79/79/79 59/59/59 54/54/54
f 79/79/79 54/54/54 77/77/77
f 79/79/79 77/77/77 65/65/65
f 79/79/79 65/65/65 64/64/64
f 79/79/79 64/64/64 63/63/63
f 79/79/79 63/63/63 80/80/80
f 81/81/81 82/82/82 69/69/69
f 81/81/81 69/69/69 68/68/68
f 81/81/81 68/68/68 67/67/67
f 81/81/81 67/67/67 83/83/83
f 81/81/81 83/83/83 84/84/84
f 81/81/81 84/84/84 85/85/85
f 81/81/81 85/85/85 86/86/86
f 81/81/81 86/86/86 82/82/82
f 87/87/87 83/83/83 67/67/67
f 87/87/87 67/67/67 75/75/75
f 87/87/87 75/75/75 74/74/74
f 87/87/87 74/74/74 88/88/88
f 87/87/87 88/88/88 89/89/89
f 87/87/87 89/89/89 90/90/90
f 87/87/87 90/90/90 84/84/84
f 87/87/87 84/84/84 83/83/83
f 91/91/91 92/92/92 38/38/38
f 91/91/91 38/38/38 37/37/37
f 91/91/91 37/37/37 18/18/18
f 91/91/91 18/18/18 93/93/93
f 91/91/91 93/93/93 69/69/69
f 91/91/91 69/69/69 82/82/82
f 91/91/91 82/82/82 94/94/94
f 91/91/91 94/94/94 92/92/92
f 95/95/95 96/96/96 44/44/44
f 95/95/95 44/44/44 43/43/43
f 95/95/95 43/43/43 40/40/40
f 95/95/95 40/40/40 97/97/97
f 95/95/95 97/97/97 84/84/84
f 95/95/95 84/84/84 90/90/90
f 95/95/95 90/90/90 98/98/98
f 95/95/95 98/98/98 96/96/96
f 99/99/99 100/100/100 7/7/7
f 99/99/99 7/7/7 6/6/6
f 99/99/99 6/6/6 5/5/5
f 99/99/99 5/5/5 101/101/101
f 99/99/99 101/101/101 52/52/52
f 99/99/99 52/52/52 51/51/51
f 99/99/99 51/51/51 102/102/102
f 99/99/99 102/102/102 100/100/100
f 103/103/103 104/104/104 15/15/15
f 103/103/103 15/15/15 14/14/14
f 103/103/103 14/14/14 9/9/9
f 103/103/103 9/9/9 105/105/105
f 103/103/103 105/105/105 48/48/48
f 103/103/103 48/48/48 58/58/58
f 103/103/103 58/58/58 106/106/106
f 103/103/103 106/106/106 104/104/104
f 107/107/107 108/108/108 12/12/12
f 107/107/107 12/12/12 11/11/11
f 107/107/107 11/11/11 15/15/15
f 107/107/107 15/15/15 104/104/104
f 107/107/107 104/104/104 106/106/106
f 107/107/107 106/106/106 56/56/56
f 107/107/107 56/56/56 60/60/60
f 107/107/107 60/60/60 108/108/108
f 109/109/109 97/97/97 40/40/40
f 109/109/109 40/40/40 39/39/39
f 109/109/109 39/39/39 38/38/38
f 109/109/109 38/38/38 92/92/92
f 109/109/109 92/92/92 94/94/94
f 109/109/109 94/94/94 85/85/85
f 109/109/109 85/85/85 84/84/84
f 109/109/109 84/84/84 97/97/97
f 110/110/110 111/111/111 27/27/27
f 110/110/110 27/27/27 45/45/45
f 110/110/110 45/45/45 44/44/44
f 110/110/110 44/44/44 96/96/96
f 110/110/110 96/96/96 98/98/98
f 110/110/110 98/98/98 88/88/88
f 110/110/110 88/88/88 74/74/74
f 110/110/110 74/74/74 111/111/111
f 112/112/112 105/105/105 9/9/9
f 112/112/112 9/9/9 8/8/8
f 112/112/112 8/8/8 7/7/7
f 112/112/112 7/7/7 100/100/100
f 112/112/112 100/100/100 102/102/102
f 112/112/112 102/102/102 49/49/49
f 112/112/112 49/49/49 48/48/48
f 112/112/112 48/48/48 105/105/105
f 113/113/113 101/101/101 5/5/5
f 113/113/113 5/5/5 33/33/33
f 113/113/113 33/33/33 29/29/29
f 113/113/113 29/29/29 114/114/114
f 113/113/113 114/114/114 72/72/72
f 113/113/113 72/72/72 78/78/78
f 113/113/113 78/78/78 52/52/52
f 113/113/113 52/52/52 101/101/101
f 115/115/115 116/116/116 24/24/24
f 115/115/115 24/24/24 35/35/35
f 115/115/115 35/35/35 12/12/12
f 115/115/115 12/12/12 108/108/108
f 115/115/115 108/108/108 60/60/60
f 115/115/115 60/60/60 80/80/80
f 115/115/115 80/80/80 63/63/63
f 115/115/115 63/63/63 116/116/116
f 117/117/117 93/93/93 18/18/18
f 117/117/117 18/18/18 17/17/17
f 117/117/117 17/17/17 24/24/24
f 117/117/117 24/24/24 116/116/116
f 117/117/117 116/116/116 63/63/63
f 117/117/117 63/63/63 62/62/62
f 117/117/117 62/62/62 69/69/69
f 117/117/117 69/69/69 93/93/93
f 118/118/118 114/114/114 29/29/29
f 118/118/118 29/29/29 28/28/28
f 118/118/118 28/28/28 27/27/27
f 118/118/118 27/27/27 111/111/111
f 118/118/118 111/111/111 74/74/74
f 118/118/118 74/74/74 73/73/73
f 118/118/118 73/73/73 72/72/72
f 118/118/118 72/72/72 114/114/114
