v -2.461094 0.755494 -1.107155
v -2.461758 0.755387 -1.104892
v -2.458816 0.754291 -1.104748
v -2.458409 0.754471 -1.107336
v -2.457887 0.754768 -1.109280
v -2.460176 0.755673 -1.108848
v -2.461712 0.756013 -1.108154
v -2.463044 0.756104 -1.106939
v -2.463952 0.756089 -1.104995
v -2.461271 0.755617 -1.102593
v -2.460485 0.755888 -1.100847
v -2.458238 0.755012 -1.100191
v -2.458610 0.754611 -1.102151
v -2.463196 0.756210 -1.102990
v -2.461962 0.756187 -1.101674
v -2.450141 0.749613 -1.101741
v -2.450047 0.749855 -1.099829
v -2.447457 0.747699 -1.100187
v -2.447551 0.747474 -1.101879
v -2.447584 0.747278 -1.104126
v -2.450167 0.749400 -1.104283
v -2.452879 0.751329 -1.104439
v -2.452841 0.751571 -1.101781
v -2.452722 0.751856 -1.099781
v -2.449944 0.749476 -1.106822
v -2.447378 0.747353 -1.106372
v -2.447153 0.747487 -1.108060
v -2.449703 0.749616 -1.108732
v -2.452362 0.751605 -1.109093
v -2.452635 0.751428 -1.107096
v -2.455523 0.753105 -1.107292
v -2.455809 0.752948 -1.104596
v -2.455186 0.753367 -1.109319
v -2.455732 0.753250 -1.101899
v -2.455551 0.753621 -1.099869
v -2.444992 0.745255 -1.102291
v -2.444883 0.745464 -1.101026
v -2.443512 0.744126 -1.101812
v -2.443102 0.743537 -1.102701
v -2.443175 0.743375 -1.103851
v -2.445044 0.745078 -1.103969
v -2.444862 0.745165 -1.105644
v -2.443014 0.743475 -1.104998
v -2.443352 0.744015 -1.105946
v -2.444656 0.745306 -1.106906
v -2.461187 0.755268 -1.107187
v -2.461853 0.755159 -1.104889
v -2.464020 0.755916 -1.104993
v -2.463109 0.755933 -1.106965
v -2.461762 0.755888 -1.108180
v -2.460244 0.755505 -1.108889
v -2.457963 0.754602 -1.109317
v -2.458512 0.754248 -1.107364
v -2.458920 0.754066 -1.104746
v -2.461366 0.755392 -1.102556
v -2.460557 0.755723 -1.100802
v -2.462014 0.756063 -1.101645
v -2.463264 0.756041 -1.102961
v -2.458714 0.754389 -1.102118
v -2.458317 0.754848 -1.100151
v -2.450286 0.749413 -1.101720
v -2.450155 0.749707 -1.099802
v -2.452822 0.751701 -1.099752
v -2.452974 0.751364 -1.101758
v -2.453012 0.751120 -1.104439
v -2.450312 0.749199 -1.104283
v -2.447737 0.747083 -1.104127
v -2.447705 0.747280 -1.101857
v -2.447572 0.747554 -1.100160
v -2.450088 0.749275 -1.106844
v -2.452767 0.751220 -1.107119
v -2.452460 0.751449 -1.109122
v -2.449809 0.749466 -1.108759
v -2.447265 0.747341 -1.108089
v -2.447530 0.747158 -1.106394
v -2.455640 0.752888 -1.107317
v -2.455927 0.752731 -1.104595
v -2.455273 0.753206 -1.109351
v -2.455850 0.753035 -1.101871
v -2.455641 0.753462 -1.099835
v -2.445148 0.745064 -1.102268
v -2.445000 0.745321 -1.100998
v -2.445200 0.744885 -1.103969
v -2.443293 0.743230 -1.103851
v -2.443220 0.743394 -1.102683
v -2.443599 0.744020 -1.101794
v -2.445016 0.744972 -1.105669
v -2.444771 0.745162 -1.106936
v -2.443437 0.743908 -1.105966
v -2.443130 0.743331 -1.105018
v -2.444899 0.745470 -1.100589
v -2.443020 0.743689 -1.101777
v -2.447476 0.747710 -1.099608
v -2.443599 0.744020 -1.101794
v -2.442449 0.742848 -1.104792
v -2.442860 0.743577 -1.105919
v -2.442604 0.742743 -1.103812
v -2.443437 0.743908 -1.105966
v -2.459900 0.755658 -1.109434
v -2.461812 0.756098 -1.108426
v -2.457747 0.754793 -1.109948
v -2.461762 0.755888 -1.108180
v -2.463867 0.756332 -1.103109
v -2.462083 0.756287 -1.101415
v -2.464713 0.756246 -1.105029
v -2.462014 0.756063 -1.101645
v -2.460255 0.755906 -1.100241
v -2.458150 0.755073 -1.099517
v -2.442525 0.742901 -1.102829
v -2.444638 0.745289 -1.107343
v -2.447127 0.747467 -1.108638
v -2.463722 0.756231 -1.106879
v -2.455112 0.753383 -1.110012
v -2.452314 0.751595 -1.109774
v -2.455531 0.753674 -1.099174
v -2.452727 0.751882 -1.099099
v -2.450063 0.749870 -1.099177
v -2.449669 0.749596 -1.109383
vn 0.335900 0.919300 0.205000
vn 0.332600 0.943000 -0.012500
vn 0.388300 0.921400 -0.009800
vn 0.393900 0.900400 0.184800
vn 0.417800 0.891200 0.176500
vn 0.337200 0.920500 0.197100
vn 0.278600 0.937200 0.209900
vn 0.252100 0.954200 0.161100
vn 0.243100 0.969800 -0.016600
vn 0.352600 0.907700 -0.227500
vn 0.353300 0.909300 -0.219700
vn 0.432000 0.881300 -0.191400
vn 0.408900 0.890000 -0.201900
vn 0.265700 0.944700 -0.192100
vn 0.295800 0.925200 -0.237800
vn 0.607900 0.786900 -0.106400
vn 0.615100 0.785400 -0.069100
vn 0.640300 0.765400 -0.064600
vn 0.633700 0.765300 -0.112800
vn 0.641200 0.767400 0.004100
vn 0.608000 0.793900 0.002100
vn 0.537900 0.843000 -0.001900
vn 0.545200 0.829200 -0.123300
vn 0.560300 0.822700 -0.095300
vn 0.599400 0.792700 0.110600
vn 0.624700 0.771600 0.120100
vn 0.635000 0.769100 0.072700
vn 0.609600 0.789200 0.074100
vn 0.552900 0.827900 0.094000
vn 0.535800 0.835700 0.120300
vn 0.458700 0.876200 0.148000
vn 0.456000 0.889900 -0.006300
vn 0.483700 0.865100 0.132600
vn 0.470600 0.867900 -0.159000
vn 0.494200 0.857800 -0.141100
vn 0.643500 0.753000 -0.137700
vn 0.654700 0.750900 -0.086100
vn 0.666400 0.736300 -0.117100
vn 0.684400 0.712100 -0.156700
vn 0.698000 0.716000 0.007700
vn 0.656500 0.754300 0.005100
vn 0.632500 0.760600 0.146300
vn 0.671600 0.721000 0.170500
vn 0.656800 0.742900 0.128600
vn 0.647700 0.755800 0.096100
vn -0.354500 -0.905500 -0.233300
vn -0.348000 -0.937400 0.011700
vn -0.407000 -0.913400 0.008800
vn -0.404300 -0.857800 -0.317100
vn -0.407900 -0.806600 -0.427700
vn -0.403800 -0.820300 -0.405000
vn -0.417700 -0.842800 -0.339300
vn -0.393600 -0.897300 -0.199800
vn -0.388300 -0.921500 0.009800
vn -0.373300 -0.892400 0.253500
vn -0.435500 -0.798200 0.416200
vn -0.441300 -0.783300 0.437700
vn -0.429200 -0.840500 0.330500
vn -0.409700 -0.886100 0.216700
vn -0.444400 -0.824200 0.350800
vn -0.606300 -0.785700 0.122700
vn -0.590400 -0.772500 0.233800
vn -0.545800 -0.800500 0.247400
vn -0.544400 -0.827300 0.138200
vn -0.538000 -0.842900 0.001900
vn -0.608100 -0.793800 -0.002100
vn -0.641300 -0.767200 -0.004100
vn -0.630200 -0.765200 0.131700
vn -0.589400 -0.765600 0.257800
vn -0.596700 -0.792400 -0.126700
vn -0.533800 -0.834700 -0.135200
vn -0.526800 -0.813700 -0.245600
vn -0.572200 -0.785100 -0.236800
vn -0.569300 -0.779500 -0.261100
vn -0.619700 -0.772500 -0.138600
vn -0.457200 -0.874400 -0.162500
vn -0.456000 -0.889900 0.006300
vn -0.464600 -0.839300 -0.282300
vn -0.470200 -0.865300 0.173500
vn -0.486800 -0.823900 0.290200
vn -0.626500 -0.761900 0.163900
vn -0.553400 -0.772400 0.311800
vn -0.647200 -0.762200 -0.004500
vn -0.605500 -0.795800 -0.002000
vn -0.563000 -0.791200 0.238700
vn -0.525700 -0.778300 0.343400
vn -0.613600 -0.770900 -0.170700
vn -0.529200 -0.789100 -0.311700
vn -0.499200 -0.796700 -0.340700
vn -0.544500 -0.804100 -0.238600
vn 0.378800 -0.056600 0.923700
vn 0.662200 -0.259300 0.703000
vn 0.243700 0.006500 0.969800
vn -0.525700 -0.778300 0.343400
vn 0.775000 -0.602400 -0.190600
vn 0.714100 -0.295200 -0.634700
vn 0.680500 -0.731300 0.045800
vn -0.499200 -0.796700 -0.340700
vn -0.139000 0.396800 -0.907300
vn -0.421800 0.475500 -0.772000
vn 0.033600 0.286300 -0.957500
vn -0.407900 -0.806600 -0.427700
vn -0.806700 0.381900 0.451000
vn -0.479100 0.515400 0.710400
vn -0.963000 0.265700 -0.044300
vn -0.441300 -0.783300 0.437700
vn -0.207700 0.444800 0.871200
vn -0.039800 0.337400 0.940500
vn 0.756700 -0.589800 0.281900
vn 0.449000 -0.105300 -0.887300
vn 0.317800 -0.044800 -0.947100
vn -0.768800 0.355700 -0.531500
vn 0.135700 0.180800 -0.974100
vn 0.182700 0.107300 -0.977300
vn 0.060600 0.232900 0.970600
vn 0.107300 0.159700 0.981300
vn 0.152000 0.086200 0.984600
vn 0.227600 0.033600 -0.973100
vt 0.839504 0.118056
vt 0.856743 0.205307
vt 0.741230 0.205307
vt 0.734555 0.106726
vt 0.724541 0.032791
vt 0.813647 0.052618
vt 0.868992 0.081539
vt 0.913398 0.129584
vt 0.940923 0.205307
vt 0.839504 0.292557
vt 0.813647 0.357995
vt 0.724541 0.377822
vt 0.734555 0.303887
vt 0.913398 0.281029
vt 0.868992 0.329074
vt 0.369475 0.299954
vt 0.368286 0.370940
vt 0.245840 0.351447
vt 0.246397 0.288815
vt 0.246768 0.205307
vt 0.370268 0.205307
vt 0.494283 0.205307
vt 0.492822 0.304944
vt 0.490632 0.379672
vt 0.369475 0.110659
vt 0.246397 0.121798
vt 0.245841 0.059166
vt 0.368286 0.039673
vt 0.490632 0.030941
vt 0.492822 0.105669
vt 0.616755 0.103478
vt 0.619174 0.205307
vt 0.613127 0.027106
vt 0.616755 0.307135
vt 0.613126 0.383507
vt 0.123273 0.268175
vt 0.123047 0.315326
vt 0.054743 0.283353
vt 0.030912 0.249131
vt 0.030973 0.205306
vt 0.123423 0.205306
vt 0.123273 0.142438
vt 0.030912 0.161481
vt 0.054744 0.127260
vt 0.123047 0.095287
vt 0.839504 0.118056
vt 0.856743 0.205307
vt 0.968983 0.205307
vt 0.938030 0.133427
vt 0.876123 0.061548
vt 0.805028 0.030806
vt 0.721203 0.008146
vt 0.734555 0.106726
vt 0.741230 0.205307
vt 0.839504 0.292557
vt 0.805028 0.379807
vt 0.876123 0.349065
vt 0.938030 0.277186
vt 0.734555 0.303887
vt 0.721203 0.402467
vt 0.369475 0.299954
vt 0.367890 0.394602
vt 0.489902 0.404581
vt 0.492822 0.304944
vt 0.494283 0.205307
vt 0.370268 0.205307
vt 0.246768 0.205307
vt 0.246397 0.288815
vt 0.245655 0.372324
vt 0.369475 0.110659
vt 0.492822 0.105669
vt 0.489902 0.006032
vt 0.367890 0.016011
vt 0.245655 0.038289
vt 0.246397 0.121798
vt 0.616755 0.103478
vt 0.619174 0.205307
vt 0.611917 0.001649
vt 0.616755 0.307135
vt 0.611917 0.408964
vt 0.123273 0.268175
vt 0.122972 0.331043
vt 0.123423 0.205306
vt 0.000156 0.205306
vt 0.000125 0.242784
vt 0.000064 0.280261
vt 0.123273 0.142438
vt 0.122972 0.079570
vt 0.000064 0.130352
vt 0.000125 0.167829
vt 0.122972 0.331043
vt 0.030806 0.283587
vt 0.245655 0.372324
vt 0.030806 0.283587
vt 0.000125 0.167829
vt 0.030806 0.127026
vt 0.000156 0.205306
vt 0.030806 0.127026
vt 0.805028 0.030806
vt 0.873826 0.071832
vt 0.721203 0.008146
vt 0.873826 0.071832
vt 0.938030 0.277186
vt 0.873826 0.338781
vt 0.968983 0.205307
vt 0.873826 0.338781
vt 0.805028 0.379807
vt 0.721203 0.402467
vt 0.000125 0.242784
vt 0.122972 0.079570
vt 0.245655 0.038289
vt 0.938030 0.133427
vt 0.611917 0.001649
vt 0.489902 0.006032
vt 0.611917 0.408964
vt 0.489902 0.404581
vt 0.367890 0.394602
vt 0.367890 0.016011
f 1/1/1 2/2/2 3/3/3
f 1/1/1 3/3/3 4/4/4
f 1/1/1 4/4/4 5/5/5
f 1/1/1 5/5/5 6/6/6
f 1/1/1 6/6/6 7/7/7
f 1/1/1 7/7/7 8/8/8
f 1/1/1 8/8/8 9/9/9
f 1/1/1 9/9/9 2/2/2
f 10/10/10 11/11/11 12/12/12
f 10/10/10 12/12/12 13/13/13
f 10/10/10 13/13/13 3/3/3
f 10/10/10 3/3/3 2/2/2
f 10/10/10 2/2/2 9/9/9
f 10/10/10 9/9/9 14/14/14
f 10/10/10 14/14/14 15/15/15
f 10/10/10 15/15/15 11/11/11
f 16/16/16 17/17/17 18/18/18
f 16/16/16 18/18/18 19/19/19
f 16/16/16 19/19/19 20/20/20
f 16/16/16 20/20/20 21/21/21
f 16/16/16 21/21/21 22/22/22
f 16/16/16 22/22/22 23/23/23
f 16/16/16 23/23/23 24/24/24
f 16/16/16 24/24/24 17/17/17
f 25/25/25 21/21/21 20/20/20
f 25/25/25 20/20/20 26/26/26
f 25/25/25 26/26/26 27/27/27
f 25/25/25 27/27/27 28/28/28
f 25/25/25 28/28/28 29/29/29
f 25/25/25 29/29/29 30/30/30
f 25/25/25 30/30/30 22/22/22
f 25/25/25 22/22/22 21/21/21
f 31/31/31 32/32/32 22/22/22
f 31/31/31 22/22/22 30/30/30
f 31/31/31 30/30/30 29/29/29
f 31/31/31 29/29/29 33/33/33
f 31/31/31 33/33/33 5/5/5
f 31/31/31 5/5/5 4/4/4
f 31/31/31 4/4/4 3/3/3
f 31/31/31 3/3/3 32/32/32
f 34/34/34 35/35/35 24/24/24
f 34/34/34 24/24/24 23/23/23
f 34/34/34 23/23/23 22/22/22
f 34/34/34 22/22/22 32/32/32
f 34/34/34 32/32/32 3/3/3
f 34/34/34 3/3/3 13/13/13
f 34/34/34 13/13/13 12/12/12
f 34/34/34 12/12/12 35/35/35
f 36/36/36 37/37/37 38/38/38
f 36/36/36 38/38/38 39/39/39
f 36/36/36 39/39/39 40/40/40
f 36/36/36 40/40/40 41/41/41
f 36/36/36 41/41/41 20/20/20
f 36/36/36 20/20/20 19/19/19
f 36/36/36 19/19/19 18/18/18
f 36/36/36 18/18/18 37/37/37
f 42/42/42 41/41/41 40/40/40
f 42/42/42 40/40/40 43/43/43
f 42/42/42 43/43/43 44/44/44
f 42/42/42 44/44/44 45/45/45
f 42/42/42 45/45/45 27/27/27
f 42/42/42 27/27/27 26/26/26
f 42/42/42 26/26/26 20/20/20
f 42/42/42 20/20/20 41/41/41
f 46/46/46 47/47/47 48/48/48
f 46/46/46 48/48/48 49/49/49
f 46/46/46 49/49/49 50/50/50
f 46/46/46 50/50/50 51/51/51
f 46/46/46 51/51/51 52/52/52
f 46/46/46 52/52/52 53/53/53
f 46/46/46 53/53/53 54/54/54
f 46/46/46 54/54/54 47/47/47
f 55/55/55 56/56/56 57/57/57
f 55/55/55 57/57/57 58/58/58
f 55/55/55 58/58/58 48/48/48
f 55/55/55 48/48/48 47/47/47
f 55/55/55 47/47/47 54/54/54
f 55/55/55 54/54/54 59/59/59
f 55/55/55 59/59/59 60/60/60
f 55/55/55 60/60/60 56/56/56
f 61/61/61 62/62/62 63/63/63
f 61/61/61 63/63/63 64/64/64
f 61/61/61 64/64/64 65/65/65
f 61/61/61 65/65/65 66/66/66
f 61/61/61 66/66/66 67/67/67
f 61/61/61 67/67/67 68/68/68
f 61/61/61 68/68/68 69/69/69
f 61/61/61 69/69/69 62/62/62
f 70/70/70 66/66/66 65/65/65
f 70/70/70 65/65/65 71/71/71
f 70/70/70 71/71/71 72/72/72
f 70/70/70 72/72/72 73/73/73
f 70/70/70 73/73/73 74/74/74
f 70/70/70 74/74/74 75/75/75
f 70/70/70 75/75/75 67/67/67
f 70/70/70 67/67/67 66/66/66
f 76/76/76 77/77/77 54/54/54
f 76/76/76 54/54/54 53/53/53
f 76/76/76 53/53/53 52/52/52
f 76/76/76 52/52/52 78/78/78
f 76/76/76 78/78/78 72/72/72
f 76/76/76 72/72/72 71/71/71
f 76/76/76 71/71/71 65/65/65
f 76/76/76 65/65/65 77/77/77
f 79/79/79 80/80/80 60/60/60
f 79/79/79 60/60/60 59/59/59
f 79/79/79 59/59/59 54/54/54
f 79/79/79 54/54/54 77/77/77
f 79/79/79 77/77/77 65/65/65
f 79/79/79 65/65/65 64/64/64
f 79/79/79 64/64/64 63/63/63
f 79/79/79 63/63/63 80/80/80
f 81/81/81 82/82/82 69/69/69
f 81/81/81 69/69/69 68/68/68
f 81/81/81 68/68/68 67/67/67
f 81/81/81 67/67/67 83/83/83
f 81/81/81 83/83/83 84/84/84
f 81/81/81 84/84/84 85/85/85
f 81/81/81 85/85/85 86/86/86
f 81/81/81 86/86/86 82/82/82
f 87/87/87 83/83/83 67/67/67
f 87/87/87 67/67/67 75/75/75
f 87/87/87 75/75/75 74/74/74
f 87/87/87 74/74/74 88/88/88
f 87/87/87 88/88/88 89/89/89
f 87/87/87 89/89/89 90/90/90
f 87/87/87 90/90/90 84/84/84
f 87/87/87 84/84/84 83/83/83
f 91/91/91 92/92/92 38/38/38
f 91/91/91 38/38/38 37/37/37
f 91/91/91 37/37/37 18/18/18
f 91/91/91 18/18/18 93/93/93
f 91/91/91 93/93/93 69/69/69
f 91/91/91 69/69/69 82/82/82
f 91/91/91 82/82/82 94/94/94
f 91/91/91 94/94/94 92/92/92
f 95/95/95 96/96/96 44/44/44
f 95/95/95 44/44/44 43/43/43
f 95/95/95 43/43/43 40/40/40
f 95/95/95 40/40/40 97/97/97
f 95/95/95 97/97/97 84/84/84
f 95/95/95 84/84/84 90/90/90
f 95/95/95 90/90/90 98/98/98
f 95/95/95 98/98/98 96/96/96
f 99/99/99 100/100/100 7/7/7
f 99/99/99 7/7/7 6/6/6
f 99/99/99 6/6/6 5/5/5
f 99/99/99 5/5/5 101/101/101
f 99/99/99 101/101/101 52/52/52
f 99/99/99 52/52/52 51/51/51
f 99/99/99 51/51/51 102/102/102
f 99/99/99 102/102/102 100/100/100
f 103/103/103 104/104/104 15/15/15
f 103/103/103 15/15/15 14/14/14
f 103/103/103 14/14/14 9/9/9
f 103/103/103 9/9/9 105/105/105
f 103/103/103 105/105/105 48/48/48
f 103/103/103 48/48/48 58/58/58
f 103/103/103 58/58/58 106/106/106
f 103/103/103 106/106/106 104/104/104
f 107/107/107 108/108/108 12/12/12
f 107/107/107 12/12/12 11/11/11
f 107/107/107 11/11/11 15/15/15
f 107/107/107 15/15/15 104/104/104
f 107/107/107 104/104/104 106/106/106
f 107/107/107 106/106/106 56/56/56
f 107/107/107 56/56/56 60/60/60
f 107/107/107 60/60/60 108/108/108
f 109/109/109 97/97/97 40/40/40
f 109/109/109 40/40/40 39/39/39
f 109/109/109 39/39/39 38/38/38
f 109/109/109 38/38/38 92/92/92
f 109/109/109 92/92/92 94/94/94
f 109/109/109 94/94/94 85/85/85
f 109/109/109 85/85/85 84/84/84
f 109/109/109 84/84/84 97/97/97
f 110/110/110 111/111/111 27/27/27
f 110/110/110 27/27/27 45/45/45
f 110/110/110 45/45/45 44/44/44
f 110/110/110 44/44/44 96/96/96
f 110/110/110 96/96/96 98/98/98
f 110/110/110 98/98/98 88/88/88
f 110/110/110 88/88/88 74/74/74
f 110/110/110 74/74/74 111/111/111
f 112/112/112 105/105/105 9/9/9
f 112/112/112 9/9/9 8/8/8
f 112/112/112 8/8/8 7/7/7
f 112/112/112 7/7/7 100/100/100
f 112/112/112 100/100/100 102/102/102
f 112/112/112 102/102/102 49/49/49
f 112/112/112 49/49/49 48/48/48
f 112/112/112 48/48/48 105/105/105
f 113/113/113 101/101/101 5/5/5
f 113/113/113 5/5/5 33/33/33
f 113/113/113 33/33/33 29/29/29
f 113/113/113 29/29/29 114/114/114
f 113/113/113 114/114/114 72/72/72
f 113/113/113 72/72/72 78/78/78
f 113/113/113 78/78/78 52/52/52
f 113/113/113 52/52/52 101/101/101
f 115/115/115 116/116/116 24/24/24
f 115/115/115 24/24/24 35/35/35
f 115/115/115 35/35/35 12/12/12
f 115/115/115 12/12/12 108/108/108
f 115/115/115 108/108/108 60/60/60
f 115/115/115 60/60/60 80/80/80
f 115/115/115 80/80/80 63/63/63
f 115/115/115 63/63/63 116/116/116
f 117/117/117 93/93/93 18/18/18
f 117/117/117 18/18/18 17/17/17
f 117/117/117 17/17/17 24/24/24
f 117/117/117 24/24/24 116/116/116
f 117/117/117 116/116/116 63/63/63
f 117/117/117 63/63/63 62/62/62
f 117/117/117 62/62/62 69/69/69
f 117/117/117 69/69/69 93/93/93
f 118/118/118 114/114/114 29/29/29
f 118/118/118 29/29/29 28/28/28
f 118/118/118 28/28/28 27/27/27
f 118/118/118 27/27/27 111/111/111
f 118/118/118 111/111/111 74/74/74
f 118/118/118 74/74/74 73/73/73
f 118/118/118 73/73/73 72/72/72
f 118/118/118 72/72/72 114/114/114
