v -2.413160 0.741609 -1.175277
v -2.410895 0.742417 -1.175606
v -2.411226 0.740362 -1.178079
v -2.413731 0.739622 -1.177396
v -2.415746 0.739132 -1.177118
v -2.415025 0.740937 -1.175437
v -2.414072 0.742021 -1.174416
v -2.412616 0.742954 -1.173743
v -2.410597 0.743844 -1.173737
v -2.409091 0.743115 -1.177075
v -2.407890 0.743579 -1.178589
v -2.407640 0.742133 -1.180699
v -2.409107 0.741334 -1.179439
v -2.409094 0.744258 -1.175299
v -2.408293 0.744161 -1.176969
v -2.409308 0.733736 -1.186121
v -2.407733 0.734480 -1.187072
v -2.407967 0.731442 -1.188764
v -2.409353 0.730779 -1.187910
v -2.411264 0.729958 -1.186884
v -2.411477 0.732812 -1.184973
v -2.411570 0.735537 -1.182899
v -2.409313 0.736518 -1.184115
v -2.407684 0.737316 -1.185136
v -2.413839 0.732059 -1.184119
v -2.413360 0.729296 -1.186139
v -2.414989 0.728842 -1.185661
v -2.415672 0.731540 -1.183565
v -2.415989 0.734241 -1.181466
v -2.414052 0.734764 -1.182021
v -2.414022 0.737313 -1.179712
v -2.411469 0.738061 -1.180555
v -2.416040 0.736836 -1.179223
v -2.409213 0.739093 -1.181837
v -2.407612 0.739957 -1.182946
v -2.409601 0.727680 -1.189536
v -2.408593 0.728198 -1.190218
v -2.409168 0.726237 -1.190816
v -2.409845 0.725288 -1.190673
v -2.410780 0.724832 -1.190083
v -2.411006 0.727049 -1.188738
v -2.412591 0.726573 -1.188215
v -2.411894 0.724530 -1.189768
v -2.412855 0.724872 -1.189187
v -2.413837 0.726257 -1.187901
v -2.413067 0.741427 -1.175126
v -2.410770 0.742245 -1.175468
v -2.410504 0.743713 -1.173636
v -2.412548 0.742815 -1.173632
v -2.414028 0.741918 -1.174331
v -2.414972 0.740797 -1.175318
v -2.415687 0.738998 -1.176994
v -2.413634 0.739448 -1.177239
v -2.411100 0.740197 -1.177933
v -2.408937 0.742956 -1.176951
v -2.407760 0.743467 -1.178504
v -2.408201 0.744075 -1.176906
v -2.408978 0.744137 -1.175210
v -2.408955 0.741181 -1.179306
v -2.407513 0.742025 -1.180606
v -2.409162 0.733614 -1.185952
v -2.407614 0.734392 -1.186950
v -2.407564 0.737221 -1.185021
v -2.409165 0.736386 -1.183956
v -2.411443 0.735396 -1.182730
v -2.411350 0.732682 -1.184794
v -2.411138 0.729836 -1.186699
v -2.409207 0.730665 -1.187734
v -2.407848 0.731361 -1.188637
v -2.413732 0.731922 -1.183932
v -2.413947 0.734615 -1.181843
v -2.415920 0.734127 -1.181329
v -2.415602 0.731435 -1.183421
v -2.414919 0.728743 -1.185513
v -2.413253 0.729167 -1.185946
v -2.413920 0.737151 -1.179545
v -2.411342 0.737907 -1.180398
v -2.415976 0.736712 -1.179093
v -2.409064 0.738949 -1.181691
v -2.407489 0.739854 -1.182842
v -2.409454 0.727570 -1.189359
v -2.408473 0.728120 -1.190091
v -2.410880 0.726931 -1.188550
v -2.410685 0.724744 -1.189942
v -2.409734 0.725207 -1.190541
v -2.409081 0.726178 -1.190720
v -2.412486 0.726447 -1.188019
v -2.413769 0.726159 -1.187751
v -2.412802 0.724801 -1.189076
v -2.411816 0.724436 -1.189621
v -2.408201 0.728337 -1.190390
v -2.409110 0.725665 -1.191174
v -2.407450 0.731628 -1.188993
v -2.409081 0.726178 -1.190720
v -2.411627 0.723807 -1.190220
v -2.412804 0.724297 -1.189542
v -2.410662 0.724054 -1.190469
v -2.412802 0.724801 -1.189076
v -2.415627 0.740650 -1.175436
v -2.414318 0.742057 -1.174231
v -2.416395 0.738908 -1.176969
v -2.414028 0.741918 -1.174331
v -2.409043 0.744585 -1.174668
v -2.408067 0.744372 -1.176993
v -2.410457 0.744261 -1.173070
v -2.408201 0.744075 -1.176906
v -2.407428 0.743686 -1.179058
v -2.407092 0.742353 -1.181079
v -2.409877 0.724455 -1.190994
v -2.414224 0.726108 -1.187729
v -2.415503 0.728646 -1.185435
v -2.412405 0.743340 -1.173183
v -2.416687 0.736621 -1.179000
v -2.416606 0.734016 -1.181219
v -2.407022 0.740200 -1.183271
v -2.407086 0.737541 -1.185426
v -2.407153 0.734690 -1.187336
v -2.416255 0.731320 -1.183315
vn -0.289900 0.752800 -0.590900
vn -0.486800 0.713500 -0.504000
vn -0.492600 0.674900 -0.549400
vn -0.317300 0.709300 -0.629500
vn -0.327800 0.690200 -0.645000
vn -0.297600 0.751200 -0.589200
vn -0.275600 0.790900 -0.546400
vn -0.316700 0.801800 -0.506800
vn -0.474300 0.768500 -0.429400
vn -0.665100 0.613800 -0.425200
vn -0.659000 0.617500 -0.429400
vn -0.647100 0.572000 -0.504000
vn -0.652700 0.585000 -0.481300
vn -0.623200 0.688200 -0.371400
vn -0.663900 0.647100 -0.374800
vn -0.588700 0.448500 -0.672500
vn -0.557900 0.455100 -0.694000
vn -0.553600 0.429500 -0.713500
vn -0.593300 0.418300 -0.687700
vn -0.495000 0.450400 -0.743000
vn -0.497400 0.485500 -0.718900
vn -0.499400 0.553300 -0.666600
vn -0.601300 0.504000 -0.620000
vn -0.579100 0.500800 -0.643300
vn -0.400300 0.518200 -0.755800
vn -0.391300 0.493000 -0.777000
vn -0.434400 0.473600 -0.766100
vn -0.433600 0.501100 -0.748800
vn -0.414800 0.561600 -0.715900
vn -0.390000 0.582200 -0.713400
vn -0.358900 0.653900 -0.666000
vn -0.497400 0.623400 -0.603300
vn -0.375400 0.630700 -0.679100
vn -0.625300 0.555300 -0.548300
vn -0.612900 0.542800 -0.574200
vn -0.612900 0.396700 -0.683300
vn -0.570700 0.405400 -0.714100
vn -0.595200 0.379400 -0.708400
vn -0.625200 0.340200 -0.702400
vn -0.488500 0.385200 -0.782900
vn -0.493600 0.433600 -0.753900
vn -0.366600 0.487900 -0.792200
vn -0.341500 0.445100 -0.827800
vn -0.382200 0.458400 -0.802300
vn -0.412800 0.464000 -0.783800
vn 0.265400 -0.741800 0.615800
vn 0.488600 -0.703100 0.516600
vn 0.494200 -0.661200 0.564400
vn 0.188800 -0.705300 0.683300
vn 0.073700 -0.689800 0.720200
vn 0.097600 -0.697000 0.710400
vn 0.167600 -0.693300 0.700900
vn 0.302900 -0.710900 0.634700
vn 0.492600 -0.674900 0.549300
vn 0.687700 -0.585400 0.429200
vn 0.809600 -0.433500 0.395800
vn 0.824200 -0.411900 0.388600
vn 0.750600 -0.497200 0.435100
vn 0.664300 -0.577100 0.475000
vn 0.766200 -0.471700 0.436400
vn 0.601700 -0.443400 0.664300
vn 0.688000 -0.405900 0.601500
vn 0.697700 -0.443100 0.562900
vn 0.613300 -0.498400 0.612800
vn 0.499400 -0.553200 0.666700
vn 0.497400 -0.485300 0.719000
vn 0.495000 -0.450300 0.743100
vn 0.608500 -0.414000 0.676900
vn 0.705800 -0.393400 0.589100
vn 0.385500 -0.523500 0.759800
vn 0.376100 -0.586200 0.717500
vn 0.270100 -0.601400 0.751900
vn 0.279800 -0.557100 0.781900
vn 0.255500 -0.560100 0.788000
vn 0.374100 -0.500800 0.780500
vn 0.345200 -0.657000 0.670200
vn 0.497400 -0.623300 0.603300
vn 0.229700 -0.657100 0.717900
vn 0.636600 -0.549100 0.541500
vn 0.726300 -0.473200 0.498500
vn 0.634100 -0.403300 0.659700
vn 0.744400 -0.397200 0.536700
vn 0.494500 -0.443800 0.747300
vn 0.497500 -0.488000 0.717100
vn 0.691400 -0.431200 0.579700
vn 0.765700 -0.403600 0.500700
vn 0.343900 -0.510800 0.787900
vn 0.203700 -0.597400 0.775600
vn 0.172600 -0.623200 0.762800
vn 0.277600 -0.584500 0.762400
vn 0.709300 0.074300 -0.701000
vn 0.513600 -0.271300 -0.814000
vn 0.764500 0.192500 -0.615200
vn 0.765700 -0.403600 0.500700
vn -0.157200 -0.869700 -0.467800
vn -0.646500 -0.700700 -0.301500
vn 0.127300 -0.882700 -0.452400
vn 0.172600 -0.623200 0.762800
vn -0.902500 0.146200 0.405200
vn -0.732000 0.356200 0.580800
vn -0.953800 -0.028600 0.298900
vn 0.073700 -0.689800 0.720200
vn 0.480500 0.759100 0.439100
vn 0.554200 0.832300 0.012700
vn 0.144800 0.572000 0.807300
vn 0.824200 -0.411900 0.388600
vn 0.640100 0.716900 -0.276200
vn 0.692300 0.580600 -0.428500
vn 0.252400 -0.717800 -0.648800
vn -0.861700 -0.507300 -0.007200
vn -0.898300 -0.422800 0.119400
vn -0.371400 0.443600 0.815600
vn -0.956800 -0.164300 0.239700
vn -0.944500 -0.247300 0.216400
vn 0.729700 0.459900 -0.505800
vn 0.754300 0.381300 -0.534500
vn 0.773100 0.300700 -0.558500
vn -0.925100 -0.327300 0.192200
vt 0.839504 0.118056
vt 0.856743 0.205307
vt 0.741230 0.205307
vt 0.734555 0.106726
vt 0.724541 0.032791
vt 0.813647 0.052618
vt 0.868992 0.081539
vt 0.913398 0.129584
vt 0.940923 0.205307
vt 0.839504 0.292557
vt 0.813647 0.357995
vt 0.724541 0.377822
vt 0.734555 0.303887
vt 0.913398 0.281029
vt 0.868992 0.329074
vt 0.369475 0.299954
vt 0.368286 0.370940
vt 0.245840 0.351447
vt 0.246397 0.288815
vt 0.246768 0.205307
vt 0.370268 0.205307
vt 0.494283 0.205307
vt 0.492822 0.304944
vt 0.490632 0.379672
vt 0.369475 0.110659
vt 0.246397 0.121798
vt 0.245841 0.059166
vt 0.368286 0.039673
vt 0.490632 0.030941
vt 0.492822 0.105669
vt 0.616755 0.103478
vt 0.619174 0.205307
vt 0.613127 0.027106
vt 0.616755 0.307135
vt 0.613126 0.383507
vt 0.123273 0.268175
vt 0.123047 0.315326
vt 0.054743 0.283353
vt 0.030912 0.249131
vt 0.030973 0.205306
vt 0.123423 0.205306
vt 0.123273 0.142438
vt 0.030912 0.161481
vt 0.054744 0.127260
vt 0.123047 0.095287
vt 0.839504 0.118056
vt 0.856743 0.205307
vt 0.968983 0.205307
vt 0.938030 0.133427
vt 0.876123 0.061548
vt 0.805028 0.030806
vt 0.721203 0.008146
vt 0.734555 0.106726
vt 0.741230 0.205307
vt 0.839504 0.292557
vt 0.805028 0.379807
vt 0.876123 0.349065
vt 0.938030 0.277186
vt 0.734555 0.303887
vt 0.721203 0.402467
vt 0.369475 0.299954
vt 0.367890 0.394602
vt 0.489902 0.404581
vt 0.492822 0.304944
vt 0.494283 0.205307
vt 0.370268 0.205307
vt 0.246768 0.205307
vt 0.246397 0.288815
vt 0.245655 0.372324
vt 0.369475 0.110659
vt 0.492822 0.105669
vt 0.489902 0.006032
vt 0.367890 0.016011
vt 0.245655 0.038289
vt 0.246397 0.121798
vt 0.616755 0.103478
vt 0.619174 0.205307
vt 0.611917 0.001649
vt 0.616755 0.307135
vt 0.611917 0.408964
vt 0.123273 0.268175
vt 0.122972 0.331043
vt 0.123423 0.205306
vt 0.000156 0.205306
vt 0.000125 0.242784
vt 0.000064 0.280261
vt 0.123273 0.142438
vt 0.122972 0.079570
vt 0.000064 0.130352
vt 0.000125 0.167829
vt 0.122972 0.331043
vt 0.030806 0.283587
vt 0.245655 0.372324
vt 0.030806 0.283587
vt 0.000125 0.167829
vt 0.030806 0.127026
vt 0.000156 0.205306
vt 0.030806 0.127026
vt 0.805028 0.030806
vt 0.873826 0.071832
vt 0.721203 0.008146
vt 0.873826 0.071832
vt 0.938030 0.277186
vt 0.873826 0.338781
vt 0.968983 0.205307
vt 0.873826 0.338781
vt 0.805028 0.379807
vt 0.721203 0.402467
vt 0.000125 0.242784
vt 0.122972 0.079570
vt 0.245655 0.038289
vt 0.938030 0.133427
vt 0.611917 0.001649
vt 0.489902 0.006032
vt 0.611917 0.408964
vt 0.489902 0.404581
vt 0.367890 0.394602
vt 0.367890 0.016011
f 1/1/1 2/2/2 3/3/3
f 1/1/1 3/3/3 4/4/4
f 1/1/1 4/4/4 5/5/5
f 1/1/1 5/5/5 6/6/6
f 1/1/1 6/6/6 7/7/7
f 1/1/1 7/7/7 8/8/8
f 1/1/1 8/8/8 9/9/9
f 1/1/1 9/9/9 2/2/2
f 10/10/10 11/11/11 12/12/12
f 10/10/10 12/12/12 13/13/13
f 10/10/10 13/13/13 3/3/3
f 10/10/10 3/3/3 2/2/2
f 10/10/10 2/2/2 9/9/9
f 10/10/10 9/9/9 14/14/14
f 10/10/10 14/14/14 15/15/15
f 10/10/10 15/15/15 11/11/11
f 16/16/16 17/17/17 18/18/18
f 16/16/16 18/18/18 19/19/19
f 16/16/16 19/19/19 20/20/20
f 16/16/16 20/20/20 21/21/21
f 16/16/16 21/21/21 22/22/22
f 16/16/16 22/22/22 23/23/23
f 16/16/16 23/23/23 24/24/24
f 16/16/16 24/24/24 17/17/17
f 25/25/25 21/21/21 20/20/20
f 25/25/25 20/20/20 26/26/26
f 25/25/25 26/26/26 27/27/27
f 25/25/25 27/27/27 28/28/28
f 25/25/25 28/28/28 29/29/29
f 25/25/25 29/29/29 30/30/30
f 25/25/25 30/30/30 22/22/22
f 25/25/25 22/22/22 21/21/21
f 31/31/31 32/32/32 22/22/22
f 31/31/31 22/22/22 30/30/30
f 31/31/31 30/30/30 29/29/29
f 31/31/31 29/29/29 33/33/33
f 31/31/31 33/33/33 5/5/5
f 31/31/31 5/5/5 4/4/4
f 31/31/31 4/4/4 3/3/3
f 31/31/31 3/3/3 32/32/32
f 34/34/34 35/35/35 24/24/24
f 34/34/34 24/24/24 23/23/23
f 34/34/34 23/23/23 22/22/22
f 34/34/34 22/22/22 32/32/32
f 34/34/34 32/32/32 3/3/3
f 34/34/34 3/3/3 13/13/13
f 34/34/34 13/13/13 12/12/12
f 34/34/34 12/12/12 35/35/35
f 36/36/36 37/37/37 38/38/38
f 36/36/36 38/38/38 39/39/39
f 36/36/36 39/39/39 40/40/40
f 36/36/36 40/40/40 41/41/41
f 36/36/36 41/41/41 20/20/20
f 36/36/36 20/20/20 19/19/19
f 36/36/36 19/19/19 18/18/18
f 36/36/36 18/18/18 37/37/37
f 42/42/42 41/41/41 40/40/40
f 42/42/42 40/40/40 43/43/43
f 42/42/42 43/43/43 44/44/44
f 42/42/42 44/44/44 45/45/45
f 42/42/42 45/45/45 27/27/27
f 42/42/42 27/27/27 26/26/26
f 42/42/42 26/26/26 20/20/20
f 42/42/42 20/20/20 41/41/41
f 46/46/46 47/47/47 48/48/48
f 46/46/46 48/48/48 49/49/49
f 46/46/46 49/49/49 50/50/50
f 46/46/46 50/50/50 51/51/51
f 46/46/46 51/51/51 52/52/52
f 46/46/46 52/52/52 53/53/53
f 46/46/46 53/53/53 54/54/54
f 46/46/46 54/54/54 47/47/47
f 55/55/55 56/56/56 57/57/57
f 55/55/55 57/57/57 58/58/58
f 55/55/55 58/58/58 48/48/48
f 55/55/55 48/48/48 47/47/47
f 55/55/55 47/47/47 54/54/54
f 55/55/55 54/54/54 59/59/59
f 55/55/55 59/59/59 60/60/60
f 55/55/55 60/60/60 56/56/56
f 61/61/61 62/62/62 63/63/63
f 61/61/61 63/63/63 64/64/64
f 61/61/61 64/64/64 65/65/65
f 61/61/61 65/65/65 66/66/66
f 61/61/61 66/66/66 67/67/67
f 61/61/61 67/67/67 68/68/68
f 61/61/61 68/68/68 69/69/69
f 61/61/61 69/69/69 62/62/62
f 70/70/70 66/66/66 65/65/65
f 70/70/70 65/65/65 71/71/71
f 70/70/70 71/71/71 72/72/72
f 70/70/70 72/72/72 73/73/73
f 70/70/70 73/73/73 74/74/74
f 70/70/70 74/74/74 75/75/75
f 70/70/70 75/75/75 67/67/67
f 70/70/70 67/67/67 66/66/66
f 76/76/76 77/77/77 54/54/54
f 76/76/76 54/54/54 53/53/53
f 76/76/76 53/53/53 52/52/52
f 76/76/76 52/52/52 78/78/78
f 76/76/76 78/78/78 72/72/72
f 76/76/76 72/72/72 71/71/71
f 76/76/76 71/71/71 65/65/65
f 76/76/76 65/65/65 77/77/77
f 79/79/79 80/80/80 60/60/60
f 79/79/79 60/60/60 59/59/59
f 79/79/79 59/59/59 54/54/54
f 79/79/79 54/54/54 77/77/77
f 79/79/79 77/77/77 65/65/65
f 79/79/79 65/65/65 64/64/64
f 79/79/79 64/64/64 63/63/63
f 79/79/79 63/63/63 80/80/80
f 81/81/81 82/82/82 69/69/69
f 81/81/81 69/69/69 68/68/68
f 81/81/81 68/68/68 67/67/67
f 81/81/81 67/67/67 83/83/83
f 81/81/81 83/83/83 84/84/84
f 81/81/81 84/84/84 85/85/85
f 81/81/81 85/85/85 86/86/86
f 81/81/81 86/86/86 82/82/82
f 87/87/87 83/83/83 67/67/67
f 87/87/87 67/67/67 75/75/75
f 87/87/87 75/75/75 74/74/74
f 87/87/87 74/74/74 88/88/88
f 87/87/87 88/88/88 89/89/89
f 87/87/87 89/89/89 90/90/90
f 87/87/87 90/90/90 84/84/84
f 87/87/87 84/84/84 83/83/83
f 91/91/91 92/92/92 38/38/38
f 91/91/91 38/38/38 37/37/37
f 91/91/91 37/37/37 18/18/18
f 91/91/91 18/18/18 93/93/93
f 91/91/91 93/93/93 69/69/69
f 91/91/91 69/69/69 82/82/82
f 91/91/91 82/82/82 94/94/94
f 91/91/91 94/94/94 92/92/92
f 95/95/95 96/96/96 44/44/44
f 95/95/95 44/44/44 43/43/43
f 95/95/95 43/43/43 40/40/40
f 95/95/95 40/40/40 97/97/97
f 95/95/95 97/97/97 84/84/84
f 95/95/95 84/84/84 90/90/90
f 95/95/95 90/90/90 98/98/98
f 95/95/95 98/98/98 96/96/96
f 99/99/99 100/100/100 7/7/7
f 99/99/99 7/7/7 6/6/6
f 99/99/99 6/6/6 5/5/5
f 99/99/99 5/5/5 101/101/101
f 99/99/99 101/101/101 52/52/52
f 99/99/99 52/52/52 51/51/51
f 99/99/99 51/51/51 102/102/102
f 99/99/99 102/102/102 100/100/100
f 103/103/103 104/104/104 15/15/15
f 103/103/103 15/15/15 14/14/14
f 103/103/103 14/14/14 9/9/9
f 103/103/103 9/9/9 105/105/105
f 103/103/103 105/105/105 48/48/48
f 103/103/103 48/48/48 58/58/58
f 103/103/103 58/58/58 106/106/106
f 103/103/103 106/106/106 104/104/104
f 107/107/107 108/108/108 12/12/12
f 107/107/107 12/12/12 11/11/11
f 107/107/107 11/11/11 15/15/15
f 107/107/107 15/15/15 104/104/104
f 107/107/107 104/104/104 106/106/106
f 107/107/107 106/106/106 56/56/56
f 107/107/107 56/56/56 60/60/60
f 107/107/107 60/60/60 108/108/108
f 109/109/109 97/97/97 40/40/40
f 109/109/109 40/40/40 39/39/39
f 109/109/109 39/39/39 38/38/38
f 109/109/109 38/38/38 92/92/92
f 109/109/109 92/92/92 94/94/94
f 109/109/109 94/94/94 85/85/85
f 109/109/109 85/85/85 84/84/84
f 109/109/109 84/84/84 97/97/97
f 110/110/110 111/111/111 27/27/27
f 110/110/110 27/27/27 45/45/45
f 110/110/110 45/45/45 44/44/44
f 110/110/110 44/44/44 96/96/96
f 110/110/110 96/96/96 98/98/98
f 110/110/110 98/98/98 88/88/88
f 110/110/110 88/88/88 74/74/74
f 110/110/110 74/74/74 111/111/111
f 112/112/112 105/105/105 9/9/9
f 112/112/112 9/9/9 8/8/8
f 112/112/112 8/8/8 7/7/7
f 112/112/112 7/7/7 100/100/100
f 112/112/112 100/100/100 102/102/102
f 112/112/112 102/102/102 49/49/49
f 112/112/112 49/49/49 48/48/48
f 112/112/112 48/48/48 105/105/105
f 113/113/113 101/101/101 5/5/5
f 113/113/113 5/5/5 33/33/33
f 113/113/113 33/33/33 29/29/29
f 113/113/113 29/29/29 114/114/114
f 113/113/113 114/114/114 72/72/72
f 113/113/113 72/72/72 78/78/78
f 113/113/113 78/78/78 52/52/52
f 113/113/113 52/52/52 101/101/101
f 115/115/115 116/116/116 24/24/24
f 115/115/115 24/24/24 35/35/35
f 115/115/115 35/35/35 12/12/12
f 115/115/115 12/12/12 108/108/108
f 115/115/115 108/108/108 60/60/60
f 115/115/115 60/60/60 80/80/80
f 115/115/115 80/80/80 63/63/63
f 115/115/115 63/63/63 116/116/116
f 117/117/117 93/93/93 18/18/18
f 117/117/117 18/18/18 17/17/17
f 117/117/117 17/17/17 24/24/24
f 117/117/117 24/24/24 116/116/116
f 117/117/117 116/116/116 63/63/63
f 117/117/117 63/63/63 62/62/62
f 117/117/117 62/62/62 69/69/69
f 117/117/117 69/69/69 93/93/93
f 118/118/118 114/114/114 29/29/29
f 118/118/118 29/29/29 28/28/28
f 118/118/118 28/28/28 27/27/27
f 118/118/118 27/27/27 111/111/111
f 118/118/118 111/111/111 74/74/74
f 118/118/118 74/74/74 73/73/73
f 118/118/118 73/73/73 72/72/72
f 118/118/118 72/72/72 114/114/114
