v -2.394800 0.798691 -1.219396
v -2.393095 0.798718 -1.220479
v -2.394403 0.796637 -1.221568
v -2.396166 0.796801 -1.220187
v -2.397659 0.796949 -1.219305
v -2.396345 0.798563 -1.218818
v -2.395159 0.799417 -1.218655
v -2.393724 0.799959 -1.218831
v -2.392087 0.800184 -1.219628
v -2.392123 0.798495 -1.222235
v -2.391650 0.798219 -1.223796
v -2.392326 0.796558 -1.224959
v -2.393124 0.796578 -1.223413
v -2.391407 0.799789 -1.221287
v -2.391356 0.799139 -1.222686
v -2.396387 0.789234 -1.225921
v -2.395414 0.789220 -1.227254
v -2.396516 0.786551 -1.227503
v -2.397368 0.786561 -1.226315
v -2.398581 0.786609 -1.224815
v -2.397768 0.789291 -1.224233
v -2.396827 0.791886 -1.223525
v -2.395395 0.791837 -1.225303
v -2.394397 0.791836 -1.226717
v -2.399369 0.789453 -1.222760
v -2.400005 0.786754 -1.223520
v -2.401137 0.786890 -1.222605
v -2.400638 0.789604 -1.221716
v -2.399861 0.792237 -1.220924
v -2.398513 0.792066 -1.221997
v -2.397425 0.794554 -1.221096
v -2.395676 0.794347 -1.222610
v -2.398850 0.794763 -1.220063
v -2.394261 0.794322 -1.224451
v -2.393304 0.794356 -1.225943
v -2.398468 0.783863 -1.226494
v -2.397864 0.783869 -1.227413
v -2.398735 0.782359 -1.227102
v -2.399318 0.781821 -1.226532
v -2.399889 0.781823 -1.225717
v -2.399348 0.783888 -1.225350
v -2.400435 0.784007 -1.224408
v -2.400666 0.781919 -1.225102
v -2.401161 0.782537 -1.224530
v -2.401314 0.784122 -1.223755
v -2.394703 0.798567 -1.219256
v -2.392977 0.798591 -1.220358
v -2.391999 0.800086 -1.219540
v -2.393654 0.799864 -1.218726
v -2.395111 0.799349 -1.218572
v -2.396283 0.798472 -1.218703
v -2.397591 0.796863 -1.219190
v -2.396063 0.796683 -1.220045
v -2.394281 0.796517 -1.221445
v -2.391986 0.798368 -1.222137
v -2.391538 0.798124 -1.223734
v -2.391276 0.799067 -1.222638
v -2.391305 0.799692 -1.221217
v -2.392984 0.796457 -1.223309
v -2.392213 0.796468 -1.224892
v -2.396237 0.789148 -1.225799
v -2.395295 0.789155 -1.227170
v -2.394280 0.791763 -1.226637
v -2.395248 0.791740 -1.225185
v -2.396693 0.791790 -1.223392
v -2.397629 0.789205 -1.224097
v -2.398440 0.786531 -1.224676
v -2.397215 0.786482 -1.226191
v -2.396395 0.786492 -1.227417
v -2.399244 0.789369 -1.222611
v -2.398394 0.791970 -1.221850
v -2.399779 0.792167 -1.220807
v -2.400551 0.789541 -1.221598
v -2.401048 0.786833 -1.222485
v -2.399877 0.786677 -1.223368
v -2.397313 0.794447 -1.220952
v -2.395548 0.794238 -1.222482
v -2.398774 0.794684 -1.219948
v -2.394118 0.794212 -1.224340
v -2.393190 0.794274 -1.225868
v -2.398313 0.783787 -1.226370
v -2.397741 0.783812 -1.227328
v -2.399207 0.783813 -1.225211
v -2.399782 0.781767 -1.225613
v -2.399201 0.781764 -1.226440
v -2.398646 0.782317 -1.227037
v -2.400308 0.783933 -1.224254
v -2.401226 0.784068 -1.223634
v -2.401094 0.782496 -1.224442
v -2.400571 0.781865 -1.224987
v -2.397606 0.783846 -1.227684
v -2.398878 0.781823 -1.227205
v -2.396177 0.786521 -1.227863
v -2.398646 0.782317 -1.227037
v -2.400701 0.781199 -1.225283
v -2.401309 0.782001 -1.224628
v -2.400022 0.781110 -1.225793
v -2.401094 0.782496 -1.224442
v -2.396835 0.798481 -1.218572
v -2.395280 0.799545 -1.218465
v -2.398129 0.796961 -1.218957
v -2.395111 0.799349 -1.218572
v -2.391123 0.800177 -1.220941
v -2.391166 0.799243 -1.222827
v -2.391712 0.800628 -1.219306
v -2.391276 0.799067 -1.222638
v -2.391440 0.798085 -1.224291
v -2.392008 0.796512 -1.225447
v -2.399549 0.781115 -1.226504
v -2.401569 0.784137 -1.223482
v -2.401476 0.786910 -1.222245
v -2.393335 0.800339 -1.218595
v -2.399293 0.794798 -1.219666
v -2.400275 0.792263 -1.220513
v -2.392933 0.794331 -1.226409
v -2.394011 0.791803 -1.227155
v -2.395036 0.789187 -1.227663
v -2.401024 0.789626 -1.221314
vn -0.382100 0.603000 -0.700200
vn -0.533000 0.645300 -0.547300
vn -0.561700 0.598500 -0.571200
vn -0.428600 0.559500 -0.709400
vn -0.447200 0.540400 -0.712700
vn -0.388800 0.604200 -0.695500
vn -0.346100 0.646800 -0.679600
vn -0.366300 0.679300 -0.635900
vn -0.484200 0.713700 -0.506100
vn -0.678900 0.624800 -0.385500
vn -0.674600 0.625100 -0.392400
vn -0.699600 0.559000 -0.445100
vn -0.693900 0.579000 -0.428100
vn -0.608700 0.697000 -0.378900
vn -0.653200 0.669300 -0.354000
vn -0.730700 0.381600 -0.566000
vn -0.710100 0.373200 -0.597000
vn -0.717600 0.343000 -0.606000
vn -0.745400 0.350700 -0.566900
vn -0.672900 0.337800 -0.658000
vn -0.660400 0.377600 -0.649000
vn -0.631800 0.455300 -0.627300
vn -0.713400 0.451000 -0.536200
vn -0.702900 0.435300 -0.562500
vn -0.581700 0.370700 -0.724000
vn -0.585600 0.339000 -0.736300
vn -0.623500 0.336100 -0.705900
vn -0.611900 0.366000 -0.701200
vn -0.572900 0.425800 -0.700300
vn -0.546300 0.438700 -0.713500
vn -0.488900 0.509600 -0.708000
vn -0.594700 0.537100 -0.598100
vn -0.512500 0.489000 -0.705800
vn -0.699600 0.525100 -0.484600
vn -0.700300 0.502800 -0.506700
vn -0.764600 0.337500 -0.548900
vn -0.737100 0.325400 -0.592200
vn -0.761000 0.309800 -0.569900
vn -0.791800 0.283500 -0.541000
vn -0.692300 0.264800 -0.671300
vn -0.678400 0.318900 -0.661900
vn -0.569800 0.323300 -0.755500
vn -0.567300 0.267100 -0.779000
vn -0.592700 0.297400 -0.748500
vn -0.612300 0.316200 -0.724600
vn 0.371300 -0.579100 0.725800
vn 0.541000 -0.632600 0.554100
vn 0.571100 -0.582100 0.578800
vn 0.333500 -0.505600 0.795600
vn 0.245600 -0.449400 0.858900
vn 0.262400 -0.465300 0.845300
vn 0.322900 -0.483700 0.813400
vn 0.417300 -0.555700 0.719100
vn 0.561600 -0.598600 0.571200
vn 0.705300 -0.603700 0.371600
vn 0.825700 -0.506500 0.248100
vn 0.839200 -0.493000 0.229500
vn 0.777700 -0.538300 0.324600
vn 0.703100 -0.576600 0.416100
vn 0.796300 -0.518500 0.311500
vn 0.740100 -0.382900 0.552800
vn 0.799600 -0.389800 0.456900
vn 0.787800 -0.437500 0.433500
vn 0.722300 -0.451200 0.524100
vn 0.631800 -0.455100 0.627400
vn 0.660500 -0.377400 0.649100
vn 0.673000 -0.337700 0.658100
vn 0.755600 -0.354100 0.551000
vn 0.812800 -0.386600 0.435800
vn 0.569000 -0.370300 0.734200
vn 0.534700 -0.437400 0.723000
vn 0.449500 -0.412700 0.792200
vn 0.476700 -0.366100 0.799200
vn 0.456700 -0.360500 0.813300
vn 0.570200 -0.340500 0.747600
vn 0.477600 -0.507500 0.717100
vn 0.594700 -0.537100 0.598100
vn 0.391400 -0.462400 0.795600
vn 0.708200 -0.524400 0.472700
vn 0.784200 -0.491300 0.379100
vn 0.773700 -0.356200 0.523900
vn 0.826800 -0.415700 0.379000
vn 0.675100 -0.330400 0.659600
vn 0.659400 -0.380400 0.648400
vn 0.790400 -0.420100 0.445700
vn 0.831200 -0.437600 0.342900
vn 0.544100 -0.339400 0.767300
vn 0.399200 -0.384300 0.832400
vn 0.362200 -0.403100 0.840400
vn 0.463000 -0.396100 0.792900
vn 0.381300 -0.324400 -0.865600
vn 0.108200 -0.620700 -0.776500
vn 0.483100 -0.206000 -0.851000
vn 0.831200 -0.437600 0.342900
vn -0.455700 -0.889100 -0.041800
vn -0.809500 -0.553200 0.196700
vn -0.192800 -0.974600 -0.113700
vn 0.362200 -0.403100 0.840400
vn -0.640400 0.494900 0.587300
vn -0.385000 0.692000 0.610600
vn -0.754300 0.318200 0.574200
vn 0.245600 -0.449400 0.858900
vn 0.721100 0.691300 -0.044700
vn 0.632100 0.617300 -0.468300
vn 0.532100 0.715800 0.452200
vn 0.839200 -0.493000 0.229500
vn 0.579900 0.405700 -0.706400
vn 0.547900 0.222800 -0.806300
vn -0.131000 -0.913100 -0.386000
vn -0.861000 -0.233500 0.451900
vn -0.832200 -0.110000 0.543300
vn 0.047200 0.740700 0.670100
vn -0.800100 0.178100 0.572800
vn -0.810400 0.091500 0.578700
vn 0.533800 0.079900 -0.841800
vn 0.533000 -0.007200 -0.846000
vn 0.528900 -0.093200 -0.843500
vn -0.814300 0.005000 0.580400
vt 0.839504 0.118056
vt 0.856743 0.205307
vt 0.741230 0.205307
vt 0.734555 0.106726
vt 0.724541 0.032791
vt 0.813647 0.052618
vt 0.868992 0.081539
vt 0.913398 0.129584
vt 0.940923 0.205307
vt 0.839504 0.292557
vt 0.813647 0.357995
vt 0.724541 0.377822
vt 0.734555 0.303887
vt 0.913398 0.281029
vt 0.868992 0.329074
vt 0.369475 0.299954
vt 0.368286 0.370940
vt 0.245840 0.351447
vt 0.246397 0.288815
vt 0.246768 0.205307
vt 0.370268 0.205307
vt 0.494283 0.205307
vt 0.492822 0.304944
vt 0.490632 0.379672
vt 0.369475 0.110659
vt 0.246397 0.121798
vt 0.245841 0.059166
vt 0.368286 0.039673
vt 0.490632 0.030941
vt 0.492822 0.105669
vt 0.616755 0.103478
vt 0.619174 0.205307
vt 0.613127 0.027106
vt 0.616755 0.307135
vt 0.613126 0.383507
vt 0.123273 0.268175
vt 0.123047 0.315326
vt 0.054743 0.283353
vt 0.030912 0.249131
vt 0.030973 0.205306
vt 0.123423 0.205306
vt 0.123273 0.142438
vt 0.030912 0.161481
vt 0.054744 0.127260
vt 0.123047 0.095287
vt 0.839504 0.118056
vt 0.856743 0.205307
vt 0.968983 0.205307
vt 0.938030 0.133427
vt 0.876123 0.061548
vt 0.805028 0.030806
vt 0.721203 0.008146
vt 0.734555 0.106726
vt 0.741230 0.205307
vt 0.839504 0.292557
vt 0.805028 0.379807
vt 0.876123 0.349065
vt 0.938030 0.277186
vt 0.734555 0.303887
vt 0.721203 0.402467
vt 0.369475 0.299954
vt 0.367890 0.394602
vt 0.489902 0.404581
vt 0.492822 0.304944
vt 0.494283 0.205307
vt 0.370268 0.205307
vt 0.246768 0.205307
vt 0.246397 0.288815
vt 0.245655 0.372324
vt 0.369475 0.110659
vt 0.492822 0.105669
vt 0.489902 0.006032
vt 0.367890 0.016011
vt 0.245655 0.038289
vt 0.246397 0.121798
vt 0.616755 0.103478
vt 0.619174 0.205307
vt 0.611917 0.001649
vt 0.616755 0.307135
vt 0.611917 0.408964
vt 0.123273 0.268175
vt 0.122972 0.331043
vt 0.123423 0.205306
vt 0.000156 0.205306
vt 0.000125 0.242784
vt 0.000064 0.280261
vt 0.123273 0.142438
vt 0.122972 0.079570
vt 0.000064 0.130352
vt 0.000125 0.167829
vt 0.122972 0.331043
vt 0.030806 0.283587
vt 0.245655 0.372324
vt 0.030806 0.283587
vt 0.000125 0.167829
vt 0.030806 0.127026
vt 0.000156 0.205306
vt 0.030806 0.127026
vt 0.805028 0.030806
vt 0.873826 0.071832
vt 0.721203 0.008146
vt 0.873826 0.071832
vt 0.938030 0.277186
vt 0.873826 0.338781
vt 0.968983 0.205307
vt 0.873826 0.338781
vt 0.805028 0.379807
vt 0.721203 0.402467
vt 0.000125 0.242784
vt 0.122972 0.079570
vt 0.245655 0.038289
vt 0.938030 0.133427
vt 0.611917 0.001649
vt 0.489902 0.006032
vt 0.611917 0.408964
vt 0.489902 0.404581
vt 0.367890 0.394602
vt 0.367890 0.016011
f 1/1/1 2/2/2 3/3/3
f 1/1/1 3/3/3 4/4/4
f 1/1/1 4/4/4 5/5/5
f 1/1/1 5/5/5 6/6/6
f 1/1/1 6/6/6 7/7/7
f 1/1/1 7/7/7 8/8/8
f 1/1/1 8/8/8 9/9/9
f 1/1/1 9/9/9 2/2/2
f 10/10/10 11/11/11 12/12/12
f 10/10/10 12/12/12 13/13/13
f 10/10/10 13/13/13 3/3/3
f 10/10/10 3/3/3 2/2/2
f 10/10/10 2/2/2 9/9/9
f 10/10/10 9/9/9 14/14/14
f 10/10/10 14/14/14 15/15/15
f 10/10/10 15/15/15 11/11/11
f 16/16/16 17/17/17 18/18/18
f 16/16/16 18/18/18 19/19/19
f 16/16/16 19/19/19 20/20/20
f 16/16/16 20/20/20 21/21/21
f 16/16/16 21/21/21 22/22/22
f 16/16/16 22/22/22 23/23/23
f 16/16/16 23/23/23 24/24/24
f 16/16/16 24/24/24 17/17/17
f 25/25/25 21/21/21 20/20/20
f 25/25/25 20/20/20 26/26/26
f 25/25/25 26/26/26 27/27/27
f 25/25/25 27/27/27 28/28/28
f 25/25/25 28/28/28 29/29/29
f 25/25/25 29/29/29 30/30/30
f 25/25/25 30/30/30 22/22/22
f 25/25/25 22/22/22 21/21/21
f 31/31/31 32/32/32 22/22/22
f 31/31/31 22/22/22 30/30/30
f 31/31/31 30/30/30 29/29/29
f 31/31/31 29/29/29 33/33/33
f 31/31/31 33/33/33 5/5/5
f 31/31/31 5/5/5 4/4/4
f 31/31/31 4/4/4 3/3/3
f 31/31/31 3/3/3 32/32/32
f 34/34/34 35/35/35 24/24/24
f 34/34/34 24/24/24 23/23/23
f 34/34/34 23/23/23 22/22/22
f 34/34/34 22/22/22 32/32/32
f 34/34/34 32/32/32 3/3/3
f 34/34/34 3/3/3 13/13/13
f 34/34/34 13/13/13 12/12/12
f 34/34/34 12/12/12 35/35/35
f 36/36/36 37/37/37 38/38/38
f 36/36/36 38/38/38 39/39/39
f 36/36/36 39/39/39 40/40/40
f 36/36/36 40/40/40 41/41/41
f 36/36/36 41/41/41 20/20/20
f 36/36/36 20/20/20 19/19/19
f 36/36/36 19/19/19 18/18/18
f 36/36/36 18/18/18 37/37/37
f 42/42/42 41/41/41 40/40/40
f 42/42/42 40/40/40 43/43/43
f 42/42/42 43/43/43 44/44/44
f 42/42/42 44/44/44 45/45/45
f 42/42/42 45/45/45 27/27/27
f 42/42/42 27/27/27 26/26/26
f 42/42/42 26/26/26 20/20/20
f 42/42/42 20/20/20 41/41/41
f 46/46/46 47/47/47 48/48/48
f 46/46/46 48/48/48 49/49/49
f 46/46/46 49/49/49 50/50/50
f 46/46/46 50/50/50 51/51/51
f 46/46/46 51/51/51 52/52/52
f 46/46/46 52/52/52 53/53/53
f 46/46/46 53/53/53 54/54/54
f 46/46/46 54/54/54 47/47/47
f 55/55/55 56/56/56 57/57/57
f 55/55/55 57/57/57 58/58/58
f 55/55/55 58/58/58 48/48/48
f 55/55/55 48/48/48 47/47/47
f 55/55/55 47/47/47 54/54/54
f 55/55/55 54/54/54 59/59/59
f 55/55/55 59/59/59 60/60/60
f 55/55/55 60/60/60 56/56/56
f 61/61/61 62/62/62 63/63/63
f 61/61/61 63/63/63 64/64/64
f 61/61/61 64/64/64 65/65/65
f 61/61/61 65/65/65 66/66/66
f 61/61/61 66/66/66 67/67/67
f 61/61/61 67/67/67 68/68/68
f 61/61/61 68/68/68 69/69/69
f 61/61/61 69/69/69 62/62/62
f 70/70/70 66/66/66 65/65/65
f 70/70/70 65/65/65 71/71/71
f 70/70/70 71/71/71 72/72/72
f 70/70/70 72/72/72 73/73/73
f 70/70/70 73/73/73 74/74/74
f 70/70/70 74/74/74 75/75/75
f 70/70/70 75/75/75 67/67/67
f 70/70/70 67/67/67 66/66/66
f 76/76/76 77/77/77 54/54/54
f 76/76/76 54/54/54 53/53/53
f 76/76/76 53/53/53 52/52/52
f 76/76/76 52/52/52 78/78/78
f 76/76/76 78/78/78 72/72/72
f 76/76/76 72/72/72 71/71/71
f 76/76/76 71/71/71 65/65/65
f 76/76/76 65/65/65 77/77/77
f 79/79/79 80/80/80 60/60/60
f 79/79/79 60/60/60 59/59/59
f 79/79/79 59/59/59 54/54/54
f 79/79/79 54/54/54 77/77/77
f 79/79/79 77/77/77 65/65/65
f 79/79/79 65/65/65 64/64/64
f 79/79/79 64/64/64 63/63/63
f 79/79/79 63/63/63 80/80/80
f 81/81/81 82/82/82 69/69/69
f 81/81/81 69/69/69 68/68/68
f 81/81/81 68/68/68 67/67/67
f 81/81/81 67/67/67 83/83/83
f 81/81/81 83/83/83 84/84/84
f 81/81/81 84/84/84 85/85/85
f 81/81/81 85/85/85 86/86/86
f 81/81/81 86/86/86 82/82/82
f 87/87/87 83/83/83 67/67/67
f 87/87/87 67/67/67 75/75/75
f 87/87/87 75/75/75 74/74/74
f 87/87/87 74/74/74 88/88/88
f 87/87/87 88/88/88 89/89/89
f 87/87/87 89/89/89 90/90/90
f 87/87/87 90/90/90 84/84/84
f 87/87/87 84/84/84 83/83/83
f 91/91/91 92/92/92 38/38/38
f 91/91/91 38/38/38 37/37/37
f 91/91/91 37/37/37 18/18/18
f 91/91/91 18/18/18 93/93/93
f 91/91/91 93/93/93 69/69/69
f 91/91/91 69/69/69 82/82/82
f 91/91/91 82/82/82 94/94/94
f 91/91/91 94/94/94 92/92/92
f 95/95/95 96/96/96 44/44/44
f 95/95/95 44/44/44 43/43/43
f 95/95/95 43/43/43 40/40/40
f 95/95/95 40/40/40 97/97/97
f 95/95/95 97/97/97 84/84/84
f 95/95/95 84/84/84 90/90/90
f 95/95/95 90/90/90 98/98/98
f 95/95/95 98/98/98 96/96/96
f 99/99/99 100/100/100 7/7/7
f 99/99/99 7/7/7 6/6/6
f 99/99/99 6/6/6 5/5/5
f 99/99/99 5/5/5 101/101/101
f 99/99/99 101/101/101 52/52/52
f 99/99/99 52/52/52 51/51/51
f 99/99/99 51/51/51 102/102/102
f 99/99/99 102/102/102 100/100/100
f 103/103/103 104/104/104 15/15/15
f 103/103/103 15/15/15 14/14/14
f 103/103/103 14/14/14 9/9/9
f 103/103/103 9/9/9 105/105/105
f 103/103/103 105/105/105 48/48/48
f 103/103/103 48/48/48 58/58/58
f 103/103/103 58/58/58 106/106/106
f 103/103/103 106/106/106 104/104/104
f 107/107/107 108/108/108 12/12/12
f 107/107/107 12/12/12 11/11/11
f 107/107/107 11/11/11 15/15/15
f 107/107/107 15/15/15 104/104/104
f 107/107/107 104/104/104 106/106/106
f 107/107/107 106/106/106 56/56/56
f 107/107/107 56/56/56 60/60/60
f 107/107/107 60/60/60 108/108/108
f 109/109/109 97/97/97 40/40/40
f 109/109/109 40/40/40 39/39/39
f 109/109/109 39/39/39 38/38/38
f 109/109/109 38/38/38 92/92/92
f 109/109/109 92/92/92 94/94/94
f 109/109/109 94/94/94 85/85/85
f 109/109/109 85/85/85 84/84/84
f 109/109/109 84/84/84 97/97/97
f 110/110/110 111/111/111 27/27/27
f 110/110/110 27/27/27 45/45/45
f 110/110/110 45/45/45 44/44/44
f 110/110/110 44/44/44 96/96/96
f 110/110/110 96/96/96 98/98/98
f 110/110/110 98/98/98 88/88/88
f 110/110/110 88/88/88 74/74/74
f 110/110/110 74/74/74 111/111/111
f 112/112/112 105/105/105 9/9/9
f 112/112/112 9/9/9 8/8/8
f 112/112/112 8/8/8 7/7/7
f 112/112/112 7/7/7 100/100/100
f 112/112/112 100/100/100 102/102/102
f 112/112/112 102/102/102 49/49/49
f 112/112/112 49/49/49 48/48/48
f 112/112/112 48/48/48 105/105/105
f 113/113/113 101/101/101 5/5/5
f 113/113/113 5/5/5 33/33/33
f 113/113/113 33/33/33 29/29/29
f 113/113/113 29/29/29 114/114/114
f 113/113/113 114/114/114 72/72/72
f 113/113/113 72/72/72 78/78/78
f 113/113/113 78/78/78 52/52/52
f 113/113/113 52/52/52 101/101/101
f 115/115/115 116/116/116 24/24/24
f 115/115/115 24/24/24 35/35/35
f 115/115/115 35/35/35 12/12/12
f 115/115/115 12/12/12 108/108/108
f 115/115/115 108/108/108 60/60/60
f 115/115/115 60/60/60 80/80/80
f 115/115/115 80/80/80 63/63/63
f 115/115/115 63/63/63 116/116/116
f 117/117/117 93/93/93 18/18/18
f 117/117/117 18/18/18 17/17/17
f 117/117/117 17/17/17 24/24/24
f 117/117/117 24/24/24 116/116/116
f 117/117/117 116/116/116 63/63/63
f 117/117/117 63/63/63 62/62/62
f 117/117/117 62/62/62 69/69/69
f 117/117/117 69/69/69 93/93/93
f 118/118/118 114/114/114 29/29/29
f 118/118/118 29/29/29 28/28/28
f 118/118/118 28/28/28 27/27/27
f 118/118/118 27/27/27 111/111/111
f 118/118/118 111/111/111 74/74/74
f 118/118/118 74/74/74 73/73/73
f 118/118/118 73/73/73 72/72/72
f 118/118/118 72/72/72 114/114/114
