v -2.424457 0.668454 -1.081692
v -2.424153 0.667916 -1.079667
v -2.421738 0.667075 -1.080853
v -2.422370 0.667724 -1.083026
v -2.422664 0.668362 -1.084710
v -2.424337 0.668964 -1.083346
v -2.425318 0.669059 -1.082159
v -2.425945 0.668852 -1.080682
v -2.425957 0.668440 -1.078802
v -2.422888 0.667724 -1.077979
v -2.421586 0.667684 -1.076834
v -2.419538 0.666908 -1.077313
v -2.420587 0.666894 -1.078806
v -2.424587 0.668220 -1.077468
v -2.423090 0.668023 -1.076886
v -2.413694 0.662859 -1.082564
v -2.412894 0.662730 -1.081035
v -2.410986 0.661032 -1.082684
v -2.411704 0.661138 -1.084034
v -2.412578 0.661373 -1.085844
v -2.414673 0.663133 -1.084612
v -2.416881 0.664718 -1.083368
v -2.415846 0.664449 -1.081226
v -2.414991 0.664341 -1.079628
v -2.415441 0.663672 -1.086699
v -2.413249 0.661857 -1.087691
v -2.413693 0.662292 -1.089092
v -2.415955 0.664154 -1.088280
v -2.418193 0.665831 -1.087207
v -2.417674 0.665300 -1.085551
v -2.420046 0.666661 -1.084320
v -2.419275 0.666020 -1.082101
v -2.420523 0.667276 -1.086007
v -2.418192 0.665798 -1.079931
v -2.417273 0.665764 -1.078316
v -2.409843 0.659395 -1.085728
v -2.409275 0.659353 -1.084724
v -2.408494 0.658391 -1.086108
v -2.408512 0.658057 -1.087076
v -2.409007 0.658120 -1.087992
v -2.410520 0.659541 -1.087074
v -2.410996 0.659931 -1.088456
v -2.409302 0.658425 -1.088946
v -2.409916 0.659053 -1.089473
v -2.411297 0.660294 -1.089509
v -2.424551 0.668256 -1.081725
v -2.424237 0.667711 -1.079672
v -2.426016 0.668286 -1.078807
v -2.426013 0.668704 -1.080709
v -2.425372 0.668952 -1.082185
v -2.424414 0.668821 -1.083384
v -2.422745 0.668220 -1.084742
v -2.422471 0.667528 -1.083052
v -2.421829 0.666873 -1.080854
v -2.422959 0.667516 -1.077956
v -2.421633 0.667527 -1.076803
v -2.423125 0.667906 -1.076867
v -2.424636 0.668063 -1.077451
v -2.420667 0.666689 -1.078783
v -2.419593 0.666754 -1.077283
v -2.413810 0.662673 -1.082530
v -2.412977 0.662589 -1.081000
v -2.415066 0.664196 -1.079597
v -2.415952 0.664257 -1.081196
v -2.416996 0.664528 -1.083357
v -2.414798 0.662950 -1.084596
v -2.412709 0.661194 -1.085824
v -2.411827 0.660956 -1.083996
v -2.411074 0.660895 -1.082646
v -2.415573 0.663493 -1.086700
v -2.417796 0.665114 -1.085559
v -2.418289 0.665695 -1.087222
v -2.416057 0.664022 -1.088290
v -2.413800 0.662163 -1.089099
v -2.413387 0.661682 -1.087689
v -2.420157 0.666470 -1.084337
v -2.419377 0.665824 -1.082096
v -2.420610 0.667136 -1.086030
v -2.418285 0.665599 -1.079905
v -2.417338 0.665614 -1.078286
v -2.409968 0.659215 -1.085687
v -2.409364 0.659217 -1.084684
v -2.410653 0.659365 -1.087052
v -2.409107 0.657987 -1.087976
v -2.408605 0.657922 -1.087044
v -2.408561 0.658291 -1.086081
v -2.411137 0.659759 -1.088454
v -2.411406 0.660167 -1.089517
v -2.409996 0.658958 -1.089476
v -2.409408 0.658296 -1.088945
v -2.409124 0.659279 -1.084370
v -2.408094 0.658026 -1.086345
v -2.410785 0.660936 -1.082215
v -2.408561 0.658291 -1.086081
v -2.408784 0.657865 -1.089109
v -2.409518 0.658689 -1.089716
v -2.408547 0.657587 -1.088291
v -2.409996 0.658958 -1.089476
v -2.424333 0.669071 -1.083917
v -2.425498 0.669178 -1.082322
v -2.422799 0.668513 -1.085288
v -2.425372 0.668952 -1.082185
v -2.425174 0.668316 -1.077290
v -2.423088 0.668057 -1.076617
v -2.426584 0.668546 -1.078516
v -2.423125 0.667906 -1.076867
v -2.421172 0.667601 -1.076436
v -2.419212 0.666844 -1.076799
v -2.408109 0.657551 -1.087511
v -2.411446 0.660359 -1.089866
v -2.413890 0.662381 -1.089564
v -2.426470 0.668919 -1.080358
v -2.420722 0.667420 -1.086582
v -2.418410 0.665948 -1.087768
v -2.416995 0.665686 -1.077762
v -2.414739 0.664240 -1.079080
v -2.412663 0.662623 -1.080508
v -2.416172 0.664256 -1.088813
vn 0.422700 0.875900 0.232500
vn 0.329600 0.943000 0.046100
vn 0.380700 0.924400 0.020800
vn 0.466300 0.864700 0.186500
vn 0.484200 0.858800 0.167500
vn 0.420600 0.878800 0.225300
vn 0.373300 0.889200 0.264300
vn 0.329300 0.914300 0.235600
vn 0.247500 0.965100 0.085100
vn 0.256800 0.953100 -0.160000
vn 0.260800 0.953200 -0.152900
vn 0.343000 0.924400 -0.166400
vn 0.318000 0.933700 -0.164300
vn 0.193900 0.977300 -0.084900
vn 0.201600 0.969100 -0.141900
vn 0.534900 0.824700 -0.183800
vn 0.557100 0.816000 -0.154100
vn 0.581000 0.797100 -0.164600
vn 0.554900 0.806300 -0.204500
vn 0.610700 0.785000 -0.103700
vn 0.580600 0.809600 -0.086200
vn 0.517000 0.854500 -0.050400
vn 0.472500 0.866000 -0.163900
vn 0.497600 0.854900 -0.146800
vn 0.618200 0.785900 0.013200
vn 0.644200 0.764800 0.006700
vn 0.633700 0.772500 -0.040000
vn 0.612000 0.790500 -0.024000
vn 0.570200 0.821100 0.025100
vn 0.565900 0.822500 0.057100
vn 0.508900 0.852100 0.122100
vn 0.442500 0.896700 -0.010700
vn 0.524800 0.845800 0.095800
vn 0.391100 0.906900 -0.156600
vn 0.419700 0.894700 -0.152700
vn 0.553000 0.799800 -0.233200
vn 0.584600 0.788100 -0.192700
vn 0.581800 0.780700 -0.227900
vn 0.580800 0.766000 -0.275500
vn 0.661900 0.737300 -0.134700
vn 0.624500 0.773000 -0.111900
vn 0.661900 0.749200 0.024400
vn 0.706200 0.707700 0.021400
vn 0.676100 0.736800 -0.005100
vn 0.654500 0.755500 -0.027400
vn -0.451000 -0.857700 -0.247000
vn -0.343800 -0.938200 -0.039200
vn -0.397600 -0.917400 -0.012300
vn -0.529300 -0.797100 -0.290600
vn -0.577000 -0.724700 -0.376500
vn -0.564400 -0.742300 -0.360900
vn -0.550400 -0.778500 -0.301600
vn -0.472200 -0.858600 -0.199400
vn -0.380600 -0.924500 -0.020900
vn -0.264200 -0.944500 0.194900
vn -0.249600 -0.888900 0.384000
vn -0.245200 -0.879100 0.408700
vn -0.281000 -0.912600 0.297100
vn -0.312400 -0.933000 0.178700
vn -0.285800 -0.901600 0.324600
vn -0.526700 -0.826700 0.197800
vn -0.465500 -0.835400 0.292300
vn -0.420200 -0.863100 0.280100
vn -0.465400 -0.867100 0.177200
vn -0.517100 -0.854400 0.050500
vn -0.580700 -0.809500 0.086200
vn -0.610800 -0.785000 0.103700
vn -0.543900 -0.809800 0.219900
vn -0.454100 -0.833500 0.314600
vn -0.622300 -0.782200 -0.028500
vn -0.570300 -0.818400 -0.070900
vn -0.609300 -0.775100 -0.167300
vn -0.645900 -0.751400 -0.134800
vn -0.653200 -0.740900 -0.156300
vn -0.647500 -0.761600 -0.025400
vn -0.513500 -0.847400 -0.135100
vn -0.442500 -0.896700 0.010700
vn -0.569000 -0.789200 -0.231000
vn -0.384700 -0.907300 0.169700
vn -0.349500 -0.891400 0.288600
vn -0.527000 -0.813000 0.247600
vn -0.399100 -0.849100 0.346000
vn -0.616200 -0.780300 0.106900
vn -0.578400 -0.811300 0.084900
vn -0.439100 -0.853300 0.281300
vn -0.361100 -0.859700 0.361200
vn -0.655300 -0.753300 -0.056000
vn -0.638200 -0.737800 -0.219600
vn -0.623300 -0.737700 -0.259300
vn -0.622000 -0.768100 -0.151600
vn 0.727700 -0.221200 0.649200
vn 0.885900 -0.359100 0.293600
vn 0.626300 -0.176200 0.759400
vn -0.361100 -0.859700 0.361200
vn 0.603000 -0.507400 -0.615500
vn 0.373300 -0.120900 -0.919800
vn 0.611400 -0.686400 -0.393700
vn -0.623300 -0.737700 -0.259300
vn -0.491100 0.564100 -0.663700
vn -0.688700 0.597800 -0.410300
vn -0.359100 0.475700 -0.802900
vn -0.577000 -0.724700 -0.376500
vn -0.530800 0.237300 0.813600
vn -0.120200 0.333200 0.935100
vn -0.883700 0.215100 0.415700
vn -0.245200 -0.879100 0.408700
vn 0.190800 0.246600 0.950100
vn 0.368300 0.137100 0.919500
vn 0.784000 -0.591800 -0.187200
vn 0.033000 0.101900 -0.994200
vn -0.108800 0.165800 -0.980100
vn -0.907600 0.412300 -0.078300
vn -0.277000 0.381600 -0.881800
vn -0.238400 0.313200 -0.919300
vn 0.468300 0.034700 0.882900
vn 0.512800 -0.036600 0.857700
vn 0.552200 -0.106700 0.826900
vn -0.198600 0.242800 -0.949500
vt 0.839504 0.118056
vt 0.856743 0.205307
vt 0.741230 0.205307
vt 0.734555 0.106726
vt 0.724541 0.032791
vt 0.813647 0.052618
vt 0.868992 0.081539
vt 0.913398 0.129584
vt 0.940923 0.205307
vt 0.839504 0.292557
vt 0.813647 0.357995
vt 0.724541 0.377822
vt 0.734555 0.303887
vt 0.913398 0.281029
vt 0.868992 0.329074
vt 0.369475 0.299954
vt 0.368286 0.370940
vt 0.245840 0.351447
vt 0.246397 0.288815
vt 0.246768 0.205307
vt 0.370268 0.205307
vt 0.494283 0.205307
vt 0.492822 0.304944
vt 0.490632 0.379672
vt 0.369475 0.110659
vt 0.246397 0.121798
vt 0.245841 0.059166
vt 0.368286 0.039673
vt 0.490632 0.030941
vt 0.492822 0.105669
vt 0.616755 0.103478
vt 0.619174 0.205307
vt 0.613127 0.027106
vt 0.616755 0.307135
vt 0.613126 0.383507
vt 0.123273 0.268175
vt 0.123047 0.315326
vt 0.054743 0.283353
vt 0.030912 0.249131
vt 0.030973 0.205306
vt 0.123423 0.205306
vt 0.123273 0.142438
vt 0.030912 0.161481
vt 0.054744 0.127260
vt 0.123047 0.095287
vt 0.839504 0.118056
vt 0.856743 0.205307
vt 0.968983 0.205307
vt 0.938030 0.133427
vt 0.876123 0.061548
vt 0.805028 0.030806
vt 0.721203 0.008146
vt 0.734555 0.106726
vt 0.741230 0.205307
vt 0.839504 0.292557
vt 0.805028 0.379807
vt 0.876123 0.349065
vt 0.938030 0.277186
vt 0.734555 0.303887
vt 0.721203 0.402467
vt 0.369475 0.299954
vt 0.367890 0.394602
vt 0.489902 0.404581
vt 0.492822 0.304944
vt 0.494283 0.205307
vt 0.370268 0.205307
vt 0.246768 0.205307
vt 0.246397 0.288815
vt 0.245655 0.372324
vt 0.369475 0.110659
vt 0.492822 0.105669
vt 0.489902 0.006032
vt 0.367890 0.016011
vt 0.245655 0.038289
vt 0.246397 0.121798
vt 0.616755 0.103478
vt 0.619174 0.205307
vt 0.611917 0.001649
vt 0.616755 0.307135
vt 0.611917 0.408964
vt 0.123273 0.268175
vt 0.122972 0.331043
vt 0.123423 0.205306
vt 0.000156 0.205306
vt 0.000125 0.242784
vt 0.000064 0.280261
vt 0.123273 0.142438
vt 0.122972 0.079570
vt 0.000064 0.130352
vt 0.000125 0.167829
vt 0.122972 0.331043
vt 0.030806 0.283587
vt 0.245655 0.372324
vt 0.030806 0.283587
vt 0.000125 0.167829
vt 0.030806 0.127026
vt 0.000156 0.205306
vt 0.030806 0.127026
vt 0.805028 0.030806
vt 0.873826 0.071832
vt 0.721203 0.008146
vt 0.873826 0.071832
vt 0.938030 0.277186
vt 0.873826 0.338781
vt 0.968983 0.205307
vt 0.873826 0.338781
vt 0.805028 0.379807
vt 0.721203 0.402467
vt 0.000125 0.242784
vt 0.122972 0.079570
vt 0.245655 0.038289
vt 0.938030 0.133427
vt 0.611917 0.001649
vt 0.489902 0.006032
vt 0.611917 0.408964
vt 0.489902 0.404581
vt 0.367890 0.394602
vt 0.367890 0.016011
f 1/1/1 2/2/2 3/3/3
f 1/1/1 3/3/3 4/4/4
f 1/1/1 4/4/4 5/5/5
f 1/1/1 5/5/5 6/6/6
f 1/1/1 6/6/6 7/7/7
f 1/1/1 7/7/7 8/8/8
f 1/1/1 8/8/8 9/9/9
f 1/1/1 9/9/9 2/2/2
f 10/10/10 11/11/11 12/12/12
f 10/10/10 12/12/12 13/13/13
f 10/10/10 13/13/13 3/3/3
f 10/10/10 3/3/3 2/2/2
f 10/10/10 2/2/2 9/9/9
f 10/10/10 9/9/9 14/14/14
f 10/10/10 14/14/14 15/15/15
f 10/10/10 15/15/15 11/11/11
f 16/16/16 17/17/17 18/18/18
f 16/16/16 18/18/18 19/19/19
f 16/16/16 19/19/19 20/20/20
f 16/16/16 20/20/20 21/21/21
f 16/16/16 21/21/21 22/22/22
f 16/16/16 22/22/22 23/23/23
f 16/16/16 23/23/23 24/24/24
f 16/16/16 24/24/24 17/17/17
f 25/25/25 21/21/21 20/20/20
f 25/25/25 20/20/20 26/26/26
f 25/25/25 26/26/26 27/27/27
f 25/25/25 27/27/27 28/28/28
f 25/25/25 28/28/28 29/29/29
f 25/25/25 29/29/29 30/30/30
f 25/25/25 30/30/30 22/22/22
f 25/25/25 22/22/22 21/21/21
f 31/31/31 32/32/32 22/22/22
f 31/31/31 22/22/22 30/30/30
f 31/31/31 30/30/30 29/29/29
f 31/31/31 29/29/29 33/33/33
f 31/31/31 33/33/33 5/5/5
f 31/31/31 5/5/5 4/4/4
f 31/31/31 4/4/4 3/3/3
f 31/31/31 3/3/3 32/32/32
f 34/34/34 35/35/35 24/24/24
f 34/34/34 24/24/24 23/23/23
f 34/34/34 23/23/23 22/22/22
f 34/34/34 22/22/22 32/32/32
f 34/34/34 32/32/32 3/3/3
f 34/34/34 3/3/3 13/13/13
f 34/34/34 13/13/13 12/12/12
f 34/34/34 12/12/12 35/35/35
f 36/36/36 37/37/37 38/38/38
f 36/36/36 38/38/38 39/39/39
f 36/36/36 39/39/39 40/40/40
f 36/36/36 40/40/40 41/41/41
f 36/36/36 41/41/41 20/20/20
f 36/36/36 20/20/20 19/19/19
f 36/36/36 19/19/19 18/18/18
f 36/36/36 18/18/18 37/37/37
f 42/42/42 41/41/41 40/40/40
f 42/42/42 40/40/40 43/43/43
f 42/42/42 43/43/43 44/44/44
f 42/42/42 44/44/44 45/45/45
f 42/42/42 45/45/45 27/27/27
f 42/42/42 27/27/27 26/26/26
f 42/42/42 26/26/26 20/20/20
f 42/42/42 20/20/20 41/41/41
f 46/46/46 47/47/47 48/48/48
f 46/46/46 48/48/48 49/49/49
f 46/46/46 49/49/49 50/50/50
f 46/46/46 50/50/50 51/51/51
f 46/46/46 51/51/51 52/52/52
f 46/46/46 52/52/52 53/53/53
f 46/46/46 53/53/53 54/54/54
f 46/46/46 54/54/54 47/47/47
f 55/55/55 56/56/56 57/57/57
f 55/55/55 57/57/57 58/58/58
f 55/55/55 58/58/58 48/48/48
f 55/55/55 48/48/48 47/47/47
f 55/55/55 47/47/47 54/54/54
f 55/55/55 54/54/54 59/59/59
f 55/55/55 59/59/59 60/60/60
f 55/55/55 60/60/60 56/56/56
f 61/61/61 62/62/62 63/63/63
f 61/61/61 63/63/63 64/64/64
f 61/61/61 64/64/64 65/65/65
f 61/61/61 65/65/65 66/66/66
f 61/61/61 66/66/66 67/67/67
f 61/61/61 67/67/67 68/68/68
f 61/61/61 68/68/68 69/69/69
f 61/61/61 69/69/69 62/62/62
f 70/70/70 66/66/66 65/65/65
f 70/70/70 65/65/65 71/71/71
f 70/70/70 71/71/71 72/72/72
f 70/70/70 72/72/72 73/73/73
f 70/70/70 73/73/73 74/74/74
f 70/70/70 74/74/74 75/75/75
f 70/70/70 75/75/75 67/67/67
f 70/70/70 67/67/67 66/66/66
f 76/76/76 77/77/77 54/54/54
f 76/76/76 54/54/54 53/53/53
f 76/76/76 53/53/53 52/52/52
f 76/76/76 52/52/52 78/78/78
f 76/76/76 78/78/78 72/72/72
f 76/76/76 72/72/72 71/71/71
f 76/76/76 71/71/71 65/65/65
f 76/76/76 65/65/65 77/77/77
f 79/79/79 80/80/80 60/60/60
f 79/79/79 60/60/60 59/59/59
f 79/79/79 59/59/59 54/54/54
f 79/79/79 54/54/54 77/77/77
f 79/79/79 77/77/77 65/65/65
f 79/79/79 65/65/65 64/64/64
f 79/79/79 64/64/64 63/63/63
f 79/79/79 63/63/63 80/80/80
f 81/81/81 82/82/82 69/69/69
f 81/81/81 69/69/69 68/68/68
f 81/81/81 68/68/68 67/67/67
f 81/81/81 67/67/67 83/83/83
f 81/81/81 83/83/83 84/84/84
f 81/81/81 84/84/84 85/85/85
f 81/81/81 85/85/85 86/86/86
f 81/81/81 86/86/86 82/82/82
f 87/87/87 83/83/83 67/67/67
f 87/87/87 67/67/67 75/75/75
f 87/87/87 75/75/75 74/74/74
f 87/87/87 74/74/74 88/88/88
f 87/87/87 88/88/88 89/89/89
f 87/87/87 89/89/89 90/90/90
f 87/87/87 90/90/90 84/84/84
f 87/87/87 84/84/84 83/83/83
f 91/91/91 92/92/92 38/38/38
f 91/91/91 38/38/38 37/37/37
f 91/91/91 37/37/37 18/18/18
f 91/91/91 18/18/18 93/93/93
f 91/91/91 93/93/93 69/69/69
f 91/91/91 69/69/69 82/82/82
f 91/91/91 82/82/82 94/94/94
f 91/91/91 94/94/94 92/92/92
f 95/95/95 96/96/96 44/44/44
f 95/95/95 44/44/44 43/43/43
f 95/95/95 43/43/43 40/40/40
f 95/95/95 40/40/40 97/97/97
f 95/95/95 97/97/97 84/84/84
f 95/95/95 84/84/84 90/90/90
f 95/95/95 90/90/90 98/98/98
f 95/95/95 98/98/98 96/96/96
f 99/99/99 100/100/100 7/7/7
f 99/99/99 7/7/7 6/6/6
f 99/99/99 6/6/6 5/5/5
f 99/99/99 5/5/5 101/101/101
f 99/99/99 101/101/101 52/52/52
f 99/99/99 52/52/52 51/51/51
f 99/99/99 51/51/51 102/102/102
f 99/99/99 102/102/102 100/100/100
f 103/103/103 104/104/104 15/15/15
f 103/103/103 15/15/15 14/14/14
f 103/103/103 14/14/14 9/9/9
f 103/103/103 9/9/9 105/105/105
f 103/103/103 105/105/105 48/48/48
f 103/103/103 48/48/48 58/58/58
f 103/103/103 58/58/58 106/106/106
f 103/103/103 106/106/106 104/104/104
f 107/107/107 108/108/108 12/12/12
f 107/107/107 12/12/12 11/11/11
f 107/107/107 11/11/11 15/15/15
f 107/107/107 15/15/15 104/104/104
f 107/107/107 104/104/104 106/106/106
f 107/107/107 106/106/106 56/56/56
f 107/107/107 56/56/56 60/60/60
f 107/107/107 60/60/60 108/108/108
f 109/109/109 97/97/97 40/40/40
f 109/109/109 40/40/40 39/39/39
f 109/109/109 39/39/39 38/38/38
f 109/109/109 38/38/38 92/92/92
f 109/109/109 92/92/92 94/94/94
f 109/109/109 94/94/94 85/85/85
f 109/109/109 85/85/85 84/84/84
f 109/109/109 84/84/84 97/97/97
f 110/110/110 111/111/111 27/27/27
f 110/110/110 27/27/27 45/45/45
f 110/110/110 45/45/45 44/44/44
f 110/110/110 44/44/44 96/96/96
f 110/110/110 96/96/96 98/98/98
f 110/110/110 98/98/98 88/88/88
f 110/110/110 88/88/88 74/74/74
f 110/110/110 74/74/74 111/111/111
f 112/112/112 105/105/105 9/9/9
f 112/112/112 9/9/9 8/8/8
f 112/112/112 8/8/8 7/7/7
f 112/112/112 7/7/7 100/100/100
f 112/112/112 100/100/100 102/102/102
f 112/112/112 102/102/102 49/49/49
f 112/112/112 49/49/49 48/48/48
f 112/112/112 48/48/48 105/105/105
f 113/113/113 101/101/101 5/5/5
f 113/113/113 5/5/5 33/33/33
f 113/113/113 33/33/33 29/29/29
f 113/113/113 29/29/29 114/114/114
f 113/113/113 114/114/114 72/72/72
f 113/113/113 72/72/72 78/78/78
f 113/113/113 78/78/78 52/52/52
f 113/113/113 52/52/52 101/101/101
f 115/115/115 116/116/116 24/24/24
f 115/115/115 24/24/24 35/35/35
f 115/115/115 35/35/35 12/12/12
f 115/115/115 12/12/12 108/108/108
f 115/115/115 108/108/108 60/60/60
f 115/115/115 60/60/60 80/80/80
f 115/115/115 80/80/80 63/63/63
f 115/115/115 63/63/63 116/116/116
f 117/117/117 93/93/93 18/18/18
f 117/117/117 18/18/18 17/17/17
f 117/117/117 17/17/17 24/24/24
f 117/117/117 24/24/24 116/116/116
f 117/117/117 116/116/116 63/63/63
f 117/117/117 63/63/63 62/62/62
f 117/117/117 62/62/62 69/69/69
f 117/117/117 69/69/69 93/93/93
f 118/118/118 114/114/114 29/29/29
f 118/118/118 29/29/29 28/28/28
f 118/118/118 28/28/28 27/27/27
f 118/118/118 27/27/27 111/111/111
f 118/118/118 111/111/111 74/74/74
f 118/118/118 74/74/74 73/73/73
f 118/118/118 73/73/73 72/72/72
f 118/118/118 72/72/72 114/114/114
