v -2.387192 0.791151 -1.232819
v -2.387693 0.790788 -1.234818
v -2.389622 0.789299 -1.233470
v -2.388808 0.789827 -1.231356
v -2.388393 0.790321 -1.229673
v -2.387148 0.791430 -1.231129
v -2.386426 0.791876 -1.232395
v -2.386024 0.791984 -1.233938
v -2.386227 0.791799 -1.235819
v -2.389128 0.790496 -1.236313
v -2.390542 0.790282 -1.237255
v -2.392250 0.789018 -1.236632
v -2.391008 0.789084 -1.235326
v -2.387699 0.791418 -1.236962
v -2.389175 0.790947 -1.237356
v -2.396109 0.783233 -1.231351
v -2.397089 0.783091 -1.232744
v -2.398279 0.780851 -1.231137
v -2.397401 0.780971 -1.229908
v -2.396328 0.781199 -1.228238
v -2.394905 0.783497 -1.229456
v -2.393340 0.785654 -1.230727
v -2.394613 0.785393 -1.232704
v -2.395660 0.785266 -1.234154
v -2.393953 0.783961 -1.227460
v -2.395495 0.781615 -1.226468
v -2.394939 0.781980 -1.225108
v -2.393312 0.784367 -1.225928
v -2.391709 0.786602 -1.227024
v -2.392358 0.786155 -1.228635
v -2.390587 0.788136 -1.229947
v -2.391542 0.787588 -1.232086
v -2.389992 0.788649 -1.228288
v -2.392875 0.787363 -1.234076
v -2.394001 0.787294 -1.235524
v -2.398530 0.778693 -1.228271
v -2.399224 0.778632 -1.229173
v -2.399540 0.777383 -1.227867
v -2.399297 0.776962 -1.226979
v -2.398692 0.777036 -1.226148
v -2.397701 0.778843 -1.227036
v -2.397108 0.779174 -1.225703
v -2.398322 0.777292 -1.225220
v -2.397786 0.777975 -1.224702
v -2.396729 0.779475 -1.224671
v -2.387055 0.790981 -1.232828
v -2.387569 0.790611 -1.234853
v -2.386137 0.791664 -1.235844
v -2.385923 0.791855 -1.233942
v -2.386348 0.791783 -1.232392
v -2.387039 0.791307 -1.231123
v -2.388281 0.790200 -1.229673
v -2.388667 0.789661 -1.231372
v -2.389493 0.789127 -1.233510
v -2.389020 0.790316 -1.236374
v -2.390470 0.790147 -1.237314
v -2.389120 0.790846 -1.237396
v -2.387621 0.791281 -1.237007
v -2.390893 0.788909 -1.235389
v -2.392170 0.788886 -1.236690
v -2.395964 0.783086 -1.231426
v -2.396985 0.782979 -1.232809
v -2.395563 0.785148 -1.234216
v -2.394476 0.785236 -1.232775
v -2.393193 0.785501 -1.230780
v -2.394750 0.783352 -1.229515
v -2.396169 0.781061 -1.228300
v -2.397252 0.780830 -1.229988
v -2.398173 0.780744 -1.231204
v -2.393790 0.783820 -1.227502
v -2.392201 0.786005 -1.228670
v -2.391587 0.786492 -1.227041
v -2.393185 0.784264 -1.225951
v -2.394809 0.781882 -1.225133
v -2.395327 0.781480 -1.226514
v -2.390438 0.787977 -1.229973
v -2.391404 0.787424 -1.232132
v -2.389875 0.788533 -1.228297
v -2.392748 0.787196 -1.234142
v -2.393913 0.787169 -1.235584
v -2.398380 0.778555 -1.228352
v -2.399117 0.778527 -1.229243
v -2.397540 0.778707 -1.227099
v -2.398571 0.776935 -1.226196
v -2.399185 0.776859 -1.227041
v -2.399460 0.777305 -1.227917
v -2.396938 0.779042 -1.225749
v -2.396597 0.779378 -1.224696
v -2.397690 0.777904 -1.224722
v -2.398194 0.777194 -1.225254
v -2.399409 0.778564 -1.229507
v -2.399805 0.776916 -1.227637
v -2.398526 0.780764 -1.231578
v -2.399460 0.777305 -1.227917
v -2.398670 0.776621 -1.225074
v -2.398048 0.777510 -1.224465
v -2.398968 0.776389 -1.225874
v -2.397690 0.777904 -1.224722
v -2.387083 0.791469 -1.230560
v -2.386253 0.792014 -1.232243
v -2.388204 0.790433 -1.229109
v -2.386348 0.791783 -1.232392
v -2.387189 0.791664 -1.237198
v -2.389227 0.791009 -1.237611
v -2.385699 0.792076 -1.236164
v -2.389120 0.790846 -1.237396
v -2.390983 0.790151 -1.237599
v -2.392629 0.788937 -1.237096
v -2.399503 0.776339 -1.226577
v -2.396543 0.779533 -1.224336
v -2.394695 0.782059 -1.224664
v -2.385590 0.792204 -1.234312
v -2.389741 0.788769 -1.227737
v -2.391438 0.786702 -1.226493
v -2.394339 0.787215 -1.236035
v -2.395967 0.785172 -1.234667
v -2.397371 0.782994 -1.233239
v -2.393041 0.784457 -1.225425
vn -0.632600 0.773200 -0.045100
vn -0.527000 0.839100 0.134900
vn -0.568100 0.806500 0.163800
vn -0.664700 0.747100 0.004200
vn -0.677600 0.735000 0.024300
vn -0.630000 0.775700 -0.037900
vn -0.592900 0.801100 -0.081100
vn -0.551400 0.832400 -0.055100
vn -0.459100 0.883900 0.088800
vn -0.425500 0.843100 0.328700
vn -0.430500 0.843100 0.322200
vn -0.501400 0.794600 0.342300
vn -0.479500 0.809700 0.338300
vn -0.382400 0.889500 0.250200
vn -0.378700 0.873500 0.305900
vn -0.661900 0.651500 0.370600
vn -0.686300 0.641300 0.343200
vn -0.703500 0.616100 0.354100
vn -0.673900 0.626800 0.391100
vn -0.739500 0.604300 0.296500
vn -0.718600 0.637000 0.278900
vn -0.672800 0.699100 0.241900
vn -0.613900 0.708200 0.348800
vn -0.638500 0.693500 0.333700
vn -0.765900 0.616400 0.183100
vn -0.785500 0.589100 0.189800
vn -0.769300 0.593900 0.235400
vn -0.754900 0.618100 0.219400
vn -0.729200 0.662800 0.170000
vn -0.730500 0.668700 0.138200
vn -0.692600 0.717800 0.071200
vn -0.616500 0.761700 0.199000
vn -0.702200 0.705200 0.098200
vn -0.545500 0.767500 0.336600
vn -0.571100 0.749500 0.334800
vn -0.666000 0.617800 0.418000
vn -0.700500 0.603500 0.380800
vn -0.690500 0.593100 0.414000
vn -0.678700 0.573900 0.458200
vn -0.773600 0.542800 0.327000
vn -0.748800 0.588500 0.304700
vn -0.801900 0.571900 0.172600
vn -0.835300 0.521000 0.175500
vn -0.808100 0.553500 0.201600
vn -0.787700 0.574100 0.223300
vn 0.658200 -0.750500 0.058100
vn 0.538500 -0.830400 -0.142900
vn 0.581700 -0.794700 -0.173500
vn 0.728000 -0.678400 0.099200
vn 0.772200 -0.607000 0.187500
vn 0.761300 -0.625200 0.171400
vn 0.746100 -0.656700 0.109900
vn 0.671200 -0.741200 0.008500
vn 0.568000 -0.806500 -0.163700
vn 0.425100 -0.829300 -0.362500
vn 0.368300 -0.758100 -0.538100
vn 0.358000 -0.746900 -0.560300
vn 0.417800 -0.783100 -0.460500
vn 0.471700 -0.808600 -0.351500
vn 0.415600 -0.768500 -0.486400
vn 0.652200 -0.653800 -0.383500
vn 0.579600 -0.666200 -0.469300
vn 0.544000 -0.704800 -0.455300
vn 0.605200 -0.709500 -0.361100
vn 0.672900 -0.699000 -0.241900
vn 0.718700 -0.636900 -0.279000
vn 0.739500 -0.604200 -0.296600
vn 0.661500 -0.631100 -0.405100
vn 0.564600 -0.664500 -0.489400
vn 0.771600 -0.613500 -0.168000
vn 0.736200 -0.665200 -0.124700
vn 0.780000 -0.625000 -0.029200
vn 0.805000 -0.590000 -0.062600
vn 0.813300 -0.580400 -0.041000
vn 0.790900 -0.587300 -0.171500
vn 0.698100 -0.713600 -0.058300
vn 0.616500 -0.761700 -0.199000
vn 0.754700 -0.655000 0.036500
vn 0.537200 -0.768000 -0.348700
vn 0.480600 -0.747600 -0.458300
vn 0.641400 -0.635000 -0.430500
vn 0.510000 -0.688900 -0.515100
vn 0.743200 -0.598200 -0.299800
vn 0.717100 -0.639300 -0.277600
vn 0.560000 -0.690600 -0.457600
vn 0.473200 -0.706300 -0.526600
vn 0.801600 -0.580900 -0.141400
vn 0.808500 -0.587900 0.023700
vn 0.800600 -0.595700 0.064600
vn 0.788300 -0.613600 -0.045200
vn -0.759200 -0.311900 -0.571200
vn -0.823800 -0.521700 -0.221500
vn -0.689300 -0.233000 -0.686000
vn 0.473200 -0.706300 -0.526600
vn -0.371900 -0.699100 0.610700
vn -0.183900 -0.305300 0.934300
vn -0.377600 -0.849400 0.368700
vn 0.800600 -0.595700 0.064600
vn 0.460300 0.586600 0.666300
vn 0.602200 0.693000 0.396300
vn 0.374700 0.454900 0.807800
vn 0.772200 -0.607000 0.187500
vn 0.328200 0.443100 -0.834200
vn -0.107900 0.453200 -0.884800
vn 0.737100 0.460200 -0.494800
vn 0.358000 -0.746900 -0.560300
vn -0.391400 0.298300 -0.870500
vn -0.533800 0.147700 -0.832500
vn -0.598100 -0.775400 0.202600
vn 0.108200 -0.018800 0.993900
vn 0.228900 0.077400 0.970400
vn 0.798400 0.602000 0.014600
vn 0.328500 0.335800 0.882800
vn 0.312100 0.256500 0.914700
vn -0.602300 0.021500 -0.798000
vn -0.625400 -0.060100 -0.777900
vn -0.643500 -0.140800 -0.752300
vn 0.293800 0.176200 0.939500
vt 0.839504 0.118056
vt 0.856743 0.205307
vt 0.741230 0.205307
vt 0.734555 0.106726
vt 0.724541 0.032791
vt 0.813647 0.052618
vt 0.868992 0.081539
vt 0.913398 0.129584
vt 0.940923 0.205307
vt 0.839504 0.292557
vt 0.813647 0.357995
vt 0.724541 0.377822
vt 0.734555 0.303887
vt 0.913398 0.281029
vt 0.868992 0.329074
vt 0.369475 0.299954
vt 0.368286 0.370940
vt 0.245840 0.351447
vt 0.246397 0.288815
vt 0.246768 0.205307
vt 0.370268 0.205307
vt 0.494283 0.205307
vt 0.492822 0.304944
vt 0.490632 0.379672
vt 0.369475 0.110659
vt 0.246397 0.121798
vt 0.245841 0.059166
vt 0.368286 0.039673
vt 0.490632 0.030941
vt 0.492822 0.105669
vt 0.616755 0.103478
vt 0.619174 0.205307
vt 0.613127 0.027106
vt 0.616755 0.307135
vt 0.613126 0.383507
vt 0.123273 0.268175
vt 0.123047 0.315326
vt 0.054743 0.283353
vt 0.030912 0.249131
vt 0.030973 0.205306
vt 0.123423 0.205306
vt 0.123273 0.142438
vt 0.030912 0.161481
vt 0.054744 0.127260
vt 0.123047 0.095287
vt 0.839504 0.118056
vt 0.856743 0.205307
vt 0.968983 0.205307
vt 0.938030 0.133427
vt 0.876123 0.061548
vt 0.805028 0.030806
vt 0.721203 0.008146
vt 0.734555 0.106726
vt 0.741230 0.205307
vt 0.839504 0.292557
vt 0.805028 0.379807
vt 0.876123 0.349065
vt 0.938030 0.277186
vt 0.734555 0.303887
vt 0.721203 0.402467
vt 0.369475 0.299954
vt 0.367890 0.394602
vt 0.489902 0.404581
vt 0.492822 0.304944
vt 0.494283 0.205307
vt 0.370268 0.205307
vt 0.246768 0.205307
vt 0.246397 0.288815
vt 0.245655 0.372324
vt 0.369475 0.110659
vt 0.492822 0.105669
vt 0.489902 0.006032
vt 0.367890 0.016011
vt 0.245655 0.038289
vt 0.246397 0.121798
vt 0.616755 0.103478
vt 0.619174 0.205307
vt 0.611917 0.001649
vt 0.616755 0.307135
vt 0.611917 0.408964
vt 0.123273 0.268175
vt 0.122972 0.331043
vt 0.123423 0.205306
vt 0.000156 0.205306
vt 0.000125 0.242784
vt 0.000064 0.280261
vt 0.123273 0.142438
vt 0.122972 0.079570
vt 0.000064 0.130352
vt 0.000125 0.167829
vt 0.122972 0.331043
vt 0.030806 0.283587
vt 0.245655 0.372324
vt 0.030806 0.283587
vt 0.000125 0.167829
vt 0.030806 0.127026
vt 0.000156 0.205306
vt 0.030806 0.127026
vt 0.805028 0.030806
vt 0.873826 0.071832
vt 0.721203 0.008146
vt 0.873826 0.071832
vt 0.938030 0.277186
vt 0.873826 0.338781
vt 0.968983 0.205307
vt 0.873826 0.338781
vt 0.805028 0.379807
vt 0.721203 0.402467
vt 0.000125 0.242784
vt 0.122972 0.079570
vt 0.245655 0.038289
vt 0.938030 0.133427
vt 0.611917 0.001649
vt 0.489902 0.006032
vt 0.611917 0.408964
vt 0.489902 0.404581
vt 0.367890 0.394602
vt 0.367890 0.016011
f 1/1/1 2/2/2 3/3/3
f 1/1/1 3/3/3 4/4/4
f 1/1/1 4/4/4 5/5/5
f 1/1/1 5/5/5 6/6/6
f 1/1/1 6/6/6 7/7/7
f 1/1/1 7/7/7 8/8/8
f 1/1/1 8/8/8 9/9/9
f 1/1/1 9/9/9 2/2/2
f 10/10/10 11/11/11 12/12/12
f 10/10/10 12/12/12 13/13/13
f 10/10/10 13/13/13 3/3/3
f 10/10/10 3/3/3 2/2/2
f 10/10/10 2/2/2 9/9/9
f 10/10/10 9/9/9 14/14/14
f 10/10/10 14/14/14 15/15/15
f 10/10/10 15/15/15 11/11/11
f 16/16/16 17/17/17 18/18/18
f 16/16/16 18/18/18 19/19/19
f 16/16/16 19/19/19 20/20/20
f 16/16/16 20/20/20 21/21/21
f 16/16/16 21/21/21 22/22/22
f 16/16/16 22/22/22 23/23/23
f 16/16/16 23/23/23 24/24/24
f 16/16/16 24/24/24 17/17/17
f 25/25/25 21/21/21 20/20/20
f 25/25/25 20/20/20 26/26/26
f 25/25/25 26/26/26 27/27/27
f 25/25/25 27/27/27 28/28/28
f 25/25/25 28/28/28 29/29/29
f 25/25/25 29/29/29 30/30/30
f 25/25/25 30/30/30 22/22/22
f 25/25/25 22/22/22 21/21/21
f 31/31/31 32/32/32 22/22/22
f 31/31/31 22/22/22 30/30/30
f 31/31/31 30/30/30 29/29/29
f 31/31/31 29/29/29 33/33/33
f 31/31/31 33/33/33 5/5/5
f 31/31/31 5/5/5 4/4/4
f 31/31/31 4/4/4 3/3/3
f 31/31/31 3/3/3 32/32/32
f 34/34/34 35/35/35 24/24/24
f 34/34/34 24/24/24 23/23/23
f 34/34/34 23/23/23 22/22/22
f 34/34/34 22/22/22 32/32/32
f 34/34/34 32/32/32 3/3/3
f 34/34/34 3/3/3 13/13/13
f 34/34/34 13/13/13 12/12/12
f 34/34/34 12/12/12 35/35/35
f 36/36/36 37/37/37 38/38/38
f 36/36/36 38/38/38 39/39/39
f 36/36/36 39/39/39 40/40/40
f 36/36/36 40/40/40 41/41/41
f 36/36/36 41/41/41 20/20/20
f 36/36/36 20/20/20 19/19/19
f 36/36/36 19/19/19 18/18/18
f 36/36/36 18/18/18 37/37/37
f 42/42/42 41/41/41 40/40/40
f 42/42/42 40/40/40 43/43/43
f 42/42/42 43/43/43 44/44/44
f 42/42/42 44/44/44 45/45/45
f 42/42/42 45/45/45 27/27/27
f 42/42/42 27/27/27 26/26/26
f 42/42/42 26/26/26 20/20/20
f 42/42/42 20/20/20 41/41/41
f 46/46/46 47/47/47 48/48/48
f 46/46/46 48/48/48 49/49/49
f 46/46/46 49/49/49 50/50/50
f 46/46/46 50/50/50 51/51/51
f 46/46/46 51/51/51 52/52/52
f 46/46/46 52/52/52 53/53/53
f 46/46/46 53/53/53 54/54/54
f 46/46/46 54/54/54 47/47/47
f 55/55/55 56/56/56 57/57/57
f 55/55/55 57/57/57 58/58/58
f 55/55/55 58/58/58 48/48/48
f 55/55/55 48/48/48 47/47/47
f 55/55/55 47/47/47 54/54/54
f 55/55/55 54/54/54 59/59/59
f 55/55/55 59/59/59 60/60/60
f 55/55/55 60/60/60 56/56/56
f 61/61/61 62/62/62 63/63/63
f 61/61/61 63/63/63 64/64/64
f 61/61/61 64/64/64 65/65/65
f 61/61/61 65/65/65 66/66/66
f 61/61/61 66/66/66 67/67/67
f 61/61/61 67/67/67 68/68/68
f 61/61/61 68/68/68 69/69/69
f 61/61/61 69/69/69 62/62/62
f 70/70/70 66/66/66 65/65/65
f 70/70/70 65/65/65 71/71/71
f 70/70/70 71/71/71 72/72/72
f 70/70/70 72/72/72 73/73/73
f 70/70/70 73/73/73 74/74/74
f 70/70/70 74/74/74 75/75/75
f 70/70/70 75/75/75 67/67/67
f 70/70/70 67/67/67 66/66/66
f 76/76/76 77/77/77 54/54/54
f 76/76/76 54/54/54 53/53/53
f 76/76/76 53/53/53 52/52/52
f 76/76/76 52/52/52 78/78/78
f 76/76/76 78/78/78 72/72/72
f 76/76/76 72/72/72 71/71/71
f 76/76/76 71/71/71 65/65/65
f 76/76/76 65/65/65 77/77/77
f 79/79/79 80/80/80 60/60/60
f 79/79/79 60/60/60 59/59/59
f 79/79/79 59/59/59 54/54/54
f 79/79/79 54/54/54 77/77/77
f 79/79/79 77/77/77 65/65/65
f 79/79/79 65/65/65 64/64/64
f 79/79/79 64/64/64 63/63/63
f 79/79/79 63/63/63 80/80/80
f 81/81/81 82/82/82 69/69/69
f 81/81/81 69/69/69 68/68/68
f 81/81/81 68/68/68 67/67/67
f 81/81/81 67/67/67 83/83/83
f 81/81/81 83/83/83 84/84/84
f 81/81/81 84/84/84 85/85/85
f 81/81/81 85/85/85 86/86/86
f 81/81/81 86/86/86 82/82/82
f 87/87/87 83/83/83 67/67/67
f 87/87/87 67/67/67 75/75/75
f 87/87/87 75/75/75 74/74/74
f 87/87/87 74/74/74 88/88/88
f 87/87/87 88/88/88 89/89/89
f 87/87/87 89/89/89 90/90/90
f 87/87/87 90/90/90 84/84/84
f 87/87/87 84/84/84 83/83/83
f 91/91/91 92/92/92 38/38/38
f 91/91/91 38/38/38 37/37/37
f 91/91/91 37/37/37 18/18/18
f 91/91/91 18/18/18 93/93/93
f 91/91/91 93/93/93 69/69/69
f 91/91/91 69/69/69 82/82/82
f 91/91/91 82/82/82 94/94/94
f 91/91/91 94/94/94 92/92/92
f 95/95/95 96/96/96 44/44/44
f 95/95/95 44/44/44 43/43/43
f 95/95/95 43/43/43 40/40/40
f 95/95/95 40/40/40 97/97/97
f 95/95/95 97/97/97 84/84/84
f 95/95/95 84/84/84 90/90/90
f 95/95/95 90/90/90 98/98/98
f 95/95/95 98/98/98 96/96/96
f 99/99/99 100/100/100 7/7/7
f 99/99/99 7/7/7 6/6/6
f 99/99/99 6/6/6 5/5/5
f 99/99/99 5/5/5 101/101/101
f 99/99/99 101/101/101 52/52/52
f 99/99/99 52/52/52 51/51/51
f 99/99/99 51/51/51 102/102/102
f 99/99/99 102/102/102 100/100/100
f 103/103/103 104/104/104 15/15/15
f 103/103/103 15/15/15 14/14/14
f 103/103/103 14/14/14 9/9/9
f 103/103/103 9/9/9 105/105/105
f 103/103/103 105/105/105 48/48/48
f 103/103/103 48/48/48 58/58/58
f 103/103/103 58/58/58 106/106/106
f 103/103/103 106/106/106 104/104/104
f 107/107/107 108/108/108 12/12/12
f 107/107/107 12/12/12 11/11/11
f 107/107/107 11/11/11 15/15/15
f 107/107/107 15/15/15 104/104/104
f 107/107/107 104/104/104 106/106/106
f 107/107/107 106/106/106 56/56/56
f 107/107/107 56/56/56 60/60/60
f 107/107/107 60/60/60 108/108/108
f 109/109/109 97/97/97 40/40/40
f 109/109/109 40/40/40 39/39/39
f 109/109/109 39/39/39 38/38/38
f 109/109/109 38/38/38 92/92/92
f 109/109/109 92/92/92 94/94/94
f 109/109/109 94/94/94 85/85/85
f 109/109/109 85/85/85 84/84/84
f 109/109/109 84/84/84 97/97/97
f 110/110/110 111/111/111 27/27/27
f 110/110/110 27/27/27 45/45/45
f 110/110/110 45/45/45 44/44/44
f 110/110/110 44/44/44 96/96/96
f 110/110/110 96/96/96 98/98/98
f 110/110/110 98/98/98 88/88/88
f 110/110/110 88/88/88 74/74/74
f 110/110/110 74/74/74 111/111/111
f 112/112/112 105/105/105 9/9/9
f 112/112/112 9/9/9 8/8/8
f 112/112/112 8/8/8 7/7/7
f 112/112/112 7/7/7 100/100/100
f 112/112/112 100/100/100 102/102/102
f 112/112/112 102/102/102 49/49/49
f 112/112/112 49/49/49 48/48/48
f 112/112/112 48/48/48 105/105/105
f 113/113/113 101/101/101 5/5/5
f 113/113/113 5/5/5 33/33/33
f 113/113/113 33/33/33 29/29/29
f 113/113/113 29/29/29 114/114/114
f 113/113/113 114/114/114 72/72/72
f 113/113/113 72/72/72 78/78/78
f 113/113/113 78/78/78 52/52/52
f 113/113/113 52/52/52 101/101/101
f 115/115/115 116/116/116 24/24/24
f 115/115/115 24/24/24 35/35/35
f 115/115/115 35/35/35 12/12/12
f 115/115/115 12/12/12 108/108/108
f 115/115/115 108/108/108 60/60/60
f 115/115/115 60/60/60 80/80/80
f 115/115/115 80/80/80 63/63/63
f 115/115/115 63/63/63 116/116/116
f 117/117/117 93/93/93 18/18/18
f 117/117/117 18/18/18 17/17/17
f 117/117/117 17/17/17 24/24/24
f 117/117/117 24/24/24 116/116/116
f 117/117/117 116/116/116 63/63/63
f 117/117/117 63/63/63 62/62/62
f 117/117/117 62/62/62 69/69/69
f 117/117/117 69/69/69 93/93/93
f 118/118/118 114/114/114 29/29/29
f 118/118/118 29/29/29 28/28/28
f 118/118/118 28/28/28 27/27/27
f 118/118/118 27/27/27 111/111/111
f 118/118/118 111/111/111 74/74/74
f 118/118/118 74/74/74 73/73/73
f 118/118/118 73/73/73 72/72/72
f 118/118/118 72/72/72 114/114/114
