v -2.361089 0.717338 -1.084188
v -2.358823 0.717741 -1.084622
v -2.359783 0.716531 -1.087329
v -2.362228 0.716147 -1.086520
v -2.364195 0.716001 -1.086096
v -2.362992 0.717106 -1.084232
v -2.361781 0.717672 -1.083172
v -2.360161 0.718091 -1.082538
v -2.358080 0.718532 -1.082609
v -2.357113 0.718408 -1.086075
v -2.356019 0.718983 -1.087542
v -2.356274 0.718134 -1.089857
v -2.357709 0.717364 -1.088665
v -2.356720 0.719017 -1.084172
v -2.356134 0.719192 -1.085854
v -2.360084 0.712095 -1.096532
v -2.358533 0.712719 -1.097464
v -2.359542 0.710400 -1.099678
v -2.360907 0.709839 -1.098843
v -2.362784 0.709188 -1.097813
v -2.362213 0.711367 -1.095376
v -2.361543 0.713367 -1.092832
v -2.359326 0.714147 -1.094050
v -2.357719 0.714828 -1.095041
v -2.364512 0.710903 -1.094429
v -2.364823 0.708785 -1.096984
v -2.366404 0.708552 -1.096420
v -2.366292 0.710630 -1.093780
v -2.365835 0.712643 -1.091188
v -2.363958 0.712900 -1.091851
v -2.363190 0.714658 -1.089144
v -2.360711 0.715080 -1.090108
v -2.365139 0.714473 -1.088521
v -2.358490 0.715923 -1.091375
v -2.356903 0.716691 -1.092431
v -2.361937 0.707450 -1.101009
v -2.360941 0.707907 -1.101664
v -2.361947 0.706366 -1.102577
v -2.362770 0.705588 -1.102563
v -2.363692 0.705198 -1.101989
v -2.363318 0.706936 -1.100216
v -2.364859 0.706664 -1.099622
v -2.364773 0.705049 -1.101612
v -2.365550 0.705396 -1.100866
v -2.366066 0.706527 -1.099231
v -2.361027 0.717118 -1.084100
v -2.358731 0.717527 -1.084548
v -2.358012 0.718370 -1.082557
v -2.360118 0.717924 -1.082475
v -2.361755 0.717548 -1.083122
v -2.362962 0.716939 -1.084160
v -2.364158 0.715838 -1.086019
v -2.362159 0.715932 -1.086425
v -2.359687 0.716320 -1.087248
v -2.356991 0.718204 -1.086016
v -2.355914 0.718837 -1.087506
v -2.356060 0.719081 -1.085826
v -2.356628 0.718863 -1.084132
v -2.357587 0.717163 -1.088596
v -2.356170 0.717988 -1.089812
v -2.359958 0.711915 -1.096421
v -2.358430 0.712587 -1.097386
v -2.357617 0.714691 -1.094972
v -2.359202 0.713959 -1.093951
v -2.361439 0.713172 -1.092723
v -2.362106 0.711181 -1.095256
v -2.362675 0.709008 -1.097686
v -2.360779 0.709665 -1.098726
v -2.359437 0.710272 -1.099594
v -2.364424 0.710713 -1.094300
v -2.363875 0.712701 -1.091733
v -2.365783 0.712492 -1.091095
v -2.366236 0.710485 -1.093679
v -2.366347 0.708412 -1.096314
v -2.364733 0.708600 -1.096848
v -2.363114 0.714450 -1.089038
v -2.360612 0.714877 -1.090013
v -2.365094 0.714316 -1.088436
v -2.358368 0.715728 -1.091292
v -2.356801 0.716549 -1.092374
v -2.361807 0.707279 -1.100889
v -2.360834 0.707782 -1.101579
v -2.363209 0.706758 -1.100086
v -2.363610 0.705065 -1.101891
v -2.362672 0.705460 -1.102473
v -2.361871 0.706272 -1.102513
v -2.364770 0.706481 -1.099482
v -2.366010 0.706388 -1.099122
v -2.365506 0.705294 -1.100786
v -2.364707 0.704912 -1.101507
v -2.360560 0.708004 -1.101846
v -2.362045 0.705920 -1.103045
v -2.359038 0.710531 -1.099920
v -2.361871 0.706272 -1.102513
v -2.364715 0.704450 -1.102229
v -2.365655 0.704948 -1.101331
v -2.363780 0.704559 -1.102536
v -2.365506 0.705294 -1.100786
v -2.363616 0.716954 -1.084213
v -2.361989 0.717704 -1.082959
v -2.364838 0.715880 -1.085919
v -2.361755 0.717548 -1.083122
v -2.356548 0.719152 -1.083520
v -2.355879 0.719349 -1.085860
v -2.357803 0.718724 -1.081915
v -2.356060 0.719081 -1.085826
v -2.355605 0.719111 -1.088017
v -2.355747 0.718327 -1.090235
v -2.363004 0.704910 -1.103041
v -2.366446 0.706419 -1.099052
v -2.366908 0.708412 -1.096184
v -2.359833 0.718267 -1.081961
v -2.365772 0.714341 -1.088274
v -2.366440 0.712490 -1.090925
v -2.356326 0.716884 -1.092759
v -2.357136 0.714994 -1.095342
v -2.357968 0.712869 -1.097741
v -2.366863 0.710474 -1.093518
vn -0.169300 0.919500 -0.354700
vn -0.361400 0.897600 -0.252200
vn -0.379600 0.873700 -0.304100
vn -0.208900 0.893200 -0.398000
vn -0.224800 0.881200 -0.415800
vn -0.177000 0.919000 -0.352200
vn -0.143000 0.941500 -0.305000
vn -0.177000 0.949600 -0.258600
vn -0.330500 0.928400 -0.169600
vn -0.549300 0.817200 -0.174200
vn -0.543300 0.820300 -0.178400
vn -0.548200 0.794100 -0.262300
vn -0.548700 0.801800 -0.236600
vn -0.487400 0.866000 -0.111300
vn -0.536500 0.835600 -0.118300
vn -0.533700 0.708800 -0.461300
vn -0.504300 0.714600 -0.484700
vn -0.507400 0.694600 -0.509900
vn -0.546200 0.684900 -0.482300
vn -0.448600 0.710700 -0.541900
vn -0.441000 0.738300 -0.510300
vn -0.423400 0.789600 -0.444000
vn -0.529000 0.750500 -0.396100
vn -0.510300 0.749000 -0.422500
vn -0.342800 0.760200 -0.551900
vn -0.341500 0.740000 -0.579500
vn -0.386700 0.727100 -0.567200
vn -0.378300 0.748600 -0.544500
vn -0.343800 0.793900 -0.501500
vn -0.315000 0.808100 -0.497800
vn -0.264800 0.858000 -0.440000
vn -0.400400 0.839500 -0.367200
vn -0.287000 0.842600 -0.455700
vn -0.534700 0.785400 -0.311900
vn -0.527600 0.777800 -0.341500
vn -0.569500 0.667100 -0.480200
vn -0.529500 0.675100 -0.513600
vn -0.558600 0.653600 -0.510600
vn -0.595700 0.620600 -0.509800
vn -0.460200 0.657900 -0.596200
vn -0.451900 0.697300 -0.556400
vn -0.320000 0.734200 -0.598700
vn -0.308100 0.698100 -0.646200
vn -0.342500 0.711800 -0.613100
vn -0.369300 0.718300 -0.589600
vn 0.150200 -0.910700 0.384700
vn 0.366600 -0.891400 0.266600
vn 0.385400 -0.864900 0.321500
vn 0.089800 -0.878700 0.468800
vn -0.015300 -0.851500 0.524100
vn 0.005400 -0.860300 0.509600
vn 0.073400 -0.867800 0.491500
vn 0.195000 -0.893400 0.404600
vn 0.379600 -0.873800 0.304000
vn 0.578100 -0.795500 0.181500
vn 0.726800 -0.666200 0.167100
vn 0.745000 -0.646800 0.163100
vn 0.658900 -0.725500 0.198600
vn 0.561100 -0.794900 0.230800
vn 0.679900 -0.704500 0.203600
vn 0.546700 -0.704400 0.452700
vn 0.633100 -0.669400 0.388700
vn 0.630800 -0.696600 0.341600
vn 0.541200 -0.745600 0.388700
vn 0.423400 -0.789500 0.444100
vn 0.441100 -0.738200 0.510400
vn 0.448600 -0.710600 0.541900
vn 0.560900 -0.681000 0.470700
vn 0.652100 -0.657700 0.377100
vn 0.327600 -0.763400 0.556700
vn 0.300900 -0.810300 0.502800
vn 0.197700 -0.813200 0.547300
vn 0.219500 -0.780700 0.585100
vn 0.196000 -0.780500 0.593600
vn 0.323400 -0.745000 0.583400
vn 0.251200 -0.859400 0.445300
vn 0.400300 -0.839500 0.367200
vn 0.143200 -0.849600 0.507600
vn 0.546400 -0.779900 0.305100
vn 0.646300 -0.714200 0.268700
vn 0.586600 -0.671400 0.452900
vn 0.684000 -0.655300 0.320400
vn 0.449900 -0.705500 0.547600
vn 0.440500 -0.740200 0.507900
vn 0.629000 -0.688300 0.361300
vn 0.700200 -0.656100 0.281300
vn 0.292500 -0.750600 0.592500
vn 0.136200 -0.802800 0.580500
vn 0.099200 -0.818000 0.566500
vn 0.209600 -0.801300 0.560300
vn 0.642500 0.113900 -0.757700
vn 0.366200 -0.147900 -0.918700
vn 0.729700 0.193200 -0.655800
vn 0.700200 -0.656100 0.281300
vn -0.385500 -0.675300 -0.628700
vn -0.808900 -0.464100 -0.361000
vn -0.110800 -0.745900 -0.656700
vn 0.099200 -0.818000 0.566500
vn -0.808600 0.207200 0.550700
vn -0.580900 0.329200 0.744400
vn -0.906300 0.078300 0.415200
vn -0.015300 -0.851500 0.524100
vn 0.673100 0.516100 0.529700
vn 0.722200 0.680100 0.125800
vn 0.338600 0.309100 0.888700
vn 0.745000 -0.646800 0.163100
vn 0.754200 0.627900 -0.191700
vn 0.761500 0.527400 -0.376700
vn 0.029200 -0.563500 -0.825600
vn -0.949200 -0.314600 -0.002000
vn -0.954800 -0.259900 0.144200
vn -0.190600 0.283600 0.939800
vn -0.944200 -0.034200 0.327600
vn -0.952500 -0.109300 0.284400
vn 0.764700 0.425600 -0.483900
vn 0.768500 0.353500 -0.533300
vn 0.766800 0.279600 -0.577700
vn -0.953500 -0.183200 0.239400
vt 0.839504 0.118056
vt 0.856743 0.205307
vt 0.741230 0.205307
vt 0.734555 0.106726
vt 0.724541 0.032791
vt 0.813647 0.052618
vt 0.868992 0.081539
vt 0.913398 0.129584
vt 0.940923 0.205307
vt 0.839504 0.292557
vt 0.813647 0.357995
vt 0.724541 0.377822
vt 0.734555 0.303887
vt 0.913398 0.281029
vt 0.868992 0.329074
vt 0.369475 0.299954
vt 0.368286 0.370940
vt 0.245840 0.351447
vt 0.246397 0.288815
vt 0.246768 0.205307
vt 0.370268 0.205307
vt 0.494283 0.205307
vt 0.492822 0.304944
vt 0.490632 0.379672
vt 0.369475 0.110659
vt 0.246397 0.121798
vt 0.245841 0.059166
vt 0.368286 0.039673
vt 0.490632 0.030941
vt 0.492822 0.105669
vt 0.616755 0.103478
vt 0.619174 0.205307
vt 0.613127 0.027106
vt 0.616755 0.307135
vt 0.613126 0.383507
vt 0.123273 0.268175
vt 0.123047 0.315326
vt 0.054743 0.283353
vt 0.030912 0.249131
vt 0.030973 0.205306
vt 0.123423 0.205306
vt 0.123273 0.142438
vt 0.030912 0.161481
vt 0.054744 0.127260
vt 0.123047 0.095287
vt 0.839504 0.118056
vt 0.856743 0.205307
vt 0.968983 0.205307
vt 0.938030 0.133427
vt 0.876123 0.061548
vt 0.805028 0.030806
vt 0.721203 0.008146
vt 0.734555 0.106726
vt 0.741230 0.205307
vt 0.839504 0.292557
vt 0.805028 0.379807
vt 0.876123 0.349065
vt 0.938030 0.277186
vt 0.734555 0.303887
vt 0.721203 0.402467
vt 0.369475 0.299954
vt 0.367890 0.394602
vt 0.489902 0.404581
vt 0.492822 0.304944
vt 0.494283 0.205307
vt 0.370268 0.205307
vt 0.246768 0.205307
vt 0.246397 0.288815
vt 0.245655 0.372324
vt 0.369475 0.110659
vt 0.492822 0.105669
vt 0.489902 0.006032
vt 0.367890 0.016011
vt 0.245655 0.038289
vt 0.246397 0.121798
vt 0.616755 0.103478
vt 0.619174 0.205307
vt 0.611917 0.001649
vt 0.616755 0.307135
vt 0.611917 0.408964
vt 0.123273 0.268175
vt 0.122972 0.331043
vt 0.123423 0.205306
vt 0.000156 0.205306
vt 0.000125 0.242784
vt 0.000064 0.280261
vt 0.123273 0.142438
vt 0.122972 0.079570
vt 0.000064 0.130352
vt 0.000125 0.167829
vt 0.122972 0.331043
vt 0.030806 0.283587
vt 0.245655 0.372324
vt 0.030806 0.283587
vt 0.000125 0.167829
vt 0.030806 0.127026
vt 0.000156 0.205306
vt 0.030806 0.127026
vt 0.805028 0.030806
vt 0.873826 0.071832
vt 0.721203 0.008146
vt 0.873826 0.071832
vt 0.938030 0.277186
vt 0.873826 0.338781
vt 0.968983 0.205307
vt 0.873826 0.338781
vt 0.805028 0.379807
vt 0.721203 0.402467
vt 0.000125 0.242784
vt 0.122972 0.079570
vt 0.245655 0.038289
vt 0.938030 0.133427
vt 0.611917 0.001649
vt 0.489902 0.006032
vt 0.611917 0.408964
vt 0.489902 0.404581
vt 0.367890 0.394602
vt 0.367890 0.016011
f 1/1/1 2/2/2 3/3/3
f 1/1/1 3/3/3 4/4/4
f 1/1/1 4/4/4 5/5/5
f 1/1/1 5/5/5 6/6/6
f 1/1/1 6/6/6 7/7/7
f 1/1/1 7/7/7 8/8/8
f 1/1/1 8/8/8 9/9/9
f 1/1/1 9/9/9 2/2/2
f 10/10/10 11/11/11 12/12/12
f 10/10/10 12/12/12 13/13/13
f 10/10/10 13/13/13 3/3/3
f 10/10/10 3/3/3 2/2/2
f 10/10/10 2/2/2 9/9/9
f 10/10/10 9/9/9 14/14/14
f 10/10/10 14/14/14 15/15/15
f 10/10/10 15/15/15 11/11/11
f 16/16/16 17/17/17 18/18/18
f 16/16/16 18/18/18 19/19/19
f 16/16/16 19/19/19 20/20/20
f 16/16/16 20/20/20 21/21/21
f 16/16/16 21/21/21 22/22/22
f 16/16/16 22/22/22 23/23/23
f 16/16/16 23/23/23 24/24/24
f 16/16/16 24/24/24 17/17/17
f 25/25/25 21/21/21 20/20/20
f 25/25/25 20/20/20 26/26/26
f 25/25/25 26/26/26 27/27/27
f 25/25/25 27/27/27 28/28/28
f 25/25/25 28/28/28 29/29/29
f 25/25/25 29/29/29 30/30/30
f 25/25/25 30/30/30 22/22/22
f 25/25/25 22/22/22 21/21/21
f 31/31/31 32/32/32 22/22/22
f 31/31/31 22/22/22 30/30/30
f 31/31/31 30/30/30 29/29/29
f 31/31/31 29/29/29 33/33/33
f 31/31/31 33/33/33 5/5/5
f 31/31/31 5/5/5 4/4/4
f 31/31/31 4/4/4 3/3/3
f 31/31/31 3/3/3 32/32/32
f 34/34/34 35/35/35 24/24/24
f 34/34/34 24/24/24 23/23/23
f 34/34/34 23/23/23 22/22/22
f 34/34/34 22/22/22 32/32/32
f 34/34/34 32/32/32 3/3/3
f 34/34/34 3/3/3 13/13/13
f 34/34/34 13/13/13 12/12/12
f 34/34/34 12/12/12 35/35/35
f 36/36/36 37/37/37 38/38/38
f 36/36/36 38/38/38 39/39/39
f 36/36/36 39/39/39 40/40/40
f 36/36/36 40/40/40 41/41/41
f 36/36/36 41/41/41 20/20/20
f 36/36/36 20/20/20 19/19/19
f 36/36/36 19/19/19 18/18/18
f 36/36/36 18/18/18 37/37/37
f 42/42/42 41/41/41 40/40/40
f 42/42/42 40/40/40 43/43/43
f 42/42/42 43/43/43 44/44/44
f 42/42/42 44/44/44 45/45/45
f 42/42/42 45/45/45 27/27/27
f 42/42/42 27/27/27 26/26/26
f 42/42/42 26/26/26 20/20/20
f 42/42/42 20/20/20 41/41/41
f 46/46/46 47/47/47 48/48/48
f 46/46/46 48/48/48 49/49/49
f 46/46/46 49/49/49 50/50/50
f 46/46/46 50/50/50 51/51/51
f 46/46/46 51/51/51 52/52/52
f 46/46/46 52/52/52 53/53/53
f 46/46/46 53/53/53 54/54/54
f 46/46/46 54/54/54 47/47/47
f 55/55/55 56/56/56 57/57/57
f 55/55/55 57/57/57 58/58/58
f 55/55/55 58/58/58 48/48/48
f 55/55/55 48/48/48 47/47/47
f 55/55/55 47/47/47 54/54/54
f 55/55/55 54/54/54 59/59/59
f 55/55/55 59/59/59 60/60/60
f 55/55/55 60/60/60 56/56/56
f 61/61/61 62/62/62 63/63/63
f 61/61/61 63/63/63 64/64/64
f 61/61/61 64/64/64 65/65/65
f 61/61/61 65/65/65 66/66/66
f 61/61/61 66/66/66 67/67/67
f 61/61/61 67/67/67 68/68/68
f 61/61/61 68/68/68 69/69/69
f 61/61/61 69/69/69 62/62/62
f 70/70/70 66/66/66 65/65/65
f 70/70/70 65/65/65 71/71/71
f 70/70/70 71/71/71 72/72/72
f 70/70/70 72/72/72 73/73/73
f 70/70/70 73/73/73 74/74/74
f 70/70/70 74/74/74 75/75/75
f 70/70/70 75/75/75 67/67/67
f 70/70/70 67/67/67 66/66/66
f 76/76/76 77/77/77 54/54/54
f 76/76/76 54/54/54 53/53/53
f 76/76/76 53/53/53 52/52/52
f 76/76/76 52/52/52 78/78/78
f 76/76/76 78/78/78 72/72/72
f 76/76/76 72/72/72 71/71/71
f 76/76/76 71/71/71 65/65/65
f 76/76/76 65/65/65 77/77/77
f 79/79/79 80/80/80 60/60/60
f 79/79/79 60/60/60 59/59/59
f 79/79/79 59/59/59 54/54/54
f 79/79/79 54/54/54 77/77/77
f 79/79/79 77/77/77 65/65/65
f 79/79/79 65/65/65 64/64/64
f 79/79/79 64/64/64 63/63/63
f 79/79/79 63/63/63 80/80/80
f 81/81/81 82/82/82 69/69/69
f 81/81/81 69/69/69 68/68/68
f 81/81/81 68/68/68 67/67/67
f 81/81/81 67/67/67 83/83/83
f 81/81/81 83/83/83 84/84/84
f 81/81/81 84/84/84 85/85/85
f 81/81/81 85/85/85 86/86/86
f 81/81/81 86/86/86 82/82/82
f 87/87/87 83/83/83 67/67/67
f 87/87/87 67/67/67 75/75/75
f 87/87/87 75/75/75 74/74/74
f 87/87/87 74/74/74 88/88/88
f 87/87/87 88/88/88 89/89/89
f 87/87/87 89/89/89 90/90/90
f 87/87/87 90/90/90 84/84/84
f 87/87/87 84/84/84 83/83/83
f 91/91/91 92/92/92 38/38/38
f 91/91/91 38/38/38 37/37/37
f 91/91/91 37/37/37 18/18/18
f 91/91/91 18/18/18 93/93/93
f 91/91/91 93/93/93 69/69/69
f 91/91/91 69/69/69 82/82/82
f 91/91/91 82/82/82 94/94/94
f 91/91/91 94/94/94 92/92/92
f 95/95/95 96/96/96 44/44/44
f 95/95/95 44/44/44 43/43/43
f 95/95/95 43/43/43 40/40/40
f 95/95/95 40/40/40 97/97/97
f 95/95/95 97/97/97 84/84/84
f 95/95/95 84/84/84 90/90/90
f 95/95/95 90/90/90 98/98/98
f 95/95/95 98/98/98 96/96/96
f 99/99/99 100/100/100 7/7/7
f 99/99/99 7/7/7 6/6/6
f 99/99/99 6/6/6 5/5/5
f 99/99/99 5/5/5 101/101/101
f 99/99/99 101/101/101 52/52/52
f 99/99/99 52/52/52 51/51/51
f 99/99/99 51/51/51 102/102/102
f 99/99/99 102/102/102 100/100/100
f 103/103/103 104/104/104 15/15/15
f 103/103/103 15/15/15 14/14/14
f 103/103/103 14/14/14 9/9/9
f 103/103/103 9/9/9 105/105/105
f 103/103/103 105/105/105 48/48/48
f 103/103/103 48/48/48 58/58/58
f 103/103/103 58/58/58 106/106/106
f 103/103/103 106/106/106 104/104/104
f 107/107/107 108/108/108 12/12/12
f 107/107/107 12/12/12 11/11/11
f 107/107/107 11/11/11 15/15/15
f 107/107/107 15/15/15 104/104/104
f 107/107/107 104/104/104 106/106/106
f 107/107/107 106/106/106 56/56/56
f 107/107/107 56/56/56 60/60/60
f 107/107/107 60/60/60 108/108/108
f 109/109/109 97/97/97 40/40/40
f 109/109/109 40/40/40 39/39/39
f 109/109/109 39/39/39 38/38/38
f 109/109/109 38/38/38 92/92/92
f 109/109/109 92/92/92 94/94/94
f 109/109/109 94/94/94 85/85/85
f 109/109/109 85/85/85 84/84/84
f 109/109/109 84/84/84 97/97/97
f 110/110/110 111/111/111 27/27/27
f 110/110/110 27/27/27 45/45/45
f 110/110/110 45/45/45 44/44/44
f 110/110/110 44/44/44 96/96/96
f 110/110/110 96/96/96 98/98/98
f 110/110/110 98/98/98 88/88/88
f 110/110/110 88/88/88 74/74/74
f 110/110/110 74/74/74 111/111/111
f 112/112/112 105/105/105 9/9/9
f 112/112/112 9/9/9 8/8/8
f 112/112/112 8/8/8 7/7/7
f 112/112/112 7/7/7 100/100/100
f 112/112/112 100/100/100 102/102/102
f 112/112/112 102/102/102 49/49/49
f 112/112/112 49/49/49 48/48/48
f 112/112/112 48/48/48 105/105/105
f 113/113/113 101/101/101 5/5/5
f 113/113/113 5/5/5 33/33/33
f 113/113/113 33/33/33 29/29/29
f 113/113/113 29/29/29 114/114/114
f 113/113/113 114/114/114 72/72/72
f 113/113/113 72/72/72 78/78/78
f 113/113/113 78/78/78 52/52/52
f 113/113/113 52/52/52 101/101/101
f 115/115/115 116/116/116 24/24/24
f 115/115/115 24/24/24 35/35/35
f 115/115/115 35/35/35 12/12/12
f 115/115/115 12/12/12 108/108/108
f 115/115/115 108/108/108 60/60/60
f 115/115/115 60/60/60 80/80/80
f 115/115/115 80/80/80 63/63/63
f 115/115/115 63/63/63 116/116/116
f 117/117/117 93/93/93 18/18/18
f 117/117/117 18/18/18 17/17/17
f 117/117/117 17/17/17 24/24/24
f 117/117/117 24/24/24 116/116/116
f 117/117/117 116/116/116 63/63/63
f 117/117/117 63/63/63 62/62/62
f 117/117/117 62/62/62 69/69/69
f 117/117/117 69/69/69 93/93/93
f 118/118/118 114/114/114 29/29/29
f 118/118/118 29/29/29 28/28/28
f 118/118/118 28/28/28 27/27/27
f 118/118/118 27/27/27 111/111/111
f 118/118/118 111/111/111 74/74/74
f 118/118/118 74/74/74 73/73/73
f 118/118/118 73/73/73 72/72/72
f 118/118/118 72/72/72 114/114/114
