v -2.406745 0.722106 -1.075487
v -2.404244 0.722861 -1.074792
v -2.404099 0.723063 -1.078383
v -2.406924 0.722114 -1.078779
v -2.409159 0.721640 -1.079237
v -2.408735 0.721803 -1.076411
v -2.407909 0.721858 -1.074625
v -2.406466 0.722015 -1.073154
v -2.404294 0.722602 -1.072166
v -2.402063 0.724415 -1.075169
v -2.400524 0.725852 -1.075853
v -2.399832 0.726240 -1.078603
v -2.401603 0.724738 -1.078418
v -2.402414 0.724013 -1.072879
v -2.401260 0.725137 -1.074173
v -2.400334 0.723563 -1.089554
v -2.398490 0.724780 -1.089515
v -2.398308 0.723584 -1.093202
v -2.399933 0.722493 -1.093229
v -2.402156 0.721179 -1.093318
v -2.402853 0.722091 -1.089662
v -2.403439 0.722766 -1.085953
v -2.400815 0.724331 -1.085843
v -2.398904 0.725641 -1.085811
v -2.405548 0.720992 -1.089908
v -2.404544 0.720219 -1.093542
v -2.406388 0.719599 -1.093751
v -2.407625 0.720275 -1.090136
v -2.408460 0.720928 -1.086460
v -2.406269 0.721641 -1.086214
v -2.406746 0.721987 -1.082429
v -2.403842 0.723061 -1.082148
v -2.409019 0.721366 -1.082707
v -2.401213 0.724716 -1.082053
v -2.399322 0.726148 -1.082048
v -2.399774 0.721198 -1.096912
v -2.398585 0.722067 -1.096914
v -2.399013 0.720951 -1.098962
v -2.399728 0.720114 -1.099667
v -2.400826 0.719360 -1.099681
v -2.401413 0.720177 -1.096962
v -2.403215 0.719501 -1.097146
v -2.402086 0.718951 -1.099828
v -2.403255 0.718859 -1.099251
v -2.404618 0.719091 -1.097324
v -2.406656 0.721837 -1.075488
v -2.404119 0.722608 -1.074791
v -2.404201 0.722412 -1.072169
v -2.406401 0.721813 -1.073159
v -2.407869 0.721706 -1.074627
v -2.408687 0.721596 -1.076413
v -2.409106 0.721434 -1.079229
v -2.406832 0.721847 -1.078768
v -2.403975 0.722809 -1.078371
v -2.401904 0.724181 -1.075166
v -2.400389 0.725688 -1.075849
v -2.401163 0.725013 -1.074172
v -2.402293 0.723840 -1.072880
v -2.401449 0.724502 -1.078403
v -2.399701 0.726072 -1.078590
v -2.400194 0.723326 -1.089486
v -2.398374 0.724609 -1.089464
v -2.398784 0.725469 -1.085772
v -2.400671 0.724092 -1.085792
v -2.403318 0.722514 -1.085903
v -2.402735 0.721841 -1.089596
v -2.402039 0.720932 -1.093241
v -2.399794 0.722258 -1.093150
v -2.398193 0.723414 -1.093143
v -2.405452 0.720733 -1.089844
v -2.406172 0.721379 -1.086166
v -2.408400 0.720726 -1.086425
v -2.407565 0.720076 -1.090089
v -2.406329 0.719401 -1.093696
v -2.404450 0.719962 -1.093467
v -2.406651 0.721722 -1.082401
v -2.403719 0.722807 -1.082118
v -2.408962 0.721161 -1.082686
v -2.401063 0.724478 -1.082021
v -2.399197 0.725978 -1.082022
v -2.399634 0.720965 -1.096830
v -2.398468 0.721899 -1.096852
v -2.401298 0.719930 -1.096881
v -2.400739 0.719175 -1.099619
v -2.399622 0.719940 -1.099605
v -2.398930 0.720825 -1.098916
v -2.403123 0.719244 -1.097067
v -2.404562 0.718894 -1.097266
v -2.403211 0.718714 -1.099207
v -2.402018 0.718758 -1.099768
v -2.398134 0.722284 -1.096887
v -2.398860 0.720749 -1.099673
v -2.397713 0.723873 -1.093167
v -2.398930 0.720825 -1.098916
v -2.401680 0.718682 -1.100695
v -2.403110 0.718652 -1.099962
v -2.400592 0.719005 -1.100559
v -2.403211 0.718714 -1.099207
v -2.409381 0.721609 -1.076720
v -2.408212 0.721764 -1.074487
v -2.409884 0.721389 -1.079386
v -2.407869 0.721706 -1.074627
v -2.402476 0.723803 -1.072117
v -2.401018 0.725312 -1.073998
v -2.404269 0.722431 -1.071293
v -2.401163 0.725013 -1.074172
v -2.399947 0.726261 -1.076079
v -2.399180 0.726668 -1.078658
v -2.399665 0.719675 -1.100558
v -2.405064 0.718866 -1.097358
v -2.406979 0.719303 -1.093797
v -2.406345 0.721895 -1.072380
v -2.409755 0.721067 -1.082790
v -2.409166 0.720599 -1.086527
v -2.398633 0.726552 -1.082034
v -2.398211 0.726002 -1.085783
v -2.397822 0.725111 -1.089480
v -2.408294 0.719946 -1.090191
vn -0.239400 0.970000 0.041700
vn -0.444500 0.894300 0.050500
vn -0.441800 0.897100 -0.009200
vn -0.258700 0.965700 -0.019400
vn -0.266000 0.962900 -0.045100
vn -0.247100 0.968100 0.040900
vn -0.233500 0.967000 0.101700
vn -0.280400 0.950700 0.131900
vn -0.445500 0.883700 0.143500
vn -0.627000 0.778800 0.015400
vn -0.620700 0.783800 0.015500
vn -0.595900 0.800200 -0.067500
vn -0.605300 0.794800 -0.043000
vn -0.597000 0.794600 0.110400
vn -0.634800 0.769100 0.074400
vn -0.507700 0.819800 -0.264800
vn -0.474600 0.837200 -0.271500
vn -0.466200 0.831400 -0.302300
vn -0.508700 0.808100 -0.296900
vn -0.405200 0.863100 -0.301400
vn -0.412700 0.872800 -0.260500
vn -0.425600 0.887400 -0.177200
vn -0.530500 0.825800 -0.191000
vn -0.505100 0.837900 -0.207000
vn -0.313100 0.915800 -0.251600
vn -0.299900 0.911100 -0.282700
vn -0.343300 0.892000 -0.294000
vn -0.346200 0.900600 -0.262800
vn -0.335300 0.921600 -0.195400
vn -0.312200 0.933500 -0.176200
vn -0.291800 0.952300 -0.089100
vn -0.436200 0.895900 -0.083700
vn -0.305100 0.945200 -0.116600
vn -0.567100 0.816500 -0.107800
vn -0.550500 0.824100 -0.133300
vn -0.527500 0.790500 -0.311000
vn -0.481900 0.815100 -0.321400
vn -0.505700 0.793600 -0.338300
vn -0.534300 0.762500 -0.364800
vn -0.389800 0.841800 -0.373400
vn -0.401400 0.858000 -0.320400
vn -0.273000 0.916000 -0.293700
vn -0.241000 0.907200 -0.344700
vn -0.285600 0.902200 -0.323300
vn -0.318700 0.895600 -0.310300
vn 0.211100 -0.977300 -0.019600
vn 0.443900 -0.895400 -0.034100
vn 0.440500 -0.897300 0.029500
vn 0.123800 -0.991400 0.043200
vn 0.003900 -0.997900 0.064300
vn 0.029300 -0.998000 0.055700
vn 0.099800 -0.993100 0.061000
vn 0.243900 -0.969600 0.020100
vn 0.441800 -0.897100 0.009100
vn 0.647400 -0.762000 0.010000
vn 0.765100 -0.635100 0.105700
vn 0.779500 -0.615400 0.116900
vn 0.704300 -0.705000 0.082500
vn 0.617200 -0.785500 0.045400
vn 0.718200 -0.688100 0.103100
vn 0.521600 -0.811300 0.264000
vn 0.614100 -0.746600 0.256000
vn 0.631000 -0.748300 0.204400
vn 0.543100 -0.817600 0.191200
vn 0.425600 -0.887400 0.177300
vn 0.412700 -0.872700 0.260800
vn 0.405200 -0.863100 0.301500
vn 0.525000 -0.798600 0.294000
vn 0.632700 -0.730100 0.258000
vn 0.298100 -0.921500 0.248800
vn 0.298000 -0.938400 0.174500
vn 0.189000 -0.966400 0.174300
vn 0.192200 -0.954600 0.227300
vn 0.167600 -0.959500 0.226400
vn 0.282800 -0.918100 0.277600
vn 0.277900 -0.956500 0.088200
vn 0.436200 -0.895900 0.083700
vn 0.156800 -0.981800 0.106600
vn 0.579000 -0.808000 0.108600
vn 0.670000 -0.728800 0.141500
vn 0.552300 -0.780700 0.292300
vn 0.678700 -0.699800 0.222900
vn 0.403700 -0.861100 0.308900
vn 0.413200 -0.873400 0.257600
vn 0.621800 -0.750500 0.223500
vn 0.705300 -0.681300 0.195500
vn 0.252400 -0.928600 0.272000
vn 0.119900 -0.975400 0.184900
vn 0.092200 -0.983800 0.153800
vn 0.194200 -0.961500 0.194400
vn 0.797800 0.485200 -0.357900
vn 0.637600 0.319200 -0.701100
vn 0.834300 0.510500 -0.208300
vn 0.705300 -0.681300 0.195500
vn -0.044600 -0.313100 -0.948600
vn -0.560600 -0.271500 -0.782300
vn 0.234500 -0.350900 -0.906500
vn 0.092200 -0.983800 0.153800
vn -0.957500 -0.111500 0.265900
vn -0.824500 -0.086200 0.559200
vn -0.984200 -0.165000 0.063400
vn 0.003900 -0.997900 0.064300
vn 0.374200 0.231700 0.897900
vn 0.504100 0.569100 0.649600
vn -0.001200 -0.134000 0.991000
vn 0.779500 -0.615400 0.116900
vn 0.636200 0.674600 0.374200
vn 0.716700 0.674000 0.179000
vn 0.377500 -0.105100 -0.920000
vn -0.825300 -0.315400 -0.468300
vn -0.883700 -0.336800 -0.324900
vn -0.506500 -0.202700 0.838100
vn -0.971900 -0.224300 -0.071500
vn -0.952100 -0.270300 -0.142900
vn 0.770900 0.635200 0.046900
vn 0.803100 0.595400 -0.023500
vn 0.829100 0.551300 -0.092800
vn -0.925400 -0.314200 -0.212100
vt 0.839504 0.118056
vt 0.856743 0.205307
vt 0.741230 0.205307
vt 0.734555 0.106726
vt 0.724541 0.032791
vt 0.813647 0.052618
vt 0.868992 0.081539
vt 0.913398 0.129584
vt 0.940923 0.205307
vt 0.839504 0.292557
vt 0.813647 0.357995
vt 0.724541 0.377822
vt 0.734555 0.303887
vt 0.913398 0.281029
vt 0.868992 0.329074
vt 0.369475 0.299954
vt 0.368286 0.370940
vt 0.245840 0.351447
vt 0.246397 0.288815
vt 0.246768 0.205307
vt 0.370268 0.205307
vt 0.494283 0.205307
vt 0.492822 0.304944
vt 0.490632 0.379672
vt 0.369475 0.110659
vt 0.246397 0.121798
vt 0.245841 0.059166
vt 0.368286 0.039673
vt 0.490632 0.030941
vt 0.492822 0.105669
vt 0.616755 0.103478
vt 0.619174 0.205307
vt 0.613127 0.027106
vt 0.616755 0.307135
vt 0.613126 0.383507
vt 0.123273 0.268175
vt 0.123047 0.315326
vt 0.054743 0.283353
vt 0.030912 0.249131
vt 0.030973 0.205306
vt 0.123423 0.205306
vt 0.123273 0.142438
vt 0.030912 0.161481
vt 0.054744 0.127260
vt 0.123047 0.095287
vt 0.839504 0.118056
vt 0.856743 0.205307
vt 0.968983 0.205307
vt 0.938030 0.133427
vt 0.876123 0.061548
vt 0.805028 0.030806
vt 0.721203 0.008146
vt 0.734555 0.106726
vt 0.741230 0.205307
vt 0.839504 0.292557
vt 0.805028 0.379807
vt 0.876123 0.349065
vt 0.938030 0.277186
vt 0.734555 0.303887
vt 0.721203 0.402467
vt 0.369475 0.299954
vt 0.367890 0.394602
vt 0.489902 0.404581
vt 0.492822 0.304944
vt 0.494283 0.205307
vt 0.370268 0.205307
vt 0.246768 0.205307
vt 0.246397 0.288815
vt 0.245655 0.372324
vt 0.369475 0.110659
vt 0.492822 0.105669
vt 0.489902 0.006032
vt 0.367890 0.016011
vt 0.245655 0.038289
vt 0.246397 0.121798
vt 0.616755 0.103478
vt 0.619174 0.205307
vt 0.611917 0.001649
vt 0.616755 0.307135
vt 0.611917 0.408964
vt 0.123273 0.268175
vt 0.122972 0.331043
vt 0.123423 0.205306
vt 0.000156 0.205306
vt 0.000125 0.242784
vt 0.000064 0.280261
vt 0.123273 0.142438
vt 0.122972 0.079570
vt 0.000064 0.130352
vt 0.000125 0.167829
vt 0.122972 0.331043
vt 0.030806 0.283587
vt 0.245655 0.372324
vt 0.030806 0.283587
vt 0.000125 0.167829
vt 0.030806 0.127026
vt 0.000156 0.205306
vt 0.030806 0.127026
vt 0.805028 0.030806
vt 0.873826 0.071832
vt 0.721203 0.008146
vt 0.873826 0.071832
vt 0.938030 0.277186
vt 0.873826 0.338781
vt 0.968983 0.205307
vt 0.873826 0.338781
vt 0.805028 0.379807
vt 0.721203 0.402467
vt 0.000125 0.242784
vt 0.122972 0.079570
vt 0.245655 0.038289
vt 0.938030 0.133427
vt 0.611917 0.001649
vt 0.489902 0.006032
vt 0.611917 0.408964
vt 0.489902 0.404581
vt 0.367890 0.394602
vt 0.367890 0.016011
f 1/1/1 2/2/2 3/3/3
f 1/1/1 3/3/3 4/4/4
f 1/1/1 4/4/4 5/5/5
f 1/1/1 5/5/5 6/6/6
f 1/1/1 6/6/6 7/7/7
f 1/1/1 7/7/7 8/8/8
f 1/1/1 8/8/8 9/9/9
f 1/1/1 9/9/9 2/2/2
f 10/10/10 11/11/11 12/12/12
f 10/10/10 12/12/12 13/13/13
f 10/10/10 13/13/13 3/3/3
f 10/10/10 3/3/3 2/2/2
f 10/10/10 2/2/2 9/9/9
f 10/10/10 9/9/9 14/14/14
f 10/10/10 14/14/14 15/15/15
f 10/10/10 15/15/15 11/11/11
f 16/16/16 17/17/17 18/18/18
f 16/16/16 18/18/18 19/19/19
f 16/16/16 19/19/19 20/20/20
f 16/16/16 20/20/20 21/21/21
f 16/16/16 21/21/21 22/22/22
f 16/16/16 22/22/22 23/23/23
f 16/16/16 23/23/23 24/24/24
f 16/16/16 24/24/24 17/17/17
f 25/25/25 21/21/21 20/20/20
f 25/25/25 20/20/20 26/26/26
f 25/25/25 26/26/26 27/27/27
f 25/25/25 27/27/27 28/28/28
f 25/25/25 28/28/28 29/29/29
f 25/25/25 29/29/29 30/30/30
f 25/25/25 30/30/30 22/22/22
f 25/25/25 22/22/22 21/21/21
f 31/31/31 32/32/32 22/22/22
f 31/31/31 22/22/22 30/30/30
f 31/31/31 30/30/30 29/29/29
f 31/31/31 29/29/29 33/33/33
f 31/31/31 33/33/33 5/5/5
f 31/31/31 5/5/5 4/4/4
f 31/31/31 4/4/4 3/3/3
f 31/31/31 3/3/3 32/32/32
f 34/34/34 35/35/35 24/24/24
f 34/34/34 24/24/24 23/23/23
f 34/34/34 23/23/23 22/22/22
f 34/34/34 22/22/22 32/32/32
f 34/34/34 32/32/32 3/3/3
f 34/34/34 3/3/3 13/13/13
f 34/34/34 13/13/13 12/12/12
f 34/34/34 12/12/12 35/35/35
f 36/36/36 37/37/37 38/38/38
f 36/36/36 38/38/38 39/39/39
f 36/36/36 39/39/39 40/40/40
f 36/36/36 40/40/40 41/41/41
f 36/36/36 41/41/41 20/20/20
f 36/36/36 20/20/20 19/19/19
f 36/36/36 19/19/19 18/18/18
f 36/36/36 18/18/18 37/37/37
f 42/42/42 41/41/41 40/40/40
f 42/42/42 40/40/40 43/43/43
f 42/42/42 43/43/43 44/44/44
f 42/42/42 44/44/44 45/45/45
f 42/42/42 45/45/45 27/27/27
f 42/42/42 27/27/27 26/26/26
f 42/42/42 26/26/26 20/20/20
f 42/42/42 20/20/20 41/41/41
f 46/46/46 47/47/47 48/48/48
f 46/46/46 48/48/48 49/49/49
f 46/46/46 49/49/49 50/50/50
f 46/46/46 50/50/50 51/51/51
f 46/46/46 51/51/51 52/52/52
f 46/46/46 52/52/52 53/53/53
f 46/46/46 53/53/53 54/54/54
f 46/46/46 54/54/54 47/47/47
f 55/55/55 56/56/56 57/57/57
f 55/55/55 57/57/57 58/58/58
f 55/55/55 58/58/58 48/48/48
f 55/55/55 48/48/48 47/47/47
f 55/55/55 47/47/47 54/54/54
f 55/55/55 54/54/54 59/59/59
f 55/55/55 59/59/59 60/60/60
f 55/55/55 60/60/60 56/56/56
f 61/61/61 62/62/62 63/63/63
f 61/61/61 63/63/63 64/64/64
f 61/61/61 64/64/64 65/65/65
f 61/61/61 65/65/65 66/66/66
f 61/61/61 66/66/66 67/67/67
f 61/61/61 67/67/67 68/68/68
f 61/61/61 68/68/68 69/69/69
f 61/61/61 69/69/69 62/62/62
f 70/70/70 66/66/66 65/65/65
f 70/70/70 65/65/65 71/71/71
f 70/70/70 71/71/71 72/72/72
f 70/70/70 72/72/72 73/73/73
f 70/70/70 73/73/73 74/74/74
f 70/70/70 74/74/74 75/75/75
f 70/70/70 75/75/75 67/67/67
f 70/70/70 67/67/67 66/66/66
f 76/76/76 77/77/77 54/54/54
f 76/76/76 54/54/54 53/53/53
f 76/76/76 53/53/53 52/52/52
f 76/76/76 52/52/52 78/78/78
f 76/76/76 78/78/78 72/72/72
f 76/76/76 72/72/72 71/71/71
f 76/76/76 71/71/71 65/65/65
f 76/76/76 65/65/65 77/77/77
f 79/79/79 80/80/80 60/60/60
f 79/79/79 60/60/60 59/59/59
f 79/79/79 59/59/59 54/54/54
f 79/79/79 54/54/54 77/77/77
f 79/79/79 77/77/77 65/65/65
f 79/79/79 65/65/65 64/64/64
f 79/79/79 64/64/64 63/63/63
f 79/79/79 63/63/63 80/80/80
f 81/81/81 82/82/82 69/69/69
f 81/81/81 69/69/69 68/68/68
f 81/81/81 68/68/68 67/67/67
f 81/81/81 67/67/67 83/83/83
f 81/81/81 83/83/83 84/84/84
f 81/81/81 84/84/84 85/85/85
f 81/81/81 85/85/85 86/86/86
f 81/81/81 86/86/86 82/82/82
f 87/87/87 83/83/83 67/67/67
f 87/87/87 67/67/67 75/75/75
f 87/87/87 75/75/75 74/74/74
f 87/87/87 74/74/74 88/88/88
f 87/87/87 88/88/88 89/89/89
f 87/87/87 89/89/89 90/90/90
f 87/87/87 90/90/90 84/84/84
f 87/87/87 84/84/84 83/83/83
f 91/91/91 92/92/92 38/38/38
f 91/91/91 38/38/38 37/37/37
f 91/91/91 37/37/37 18/18/18
f 91/91/91 18/18/18 93/93/93
f 91/91/91 93/93/93 69/69/69
f 91/91/91 69/69/69 82/82/82
f 91/91/91 82/82/82 94/94/94
f 91/91/91 94/94/94 92/92/92
f 95/95/95 96/96/96 44/44/44
f 95/95/95 44/44/44 43/43/43
f 95/95/95 43/43/43 40/40/40
f 95/95/95 40/40/40 97/97/97
f 95/95/95 97/97/97 84/84/84
f 95/95/95 84/84/84 90/90/90
f 95/95/95 90/90/90 98/98/98
f 95/95/95 98/98/98 96/96/96
f 99/99/99 100/100/100 7/7/7
f 99/99/99 7/7/7 6/6/6
f 99/99/99 6/6/6 5/5/5
f 99/99/99 5/5/5 101/101/101
f 99/99/99 101/101/101 52/52/52
f 99/99/99 52/52/52 51/51/51
f 99/99/99 51/51/51 102/102/102
f 99/99/99 102/102/102 100/100/100
f 103/103/103 104/104/104 15/15/15
f 103/103/103 15/15/15 14/14/14
f 103/103/103 14/14/14 9/9/9
f 103/103/103 9/9/9 105/105/105
f 103/103/103 105/105/105 48/48/48
f 103/103/103 48/48/48 58/58/58
f 103/103/103 58/58/58 106/106/106
f 103/103/103 106/106/106 104/104/104
f 107/107/107 108/108/108 12/12/12
f 107/107/107 12/12/12 11/11/11
f 107/107/107 11/11/11 15/15/15
f 107/107/107 15/15/15 104/104/104
f 107/107/107 104/104/104 106/106/106
f 107/107/107 106/106/106 56/56/56
f 107/107/107 56/56/56 60/60/60
f 107/107/107 60/60/60 108/108/108
f 109/109/109 97/97/97 40/40/40
f 109/109/109 40/40/40 39/39/39
f 109/109/109 39/39/39 38/38/38
f 109/109/109 38/38/38 92/92/92
f 109/109/109 92/92/92 94/94/94
f 109/109/109 94/94/94 85/85/85
f 109/109/109 85/85/85 84/84/84
f 109/109/109 84/84/84 97/97/97
f 110/110/110 111/111/111 27/27/27
f 110/110/110 27/27/27 45/45/45
f 110/110/110 45/45/45 44/44/44
f 110/110/110 44/44/44 96/96/96
f 110/110/110 96/96/96 98/98/98
f 110/110/110 98/98/98 88/88/88
f 110/110/110 88/88/88 74/74/74
f 110/110/110 74/74/74 111/111/111
f 112/112/112 105/105/105 9/9/9
f 112/112/112 9/9/9 8/8/8
f 112/112/112 8/8/8 7/7/7
f 112/112/112 7/7/7 100/100/100
f 112/112/112 100/100/100 102/102/102
f 112/112/112 102/102/102 49/49/49
f 112/112/112 49/49/49 48/48/48
f 112/112/112 48/48/48 105/105/105
f 113/113/113 101/101/101 5/5/5
f 113/113/113 5/5/5 33/33/33
f 113/113/113 33/33/33 29/29/29
f 113/113/113 29/29/29 114/114/114
f 113/113/113 114/114/114 72/72/72
f 113/113/113 72/72/72 78/78/78
f 113/113/113 78/78/78 52/52/52
f 113/113/113 52/52/52 101/101/101
f 115/115/115 116/116/116 24/24/24
f 115/115/115 24/24/24 35/35/35
f 115/115/115 35/35/35 12/12/12
f 115/115/115 12/12/12 108/108/108
f 115/115/115 108/108/108 60/60/60
f 115/115/115 60/60/60 80/80/80
f 115/115/115 80/80/80 63/63/63
f 115/115/115 63/63/63 116/116/116
f 117/117/117 93/93/93 18/18/18
f 117/117/117 18/18/18 17/17/17
f 117/117/117 17/17/17 24/24/24
f 117/117/117 24/24/24 116/116/116
f 117/117/117 116/116/116 63/63/63
f 117/117/117 63/63/63 62/62/62
f 117/117/117 62/62/62 69/69/69
f 117/117/117 69/69/69 93/93/93
f 118/118/118 114/114/114 29/29/29
f 118/118/118 29/29/29 28/28/28
f 118/118/118 28/28/28 27/27/27
f 118/118/118 27/27/27 111/111/111
f 118/118/118 111/111/111 74/74/74
f 118/118/118 74/74/74 73/73/73
f 118/118/118 73/73/73 72/72/72
f 118/118/118 72/72/72 114/114/114
