v -2.421620 0.735919 -1.093659
v -2.421092 0.735796 -1.091361
v -2.418422 0.734796 -1.092686
v -2.419335 0.734983 -1.095141
v -2.419837 0.735291 -1.097089
v -2.421650 0.736123 -1.095582
v -2.422662 0.736414 -1.094223
v -2.423234 0.736465 -1.092512
v -2.423078 0.736426 -1.090372
v -2.419552 0.736048 -1.089588
v -2.418022 0.736349 -1.088443
v -2.415716 0.735548 -1.088978
v -2.416984 0.735130 -1.090514
v -2.421443 0.736577 -1.088988
v -2.419724 0.736598 -1.088441
v -2.409246 0.730410 -1.094354
v -2.408238 0.730661 -1.092728
v -2.406088 0.728588 -1.094332
v -2.406990 0.728356 -1.095766
v -2.408109 0.728152 -1.097715
v -2.410502 0.730190 -1.096563
v -2.413003 0.732029 -1.095351
v -2.411679 0.732280 -1.093046
v -2.410608 0.732573 -1.091354
v -2.411550 0.730266 -1.098888
v -2.409027 0.728228 -1.099775
v -2.409658 0.728365 -1.101358
v -2.412274 0.730408 -1.100671
v -2.414830 0.732310 -1.099663
v -2.414089 0.732129 -1.097788
v -2.416754 0.733711 -1.096528
v -2.415684 0.733552 -1.094037
v -2.417457 0.733978 -1.098459
v -2.414309 0.733864 -1.091716
v -2.413172 0.734246 -1.090026
v -2.404891 0.726219 -1.097404
v -2.404186 0.726435 -1.096350
v -2.403333 0.725140 -1.097723
v -2.403392 0.724562 -1.098707
v -2.404011 0.724394 -1.099677
v -2.405751 0.726036 -1.098846
v -2.406412 0.726125 -1.100397
v -2.404433 0.724497 -1.100757
v -2.405207 0.725023 -1.101412
v -2.406852 0.726268 -1.101597
v -2.421710 0.735689 -1.093645
v -2.421166 0.735565 -1.091315
v -2.423131 0.736252 -1.090339
v -2.423299 0.736292 -1.092504
v -2.422714 0.736287 -1.094223
v -2.421725 0.735953 -1.095587
v -2.419916 0.735123 -1.097086
v -2.419431 0.734757 -1.095119
v -2.418505 0.734569 -1.092636
v -2.419610 0.735820 -1.089513
v -2.418058 0.736182 -1.088371
v -2.419751 0.736473 -1.088392
v -2.421484 0.736406 -1.088932
v -2.417053 0.734905 -1.090437
v -2.415760 0.735382 -1.088907
v -2.409356 0.730205 -1.094267
v -2.408315 0.730508 -1.092653
v -2.410676 0.732416 -1.091281
v -2.411778 0.732068 -1.092963
v -2.413113 0.731816 -1.095289
v -2.410623 0.729984 -1.096496
v -2.408237 0.727952 -1.097643
v -2.407107 0.728157 -1.095675
v -2.406171 0.728440 -1.094254
v -2.411680 0.730060 -1.098840
v -2.414209 0.731916 -1.097747
v -2.414925 0.732151 -1.099643
v -2.412376 0.730255 -1.100645
v -2.409766 0.728215 -1.101329
v -2.409164 0.728028 -1.099723
v -2.416862 0.733491 -1.096496
v -2.415780 0.733331 -1.093981
v -2.417544 0.733814 -1.098447
v -2.414393 0.733645 -1.091637
v -2.413229 0.734084 -1.089955
v -2.405011 0.726023 -1.097311
v -2.404270 0.726289 -1.096270
v -2.405881 0.725838 -1.098773
v -2.404110 0.724246 -1.099623
v -2.403481 0.724415 -1.098636
v -2.403396 0.725031 -1.097666
v -2.406553 0.725927 -1.100345
v -2.406962 0.726120 -1.101569
v -2.405288 0.724913 -1.101389
v -2.404540 0.724349 -1.100719
v -2.403987 0.726442 -1.095961
v -2.402874 0.724719 -1.097939
v -2.405823 0.728600 -1.093817
v -2.403396 0.725031 -1.097666
v -2.403821 0.723889 -1.100861
v -2.404752 0.724601 -1.101635
v -2.403476 0.723781 -1.099930
v -2.405288 0.724913 -1.101389
v -2.421695 0.736116 -1.096229
v -2.422884 0.736496 -1.094411
v -2.420041 0.735319 -1.097740
v -2.422714 0.736287 -1.094223
v -2.422091 0.736677 -1.088763
v -2.419706 0.736694 -1.088155
v -2.423762 0.736558 -1.090028
v -2.419751 0.736473 -1.088392
v -2.417526 0.736376 -1.088026
v -2.415311 0.735614 -1.088432
v -2.402931 0.723945 -1.099109
v -2.407049 0.726251 -1.101987
v -2.409917 0.728344 -1.101875
v -2.423800 0.736570 -1.092127
v -2.417731 0.733995 -1.099100
v -2.415121 0.732299 -1.100281
v -2.412817 0.734302 -1.089429
v -2.410280 0.732602 -1.090755
v -2.407935 0.730677 -1.092150
v -2.412562 0.730388 -1.101256
vn 0.365800 0.930300 0.027500
vn 0.256100 0.953200 -0.160300
vn 0.306700 0.933500 -0.185500
vn 0.407100 0.913200 -0.018600
vn 0.424100 0.904800 -0.037500
vn 0.363000 0.931500 0.020100
vn 0.317500 0.946300 0.060000
vn 0.270100 0.962300 0.030500
vn 0.175100 0.977200 -0.120000
vn 0.169700 0.918000 -0.358300
vn 0.174100 0.919700 -0.351800
vn 0.257300 0.894400 -0.365900
vn 0.231800 0.902200 -0.363600
vn 0.110000 0.952300 -0.284600
vn 0.114600 0.933600 -0.339400
vn 0.455000 0.805900 -0.378700
vn 0.479600 0.804700 -0.349700
vn 0.504400 0.785600 -0.358300
vn 0.475100 0.785200 -0.397100
vn 0.538600 0.787800 -0.298700
vn 0.507900 0.813300 -0.283900
vn 0.443300 0.860000 -0.252600
vn 0.390900 0.846100 -0.362300
vn 0.417800 0.840300 -0.345400
vn 0.553500 0.812100 -0.185000
vn 0.580600 0.791800 -0.189300
vn 0.566600 0.789500 -0.235800
vn 0.544600 0.808800 -0.221800
vn 0.503700 0.845600 -0.176400
vn 0.501300 0.853000 -0.145000
vn 0.446400 0.891000 -0.082600
vn 0.368400 0.904200 -0.215900
vn 0.461000 0.880700 -0.108400
vn 0.307200 0.882300 -0.356600
vn 0.336900 0.873000 -0.352700
vn 0.471800 0.773100 -0.423800
vn 0.506900 0.771500 -0.384300
vn 0.502500 0.757200 -0.417300
vn 0.499600 0.733500 -0.460900
vn 0.591500 0.738300 -0.324000
vn 0.552800 0.775300 -0.305500
vn 0.600600 0.781200 -0.170500
vn 0.647800 0.742800 -0.168900
vn 0.613700 0.764300 -0.198000
vn 0.589400 0.776800 -0.221800
vn -0.396200 -0.917100 -0.043000
vn -0.270100 -0.948100 0.167300
vn -0.323700 -0.926100 0.193900
vn -0.482000 -0.871400 -0.091300
vn -0.540600 -0.820600 -0.185400
vn -0.525600 -0.834000 -0.167700
vn -0.505000 -0.856800 -0.103800
vn -0.414300 -0.910100 0.005400
vn -0.306600 -0.933600 0.185400
vn -0.175500 -0.903300 0.391300
vn -0.153300 -0.810900 0.564700
vn -0.148200 -0.796200 0.586600
vn -0.188300 -0.853100 0.486500
vn -0.225400 -0.898300 0.377100
vn -0.192100 -0.837300 0.511800
vn -0.445800 -0.804600 0.392100
vn -0.378100 -0.790600 0.481600
vn -0.331700 -0.817100 0.471400
vn -0.382900 -0.844200 0.375000
vn -0.443500 -0.860000 0.252600
vn -0.508000 -0.813200 0.283900
vn -0.538700 -0.787700 0.298700
vn -0.462800 -0.784900 0.411900
vn -0.365700 -0.783600 0.502200
vn -0.558900 -0.811700 0.169700
vn -0.506900 -0.852000 0.131000
vn -0.555200 -0.831100 0.031500
vn -0.591500 -0.803900 0.061600
vn -0.601000 -0.798300 0.039200
vn -0.585400 -0.792500 0.170800
vn -0.452200 -0.889200 0.069300
vn -0.368400 -0.904300 0.215900
vn -0.518100 -0.854700 -0.031200
vn -0.299900 -0.879700 0.369000
vn -0.258600 -0.838500 0.479600
vn -0.443900 -0.781500 0.438300
vn -0.307700 -0.789100 0.531600
vn -0.544200 -0.782900 0.301400
vn -0.505700 -0.815000 0.282800
vn -0.351200 -0.808500 0.472200
vn -0.268000 -0.794000 0.545600
vn -0.595700 -0.790900 0.139800
vn -0.590300 -0.806800 -0.024600
vn -0.578000 -0.813400 -0.064600
vn -0.567500 -0.822000 0.046400
vn 0.782600 -0.041600 0.621100
vn 0.928400 -0.236100 0.286800
vn 0.685300 0.017200 0.728000
vn -0.268000 -0.794000 0.545600
vn 0.601300 -0.577600 -0.552000
vn 0.322800 -0.274100 -0.905900
vn 0.637700 -0.708800 -0.301500
vn -0.578000 -0.813400 -0.064600
vn -0.575700 0.389700 -0.718800
vn -0.758600 0.459500 -0.461900
vn -0.446300 0.284600 -0.848400
vn -0.540600 -0.820600 -0.185400
vn -0.495200 0.356800 0.792100
vn -0.086600 0.501300 0.860900
vn -0.869700 0.234200 0.434300
vn -0.148200 -0.796200 0.586600
vn 0.230700 0.439900 0.867900
vn 0.414200 0.338400 0.844900
vn 0.815000 -0.564300 -0.131100
vn -0.038300 -0.093000 -0.994900
vn -0.183700 -0.036800 -0.982300
vn -0.940500 0.329100 -0.084500
vn -0.362100 0.182400 -0.914100
vn -0.320300 0.110400 -0.940900
vn 0.519300 0.237600 0.820900
vn 0.567200 0.166200 0.806600
vn 0.610100 0.094000 0.786700
vn -0.277000 0.038500 -0.960100
vt 0.839504 0.118056
vt 0.856743 0.205307
vt 0.741230 0.205307
vt 0.734555 0.106726
vt 0.724541 0.032791
vt 0.813647 0.052618
vt 0.868992 0.081539
vt 0.913398 0.129584
vt 0.940923 0.205307
vt 0.839504 0.292557
vt 0.813647 0.357995
vt 0.724541 0.377822
vt 0.734555 0.303887
vt 0.913398 0.281029
vt 0.868992 0.329074
vt 0.369475 0.299954
vt 0.368286 0.370940
vt 0.245840 0.351447
vt 0.246397 0.288815
vt 0.246768 0.205307
vt 0.370268 0.205307
vt 0.494283 0.205307
vt 0.492822 0.304944
vt 0.490632 0.379672
vt 0.369475 0.110659
vt 0.246397 0.121798
vt 0.245841 0.059166
vt 0.368286 0.039673
vt 0.490632 0.030941
vt 0.492822 0.105669
vt 0.616755 0.103478
vt 0.619174 0.205307
vt 0.613127 0.027106
vt 0.616755 0.307135
vt 0.613126 0.383507
vt 0.123273 0.268175
vt 0.123047 0.315326
vt 0.054743 0.283353
vt 0.030912 0.249131
vt 0.030973 0.205306
vt 0.123423 0.205306
vt 0.123273 0.142438
vt 0.030912 0.161481
vt 0.054744 0.127260
vt 0.123047 0.095287
vt 0.839504 0.118056
vt 0.856743 0.205307
vt 0.968983 0.205307
vt 0.938030 0.133427
vt 0.876123 0.061548
vt 0.805028 0.030806
vt 0.721203 0.008146
vt 0.734555 0.106726
vt 0.741230 0.205307
vt 0.839504 0.292557
vt 0.805028 0.379807
vt 0.876123 0.349065
vt 0.938030 0.277186
vt 0.734555 0.303887
vt 0.721203 0.402467
vt 0.369475 0.299954
vt 0.367890 0.394602
vt 0.489902 0.404581
vt 0.492822 0.304944
vt 0.494283 0.205307
vt 0.370268 0.205307
vt 0.246768 0.205307
vt 0.246397 0.288815
vt 0.245655 0.372324
vt 0.369475 0.110659
vt 0.492822 0.105669
vt 0.489902 0.006032
vt 0.367890 0.016011
vt 0.245655 0.038289
vt 0.246397 0.121798
vt 0.616755 0.103478
vt 0.619174 0.205307
vt 0.611917 0.001649
vt 0.616755 0.307135
vt 0.611917 0.408964
vt 0.123273 0.268175
vt 0.122972 0.331043
vt 0.123423 0.205306
vt 0.000156 0.205306
vt 0.000125 0.242784
vt 0.000064 0.280261
vt 0.123273 0.142438
vt 0.122972 0.079570
vt 0.000064 0.130352
vt 0.000125 0.167829
vt 0.122972 0.331043
vt 0.030806 0.283587
vt 0.245655 0.372324
vt 0.030806 0.283587
vt 0.000125 0.167829
vt 0.030806 0.127026
vt 0.000156 0.205306
vt 0.030806 0.127026
vt 0.805028 0.030806
vt 0.873826 0.071832
vt 0.721203 0.008146
vt 0.873826 0.071832
vt 0.938030 0.277186
vt 0.873826 0.338781
vt 0.968983 0.205307
vt 0.873826 0.338781
vt 0.805028 0.379807
vt 0.721203 0.402467
vt 0.000125 0.242784
vt 0.122972 0.079570
vt 0.245655 0.038289
vt 0.938030 0.133427
vt 0.611917 0.001649
vt 0.489902 0.006032
vt 0.611917 0.408964
vt 0.489902 0.404581
vt 0.367890 0.394602
vt 0.367890 0.016011
f 1/1/1 2/2/2 3/3/3
f 1/1/1 3/3/3 4/4/4
f 1/1/1 4/4/4 5/5/5
f 1/1/1 5/5/5 6/6/6
f 1/1/1 6/6/6 7/7/7
f 1/1/1 7/7/7 8/8/8
f 1/1/1 8/8/8 9/9/9
f 1/1/1 9/9/9 2/2/2
f 10/10/10 11/11/11 12/12/12
f 10/10/10 12/12/12 13/13/13
f 10/10/10 13/13/13 3/3/3
f 10/10/10 3/3/3 2/2/2
f 10/10/10 2/2/2 9/9/9
f 10/10/10 9/9/9 14/14/14
f 10/10/10 14/14/14 15/15/15
f 10/10/10 15/15/15 11/11/11
f 16/16/16 17/17/17 18/18/18
f 16/16/16 18/18/18 19/19/19
f 16/16/16 19/19/19 20/20/20
f 16/16/16 20/20/20 21/21/21
f 16/16/16 21/21/21 22/22/22
f 16/16/16 22/22/22 23/23/23
f 16/16/16 23/23/23 24/24/24
f 16/16/16 24/24/24 17/17/17
f 25/25/25 21/21/21 20/20/20
f 25/25/25 20/20/20 26/26/26
f 25/25/25 26/26/26 27/27/27
f 25/25/25 27/27/27 28/28/28
f 25/25/25 28/28/28 29/29/29
f 25/25/25 29/29/29 30/30/30
f 25/25/25 30/30/30 22/22/22
f 25/25/25 22/22/22 21/21/21
f 31/31/31 32/32/32 22/22/22
f 31/31/31 22/22/22 30/30/30
f 31/31/31 30/30/30 29/29/29
f 31/31/31 29/29/29 33/33/33
f 31/31/31 33/33/33 5/5/5
f 31/31/31 5/5/5 4/4/4
f 31/31/31 4/4/4 3/3/3
f 31/31/31 3/3/3 32/32/32
f 34/34/34 35/35/35 24/24/24
f 34/34/34 24/24/24 23/23/23
f 34/34/34 23/23/23 22/22/22
f 34/34/34 22/22/22 32/32/32
f 34/34/34 32/32/32 3/3/3
f 34/34/34 3/3/3 13/13/13
f 34/34/34 13/13/13 12/12/12
f 34/34/34 12/12/12 35/35/35
f 36/36/36 37/37/37 38/38/38
f 36/36/36 38/38/38 39/39/39
f 36/36/36 39/39/39 40/40/40
f 36/36/36 40/40/40 41/41/41
f 36/36/36 41/41/41 20/20/20
f 36/36/36 20/20/20 19/19/19
f 36/36/36 19/19/19 18/18/18
f 36/36/36 18/18/18 37/37/37
f 42/42/42 41/41/41 40/40/40
f 42/42/42 40/40/40 43/43/43
f 42/42/42 43/43/43 44/44/44
f 42/42/42 44/44/44 45/45/45
f 42/42/42 45/45/45 27/27/27
f 42/42/42 27/27/27 26/26/26
f 42/42/42 26/26/26 20/20/20
f 42/42/42 20/20/20 41/41/41
f 46/46/46 47/47/47 48/48/48
f 46/46/46 48/48/48 49/49/49
f 46/46/46 49/49/49 50/50/50
f 46/46/46 50/50/50 51/51/51
f 46/46/46 51/51/51 52/52/52
f 46/46/46 52/52/52 53/53/53
f 46/46/46 53/53/53 54/54/54
f 46/46/46 54/54/54 47/47/47
f 55/55/55 56/56/56 57/57/57
f 55/55/55 57/57/57 58/58/58
f 55/55/55 58/58/58 48/48/48
f 55/55/55 48/48/48 47/47/47
f 55/55/55 47/47/47 54/54/54
f 55/55/55 54/54/54 59/59/59
f 55/55/55 59/59/59 60/60/60
f 55/55/55 60/60/60 56/56/56
f 61/61/61 62/62/62 63/63/63
f 61/61/61 63/63/63 64/64/64
f 61/61/61 64/64/64 65/65/65
f 61/61/61 65/65/65 66/66/66
f 61/61/61 66/66/66 67/67/67
f 61/61/61 67/67/67 68/68/68
f 61/61/61 68/68/68 69/69/69
f 61/61/61 69/69/69 62/62/62
f 70/70/70 66/66/66 65/65/65
f 70/70/70 65/65/65 71/71/71
f 70/70/70 71/71/71 72/72/72
f 70/70/70 72/72/72 73/73/73
f 70/70/70 73/73/73 74/74/74
f 70/70/70 74/74/74 75/75/75
f 70/70/70 75/75/75 67/67/67
f 70/70/70 67/67/67 66/66/66
f 76/76/76 77/77/77 54/54/54
f 76/76/76 54/54/54 53/53/53
f 76/76/76 53/53/53 52/52/52
f 76/76/76 52/52/52 78/78/78
f 76/76/76 78/78/78 72/72/72
f 76/76/76 72/72/72 71/71/71
f 76/76/76 71/71/71 65/65/65
f 76/76/76 65/65/65 77/77/77
f 79/79/79 80/80/80 60/60/60
f 79/79/79 60/60/60 59/59/59
f 79/79/79 59/59/59 54/54/54
f 79/79/79 54/54/54 77/77/77
f 79/79/79 77/77/77 65/65/65
f 79/79/79 65/65/65 64/64/64
f 79/79/79 64/64/64 63/63/63
f 79/79/79 63/63/63 80/80/80
f 81/81/81 82/82/82 69/69/69
f 81/81/81 69/69/69 68/68/68
f 81/81/81 68/68/68 67/67/67
f 81/81/81 67/67/67 83/83/83
f 81/81/81 83/83/83 84/84/84
f 81/81/81 84/84/84 85/85/85
f 81/81/81 85/85/85 86/86/86
f 81/81/81 86/86/86 82/82/82
f 87/87/87 83/83/83 67/67/67
f 87/87/87 67/67/67 75/75/75
f 87/87/87 75/75/75 74/74/74
f 87/87/87 74/74/74 88/88/88
f 87/87/87 88/88/88 89/89/89
f 87/87/87 89/89/89 90/90/90
f 87/87/87 90/90/90 84/84/84
f 87/87/87 84/84/84 83/83/83
f 91/91/91 92/92/92 38/38/38
f 91/91/91 38/38/38 37/37/37
f 91/91/91 37/37/37 18/18/18
f 91/91/91 18/18/18 93/93/93
f 91/91/91 93/93/93 69/69/69
f 91/91/91 69/69/69 82/82/82
f 91/91/91 82/82/82 94/94/94
f 91/91/91 94/94/94 92/92/92
f 95/95/95 96/96/96 44/44/44
f 95/95/95 44/44/44 43/43/43
f 95/95/95 43/43/43 40/40/40
f 95/95/95 40/40/40 97/97/97
f 95/95/95 97/97/97 84/84/84
f 95/95/95 84/84/84 90/90/90
f 95/95/95 90/90/90 98/98/98
f 95/95/95 98/98/98 96/96/96
f 99/99/99 100/100/100 7/7/7
f 99/99/99 7/7/7 6/6/6
f 99/99/99 6/6/6 5/5/5
f 99/99/99 5/5/5 101/101/101
f 99/99/99 101/101/101 52/52/52
f 99/99/99 52/52/52 51/51/51
f 99/99/99 51/51/51 102/102/102
f 99/99/99 102/102/102 100/100/100
f 103/103/103 104/104/104 15/15/15
f 103/103/103 15/15/15 14/14/14
f 103/103/103 14/14/14 9/9/9
f 103/103/103 9/9/9 105/105/105
f 103/103/103 105/105/105 48/48/48
f 103/103/103 48/48/48 58/58/58
f 103/103/103 58/58/58 106/106/106
f 103/103/103 106/106/106 104/104/104
f 107/107/107 108/108/108 12/12/12
f 107/107/107 12/12/12 11/11/11
f 107/107/107 11/11/11 15/15/15
f 107/107/107 15/15/15 104/104/104
f 107/107/107 104/104/104 106/106/106
f 107/107/107 106/106/106 56/56/56
f 107/107/107 56/56/56 60/60/60
f 107/107/107 60/60/60 108/108/108
f 109/109/109 97/97/97 40/40/40
f 109/109/109 40/40/40 39/39/39
f 109/109/109 39/39/39 38/38/38
f 109/109/109 38/38/38 92/92/92
f 109/109/109 92/92/92 94/94/94
f 109/109/109 94/94/94 85/85/85
f 109/109/109 85/85/85 84/84/84
f 109/109/109 84/84/84 97/97/97
f 110/110/110 111/111/111 27/27/27
f 110/110/110 27/27/27 45/45/45
f 110/110/110 45/45/45 44/44/44
f 110/110/110 44/44/44 96/96/96
f 110/110/110 96/96/96 98/98/98
f 110/110/110 98/98/98 88/88/88
f 110/110/110 88/88/88 74/74/74
f 110/110/110 74/74/74 111/111/111
f 112/112/112 105/105/105 9/9/9
f 112/112/112 9/9/9 8/8/8
f 112/112/112 8/8/8 7/7/7
f 112/112/112 7/7/7 100/100/100
f 112/112/112 100/100/100 102/102/102
f 112/112/112 102/102/102 49/49/49
f 112/112/112 49/49/49 48/48/48
f 112/112/112 48/48/48 105/105/105
f 113/113/113 101/101/101 5/5/5
f 113/113/113 5/5/5 33/33/33
f 113/113/113 33/33/33 29/29/29
f 113/113/113 29/29/29 114/114/114
f 113/113/113 114/114/114 72/72/72
f 113/113/113 72/72/72 78/78/78
f 113/113/113 78/78/78 52/52/52
f 113/113/113 52/52/52 101/101/101
f 115/115/115 116/116/116 24/24/24
f 115/115/115 24/24/24 35/35/35
f 115/115/115 35/35/35 12/12/12
f 115/115/115 12/12/12 108/108/108
f 115/115/115 108/108/108 60/60/60
f 115/115/115 60/60/60 80/80/80
f 115/115/115 80/80/80 63/63/63
f 115/115/115 63/63/63 116/116/116
f 117/117/117 93/93/93 18/18/18
f 117/117/117 18/18/18 17/17/17
f 117/117/117 17/17/17 24/24/24
f 117/117/117 24/24/24 116/116/116
f 117/117/117 116/116/116 63/63/63
f 117/117/117 63/63/63 62/62/62
f 117/117/117 62/62/62 69/69/69
f 117/117/117 69/69/69 93/93/93
f 118/118/118 114/114/114 29/29/29
f 118/118/118 29/29/29 28/28/28
f 118/118/118 28/28/28 27/27/27
f 118/118/118 27/27/27 111/111/111
f 118/118/118 111/111/111 74/74/74
f 118/118/118 74/74/74 73/73/73
f 118/118/118 73/73/73 72/72/72
f 118/118/118 72/72/72 114/114/114
