v -2.368276 0.795934 -1.176805
v -2.369306 0.796356 -1.175083
v -2.367402 0.794621 -1.174181
v -2.366480 0.794290 -1.176239
v -2.365567 0.794106 -1.177740
v -2.367146 0.795573 -1.177993
v -2.368378 0.796397 -1.177814
v -2.369641 0.797032 -1.177139
v -2.370764 0.797557 -1.175747
v -2.369339 0.796713 -1.173064
v -2.369010 0.796939 -1.171433
v -2.367684 0.795657 -1.170288
v -2.367688 0.795175 -1.171988
v -2.370561 0.797707 -1.173901
v -2.369887 0.797504 -1.172501
v -2.362803 0.788699 -1.169300
v -2.363056 0.789129 -1.167700
v -2.361663 0.786577 -1.167247
v -2.361451 0.786191 -1.168664
v -2.361064 0.785734 -1.170530
v -2.362354 0.788186 -1.171407
v -2.363808 0.790520 -1.172306
v -2.364261 0.791070 -1.170100
v -2.364500 0.791538 -1.168423
v -2.361619 0.787831 -1.173465
v -2.360405 0.785424 -1.172348
v -2.359829 0.785232 -1.173703
v -2.360982 0.787609 -1.174999
v -2.362331 0.789948 -1.176058
v -2.363024 0.790162 -1.174457
v -2.364686 0.792341 -1.175419
v -2.365530 0.792671 -1.173243
v -2.363911 0.792172 -1.177034
v -2.365942 0.793261 -1.170998
v -2.366112 0.793786 -1.169286
v -2.360090 0.783590 -1.168261
v -2.360206 0.783900 -1.167194
v -2.359405 0.782309 -1.167440
v -2.359089 0.781591 -1.168047
v -2.358955 0.781324 -1.169012
v -2.359833 0.783232 -1.169659
v -2.359309 0.783018 -1.171010
v -2.358554 0.781199 -1.169931
v -2.358442 0.781603 -1.170830
v -2.358836 0.782896 -1.172015
v -2.368415 0.795775 -1.176843
v -2.369454 0.796202 -1.175093
v -2.370872 0.797439 -1.175753
v -2.369742 0.796911 -1.177167
v -2.368451 0.796308 -1.177841
v -2.367245 0.795452 -1.178036
v -2.365672 0.793990 -1.177781
v -2.366626 0.794137 -1.176277
v -2.367556 0.794472 -1.174193
v -2.369493 0.796566 -1.173046
v -2.369128 0.796833 -1.171405
v -2.369973 0.797423 -1.172484
v -2.370674 0.797595 -1.173885
v -2.367848 0.795033 -1.171976
v -2.367807 0.795555 -1.170267
v -2.362985 0.788584 -1.169307
v -2.363194 0.789045 -1.167697
v -2.364634 0.791448 -1.168416
v -2.364437 0.790946 -1.170103
v -2.363979 0.790392 -1.172328
v -2.362532 0.788067 -1.171432
v -2.361246 0.785622 -1.170558
v -2.361638 0.786084 -1.168675
v -2.361804 0.786498 -1.167245
v -2.361792 0.787709 -1.173509
v -2.363189 0.790030 -1.174498
v -2.362452 0.789848 -1.176098
v -2.361108 0.787516 -1.175041
v -2.359958 0.785145 -1.173746
v -2.360581 0.785309 -1.172395
v -2.364842 0.792198 -1.175458
v -2.365692 0.792531 -1.173260
v -2.364023 0.792064 -1.177074
v -2.366110 0.793127 -1.170993
v -2.366240 0.793689 -1.169271
v -2.360278 0.783486 -1.168271
v -2.360349 0.783824 -1.167192
v -2.360017 0.783123 -1.169688
v -2.359093 0.781242 -1.169034
v -2.359230 0.781514 -1.168054
v -2.359511 0.782252 -1.167441
v -2.359486 0.782905 -1.171059
v -2.358966 0.782810 -1.172061
v -2.358539 0.781540 -1.170861
v -2.358686 0.781115 -1.169968
v -2.360309 0.783970 -1.166836
v -2.359171 0.781816 -1.167267
v -2.361797 0.786671 -1.166772
v -2.359511 0.782252 -1.167441
v -2.358361 0.780556 -1.169588
v -2.358207 0.781109 -1.170663
v -2.358723 0.780652 -1.168806
v -2.358539 0.781540 -1.170861
v -2.366812 0.795398 -1.178411
v -2.368370 0.796458 -1.178069
v -2.365308 0.793993 -1.178262
v -2.368451 0.796308 -1.177841
v -2.371018 0.797988 -1.174172
v -2.370003 0.797655 -1.172321
v -2.371297 0.797905 -1.175971
v -2.369973 0.797423 -1.172484
v -2.368953 0.796968 -1.170874
v -2.367738 0.795773 -1.169709
v -2.358818 0.780891 -1.167979
v -2.358736 0.782817 -1.172373
v -2.359693 0.785129 -1.174175
v -2.370140 0.797344 -1.177263
v -2.363702 0.792068 -1.177592
v -2.362153 0.789832 -1.176612
v -2.366226 0.793918 -1.168706
v -2.364640 0.791655 -1.167859
v -2.363202 0.789236 -1.167163
v -2.360825 0.787494 -1.175531
vn 0.592900 0.769300 0.237800
vn 0.651700 0.757900 0.027300
vn 0.693000 0.719300 0.047100
vn 0.642800 0.728700 0.236100
vn 0.662700 0.710800 0.235500
vn 0.596500 0.768800 0.230500
vn 0.547100 0.806200 0.225200
vn 0.541600 0.823200 0.170000
vn 0.582600 0.812700 -0.003700
vn 0.708900 0.684300 -0.170600
vn 0.708300 0.686800 -0.163000
vn 0.761500 0.638400 -0.111900
vn 0.746500 0.652700 -0.129000
vn 0.636300 0.753900 -0.163700
vn 0.667200 0.718200 -0.197600
vn 0.863200 0.504300 0.025000
vn 0.860000 0.506300 0.062800
vn 0.874000 0.479900 0.075400
vn 0.879800 0.474500 0.027500
vn 0.858800 0.492400 0.141400
vn 0.839400 0.528100 0.128500
vn 0.795900 0.596800 0.101800
vn 0.826900 0.562200 -0.011400
vn 0.831200 0.555600 0.019900
vn 0.804900 0.547000 0.230000
vn 0.817300 0.520400 0.247400
vn 0.837200 0.507000 0.205100
vn 0.821600 0.534600 0.198100
vn 0.780400 0.592800 0.198800
vn 0.761500 0.610200 0.218500
vn 0.700800 0.678300 0.220800
vn 0.741100 0.667500 0.071500
vn 0.722700 0.657200 0.213800
vn 0.783100 0.617900 -0.069200
vn 0.796200 0.603300 -0.044800
vn 0.890000 0.455800 0.007200
vn 0.886800 0.458300 0.059800
vn 0.899300 0.435900 0.034400
vn 0.916100 0.401000 0.003100
vn 0.889700 0.425900 0.164000
vn 0.867400 0.475200 0.147400
vn 0.813800 0.511700 0.275300
vn 0.828300 0.465300 0.312100
vn 0.833300 0.484300 0.266300
vn 0.837900 0.494200 0.231800
vn -0.597600 -0.754600 -0.271000
vn -0.663400 -0.747600 -0.032800
vn -0.706500 -0.705600 -0.053800
vn -0.604000 -0.706800 -0.368100
vn -0.561200 -0.675600 -0.478000
vn -0.568300 -0.686100 -0.454200
vn -0.605100 -0.691800 -0.394000
vn -0.637700 -0.728400 -0.250600
vn -0.693000 -0.719400 -0.047000
vn -0.728200 -0.658800 0.188700
vn -0.788400 -0.524700 0.321000
vn -0.793400 -0.505600 0.339000
vn -0.777700 -0.579600 0.243400
vn -0.749400 -0.646400 0.142800
vn -0.790200 -0.556100 0.257500
vn -0.865300 -0.501200 -0.009100
vn -0.873200 -0.476800 0.101000
vn -0.847000 -0.515800 0.128500
vn -0.829100 -0.558500 0.025900
vn -0.796000 -0.596700 -0.101800
vn -0.839500 -0.527900 -0.128500
vn -0.858900 -0.492300 -0.141500
vn -0.881200 -0.472600 -0.008500
vn -0.875500 -0.466900 0.124000
vn -0.798400 -0.550200 -0.244500
vn -0.755700 -0.612300 -0.232300
vn -0.714700 -0.612800 -0.337100
vn -0.746900 -0.569400 -0.343400
vn -0.736300 -0.569000 -0.366100
vn -0.808700 -0.525800 -0.263700
vn -0.695200 -0.679500 -0.234300
vn -0.741100 -0.667600 -0.071500
vn -0.659600 -0.663400 -0.353100
vn -0.785300 -0.613500 0.082900
vn -0.813200 -0.550800 0.187500
vn -0.884600 -0.465800 0.023200
vn -0.858900 -0.477000 0.186300
vn -0.862200 -0.485700 -0.143800
vn -0.838000 -0.530500 -0.127600
vn -0.856700 -0.502800 0.114600
vn -0.844000 -0.487000 0.224700
vn -0.794800 -0.531600 -0.292700
vn -0.691700 -0.599600 -0.402500
vn -0.660700 -0.621300 -0.421200
vn -0.728700 -0.596700 -0.336000
vn 0.093200 -0.035400 0.995000
vn 0.325700 -0.355400 0.876100
vn -0.015500 0.076700 0.996900
vn -0.844000 -0.487000 0.224700
vn 0.516300 -0.853200 0.073700
vn 0.684300 -0.618500 -0.386100
vn 0.325800 -0.902700 0.281000
vn -0.660700 -0.621300 -0.421200
vn 0.244100 0.271200 -0.931000
vn -0.012500 0.462100 -0.886700
vn 0.369800 0.102000 -0.923500
vn -0.561200 -0.675600 -0.478000
vn -0.690200 0.700900 0.179400
vn -0.410400 0.753600 0.513400
vn -0.752900 0.568200 -0.332200
vn -0.793400 -0.505600 0.339000
vn -0.232800 0.620800 0.748600
vn -0.139100 0.474900 0.869000
vn 0.389300 -0.759900 0.520500
vn 0.579000 -0.391600 -0.715100
vn 0.498700 -0.300400 -0.813000
vn -0.426700 0.507900 -0.748300
vn 0.426000 -0.033200 -0.904100
vn 0.441800 -0.118000 -0.889300
vn -0.095400 0.348900 0.932200
vn -0.083500 0.267000 0.960100
vn -0.071600 0.184100 0.980300
vn 0.453400 -0.200800 -0.868300
vt 0.839504 0.118056
vt 0.856743 0.205307
vt 0.741230 0.205307
vt 0.734555 0.106726
vt 0.724541 0.032791
vt 0.813647 0.052618
vt 0.868992 0.081539
vt 0.913398 0.129584
vt 0.940923 0.205307
vt 0.839504 0.292557
vt 0.813647 0.357995
vt 0.724541 0.377822
vt 0.734555 0.303887
vt 0.913398 0.281029
vt 0.868992 0.329074
vt 0.369475 0.299954
vt 0.368286 0.370940
vt 0.245840 0.351447
vt 0.246397 0.288815
vt 0.246768 0.205307
vt 0.370268 0.205307
vt 0.494283 0.205307
vt 0.492822 0.304944
vt 0.490632 0.379672
vt 0.369475 0.110659
vt 0.246397 0.121798
vt 0.245841 0.059166
vt 0.368286 0.039673
vt 0.490632 0.030941
vt 0.492822 0.105669
vt 0.616755 0.103478
vt 0.619174 0.205307
vt 0.613127 0.027106
vt 0.616755 0.307135
vt 0.613126 0.383507
vt 0.123273 0.268175
vt 0.123047 0.315326
vt 0.054743 0.283353
vt 0.030912 0.249131
vt 0.030973 0.205306
vt 0.123423 0.205306
vt 0.123273 0.142438
vt 0.030912 0.161481
vt 0.054744 0.127260
vt 0.123047 0.095287
vt 0.839504 0.118056
vt 0.856743 0.205307
vt 0.968983 0.205307
vt 0.938030 0.133427
vt 0.876123 0.061548
vt 0.805028 0.030806
vt 0.721203 0.008146
vt 0.734555 0.106726
vt 0.741230 0.205307
vt 0.839504 0.292557
vt 0.805028 0.379807
vt 0.876123 0.349065
vt 0.938030 0.277186
vt 0.734555 0.303887
vt 0.721203 0.402467
vt 0.369475 0.299954
vt 0.367890 0.394602
vt 0.489902 0.404581
vt 0.492822 0.304944
vt 0.494283 0.205307
vt 0.370268 0.205307
vt 0.246768 0.205307
vt 0.246397 0.288815
vt 0.245655 0.372324
vt 0.369475 0.110659
vt 0.492822 0.105669
vt 0.489902 0.006032
vt 0.367890 0.016011
vt 0.245655 0.038289
vt 0.246397 0.121798
vt 0.616755 0.103478
vt 0.619174 0.205307
vt 0.611917 0.001649
vt 0.616755 0.307135
vt 0.611917 0.408964
vt 0.123273 0.268175
vt 0.122972 0.331043
vt 0.123423 0.205306
vt 0.000156 0.205306
vt 0.000125 0.242784
vt 0.000064 0.280261
vt 0.123273 0.142438
vt 0.122972 0.079570
vt 0.000064 0.130352
vt 0.000125 0.167829
vt 0.122972 0.331043
vt 0.030806 0.283587
vt 0.245655 0.372324
vt 0.030806 0.283587
vt 0.000125 0.167829
vt 0.030806 0.127026
vt 0.000156 0.205306
vt 0.030806 0.127026
vt 0.805028 0.030806
vt 0.873826 0.071832
vt 0.721203 0.008146
vt 0.873826 0.071832
vt 0.938030 0.277186
vt 0.873826 0.338781
vt 0.968983 0.205307
vt 0.873826 0.338781
vt 0.805028 0.379807
vt 0.721203 0.402467
vt 0.000125 0.242784
vt 0.122972 0.079570
vt 0.245655 0.038289
vt 0.938030 0.133427
vt 0.611917 0.001649
vt 0.489902 0.006032
vt 0.611917 0.408964
vt 0.489902 0.404581
vt 0.367890 0.394602
vt 0.367890 0.016011
f 1/1/1 2/2/2 3/3/3
f 1/1/1 3/3/3 4/4/4
f 1/1/1 4/4/4 5/5/5
f 1/1/1 5/5/5 6/6/6
f 1/1/1 6/6/6 7/7/7
f 1/1/1 7/7/7 8/8/8
f 1/1/1 8/8/8 9/9/9
f 1/1/1 9/9/9 2/2/2
f 10/10/10 11/11/11 12/12/12
f 10/10/10 12/12/12 13/13/13
f 10/10/10 13/13/13 3/3/3
f 10/10/10 3/3/3 2/2/2
f 10/10/10 2/2/2 9/9/9
f 10/10/10 9/9/9 14/14/14
f 10/10/10 14/14/14 15/15/15
f 10/10/10 15/15/15 11/11/11
f 16/16/16 17/17/17 18/18/18
f 16/16/16 18/18/18 19/19/19
f 16/16/16 19/19/19 20/20/20
f 16/16/16 20/20/20 21/21/21
f 16/16/16 21/21/21 22/22/22
f 16/16/16 22/22/22 23/23/23
f 16/16/16 23/23/23 24/24/24
f 16/16/16 24/24/24 17/17/17
f 25/25/25 21/21/21 20/20/20
f 25/25/25 20/20/20 26/26/26
f 25/25/25 26/26/26 27/27/27
f 25/25/25 27/27/27 28/28/28
f 25/25/25 28/28/28 29/29/29
f 25/25/25 29/29/29 30/30/30
f 25/25/25 30/30/30 22/22/22
f 25/25/25 22/22/22 21/21/21
f 31/31/31 32/32/32 22/22/22
f 31/31/31 22/22/22 30/30/30
f 31/31/31 30/30/30 29/29/29
f 31/31/31 29/29/29 33/33/33
f 31/31/31 33/33/33 5/5/5
f 31/31/31 5/5/5 4/4/4
f 31/31/31 4/4/4 3/3/3
f 31/31/31 3/3/3 32/32/32
f 34/34/34 35/35/35 24/24/24
f 34/34/34 24/24/24 23/23/23
f 34/34/34 23/23/23 22/22/22
f 34/34/34 22/22/22 32/32/32
f 34/34/34 32/32/32 3/3/3
f 34/34/34 3/3/3 13/13/13
f 34/34/34 13/13/13 12/12/12
f 34/34/34 12/12/12 35/35/35
f 36/36/36 37/37/37 38/38/38
f 36/36/36 38/38/38 39/39/39
f 36/36/36 39/39/39 40/40/40
f 36/36/36 40/40/40 41/41/41
f 36/36/36 41/41/41 20/20/20
f 36/36/36 20/20/20 19/19/19
f 36/36/36 19/19/19 18/18/18
f 36/36/36 18/18/18 37/37/37
f 42/42/42 41/41/41 40/40/40
f 42/42/42 40/40/40 43/43/43
f 42/42/42 43/43/43 44/44/44
f 42/42/42 44/44/44 45/45/45
f 42/42/42 45/45/45 27/27/27
f 42/42/42 27/27/27 26/26/26
f 42/42/42 26/26/26 20/20/20
f 42/42/42 20/20/20 41/41/41
f 46/46/46 47/47/47 48/48/48
f 46/46/46 48/48/48 49/49/49
f 46/46/46 49/49/49 50/50/50
f 46/46/46 50/50/50 51/51/51
f 46/46/46 51/51/51 52/52/52
f 46/46/46 52/52/52 53/53/53
f 46/46/46 53/53/53 54/54/54
f 46/46/46 54/54/54 47/47/47
f 55/55/55 56/56/56 57/57/57
f 55/55/55 57/57/57 58/58/58
f 55/55/55 58/58/58 48/48/48
f 55/55/55 48/48/48 47/47/47
f 55/55/55 47/47/47 54/54/54
f 55/55/55 54/54/54 59/59/59
f 55/55/55 59/59/59 60/60/60
f 55/55/55 60/60/60 56/56/56
f 61/61/61 62/62/62 63/63/63
f 61/61/61 63/63/63 64/64/64
f 61/61/61 64/64/64 65/65/65
f 61/61/61 65/65/65 66/66/66
f 61/61/61 66/66/66 67/67/67
f 61/61/61 67/67/67 68/68/68
f 61/61/61 68/68/68 69/69/69
f 61/61/61 69/69/69 62/62/62
f 70/70/70 66/66/66 65/65/65
f 70/70/70 65/65/65 71/71/71
f 70/70/70 71/71/71 72/72/72
f 70/70/70 72/72/72 73/73/73
f 70/70/70 73/73/73 74/74/74
f 70/70/70 74/74/74 75/75/75
f 70/70/70 75/75/75 67/67/67
f 70/70/70 67/67/67 66/66/66
f 76/76/76 77/77/77 54/54/54
f 76/76/76 54/54/54 53/53/53
f 76/76/76 53/53/53 52/52/52
f 76/76/76 52/52/52 78/78/78
f 76/76/76 78/78/78 72/72/72
f 76/76/76 72/72/72 71/71/71
f 76/76/76 71/71/71 65/65/65
f 76/76/76 65/65/65 77/77/77
f 79/79/79 80/80/80 60/60/60
f 79/79/79 60/60/60 59/59/59
f 79/79/79 59/59/59 54/54/54
f 79/79/79 54/54/54 77/77/77
f 79/79/79 77/77/77 65/65/65
f 79/79/79 65/65/65 64/64/64
f 79/79/79 64/64/64 63/63/63
f 79/79/79 63/63/63 80/80/80
f 81/81/81 82/82/82 69/69/69
f 81/81/81 69/69/69 68/68/68
f 81/81/81 68/68/68 67/67/67
f 81/81/81 67/67/67 83/83/83
f 81/81/81 83/83/83 84/84/84
f 81/81/81 84/84/84 85/85/85
f 81/81/81 85/85/85 86/86/86
f 81/81/81 86/86/86 82/82/82
f 87/87/87 83/83/83 67/67/67
f 87/87/87 67/67/67 75/75/75
f 87/87/87 75/75/75 74/74/74
f 87/87/87 74/74/74 88/88/88
f 87/87/87 88/88/88 89/89/89
f 87/87/87 89/89/89 90/90/90
f 87/87/87 90/90/90 84/84/84
f 87/87/87 84/84/84 83/83/83
f 91/91/91 92/92/92 38/38/38
f 91/91/91 38/38/38 37/37/37
f 91/91/91 37/37/37 18/18/18
f 91/91/91 18/18/18 93/93/93
f 91/91/91 93/93/93 69/69/69
f 91/91/91 69/69/69 82/82/82
f 91/91/91 82/82/82 94/94/94
f 91/91/91 94/94/94 92/92/92
f 95/95/95 96/96/96 44/44/44
f 95/95/95 44/44/44 43/43/43
f 95/95/95 43/43/43 40/40/40
f 95/95/95 40/40/40 97/97/97
f 95/95/95 97/97/97 84/84/84
f 95/95/95 84/84/84 90/90/90
f 95/95/95 90/90/90 98/98/98
f 95/95/95 98/98/98 96/96/96
f 99/99/99 100/100/100 7/7/7
f 99/99/99 7/7/7 6/6/6
f 99/99/99 6/6/6 5/5/5
f 99/99/99 5/5/5 101/101/101
f 99/99/99 101/101/101 52/52/52
f 99/99/99 52/52/52 51/51/51
f 99/99/99 51/51/51 102/102/102
f 99/99/99 102/102/102 100/100/100
f 103/103/103 104/104/104 15/15/15
f 103/103/103 15/15/15 14/14/14
f 103/103/103 14/14/14 9/9/9
f 103/103/103 9/9/9 105/105/105
f 103/103/103 105/105/105 48/48/48
f 103/103/103 48/48/48 58/58/58
f 103/103/103 58/58/58 106/106/106
f 103/103/103 106/106/106 104/104/104
f 107/107/107 108/108/108 12/12/12
f 107/107/107 12/12/12 11/11/11
f 107/107/107 11/11/11 15/15/15
f 107/107/107 15/15/15 104/104/104
f 107/107/107 104/104/104 106/106/106
f 107/107/107 106/106/106 56/56/56
f 107/107/107 56/56/56 60/60/60
f 107/107/107 60/60/60 108/108/108
f 109/109/109 97/97/97 40/40/40
f 109/109/109 40/40/40 39/39/39
f 109/109/109 39/39/39 38/38/38
f 109/109/109 38/38/38 92/92/92
f 109/109/109 92/92/92 94/94/94
f 109/109/109 94/94/94 85/85/85
f 109/109/109 85/85/85 84/84/84
f 109/109/109 84/84/84 97/97/97
f 110/110/110 111/111/111 27/27/27
f 110/110/110 27/27/27 45/45/45
f 110/110/110 45/45/45 44/44/44
f 110/110/110 44/44/44 96/96/96
f 110/110/110 96/96/96 98/98/98
f 110/110/110 98/98/98 88/88/88
f 110/110/110 88/88/88 74/74/74
f 110/110/110 74/74/74 111/111/111
f 112/112/112 105/105/105 9/9/9
f 112/112/112 9/9/9 8/8/8
f 112/112/112 8/8/8 7/7/7
f 112/112/112 7/7/7 100/100/100
f 112/112/112 100/100/100 102/102/102
f 112/112/112 102/102/102 49/49/49
f 112/112/112 49/49/49 48/48/48
f 112/112/112 48/48/48 105/105/105
f 113/113/113 101/101/101 5/5/5
f 113/113/113 5/5/5 33/33/33
f 113/113/113 33/33/33 29/29/29
f 113/113/113 29/29/29 114/114/114
f 113/113/113 114/114/114 72/72/72
f 113/113/113 72/72/72 78/78/78
f 113/113/113 78/78/78 52/52/52
f 113/113/113 52/52/52 101/101/101
f 115/115/115 116/116/116 24/24/24
f 115/115/115 24/24/24 35/35/35
f 115/115/115 35/35/35 12/12/12
f 115/115/115 12/12/12 108/108/108
f 115/115/115 108/108/108 60/60/60
f 115/115/115 60/60/60 80/80/80
f 115/115/115 80/80/80 63/63/63
f 115/115/115 63/63/63 116/116/116
f 117/117/117 93/93/93 18/18/18
f 117/117/117 18/18/18 17/17/17
f 117/117/117 17/17/17 24/24/24
f 117/117/117 24/24/24 116/116/116
f 117/117/117 116/116/116 63/63/63
f 117/117/117 63/63/63 62/62/62
f 117/117/117 62/62/62 69/69/69
f 117/117/117 69/69/69 93/93/93
f 118/118/118 114/114/114 29/29/29
f 118/118/118 29/29/29 28/28/28
f 118/118/118 28/28/28 27/27/27
f 118/118/118 27/27/27 111/111/111
f 118/118/118 111/111/111 74/74/74
f 118/118/118 74/74/74 73/73/73
f 118/118/118 73/73/73 72/72/72
f 118/118/118 72/72/72 114/114/114
