v -2.436319 0.750824 -1.096435
v -2.438404 0.750373 -1.096253
v -2.437256 0.748598 -1.094342
v -2.435017 0.749262 -1.094800
v -2.433266 0.749832 -1.094920
v -2.434606 0.751124 -1.096213
v -2.435804 0.751671 -1.097046
v -2.437319 0.751828 -1.097643
v -2.439250 0.751600 -1.097718
v -2.440103 0.749865 -1.095054
v -2.441242 0.749440 -1.093791
v -2.440804 0.747920 -1.092169
v -2.439317 0.748171 -1.093230
v -2.440594 0.750997 -1.096448
v -2.441178 0.750308 -1.095084
v -2.435817 0.741541 -1.088392
v -2.437358 0.741249 -1.087615
v -2.435830 0.738820 -1.086517
v -2.434471 0.739074 -1.087216
v -2.432639 0.739468 -1.088037
v -2.433743 0.741992 -1.089308
v -2.434878 0.744393 -1.090749
v -2.437045 0.743934 -1.089774
v -2.438652 0.743648 -1.088935
v -2.431604 0.742610 -1.089930
v -2.430744 0.740019 -1.088576
v -2.429300 0.740477 -1.088900
v -2.429975 0.743122 -1.090310
v -2.430928 0.745607 -1.091754
v -2.432637 0.745052 -1.091383
v -2.433782 0.747304 -1.093061
v -2.436065 0.746599 -1.092467
v -2.432033 0.747918 -1.093362
v -2.438255 0.746169 -1.091429
v -2.439871 0.745930 -1.090502
v -2.432903 0.736615 -1.086181
v -2.433909 0.736449 -1.085615
v -2.432595 0.735146 -1.085296
v -2.431653 0.734760 -1.085479
v -2.430731 0.734927 -1.085965
v -2.431544 0.736892 -1.086826
v -2.430122 0.737321 -1.087196
v -2.429747 0.735244 -1.086175
v -2.429167 0.736016 -1.086547
v -2.429033 0.737686 -1.087394
v -2.436306 0.750671 -1.096598
v -2.438419 0.750211 -1.096407
v -2.439260 0.751477 -1.097831
v -2.437306 0.751712 -1.097763
v -2.435790 0.751588 -1.097137
v -2.434582 0.751014 -1.096338
v -2.433249 0.749726 -1.095050
v -2.435010 0.749114 -1.094968
v -2.437274 0.748442 -1.094501
v -2.440146 0.749697 -1.095196
v -2.441288 0.749313 -1.093891
v -2.441209 0.750213 -1.095159
v -2.440627 0.750870 -1.096551
v -2.439361 0.748010 -1.093380
v -2.440850 0.747797 -1.092276
v -2.435871 0.741412 -1.088568
v -2.437407 0.741150 -1.087744
v -2.438698 0.743542 -1.089058
v -2.437095 0.743795 -1.089943
v -2.434908 0.744258 -1.090926
v -2.433779 0.741867 -1.089492
v -2.432678 0.739350 -1.088225
v -2.434527 0.738952 -1.087397
v -2.435882 0.738727 -1.086648
v -2.431621 0.742490 -1.090119
v -2.432648 0.744923 -1.091566
v -2.430927 0.745513 -1.091894
v -2.429978 0.743035 -1.090455
v -2.429306 0.740395 -1.089048
v -2.430764 0.739906 -1.088770
v -2.433784 0.747164 -1.093236
v -2.436089 0.746453 -1.092635
v -2.432024 0.747818 -1.093497
v -2.438301 0.746019 -1.091588
v -2.439917 0.745816 -1.090617
v -2.432962 0.736496 -1.086362
v -2.433963 0.736357 -1.085746
v -2.431584 0.736777 -1.087016
v -2.430761 0.734841 -1.086107
v -2.431698 0.734671 -1.085615
v -2.432633 0.735079 -1.085394
v -2.430142 0.737211 -1.087391
v -2.429038 0.737607 -1.087544
v -2.429173 0.735956 -1.086657
v -2.429761 0.735162 -1.086322
v -2.434271 0.736352 -1.085484
v -2.432385 0.734637 -1.085064
v -2.436308 0.738694 -1.086341
v -2.432633 0.735079 -1.085394
v -2.429628 0.734515 -1.085900
v -2.428950 0.735508 -1.086318
v -2.430473 0.734233 -1.085741
v -2.429173 0.735956 -1.086657
v -2.434021 0.751176 -1.096195
v -2.435632 0.751836 -1.097179
v -2.432672 0.749976 -1.095019
v -2.435790 0.751588 -1.097137
v -2.440772 0.751318 -1.096958
v -2.441446 0.750361 -1.095057
v -2.439536 0.751954 -1.098257
v -2.441209 0.750213 -1.095159
v -2.441645 0.749242 -1.093413
v -2.441324 0.747781 -1.091861
v -2.431256 0.734102 -1.085306
v -2.428669 0.737773 -1.087528
v -2.428819 0.740593 -1.089074
v -2.437646 0.752111 -1.098099
v -2.431443 0.748079 -1.093524
v -2.430356 0.745751 -1.091941
v -2.440432 0.745799 -1.090243
v -2.439210 0.743505 -1.088709
v -2.437895 0.741107 -1.087413
v -2.429431 0.743254 -1.090502
vn -0.145500 0.677300 0.721200
vn 0.045000 0.758300 0.650300
vn 0.069000 0.720500 0.690000
vn -0.100200 0.647300 0.755600
vn -0.081500 0.633700 0.769200
vn -0.138100 0.680000 0.720000
vn -0.176800 0.710100 0.681500
vn -0.146400 0.747000 0.648400
vn 0.007000 0.812000 0.583600
vn 0.250200 0.777600 0.576700
vn 0.243200 0.776900 0.580700
vn 0.255000 0.719100 0.646400
vn 0.253500 0.737100 0.626500
vn 0.176700 0.829200 0.530300
vn 0.232900 0.814100 0.531900
vn 0.265700 0.555200 0.788100
vn 0.235600 0.541600 0.806900
vn 0.244700 0.514200 0.822000
vn 0.285000 0.529200 0.799200
vn 0.183300 0.497300 0.848000
vn 0.167700 0.532500 0.829600
vn 0.135500 0.600100 0.788300
vn 0.248900 0.617900 0.745800
vn 0.231100 0.599800 0.766000
vn 0.067100 0.504800 0.860600
vn 0.071900 0.475200 0.876900
vn 0.119100 0.482400 0.867800
vn 0.104400 0.508300 0.854800
vn 0.057800 0.555900 0.829200
vn 0.026000 0.561400 0.827100
vn -0.036700 0.614900 0.787700
vn 0.098700 0.669700 0.736000
vn -0.010700 0.601200 0.799000
vn 0.244300 0.686100 0.685200
vn 0.239600 0.664700 0.707600
vn 0.312800 0.521600 0.793700
vn 0.271900 0.502400 0.820700
vn 0.306300 0.493800 0.813800
vn 0.352200 0.476600 0.805400
vn 0.210500 0.431700 0.877100
vn 0.190600 0.480400 0.856100
vn 0.053100 0.455700 0.888500
vn 0.052900 0.400700 0.914700
vn 0.081700 0.436700 0.895900
vn 0.105300 0.460100 0.881600
vn 0.161300 -0.651200 -0.741500
vn -0.051600 -0.748200 -0.661500
vn -0.077200 -0.707100 -0.702900
vn 0.209400 -0.569900 -0.794600
vn 0.300800 -0.492400 -0.816700
vn 0.283800 -0.512200 -0.810600
vn 0.221600 -0.545900 -0.808000
vn 0.113500 -0.640600 -0.759500
vn -0.069000 -0.720600 -0.689900
vn -0.284100 -0.764300 -0.578900
vn -0.467200 -0.702800 -0.536400
vn -0.490800 -0.693200 -0.527800
vn -0.383300 -0.720100 -0.578400
vn -0.267600 -0.737200 -0.620300
vn -0.409600 -0.706100 -0.577500
vn -0.279700 -0.559000 -0.780600
vn -0.373900 -0.581700 -0.722300
vn -0.363600 -0.624900 -0.690800
vn -0.262200 -0.620500 -0.739100
vn -0.135500 -0.600000 -0.788400
vn -0.167800 -0.532300 -0.829700
vn -0.183400 -0.497200 -0.848000
vn -0.300400 -0.535300 -0.789400
vn -0.395700 -0.582300 -0.710200
vn -0.051500 -0.501100 -0.863800
vn -0.011900 -0.557000 -0.830400
vn 0.087300 -0.510500 -0.855400
vn 0.056700 -0.472600 -0.879500
vn 0.079000 -0.461800 -0.883400
vn -0.053100 -0.472500 -0.879700
vn 0.050100 -0.609800 -0.790900
vn -0.098700 -0.669700 -0.736000
vn 0.149900 -0.543400 -0.826000
vn -0.257300 -0.687800 -0.678800
vn -0.373800 -0.676200 -0.634800
vn -0.328100 -0.542100 -0.773600
vn -0.427700 -0.614200 -0.663200
vn -0.186200 -0.490600 -0.851200
vn -0.166600 -0.534900 -0.828300
vn -0.364100 -0.608800 -0.704800
vn -0.443300 -0.636700 -0.630900
vn -0.022000 -0.464500 -0.885300
vn 0.142600 -0.469500 -0.871300
vn 0.182400 -0.478100 -0.859100
vn 0.072400 -0.498100 -0.864100
vn -0.657100 -0.418300 0.627000
vn -0.313900 -0.632400 0.708200
vn -0.763900 -0.330800 0.554100
vn -0.443300 -0.636700 -0.630900
vn 0.574400 -0.740000 0.349700
vn 0.909700 -0.322200 0.261900
vn 0.336900 -0.891400 0.303000
vn 0.182400 -0.478100 -0.859100
vn 0.706500 0.648600 -0.283200
vn 0.454500 0.772500 -0.443400
vn 0.838500 0.507200 -0.198900
vn 0.300800 -0.492400 -0.816700
vn -0.795200 0.479300 -0.371400
vn -0.902000 0.428500 0.051200
vn -0.405800 0.555300 -0.725900
vn -0.490800 -0.693200 -0.527800
vn -0.920900 0.235400 0.310700
vn -0.898000 0.066800 0.434700
vn 0.142000 -0.849900 0.507400
vn 0.999700 0.002400 0.022200
vn 0.989600 0.114900 -0.086200
vn 0.103700 0.707300 -0.699200
vn 0.909400 0.383700 -0.160300
vn 0.940900 0.303100 -0.150700
vn -0.869700 -0.067400 0.488900
vn -0.850700 -0.151500 0.503300
vn -0.825800 -0.233500 0.513300
vn 0.965000 0.221300 -0.140500
vt 0.839504 0.118056
vt 0.856743 0.205307
vt 0.741230 0.205307
vt 0.734555 0.106726
vt 0.724541 0.032791
vt 0.813647 0.052618
vt 0.868992 0.081539
vt 0.913398 0.129584
vt 0.940923 0.205307
vt 0.839504 0.292557
vt 0.813647 0.357995
vt 0.724541 0.377822
vt 0.734555 0.303887
vt 0.913398 0.281029
vt 0.868992 0.329074
vt 0.369475 0.299954
vt 0.368286 0.370940
vt 0.245840 0.351447
vt 0.246397 0.288815
vt 0.246768 0.205307
vt 0.370268 0.205307
vt 0.494283 0.205307
vt 0.492822 0.304944
vt 0.490632 0.379672
vt 0.369475 0.110659
vt 0.246397 0.121798
vt 0.245841 0.059166
vt 0.368286 0.039673
vt 0.490632 0.030941
vt 0.492822 0.105669
vt 0.616755 0.103478
vt 0.619174 0.205307
vt 0.613127 0.027106
vt 0.616755 0.307135
vt 0.613126 0.383507
vt 0.123273 0.268175
vt 0.123047 0.315326
vt 0.054743 0.283353
vt 0.030912 0.249131
vt 0.030973 0.205306
vt 0.123423 0.205306
vt 0.123273 0.142438
vt 0.030912 0.161481
vt 0.054744 0.127260
vt 0.123047 0.095287
vt 0.839504 0.118056
vt 0.856743 0.205307
vt 0.968983 0.205307
vt 0.938030 0.133427
vt 0.876123 0.061548
vt 0.805028 0.030806
vt 0.721203 0.008146
vt 0.734555 0.106726
vt 0.741230 0.205307
vt 0.839504 0.292557
vt 0.805028 0.379807
vt 0.876123 0.349065
vt 0.938030 0.277186
vt 0.734555 0.303887
vt 0.721203 0.402467
vt 0.369475 0.299954
vt 0.367890 0.394602
vt 0.489902 0.404581
vt 0.492822 0.304944
vt 0.494283 0.205307
vt 0.370268 0.205307
vt 0.246768 0.205307
vt 0.246397 0.288815
vt 0.245655 0.372324
vt 0.369475 0.110659
vt 0.492822 0.105669
vt 0.489902 0.006032
vt 0.367890 0.016011
vt 0.245655 0.038289
vt 0.246397 0.121798
vt 0.616755 0.103478
vt 0.619174 0.205307
vt 0.611917 0.001649
vt 0.616755 0.307135
vt 0.611917 0.408964
vt 0.123273 0.268175
vt 0.122972 0.331043
vt 0.123423 0.205306
vt 0.000156 0.205306
vt 0.000125 0.242784
vt 0.000064 0.280261
vt 0.123273 0.142438
vt 0.122972 0.079570
vt 0.000064 0.130352
vt 0.000125 0.167829
vt 0.122972 0.331043
vt 0.030806 0.283587
vt 0.245655 0.372324
vt 0.030806 0.283587
vt 0.000125 0.167829
vt 0.030806 0.127026
vt 0.000156 0.205306
vt 0.030806 0.127026
vt 0.805028 0.030806
vt 0.873826 0.071832
vt 0.721203 0.008146
vt 0.873826 0.071832
vt 0.938030 0.277186
vt 0.873826 0.338781
vt 0.968983 0.205307
vt 0.873826 0.338781
vt 0.805028 0.379807
vt 0.721203 0.402467
vt 0.000125 0.242784
vt 0.122972 0.079570
vt 0.245655 0.038289
vt 0.938030 0.133427
vt 0.611917 0.001649
vt 0.489902 0.006032
vt 0.611917 0.408964
vt 0.489902 0.404581
vt 0.367890 0.394602
vt 0.367890 0.016011
f 1/1/1 2/2/2 3/3/3
f 1/1/1 3/3/3 4/4/4
f 1/1/1 4/4/4 5/5/5
f 1/1/1 5/5/5 6/6/6
f 1/1/1 6/6/6 7/7/7
f 1/1/1 7/7/7 8/8/8
f 1/1/1 8/8/8 9/9/9
f 1/1/1 9/9/9 2/2/2
f 10/10/10 11/11/11 12/12/12
f 10/10/10 12/12/12 13/13/13
f 10/10/10 13/13/13 3/3/3
f 10/10/10 3/3/3 2/2/2
f 10/10/10 2/2/2 9/9/9
f 10/10/10 9/9/9 14/14/14
f 10/10/10 14/14/14 15/15/15
f 10/10/10 15/15/15 11/11/11
f 16/16/16 17/17/17 18/18/18
f 16/16/16 18/18/18 19/19/19
f 16/16/16 19/19/19 20/20/20
f 16/16/16 20/20/20 21/21/21
f 16/16/16 21/21/21 22/22/22
f 16/16/16 22/22/22 23/23/23
f 16/16/16 23/23/23 24/24/24
f 16/16/16 24/24/24 17/17/17
f 25/25/25 21/21/21 20/20/20
f 25/25/25 20/20/20 26/26/26
f 25/25/25 26/26/26 27/27/27
f 25/25/25 27/27/27 28/28/28
f 25/25/25 28/28/28 29/29/29
f 25/25/25 29/29/29 30/30/30
f 25/25/25 30/30/30 22/22/22
f 25/25/25 22/22/22 21/21/21
f 31/31/31 32/32/32 22/22/22
f 31/31/31 22/22/22 30/30/30
f 31/31/31 30/30/30 29/29/29
f 31/31/31 29/29/29 33/33/33
f 31/31/31 33/33/33 5/5/5
f 31/31/31 5/5/5 4/4/4
f 31/31/31 4/4/4 3/3/3
f 31/31/31 3/3/3 32/32/32
f 34/34/34 35/35/35 24/24/24
f 34/34/34 24/24/24 23/23/23
f 34/34/34 23/23/23 22/22/22
f 34/34/34 22/22/22 32/32/32
f 34/34/34 32/32/32 3/3/3
f 34/34/34 3/3/3 13/13/13
f 34/34/34 13/13/13 12/12/12
f 34/34/34 12/12/12 35/35/35
f 36/36/36 37/37/37 38/38/38
f 36/36/36 38/38/38 39/39/39
f 36/36/36 39/39/39 40/40/40
f 36/36/36 40/40/40 41/41/41
f 36/36/36 41/41/41 20/20/20
f 36/36/36 20/20/20 19/19/19
f 36/36/36 19/19/19 18/18/18
f 36/36/36 18/18/18 37/37/37
f 42/42/42 41/41/41 40/40/40
f 42/42/42 40/40/40 43/43/43
f 42/42/42 43/43/43 44/44/44
f 42/42/42 44/44/44 45/45/45
f 42/42/42 45/45/45 27/27/27
f 42/42/42 27/27/27 26/26/26
f 42/42/42 26/26/26 20/20/20
f 42/42/42 20/20/20 41/41/41
f 46/46/46 47/47/47 48/48/48
f 46/46/46 48/48/48 49/49/49
f 46/46/46 49/49/49 50/50/50
f 46/46/46 50/50/50 51/51/51
f 46/46/46 51/51/51 52/52/52
f 46/46/46 52/52/52 53/53/53
f 46/46/46 53/53/53 54/54/54
f 46/46/46 54/54/54 47/47/47
f 55/55/55 56/56/56 57/57/57
f 55/55/55 57/57/57 58/58/58
f 55/55/55 58/58/58 48/48/48
f 55/55/55 48/48/48 47/47/47
f 55/55/55 47/47/47 54/54/54
f 55/55/55 54/54/54 59/59/59
f 55/55/55 59/59/59 60/60/60
f 55/55/55 60/60/60 56/56/56
f 61/61/61 62/62/62 63/63/63
f 61/61/61 63/63/63 64/64/64
f 61/61/61 64/64/64 65/65/65
f 61/61/61 65/65/65 66/66/66
f 61/61/61 66/66/66 67/67/67
f 61/61/61 67/67/67 68/68/68
f 61/61/61 68/68/68 69/69/69
f 61/61/61 69/69/69 62/62/62
f 70/70/70 66/66/66 65/65/65
f 70/70/70 65/65/65 71/71/71
f 70/70/70 71/71/71 72/72/72
f 70/70/70 72/72/72 73/73/73
f 70/70/70 73/73/73 74/74/74
f 70/70/70 74/74/74 75/75/75
f 70/70/70 75/75/75 67/67/67
f 70/70/70 67/67/67 66/66/66
f 76/76/76 77/77/77 54/54/54
f 76/76/76 54/54/54 53/53/53
f 76/76/76 53/53/53 52/52/52
f 76/76/76 52/52/52 78/78/78
f 76/76/76 78/78/78 72/72/72
f 76/76/76 72/72/72 71/71/71
f 76/76/76 71/71/71 65/65/65
f 76/76/76 65/65/65 77/77/77
f 79/79/79 80/80/80 60/60/60
f 79/79/79 60/60/60 59/59/59
f 79/79/79 59/59/59 54/54/54
f 79/79/79 54/54/54 77/77/77
f 79/79/79 77/77/77 65/65/65
f 79/79/79 65/65/65 64/64/64
f 79/79/79 64/64/64 63/63/63
f 79/79/79 63/63/63 80/80/80
f 81/81/81 82/82/82 69/69/69
f 81/81/81 69/69/69 68/68/68
f 81/81/81 68/68/68 67/67/67
f 81/81/81 67/67/67 83/83/83
f 81/81/81 83/83/83 84/84/84
f 81/81/81 84/84/84 85/85/85
f 81/81/81 85/85/85 86/86/86
f 81/81/81 86/86/86 82/82/82
f 87/87/87 83/83/83 67/67/67
f 87/87/87 67/67/67 75/75/75
f 87/87/87 75/75/75 74/74/74
f 87/87/87 74/74/74 88/88/88
f 87/87/87 88/88/88 89/89/89
f 87/87/87 89/89/89 90/90/90
f 87/87/87 90/90/90 84/84/84
f 87/87/87 84/84/84 83/83/83
f 91/91/91 92/92/92 38/38/38
f 91/91/91 38/38/38 37/37/37
f 91/91/91 37/37/37 18/18/18
f 91/91/91 18/18/18 93/93/93
f 91/91/91 93/93/93 69/69/69
f 91/91/91 69/69/69 82/82/82
f 91/91/91 82/82/82 94/94/94
f 91/91/91 94/94/94 92/92/92
f 95/95/95 96/96/96 44/44/44
f 95/95/95 44/44/44 43/43/43
f 95/95/95 43/43/43 40/40/40
f 95/95/95 40/40/40 97/97/97
f 95/95/95 97/97/97 84/84/84
f 95/95/95 84/84/84 90/90/90
f 95/95/95 90/90/90 98/98/98
f 95/95/95 98/98/98 96/96/96
f 99/99/99 100/100/100 7/7/7
f 99/99/99 7/7/7 6/6/6
f 99/99/99 6/6/6 5/5/5
f 99/99/99 5/5/5 101/101/101
f 99/99/99 101/101/101 52/52/52
f 99/99/99 52/52/52 51/51/51
f 99/99/99 51/51/51 102/102/102
f 99/99/99 102/102/102 100/100/100
f 103/103/103 104/104/104 15/15/15
f 103/103/103 15/15/15 14/14/14
f 103/103/103 14/14/14 9/9/9
f 103/103/103 9/9/9 105/105/105
f 103/103/103 105/105/105 48/48/48
f 103/103/103 48/48/48 58/58/58
f 103/103/103 58/58/58 106/106/106
f 103/103/103 106/106/106 104/104/104
f 107/107/107 108/108/108 12/12/12
f 107/107/107 12/12/12 11/11/11
f 107/107/107 11/11/11 15/15/15
f 107/107/107 15/15/15 104/104/104
f 107/107/107 104/104/104 106/106/106
f 107/107/107 106/106/106 56/56/56
f 107/107/107 56/56/56 60/60/60
f 107/107/107 60/60/60 108/108/108
f 109/109/109 97/97/97 40/40/40
f 109/109/109 40/40/40 39/39/39
f 109/109/109 39/39/39 38/38/38
f 109/109/109 38/38/38 92/92/92
f 109/109/109 92/92/92 94/94/94
f 109/109/109 94/94/94 85/85/85
f 109/109/109 85/85/85 84/84/84
f 109/109/109 84/84/84 97/97/97
f 110/110/110 111/111/111 27/27/27
f 110/110/110 27/27/27 45/45/45
f 110/110/110 45/45/45 44/44/44
f 110/110/110 44/44/44 96/96/96
f 110/110/110 96/96/96 98/98/98
f 110/110/110 98/98/98 88/88/88
f 110/110/110 88/88/88 74/74/74
f 110/110/110 74/74/74 111/111/111
f 112/112/112 105/105/105 9/9/9
f 112/112/112 9/9/9 8/8/8
f 112/112/112 8/8/8 7/7/7
f 112/112/112 7/7/7 100/100/100
f 112/112/112 100/100/100 102/102/102
f 112/112/112 102/102/102 49/49/49
f 112/112/112 49/49/49 48/48/48
f 112/112/112 48/48/48 105/105/105
f 113/113/113 101/101/101 5/5/5
f 113/113/113 5/5/5 33/33/33
f 113/113/113 33/33/33 29/29/29
f 113/113/113 29/29/29 114/114/114
f 113/113/113 114/114/114 72/72/72
f 113/113/113 72/72/72 78/78/78
f 113/113/113 78/78/78 52/52/52
f 113/113/113 52/52/52 101/101/101
f 115/115/115 116/116/116 24/24/24
f 115/115/115 24/24/24 35/35/35
f 115/115/115 35/35/35 12/12/12
f 115/115/115 12/12/12 108/108/108
f 115/115/115 108/108/108 60/60/60
f 115/115/115 60/60/60 80/80/80
f 115/115/115 80/80/80 63/63/63
f 115/115/115 63/63/63 116/116/116
f 117/117/117 93/93/93 18/18/18
f 117/117/117 18/18/18 17/17/17
f 117/117/117 17/17/17 24/24/24
f 117/117/117 24/24/24 116/116/116
f 117/117/117 116/116/116 63/63/63
f 117/117/117 63/63/63 62/62/62
f 117/117/117 62/62/62 69/69/69
f 117/117/117 69/69/69 93/93/93
f 118/118/118 114/114/114 29/29/29
f 118/118/118 29/29/29 28/28/28
f 118/118/118 28/28/28 27/27/27
f 118/118/118 27/27/27 111/111/111
f 118/118/118 111/111/111 74/74/74
f 118/118/118 74/74/74 73/73/73
f 118/118/118 73/73/73 72/72/72
f 118/118/118 72/72/72 114/114/114
