v -2.376794 0.716470 -1.114711
v -2.378457 0.716362 -1.113304
v -2.376519 0.714589 -1.112066
v -2.374871 0.714860 -1.113825
v -2.373442 0.715146 -1.115011
v -2.375215 0.716524 -1.115545
v -2.376658 0.717179 -1.115652
v -2.378256 0.717515 -1.115318
v -2.379925 0.717581 -1.114250
v -2.379212 0.716235 -1.111261
v -2.379456 0.716111 -1.109496
v -2.378259 0.714677 -1.108140
v -2.377620 0.714593 -1.109905
v -2.380349 0.717311 -1.112332
v -2.380093 0.716844 -1.110753
v -2.372374 0.707873 -1.106746
v -2.373226 0.707897 -1.105180
v -2.371493 0.705331 -1.104722
v -2.370749 0.705304 -1.106114
v -2.369672 0.705333 -1.107898
v -2.371147 0.707911 -1.108756
v -2.372755 0.710353 -1.109716
v -2.374026 0.710328 -1.107604
v -2.374897 0.710375 -1.105950
v -2.369682 0.708135 -1.110587
v -2.368368 0.705536 -1.109511
v -2.367320 0.705737 -1.110674
v -2.368508 0.708356 -1.111911
v -2.369961 0.710855 -1.112990
v -2.371209 0.710602 -1.111622
v -2.372975 0.712874 -1.112748
v -2.374582 0.712583 -1.110845
v -2.371648 0.713187 -1.114092
v -2.375833 0.712596 -1.108671
v -2.376657 0.712700 -1.106947
v -2.369021 0.702696 -1.105725
v -2.369541 0.702742 -1.104658
v -2.368357 0.701262 -1.104916
v -2.367707 0.700710 -1.105537
v -2.367210 0.700685 -1.106489
v -2.368244 0.702698 -1.107077
v -2.367244 0.702869 -1.108260
v -2.366489 0.700829 -1.107274
v -2.366166 0.701475 -1.108042
v -2.366425 0.703045 -1.109103
v -2.376889 0.716299 -1.114828
v -2.378571 0.716187 -1.113396
v -2.380008 0.717448 -1.114317
v -2.378324 0.717385 -1.115405
v -2.376705 0.717084 -1.115722
v -2.375277 0.716398 -1.115645
v -2.373511 0.715024 -1.115111
v -2.374974 0.714694 -1.113943
v -2.376638 0.714420 -1.112162
v -2.379343 0.716060 -1.111327
v -2.379562 0.715981 -1.109531
v -2.380168 0.716747 -1.110782
v -2.380446 0.717178 -1.112378
v -2.377755 0.714424 -1.109977
v -2.378368 0.714551 -1.108182
v -2.372531 0.707734 -1.106840
v -2.373349 0.707793 -1.105242
v -2.375015 0.710264 -1.106007
v -2.374176 0.710180 -1.107692
v -2.372893 0.710206 -1.109823
v -2.371292 0.707773 -1.108867
v -2.369823 0.705203 -1.108012
v -2.370910 0.705173 -1.106211
v -2.371619 0.705233 -1.104785
v -2.369815 0.707999 -1.110714
v -2.371334 0.710457 -1.111746
v -2.370049 0.710747 -1.113092
v -2.368602 0.708255 -1.112014
v -2.367417 0.705642 -1.110780
v -2.368506 0.705407 -1.109641
v -2.373089 0.712718 -1.112869
v -2.374710 0.712424 -1.110946
v -2.371726 0.713072 -1.114192
v -2.375975 0.712437 -1.108752
v -2.376770 0.712581 -1.106997
v -2.369184 0.702568 -1.105822
v -2.369670 0.702646 -1.104721
v -2.368396 0.702571 -1.107192
v -2.367324 0.700590 -1.106575
v -2.367830 0.700614 -1.105608
v -2.368451 0.701191 -1.104965
v -2.367383 0.702744 -1.108393
v -2.366522 0.702952 -1.109211
v -2.366240 0.701406 -1.108119
v -2.366593 0.700735 -1.107374
v -2.369773 0.702714 -1.104328
v -2.368085 0.700742 -1.104756
v -2.371798 0.705296 -1.104284
v -2.368451 0.701191 -1.104965
v -2.366284 0.700107 -1.106990
v -2.365889 0.700955 -1.107888
v -2.366916 0.699972 -1.106332
v -2.366240 0.701406 -1.108119
v -2.374714 0.716487 -1.115870
v -2.376580 0.717304 -1.115888
v -2.372994 0.715187 -1.115454
v -2.376705 0.717084 -1.115722
v -2.380771 0.717610 -1.112709
v -2.380296 0.716942 -1.110588
v -2.380451 0.717927 -1.114594
v -2.380168 0.716747 -1.110782
v -2.379586 0.716012 -1.108920
v -2.378522 0.714649 -1.107567
v -2.367324 0.700005 -1.105505
v -2.366194 0.703063 -1.109434
v -2.367012 0.705762 -1.111111
v -2.378773 0.717805 -1.115559
v -2.371239 0.713241 -1.114586
v -2.369583 0.710891 -1.113494
v -2.376983 0.712681 -1.106392
v -2.375241 0.710341 -1.105422
v -2.373566 0.707859 -1.104684
v -2.368158 0.708385 -1.112400
vn 0.341900 0.757400 0.556200
vn 0.463000 0.801100 0.379200
vn 0.502600 0.764000 0.404500
vn 0.396500 0.724300 0.564100
vn 0.418500 0.709400 0.567100
vn 0.347500 0.759000 0.550600
vn 0.296100 0.790800 0.535700
vn 0.304600 0.819300 0.485700
vn 0.397800 0.853300 0.337000
vn 0.590100 0.781500 0.202200
vn 0.586600 0.782300 0.209300
vn 0.629700 0.729900 0.265900
vn 0.618300 0.745900 0.247600
vn 0.507400 0.839000 0.196600
vn 0.553100 0.815800 0.169200
vn 0.707600 0.580600 0.402700
vn 0.692800 0.573600 0.437000
vn 0.706800 0.546800 0.448700
vn 0.727800 0.553200 0.405300
vn 0.670300 0.542000 0.506900
vn 0.649600 0.577300 0.494700
vn 0.604500 0.644900 0.467700
vn 0.674200 0.640800 0.367100
vn 0.669900 0.627700 0.396400
vn 0.583000 0.568500 0.580400
vn 0.594200 0.540100 0.595900
vn 0.628000 0.539200 0.561100
vn 0.610500 0.565600 0.554300
vn 0.561200 0.617100 0.551500
vn 0.534400 0.627200 0.566600
vn 0.464500 0.685700 0.560400
vn 0.549600 0.713900 0.433900
vn 0.491000 0.669300 0.557500
vn 0.640700 0.702800 0.309000
vn 0.648200 0.684600 0.333400
vn 0.746900 0.540900 0.386700
vn 0.727400 0.530900 0.434600
vn 0.751000 0.516400 0.411300
vn 0.782600 0.491600 0.381800
vn 0.704500 0.476100 0.526300
vn 0.679600 0.525100 0.512200
vn 0.584100 0.525000 0.619000
vn 0.594800 0.473400 0.649600
vn 0.610100 0.502700 0.612400
vn 0.622900 0.520700 0.583700
vn -0.338800 -0.736200 -0.585900
vn -0.474000 -0.791200 -0.386300
vn -0.515700 -0.750800 -0.412700
vn -0.324000 -0.668600 -0.669300
vn -0.256400 -0.608500 -0.750900
vn -0.268200 -0.624800 -0.733200
vn -0.319900 -0.648200 -0.690900
vn -0.387300 -0.720000 -0.575700
vn -0.502500 -0.764100 -0.404400
vn -0.618200 -0.763300 -0.187300
vn -0.739300 -0.670600 -0.061200
vn -0.753000 -0.656600 -0.042700
vn -0.695800 -0.704600 -0.139200
vn -0.626400 -0.743300 -0.234700
vn -0.715900 -0.686700 -0.126100
vn -0.715000 -0.581500 -0.388200
vn -0.760200 -0.583900 -0.284700
vn -0.737000 -0.624900 -0.257400
vn -0.681400 -0.640700 -0.353900
vn -0.604500 -0.644700 -0.467800
vn -0.649700 -0.577100 -0.494800
vn -0.670300 -0.541900 -0.506900
vn -0.735300 -0.555800 -0.387800
vn -0.771300 -0.579900 -0.262500
vn -0.571900 -0.567500 -0.592300
vn -0.524400 -0.625400 -0.577700
vn -0.454300 -0.597200 -0.661000
vn -0.490300 -0.557500 -0.669900
vn -0.473500 -0.550900 -0.687200
vn -0.580200 -0.540700 -0.609100
vn -0.455000 -0.683100 -0.571300
vn -0.549500 -0.713900 -0.433900
vn -0.388600 -0.636400 -0.666300
vn -0.647800 -0.701900 -0.296200
vn -0.717100 -0.668400 -0.197600
vn -0.749300 -0.556800 -0.358400
vn -0.772800 -0.601900 -0.201100
vn -0.674000 -0.535400 -0.509000
vn -0.648100 -0.579700 -0.493900
vn -0.744300 -0.610300 -0.271300
vn -0.768700 -0.618600 -0.162400
vn -0.557400 -0.538000 -0.632300
vn -0.415100 -0.567200 -0.711300
vn -0.376300 -0.580400 -0.722100
vn -0.470500 -0.583700 -0.661800
vn -0.208900 -0.250400 0.945300
vn 0.103300 -0.506800 0.855800
vn -0.331500 -0.155200 0.930600
vn -0.768700 -0.618600 -0.162400
vn 0.615800 -0.782800 0.089400
vn 0.870000 -0.432100 -0.237600
vn 0.384300 -0.899500 0.207700
vn -0.376300 -0.580400 -0.722100
vn 0.461900 0.502500 -0.730900
vn 0.173400 0.647500 -0.742000
vn 0.607800 0.351600 -0.712000
vn -0.256400 -0.608500 -0.750900
vn -0.827700 0.558100 0.059200
vn -0.677300 0.565100 0.471000
vn -0.706500 0.539100 -0.458400
vn -0.753000 -0.656600 -0.042700
vn -0.558600 0.403400 0.724700
vn -0.480900 0.245400 0.841700
vn 0.345100 -0.809300 0.475400
vn 0.830300 -0.149500 -0.536900
vn 0.768200 -0.047900 -0.638400
vn -0.263900 0.612800 -0.744800
vn 0.679200 0.222800 -0.699300
vn 0.704600 0.139600 -0.695700
vn -0.436000 0.113700 0.892700
vn -0.418700 0.029700 0.907600
vn -0.398700 -0.053700 0.915500
vn 0.724400 0.056100 -0.687100
vt 0.839504 0.118056
vt 0.856743 0.205307
vt 0.741230 0.205307
vt 0.734555 0.106726
vt 0.724541 0.032791
vt 0.813647 0.052618
vt 0.868992 0.081539
vt 0.913398 0.129584
vt 0.940923 0.205307
vt 0.839504 0.292557
vt 0.813647 0.357995
vt 0.724541 0.377822
vt 0.734555 0.303887
vt 0.913398 0.281029
vt 0.868992 0.329074
vt 0.369475 0.299954
vt 0.368286 0.370940
vt 0.245840 0.351447
vt 0.246397 0.288815
vt 0.246768 0.205307
vt 0.370268 0.205307
vt 0.494283 0.205307
vt 0.492822 0.304944
vt 0.490632 0.379672
vt 0.369475 0.110659
vt 0.246397 0.121798
vt 0.245841 0.059166
vt 0.368286 0.039673
vt 0.490632 0.030941
vt 0.492822 0.105669
vt 0.616755 0.103478
vt 0.619174 0.205307
vt 0.613127 0.027106
vt 0.616755 0.307135
vt 0.613126 0.383507
vt 0.123273 0.268175
vt 0.123047 0.315326
vt 0.054743 0.283353
vt 0.030912 0.249131
vt 0.030973 0.205306
vt 0.123423 0.205306
vt 0.123273 0.142438
vt 0.030912 0.161481
vt 0.054744 0.127260
vt 0.123047 0.095287
vt 0.839504 0.118056
vt 0.856743 0.205307
vt 0.968983 0.205307
vt 0.938030 0.133427
vt 0.876123 0.061548
vt 0.805028 0.030806
vt 0.721203 0.008146
vt 0.734555 0.106726
vt 0.741230 0.205307
vt 0.839504 0.292557
vt 0.805028 0.379807
vt 0.876123 0.349065
vt 0.938030 0.277186
vt 0.734555 0.303887
vt 0.721203 0.402467
vt 0.369475 0.299954
vt 0.367890 0.394602
vt 0.489902 0.404581
vt 0.492822 0.304944
vt 0.494283 0.205307
vt 0.370268 0.205307
vt 0.246768 0.205307
vt 0.246397 0.288815
vt 0.245655 0.372324
vt 0.369475 0.110659
vt 0.492822 0.105669
vt 0.489902 0.006032
vt 0.367890 0.016011
vt 0.245655 0.038289
vt 0.246397 0.121798
vt 0.616755 0.103478
vt 0.619174 0.205307
vt 0.611917 0.001649
vt 0.616755 0.307135
vt 0.611917 0.408964
vt 0.123273 0.268175
vt 0.122972 0.331043
vt 0.123423 0.205306
vt 0.000156 0.205306
vt 0.000125 0.242784
vt 0.000064 0.280261
vt 0.123273 0.142438
vt 0.122972 0.079570
vt 0.000064 0.130352
vt 0.000125 0.167829
vt 0.122972 0.331043
vt 0.030806 0.283587
vt 0.245655 0.372324
vt 0.030806 0.283587
vt 0.000125 0.167829
vt 0.030806 0.127026
vt 0.000156 0.205306
vt 0.030806 0.127026
vt 0.805028 0.030806
vt 0.873826 0.071832
vt 0.721203 0.008146
vt 0.873826 0.071832
vt 0.938030 0.277186
vt 0.873826 0.338781
vt 0.968983 0.205307
vt 0.873826 0.338781
vt 0.805028 0.379807
vt 0.721203 0.402467
vt 0.000125 0.242784
vt 0.122972 0.079570
vt 0.245655 0.038289
vt 0.938030 0.133427
vt 0.611917 0.001649
vt 0.489902 0.006032
vt 0.611917 0.408964
vt 0.489902 0.404581
vt 0.367890 0.394602
vt 0.367890 0.016011
f 1/1/1 2/2/2 3/3/3
f 1/1/1 3/3/3 4/4/4
f 1/1/1 4/4/4 5/5/5
f 1/1/1 5/5/5 6/6/6
f 1/1/1 6/6/6 7/7/7
f 1/1/1 7/7/7 8/8/8
f 1/1/1 8/8/8 9/9/9
f 1/1/1 9/9/9 2/2/2
f 10/10/10 11/11/11 12/12/12
f 10/10/10 12/12/12 13/13/13
f 10/10/10 13/13/13 3/3/3
f 10/10/10 3/3/3 2/2/2
f 10/10/10 2/2/2 9/9/9
f 10/10/10 9/9/9 14/14/14
f 10/10/10 14/14/14 15/15/15
f 10/10/10 15/15/15 11/11/11
f 16/16/16 17/17/17 18/18/18
f 16/16/16 18/18/18 19/19/19
f 16/16/16 19/19/19 20/20/20
f 16/16/16 20/20/20 21/21/21
f 16/16/16 21/21/21 22/22/22
f 16/16/16 22/22/22 23/23/23
f 16/16/16 23/23/23 24/24/24
f 16/16/16 24/24/24 17/17/17
f 25/25/25 21/21/21 20/20/20
f 25/25/25 20/20/20 26/26/26
f 25/25/25 26/26/26 27/27/27
f 25/25/25 27/27/27 28/28/28
f 25/25/25 28/28/28 29/29/29
f 25/25/25 29/29/29 30/30/30
f 25/25/25 30/30/30 22/22/22
f 25/25/25 22/22/22 21/21/21
f 31/31/31 32/32/32 22/22/22
f 31/31/31 22/22/22 30/30/30
f 31/31/31 30/30/30 29/29/29
f 31/31/31 29/29/29 33/33/33
f 31/31/31 33/33/33 5/5/5
f 31/31/31 5/5/5 4/4/4
f 31/31/31 4/4/4 3/3/3
f 31/31/31 3/3/3 32/32/32
f 34/34/34 35/35/35 24/24/24
f 34/34/34 24/24/24 23/23/23
f 34/34/34 23/23/23 22/22/22
f 34/34/34 22/22/22 32/32/32
f 34/34/34 32/32/32 3/3/3
f 34/34/34 3/3/3 13/13/13
f 34/34/34 13/13/13 12/12/12
f 34/34/34 12/12/12 35/35/35
f 36/36/36 37/37/37 38/38/38
f 36/36/36 38/38/38 39/39/39
f 36/36/36 39/39/39 40/40/40
f 36/36/36 40/40/40 41/41/41
f 36/36/36 41/41/41 20/20/20
f 36/36/36 20/20/20 19/19/19
f 36/36/36 19/19/19 18/18/18
f 36/36/36 18/18/18 37/37/37
f 42/42/42 41/41/41 40/40/40
f 42/42/42 40/40/40 43/43/43
f 42/42/42 43/43/43 44/44/44
f 42/42/42 44/44/44 45/45/45
f 42/42/42 45/45/45 27/27/27
f 42/42/42 27/27/27 26/26/26
f 42/42/42 26/26/26 20/20/20
f 42/42/42 20/20/20 41/41/41
f 46/46/46 47/47/47 48/48/48
f 46/46/46 48/48/48 49/49/49
f 46/46/46 49/49/49 50/50/50
f 46/46/46 50/50/50 51/51/51
f 46/46/46 51/51/51 52/52/52
f 46/46/46 52/52/52 53/53/53
f 46/46/46 53/53/53 54/54/54
f 46/46/46 54/54/54 47/47/47
f 55/55/55 56/56/56 57/57/57
f 55/55/55 57/57/57 58/58/58
f 55/55/55 58/58/58 48/48/48
f 55/55/55 48/48/48 47/47/47
f 55/55/55 47/47/47 54/54/54
f 55/55/55 54/54/54 59/59/59
f 55/55/55 59/59/59 60/60/60
f 55/55/55 60/60/60 56/56/56
f 61/61/61 62/62/62 63/63/63
f 61/61/61 63/63/63 64/64/64
f 61/61/61 64/64/64 65/65/65
f 61/61/61 65/65/65 66/66/66
f 61/61/61 66/66/66 67/67/67
f 61/61/61 67/67/67 68/68/68
f 61/61/61 68/68/68 69/69/69
f 61/61/61 69/69/69 62/62/62
f 70/70/70 66/66/66 65/65/65
f 70/70/70 65/65/65 71/71/71
f 70/70/70 71/71/71 72/72/72
f 70/70/70 72/72/72 73/73/73
f 70/70/70 73/73/73 74/74/74
f 70/70/70 74/74/74 75/75/75
f 70/70/70 75/75/75 67/67/67
f 70/70/70 67/67/67 66/66/66
f 76/76/76 77/77/77 54/54/54
f 76/76/76 54/54/54 53/53/53
f 76/76/76 53/53/53 52/52/52
f 76/76/76 52/52/52 78/78/78
f 76/76/76 78/78/78 72/72/72
f 76/76/76 72/72/72 71/71/71
f 76/76/76 71/71/71 65/65/65
f 76/76/76 65/65/65 77/77/77
f 79/79/79 80/80/80 60/60/60
f 79/79/79 60/60/60 59/59/59
f 79/79/79 59/59/59 54/54/54
f 79/79/79 54/54/54 77/77/77
f 79/79/79 77/77/77 65/65/65
f 79/79/79 65/65/65 64/64/64
f 79/79/79 64/64/64 63/63/63
f 79/79/79 63/63/63 80/80/80
f 81/81/81 82/82/82 69/69/69
f 81/81/81 69/69/69 68/68/68
f 81/81/81 68/68/68 67/67/67
f 81/81/81 67/67/67 83/83/83
f 81/81/81 83/83/83 84/84/84
f 81/81/81 84/84/84 85/85/85
f 81/81/81 85/85/85 86/86/86
f 81/81/81 86/86/86 82/82/82
f 87/87/87 83/83/83 67/67/67
f 87/87/87 67/67/67 75/75/75
f 87/87/87 75/75/75 74/74/74
f 87/87/87 74/74/74 88/88/88
f 87/87/87 88/88/88 89/89/89
f 87/87/87 89/89/89 90/90/90
f 87/87/87 90/90/90 84/84/84
f 87/87/87 84/84/84 83/83/83
f 91/91/91 92/92/92 38/38/38
f 91/91/91 38/38/38 37/37/37
f 91/91/91 37/37/37 18/18/18
f 91/91/91 18/18/18 93/93/93
f 91/91/91 93/93/93 69/69/69
f 91/91/91 69/69/69 82/82/82
f 91/91/91 82/82/82 94/94/94
f 91/91/91 94/94/94 92/92/92
f 95/95/95 96/96/96 44/44/44
f 95/95/95 44/44/44 43/43/43
f 95/95/95 43/43/43 40/40/40
f 95/95/95 40/40/40 97/97/97
f 95/95/95 97/97/97 84/84/84
f 95/95/95 84/84/84 90/90/90
f 95/95/95 90/90/90 98/98/98
f 95/95/95 98/98/98 96/96/96
f 99/99/99 100/100/100 7/7/7
f 99/99/99 7/7/7 6/6/6
f 99/99/99 6/6/6 5/5/5
f 99/99/99 5/5/5 101/101/101
f 99/99/99 101/101/101 52/52/52
f 99/99/99 52/52/52 51/51/51
f 99/99/99 51/51/51 102/102/102
f 99/99/99 102/102/102 100/100/100
f 103/103/103 104/104/104 15/15/15
f 103/103/103 15/15/15 14/14/14
f 103/103/103 14/14/14 9/9/9
f 103/103/103 9/9/9 105/105/105
f 103/103/103 105/105/105 48/48/48
f 103/103/103 48/48/48 58/58/58
f 103/103/103 58/58/58 106/106/106
f 103/103/103 106/106/106 104/104/104
f 107/107/107 108/108/108 12/12/12
f 107/107/107 12/12/12 11/11/11
f 107/107/107 11/11/11 15/15/15
f 107/107/107 15/15/15 104/104/104
f 107/107/107 104/104/104 106/106/106
f 107/107/107 106/106/106 56/56/56
f 107/107/107 56/56/56 60/60/60
f 107/107/107 60/60/60 108/108/108
f 109/109/109 97/97/97 40/40/40
f 109/109/109 40/40/40 39/39/39
f 109/109/109 39/39/39 38/38/38
f 109/109/109 38/38/38 92/92/92
f 109/109/109 92/92/92 94/94/94
f 109/109/109 94/94/94 85/85/85
f 109/109/109 85/85/85 84/84/84
f 109/109/109 84/84/84 97/97/97
f 110/110/110 111/111/111 27/27/27
f 110/110/110 27/27/27 45/45/45
f 110/110/110 45/45/45 44/44/44
f 110/110/110 44/44/44 96/96/96
f 110/110/110 96/96/96 98/98/98
f 110/110/110 98/98/98 88/88/88
f 110/110/110 88/88/88 74/74/74
f 110/110/110 74/74/74 111/111/111
f 112/112/112 105/105/105 9/9/9
f 112/112/112 9/9/9 8/8/8
f 112/112/112 8/8/8 7/7/7
f 112/112/112 7/7/7 100/100/100
f 112/112/112 100/100/100 102/102/102
f 112/112/112 102/102/102 49/49/49
f 112/112/112 49/49/49 48/48/48
f 112/112/112 48/48/48 105/105/105
f 113/113/113 101/101/101 5/5/5
f 113/113/113 5/5/5 33/33/33
f 113/113/113 33/33/33 29/29/29
f 113/113/113 29/29/29 114/114/114
f 113/113/113 114/114/114 72/72/72
f 113/113/113 72/72/72 78/78/78
f 113/113/113 78/78/78 52/52/52
f 113/113/113 52/52/52 101/101/101
f 115/115/115 116/116/116 24/24/24
f 115/115/115 24/24/24 35/35/35
f 115/115/115 35/35/35 12/12/12
f 115/115/115 12/12/12 108/108/108
f 115/115/115 108/108/108 60/60/60
f 115/115/115 60/60/60 80/80/80
f 115/115/115 80/80/80 63/63/63
f 115/115/115 63/63/63 116/116/116
f 117/117/117 93/93/93 18/18/18
f 117/117/117 18/18/18 17/17/17
f 117/117/117 17/17/17 24/24/24
f 117/117/117 24/24/24 116/116/116
f 117/117/117 116/116/116 63/63/63
f 117/117/117 63/63/63 62/62/62
f 117/117/117 62/62/62 69/69/69
f 117/117/117 69/69/69 93/93/93
f 118/118/118 114/114/114 29/29/29
f 118/118/118 29/29/29 28/28/28
f 118/118/118 28/28/28 27/27/27
f 118/118/118 27/27/27 111/111/111
f 118/118/118 111/111/111 74/74/74
f 118/118/118 74/74/74 73/73/73
f 118/118/118 73/73/73 72/72/72
f 118/118/118 72/72/72 114/114/114
