v -2.404390 0.813882 -1.161264
v -2.404734 0.814240 -1.162694
v -2.405627 0.812445 -1.162495
v -2.405105 0.812217 -1.160911
v -2.404865 0.812026 -1.159643
v -2.404351 0.813474 -1.160094
v -2.404024 0.814343 -1.160689
v -2.403847 0.815033 -1.161601
v -2.404026 0.815525 -1.162873
v -2.405709 0.814249 -1.163853
v -2.406663 0.814119 -1.164634
v -2.407492 0.812758 -1.164800
v -2.406603 0.812635 -1.163853
v -2.404988 0.815351 -1.163841
v -2.405897 0.814865 -1.164366
v -2.408484 0.806613 -1.163712
v -2.409180 0.806782 -1.164721
v -2.409377 0.804625 -1.164553
v -2.408753 0.804476 -1.163665
v -2.408001 0.804285 -1.162444
v -2.407642 0.806396 -1.162327
v -2.407155 0.808476 -1.162280
v -2.408048 0.808707 -1.163722
v -2.408796 0.808889 -1.164766
v -2.407015 0.806204 -1.160829
v -2.407454 0.804114 -1.161116
v -2.407102 0.803990 -1.160086
v -2.406607 0.806065 -1.159670
v -2.406105 0.808138 -1.159482
v -2.406512 0.808279 -1.160706
v -2.405843 0.810316 -1.160729
v -2.406459 0.810508 -1.162346
v -2.405487 0.810186 -1.159456
v -2.407402 0.810751 -1.163789
v -2.408218 0.810947 -1.164818
v -2.408898 0.802300 -1.163486
v -2.409396 0.802414 -1.164134
v -2.409251 0.801150 -1.163753
v -2.408943 0.800652 -1.163314
v -2.408512 0.800550 -1.162714
v -2.408313 0.802155 -1.162587
v -2.407929 0.802030 -1.161584
v -2.408279 0.800467 -1.162010
v -2.408056 0.800817 -1.161408
v -2.407696 0.801940 -1.160798
v -2.404256 0.813816 -1.161317
v -2.404609 0.814176 -1.162767
v -2.403933 0.815475 -1.162927
v -2.403747 0.814982 -1.161639
v -2.403949 0.814305 -1.160713
v -2.404246 0.813424 -1.160123
v -2.404759 0.811980 -1.159675
v -2.404969 0.812158 -1.160966
v -2.405500 0.812386 -1.162568
v -2.405595 0.814189 -1.163945
v -2.406583 0.814076 -1.164712
v -2.405837 0.814832 -1.164421
v -2.404904 0.815304 -1.163910
v -2.406485 0.812580 -1.163943
v -2.407408 0.812719 -1.164876
v -2.408353 0.806586 -1.163798
v -2.409086 0.806762 -1.164791
v -2.408704 0.808863 -1.164837
v -2.407920 0.808671 -1.163809
v -2.407020 0.808438 -1.162354
v -2.407505 0.806367 -1.162401
v -2.407862 0.804261 -1.162518
v -2.408621 0.804454 -1.163751
v -2.409282 0.804610 -1.164624
v -2.406872 0.806173 -1.160891
v -2.406371 0.808239 -1.160767
v -2.405996 0.808108 -1.159521
v -2.406497 0.806041 -1.159709
v -2.406991 0.803971 -1.160125
v -2.407310 0.804089 -1.161177
v -2.405705 0.810266 -1.160787
v -2.406327 0.810459 -1.162420
v -2.405380 0.810148 -1.159492
v -2.407279 0.810705 -1.163877
v -2.408130 0.810915 -1.164892
v -2.408766 0.802281 -1.163573
v -2.409301 0.802401 -1.164205
v -2.408174 0.802134 -1.162661
v -2.408407 0.800534 -1.162770
v -2.408845 0.800638 -1.163380
v -2.409179 0.801140 -1.163805
v -2.407783 0.802007 -1.161644
v -2.407585 0.801922 -1.160836
v -2.407974 0.800804 -1.161438
v -2.408170 0.800450 -1.162055
v -2.409521 0.802446 -1.164383
v -2.409308 0.800733 -1.163786
v -2.409544 0.804668 -1.164882
v -2.409179 0.801140 -1.163805
v -2.408348 0.799938 -1.162172
v -2.408111 0.800399 -1.161436
v -2.408531 0.800007 -1.162781
v -2.407974 0.800804 -1.161438
v -2.404290 0.813316 -1.159715
v -2.403933 0.814413 -1.160533
v -2.404737 0.811941 -1.159233
v -2.403949 0.814305 -1.160713
v -2.404711 0.815697 -1.163868
v -2.405959 0.814977 -1.164511
v -2.403749 0.815931 -1.162956
v -2.405837 0.814832 -1.164421
v -2.406947 0.814057 -1.164931
v -2.407752 0.812782 -1.165151
v -2.408915 0.800096 -1.163286
v -2.407569 0.801902 -1.160551
v -2.406934 0.803940 -1.159758
v -2.403621 0.815393 -1.161729
v -2.405320 0.810126 -1.159046
v -2.405920 0.808078 -1.159090
v -2.408452 0.810999 -1.165195
v -2.409006 0.808938 -1.165147
v -2.409371 0.806830 -1.165090
v -2.406422 0.806008 -1.159299
vn -0.855600 0.450500 0.254800
vn -0.767000 0.452600 0.454900
vn -0.792900 0.398900 0.460500
vn -0.874000 0.395400 0.282400
vn -0.880800 0.371800 0.293100
vn -0.853500 0.449900 0.262700
vn -0.830000 0.503200 0.240700
vn -0.799700 0.529800 0.282500
vn -0.720800 0.533100 0.442900
vn -0.660600 0.396200 0.637700
vn -0.665800 0.397400 0.631500
vn -0.714900 0.325600 0.618800
vn -0.699700 0.346800 0.624600
vn -0.640400 0.485300 0.595200
vn -0.628200 0.446800 0.637000
vn -0.816600 0.143300 0.559200
vn -0.837800 0.140200 0.527700
vn -0.844900 0.108800 0.523600
vn -0.818300 0.109600 0.564200
vn -0.878400 0.115200 0.463800
vn -0.870800 0.157000 0.465900
vn -0.850700 0.240200 0.467500
vn -0.791600 0.215500 0.571700
vn -0.810800 0.202800 0.549000
vn -0.914400 0.170600 0.367000
vn -0.923300 0.138900 0.358100
vn -0.906800 0.126100 0.402200
vn -0.902300 0.158300 0.401000
vn -0.896200 0.226600 0.381400
vn -0.901400 0.246100 0.356200
vn -0.886300 0.330500 0.324500
vn -0.821400 0.330000 0.465200
vn -0.889400 0.304200 0.341200
vn -0.747800 0.291900 0.596200
vn -0.766000 0.269800 0.583500
vn -0.806200 0.092000 0.584400
vn -0.836200 0.086800 0.541500
vn -0.821200 0.065600 0.566800
vn -0.800900 0.032500 0.597900
vn -0.888100 0.039400 0.457900
vn -0.881500 0.095400 0.462500
vn -0.934200 0.127600 0.333200
vn -0.948400 0.073900 0.308300
vn -0.931900 0.096700 0.349400
vn -0.918300 0.109700 0.380300
vn 0.873100 -0.429900 -0.230000
vn 0.774300 -0.438000 -0.456600
vn 0.801200 -0.380200 -0.462100
vn 0.917100 -0.368100 -0.152700
vn 0.940600 -0.337400 -0.037000
vn 0.935300 -0.348500 -0.061000
vn 0.927500 -0.349700 -0.131400
vn 0.878900 -0.394600 -0.267800
vn 0.792900 -0.399100 -0.460500
vn 0.653500 -0.368800 -0.660900
vn 0.565400 -0.244900 -0.787600
vn 0.550600 -0.228400 -0.802900
vn 0.625200 -0.286400 -0.726000
vn 0.691100 -0.342200 -0.636500
vn 0.616500 -0.263000 -0.742100
vn 0.807400 -0.142200 -0.572600
vn 0.737800 -0.134700 -0.661400
vn 0.718000 -0.184500 -0.671100
vn 0.783100 -0.213600 -0.584100
vn 0.850800 -0.240200 -0.467400
vn 0.870800 -0.156900 -0.465800
vn 0.878400 -0.115000 -0.463700
vn 0.807200 -0.110300 -0.579900
vn 0.721900 -0.128500 -0.680000
vn 0.919700 -0.173600 -0.352000
vn 0.906400 -0.247900 -0.342000
vn 0.940300 -0.246400 -0.234700
vn 0.949900 -0.193900 -0.244800
vn 0.955900 -0.193700 -0.220600
vn 0.929000 -0.144300 -0.340600
vn 0.890900 -0.331400 -0.310600
vn 0.821400 -0.330000 -0.465200
vn 0.930500 -0.310500 -0.193900
vn 0.739400 -0.289200 -0.608000
vn 0.672500 -0.238500 -0.700600
vn 0.788000 -0.108000 -0.606100
vn 0.676800 -0.153800 -0.719800
vn 0.879600 -0.107400 -0.463300
vn 0.870100 -0.160100 -0.466000
vn 0.728100 -0.166700 -0.664800
vn 0.647300 -0.174500 -0.741900
vn 0.938800 -0.149900 -0.309900
vn 0.958000 -0.232300 -0.168000
vn 0.955700 -0.260700 -0.136400
vn 0.943300 -0.226800 -0.242300
vn -0.646200 -0.227200 -0.728500
vn -0.614800 -0.587000 -0.526700
vn -0.613900 -0.085000 -0.784700
vn 0.647300 -0.174500 -0.741900
vn -0.078800 -0.982600 0.167900
vn -0.012400 -0.754100 0.656600
vn -0.049700 -0.992000 -0.116200
vn 0.955700 -0.260700 -0.136400
vn 0.279500 0.309600 0.908800
vn 0.360200 0.570900 0.737700
vn 0.251900 0.107600 0.961700
vn 0.940600 -0.337400 -0.037000
vn 0.108800 0.866000 -0.488100
vn -0.308100 0.758100 -0.574700
vn 0.508800 0.849600 -0.138700
vn 0.550600 -0.228400 -0.802900
vn -0.522100 0.533600 -0.665300
vn -0.603700 0.346500 -0.717900
vn -0.291500 -0.923300 -0.250200
vn 0.170600 -0.454900 0.874000
vn 0.250500 -0.325900 0.911600
vn 0.551300 0.742400 0.380600
vn 0.252800 -0.040300 0.966600
vn 0.265500 -0.125700 0.955800
vn -0.623800 0.204300 -0.754400
vn -0.617200 0.120100 -0.777500
vn -0.605700 0.036800 -0.794900
vn 0.276700 -0.209300 0.937900
vt 0.839504 0.118056
vt 0.856743 0.205307
vt 0.741230 0.205307
vt 0.734555 0.106726
vt 0.724541 0.032791
vt 0.813647 0.052618
vt 0.868992 0.081539
vt 0.913398 0.129584
vt 0.940923 0.205307
vt 0.839504 0.292557
vt 0.813647 0.357995
vt 0.724541 0.377822
vt 0.734555 0.303887
vt 0.913398 0.281029
vt 0.868992 0.329074
vt 0.369475 0.299954
vt 0.368286 0.370940
vt 0.245840 0.351447
vt 0.246397 0.288815
vt 0.246768 0.205307
vt 0.370268 0.205307
vt 0.494283 0.205307
vt 0.492822 0.304944
vt 0.490632 0.379672
vt 0.369475 0.110659
vt 0.246397 0.121798
vt 0.245841 0.059166
vt 0.368286 0.039673
vt 0.490632 0.030941
vt 0.492822 0.105669
vt 0.616755 0.103478
vt 0.619174 0.205307
vt 0.613127 0.027106
vt 0.616755 0.307135
vt 0.613126 0.383507
vt 0.123273 0.268175
vt 0.123047 0.315326
vt 0.054743 0.283353
vt 0.030912 0.249131
vt 0.030973 0.205306
vt 0.123423 0.205306
vt 0.123273 0.142438
vt 0.030912 0.161481
vt 0.054744 0.127260
vt 0.123047 0.095287
vt 0.839504 0.118056
vt 0.856743 0.205307
vt 0.968983 0.205307
vt 0.938030 0.133427
vt 0.876123 0.061548
vt 0.805028 0.030806
vt 0.721203 0.008146
vt 0.734555 0.106726
vt 0.741230 0.205307
vt 0.839504 0.292557
vt 0.805028 0.379807
vt 0.876123 0.349065
vt 0.938030 0.277186
vt 0.734555 0.303887
vt 0.721203 0.402467
vt 0.369475 0.299954
vt 0.367890 0.394602
vt 0.489902 0.404581
vt 0.492822 0.304944
vt 0.494283 0.205307
vt 0.370268 0.205307
vt 0.246768 0.205307
vt 0.246397 0.288815
vt 0.245655 0.372324
vt 0.369475 0.110659
vt 0.492822 0.105669
vt 0.489902 0.006032
vt 0.367890 0.016011
vt 0.245655 0.038289
vt 0.246397 0.121798
vt 0.616755 0.103478
vt 0.619174 0.205307
vt 0.611917 0.001649
vt 0.616755 0.307135
vt 0.611917 0.408964
vt 0.123273 0.268175
vt 0.122972 0.331043
vt 0.123423 0.205306
vt 0.000156 0.205306
vt 0.000125 0.242784
vt 0.000064 0.280261
vt 0.123273 0.142438
vt 0.122972 0.079570
vt 0.000064 0.130352
vt 0.000125 0.167829
vt 0.122972 0.331043
vt 0.030806 0.283587
vt 0.245655 0.372324
vt 0.030806 0.283587
vt 0.000125 0.167829
vt 0.030806 0.127026
vt 0.000156 0.205306
vt 0.030806 0.127026
vt 0.805028 0.030806
vt 0.873826 0.071832
vt 0.721203 0.008146
vt 0.873826 0.071832
vt 0.938030 0.277186
vt 0.873826 0.338781
vt 0.968983 0.205307
vt 0.873826 0.338781
vt 0.805028 0.379807
vt 0.721203 0.402467
vt 0.000125 0.242784
vt 0.122972 0.079570
vt 0.245655 0.038289
vt 0.938030 0.133427
vt 0.611917 0.001649
vt 0.489902 0.006032
vt 0.611917 0.408964
vt 0.489902 0.404581
vt 0.367890 0.394602
vt 0.367890 0.016011
f 1/1/1 2/2/2 3/3/3
f 1/1/1 3/3/3 4/4/4
f 1/1/1 4/4/4 5/5/5
f 1/1/1 5/5/5 6/6/6
f 1/1/1 6/6/6 7/7/7
f 1/1/1 7/7/7 8/8/8
f 1/1/1 8/8/8 9/9/9
f 1/1/1 9/9/9 2/2/2
f 10/10/10 11/11/11 12/12/12
f 10/10/10 12/12/12 13/13/13
f 10/10/10 13/13/13 3/3/3
f 10/10/10 3/3/3 2/2/2
f 10/10/10 2/2/2 9/9/9
f 10/10/10 9/9/9 14/14/14
f 10/10/10 14/14/14 15/15/15
f 10/10/10 15/15/15 11/11/11
f 16/16/16 17/17/17 18/18/18
f 16/16/16 18/18/18 19/19/19
f 16/16/16 19/19/19 20/20/20
f 16/16/16 20/20/20 21/21/21
f 16/16/16 21/21/21 22/22/22
f 16/16/16 22/22/22 23/23/23
f 16/16/16 23/23/23 24/24/24
f 16/16/16 24/24/24 17/17/17
f 25/25/25 21/21/21 20/20/20
f 25/25/25 20/20/20 26/26/26
f 25/25/25 26/26/26 27/27/27
f 25/25/25 27/27/27 28/28/28
f 25/25/25 28/28/28 29/29/29
f 25/25/25 29/29/29 30/30/30
f 25/25/25 30/30/30 22/22/22
f 25/25/25 22/22/22 21/21/21
f 31/31/31 32/32/32 22/22/22
f 31/31/31 22/22/22 30/30/30
f 31/31/31 30/30/30 29/29/29
f 31/31/31 29/29/29 33/33/33
f 31/31/31 33/33/33 5/5/5
f 31/31/31 5/5/5 4/4/4
f 31/31/31 4/4/4 3/3/3
f 31/31/31 3/3/3 32/32/32
f 34/34/34 35/35/35 24/24/24
f 34/34/34 24/24/24 23/23/23
f 34/34/34 23/23/23 22/22/22
f 34/34/34 22/22/22 32/32/32
f 34/34/34 32/32/32 3/3/3
f 34/34/34 3/3/3 13/13/13
f 34/34/34 13/13/13 12/12/12
f 34/34/34 12/12/12 35/35/35
f 36/36/36 37/37/37 38/38/38
f 36/36/36 38/38/38 39/39/39
f 36/36/36 39/39/39 40/40/40
f 36/36/36 40/40/40 41/41/41
f 36/36/36 41/41/41 20/20/20
f 36/36/36 20/20/20 19/19/19
f 36/36/36 19/19/19 18/18/18
f 36/36/36 18/18/18 37/37/37
f 42/42/42 41/41/41 40/40/40
f 42/42/42 40/40/40 43/43/43
f 42/42/42 43/43/43 44/44/44
f 42/42/42 44/44/44 45/45/45
f 42/42/42 45/45/45 27/27/27
f 42/42/42 27/27/27 26/26/26
f 42/42/42 26/26/26 20/20/20
f 42/42/42 20/20/20 41/41/41
f 46/46/46 47/47/47 48/48/48
f 46/46/46 48/48/48 49/49/49
f 46/46/46 49/49/49 50/50/50
f 46/46/46 50/50/50 51/51/51
f 46/46/46 51/51/51 52/52/52
f 46/46/46 52/52/52 53/53/53
f 46/46/46 53/53/53 54/54/54
f 46/46/46 54/54/54 47/47/47
f 55/55/55 56/56/56 57/57/57
f 55/55/55 57/57/57 58/58/58
f 55/55/55 58/58/58 48/48/48
f 55/55/55 48/48/48 47/47/47
f 55/55/55 47/47/47 54/54/54
f 55/55/55 54/54/54 59/59/59
f 55/55/55 59/59/59 60/60/60
f 55/55/55 60/60/60 56/56/56
f 61/61/61 62/62/62 63/63/63
f 61/61/61 63/63/63 64/64/64
f 61/61/61 64/64/64 65/65/65
f 61/61/61 65/65/65 66/66/66
f 61/61/61 66/66/66 67/67/67
f 61/61/61 67/67/67 68/68/68
f 61/61/61 68/68/68 69/69/69
f 61/61/61 69/69/69 62/62/62
f 70/70/70 66/66/66 65/65/65
f 70/70/70 65/65/65 71/71/71
f 70/70/70 71/71/71 72/72/72
f 70/70/70 72/72/72 73/73/73
f 70/70/70 73/73/73 74/74/74
f 70/70/70 74/74/74 75/75/75
f 70/70/70 75/75/75 67/67/67
f 70/70/70 67/67/67 66/66/66
f 76/76/76 77/77/77 54/54/54
f 76/76/76 54/54/54 53/53/53
f 76/76/76 53/53/53 52/52/52
f 76/76/76 52/52/52 78/78/78
f 76/76/76 78/78/78 72/72/72
f 76/76/76 72/72/72 71/71/71
f 76/76/76 71/71/71 65/65/65
f 76/76/76 65/65/65 77/77/77
f 79/79/79 80/80/80 60/60/60
f 79/79/79 60/60/60 59/59/59
f 79/79/79 59/59/59 54/54/54
f 79/79/79 54/54/54 77/77/77
f 79/79/79 77/77/77 65/65/65
f 79/79/79 65/65/65 64/64/64
f 79/79/79 64/64/64 63/63/63
f 79/79/79 63/63/63 80/80/80
f 81/81/81 82/82/82 69/69/69
f 81/81/81 69/69/69 68/68/68
f 81/81/81 68/68/68 67/67/67
f 81/81/81 67/67/67 83/83/83
f 81/81/81 83/83/83 84/84/84
f 81/81/81 84/84/84 85/85/85
f 81/81/81 85/85/85 86/86/86
f 81/81/81 86/86/86 82/82/82
f 87/87/87 83/83/83 67/67/67
f 87/87/87 67/67/67 75/75/75
f 87/87/87 75/75/75 74/74/74
f 87/87/87 74/74/74 88/88/88
f 87/87/87 88/88/88 89/89/89
f 87/87/87 89/89/89 90/90/90
f 87/87/87 90/90/90 84/84/84
f 87/87/87 84/84/84 83/83/83
f 91/91/91 92/92/92 38/38/38
f 91/91/91 38/38/38 37/37/37
f 91/91/91 37/37/37 18/18/18
f 91/91/91 18/18/18 93/93/93
f 91/91/91 93/93/93 69/69/69
f 91/91/91 69/69/69 82/82/82
f 91/91/91 82/82/82 94/94/94
f 91/91/91 94/94/94 92/92/92
f 95/95/95 96/96/96 44/44/44
f 95/95/95 44/44/44 43/43/43
f 95/95/95 43/43/43 40/40/40
f 95/95/95 40/40/40 97/97/97
f 95/95/95 97/97/97 84/84/84
f 95/95/95 84/84/84 90/90/90
f 95/95/95 90/90/90 98/98/98
f 95/95/95 98/98/98 96/96/96
f 99/99/99 100/100/100 7/7/7
f 99/99/99 7/7/7 6/6/6
f 99/99/99 6/6/6 5/5/5
f 99/99/99 5/5/5 101/101/101
f 99/99/99 101/101/101 52/52/52
f 99/99/99 52/52/52 51/51/51
f 99/99/99 51/51/51 102/102/102
f 99/99/99 102/102/102 100/100/100
f 103/103/103 104/104/104 15/15/15
f 103/103/103 15/15/15 14/14/14
f 103/103/103 14/14/14 9/9/9
f 103/103/103 9/9/9 105/105/105
f 103/103/103 105/105/105 48/48/48
f 103/103/103 48/48/48 58/58/58
f 103/103/103 58/58/58 106/106/106
f 103/103/103 106/106/106 104/104/104
f 107/107/107 108/108/108 12/12/12
f 107/107/107 12/12/12 11/11/11
f 107/107/107 11/11/11 15/15/15
f 107/107/107 15/15/15 104/104/104
f 107/107/107 104/104/104 106/106/106
f 107/107/107 106/106/106 56/56/56
f 107/107/107 56/56/56 60/60/60
f 107/107/107 60/60/60 108/108/108
f 109/109/109 97/97/97 40/40/40
f 109/109/109 40/40/40 39/39/39
f 109/109/109 39/39/39 38/38/38
f 109/109/109 38/38/38 92/92/92
f 109/109/109 92/92/92 94/94/94
f 109/109/109 94/94/94 85/85/85
f 109/109/109 85/85/85 84/84/84
f 109/109/109 84/84/84 97/97/97
f 110/110/110 111/111/111 27/27/27
f 110/110/110 27/27/27 45/45/45
f 110/110/110 45/45/45 44/44/44
f 110/110/110 44/44/44 96/96/96
f 110/110/110 96/96/96 98/98/98
f 110/110/110 98/98/98 88/88/88
f 110/110/110 88/88/88 74/74/74
f 110/110/110 74/74/74 111/111/111
f 112/112/112 105/105/105 9/9/9
f 112/112/112 9/9/9 8/8/8
f 112/112/112 8/8/8 7/7/7
f 112/112/112 7/7/7 100/100/100
f 112/112/112 100/100/100 102/102/102
f 112/112/112 102/102/102 49/49/49
f 112/112/112 49/49/49 48/48/48
f 112/112/112 48/48/48 105/105/105
f 113/113/113 101/101/101 5/5/5
f 113/113/113 5/5/5 33/33/33
f 113/113/113 33/33/33 29/29/29
f 113/113/113 29/29/29 114/114/114
f 113/113/113 114/114/114 72/72/72
f 113/113/113 72/72/72 78/78/78
f 113/113/113 78/78/78 52/52/52
f 113/113/113 52/52/52 101/101/101
f 115/115/115 116/116/116 24/24/24
f 115/115/115 24/24/24 35/35/35
f 115/115/115 35/35/35 12/12/12
f 115/115/115 12/12/12 108/108/108
f 115/115/115 108/108/108 60/60/60
f 115/115/115 60/60/60 80/80/80
f 115/115/115 80/80/80 63/63/63
f 115/115/115 63/63/63 116/116/116
f 117/117/117 93/93/93 18/18/18
f 117/117/117 18/18/18 17/17/17
f 117/117/117 17/17/17 24/24/24
f 117/117/117 24/24/24 116/116/116
f 117/117/117 116/116/116 63/63/63
f 117/117/117 63/63/63 62/62/62
f 117/117/117 62/62/62 69/69/69
f 117/117/117 69/69/69 93/93/93
f 118/118/118 114/114/114 29/29/29
f 118/118/118 29/29/29 28/28/28
f 118/118/118 28/28/28 27/27/27
f 118/118/118 27/27/27 111/111/111
f 118/118/118 111/111/111 74/74/74
f 118/118/118 74/74/74 73/73/73
f 118/118/118 73/73/73 72/72/72
f 118/118/118 72/72/72 114/114/114
