v -2.391218 0.805051 -1.169863
v -2.392038 0.804969 -1.172317
v -2.394313 0.802910 -1.170748
v -2.393093 0.803172 -1.168154
v -2.392407 0.803470 -1.166052
v -2.390993 0.805086 -1.167754
v -2.390218 0.805859 -1.169290
v -2.389870 0.806269 -1.171194
v -2.390309 0.806383 -1.173503
v -2.393959 0.804889 -1.174051
v -2.395800 0.804803 -1.175099
v -2.397868 0.803148 -1.174396
v -2.396208 0.802988 -1.172914
v -2.392243 0.806129 -1.174819
v -2.394111 0.805629 -1.175238
v -2.402218 0.795126 -1.168608
v -2.403566 0.795208 -1.170237
v -2.404919 0.792180 -1.168560
v -2.403713 0.792101 -1.167127
v -2.402222 0.792074 -1.165153
v -2.400543 0.795103 -1.166369
v -2.398698 0.797967 -1.167687
v -2.400466 0.798009 -1.170020
v -2.401902 0.798121 -1.171708
v -2.399165 0.795306 -1.163944
v -2.401014 0.792260 -1.163002
v -2.400188 0.792459 -1.161332
v -2.398217 0.795524 -1.162065
v -2.396307 0.798451 -1.163159
v -2.397272 0.798198 -1.165141
v -2.395180 0.800853 -1.166562
v -2.396577 0.800573 -1.169176
v -2.394274 0.801179 -1.164505
v -2.398420 0.800662 -1.171513
v -2.399952 0.800844 -1.173180
v -2.404988 0.789021 -1.165426
v -2.405932 0.789111 -1.166469
v -2.406218 0.787347 -1.165069
v -2.405839 0.786671 -1.164085
v -2.405010 0.786609 -1.163118
v -2.403841 0.788977 -1.163974
v -2.402973 0.789140 -1.162348
v -2.404458 0.786753 -1.161976
v -2.403734 0.787494 -1.161273
v -2.402400 0.789320 -1.161072
v -2.391052 0.804843 -1.169918
v -2.391892 0.804759 -1.172404
v -2.390203 0.806222 -1.173567
v -2.389749 0.806111 -1.171232
v -2.390123 0.805744 -1.169312
v -2.390860 0.804934 -1.167779
v -2.392271 0.803322 -1.166085
v -2.392923 0.802971 -1.168218
v -2.394161 0.802706 -1.170840
v -2.393835 0.804679 -1.174169
v -2.395719 0.804647 -1.175203
v -2.394049 0.805513 -1.175310
v -2.392154 0.805969 -1.174907
v -2.396075 0.802785 -1.173034
v -2.397778 0.802998 -1.174499
v -2.402050 0.794959 -1.168741
v -2.403447 0.795083 -1.170346
v -2.401790 0.797987 -1.171814
v -2.400306 0.797830 -1.170148
v -2.398524 0.797788 -1.167794
v -2.400361 0.794935 -1.166482
v -2.402034 0.791916 -1.165270
v -2.403540 0.791942 -1.167264
v -2.404796 0.792061 -1.168672
v -2.398971 0.795140 -1.164037
v -2.397085 0.798020 -1.165226
v -2.396160 0.798319 -1.163212
v -2.398065 0.795400 -1.162124
v -2.400032 0.792342 -1.161393
v -2.400814 0.792103 -1.163098
v -2.395001 0.800663 -1.166637
v -2.396414 0.800381 -1.169275
v -2.394133 0.801039 -1.164548
v -2.398273 0.800470 -1.171636
v -2.399851 0.800701 -1.173284
v -2.404813 0.788865 -1.165565
v -2.405809 0.788995 -1.166584
v -2.403651 0.788822 -1.164092
v -2.404867 0.786493 -1.163206
v -2.405709 0.786555 -1.164191
v -2.406125 0.787261 -1.165151
v -2.402770 0.788986 -1.162444
v -2.402241 0.789206 -1.161132
v -2.403618 0.787409 -1.161321
v -2.404305 0.786638 -1.162047
v -2.406194 0.789090 -1.166870
v -2.406531 0.786735 -1.164845
v -2.405267 0.792154 -1.169090
v -2.406125 0.787261 -1.165151
v -2.404885 0.785906 -1.161884
v -2.404042 0.786882 -1.161043
v -2.405336 0.785768 -1.162872
v -2.403618 0.787409 -1.161321
v -2.390857 0.805031 -1.167059
v -2.389987 0.806000 -1.169098
v -2.392116 0.803505 -1.165363
v -2.390123 0.805744 -1.169312
v -2.391633 0.806470 -1.175114
v -2.394200 0.805751 -1.175533
v -2.389686 0.806782 -1.173926
v -2.394049 0.805513 -1.175310
v -2.396380 0.804706 -1.175498
v -2.398384 0.803135 -1.174939
v -2.406065 0.785836 -1.163686
v -2.402137 0.789329 -1.160671
v -2.399842 0.792474 -1.160800
v -2.389368 0.806604 -1.171654
v -2.393908 0.801226 -1.163835
v -2.395918 0.798477 -1.162520
v -2.400420 0.800842 -1.173784
v -2.402333 0.798099 -1.172320
v -2.403964 0.795180 -1.170831
v -2.397832 0.795541 -1.161462
vn -0.622600 0.773400 0.118700
vn -0.502200 0.812000 0.297300
vn -0.541400 0.775700 0.324400
vn -0.651100 0.740500 0.166100
vn -0.662500 0.725700 0.185400
vn -0.619500 0.774800 0.126100
vn -0.585600 0.806200 0.084200
vn -0.541600 0.833200 0.110900
vn -0.437500 0.862900 0.253000
vn -0.385600 0.787400 0.480900
vn -0.391100 0.788300 0.475100
vn -0.460900 0.737600 0.493500
vn -0.439200 0.753000 0.489900
vn -0.348100 0.844600 0.406700
vn -0.340300 0.820600 0.459000
vn -0.620800 0.592400 0.513400
vn -0.647400 0.586400 0.486800
vn -0.664200 0.559900 0.495300
vn -0.631500 0.565000 0.531000
vn -0.704700 0.556800 0.439700
vn -0.684800 0.591700 0.425400
vn -0.641100 0.658400 0.394200
vn -0.573800 0.651500 0.496200
vn -0.599800 0.639200 0.481200
vn -0.739800 0.585400 0.331600
vn -0.759100 0.557500 0.335900
vn -0.739400 0.555500 0.380300
vn -0.725900 0.581700 0.366800
vn -0.703600 0.633100 0.322600
vn -0.707300 0.643600 0.292300
vn -0.674000 0.701900 0.230200
vn -0.587500 0.726400 0.356500
vn -0.681700 0.685400 0.255800
vn -0.505800 0.711800 0.487400
vn -0.531600 0.694300 0.485100
vn -0.621700 0.552200 0.555500
vn -0.659300 0.543400 0.519500
vn -0.646900 0.528300 0.549900
vn -0.631700 0.502900 0.589900
vn -0.737200 0.491500 0.463500
vn -0.713600 0.540000 0.446200
vn -0.777200 0.543000 0.317800
vn -0.811000 0.492400 0.315900
vn -0.781400 0.520600 0.344200
vn -0.759100 0.537700 0.366900
vn 0.649600 -0.753000 -0.104600
vn 0.513200 -0.802300 -0.304900
vn 0.554200 -0.762700 -0.333300
vn 0.723300 -0.687900 -0.059200
vn 0.775600 -0.630200 0.034600
vn 0.763100 -0.646000 0.016800
vn 0.742500 -0.668100 -0.047100
vn 0.658700 -0.736700 -0.153300
vn 0.541300 -0.775700 -0.324300
vn 0.382800 -0.768800 -0.512300
vn 0.313300 -0.672500 -0.670500
vn 0.301500 -0.658200 -0.689800
vn 0.368500 -0.708800 -0.601500
vn 0.430400 -0.750100 -0.502100
vn 0.364400 -0.690500 -0.624800
vn 0.610100 -0.592800 -0.525700
vn 0.530700 -0.592300 -0.606200
vn 0.495700 -0.632400 -0.595200
vn 0.564200 -0.651000 -0.507800
vn 0.641200 -0.658300 -0.394300
vn 0.684900 -0.591500 -0.425400
vn 0.704700 -0.556700 -0.439800
vn 0.618000 -0.567200 -0.544400
vn 0.514400 -0.587500 -0.624600
vn 0.746700 -0.584700 -0.316900
vn 0.714000 -0.642100 -0.278900
vn 0.766000 -0.616400 -0.182400
vn 0.788700 -0.577000 -0.212200
vn 0.798800 -0.570800 -0.190000
vn 0.766100 -0.558400 -0.318100
vn 0.680600 -0.699600 -0.217400
vn 0.587500 -0.726400 -0.356500
vn 0.745500 -0.655700 -0.119800
vn 0.496500 -0.710400 -0.498700
vn 0.431700 -0.674200 -0.599200
vn 0.595800 -0.567300 -0.568400
vn 0.457500 -0.607700 -0.649100
vn 0.708200 -0.550200 -0.442300
vn 0.683300 -0.594100 -0.424300
vn 0.511600 -0.618300 -0.596600
vn 0.419500 -0.623200 -0.659900
vn 0.779200 -0.556500 -0.288200
vn 0.799000 -0.587700 -0.127000
vn 0.794300 -0.601200 -0.087200
vn 0.773200 -0.602800 -0.197100
vn -0.806300 -0.222800 -0.547900
vn -0.846500 -0.481300 -0.227500
vn -0.744500 -0.128100 -0.655200
vn 0.419500 -0.623200 -0.659900
vn -0.332800 -0.779600 0.530500
vn -0.113600 -0.437500 0.892000
vn -0.360100 -0.892900 0.270200
vn 0.794300 -0.601200 -0.087200
vn 0.520200 0.481200 0.705600
vn 0.641800 0.625600 0.443500
vn 0.444300 0.330800 0.832500
vn 0.775600 -0.630200 0.034600
vn 0.267500 0.559100 -0.784700
vn -0.170600 0.577900 -0.798000
vn 0.702500 0.525200 -0.480200
vn 0.301500 -0.658200 -0.689800
vn -0.454100 0.424000 -0.783600
vn -0.595800 0.269400 -0.756500
vn -0.591200 -0.795000 0.135700
vn 0.185800 -0.164400 0.968700
vn 0.305800 -0.065900 0.949800
vn 0.805900 0.590800 0.037800
vn 0.402400 0.202500 0.892700
vn 0.387300 0.119400 0.914200
vn -0.663200 0.139500 -0.735300
vn -0.686000 0.055700 -0.725500
vn -0.703100 -0.027700 -0.710500
vn 0.369900 0.036200 0.928400
vt 0.839504 0.118056
vt 0.856743 0.205307
vt 0.741230 0.205307
vt 0.734555 0.106726
vt 0.724541 0.032791
vt 0.813647 0.052618
vt 0.868992 0.081539
vt 0.913398 0.129584
vt 0.940923 0.205307
vt 0.839504 0.292557
vt 0.813647 0.357995
vt 0.724541 0.377822
vt 0.734555 0.303887
vt 0.913398 0.281029
vt 0.868992 0.329074
vt 0.369475 0.299954
vt 0.368286 0.370940
vt 0.245840 0.351447
vt 0.246397 0.288815
vt 0.246768 0.205307
vt 0.370268 0.205307
vt 0.494283 0.205307
vt 0.492822 0.304944
vt 0.490632 0.379672
vt 0.369475 0.110659
vt 0.246397 0.121798
vt 0.245841 0.059166
vt 0.368286 0.039673
vt 0.490632 0.030941
vt 0.492822 0.105669
vt 0.616755 0.103478
vt 0.619174 0.205307
vt 0.613127 0.027106
vt 0.616755 0.307135
vt 0.613126 0.383507
vt 0.123273 0.268175
vt 0.123047 0.315326
vt 0.054743 0.283353
vt 0.030912 0.249131
vt 0.030973 0.205306
vt 0.123423 0.205306
vt 0.123273 0.142438
vt 0.030912 0.161481
vt 0.054744 0.127260
vt 0.123047 0.095287
vt 0.839504 0.118056
vt 0.856743 0.205307
vt 0.968983 0.205307
vt 0.938030 0.133427
vt 0.876123 0.061548
vt 0.805028 0.030806
vt 0.721203 0.008146
vt 0.734555 0.106726
vt 0.741230 0.205307
vt 0.839504 0.292557
vt 0.805028 0.379807
vt 0.876123 0.349065
vt 0.938030 0.277186
vt 0.734555 0.303887
vt 0.721203 0.402467
vt 0.369475 0.299954
vt 0.367890 0.394602
vt 0.489902 0.404581
vt 0.492822 0.304944
vt 0.494283 0.205307
vt 0.370268 0.205307
vt 0.246768 0.205307
vt 0.246397 0.288815
vt 0.245655 0.372324
vt 0.369475 0.110659
vt 0.492822 0.105669
vt 0.489902 0.006032
vt 0.367890 0.016011
vt 0.245655 0.038289
vt 0.246397 0.121798
vt 0.616755 0.103478
vt 0.619174 0.205307
vt 0.611917 0.001649
vt 0.616755 0.307135
vt 0.611917 0.408964
vt 0.123273 0.268175
vt 0.122972 0.331043
vt 0.123423 0.205306
vt 0.000156 0.205306
vt 0.000125 0.242784
vt 0.000064 0.280261
vt 0.123273 0.142438
vt 0.122972 0.079570
vt 0.000064 0.130352
vt 0.000125 0.167829
vt 0.122972 0.331043
vt 0.030806 0.283587
vt 0.245655 0.372324
vt 0.030806 0.283587
vt 0.000125 0.167829
vt 0.030806 0.127026
vt 0.000156 0.205306
vt 0.030806 0.127026
vt 0.805028 0.030806
vt 0.873826 0.071832
vt 0.721203 0.008146
vt 0.873826 0.071832
vt 0.938030 0.277186
vt 0.873826 0.338781
vt 0.968983 0.205307
vt 0.873826 0.338781
vt 0.805028 0.379807
vt 0.721203 0.402467
vt 0.000125 0.242784
vt 0.122972 0.079570
vt 0.245655 0.038289
vt 0.938030 0.133427
vt 0.611917 0.001649
vt 0.489902 0.006032
vt 0.611917 0.408964
vt 0.489902 0.404581
vt 0.367890 0.394602
vt 0.367890 0.016011
f 1/1/1 2/2/2 3/3/3
f 1/1/1 3/3/3 4/4/4
f 1/1/1 4/4/4 5/5/5
f 1/1/1 5/5/5 6/6/6
f 1/1/1 6/6/6 7/7/7
f 1/1/1 7/7/7 8/8/8
f 1/1/1 8/8/8 9/9/9
f 1/1/1 9/9/9 2/2/2
f 10/10/10 11/11/11 12/12/12
f 10/10/10 12/12/12 13/13/13
f 10/10/10 13/13/13 3/3/3
f 10/10/10 3/3/3 2/2/2
f 10/10/10 2/2/2 9/9/9
f 10/10/10 9/9/9 14/14/14
f 10/10/10 14/14/14 15/15/15
f 10/10/10 15/15/15 11/11/11
f 16/16/16 17/17/17 18/18/18
f 16/16/16 18/18/18 19/19/19
f 16/16/16 19/19/19 20/20/20
f 16/16/16 20/20/20 21/21/21
f 16/16/16 21/21/21 22/22/22
f 16/16/16 22/22/22 23/23/23
f 16/16/16 23/23/23 24/24/24
f 16/16/16 24/24/24 17/17/17
f 25/25/25 21/21/21 20/20/20
f 25/25/25 20/20/20 26/26/26
f 25/25/25 26/26/26 27/27/27
f 25/25/25 27/27/27 28/28/28
f 25/25/25 28/28/28 29/29/29
f 25/25/25 29/29/29 30/30/30
f 25/25/25 30/30/30 22/22/22
f 25/25/25 22/22/22 21/21/21
f 31/31/31 32/32/32 22/22/22
f 31/31/31 22/22/22 30/30/30
f 31/31/31 30/30/30 29/29/29
f 31/31/31 29/29/29 33/33/33
f 31/31/31 33/33/33 5/5/5
f 31/31/31 5/5/5 4/4/4
f 31/31/31 4/4/4 3/3/3
f 31/31/31 3/3/3 32/32/32
f 34/34/34 35/35/35 24/24/24
f 34/34/34 24/24/24 23/23/23
f 34/34/34 23/23/23 22/22/22
f 34/34/34 22/22/22 32/32/32
f 34/34/34 32/32/32 3/3/3
f 34/34/34 3/3/3 13/13/13
f 34/34/34 13/13/13 12/12/12
f 34/34/34 12/12/12 35/35/35
f 36/36/36 37/37/37 38/38/38
f 36/36/36 38/38/38 39/39/39
f 36/36/36 39/39/39 40/40/40
f 36/36/36 40/40/40 41/41/41
f 36/36/36 41/41/41 20/20/20
f 36/36/36 20/20/20 19/19/19
f 36/36/36 19/19/19 18/18/18
f 36/36/36 18/18/18 37/37/37
f 42/42/42 41/41/41 40/40/40
f 42/42/42 40/40/40 43/43/43
f 42/42/42 43/43/43 44/44/44
f 42/42/42 44/44/44 45/45/45
f 42/42/42 45/45/45 27/27/27
f 42/42/42 27/27/27 26/26/26
f 42/42/42 26/26/26 20/20/20
f 42/42/42 20/20/20 41/41/41
f 46/46/46 47/47/47 48/48/48
f 46/46/46 48/48/48 49/49/49
f 46/46/46 49/49/49 50/50/50
f 46/46/46 50/50/50 51/51/51
f 46/46/46 51/51/51 52/52/52
f 46/46/46 52/52/52 53/53/53
f 46/46/46 53/53/53 54/54/54
f 46/46/46 54/54/54 47/47/47
f 55/55/55 56/56/56 57/57/57
f 55/55/55 57/57/57 58/58/58
f 55/55/55 58/58/58 48/48/48
f 55/55/55 48/48/48 47/47/47
f 55/55/55 47/47/47 54/54/54
f 55/55/55 54/54/54 59/59/59
f 55/55/55 59/59/59 60/60/60
f 55/55/55 60/60/60 56/56/56
f 61/61/61 62/62/62 63/63/63
f 61/61/61 63/63/63 64/64/64
f 61/61/61 64/64/64 65/65/65
f 61/61/61 65/65/65 66/66/66
f 61/61/61 66/66/66 67/67/67
f 61/61/61 67/67/67 68/68/68
f 61/61/61 68/68/68 69/69/69
f 61/61/61 69/69/69 62/62/62
f 70/70/70 66/66/66 65/65/65
f 70/70/70 65/65/65 71/71/71
f 70/70/70 71/71/71 72/72/72
f 70/70/70 72/72/72 73/73/73
f 70/70/70 73/73/73 74/74/74
f 70/70/70 74/74/74 75/75/75
f 70/70/70 75/75/75 67/67/67
f 70/70/70 67/67/67 66/66/66
f 76/76/76 77/77/77 54/54/54
f 76/76/76 54/54/54 53/53/53
f 76/76/76 53/53/53 52/52/52
f 76/76/76 52/52/52 78/78/78
f 76/76/76 78/78/78 72/72/72
f 76/76/76 72/72/72 71/71/71
f 76/76/76 71/71/71 65/65/65
f 76/76/76 65/65/65 77/77/77
f 79/79/79 80/80/80 60/60/60
f 79/79/79 60/60/60 59/59/59
f 79/79/79 59/59/59 54/54/54
f 79/79/79 54/54/54 77/77/77
f 79/79/79 77/77/77 65/65/65
f 79/79/79 65/65/65 64/64/64
f 79/79/79 64/64/64 63/63/63
f 79/79/79 63/63/63 80/80/80
f 81/81/81 82/82/82 69/69/69
f 81/81/81 69/69/69 68/68/68
f 81/81/81 68/68/68 67/67/67
f 81/81/81 67/67/67 83/83/83
f 81/81/81 83/83/83 84/84/84
f 81/81/81 84/84/84 85/85/85
f 81/81/81 85/85/85 86/86/86
f 81/81/81 86/86/86 82/82/82
f 87/87/87 83/83/83 67/67/67
f 87/87/87 67/67/67 75/75/75
f 87/87/87 75/75/75 74/74/74
f 87/87/87 74/74/74 88/88/88
f 87/87/87 88/88/88 89/89/89
f 87/87/87 89/89/89 90/90/90
f 87/87/87 90/90/90 84/84/84
f 87/87/87 84/84/84 83/83/83
f 91/91/91 92/92/92 38/38/38
f 91/91/91 38/38/38 37/37/37
f 91/91/91 37/37/37 18/18/18
f 91/91/91 18/18/18 93/93/93
f 91/91/91 93/93/93 69/69/69
f 91/91/91 69/69/69 82/82/82
f 91/91/91 82/82/82 94/94/94
f 91/91/91 94/94/94 92/92/92
f 95/95/95 96/96/96 44/44/44
f 95/95/95 44/44/44 43/43/43
f 95/95/95 43/43/43 40/40/40
f 95/95/95 40/40/40 97/97/97
f 95/95/95 97/97/97 84/84/84
f 95/95/95 84/84/84 90/90/90
f 95/95/95 90/90/90 98/98/98
f 95/95/95 98/98/98 96/96/96
f 99/99/99 100/100/100 7/7/7
f 99/99/99 7/7/7 6/6/6
f 99/99/99 6/6/6 5/5/5
f 99/99/99 5/5/5 101/101/101
f 99/99/99 101/101/101 52/52/52
f 99/99/99 52/52/52 51/51/51
f 99/99/99 51/51/51 102/102/102
f 99/99/99 102/102/102 100/100/100
f 103/103/103 104/104/104 15/15/15
f 103/103/103 15/15/15 14/14/14
f 103/103/103 14/14/14 9/9/9
f 103/103/103 9/9/9 105/105/105
f 103/103/103 105/105/105 48/48/48
f 103/103/103 48/48/48 58/58/58
f 103/103/103 58/58/58 106/106/106
f 103/103/103 106/106/106 104/104/104
f 107/107/107 108/108/108 12/12/12
f 107/107/107 12/12/12 11/11/11
f 107/107/107 11/11/11 15/15/15
f 107/107/107 15/15/15 104/104/104
f 107/107/107 104/104/104 106/106/106
f 107/107/107 106/106/106 56/56/56
f 107/107/107 56/56/56 60/60/60
f 107/107/107 60/60/60 108/108/108
f 109/109/109 97/97/97 40/40/40
f 109/109/109 40/40/40 39/39/39
f 109/109/109 39/39/39 38/38/38
f 109/109/109 38/38/38 92/92/92
f 109/109/109 92/92/92 94/94/94
f 109/109/109 94/94/94 85/85/85
f 109/109/109 85/85/85 84/84/84
f 109/109/109 84/84/84 97/97/97
f 110/110/110 111/111/111 27/27/27
f 110/110/110 27/27/27 45/45/45
f 110/110/110 45/45/45 44/44/44
f 110/110/110 44/44/44 96/96/96
f 110/110/110 96/96/96 98/98/98
f 110/110/110 98/98/98 88/88/88
f 110/110/110 88/88/88 74/74/74
f 110/110/110 74/74/74 111/111/111
f 112/112/112 105/105/105 9/9/9
f 112/112/112 9/9/9 8/8/8
f 112/112/112 8/8/8 7/7/7
f 112/112/112 7/7/7 100/100/100
f 112/112/112 100/100/100 102/102/102
f 112/112/112 102/102/102 49/49/49
f 112/112/112 49/49/49 48/48/48
f 112/112/112 48/48/48 105/105/105
f 113/113/113 101/101/101 5/5/5
f 113/113/113 5/5/5 33/33/33
f 113/113/113 33/33/33 29/29/29
f 113/113/113 29/29/29 114/114/114
f 113/113/113 114/114/114 72/72/72
f 113/113/113 72/72/72 78/78/78
f 113/113/113 78/78/78 52/52/52
f 113/113/113 52/52/52 101/101/101
f 115/115/115 116/116/116 24/24/24
f 115/115/115 24/24/24 35/35/35
f 115/115/115 35/35/35 12/12/12
f 115/115/115 12/12/12 108/108/108
f 115/115/115 108/108/108 60/60/60
f 115/115/115 60/60/60 80/80/80
f 115/115/115 80/80/80 63/63/63
f 115/115/115 63/63/63 116/116/116
f 117/117/117 93/93/93 18/18/18
f 117/117/117 18/18/18 17/17/17
f 117/117/117 17/17/17 24/24/24
f 117/117/117 24/24/24 116/116/116
f 117/117/117 116/116/116 63/63/63
f 117/117/117 63/63/63 62/62/62
f 117/117/117 62/62/62 69/69/69
f 117/117/117 69/69/69 93/93/93
f 118/118/118 114/114/114 29/29/29
f 118/118/118 29/29/29 28/28/28
f 118/118/118 28/28/28 27/27/27
f 118/118/118 27/27/27 111/111/111
f 118/118/118 111/111/111 74/74/74
f 118/118/118 74/74/74 73/73/73
f 118/118/118 73/73/73 72/72/72
f 118/118/118 72/72/72 114/114/114
