v -2.370723 0.739838 -1.062993
v -2.372737 0.740379 -1.063001
v -2.372854 0.737778 -1.062039
v -2.370567 0.737431 -1.062189
v -2.368802 0.737114 -1.062075
v -2.369168 0.739203 -1.062685
v -2.369812 0.740481 -1.063192
v -2.370935 0.741516 -1.063647
v -2.372674 0.742253 -1.063794
v -2.374634 0.740331 -1.062136
v -2.376026 0.740068 -1.061182
v -2.376592 0.738097 -1.060368
v -2.375011 0.737992 -1.061215
v -2.374319 0.741943 -1.062905
v -2.375365 0.741182 -1.061975
v -2.375696 0.729470 -1.059650
v -2.377286 0.729671 -1.059071
v -2.377200 0.726679 -1.059096
v -2.375796 0.726504 -1.059621
v -2.373904 0.726266 -1.060198
v -2.373554 0.729199 -1.060291
v -2.373251 0.732111 -1.060583
v -2.375486 0.732398 -1.059892
v -2.377143 0.732611 -1.059256
v -2.371341 0.728921 -1.060604
v -2.371945 0.726018 -1.060465
v -2.370452 0.725828 -1.060575
v -2.369657 0.728708 -1.060743
v -2.369161 0.731604 -1.061005
v -2.370931 0.731824 -1.060890
v -2.370655 0.734710 -1.061453
v -2.373022 0.734996 -1.061199
v -2.368838 0.734493 -1.061482
v -2.375277 0.735293 -1.060440
v -2.376938 0.735516 -1.059707
v -2.375677 0.723494 -1.059714
v -2.376716 0.723623 -1.059274
v -2.376195 0.721889 -1.059529
v -2.375513 0.721221 -1.059855
v -2.374562 0.721102 -1.060223
v -2.374273 0.723318 -1.060181
v -2.372803 0.723132 -1.060343
v -2.373544 0.720972 -1.060286
v -2.372652 0.721441 -1.060306
v -2.371677 0.722987 -1.060378
v -2.370746 0.739771 -1.063199
v -2.372789 0.740315 -1.063203
v -2.372714 0.742202 -1.063944
v -2.370950 0.741463 -1.063801
v -2.369817 0.740443 -1.063307
v -2.369170 0.739152 -1.062841
v -2.368808 0.737070 -1.062233
v -2.370592 0.737373 -1.062397
v -2.372906 0.737722 -1.062243
v -2.374715 0.740272 -1.062329
v -2.376101 0.740027 -1.061322
v -2.375417 0.741149 -1.062079
v -2.374382 0.741896 -1.063049
v -2.375089 0.737941 -1.061412
v -2.376663 0.738061 -1.060511
v -2.375763 0.729458 -1.059858
v -2.377346 0.729663 -1.059224
v -2.377204 0.732594 -1.059407
v -2.375556 0.732374 -1.060098
v -2.373301 0.732083 -1.060794
v -2.373603 0.729184 -1.060504
v -2.373952 0.726260 -1.060412
v -2.375863 0.726500 -1.059830
v -2.377259 0.726678 -1.059250
v -2.371371 0.728904 -1.060820
v -2.370961 0.731794 -1.061105
v -2.369174 0.731581 -1.061167
v -2.369669 0.728694 -1.060906
v -2.370464 0.725820 -1.060739
v -2.371974 0.726010 -1.060682
v -2.370683 0.734666 -1.061665
v -2.373073 0.734954 -1.061407
v -2.368848 0.734459 -1.061642
v -2.375350 0.735255 -1.060642
v -2.377004 0.735489 -1.059855
v -2.375744 0.723494 -1.059922
v -2.376776 0.723624 -1.059427
v -2.374320 0.723315 -1.060395
v -2.374597 0.721100 -1.060383
v -2.375565 0.721221 -1.060011
v -2.376237 0.721889 -1.059644
v -2.372830 0.723126 -1.060561
v -2.371687 0.722981 -1.060542
v -2.372662 0.721438 -1.060427
v -2.373563 0.720968 -1.060449
v -2.377091 0.723666 -1.059195
v -2.376272 0.721312 -1.059532
v -2.377697 0.726737 -1.058989
v -2.376237 0.721889 -1.059644
v -2.373800 0.720251 -1.060340
v -2.372722 0.720864 -1.060310
v -2.374673 0.720362 -1.060308
v -2.372662 0.721438 -1.060427
v -2.368647 0.738968 -1.062652
v -2.369569 0.740579 -1.063244
v -2.368213 0.736988 -1.062107
v -2.369817 0.740443 -1.063307
v -2.374243 0.742459 -1.063225
v -2.375577 0.741337 -1.061928
v -2.372671 0.742854 -1.064125
v -2.375417 0.741149 -1.062079
v -2.376526 0.739963 -1.060925
v -2.377153 0.738117 -1.060148
v -2.375482 0.720463 -1.059971
v -2.371304 0.722936 -1.060463
v -2.369957 0.725760 -1.060684
v -2.371012 0.742051 -1.063933
v -2.368234 0.734406 -1.061563
v -2.368575 0.731520 -1.061115
v -2.377523 0.735578 -1.059527
v -2.377724 0.732675 -1.059110
v -2.377845 0.729734 -1.058946
v -2.369098 0.728630 -1.060862
vn 0.025700 0.343000 0.939000
vn 0.242200 0.344200 0.907100
vn 0.239500 0.287900 0.927200
vn 0.046100 0.284900 0.957400
vn 0.054000 0.260100 0.964000
vn 0.033700 0.342300 0.939000
vn 0.020100 0.398900 0.916700
vn 0.069100 0.426400 0.901900
vn 0.244700 0.429600 0.869200
vn 0.445500 0.290000 0.846900
vn 0.438200 0.291200 0.850400
vn 0.411300 0.215100 0.885700
vn 0.421400 0.237600 0.875200
vn 0.411900 0.383000 0.826800
vn 0.454600 0.344000 0.821600
vn 0.322700 0.026400 0.946100
vn 0.286600 0.022700 0.957800
vn 0.280000 -0.008900 0.959900
vn 0.326400 -0.007500 0.945200
vn 0.213600 -0.003200 0.976900
vn 0.218600 0.039100 0.975000
vn 0.227300 0.123800 0.965900
vn 0.343000 0.100200 0.934000
vn 0.315700 0.086600 0.944900
vn 0.112000 0.053000 0.992300
vn 0.100400 0.021000 0.994700
vn 0.146700 0.007900 0.989100
vn 0.147500 0.040300 0.988200
vn 0.131900 0.109800 0.985100
vn 0.106600 0.130000 0.985700
vn 0.082000 0.217000 0.972700
vn 0.234900 0.216100 0.947700
vn 0.096700 0.189700 0.977100
vn 0.380000 0.179400 0.907400
vn 0.362400 0.156100 0.918900
vn 0.348700 -0.024800 0.936900
vn 0.299000 -0.030800 0.953700
vn 0.326900 -0.051400 0.943600
vn 0.361800 -0.083600 0.928500
vn 0.203900 -0.079200 0.975800
vn 0.211200 -0.023100 0.977100
vn 0.073200 0.009900 0.997300
vn 0.044200 -0.043600 0.998000
vn 0.088700 -0.021400 0.995800
vn 0.122300 -0.008500 0.992400
vn 0.003300 -0.322100 -0.946700
vn -0.241500 -0.328800 -0.913000
vn -0.238400 -0.268500 -0.933300
vn 0.090900 -0.260000 -0.961300
vn 0.209100 -0.233000 -0.949700
vn 0.184400 -0.243100 -0.952300
vn 0.114600 -0.241700 -0.963500
vn -0.030700 -0.284300 -0.958200
vn -0.239500 -0.288000 -0.927200
vn -0.469200 -0.262500 -0.843100
vn -0.612400 -0.142200 -0.777600
vn -0.630600 -0.127000 -0.765600
vn -0.537700 -0.180700 -0.823500
vn -0.435100 -0.233300 -0.869600
vn -0.555100 -0.157100 -0.816800
vn -0.338100 -0.025600 -0.940700
vn -0.442100 -0.021000 -0.896700
vn -0.457700 -0.072000 -0.886100
vn -0.357100 -0.098500 -0.928800
vn -0.227200 -0.123600 -0.965900
vn -0.218500 -0.038900 -0.975000
vn -0.213600 0.003300 -0.976900
vn -0.344500 0.006400 -0.938700
vn -0.464000 -0.015600 -0.885700
vn -0.096100 -0.056200 -0.993800
vn -0.091700 -0.132000 -0.987000
vn 0.020700 -0.132500 -0.991000
vn 0.014600 -0.078700 -0.996800
vn 0.039700 -0.079200 -0.996100
vn -0.082100 -0.026700 -0.996200
vn -0.067400 -0.218100 -0.973600
vn -0.234900 -0.216200 -0.947700
vn 0.056100 -0.199200 -0.978300
vn -0.393500 -0.177000 -0.902100
vn -0.499600 -0.129000 -0.856600
vn -0.374900 0.008000 -0.927000
vn -0.515000 -0.043500 -0.856100
vn -0.212700 0.011000 -0.977000
vn -0.219000 -0.042100 -0.974800
vn -0.448600 -0.053700 -0.892100
vn -0.544600 -0.066200 -0.836000
vn -0.050100 -0.032900 -0.998200
vn 0.090100 -0.119800 -0.988700
vn 0.119200 -0.149900 -0.981500
vn 0.014500 -0.112200 -0.993600
vn -0.879900 -0.256700 0.399700
vn -0.685000 -0.620500 0.381700
vn -0.922300 -0.109200 0.370600
vn -0.544600 -0.066200 -0.836000
vn 0.119000 -0.992900 0.005100
vn 0.612900 -0.784100 0.097300
vn -0.146300 -0.984300 -0.099000
vn 0.119200 -0.149900 -0.981500
vn 0.956900 0.290300 0.008300
vn 0.818500 0.568200 -0.084200
vn 0.996200 0.083400 0.025400
vn 0.209100 -0.233000 -0.949700
vn -0.423200 0.896400 -0.131800
vn -0.620300 0.749400 0.231600
vn 0.021100 0.904800 -0.425200
vn -0.630600 -0.127000 -0.765600
vn -0.769100 0.509000 0.386500
vn -0.846000 0.316800 0.428900
vn -0.338400 -0.935100 0.105300
vn 0.877800 -0.478700 0.014600
vn 0.938200 -0.344100 -0.037000
vn 0.530400 0.776100 -0.341100
vn 0.998000 -0.062900 0.008500
vn 0.989200 -0.145800 -0.016600
vn -0.889500 0.175200 0.422000
vn -0.911800 0.093800 0.399800
vn -0.927200 0.013000 0.374400
vn 0.973000 -0.227000 -0.041700
vt 0.839504 0.118056
vt 0.856743 0.205307
vt 0.741230 0.205307
vt 0.734555 0.106726
vt 0.724541 0.032791
vt 0.813647 0.052618
vt 0.868992 0.081539
vt 0.913398 0.129584
vt 0.940923 0.205307
vt 0.839504 0.292557
vt 0.813647 0.357995
vt 0.724541 0.377822
vt 0.734555 0.303887
vt 0.913398 0.281029
vt 0.868992 0.329074
vt 0.369475 0.299954
vt 0.368286 0.370940
vt 0.245840 0.351447
vt 0.246397 0.288815
vt 0.246768 0.205307
vt 0.370268 0.205307
vt 0.494283 0.205307
vt 0.492822 0.304944
vt 0.490632 0.379672
vt 0.369475 0.110659
vt 0.246397 0.121798
vt 0.245841 0.059166
vt 0.368286 0.039673
vt 0.490632 0.030941
vt 0.492822 0.105669
vt 0.616755 0.103478
vt 0.619174 0.205307
vt 0.613127 0.027106
vt 0.616755 0.307135
vt 0.613126 0.383507
vt 0.123273 0.268175
vt 0.123047 0.315326
vt 0.054743 0.283353
vt 0.030912 0.249131
vt 0.030973 0.205306
vt 0.123423 0.205306
vt 0.123273 0.142438
vt 0.030912 0.161481
vt 0.054744 0.127260
vt 0.123047 0.095287
vt 0.839504 0.118056
vt 0.856743 0.205307
vt 0.968983 0.205307
vt 0.938030 0.133427
vt 0.876123 0.061548
vt 0.805028 0.030806
vt 0.721203 0.008146
vt 0.734555 0.106726
vt 0.741230 0.205307
vt 0.839504 0.292557
vt 0.805028 0.379807
vt 0.876123 0.349065
vt 0.938030 0.277186
vt 0.734555 0.303887
vt 0.721203 0.402467
vt 0.369475 0.299954
vt 0.367890 0.394602
vt 0.489902 0.404581
vt 0.492822 0.304944
vt 0.494283 0.205307
vt 0.370268 0.205307
vt 0.246768 0.205307
vt 0.246397 0.288815
vt 0.245655 0.372324
vt 0.369475 0.110659
vt 0.492822 0.105669
vt 0.489902 0.006032
vt 0.367890 0.016011
vt 0.245655 0.038289
vt 0.246397 0.121798
vt 0.616755 0.103478
vt 0.619174 0.205307
vt 0.611917 0.001649
vt 0.616755 0.307135
vt 0.611917 0.408964
vt 0.123273 0.268175
vt 0.122972 0.331043
vt 0.123423 0.205306
vt 0.000156 0.205306
vt 0.000125 0.242784
vt 0.000064 0.280261
vt 0.123273 0.142438
vt 0.122972 0.079570
vt 0.000064 0.130352
vt 0.000125 0.167829
vt 0.122972 0.331043
vt 0.030806 0.283587
vt 0.245655 0.372324
vt 0.030806 0.283587
vt 0.000125 0.167829
vt 0.030806 0.127026
vt 0.000156 0.205306
vt 0.030806 0.127026
vt 0.805028 0.030806
vt 0.873826 0.071832
vt 0.721203 0.008146
vt 0.873826 0.071832
vt 0.938030 0.277186
vt 0.873826 0.338781
vt 0.968983 0.205307
vt 0.873826 0.338781
vt 0.805028 0.379807
vt 0.721203 0.402467
vt 0.000125 0.242784
vt 0.122972 0.079570
vt 0.245655 0.038289
vt 0.938030 0.133427
vt 0.611917 0.001649
vt 0.489902 0.006032
vt 0.611917 0.408964
vt 0.489902 0.404581
vt 0.367890 0.394602
vt 0.367890 0.016011
f 1/1/1 2/2/2 3/3/3
f 1/1/1 3/3/3 4/4/4
f 1/1/1 4/4/4 5/5/5
f 1/1/1 5/5/5 6/6/6
f 1/1/1 6/6/6 7/7/7
f 1/1/1 7/7/7 8/8/8
f 1/1/1 8/8/8 9/9/9
f 1/1/1 9/9/9 2/2/2
f 10/10/10 11/11/11 12/12/12
f 10/10/10 12/12/12 13/13/13
f 10/10/10 13/13/13 3/3/3
f 10/10/10 3/3/3 2/2/2
f 10/10/10 2/2/2 9/9/9
f 10/10/10 9/9/9 14/14/14
f 10/10/10 14/14/14 15/15/15
f 10/10/10 15/15/15 11/11/11
f 16/16/16 17/17/17 18/18/18
f 16/16/16 18/18/18 19/19/19
f 16/16/16 19/19/19 20/20/20
f 16/16/16 20/20/20 21/21/21
f 16/16/16 21/21/21 22/22/22
f 16/16/16 22/22/22 23/23/23
f 16/16/16 23/23/23 24/24/24
f 16/16/16 24/24/24 17/17/17
f 25/25/25 21/21/21 20/20/20
f 25/25/25 20/20/20 26/26/26
f 25/25/25 26/26/26 27/27/27
f 25/25/25 27/27/27 28/28/28
f 25/25/25 28/28/28 29/29/29
f 25/25/25 29/29/29 30/30/30
f 25/25/25 30/30/30 22/22/22
f 25/25/25 22/22/22 21/21/21
f 31/31/31 32/32/32 22/22/22
f 31/31/31 22/22/22 30/30/30
f 31/31/31 30/30/30 29/29/29
f 31/31/31 29/29/29 33/33/33
f 31/31/31 33/33/33 5/5/5
f 31/31/31 5/5/5 4/4/4
f 31/31/31 4/4/4 3/3/3
f 31/31/31 3/3/3 32/32/32
f 34/34/34 35/35/35 24/24/24
f 34/34/34 24/24/24 23/23/23
f 34/34/34 23/23/23 22/22/22
f 34/34/34 22/22/22 32/32/32
f 34/34/34 32/32/32 3/3/3
f 34/34/34 3/3/3 13/13/13
f 34/34/34 13/13/13 12/12/12
f 34/34/34 12/12/12 35/35/35
f 36/36/36 37/37/37 38/38/38
f 36/36/36 38/38/38 39/39/39
f 36/36/36 39/39/39 40/40/40
f 36/36/36 40/40/40 41/41/41
f 36/36/36 41/41/41 20/20/20
f 36/36/36 20/20/20 19/19/19
f 36/36/36 19/19/19 18/18/18
f 36/36/36 18/18/18 37/37/37
f 42/42/42 41/41/41 40/40/40
f 42/42/42 40/40/40 43/43/43
f 42/42/42 43/43/43 44/44/44
f 42/42/42 44/44/44 45/45/45
f 42/42/42 45/45/45 27/27/27
f 42/42/42 27/27/27 26/26/26
f 42/42/42 26/26/26 20/20/20
f 42/42/42 20/20/20 41/41/41
f 46/46/46 47/47/47 48/48/48
f 46/46/46 48/48/48 49/49/49
f 46/46/46 49/49/49 50/50/50
f 46/46/46 50/50/50 51/51/51
f 46/46/46 51/51/51 52/52/52
f 46/46/46 52/52/52 53/53/53
f 46/46/46 53/53/53 54/54/54
f 46/46/46 54/54/54 47/47/47
f 55/55/55 56/56/56 57/57/57
f 55/55/55 57/57/57 58/58/58
f 55/55/55 58/58/58 48/48/48
f 55/55/55 48/48/48 47/47/47
f 55/55/55 47/47/47 54/54/54
f 55/55/55 54/54/54 59/59/59
f 55/55/55 59/59/59 60/60/60
f 55/55/55 60/60/60 56/56/56
f 61/61/61 62/62/62 63/63/63
f 61/61/61 63/63/63 64/64/64
f 61/61/61 64/64/64 65/65/65
f 61/61/61 65/65/65 66/66/66
f 61/61/61 66/66/66 67/67/67
f 61/61/61 67/67/67 68/68/68
f 61/61/61 68/68/68 69/69/69
f 61/61/61 69/69/69 62/62/62
f 70/70/70 66/66/66 65/65/65
f 70/70/70 65/65/65 71/71/71
f 70/70/70 71/71/71 72/72/72
f 70/70/70 72/72/72 73/73/73
f 70/70/70 73/73/73 74/74/74
f 70/70/70 74/74/74 75/75/75
f 70/70/70 75/75/75 67/67/67
f 70/70/70 67/67/67 66/66/66
f 76/76/76 77/77/77 54/54/54
f 76/76/76 54/54/54 53/53/53
f 76/76/76 53/53/53 52/52/52
f 76/76/76 52/52/52 78/78/78
f 76/76/76 78/78/78 72/72/72
f 76/76/76 72/72/72 71/71/71
f 76/76/76 71/71/71 65/65/65
f 76/76/76 65/65/65 77/77/77
f 79/79/79 80/80/80 60/60/60
f 79/79/79 60/60/60 59/59/59
f 79/79/79 59/59/59 54/54/54
f 79/79/79 54/54/54 77/77/77
f 79/79/79 77/77/77 65/65/65
f 79/79/79 65/65/65 64/64/64
f 79/79/79 64/64/64 63/63/63
f 79/79/79 63/63/63 80/80/80
f 81/81/81 82/82/82 69/69/69
f 81/81/81 69/69/69 68/68/68
f 81/81/81 68/68/68 67/67/67
f 81/81/81 67/67/67 83/83/83
f 81/81/81 83/83/83 84/84/84
f 81/81/81 84/84/84 85/85/85
f 81/81/81 85/85/85 86/86/86
f 81/81/81 86/86/86 82/82/82
f 87/87/87 83/83/83 67/67/67
f 87/87/87 67/67/67 75/75/75
f 87/87/87 75/75/75 74/74/74
f 87/87/87 74/74/74 88/88/88
f 87/87/87 88/88/88 89/89/89
f 87/87/87 89/89/89 90/90/90
f 87/87/87 90/90/90 84/84/84
f 87/87/87 84/84/84 83/83/83
f 91/91/91 92/92/92 38/38/38
f 91/91/91 38/38/38 37/37/37
f 91/91/91 37/37/37 18/18/18
f 91/91/91 18/18/18 93/93/93
f 91/91/91 93/93/93 69/69/69
f 91/91/91 69/69/69 82/82/82
f 91/91/91 82/82/82 94/94/94
f 91/91/91 94/94/94 92/92/92
f 95/95/95 96/96/96 44/44/44
f 95/95/95 44/44/44 43/43/43
f 95/95/95 43/43/43 40/40/40
f 95/95/95 40/40/40 97/97/97
f 95/95/95 97/97/97 84/84/84
f 95/95/95 84/84/84 90/90/90
f 95/95/95 90/90/90 98/98/98
f 95/95/95 98/98/98 96/96/96
f 99/99/99 100/100/100 7/7/7
f 99/99/99 7/7/7 6/6/6
f 99/99/99 6/6/6 5/5/5
f 99/99/99 5/5/5 101/101/101
f 99/99/99 101/101/101 52/52/52
f 99/99/99 52/52/52 51/51/51
f 99/99/99 51/51/51 102/102/102
f 99/99/99 102/102/102 100/100/100
f 103/103/103 104/104/104 15/15/15
f 103/103/103 15/15/15 14/14/14
f 103/103/103 14/14/14 9/9/9
f 103/103/103 9/9/9 105/105/105
f 103/103/103 105/105/105 48/48/48
f 103/103/103 48/48/48 58/58/58
f 103/103/103 58/58/58 106/106/106
f 103/103/103 106/106/106 104/104/104
f 107/107/107 108/108/108 12/12/12
f 107/107/107 12/12/12 11/11/11
f 107/107/107 11/11/11 15/15/15
f 107/107/107 15/15/15 104/104/104
f 107/107/107 104/104/104 106/106/106
f 107/107/107 106/106/106 56/56/56
f 107/107/107 56/56/56 60/60/60
f 107/107/107 60/60/60 108/108/108
f 109/109/109 97/97/97 40/40/40
f 109/109/109 40/40/40 39/39/39
f 109/109/109 39/39/39 38/38/38
f 109/109/109 38/38/38 92/92/92
f 109/109/109 92/92/92 94/94/94
f 109/109/109 94/94/94 85/85/85
f 109/109/109 85/85/85 84/84/84
f 109/109/109 84/84/84 97/97/97
f 110/110/110 111/111/111 27/27/27
f 110/110/110 27/27/27 45/45/45
f 110/110/110 45/45/45 44/44/44
f 110/110/110 44/44/44 96/96/96
f 110/110/110 96/96/96 98/98/98
f 110/110/110 98/98/98 88/88/88
f 110/110/110 88/88/88 74/74/74
f 110/110/110 74/74/74 111/111/111
f 112/112/112 105/105/105 9/9/9
f 112/112/112 9/9/9 8/8/8
f 112/112/112 8/8/8 7/7/7
f 112/112/112 7/7/7 100/100/100
f 112/112/112 100/100/100 102/102/102
f 112/112/112 102/102/102 49/49/49
f 112/112/112 49/49/49 48/48/48
f 112/112/112 48/48/48 105/105/105
f 113/113/113 101/101/101 5/5/5
f 113/113/113 5/5/5 33/33/33
f 113/113/113 33/33/33 29/29/29
f 113/113/113 29/29/29 114/114/114
f 113/113/113 114/114/114 72/72/72
f 113/113/113 72/72/72 78/78/78
f 113/113/113 78/78/78 52/52/52
f 113/113/113 52/52/52 101/101/101
f 115/115/115 116/116/116 24/24/24
f 115/115/115 24/24/24 35/35/35
f 115/115/115 35/35/35 12/12/12
f 115/115/115 12/12/12 108/108/108
f 115/115/115 108/108/108 60/60/60
f 115/115/115 60/60/60 80/80/80
f 115/115/115 80/80/80 63/63/63
f 115/115/115 63/63/63 116/116/116
f 117/117/117 93/93/93 18/18/18
f 117/117/117 18/18/18 17/17/17
f 117/117/117 17/17/17 24/24/24
f 117/117/117 24/24/24 116/116/116
f 117/117/117 116/116/116 63/63/63
f 117/117/117 63/63/63 62/62/62
f 117/117/117 62/62/62 69/69/69
f 117/117/117 69/69/69 93/93/93
f 118/118/118 114/114/114 29/29/29
f 118/118/118 29/29/29 28/28/28
f 118/118/118 28/28/28 27/27/27
f 118/118/118 27/27/27 111/111/111
f 118/118/118 111/111/111 74/74/74
f 118/118/118 74/74/74 73/73/73
f 118/118/118 73/73/73 72/72/72
f 118/118/118 72/72/72 114/114/114
