v -2.385100 0.702294 -1.211880
v -2.386263 0.702699 -1.211013
v -2.385039 0.701840 -1.209678
v -2.383874 0.701438 -1.210813
v -2.382864 0.701217 -1.211598
v -2.384003 0.702019 -1.212373
v -2.384959 0.702469 -1.212668
v -2.386044 0.702850 -1.212600
v -2.387198 0.703270 -1.211995
v -2.386808 0.703228 -1.209712
v -2.386998 0.703658 -1.208571
v -2.386266 0.703079 -1.207278
v -2.385815 0.702500 -1.208349
v -2.387522 0.703659 -1.210723
v -2.387385 0.703797 -1.209588
v -2.382607 0.698910 -1.204319
v -2.383205 0.699405 -1.203364
v -2.382159 0.697837 -1.202306
v -2.381636 0.697394 -1.203154
v -2.380878 0.696861 -1.204255
v -2.381742 0.698312 -1.205561
v -2.382704 0.699656 -1.206898
v -2.383599 0.700293 -1.205597
v -2.384210 0.700828 -1.204593
v -2.380705 0.697870 -1.206734
v -2.379955 0.696474 -1.205289
v -2.379212 0.696225 -1.206047
v -2.379874 0.697582 -1.207595
v -2.380725 0.698920 -1.209018
v -2.381610 0.699204 -1.208122
v -2.382689 0.700401 -1.209521
v -2.383828 0.700828 -1.208288
v -2.381747 0.700158 -1.210416
v -2.384707 0.701506 -1.206959
v -2.385284 0.702094 -1.205925
v -2.380595 0.695781 -1.202128
v -2.380960 0.696134 -1.201483
v -2.380225 0.695074 -1.201197
v -2.379803 0.694522 -1.201414
v -2.379454 0.694215 -1.201993
v -2.380049 0.695366 -1.202958
v -2.379340 0.695094 -1.203721
v -2.378943 0.694051 -1.202506
v -2.378678 0.694227 -1.203161
v -2.378760 0.694929 -1.204277
v -2.385174 0.702158 -1.211909
v -2.386351 0.702569 -1.211026
v -2.387262 0.703172 -1.212003
v -2.386096 0.702747 -1.212620
v -2.384996 0.702392 -1.212687
v -2.384052 0.701915 -1.212403
v -2.382917 0.701116 -1.211629
v -2.383954 0.701306 -1.210845
v -2.385130 0.701712 -1.209695
v -2.386907 0.703106 -1.209708
v -2.387078 0.703571 -1.208560
v -2.387442 0.703731 -1.209582
v -2.387595 0.703567 -1.210718
v -2.385917 0.702380 -1.208351
v -2.386348 0.702993 -1.207273
v -2.382721 0.698804 -1.204345
v -2.383295 0.699328 -1.203378
v -2.384297 0.700747 -1.204602
v -2.383710 0.700182 -1.205616
v -2.382807 0.699539 -1.206928
v -2.381849 0.698201 -1.205597
v -2.380988 0.696754 -1.204295
v -2.381754 0.697292 -1.203184
v -2.382251 0.697764 -1.202322
v -2.380803 0.697755 -1.206780
v -2.381703 0.699084 -1.208164
v -2.380790 0.698828 -1.209055
v -2.379943 0.697494 -1.207635
v -2.379283 0.696139 -1.206090
v -2.380056 0.696363 -1.205340
v -2.382775 0.700274 -1.209557
v -2.383924 0.700706 -1.208312
v -2.381806 0.700061 -1.210449
v -2.384813 0.701390 -1.206969
v -2.385368 0.702010 -1.205927
v -2.380714 0.695681 -1.202158
v -2.381054 0.696062 -1.201500
v -2.380160 0.695261 -1.202999
v -2.379537 0.694137 -1.202025
v -2.379893 0.694447 -1.201437
v -2.380294 0.695020 -1.201211
v -2.379442 0.694984 -1.203774
v -2.378831 0.694845 -1.204322
v -2.378732 0.694165 -1.203193
v -2.379019 0.693969 -1.202546
v -2.381124 0.696220 -1.201275
v -2.380068 0.694779 -1.200942
v -2.382375 0.697953 -1.202029
v -2.380294 0.695020 -1.201211
v -2.378844 0.693667 -1.202119
v -2.378518 0.693930 -1.202910
v -2.379293 0.693797 -1.201686
v -2.378732 0.694165 -1.203193
v -2.383658 0.701880 -1.212553
v -2.384897 0.702478 -1.212849
v -2.382550 0.701098 -1.211874
v -2.384996 0.702392 -1.212687
v -2.387792 0.703762 -1.211057
v -2.387520 0.703914 -1.209518
v -2.387537 0.703417 -1.212326
v -2.387442 0.703731 -1.209582
v -2.387099 0.703763 -1.208184
v -2.386454 0.703235 -1.206918
v -2.379579 0.694069 -1.201186
v -2.378597 0.694837 -1.204484
v -2.378995 0.696103 -1.206320
v -2.386381 0.702989 -1.212848
v -2.381458 0.700034 -1.210730
v -2.380458 0.698784 -1.209334
v -2.385514 0.702254 -1.205580
v -2.384454 0.700971 -1.204261
v -2.383446 0.699537 -1.203051
v -2.379626 0.697446 -1.207901
vn 0.394800 0.892700 0.217100
vn 0.521300 0.852300 0.043200
vn 0.557400 0.826000 0.083000
vn 0.446400 0.862000 0.240200
vn 0.467200 0.848000 0.249900
vn 0.400600 0.891400 0.211800
vn 0.352000 0.917900 0.183100
vn 0.363400 0.923000 0.126300
vn 0.461100 0.887100 -0.019200
vn 0.648700 0.753700 -0.105100
vn 0.644900 0.757800 -0.098800
vn 0.683100 0.729900 -0.024200
vn 0.673300 0.737800 -0.047900
vn 0.570800 0.809500 -0.137100
vn 0.614700 0.774200 -0.150700
vn 0.746900 0.644200 0.164600
vn 0.731200 0.652700 0.198100
vn 0.742900 0.632100 0.220300
vn 0.764800 0.618900 0.178900
vn 0.705300 0.653900 0.273700
vn 0.687700 0.682500 0.247400
vn 0.648500 0.736200 0.193400
vn 0.719000 0.686800 0.106300
vn 0.713200 0.687100 0.138200
vn 0.619600 0.713900 0.326300
vn 0.628200 0.693600 0.352500
vn 0.662300 0.676200 0.322600
vn 0.647200 0.698700 0.304900
vn 0.602300 0.747900 0.279200
vn 0.576000 0.765100 0.287800
vn 0.511100 0.820700 0.255400
vn 0.599800 0.789100 0.132200
vn 0.536400 0.802700 0.260600
vn 0.691300 0.722000 0.026600
vn 0.697000 0.714800 0.056600
vn 0.783200 0.598700 0.167600
vn 0.762300 0.610500 0.214900
vn 0.784900 0.586200 0.200500
vn 0.814800 0.549500 0.184600
vn 0.733800 0.599500 0.319500
vn 0.713200 0.640000 0.285800
vn 0.616600 0.689900 0.379300
vn 0.622800 0.654600 0.428500
vn 0.640900 0.665100 0.383400
vn 0.655400 0.669000 0.350500
vn -0.389600 -0.885600 -0.252700
vn -0.531400 -0.845400 -0.054100
vn -0.569200 -0.816500 -0.096400
vn -0.368300 -0.859000 -0.355600
vn -0.294900 -0.842100 -0.451600
vn -0.308300 -0.848900 -0.429300
vn -0.362400 -0.849500 -0.383400
vn -0.436800 -0.863500 -0.252100
vn -0.557400 -0.826100 -0.082900
vn -0.675400 -0.729100 0.110000
vn -0.789700 -0.585700 0.182300
vn -0.802500 -0.564500 0.193100
vn -0.748200 -0.651200 0.126800
vn -0.681200 -0.729700 0.058200
vn -0.767200 -0.627900 0.130600
vn -0.754500 -0.638500 -0.151200
vn -0.801200 -0.595500 -0.057800
vn -0.781700 -0.623400 -0.015300
vn -0.726300 -0.680800 -0.094500
vn -0.648600 -0.736100 -0.193500
vn -0.687800 -0.682400 -0.247500
vn -0.705400 -0.653800 -0.273700
vn -0.772800 -0.613600 -0.162200
vn -0.812200 -0.582000 -0.039700
vn -0.608300 -0.718600 -0.337100
vn -0.565800 -0.768700 -0.298300
vn -0.492600 -0.781600 -0.382500
vn -0.525300 -0.746500 -0.408400
vn -0.507600 -0.748700 -0.426200
vn -0.614100 -0.700400 -0.363700
vn -0.501300 -0.823400 -0.265900
vn -0.599800 -0.789100 -0.132200
vn -0.430200 -0.824000 -0.368700
vn -0.698400 -0.715400 -0.015700
vn -0.766100 -0.640100 0.057800
vn -0.787200 -0.601600 -0.135600
vn -0.816200 -0.577100 0.025300
vn -0.708500 -0.648400 -0.278500
vn -0.686500 -0.684400 -0.245600
vn -0.787700 -0.615100 -0.034200
vn -0.814000 -0.576900 0.067700
vn -0.590800 -0.709100 -0.384800
vn -0.450500 -0.777200 -0.439200
vn -0.412800 -0.796400 -0.442000
vn -0.507500 -0.768500 -0.389500
vn -0.240600 0.170500 0.955500
vn 0.050500 -0.119900 0.991500
vn -0.355000 0.259900 0.898000
vn -0.814000 -0.576900 0.067700
vn 0.549400 -0.719000 0.425600
vn 0.835400 -0.549600 -0.004500
vn 0.307200 -0.761100 0.571200
vn -0.412800 -0.796400 -0.442000
vn 0.510500 0.129000 -0.850100
vn 0.234700 0.276800 -0.931800
vn 0.643500 -0.010900 -0.765400
vn -0.294900 -0.842100 -0.451600
vn -0.780800 0.588900 -0.208300
vn -0.636000 0.752100 0.172800
vn -0.654900 0.353300 -0.668000
vn -0.802500 -0.564500 0.193100
vn -0.533600 0.699800 0.474800
vn -0.470400 0.598800 0.648200
vn 0.272100 -0.567300 0.777200
vn 0.822000 -0.410800 -0.394200
vn 0.769800 -0.355700 -0.529900
vn -0.204300 0.273900 -0.939800
vn 0.703900 -0.128100 -0.698600
vn 0.722500 -0.204200 -0.660500
vn -0.437100 0.496800 0.749700
vn -0.426400 0.424600 0.798600
vn -0.413200 0.350300 0.840500
vn 0.735200 -0.278100 -0.618100
vt 0.839504 0.118056
vt 0.856743 0.205307
vt 0.741230 0.205307
vt 0.734555 0.106726
vt 0.724541 0.032791
vt 0.813647 0.052618
vt 0.868992 0.081539
vt 0.913398 0.129584
vt 0.940923 0.205307
vt 0.839504 0.292557
vt 0.813647 0.357995
vt 0.724541 0.377822
vt 0.734555 0.303887
vt 0.913398 0.281029
vt 0.868992 0.329074
vt 0.369475 0.299954
vt 0.368286 0.370940
vt 0.245840 0.351447
vt 0.246397 0.288815
vt 0.246768 0.205307
vt 0.370268 0.205307
vt 0.494283 0.205307
vt 0.492822 0.304944
vt 0.490632 0.379672
vt 0.369475 0.110659
vt 0.246397 0.121798
vt 0.245841 0.059166
vt 0.368286 0.039673
vt 0.490632 0.030941
vt 0.492822 0.105669
vt 0.616755 0.103478
vt 0.619174 0.205307
vt 0.613127 0.027106
vt 0.616755 0.307135
vt 0.613126 0.383507
vt 0.123273 0.268175
vt 0.123047 0.315326
vt 0.054743 0.283353
vt 0.030912 0.249131
vt 0.030973 0.205306
vt 0.123423 0.205306
vt 0.123273 0.142438
vt 0.030912 0.161481
vt 0.054744 0.127260
vt 0.123047 0.095287
vt 0.839504 0.118056
vt 0.856743 0.205307
vt 0.968983 0.205307
vt 0.938030 0.133427
vt 0.876123 0.061548
vt 0.805028 0.030806
vt 0.721203 0.008146
vt 0.734555 0.106726
vt 0.741230 0.205307
vt 0.839504 0.292557
vt 0.805028 0.379807
vt 0.876123 0.349065
vt 0.938030 0.277186
vt 0.734555 0.303887
vt 0.721203 0.402467
vt 0.369475 0.299954
vt 0.367890 0.394602
vt 0.489902 0.404581
vt 0.492822 0.304944
vt 0.494283 0.205307
vt 0.370268 0.205307
vt 0.246768 0.205307
vt 0.246397 0.288815
vt 0.245655 0.372324
vt 0.369475 0.110659
vt 0.492822 0.105669
vt 0.489902 0.006032
vt 0.367890 0.016011
vt 0.245655 0.038289
vt 0.246397 0.121798
vt 0.616755 0.103478
vt 0.619174 0.205307
vt 0.611917 0.001649
vt 0.616755 0.307135
vt 0.611917 0.408964
vt 0.123273 0.268175
vt 0.122972 0.331043
vt 0.123423 0.205306
vt 0.000156 0.205306
vt 0.000125 0.242784
vt 0.000064 0.280261
vt 0.123273 0.142438
vt 0.122972 0.079570
vt 0.000064 0.130352
vt 0.000125 0.167829
vt 0.122972 0.331043
vt 0.030806 0.283587
vt 0.245655 0.372324
vt 0.030806 0.283587
vt 0.000125 0.167829
vt 0.030806 0.127026
vt 0.000156 0.205306
vt 0.030806 0.127026
vt 0.805028 0.030806
vt 0.873826 0.071832
vt 0.721203 0.008146
vt 0.873826 0.071832
vt 0.938030 0.277186
vt 0.873826 0.338781
vt 0.968983 0.205307
vt 0.873826 0.338781
vt 0.805028 0.379807
vt 0.721203 0.402467
vt 0.000125 0.242784
vt 0.122972 0.079570
vt 0.245655 0.038289
vt 0.938030 0.133427
vt 0.611917 0.001649
vt 0.489902 0.006032
vt 0.611917 0.408964
vt 0.489902 0.404581
vt 0.367890 0.394602
vt 0.367890 0.016011
f 1/1/1 2/2/2 3/3/3
f 1/1/1 3/3/3 4/4/4
f 1/1/1 4/4/4 5/5/5
f 1/1/1 5/5/5 6/6/6
f 1/1/1 6/6/6 7/7/7
f 1/1/1 7/7/7 8/8/8
f 1/1/1 8/8/8 9/9/9
f 1/1/1 9/9/9 2/2/2
f 10/10/10 11/11/11 12/12/12
f 10/10/10 12/12/12 13/13/13
f 10/10/10 13/13/13 3/3/3
f 10/10/10 3/3/3 2/2/2
f 10/10/10 2/2/2 9/9/9
f 10/10/10 9/9/9 14/14/14
f 10/10/10 14/14/14 15/15/15
f 10/10/10 15/15/15 11/11/11
f 16/16/16 17/17/17 18/18/18
f 16/16/16 18/18/18 19/19/19
f 16/16/16 19/19/19 20/20/20
f 16/16/16 20/20/20 21/21/21
f 16/16/16 21/21/21 22/22/22
f 16/16/16 22/22/22 23/23/23
f 16/16/16 23/23/23 24/24/24
f 16/16/16 24/24/24 17/17/17
f 25/25/25 21/21/21 20/20/20
f 25/25/25 20/20/20 26/26/26
f 25/25/25 26/26/26 27/27/27
f 25/25/25 27/27/27 28/28/28
f 25/25/25 28/28/28 29/29/29
f 25/25/25 29/29/29 30/30/30
f 25/25/25 30/30/30 22/22/22
f 25/25/25 22/22/22 21/21/21
f 31/31/31 32/32/32 22/22/22
f 31/31/31 22/22/22 30/30/30
f 31/31/31 30/30/30 29/29/29
f 31/31/31 29/29/29 33/33/33
f 31/31/31 33/33/33 5/5/5
f 31/31/31 5/5/5 4/4/4
f 31/31/31 4/4/4 3/3/3
f 31/31/31 3/3/3 32/32/32
f 34/34/34 35/35/35 24/24/24
f 34/34/34 24/24/24 23/23/23
f 34/34/34 23/23/23 22/22/22
f 34/34/34 22/22/22 32/32/32
f 34/34/34 32/32/32 3/3/3
f 34/34/34 3/3/3 13/13/13
f 34/34/34 13/13/13 12/12/12
f 34/34/34 12/12/12 35/35/35
f 36/36/36 37/37/37 38/38/38
f 36/36/36 38/38/38 39/39/39
f 36/36/36 39/39/39 40/40/40
f 36/36/36 40/40/40 41/41/41
f 36/36/36 41/41/41 20/20/20
f 36/36/36 20/20/20 19/19/19
f 36/36/36 19/19/19 18/18/18
f 36/36/36 18/18/18 37/37/37
f 42/42/42 41/41/41 40/40/40
f 42/42/42 40/40/40 43/43/43
f 42/42/42 43/43/43 44/44/44
f 42/42/42 44/44/44 45/45/45
f 42/42/42 45/45/45 27/27/27
f 42/42/42 27/27/27 26/26/26
f 42/42/42 26/26/26 20/20/20
f 42/42/42 20/20/20 41/41/41
f 46/46/46 47/47/47 48/48/48
f 46/46/46 48/48/48 49/49/49
f 46/46/46 49/49/49 50/50/50
f 46/46/46 50/50/50 51/51/51
f 46/46/46 51/51/51 52/52/52
f 46/46/46 52/52/52 53/53/53
f 46/46/46 53/53/53 54/54/54
f 46/46/46 54/54/54 47/47/47
f 55/55/55 56/56/56 57/57/57
f 55/55/55 57/57/57 58/58/58
f 55/55/55 58/58/58 48/48/48
f 55/55/55 48/48/48 47/47/47
f 55/55/55 47/47/47 54/54/54
f 55/55/55 54/54/54 59/59/59
f 55/55/55 59/59/59 60/60/60
f 55/55/55 60/60/60 56/56/56
f 61/61/61 62/62/62 63/63/63
f 61/61/61 63/63/63 64/64/64
f 61/61/61 64/64/64 65/65/65
f 61/61/61 65/65/65 66/66/66
f 61/61/61 66/66/66 67/67/67
f 61/61/61 67/67/67 68/68/68
f 61/61/61 68/68/68 69/69/69
f 61/61/61 69/69/69 62/62/62
f 70/70/70 66/66/66 65/65/65
f 70/70/70 65/65/65 71/71/71
f 70/70/70 71/71/71 72/72/72
f 70/70/70 72/72/72 73/73/73
f 70/70/70 73/73/73 74/74/74
f 70/70/70 74/74/74 75/75/75
f 70/70/70 75/75/75 67/67/67
f 70/70/70 67/67/67 66/66/66
f 76/76/76 77/77/77 54/54/54
f 76/76/76 54/54/54 53/53/53
f 76/76/76 53/53/53 52/52/52
f 76/76/76 52/52/52 78/78/78
f 76/76/76 78/78/78 72/72/72
f 76/76/76 72/72/72 71/71/71
f 76/76/76 71/71/71 65/65/65
f 76/76/76 65/65/65 77/77/77
f 79/79/79 80/80/80 60/60/60
f 79/79/79 60/60/60 59/59/59
f 79/79/79 59/59/59 54/54/54
f 79/79/79 54/54/54 77/77/77
f 79/79/79 77/77/77 65/65/65
f 79/79/79 65/65/65 64/64/64
f 79/79/79 64/64/64 63/63/63
f 79/79/79 63/63/63 80/80/80
f 81/81/81 82/82/82 69/69/69
f 81/81/81 69/69/69 68/68/68
f 81/81/81 68/68/68 67/67/67
f 81/81/81 67/67/67 83/83/83
f 81/81/81 83/83/83 84/84/84
f 81/81/81 84/84/84 85/85/85
f 81/81/81 85/85/85 86/86/86
f 81/81/81 86/86/86 82/82/82
f 87/87/87 83/83/83 67/67/67
f 87/87/87 67/67/67 75/75/75
f 87/87/87 75/75/75 74/74/74
f 87/87/87 74/74/74 88/88/88
f 87/87/87 88/88/88 89/89/89
f 87/87/87 89/89/89 90/90/90
f 87/87/87 90/90/90 84/84/84
f 87/87/87 84/84/84 83/83/83
f 91/91/91 92/92/92 38/38/38
f 91/91/91 38/38/38 37/37/37
f 91/91/91 37/37/37 18/18/18
f 91/91/91 18/18/18 93/93/93
f 91/91/91 93/93/93 69/69/69
f 91/91/91 69/69/69 82/82/82
f 91/91/91 82/82/82 94/94/94
f 91/91/91 94/94/94 92/92/92
f 95/95/95 96/96/96 44/44/44
f 95/95/95 44/44/44 43/43/43
f 95/95/95 43/43/43 40/40/40
f 95/95/95 40/40/40 97/97/97
f 95/95/95 97/97/97 84/84/84
f 95/95/95 84/84/84 90/90/90
f 95/95/95 90/90/90 98/98/98
f 95/95/95 98/98/98 96/96/96
f 99/99/99 100/100/100 7/7/7
f 99/99/99 7/7/7 6/6/6
f 99/99/99 6/6/6 5/5/5
f 99/99/99 5/5/5 101/101/101
f 99/99/99 101/101/101 52/52/52
f 99/99/99 52/52/52 51/51/51
f 99/99/99 51/51/51 102/102/102
f 99/99/99 102/102/102 100/100/100
f 103/103/103 104/104/104 15/15/15
f 103/103/103 15/15/15 14/14/14
f 103/103/103 14/14/14 9/9/9
f 103/103/103 9/9/9 105/105/105
f 103/103/103 105/105/105 48/48/48
f 103/103/103 48/48/48 58/58/58
f 103/103/103 58/58/58 106/106/106
f 103/103/103 106/106/106 104/104/104
f 107/107/107 108/108/108 12/12/12
f 107/107/107 12/12/12 11/11/11
f 107/107/107 11/11/11 15/15/15
f 107/107/107 15/15/15 104/104/104
f 107/107/107 104/104/104 106/106/106
f 107/107/107 106/106/106 56/56/56
f 107/107/107 56/56/56 60/60/60
f 107/107/107 60/60/60 108/108/108
f 109/109/109 97/97/97 40/40/40
f 109/109/109 40/40/40 39/39/39
f 109/109/109 39/39/39 38/38/38
f 109/109/109 38/38/38 92/92/92
f 109/109/109 92/92/92 94/94/94
f 109/109/109 94/94/94 85/85/85
f 109/109/109 85/85/85 84/84/84
f 109/109/109 84/84/84 97/97/97
f 110/110/110 111/111/111 27/27/27
f 110/110/110 27/27/27 45/45/45
f 110/110/110 45/45/45 44/44/44
f 110/110/110 44/44/44 96/96/96
f 110/110/110 96/96/96 98/98/98
f 110/110/110 98/98/98 88/88/88
f 110/110/110 88/88/88 74/74/74
f 110/110/110 74/74/74 111/111/111
f 112/112/112 105/105/105 9/9/9
f 112/112/112 9/9/9 8/8/8
f 112/112/112 8/8/8 7/7/7
f 112/112/112 7/7/7 100/100/100
f 112/112/112 100/100/100 102/102/102
f 112/112/112 102/102/102 49/49/49
f 112/112/112 49/49/49 48/48/48
f 112/112/112 48/48/48 105/105/105
f 113/113/113 101/101/101 5/5/5
f 113/113/113 5/5/5 33/33/33
f 113/113/113 33/33/33 29/29/29
f 113/113/113 29/29/29 114/114/114
f 113/113/113 114/114/114 72/72/72
f 113/113/113 72/72/72 78/78/78
f 113/113/113 78/78/78 52/52/52
f 113/113/113 52/52/52 101/101/101
f 115/115/115 116/116/116 24/24/24
f 115/115/115 24/24/24 35/35/35
f 115/115/115 35/35/35 12/12/12
f 115/115/115 12/12/12 108/108/108
f 115/115/115 108/108/108 60/60/60
f 115/115/115 60/60/60 80/80/80
f 115/115/115 80/80/80 63/63/63
f 115/115/115 63/63/63 116/116/116
f 117/117/117 93/93/93 18/18/18
f 117/117/117 18/18/18 17/17/17
f 117/117/117 17/17/17 24/24/24
f 117/117/117 24/24/24 116/116/116
f 117/117/117 116/116/116 63/63/63
f 117/117/117 63/63/63 62/62/62
f 117/117/117 62/62/62 69/69/69
f 117/117/117 69/69/69 93/93/93
f 118/118/118 114/114/114 29/29/29
f 118/118/118 29/29/29 28/28/28
f 118/118/118 28/28/28 27/27/27
f 118/118/118 27/27/27 111/111/111
f 118/118/118 111/111/111 74/74/74
f 118/118/118 74/74/74 73/73/73
f 118/118/118 73/73/73 72/72/72
f 118/118/118 72/72/72 114/114/114
