v -2.419882 0.738341 -1.083999
v -2.418186 0.739074 -1.082269
v -2.416202 0.738183 -1.084842
v -2.418337 0.737386 -1.086493
v -2.419892 0.736959 -1.087961
v -2.420977 0.737914 -1.085706
v -2.421254 0.738443 -1.083962
v -2.420882 0.738934 -1.082129
v -2.419620 0.739623 -1.080333
v -2.416010 0.740214 -1.081661
v -2.414187 0.741199 -1.081607
v -2.412178 0.740690 -1.083304
v -2.413936 0.739515 -1.083836
v -2.417530 0.740556 -1.080106
v -2.415755 0.741103 -1.080642
v -2.407557 0.735111 -1.090991
v -2.405920 0.736095 -1.090197
v -2.404164 0.733935 -1.092530
v -2.405614 0.733053 -1.093220
v -2.407531 0.731989 -1.094240
v -2.409723 0.733917 -1.092155
v -2.411908 0.735645 -1.089921
v -2.409644 0.736915 -1.088717
v -2.407933 0.737976 -1.087910
v -2.411869 0.733024 -1.093594
v -2.409427 0.731208 -1.095522
v -2.410846 0.730702 -1.096564
v -2.413475 0.732440 -1.094758
v -2.415836 0.734152 -1.092681
v -2.414154 0.734732 -1.091440
v -2.416369 0.736185 -1.089023
v -2.414088 0.737054 -1.087438
v -2.418077 0.735682 -1.090350
v -2.411792 0.738399 -1.086260
v -2.410056 0.739562 -1.085508
v -2.403898 0.730808 -1.095543
v -2.402811 0.731509 -1.095068
v -2.402333 0.729939 -1.096563
v -2.402696 0.729030 -1.097297
v -2.403682 0.728420 -1.097757
v -2.405332 0.729981 -1.096273
v -2.406744 0.729431 -1.097261
v -2.404645 0.728086 -1.098474
v -2.405842 0.728242 -1.098681
v -2.407801 0.729095 -1.098081
v -2.419873 0.738098 -1.083895
v -2.418148 0.738842 -1.082147
v -2.419590 0.739448 -1.080245
v -2.420874 0.738751 -1.082056
v -2.421255 0.738305 -1.083911
v -2.420986 0.737727 -1.085638
v -2.419901 0.736775 -1.087884
v -2.418331 0.737147 -1.086379
v -2.416170 0.737954 -1.084712
v -2.415944 0.739999 -1.081522
v -2.414123 0.741047 -1.081494
v -2.415710 0.740988 -1.080563
v -2.417476 0.740395 -1.080004
v -2.413879 0.739301 -1.083691
v -2.412123 0.740538 -1.083188
v -2.407537 0.734912 -1.090815
v -2.405896 0.735952 -1.090060
v -2.407901 0.737828 -1.087779
v -2.409614 0.736710 -1.088550
v -2.411897 0.735430 -1.089766
v -2.409721 0.733709 -1.091990
v -2.407537 0.731786 -1.094068
v -2.405601 0.732860 -1.093038
v -2.404145 0.733795 -1.092389
v -2.411886 0.732808 -1.093441
v -2.414164 0.734508 -1.091297
v -2.415853 0.733981 -1.092580
v -2.413498 0.732274 -1.094650
v -2.410874 0.730539 -1.096451
v -2.409451 0.730997 -1.095363
v -2.416370 0.735953 -1.088895
v -2.414067 0.736831 -1.087296
v -2.418089 0.735504 -1.090262
v -2.411748 0.738189 -1.086105
v -2.410012 0.739411 -1.085386
v -2.403886 0.730617 -1.095358
v -2.402792 0.731372 -1.094924
v -2.405340 0.729780 -1.096099
v -2.403688 0.728269 -1.097626
v -2.402686 0.728888 -1.097157
v -2.402322 0.729836 -1.096457
v -2.406772 0.729221 -1.097100
v -2.407832 0.728934 -1.097967
v -2.405862 0.728123 -1.098595
v -2.404667 0.727929 -1.098354
v -2.402437 0.731683 -1.094844
v -2.401899 0.729541 -1.096953
v -2.403670 0.734168 -1.092236
v -2.402322 0.729836 -1.096457
v -2.403956 0.727568 -1.098825
v -2.405415 0.727840 -1.099075
v -2.403134 0.727833 -1.098193
v -2.405862 0.728123 -1.098595
v -2.421349 0.737687 -1.086247
v -2.421573 0.738418 -1.084010
v -2.420417 0.736733 -1.088418
v -2.421255 0.738305 -1.083911
v -2.418012 0.740598 -1.079543
v -2.415623 0.741296 -1.080418
v -2.420084 0.739728 -1.079649
v -2.415710 0.740988 -1.080563
v -2.413548 0.741462 -1.081537
v -2.411565 0.741017 -1.083073
v -2.402290 0.728374 -1.097819
v -2.408169 0.728910 -1.098305
v -2.411334 0.730460 -1.096863
v -2.421211 0.739050 -1.081474
v -2.418654 0.735434 -1.090755
v -2.416406 0.733882 -1.093051
v -2.409456 0.739884 -1.085202
v -2.407346 0.738265 -1.087582
v -2.405362 0.736361 -1.089871
v -2.414023 0.732171 -1.095099
vn 0.011000 0.946300 -0.323100
vn -0.176700 0.889900 -0.420500
vn -0.141300 0.873400 -0.465900
vn 0.027700 0.924100 -0.381100
vn 0.035200 0.913700 -0.404700
vn 0.004700 0.944700 -0.328000
vn -0.017600 0.962000 -0.272500
vn -0.075700 0.959000 -0.273000
vn -0.230600 0.909200 -0.346600
vn -0.331500 0.780600 -0.529900
vn -0.325300 0.785000 -0.527200
vn -0.256200 0.772700 -0.580700
vn -0.278400 0.775900 -0.566000
vn -0.355300 0.823700 -0.441800
vn -0.372100 0.790500 -0.486400
vn -0.073200 0.723600 -0.686300
vn -0.038800 0.736000 -0.675800
vn -0.016600 0.720200 -0.693500
vn -0.059100 0.702500 -0.709200
vn 0.039400 0.746800 -0.663800
vn 0.013300 0.769300 -0.638700
vn -0.039000 0.810300 -0.584700
vn -0.130300 0.754000 -0.643800
vn -0.098300 0.758900 -0.643800
vn 0.098700 0.806800 -0.582500
vn 0.125300 0.791800 -0.597800
vn 0.092000 0.772800 -0.627900
vn 0.074600 0.790900 -0.607300
vn 0.051600 0.831400 -0.553300
vn 0.062500 0.847400 -0.527300
vn 0.035800 0.891400 -0.451800
vn -0.096400 0.848500 -0.520200
vn 0.038500 0.876700 -0.479400
vn -0.207300 0.773700 -0.598600
vn -0.178200 0.771900 -0.610200
vn -0.070800 0.682500 -0.727400
vn -0.022800 0.699800 -0.714000
vn -0.037800 0.675600 -0.736300
vn -0.053500 0.639500 -0.766900
vn 0.086100 0.703000 -0.706000
vn 0.051600 0.735800 -0.675200
vn 0.154000 0.791300 -0.591600
vn 0.205600 0.764900 -0.610500
vn 0.156800 0.769600 -0.619000
vn 0.121500 0.769500 -0.627000
vn -0.047500 -0.944400 0.325200
vn 0.167000 -0.885700 0.433200
vn 0.129100 -0.867100 0.481000
vn -0.155300 -0.932600 0.325700
vn -0.264900 -0.924900 0.272800
vn -0.239700 -0.929300 0.281100
vn -0.184800 -0.927200 0.325700
vn -0.041000 -0.926600 0.373700
vn 0.141400 -0.873500 0.465800
vn 0.338000 -0.757900 0.557900
vn 0.410300 -0.614600 0.673700
vn 0.420200 -0.593300 0.686500
vn 0.357500 -0.684500 0.635300
vn 0.288900 -0.767000 0.572900
vn 0.361600 -0.662800 0.655700
vn 0.086800 -0.716600 0.692000
vn 0.180600 -0.663600 0.725900
vn 0.222000 -0.682700 0.696200
vn 0.142300 -0.746900 0.649500
vn 0.038900 -0.810200 0.584800
vn -0.013500 -0.769200 0.638800
vn -0.039500 -0.746800 0.663900
vn 0.076200 -0.695400 0.714600
vn 0.198400 -0.648500 0.734900
vn -0.110700 -0.812200 0.572800
vn -0.074200 -0.851700 0.518800
vn -0.168300 -0.871500 0.460500
vn -0.192000 -0.843900 0.501000
vn -0.212400 -0.847300 0.486800
vn -0.137900 -0.799000 0.585300
vn -0.047600 -0.894800 0.443800
vn 0.096400 -0.848500 0.520200
vn -0.161000 -0.905600 0.392300
vn 0.218400 -0.766100 0.604400
vn 0.292300 -0.686300 0.665900
vn 0.103200 -0.680600 0.725300
vn 0.261600 -0.633800 0.727900
vn -0.044200 -0.742500 0.668400
vn -0.011500 -0.770900 0.636800
vn 0.203700 -0.678000 0.706300
vn 0.302300 -0.626600 0.718300
vn -0.161700 -0.808800 0.565300
vn -0.232000 -0.872500 0.429900
vn -0.239300 -0.888600 0.391300
vn -0.174100 -0.860900 0.478100
vn 0.950900 0.297500 0.085000
vn 0.970200 0.043100 -0.238300
vn 0.904700 0.366600 0.217300
vn 0.302300 -0.626600 0.718300
vn 0.407400 -0.593400 -0.694200
vn -0.088900 -0.469900 -0.878200
vn 0.600900 -0.632600 -0.488400
vn -0.239300 -0.888600 0.391300
vn -0.941900 0.036400 -0.334000
vn -0.988800 0.145200 -0.032900
vn -0.865700 -0.076200 -0.494700
vn -0.264900 -0.924900 0.272800
vn -0.134000 0.480000 0.866900
vn 0.185200 0.713200 0.676000
vn -0.572400 0.186000 0.798600
vn 0.420200 -0.593300 0.686500
vn 0.466100 0.718200 0.516600
vn 0.637200 0.650900 0.412600
vn 0.781400 -0.412300 -0.468400
vn -0.483200 -0.396200 -0.780700
vn -0.613300 -0.367600 -0.699000
vn -0.911900 0.103600 0.397100
vn -0.796000 -0.175800 -0.579100
vn -0.751800 -0.243200 -0.612900
vn 0.743600 0.569200 0.350700
vn 0.798600 0.507300 0.323800
vn 0.847100 0.442000 0.295000
vn -0.703000 -0.308000 -0.641000
vt 0.839504 0.118056
vt 0.856743 0.205307
vt 0.741230 0.205307
vt 0.734555 0.106726
vt 0.724541 0.032791
vt 0.813647 0.052618
vt 0.868992 0.081539
vt 0.913398 0.129584
vt 0.940923 0.205307
vt 0.839504 0.292557
vt 0.813647 0.357995
vt 0.724541 0.377822
vt 0.734555 0.303887
vt 0.913398 0.281029
vt 0.868992 0.329074
vt 0.369475 0.299954
vt 0.368286 0.370940
vt 0.245840 0.351447
vt 0.246397 0.288815
vt 0.246768 0.205307
vt 0.370268 0.205307
vt 0.494283 0.205307
vt 0.492822 0.304944
vt 0.490632 0.379672
vt 0.369475 0.110659
vt 0.246397 0.121798
vt 0.245841 0.059166
vt 0.368286 0.039673
vt 0.490632 0.030941
vt 0.492822 0.105669
vt 0.616755 0.103478
vt 0.619174 0.205307
vt 0.613127 0.027106
vt 0.616755 0.307135
vt 0.613126 0.383507
vt 0.123273 0.268175
vt 0.123047 0.315326
vt 0.054743 0.283353
vt 0.030912 0.249131
vt 0.030973 0.205306
vt 0.123423 0.205306
vt 0.123273 0.142438
vt 0.030912 0.161481
vt 0.054744 0.127260
vt 0.123047 0.095287
vt 0.839504 0.118056
vt 0.856743 0.205307
vt 0.968983 0.205307
vt 0.938030 0.133427
vt 0.876123 0.061548
vt 0.805028 0.030806
vt 0.721203 0.008146
vt 0.734555 0.106726
vt 0.741230 0.205307
vt 0.839504 0.292557
vt 0.805028 0.379807
vt 0.876123 0.349065
vt 0.938030 0.277186
vt 0.734555 0.303887
vt 0.721203 0.402467
vt 0.369475 0.299954
vt 0.367890 0.394602
vt 0.489902 0.404581
vt 0.492822 0.304944
vt 0.494283 0.205307
vt 0.370268 0.205307
vt 0.246768 0.205307
vt 0.246397 0.288815
vt 0.245655 0.372324
vt 0.369475 0.110659
vt 0.492822 0.105669
vt 0.489902 0.006032
vt 0.367890 0.016011
vt 0.245655 0.038289
vt 0.246397 0.121798
vt 0.616755 0.103478
vt 0.619174 0.205307
vt 0.611917 0.001649
vt 0.616755 0.307135
vt 0.611917 0.408964
vt 0.123273 0.268175
vt 0.122972 0.331043
vt 0.123423 0.205306
vt 0.000156 0.205306
vt 0.000125 0.242784
vt 0.000064 0.280261
vt 0.123273 0.142438
vt 0.122972 0.079570
vt 0.000064 0.130352
vt 0.000125 0.167829
vt 0.122972 0.331043
vt 0.030806 0.283587
vt 0.245655 0.372324
vt 0.030806 0.283587
vt 0.000125 0.167829
vt 0.030806 0.127026
vt 0.000156 0.205306
vt 0.030806 0.127026
vt 0.805028 0.030806
vt 0.873826 0.071832
vt 0.721203 0.008146
vt 0.873826 0.071832
vt 0.938030 0.277186
vt 0.873826 0.338781
vt 0.968983 0.205307
vt 0.873826 0.338781
vt 0.805028 0.379807
vt 0.721203 0.402467
vt 0.000125 0.242784
vt 0.122972 0.079570
vt 0.245655 0.038289
vt 0.938030 0.133427
vt 0.611917 0.001649
vt 0.489902 0.006032
vt 0.611917 0.408964
vt 0.489902 0.404581
vt 0.367890 0.394602
vt 0.367890 0.016011
f 1/1/1 2/2/2 3/3/3
f 1/1/1 3/3/3 4/4/4
f 1/1/1 4/4/4 5/5/5
f 1/1/1 5/5/5 6/6/6
f 1/1/1 6/6/6 7/7/7
f 1/1/1 7/7/7 8/8/8
f 1/1/1 8/8/8 9/9/9
f 1/1/1 9/9/9 2/2/2
f 10/10/10 11/11/11 12/12/12
f 10/10/10 12/12/12 13/13/13
f 10/10/10 13/13/13 3/3/3
f 10/10/10 3/3/3 2/2/2
f 10/10/10 2/2/2 9/9/9
f 10/10/10 9/9/9 14/14/14
f 10/10/10 14/14/14 15/15/15
f 10/10/10 15/15/15 11/11/11
f 16/16/16 17/17/17 18/18/18
f 16/16/16 18/18/18 19/19/19
f 16/16/16 19/19/19 20/20/20
f 16/16/16 20/20/20 21/21/21
f 16/16/16 21/21/21 22/22/22
f 16/16/16 22/22/22 23/23/23
f 16/16/16 23/23/23 24/24/24
f 16/16/16 24/24/24 17/17/17
f 25/25/25 21/21/21 20/20/20
f 25/25/25 20/20/20 26/26/26
f 25/25/25 26/26/26 27/27/27
f 25/25/25 27/27/27 28/28/28
f 25/25/25 28/28/28 29/29/29
f 25/25/25 29/29/29 30/30/30
f 25/25/25 30/30/30 22/22/22
f 25/25/25 22/22/22 21/21/21
f 31/31/31 32/32/32 22/22/22
f 31/31/31 22/22/22 30/30/30
f 31/31/31 30/30/30 29/29/29
f 31/31/31 29/29/29 33/33/33
f 31/31/31 33/33/33 5/5/5
f 31/31/31 5/5/5 4/4/4
f 31/31/31 4/4/4 3/3/3
f 31/31/31 3/3/3 32/32/32
f 34/34/34 35/35/35 24/24/24
f 34/34/34 24/24/24 23/23/23
f 34/34/34 23/23/23 22/22/22
f 34/34/34 22/22/22 32/32/32
f 34/34/34 32/32/32 3/3/3
f 34/34/34 3/3/3 13/13/13
f 34/34/34 13/13/13 12/12/12
f 34/34/34 12/12/12 35/35/35
f 36/36/36 37/37/37 38/38/38
f 36/36/36 38/38/38 39/39/39
f 36/36/36 39/39/39 40/40/40
f 36/36/36 40/40/40 41/41/41
f 36/36/36 41/41/41 20/20/20
f 36/36/36 20/20/20 19/19/19
f 36/36/36 19/19/19 18/18/18
f 36/36/36 18/18/18 37/37/37
f 42/42/42 41/41/41 40/40/40
f 42/42/42 40/40/40 43/43/43
f 42/42/42 43/43/43 44/44/44
f 42/42/42 44/44/44 45/45/45
f 42/42/42 45/45/45 27/27/27
f 42/42/42 27/27/27 26/26/26
f 42/42/42 26/26/26 20/20/20
f 42/42/42 20/20/20 41/41/41
f 46/46/46 47/47/47 48/48/48
f 46/46/46 48/48/48 49/49/49
f 46/46/46 49/49/49 50/50/50
f 46/46/46 50/50/50 51/51/51
f 46/46/46 51/51/51 52/52/52
f 46/46/46 52/52/52 53/53/53
f 46/46/46 53/53/53 54/54/54
f 46/46/46 54/54/54 47/47/47
f 55/55/55 56/56/56 57/57/57
f 55/55/55 57/57/57 58/58/58
f 55/55/55 58/58/58 48/48/48
f 55/55/55 48/48/48 47/47/47
f 55/55/55 47/47/47 54/54/54
f 55/55/55 54/54/54 59/59/59
f 55/55/55 59/59/59 60/60/60
f 55/55/55 60/60/60 56/56/56
f 61/61/61 62/62/62 63/63/63
f 61/61/61 63/63/63 64/64/64
f 61/61/61 64/64/64 65/65/65
f 61/61/61 65/65/65 66/66/66
f 61/61/61 66/66/66 67/67/67
f 61/61/61 67/67/67 68/68/68
f 61/61/61 68/68/68 69/69/69
f 61/61/61 69/69/69 62/62/62
f 70/70/70 66/66/66 65/65/65
f 70/70/70 65/65/65 71/71/71
f 70/70/70 71/71/71 72/72/72
f 70/70/70 72/72/72 73/73/73
f 70/70/70 73/73/73 74/74/74
f 70/70/70 74/74/74 75/75/75
f 70/70/70 75/75/75 67/67/67
f 70/70/70 67/67/67 66/66/66
f 76/76/76 77/77/77 54/54/54
f 76/76/76 54/54/54 53/53/53
f 76/76/76 53/53/53 52/52/52
f 76/76/76 52/52/52 78/78/78
f 76/76/76 78/78/78 72/72/72
f 76/76/76 72/72/72 71/71/71
f 76/76/76 71/71/71 65/65/65
f 76/76/76 65/65/65 77/77/77
f 79/79/79 80/80/80 60/60/60
f 79/79/79 60/60/60 59/59/59
f 79/79/79 59/59/59 54/54/54
f 79/79/79 54/54/54 77/77/77
f 79/79/79 77/77/77 65/65/65
f 79/79/79 65/65/65 64/64/64
f 79/79/79 64/64/64 63/63/63
f 79/79/79 63/63/63 80/80/80
f 81/81/81 82/82/82 69/69/69
f 81/81/81 69/69/69 68/68/68
f 81/81/81 68/68/68 67/67/67
f 81/81/81 67/67/67 83/83/83
f 81/81/81 83/83/83 84/84/84
f 81/81/81 84/84/84 85/85/85
f 81/81/81 85/85/85 86/86/86
f 81/81/81 86/86/86 82/82/82
f 87/87/87 83/83/83 67/67/67
f 87/87/87 67/67/67 75/75/75
f 87/87/87 75/75/75 74/74/74
f 87/87/87 74/74/74 88/88/88
f 87/87/87 88/88/88 89/89/89
f 87/87/87 89/89/89 90/90/90
f 87/87/87 90/90/90 84/84/84
f 87/87/87 84/84/84 83/83/83
f 91/91/91 92/92/92 38/38/38
f 91/91/91 38/38/38 37/37/37
f 91/91/91 37/37/37 18/18/18
f 91/91/91 18/18/18 93/93/93
f 91/91/91 93/93/93 69/69/69
f 91/91/91 69/69/69 82/82/82
f 91/91/91 82/82/82 94/94/94
f 91/91/91 94/94/94 92/92/92
f 95/95/95 96/96/96 44/44/44
f 95/95/95 44/44/44 43/43/43
f 95/95/95 43/43/43 40/40/40
f 95/95/95 40/40/40 97/97/97
f 95/95/95 97/97/97 84/84/84
f 95/95/95 84/84/84 90/90/90
f 95/95/95 90/90/90 98/98/98
f 95/95/95 98/98/98 96/96/96
f 99/99/99 100/100/100 7/7/7
f 99/99/99 7/7/7 6/6/6
f 99/99/99 6/6/6 5/5/5
f 99/99/99 5/5/5 101/101/101
f 99/99/99 101/101/101 52/52/52
f 99/99/99 52/52/52 51/51/51
f 99/99/99 51/51/51 102/102/102
f 99/99/99 102/102/102 100/100/100
f 103/103/103 104/104/104 15/15/15
f 103/103/103 15/15/15 14/14/14
f 103/103/103 14/14/14 9/9/9
f 103/103/103 9/9/9 105/105/105
f 103/103/103 105/105/105 48/48/48
f 103/103/103 48/48/48 58/58/58
f 103/103/103 58/58/58 106/106/106
f 103/103/103 106/106/106 104/104/104
f 107/107/107 108/108/108 12/12/12
f 107/107/107 12/12/12 11/11/11
f 107/107/107 11/11/11 15/15/15
f 107/107/107 15/15/15 104/104/104
f 107/107/107 104/104/104 106/106/106
f 107/107/107 106/106/106 56/56/56
f 107/107/107 56/56/56 60/60/60
f 107/107/107 60/60/60 108/108/108
f 109/109/109 97/97/97 40/40/40
f 109/109/109 40/40/40 39/39/39
f 109/109/109 39/39/39 38/38/38
f 109/109/109 38/38/38 92/92/92
f 109/109/109 92/92/92 94/94/94
f 109/109/109 94/94/94 85/85/85
f 109/109/109 85/85/85 84/84/84
f 109/109/109 84/84/84 97/97/97
f 110/110/110 111/111/111 27/27/27
f 110/110/110 27/27/27 45/45/45
f 110/110/110 45/45/45 44/44/44
f 110/110/110 44/44/44 96/96/96
f 110/110/110 96/96/96 98/98/98
f 110/110/110 98/98/98 88/88/88
f 110/110/110 88/88/88 74/74/74
f 110/110/110 74/74/74 111/111/111
f 112/112/112 105/105/105 9/9/9
f 112/112/112 9/9/9 8/8/8
f 112/112/112 8/8/8 7/7/7
f 112/112/112 7/7/7 100/100/100
f 112/112/112 100/100/100 102/102/102
f 112/112/112 102/102/102 49/49/49
f 112/112/112 49/49/49 48/48/48
f 112/112/112 48/48/48 105/105/105
f 113/113/113 101/101/101 5/5/5
f 113/113/113 5/5/5 33/33/33
f 113/113/113 33/33/33 29/29/29
f 113/113/113 29/29/29 114/114/114
f 113/113/113 114/114/114 72/72/72
f 113/113/113 72/72/72 78/78/78
f 113/113/113 78/78/78 52/52/52
f 113/113/113 52/52/52 101/101/101
f 115/115/115 116/116/116 24/24/24
f 115/115/115 24/24/24 35/35/35
f 115/115/115 35/35/35 12/12/12
f 115/115/115 12/12/12 108/108/108
f 115/115/115 108/108/108 60/60/60
f 115/115/115 60/60/60 80/80/80
f 115/115/115 80/80/80 63/63/63
f 115/115/115 63/63/63 116/116/116
f 117/117/117 93/93/93 18/18/18
f 117/117/117 18/18/18 17/17/17
f 117/117/117 17/17/17 24/24/24
f 117/117/117 24/24/24 116/116/116
f 117/117/117 116/116/116 63/63/63
f 117/117/117 63/63/63 62/62/62
f 117/117/117 62/62/62 69/69/69
f 117/117/117 69/69/69 93/93/93
f 118/118/118 114/114/114 29/29/29
f 118/118/118 29/29/29 28/28/28
f 118/118/118 28/28/28 27/27/27
f 118/118/118 27/27/27 111/111/111
f 118/118/118 111/111/111 74/74/74
f 118/118/118 74/74/74 73/73/73
f 118/118/118 73/73/73 72/72/72
f 118/118/118 72/72/72 114/114/114
