v -2.415504 0.800725 -1.180403
v -2.417718 0.801194 -1.179332
v -2.416096 0.799626 -1.176878
v -2.413792 0.799206 -1.178383
v -2.411869 0.799020 -1.179344
v -2.413533 0.800408 -1.180871
v -2.415029 0.801148 -1.181606
v -2.416847 0.801709 -1.181807
v -2.418961 0.802245 -1.181157
v -2.419081 0.801832 -1.177330
v -2.419806 0.802349 -1.175483
v -2.418995 0.801226 -1.173224
v -2.417857 0.800464 -1.174891
v -2.419943 0.802667 -1.179147
v -2.420109 0.802720 -1.177242
v -2.413670 0.794057 -1.167795
v -2.415003 0.794691 -1.166378
v -2.413518 0.791986 -1.164536
v -2.412349 0.791417 -1.165798
v -2.410705 0.790751 -1.167404
v -2.411800 0.793313 -1.169602
v -2.413036 0.795696 -1.171899
v -2.414978 0.796494 -1.170000
v -2.416351 0.797185 -1.168503
v -2.409686 0.792825 -1.171217
v -2.408827 0.790326 -1.168824
v -2.407346 0.790075 -1.169838
v -2.408024 0.792531 -1.172373
v -2.409050 0.794925 -1.174774
v -2.410811 0.795204 -1.173579
v -2.412204 0.797348 -1.176038
v -2.414502 0.797797 -1.174363
v -2.410354 0.797140 -1.177205
v -2.416431 0.798657 -1.172407
v -2.417762 0.799434 -1.170841
v -2.410859 0.788641 -1.164018
v -2.411697 0.789102 -1.163045
v -2.410506 0.787343 -1.162486
v -2.409701 0.786488 -1.162776
v -2.408914 0.786092 -1.163641
v -2.409660 0.788117 -1.165238
v -2.408231 0.787827 -1.166276
v -2.407899 0.785930 -1.164323
v -2.407265 0.786340 -1.165270
v -2.407088 0.787675 -1.167004
v -2.415603 0.800500 -1.180494
v -2.417845 0.800975 -1.179400
v -2.419054 0.802079 -1.181205
v -2.416918 0.801538 -1.181874
v -2.415076 0.801022 -1.181661
v -2.413593 0.800238 -1.180951
v -2.411937 0.798855 -1.179427
v -2.413899 0.798987 -1.178480
v -2.416228 0.799412 -1.176955
v -2.419234 0.801624 -1.177376
v -2.419932 0.802200 -1.175505
v -2.420198 0.802607 -1.177260
v -2.420056 0.802510 -1.179177
v -2.418011 0.800260 -1.174947
v -2.419122 0.801079 -1.173255
v -2.413838 0.793880 -1.167891
v -2.415137 0.794561 -1.166442
v -2.416482 0.797048 -1.168558
v -2.415142 0.796307 -1.170085
v -2.413182 0.795503 -1.172000
v -2.411952 0.793129 -1.169713
v -2.410861 0.790575 -1.167522
v -2.412522 0.791246 -1.165901
v -2.413656 0.791861 -1.164605
v -2.409821 0.792636 -1.171342
v -2.410939 0.795006 -1.173696
v -2.409136 0.794775 -1.174868
v -2.408115 0.792388 -1.172474
v -2.407440 0.789937 -1.169944
v -2.408965 0.790145 -1.168956
v -2.412321 0.797140 -1.176144
v -2.414641 0.797593 -1.174451
v -2.410431 0.796982 -1.177293
v -2.416590 0.798461 -1.172477
v -2.417891 0.799291 -1.170884
v -2.411034 0.788474 -1.164122
v -2.411837 0.788980 -1.163114
v -2.409817 0.787943 -1.165358
v -2.409032 0.785962 -1.163731
v -2.409832 0.786363 -1.162853
v -2.410608 0.787253 -1.162539
v -2.408369 0.787649 -1.166411
v -2.407181 0.787539 -1.167114
v -2.407337 0.786240 -1.165349
v -2.408002 0.785796 -1.164426
v -2.412040 0.789202 -1.162750
v -2.410310 0.786823 -1.162063
v -2.413971 0.792121 -1.164144
v -2.410608 0.787253 -1.162539
v -2.407834 0.785238 -1.163718
v -2.407063 0.785818 -1.164852
v -2.408718 0.785360 -1.163148
v -2.407337 0.786240 -1.165349
v -2.412899 0.800226 -1.181065
v -2.414867 0.801195 -1.181878
v -2.411256 0.798884 -1.179704
v -2.415076 0.801022 -1.181661
v -2.420280 0.802875 -1.179766
v -2.420362 0.802896 -1.177157
v -2.419416 0.802521 -1.181786
v -2.420198 0.802607 -1.177260
v -2.420106 0.802457 -1.174874
v -2.419433 0.801416 -1.172680
v -2.409373 0.785715 -1.162396
v -2.406746 0.787563 -1.167298
v -2.406892 0.789929 -1.170225
v -2.417325 0.801960 -1.182304
v -2.409769 0.797000 -1.177635
v -2.408499 0.794765 -1.175215
v -2.418265 0.799630 -1.170336
v -2.416869 0.797355 -1.168026
v -2.415509 0.794845 -1.165932
v -2.407508 0.792369 -1.172805
vn 0.297200 0.880100 0.370200
vn 0.457800 0.860700 0.222800
vn 0.486600 0.831900 0.266700
vn 0.344700 0.849000 0.400500
vn 0.363800 0.834900 0.413000
vn 0.304100 0.879500 0.365900
vn 0.261000 0.907000 0.330300
vn 0.283200 0.917900 0.277700
vn 0.409500 0.899400 0.152700
vn 0.617000 0.781100 0.095500
vn 0.612400 0.784100 0.101200
vn 0.635900 0.750700 0.179300
vn 0.630600 0.760500 0.154900
vn 0.544400 0.837100 0.053400
vn 0.592000 0.804600 0.046000
vn 0.665000 0.649300 0.368900
vn 0.642500 0.654200 0.399100
vn 0.650500 0.631900 0.421200
vn 0.681000 0.623300 0.384300
vn 0.602000 0.647200 0.467600
vn 0.588500 0.677600 0.441000
vn 0.558200 0.734900 0.385100
vn 0.647100 0.696500 0.310100
vn 0.635200 0.693400 0.340000
vn 0.504500 0.699000 0.506800
vn 0.508800 0.676600 0.532200
vn 0.549000 0.663300 0.508500
vn 0.536500 0.686900 0.490200
vn 0.495100 0.736800 0.460300
vn 0.467000 0.752200 0.464800
vn 0.407100 0.808500 0.424900
vn 0.520100 0.791800 0.320100
vn 0.431700 0.791000 0.433500
vn 0.634100 0.738200 0.229900
vn 0.634100 0.728300 0.259600
vn 0.702200 0.605000 0.375300
vn 0.671900 0.611500 0.418000
vn 0.698100 0.589500 0.406400
vn 0.732200 0.555500 0.394000
vn 0.623500 0.589600 0.513400
vn 0.608000 0.632400 0.479900
vn 0.492300 0.670000 0.555700
vn 0.490300 0.630400 0.601800
vn 0.516600 0.645500 0.562500
vn 0.537200 0.653000 0.533700
vn -0.285400 -0.869400 -0.403200
vn -0.465900 -0.853100 -0.234900
vn -0.496000 -0.821400 -0.281400
vn -0.245500 -0.832300 -0.497000
vn -0.155400 -0.803900 -0.574100
vn -0.172500 -0.813300 -0.555600
vn -0.234500 -0.820100 -0.521900
vn -0.332900 -0.849000 -0.410300
vn -0.486500 -0.832000 -0.266600
vn -0.645400 -0.758000 -0.094000
vn -0.779600 -0.625400 -0.034200
vn -0.795100 -0.606000 -0.024400
vn -0.724200 -0.684200 -0.085600
vn -0.640900 -0.753700 -0.145700
vn -0.744600 -0.662200 -0.083700
vn -0.675400 -0.645200 -0.357000
vn -0.742000 -0.613000 -0.271500
vn -0.729900 -0.644200 -0.228600
vn -0.656900 -0.691900 -0.299600
vn -0.558300 -0.734800 -0.385200
vn -0.588600 -0.677400 -0.441100
vn -0.602100 -0.647100 -0.467700
vn -0.692300 -0.620000 -0.369200
vn -0.757000 -0.601700 -0.254900
vn -0.491000 -0.702300 -0.515400
vn -0.454700 -0.754400 -0.473300
vn -0.365400 -0.757000 -0.541600
vn -0.394000 -0.720700 -0.570400
vn -0.373200 -0.720500 -0.584500
vn -0.492400 -0.681800 -0.540900
vn -0.395200 -0.809900 -0.433500
vn -0.520100 -0.791800 -0.320100
vn -0.305000 -0.798400 -0.519200
vn -0.643700 -0.733000 -0.220100
vn -0.728200 -0.667400 -0.155600
vn -0.712400 -0.611100 -0.345000
vn -0.774300 -0.603000 -0.191900
vn -0.604400 -0.641400 -0.472500
vn -0.587500 -0.679600 -0.439100
vn -0.732300 -0.634400 -0.247400
vn -0.780600 -0.606700 -0.150100
vn -0.465000 -0.687600 -0.557600
vn -0.313300 -0.745700 -0.588000
vn -0.274900 -0.763200 -0.584700
vn -0.379600 -0.743500 -0.550500
vn -0.435000 0.070400 0.897600
vn -0.141900 -0.213300 0.966600
vn -0.540100 0.161000 0.826000
vn -0.780600 -0.606700 -0.150100
vn 0.489500 -0.738400 0.463700
vn 0.846600 -0.519200 0.117300
vn 0.226200 -0.802300 0.552300
vn -0.274900 -0.763200 -0.584700
vn 0.662600 0.226600 -0.713900
vn 0.401400 0.372300 -0.836800
vn 0.783300 0.083200 -0.616100
vn -0.155400 -0.803900 -0.574100
vn -0.752600 0.580800 -0.310200
vn -0.694700 0.711600 0.104900
vn -0.525500 0.394500 -0.753800
vn -0.795100 -0.606000 -0.024400
vn -0.652300 0.633700 0.415800
vn -0.620200 0.517700 0.589400
vn 0.141000 -0.630500 0.763200
vn 0.904100 -0.344500 -0.252500
vn 0.877300 -0.277800 -0.391200
vn -0.026200 0.356100 -0.934000
vn 0.835100 -0.037700 -0.548800
vn 0.849600 -0.116600 -0.514400
vn -0.602500 0.407200 0.686400
vn -0.598300 0.331700 0.729400
vn -0.590200 0.254600 0.766000
vn 0.857300 -0.193700 -0.476900
vt 0.839504 0.118056
vt 0.856743 0.205307
vt 0.741230 0.205307
vt 0.734555 0.106726
vt 0.724541 0.032791
vt 0.813647 0.052618
vt 0.868992 0.081539
vt 0.913398 0.129584
vt 0.940923 0.205307
vt 0.839504 0.292557
vt 0.813647 0.357995
vt 0.724541 0.377822
vt 0.734555 0.303887
vt 0.913398 0.281029
vt 0.868992 0.329074
vt 0.369475 0.299954
vt 0.368286 0.370940
vt 0.245840 0.351447
vt 0.246397 0.288815
vt 0.246768 0.205307
vt 0.370268 0.205307
vt 0.494283 0.205307
vt 0.492822 0.304944
vt 0.490632 0.379672
vt 0.369475 0.110659
vt 0.246397 0.121798
vt 0.245841 0.059166
vt 0.368286 0.039673
vt 0.490632 0.030941
vt 0.492822 0.105669
vt 0.616755 0.103478
vt 0.619174 0.205307
vt 0.613127 0.027106
vt 0.616755 0.307135
vt 0.613126 0.383507
vt 0.123273 0.268175
vt 0.123047 0.315326
vt 0.054743 0.283353
vt 0.030912 0.249131
vt 0.030973 0.205306
vt 0.123423 0.205306
vt 0.123273 0.142438
vt 0.030912 0.161481
vt 0.054744 0.127260
vt 0.123047 0.095287
vt 0.839504 0.118056
vt 0.856743 0.205307
vt 0.968983 0.205307
vt 0.938030 0.133427
vt 0.876123 0.061548
vt 0.805028 0.030806
vt 0.721203 0.008146
vt 0.734555 0.106726
vt 0.741230 0.205307
vt 0.839504 0.292557
vt 0.805028 0.379807
vt 0.876123 0.349065
vt 0.938030 0.277186
vt 0.734555 0.303887
vt 0.721203 0.402467
vt 0.369475 0.299954
vt 0.367890 0.394602
vt 0.489902 0.404581
vt 0.492822 0.304944
vt 0.494283 0.205307
vt 0.370268 0.205307
vt 0.246768 0.205307
vt 0.246397 0.288815
vt 0.245655 0.372324
vt 0.369475 0.110659
vt 0.492822 0.105669
vt 0.489902 0.006032
vt 0.367890 0.016011
vt 0.245655 0.038289
vt 0.246397 0.121798
vt 0.616755 0.103478
vt 0.619174 0.205307
vt 0.611917 0.001649
vt 0.616755 0.307135
vt 0.611917 0.408964
vt 0.123273 0.268175
vt 0.122972 0.331043
vt 0.123423 0.205306
vt 0.000156 0.205306
vt 0.000125 0.242784
vt 0.000064 0.280261
vt 0.123273 0.142438
vt 0.122972 0.079570
vt 0.000064 0.130352
vt 0.000125 0.167829
vt 0.122972 0.331043
vt 0.030806 0.283587
vt 0.245655 0.372324
vt 0.030806 0.283587
vt 0.000125 0.167829
vt 0.030806 0.127026
vt 0.000156 0.205306
vt 0.030806 0.127026
vt 0.805028 0.030806
vt 0.873826 0.071832
vt 0.721203 0.008146
vt 0.873826 0.071832
vt 0.938030 0.277186
vt 0.873826 0.338781
vt 0.968983 0.205307
vt 0.873826 0.338781
vt 0.805028 0.379807
vt 0.721203 0.402467
vt 0.000125 0.242784
vt 0.122972 0.079570
vt 0.245655 0.038289
vt 0.938030 0.133427
vt 0.611917 0.001649
vt 0.489902 0.006032
vt 0.611917 0.408964
vt 0.489902 0.404581
vt 0.367890 0.394602
vt 0.367890 0.016011
f 1/1/1 2/2/2 3/3/3
f 1/1/1 3/3/3 4/4/4
f 1/1/1 4/4/4 5/5/5
f 1/1/1 5/5/5 6/6/6
f 1/1/1 6/6/6 7/7/7
f 1/1/1 7/7/7 8/8/8
f 1/1/1 8/8/8 9/9/9
f 1/1/1 9/9/9 2/2/2
f 10/10/10 11/11/11 12/12/12
f 10/10/10 12/12/12 13/13/13
f 10/10/10 13/13/13 3/3/3
f 10/10/10 3/3/3 2/2/2
f 10/10/10 2/2/2 9/9/9
f 10/10/10 9/9/9 14/14/14
f 10/10/10 14/14/14 15/15/15
f 10/10/10 15/15/15 11/11/11
f 16/16/16 17/17/17 18/18/18
f 16/16/16 18/18/18 19/19/19
f 16/16/16 19/19/19 20/20/20
f 16/16/16 20/20/20 21/21/21
f 16/16/16 21/21/21 22/22/22
f 16/16/16 22/22/22 23/23/23
f 16/16/16 23/23/23 24/24/24
f 16/16/16 24/24/24 17/17/17
f 25/25/25 21/21/21 20/20/20
f 25/25/25 20/20/20 26/26/26
f 25/25/25 26/26/26 27/27/27
f 25/25/25 27/27/27 28/28/28
f 25/25/25 28/28/28 29/29/29
f 25/25/25 29/29/29 30/30/30
f 25/25/25 30/30/30 22/22/22
f 25/25/25 22/22/22 21/21/21
f 31/31/31 32/32/32 22/22/22
f 31/31/31 22/22/22 30/30/30
f 31/31/31 30/30/30 29/29/29
f 31/31/31 29/29/29 33/33/33
f 31/31/31 33/33/33 5/5/5
f 31/31/31 5/5/5 4/4/4
f 31/31/31 4/4/4 3/3/3
f 31/31/31 3/3/3 32/32/32
f 34/34/34 35/35/35 24/24/24
f 34/34/34 24/24/24 23/23/23
f 34/34/34 23/23/23 22/22/22
f 34/34/34 22/22/22 32/32/32
f 34/34/34 32/32/32 3/3/3
f 34/34/34 3/3/3 13/13/13
f 34/34/34 13/13/13 12/12/12
f 34/34/34 12/12/12 35/35/35
f 36/36/36 37/37/37 38/38/38
f 36/36/36 38/38/38 39/39/39
f 36/36/36 39/39/39 40/40/40
f 36/36/36 40/40/40 41/41/41
f 36/36/36 41/41/41 20/20/20
f 36/36/36 20/20/20 19/19/19
f 36/36/36 19/19/19 18/18/18
f 36/36/36 18/18/18 37/37/37
f 42/42/42 41/41/41 40/40/40
f 42/42/42 40/40/40 43/43/43
f 42/42/42 43/43/43 44/44/44
f 42/42/42 44/44/44 45/45/45
f 42/42/42 45/45/45 27/27/27
f 42/42/42 27/27/27 26/26/26
f 42/42/42 26/26/26 20/20/20
f 42/42/42 20/20/20 41/41/41
f 46/46/46 47/47/47 48/48/48
f 46/46/46 48/48/48 49/49/49
f 46/46/46 49/49/49 50/50/50
f 46/46/46 50/50/50 51/51/51
f 46/46/46 51/51/51 52/52/52
f 46/46/46 52/52/52 53/53/53
f 46/46/46 53/53/53 54/54/54
f 46/46/46 54/54/54 47/47/47
f 55/55/55 56/56/56 57/57/57
f 55/55/55 57/57/57 58/58/58
f 55/55/55 58/58/58 48/48/48
f 55/55/55 48/48/48 47/47/47
f 55/55/55 47/47/47 54/54/54
f 55/55/55 54/54/54 59/59/59
f 55/55/55 59/59/59 60/60/60
f 55/55/55 60/60/60 56/56/56
f 61/61/61 62/62/62 63/63/63
f 61/61/61 63/63/63 64/64/64
f 61/61/61 64/64/64 65/65/65
f 61/61/61 65/65/65 66/66/66
f 61/61/61 66/66/66 67/67/67
f 61/61/61 67/67/67 68/68/68
f 61/61/61 68/68/68 69/69/69
f 61/61/61 69/69/69 62/62/62
f 70/70/70 66/66/66 65/65/65
f 70/70/70 65/65/65 71/71/71
f 70/70/70 71/71/71 72/72/72
f 70/70/70 72/72/72 73/73/73
f 70/70/70 73/73/73 74/74/74
f 70/70/70 74/74/74 75/75/75
f 70/70/70 75/75/75 67/67/67
f 70/70/70 67/67/67 66/66/66
f 76/76/76 77/77/77 54/54/54
f 76/76/76 54/54/54 53/53/53
f 76/76/76 53/53/53 52/52/52
f 76/76/76 52/52/52 78/78/78
f 76/76/76 78/78/78 72/72/72
f 76/76/76 72/72/72 71/71/71
f 76/76/76 71/71/71 65/65/65
f 76/76/76 65/65/65 77/77/77
f 79/79/79 80/80/80 60/60/60
f 79/79/79 60/60/60 59/59/59
f 79/79/79 59/59/59 54/54/54
f 79/79/79 54/54/54 77/77/77
f 79/79/79 77/77/77 65/65/65
f 79/79/79 65/65/65 64/64/64
f 79/79/79 64/64/64 63/63/63
f 79/79/79 63/63/63 80/80/80
f 81/81/81 82/82/82 69/69/69
f 81/81/81 69/69/69 68/68/68
f 81/81/81 68/68/68 67/67/67
f 81/81/81 67/67/67 83/83/83
f 81/81/81 83/83/83 84/84/84
f 81/81/81 84/84/84 85/85/85
f 81/81/81 85/85/85 86/86/86
f 81/81/81 86/86/86 82/82/82
f 87/87/87 83/83/83 67/67/67
f 87/87/87 67/67/67 75/75/75
f 87/87/87 75/75/75 74/74/74
f 87/87/87 74/74/74 88/88/88
f 87/87/87 88/88/88 89/89/89
f 87/87/87 89/89/89 90/90/90
f 87/87/87 90/90/90 84/84/84
f 87/87/87 84/84/84 83/83/83
f 91/91/91 92/92/92 38/38/38
f 91/91/91 38/38/38 37/37/37
f 91/91/91 37/37/37 18/18/18
f 91/91/91 18/18/18 93/93/93
f 91/91/91 93/93/93 69/69/69
f 91/91/91 69/69/69 82/82/82
f 91/91/91 82/82/82 94/94/94
f 91/91/91 94/94/94 92/92/92
f 95/95/95 96/96/96 44/44/44
f 95/95/95 44/44/44 43/43/43
f 95/95/95 43/43/43 40/40/40
f 95/95/95 40/40/40 97/97/97
f 95/95/95 97/97/97 84/84/84
f 95/95/95 84/84/84 90/90/90
f 95/95/95 90/90/90 98/98/98
f 95/95/95 98/98/98 96/96/96
f 99/99/99 100/100/100 7/7/7
f 99/99/99 7/7/7 6/6/6
f 99/99/99 6/6/6 5/5/5
f 99/99/99 5/5/5 101/101/101
f 99/99/99 101/101/101 52/52/52
f 99/99/99 52/52/52 51/51/51
f 99/99/99 51/51/51 102/102/102
f 99/99/99 102/102/102 100/100/100
f 103/103/103 104/104/104 15/15/15
f 103/103/103 15/15/15 14/14/14
f 103/103/103 14/14/14 9/9/9
f 103/103/103 9/9/9 105/105/105
f 103/103/103 105/105/105 48/48/48
f 103/103/103 48/48/48 58/58/58
f 103/103/103 58/58/58 106/106/106
f 103/103/103 106/106/106 104/104/104
f 107/107/107 108/108/108 12/12/12
f 107/107/107 12/12/12 11/11/11
f 107/107/107 11/11/11 15/15/15
f 107/107/107 15/15/15 104/104/104
f 107/107/107 104/104/104 106/106/106
f 107/107/107 106/106/106 56/56/56
f 107/107/107 56/56/56 60/60/60
f 107/107/107 60/60/60 108/108/108
f 109/109/109 97/97/97 40/40/40
f 109/109/109 40/40/40 39/39/39
f 109/109/109 39/39/39 38/38/38
f 109/109/109 38/38/38 92/92/92
f 109/109/109 92/92/92 94/94/94
f 109/109/109 94/94/94 85/85/85
f 109/109/109 85/85/85 84/84/84
f 109/109/109 84/84/84 97/97/97
f 110/110/110 111/111/111 27/27/27
f 110/110/110 27/27/27 45/45/45
f 110/110/110 45/45/45 44/44/44
f 110/110/110 44/44/44 96/96/96
f 110/110/110 96/96/96 98/98/98
f 110/110/110 98/98/98 88/88/88
f 110/110/110 88/88/88 74/74/74
f 110/110/110 74/74/74 111/111/111
f 112/112/112 105/105/105 9/9/9
f 112/112/112 9/9/9 8/8/8
f 112/112/112 8/8/8 7/7/7
f 112/112/112 7/7/7 100/100/100
f 112/112/112 100/100/100 102/102/102
f 112/112/112 102/102/102 49/49/49
f 112/112/112 49/49/49 48/48/48
f 112/112/112 48/48/48 105/105/105
f 113/113/113 101/101/101 5/5/5
f 113/113/113 5/5/5 33/33/33
f 113/113/113 33/33/33 29/29/29
f 113/113/113 29/29/29 114/114/114
f 113/113/113 114/114/114 72/72/72
f 113/113/113 72/72/72 78/78/78
f 113/113/113 78/78/78 52/52/52
f 113/113/113 52/52/52 101/101/101
f 115/115/115 116/116/116 24/24/24
f 115/115/115 24/24/24 35/35/35
f 115/115/115 35/35/35 12/12/12
f 115/115/115 12/12/12 108/108/108
f 115/115/115 108/108/108 60/60/60
f 115/115/115 60/60/60 80/80/80
f 115/115/115 80/80/80 63/63/63
f 115/115/115 63/63/63 116/116/116
f 117/117/117 93/93/93 18/18/18
f 117/117/117 18/18/18 17/17/17
f 117/117/117 17/17/17 24/24/24
f 117/117/117 24/24/24 116/116/116
f 117/117/117 116/116/116 63/63/63
f 117/117/117 63/63/63 62/62/62
f 117/117/117 62/62/62 69/69/69
f 117/117/117 69/69/69 93/93/93
f 118/118/118 114/114/114 29/29/29
f 118/118/118 29/29/29 28/28/28
f 118/118/118 28/28/28 27/27/27
f 118/118/118 27/27/27 111/111/111
f 118/118/118 111/111/111 74/74/74
f 118/118/118 74/74/74 73/73/73
f 118/118/118 73/73/73 72/72/72
f 118/118/118 72/72/72 114/114/114
