v -2.425173 0.673788 -1.104673
v -2.427448 0.673224 -1.102811
v -2.424410 0.671447 -1.100943
v -2.422185 0.672210 -1.103296
v -2.420285 0.672954 -1.104874
v -2.423027 0.674277 -1.105751
v -2.425143 0.674740 -1.105992
v -2.427399 0.674749 -1.105620
v -2.429713 0.674404 -1.104232
v -2.428532 0.672919 -1.100039
v -2.428917 0.672753 -1.097624
v -2.426977 0.671223 -1.095642
v -2.426002 0.671223 -1.098029
v -2.430306 0.673997 -1.101609
v -2.429913 0.673506 -1.099410
v -2.417228 0.663826 -1.093139
v -2.418460 0.663677 -1.091032
v -2.415431 0.660746 -1.090201
v -2.414353 0.660867 -1.092076
v -2.412822 0.661143 -1.094476
v -2.415486 0.664147 -1.095843
v -2.418284 0.666929 -1.097350
v -2.420094 0.666616 -1.094508
v -2.421362 0.666495 -1.092282
v -2.413487 0.664793 -1.098300
v -2.411045 0.661723 -1.096640
v -2.409634 0.662246 -1.098199
v -2.411906 0.665372 -1.100075
v -2.414506 0.668269 -1.101741
v -2.416181 0.667628 -1.099907
v -2.419134 0.670129 -1.101640
v -2.421307 0.669355 -1.099086
v -2.417372 0.670874 -1.103439
v -2.423104 0.669102 -1.096162
v -2.424330 0.669074 -1.093840
v -2.411316 0.657876 -1.091340
v -2.412083 0.657831 -1.089902
v -2.410062 0.656173 -1.090131
v -2.409000 0.655593 -1.090926
v -2.408276 0.655664 -1.092209
v -2.410203 0.658047 -1.093159
v -2.408847 0.658515 -1.094746
v -2.407309 0.656030 -1.093260
v -2.407018 0.656960 -1.094330
v -2.407755 0.658951 -1.095874
v -2.425246 0.673527 -1.104829
v -2.427546 0.672953 -1.102934
v -2.429783 0.674199 -1.104321
v -2.427449 0.674552 -1.105736
v -2.425175 0.674597 -1.106085
v -2.423068 0.674087 -1.105884
v -2.420337 0.672767 -1.105008
v -2.422270 0.671954 -1.103454
v -2.424518 0.671182 -1.101071
v -2.428655 0.672645 -1.100125
v -2.429022 0.672547 -1.097670
v -2.429986 0.673353 -1.099448
v -2.430396 0.673789 -1.101669
v -2.426132 0.670955 -1.098125
v -2.427085 0.671021 -1.095698
v -2.417393 0.663592 -1.093269
v -2.418592 0.663500 -1.091117
v -2.421486 0.666310 -1.092360
v -2.420248 0.666371 -1.094629
v -2.418422 0.666687 -1.097495
v -2.415636 0.663917 -1.095996
v -2.412981 0.660920 -1.094633
v -2.414527 0.660641 -1.092210
v -2.415569 0.660576 -1.090290
v -2.413620 0.664568 -1.098474
v -2.416301 0.667392 -1.100075
v -2.414587 0.668095 -1.101879
v -2.411998 0.665206 -1.100215
v -2.409732 0.662086 -1.098344
v -2.411186 0.661506 -1.096818
v -2.419236 0.669881 -1.101802
v -2.421430 0.669101 -1.099223
v -2.417439 0.670693 -1.103574
v -2.423245 0.668844 -1.096271
v -2.424445 0.668880 -1.093907
v -2.411494 0.657654 -1.091473
v -2.412225 0.657663 -1.089989
v -2.410365 0.657828 -1.093317
v -2.408397 0.655500 -1.092327
v -2.409135 0.655426 -1.091025
v -2.410165 0.656049 -1.090199
v -2.408991 0.658301 -1.094927
v -2.407853 0.658794 -1.096022
v -2.407093 0.656843 -1.094436
v -2.407416 0.655871 -1.093397
v -2.412404 0.657741 -1.089459
v -2.409557 0.655558 -1.089874
v -2.415854 0.660630 -1.089613
v -2.410165 0.656049 -1.090199
v -2.406843 0.655132 -1.092826
v -2.406507 0.656347 -1.094081
v -2.407688 0.654797 -1.091945
v -2.407093 0.656843 -1.094436
v -2.422327 0.674357 -1.106173
v -2.425061 0.674921 -1.106319
v -2.419673 0.673120 -1.105463
v -2.425175 0.674597 -1.106085
v -2.430937 0.674264 -1.102158
v -2.430222 0.673586 -1.099198
v -2.430498 0.674706 -1.104744
v -2.429986 0.673353 -1.099448
v -2.429095 0.672606 -1.096835
v -2.427352 0.671133 -1.094867
v -2.408289 0.654758 -1.090832
v -2.407432 0.659027 -1.096318
v -2.409206 0.662350 -1.098786
v -2.428162 0.674982 -1.105987
v -2.416813 0.671043 -1.104102
v -2.413982 0.668406 -1.102416
v -2.424792 0.668978 -1.093093
v -2.421842 0.666372 -1.091572
v -2.418931 0.663548 -1.090365
v -2.411418 0.665492 -1.100731
vn 0.156500 0.827600 0.539100
vn 0.272700 0.890300 0.364600
vn 0.318100 0.863000 0.392400
vn 0.216400 0.806700 0.549900
vn 0.240900 0.796700 0.554200
vn 0.161900 0.830100 0.533600
vn 0.105600 0.850100 0.515900
vn 0.110000 0.878200 0.465300
vn 0.199800 0.926600 0.318600
vn 0.407800 0.892500 0.192400
vn 0.404000 0.892700 0.199600
vn 0.454700 0.852100 0.259300
vn 0.441000 0.864800 0.240000
vn 0.315200 0.931400 0.182200
vn 0.365700 0.917400 0.157100
vn 0.556400 0.726200 0.403700
vn 0.542100 0.717200 0.437800
vn 0.560900 0.694300 0.450900
vn 0.581800 0.703600 0.407900
vn 0.523900 0.683700 0.508000
vn 0.496900 0.713500 0.493900
vn 0.439900 0.769400 0.463100
vn 0.512700 0.777100 0.365000
vn 0.510100 0.764200 0.394600
vn 0.430300 0.693600 0.577700
vn 0.446500 0.668600 0.594600
vn 0.481200 0.673700 0.560900
vn 0.458800 0.695700 0.552600
vn 0.400100 0.735700 0.546400
vn 0.371200 0.740500 0.560200
vn 0.291000 0.783000 0.549800
vn 0.373200 0.824600 0.425100
vn 0.320500 0.772400 0.548300
vn 0.469400 0.829100 0.303600
vn 0.479500 0.813500 0.329000
vn 0.603700 0.695100 0.390300
vn 0.584900 0.682500 0.438100
vn 0.611800 0.672600 0.416100
vn 0.648900 0.654200 0.388400
vn 0.570200 0.627000 0.530800
vn 0.536400 0.669200 0.514200
vn 0.438800 0.652300 0.617900
vn 0.458800 0.605000 0.650700
vn 0.469200 0.635700 0.612900
vn 0.479200 0.655200 0.584000
vn -0.156700 -0.807000 -0.569400
vn -0.285300 -0.883100 -0.372400
vn -0.333300 -0.853000 -0.401500
vn -0.153100 -0.740100 -0.654800
vn -0.096100 -0.669700 -0.736400
vn -0.105000 -0.687600 -0.718400
vn -0.152400 -0.720100 -0.677000
vn -0.207900 -0.801000 -0.561400
vn -0.318000 -0.863100 -0.392300
vn -0.439600 -0.880100 -0.179200
vn -0.581800 -0.811100 -0.060500
vn -0.598700 -0.799800 -0.042900
vn -0.529200 -0.837500 -0.135700
vn -0.449900 -0.863600 -0.227500
vn -0.553200 -0.823800 -0.123900
vn -0.564000 -0.728100 -0.389400
vn -0.611800 -0.736900 -0.287400
vn -0.581700 -0.771400 -0.258000
vn -0.520300 -0.778100 -0.352000
vn -0.440000 -0.769300 -0.463100
vn -0.497000 -0.713400 -0.494000
vn -0.524000 -0.683600 -0.508000
vn -0.589200 -0.707200 -0.390600
vn -0.624300 -0.734600 -0.265700
vn -0.419200 -0.690700 -0.589300
vn -0.361400 -0.737000 -0.571200
vn -0.295300 -0.697300 -0.653100
vn -0.338500 -0.666200 -0.664500
vn -0.322800 -0.656600 -0.681600
vn -0.432200 -0.666600 -0.607300
vn -0.281800 -0.778800 -0.560400
vn -0.373200 -0.824600 -0.425100
vn -0.222800 -0.722100 -0.654900
vn -0.477000 -0.829200 -0.291100
vn -0.555500 -0.808000 -0.196100
vn -0.603900 -0.710300 -0.361600
vn -0.623600 -0.754700 -0.203700
vn -0.528900 -0.678000 -0.510400
vn -0.494900 -0.715500 -0.492900
vn -0.591200 -0.759000 -0.272500
vn -0.617700 -0.769100 -0.164200
vn -0.409500 -0.660000 -0.629800
vn -0.261500 -0.661000 -0.703300
vn -0.220400 -0.666300 -0.712300
vn -0.314100 -0.687400 -0.654900
vn -0.188800 -0.261300 0.946600
vn 0.172000 -0.449000 0.876800
vn -0.328100 -0.193600 0.924600
vn -0.617700 -0.769100 -0.164200
vn 0.760200 -0.635100 0.136800
vn 0.948900 -0.248600 -0.194400
vn 0.553400 -0.793800 0.252100
vn -0.220400 -0.666300 -0.712300
vn 0.376000 0.566300 -0.733500
vn 0.064300 0.647900 -0.758900
vn 0.549200 0.449500 -0.704500
vn -0.096100 -0.669700 -0.736400
vn -0.926800 0.375400 0.013000
vn -0.796800 0.425000 0.429300
vn -0.784500 0.367200 -0.499700
vn -0.598700 -0.799800 -0.042900
vn -0.657000 0.298900 0.692100
vn -0.553100 0.164100 0.816800
vn 0.486100 -0.706000 0.515000
vn 0.863100 0.011000 -0.505000
vn 0.785400 0.094400 -0.611700
vn -0.356100 0.523100 -0.774300
vn 0.645200 0.338600 -0.684800
vn 0.687300 0.262400 -0.677200
vn -0.484400 0.046400 0.873600
vn -0.450500 -0.031800 0.892200
vn -0.414000 -0.108900 0.903700
vn 0.723300 0.185200 -0.665200
vt 0.839504 0.118056
vt 0.856743 0.205307
vt 0.741230 0.205307
vt 0.734555 0.106726
vt 0.724541 0.032791
vt 0.813647 0.052618
vt 0.868992 0.081539
vt 0.913398 0.129584
vt 0.940923 0.205307
vt 0.839504 0.292557
vt 0.813647 0.357995
vt 0.724541 0.377822
vt 0.734555 0.303887
vt 0.913398 0.281029
vt 0.868992 0.329074
vt 0.369475 0.299954
vt 0.368286 0.370940
vt 0.245840 0.351447
vt 0.246397 0.288815
vt 0.246768 0.205307
vt 0.370268 0.205307
vt 0.494283 0.205307
vt 0.492822 0.304944
vt 0.490632 0.379672
vt 0.369475 0.110659
vt 0.246397 0.121798
vt 0.245841 0.059166
vt 0.368286 0.039673
vt 0.490632 0.030941
vt 0.492822 0.105669
vt 0.616755 0.103478
vt 0.619174 0.205307
vt 0.613127 0.027106
vt 0.616755 0.307135
vt 0.613126 0.383507
vt 0.123273 0.268175
vt 0.123047 0.315326
vt 0.054743 0.283353
vt 0.030912 0.249131
vt 0.030973 0.205306
vt 0.123423 0.205306
vt 0.123273 0.142438
vt 0.030912 0.161481
vt 0.054744 0.127260
vt 0.123047 0.095287
vt 0.839504 0.118056
vt 0.856743 0.205307
vt 0.968983 0.205307
vt 0.938030 0.133427
vt 0.876123 0.061548
vt 0.805028 0.030806
vt 0.721203 0.008146
vt 0.734555 0.106726
vt 0.741230 0.205307
vt 0.839504 0.292557
vt 0.805028 0.379807
vt 0.876123 0.349065
vt 0.938030 0.277186
vt 0.734555 0.303887
vt 0.721203 0.402467
vt 0.369475 0.299954
vt 0.367890 0.394602
vt 0.489902 0.404581
vt 0.492822 0.304944
vt 0.494283 0.205307
vt 0.370268 0.205307
vt 0.246768 0.205307
vt 0.246397 0.288815
vt 0.245655 0.372324
vt 0.369475 0.110659
vt 0.492822 0.105669
vt 0.489902 0.006032
vt 0.367890 0.016011
vt 0.245655 0.038289
vt 0.246397 0.121798
vt 0.616755 0.103478
vt 0.619174 0.205307
vt 0.611917 0.001649
vt 0.616755 0.307135
vt 0.611917 0.408964
vt 0.123273 0.268175
vt 0.122972 0.331043
vt 0.123423 0.205306
vt 0.000156 0.205306
vt 0.000125 0.242784
vt 0.000064 0.280261
vt 0.123273 0.142438
vt 0.122972 0.079570
vt 0.000064 0.130352
vt 0.000125 0.167829
vt 0.122972 0.331043
vt 0.030806 0.283587
vt 0.245655 0.372324
vt 0.030806 0.283587
vt 0.000125 0.167829
vt 0.030806 0.127026
vt 0.000156 0.205306
vt 0.030806 0.127026
vt 0.805028 0.030806
vt 0.873826 0.071832
vt 0.721203 0.008146
vt 0.873826 0.071832
vt 0.938030 0.277186
vt 0.873826 0.338781
vt 0.968983 0.205307
vt 0.873826 0.338781
vt 0.805028 0.379807
vt 0.721203 0.402467
vt 0.000125 0.242784
vt 0.122972 0.079570
vt 0.245655 0.038289
vt 0.938030 0.133427
vt 0.611917 0.001649
vt 0.489902 0.006032
vt 0.611917 0.408964
vt 0.489902 0.404581
vt 0.367890 0.394602
vt 0.367890 0.016011
f 1/1/1 2/2/2 3/3/3
f 1/1/1 3/3/3 4/4/4
f 1/1/1 4/4/4 5/5/5
f 1/1/1 5/5/5 6/6/6
f 1/1/1 6/6/6 7/7/7
f 1/1/1 7/7/7 8/8/8
f 1/1/1 8/8/8 9/9/9
f 1/1/1 9/9/9 2/2/2
f 10/10/10 11/11/11 12/12/12
f 10/10/10 12/12/12 13/13/13
f 10/10/10 13/13/13 3/3/3
f 10/10/10 3/3/3 2/2/2
f 10/10/10 2/2/2 9/9/9
f 10/10/10 9/9/9 14/14/14
f 10/10/10 14/14/14 15/15/15
f 10/10/10 15/15/15 11/11/11
f 16/16/16 17/17/17 18/18/18
f 16/16/16 18/18/18 19/19/19
f 16/16/16 19/19/19 20/20/20
f 16/16/16 20/20/20 21/21/21
f 16/16/16 21/21/21 22/22/22
f 16/16/16 22/22/22 23/23/23
f 16/16/16 23/23/23 24/24/24
f 16/16/16 24/24/24 17/17/17
f 25/25/25 21/21/21 20/20/20
f 25/25/25 20/20/20 26/26/26
f 25/25/25 26/26/26 27/27/27
f 25/25/25 27/27/27 28/28/28
f 25/25/25 28/28/28 29/29/29
f 25/25/25 29/29/29 30/30/30
f 25/25/25 30/30/30 22/22/22
f 25/25/25 22/22/22 21/21/21
f 31/31/31 32/32/32 22/22/22
f 31/31/31 22/22/22 30/30/30
f 31/31/31 30/30/30 29/29/29
f 31/31/31 29/29/29 33/33/33
f 31/31/31 33/33/33 5/5/5
f 31/31/31 5/5/5 4/4/4
f 31/31/31 4/4/4 3/3/3
f 31/31/31 3/3/3 32/32/32
f 34/34/34 35/35/35 24/24/24
f 34/34/34 24/24/24 23/23/23
f 34/34/34 23/23/23 22/22/22
f 34/34/34 22/22/22 32/32/32
f 34/34/34 32/32/32 3/3/3
f 34/34/34 3/3/3 13/13/13
f 34/34/34 13/13/13 12/12/12
f 34/34/34 12/12/12 35/35/35
f 36/36/36 37/37/37 38/38/38
f 36/36/36 38/38/38 39/39/39
f 36/36/36 39/39/39 40/40/40
f 36/36/36 40/40/40 41/41/41
f 36/36/36 41/41/41 20/20/20
f 36/36/36 20/20/20 19/19/19
f 36/36/36 19/19/19 18/18/18
f 36/36/36 18/18/18 37/37/37
f 42/42/42 41/41/41 40/40/40
f 42/42/42 40/40/40 43/43/43
f 42/42/42 43/43/43 44/44/44
f 42/42/42 44/44/44 45/45/45
f 42/42/42 45/45/45 27/27/27
f 42/42/42 27/27/27 26/26/26
f 42/42/42 26/26/26 20/20/20
f 42/42/42 20/20/20 41/41/41
f 46/46/46 47/47/47 48/48/48
f 46/46/46 48/48/48 49/49/49
f 46/46/46 49/49/49 50/50/50
f 46/46/46 50/50/50 51/51/51
f 46/46/46 51/51/51 52/52/52
f 46/46/46 52/52/52 53/53/53
f 46/46/46 53/53/53 54/54/54
f 46/46/46 54/54/54 47/47/47
f 55/55/55 56/56/56 57/57/57
f 55/55/55 57/57/57 58/58/58
f 55/55/55 58/58/58 48/48/48
f 55/55/55 48/48/48 47/47/47
f 55/55/55 47/47/47 54/54/54
f 55/55/55 54/54/54 59/59/59
f 55/55/55 59/59/59 60/60/60
f 55/55/55 60/60/60 56/56/56
f 61/61/61 62/62/62 63/63/63
f 61/61/61 63/63/63 64/64/64
f 61/61/61 64/64/64 65/65/65
f 61/61/61 65/65/65 66/66/66
f 61/61/61 66/66/66 67/67/67
f 61/61/61 67/67/67 68/68/68
f 61/61/61 68/68/68 69/69/69
f 61/61/61 69/69/69 62/62/62
f 70/70/70 66/66/66 65/65/65
f 70/70/70 65/65/65 71/71/71
f 70/70/70 71/71/71 72/72/72
f 70/70/70 72/72/72 73/73/73
f 70/70/70 73/73/73 74/74/74
f 70/70/70 74/74/74 75/75/75
f 70/70/70 75/75/75 67/67/67
f 70/70/70 67/67/67 66/66/66
f 76/76/76 77/77/77 54/54/54
f 76/76/76 54/54/54 53/53/53
f 76/76/76 53/53/53 52/52/52
f 76/76/76 52/52/52 78/78/78
f 76/76/76 78/78/78 72/72/72
f 76/76/76 72/72/72 71/71/71
f 76/76/76 71/71/71 65/65/65
f 76/76/76 65/65/65 77/77/77
f 79/79/79 80/80/80 60/60/60
f 79/79/79 60/60/60 59/59/59
f 79/79/79 59/59/59 54/54/54
f 79/79/79 54/54/54 77/77/77
f 79/79/79 77/77/77 65/65/65
f 79/79/79 65/65/65 64/64/64
f 79/79/79 64/64/64 63/63/63
f 79/79/79 63/63/63 80/80/80
f 81/81/81 82/82/82 69/69/69
f 81/81/81 69/69/69 68/68/68
f 81/81/81 68/68/68 67/67/67
f 81/81/81 67/67/67 83/83/83
f 81/81/81 83/83/83 84/84/84
f 81/81/81 84/84/84 85/85/85
f 81/81/81 85/85/85 86/86/86
f 81/81/81 86/86/86 82/82/82
f 87/87/87 83/83/83 67/67/67
f 87/87/87 67/67/67 75/75/75
f 87/87/87 75/75/75 74/74/74
f 87/87/87 74/74/74 88/88/88
f 87/87/87 88/88/88 89/89/89
f 87/87/87 89/89/89 90/90/90
f 87/87/87 90/90/90 84/84/84
f 87/87/87 84/84/84 83/83/83
f 91/91/91 92/92/92 38/38/38
f 91/91/91 38/38/38 37/37/37
f 91/91/91 37/37/37 18/18/18
f 91/91/91 18/18/18 93/93/93
f 91/91/91 93/93/93 69/69/69
f 91/91/91 69/69/69 82/82/82
f 91/91/91 82/82/82 94/94/94
f 91/91/91 94/94/94 92/92/92
f 95/95/95 96/96/96 44/44/44
f 95/95/95 44/44/44 43/43/43
f 95/95/95 43/43/43 40/40/40
f 95/95/95 40/40/40 97/97/97
f 95/95/95 97/97/97 84/84/84
f 95/95/95 84/84/84 90/90/90
f 95/95/95 90/90/90 98/98/98
f 95/95/95 98/98/98 96/96/96
f 99/99/99 100/100/100 7/7/7
f 99/99/99 7/7/7 6/6/6
f 99/99/99 6/6/6 5/5/5
f 99/99/99 5/5/5 101/101/101
f 99/99/99 101/101/101 52/52/52
f 99/99/99 52/52/52 51/51/51
f 99/99/99 51/51/51 102/102/102
f 99/99/99 102/102/102 100/100/100
f 103/103/103 104/104/104 15/15/15
f 103/103/103 15/15/15 14/14/14
f 103/103/103 14/14/14 9/9/9
f 103/103/103 9/9/9 105/105/105
f 103/103/103 105/105/105 48/48/48
f 103/103/103 48/48/48 58/58/58
f 103/103/103 58/58/58 106/106/106
f 103/103/103 106/106/106 104/104/104
f 107/107/107 108/108/108 12/12/12
f 107/107/107 12/12/12 11/11/11
f 107/107/107 11/11/11 15/15/15
f 107/107/107 15/15/15 104/104/104
f 107/107/107 104/104/104 106/106/106
f 107/107/107 106/106/106 56/56/56
f 107/107/107 56/56/56 60/60/60
f 107/107/107 60/60/60 108/108/108
f 109/109/109 97/97/97 40/40/40
f 109/109/109 40/40/40 39/39/39
f 109/109/109 39/39/39 38/38/38
f 109/109/109 38/38/38 92/92/92
f 109/109/109 92/92/92 94/94/94
f 109/109/109 94/94/94 85/85/85
f 109/109/109 85/85/85 84/84/84
f 109/109/109 84/84/84 97/97/97
f 110/110/110 111/111/111 27/27/27
f 110/110/110 27/27/27 45/45/45
f 110/110/110 45/45/45 44/44/44
f 110/110/110 44/44/44 96/96/96
f 110/110/110 96/96/96 98/98/98
f 110/110/110 98/98/98 88/88/88
f 110/110/110 88/88/88 74/74/74
f 110/110/110 74/74/74 111/111/111
f 112/112/112 105/105/105 9/9/9
f 112/112/112 9/9/9 8/8/8
f 112/112/112 8/8/8 7/7/7
f 112/112/112 7/7/7 100/100/100
f 112/112/112 100/100/100 102/102/102
f 112/112/112 102/102/102 49/49/49
f 112/112/112 49/49/49 48/48/48
f 112/112/112 48/48/48 105/105/105
f 113/113/113 101/101/101 5/5/5
f 113/113/113 5/5/5 33/33/33
f 113/113/113 33/33/33 29/29/29
f 113/113/113 29/29/29 114/114/114
f 113/113/113 114/114/114 72/72/72
f 113/113/113 72/72/72 78/78/78
f 113/113/113 78/78/78 52/52/52
f 113/113/113 52/52/52 101/101/101
f 115/115/115 116/116/116 24/24/24
f 115/115/115 24/24/24 35/35/35
f 115/115/115 35/35/35 12/12/12
f 115/115/115 12/12/12 108/108/108
f 115/115/115 108/108/108 60/60/60
f 115/115/115 60/60/60 80/80/80
f 115/115/115 80/80/80 63/63/63
f 115/115/115 63/63/63 116/116/116
f 117/117/117 93/93/93 18/18/18
f 117/117/117 18/18/18 17/17/17
f 117/117/117 17/17/17 24/24/24
f 117/117/117 24/24/24 116/116/116
f 117/117/117 116/116/116 63/63/63
f 117/117/117 63/63/63 62/62/62
f 117/117/117 62/62/62 69/69/69
f 117/117/117 69/69/69 93/93/93
f 118/118/118 114/114/114 29/29/29
f 118/118/118 29/29/29 28/28/28
f 118/118/118 28/28/28 27/27/27
f 118/118/118 27/27/27 111/111/111
f 118/118/118 111/111/111 74/74/74
f 118/118/118 74/74/74 73/73/73
f 118/118/118 73/73/73 72/72/72
f 118/118/118 72/72/72 114/114/114
