v -2.413812 0.667827 -1.064749
v -2.411607 0.668153 -1.063981
v -2.411171 0.667866 -1.067075
v -2.413707 0.667463 -1.067598
v -2.415656 0.667362 -1.068164
v -2.415486 0.667775 -1.065709
v -2.414912 0.667906 -1.064096
v -2.413771 0.667988 -1.062706
v -2.411899 0.668260 -1.061701
v -2.409456 0.669078 -1.064251
v -2.407847 0.669970 -1.064836
v -2.406978 0.669855 -1.067172
v -2.408757 0.668886 -1.067032
v -2.410001 0.669071 -1.062275
v -2.408726 0.669684 -1.063389
v -2.407013 0.666336 -1.076359
v -2.405238 0.667080 -1.076269
v -2.405002 0.665588 -1.079297
v -2.406569 0.664919 -1.079367
v -2.408679 0.664147 -1.079528
v -2.409401 0.665475 -1.076549
v -2.410072 0.666591 -1.073488
v -2.407579 0.667514 -1.073296
v -2.405731 0.668324 -1.073215
v -2.411864 0.664943 -1.076913
v -2.410859 0.663686 -1.079857
v -2.412519 0.663428 -1.080156
v -2.413738 0.664638 -1.077241
v -2.414622 0.665770 -1.074231
v -2.412653 0.666056 -1.073876
v -2.413295 0.666885 -1.070705
v -2.410661 0.667367 -1.070287
v -2.415314 0.666686 -1.071105
v -2.408146 0.668364 -1.070117
v -2.406291 0.669278 -1.070074
v -2.406370 0.663348 -1.082383
v -2.405208 0.663895 -1.082358
v -2.405605 0.662768 -1.084045
v -2.406302 0.662086 -1.084635
v -2.407365 0.661620 -1.084677
v -2.407936 0.662736 -1.082483
v -2.409571 0.662428 -1.082749
v -2.408496 0.661456 -1.084886
v -2.409552 0.661634 -1.084496
v -2.410822 0.662282 -1.082999
v -2.413782 0.667585 -1.064713
v -2.411544 0.667919 -1.063941
v -2.411851 0.668084 -1.061674
v -2.413750 0.667806 -1.062682
v -2.414904 0.667771 -1.064079
v -2.415481 0.667591 -1.065684
v -2.415647 0.667180 -1.068130
v -2.413676 0.667223 -1.067551
v -2.411110 0.667632 -1.067026
v -2.409361 0.668855 -1.064207
v -2.407760 0.669810 -1.064801
v -2.408665 0.669563 -1.063366
v -2.409927 0.668905 -1.062245
v -2.408667 0.668662 -1.066979
v -2.406896 0.669694 -1.067130
v -2.406939 0.666121 -1.076262
v -2.405173 0.666922 -1.076196
v -2.405661 0.668164 -1.073151
v -2.407501 0.667294 -1.073212
v -2.410016 0.666364 -1.073406
v -2.409348 0.665252 -1.076454
v -2.408628 0.663928 -1.079424
v -2.406497 0.664706 -1.079262
v -2.404937 0.665433 -1.079217
v -2.411832 0.664715 -1.076821
v -2.412620 0.665824 -1.073797
v -2.414608 0.665594 -1.074174
v -2.413724 0.664465 -1.077173
v -2.412508 0.663258 -1.080082
v -2.410829 0.663462 -1.079757
v -2.413261 0.666648 -1.070644
v -2.410602 0.667136 -1.070222
v -2.415302 0.666506 -1.071060
v -2.408062 0.668142 -1.070049
v -2.406216 0.669117 -1.070021
v -2.406297 0.663138 -1.082274
v -2.405143 0.663742 -1.082275
v -2.407886 0.662518 -1.082376
v -2.407327 0.661457 -1.084596
v -2.406246 0.661929 -1.084553
v -2.405559 0.662654 -1.083984
v -2.409544 0.662205 -1.082645
v -2.410813 0.662113 -1.082923
v -2.409542 0.661509 -1.084439
v -2.408476 0.661289 -1.084808
v -2.404790 0.664010 -1.082312
v -2.405454 0.662486 -1.084620
v -2.404448 0.665743 -1.079238
v -2.405559 0.662654 -1.083984
v -2.408129 0.661058 -1.085563
v -2.409408 0.661350 -1.085072
v -2.407158 0.661175 -1.085372
v -2.409542 0.661509 -1.084439
v -2.416045 0.667676 -1.066018
v -2.415197 0.667892 -1.063998
v -2.416305 0.667247 -1.068338
v -2.414904 0.667771 -1.064079
v -2.410149 0.668995 -1.061604
v -2.408504 0.669815 -1.063233
v -2.411974 0.668217 -1.060930
v -2.408665 0.669563 -1.063366
v -2.407268 0.670197 -1.065015
v -2.406345 0.670108 -1.067199
v -2.406255 0.661596 -1.085349
v -2.411237 0.662158 -1.083049
v -2.413070 0.663266 -1.080223
v -2.413748 0.667961 -1.062015
v -2.415985 0.666539 -1.071218
v -2.415274 0.665596 -1.074324
v -2.405637 0.669512 -1.070036
v -2.405081 0.668524 -1.073160
v -2.404615 0.667258 -1.076207
v -2.414359 0.664459 -1.077320
vn -0.047200 0.993700 -0.102100
vn -0.263200 0.958700 -0.107700
vn -0.254600 0.952500 -0.166600
vn -0.061500 0.984500 -0.164100
vn -0.066900 0.979500 -0.189900
vn -0.055100 0.993100 -0.103500
vn -0.047300 0.998000 -0.041900
vn -0.099000 0.995000 -0.015500
vn -0.274500 0.961500 -0.014900
vn -0.460900 0.874800 -0.149400
vn -0.453800 0.878500 -0.149100
vn -0.418900 0.878400 -0.230100
vn -0.431300 0.878300 -0.206400
vn -0.436800 0.897900 -0.054000
vn -0.475500 0.875000 -0.090900
vn -0.311400 0.853900 -0.417000
vn -0.275100 0.863900 -0.421900
vn -0.265400 0.852300 -0.450700
vn -0.311700 0.838200 -0.447400
vn -0.199500 0.872200 -0.446600
vn -0.208700 0.888600 -0.408300
vn -0.225800 0.916800 -0.329300
vn -0.339100 0.874200 -0.347500
vn -0.310400 0.879000 -0.361800
vn -0.103700 0.913500 -0.393300
vn -0.088900 0.902200 -0.421900
vn -0.133900 0.890100 -0.435600
vn -0.138000 0.903300 -0.406300
vn -0.129300 0.931100 -0.341100
vn -0.106100 0.941100 -0.320900
vn -0.090300 0.967800 -0.235000
vn -0.242700 0.940100 -0.239400
vn -0.102100 0.959400 -0.262700
vn -0.384000 0.883400 -0.268500
vn -0.364100 0.884200 -0.292700
vn -0.332300 0.822600 -0.461300
vn -0.282100 0.836600 -0.469400
vn -0.308000 0.817700 -0.486200
vn -0.339600 0.789100 -0.511700
vn -0.182300 0.838600 -0.513300
vn -0.195100 0.863900 -0.464300
vn -0.060800 0.900600 -0.430300
vn -0.026700 0.879100 -0.475900
vn -0.073100 0.885300 -0.459200
vn -0.107900 0.886800 -0.449400
vn 0.016100 -0.992500 0.121500
vn 0.260900 -0.957400 0.123900
vn 0.251500 -0.949700 0.186500
vn -0.077300 -0.981500 0.175100
vn -0.197600 -0.963000 0.183100
vn -0.172100 -0.968900 0.177600
vn -0.102800 -0.976300 0.190300
vn 0.046100 -0.985400 0.163500
vn 0.254600 -0.952600 0.166500
vn 0.481800 -0.858700 0.174700
vn 0.613300 -0.743200 0.267300
vn 0.630000 -0.725200 0.277700
vn 0.542000 -0.803500 0.246000
vn 0.444600 -0.871000 0.209100
vn 0.557200 -0.786700 0.265700
vn 0.326700 -0.848200 0.416800
vn 0.430300 -0.803300 0.411700
vn 0.451100 -0.815400 0.362900
vn 0.353000 -0.868400 0.348200
vn 0.225700 -0.916800 0.329400
vn 0.208600 -0.888600 0.408500
vn 0.199500 -0.872100 0.446700
vn 0.329900 -0.832400 0.445300
vn 0.451700 -0.790300 0.413800
vn 0.088200 -0.916700 0.389600
vn 0.091400 -0.943600 0.318300
vn -0.020400 -0.950800 0.309000
vn -0.019800 -0.932600 0.360200
vn -0.044700 -0.933000 0.357100
vn 0.071300 -0.906700 0.415700
vn 0.075900 -0.969500 0.233000
vn 0.242700 -0.940100 0.239300
vn -0.048900 -0.969400 0.240300
vn 0.397200 -0.877200 0.269700
vn 0.498700 -0.812100 0.302900
vn 0.360100 -0.820100 0.444600
vn 0.505700 -0.774100 0.380900
vn 0.197800 -0.869000 0.453600
vn 0.209300 -0.889800 0.405500
vn 0.440000 -0.813100 0.381000
vn 0.537700 -0.764800 0.354700
vn 0.040100 -0.912100 0.408000
vn -0.090700 -0.945500 0.312600
vn -0.116600 -0.952900 0.279900
vn -0.016300 -0.944200 0.328900
vn 0.906100 0.276600 -0.320100
vn 0.747900 0.096900 -0.656600
vn 0.933300 0.315400 -0.171500
vn 0.537700 -0.764800 0.354700
vn -0.020700 -0.428600 -0.903200
vn -0.531000 -0.270600 -0.803000
vn 0.240800 -0.510500 -0.825500
vn -0.116600 -0.952900 0.279900
vn -0.980600 0.103400 0.166400
vn -0.871800 0.144700 0.468000
vn -0.999100 0.028100 -0.030000
vn -0.197600 -0.963000 0.183100
vn 0.330800 0.281900 0.900600
vn 0.546100 0.552200 0.630000
vn -0.115600 0.007700 0.993300
vn 0.630000 -0.725200 0.277700
vn 0.720500 0.592300 0.360700
vn 0.816200 0.549700 0.177500
vn 0.430200 -0.299000 -0.851700
vn -0.826200 -0.221100 -0.518100
vn -0.900200 -0.211300 -0.380800
vn -0.608800 0.011900 0.793200
vn -0.986700 -0.050600 -0.154300
vn -0.970000 -0.109000 -0.217200
vn 0.873300 0.483700 0.058100
vn 0.903200 0.429300 -0.002900
vn 0.926100 0.371900 -0.063000
vn -0.946300 -0.166100 -0.277200
vt 0.839504 0.118056
vt 0.856743 0.205307
vt 0.741230 0.205307
vt 0.734555 0.106726
vt 0.724541 0.032791
vt 0.813647 0.052618
vt 0.868992 0.081539
vt 0.913398 0.129584
vt 0.940923 0.205307
vt 0.839504 0.292557
vt 0.813647 0.357995
vt 0.724541 0.377822
vt 0.734555 0.303887
vt 0.913398 0.281029
vt 0.868992 0.329074
vt 0.369475 0.299954
vt 0.368286 0.370940
vt 0.245840 0.351447
vt 0.246397 0.288815
vt 0.246768 0.205307
vt 0.370268 0.205307
vt 0.494283 0.205307
vt 0.492822 0.304944
vt 0.490632 0.379672
vt 0.369475 0.110659
vt 0.246397 0.121798
vt 0.245841 0.059166
vt 0.368286 0.039673
vt 0.490632 0.030941
vt 0.492822 0.105669
vt 0.616755 0.103478
vt 0.619174 0.205307
vt 0.613127 0.027106
vt 0.616755 0.307135
vt 0.613126 0.383507
vt 0.123273 0.268175
vt 0.123047 0.315326
vt 0.054743 0.283353
vt 0.030912 0.249131
vt 0.030973 0.205306
vt 0.123423 0.205306
vt 0.123273 0.142438
vt 0.030912 0.161481
vt 0.054744 0.127260
vt 0.123047 0.095287
vt 0.839504 0.118056
vt 0.856743 0.205307
vt 0.968983 0.205307
vt 0.938030 0.133427
vt 0.876123 0.061548
vt 0.805028 0.030806
vt 0.721203 0.008146
vt 0.734555 0.106726
vt 0.741230 0.205307
vt 0.839504 0.292557
vt 0.805028 0.379807
vt 0.876123 0.349065
vt 0.938030 0.277186
vt 0.734555 0.303887
vt 0.721203 0.402467
vt 0.369475 0.299954
vt 0.367890 0.394602
vt 0.489902 0.404581
vt 0.492822 0.304944
vt 0.494283 0.205307
vt 0.370268 0.205307
vt 0.246768 0.205307
vt 0.246397 0.288815
vt 0.245655 0.372324
vt 0.369475 0.110659
vt 0.492822 0.105669
vt 0.489902 0.006032
vt 0.367890 0.016011
vt 0.245655 0.038289
vt 0.246397 0.121798
vt 0.616755 0.103478
vt 0.619174 0.205307
vt 0.611917 0.001649
vt 0.616755 0.307135
vt 0.611917 0.408964
vt 0.123273 0.268175
vt 0.122972 0.331043
vt 0.123423 0.205306
vt 0.000156 0.205306
vt 0.000125 0.242784
vt 0.000064 0.280261
vt 0.123273 0.142438
vt 0.122972 0.079570
vt 0.000064 0.130352
vt 0.000125 0.167829
vt 0.122972 0.331043
vt 0.030806 0.283587
vt 0.245655 0.372324
vt 0.030806 0.283587
vt 0.000125 0.167829
vt 0.030806 0.127026
vt 0.000156 0.205306
vt 0.030806 0.127026
vt 0.805028 0.030806
vt 0.873826 0.071832
vt 0.721203 0.008146
vt 0.873826 0.071832
vt 0.938030 0.277186
vt 0.873826 0.338781
vt 0.968983 0.205307
vt 0.873826 0.338781
vt 0.805028 0.379807
vt 0.721203 0.402467
vt 0.000125 0.242784
vt 0.122972 0.079570
vt 0.245655 0.038289
vt 0.938030 0.133427
vt 0.611917 0.001649
vt 0.489902 0.006032
vt 0.611917 0.408964
vt 0.489902 0.404581
vt 0.367890 0.394602
vt 0.367890 0.016011
f 1/1/1 2/2/2 3/3/3
f 1/1/1 3/3/3 4/4/4
f 1/1/1 4/4/4 5/5/5
f 1/1/1 5/5/5 6/6/6
f 1/1/1 6/6/6 7/7/7
f 1/1/1 7/7/7 8/8/8
f 1/1/1 8/8/8 9/9/9
f 1/1/1 9/9/9 2/2/2
f 10/10/10 11/11/11 12/12/12
f 10/10/10 12/12/12 13/13/13
f 10/10/10 13/13/13 3/3/3
f 10/10/10 3/3/3 2/2/2
f 10/10/10 2/2/2 9/9/9
f 10/10/10 9/9/9 14/14/14
f 10/10/10 14/14/14 15/15/15
f 10/10/10 15/15/15 11/11/11
f 16/16/16 17/17/17 18/18/18
f 16/16/16 18/18/18 19/19/19
f 16/16/16 19/19/19 20/20/20
f 16/16/16 20/20/20 21/21/21
f 16/16/16 21/21/21 22/22/22
f 16/16/16 22/22/22 23/23/23
f 16/16/16 23/23/23 24/24/24
f 16/16/16 24/24/24 17/17/17
f 25/25/25 21/21/21 20/20/20
f 25/25/25 20/20/20 26/26/26
f 25/25/25 26/26/26 27/27/27
f 25/25/25 27/27/27 28/28/28
f 25/25/25 28/28/28 29/29/29
f 25/25/25 29/29/29 30/30/30
f 25/25/25 30/30/30 22/22/22
f 25/25/25 22/22/22 21/21/21
f 31/31/31 32/32/32 22/22/22
f 31/31/31 22/22/22 30/30/30
f 31/31/31 30/30/30 29/29/29
f 31/31/31 29/29/29 33/33/33
f 31/31/31 33/33/33 5/5/5
f 31/31/31 5/5/5 4/4/4
f 31/31/31 4/4/4 3/3/3
f 31/31/31 3/3/3 32/32/32
f 34/34/34 35/35/35 24/24/24
f 34/34/34 24/24/24 23/23/23
f 34/34/34 23/23/23 22/22/22
f 34/34/34 22/22/22 32/32/32
f 34/34/34 32/32/32 3/3/3
f 34/34/34 3/3/3 13/13/13
f 34/34/34 13/13/13 12/12/12
f 34/34/34 12/12/12 35/35/35
f 36/36/36 37/37/37 38/38/38
f 36/36/36 38/38/38 39/39/39
f 36/36/36 39/39/39 40/40/40
f 36/36/36 40/40/40 41/41/41
f 36/36/36 41/41/41 20/20/20
f 36/36/36 20/20/20 19/19/19
f 36/36/36 19/19/19 18/18/18
f 36/36/36 18/18/18 37/37/37
f 42/42/42 41/41/41 40/40/40
f 42/42/42 40/40/40 43/43/43
f 42/42/42 43/43/43 44/44/44
f 42/42/42 44/44/44 45/45/45
f 42/42/42 45/45/45 27/27/27
f 42/42/42 27/27/27 26/26/26
f 42/42/42 26/26/26 20/20/20
f 42/42/42 20/20/20 41/41/41
f 46/46/46 47/47/47 48/48/48
f 46/46/46 48/48/48 49/49/49
f 46/46/46 49/49/49 50/50/50
f 46/46/46 50/50/50 51/51/51
f 46/46/46 51/51/51 52/52/52
f 46/46/46 52/52/52 53/53/53
f 46/46/46 53/53/53 54/54/54
f 46/46/46 54/54/54 47/47/47
f 55/55/55 56/56/56 57/57/57
f 55/55/55 57/57/57 58/58/58
f 55/55/55 58/58/58 48/48/48
f 55/55/55 48/48/48 47/47/47
f 55/55/55 47/47/47 54/54/54
f 55/55/55 54/54/54 59/59/59
f 55/55/55 59/59/59 60/60/60
f 55/55/55 60/60/60 56/56/56
f 61/61/61 62/62/62 63/63/63
f 61/61/61 63/63/63 64/64/64
f 61/61/61 64/64/64 65/65/65
f 61/61/61 65/65/65 66/66/66
f 61/61/61 66/66/66 67/67/67
f 61/61/61 67/67/67 68/68/68
f 61/61/61 68/68/68 69/69/69
f 61/61/61 69/69/69 62/62/62
f 70/70/70 66/66/66 65/65/65
f 70/70/70 65/65/65 71/71/71
f 70/70/70 71/71/71 72/72/72
f 70/70/70 72/72/72 73/73/73
f 70/70/70 73/73/73 74/74/74
f 70/70/70 74/74/74 75/75/75
f 70/70/70 75/75/75 67/67/67
f 70/70/70 67/67/67 66/66/66
f 76/76/76 77/77/77 54/54/54
f 76/76/76 54/54/54 53/53/53
f 76/76/76 53/53/53 52/52/52
f 76/76/76 52/52/52 78/78/78
f 76/76/76 78/78/78 72/72/72
f 76/76/76 72/72/72 71/71/71
f 76/76/76 71/71/71 65/65/65
f 76/76/76 65/65/65 77/77/77
f 79/79/79 80/80/80 60/60/60
f 79/79/79 60/60/60 59/59/59
f 79/79/79 59/59/59 54/54/54
f 79/79/79 54/54/54 77/77/77
f 79/79/79 77/77/77 65/65/65
f 79/79/79 65/65/65 64/64/64
f 79/79/79 64/64/64 63/63/63
f 79/79/79 63/63/63 80/80/80
f 81/81/81 82/82/82 69/69/69
f 81/81/81 69/69/69 68/68/68
f 81/81/81 68/68/68 67/67/67
f 81/81/81 67/67/67 83/83/83
f 81/81/81 83/83/83 84/84/84
f 81/81/81 84/84/84 85/85/85
f 81/81/81 85/85/85 86/86/86
f 81/81/81 86/86/86 82/82/82
f 87/87/87 83/83/83 67/67/67
f 87/87/87 67/67/67 75/75/75
f 87/87/87 75/75/75 74/74/74
f 87/87/87 74/74/74 88/88/88
f 87/87/87 88/88/88 89/89/89
f 87/87/87 89/89/89 90/90/90
f 87/87/87 90/90/90 84/84/84
f 87/87/87 84/84/84 83/83/83
f 91/91/91 92/92/92 38/38/38
f 91/91/91 38/38/38 37/37/37
f 91/91/91 37/37/37 18/18/18
f 91/91/91 18/18/18 93/93/93
f 91/91/91 93/93/93 69/69/69
f 91/91/91 69/69/69 82/82/82
f 91/91/91 82/82/82 94/94/94
f 91/91/91 94/94/94 92/92/92
f 95/95/95 96/96/96 44/44/44
f 95/95/95 44/44/44 43/43/43
f 95/95/95 43/43/43 40/40/40
f 95/95/95 40/40/40 97/97/97
f 95/95/95 97/97/97 84/84/84
f 95/95/95 84/84/84 90/90/90
f 95/95/95 90/90/90 98/98/98
f 95/95/95 98/98/98 96/96/96
f 99/99/99 100/100/100 7/7/7
f 99/99/99 7/7/7 6/6/6
f 99/99/99 6/6/6 5/5/5
f 99/99/99 5/5/5 101/101/101
f 99/99/99 101/101/101 52/52/52
f 99/99/99 52/52/52 51/51/51
f 99/99/99 51/51/51 102/102/102
f 99/99/99 102/102/102 100/100/100
f 103/103/103 104/104/104 15/15/15
f 103/103/103 15/15/15 14/14/14
f 103/103/103 14/14/14 9/9/9
f 103/103/103 9/9/9 105/105/105
f 103/103/103 105/105/105 48/48/48
f 103/103/103 48/48/48 58/58/58
f 103/103/103 58/58/58 106/106/106
f 103/103/103 106/106/106 104/104/104
f 107/107/107 108/108/108 12/12/12
f 107/107/107 12/12/12 11/11/11
f 107/107/107 11/11/11 15/15/15
f 107/107/107 15/15/15 104/104/104
f 107/107/107 104/104/104 106/106/106
f 107/107/107 106/106/106 56/56/56
f 107/107/107 56/56/56 60/60/60
f 107/107/107 60/60/60 108/108/108
f 109/109/109 97/97/97 40/40/40
f 109/109/109 40/40/40 39/39/39
f 109/109/109 39/39/39 38/38/38
f 109/109/109 38/38/38 92/92/92
f 109/109/109 92/92/92 94/94/94
f 109/109/109 94/94/94 85/85/85
f 109/109/109 85/85/85 84/84/84
f 109/109/109 84/84/84 97/97/97
f 110/110/110 111/111/111 27/27/27
f 110/110/110 27/27/27 45/45/45
f 110/110/110 45/45/45 44/44/44
f 110/110/110 44/44/44 96/96/96
f 110/110/110 96/96/96 98/98/98
f 110/110/110 98/98/98 88/88/88
f 110/110/110 88/88/88 74/74/74
f 110/110/110 74/74/74 111/111/111
f 112/112/112 105/105/105 9/9/9
f 112/112/112 9/9/9 8/8/8
f 112/112/112 8/8/8 7/7/7
f 112/112/112 7/7/7 100/100/100
f 112/112/112 100/100/100 102/102/102
f 112/112/112 102/102/102 49/49/49
f 112/112/112 49/49/49 48/48/48
f 112/112/112 48/48/48 105/105/105
f 113/113/113 101/101/101 5/5/5
f 113/113/113 5/5/5 33/33/33
f 113/113/113 33/33/33 29/29/29
f 113/113/113 29/29/29 114/114/114
f 113/113/113 114/114/114 72/72/72
f 113/113/113 72/72/72 78/78/78
f 113/113/113 78/78/78 52/52/52
f 113/113/113 52/52/52 101/101/101
f 115/115/115 116/116/116 24/24/24
f 115/115/115 24/24/24 35/35/35
f 115/115/115 35/35/35 12/12/12
f 115/115/115 12/12/12 108/108/108
f 115/115/115 108/108/108 60/60/60
f 115/115/115 60/60/60 80/80/80
f 115/115/115 80/80/80 63/63/63
f 115/115/115 63/63/63 116/116/116
f 117/117/117 93/93/93 18/18/18
f 117/117/117 18/18/18 17/17/17
f 117/117/117 17/17/17 24/24/24
f 117/117/117 24/24/24 116/116/116
f 117/117/117 116/116/116 63/63/63
f 117/117/117 63/63/63 62/62/62
f 117/117/117 62/62/62 69/69/69
f 117/117/117 69/69/69 93/93/93
f 118/118/118 114/114/114 29/29/29
f 118/118/118 29/29/29 28/28/28
f 118/118/118 28/28/28 27/27/27
f 118/118/118 27/27/27 111/111/111
f 118/118/118 111/111/111 74/74/74
f 118/118/118 74/74/74 73/73/73
f 118/118/118 73/73/73 72/72/72
f 118/118/118 72/72/72 114/114/114
