v -2.391663 0.801242 -1.165239
v -2.392235 0.801686 -1.167172
v -2.394348 0.800160 -1.166300
v -2.393442 0.799778 -1.164225
v -2.392935 0.799576 -1.162532
v -2.391553 0.800900 -1.163586
v -2.390790 0.801636 -1.164653
v -2.390398 0.802210 -1.166069
v -2.390650 0.802729 -1.167855
v -2.393697 0.802165 -1.168550
v -2.395119 0.802519 -1.169393
v -2.396987 0.801415 -1.169128
v -2.395754 0.800827 -1.167988
v -2.392159 0.803009 -1.168935
v -2.393678 0.802947 -1.169356
v -2.401660 0.794906 -1.165956
v -2.402654 0.795415 -1.167222
v -2.404173 0.793001 -1.166418
v -2.403285 0.792545 -1.165306
v -2.402183 0.792004 -1.163761
v -2.400423 0.794300 -1.164202
v -2.398550 0.796463 -1.164750
v -2.399855 0.797112 -1.166574
v -2.400911 0.797665 -1.167881
v -2.399395 0.793878 -1.162268
v -2.401282 0.791636 -1.162045
v -2.400663 0.791408 -1.160704
v -2.398685 0.793614 -1.160761
v -2.396760 0.795781 -1.161122
v -2.397485 0.796037 -1.162716
v -2.395442 0.798023 -1.163376
v -2.396489 0.798418 -1.165470
v -2.394757 0.797819 -1.161712
v -2.397846 0.799114 -1.167290
v -2.398970 0.799731 -1.168570
v -2.404751 0.790076 -1.164492
v -2.405446 0.790442 -1.165297
v -2.405951 0.788899 -1.164496
v -2.405776 0.788169 -1.163837
v -2.405165 0.787853 -1.163087
v -2.403905 0.789652 -1.163360
v -2.403256 0.789397 -1.162059
v -2.404751 0.787704 -1.162170
v -2.404108 0.788062 -1.161495
v -2.402825 0.789253 -1.161030
v -2.391559 0.801069 -1.165315
v -2.392145 0.801518 -1.167274
v -2.390585 0.802601 -1.167930
v -2.390322 0.802078 -1.166124
v -2.390730 0.801538 -1.164688
v -2.391467 0.800768 -1.163630
v -2.392847 0.799449 -1.162581
v -2.393333 0.799610 -1.164307
v -2.394252 0.799997 -1.166404
v -2.393623 0.802006 -1.168676
v -2.395072 0.802405 -1.169499
v -2.393642 0.802860 -1.169431
v -2.392107 0.802888 -1.169030
v -2.395672 0.800672 -1.168114
v -2.396932 0.801303 -1.169233
v -2.401546 0.794776 -1.166086
v -2.402573 0.795320 -1.167327
v -2.400838 0.797564 -1.167985
v -2.399749 0.796973 -1.166702
v -2.398433 0.796319 -1.164861
v -2.400298 0.794164 -1.164317
v -2.402053 0.791875 -1.163877
v -2.403165 0.792421 -1.165438
v -2.404088 0.792911 -1.166525
v -2.399261 0.793739 -1.162367
v -2.397359 0.795889 -1.162811
v -2.396661 0.795668 -1.161184
v -2.398580 0.793508 -1.160826
v -2.400554 0.791306 -1.160770
v -2.401143 0.791503 -1.162145
v -2.395325 0.797864 -1.163465
v -2.396383 0.798264 -1.165579
v -2.394664 0.797699 -1.161768
v -2.397752 0.798966 -1.167417
v -2.398906 0.799624 -1.168675
v -2.404629 0.789955 -1.164625
v -2.405361 0.790355 -1.165405
v -2.403772 0.789526 -1.163476
v -2.405065 0.787758 -1.163175
v -2.405685 0.788079 -1.163938
v -2.405886 0.788833 -1.164574
v -2.403114 0.789267 -1.162158
v -2.402714 0.789153 -1.161095
v -2.404027 0.787989 -1.161546
v -2.404644 0.787606 -1.162243
v -2.405641 0.790526 -1.165615
v -2.406286 0.788435 -1.164424
v -2.404433 0.793113 -1.166838
v -2.405886 0.788833 -1.164574
v -2.405202 0.787096 -1.162239
v -2.404439 0.787597 -1.161418
v -2.405540 0.787211 -1.163036
v -2.404027 0.787989 -1.161546
v -2.391476 0.800727 -1.163052
v -2.390597 0.801681 -1.164479
v -2.392725 0.799452 -1.161987
v -2.390730 0.801538 -1.164688
v -2.391624 0.803236 -1.169106
v -2.393722 0.803100 -1.169566
v -2.390093 0.803019 -1.168116
v -2.393642 0.802860 -1.169431
v -2.395574 0.802587 -1.169724
v -2.397375 0.801562 -1.169557
v -2.406077 0.787494 -1.163664
v -2.402631 0.789160 -1.160714
v -2.400408 0.791286 -1.160284
v -2.389943 0.802473 -1.166370
v -2.394486 0.797697 -1.161179
v -2.396473 0.795645 -1.160617
v -2.399317 0.799890 -1.169045
v -2.401232 0.797805 -1.168365
v -2.402950 0.795543 -1.167692
v -2.398401 0.793478 -1.160285
vn -0.490300 0.828300 0.270900
vn -0.372800 0.808900 0.454500
vn -0.418600 0.775100 0.473200
vn -0.525900 0.791900 0.310300
vn -0.540400 0.775600 0.326000
vn -0.487200 0.827700 0.278500
vn -0.446900 0.860600 0.244200
vn -0.400400 0.873700 0.276300
vn -0.298800 0.855800 0.422200
vn -0.269800 0.728200 0.629900
vn -0.274800 0.731200 0.624300
vn -0.352700 0.690500 0.631400
vn -0.328700 0.702400 0.631200
vn -0.220300 0.792100 0.569200
vn -0.218800 0.757100 0.615500
vn -0.535300 0.573800 0.619800
vn -0.561300 0.577900 0.592400
vn -0.582500 0.553600 0.595100
vn -0.551100 0.545700 0.631200
vn -0.620700 0.568700 0.539800
vn -0.594700 0.601800 0.533000
vn -0.539300 0.665000 0.516600
vn -0.478400 0.626200 0.615500
vn -0.505400 0.621900 0.598200
vn -0.646000 0.624000 0.439600
vn -0.669800 0.599600 0.437900
vn -0.652700 0.585300 0.481000
vn -0.634400 0.611000 0.473500
vn -0.601900 0.665700 0.440900
vn -0.602600 0.682600 0.413300
vn -0.557600 0.745600 0.364900
vn -0.473600 0.729100 0.494100
vn -0.569000 0.725900 0.386500
vn -0.401000 0.674600 0.619800
vn -0.429300 0.662600 0.613700
vn -0.544500 0.526600 0.652800
vn -0.581300 0.532100 0.615500
vn -0.572800 0.509200 0.642300
vn -0.564000 0.474000 0.676200
vn -0.664500 0.506500 0.549400
vn -0.632500 0.552700 0.542600
vn -0.689300 0.592400 0.417100
vn -0.730800 0.549700 0.404500
vn -0.698000 0.566200 0.438400
vn -0.674300 0.574200 0.464300
vn 0.519700 -0.816100 -0.252700
vn 0.385600 -0.799900 -0.459800
vn 0.433900 -0.763000 -0.479200
vn 0.601200 -0.775000 -0.194300
vn 0.658400 -0.747200 -0.090200
vn 0.644200 -0.756700 -0.110900
vn 0.622800 -0.761800 -0.178300
vn 0.533400 -0.792000 -0.296900
vn 0.418500 -0.775200 -0.473200
vn 0.271500 -0.703500 -0.656800
vn 0.225600 -0.566800 -0.792400
vn 0.217200 -0.547200 -0.808300
vn 0.271000 -0.625400 -0.731700
vn 0.321000 -0.695600 -0.642700
vn 0.271000 -0.602000 -0.751000
vn 0.525200 -0.569900 -0.632000
vn 0.450500 -0.539500 -0.711300
vn 0.408900 -0.574500 -0.709000
vn 0.469500 -0.621800 -0.626800
vn 0.539400 -0.664900 -0.516600
vn 0.594800 -0.601600 -0.533100
vn 0.620700 -0.568600 -0.539800
vn 0.538000 -0.542700 -0.644900
vn 0.436000 -0.528500 -0.728400
vn 0.652300 -0.627600 -0.425000
vn 0.608900 -0.685000 -0.399900
vn 0.660200 -0.688600 -0.299800
vn 0.690500 -0.648400 -0.320700
vn 0.700500 -0.648500 -0.297700
vn 0.675800 -0.605300 -0.420600
vn 0.563900 -0.747200 -0.351800
vn 0.473600 -0.729100 -0.494100
vn 0.630900 -0.735500 -0.246900
vn 0.392600 -0.669400 -0.630600
vn 0.339000 -0.603000 -0.722000
vn 0.517200 -0.534200 -0.668600
vn 0.377400 -0.533400 -0.757000
vn 0.625300 -0.562500 -0.540900
vn 0.592800 -0.604100 -0.532500
vn 0.426900 -0.563300 -0.707400
vn 0.337800 -0.539700 -0.771100
vn 0.687700 -0.611700 -0.390900
vn 0.695300 -0.677600 -0.239500
vn 0.686600 -0.698000 -0.203400
vn 0.670200 -0.673700 -0.311400
vn -0.808400 0.033400 -0.587700
vn -0.904200 -0.273500 -0.327800
vn -0.726900 0.136300 -0.673100
vn 0.337800 -0.539700 -0.771100
vn -0.479800 -0.802000 0.355800
vn -0.222600 -0.582800 0.781500
vn -0.514100 -0.854200 0.077200
vn 0.686600 -0.698000 -0.203400
vn 0.562000 0.232500 0.793800
vn 0.717300 0.404500 0.567300
vn 0.456800 0.074700 0.886400
vn 0.658400 -0.747200 -0.090200
vn 0.389500 0.651700 -0.650800
vn -0.038600 0.747300 -0.663300
vn 0.799600 0.483400 -0.356200
vn 0.217200 -0.547200 -0.808300
vn -0.344200 0.644500 -0.682700
vn -0.510100 0.514600 -0.689200
vn -0.720300 -0.692700 -0.035900
vn 0.114900 -0.385700 0.915400
vn 0.250200 -0.307400 0.918100
vn 0.890300 0.424600 0.164800
vn 0.392500 -0.053400 0.918200
vn 0.362700 -0.135500 0.922000
vn -0.599000 0.396300 -0.695800
vn -0.636000 0.317300 -0.703400
vn -0.667000 0.237400 -0.706200
vn 0.331000 -0.215700 0.918600
vt 0.839504 0.118056
vt 0.856743 0.205307
vt 0.741230 0.205307
vt 0.734555 0.106726
vt 0.724541 0.032791
vt 0.813647 0.052618
vt 0.868992 0.081539
vt 0.913398 0.129584
vt 0.940923 0.205307
vt 0.839504 0.292557
vt 0.813647 0.357995
vt 0.724541 0.377822
vt 0.734555 0.303887
vt 0.913398 0.281029
vt 0.868992 0.329074
vt 0.369475 0.299954
vt 0.368286 0.370940
vt 0.245840 0.351447
vt 0.246397 0.288815
vt 0.246768 0.205307
vt 0.370268 0.205307
vt 0.494283 0.205307
vt 0.492822 0.304944
vt 0.490632 0.379672
vt 0.369475 0.110659
vt 0.246397 0.121798
vt 0.245841 0.059166
vt 0.368286 0.039673
vt 0.490632 0.030941
vt 0.492822 0.105669
vt 0.616755 0.103478
vt 0.619174 0.205307
vt 0.613127 0.027106
vt 0.616755 0.307135
vt 0.613126 0.383507
vt 0.123273 0.268175
vt 0.123047 0.315326
vt 0.054743 0.283353
vt 0.030912 0.249131
vt 0.030973 0.205306
vt 0.123423 0.205306
vt 0.123273 0.142438
vt 0.030912 0.161481
vt 0.054744 0.127260
vt 0.123047 0.095287
vt 0.839504 0.118056
vt 0.856743 0.205307
vt 0.968983 0.205307
vt 0.938030 0.133427
vt 0.876123 0.061548
vt 0.805028 0.030806
vt 0.721203 0.008146
vt 0.734555 0.106726
vt 0.741230 0.205307
vt 0.839504 0.292557
vt 0.805028 0.379807
vt 0.876123 0.349065
vt 0.938030 0.277186
vt 0.734555 0.303887
vt 0.721203 0.402467
vt 0.369475 0.299954
vt 0.367890 0.394602
vt 0.489902 0.404581
vt 0.492822 0.304944
vt 0.494283 0.205307
vt 0.370268 0.205307
vt 0.246768 0.205307
vt 0.246397 0.288815
vt 0.245655 0.372324
vt 0.369475 0.110659
vt 0.492822 0.105669
vt 0.489902 0.006032
vt 0.367890 0.016011
vt 0.245655 0.038289
vt 0.246397 0.121798
vt 0.616755 0.103478
vt 0.619174 0.205307
vt 0.611917 0.001649
vt 0.616755 0.307135
vt 0.611917 0.408964
vt 0.123273 0.268175
vt 0.122972 0.331043
vt 0.123423 0.205306
vt 0.000156 0.205306
vt 0.000125 0.242784
vt 0.000064 0.280261
vt 0.123273 0.142438
vt 0.122972 0.079570
vt 0.000064 0.130352
vt 0.000125 0.167829
vt 0.122972 0.331043
vt 0.030806 0.283587
vt 0.245655 0.372324
vt 0.030806 0.283587
vt 0.000125 0.167829
vt 0.030806 0.127026
vt 0.000156 0.205306
vt 0.030806 0.127026
vt 0.805028 0.030806
vt 0.873826 0.071832
vt 0.721203 0.008146
vt 0.873826 0.071832
vt 0.938030 0.277186
vt 0.873826 0.338781
vt 0.968983 0.205307
vt 0.873826 0.338781
vt 0.805028 0.379807
vt 0.721203 0.402467
vt 0.000125 0.242784
vt 0.122972 0.079570
vt 0.245655 0.038289
vt 0.938030 0.133427
vt 0.611917 0.001649
vt 0.489902 0.006032
vt 0.611917 0.408964
vt 0.489902 0.404581
vt 0.367890 0.394602
vt 0.367890 0.016011
f 1/1/1 2/2/2 3/3/3
f 1/1/1 3/3/3 4/4/4
f 1/1/1 4/4/4 5/5/5
f 1/1/1 5/5/5 6/6/6
f 1/1/1 6/6/6 7/7/7
f 1/1/1 7/7/7 8/8/8
f 1/1/1 8/8/8 9/9/9
f 1/1/1 9/9/9 2/2/2
f 10/10/10 11/11/11 12/12/12
f 10/10/10 12/12/12 13/13/13
f 10/10/10 13/13/13 3/3/3
f 10/10/10 3/3/3 2/2/2
f 10/10/10 2/2/2 9/9/9
f 10/10/10 9/9/9 14/14/14
f 10/10/10 14/14/14 15/15/15
f 10/10/10 15/15/15 11/11/11
f 16/16/16 17/17/17 18/18/18
f 16/16/16 18/18/18 19/19/19
f 16/16/16 19/19/19 20/20/20
f 16/16/16 20/20/20 21/21/21
f 16/16/16 21/21/21 22/22/22
f 16/16/16 22/22/22 23/23/23
f 16/16/16 23/23/23 24/24/24
f 16/16/16 24/24/24 17/17/17
f 25/25/25 21/21/21 20/20/20
f 25/25/25 20/20/20 26/26/26
f 25/25/25 26/26/26 27/27/27
f 25/25/25 27/27/27 28/28/28
f 25/25/25 28/28/28 29/29/29
f 25/25/25 29/29/29 30/30/30
f 25/25/25 30/30/30 22/22/22
f 25/25/25 22/22/22 21/21/21
f 31/31/31 32/32/32 22/22/22
f 31/31/31 22/22/22 30/30/30
f 31/31/31 30/30/30 29/29/29
f 31/31/31 29/29/29 33/33/33
f 31/31/31 33/33/33 5/5/5
f 31/31/31 5/5/5 4/4/4
f 31/31/31 4/4/4 3/3/3
f 31/31/31 3/3/3 32/32/32
f 34/34/34 35/35/35 24/24/24
f 34/34/34 24/24/24 23/23/23
f 34/34/34 23/23/23 22/22/22
f 34/34/34 22/22/22 32/32/32
f 34/34/34 32/32/32 3/3/3
f 34/34/34 3/3/3 13/13/13
f 34/34/34 13/13/13 12/12/12
f 34/34/34 12/12/12 35/35/35
f 36/36/36 37/37/37 38/38/38
f 36/36/36 38/38/38 39/39/39
f 36/36/36 39/39/39 40/40/40
f 36/36/36 40/40/40 41/41/41
f 36/36/36 41/41/41 20/20/20
f 36/36/36 20/20/20 19/19/19
f 36/36/36 19/19/19 18/18/18
f 36/36/36 18/18/18 37/37/37
f 42/42/42 41/41/41 40/40/40
f 42/42/42 40/40/40 43/43/43
f 42/42/42 43/43/43 44/44/44
f 42/42/42 44/44/44 45/45/45
f 42/42/42 45/45/45 27/27/27
f 42/42/42 27/27/27 26/26/26
f 42/42/42 26/26/26 20/20/20
f 42/42/42 20/20/20 41/41/41
f 46/46/46 47/47/47 48/48/48
f 46/46/46 48/48/48 49/49/49
f 46/46/46 49/49/49 50/50/50
f 46/46/46 50/50/50 51/51/51
f 46/46/46 51/51/51 52/52/52
f 46/46/46 52/52/52 53/53/53
f 46/46/46 53/53/53 54/54/54
f 46/46/46 54/54/54 47/47/47
f 55/55/55 56/56/56 57/57/57
f 55/55/55 57/57/57 58/58/58
f 55/55/55 58/58/58 48/48/48
f 55/55/55 48/48/48 47/47/47
f 55/55/55 47/47/47 54/54/54
f 55/55/55 54/54/54 59/59/59
f 55/55/55 59/59/59 60/60/60
f 55/55/55 60/60/60 56/56/56
f 61/61/61 62/62/62 63/63/63
f 61/61/61 63/63/63 64/64/64
f 61/61/61 64/64/64 65/65/65
f 61/61/61 65/65/65 66/66/66
f 61/61/61 66/66/66 67/67/67
f 61/61/61 67/67/67 68/68/68
f 61/61/61 68/68/68 69/69/69
f 61/61/61 69/69/69 62/62/62
f 70/70/70 66/66/66 65/65/65
f 70/70/70 65/65/65 71/71/71
f 70/70/70 71/71/71 72/72/72
f 70/70/70 72/72/72 73/73/73
f 70/70/70 73/73/73 74/74/74
f 70/70/70 74/74/74 75/75/75
f 70/70/70 75/75/75 67/67/67
f 70/70/70 67/67/67 66/66/66
f 76/76/76 77/77/77 54/54/54
f 76/76/76 54/54/54 53/53/53
f 76/76/76 53/53/53 52/52/52
f 76/76/76 52/52/52 78/78/78
f 76/76/76 78/78/78 72/72/72
f 76/76/76 72/72/72 71/71/71
f 76/76/76 71/71/71 65/65/65
f 76/76/76 65/65/65 77/77/77
f 79/79/79 80/80/80 60/60/60
f 79/79/79 60/60/60 59/59/59
f 79/79/79 59/59/59 54/54/54
f 79/79/79 54/54/54 77/77/77
f 79/79/79 77/77/77 65/65/65
f 79/79/79 65/65/65 64/64/64
f 79/79/79 64/64/64 63/63/63
f 79/79/79 63/63/63 80/80/80
f 81/81/81 82/82/82 69/69/69
f 81/81/81 69/69/69 68/68/68
f 81/81/81 68/68/68 67/67/67
f 81/81/81 67/67/67 83/83/83
f 81/81/81 83/83/83 84/84/84
f 81/81/81 84/84/84 85/85/85
f 81/81/81 85/85/85 86/86/86
f 81/81/81 86/86/86 82/82/82
f 87/87/87 83/83/83 67/67/67
f 87/87/87 67/67/67 75/75/75
f 87/87/87 75/75/75 74/74/74
f 87/87/87 74/74/74 88/88/88
f 87/87/87 88/88/88 89/89/89
f 87/87/87 89/89/89 90/90/90
f 87/87/87 90/90/90 84/84/84
f 87/87/87 84/84/84 83/83/83
f 91/91/91 92/92/92 38/38/38
f 91/91/91 38/38/38 37/37/37
f 91/91/91 37/37/37 18/18/18
f 91/91/91 18/18/18 93/93/93
f 91/91/91 93/93/93 69/69/69
f 91/91/91 69/69/69 82/82/82
f 91/91/91 82/82/82 94/94/94
f 91/91/91 94/94/94 92/92/92
f 95/95/95 96/96/96 44/44/44
f 95/95/95 44/44/44 43/43/43
f 95/95/95 43/43/43 40/40/40
f 95/95/95 40/40/40 97/97/97
f 95/95/95 97/97/97 84/84/84
f 95/95/95 84/84/84 90/90/90
f 95/95/95 90/90/90 98/98/98
f 95/95/95 98/98/98 96/96/96
f 99/99/99 100/100/100 7/7/7
f 99/99/99 7/7/7 6/6/6
f 99/99/99 6/6/6 5/5/5
f 99/99/99 5/5/5 101/101/101
f 99/99/99 101/101/101 52/52/52
f 99/99/99 52/52/52 51/51/51
f 99/99/99 51/51/51 102/102/102
f 99/99/99 102/102/102 100/100/100
f 103/103/103 104/104/104 15/15/15
f 103/103/103 15/15/15 14/14/14
f 103/103/103 14/14/14 9/9/9
f 103/103/103 9/9/9 105/105/105
f 103/103/103 105/105/105 48/48/48
f 103/103/103 48/48/48 58/58/58
f 103/103/103 58/58/58 106/106/106
f 103/103/103 106/106/106 104/104/104
f 107/107/107 108/108/108 12/12/12
f 107/107/107 12/12/12 11/11/11
f 107/107/107 11/11/11 15/15/15
f 107/107/107 15/15/15 104/104/104
f 107/107/107 104/104/104 106/106/106
f 107/107/107 106/106/106 56/56/56
f 107/107/107 56/56/56 60/60/60
f 107/107/107 60/60/60 108/108/108
f 109/109/109 97/97/97 40/40/40
f 109/109/109 40/40/40 39/39/39
f 109/109/109 39/39/39 38/38/38
f 109/109/109 38/38/38 92/92/92
f 109/109/109 92/92/92 94/94/94
f 109/109/109 94/94/94 85/85/85
f 109/109/109 85/85/85 84/84/84
f 109/109/109 84/84/84 97/97/97
f 110/110/110 111/111/111 27/27/27
f 110/110/110 27/27/27 45/45/45
f 110/110/110 45/45/45 44/44/44
f 110/110/110 44/44/44 96/96/96
f 110/110/110 96/96/96 98/98/98
f 110/110/110 98/98/98 88/88/88
f 110/110/110 88/88/88 74/74/74
f 110/110/110 74/74/74 111/111/111
f 112/112/112 105/105/105 9/9/9
f 112/112/112 9/9/9 8/8/8
f 112/112/112 8/8/8 7/7/7
f 112/112/112 7/7/7 100/100/100
f 112/112/112 100/100/100 102/102/102
f 112/112/112 102/102/102 49/49/49
f 112/112/112 49/49/49 48/48/48
f 112/112/112 48/48/48 105/105/105
f 113/113/113 101/101/101 5/5/5
f 113/113/113 5/5/5 33/33/33
f 113/113/113 33/33/33 29/29/29
f 113/113/113 29/29/29 114/114/114
f 113/113/113 114/114/114 72/72/72
f 113/113/113 72/72/72 78/78/78
f 113/113/113 78/78/78 52/52/52
f 113/113/113 52/52/52 101/101/101
f 115/115/115 116/116/116 24/24/24
f 115/115/115 24/24/24 35/35/35
f 115/115/115 35/35/35 12/12/12
f 115/115/115 12/12/12 108/108/108
f 115/115/115 108/108/108 60/60/60
f 115/115/115 60/60/60 80/80/80
f 115/115/115 80/80/80 63/63/63
f 115/115/115 63/63/63 116/116/116
f 117/117/117 93/93/93 18/18/18
f 117/117/117 18/18/18 17/17/17
f 117/117/117 17/17/17 24/24/24
f 117/117/117 24/24/24 116/116/116
f 117/117/117 116/116/116 63/63/63
f 117/117/117 63/63/63 62/62/62
f 117/117/117 62/62/62 69/69/69
f 117/117/117 69/69/69 93/93/93
f 118/118/118 114/114/114 29/29/29
f 118/118/118 29/29/29 28/28/28
f 118/118/118 28/28/28 27/27/27
f 118/118/118 27/27/27 111/111/111
f 118/118/118 111/111/111 74/74/74
f 118/118/118 74/74/74 73/73/73
f 118/118/118 73/73/73 72/72/72
f 118/118/118 72/72/72 114/114/114
