v -2.358054 0.803116 -1.165042
v -2.356596 0.803474 -1.165240
v -2.356705 0.801679 -1.166149
v -2.358334 0.801451 -1.165788
v -2.359619 0.801260 -1.165677
v -2.359222 0.802708 -1.165120
v -2.358663 0.803577 -1.164736
v -2.357774 0.804267 -1.164467
v -2.356490 0.804759 -1.164518
v -2.355345 0.803484 -1.166093
v -2.354473 0.803353 -1.166964
v -2.354224 0.801992 -1.167772
v -2.355256 0.801869 -1.166983
v -2.355430 0.804585 -1.165377
v -2.354817 0.804099 -1.166229
v -2.355207 0.795847 -1.168868
v -2.354133 0.796016 -1.169460
v -2.354280 0.793859 -1.169673
v -2.355227 0.793710 -1.169141
v -2.356517 0.793519 -1.168516
v -2.356669 0.795631 -1.168170
v -2.356765 0.797710 -1.167690
v -2.355241 0.797941 -1.168434
v -2.354127 0.798123 -1.169073
v -2.358223 0.795438 -1.167697
v -2.357893 0.793348 -1.168105
v -2.358954 0.793225 -1.167858
v -2.359417 0.795299 -1.167408
v -2.359654 0.797373 -1.166927
v -2.358396 0.797513 -1.167209
v -2.358440 0.799550 -1.166542
v -2.356770 0.799742 -1.166991
v -2.359742 0.799420 -1.166315
v -2.355239 0.799985 -1.167784
v -2.354133 0.800182 -1.168493
v -2.355390 0.791534 -1.169303
v -2.354695 0.791648 -1.169733
v -2.355088 0.790384 -1.169627
v -2.355556 0.789886 -1.169366
v -2.356197 0.789784 -1.168996
v -2.356343 0.791389 -1.168812
v -2.357380 0.791264 -1.168530
v -2.356920 0.789701 -1.168836
v -2.357543 0.790051 -1.168675
v -2.358186 0.791174 -1.168378
v -2.358015 0.803050 -1.164903
v -2.356536 0.803410 -1.165109
v -2.356445 0.804709 -1.164420
v -2.357746 0.804216 -1.164364
v -2.358646 0.803540 -1.164658
v -2.359204 0.802659 -1.165013
v -2.359598 0.801214 -1.165569
v -2.358292 0.801392 -1.165648
v -2.356645 0.801620 -1.166015
v -2.355266 0.803423 -1.165970
v -2.354403 0.803310 -1.166877
v -2.354768 0.804066 -1.166164
v -2.355370 0.804538 -1.165287
v -2.355178 0.801814 -1.166857
v -2.354157 0.801953 -1.167681
v -2.355134 0.795820 -1.168730
v -2.354072 0.795996 -1.169359
v -2.354065 0.798097 -1.168975
v -2.355167 0.797905 -1.168298
v -2.356705 0.797672 -1.167549
v -2.356609 0.795601 -1.168026
v -2.356457 0.793495 -1.168370
v -2.355154 0.793689 -1.169001
v -2.354219 0.793844 -1.169571
v -2.358176 0.795407 -1.167549
v -2.358350 0.797473 -1.167062
v -2.359627 0.797342 -1.166815
v -2.359389 0.795275 -1.167295
v -2.358926 0.793205 -1.167744
v -2.357847 0.793323 -1.167955
v -2.358396 0.799500 -1.166398
v -2.356709 0.799693 -1.166853
v -2.359718 0.799382 -1.166205
v -2.355164 0.799939 -1.167653
v -2.354069 0.800149 -1.168398
v -2.355316 0.791515 -1.169163
v -2.354634 0.791635 -1.169632
v -2.356283 0.791369 -1.168666
v -2.356152 0.789768 -1.168887
v -2.355501 0.789872 -1.169261
v -2.355045 0.790374 -1.169551
v -2.357335 0.791241 -1.168379
v -2.358159 0.791156 -1.168263
v -2.357521 0.790038 -1.168590
v -2.356887 0.789684 -1.168723
v -2.354435 0.791680 -1.169832
v -2.355050 0.789967 -1.169681
v -2.353936 0.793902 -1.169806
v -2.355045 0.790374 -1.169551
v -2.356753 0.789172 -1.168888
v -2.357509 0.789633 -1.168727
v -2.356128 0.789242 -1.169009
v -2.357521 0.790038 -1.168590
v -2.359606 0.802550 -1.165098
v -2.358827 0.803647 -1.164661
v -2.360040 0.801175 -1.165592
v -2.358646 0.803540 -1.164658
v -2.355431 0.804931 -1.165099
v -2.354666 0.804211 -1.166276
v -2.356435 0.805165 -1.164234
v -2.354768 0.804066 -1.166164
v -2.354149 0.803291 -1.167217
v -2.353848 0.802016 -1.167996
v -2.355587 0.789330 -1.169340
v -2.358444 0.791136 -1.168276
v -2.359296 0.793175 -1.167725
v -2.357669 0.804627 -1.164230
v -2.360167 0.799360 -1.166190
v -2.360063 0.797312 -1.166783
v -2.353734 0.800233 -1.168688
v -2.353726 0.798172 -1.169243
v -2.353747 0.796064 -1.169613
v -2.359805 0.795242 -1.167261
vn -0.167500 0.450500 -0.876900
vn -0.375400 0.452600 -0.808800
vn -0.378400 0.398900 -0.835200
vn -0.193000 0.395300 -0.898000
vn -0.203000 0.371800 -0.905900
vn -0.175500 0.449800 -0.875700
vn -0.156000 0.503200 -0.850000
vn -0.200600 0.530000 -0.823900
vn -0.368200 0.533000 -0.761800
vn -0.568000 0.396100 -0.721400
vn -0.561300 0.397700 -0.725800
vn -0.543700 0.325400 -0.773600
vn -0.551000 0.346900 -0.759000
vn -0.528000 0.484800 -0.697200
vn -0.570700 0.446500 -0.689100
vn -0.474200 0.143300 -0.868600
vn -0.440800 0.140200 -0.886600
vn -0.436000 0.108900 -0.893300
vn -0.479000 0.109500 -0.870900
vn -0.373100 0.115100 -0.920600
vn -0.375900 0.157000 -0.913200
vn -0.379500 0.240300 -0.893400
vn -0.489200 0.215600 -0.845100
vn -0.464800 0.202800 -0.861900
vn -0.273100 0.170600 -0.946700
vn -0.263400 0.138800 -0.954600
vn -0.308800 0.126100 -0.942700
vn -0.308200 0.158200 -0.938000
vn -0.289300 0.226600 -0.930000
vn -0.263600 0.246200 -0.932700
vn -0.233600 0.330500 -0.914400
vn -0.380200 0.330000 -0.864000
vn -0.250000 0.304200 -0.919200
vn -0.518000 0.292000 -0.804000
vn -0.503600 0.269700 -0.820700
vn -0.500400 0.091900 -0.860900
vn -0.454600 0.086800 -0.886400
vn -0.481300 0.065800 -0.874100
vn -0.514300 0.032900 -0.857000
vn -0.366300 0.039400 -0.929700
vn -0.371500 0.095300 -0.923500
vn -0.237500 0.127600 -0.963000
vn -0.211300 0.073900 -0.974600
vn -0.253800 0.096700 -0.962400
vn -0.285900 0.109700 -0.951900
vn 0.141100 -0.429900 0.891800
vn 0.376400 -0.438000 0.816400
vn 0.379100 -0.380300 0.843600
vn 0.059400 -0.368200 0.927800
vn -0.057800 -0.337400 0.939600
vn -0.033400 -0.348200 0.936800
vn 0.037400 -0.349800 0.936100
vn 0.178000 -0.394600 0.901400
vn 0.378400 -0.399100 0.835200
vn 0.591800 -0.368800 0.716700
vn 0.726700 -0.245500 0.641600
vn 0.743400 -0.228800 0.628500
vn 0.659400 -0.286500 0.695000
vn 0.563800 -0.342200 0.751700
vn 0.676300 -0.263200 0.688000
vn 0.488400 -0.142200 0.860900
vn 0.583900 -0.134800 0.800600
vn 0.595500 -0.184500 0.781900
vn 0.502300 -0.213600 0.837900
vn 0.379500 -0.240100 0.893500
vn 0.375900 -0.156800 0.913300
vn 0.373100 -0.115000 0.920700
vn 0.495700 -0.110300 0.861400
vn 0.603700 -0.128600 0.786700
vn 0.257600 -0.173600 0.950500
vn 0.249100 -0.247900 0.936200
vn 0.139100 -0.246400 0.959100
vn 0.148000 -0.193900 0.969800
vn 0.123100 -0.193800 0.973300
vn 0.245500 -0.144300 0.958600
vn 0.219400 -0.331400 0.917600
vn 0.380200 -0.330000 0.864000
vn 0.099300 -0.310500 0.945300
vn 0.530500 -0.289200 0.796800
vn 0.629400 -0.238500 0.739500
vn 0.523800 -0.107900 0.844900
vn 0.647900 -0.153800 0.746000
vn 0.372400 -0.107400 0.921800
vn 0.376000 -0.160100 0.912600
vn 0.588200 -0.166900 0.791300
vn 0.673000 -0.174500 0.718700
vn 0.214000 -0.150000 0.965200
vn 0.070600 -0.232200 0.970100
vn 0.039600 -0.260600 0.964600
vn 0.146300 -0.226800 0.962900
vn 0.790100 -0.227100 -0.569400
vn 0.586400 -0.585700 -0.559500
vn 0.842600 -0.085200 -0.531700
vn 0.673000 -0.174500 0.718700
vn -0.159300 -0.982600 -0.095200
vn -0.651500 -0.754500 -0.078600
vn 0.119600 -0.992100 -0.037300
vn 0.039600 -0.260600 0.964600
vn -0.932300 0.309800 0.186500
vn -0.769900 0.571400 0.284200
vn -0.982200 0.107700 0.153900
vn -0.057800 -0.337400 0.939600
vn 0.475100 0.865900 0.156500
vn 0.603200 0.757600 -0.249200
vn 0.086100 0.849500 0.520600
vn 0.743400 -0.228800 0.628500
vn 0.715000 0.532400 -0.453100
vn 0.775300 0.344800 -0.529100
vn 0.277900 -0.923300 -0.265000
vn -0.887000 -0.454500 0.081500
vn -0.932300 -0.325800 0.157200
vn -0.435100 0.741800 0.510200
vn -0.987200 -0.039900 0.154300
vn -0.977700 -0.125600 0.168300
vn 0.813200 0.203700 -0.545200
vn 0.835500 0.120500 -0.536000
vn 0.851600 0.036600 -0.522800
vn -0.960900 -0.209100 0.181200
vt 0.839504 0.118056
vt 0.856743 0.205307
vt 0.741230 0.205307
vt 0.734555 0.106726
vt 0.724541 0.032791
vt 0.813647 0.052618
vt 0.868992 0.081539
vt 0.913398 0.129584
vt 0.940923 0.205307
vt 0.839504 0.292557
vt 0.813647 0.357995
vt 0.724541 0.377822
vt 0.734555 0.303887
vt 0.913398 0.281029
vt 0.868992 0.329074
vt 0.369475 0.299954
vt 0.368286 0.370940
vt 0.245840 0.351447
vt 0.246397 0.288815
vt 0.246768 0.205307
vt 0.370268 0.205307
vt 0.494283 0.205307
vt 0.492822 0.304944
vt 0.490632 0.379672
vt 0.369475 0.110659
vt 0.246397 0.121798
vt 0.245841 0.059166
vt 0.368286 0.039673
vt 0.490632 0.030941
vt 0.492822 0.105669
vt 0.616755 0.103478
vt 0.619174 0.205307
vt 0.613127 0.027106
vt 0.616755 0.307135
vt 0.613126 0.383507
vt 0.123273 0.268175
vt 0.123047 0.315326
vt 0.054743 0.283353
vt 0.030912 0.249131
vt 0.030973 0.205306
vt 0.123423 0.205306
vt 0.123273 0.142438
vt 0.030912 0.161481
vt 0.054744 0.127260
vt 0.123047 0.095287
vt 0.839504 0.118056
vt 0.856743 0.205307
vt 0.968983 0.205307
vt 0.938030 0.133427
vt 0.876123 0.061548
vt 0.805028 0.030806
vt 0.721203 0.008146
vt 0.734555 0.106726
vt 0.741230 0.205307
vt 0.839504 0.292557
vt 0.805028 0.379807
vt 0.876123 0.349065
vt 0.938030 0.277186
vt 0.734555 0.303887
vt 0.721203 0.402467
vt 0.369475 0.299954
vt 0.367890 0.394602
vt 0.489902 0.404581
vt 0.492822 0.304944
vt 0.494283 0.205307
vt 0.370268 0.205307
vt 0.246768 0.205307
vt 0.246397 0.288815
vt 0.245655 0.372324
vt 0.369475 0.110659
vt 0.492822 0.105669
vt 0.489902 0.006032
vt 0.367890 0.016011
vt 0.245655 0.038289
vt 0.246397 0.121798
vt 0.616755 0.103478
vt 0.619174 0.205307
vt 0.611917 0.001649
vt 0.616755 0.307135
vt 0.611917 0.408964
vt 0.123273 0.268175
vt 0.122972 0.331043
vt 0.123423 0.205306
vt 0.000156 0.205306
vt 0.000125 0.242784
vt 0.000064 0.280261
vt 0.123273 0.142438
vt 0.122972 0.079570
vt 0.000064 0.130352
vt 0.000125 0.167829
vt 0.122972 0.331043
vt 0.030806 0.283587
vt 0.245655 0.372324
vt 0.030806 0.283587
vt 0.000125 0.167829
vt 0.030806 0.127026
vt 0.000156 0.205306
vt 0.030806 0.127026
vt 0.805028 0.030806
vt 0.873826 0.071832
vt 0.721203 0.008146
vt 0.873826 0.071832
vt 0.938030 0.277186
vt 0.873826 0.338781
vt 0.968983 0.205307
vt 0.873826 0.338781
vt 0.805028 0.379807
vt 0.721203 0.402467
vt 0.000125 0.242784
vt 0.122972 0.079570
vt 0.245655 0.038289
vt 0.938030 0.133427
vt 0.611917 0.001649
vt 0.489902 0.006032
vt 0.611917 0.408964
vt 0.489902 0.404581
vt 0.367890 0.394602
vt 0.367890 0.016011
f 1/1/1 2/2/2 3/3/3
f 1/1/1 3/3/3 4/4/4
f 1/1/1 4/4/4 5/5/5
f 1/1/1 5/5/5 6/6/6
f 1/1/1 6/6/6 7/7/7
f 1/1/1 7/7/7 8/8/8
f 1/1/1 8/8/8 9/9/9
f 1/1/1 9/9/9 2/2/2
f 10/10/10 11/11/11 12/12/12
f 10/10/10 12/12/12 13/13/13
f 10/10/10 13/13/13 3/3/3
f 10/10/10 3/3/3 2/2/2
f 10/10/10 2/2/2 9/9/9
f 10/10/10 9/9/9 14/14/14
f 10/10/10 14/14/14 15/15/15
f 10/10/10 15/15/15 11/11/11
f 16/16/16 17/17/17 18/18/18
f 16/16/16 18/18/18 19/19/19
f 16/16/16 19/19/19 20/20/20
f 16/16/16 20/20/20 21/21/21
f 16/16/16 21/21/21 22/22/22
f 16/16/16 22/22/22 23/23/23
f 16/16/16 23/23/23 24/24/24
f 16/16/16 24/24/24 17/17/17
f 25/25/25 21/21/21 20/20/20
f 25/25/25 20/20/20 26/26/26
f 25/25/25 26/26/26 27/27/27
f 25/25/25 27/27/27 28/28/28
f 25/25/25 28/28/28 29/29/29
f 25/25/25 29/29/29 30/30/30
f 25/25/25 30/30/30 22/22/22
f 25/25/25 22/22/22 21/21/21
f 31/31/31 32/32/32 22/22/22
f 31/31/31 22/22/22 30/30/30
f 31/31/31 30/30/30 29/29/29
f 31/31/31 29/29/29 33/33/33
f 31/31/31 33/33/33 5/5/5
f 31/31/31 5/5/5 4/4/4
f 31/31/31 4/4/4 3/3/3
f 31/31/31 3/3/3 32/32/32
f 34/34/34 35/35/35 24/24/24
f 34/34/34 24/24/24 23/23/23
f 34/34/34 23/23/23 22/22/22
f 34/34/34 22/22/22 32/32/32
f 34/34/34 32/32/32 3/3/3
f 34/34/34 3/3/3 13/13/13
f 34/34/34 13/13/13 12/12/12
f 34/34/34 12/12/12 35/35/35
f 36/36/36 37/37/37 38/38/38
f 36/36/36 38/38/38 39/39/39
f 36/36/36 39/39/39 40/40/40
f 36/36/36 40/40/40 41/41/41
f 36/36/36 41/41/41 20/20/20
f 36/36/36 20/20/20 19/19/19
f 36/36/36 19/19/19 18/18/18
f 36/36/36 18/18/18 37/37/37
f 42/42/42 41/41/41 40/40/40
f 42/42/42 40/40/40 43/43/43
f 42/42/42 43/43/43 44/44/44
f 42/42/42 44/44/44 45/45/45
f 42/42/42 45/45/45 27/27/27
f 42/42/42 27/27/27 26/26/26
f 42/42/42 26/26/26 20/20/20
f 42/42/42 20/20/20 41/41/41
f 46/46/46 47/47/47 48/48/48
f 46/46/46 48/48/48 49/49/49
f 46/46/46 49/49/49 50/50/50
f 46/46/46 50/50/50 51/51/51
f 46/46/46 51/51/51 52/52/52
f 46/46/46 52/52/52 53/53/53
f 46/46/46 53/53/53 54/54/54
f 46/46/46 54/54/54 47/47/47
f 55/55/55 56/56/56 57/57/57
f 55/55/55 57/57/57 58/58/58
f 55/55/55 58/58/58 48/48/48
f 55/55/55 48/48/48 47/47/47
f 55/55/55 47/47/47 54/54/54
f 55/55/55 54/54/54 59/59/59
f 55/55/55 59/59/59 60/60/60
f 55/55/55 60/60/60 56/56/56
f 61/61/61 62/62/62 63/63/63
f 61/61/61 63/63/63 64/64/64
f 61/61/61 64/64/64 65/65/65
f 61/61/61 65/65/65 66/66/66
f 61/61/61 66/66/66 67/67/67
f 61/61/61 67/67/67 68/68/68
f 61/61/61 68/68/68 69/69/69
f 61/61/61 69/69/69 62/62/62
f 70/70/70 66/66/66 65/65/65
f 70/70/70 65/65/65 71/71/71
f 70/70/70 71/71/71 72/72/72
f 70/70/70 72/72/72 73/73/73
f 70/70/70 73/73/73 74/74/74
f 70/70/70 74/74/74 75/75/75
f 70/70/70 75/75/75 67/67/67
f 70/70/70 67/67/67 66/66/66
f 76/76/76 77/77/77 54/54/54
f 76/76/76 54/54/54 53/53/53
f 76/76/76 53/53/53 52/52/52
f 76/76/76 52/52/52 78/78/78
f 76/76/76 78/78/78 72/72/72
f 76/76/76 72/72/72 71/71/71
f 76/76/76 71/71/71 65/65/65
f 76/76/76 65/65/65 77/77/77
f 79/79/79 80/80/80 60/60/60
f 79/79/79 60/60/60 59/59/59
f 79/79/79 59/59/59 54/54/54
f 79/79/79 54/54/54 77/77/77
f 79/79/79 77/77/77 65/65/65
f 79/79/79 65/65/65 64/64/64
f 79/79/79 64/64/64 63/63/63
f 79/79/79 63/63/63 80/80/80
f 81/81/81 82/82/82 69/69/69
f 81/81/81 69/69/69 68/68/68
f 81/81/81 68/68/68 67/67/67
f 81/81/81 67/67/67 83/83/83
f 81/81/81 83/83/83 84/84/84
f 81/81/81 84/84/84 85/85/85
f 81/81/81 85/85/85 86/86/86
f 81/81/81 86/86/86 82/82/82
f 87/87/87 83/83/83 67/67/67
f 87/87/87 67/67/67 75/75/75
f 87/87/87 75/75/75 74/74/74
f 87/87/87 74/74/74 88/88/88
f 87/87/87 88/88/88 89/89/89
f 87/87/87 89/89/89 90/90/90
f 87/87/87 90/90/90 84/84/84
f 87/87/87 84/84/84 83/83/83
f 91/91/91 92/92/92 38/38/38
f 91/91/91 38/38/38 37/37/37
f 91/91/91 37/37/37 18/18/18
f 91/91/91 18/18/18 93/93/93
f 91/91/91 93/93/93 69/69/69
f 91/91/91 69/69/69 82/82/82
f 91/91/91 82/82/82 94/94/94
f 91/91/91 94/94/94 92/92/92
f 95/95/95 96/96/96 44/44/44
f 95/95/95 44/44/44 43/43/43
f 95/95/95 43/43/43 40/40/40
f 95/95/95 40/40/40 97/97/97
f 95/95/95 97/97/97 84/84/84
f 95/95/95 84/84/84 90/90/90
f 95/95/95 90/90/90 98/98/98
f 95/95/95 98/98/98 96/96/96
f 99/99/99 100/100/100 7/7/7
f 99/99/99 7/7/7 6/6/6
f 99/99/99 6/6/6 5/5/5
f 99/99/99 5/5/5 101/101/101
f 99/99/99 101/101/101 52/52/52
f 99/99/99 52/52/52 51/51/51
f 99/99/99 51/51/51 102/102/102
f 99/99/99 102/102/102 100/100/100
f 103/103/103 104/104/104 15/15/15
f 103/103/103 15/15/15 14/14/14
f 103/103/103 14/14/14 9/9/9
f 103/103/103 9/9/9 105/105/105
f 103/103/103 105/105/105 48/48/48
f 103/103/103 48/48/48 58/58/58
f 103/103/103 58/58/58 106/106/106
f 103/103/103 106/106/106 104/104/104
f 107/107/107 108/108/108 12/12/12
f 107/107/107 12/12/12 11/11/11
f 107/107/107 11/11/11 15/15/15
f 107/107/107 15/15/15 104/104/104
f 107/107/107 104/104/104 106/106/106
f 107/107/107 106/106/106 56/56/56
f 107/107/107 56/56/56 60/60/60
f 107/107/107 60/60/60 108/108/108
f 109/109/109 97/97/97 40/40/40
f 109/109/109 40/40/40 39/39/39
f 109/109/109 39/39/39 38/38/38
f 109/109/109 38/38/38 92/92/92
f 109/109/109 92/92/92 94/94/94
f 109/109/109 94/94/94 85/85/85
f 109/109/109 85/85/85 84/84/84
f 109/109/109 84/84/84 97/97/97
f 110/110/110 111/111/111 27/27/27
f 110/110/110 27/27/27 45/45/45
f 110/110/110 45/45/45 44/44/44
f 110/110/110 44/44/44 96/96/96
f 110/110/110 96/96/96 98/98/98
f 110/110/110 98/98/98 88/88/88
f 110/110/110 88/88/88 74/74/74
f 110/110/110 74/74/74 111/111/111
f 112/112/112 105/105/105 9/9/9
f 112/112/112 9/9/9 8/8/8
f 112/112/112 8/8/8 7/7/7
f 112/112/112 7/7/7 100/100/100
f 112/112/112 100/100/100 102/102/102
f 112/112/112 102/102/102 49/49/49
f 112/112/112 49/49/49 48/48/48
f 112/112/112 48/48/48 105/105/105
f 113/113/113 101/101/101 5/5/5
f 113/113/113 5/5/5 33/33/33
f 113/113/113 33/33/33 29/29/29
f 113/113/113 29/29/29 114/114/114
f 113/113/113 114/114/114 72/72/72
f 113/113/113 72/72/72 78/78/78
f 113/113/113 78/78/78 52/52/52
f 113/113/113 52/52/52 101/101/101
f 115/115/115 116/116/116 24/24/24
f 115/115/115 24/24/24 35/35/35
f 115/115/115 35/35/35 12/12/12
f 115/115/115 12/12/12 108/108/108
f 115/115/115 108/108/108 60/60/60
f 115/115/115 60/60/60 80/80/80
f 115/115/115 80/80/80 63/63/63
f 115/115/115 63/63/63 116/116/116
f 117/117/117 93/93/93 18/18/18
f 117/117/117 18/18/18 17/17/17
f 117/117/117 17/17/17 24/24/24
f 117/117/117 24/24/24 116/116/116
f 117/117/117 116/116/116 63/63/63
f 117/117/117 63/63/63 62/62/62
f 117/117/117 62/62/62 69/69/69
f 117/117/117 69/69/69 93/93/93
f 118/118/118 114/114/114 29/29/29
f 118/118/118 29/29/29 28/28/28
f 118/118/118 28/28/28 27/27/27
f 118/118/118 27/27/27 111/111/111
f 118/118/118 111/111/111 74/74/74
f 118/118/118 74/74/74 73/73/73
f 118/118/118 73/73/73 72/72/72
f 118/118/118 72/72/72 114/114/114
