v -2.372988 0.791951 -1.156545
v -2.371443 0.792373 -1.154543
v -2.369464 0.790454 -1.156557
v -2.371455 0.790129 -1.158571
v -2.372806 0.789991 -1.160314
v -2.373868 0.791623 -1.158424
v -2.374239 0.792502 -1.156819
v -2.374032 0.793148 -1.154981
v -2.372920 0.793683 -1.153004
v -2.369112 0.792837 -1.153581
v -2.367071 0.793177 -1.153224
v -2.365084 0.791757 -1.154408
v -2.367050 0.791136 -1.155202
v -2.370678 0.793916 -1.152415
v -2.368734 0.793761 -1.152608
v -2.361427 0.783699 -1.160425
v -2.359687 0.784224 -1.159382
v -2.358412 0.781221 -1.161086
v -2.359959 0.780750 -1.161996
v -2.361950 0.780205 -1.163315
v -2.363671 0.783090 -1.161928
v -2.365482 0.785808 -1.160373
v -2.363126 0.786464 -1.158817
v -2.361292 0.787039 -1.157752
v -2.365743 0.782712 -1.163727
v -2.363776 0.779877 -1.164916
v -2.365101 0.779692 -1.166202
v -2.367249 0.782494 -1.165167
v -2.369203 0.785230 -1.163803
v -2.367641 0.785431 -1.162270
v -2.369609 0.787929 -1.160516
v -2.367445 0.788265 -1.158541
v -2.371153 0.787794 -1.162146
v -2.365028 0.788977 -1.157011
v -2.363125 0.789631 -1.156005
v -2.358754 0.777683 -1.163690
v -2.357572 0.778067 -1.163053
v -2.357425 0.776180 -1.164268
v -2.357960 0.775319 -1.164982
v -2.359017 0.774990 -1.165590
v -2.360260 0.777251 -1.164642
v -2.361603 0.777031 -1.165869
v -2.359912 0.774872 -1.166475
v -2.360937 0.775377 -1.166955
v -2.362567 0.776925 -1.166874
v -2.373084 0.791735 -1.156418
v -2.371511 0.792162 -1.154392
v -2.372968 0.793523 -1.152893
v -2.374104 0.792985 -1.154889
v -2.374298 0.792381 -1.156755
v -2.373954 0.791461 -1.158340
v -2.372893 0.789834 -1.160223
v -2.371555 0.789920 -1.158434
v -2.369538 0.790250 -1.156400
v -2.369150 0.792635 -1.153409
v -2.367085 0.793032 -1.153085
v -2.368747 0.793651 -1.152509
v -2.370702 0.793763 -1.152287
v -2.367098 0.790939 -1.155025
v -2.365107 0.791615 -1.154266
v -2.361509 0.783535 -1.160228
v -2.359738 0.784103 -1.159228
v -2.361337 0.786910 -1.157602
v -2.363199 0.786288 -1.158627
v -2.365575 0.785627 -1.160197
v -2.363772 0.782920 -1.161745
v -2.362057 0.780043 -1.163128
v -2.360046 0.780593 -1.161795
v -2.358468 0.781107 -1.160928
v -2.365862 0.782539 -1.163559
v -2.367754 0.785247 -1.162110
v -2.369297 0.785090 -1.163691
v -2.367347 0.782363 -1.165048
v -2.365203 0.779566 -1.166081
v -2.363901 0.779712 -1.164743
v -2.369714 0.787732 -1.160367
v -2.367528 0.788071 -1.158375
v -2.371243 0.787645 -1.162044
v -2.365088 0.788790 -1.156828
v -2.363158 0.789494 -1.155860
v -2.358842 0.777529 -1.163487
v -2.357627 0.777955 -1.162894
v -2.360368 0.777093 -1.164453
v -2.359099 0.774872 -1.165448
v -2.358025 0.775204 -1.164828
v -2.357469 0.776097 -1.164152
v -2.361731 0.776869 -1.165696
v -2.362672 0.776801 -1.166753
v -2.361013 0.775286 -1.166863
v -2.360009 0.774751 -1.166346
v -2.357200 0.778146 -1.162769
v -2.357095 0.775597 -1.164519
v -2.357919 0.781328 -1.160711
v -2.357469 0.776097 -1.164152
v -2.359391 0.774099 -1.166619
v -2.360613 0.774793 -1.167211
v -2.358639 0.774184 -1.165843
v -2.361013 0.775286 -1.166863
v -2.374203 0.791441 -1.159016
v -2.374537 0.792576 -1.156933
v -2.373297 0.789876 -1.160857
v -2.374298 0.792381 -1.156755
v -2.371209 0.794207 -1.151970
v -2.368582 0.793938 -1.152377
v -2.373433 0.794048 -1.152442
v -2.368747 0.793651 -1.152509
v -2.366393 0.793227 -1.153042
v -2.364436 0.791902 -1.154078
v -2.357724 0.774480 -1.165344
v -2.362937 0.776834 -1.167157
v -2.365590 0.779574 -1.166579
v -2.374412 0.793474 -1.154419
v -2.371710 0.787683 -1.162647
v -2.369767 0.785100 -1.164266
v -2.362503 0.789789 -1.155604
v -2.360698 0.787174 -1.157329
v -2.359128 0.784346 -1.158964
v -2.367797 0.782363 -1.165596
vn 0.396000 0.825400 -0.402400
vn 0.219900 0.817700 -0.532000
vn 0.254500 0.783400 -0.566900
vn 0.413500 0.789800 -0.453000
vn 0.420700 0.773900 -0.473300
vn 0.390600 0.825100 -0.408200
vn 0.366700 0.857400 -0.360900
vn 0.312200 0.873400 -0.373600
vn 0.164400 0.865200 -0.473600
vn 0.057600 0.748000 -0.661200
vn 0.064400 0.750500 -0.657600
vn 0.132900 0.708100 -0.693500
vn 0.111000 0.720600 -0.684400
vn 0.035800 0.810300 -0.584900
vn 0.016300 0.777500 -0.628700
vn 0.302200 0.585700 -0.752000
vn 0.336500 0.587800 -0.735600
vn 0.354300 0.563100 -0.746500
vn 0.311700 0.557800 -0.769200
vn 0.410300 0.574600 -0.708200
vn 0.389900 0.608100 -0.691500
vn 0.346800 0.672000 -0.654300
vn 0.253000 0.639500 -0.725900
vn 0.284100 0.633600 -0.719600
vn 0.472100 0.624600 -0.622100
vn 0.493900 0.599400 -0.629800
vn 0.461800 0.587600 -0.664400
vn 0.448600 0.613500 -0.649900
vn 0.432400 0.667500 -0.606200
vn 0.443600 0.683100 -0.580100
vn 0.421600 0.745100 -0.516700
vn 0.296300 0.736800 -0.607700
vn 0.423600 0.726100 -0.541600
vn 0.181300 0.690200 -0.700500
vn 0.209400 0.677100 -0.705500
vn 0.297000 0.539900 -0.787500
vn 0.345000 0.542600 -0.765900
vn 0.326500 0.521200 -0.788500
vn 0.304600 0.487800 -0.818000
vn 0.445100 0.511700 -0.734900
vn 0.419700 0.558400 -0.715500
vn 0.519200 0.590700 -0.617600
vn 0.560600 0.546400 -0.622200
vn 0.518800 0.565100 -0.641400
vn 0.487600 0.575100 -0.656800
vn -0.429400 -0.811500 0.396300
vn -0.229500 -0.808600 0.541800
vn -0.266000 -0.771200 0.578400
vn -0.524700 -0.765500 0.372400
vn -0.614000 -0.731400 0.296700
vn -0.593700 -0.742300 0.310600
vn -0.549900 -0.750900 0.365600
vn -0.425400 -0.789100 0.443100
vn -0.254400 -0.783500 0.566900
vn -0.048500 -0.724400 0.687600
vn 0.048600 -0.595400 0.801900
vn 0.063000 -0.576700 0.814500
vn -0.017900 -0.649700 0.759900
vn -0.099400 -0.714500 0.692500
vn -0.010100 -0.627500 0.778600
vn -0.288200 -0.582700 0.759800
vn -0.188900 -0.558100 0.807900
vn -0.152400 -0.594100 0.789800
vn -0.240400 -0.635800 0.733400
vn -0.346800 -0.671900 0.654300
vn -0.390000 -0.607900 0.691600
vn -0.410300 -0.574500 0.708200
vn -0.294400 -0.555800 0.777400
vn -0.168700 -0.548300 0.819100
vn -0.483400 -0.627300 0.610600
vn -0.454400 -0.684700 0.569800
vn -0.538200 -0.682300 0.494700
vn -0.557100 -0.642300 0.526300
vn -0.574800 -0.641100 0.508500
vn -0.505900 -0.604100 0.615600
vn -0.432300 -0.745900 0.506700
vn -0.296300 -0.736800 0.607700
vn -0.531800 -0.727600 0.433300
vn -0.169400 -0.685800 0.707800
vn -0.083800 -0.625100 0.776000
vn -0.266200 -0.549000 0.792300
vn -0.104100 -0.556100 0.824500
vn -0.414000 -0.568300 0.711100
vn -0.388400 -0.610400 0.690300
vn -0.169300 -0.582300 0.795100
vn -0.062500 -0.564200 0.823200
vn -0.527900 -0.608800 0.592100
vn -0.592000 -0.667600 0.451400
vn -0.597800 -0.686500 0.413900
vn -0.542800 -0.667600 0.509600
vn 0.965800 -0.016600 0.258800
vn 0.949000 -0.313900 -0.027600
vn 0.924800 0.084400 0.370900
vn -0.062500 -0.564200 0.823200
vn 0.285600 -0.798500 -0.530000
vn -0.097300 -0.552700 -0.827700
vn 0.415300 -0.864100 -0.284300
vn -0.597800 -0.686500 0.413900
vn -0.798400 0.284400 -0.530700
vn -0.854500 0.450200 -0.259000
vn -0.740300 0.128100 -0.660000
vn -0.614000 -0.731400 0.296700
vn -0.102500 0.632600 0.767700
vn 0.305200 0.715300 0.628600
vn -0.597700 0.489400 0.634900
vn 0.063000 -0.576700 0.814500
vn 0.592900 0.602700 0.534000
vn 0.744600 0.467900 0.476100
vn 0.654900 -0.714000 -0.247500
vn -0.451300 -0.340500 -0.824900
vn -0.574900 -0.258500 -0.776300
vn -0.871200 0.456900 0.179700
vn -0.696600 -0.001000 -0.717500
vn -0.673900 -0.083300 -0.734100
vn 0.824800 0.347000 0.446300
vn 0.858500 0.266900 0.437800
vn 0.885100 0.185800 0.426700
vn -0.646800 -0.164300 -0.744800
vt 0.839504 0.118056
vt 0.856743 0.205307
vt 0.741230 0.205307
vt 0.734555 0.106726
vt 0.724541 0.032791
vt 0.813647 0.052618
vt 0.868992 0.081539
vt 0.913398 0.129584
vt 0.940923 0.205307
vt 0.839504 0.292557
vt 0.813647 0.357995
vt 0.724541 0.377822
vt 0.734555 0.303887
vt 0.913398 0.281029
vt 0.868992 0.329074
vt 0.369475 0.299954
vt 0.368286 0.370940
vt 0.245840 0.351447
vt 0.246397 0.288815
vt 0.246768 0.205307
vt 0.370268 0.205307
vt 0.494283 0.205307
vt 0.492822 0.304944
vt 0.490632 0.379672
vt 0.369475 0.110659
vt 0.246397 0.121798
vt 0.245841 0.059166
vt 0.368286 0.039673
vt 0.490632 0.030941
vt 0.492822 0.105669
vt 0.616755 0.103478
vt 0.619174 0.205307
vt 0.613127 0.027106
vt 0.616755 0.307135
vt 0.613126 0.383507
vt 0.123273 0.268175
vt 0.123047 0.315326
vt 0.054743 0.283353
vt 0.030912 0.249131
vt 0.030973 0.205306
vt 0.123423 0.205306
vt 0.123273 0.142438
vt 0.030912 0.161481
vt 0.054744 0.127260
vt 0.123047 0.095287
vt 0.839504 0.118056
vt 0.856743 0.205307
vt 0.968983 0.205307
vt 0.938030 0.133427
vt 0.876123 0.061548
vt 0.805028 0.030806
vt 0.721203 0.008146
vt 0.734555 0.106726
vt 0.741230 0.205307
vt 0.839504 0.292557
vt 0.805028 0.379807
vt 0.876123 0.349065
vt 0.938030 0.277186
vt 0.734555 0.303887
vt 0.721203 0.402467
vt 0.369475 0.299954
vt 0.367890 0.394602
vt 0.489902 0.404581
vt 0.492822 0.304944
vt 0.494283 0.205307
vt 0.370268 0.205307
vt 0.246768 0.205307
vt 0.246397 0.288815
vt 0.245655 0.372324
vt 0.369475 0.110659
vt 0.492822 0.105669
vt 0.489902 0.006032
vt 0.367890 0.016011
vt 0.245655 0.038289
vt 0.246397 0.121798
vt 0.616755 0.103478
vt 0.619174 0.205307
vt 0.611917 0.001649
vt 0.616755 0.307135
vt 0.611917 0.408964
vt 0.123273 0.268175
vt 0.122972 0.331043
vt 0.123423 0.205306
vt 0.000156 0.205306
vt 0.000125 0.242784
vt 0.000064 0.280261
vt 0.123273 0.142438
vt 0.122972 0.079570
vt 0.000064 0.130352
vt 0.000125 0.167829
vt 0.122972 0.331043
vt 0.030806 0.283587
vt 0.245655 0.372324
vt 0.030806 0.283587
vt 0.000125 0.167829
vt 0.030806 0.127026
vt 0.000156 0.205306
vt 0.030806 0.127026
vt 0.805028 0.030806
vt 0.873826 0.071832
vt 0.721203 0.008146
vt 0.873826 0.071832
vt 0.938030 0.277186
vt 0.873826 0.338781
vt 0.968983 0.205307
vt 0.873826 0.338781
vt 0.805028 0.379807
vt 0.721203 0.402467
vt 0.000125 0.242784
vt 0.122972 0.079570
vt 0.245655 0.038289
vt 0.938030 0.133427
vt 0.611917 0.001649
vt 0.489902 0.006032
vt 0.611917 0.408964
vt 0.489902 0.404581
vt 0.367890 0.394602
vt 0.367890 0.016011
f 1/1/1 2/2/2 3/3/3
f 1/1/1 3/3/3 4/4/4
f 1/1/1 4/4/4 5/5/5
f 1/1/1 5/5/5 6/6/6
f 1/1/1 6/6/6 7/7/7
f 1/1/1 7/7/7 8/8/8
f 1/1/1 8/8/8 9/9/9
f 1/1/1 9/9/9 2/2/2
f 10/10/10 11/11/11 12/12/12
f 10/10/10 12/12/12 13/13/13
f 10/10/10 13/13/13 3/3/3
f 10/10/10 3/3/3 2/2/2
f 10/10/10 2/2/2 9/9/9
f 10/10/10 9/9/9 14/14/14
f 10/10/10 14/14/14 15/15/15
f 10/10/10 15/15/15 11/11/11
f 16/16/16 17/17/17 18/18/18
f 16/16/16 18/18/18 19/19/19
f 16/16/16 19/19/19 20/20/20
f 16/16/16 20/20/20 21/21/21
f 16/16/16 21/21/21 22/22/22
f 16/16/16 22/22/22 23/23/23
f 16/16/16 23/23/23 24/24/24
f 16/16/16 24/24/24 17/17/17
f 25/25/25 21/21/21 20/20/20
f 25/25/25 20/20/20 26/26/26
f 25/25/25 26/26/26 27/27/27
f 25/25/25 27/27/27 28/28/28
f 25/25/25 28/28/28 29/29/29
f 25/25/25 29/29/29 30/30/30
f 25/25/25 30/30/30 22/22/22
f 25/25/25 22/22/22 21/21/21
f 31/31/31 32/32/32 22/22/22
f 31/31/31 22/22/22 30/30/30
f 31/31/31 30/30/30 29/29/29
f 31/31/31 29/29/29 33/33/33
f 31/31/31 33/33/33 5/5/5
f 31/31/31 5/5/5 4/4/4
f 31/31/31 4/4/4 3/3/3
f 31/31/31 3/3/3 32/32/32
f 34/34/34 35/35/35 24/24/24
f 34/34/34 24/24/24 23/23/23
f 34/34/34 23/23/23 22/22/22
f 34/34/34 22/22/22 32/32/32
f 34/34/34 32/32/32 3/3/3
f 34/34/34 3/3/3 13/13/13
f 34/34/34 13/13/13 12/12/12
f 34/34/34 12/12/12 35/35/35
f 36/36/36 37/37/37 38/38/38
f 36/36/36 38/38/38 39/39/39
f 36/36/36 39/39/39 40/40/40
f 36/36/36 40/40/40 41/41/41
f 36/36/36 41/41/41 20/20/20
f 36/36/36 20/20/20 19/19/19
f 36/36/36 19/19/19 18/18/18
f 36/36/36 18/18/18 37/37/37
f 42/42/42 41/41/41 40/40/40
f 42/42/42 40/40/40 43/43/43
f 42/42/42 43/43/43 44/44/44
f 42/42/42 44/44/44 45/45/45
f 42/42/42 45/45/45 27/27/27
f 42/42/42 27/27/27 26/26/26
f 42/42/42 26/26/26 20/20/20
f 42/42/42 20/20/20 41/41/41
f 46/46/46 47/47/47 48/48/48
f 46/46/46 48/48/48 49/49/49
f 46/46/46 49/49/49 50/50/50
f 46/46/46 50/50/50 51/51/51
f 46/46/46 51/51/51 52/52/52
f 46/46/46 52/52/52 53/53/53
f 46/46/46 53/53/53 54/54/54
f 46/46/46 54/54/54 47/47/47
f 55/55/55 56/56/56 57/57/57
f 55/55/55 57/57/57 58/58/58
f 55/55/55 58/58/58 48/48/48
f 55/55/55 48/48/48 47/47/47
f 55/55/55 47/47/47 54/54/54
f 55/55/55 54/54/54 59/59/59
f 55/55/55 59/59/59 60/60/60
f 55/55/55 60/60/60 56/56/56
f 61/61/61 62/62/62 63/63/63
f 61/61/61 63/63/63 64/64/64
f 61/61/61 64/64/64 65/65/65
f 61/61/61 65/65/65 66/66/66
f 61/61/61 66/66/66 67/67/67
f 61/61/61 67/67/67 68/68/68
f 61/61/61 68/68/68 69/69/69
f 61/61/61 69/69/69 62/62/62
f 70/70/70 66/66/66 65/65/65
f 70/70/70 65/65/65 71/71/71
f 70/70/70 71/71/71 72/72/72
f 70/70/70 72/72/72 73/73/73
f 70/70/70 73/73/73 74/74/74
f 70/70/70 74/74/74 75/75/75
f 70/70/70 75/75/75 67/67/67
f 70/70/70 67/67/67 66/66/66
f 76/76/76 77/77/77 54/54/54
f 76/76/76 54/54/54 53/53/53
f 76/76/76 53/53/53 52/52/52
f 76/76/76 52/52/52 78/78/78
f 76/76/76 78/78/78 72/72/72
f 76/76/76 72/72/72 71/71/71
f 76/76/76 71/71/71 65/65/65
f 76/76/76 65/65/65 77/77/77
f 79/79/79 80/80/80 60/60/60
f 79/79/79 60/60/60 59/59/59
f 79/79/79 59/59/59 54/54/54
f 79/79/79 54/54/54 77/77/77
f 79/79/79 77/77/77 65/65/65
f 79/79/79 65/65/65 64/64/64
f 79/79/79 64/64/64 63/63/63
f 79/79/79 63/63/63 80/80/80
f 81/81/81 82/82/82 69/69/69
f 81/81/81 69/69/69 68/68/68
f 81/81/81 68/68/68 67/67/67
f 81/81/81 67/67/67 83/83/83
f 81/81/81 83/83/83 84/84/84
f 81/81/81 84/84/84 85/85/85
f 81/81/81 85/85/85 86/86/86
f 81/81/81 86/86/86 82/82/82
f 87/87/87 83/83/83 67/67/67
f 87/87/87 67/67/67 75/75/75
f 87/87/87 75/75/75 74/74/74
f 87/87/87 74/74/74 88/88/88
f 87/87/87 88/88/88 89/89/89
f 87/87/87 89/89/89 90/90/90
f 87/87/87 90/90/90 84/84/84
f 87/87/87 84/84/84 83/83/83
f 91/91/91 92/92/92 38/38/38
f 91/91/91 38/38/38 37/37/37
f 91/91/91 37/37/37 18/18/18
f 91/91/91 18/18/18 93/93/93
f 91/91/91 93/93/93 69/69/69
f 91/91/91 69/69/69 82/82/82
f 91/91/91 82/82/82 94/94/94
f 91/91/91 94/94/94 92/92/92
f 95/95/95 96/96/96 44/44/44
f 95/95/95 44/44/44 43/43/43
f 95/95/95 43/43/43 40/40/40
f 95/95/95 40/40/40 97/97/97
f 95/95/95 97/97/97 84/84/84
f 95/95/95 84/84/84 90/90/90
f 95/95/95 90/90/90 98/98/98
f 95/95/95 98/98/98 96/96/96
f 99/99/99 100/100/100 7/7/7
f 99/99/99 7/7/7 6/6/6
f 99/99/99 6/6/6 5/5/5
f 99/99/99 5/5/5 101/101/101
f 99/99/99 101/101/101 52/52/52
f 99/99/99 52/52/52 51/51/51
f 99/99/99 51/51/51 102/102/102
f 99/99/99 102/102/102 100/100/100
f 103/103/103 104/104/104 15/15/15
f 103/103/103 15/15/15 14/14/14
f 103/103/103 14/14/14 9/9/9
f 103/103/103 9/9/9 105/105/105
f 103/103/103 105/105/105 48/48/48
f 103/103/103 48/48/48 58/58/58
f 103/103/103 58/58/58 106/106/106
f 103/103/103 106/106/106 104/104/104
f 107/107/107 108/108/108 12/12/12
f 107/107/107 12/12/12 11/11/11
f 107/107/107 11/11/11 15/15/15
f 107/107/107 15/15/15 104/104/104
f 107/107/107 104/104/104 106/106/106
f 107/107/107 106/106/106 56/56/56
f 107/107/107 56/56/56 60/60/60
f 107/107/107 60/60/60 108/108/108
f 109/109/109 97/97/97 40/40/40
f 109/109/109 40/40/40 39/39/39
f 109/109/109 39/39/39 38/38/38
f 109/109/109 38/38/38 92/92/92
f 109/109/109 92/92/92 94/94/94
f 109/109/109 94/94/94 85/85/85
f 109/109/109 85/85/85 84/84/84
f 109/109/109 84/84/84 97/97/97
f 110/110/110 111/111/111 27/27/27
f 110/110/110 27/27/27 45/45/45
f 110/110/110 45/45/45 44/44/44
f 110/110/110 44/44/44 96/96/96
f 110/110/110 96/96/96 98/98/98
f 110/110/110 98/98/98 88/88/88
f 110/110/110 88/88/88 74/74/74
f 110/110/110 74/74/74 111/111/111
f 112/112/112 105/105/105 9/9/9
f 112/112/112 9/9/9 8/8/8
f 112/112/112 8/8/8 7/7/7
f 112/112/112 7/7/7 100/100/100
f 112/112/112 100/100/100 102/102/102
f 112/112/112 102/102/102 49/49/49
f 112/112/112 49/49/49 48/48/48
f 112/112/112 48/48/48 105/105/105
f 113/113/113 101/101/101 5/5/5
f 113/113/113 5/5/5 33/33/33
f 113/113/113 33/33/33 29/29/29
f 113/113/113 29/29/29 114/114/114
f 113/113/113 114/114/114 72/72/72
f 113/113/113 72/72/72 78/78/78
f 113/113/113 78/78/78 52/52/52
f 113/113/113 52/52/52 101/101/101
f 115/115/115 116/116/116 24/24/24
f 115/115/115 24/24/24 35/35/35
f 115/115/115 35/35/35 12/12/12
f 115/115/115 12/12/12 108/108/108
f 115/115/115 108/108/108 60/60/60
f 115/115/115 60/60/60 80/80/80
f 115/115/115 80/80/80 63/63/63
f 115/115/115 63/63/63 116/116/116
f 117/117/117 93/93/93 18/18/18
f 117/117/117 18/18/18 17/17/17
f 117/117/117 17/17/17 24/24/24
f 117/117/117 24/24/24 116/116/116
f 117/117/117 116/116/116 63/63/63
f 117/117/117 63/63/63 62/62/62
f 117/117/117 62/62/62 69/69/69
f 117/117/117 69/69/69 93/93/93
f 118/118/118 114/114/114 29/29/29
f 118/118/118 29/29/29 28/28/28
f 118/118/118 28/28/28 27/27/27
f 118/118/118 27/27/27 111/111/111
f 118/118/118 111/111/111 74/74/74
f 118/118/118 74/74/74 73/73/73
f 118/118/118 73/73/73 72/72/72
f 118/118/118 72/72/72 114/114/114
