v -2.351473 0.712169 -1.089840
v -2.349861 0.712609 -1.091349
v -2.352048 0.711531 -1.093090
v -2.353611 0.711094 -1.091184
v -2.354985 0.710907 -1.089829
v -2.353038 0.711918 -1.088900
v -2.351506 0.712441 -1.088648
v -2.349863 0.712846 -1.088956
v -2.348212 0.713306 -1.090074
v -2.349224 0.713330 -1.093383
v -2.349095 0.713954 -1.095113
v -2.350506 0.713220 -1.096887
v -2.351055 0.712413 -1.095211
v -2.347917 0.713851 -1.092023
v -2.348312 0.714090 -1.093680
v -2.357087 0.707607 -1.100553
v -2.356310 0.708265 -1.102085
v -2.358288 0.706104 -1.103446
v -2.358965 0.705513 -1.102086
v -2.359955 0.704819 -1.100308
v -2.358217 0.706831 -1.098545
v -2.356344 0.708668 -1.096754
v -2.355174 0.709498 -1.098857
v -2.354383 0.710213 -1.100464
v -2.359591 0.706314 -1.096607
v -2.361179 0.704369 -1.098597
v -2.362169 0.704100 -1.097331
v -2.360697 0.705999 -1.095172
v -2.358972 0.707844 -1.093232
v -2.357794 0.708145 -1.094729
v -2.355759 0.709746 -1.092868
v -2.354248 0.710226 -1.094914
v -2.357015 0.709514 -1.091362
v -2.353101 0.711118 -1.097056
v -2.352358 0.711919 -1.098701
v -2.360936 0.703282 -1.103400
v -2.360466 0.703760 -1.104427
v -2.361763 0.702299 -1.104705
v -2.362428 0.701538 -1.104299
v -2.362879 0.701127 -1.103373
v -2.361647 0.702737 -1.102064
v -2.362588 0.702429 -1.100796
v -2.363560 0.700953 -1.102515
v -2.363801 0.701246 -1.101495
v -2.363364 0.702264 -1.099861
v -2.351379 0.711955 -1.089811
v -2.349749 0.712402 -1.091346
v -2.348131 0.713149 -1.090073
v -2.349796 0.712684 -1.088935
v -2.351459 0.712321 -1.088626
v -2.352977 0.711756 -1.088864
v -2.354916 0.710748 -1.089792
v -2.353508 0.710885 -1.091152
v -2.351930 0.711327 -1.093081
v -2.349097 0.713134 -1.093407
v -2.348992 0.713814 -1.095144
v -2.348239 0.713984 -1.093700
v -2.347823 0.713703 -1.092044
v -2.350922 0.712220 -1.095226
v -2.350399 0.713080 -1.096910
v -2.356929 0.707432 -1.100536
v -2.356187 0.708137 -1.102081
v -2.354265 0.710081 -1.100466
v -2.355024 0.709316 -1.098848
v -2.356204 0.708479 -1.096728
v -2.358069 0.706649 -1.098511
v -2.359802 0.704643 -1.100268
v -2.358802 0.705343 -1.102064
v -2.358161 0.705980 -1.103438
v -2.359454 0.706127 -1.096556
v -2.357666 0.707951 -1.094685
v -2.358883 0.707696 -1.093190
v -2.360601 0.705857 -1.095125
v -2.362069 0.703962 -1.097280
v -2.361037 0.704188 -1.098541
v -2.355644 0.709543 -1.092830
v -2.354120 0.710029 -1.094897
v -2.356936 0.709360 -1.091323
v -2.352960 0.710929 -1.097059
v -2.352246 0.711782 -1.098713
v -2.360770 0.703115 -1.103377
v -2.360337 0.703639 -1.104419
v -2.361492 0.702563 -1.102022
v -2.362763 0.700997 -1.103342
v -2.362303 0.701413 -1.104283
v -2.361669 0.702208 -1.104697
v -2.362445 0.702250 -1.100736
v -2.363263 0.702128 -1.099807
v -2.363725 0.701146 -1.101457
v -2.363453 0.700819 -1.102469
v -2.360251 0.703867 -1.104767
v -2.362088 0.701886 -1.105051
v -2.358005 0.706246 -1.103897
v -2.361669 0.702208 -1.104697
v -2.363837 0.700402 -1.103068
v -2.364129 0.700832 -1.101834
v -2.363238 0.700533 -1.103796
v -2.363725 0.701146 -1.101457
v -2.353535 0.711762 -1.088567
v -2.351562 0.712461 -1.088366
v -2.355414 0.710773 -1.089358
v -2.351459 0.712321 -1.088626
v -2.347439 0.713959 -1.091580
v -2.348108 0.714245 -1.093810
v -2.347627 0.713468 -1.089649
v -2.348239 0.713984 -1.093700
v -2.349005 0.714101 -1.095706
v -2.350274 0.713428 -1.097458
v -2.362869 0.700901 -1.104592
v -2.363580 0.702148 -1.099523
v -2.362455 0.703948 -1.096885
v -2.349297 0.713000 -1.088652
v -2.357401 0.709368 -1.090840
v -2.359326 0.707677 -1.092712
v -2.352059 0.712126 -1.099257
v -2.354065 0.710394 -1.101002
v -2.355995 0.708428 -1.102596
v -2.361025 0.705831 -1.094671
vn -0.327500 0.929500 -0.169300
vn -0.434300 0.900500 0.019500
vn -0.477700 0.878400 -0.015300
vn -0.384400 0.904300 -0.185500
vn -0.407500 0.892700 -0.192400
vn -0.332600 0.928800 -0.163200
vn -0.278500 0.950100 -0.140800
vn -0.282000 0.955800 -0.083000
vn -0.363500 0.928600 0.073600
vn -0.551100 0.814100 0.183100
vn -0.548200 0.817500 0.176400
vn -0.597700 0.794500 0.107300
vn -0.584400 0.801000 0.129600
vn -0.464700 0.861500 0.204700
vn -0.510000 0.830500 0.223900
vn -0.693300 0.717100 -0.071400
vn -0.681100 0.724400 -0.106700
vn -0.697500 0.705200 -0.127000
vn -0.715400 0.693700 -0.083300
vn -0.665100 0.723500 -0.185000
vn -0.641500 0.750000 -0.161300
vn -0.590600 0.799000 -0.113000
vn -0.654000 0.756200 -0.017400
vn -0.652400 0.756200 -0.049700
vn -0.581000 0.775000 -0.248300
vn -0.594900 0.755900 -0.273100
vn -0.626500 0.741900 -0.239000
vn -0.607100 0.762500 -0.223500
vn -0.554500 0.806800 -0.204000
vn -0.528100 0.821300 -0.215800
vn -0.454400 0.869800 -0.192200
vn -0.529400 0.846300 -0.058700
vn -0.481700 0.854500 -0.194100
vn -0.613100 0.787800 0.058000
vn -0.623300 0.781400 0.029000
vn -0.734000 0.675500 -0.069800
vn -0.718300 0.685500 -0.119000
vn -0.741300 0.663400 -0.101700
vn -0.772300 0.629800 -0.082400
vn -0.704400 0.672600 -0.226600
vn -0.675700 0.710600 -0.196000
vn -0.587200 0.751300 -0.301200
vn -0.603200 0.717200 -0.349000
vn -0.614100 0.729100 -0.302000
vn -0.623900 0.734200 -0.267500
vn 0.327600 -0.922200 0.205200
vn 0.446400 -0.894700 -0.009900
vn 0.492100 -0.870100 0.027200
vn 0.322300 -0.894500 0.309900
vn 0.263700 -0.871200 0.414100
vn 0.273400 -0.879100 0.390500
vn 0.320800 -0.884700 0.338100
vn 0.376300 -0.904900 0.198500
vn 0.477600 -0.878400 0.015300
vn 0.579300 -0.792300 -0.191400
vn 0.697900 -0.659800 -0.278400
vn 0.711200 -0.640000 -0.290800
vn 0.657300 -0.721400 -0.217800
vn 0.591700 -0.793700 -0.140800
vn 0.677600 -0.700500 -0.224000
vn 0.699700 -0.712100 0.057300
vn 0.738200 -0.673200 -0.041500
vn 0.710800 -0.698600 -0.081100
vn 0.660300 -0.750900 0.004800
vn 0.590700 -0.798900 0.113000
vn 0.641600 -0.749800 0.161400
vn 0.665100 -0.723400 0.185000
vn 0.721500 -0.689200 0.065700
vn 0.748000 -0.660800 -0.061000
vn 0.570800 -0.778700 0.260400
vn 0.519000 -0.823900 0.227600
vn 0.455800 -0.830300 0.320500
vn 0.494900 -0.798900 0.341800
vn 0.479700 -0.799300 0.361800
vn 0.581700 -0.761400 0.286000
vn 0.445700 -0.871600 0.203900
vn 0.529400 -0.846300 0.058700
vn 0.388300 -0.866000 0.314800
vn 0.619500 -0.781900 -0.069800
vn 0.684400 -0.713100 -0.151500
vn 0.733600 -0.678500 0.037400
vn 0.744400 -0.655700 -0.126000
vn 0.669300 -0.718500 0.189300
vn 0.639700 -0.751800 0.159600
vn 0.719800 -0.691200 -0.063200
vn 0.736900 -0.654800 -0.167700
vn 0.560600 -0.767800 0.310000
vn 0.422000 -0.822200 0.381900
vn 0.383200 -0.837500 0.389400
vn 0.473100 -0.818600 0.325500
vn 0.133600 0.153700 -0.979000
vn -0.187700 -0.106400 -0.976400
vn 0.263000 0.230800 -0.936800
vn 0.736900 -0.654800 -0.167700
vn -0.668200 -0.657000 -0.348900
vn -0.878900 -0.463400 0.112600
vn -0.452500 -0.722000 -0.523400
vn 0.383200 -0.837500 0.389400
vn -0.382700 0.172600 0.907600
vn -0.085600 0.290800 0.952900
vn -0.539200 0.047200 0.840800
vn 0.263700 -0.871200 0.414100
vn 0.855800 0.506500 0.104700
vn 0.680600 0.686800 -0.255000
vn 0.766200 0.280300 0.578200
vn 0.711200 -0.640000 -0.290800
vn 0.536600 0.647300 -0.541400
vn 0.442100 0.553800 -0.705600
vn -0.424300 -0.531000 -0.733400
vn -0.802900 -0.329700 0.496600
vn -0.728400 -0.281200 0.624800
vn 0.347800 0.244100 0.905200
vn -0.619500 -0.062800 0.782500
vn -0.650500 -0.136600 0.747100
vn 0.385900 0.456300 -0.801800
vn 0.362600 0.386700 -0.847900
vn 0.337100 0.314700 -0.887300
vn -0.675800 -0.208600 0.706900
vt 0.839504 0.118056
vt 0.856743 0.205307
vt 0.741230 0.205307
vt 0.734555 0.106726
vt 0.724541 0.032791
vt 0.813647 0.052618
vt 0.868992 0.081539
vt 0.913398 0.129584
vt 0.940923 0.205307
vt 0.839504 0.292557
vt 0.813647 0.357995
vt 0.724541 0.377822
vt 0.734555 0.303887
vt 0.913398 0.281029
vt 0.868992 0.329074
vt 0.369475 0.299954
vt 0.368286 0.370940
vt 0.245840 0.351447
vt 0.246397 0.288815
vt 0.246768 0.205307
vt 0.370268 0.205307
vt 0.494283 0.205307
vt 0.492822 0.304944
vt 0.490632 0.379672
vt 0.369475 0.110659
vt 0.246397 0.121798
vt 0.245841 0.059166
vt 0.368286 0.039673
vt 0.490632 0.030941
vt 0.492822 0.105669
vt 0.616755 0.103478
vt 0.619174 0.205307
vt 0.613127 0.027106
vt 0.616755 0.307135
vt 0.613126 0.383507
vt 0.123273 0.268175
vt 0.123047 0.315326
vt 0.054743 0.283353
vt 0.030912 0.249131
vt 0.030973 0.205306
vt 0.123423 0.205306
vt 0.123273 0.142438
vt 0.030912 0.161481
vt 0.054744 0.127260
vt 0.123047 0.095287
vt 0.839504 0.118056
vt 0.856743 0.205307
vt 0.968983 0.205307
vt 0.938030 0.133427
vt 0.876123 0.061548
vt 0.805028 0.030806
vt 0.721203 0.008146
vt 0.734555 0.106726
vt 0.741230 0.205307
vt 0.839504 0.292557
vt 0.805028 0.379807
vt 0.876123 0.349065
vt 0.938030 0.277186
vt 0.734555 0.303887
vt 0.721203 0.402467
vt 0.369475 0.299954
vt 0.367890 0.394602
vt 0.489902 0.404581
vt 0.492822 0.304944
vt 0.494283 0.205307
vt 0.370268 0.205307
vt 0.246768 0.205307
vt 0.246397 0.288815
vt 0.245655 0.372324
vt 0.369475 0.110659
vt 0.492822 0.105669
vt 0.489902 0.006032
vt 0.367890 0.016011
vt 0.245655 0.038289
vt 0.246397 0.121798
vt 0.616755 0.103478
vt 0.619174 0.205307
vt 0.611917 0.001649
vt 0.616755 0.307135
vt 0.611917 0.408964
vt 0.123273 0.268175
vt 0.122972 0.331043
vt 0.123423 0.205306
vt 0.000156 0.205306
vt 0.000125 0.242784
vt 0.000064 0.280261
vt 0.123273 0.142438
vt 0.122972 0.079570
vt 0.000064 0.130352
vt 0.000125 0.167829
vt 0.122972 0.331043
vt 0.030806 0.283587
vt 0.245655 0.372324
vt 0.030806 0.283587
vt 0.000125 0.167829
vt 0.030806 0.127026
vt 0.000156 0.205306
vt 0.030806 0.127026
vt 0.805028 0.030806
vt 0.873826 0.071832
vt 0.721203 0.008146
vt 0.873826 0.071832
vt 0.938030 0.277186
vt 0.873826 0.338781
vt 0.968983 0.205307
vt 0.873826 0.338781
vt 0.805028 0.379807
vt 0.721203 0.402467
vt 0.000125 0.242784
vt 0.122972 0.079570
vt 0.245655 0.038289
vt 0.938030 0.133427
vt 0.611917 0.001649
vt 0.489902 0.006032
vt 0.611917 0.408964
vt 0.489902 0.404581
vt 0.367890 0.394602
vt 0.367890 0.016011
f 1/1/1 2/2/2 3/3/3
f 1/1/1 3/3/3 4/4/4
f 1/1/1 4/4/4 5/5/5
f 1/1/1 5/5/5 6/6/6
f 1/1/1 6/6/6 7/7/7
f 1/1/1 7/7/7 8/8/8
f 1/1/1 8/8/8 9/9/9
f 1/1/1 9/9/9 2/2/2
f 10/10/10 11/11/11 12/12/12
f 10/10/10 12/12/12 13/13/13
f 10/10/10 13/13/13 3/3/3
f 10/10/10 3/3/3 2/2/2
f 10/10/10 2/2/2 9/9/9
f 10/10/10 9/9/9 14/14/14
f 10/10/10 14/14/14 15/15/15
f 10/10/10 15/15/15 11/11/11
f 16/16/16 17/17/17 18/18/18
f 16/16/16 18/18/18 19/19/19
f 16/16/16 19/19/19 20/20/20
f 16/16/16 20/20/20 21/21/21
f 16/16/16 21/21/21 22/22/22
f 16/16/16 22/22/22 23/23/23
f 16/16/16 23/23/23 24/24/24
f 16/16/16 24/24/24 17/17/17
f 25/25/25 21/21/21 20/20/20
f 25/25/25 20/20/20 26/26/26
f 25/25/25 26/26/26 27/27/27
f 25/25/25 27/27/27 28/28/28
f 25/25/25 28/28/28 29/29/29
f 25/25/25 29/29/29 30/30/30
f 25/25/25 30/30/30 22/22/22
f 25/25/25 22/22/22 21/21/21
f 31/31/31 32/32/32 22/22/22
f 31/31/31 22/22/22 30/30/30
f 31/31/31 30/30/30 29/29/29
f 31/31/31 29/29/29 33/33/33
f 31/31/31 33/33/33 5/5/5
f 31/31/31 5/5/5 4/4/4
f 31/31/31 4/4/4 3/3/3
f 31/31/31 3/3/3 32/32/32
f 34/34/34 35/35/35 24/24/24
f 34/34/34 24/24/24 23/23/23
f 34/34/34 23/23/23 22/22/22
f 34/34/34 22/22/22 32/32/32
f 34/34/34 32/32/32 3/3/3
f 34/34/34 3/3/3 13/13/13
f 34/34/34 13/13/13 12/12/12
f 34/34/34 12/12/12 35/35/35
f 36/36/36 37/37/37 38/38/38
f 36/36/36 38/38/38 39/39/39
f 36/36/36 39/39/39 40/40/40
f 36/36/36 40/40/40 41/41/41
f 36/36/36 41/41/41 20/20/20
f 36/36/36 20/20/20 19/19/19
f 36/36/36 19/19/19 18/18/18
f 36/36/36 18/18/18 37/37/37
f 42/42/42 41/41/41 40/40/40
f 42/42/42 40/40/40 43/43/43
f 42/42/42 43/43/43 44/44/44
f 42/42/42 44/44/44 45/45/45
f 42/42/42 45/45/45 27/27/27
f 42/42/42 27/27/27 26/26/26
f 42/42/42 26/26/26 20/20/20
f 42/42/42 20/20/20 41/41/41
f 46/46/46 47/47/47 48/48/48
f 46/46/46 48/48/48 49/49/49
f 46/46/46 49/49/49 50/50/50
f 46/46/46 50/50/50 51/51/51
f 46/46/46 51/51/51 52/52/52
f 46/46/46 52/52/52 53/53/53
f 46/46/46 53/53/53 54/54/54
f 46/46/46 54/54/54 47/47/47
f 55/55/55 56/56/56 57/57/57
f 55/55/55 57/57/57 58/58/58
f 55/55/55 58/58/58 48/48/48
f 55/55/55 48/48/48 47/47/47
f 55/55/55 47/47/47 54/54/54
f 55/55/55 54/54/54 59/59/59
f 55/55/55 59/59/59 60/60/60
f 55/55/55 60/60/60 56/56/56
f 61/61/61 62/62/62 63/63/63
f 61/61/61 63/63/63 64/64/64
f 61/61/61 64/64/64 65/65/65
f 61/61/61 65/65/65 66/66/66
f 61/61/61 66/66/66 67/67/67
f 61/61/61 67/67/67 68/68/68
f 61/61/61 68/68/68 69/69/69
f 61/61/61 69/69/69 62/62/62
f 70/70/70 66/66/66 65/65/65
f 70/70/70 65/65/65 71/71/71
f 70/70/70 71/71/71 72/72/72
f 70/70/70 72/72/72 73/73/73
f 70/70/70 73/73/73 74/74/74
f 70/70/70 74/74/74 75/75/75
f 70/70/70 75/75/75 67/67/67
f 70/70/70 67/67/67 66/66/66
f 76/76/76 77/77/77 54/54/54
f 76/76/76 54/54/54 53/53/53
f 76/76/76 53/53/53 52/52/52
f 76/76/76 52/52/52 78/78/78
f 76/76/76 78/78/78 72/72/72
f 76/76/76 72/72/72 71/71/71
f 76/76/76 71/71/71 65/65/65
f 76/76/76 65/65/65 77/77/77
f 79/79/79 80/80/80 60/60/60
f 79/79/79 60/60/60 59/59/59
f 79/79/79 59/59/59 54/54/54
f 79/79/79 54/54/54 77/77/77
f 79/79/79 77/77/77 65/65/65
f 79/79/79 65/65/65 64/64/64
f 79/79/79 64/64/64 63/63/63
f 79/79/79 63/63/63 80/80/80
f 81/81/81 82/82/82 69/69/69
f 81/81/81 69/69/69 68/68/68
f 81/81/81 68/68/68 67/67/67
f 81/81/81 67/67/67 83/83/83
f 81/81/81 83/83/83 84/84/84
f 81/81/81 84/84/84 85/85/85
f 81/81/81 85/85/85 86/86/86
f 81/81/81 86/86/86 82/82/82
f 87/87/87 83/83/83 67/67/67
f 87/87/87 67/67/67 75/75/75
f 87/87/87 75/75/75 74/74/74
f 87/87/87 74/74/74 88/88/88
f 87/87/87 88/88/88 89/89/89
f 87/87/87 89/89/89 90/90/90
f 87/87/87 90/90/90 84/84/84
f 87/87/87 84/84/84 83/83/83
f 91/91/91 92/92/92 38/38/38
f 91/91/91 38/38/38 37/37/37
f 91/91/91 37/37/37 18/18/18
f 91/91/91 18/18/18 93/93/93
f 91/91/91 93/93/93 69/69/69
f 91/91/91 69/69/69 82/82/82
f 91/91/91 82/82/82 94/94/94
f 91/91/91 94/94/94 92/92/92
f 95/95/95 96/96/96 44/44/44
f 95/95/95 44/44/44 43/43/43
f 95/95/95 43/43/43 40/40/40
f 95/95/95 40/40/40 97/97/97
f 95/95/95 97/97/97 84/84/84
f 95/95/95 84/84/84 90/90/90
f 95/95/95 90/90/90 98/98/98
f 95/95/95 98/98/98 96/96/96
f 99/99/99 100/100/100 7/7/7
f 99/99/99 7/7/7 6/6/6
f 99/99/99 6/6/6 5/5/5
f 99/99/99 5/5/5 101/101/101
f 99/99/99 101/101/101 52/52/52
f 99/99/99 52/52/52 51/51/51
f 99/99/99 51/51/51 102/102/102
f 99/99/99 102/102/102 100/100/100
f 103/103/103 104/104/104 15/15/15
f 103/103/103 15/15/15 14/14/14
f 103/103/103 14/14/14 9/9/9
f 103/103/103 9/9/9 105/105/105
f 103/103/103 105/105/105 48/48/48
f 103/103/103 48/48/48 58/58/58
f 103/103/103 58/58/58 106/106/106
f 103/103/103 106/106/106 104/104/104
f 107/107/107 108/108/108 12/12/12
f 107/107/107 12/12/12 11/11/11
f 107/107/107 11/11/11 15/15/15
f 107/107/107 15/15/15 104/104/104
f 107/107/107 104/104/104 106/106/106
f 107/107/107 106/106/106 56/56/56
f 107/107/107 56/56/56 60/60/60
f 107/107/107 60/60/60 108/108/108
f 109/109/109 97/97/97 40/40/40
f 109/109/109 40/40/40 39/39/39
f 109/109/109 39/39/39 38/38/38
f 109/109/109 38/38/38 92/92/92
f 109/109/109 92/92/92 94/94/94
f 109/109/109 94/94/94 85/85/85
f 109/109/109 85/85/85 84/84/84
f 109/109/109 84/84/84 97/97/97
f 110/110/110 111/111/111 27/27/27
f 110/110/110 27/27/27 45/45/45
f 110/110/110 45/45/45 44/44/44
f 110/110/110 44/44/44 96/96/96
f 110/110/110 96/96/96 98/98/98
f 110/110/110 98/98/98 88/88/88
f 110/110/110 88/88/88 74/74/74
f 110/110/110 74/74/74 111/111/111
f 112/112/112 105/105/105 9/9/9
f 112/112/112 9/9/9 8/8/8
f 112/112/112 8/8/8 7/7/7
f 112/112/112 7/7/7 100/100/100
f 112/112/112 100/100/100 102/102/102
f 112/112/112 102/102/102 49/49/49
f 112/112/112 49/49/49 48/48/48
f 112/112/112 48/48/48 105/105/105
f 113/113/113 101/101/101 5/5/5
f 113/113/113 5/5/5 33/33/33
f 113/113/113 33/33/33 29/29/29
f 113/113/113 29/29/29 114/114/114
f 113/113/113 114/114/114 72/72/72
f 113/113/113 72/72/72 78/78/78
f 113/113/113 78/78/78 52/52/52
f 113/113/113 52/52/52 101/101/101
f 115/115/115 116/116/116 24/24/24
f 115/115/115 24/24/24 35/35/35
f 115/115/115 35/35/35 12/12/12
f 115/115/115 12/12/12 108/108/108
f 115/115/115 108/108/108 60/60/60
f 115/115/115 60/60/60 80/80/80
f 115/115/115 80/80/80 63/63/63
f 115/115/115 63/63/63 116/116/116
f 117/117/117 93/93/93 18/18/18
f 117/117/117 18/18/18 17/17/17
f 117/117/117 17/17/17 24/24/24
f 117/117/117 24/24/24 116/116/116
f 117/117/117 116/116/116 63/63/63
f 117/117/117 63/63/63 62/62/62
f 117/117/117 62/62/62 69/69/69
f 117/117/117 69/69/69 93/93/93
f 118/118/118 114/114/114 29/29/29
f 118/118/118 29/29/29 28/28/28
f 118/118/118 28/28/28 27/27/27
f 118/118/118 27/27/27 111/111/111
f 118/118/118 111/111/111 74/74/74
f 118/118/118 74/74/74 73/73/73
f 118/118/118 73/73/73 72/72/72
f 118/118/118 72/72/72 114/114/114
