v -2.383339 0.777393 -1.236841
v -2.384511 0.776992 -1.238826
v -2.386662 0.776327 -1.236675
v -2.385080 0.776792 -1.234663
v -2.384033 0.777329 -1.233025
v -2.382748 0.777849 -1.235077
v -2.382184 0.777900 -1.236683
v -2.382140 0.777692 -1.238458
v -2.382913 0.777374 -1.240413
v -2.386483 0.777081 -1.240081
v -2.388262 0.777302 -1.240758
v -2.390297 0.776708 -1.239479
v -2.388653 0.776438 -1.238345
v -2.384862 0.777422 -1.241262
v -2.386649 0.777458 -1.241284
v -2.394905 0.772726 -1.231848
v -2.396331 0.772806 -1.233119
v -2.397919 0.771100 -1.230701
v -2.396650 0.771018 -1.229583
v -2.395024 0.771022 -1.228049
v -2.393074 0.772741 -1.230107
v -2.391042 0.774252 -1.232224
v -2.392964 0.774258 -1.234040
v -2.394469 0.774374 -1.235361
v -2.391404 0.773073 -1.228240
v -2.393553 0.771325 -1.226393
v -2.392493 0.771638 -1.225110
v -2.390196 0.773414 -1.226797
v -2.388052 0.775010 -1.228748
v -2.389302 0.774621 -1.230266
v -2.387130 0.775864 -1.232439
v -2.388871 0.775431 -1.234444
v -2.385899 0.776349 -1.230870
v -2.390847 0.775496 -1.236269
v -2.392412 0.775703 -1.237581
v -2.398180 0.769252 -1.227139
v -2.399153 0.769359 -1.227955
v -2.399573 0.768317 -1.226238
v -2.399236 0.767880 -1.225250
v -2.398368 0.767813 -1.224495
v -2.396948 0.769221 -1.226008
v -2.395869 0.769481 -1.224758
v -2.397653 0.768037 -1.223619
v -2.396724 0.768600 -1.223302
v -2.395101 0.769760 -1.223780
v -2.383260 0.777161 -1.236848
v -2.384455 0.776756 -1.238857
v -2.382874 0.777197 -1.240434
v -2.382083 0.777518 -1.238459
v -2.382135 0.777773 -1.236680
v -2.382678 0.777679 -1.235069
v -2.383961 0.777160 -1.233027
v -2.384997 0.776563 -1.234679
v -2.386600 0.776093 -1.236712
v -2.386451 0.776845 -1.240136
v -2.388250 0.777126 -1.240811
v -2.386638 0.777327 -1.241320
v -2.384842 0.777244 -1.241302
v -2.388612 0.776204 -1.238404
v -2.390277 0.776533 -1.239535
v -2.394828 0.772508 -1.231932
v -2.396281 0.772643 -1.233189
v -2.394427 0.774207 -1.235426
v -2.392897 0.774034 -1.234116
v -2.390958 0.774029 -1.232284
v -2.392982 0.772524 -1.230175
v -2.394926 0.770810 -1.228124
v -2.396567 0.770805 -1.229673
v -2.397865 0.770940 -1.230776
v -2.391297 0.772858 -1.228293
v -2.389203 0.774401 -1.230309
v -2.387969 0.774847 -1.228772
v -2.390109 0.773255 -1.226829
v -2.392401 0.771482 -1.225146
v -2.393440 0.771115 -1.226452
v -2.387040 0.775639 -1.232469
v -2.388799 0.775202 -1.234492
v -2.385823 0.776182 -1.230883
v -2.390793 0.775267 -1.236336
v -2.392380 0.775532 -1.237640
v -2.398096 0.769041 -1.227232
v -2.399098 0.769200 -1.228033
v -2.396847 0.769011 -1.226086
v -2.398292 0.767656 -1.224553
v -2.399174 0.767722 -1.225322
v -2.399530 0.768200 -1.226294
v -2.395752 0.769273 -1.224818
v -2.395006 0.769606 -1.223816
v -2.396655 0.768485 -1.223332
v -2.397565 0.767882 -1.223663
v -2.399455 0.769324 -1.228264
v -2.399949 0.767957 -1.225844
v -2.398320 0.771057 -1.231109
v -2.399530 0.768200 -1.226294
v -2.398208 0.767487 -1.223259
v -2.397094 0.768240 -1.222902
v -2.398808 0.767274 -1.224016
v -2.396655 0.768485 -1.223332
v -2.382517 0.777926 -1.234482
v -2.381917 0.777994 -1.236583
v -2.383650 0.777433 -1.232478
v -2.382135 0.777773 -1.236680
v -2.384313 0.777456 -1.241673
v -2.386748 0.777515 -1.241561
v -2.382364 0.777423 -1.240951
v -2.386638 0.777327 -1.241320
v -2.388852 0.777298 -1.241010
v -2.390838 0.776720 -1.239885
v -2.399561 0.767352 -1.224653
v -2.394801 0.769785 -1.223468
v -2.392097 0.771674 -1.224697
v -2.381716 0.777714 -1.238997
v -2.385453 0.776437 -1.230350
v -2.387597 0.775068 -1.228251
v -2.392921 0.775696 -1.238047
v -2.394953 0.774339 -1.235831
v -2.396786 0.772760 -1.233575
v -2.389754 0.773457 -1.226328
vn -0.348300 0.935800 -0.054500
vn -0.187800 0.978200 0.088100
vn -0.229000 0.964800 0.129400
vn -0.374300 0.927300 0.003600
vn -0.385100 0.922400 0.027700
vn -0.343400 0.937900 -0.048400
vn -0.311600 0.944800 -0.101500
vn -0.257300 0.962100 -0.089700
vn -0.122100 0.992200 0.023100
vn -0.047400 0.965600 0.255500
vn -0.053500 0.966700 0.250200
vn -0.129200 0.947800 0.291400
vn -0.105300 0.953900 0.280800
vn -0.011700 0.986500 0.163400
vn -0.000200 0.975600 0.219200
vn -0.315200 0.872300 0.373700
vn -0.347200 0.868500 0.353600
vn -0.368500 0.852100 0.371700
vn -0.329100 0.855400 0.399900
vn -0.418800 0.847900 0.324900
vn -0.393500 0.869600 0.298200
vn -0.340600 0.908200 0.243100
vn -0.258300 0.906600 0.333800
vn -0.289100 0.899900 0.326400
vn -0.466200 0.857400 0.218100
vn -0.491100 0.839300 0.233000
vn -0.464000 0.842600 0.273200
vn -0.446900 0.858600 0.250900
vn -0.420900 0.886800 0.190700
vn -0.427700 0.889700 0.159200
vn -0.393200 0.916000 0.078800
vn -0.279300 0.943100 0.180300
vn -0.399700 0.910200 0.108900
vn -0.179600 0.937200 0.298900
vn -0.209300 0.929000 0.305100
vn -0.318300 0.846900 0.425900
vn -0.363300 0.841900 0.399000
vn -0.349400 0.832000 0.430900
vn -0.334300 0.814100 0.474800
vn -0.462400 0.805200 0.371300
vn -0.430500 0.837200 0.337200
vn -0.515800 0.827300 0.222400
vn -0.561800 0.791600 0.240300
vn -0.520400 0.815000 0.254900
vn -0.490100 0.829300 0.268500
vn 0.382100 -0.922300 0.058400
vn 0.199200 -0.974900 -0.099600
vn 0.242900 -0.959400 -0.143400
vn 0.478500 -0.875100 0.072600
vn 0.562800 -0.815100 0.137300
vn 0.543100 -0.830000 0.126900
vn 0.504400 -0.860100 0.075700
vn 0.385100 -0.922800 0.006400
vn 0.228900 -0.964800 -0.129400
vn 0.043400 -0.955800 -0.290600
vn -0.027900 -0.886700 -0.461500
vn -0.039100 -0.874800 -0.482800
vn 0.028100 -0.919700 -0.391600
vn 0.095300 -0.951600 -0.292200
vn 0.024500 -0.907700 -0.418900
vn 0.302500 -0.872400 -0.383900
vn 0.211600 -0.867100 -0.451000
vn 0.169900 -0.889500 -0.424100
vn 0.247000 -0.906000 -0.343700
vn 0.340700 -0.908100 -0.243200
vn 0.393600 -0.869500 -0.298300
vn 0.418900 -0.847900 -0.325000
vn 0.313100 -0.856400 -0.410400
vn 0.193600 -0.862300 -0.467800
vn 0.475900 -0.855200 -0.205200
vn 0.437200 -0.887100 -0.147700
vn 0.512900 -0.855500 -0.070700
vn 0.538900 -0.834700 -0.113600
vn 0.554600 -0.826500 -0.095800
vn 0.501100 -0.837800 -0.216700
vn 0.402700 -0.912700 -0.068100
vn 0.279300 -0.943100 -0.180300
vn 0.495700 -0.868500 0.002800
vn 0.169000 -0.935900 -0.308900
vn 0.097400 -0.908000 -0.407500
vn 0.287300 -0.855600 -0.430500
vn 0.129500 -0.868700 -0.478100
vn 0.423400 -0.843800 -0.329700
vn 0.391700 -0.871100 -0.296300
vn 0.188400 -0.882100 -0.431700
vn 0.087400 -0.873300 -0.479100
vn 0.520100 -0.832500 -0.190600
vn 0.563200 -0.825700 -0.031200
vn 0.563200 -0.826200 0.011100
vn 0.520300 -0.849200 -0.089700
vn -0.931200 -0.084100 -0.354600
vn -0.974200 -0.223600 0.031400
vn -0.869300 -0.045700 -0.492200
vn 0.087400 -0.873300 -0.479100
vn -0.417600 -0.465500 0.780300
vn -0.044100 -0.131800 0.990300
vn -0.528100 -0.627200 0.572500
vn 0.563200 -0.826200 0.011100
vn 0.765700 0.452700 0.456800
vn 0.865700 0.477400 0.150700
vn 0.679100 0.373000 0.632200
vn 0.562800 -0.815100 0.137300
vn 0.243600 0.220100 -0.944500
vn -0.165500 0.375000 -0.912100
vn 0.705700 0.127700 -0.696800
vn -0.039100 -0.874800 -0.482800
vn -0.471100 0.330000 -0.818000
vn -0.640900 0.242300 -0.728400
vn -0.746300 -0.498000 0.441600
vn 0.328500 0.040400 0.943600
vn 0.464100 0.086600 0.881500
vn 0.927100 0.287900 -0.240100
vn 0.616900 0.285100 0.733500
vn 0.584200 0.219800 0.781300
vn -0.735600 0.151100 -0.660400
vn -0.778000 0.084700 -0.622500
vn -0.813900 0.018300 -0.580600
vn 0.547700 0.153300 0.822500
vt 0.839504 0.118056
vt 0.856743 0.205307
vt 0.741230 0.205307
vt 0.734555 0.106726
vt 0.724541 0.032791
vt 0.813647 0.052618
vt 0.868992 0.081539
vt 0.913398 0.129584
vt 0.940923 0.205307
vt 0.839504 0.292557
vt 0.813647 0.357995
vt 0.724541 0.377822
vt 0.734555 0.303887
vt 0.913398 0.281029
vt 0.868992 0.329074
vt 0.369475 0.299954
vt 0.368286 0.370940
vt 0.245840 0.351447
vt 0.246397 0.288815
vt 0.246768 0.205307
vt 0.370268 0.205307
vt 0.494283 0.205307
vt 0.492822 0.304944
vt 0.490632 0.379672
vt 0.369475 0.110659
vt 0.246397 0.121798
vt 0.245841 0.059166
vt 0.368286 0.039673
vt 0.490632 0.030941
vt 0.492822 0.105669
vt 0.616755 0.103478
vt 0.619174 0.205307
vt 0.613127 0.027106
vt 0.616755 0.307135
vt 0.613126 0.383507
vt 0.123273 0.268175
vt 0.123047 0.315326
vt 0.054743 0.283353
vt 0.030912 0.249131
vt 0.030973 0.205306
vt 0.123423 0.205306
vt 0.123273 0.142438
vt 0.030912 0.161481
vt 0.054744 0.127260
vt 0.123047 0.095287
vt 0.839504 0.118056
vt 0.856743 0.205307
vt 0.968983 0.205307
vt 0.938030 0.133427
vt 0.876123 0.061548
vt 0.805028 0.030806
vt 0.721203 0.008146
vt 0.734555 0.106726
vt 0.741230 0.205307
vt 0.839504 0.292557
vt 0.805028 0.379807
vt 0.876123 0.349065
vt 0.938030 0.277186
vt 0.734555 0.303887
vt 0.721203 0.402467
vt 0.369475 0.299954
vt 0.367890 0.394602
vt 0.489902 0.404581
vt 0.492822 0.304944
vt 0.494283 0.205307
vt 0.370268 0.205307
vt 0.246768 0.205307
vt 0.246397 0.288815
vt 0.245655 0.372324
vt 0.369475 0.110659
vt 0.492822 0.105669
vt 0.489902 0.006032
vt 0.367890 0.016011
vt 0.245655 0.038289
vt 0.246397 0.121798
vt 0.616755 0.103478
vt 0.619174 0.205307
vt 0.611917 0.001649
vt 0.616755 0.307135
vt 0.611917 0.408964
vt 0.123273 0.268175
vt 0.122972 0.331043
vt 0.123423 0.205306
vt 0.000156 0.205306
vt 0.000125 0.242784
vt 0.000064 0.280261
vt 0.123273 0.142438
vt 0.122972 0.079570
vt 0.000064 0.130352
vt 0.000125 0.167829
vt 0.122972 0.331043
vt 0.030806 0.283587
vt 0.245655 0.372324
vt 0.030806 0.283587
vt 0.000125 0.167829
vt 0.030806 0.127026
vt 0.000156 0.205306
vt 0.030806 0.127026
vt 0.805028 0.030806
vt 0.873826 0.071832
vt 0.721203 0.008146
vt 0.873826 0.071832
vt 0.938030 0.277186
vt 0.873826 0.338781
vt 0.968983 0.205307
vt 0.873826 0.338781
vt 0.805028 0.379807
vt 0.721203 0.402467
vt 0.000125 0.242784
vt 0.122972 0.079570
vt 0.245655 0.038289
vt 0.938030 0.133427
vt 0.611917 0.001649
vt 0.489902 0.006032
vt 0.611917 0.408964
vt 0.489902 0.404581
vt 0.367890 0.394602
vt 0.367890 0.016011
f 1/1/1 2/2/2 3/3/3
f 1/1/1 3/3/3 4/4/4
f 1/1/1 4/4/4 5/5/5
f 1/1/1 5/5/5 6/6/6
f 1/1/1 6/6/6 7/7/7
f 1/1/1 7/7/7 8/8/8
f 1/1/1 8/8/8 9/9/9
f 1/1/1 9/9/9 2/2/2
f 10/10/10 11/11/11 12/12/12
f 10/10/10 12/12/12 13/13/13
f 10/10/10 13/13/13 3/3/3
f 10/10/10 3/3/3 2/2/2
f 10/10/10 2/2/2 9/9/9
f 10/10/10 9/9/9 14/14/14
f 10/10/10 14/14/14 15/15/15
f 10/10/10 15/15/15 11/11/11
f 16/16/16 17/17/17 18/18/18
f 16/16/16 18/18/18 19/19/19
f 16/16/16 19/19/19 20/20/20
f 16/16/16 20/20/20 21/21/21
f 16/16/16 21/21/21 22/22/22
f 16/16/16 22/22/22 23/23/23
f 16/16/16 23/23/23 24/24/24
f 16/16/16 24/24/24 17/17/17
f 25/25/25 21/21/21 20/20/20
f 25/25/25 20/20/20 26/26/26
f 25/25/25 26/26/26 27/27/27
f 25/25/25 27/27/27 28/28/28
f 25/25/25 28/28/28 29/29/29
f 25/25/25 29/29/29 30/30/30
f 25/25/25 30/30/30 22/22/22
f 25/25/25 22/22/22 21/21/21
f 31/31/31 32/32/32 22/22/22
f 31/31/31 22/22/22 30/30/30
f 31/31/31 30/30/30 29/29/29
f 31/31/31 29/29/29 33/33/33
f 31/31/31 33/33/33 5/5/5
f 31/31/31 5/5/5 4/4/4
f 31/31/31 4/4/4 3/3/3
f 31/31/31 3/3/3 32/32/32
f 34/34/34 35/35/35 24/24/24
f 34/34/34 24/24/24 23/23/23
f 34/34/34 23/23/23 22/22/22
f 34/34/34 22/22/22 32/32/32
f 34/34/34 32/32/32 3/3/3
f 34/34/34 3/3/3 13/13/13
f 34/34/34 13/13/13 12/12/12
f 34/34/34 12/12/12 35/35/35
f 36/36/36 37/37/37 38/38/38
f 36/36/36 38/38/38 39/39/39
f 36/36/36 39/39/39 40/40/40
f 36/36/36 40/40/40 41/41/41
f 36/36/36 41/41/41 20/20/20
f 36/36/36 20/20/20 19/19/19
f 36/36/36 19/19/19 18/18/18
f 36/36/36 18/18/18 37/37/37
f 42/42/42 41/41/41 40/40/40
f 42/42/42 40/40/40 43/43/43
f 42/42/42 43/43/43 44/44/44
f 42/42/42 44/44/44 45/45/45
f 42/42/42 45/45/45 27/27/27
f 42/42/42 27/27/27 26/26/26
f 42/42/42 26/26/26 20/20/20
f 42/42/42 20/20/20 41/41/41
f 46/46/46 47/47/47 48/48/48
f 46/46/46 48/48/48 49/49/49
f 46/46/46 49/49/49 50/50/50
f 46/46/46 50/50/50 51/51/51
f 46/46/46 51/51/51 52/52/52
f 46/46/46 52/52/52 53/53/53
f 46/46/46 53/53/53 54/54/54
f 46/46/46 54/54/54 47/47/47
f 55/55/55 56/56/56 57/57/57
f 55/55/55 57/57/57 58/58/58
f 55/55/55 58/58/58 48/48/48
f 55/55/55 48/48/48 47/47/47
f 55/55/55 47/47/47 54/54/54
f 55/55/55 54/54/54 59/59/59
f 55/55/55 59/59/59 60/60/60
f 55/55/55 60/60/60 56/56/56
f 61/61/61 62/62/62 63/63/63
f 61/61/61 63/63/63 64/64/64
f 61/61/61 64/64/64 65/65/65
f 61/61/61 65/65/65 66/66/66
f 61/61/61 66/66/66 67/67/67
f 61/61/61 67/67/67 68/68/68
f 61/61/61 68/68/68 69/69/69
f 61/61/61 69/69/69 62/62/62
f 70/70/70 66/66/66 65/65/65
f 70/70/70 65/65/65 71/71/71
f 70/70/70 71/71/71 72/72/72
f 70/70/70 72/72/72 73/73/73
f 70/70/70 73/73/73 74/74/74
f 70/70/70 74/74/74 75/75/75
f 70/70/70 75/75/75 67/67/67
f 70/70/70 67/67/67 66/66/66
f 76/76/76 77/77/77 54/54/54
f 76/76/76 54/54/54 53/53/53
f 76/76/76 53/53/53 52/52/52
f 76/76/76 52/52/52 78/78/78
f 76/76/76 78/78/78 72/72/72
f 76/76/76 72/72/72 71/71/71
f 76/76/76 71/71/71 65/65/65
f 76/76/76 65/65/65 77/77/77
f 79/79/79 80/80/80 60/60/60
f 79/79/79 60/60/60 59/59/59
f 79/79/79 59/59/59 54/54/54
f 79/79/79 54/54/54 77/77/77
f 79/79/79 77/77/77 65/65/65
f 79/79/79 65/65/65 64/64/64
f 79/79/79 64/64/64 63/63/63
f 79/79/79 63/63/63 80/80/80
f 81/81/81 82/82/82 69/69/69
f 81/81/81 69/69/69 68/68/68
f 81/81/81 68/68/68 67/67/67
f 81/81/81 67/67/67 83/83/83
f 81/81/81 83/83/83 84/84/84
f 81/81/81 84/84/84 85/85/85
f 81/81/81 85/85/85 86/86/86
f 81/81/81 86/86/86 82/82/82
f 87/87/87 83/83/83 67/67/67
f 87/87/87 67/67/67 75/75/75
f 87/87/87 75/75/75 74/74/74
f 87/87/87 74/74/74 88/88/88
f 87/87/87 88/88/88 89/89/89
f 87/87/87 89/89/89 90/90/90
f 87/87/87 90/90/90 84/84/84
f 87/87/87 84/84/84 83/83/83
f 91/91/91 92/92/92 38/38/38
f 91/91/91 38/38/38 37/37/37
f 91/91/91 37/37/37 18/18/18
f 91/91/91 18/18/18 93/93/93
f 91/91/91 93/93/93 69/69/69
f 91/91/91 69/69/69 82/82/82
f 91/91/91 82/82/82 94/94/94
f 91/91/91 94/94/94 92/92/92
f 95/95/95 96/96/96 44/44/44
f 95/95/95 44/44/44 43/43/43
f 95/95/95 43/43/43 40/40/40
f 95/95/95 40/40/40 97/97/97
f 95/95/95 97/97/97 84/84/84
f 95/95/95 84/84/84 90/90/90
f 95/95/95 90/90/90 98/98/98
f 95/95/95 98/98/98 96/96/96
f 99/99/99 100/100/100 7/7/7
f 99/99/99 7/7/7 6/6/6
f 99/99/99 6/6/6 5/5/5
f 99/99/99 5/5/5 101/101/101
f 99/99/99 101/101/101 52/52/52
f 99/99/99 52/52/52 51/51/51
f 99/99/99 51/51/51 102/102/102
f 99/99/99 102/102/102 100/100/100
f 103/103/103 104/104/104 15/15/15
f 103/103/103 15/15/15 14/14/14
f 103/103/103 14/14/14 9/9/9
f 103/103/103 9/9/9 105/105/105
f 103/103/103 105/105/105 48/48/48
f 103/103/103 48/48/48 58/58/58
f 103/103/103 58/58/58 106/106/106
f 103/103/103 106/106/106 104/104/104
f 107/107/107 108/108/108 12/12/12
f 107/107/107 12/12/12 11/11/11
f 107/107/107 11/11/11 15/15/15
f 107/107/107 15/15/15 104/104/104
f 107/107/107 104/104/104 106/106/106
f 107/107/107 106/106/106 56/56/56
f 107/107/107 56/56/56 60/60/60
f 107/107/107 60/60/60 108/108/108
f 109/109/109 97/97/97 40/40/40
f 109/109/109 40/40/40 39/39/39
f 109/109/109 39/39/39 38/38/38
f 109/109/109 38/38/38 92/92/92
f 109/109/109 92/92/92 94/94/94
f 109/109/109 94/94/94 85/85/85
f 109/109/109 85/85/85 84/84/84
f 109/109/109 84/84/84 97/97/97
f 110/110/110 111/111/111 27/27/27
f 110/110/110 27/27/27 45/45/45
f 110/110/110 45/45/45 44/44/44
f 110/110/110 44/44/44 96/96/96
f 110/110/110 96/96/96 98/98/98
f 110/110/110 98/98/98 88/88/88
f 110/110/110 88/88/88 74/74/74
f 110/110/110 74/74/74 111/111/111
f 112/112/112 105/105/105 9/9/9
f 112/112/112 9/9/9 8/8/8
f 112/112/112 8/8/8 7/7/7
f 112/112/112 7/7/7 100/100/100
f 112/112/112 100/100/100 102/102/102
f 112/112/112 102/102/102 49/49/49
f 112/112/112 49/49/49 48/48/48
f 112/112/112 48/48/48 105/105/105
f 113/113/113 101/101/101 5/5/5
f 113/113/113 5/5/5 33/33/33
f 113/113/113 33/33/33 29/29/29
f 113/113/113 29/29/29 114/114/114
f 113/113/113 114/114/114 72/72/72
f 113/113/113 72/72/72 78/78/78
f 113/113/113 78/78/78 52/52/52
f 113/113/113 52/52/52 101/101/101
f 115/115/115 116/116/116 24/24/24
f 115/115/115 24/24/24 35/35/35
f 115/115/115 35/35/35 12/12/12
f 115/115/115 12/12/12 108/108/108
f 115/115/115 108/108/108 60/60/60
f 115/115/115 60/60/60 80/80/80
f 115/115/115 80/80/80 63/63/63
f 115/115/115 63/63/63 116/116/116
f 117/117/117 93/93/93 18/18/18
f 117/117/117 18/18/18 17/17/17
f 117/117/117 17/17/17 24/24/24
f 117/117/117 24/24/24 116/116/116
f 117/117/117 116/116/116 63/63/63
f 117/117/117 63/63/63 62/62/62
f 117/117/117 62/62/62 69/69/69
f 117/117/117 69/69/69 93/93/93
f 118/118/118 114/114/114 29/29/29
f 118/118/118 29/29/29 28/28/28
f 118/118/118 28/28/28 27/27/27
f 118/118/118 27/27/27 111/111/111
f 118/118/118 111/111/111 74/74/74
f 118/118/118 74/74/74 73/73/73
f 118/118/118 73/73/73 72/72/72
f 118/118/118 72/72/72 114/114/114
