v -2.323966 0.773553 -1.239603
v -2.324151 0.774441 -1.237751
v -2.322518 0.772308 -1.237187
v -2.322534 0.771504 -1.239334
v -2.322314 0.770900 -1.240991
v -2.323477 0.772747 -1.241005
v -2.324322 0.773921 -1.240601
v -2.325056 0.774975 -1.239688
v -2.325423 0.775956 -1.238133
v -2.323342 0.775000 -1.235939
v -2.322382 0.775285 -1.234578
v -2.321070 0.773783 -1.233691
v -2.321824 0.773149 -1.235170
v -2.324515 0.776228 -1.236516
v -2.323435 0.775977 -1.235396
v -2.317985 0.765781 -1.232963
v -2.317512 0.766432 -1.231482
v -2.316705 0.763625 -1.231000
v -2.317136 0.763048 -1.232307
v -2.317593 0.762303 -1.234074
v -2.318490 0.764939 -1.234962
v -2.319570 0.767511 -1.235794
v -2.319024 0.768398 -1.233708
v -2.318501 0.769090 -1.232168
v -2.318680 0.764169 -1.237044
v -2.317751 0.761622 -1.235916
v -2.317783 0.761127 -1.237324
v -2.318730 0.763608 -1.238632
v -2.319775 0.766136 -1.239648
v -2.319751 0.766712 -1.237977
v -2.321082 0.769190 -1.238766
v -2.320952 0.769982 -1.236535
v -2.321025 0.768631 -1.240487
v -2.320344 0.770901 -1.234435
v -2.319732 0.771630 -1.232896
v -2.316388 0.760199 -1.231852
v -2.316020 0.760639 -1.230886
v -2.315775 0.758855 -1.231054
v -2.315890 0.758013 -1.231576
v -2.316194 0.757618 -1.232461
v -2.316765 0.759636 -1.233161
v -2.316847 0.759135 -1.234545
v -2.316205 0.757284 -1.233421
v -2.316341 0.757543 -1.234374
v -2.316825 0.758773 -1.235609
v -2.324144 0.773438 -1.239560
v -2.324326 0.774337 -1.237680
v -2.325552 0.775875 -1.238079
v -2.325187 0.774886 -1.239656
v -2.324420 0.773854 -1.240584
v -2.323611 0.772657 -1.240987
v -2.322452 0.770816 -1.240971
v -2.322716 0.771397 -1.239290
v -2.322697 0.772210 -1.237118
v -2.323510 0.774908 -1.235841
v -2.322505 0.775223 -1.234492
v -2.323526 0.775928 -1.235335
v -2.324639 0.776157 -1.236440
v -2.321998 0.773062 -1.235076
v -2.321198 0.773724 -1.233609
v -2.318180 0.765725 -1.232887
v -2.317656 0.766394 -1.231416
v -2.318641 0.769045 -1.232099
v -2.319214 0.768332 -1.233628
v -2.319764 0.767437 -1.235732
v -2.318688 0.764876 -1.234904
v -2.317795 0.762248 -1.234017
v -2.317334 0.763000 -1.232234
v -2.316852 0.763593 -1.230936
v -2.318881 0.764099 -1.237003
v -2.319947 0.766631 -1.237934
v -2.319923 0.766072 -1.239625
v -2.318882 0.763552 -1.238611
v -2.317937 0.761077 -1.237305
v -2.317955 0.761560 -1.235878
v -2.321271 0.769096 -1.238722
v -2.321138 0.769896 -1.236469
v -2.321168 0.768557 -1.240465
v -2.320526 0.770824 -1.234348
v -2.319865 0.771577 -1.232821
v -2.316587 0.760154 -1.231778
v -2.316167 0.760610 -1.230821
v -2.316968 0.759584 -1.233106
v -2.316346 0.757579 -1.232420
v -2.316039 0.757980 -1.231519
v -2.315885 0.758832 -1.231008
v -2.317053 0.759075 -1.234509
v -2.316980 0.758725 -1.235591
v -2.316455 0.757508 -1.234359
v -2.316359 0.757239 -1.233395
v -2.315962 0.760774 -1.230533
v -2.315619 0.758332 -1.230870
v -2.316626 0.763804 -1.230534
v -2.315885 0.758832 -1.231008
v -2.316059 0.756647 -1.233035
v -2.316186 0.757018 -1.234197
v -2.316071 0.756928 -1.232210
v -2.316455 0.757508 -1.234359
v -2.323374 0.772437 -1.241467
v -2.324395 0.773950 -1.240852
v -2.322302 0.770660 -1.241537
v -2.324420 0.773854 -1.240584
v -2.324961 0.776605 -1.236674
v -2.323436 0.776175 -1.235221
v -2.325903 0.776424 -1.238236
v -2.323526 0.775928 -1.235335
v -2.322116 0.775354 -1.234083
v -2.320875 0.773970 -1.233159
v -2.315790 0.757270 -1.231458
v -2.316886 0.758631 -1.235958
v -2.317862 0.760939 -1.237787
v -2.325477 0.775409 -1.239702
v -2.321069 0.768411 -1.241053
v -2.319849 0.765914 -1.240197
v -2.319586 0.771850 -1.232347
v -2.318388 0.769302 -1.231622
v -2.317418 0.766633 -1.230957
v -2.318815 0.763395 -1.239154
vn 0.805400 0.578300 -0.129900
vn 0.777400 0.528400 -0.341100
vn 0.812500 0.481500 -0.328600
vn 0.839700 0.524700 -0.139600
vn 0.853100 0.501800 -0.143000
vn 0.805800 0.575900 -0.137600
vn 0.768500 0.625600 -0.134100
vn 0.747100 0.637900 -0.186700
vn 0.717200 0.597800 -0.358300
vn 0.737700 0.421100 -0.527700
vn 0.740500 0.424400 -0.521100
vn 0.795400 0.368100 -0.481400
vn 0.779100 0.384300 -0.495200
vn 0.691800 0.509400 -0.511600
vn 0.698400 0.462800 -0.545900
vn 0.905000 0.224500 -0.361200
vn 0.916700 0.231300 -0.325700
vn 0.927600 0.203300 -0.313200
vn 0.913700 0.191600 -0.358300
vn 0.941400 0.226400 -0.249800
vn 0.927800 0.264700 -0.262600
vn 0.895500 0.340200 -0.286900
vn 0.873000 0.286500 -0.394700
vn 0.886900 0.282100 -0.365800
vn 0.939100 0.303400 -0.161500
vn 0.950200 0.276200 -0.144000
vn 0.949200 0.253200 -0.186900
vn 0.939200 0.283300 -0.193900
vn 0.916500 0.351000 -0.191600
vn 0.911100 0.375100 -0.170600
vn 0.873900 0.458100 -0.162500
vn 0.852200 0.420500 -0.311300
vn 0.885900 0.430700 -0.171900
vn 0.825800 0.346500 -0.444900
vn 0.843000 0.331200 -0.423700
vn 0.910900 0.168600 -0.376600
vn 0.928100 0.177400 -0.327400
vn 0.924500 0.149800 -0.350400
vn 0.919500 0.108400 -0.377800
vn 0.961500 0.156600 -0.225700
vn 0.947200 0.208200 -0.243700
vn 0.955400 0.271900 -0.115400
vn 0.970800 0.227300 -0.076800
vn 0.962900 0.239300 -0.124500
vn 0.956500 0.243800 -0.159800
vn -0.818300 -0.566400 0.097800
vn -0.787300 -0.515600 0.337800
vn -0.823800 -0.465000 0.324000
vn -0.848600 -0.529100 0.000600
vn -0.843300 -0.523500 -0.121000
vn -0.843400 -0.528800 -0.094700
vn -0.855500 -0.517100 -0.025900
vn -0.840400 -0.527400 0.124500
vn -0.812400 -0.481600 0.328600
vn -0.742000 -0.389400 0.545600
vn -0.714700 -0.230600 0.660300
vn -0.707800 -0.208900 0.674800
vn -0.747200 -0.293500 0.596300
vn -0.775100 -0.376000 0.507600
vn -0.747400 -0.266400 0.608600
vn -0.900300 -0.219300 0.375900
vn -0.860700 -0.182400 0.475200
vn -0.836500 -0.224400 0.499800
vn -0.868700 -0.280800 0.407900
vn -0.895500 -0.340100 0.286900
vn -0.927900 -0.264600 0.262600
vn -0.941500 -0.226400 0.249800
vn -0.907500 -0.187400 0.375900
vn -0.852000 -0.170000 0.495200
vn -0.939400 -0.309900 0.146600
vn -0.911600 -0.380200 0.156400
vn -0.913800 -0.403600 0.046400
vn -0.934500 -0.353500 0.042300
vn -0.933300 -0.358400 0.017800
vn -0.949900 -0.285600 0.127300
vn -0.874200 -0.462200 0.148400
vn -0.852200 -0.420500 0.311300
vn -0.882400 -0.469800 0.023900
vn -0.821600 -0.340200 0.457400
vn -0.792700 -0.261800 0.550400
vn -0.897100 -0.176700 0.405000
vn -0.816500 -0.178200 0.549200
vn -0.943700 -0.219300 0.247400
vn -0.926800 -0.267500 0.263600
vn -0.847300 -0.210800 0.487500
vn -0.791300 -0.188200 0.581700
vn -0.949500 -0.298200 0.097200
vn -0.914100 -0.404700 -0.024100
vn -0.898300 -0.436800 -0.047200
vn -0.922000 -0.384100 0.048700
vn 0.443600 0.040800 0.895200
vn 0.530900 -0.344900 0.774100
vn 0.374000 0.179600 0.909800
vn -0.791300 -0.188200 0.581700
vn 0.285000 -0.955800 0.072100
vn 0.321700 -0.830200 -0.455200
vn 0.179000 -0.925000 0.335000
vn -0.898300 -0.436800 -0.047200
vn -0.061000 0.090000 -0.994000
vn -0.228400 0.351400 -0.907900
vn 0.013900 -0.107900 -0.994000
vn -0.843300 -0.523500 -0.121000
vn -0.383600 0.889200 0.249300
vn 0.003900 0.890200 0.455500
vn -0.661300 0.729400 -0.175100
vn -0.707800 -0.208900 0.674800
vn 0.218200 0.735500 0.641400
vn 0.311600 0.581500 0.751500
vn 0.358700 -0.785000 0.505100
vn 0.159900 -0.616800 -0.770700
vn 0.073400 -0.516400 -0.853200
vn -0.537600 0.532400 -0.653800
vn 0.039300 -0.251300 -0.967100
vn 0.038100 -0.334400 -0.941600
vn 0.344200 0.454800 0.821400
vn 0.345100 0.376800 0.859600
vn 0.343200 0.296900 0.891000
vn 0.036500 -0.414400 -0.909300
vt 0.839504 0.118056
vt 0.856743 0.205307
vt 0.741230 0.205307
vt 0.734555 0.106726
vt 0.724541 0.032791
vt 0.813647 0.052618
vt 0.868992 0.081539
vt 0.913398 0.129584
vt 0.940923 0.205307
vt 0.839504 0.292557
vt 0.813647 0.357995
vt 0.724541 0.377822
vt 0.734555 0.303887
vt 0.913398 0.281029
vt 0.868992 0.329074
vt 0.369475 0.299954
vt 0.368286 0.370940
vt 0.245840 0.351447
vt 0.246397 0.288815
vt 0.246768 0.205307
vt 0.370268 0.205307
vt 0.494283 0.205307
vt 0.492822 0.304944
vt 0.490632 0.379672
vt 0.369475 0.110659
vt 0.246397 0.121798
vt 0.245841 0.059166
vt 0.368286 0.039673
vt 0.490632 0.030941
vt 0.492822 0.105669
vt 0.616755 0.103478
vt 0.619174 0.205307
vt 0.613127 0.027106
vt 0.616755 0.307135
vt 0.613126 0.383507
vt 0.123273 0.268175
vt 0.123047 0.315326
vt 0.054743 0.283353
vt 0.030912 0.249131
vt 0.030973 0.205306
vt 0.123423 0.205306
vt 0.123273 0.142438
vt 0.030912 0.161481
vt 0.054744 0.127260
vt 0.123047 0.095287
vt 0.839504 0.118056
vt 0.856743 0.205307
vt 0.968983 0.205307
vt 0.938030 0.133427
vt 0.876123 0.061548
vt 0.805028 0.030806
vt 0.721203 0.008146
vt 0.734555 0.106726
vt 0.741230 0.205307
vt 0.839504 0.292557
vt 0.805028 0.379807
vt 0.876123 0.349065
vt 0.938030 0.277186
vt 0.734555 0.303887
vt 0.721203 0.402467
vt 0.369475 0.299954
vt 0.367890 0.394602
vt 0.489902 0.404581
vt 0.492822 0.304944
vt 0.494283 0.205307
vt 0.370268 0.205307
vt 0.246768 0.205307
vt 0.246397 0.288815
vt 0.245655 0.372324
vt 0.369475 0.110659
vt 0.492822 0.105669
vt 0.489902 0.006032
vt 0.367890 0.016011
vt 0.245655 0.038289
vt 0.246397 0.121798
vt 0.616755 0.103478
vt 0.619174 0.205307
vt 0.611917 0.001649
vt 0.616755 0.307135
vt 0.611917 0.408964
vt 0.123273 0.268175
vt 0.122972 0.331043
vt 0.123423 0.205306
vt 0.000156 0.205306
vt 0.000125 0.242784
vt 0.000064 0.280261
vt 0.123273 0.142438
vt 0.122972 0.079570
vt 0.000064 0.130352
vt 0.000125 0.167829
vt 0.122972 0.331043
vt 0.030806 0.283587
vt 0.245655 0.372324
vt 0.030806 0.283587
vt 0.000125 0.167829
vt 0.030806 0.127026
vt 0.000156 0.205306
vt 0.030806 0.127026
vt 0.805028 0.030806
vt 0.873826 0.071832
vt 0.721203 0.008146
vt 0.873826 0.071832
vt 0.938030 0.277186
vt 0.873826 0.338781
vt 0.968983 0.205307
vt 0.873826 0.338781
vt 0.805028 0.379807
vt 0.721203 0.402467
vt 0.000125 0.242784
vt 0.122972 0.079570
vt 0.245655 0.038289
vt 0.938030 0.133427
vt 0.611917 0.001649
vt 0.489902 0.006032
vt 0.611917 0.408964
vt 0.489902 0.404581
vt 0.367890 0.394602
vt 0.367890 0.016011
f 1/1/1 2/2/2 3/3/3
f 1/1/1 3/3/3 4/4/4
f 1/1/1 4/4/4 5/5/5
f 1/1/1 5/5/5 6/6/6
f 1/1/1 6/6/6 7/7/7
f 1/1/1 7/7/7 8/8/8
f 1/1/1 8/8/8 9/9/9
f 1/1/1 9/9/9 2/2/2
f 10/10/10 11/11/11 12/12/12
f 10/10/10 12/12/12 13/13/13
f 10/10/10 13/13/13 3/3/3
f 10/10/10 3/3/3 2/2/2
f 10/10/10 2/2/2 9/9/9
f 10/10/10 9/9/9 14/14/14
f 10/10/10 14/14/14 15/15/15
f 10/10/10 15/15/15 11/11/11
f 16/16/16 17/17/17 18/18/18
f 16/16/16 18/18/18 19/19/19
f 16/16/16 19/19/19 20/20/20
f 16/16/16 20/20/20 21/21/21
f 16/16/16 21/21/21 22/22/22
f 16/16/16 22/22/22 23/23/23
f 16/16/16 23/23/23 24/24/24
f 16/16/16 24/24/24 17/17/17
f 25/25/25 21/21/21 20/20/20
f 25/25/25 20/20/20 26/26/26
f 25/25/25 26/26/26 27/27/27
f 25/25/25 27/27/27 28/28/28
f 25/25/25 28/28/28 29/29/29
f 25/25/25 29/29/29 30/30/30
f 25/25/25 30/30/30 22/22/22
f 25/25/25 22/22/22 21/21/21
f 31/31/31 32/32/32 22/22/22
f 31/31/31 22/22/22 30/30/30
f 31/31/31 30/30/30 29/29/29
f 31/31/31 29/29/29 33/33/33
f 31/31/31 33/33/33 5/5/5
f 31/31/31 5/5/5 4/4/4
f 31/31/31 4/4/4 3/3/3
f 31/31/31 3/3/3 32/32/32
f 34/34/34 35/35/35 24/24/24
f 34/34/34 24/24/24 23/23/23
f 34/34/34 23/23/23 22/22/22
f 34/34/34 22/22/22 32/32/32
f 34/34/34 32/32/32 3/3/3
f 34/34/34 3/3/3 13/13/13
f 34/34/34 13/13/13 12/12/12
f 34/34/34 12/12/12 35/35/35
f 36/36/36 37/37/37 38/38/38
f 36/36/36 38/38/38 39/39/39
f 36/36/36 39/39/39 40/40/40
f 36/36/36 40/40/40 41/41/41
f 36/36/36 41/41/41 20/20/20
f 36/36/36 20/20/20 19/19/19
f 36/36/36 19/19/19 18/18/18
f 36/36/36 18/18/18 37/37/37
f 42/42/42 41/41/41 40/40/40
f 42/42/42 40/40/40 43/43/43
f 42/42/42 43/43/43 44/44/44
f 42/42/42 44/44/44 45/45/45
f 42/42/42 45/45/45 27/27/27
f 42/42/42 27/27/27 26/26/26
f 42/42/42 26/26/26 20/20/20
f 42/42/42 20/20/20 41/41/41
f 46/46/46 47/47/47 48/48/48
f 46/46/46 48/48/48 49/49/49
f 46/46/46 49/49/49 50/50/50
f 46/46/46 50/50/50 51/51/51
f 46/46/46 51/51/51 52/52/52
f 46/46/46 52/52/52 53/53/53
f 46/46/46 53/53/53 54/54/54
f 46/46/46 54/54/54 47/47/47
f 55/55/55 56/56/56 57/57/57
f 55/55/55 57/57/57 58/58/58
f 55/55/55 58/58/58 48/48/48
f 55/55/55 48/48/48 47/47/47
f 55/55/55 47/47/47 54/54/54
f 55/55/55 54/54/54 59/59/59
f 55/55/55 59/59/59 60/60/60
f 55/55/55 60/60/60 56/56/56
f 61/61/61 62/62/62 63/63/63
f 61/61/61 63/63/63 64/64/64
f 61/61/61 64/64/64 65/65/65
f 61/61/61 65/65/65 66/66/66
f 61/61/61 66/66/66 67/67/67
f 61/61/61 67/67/67 68/68/68
f 61/61/61 68/68/68 69/69/69
f 61/61/61 69/69/69 62/62/62
f 70/70/70 66/66/66 65/65/65
f 70/70/70 65/65/65 71/71/71
f 70/70/70 71/71/71 72/72/72
f 70/70/70 72/72/72 73/73/73
f 70/70/70 73/73/73 74/74/74
f 70/70/70 74/74/74 75/75/75
f 70/70/70 75/75/75 67/67/67
f 70/70/70 67/67/67 66/66/66
f 76/76/76 77/77/77 54/54/54
f 76/76/76 54/54/54 53/53/53
f 76/76/76 53/53/53 52/52/52
f 76/76/76 52/52/52 78/78/78
f 76/76/76 78/78/78 72/72/72
f 76/76/76 72/72/72 71/71/71
f 76/76/76 71/71/71 65/65/65
f 76/76/76 65/65/65 77/77/77
f 79/79/79 80/80/80 60/60/60
f 79/79/79 60/60/60 59/59/59
f 79/79/79 59/59/59 54/54/54
f 79/79/79 54/54/54 77/77/77
f 79/79/79 77/77/77 65/65/65
f 79/79/79 65/65/65 64/64/64
f 79/79/79 64/64/64 63/63/63
f 79/79/79 63/63/63 80/80/80
f 81/81/81 82/82/82 69/69/69
f 81/81/81 69/69/69 68/68/68
f 81/81/81 68/68/68 67/67/67
f 81/81/81 67/67/67 83/83/83
f 81/81/81 83/83/83 84/84/84
f 81/81/81 84/84/84 85/85/85
f 81/81/81 85/85/85 86/86/86
f 81/81/81 86/86/86 82/82/82
f 87/87/87 83/83/83 67/67/67
f 87/87/87 67/67/67 75/75/75
f 87/87/87 75/75/75 74/74/74
f 87/87/87 74/74/74 88/88/88
f 87/87/87 88/88/88 89/89/89
f 87/87/87 89/89/89 90/90/90
f 87/87/87 90/90/90 84/84/84
f 87/87/87 84/84/84 83/83/83
f 91/91/91 92/92/92 38/38/38
f 91/91/91 38/38/38 37/37/37
f 91/91/91 37/37/37 18/18/18
f 91/91/91 18/18/18 93/93/93
f 91/91/91 93/93/93 69/69/69
f 91/91/91 69/69/69 82/82/82
f 91/91/91 82/82/82 94/94/94
f 91/91/91 94/94/94 92/92/92
f 95/95/95 96/96/96 44/44/44
f 95/95/95 44/44/44 43/43/43
f 95/95/95 43/43/43 40/40/40
f 95/95/95 40/40/40 97/97/97
f 95/95/95 97/97/97 84/84/84
f 95/95/95 84/84/84 90/90/90
f 95/95/95 90/90/90 98/98/98
f 95/95/95 98/98/98 96/96/96
f 99/99/99 100/100/100 7/7/7
f 99/99/99 7/7/7 6/6/6
f 99/99/99 6/6/6 5/5/5
f 99/99/99 5/5/5 101/101/101
f 99/99/99 101/101/101 52/52/52
f 99/99/99 52/52/52 51/51/51
f 99/99/99 51/51/51 102/102/102
f 99/99/99 102/102/102 100/100/100
f 103/103/103 104/104/104 15/15/15
f 103/103/103 15/15/15 14/14/14
f 103/103/103 14/14/14 9/9/9
f 103/103/103 9/9/9 105/105/105
f 103/103/103 105/105/105 48/48/48
f 103/103/103 48/48/48 58/58/58
f 103/103/103 58/58/58 106/106/106
f 103/103/103 106/106/106 104/104/104
f 107/107/107 108/108/108 12/12/12
f 107/107/107 12/12/12 11/11/11
f 107/107/107 11/11/11 15/15/15
f 107/107/107 15/15/15 104/104/104
f 107/107/107 104/104/104 106/106/106
f 107/107/107 106/106/106 56/56/56
f 107/107/107 56/56/56 60/60/60
f 107/107/107 60/60/60 108/108/108
f 109/109/109 97/97/97 40/40/40
f 109/109/109 40/40/40 39/39/39
f 109/109/109 39/39/39 38/38/38
f 109/109/109 38/38/38 92/92/92
f 109/109/109 92/92/92 94/94/94
f 109/109/109 94/94/94 85/85/85
f 109/109/109 85/85/85 84/84/84
f 109/109/109 84/84/84 97/97/97
f 110/110/110 111/111/111 27/27/27
f 110/110/110 27/27/27 45/45/45
f 110/110/110 45/45/45 44/44/44
f 110/110/110 44/44/44 96/96/96
f 110/110/110 96/96/96 98/98/98
f 110/110/110 98/98/98 88/88/88
f 110/110/110 88/88/88 74/74/74
f 110/110/110 74/74/74 111/111/111
f 112/112/112 105/105/105 9/9/9
f 112/112/112 9/9/9 8/8/8
f 112/112/112 8/8/8 7/7/7
f 112/112/112 7/7/7 100/100/100
f 112/112/112 100/100/100 102/102/102
f 112/112/112 102/102/102 49/49/49
f 112/112/112 49/49/49 48/48/48
f 112/112/112 48/48/48 105/105/105
f 113/113/113 101/101/101 5/5/5
f 113/113/113 5/5/5 33/33/33
f 113/113/113 33/33/33 29/29/29
f 113/113/113 29/29/29 114/114/114
f 113/113/113 114/114/114 72/72/72
f 113/113/113 72/72/72 78/78/78
f 113/113/113 78/78/78 52/52/52
f 113/113/113 52/52/52 101/101/101
f 115/115/115 116/116/116 24/24/24
f 115/115/115 24/24/24 35/35/35
f 115/115/115 35/35/35 12/12/12
f 115/115/115 12/12/12 108/108/108
f 115/115/115 108/108/108 60/60/60
f 115/115/115 60/60/60 80/80/80
f 115/115/115 80/80/80 63/63/63
f 115/115/115 63/63/63 116/116/116
f 117/117/117 93/93/93 18/18/18
f 117/117/117 18/18/18 17/17/17
f 117/117/117 17/17/17 24/24/24
f 117/117/117 24/24/24 116/116/116
f 117/117/117 116/116/116 63/63/63
f 117/117/117 63/63/63 62/62/62
f 117/117/117 62/62/62 69/69/69
f 117/117/117 69/69/69 93/93/93
f 118/118/118 114/114/114 29/29/29
f 118/118/118 29/29/29 28/28/28
f 118/118/118 28/28/28 27/27/27
f 118/118/118 27/27/27 111/111/111
f 118/118/118 111/111/111 74/74/74
f 118/118/118 74/74/74 73/73/73
f 118/118/118 73/73/73 72/72/72
f 118/118/118 72/72/72 114/114/114
