v -2.367877 0.699284 -1.081519
v -2.365411 0.699476 -1.081125
v -2.365562 0.699384 -1.084454
v -2.368332 0.699107 -1.084533
v -2.370479 0.699128 -1.084752
v -2.369810 0.699374 -1.082198
v -2.368897 0.699368 -1.080620
v -2.367436 0.699300 -1.079386
v -2.365274 0.699431 -1.078683
v -2.363165 0.700381 -1.081762
v -2.361546 0.701298 -1.082626
v -2.361091 0.701313 -1.085238
v -2.362976 0.700354 -1.084810
v -2.363357 0.700250 -1.079597
v -2.362204 0.700926 -1.080966
v -2.363079 0.698275 -1.095040
v -2.361167 0.698978 -1.095243
v -2.361582 0.697614 -1.098543
v -2.363269 0.696979 -1.098356
v -2.365546 0.696267 -1.098165
v -2.365656 0.697482 -1.094831
v -2.365710 0.698465 -1.091437
v -2.363019 0.699318 -1.091660
v -2.361028 0.700089 -1.091881
v -2.368327 0.697053 -1.094769
v -2.367910 0.695899 -1.098116
v -2.369714 0.695721 -1.098122
v -2.370362 0.696837 -1.094767
v -2.370647 0.697850 -1.091383
v -2.368508 0.698040 -1.091376
v -2.368526 0.698709 -1.087891
v -2.365670 0.699072 -1.087935
v -2.370722 0.698617 -1.087929
v -2.362956 0.700005 -1.088180
v -2.360960 0.700889 -1.088434
v -2.363725 0.695532 -1.101643
v -2.362477 0.696059 -1.101806
v -2.363276 0.695009 -1.103562
v -2.364155 0.694362 -1.104086
v -2.365299 0.693917 -1.103954
v -2.365414 0.694961 -1.101483
v -2.367188 0.694726 -1.101464
v -2.366528 0.693809 -1.103963
v -2.367546 0.694015 -1.103341
v -2.368550 0.694645 -1.101491
v -2.367853 0.699024 -1.081502
v -2.365351 0.699221 -1.081111
v -2.365230 0.699240 -1.078677
v -2.367420 0.699105 -1.079377
v -2.368892 0.699223 -1.080612
v -2.369811 0.699178 -1.082185
v -2.370474 0.698932 -1.084731
v -2.368304 0.698848 -1.084507
v -2.365502 0.699130 -1.084430
v -2.363070 0.700137 -1.081750
v -2.361458 0.701122 -1.082618
v -2.362143 0.700794 -1.080961
v -2.363284 0.700068 -1.079591
v -2.362885 0.700110 -1.084787
v -2.361007 0.701136 -1.085221
v -2.362995 0.698036 -1.094968
v -2.361093 0.698802 -1.095190
v -2.360953 0.699912 -1.091839
v -2.362934 0.699076 -1.091602
v -2.365649 0.698216 -1.091378
v -2.365596 0.697237 -1.094758
v -2.365485 0.696024 -1.098081
v -2.363186 0.696743 -1.098274
v -2.361508 0.697441 -1.098482
v -2.368289 0.696804 -1.094694
v -2.368472 0.697787 -1.091316
v -2.370631 0.697659 -1.091338
v -2.370345 0.696648 -1.094711
v -2.369698 0.695534 -1.098058
v -2.367873 0.695652 -1.098031
v -2.368493 0.698452 -1.087849
v -2.365609 0.698821 -1.087894
v -2.370711 0.698423 -1.087896
v -2.362868 0.699762 -1.088140
v -2.360881 0.700711 -1.088405
v -2.363640 0.695298 -1.101557
v -2.362401 0.695888 -1.101742
v -2.365353 0.694720 -1.101395
v -2.365253 0.693737 -1.103888
v -2.364090 0.694187 -1.104022
v -2.363223 0.694881 -1.103514
v -2.367152 0.694481 -1.101375
v -2.368536 0.694459 -1.101425
v -2.367532 0.693878 -1.103291
v -2.366502 0.693625 -1.103897
v -2.362025 0.696159 -1.101832
v -2.363244 0.694746 -1.104209
v -2.360984 0.697750 -1.098579
v -2.363223 0.694881 -1.103514
v -2.366297 0.693422 -1.104767
v -2.367522 0.693750 -1.103987
v -2.365240 0.693489 -1.104749
v -2.367532 0.693878 -1.103291
v -2.370459 0.699317 -1.082419
v -2.369176 0.699358 -1.080463
v -2.371196 0.699047 -1.084815
v -2.368892 0.699223 -1.080612
v -2.363388 0.700126 -1.078873
v -2.361935 0.701043 -1.080838
v -2.365209 0.699332 -1.077868
v -2.362143 0.700794 -1.080961
v -2.360963 0.701527 -1.082910
v -2.360422 0.701555 -1.085373
v -2.364269 0.693894 -1.104872
v -2.369000 0.694535 -1.101471
v -2.370311 0.695578 -1.098096
v -2.367282 0.699219 -1.078672
v -2.371452 0.698499 -1.087927
v -2.371355 0.697701 -1.091365
v -2.360257 0.701106 -1.088506
v -2.360328 0.700269 -1.091936
v -2.360494 0.699135 -1.095287
v -2.371036 0.696681 -1.094741
vn -0.011600 0.999500 -0.030200
vn -0.226700 0.974000 0.001500
vn -0.229200 0.971600 -0.058300
vn -0.037300 0.995300 -0.089100
vn -0.047500 0.992400 -0.113700
vn -0.019700 0.999300 -0.030300
vn -0.000800 0.999600 0.029100
vn -0.046900 0.996800 0.064300
vn -0.221000 0.970600 0.094800
vn -0.432800 0.901400 -0.008500
vn -0.425600 0.904800 -0.009200
vn -0.405800 0.909000 -0.095100
vn -0.413900 0.907700 -0.069600
vn -0.391100 0.916700 0.082000
vn -0.436800 0.898000 0.051600
vn -0.335200 0.893200 -0.299700
vn -0.299800 0.902000 -0.310500
vn -0.296000 0.892200 -0.341200
vn -0.341700 0.879800 -0.330400
vn -0.229600 0.908900 -0.348000
vn -0.230800 0.923000 -0.307700
vn -0.231900 0.946300 -0.225300
vn -0.348800 0.909700 -0.225200
vn -0.323000 0.914400 -0.244100
vn -0.123700 0.942400 -0.310600
vn -0.114900 0.932600 -0.342100
vn -0.162200 0.923300 -0.348100
vn -0.160200 0.934500 -0.317800
vn -0.138500 0.957300 -0.253700
vn -0.111500 0.964900 -0.237500
vn -0.079200 0.984800 -0.154400
vn -0.231200 0.963800 -0.132500
vn -0.096300 0.978900 -0.180000
vn -0.378300 0.915200 -0.138900
vn -0.362900 0.916900 -0.166200
vn -0.365400 0.866000 -0.341300
vn -0.316600 0.878600 -0.357400
vn -0.346100 0.862000 -0.370300
vn -0.383400 0.836500 -0.391400
vn -0.226400 0.879500 -0.418600
vn -0.228900 0.901700 -0.366700
vn -0.088800 0.930400 -0.355600
vn -0.064700 0.910700 -0.407900
vn -0.107100 0.917600 -0.382900
vn -0.139400 0.919800 -0.366700
vn -0.015300 -0.998400 0.055000
vn 0.227400 -0.973700 0.014900
vn 0.229800 -0.970000 0.078600
vn -0.097000 -0.987300 0.125500
vn -0.212700 -0.964500 0.156400
vn -0.188900 -0.971100 0.145900
vn -0.118900 -0.982200 0.145200
vn 0.022100 -0.995600 0.091200
vn 0.229200 -0.971600 0.058100
vn 0.458800 -0.888000 0.030500
vn 0.610700 -0.784900 0.104500
vn 0.630000 -0.768300 0.112800
vn 0.533800 -0.840500 0.092800
vn 0.427800 -0.901100 0.070200
vn 0.553100 -0.825700 0.110500
vn 0.350400 -0.888200 0.297000
vn 0.453800 -0.847300 0.275900
vn 0.464700 -0.856800 0.223400
vn 0.362900 -0.904600 0.223600
vn 0.231900 -0.946200 0.225500
vn 0.230800 -0.923000 0.307900
vn 0.229600 -0.908900 0.348100
vn 0.359500 -0.874600 0.325400
vn 0.475800 -0.835500 0.274800
vn 0.107600 -0.944700 0.309600
vn 0.096600 -0.966600 0.237400
vn -0.015400 -0.968600 0.248300
vn -0.004600 -0.954000 0.299600
vn -0.029600 -0.953200 0.301000
vn 0.096300 -0.935800 0.339000
vn 0.064600 -0.985800 0.154900
vn 0.231200 -0.963800 0.132500
vn -0.056700 -0.981100 0.185000
vn 0.391800 -0.909600 0.138000
vn 0.500900 -0.851300 0.156100
vn 0.389800 -0.863600 0.319900
vn 0.523400 -0.819400 0.233600
vn 0.229300 -0.906200 0.355300
vn 0.230900 -0.924000 0.304800
vn 0.457200 -0.855400 0.243400
vn 0.550700 -0.809700 0.202700
vn 0.063900 -0.939400 0.336800
vn -0.083400 -0.960600 0.265100
vn -0.115100 -0.964600 0.237200
vn -0.007400 -0.963500 0.267500
vn 0.847400 0.260400 -0.462600
vn 0.621800 0.111500 -0.775100
vn 0.903000 0.287900 -0.318900
vn 0.550700 -0.809700 0.202700
vn -0.205400 -0.362800 -0.908900
vn -0.680200 -0.191400 -0.707600
vn 0.061500 -0.460500 -0.885500
vn -0.115100 -0.964600 0.237200
vn -0.927900 0.131900 0.348600
vn -0.764800 0.147300 0.627200
vn -0.985400 0.071400 0.154800
vn -0.212700 -0.964500 0.156400
vn 0.501500 0.204100 0.840700
vn 0.679000 0.483500 0.552400
vn 0.065000 -0.057300 0.996200
vn 0.630000 -0.768300 0.112800
vn 0.804100 0.535100 0.258900
vn 0.863000 0.501700 0.059100
vn 0.254200 -0.255800 -0.932700
vn -0.916100 -0.150100 -0.371700
vn -0.963800 -0.146700 -0.222700
vn -0.455100 -0.018600 0.890200
vn -0.999700 0.001300 0.025800
vn -0.997700 -0.053100 -0.042400
vn 0.894000 0.442000 -0.072500
vn 0.909600 0.390700 -0.141300
vn 0.918300 0.337000 -0.207900
vn -0.988200 -0.106900 -0.109400
vt 0.839504 0.118056
vt 0.856743 0.205307
vt 0.741230 0.205307
vt 0.734555 0.106726
vt 0.724541 0.032791
vt 0.813647 0.052618
vt 0.868992 0.081539
vt 0.913398 0.129584
vt 0.940923 0.205307
vt 0.839504 0.292557
vt 0.813647 0.357995
vt 0.724541 0.377822
vt 0.734555 0.303887
vt 0.913398 0.281029
vt 0.868992 0.329074
vt 0.369475 0.299954
vt 0.368286 0.370940
vt 0.245840 0.351447
vt 0.246397 0.288815
vt 0.246768 0.205307
vt 0.370268 0.205307
vt 0.494283 0.205307
vt 0.492822 0.304944
vt 0.490632 0.379672
vt 0.369475 0.110659
vt 0.246397 0.121798
vt 0.245841 0.059166
vt 0.368286 0.039673
vt 0.490632 0.030941
vt 0.492822 0.105669
vt 0.616755 0.103478
vt 0.619174 0.205307
vt 0.613127 0.027106
vt 0.616755 0.307135
vt 0.613126 0.383507
vt 0.123273 0.268175
vt 0.123047 0.315326
vt 0.054743 0.283353
vt 0.030912 0.249131
vt 0.030973 0.205306
vt 0.123423 0.205306
vt 0.123273 0.142438
vt 0.030912 0.161481
vt 0.054744 0.127260
vt 0.123047 0.095287
vt 0.839504 0.118056
vt 0.856743 0.205307
vt 0.968983 0.205307
vt 0.938030 0.133427
vt 0.876123 0.061548
vt 0.805028 0.030806
vt 0.721203 0.008146
vt 0.734555 0.106726
vt 0.741230 0.205307
vt 0.839504 0.292557
vt 0.805028 0.379807
vt 0.876123 0.349065
vt 0.938030 0.277186
vt 0.734555 0.303887
vt 0.721203 0.402467
vt 0.369475 0.299954
vt 0.367890 0.394602
vt 0.489902 0.404581
vt 0.492822 0.304944
vt 0.494283 0.205307
vt 0.370268 0.205307
vt 0.246768 0.205307
vt 0.246397 0.288815
vt 0.245655 0.372324
vt 0.369475 0.110659
vt 0.492822 0.105669
vt 0.489902 0.006032
vt 0.367890 0.016011
vt 0.245655 0.038289
vt 0.246397 0.121798
vt 0.616755 0.103478
vt 0.619174 0.205307
vt 0.611917 0.001649
vt 0.616755 0.307135
vt 0.611917 0.408964
vt 0.123273 0.268175
vt 0.122972 0.331043
vt 0.123423 0.205306
vt 0.000156 0.205306
vt 0.000125 0.242784
vt 0.000064 0.280261
vt 0.123273 0.142438
vt 0.122972 0.079570
vt 0.000064 0.130352
vt 0.000125 0.167829
vt 0.122972 0.331043
vt 0.030806 0.283587
vt 0.245655 0.372324
vt 0.030806 0.283587
vt 0.000125 0.167829
vt 0.030806 0.127026
vt 0.000156 0.205306
vt 0.030806 0.127026
vt 0.805028 0.030806
vt 0.873826 0.071832
vt 0.721203 0.008146
vt 0.873826 0.071832
vt 0.938030 0.277186
vt 0.873826 0.338781
vt 0.968983 0.205307
vt 0.873826 0.338781
vt 0.805028 0.379807
vt 0.721203 0.402467
vt 0.000125 0.242784
vt 0.122972 0.079570
vt 0.245655 0.038289
vt 0.938030 0.133427
vt 0.611917 0.001649
vt 0.489902 0.006032
vt 0.611917 0.408964
vt 0.489902 0.404581
vt 0.367890 0.394602
vt 0.367890 0.016011
f 1/1/1 2/2/2 3/3/3
f 1/1/1 3/3/3 4/4/4
f 1/1/1 4/4/4 5/5/5
f 1/1/1 5/5/5 6/6/6
f 1/1/1 6/6/6 7/7/7
f 1/1/1 7/7/7 8/8/8
f 1/1/1 8/8/8 9/9/9
f 1/1/1 9/9/9 2/2/2
f 10/10/10 11/11/11 12/12/12
f 10/10/10 12/12/12 13/13/13
f 10/10/10 13/13/13 3/3/3
f 10/10/10 3/3/3 2/2/2
f 10/10/10 2/2/2 9/9/9
f 10/10/10 9/9/9 14/14/14
f 10/10/10 14/14/14 15/15/15
f 10/10/10 15/15/15 11/11/11
f 16/16/16 17/17/17 18/18/18
f 16/16/16 18/18/18 19/19/19
f 16/16/16 19/19/19 20/20/20
f 16/16/16 20/20/20 21/21/21
f 16/16/16 21/21/21 22/22/22
f 16/16/16 22/22/22 23/23/23
f 16/16/16 23/23/23 24/24/24
f 16/16/16 24/24/24 17/17/17
f 25/25/25 21/21/21 20/20/20
f 25/25/25 20/20/20 26/26/26
f 25/25/25 26/26/26 27/27/27
f 25/25/25 27/27/27 28/28/28
f 25/25/25 28/28/28 29/29/29
f 25/25/25 29/29/29 30/30/30
f 25/25/25 30/30/30 22/22/22
f 25/25/25 22/22/22 21/21/21
f 31/31/31 32/32/32 22/22/22
f 31/31/31 22/22/22 30/30/30
f 31/31/31 30/30/30 29/29/29
f 31/31/31 29/29/29 33/33/33
f 31/31/31 33/33/33 5/5/5
f 31/31/31 5/5/5 4/4/4
f 31/31/31 4/4/4 3/3/3
f 31/31/31 3/3/3 32/32/32
f 34/34/34 35/35/35 24/24/24
f 34/34/34 24/24/24 23/23/23
f 34/34/34 23/23/23 22/22/22
f 34/34/34 22/22/22 32/32/32
f 34/34/34 32/32/32 3/3/3
f 34/34/34 3/3/3 13/13/13
f 34/34/34 13/13/13 12/12/12
f 34/34/34 12/12/12 35/35/35
f 36/36/36 37/37/37 38/38/38
f 36/36/36 38/38/38 39/39/39
f 36/36/36 39/39/39 40/40/40
f 36/36/36 40/40/40 41/41/41
f 36/36/36 41/41/41 20/20/20
f 36/36/36 20/20/20 19/19/19
f 36/36/36 19/19/19 18/18/18
f 36/36/36 18/18/18 37/37/37
f 42/42/42 41/41/41 40/40/40
f 42/42/42 40/40/40 43/43/43
f 42/42/42 43/43/43 44/44/44
f 42/42/42 44/44/44 45/45/45
f 42/42/42 45/45/45 27/27/27
f 42/42/42 27/27/27 26/26/26
f 42/42/42 26/26/26 20/20/20
f 42/42/42 20/20/20 41/41/41
f 46/46/46 47/47/47 48/48/48
f 46/46/46 48/48/48 49/49/49
f 46/46/46 49/49/49 50/50/50
f 46/46/46 50/50/50 51/51/51
f 46/46/46 51/51/51 52/52/52
f 46/46/46 52/52/52 53/53/53
f 46/46/46 53/53/53 54/54/54
f 46/46/46 54/54/54 47/47/47
f 55/55/55 56/56/56 57/57/57
f 55/55/55 57/57/57 58/58/58
f 55/55/55 58/58/58 48/48/48
f 55/55/55 48/48/48 47/47/47
f 55/55/55 47/47/47 54/54/54
f 55/55/55 54/54/54 59/59/59
f 55/55/55 59/59/59 60/60/60
f 55/55/55 60/60/60 56/56/56
f 61/61/61 62/62/62 63/63/63
f 61/61/61 63/63/63 64/64/64
f 61/61/61 64/64/64 65/65/65
f 61/61/61 65/65/65 66/66/66
f 61/61/61 66/66/66 67/67/67
f 61/61/61 67/67/67 68/68/68
f 61/61/61 68/68/68 69/69/69
f 61/61/61 69/69/69 62/62/62
f 70/70/70 66/66/66 65/65/65
f 70/70/70 65/65/65 71/71/71
f 70/70/70 71/71/71 72/72/72
f 70/70/70 72/72/72 73/73/73
f 70/70/70 73/73/73 74/74/74
f 70/70/70 74/74/74 75/75/75
f 70/70/70 75/75/75 67/67/67
f 70/70/70 67/67/67 66/66/66
f 76/76/76 77/77/77 54/54/54
f 76/76/76 54/54/54 53/53/53
f 76/76/76 53/53/53 52/52/52
f 76/76/76 52/52/52 78/78/78
f 76/76/76 78/78/78 72/72/72
f 76/76/76 72/72/72 71/71/71
f 76/76/76 71/71/71 65/65/65
f 76/76/76 65/65/65 77/77/77
f 79/79/79 80/80/80 60/60/60
f 79/79/79 60/60/60 59/59/59
f 79/79/79 59/59/59 54/54/54
f 79/79/79 54/54/54 77/77/77
f 79/79/79 77/77/77 65/65/65
f 79/79/79 65/65/65 64/64/64
f 79/79/79 64/64/64 63/63/63
f 79/79/79 63/63/63 80/80/80
f 81/81/81 82/82/82 69/69/69
f 81/81/81 69/69/69 68/68/68
f 81/81/81 68/68/68 67/67/67
f 81/81/81 67/67/67 83/83/83
f 81/81/81 83/83/83 84/84/84
f 81/81/81 84/84/84 85/85/85
f 81/81/81 85/85/85 86/86/86
f 81/81/81 86/86/86 82/82/82
f 87/87/87 83/83/83 67/67/67
f 87/87/87 67/67/67 75/75/75
f 87/87/87 75/75/75 74/74/74
f 87/87/87 74/74/74 88/88/88
f 87/87/87 88/88/88 89/89/89
f 87/87/87 89/89/89 90/90/90
f 87/87/87 90/90/90 84/84/84
f 87/87/87 84/84/84 83/83/83
f 91/91/91 92/92/92 38/38/38
f 91/91/91 38/38/38 37/37/37
f 91/91/91 37/37/37 18/18/18
f 91/91/91 18/18/18 93/93/93
f 91/91/91 93/93/93 69/69/69
f 91/91/91 69/69/69 82/82/82
f 91/91/91 82/82/82 94/94/94
f 91/91/91 94/94/94 92/92/92
f 95/95/95 96/96/96 44/44/44
f 95/95/95 44/44/44 43/43/43
f 95/95/95 43/43/43 40/40/40
f 95/95/95 40/40/40 97/97/97
f 95/95/95 97/97/97 84/84/84
f 95/95/95 84/84/84 90/90/90
f 95/95/95 90/90/90 98/98/98
f 95/95/95 98/98/98 96/96/96
f 99/99/99 100/100/100 7/7/7
f 99/99/99 7/7/7 6/6/6
f 99/99/99 6/6/6 5/5/5
f 99/99/99 5/5/5 101/101/101
f 99/99/99 101/101/101 52/52/52
f 99/99/99 52/52/52 51/51/51
f 99/99/99 51/51/51 102/102/102
f 99/99/99 102/102/102 100/100/100
f 103/103/103 104/104/104 15/15/15
f 103/103/103 15/15/15 14/14/14
f 103/103/103 14/14/14 9/9/9
f 103/103/103 9/9/9 105/105/105
f 103/103/103 105/105/105 48/48/48
f 103/103/103 48/48/48 58/58/58
f 103/103/103 58/58/58 106/106/106
f 103/103/103 106/106/106 104/104/104
f 107/107/107 108/108/108 12/12/12
f 107/107/107 12/12/12 11/11/11
f 107/107/107 11/11/11 15/15/15
f 107/107/107 15/15/15 104/104/104
f 107/107/107 104/104/104 106/106/106
f 107/107/107 106/106/106 56/56/56
f 107/107/107 56/56/56 60/60/60
f 107/107/107 60/60/60 108/108/108
f 109/109/109 97/97/97 40/40/40
f 109/109/109 40/40/40 39/39/39
f 109/109/109 39/39/39 38/38/38
f 109/109/109 38/38/38 92/92/92
f 109/109/109 92/92/92 94/94/94
f 109/109/109 94/94/94 85/85/85
f 109/109/109 85/85/85 84/84/84
f 109/109/109 84/84/84 97/97/97
f 110/110/110 111/111/111 27/27/27
f 110/110/110 27/27/27 45/45/45
f 110/110/110 45/45/45 44/44/44
f 110/110/110 44/44/44 96/96/96
f 110/110/110 96/96/96 98/98/98
f 110/110/110 98/98/98 88/88/88
f 110/110/110 88/88/88 74/74/74
f 110/110/110 74/74/74 111/111/111
f 112/112/112 105/105/105 9/9/9
f 112/112/112 9/9/9 8/8/8
f 112/112/112 8/8/8 7/7/7
f 112/112/112 7/7/7 100/100/100
f 112/112/112 100/100/100 102/102/102
f 112/112/112 102/102/102 49/49/49
f 112/112/112 49/49/49 48/48/48
f 112/112/112 48/48/48 105/105/105
f 113/113/113 101/101/101 5/5/5
f 113/113/113 5/5/5 33/33/33
f 113/113/113 33/33/33 29/29/29
f 113/113/113 29/29/29 114/114/114
f 113/113/113 114/114/114 72/72/72
f 113/113/113 72/72/72 78/78/78
f 113/113/113 78/78/78 52/52/52
f 113/113/113 52/52/52 101/101/101
f 115/115/115 116/116/116 24/24/24
f 115/115/115 24/24/24 35/35/35
f 115/115/115 35/35/35 12/12/12
f 115/115/115 12/12/12 108/108/108
f 115/115/115 108/108/108 60/60/60
f 115/115/115 60/60/60 80/80/80
f 115/115/115 80/80/80 63/63/63
f 115/115/115 63/63/63 116/116/116
f 117/117/117 93/93/93 18/18/18
f 117/117/117 18/18/18 17/17/17
f 117/117/117 17/17/17 24/24/24
f 117/117/117 24/24/24 116/116/116
f 117/117/117 116/116/116 63/63/63
f 117/117/117 63/63/63 62/62/62
f 117/117/117 62/62/62 69/69/69
f 117/117/117 69/69/69 93/93/93
f 118/118/118 114/114/114 29/29/29
f 118/118/118 29/29/29 28/28/28
f 118/118/118 28/28/28 27/27/27
f 118/118/118 27/27/27 111/111/111
f 118/118/118 111/111/111 74/74/74
f 118/118/118 74/74/74 73/73/73
f 118/118/118 73/73/73 72/72/72
f 118/118/118 72/72/72 114/114/114
