v -2.392450 0.773753 -1.249458
v -2.395183 0.773668 -1.250524
v -2.395816 0.773316 -1.246686
v -2.392648 0.773370 -1.245906
v -2.390267 0.773671 -1.245110
v -2.390436 0.774069 -1.248186
v -2.391085 0.774062 -1.250222
v -2.392430 0.773881 -1.252006
v -2.394731 0.773792 -1.253351
v -2.398027 0.774359 -1.250322
v -2.400216 0.775133 -1.249701
v -2.401377 0.774879 -1.246832
v -2.398986 0.774059 -1.246888
v -2.397257 0.774406 -1.252754
v -2.399005 0.774923 -1.251449
v -2.401069 0.770843 -1.235273
v -2.403396 0.771380 -1.235493
v -2.403530 0.769591 -1.231682
v -2.401472 0.769101 -1.231498
v -2.398732 0.768602 -1.231174
v -2.397971 0.770294 -1.234896
v -2.397225 0.771712 -1.238714
v -2.400464 0.772315 -1.239100
v -2.402896 0.772920 -1.239316
v -2.394859 0.770168 -1.234311
v -2.395980 0.768503 -1.230647
v -2.393906 0.768544 -1.230191
v -2.392514 0.770197 -1.233807
v -2.391513 0.771682 -1.237552
v -2.393968 0.771609 -1.238094
v -2.393193 0.772666 -1.242038
v -2.396502 0.772692 -1.242696
v -2.390695 0.772858 -1.241443
v -2.399784 0.773383 -1.243060
v -2.402247 0.774114 -1.243232
v -2.401543 0.767222 -1.227697
v -2.403080 0.767649 -1.227802
v -2.402446 0.766400 -1.225644
v -2.401479 0.765727 -1.224853
v -2.400080 0.765379 -1.224735
v -2.399500 0.766803 -1.227479
v -2.397445 0.766776 -1.227062
v -2.398670 0.765421 -1.224418
v -2.397392 0.765850 -1.224861
v -2.395893 0.766867 -1.226689
v -2.392434 0.773449 -1.249495
v -2.395209 0.773366 -1.250568
v -2.394752 0.773565 -1.253379
v -2.392416 0.773653 -1.252029
v -2.391066 0.773893 -1.250239
v -2.390403 0.773842 -1.248210
v -2.390238 0.773444 -1.245145
v -2.392635 0.773067 -1.245956
v -2.395840 0.773015 -1.246741
v -2.398095 0.774064 -1.250372
v -2.400288 0.774917 -1.249742
v -2.399053 0.774762 -1.251476
v -2.397310 0.774185 -1.252787
v -2.399047 0.773765 -1.246950
v -2.401441 0.774663 -1.246881
v -2.401110 0.770560 -1.235388
v -2.403440 0.771170 -1.235581
v -2.402944 0.772707 -1.239392
v -2.400510 0.772027 -1.239199
v -2.397242 0.771420 -1.238809
v -2.397985 0.770007 -1.235007
v -2.398744 0.768319 -1.231297
v -2.401510 0.768822 -1.231625
v -2.403573 0.769385 -1.231779
v -2.394846 0.769879 -1.234418
v -2.393956 0.771315 -1.238184
v -2.391490 0.771461 -1.237617
v -2.392491 0.769980 -1.233884
v -2.393881 0.768331 -1.230277
v -2.395964 0.768219 -1.230765
v -2.393181 0.772367 -1.242108
v -2.396523 0.772395 -1.242771
v -2.390670 0.772633 -1.241492
v -2.399837 0.773091 -1.243139
v -2.402303 0.773898 -1.243295
v -2.401583 0.766945 -1.227828
v -2.403124 0.767444 -1.227902
v -2.399511 0.766522 -1.227606
v -2.400088 0.765169 -1.224830
v -2.401509 0.765520 -1.224951
v -2.402474 0.766248 -1.225717
v -2.397427 0.766493 -1.227184
v -2.395865 0.766655 -1.226777
v -2.397375 0.765693 -1.224927
v -2.398655 0.765210 -1.224509
v -2.403615 0.767701 -1.227882
v -2.402601 0.766039 -1.224925
v -2.404238 0.769663 -1.231787
v -2.402474 0.766248 -1.225717
v -2.399071 0.764876 -1.223577
v -2.397538 0.765488 -1.224141
v -2.400277 0.764811 -1.223863
v -2.397375 0.765693 -1.224927
v -2.389745 0.774074 -1.247772
v -2.390728 0.774101 -1.250331
v -2.389456 0.773671 -1.244860
v -2.391066 0.773893 -1.250239
v -2.397024 0.774324 -1.253579
v -2.399297 0.775033 -1.251658
v -2.394590 0.773733 -1.254305
v -2.399053 0.774762 -1.251476
v -2.400982 0.775296 -1.249513
v -2.402207 0.775057 -1.246835
v -2.401471 0.765137 -1.223949
v -2.395360 0.766803 -1.226603
v -2.393200 0.768463 -1.230076
v -2.392417 0.773823 -1.252865
v -2.389848 0.772822 -1.241266
v -2.390682 0.771608 -1.237399
v -2.403096 0.774263 -1.243318
v -2.403731 0.773027 -1.239421
v -2.404194 0.771466 -1.235605
v -2.391720 0.770110 -1.233672
vn -0.124100 0.989500 0.073400
vn 0.094200 0.991600 0.088000
vn 0.084400 0.985600 0.146700
vn -0.111000 0.984400 0.136200
vn -0.105900 0.981000 0.162300
vn -0.116300 0.990400 0.075200
vn -0.122200 0.992400 0.013300
vn -0.069700 0.997500 -0.011200
vn 0.108800 0.994000 -0.004400
vn 0.301300 0.943300 0.139300
vn 0.293700 0.945800 0.138700
vn 0.256000 0.941700 0.218400
vn 0.269300 0.943100 0.195100
vn 0.277700 0.959700 0.042600
vn 0.318200 0.944500 0.081500
vn 0.146600 0.903900 0.401900
vn 0.109000 0.907700 0.405200
vn 0.100100 0.895400 0.433900
vn 0.148300 0.889200 0.432700
vn 0.032200 0.903700 0.426800
vn 0.039900 0.920600 0.388400
vn 0.055300 0.949300 0.309200
vn 0.173300 0.926900 0.332900
vn 0.143700 0.927200 0.346000
vn -0.066900 0.927100 0.368800
vn -0.080800 0.914200 0.397200
vn -0.034900 0.910100 0.412900
vn -0.032000 0.923000 0.383300
vn -0.042600 0.947400 0.317100
vn -0.066300 0.952900 0.295800
vn -0.082800 0.974500 0.208500
vn 0.071800 0.973000 0.219300
vn -0.070800 0.968900 0.237000
vn 0.219300 0.941600 0.255300
vn 0.198500 0.939600 0.278700
vn 0.170700 0.877600 0.447900
vn 0.118500 0.883300 0.453600
vn 0.146500 0.869400 0.471900
vn 0.181400 0.847100 0.499500
vn 0.018000 0.869400 0.493800
vn 0.028500 0.895300 0.444600
vn -0.108600 0.908000 0.404600
vn -0.140400 0.882100 0.449600
vn -0.095000 0.895700 0.434400
vn -0.060600 0.902700 0.425900
vn 0.155200 -0.983600 -0.091700
vn -0.091600 -0.990300 -0.104200
vn -0.081100 -0.982700 -0.166500
vn 0.247800 -0.958300 -0.142300
vn 0.363500 -0.920000 -0.146500
vn 0.339100 -0.930000 -0.141600
vn 0.272600 -0.949300 -0.156600
vn 0.126300 -0.982800 -0.135000
vn -0.084400 -0.985600 -0.146600
vn -0.323600 -0.931500 -0.165900
vn -0.468500 -0.842200 -0.266700
vn -0.487700 -0.827400 -0.278300
vn -0.389300 -0.889000 -0.241000
vn -0.283500 -0.938200 -0.198500
vn -0.406200 -0.875500 -0.261800
vn -0.162600 -0.900900 -0.402400
vn -0.272500 -0.873900 -0.402400
vn -0.292900 -0.888200 -0.354000
vn -0.188000 -0.923600 -0.334200
vn -0.055300 -0.949300 -0.309400
vn -0.039900 -0.920500 -0.388600
vn -0.032100 -0.903700 -0.426900
vn -0.167200 -0.886500 -0.431400
vn -0.295600 -0.864800 -0.405800
vn 0.082600 -0.927500 -0.364400
vn 0.081000 -0.952800 -0.292500
vn 0.192100 -0.940900 -0.278900
vn 0.190500 -0.924300 -0.330700
vn 0.214900 -0.920300 -0.326700
vn 0.098600 -0.915400 -0.390300
vn 0.097200 -0.973700 -0.205900
vn -0.071800 -0.973000 -0.219300
vn 0.220400 -0.952800 -0.208700
vn -0.233300 -0.937800 -0.257100
vn -0.342800 -0.891500 -0.296000
vn -0.199100 -0.879500 -0.432200
vn -0.352700 -0.857200 -0.375200
vn -0.030700 -0.900400 -0.433800
vn -0.040500 -0.921800 -0.385600
vn -0.281700 -0.884500 -0.371900
vn -0.386900 -0.852800 -0.350500
vn 0.130000 -0.915300 -0.381200
vn 0.260600 -0.923900 -0.280200
vn 0.285900 -0.926000 -0.246300
vn 0.187700 -0.935500 -0.299100
vn -0.952000 0.127400 0.278200
vn -0.779800 -0.014900 0.625800
vn -0.979200 0.157600 0.127600
vn -0.386900 -0.852800 -0.350500
vn 0.054900 -0.397300 0.916000
vn 0.535100 -0.158100 0.829800
vn -0.185900 -0.523900 0.831200
vn 0.285900 -0.926000 -0.246300
vn 0.955400 0.263300 -0.133600
vn 0.853800 0.278400 -0.439900
vn 0.978200 0.196800 0.065500
vn 0.363500 -0.920000 -0.146500
vn -0.336100 0.200500 -0.920200
vn -0.604600 0.436900 -0.666000
vn 0.153500 0.003300 -0.988100
vn -0.487700 -0.827400 -0.278300
vn -0.794100 0.453400 -0.404600
vn -0.888800 0.399900 -0.223900
vn -0.409000 -0.346700 0.844100
vn 0.829700 -0.066200 0.554200
vn 0.906400 -0.047500 0.419700
vn 0.630300 0.095500 -0.770400
vn 0.974000 0.120100 0.191800
vn 0.964900 0.061500 0.255300
vn -0.938800 0.328100 -0.104500
vn -0.961700 0.270700 -0.042700
vn -0.977100 0.211800 0.018200
vn 0.948600 0.002400 0.316300
vt 0.839504 0.118056
vt 0.856743 0.205307
vt 0.741230 0.205307
vt 0.734555 0.106726
vt 0.724541 0.032791
vt 0.813647 0.052618
vt 0.868992 0.081539
vt 0.913398 0.129584
vt 0.940923 0.205307
vt 0.839504 0.292557
vt 0.813647 0.357995
vt 0.724541 0.377822
vt 0.734555 0.303887
vt 0.913398 0.281029
vt 0.868992 0.329074
vt 0.369475 0.299954
vt 0.368286 0.370940
vt 0.245840 0.351447
vt 0.246397 0.288815
vt 0.246768 0.205307
vt 0.370268 0.205307
vt 0.494283 0.205307
vt 0.492822 0.304944
vt 0.490632 0.379672
vt 0.369475 0.110659
vt 0.246397 0.121798
vt 0.245841 0.059166
vt 0.368286 0.039673
vt 0.490632 0.030941
vt 0.492822 0.105669
vt 0.616755 0.103478
vt 0.619174 0.205307
vt 0.613127 0.027106
vt 0.616755 0.307135
vt 0.613126 0.383507
vt 0.123273 0.268175
vt 0.123047 0.315326
vt 0.054743 0.283353
vt 0.030912 0.249131
vt 0.030973 0.205306
vt 0.123423 0.205306
vt 0.123273 0.142438
vt 0.030912 0.161481
vt 0.054744 0.127260
vt 0.123047 0.095287
vt 0.839504 0.118056
vt 0.856743 0.205307
vt 0.968983 0.205307
vt 0.938030 0.133427
vt 0.876123 0.061548
vt 0.805028 0.030806
vt 0.721203 0.008146
vt 0.734555 0.106726
vt 0.741230 0.205307
vt 0.839504 0.292557
vt 0.805028 0.379807
vt 0.876123 0.349065
vt 0.938030 0.277186
vt 0.734555 0.303887
vt 0.721203 0.402467
vt 0.369475 0.299954
vt 0.367890 0.394602
vt 0.489902 0.404581
vt 0.492822 0.304944
vt 0.494283 0.205307
vt 0.370268 0.205307
vt 0.246768 0.205307
vt 0.246397 0.288815
vt 0.245655 0.372324
vt 0.369475 0.110659
vt 0.492822 0.105669
vt 0.489902 0.006032
vt 0.367890 0.016011
vt 0.245655 0.038289
vt 0.246397 0.121798
vt 0.616755 0.103478
vt 0.619174 0.205307
vt 0.611917 0.001649
vt 0.616755 0.307135
vt 0.611917 0.408964
vt 0.123273 0.268175
vt 0.122972 0.331043
vt 0.123423 0.205306
vt 0.000156 0.205306
vt 0.000125 0.242784
vt 0.000064 0.280261
vt 0.123273 0.142438
vt 0.122972 0.079570
vt 0.000064 0.130352
vt 0.000125 0.167829
vt 0.122972 0.331043
vt 0.030806 0.283587
vt 0.245655 0.372324
vt 0.030806 0.283587
vt 0.000125 0.167829
vt 0.030806 0.127026
vt 0.000156 0.205306
vt 0.030806 0.127026
vt 0.805028 0.030806
vt 0.873826 0.071832
vt 0.721203 0.008146
vt 0.873826 0.071832
vt 0.938030 0.277186
vt 0.873826 0.338781
vt 0.968983 0.205307
vt 0.873826 0.338781
vt 0.805028 0.379807
vt 0.721203 0.402467
vt 0.000125 0.242784
vt 0.122972 0.079570
vt 0.245655 0.038289
vt 0.938030 0.133427
vt 0.611917 0.001649
vt 0.489902 0.006032
vt 0.611917 0.408964
vt 0.489902 0.404581
vt 0.367890 0.394602
vt 0.367890 0.016011
f 1/1/1 2/2/2 3/3/3
f 1/1/1 3/3/3 4/4/4
f 1/1/1 4/4/4 5/5/5
f 1/1/1 5/5/5 6/6/6
f 1/1/1 6/6/6 7/7/7
f 1/1/1 7/7/7 8/8/8
f 1/1/1 8/8/8 9/9/9
f 1/1/1 9/9/9 2/2/2
f 10/10/10 11/11/11 12/12/12
f 10/10/10 12/12/12 13/13/13
f 10/10/10 13/13/13 3/3/3
f 10/10/10 3/3/3 2/2/2
f 10/10/10 2/2/2 9/9/9
f 10/10/10 9/9/9 14/14/14
f 10/10/10 14/14/14 15/15/15
f 10/10/10 15/15/15 11/11/11
f 16/16/16 17/17/17 18/18/18
f 16/16/16 18/18/18 19/19/19
f 16/16/16 19/19/19 20/20/20
f 16/16/16 20/20/20 21/21/21
f 16/16/16 21/21/21 22/22/22
f 16/16/16 22/22/22 23/23/23
f 16/16/16 23/23/23 24/24/24
f 16/16/16 24/24/24 17/17/17
f 25/25/25 21/21/21 20/20/20
f 25/25/25 20/20/20 26/26/26
f 25/25/25 26/26/26 27/27/27
f 25/25/25 27/27/27 28/28/28
f 25/25/25 28/28/28 29/29/29
f 25/25/25 29/29/29 30/30/30
f 25/25/25 30/30/30 22/22/22
f 25/25/25 22/22/22 21/21/21
f 31/31/31 32/32/32 22/22/22
f 31/31/31 22/22/22 30/30/30
f 31/31/31 30/30/30 29/29/29
f 31/31/31 29/29/29 33/33/33
f 31/31/31 33/33/33 5/5/5
f 31/31/31 5/5/5 4/4/4
f 31/31/31 4/4/4 3/3/3
f 31/31/31 3/3/3 32/32/32
f 34/34/34 35/35/35 24/24/24
f 34/34/34 24/24/24 23/23/23
f 34/34/34 23/23/23 22/22/22
f 34/34/34 22/22/22 32/32/32
f 34/34/34 32/32/32 3/3/3
f 34/34/34 3/3/3 13/13/13
f 34/34/34 13/13/13 12/12/12
f 34/34/34 12/12/12 35/35/35
f 36/36/36 37/37/37 38/38/38
f 36/36/36 38/38/38 39/39/39
f 36/36/36 39/39/39 40/40/40
f 36/36/36 40/40/40 41/41/41
f 36/36/36 41/41/41 20/20/20
f 36/36/36 20/20/20 19/19/19
f 36/36/36 19/19/19 18/18/18
f 36/36/36 18/18/18 37/37/37
f 42/42/42 41/41/41 40/40/40
f 42/42/42 40/40/40 43/43/43
f 42/42/42 43/43/43 44/44/44
f 42/42/42 44/44/44 45/45/45
f 42/42/42 45/45/45 27/27/27
f 42/42/42 27/27/27 26/26/26
f 42/42/42 26/26/26 20/20/20
f 42/42/42 20/20/20 41/41/41
f 46/46/46 47/47/47 48/48/48
f 46/46/46 48/48/48 49/49/49
f 46/46/46 49/49/49 50/50/50
f 46/46/46 50/50/50 51/51/51
f 46/46/46 51/51/51 52/52/52
f 46/46/46 52/52/52 53/53/53
f 46/46/46 53/53/53 54/54/54
f 46/46/46 54/54/54 47/47/47
f 55/55/55 56/56/56 57/57/57
f 55/55/55 57/57/57 58/58/58
f 55/55/55 58/58/58 48/48/48
f 55/55/55 48/48/48 47/47/47
f 55/55/55 47/47/47 54/54/54
f 55/55/55 54/54/54 59/59/59
f 55/55/55 59/59/59 60/60/60
f 55/55/55 60/60/60 56/56/56
f 61/61/61 62/62/62 63/63/63
f 61/61/61 63/63/63 64/64/64
f 61/61/61 64/64/64 65/65/65
f 61/61/61 65/65/65 66/66/66
f 61/61/61 66/66/66 67/67/67
f 61/61/61 67/67/67 68/68/68
f 61/61/61 68/68/68 69/69/69
f 61/61/61 69/69/69 62/62/62
f 70/70/70 66/66/66 65/65/65
f 70/70/70 65/65/65 71/71/71
f 70/70/70 71/71/71 72/72/72
f 70/70/70 72/72/72 73/73/73
f 70/70/70 73/73/73 74/74/74
f 70/70/70 74/74/74 75/75/75
f 70/70/70 75/75/75 67/67/67
f 70/70/70 67/67/67 66/66/66
f 76/76/76 77/77/77 54/54/54
f 76/76/76 54/54/54 53/53/53
f 76/76/76 53/53/53 52/52/52
f 76/76/76 52/52/52 78/78/78
f 76/76/76 78/78/78 72/72/72
f 76/76/76 72/72/72 71/71/71
f 76/76/76 71/71/71 65/65/65
f 76/76/76 65/65/65 77/77/77
f 79/79/79 80/80/80 60/60/60
f 79/79/79 60/60/60 59/59/59
f 79/79/79 59/59/59 54/54/54
f 79/79/79 54/54/54 77/77/77
f 79/79/79 77/77/77 65/65/65
f 79/79/79 65/65/65 64/64/64
f 79/79/79 64/64/64 63/63/63
f 79/79/79 63/63/63 80/80/80
f 81/81/81 82/82/82 69/69/69
f 81/81/81 69/69/69 68/68/68
f 81/81/81 68/68/68 67/67/67
f 81/81/81 67/67/67 83/83/83
f 81/81/81 83/83/83 84/84/84
f 81/81/81 84/84/84 85/85/85
f 81/81/81 85/85/85 86/86/86
f 81/81/81 86/86/86 82/82/82
f 87/87/87 83/83/83 67/67/67
f 87/87/87 67/67/67 75/75/75
f 87/87/87 75/75/75 74/74/74
f 87/87/87 74/74/74 88/88/88
f 87/87/87 88/88/88 89/89/89
f 87/87/87 89/89/89 90/90/90
f 87/87/87 90/90/90 84/84/84
f 87/87/87 84/84/84 83/83/83
f 91/91/91 92/92/92 38/38/38
f 91/91/91 38/38/38 37/37/37
f 91/91/91 37/37/37 18/18/18
f 91/91/91 18/18/18 93/93/93
f 91/91/91 93/93/93 69/69/69
f 91/91/91 69/69/69 82/82/82
f 91/91/91 82/82/82 94/94/94
f 91/91/91 94/94/94 92/92/92
f 95/95/95 96/96/96 44/44/44
f 95/95/95 44/44/44 43/43/43
f 95/95/95 43/43/43 40/40/40
f 95/95/95 40/40/40 97/97/97
f 95/95/95 97/97/97 84/84/84
f 95/95/95 84/84/84 90/90/90
f 95/95/95 90/90/90 98/98/98
f 95/95/95 98/98/98 96/96/96
f 99/99/99 100/100/100 7/7/7
f 99/99/99 7/7/7 6/6/6
f 99/99/99 6/6/6 5/5/5
f 99/99/99 5/5/5 101/101/101
f 99/99/99 101/101/101 52/52/52
f 99/99/99 52/52/52 51/51/51
f 99/99/99 51/51/51 102/102/102
f 99/99/99 102/102/102 100/100/100
f 103/103/103 104/104/104 15/15/15
f 103/103/103 15/15/15 14/14/14
f 103/103/103 14/14/14 9/9/9
f 103/103/103 9/9/9 105/105/105
f 103/103/103 105/105/105 48/48/48
f 103/103/103 48/48/48 58/58/58
f 103/103/103 58/58/58 106/106/106
f 103/103/103 106/106/106 104/104/104
f 107/107/107 108/108/108 12/12/12
f 107/107/107 12/12/12 11/11/11
f 107/107/107 11/11/11 15/15/15
f 107/107/107 15/15/15 104/104/104
f 107/107/107 104/104/104 106/106/106
f 107/107/107 106/106/106 56/56/56
f 107/107/107 56/56/56 60/60/60
f 107/107/107 60/60/60 108/108/108
f 109/109/109 97/97/97 40/40/40
f 109/109/109 40/40/40 39/39/39
f 109/109/109 39/39/39 38/38/38
f 109/109/109 38/38/38 92/92/92
f 109/109/109 92/92/92 94/94/94
f 109/109/109 94/94/94 85/85/85
f 109/109/109 85/85/85 84/84/84
f 109/109/109 84/84/84 97/97/97
f 110/110/110 111/111/111 27/27/27
f 110/110/110 27/27/27 45/45/45
f 110/110/110 45/45/45 44/44/44
f 110/110/110 44/44/44 96/96/96
f 110/110/110 96/96/96 98/98/98
f 110/110/110 98/98/98 88/88/88
f 110/110/110 88/88/88 74/74/74
f 110/110/110 74/74/74 111/111/111
f 112/112/112 105/105/105 9/9/9
f 112/112/112 9/9/9 8/8/8
f 112/112/112 8/8/8 7/7/7
f 112/112/112 7/7/7 100/100/100
f 112/112/112 100/100/100 102/102/102
f 112/112/112 102/102/102 49/49/49
f 112/112/112 49/49/49 48/48/48
f 112/112/112 48/48/48 105/105/105
f 113/113/113 101/101/101 5/5/5
f 113/113/113 5/5/5 33/33/33
f 113/113/113 33/33/33 29/29/29
f 113/113/113 29/29/29 114/114/114
f 113/113/113 114/114/114 72/72/72
f 113/113/113 72/72/72 78/78/78
f 113/113/113 78/78/78 52/52/52
f 113/113/113 52/52/52 101/101/101
f 115/115/115 116/116/116 24/24/24
f 115/115/115 24/24/24 35/35/35
f 115/115/115 35/35/35 12/12/12
f 115/115/115 12/12/12 108/108/108
f 115/115/115 108/108/108 60/60/60
f 115/115/115 60/60/60 80/80/80
f 115/115/115 80/80/80 63/63/63
f 115/115/115 63/63/63 116/116/116
f 117/117/117 93/93/93 18/18/18
f 117/117/117 18/18/18 17/17/17
f 117/117/117 17/17/17 24/24/24
f 117/117/117 24/24/24 116/116/116
f 117/117/117 116/116/116 63/63/63
f 117/117/117 63/63/63 62/62/62
f 117/117/117 62/62/62 69/69/69
f 117/117/117 69/69/69 93/93/93
f 118/118/118 114/114/114 29/29/29
f 118/118/118 29/29/29 28/28/28
f 118/118/118 28/28/28 27/27/27
f 118/118/118 27/27/27 111/111/111
f 118/118/118 111/111/111 74/74/74
f 118/118/118 74/74/74 73/73/73
f 118/118/118 73/73/73 72/72/72
f 118/118/118 72/72/72 114/114/114
