v -2.450568 0.746242 -1.121578
v -2.452462 0.745972 -1.120631
v -2.450665 0.745362 -1.118515
v -2.448718 0.745677 -1.119836
v -2.447144 0.746086 -1.120696
v -2.448910 0.746586 -1.122013
v -2.450334 0.746666 -1.122633
v -2.451952 0.746529 -1.122782
v -2.453791 0.746323 -1.122198
v -2.453728 0.746149 -1.118920
v -2.454451 0.746423 -1.117352
v -2.453438 0.745901 -1.115401
v -2.452309 0.745572 -1.116815
v -2.454687 0.746449 -1.120481
v -2.454821 0.746534 -1.118858
v -2.446921 0.742170 -1.110603
v -2.448166 0.742324 -1.109390
v -2.446125 0.740740 -1.107742
v -2.445029 0.740594 -1.108822
v -2.443529 0.740503 -1.110201
v -2.445219 0.742077 -1.112156
v -2.446966 0.743460 -1.114184
v -2.448741 0.743577 -1.112553
v -2.450035 0.743768 -1.111273
v -2.443403 0.742273 -1.113563
v -2.441918 0.740685 -1.111440
v -2.440672 0.740900 -1.112329
v -2.442002 0.742504 -1.114577
v -2.443586 0.743957 -1.116698
v -2.445061 0.743685 -1.115649
v -2.446857 0.744823 -1.117800
v -2.448807 0.744540 -1.116335
v -2.445335 0.745180 -1.118831
v -2.450592 0.744713 -1.114658
v -2.451879 0.744989 -1.113325
v -2.442962 0.738953 -1.107223
v -2.443763 0.739104 -1.106394
v -2.442262 0.738114 -1.105872
v -2.441356 0.737675 -1.106102
v -2.440615 0.737565 -1.106841
v -2.441855 0.738854 -1.108270
v -2.440639 0.739021 -1.109177
v -2.439765 0.737721 -1.107441
v -2.439399 0.738197 -1.108280
v -2.439692 0.739223 -1.109820
v -2.450577 0.746028 -1.121644
v -2.452495 0.745756 -1.120676
v -2.453814 0.746160 -1.122230
v -2.451956 0.746369 -1.122830
v -2.450332 0.746548 -1.122673
v -2.448905 0.746428 -1.122072
v -2.447145 0.745929 -1.120757
v -2.448735 0.745466 -1.119906
v -2.450703 0.745148 -1.118568
v -2.453784 0.745935 -1.118946
v -2.454504 0.746264 -1.117361
v -2.454857 0.746416 -1.118866
v -2.454728 0.746288 -1.120497
v -2.452368 0.745360 -1.116850
v -2.453493 0.745743 -1.115418
v -2.447000 0.741972 -1.110673
v -2.448233 0.742175 -1.109436
v -2.450097 0.743616 -1.111311
v -2.448813 0.743374 -1.112613
v -2.447022 0.743257 -1.114258
v -2.445283 0.741878 -1.112239
v -2.443598 0.740309 -1.110290
v -2.445113 0.740400 -1.108898
v -2.446195 0.740595 -1.107792
v -2.443451 0.742075 -1.113658
v -2.445101 0.743483 -1.115736
v -2.443608 0.743806 -1.116770
v -2.442030 0.742357 -1.114654
v -2.440705 0.740756 -1.112411
v -2.441971 0.740492 -1.111541
v -2.446886 0.744615 -1.117878
v -2.448853 0.744331 -1.116398
v -2.445347 0.745026 -1.118897
v -2.450657 0.744505 -1.114706
v -2.451937 0.744833 -1.113353
v -2.443048 0.738761 -1.107300
v -2.443836 0.738960 -1.106444
v -2.441926 0.738661 -1.108361
v -2.440669 0.737421 -1.106909
v -2.441422 0.737531 -1.106159
v -2.442314 0.738007 -1.105911
v -2.440694 0.738830 -1.109281
v -2.439724 0.739081 -1.109904
v -2.439425 0.738092 -1.108341
v -2.439806 0.737578 -1.107520
v -2.444065 0.739090 -1.106138
v -2.441940 0.737784 -1.105494
v -2.446523 0.740725 -1.107403
v -2.442314 0.738007 -1.105911
v -2.439492 0.737224 -1.106897
v -2.439071 0.737868 -1.107907
v -2.440226 0.737071 -1.106395
v -2.439425 0.738092 -1.108341
v -2.448352 0.746631 -1.122186
v -2.450222 0.746740 -1.122871
v -2.446617 0.746153 -1.121011
v -2.450332 0.746548 -1.122673
v -2.455025 0.746477 -1.121008
v -2.455077 0.746598 -1.118787
v -2.454244 0.746367 -1.122734
v -2.454857 0.746416 -1.118866
v -2.454718 0.746445 -1.116831
v -2.453841 0.745941 -1.114935
v -2.440851 0.737185 -1.105754
v -2.439388 0.739227 -1.110073
v -2.440270 0.740908 -1.112664
v -2.452415 0.746553 -1.123204
v -2.444830 0.745231 -1.119206
v -2.443103 0.743981 -1.117081
v -2.452336 0.745011 -1.112892
v -2.450496 0.743764 -1.110862
v -2.448612 0.742309 -1.109005
v -2.441545 0.742516 -1.114950
vn -0.045100 0.947800 0.315800
vn 0.109900 0.980200 0.164700
vn 0.147700 0.966600 0.209200
vn 0.010700 0.938100 0.346100
vn 0.033700 0.932800 0.358800
vn -0.038600 0.949500 0.311300
vn -0.089100 0.957100 0.275600
vn -0.072900 0.972300 0.221900
vn 0.050100 0.994300 0.094200
vn 0.286100 0.957500 0.037000
vn 0.280500 0.958900 0.042700
vn 0.315600 0.941000 0.121600
vn 0.306900 0.946800 0.097000
vn 0.197600 0.980300 -0.005700
vn 0.253700 0.967200 -0.012900
vn 0.381800 0.868800 0.315200
vn 0.359400 0.866700 0.345800
vn 0.375300 0.850300 0.368800
vn 0.406400 0.851400 0.331500
vn 0.324900 0.849400 0.415800
vn 0.300900 0.871100 0.388000
vn 0.251100 0.909900 0.330200
vn 0.347200 0.902500 0.254700
vn 0.337500 0.897100 0.285100
vn 0.215500 0.863900 0.455100
vn 0.227900 0.846200 0.481600
vn 0.270100 0.847300 0.457400
vn 0.249600 0.863500 0.438200
vn 0.192400 0.892800 0.407100
vn 0.160600 0.897100 0.411600
vn 0.083900 0.924900 0.370700
vn 0.194100 0.944900 0.263600
vn 0.113200 0.918200 0.379500
vn 0.319100 0.931800 0.172900
vn 0.322900 0.924400 0.203000
vn 0.432700 0.841700 0.322900
vn 0.402500 0.839000 0.366100
vn 0.434900 0.827500 0.354900
vn 0.479100 0.807900 0.343200
vn 0.366600 0.806500 0.463800
vn 0.336000 0.838600 0.428600
vn 0.215300 0.835300 0.505800
vn 0.228500 0.800500 0.554000
vn 0.246800 0.822100 0.513000
vn 0.263000 0.835000 0.483400
vn 0.051900 -0.935500 -0.349600
vn -0.120300 -0.976800 -0.177000
vn -0.160400 -0.961200 -0.224100
vn 0.074500 -0.891800 -0.446200
vn 0.147000 -0.836800 -0.527300
vn 0.134800 -0.850800 -0.507900
vn 0.079900 -0.877900 -0.472200
vn 0.000200 -0.934400 -0.356300
vn -0.147600 -0.966700 -0.209100
vn -0.321000 -0.946400 -0.035800
vn -0.493900 -0.869300 0.021000
vn -0.515500 -0.856300 0.030200
vn -0.421500 -0.906300 -0.028800
vn -0.318900 -0.943700 -0.087900
vn -0.448700 -0.893300 -0.027600
vn -0.392800 -0.868100 -0.303300
vn -0.465900 -0.857700 -0.217600
vn -0.442700 -0.879700 -0.173500
vn -0.357900 -0.901200 -0.244100
vn -0.251200 -0.909800 -0.330300
vn -0.301100 -0.871000 -0.388200
vn -0.325000 -0.849300 -0.415900
vn -0.418000 -0.851600 -0.316300
vn -0.483800 -0.851700 -0.201100
vn -0.201900 -0.862500 -0.463900
vn -0.148500 -0.895100 -0.420300
vn -0.065200 -0.868600 -0.491200
vn -0.105400 -0.847100 -0.520900
vn -0.086300 -0.840100 -0.535500
vn -0.210900 -0.845600 -0.490400
vn -0.072400 -0.922300 -0.379500
vn -0.194100 -0.944900 -0.263600
vn 0.006400 -0.883400 -0.468500
vn -0.329800 -0.929900 -0.163100
vn -0.432100 -0.896300 -0.099500
vn -0.439700 -0.849300 -0.292000
vn -0.498800 -0.855700 -0.137700
vn -0.329300 -0.845200 -0.420900
vn -0.299200 -0.872600 -0.386100
vn -0.448700 -0.872600 -0.192700
vn -0.502800 -0.859100 -0.095700
vn -0.183400 -0.841900 -0.507500
vn -0.021200 -0.841700 -0.539500
vn 0.021000 -0.843700 -0.536400
vn -0.083400 -0.861800 -0.500300
vn -0.421900 -0.042500 0.905600
vn -0.044700 -0.193700 0.980000
vn -0.553900 -0.000900 0.832600
vn -0.502800 -0.859100 -0.095700
vn 0.732100 -0.478000 0.485300
vn 0.979500 -0.163400 0.118000
vn 0.511400 -0.629000 0.585500
vn 0.021000 -0.843700 -0.536400
vn 0.525500 0.412300 -0.744200
vn 0.228200 0.444100 -0.866400
vn 0.691200 0.329700 -0.643000
vn 0.147000 -0.836800 -0.527300
vn -0.916500 0.244000 -0.316900
vn -0.907400 0.410700 0.088800
vn -0.640600 0.128500 -0.757000
vn -0.515500 -0.856300 0.030200
vn -0.836600 0.372400 0.401600
vn -0.762600 0.287300 0.579600
vn 0.370000 -0.488600 0.790100
vn 0.965200 -0.001800 -0.261500
vn 0.914400 0.041900 -0.402500
vn -0.164100 0.266200 -0.949900
vn 0.784800 0.240500 -0.571200
vn 0.827800 0.174500 -0.533100
vn -0.704500 0.196800 0.681900
vn -0.671800 0.130300 0.729100
vn -0.635500 0.064000 0.769400
vn 0.863800 0.107900 -0.492100
vt 0.839504 0.118056
vt 0.856743 0.205307
vt 0.741230 0.205307
vt 0.734555 0.106726
vt 0.724541 0.032791
vt 0.813647 0.052618
vt 0.868992 0.081539
vt 0.913398 0.129584
vt 0.940923 0.205307
vt 0.839504 0.292557
vt 0.813647 0.357995
vt 0.724541 0.377822
vt 0.734555 0.303887
vt 0.913398 0.281029
vt 0.868992 0.329074
vt 0.369475 0.299954
vt 0.368286 0.370940
vt 0.245840 0.351447
vt 0.246397 0.288815
vt 0.246768 0.205307
vt 0.370268 0.205307
vt 0.494283 0.205307
vt 0.492822 0.304944
vt 0.490632 0.379672
vt 0.369475 0.110659
vt 0.246397 0.121798
vt 0.245841 0.059166
vt 0.368286 0.039673
vt 0.490632 0.030941
vt 0.492822 0.105669
vt 0.616755 0.103478
vt 0.619174 0.205307
vt 0.613127 0.027106
vt 0.616755 0.307135
vt 0.613126 0.383507
vt 0.123273 0.268175
vt 0.123047 0.315326
vt 0.054743 0.283353
vt 0.030912 0.249131
vt 0.030973 0.205306
vt 0.123423 0.205306
vt 0.123273 0.142438
vt 0.030912 0.161481
vt 0.054744 0.127260
vt 0.123047 0.095287
vt 0.839504 0.118056
vt 0.856743 0.205307
vt 0.968983 0.205307
vt 0.938030 0.133427
vt 0.876123 0.061548
vt 0.805028 0.030806
vt 0.721203 0.008146
vt 0.734555 0.106726
vt 0.741230 0.205307
vt 0.839504 0.292557
vt 0.805028 0.379807
vt 0.876123 0.349065
vt 0.938030 0.277186
vt 0.734555 0.303887
vt 0.721203 0.402467
vt 0.369475 0.299954
vt 0.367890 0.394602
vt 0.489902 0.404581
vt 0.492822 0.304944
vt 0.494283 0.205307
vt 0.370268 0.205307
vt 0.246768 0.205307
vt 0.246397 0.288815
vt 0.245655 0.372324
vt 0.369475 0.110659
vt 0.492822 0.105669
vt 0.489902 0.006032
vt 0.367890 0.016011
vt 0.245655 0.038289
vt 0.246397 0.121798
vt 0.616755 0.103478
vt 0.619174 0.205307
vt 0.611917 0.001649
vt 0.616755 0.307135
vt 0.611917 0.408964
vt 0.123273 0.268175
vt 0.122972 0.331043
vt 0.123423 0.205306
vt 0.000156 0.205306
vt 0.000125 0.242784
vt 0.000064 0.280261
vt 0.123273 0.142438
vt 0.122972 0.079570
vt 0.000064 0.130352
vt 0.000125 0.167829
vt 0.122972 0.331043
vt 0.030806 0.283587
vt 0.245655 0.372324
vt 0.030806 0.283587
vt 0.000125 0.167829
vt 0.030806 0.127026
vt 0.000156 0.205306
vt 0.030806 0.127026
vt 0.805028 0.030806
vt 0.873826 0.071832
vt 0.721203 0.008146
vt 0.873826 0.071832
vt 0.938030 0.277186
vt 0.873826 0.338781
vt 0.968983 0.205307
vt 0.873826 0.338781
vt 0.805028 0.379807
vt 0.721203 0.402467
vt 0.000125 0.242784
vt 0.122972 0.079570
vt 0.245655 0.038289
vt 0.938030 0.133427
vt 0.611917 0.001649
vt 0.489902 0.006032
vt 0.611917 0.408964
vt 0.489902 0.404581
vt 0.367890 0.394602
vt 0.367890 0.016011
f 1/1/1 2/2/2 3/3/3
f 1/1/1 3/3/3 4/4/4
f 1/1/1 4/4/4 5/5/5
f 1/1/1 5/5/5 6/6/6
f 1/1/1 6/6/6 7/7/7
f 1/1/1 7/7/7 8/8/8
f 1/1/1 8/8/8 9/9/9
f 1/1/1 9/9/9 2/2/2
f 10/10/10 11/11/11 12/12/12
f 10/10/10 12/12/12 13/13/13
f 10/10/10 13/13/13 3/3/3
f 10/10/10 3/3/3 2/2/2
f 10/10/10 2/2/2 9/9/9
f 10/10/10 9/9/9 14/14/14
f 10/10/10 14/14/14 15/15/15
f 10/10/10 15/15/15 11/11/11
f 16/16/16 17/17/17 18/18/18
f 16/16/16 18/18/18 19/19/19
f 16/16/16 19/19/19 20/20/20
f 16/16/16 20/20/20 21/21/21
f 16/16/16 21/21/21 22/22/22
f 16/16/16 22/22/22 23/23/23
f 16/16/16 23/23/23 24/24/24
f 16/16/16 24/24/24 17/17/17
f 25/25/25 21/21/21 20/20/20
f 25/25/25 20/20/20 26/26/26
f 25/25/25 26/26/26 27/27/27
f 25/25/25 27/27/27 28/28/28
f 25/25/25 28/28/28 29/29/29
f 25/25/25 29/29/29 30/30/30
f 25/25/25 30/30/30 22/22/22
f 25/25/25 22/22/22 21/21/21
f 31/31/31 32/32/32 22/22/22
f 31/31/31 22/22/22 30/30/30
f 31/31/31 30/30/30 29/29/29
f 31/31/31 29/29/29 33/33/33
f 31/31/31 33/33/33 5/5/5
f 31/31/31 5/5/5 4/4/4
f 31/31/31 4/4/4 3/3/3
f 31/31/31 3/3/3 32/32/32
f 34/34/34 35/35/35 24/24/24
f 34/34/34 24/24/24 23/23/23
f 34/34/34 23/23/23 22/22/22
f 34/34/34 22/22/22 32/32/32
f 34/34/34 32/32/32 3/3/3
f 34/34/34 3/3/3 13/13/13
f 34/34/34 13/13/13 12/12/12
f 34/34/34 12/12/12 35/35/35
f 36/36/36 37/37/37 38/38/38
f 36/36/36 38/38/38 39/39/39
f 36/36/36 39/39/39 40/40/40
f 36/36/36 40/40/40 41/41/41
f 36/36/36 41/41/41 20/20/20
f 36/36/36 20/20/20 19/19/19
f 36/36/36 19/19/19 18/18/18
f 36/36/36 18/18/18 37/37/37
f 42/42/42 41/41/41 40/40/40
f 42/42/42 40/40/40 43/43/43
f 42/42/42 43/43/43 44/44/44
f 42/42/42 44/44/44 45/45/45
f 42/42/42 45/45/45 27/27/27
f 42/42/42 27/27/27 26/26/26
f 42/42/42 26/26/26 20/20/20
f 42/42/42 20/20/20 41/41/41
f 46/46/46 47/47/47 48/48/48
f 46/46/46 48/48/48 49/49/49
f 46/46/46 49/49/49 50/50/50
f 46/46/46 50/50/50 51/51/51
f 46/46/46 51/51/51 52/52/52
f 46/46/46 52/52/52 53/53/53
f 46/46/46 53/53/53 54/54/54
f 46/46/46 54/54/54 47/47/47
f 55/55/55 56/56/56 57/57/57
f 55/55/55 57/57/57 58/58/58
f 55/55/55 58/58/58 48/48/48
f 55/55/55 48/48/48 47/47/47
f 55/55/55 47/47/47 54/54/54
f 55/55/55 54/54/54 59/59/59
f 55/55/55 59/59/59 60/60/60
f 55/55/55 60/60/60 56/56/56
f 61/61/61 62/62/62 63/63/63
f 61/61/61 63/63/63 64/64/64
f 61/61/61 64/64/64 65/65/65
f 61/61/61 65/65/65 66/66/66
f 61/61/61 66/66/66 67/67/67
f 61/61/61 67/67/67 68/68/68
f 61/61/61 68/68/68 69/69/69
f 61/61/61 69/69/69 62/62/62
f 70/70/70 66/66/66 65/65/65
f 70/70/70 65/65/65 71/71/71
f 70/70/70 71/71/71 72/72/72
f 70/70/70 72/72/72 73/73/73
f 70/70/70 73/73/73 74/74/74
f 70/70/70 74/74/74 75/75/75
f 70/70/70 75/75/75 67/67/67
f 70/70/70 67/67/67 66/66/66
f 76/76/76 77/77/77 54/54/54
f 76/76/76 54/54/54 53/53/53
f 76/76/76 53/53/53 52/52/52
f 76/76/76 52/52/52 78/78/78
f 76/76/76 78/78/78 72/72/72
f 76/76/76 72/72/72 71/71/71
f 76/76/76 71/71/71 65/65/65
f 76/76/76 65/65/65 77/77/77
f 79/79/79 80/80/80 60/60/60
f 79/79/79 60/60/60 59/59/59
f 79/79/79 59/59/59 54/54/54
f 79/79/79 54/54/54 77/77/77
f 79/79/79 77/77/77 65/65/65
f 79/79/79 65/65/65 64/64/64
f 79/79/79 64/64/64 63/63/63
f 79/79/79 63/63/63 80/80/80
f 81/81/81 82/82/82 69/69/69
f 81/81/81 69/69/69 68/68/68
f 81/81/81 68/68/68 67/67/67
f 81/81/81 67/67/67 83/83/83
f 81/81/81 83/83/83 84/84/84
f 81/81/81 84/84/84 85/85/85
f 81/81/81 85/85/85 86/86/86
f 81/81/81 86/86/86 82/82/82
f 87/87/87 83/83/83 67/67/67
f 87/87/87 67/67/67 75/75/75
f 87/87/87 75/75/75 74/74/74
f 87/87/87 74/74/74 88/88/88
f 87/87/87 88/88/88 89/89/89
f 87/87/87 89/89/89 90/90/90
f 87/87/87 90/90/90 84/84/84
f 87/87/87 84/84/84 83/83/83
f 91/91/91 92/92/92 38/38/38
f 91/91/91 38/38/38 37/37/37
f 91/91/91 37/37/37 18/18/18
f 91/91/91 18/18/18 93/93/93
f 91/91/91 93/93/93 69/69/69
f 91/91/91 69/69/69 82/82/82
f 91/91/91 82/82/82 94/94/94
f 91/91/91 94/94/94 92/92/92
f 95/95/95 96/96/96 44/44/44
f 95/95/95 44/44/44 43/43/43
f 95/95/95 43/43/43 40/40/40
f 95/95/95 40/40/40 97/97/97
f 95/95/95 97/97/97 84/84/84
f 95/95/95 84/84/84 90/90/90
f 95/95/95 90/90/90 98/98/98
f 95/95/95 98/98/98 96/96/96
f 99/99/99 100/100/100 7/7/7
f 99/99/99 7/7/7 6/6/6
f 99/99/99 6/6/6 5/5/5
f 99/99/99 5/5/5 101/101/101
f 99/99/99 101/101/101 52/52/52
f 99/99/99 52/52/52 51/51/51
f 99/99/99 51/51/51 102/102/102
f 99/99/99 102/102/102 100/100/100
f 103/103/103 104/104/104 15/15/15
f 103/103/103 15/15/15 14/14/14
f 103/103/103 14/14/14 9/9/9
f 103/103/103 9/9/9 105/105/105
f 103/103/103 105/105/105 48/48/48
f 103/103/103 48/48/48 58/58/58
f 103/103/103 58/58/58 106/106/106
f 103/103/103 106/106/106 104/104/104
f 107/107/107 108/108/108 12/12/12
f 107/107/107 12/12/12 11/11/11
f 107/107/107 11/11/11 15/15/15
f 107/107/107 15/15/15 104/104/104
f 107/107/107 104/104/104 106/106/106
f 107/107/107 106/106/106 56/56/56
f 107/107/107 56/56/56 60/60/60
f 107/107/107 60/60/60 108/108/108
f 109/109/109 97/97/97 40/40/40
f 109/109/109 40/40/40 39/39/39
f 109/109/109 39/39/39 38/38/38
f 109/109/109 38/38/38 92/92/92
f 109/109/109 92/92/92 94/94/94
f 109/109/109 94/94/94 85/85/85
f 109/109/109 85/85/85 84/84/84
f 109/109/109 84/84/84 97/97/97
f 110/110/110 111/111/111 27/27/27
f 110/110/110 27/27/27 45/45/45
f 110/110/110 45/45/45 44/44/44
f 110/110/110 44/44/44 96/96/96
f 110/110/110 96/96/96 98/98/98
f 110/110/110 98/98/98 88/88/88
f 110/110/110 88/88/88 74/74/74
f 110/110/110 74/74/74 111/111/111
f 112/112/112 105/105/105 9/9/9
f 112/112/112 9/9/9 8/8/8
f 112/112/112 8/8/8 7/7/7
f 112/112/112 7/7/7 100/100/100
f 112/112/112 100/100/100 102/102/102
f 112/112/112 102/102/102 49/49/49
f 112/112/112 49/49/49 48/48/48
f 112/112/112 48/48/48 105/105/105
f 113/113/113 101/101/101 5/5/5
f 113/113/113 5/5/5 33/33/33
f 113/113/113 33/33/33 29/29/29
f 113/113/113 29/29/29 114/114/114
f 113/113/113 114/114/114 72/72/72
f 113/113/113 72/72/72 78/78/78
f 113/113/113 78/78/78 52/52/52
f 113/113/113 52/52/52 101/101/101
f 115/115/115 116/116/116 24/24/24
f 115/115/115 24/24/24 35/35/35
f 115/115/115 35/35/35 12/12/12
f 115/115/115 12/12/12 108/108/108
f 115/115/115 108/108/108 60/60/60
f 115/115/115 60/60/60 80/80/80
f 115/115/115 80/80/80 63/63/63
f 115/115/115 63/63/63 116/116/116
f 117/117/117 93/93/93 18/18/18
f 117/117/117 18/18/18 17/17/17
f 117/117/117 17/17/17 24/24/24
f 117/117/117 24/24/24 116/116/116
f 117/117/117 116/116/116 63/63/63
f 117/117/117 63/63/63 62/62/62
f 117/117/117 62/62/62 69/69/69
f 117/117/117 69/69/69 93/93/93
f 118/118/118 114/114/114 29/29/29
f 118/118/118 29/29/29 28/28/28
f 118/118/118 28/28/28 27/27/27
f 118/118/118 27/27/27 111/111/111
f 118/118/118 111/111/111 74/74/74
f 118/118/118 74/74/74 73/73/73
f 118/118/118 73/73/73 72/72/72
f 118/118/118 72/72/72 114/114/114
