v -2.379819 0.697555 -1.132005
v -2.378350 0.697419 -1.130021
v -2.376463 0.696055 -1.132347
v -2.378359 0.696296 -1.134323
v -2.379637 0.696629 -1.135994
v -2.380647 0.697728 -1.133845
v -2.381005 0.698173 -1.132137
v -2.380817 0.698327 -1.130264
v -2.379762 0.698316 -1.128280
v -2.376106 0.697550 -1.128991
v -2.374135 0.697721 -1.128559
v -2.372240 0.696621 -1.129990
v -2.374139 0.696291 -1.130897
v -2.377604 0.698323 -1.127655
v -2.375732 0.698167 -1.127856
v -2.368839 0.690440 -1.137521
v -2.367164 0.690626 -1.136406
v -2.365991 0.688196 -1.138711
v -2.367480 0.688022 -1.139687
v -2.369394 0.687891 -1.141067
v -2.370995 0.690301 -1.139091
v -2.372692 0.692518 -1.136998
v -2.370428 0.692684 -1.135367
v -2.368661 0.692908 -1.134218
v -2.372974 0.690445 -1.140878
v -2.371137 0.688026 -1.142656
v -2.372399 0.688203 -1.143913
v -2.374409 0.690634 -1.142287
v -2.376240 0.692917 -1.140371
v -2.374753 0.692689 -1.138878
v -2.376609 0.694657 -1.136653
v -2.374546 0.694429 -1.134711
v -2.378075 0.694970 -1.138221
v -2.372221 0.694652 -1.133091
v -2.370384 0.694962 -1.131978
v -2.366376 0.685531 -1.141999
v -2.365236 0.685701 -1.141302
v -2.365127 0.684229 -1.142890
v -2.365654 0.683613 -1.143769
v -2.366673 0.683485 -1.144425
v -2.367824 0.685404 -1.143004
v -2.369105 0.685535 -1.144215
v -2.367524 0.683615 -1.145287
v -2.368491 0.684232 -1.145622
v -2.370021 0.685706 -1.145187
v -2.379920 0.697326 -1.131938
v -2.378423 0.697188 -1.129931
v -2.379814 0.698141 -1.128215
v -2.380892 0.698154 -1.130218
v -2.381066 0.698047 -1.132107
v -2.380735 0.697559 -1.133807
v -2.379727 0.696463 -1.135947
v -2.378463 0.696072 -1.134246
v -2.376542 0.695828 -1.132250
v -2.376151 0.697322 -1.128879
v -2.374154 0.697552 -1.128464
v -2.375748 0.698041 -1.127790
v -2.377633 0.698151 -1.127573
v -2.374193 0.696067 -1.130780
v -2.372268 0.696454 -1.129892
v -2.368926 0.690242 -1.137378
v -2.367220 0.690478 -1.136292
v -2.368710 0.692754 -1.134110
v -2.370506 0.692476 -1.135232
v -2.372789 0.692310 -1.136878
v -2.371100 0.690102 -1.138962
v -2.369503 0.687699 -1.140932
v -2.367572 0.687830 -1.139538
v -2.366050 0.688053 -1.138592
v -2.373097 0.690246 -1.140764
v -2.374869 0.692481 -1.138774
v -2.376336 0.692763 -1.140301
v -2.374510 0.690486 -1.142210
v -2.372503 0.688060 -1.143830
v -2.371264 0.687834 -1.142536
v -2.376719 0.694440 -1.136563
v -2.374634 0.694210 -1.134603
v -2.378168 0.694809 -1.138163
v -2.372287 0.694435 -1.132965
v -2.370423 0.694801 -1.131876
v -2.366468 0.685342 -1.141847
v -2.365295 0.685560 -1.141181
v -2.367936 0.685213 -1.142867
v -2.366757 0.683342 -1.144322
v -2.365722 0.683471 -1.143654
v -2.365173 0.684124 -1.142802
v -2.369235 0.685345 -1.144093
v -2.370128 0.685565 -1.145104
v -2.368568 0.684128 -1.145558
v -2.367623 0.683473 -1.145196
v -2.364880 0.685695 -1.141014
v -2.364820 0.683735 -1.143263
v -2.365518 0.688190 -1.138331
v -2.365173 0.684124 -1.142802
v -2.367041 0.682912 -1.145604
v -2.368191 0.683739 -1.145999
v -2.366326 0.682782 -1.144853
v -2.368568 0.684128 -1.145558
v -2.380965 0.697711 -1.134444
v -2.381289 0.698278 -1.132228
v -2.380106 0.696667 -1.136533
v -2.381066 0.698047 -1.132107
v -2.378115 0.698504 -1.127173
v -2.375584 0.698272 -1.127597
v -2.380255 0.698537 -1.127672
v -2.375748 0.698041 -1.127790
v -2.373483 0.697703 -1.128370
v -2.371617 0.696657 -1.129642
v -2.365444 0.682910 -1.144307
v -2.370376 0.685701 -1.145476
v -2.372868 0.688199 -1.144297
v -2.381183 0.698507 -1.129664
v -2.378608 0.695004 -1.138720
v -2.376780 0.692925 -1.140839
v -2.369787 0.694994 -1.131559
v -2.368092 0.692915 -1.133786
v -2.366629 0.690622 -1.135982
v -2.374934 0.690632 -1.142725
vn 0.425500 0.886900 -0.179500
vn 0.251400 0.917400 -0.308500
vn 0.285600 0.891900 -0.350600
vn 0.442900 0.864600 -0.237300
vn 0.450000 0.854100 -0.260800
vn 0.420200 0.888300 -0.185300
vn 0.396400 0.908600 -0.131400
vn 0.342700 0.928900 -0.140200
vn 0.196400 0.950500 -0.240600
vn 0.089400 0.887300 -0.452400
vn 0.096200 0.888700 -0.448300
vn 0.164000 0.854300 -0.493100
vn 0.142300 0.864900 -0.481200
vn 0.068100 0.929200 -0.363100
vn 0.048400 0.909000 -0.413900
vn 0.330800 0.745300 -0.578900
vn 0.364800 0.742200 -0.562200
vn 0.382100 0.720400 -0.578800
vn 0.339700 0.722200 -0.602400
vn 0.437800 0.720100 -0.538200
vn 0.418000 0.749100 -0.513900
vn 0.376100 0.803000 -0.462200
vn 0.282600 0.792400 -0.540500
vn 0.313500 0.784100 -0.535600
vn 0.499500 0.745100 -0.441800
vn 0.520800 0.722000 -0.455500
vn 0.488900 0.720200 -0.492100
vn 0.476200 0.742100 -0.471800
vn 0.460800 0.783900 -0.416000
vn 0.472000 0.792200 -0.386800
vn 0.450700 0.837000 -0.310100
vn 0.326800 0.855600 -0.401300
vn 0.452600 0.824700 -0.338900
vn 0.212000 0.837300 -0.503900
vn 0.239800 0.825000 -0.511700
vn 0.324900 0.710000 -0.624700
vn 0.372500 0.705700 -0.602600
vn 0.353800 0.691200 -0.630000
vn 0.331600 0.666900 -0.667300
vn 0.471200 0.664800 -0.579600
vn 0.446800 0.706100 -0.549400
vn 0.545600 0.709800 -0.445600
vn 0.585800 0.666600 -0.460900
vn 0.544900 0.690900 -0.475100
vn 0.514200 0.705400 -0.487700
vn -0.458400 -0.870900 0.176800
vn -0.261000 -0.910700 0.320200
vn -0.297000 -0.882500 0.364600
vn -0.551800 -0.817600 0.164300
vn -0.639000 -0.762800 0.098800
vn -0.619400 -0.777300 0.109800
vn -0.576600 -0.800900 0.161200
vn -0.454500 -0.861100 0.227800
vn -0.285500 -0.892000 0.350500
vn -0.080000 -0.871400 0.484000
vn 0.018800 -0.778200 0.627700
vn 0.033500 -0.763600 0.644700
vn -0.048500 -0.818100 0.573000
vn -0.130700 -0.861400 0.490700
vn -0.040400 -0.801400 0.596700
vn -0.316800 -0.744700 0.587300
vn -0.217700 -0.736000 0.640900
vn -0.181900 -0.767500 0.614600
vn -0.270100 -0.791100 0.548800
vn -0.376200 -0.802900 0.462300
vn -0.418100 -0.748900 0.514000
vn -0.437800 -0.720100 0.538300
vn -0.322500 -0.722900 0.611000
vn -0.197400 -0.730000 0.654300
vn -0.510700 -0.744500 0.430000
vn -0.482700 -0.790800 0.376300
vn -0.565200 -0.767100 0.303500
vn -0.583500 -0.735600 0.344000
vn -0.600700 -0.729500 0.326900
vn -0.532700 -0.722600 0.440400
vn -0.461300 -0.834900 0.300100
vn -0.326800 -0.855600 0.401300
vn -0.559000 -0.795800 0.232800
vn -0.200100 -0.835200 0.512200
vn -0.114000 -0.796300 0.594100
vn -0.294400 -0.720900 0.627300
vn -0.133200 -0.741000 0.658200
vn -0.441300 -0.714700 0.542600
vn -0.416600 -0.751100 0.512200
vn -0.198700 -0.756800 0.622600
vn -0.091800 -0.749700 0.655300
vn -0.554400 -0.720600 0.416200
vn -0.617800 -0.740300 0.264800
vn -0.623500 -0.749100 0.223800
vn -0.569500 -0.756500 0.321600
vn 0.960500 -0.110700 0.255200
vn 0.940200 -0.326500 -0.096700
vn 0.920500 -0.039300 0.388700
vn -0.091800 -0.749700 0.655300
vn 0.271700 -0.649300 -0.710300
vn -0.098700 -0.325700 -0.940300
vn 0.395200 -0.778300 -0.487900
vn -0.623500 -0.749100 0.223800
vn -0.781500 0.433000 -0.449200
vn -0.837300 0.527100 -0.145500
vn -0.725600 0.312100 -0.613200
vn -0.639000 -0.762800 0.098800
vn -0.097200 0.423500 0.900600
vn 0.315100 0.525600 0.790200
vn -0.593900 0.333600 0.732100
vn 0.033500 -0.763600 0.644700
vn 0.601200 0.431200 0.672700
vn 0.749500 0.310700 0.584600
vn 0.638500 -0.649800 -0.412300
vn -0.447100 -0.109300 -0.887700
vn -0.569300 -0.038200 -0.821200
vn -0.860900 0.424400 0.280700
vn -0.684500 0.200000 -0.701000
vn -0.663900 0.123900 -0.737500
vn 0.826800 0.198600 0.526300
vn 0.858400 0.122200 0.498200
vn 0.882600 0.046100 0.467800
vn -0.638800 0.047300 -0.767800
vt 0.839504 0.118056
vt 0.856743 0.205307
vt 0.741230 0.205307
vt 0.734555 0.106726
vt 0.724541 0.032791
vt 0.813647 0.052618
vt 0.868992 0.081539
vt 0.913398 0.129584
vt 0.940923 0.205307
vt 0.839504 0.292557
vt 0.813647 0.357995
vt 0.724541 0.377822
vt 0.734555 0.303887
vt 0.913398 0.281029
vt 0.868992 0.329074
vt 0.369475 0.299954
vt 0.368286 0.370940
vt 0.245840 0.351447
vt 0.246397 0.288815
vt 0.246768 0.205307
vt 0.370268 0.205307
vt 0.494283 0.205307
vt 0.492822 0.304944
vt 0.490632 0.379672
vt 0.369475 0.110659
vt 0.246397 0.121798
vt 0.245841 0.059166
vt 0.368286 0.039673
vt 0.490632 0.030941
vt 0.492822 0.105669
vt 0.616755 0.103478
vt 0.619174 0.205307
vt 0.613127 0.027106
vt 0.616755 0.307135
vt 0.613126 0.383507
vt 0.123273 0.268175
vt 0.123047 0.315326
vt 0.054743 0.283353
vt 0.030912 0.249131
vt 0.030973 0.205306
vt 0.123423 0.205306
vt 0.123273 0.142438
vt 0.030912 0.161481
vt 0.054744 0.127260
vt 0.123047 0.095287
vt 0.839504 0.118056
vt 0.856743 0.205307
vt 0.968983 0.205307
vt 0.938030 0.133427
vt 0.876123 0.061548
vt 0.805028 0.030806
vt 0.721203 0.008146
vt 0.734555 0.106726
vt 0.741230 0.205307
vt 0.839504 0.292557
vt 0.805028 0.379807
vt 0.876123 0.349065
vt 0.938030 0.277186
vt 0.734555 0.303887
vt 0.721203 0.402467
vt 0.369475 0.299954
vt 0.367890 0.394602
vt 0.489902 0.404581
vt 0.492822 0.304944
vt 0.494283 0.205307
vt 0.370268 0.205307
vt 0.246768 0.205307
vt 0.246397 0.288815
vt 0.245655 0.372324
vt 0.369475 0.110659
vt 0.492822 0.105669
vt 0.489902 0.006032
vt 0.367890 0.016011
vt 0.245655 0.038289
vt 0.246397 0.121798
vt 0.616755 0.103478
vt 0.619174 0.205307
vt 0.611917 0.001649
vt 0.616755 0.307135
vt 0.611917 0.408964
vt 0.123273 0.268175
vt 0.122972 0.331043
vt 0.123423 0.205306
vt 0.000156 0.205306
vt 0.000125 0.242784
vt 0.000064 0.280261
vt 0.123273 0.142438
vt 0.122972 0.079570
vt 0.000064 0.130352
vt 0.000125 0.167829
vt 0.122972 0.331043
vt 0.030806 0.283587
vt 0.245655 0.372324
vt 0.030806 0.283587
vt 0.000125 0.167829
vt 0.030806 0.127026
vt 0.000156 0.205306
vt 0.030806 0.127026
vt 0.805028 0.030806
vt 0.873826 0.071832
vt 0.721203 0.008146
vt 0.873826 0.071832
vt 0.938030 0.277186
vt 0.873826 0.338781
vt 0.968983 0.205307
vt 0.873826 0.338781
vt 0.805028 0.379807
vt 0.721203 0.402467
vt 0.000125 0.242784
vt 0.122972 0.079570
vt 0.245655 0.038289
vt 0.938030 0.133427
vt 0.611917 0.001649
vt 0.489902 0.006032
vt 0.611917 0.408964
vt 0.489902 0.404581
vt 0.367890 0.394602
vt 0.367890 0.016011
f 1/1/1 2/2/2 3/3/3
f 1/1/1 3/3/3 4/4/4
f 1/1/1 4/4/4 5/5/5
f 1/1/1 5/5/5 6/6/6
f 1/1/1 6/6/6 7/7/7
f 1/1/1 7/7/7 8/8/8
f 1/1/1 8/8/8 9/9/9
f 1/1/1 9/9/9 2/2/2
f 10/10/10 11/11/11 12/12/12
f 10/10/10 12/12/12 13/13/13
f 10/10/10 13/13/13 3/3/3
f 10/10/10 3/3/3 2/2/2
f 10/10/10 2/2/2 9/9/9
f 10/10/10 9/9/9 14/14/14
f 10/10/10 14/14/14 15/15/15
f 10/10/10 15/15/15 11/11/11
f 16/16/16 17/17/17 18/18/18
f 16/16/16 18/18/18 19/19/19
f 16/16/16 19/19/19 20/20/20
f 16/16/16 20/20/20 21/21/21
f 16/16/16 21/21/21 22/22/22
f 16/16/16 22/22/22 23/23/23
f 16/16/16 23/23/23 24/24/24
f 16/16/16 24/24/24 17/17/17
f 25/25/25 21/21/21 20/20/20
f 25/25/25 20/20/20 26/26/26
f 25/25/25 26/26/26 27/27/27
f 25/25/25 27/27/27 28/28/28
f 25/25/25 28/28/28 29/29/29
f 25/25/25 29/29/29 30/30/30
f 25/25/25 30/30/30 22/22/22
f 25/25/25 22/22/22 21/21/21
f 31/31/31 32/32/32 22/22/22
f 31/31/31 22/22/22 30/30/30
f 31/31/31 30/30/30 29/29/29
f 31/31/31 29/29/29 33/33/33
f 31/31/31 33/33/33 5/5/5
f 31/31/31 5/5/5 4/4/4
f 31/31/31 4/4/4 3/3/3
f 31/31/31 3/3/3 32/32/32
f 34/34/34 35/35/35 24/24/24
f 34/34/34 24/24/24 23/23/23
f 34/34/34 23/23/23 22/22/22
f 34/34/34 22/22/22 32/32/32
f 34/34/34 32/32/32 3/3/3
f 34/34/34 3/3/3 13/13/13
f 34/34/34 13/13/13 12/12/12
f 34/34/34 12/12/12 35/35/35
f 36/36/36 37/37/37 38/38/38
f 36/36/36 38/38/38 39/39/39
f 36/36/36 39/39/39 40/40/40
f 36/36/36 40/40/40 41/41/41
f 36/36/36 41/41/41 20/20/20
f 36/36/36 20/20/20 19/19/19
f 36/36/36 19/19/19 18/18/18
f 36/36/36 18/18/18 37/37/37
f 42/42/42 41/41/41 40/40/40
f 42/42/42 40/40/40 43/43/43
f 42/42/42 43/43/43 44/44/44
f 42/42/42 44/44/44 45/45/45
f 42/42/42 45/45/45 27/27/27
f 42/42/42 27/27/27 26/26/26
f 42/42/42 26/26/26 20/20/20
f 42/42/42 20/20/20 41/41/41
f 46/46/46 47/47/47 48/48/48
f 46/46/46 48/48/48 49/49/49
f 46/46/46 49/49/49 50/50/50
f 46/46/46 50/50/50 51/51/51
f 46/46/46 51/51/51 52/52/52
f 46/46/46 52/52/52 53/53/53
f 46/46/46 53/53/53 54/54/54
f 46/46/46 54/54/54 47/47/47
f 55/55/55 56/56/56 57/57/57
f 55/55/55 57/57/57 58/58/58
f 55/55/55 58/58/58 48/48/48
f 55/55/55 48/48/48 47/47/47
f 55/55/55 47/47/47 54/54/54
f 55/55/55 54/54/54 59/59/59
f 55/55/55 59/59/59 60/60/60
f 55/55/55 60/60/60 56/56/56
f 61/61/61 62/62/62 63/63/63
f 61/61/61 63/63/63 64/64/64
f 61/61/61 64/64/64 65/65/65
f 61/61/61 65/65/65 66/66/66
f 61/61/61 66/66/66 67/67/67
f 61/61/61 67/67/67 68/68/68
f 61/61/61 68/68/68 69/69/69
f 61/61/61 69/69/69 62/62/62
f 70/70/70 66/66/66 65/65/65
f 70/70/70 65/65/65 71/71/71
f 70/70/70 71/71/71 72/72/72
f 70/70/70 72/72/72 73/73/73
f 70/70/70 73/73/73 74/74/74
f 70/70/70 74/74/74 75/75/75
f 70/70/70 75/75/75 67/67/67
f 70/70/70 67/67/67 66/66/66
f 76/76/76 77/77/77 54/54/54
f 76/76/76 54/54/54 53/53/53
f 76/76/76 53/53/53 52/52/52
f 76/76/76 52/52/52 78/78/78
f 76/76/76 78/78/78 72/72/72
f 76/76/76 72/72/72 71/71/71
f 76/76/76 71/71/71 65/65/65
f 76/76/76 65/65/65 77/77/77
f 79/79/79 80/80/80 60/60/60
f 79/79/79 60/60/60 59/59/59
f 79/79/79 59/59/59 54/54/54
f 79/79/79 54/54/54 77/77/77
f 79/79/79 77/77/77 65/65/65
f 79/79/79 65/65/65 64/64/64
f 79/79/79 64/64/64 63/63/63
f 79/79/79 63/63/63 80/80/80
f 81/81/81 82/82/82 69/69/69
f 81/81/81 69/69/69 68/68/68
f 81/81/81 68/68/68 67/67/67
f 81/81/81 67/67/67 83/83/83
f 81/81/81 83/83/83 84/84/84
f 81/81/81 84/84/84 85/85/85
f 81/81/81 85/85/85 86/86/86
f 81/81/81 86/86/86 82/82/82
f 87/87/87 83/83/83 67/67/67
f 87/87/87 67/67/67 75/75/75
f 87/87/87 75/75/75 74/74/74
f 87/87/87 74/74/74 88/88/88
f 87/87/87 88/88/88 89/89/89
f 87/87/87 89/89/89 90/90/90
f 87/87/87 90/90/90 84/84/84
f 87/87/87 84/84/84 83/83/83
f 91/91/91 92/92/92 38/38/38
f 91/91/91 38/38/38 37/37/37
f 91/91/91 37/37/37 18/18/18
f 91/91/91 18/18/18 93/93/93
f 91/91/91 93/93/93 69/69/69
f 91/91/91 69/69/69 82/82/82
f 91/91/91 82/82/82 94/94/94
f 91/91/91 94/94/94 92/92/92
f 95/95/95 96/96/96 44/44/44
f 95/95/95 44/44/44 43/43/43
f 95/95/95 43/43/43 40/40/40
f 95/95/95 40/40/40 97/97/97
f 95/95/95 97/97/97 84/84/84
f 95/95/95 84/84/84 90/90/90
f 95/95/95 90/90/90 98/98/98
f 95/95/95 98/98/98 96/96/96
f 99/99/99 100/100/100 7/7/7
f 99/99/99 7/7/7 6/6/6
f 99/99/99 6/6/6 5/5/5
f 99/99/99 5/5/5 101/101/101
f 99/99/99 101/101/101 52/52/52
f 99/99/99 52/52/52 51/51/51
f 99/99/99 51/51/51 102/102/102
f 99/99/99 102/102/102 100/100/100
f 103/103/103 104/104/104 15/15/15
f 103/103/103 15/15/15 14/14/14
f 103/103/103 14/14/14 9/9/9
f 103/103/103 9/9/9 105/105/105
f 103/103/103 105/105/105 48/48/48
f 103/103/103 48/48/48 58/58/58
f 103/103/103 58/58/58 106/106/106
f 103/103/103 106/106/106 104/104/104
f 107/107/107 108/108/108 12/12/12
f 107/107/107 12/12/12 11/11/11
f 107/107/107 11/11/11 15/15/15
f 107/107/107 15/15/15 104/104/104
f 107/107/107 104/104/104 106/106/106
f 107/107/107 106/106/106 56/56/56
f 107/107/107 56/56/56 60/60/60
f 107/107/107 60/60/60 108/108/108
f 109/109/109 97/97/97 40/40/40
f 109/109/109 40/40/40 39/39/39
f 109/109/109 39/39/39 38/38/38
f 109/109/109 38/38/38 92/92/92
f 109/109/109 92/92/92 94/94/94
f 109/109/109 94/94/94 85/85/85
f 109/109/109 85/85/85 84/84/84
f 109/109/109 84/84/84 97/97/97
f 110/110/110 111/111/111 27/27/27
f 110/110/110 27/27/27 45/45/45
f 110/110/110 45/45/45 44/44/44
f 110/110/110 44/44/44 96/96/96
f 110/110/110 96/96/96 98/98/98
f 110/110/110 98/98/98 88/88/88
f 110/110/110 88/88/88 74/74/74
f 110/110/110 74/74/74 111/111/111
f 112/112/112 105/105/105 9/9/9
f 112/112/112 9/9/9 8/8/8
f 112/112/112 8/8/8 7/7/7
f 112/112/112 7/7/7 100/100/100
f 112/112/112 100/100/100 102/102/102
f 112/112/112 102/102/102 49/49/49
f 112/112/112 49/49/49 48/48/48
f 112/112/112 48/48/48 105/105/105
f 113/113/113 101/101/101 5/5/5
f 113/113/113 5/5/5 33/33/33
f 113/113/113 33/33/33 29/29/29
f 113/113/113 29/29/29 114/114/114
f 113/113/113 114/114/114 72/72/72
f 113/113/113 72/72/72 78/78/78
f 113/113/113 78/78/78 52/52/52
f 113/113/113 52/52/52 101/101/101
f 115/115/115 116/116/116 24/24/24
f 115/115/115 24/24/24 35/35/35
f 115/115/115 35/35/35 12/12/12
f 115/115/115 12/12/12 108/108/108
f 115/115/115 108/108/108 60/60/60
f 115/115/115 60/60/60 80/80/80
f 115/115/115 80/80/80 63/63/63
f 115/115/115 63/63/63 116/116/116
f 117/117/117 93/93/93 18/18/18
f 117/117/117 18/18/18 17/17/17
f 117/117/117 17/17/17 24/24/24
f 117/117/117 24/24/24 116/116/116
f 117/117/117 116/116/116 63/63/63
f 117/117/117 63/63/63 62/62/62
f 117/117/117 62/62/62 69/69/69
f 117/117/117 69/69/69 93/93/93
f 118/118/118 114/114/114 29/29/29
f 118/118/118 29/29/29 28/28/28
f 118/118/118 28/28/28 27/27/27
f 118/118/118 27/27/27 111/111/111
f 118/118/118 111/111/111 74/74/74
f 118/118/118 74/74/74 73/73/73
f 118/118/118 73/73/73 72/72/72
f 118/118/118 72/72/72 114/114/114
