v -2.441187 0.732896 -1.066501
v -2.439477 0.733910 -1.065332
v -2.438215 0.733559 -1.068108
v -2.440267 0.732392 -1.069109
v -2.441857 0.731677 -1.070063
v -2.442442 0.732281 -1.067771
v -2.442370 0.732686 -1.066143
v -2.441715 0.733199 -1.064590
v -2.440352 0.734080 -1.063265
v -2.437714 0.735393 -1.065237
v -2.436351 0.736661 -1.065556
v -2.434938 0.736652 -1.067546
v -2.436320 0.735230 -1.067673
v -2.438709 0.735361 -1.063497
v -2.437438 0.736233 -1.064349
v -2.431669 0.732736 -1.075707
v -2.430289 0.733963 -1.075333
v -2.428897 0.732438 -1.077920
v -2.430115 0.731343 -1.078241
v -2.431773 0.729985 -1.078753
v -2.433547 0.731210 -1.076297
v -2.435238 0.732259 -1.073722
v -2.433283 0.733873 -1.073116
v -2.431852 0.735184 -1.072742
v -2.435537 0.729955 -1.077114
v -2.433536 0.728884 -1.079485
v -2.434891 0.728128 -1.080100
v -2.437066 0.729090 -1.077798
v -2.438941 0.730087 -1.075321
v -2.437329 0.730964 -1.074588
v -2.438943 0.731762 -1.071862
v -2.436798 0.733025 -1.070949
v -2.440614 0.730947 -1.072661
v -2.434838 0.734714 -1.070369
v -2.433420 0.736120 -1.070044
v -2.428738 0.729735 -1.080814
v -2.427843 0.730592 -1.080609
v -2.427465 0.729310 -1.082126
v -2.427759 0.728427 -1.082741
v -2.428584 0.727673 -1.082951
v -2.429964 0.728692 -1.081171
v -2.431291 0.727899 -1.081743
v -2.429509 0.727169 -1.083377
v -2.430612 0.727046 -1.083271
v -2.432319 0.727373 -1.082237
v -2.441104 0.732682 -1.066426
v -2.439367 0.733714 -1.065248
v -2.440268 0.733933 -1.063204
v -2.441653 0.733038 -1.064538
v -2.442330 0.732564 -1.066106
v -2.442394 0.732114 -1.067721
v -2.441808 0.731512 -1.070003
v -2.440185 0.732181 -1.069024
v -2.438109 0.733364 -1.068015
v -2.437578 0.735217 -1.065143
v -2.436238 0.736541 -1.065481
v -2.437356 0.736141 -1.064296
v -2.438605 0.735230 -1.063429
v -2.436191 0.735053 -1.067572
v -2.434831 0.736530 -1.067465
v -2.431569 0.732565 -1.075569
v -2.430205 0.733841 -1.075227
v -2.431762 0.735060 -1.072644
v -2.433174 0.733698 -1.072989
v -2.435147 0.732070 -1.073601
v -2.433463 0.731026 -1.076164
v -2.431694 0.729804 -1.078613
v -2.430019 0.731175 -1.078095
v -2.428817 0.732319 -1.077808
v -2.435470 0.729759 -1.076988
v -2.437255 0.730764 -1.074474
v -2.438895 0.729931 -1.075239
v -2.437024 0.728938 -1.077707
v -2.434853 0.727978 -1.080004
v -2.433473 0.728691 -1.079352
v -2.438864 0.731557 -1.071763
v -2.436699 0.732833 -1.070842
v -2.440566 0.730787 -1.072590
v -2.434719 0.734537 -1.070255
v -2.433321 0.735996 -1.069955
v -2.428643 0.729569 -1.080666
v -2.427763 0.730474 -1.080495
v -2.429886 0.728512 -1.081028
v -2.428526 0.727539 -1.082844
v -2.427688 0.728303 -1.082629
v -2.427408 0.729221 -1.082042
v -2.431231 0.727707 -1.081607
v -2.432284 0.727224 -1.082139
v -2.430584 0.726937 -1.083198
v -2.429465 0.727025 -1.083275
v -2.427507 0.730827 -1.080489
v -2.427105 0.729052 -1.082594
v -2.428453 0.732752 -1.077762
v -2.427408 0.729221 -1.082042
v -2.428896 0.726862 -1.083877
v -2.430258 0.726785 -1.083741
v -2.428098 0.727274 -1.083497
v -2.430584 0.726937 -1.083198
v -2.442842 0.732001 -1.068174
v -2.442649 0.732595 -1.066112
v -2.442368 0.731364 -1.070355
v -2.442330 0.732564 -1.066106
v -2.438994 0.735292 -1.062887
v -2.437312 0.736432 -1.064171
v -2.440606 0.734071 -1.062549
v -2.437356 0.736141 -1.064296
v -2.435844 0.737033 -1.065628
v -2.434427 0.737074 -1.067466
v -2.427401 0.727936 -1.083333
v -2.432648 0.727130 -1.082359
v -2.435328 0.727809 -1.080263
v -2.441864 0.733229 -1.063931
v -2.441152 0.730603 -1.072897
v -2.439460 0.729724 -1.075530
v -2.432901 0.736536 -1.069895
v -2.431333 0.735567 -1.072574
v -2.429789 0.734319 -1.075160
v -2.437558 0.728733 -1.077986
vn -0.292800 0.922000 -0.253200
vn -0.481300 0.822600 -0.302800
vn -0.456400 0.815100 -0.356700
vn -0.287300 0.904600 -0.314800
vn -0.284200 0.896400 -0.340200
vn -0.299700 0.918900 -0.256400
vn -0.309900 0.930300 -0.196000
vn -0.363700 0.913600 -0.181800
vn -0.516900 0.828200 -0.216400
vn -0.630000 0.679600 -0.375800
vn -0.624400 0.685500 -0.374300
vn -0.571100 0.690200 -0.444400
vn -0.588800 0.687800 -0.424500
vn -0.639100 0.715500 -0.281900
vn -0.658900 0.679500 -0.322700
vn -0.416200 0.686400 -0.596400
vn -0.384000 0.706600 -0.594300
vn -0.364300 0.696600 -0.618000
vn -0.404200 0.669300 -0.623400
vn -0.310100 0.735800 -0.602000
vn -0.333100 0.751400 -0.569600
vn -0.377400 0.778500 -0.501500
vn -0.465500 0.702100 -0.538800
vn -0.436600 0.714400 -0.546700
vn -0.246900 0.808100 -0.534800
vn -0.222600 0.799900 -0.557400
vn -0.257400 0.773500 -0.579100
vn -0.272400 0.786900 -0.553700
vn -0.288900 0.820600 -0.493000
vn -0.275600 0.838700 -0.469700
vn -0.290800 0.874900 -0.387200
vn -0.423000 0.801800 -0.422200
vn -0.292200 0.861400 -0.415400
vn -0.530300 0.702700 -0.474300
vn -0.505700 0.707900 -0.493100
vn -0.415300 0.647100 -0.639300
vn -0.370700 0.675300 -0.637600
vn -0.385100 0.648200 -0.656900
vn -0.399600 0.609500 -0.684700
vn -0.267400 0.704500 -0.657400
vn -0.299100 0.728000 -0.616900
vn -0.193900 0.806300 -0.558800
vn -0.144600 0.793000 -0.591800
vn -0.193600 0.785900 -0.587200
vn -0.228700 0.777400 -0.585900
vn 0.258700 -0.929000 0.264600
vn 0.474600 -0.820800 0.317700
vn 0.447600 -0.811900 0.374700
vn 0.155200 -0.943300 0.293400
vn 0.036800 -0.961900 0.270900
vn 0.063500 -0.960100 0.272300
vn 0.126300 -0.945100 0.301400
vn 0.273600 -0.910200 0.310900
vn 0.456400 -0.815200 0.356500
vn 0.638300 -0.656100 0.402600
vn 0.703500 -0.500200 0.504800
vn 0.711300 -0.477100 0.516100
vn 0.660100 -0.580300 0.476900
vn 0.598300 -0.676700 0.429000
vn 0.664300 -0.558200 0.497000
vn 0.428800 -0.676400 0.598900
vn 0.513500 -0.602300 0.611100
vn 0.548800 -0.610900 0.570600
vn 0.476600 -0.692400 0.541700
vn 0.377300 -0.778400 0.501700
vn 0.333000 -0.751300 0.569800
vn 0.310000 -0.735700 0.602100
vn 0.419900 -0.658300 0.624700
vn 0.529100 -0.583500 0.616100
vn 0.234400 -0.816100 0.528200
vn 0.263400 -0.845700 0.464100
vn 0.164400 -0.887400 0.430700
vn 0.146600 -0.866200 0.477600
vn 0.124500 -0.874400 0.468900
vn 0.209200 -0.809900 0.548000
vn 0.278500 -0.881100 0.382200
vn 0.423000 -0.801800 0.422100
vn 0.161100 -0.918600 0.360900
vn 0.540400 -0.692700 0.477500
vn 0.607600 -0.597500 0.523200
vn 0.444700 -0.637500 0.629100
vn 0.583000 -0.554000 0.594200
vn 0.305800 -0.732800 0.607800
vn 0.334600 -0.752500 0.567200
vn 0.533100 -0.611000 0.585200
vn 0.616900 -0.537400 0.575000
vn 0.183800 -0.825100 0.534200
vn 0.097000 -0.903500 0.417400
vn 0.083700 -0.920700 0.381100
vn 0.161200 -0.878400 0.449800
vn 0.844500 0.516400 -0.141500
vn 0.835900 0.273000 -0.476200
vn 0.820100 0.572200 0.002100
vn 0.616900 -0.537400 0.575000
vn 0.334800 -0.477500 -0.812300
vn -0.206600 -0.475800 -0.854900
vn 0.579800 -0.469600 -0.665800
vn 0.083700 -0.920700 0.381100
vn -0.978800 -0.189200 -0.078500
vn -0.968400 -0.095500 0.230600
vn -0.923800 -0.280300 -0.260800
vn 0.036800 -0.961900 0.270900
vn -0.007300 0.432300 0.901700
vn 0.187600 0.735300 0.651300
vn -0.368400 0.042100 0.928700
vn 0.711300 -0.477100 0.516100
vn 0.407800 0.807500 0.426000
vn 0.555700 0.783700 0.277600
vn 0.703300 -0.212900 -0.678300
vn -0.567300 -0.498800 -0.655300
vn -0.674100 -0.502400 -0.541400
vn -0.773300 -0.118200 0.622800
vn -0.858000 -0.359900 -0.366300
vn -0.810000 -0.414800 -0.414500
vn 0.657800 0.730100 0.185200
vn 0.716500 0.683100 0.141100
vn 0.769400 0.631400 0.096500
vn -0.756300 -0.466300 -0.458800
vt 0.839504 0.118056
vt 0.856743 0.205307
vt 0.741230 0.205307
vt 0.734555 0.106726
vt 0.724541 0.032791
vt 0.813647 0.052618
vt 0.868992 0.081539
vt 0.913398 0.129584
vt 0.940923 0.205307
vt 0.839504 0.292557
vt 0.813647 0.357995
vt 0.724541 0.377822
vt 0.734555 0.303887
vt 0.913398 0.281029
vt 0.868992 0.329074
vt 0.369475 0.299954
vt 0.368286 0.370940
vt 0.245840 0.351447
vt 0.246397 0.288815
vt 0.246768 0.205307
vt 0.370268 0.205307
vt 0.494283 0.205307
vt 0.492822 0.304944
vt 0.490632 0.379672
vt 0.369475 0.110659
vt 0.246397 0.121798
vt 0.245841 0.059166
vt 0.368286 0.039673
vt 0.490632 0.030941
vt 0.492822 0.105669
vt 0.616755 0.103478
vt 0.619174 0.205307
vt 0.613127 0.027106
vt 0.616755 0.307135
vt 0.613126 0.383507
vt 0.123273 0.268175
vt 0.123047 0.315326
vt 0.054743 0.283353
vt 0.030912 0.249131
vt 0.030973 0.205306
vt 0.123423 0.205306
vt 0.123273 0.142438
vt 0.030912 0.161481
vt 0.054744 0.127260
vt 0.123047 0.095287
vt 0.839504 0.118056
vt 0.856743 0.205307
vt 0.968983 0.205307
vt 0.938030 0.133427
vt 0.876123 0.061548
vt 0.805028 0.030806
vt 0.721203 0.008146
vt 0.734555 0.106726
vt 0.741230 0.205307
vt 0.839504 0.292557
vt 0.805028 0.379807
vt 0.876123 0.349065
vt 0.938030 0.277186
vt 0.734555 0.303887
vt 0.721203 0.402467
vt 0.369475 0.299954
vt 0.367890 0.394602
vt 0.489902 0.404581
vt 0.492822 0.304944
vt 0.494283 0.205307
vt 0.370268 0.205307
vt 0.246768 0.205307
vt 0.246397 0.288815
vt 0.245655 0.372324
vt 0.369475 0.110659
vt 0.492822 0.105669
vt 0.489902 0.006032
vt 0.367890 0.016011
vt 0.245655 0.038289
vt 0.246397 0.121798
vt 0.616755 0.103478
vt 0.619174 0.205307
vt 0.611917 0.001649
vt 0.616755 0.307135
vt 0.611917 0.408964
vt 0.123273 0.268175
vt 0.122972 0.331043
vt 0.123423 0.205306
vt 0.000156 0.205306
vt 0.000125 0.242784
vt 0.000064 0.280261
vt 0.123273 0.142438
vt 0.122972 0.079570
vt 0.000064 0.130352
vt 0.000125 0.167829
vt 0.122972 0.331043
vt 0.030806 0.283587
vt 0.245655 0.372324
vt 0.030806 0.283587
vt 0.000125 0.167829
vt 0.030806 0.127026
vt 0.000156 0.205306
vt 0.030806 0.127026
vt 0.805028 0.030806
vt 0.873826 0.071832
vt 0.721203 0.008146
vt 0.873826 0.071832
vt 0.938030 0.277186
vt 0.873826 0.338781
vt 0.968983 0.205307
vt 0.873826 0.338781
vt 0.805028 0.379807
vt 0.721203 0.402467
vt 0.000125 0.242784
vt 0.122972 0.079570
vt 0.245655 0.038289
vt 0.938030 0.133427
vt 0.611917 0.001649
vt 0.489902 0.006032
vt 0.611917 0.408964
vt 0.489902 0.404581
vt 0.367890 0.394602
vt 0.367890 0.016011
f 1/1/1 2/2/2 3/3/3
f 1/1/1 3/3/3 4/4/4
f 1/1/1 4/4/4 5/5/5
f 1/1/1 5/5/5 6/6/6
f 1/1/1 6/6/6 7/7/7
f 1/1/1 7/7/7 8/8/8
f 1/1/1 8/8/8 9/9/9
f 1/1/1 9/9/9 2/2/2
f 10/10/10 11/11/11 12/12/12
f 10/10/10 12/12/12 13/13/13
f 10/10/10 13/13/13 3/3/3
f 10/10/10 3/3/3 2/2/2
f 10/10/10 2/2/2 9/9/9
f 10/10/10 9/9/9 14/14/14
f 10/10/10 14/14/14 15/15/15
f 10/10/10 15/15/15 11/11/11
f 16/16/16 17/17/17 18/18/18
f 16/16/16 18/18/18 19/19/19
f 16/16/16 19/19/19 20/20/20
f 16/16/16 20/20/20 21/21/21
f 16/16/16 21/21/21 22/22/22
f 16/16/16 22/22/22 23/23/23
f 16/16/16 23/23/23 24/24/24
f 16/16/16 24/24/24 17/17/17
f 25/25/25 21/21/21 20/20/20
f 25/25/25 20/20/20 26/26/26
f 25/25/25 26/26/26 27/27/27
f 25/25/25 27/27/27 28/28/28
f 25/25/25 28/28/28 29/29/29
f 25/25/25 29/29/29 30/30/30
f 25/25/25 30/30/30 22/22/22
f 25/25/25 22/22/22 21/21/21
f 31/31/31 32/32/32 22/22/22
f 31/31/31 22/22/22 30/30/30
f 31/31/31 30/30/30 29/29/29
f 31/31/31 29/29/29 33/33/33
f 31/31/31 33/33/33 5/5/5
f 31/31/31 5/5/5 4/4/4
f 31/31/31 4/4/4 3/3/3
f 31/31/31 3/3/3 32/32/32
f 34/34/34 35/35/35 24/24/24
f 34/34/34 24/24/24 23/23/23
f 34/34/34 23/23/23 22/22/22
f 34/34/34 22/22/22 32/32/32
f 34/34/34 32/32/32 3/3/3
f 34/34/34 3/3/3 13/13/13
f 34/34/34 13/13/13 12/12/12
f 34/34/34 12/12/12 35/35/35
f 36/36/36 37/37/37 38/38/38
f 36/36/36 38/38/38 39/39/39
f 36/36/36 39/39/39 40/40/40
f 36/36/36 40/40/40 41/41/41
f 36/36/36 41/41/41 20/20/20
f 36/36/36 20/20/20 19/19/19
f 36/36/36 19/19/19 18/18/18
f 36/36/36 18/18/18 37/37/37
f 42/42/42 41/41/41 40/40/40
f 42/42/42 40/40/40 43/43/43
f 42/42/42 43/43/43 44/44/44
f 42/42/42 44/44/44 45/45/45
f 42/42/42 45/45/45 27/27/27
f 42/42/42 27/27/27 26/26/26
f 42/42/42 26/26/26 20/20/20
f 42/42/42 20/20/20 41/41/41
f 46/46/46 47/47/47 48/48/48
f 46/46/46 48/48/48 49/49/49
f 46/46/46 49/49/49 50/50/50
f 46/46/46 50/50/50 51/51/51
f 46/46/46 51/51/51 52/52/52
f 46/46/46 52/52/52 53/53/53
f 46/46/46 53/53/53 54/54/54
f 46/46/46 54/54/54 47/47/47
f 55/55/55 56/56/56 57/57/57
f 55/55/55 57/57/57 58/58/58
f 55/55/55 58/58/58 48/48/48
f 55/55/55 48/48/48 47/47/47
f 55/55/55 47/47/47 54/54/54
f 55/55/55 54/54/54 59/59/59
f 55/55/55 59/59/59 60/60/60
f 55/55/55 60/60/60 56/56/56
f 61/61/61 62/62/62 63/63/63
f 61/61/61 63/63/63 64/64/64
f 61/61/61 64/64/64 65/65/65
f 61/61/61 65/65/65 66/66/66
f 61/61/61 66/66/66 67/67/67
f 61/61/61 67/67/67 68/68/68
f 61/61/61 68/68/68 69/69/69
f 61/61/61 69/69/69 62/62/62
f 70/70/70 66/66/66 65/65/65
f 70/70/70 65/65/65 71/71/71
f 70/70/70 71/71/71 72/72/72
f 70/70/70 72/72/72 73/73/73
f 70/70/70 73/73/73 74/74/74
f 70/70/70 74/74/74 75/75/75
f 70/70/70 75/75/75 67/67/67
f 70/70/70 67/67/67 66/66/66
f 76/76/76 77/77/77 54/54/54
f 76/76/76 54/54/54 53/53/53
f 76/76/76 53/53/53 52/52/52
f 76/76/76 52/52/52 78/78/78
f 76/76/76 78/78/78 72/72/72
f 76/76/76 72/72/72 71/71/71
f 76/76/76 71/71/71 65/65/65
f 76/76/76 65/65/65 77/77/77
f 79/79/79 80/80/80 60/60/60
f 79/79/79 60/60/60 59/59/59
f 79/79/79 59/59/59 54/54/54
f 79/79/79 54/54/54 77/77/77
f 79/79/79 77/77/77 65/65/65
f 79/79/79 65/65/65 64/64/64
f 79/79/79 64/64/64 63/63/63
f 79/79/79 63/63/63 80/80/80
f 81/81/81 82/82/82 69/69/69
f 81/81/81 69/69/69 68/68/68
f 81/81/81 68/68/68 67/67/67
f 81/81/81 67/67/67 83/83/83
f 81/81/81 83/83/83 84/84/84
f 81/81/81 84/84/84 85/85/85
f 81/81/81 85/85/85 86/86/86
f 81/81/81 86/86/86 82/82/82
f 87/87/87 83/83/83 67/67/67
f 87/87/87 67/67/67 75/75/75
f 87/87/87 75/75/75 74/74/74
f 87/87/87 74/74/74 88/88/88
f 87/87/87 88/88/88 89/89/89
f 87/87/87 89/89/89 90/90/90
f 87/87/87 90/90/90 84/84/84
f 87/87/87 84/84/84 83/83/83
f 91/91/91 92/92/92 38/38/38
f 91/91/91 38/38/38 37/37/37
f 91/91/91 37/37/37 18/18/18
f 91/91/91 18/18/18 93/93/93
f 91/91/91 93/93/93 69/69/69
f 91/91/91 69/69/69 82/82/82
f 91/91/91 82/82/82 94/94/94
f 91/91/91 94/94/94 92/92/92
f 95/95/95 96/96/96 44/44/44
f 95/95/95 44/44/44 43/43/43
f 95/95/95 43/43/43 40/40/40
f 95/95/95 40/40/40 97/97/97
f 95/95/95 97/97/97 84/84/84
f 95/95/95 84/84/84 90/90/90
f 95/95/95 90/90/90 98/98/98
f 95/95/95 98/98/98 96/96/96
f 99/99/99 100/100/100 7/7/7
f 99/99/99 7/7/7 6/6/6
f 99/99/99 6/6/6 5/5/5
f 99/99/99 5/5/5 101/101/101
f 99/99/99 101/101/101 52/52/52
f 99/99/99 52/52/52 51/51/51
f 99/99/99 51/51/51 102/102/102
f 99/99/99 102/102/102 100/100/100
f 103/103/103 104/104/104 15/15/15
f 103/103/103 15/15/15 14/14/14
f 103/103/103 14/14/14 9/9/9
f 103/103/103 9/9/9 105/105/105
f 103/103/103 105/105/105 48/48/48
f 103/103/103 48/48/48 58/58/58
f 103/103/103 58/58/58 106/106/106
f 103/103/103 106/106/106 104/104/104
f 107/107/107 108/108/108 12/12/12
f 107/107/107 12/12/12 11/11/11
f 107/107/107 11/11/11 15/15/15
f 107/107/107 15/15/15 104/104/104
f 107/107/107 104/104/104 106/106/106
f 107/107/107 106/106/106 56/56/56
f 107/107/107 56/56/56 60/60/60
f 107/107/107 60/60/60 108/108/108
f 109/109/109 97/97/97 40/40/40
f 109/109/109 40/40/40 39/39/39
f 109/109/109 39/39/39 38/38/38
f 109/109/109 38/38/38 92/92/92
f 109/109/109 92/92/92 94/94/94
f 109/109/109 94/94/94 85/85/85
f 109/109/109 85/85/85 84/84/84
f 109/109/109 84/84/84 97/97/97
f 110/110/110 111/111/111 27/27/27
f 110/110/110 27/27/27 45/45/45
f 110/110/110 45/45/45 44/44/44
f 110/110/110 44/44/44 96/96/96
f 110/110/110 96/96/96 98/98/98
f 110/110/110 98/98/98 88/88/88
f 110/110/110 88/88/88 74/74/74
f 110/110/110 74/74/74 111/111/111
f 112/112/112 105/105/105 9/9/9
f 112/112/112 9/9/9 8/8/8
f 112/112/112 8/8/8 7/7/7
f 112/112/112 7/7/7 100/100/100
f 112/112/112 100/100/100 102/102/102
f 112/112/112 102/102/102 49/49/49
f 112/112/112 49/49/49 48/48/48
f 112/112/112 48/48/48 105/105/105
f 113/113/113 101/101/101 5/5/5
f 113/113/113 5/5/5 33/33/33
f 113/113/113 33/33/33 29/29/29
f 113/113/113 29/29/29 114/114/114
f 113/113/113 114/114/114 72/72/72
f 113/113/113 72/72/72 78/78/78
f 113/113/113 78/78/78 52/52/52
f 113/113/113 52/52/52 101/101/101
f 115/115/115 116/116/116 24/24/24
f 115/115/115 24/24/24 35/35/35
f 115/115/115 35/35/35 12/12/12
f 115/115/115 12/12/12 108/108/108
f 115/115/115 108/108/108 60/60/60
f 115/115/115 60/60/60 80/80/80
f 115/115/115 80/80/80 63/63/63
f 115/115/115 63/63/63 116/116/116
f 117/117/117 93/93/93 18/18/18
f 117/117/117 18/18/18 17/17/17
f 117/117/117 17/17/17 24/24/24
f 117/117/117 24/24/24 116/116/116
f 117/117/117 116/116/116 63/63/63
f 117/117/117 63/63/63 62/62/62
f 117/117/117 62/62/62 69/69/69
f 117/117/117 69/69/69 93/93/93
f 118/118/118 114/114/114 29/29/29
f 118/118/118 29/29/29 28/28/28
f 118/118/118 28/28/28 27/27/27
f 118/118/118 27/27/27 111/111/111
f 118/118/118 111/111/111 74/74/74
f 118/118/118 74/74/74 73/73/73
f 118/118/118 73/73/73 72/72/72
f 118/118/118 72/72/72 114/114/114
