v -0.853445 0.944932 -2.235700
v -0.857834 0.944932 -2.235286
v -0.857834 0.946576 -2.235286
v -0.853445 0.946576 -2.235700
v -0.857834 0.948220 -2.235286
v -0.853445 0.948220 -2.235700
v -0.861492 0.944932 -2.234044
v -0.861492 0.946576 -2.234044
v -0.861492 0.948220 -2.234044
v -0.849056 0.946576 -2.235286
v -0.849056 0.944932 -2.235286
v -0.845398 0.946576 -2.234044
v -0.845398 0.944932 -2.234044
v -0.849056 0.948220 -2.235286
v -0.845398 0.948220 -2.234044
v -0.849056 0.943288 -2.235286
v -0.853445 0.943288 -2.235700
v -0.849056 0.941644 -2.235286
v -0.853445 0.941644 -2.235700
v -0.845398 0.943288 -2.234044
v -0.845398 0.941644 -2.234044
v -0.857834 0.943288 -2.235286
v -0.861492 0.943288 -2.234044
v -0.857834 0.941644 -2.235286
v -0.861492 0.941644 -2.234044
v -0.853445 0.941644 -2.229490
v -0.858932 0.941644 -2.229490
v -0.858566 0.941644 -2.232388
v -0.853445 0.941644 -2.232595
v -0.857834 0.941644 -2.235286
v -0.853445 0.941644 -2.235700
v -0.864418 0.941644 -2.229490
v -0.863687 0.941644 -2.231974
v -0.861492 0.941644 -2.234044
v -0.848324 0.941644 -2.232388
v -0.847959 0.941644 -2.229490
v -0.843204 0.941644 -2.231974
v -0.842472 0.941644 -2.229490
v -0.849056 0.941644 -2.235286
v -0.845398 0.941644 -2.234044
v -0.848324 0.941644 -2.226592
v -0.853445 0.941644 -2.226385
v -0.849056 0.941644 -2.223694
v -0.853445 0.941644 -2.223280
v -0.843204 0.941644 -2.227006
v -0.845398 0.941644 -2.224936
v -0.858566 0.941644 -2.226592
v -0.863687 0.941644 -2.227006
v -0.857834 0.941644 -2.223694
v -0.861492 0.941644 -2.224936
v -0.853445 0.944932 -2.223280
v -0.849056 0.944932 -2.223694
v -0.849056 0.946576 -2.223694
v -0.853445 0.946576 -2.223280
v -0.849056 0.948220 -2.223694
v -0.853445 0.948220 -2.223280
v -0.845398 0.944932 -2.224936
v -0.845398 0.946576 -2.224936
v -0.845398 0.948220 -2.224936
v -0.857834 0.946576 -2.223694
v -0.857834 0.944932 -2.223694
v -0.861492 0.946576 -2.224936
v -0.861492 0.944932 -2.224936
v -0.857834 0.948220 -2.223694
v -0.861492 0.948220 -2.224936
v -0.857834 0.943288 -2.223694
v -0.853445 0.943288 -2.223280
v -0.857834 0.941644 -2.223694
v -0.853445 0.941644 -2.223280
v -0.861492 0.943288 -2.224936
v -0.861492 0.941644 -2.224936
v -0.849056 0.943288 -2.223694
v -0.845398 0.943288 -2.224936
v -0.849056 0.941644 -2.223694
v -0.845398 0.941644 -2.224936
v -0.842472 0.944932 -2.229490
v -0.843204 0.944932 -2.231974
v -0.843204 0.946576 -2.231974
v -0.842472 0.946576 -2.229490
v -0.843204 0.948220 -2.231974
v -0.842472 0.948220 -2.229490
v -0.843204 0.944932 -2.231974
v -0.845398 0.944932 -2.234044
v -0.845398 0.946576 -2.234044
v -0.843204 0.946576 -2.231974
v -0.845398 0.948220 -2.234044
v -0.843204 0.948220 -2.231974
v -0.842472 0.944932 -2.229490
v -0.842472 0.946576 -2.229490
v -0.843204 0.946576 -2.227006
v -0.843204 0.944932 -2.227006
v -0.843204 0.944932 -2.227006
v -0.843204 0.946576 -2.227006
v -0.845398 0.946576 -2.224936
v -0.845398 0.944932 -2.224936
v -0.842472 0.948220 -2.229490
v -0.843204 0.948220 -2.227006
v -0.843204 0.948220 -2.227006
v -0.845398 0.948220 -2.224936
v -0.843204 0.943288 -2.227006
v -0.842472 0.943288 -2.229490
v -0.843204 0.941644 -2.227006
v -0.842472 0.941644 -2.229490
v -0.845398 0.943288 -2.224936
v -0.843204 0.943288 -2.227006
v -0.845398 0.941644 -2.224936
v -0.843204 0.941644 -2.227006
v -0.842472 0.943288 -2.229490
v -0.843204 0.943288 -2.231974
v -0.843204 0.943288 -2.231974
v -0.845398 0.943288 -2.234044
v -0.842472 0.941644 -2.229490
v -0.843204 0.941644 -2.231974
v -0.843204 0.941644 -2.231974
v -0.845398 0.941644 -2.234044
v -0.864418 0.944932 -2.229490
v -0.863687 0.944932 -2.227006
v -0.863687 0.946576 -2.227006
v -0.864418 0.946576 -2.229490
v -0.863687 0.948220 -2.227006
v -0.864418 0.948220 -2.229490
v -0.863687 0.944932 -2.227006
v -0.861492 0.944932 -2.224936
v -0.861492 0.946576 -2.224936
v -0.863687 0.946576 -2.227006
v -0.861492 0.948220 -2.224936
v -0.863687 0.948220 -2.227006
v -0.864418 0.944932 -2.229490
v -0.864418 0.946576 -2.229490
v -0.863687 0.946576 -2.231974
v -0.863687 0.944932 -2.231974
v -0.863687 0.944932 -2.231974
v -0.863687 0.946576 -2.231974
v -0.861492 0.946576 -2.234044
v -0.861492 0.944932 -2.234044
v -0.864418 0.948220 -2.229490
v -0.863687 0.948220 -2.231974
v -0.863687 0.948220 -2.231974
v -0.861492 0.948220 -2.234044
v -0.863687 0.943288 -2.231974
v -0.864418 0.943288 -2.229490
v -0.863687 0.941644 -2.231974
v -0.864418 0.941644 -2.229490
v -0.861492 0.943288 -2.234044
v -0.863687 0.943288 -2.231974
v -0.861492 0.941644 -2.234044
v -0.863687 0.941644 -2.231974
v -0.864418 0.943288 -2.229490
v -0.863687 0.943288 -2.227006
v -0.863687 0.943288 -2.227006
v -0.861492 0.943288 -2.224936
v -0.864418 0.941644 -2.229490
v -0.863687 0.941644 -2.227006
v -0.863687 0.941644 -2.227006
v -0.861492 0.941644 -2.224936
vn 0.000000 0.000000 -1.000000
vn -0.209100 0.000000 -0.977900
vn -0.209100 0.000000 -0.977900
vn 0.000000 0.000000 -1.000000
vn -0.209100 0.000000 -0.977900
vn 0.000000 0.000000 -1.000000
vn -0.321500 0.000000 -0.946900
vn -0.321500 0.000000 -0.946900
vn -0.321500 0.000000 -0.946900
vn 0.209100 0.000000 -0.977900
vn 0.209100 0.000000 -0.977900
vn 0.321500 0.000000 -0.946900
vn 0.321500 0.000000 -0.946900
vn 0.209100 0.000000 -0.977900
vn 0.321500 0.000000 -0.946900
vn 0.209100 0.000000 -0.977900
vn 0.000000 0.000000 -1.000000
vn 0.209100 0.000000 -0.977900
vn 0.000000 0.000000 -1.000000
vn 0.321500 0.000000 -0.946900
vn 0.321500 0.000000 -0.946900
vn -0.209100 0.000000 -0.977900
vn -0.321500 0.000000 -0.946900
vn -0.209100 0.000000 -0.977900
vn -0.321500 0.000000 -0.946900
vn 0.000000 -1.000000 0.000000
vn 0.000000 -1.000000 0.000000
vn 0.000000 -1.000000 0.000000
vn 0.000000 -1.000000 0.000000
vn 0.000000 -1.000000 0.000000
vn 0.000000 -1.000000 0.000000
vn 0.000000 -1.000000 0.000000
vn 0.000000 -1.000000 0.000000
vn 0.000000 -1.000000 0.000000
vn 0.000000 -1.000000 0.000000
vn 0.000000 -1.000000 0.000000
vn 0.000000 -1.000000 0.000000
vn 0.000000 -1.000000 0.000000
vn 0.000000 -1.000000 0.000000
vn 0.000000 -1.000000 0.000000
vn 0.000000 -1.000000 0.000000
vn 0.000000 -1.000000 0.000000
vn 0.000000 -1.000000 0.000000
vn 0.000000 -1.000000 0.000000
vn 0.000000 -1.000000 0.000000
vn 0.000000 -1.000000 0.000000
vn 0.000000 -1.000000 0.000000
vn 0.000000 -1.000000 0.000000
vn 0.000000 -1.000000 0.000000
vn 0.000000 -1.000000 0.000000
vn 0.000000 0.000000 1.000000
vn 0.209100 0.000000 0.977900
vn 0.209100 0.000000 0.977900
vn 0.000000 0.000000 1.000000
vn 0.209100 0.000000 0.977900
vn 0.000000 0.000000 1.000000
vn 0.321600 0.000000 0.946900
vn 0.321500 0.000000 0.946900
vn 0.321500 0.000000 0.946900
vn -0.209100 0.000000 0.977900
vn -0.209100 0.000000 0.977900
vn -0.321500 0.000000 0.946900
vn -0.321600 0.000000 0.946900
vn -0.209100 0.000000 0.977900
vn -0.321500 0.000000 0.946900
vn -0.209100 0.000000 0.977900
vn 0.000000 0.000000 1.000000
vn -0.209100 0.000000 0.977900
vn 0.000000 0.000000 1.000000
vn -0.321600 0.000000 0.946900
vn -0.321500 0.000000 0.946900
vn 0.209100 0.000000 0.977900
vn 0.321600 0.000000 0.946900
vn 0.209100 0.000000 0.977900
vn 0.321500 0.000000 0.946900
vn 0.959300 0.000000 -0.282500
vn 0.959300 0.000000 -0.282500
vn 0.959300 0.000000 -0.282500
vn 0.959300 0.000000 -0.282500
vn 0.959300 0.000000 -0.282500
vn 0.959300 0.000000 -0.282500
vn 0.686200 0.000000 -0.727400
vn 0.686200 0.000000 -0.727400
vn 0.686200 0.000000 -0.727400
vn 0.686200 0.000000 -0.727400
vn 0.686200 0.000000 -0.727400
vn 0.686200 0.000000 -0.727400
vn 0.959300 0.000000 0.282500
vn 0.959300 0.000000 0.282500
vn 0.959300 0.000000 0.282500
vn 0.959300 0.000000 0.282500
vn 0.686100 0.000000 0.727500
vn 0.686100 0.000000 0.727500
vn 0.686100 0.000000 0.727500
vn 0.686100 0.000000 0.727500
vn 0.959300 0.000000 0.282500
vn 0.959300 0.000000 0.282500
vn 0.686100 0.000000 0.727400
vn 0.686100 0.000000 0.727400
vn 0.959300 0.000000 0.282500
vn 0.959300 0.000000 0.282500
vn 0.959300 0.000000 0.282500
vn 0.959300 0.000000 0.282500
vn 0.686100 0.000000 0.727400
vn 0.686100 0.000000 0.727400
vn 0.686100 0.000000 0.727400
vn 0.686100 0.000000 0.727400
vn 0.959300 0.000000 -0.282500
vn 0.959300 0.000000 -0.282500
vn 0.686200 0.000000 -0.727400
vn 0.686200 0.000000 -0.727400
vn 0.959300 0.000000 -0.282500
vn 0.959300 0.000000 -0.282500
vn 0.686200 0.000000 -0.727400
vn 0.686200 0.000000 -0.727400
vn -0.959300 0.000000 0.282500
vn -0.959300 0.000000 0.282500
vn -0.959300 0.000000 0.282500
vn -0.959300 0.000000 0.282500
vn -0.959300 0.000000 0.282500
vn -0.959300 0.000000 0.282500
vn -0.686100 0.000000 0.727500
vn -0.686100 0.000000 0.727500
vn -0.686100 0.000000 0.727500
vn -0.686100 0.000000 0.727500
vn -0.686100 0.000000 0.727400
vn -0.686100 0.000000 0.727400
vn -0.959300 0.000000 -0.282500
vn -0.959300 0.000000 -0.282500
vn -0.959300 0.000000 -0.282500
vn -0.959300 0.000000 -0.282500
vn -0.686200 0.000000 -0.727400
vn -0.686200 0.000000 -0.727400
vn -0.686200 0.000000 -0.727400
vn -0.686200 0.000000 -0.727400
vn -0.959300 0.000000 -0.282500
vn -0.959300 0.000000 -0.282500
vn -0.686200 0.000000 -0.727400
vn -0.686200 0.000000 -0.727400
vn -0.959300 0.000000 -0.282500
vn -0.959300 0.000000 -0.282500
vn -0.959300 0.000000 -0.282500
vn -0.959300 0.000000 -0.282500
vn -0.686200 0.000000 -0.727400
vn -0.686200 0.000000 -0.727400
vn -0.686200 0.000000 -0.727400
vn -0.686200 0.000000 -0.727400
vn -0.959300 0.000000 0.282500
vn -0.959300 0.000000 0.282500
vn -0.686100 0.000000 0.727400
vn -0.686100 0.000000 0.727400
vn -0.959300 0.000000 0.282500
vn -0.959300 0.000000 0.282500
vn -0.686100 0.000000 0.727400
vn -0.686100 0.000000 0.727400
vt 0.000000 0.000000
vt 0.000000 0.000000
vt 0.000000 0.000000
vt 0.000000 0.000000
vt 0.000000 0.000000
vt 0.000000 0.000000
vt 0.000000 0.000000
vt 0.000000 0.000000
vt 0.000000 0.000000
vt 0.000000 0.000000
vt 0.000000 0.000000
vt 0.000000 0.000000
vt 0.000000 0.000000
vt 0.000000 0.000000
vt 0.000000 0.000000
vt 0.000000 0.000000
vt 0.000000 0.000000
vt 0.000000 0.000000
vt 0.000000 0.000000
vt 0.000000 0.000000
vt 0.000000 0.000000
vt 0.000000 0.000000
vt 0.000000 0.000000
vt 0.000000 0.000000
vt 0.000000 0.000000
vt 0.000000 0.000000
vt 0.000000 0.000000
vt 0.000000 0.000000
vt 0.000000 0.000000
vt 0.000000 0.000000
vt 0.000000 0.000000
vt 0.000000 0.000000
vt 0.000000 0.000000
vt 0.000000 0.000000
vt 0.000000 0.000000
vt 0.000000 0.000000
vt 0.000000 0.000000
vt 0.000000 0.000000
vt 0.000000 0.000000
vt 0.000000 0.000000
vt 0.000000 0.000000
vt 0.000000 0.000000
vt 0.000000 0.000000
vt 0.000000 0.000000
vt 0.000000 0.000000
vt 0.000000 0.000000
vt 0.000000 0.000000
vt 0.000000 0.000000
vt 0.000000 0.000000
vt 0.000000 0.000000
vt 0.000000 0.000000
vt 0.000000 0.000000
vt 0.000000 0.000000
vt 0.000000 0.000000
vt 0.000000 0.000000
vt 0.000000 0.000000
vt 0.000000 0.000000
vt 0.000000 0.000000
vt 0.000000 0.000000
vt 0.000000 0.000000
vt 0.000000 0.000000
vt 0.000000 0.000000
vt 0.000000 0.000000
vt 0.000000 0.000000
vt 0.000000 0.000000
vt 0.000000 0.000000
vt 0.000000 0.000000
vt 0.000000 0.000000
vt 0.000000 0.000000
vt 0.000000 0.000000
vt 0.000000 0.000000
vt 0.000000 0.000000
vt 0.000000 0.000000
vt 0.000000 0.000000
vt 0.000000 0.000000
vt 0.000000 0.000000
vt 0.000000 0.000000
vt 0.000000 0.000000
vt 0.000000 0.000000
vt 0.000000 0.000000
vt 0.000000 0.000000
vt 0.000000 0.000000
vt 0.000000 0.000000
vt 0.000000 0.000000
vt 0.000000 0.000000
vt 0.000000 0.000000
vt 0.000000 0.000000
vt 0.000000 0.000000
vt 0.000000 0.000000
vt 0.000000 0.000000
vt 0.000000 0.000000
vt 0.000000 0.000000
vt 0.000000 0.000000
vt 0.000000 0.000000
vt 0.000000 0.000000
vt 0.000000 0.000000
vt 0.000000 0.000000
vt 0.000000 0.000000
vt 0.000000 0.000000
vt 0.000000 0.000000
vt 0.000000 0.000000
vt 0.000000 0.000000
vt 0.000000 0.000000
vt 0.000000 0.000000
vt 0.000000 0.000000
vt 0.000000 0.000000
vt 0.000000 0.000000
vt 0.000000 0.000000
vt 0.000000 0.000000
vt 0.000000 0.000000
vt 0.000000 0.000000
vt 0.000000 0.000000
vt 0.000000 0.000000
vt 0.000000 0.000000
vt 0.000000 0.000000
vt 0.000000 0.000000
vt 0.000000 0.000000
vt 0.000000 0.000000
vt 0.000000 0.000000
vt 0.000000 0.000000
vt 0.000000 0.000000
vt 0.000000 0.000000
vt 0.000000 0.000000
vt 0.000000 0.000000
vt 0.000000 0.000000
vt 0.000000 0.000000
vt 0.000000 0.000000
vt 0.000000 0.000000
vt 0.000000 0.000000
vt 0.000000 0.000000
vt 0.000000 0.000000
vt 0.000000 0.000000
vt 0.000000 0.000000
vt 0.000000 0.000000
vt 0.000000 0.000000
vt 0.000000 0.000000
vt 0.000000 0.000000
vt 0.000000 0.000000
vt 0.000000 0.000000
vt 0.000000 0.000000
vt 0.000000 0.000000
vt 0.000000 0.000000
vt 0.000000 0.000000
vt 0.000000 0.000000
vt 0.000000 0.000000
vt 0.000000 0.000000
vt 0.000000 0.000000
vt 0.000000 0.000000
vt 0.000000 0.000000
vt 0.000000 0.000000
vt 0.000000 0.000000
vt 0.000000 0.000000
vt 0.000000 0.000000
vt 0.000000 0.000000
vt 0.000000 0.000000
f 1/1/1 2/2/2 3/3/3
f 1/1/1 3/3/3 4/4/4
f 4/4/4 3/3/3 5/5/5
f 4/4/4 5/5/5 6/6/6
f 2/2/2 7/7/7 8/8/8
f 2/2/2 8/8/8 3/3/3
f 3/3/3 8/8/8 9/9/9
f 3/3/3 9/9/9 5/5/5
f 1/1/1 4/4/4 10/10/10
f 1/1/1 10/10/10 11/11/11
f 11/11/11 10/10/10 12/12/12
f 11/11/11 12/12/12 13/13/13
f 4/4/4 6/6/6 14/14/14
f 4/4/4 14/14/14 10/10/10
f 10/10/10 14/14/14 15/15/15
f 10/10/10 15/15/15 12/12/12
f 1/1/1 11/11/11 16/16/16
f 1/1/1 16/16/16 17/17/17
f 17/17/17 16/16/16 18/18/18
f 17/17/17 18/18/18 19/19/19
f 11/11/11 13/13/13 20/20/20
f 11/11/11 20/20/20 16/16/16
f 16/16/16 20/20/20 21/21/21
f 16/16/16 21/21/21 18/18/18
f 1/1/1 17/17/17 22/22/22
f 1/1/1 22/22/22 2/2/2
f 2/2/2 22/22/22 23/23/23
f 2/2/2 23/23/23 7/7/7
f 17/17/17 19/19/19 24/24/24
f 17/17/17 24/24/24 22/22/22
f 22/22/22 24/24/24 25/25/25
f 22/22/22 25/25/25 23/23/23
f 26/26/26 27/27/27 28/28/28
f 26/26/26 28/28/28 29/29/29
f 29/29/29 28/28/28 30/30/30
f 29/29/29 30/30/30 31/31/31
f 27/27/27 32/32/32 33/33/33
f 27/27/27 33/33/33 28/28/28
f 28/28/28 33/33/33 34/34/34
f 28/28/28 34/34/34 30/30/30
f 26/26/26 29/29/29 35/35/35
f 26/26/26 35/35/35 36/36/36
f 36/36/36 35/35/35 37/37/37
f 36/36/36 37/37/37 38/38/38
f 29/29/29 31/31/31 39/39/39
f 29/29/29 39/39/39 35/35/35
f 35/35/35 39/39/39 40/40/40
f 35/35/35 40/40/40 37/37/37
f 26/26/26 36/36/36 41/41/41
f 26/26/26 41/41/41 42/42/42
f 42/42/42 41/41/41 43/43/43
f 42/42/42 43/43/43 44/44/44
f 36/36/36 38/38/38 45/45/45
f 36/36/36 45/45/45 41/41/41
f 41/41/41 45/45/45 46/46/46
f 41/41/41 46/46/46 43/43/43
f 26/26/26 42/42/42 47/47/47
f 26/26/26 47/47/47 27/27/27
f 27/27/27 47/47/47 48/48/48
f 27/27/27 48/48/48 32/32/32
f 42/42/42 44/44/44 49/49/49
f 42/42/42 49/49/49 47/47/47
f 47/47/47 49/49/49 50/50/50
f 47/47/47 50/50/50 48/48/48
f 51/51/51 52/52/52 53/53/53
f 51/51/51 53/53/53 54/54/54
f 54/54/54 53/53/53 55/55/55
f 54/54/54 55/55/55 56/56/56
f 52/52/52 57/57/57 58/58/58
f 52/52/52 58/58/58 53/53/53
f 53/53/53 58/58/58 59/59/59
f 53/53/53 59/59/59 55/55/55
f 51/51/51 54/54/54 60/60/60
f 51/51/51 60/60/60 61/61/61
f 61/61/61 60/60/60 62/62/62
f 61/61/61 62/62/62 63/63/63
f 54/54/54 56/56/56 64/64/64
f 54/54/54 64/64/64 60/60/60
f 60/60/60 64/64/64 65/65/65
f 60/60/60 65/65/65 62/62/62
f 51/51/51 61/61/61 66/66/66
f 51/51/51 66/66/66 67/67/67
f 67/67/67 66/66/66 68/68/68
f 67/67/67 68/68/68 69/69/69
f 61/61/61 63/63/63 70/70/70
f 61/61/61 70/70/70 66/66/66
f 66/66/66 70/70/70 71/71/71
f 66/66/66 71/71/71 68/68/68
f 51/51/51 67/67/67 72/72/72
f 51/51/51 72/72/72 52/52/52
f 52/52/52 72/72/72 73/73/73
f 52/52/52 73/73/73 57/57/57
f 67/67/67 69/69/69 74/74/74
f 67/67/67 74/74/74 72/72/72
f 72/72/72 74/74/74 75/75/75
f 72/72/72 75/75/75 73/73/73
f 76/76/76 77/77/77 78/78/78
f 76/76/76 78/78/78 79/79/79
f 79/79/79 78/78/78 80/80/80
f 79/79/79 80/80/80 81/81/81
f 82/82/82 83/83/83 84/84/84
f 82/82/82 84/84/84 85/85/85
f 85/85/85 84/84/84 86/86/86
f 85/85/85 86/86/86 87/87/87
f 88/88/88 89/89/89 90/90/90
f 88/88/88 90/90/90 91/91/91
f 92/92/92 93/93/93 94/94/94
f 92/92/92 94/94/94 95/95/95
f 89/89/89 96/96/96 97/97/97
f 89/89/89 97/97/97 90/90/90
f 93/93/93 98/98/98 99/99/99
f 93/93/93 99/99/99 94/94/94
f 88/88/88 91/91/91 100/100/100
f 88/88/88 100/100/100 101/101/101
f 101/101/101 100/100/100 102/102/102
f 101/101/101 102/102/102 103/103/103
f 92/92/92 95/95/95 104/104/104
f 92/92/92 104/104/104 105/105/105
f 105/105/105 104/104/104 106/106/106
f 105/105/105 106/106/106 107/107/107
f 76/76/76 108/108/108 109/109/109
f 76/76/76 109/109/109 77/77/77
f 82/82/82 110/110/110 111/111/111
f 82/82/82 111/111/111 83/83/83
f 108/108/108 112/112/112 113/113/113
f 108/108/108 113/113/113 109/109/109
f 110/110/110 114/114/114 115/115/115
f 110/110/110 115/115/115 111/111/111
f 116/116/116 117/117/117 118/118/118
f 116/116/116 118/118/118 119/119/119
f 119/119/119 118/118/118 120/120/120
f 119/119/119 120/120/120 121/121/121
f 122/122/122 123/123/123 124/124/124
f 122/122/122 124/124/124 125/125/125
f 125/125/125 124/124/124 126/126/126
f 125/125/125 126/126/126 127/127/127
f 128/128/128 129/129/129 130/130/130
f 128/128/128 130/130/130 131/131/131
f 132/132/132 133/133/133 134/134/134
f 132/132/132 134/134/134 135/135/135
f 129/129/129 136/136/136 137/137/137
f 129/129/129 137/137/137 130/130/130
f 133/133/133 138/138/138 139/139/139
f 133/133/133 139/139/139 134/134/134
f 128/128/128 131/131/131 140/140/140
f 128/128/128 140/140/140 141/141/141
f 141/141/141 140/140/140 142/142/142
f 141/141/141 142/142/142 143/143/143
f 132/132/132 135/135/135 144/144/144
f 132/132/132 144/144/144 145/145/145
f 145/145/145 144/144/144 146/146/146
f 145/145/145 146/146/146 147/147/147
f 116/116/116 148/148/148 149/149/149
f 116/116/116 149/149/149 117/117/117
f 122/122/122 150/150/150 151/151/151
f 122/122/122 151/151/151 123/123/123
f 148/148/148 152/152/152 153/153/153
f 148/148/148 153/153/153 149/149/149
f 150/150/150 154/154/154 155/155/155
f 150/150/150 155/155/155 151/151/151
