v -2.402468 0.797014 -1.223918
v -2.401055 0.797365 -1.224283
v -2.401227 0.795524 -1.225042
v -2.402795 0.795313 -1.224509
v -2.404049 0.795122 -1.224259
v -2.403623 0.796597 -1.223851
v -2.403046 0.797488 -1.223588
v -2.402152 0.798195 -1.223460
v -2.400898 0.798687 -1.223671
v -2.399905 0.797323 -1.225247
v -2.399128 0.797139 -1.226181
v -2.398943 0.795738 -1.226907
v -2.399882 0.795664 -1.226020
v -2.399934 0.798463 -1.224610
v -2.399406 0.797926 -1.225475
v -2.399934 0.789576 -1.227462
v -2.398936 0.789709 -1.228162
v -2.399071 0.787560 -1.228208
v -2.399950 0.787443 -1.227580
v -2.401159 0.787288 -1.226824
v -2.401305 0.789401 -1.226615
v -2.401382 0.791490 -1.226277
v -2.399955 0.791677 -1.227176
v -2.398921 0.791820 -1.227929
v -2.402788 0.789232 -1.225982
v -2.402474 0.787139 -1.226272
v -2.403494 0.787027 -1.225915
v -2.403937 0.789107 -1.225569
v -2.404152 0.791190 -1.225216
v -2.402940 0.791318 -1.225628
v -2.402947 0.793380 -1.225108
v -2.401346 0.793549 -1.225730
v -2.404208 0.793257 -1.224747
v -2.399918 0.793745 -1.226679
v -2.398899 0.793897 -1.227500
v -2.400096 0.785278 -1.227573
v -2.399456 0.785366 -1.228073
v -2.399815 0.784120 -1.227842
v -2.400244 0.783642 -1.227504
v -2.400838 0.783563 -1.227070
v -2.400986 0.785163 -1.226985
v -2.401980 0.785052 -1.226596
v -2.401535 0.783487 -1.226835
v -2.402138 0.783840 -1.226638
v -2.402759 0.784968 -1.226361
v -2.402416 0.796959 -1.223781
v -2.400982 0.797311 -1.224154
v -2.400843 0.798645 -1.223576
v -2.402114 0.798152 -1.223357
v -2.403022 0.797456 -1.223510
v -2.403594 0.796556 -1.223744
v -2.404017 0.795085 -1.224152
v -2.402739 0.795264 -1.224371
v -2.401154 0.795477 -1.224911
v -2.399814 0.797273 -1.225129
v -2.399051 0.797103 -1.226099
v -2.399351 0.797898 -1.225414
v -2.399864 0.798423 -1.224524
v -2.399792 0.795620 -1.225899
v -2.398868 0.795706 -1.226821
v -2.399848 0.789559 -1.227331
v -2.398865 0.789697 -1.228068
v -2.398849 0.791802 -1.227836
v -2.399868 0.791652 -1.227047
v -2.401308 0.791463 -1.226141
v -2.401231 0.789382 -1.226477
v -2.401085 0.787276 -1.226685
v -2.399864 0.787432 -1.227448
v -2.399001 0.787552 -1.228113
v -2.402727 0.789213 -1.225838
v -2.402880 0.791289 -1.225486
v -2.404114 0.791167 -1.225107
v -2.403897 0.789091 -1.225459
v -2.403455 0.787015 -1.225803
v -2.402413 0.787125 -1.226127
v -2.402889 0.793340 -1.224968
v -2.401272 0.793511 -1.225596
v -2.404172 0.793227 -1.224638
v -2.399829 0.793709 -1.226554
v -2.398826 0.793872 -1.227410
v -2.400010 0.785270 -1.227441
v -2.399384 0.785360 -1.227978
v -2.400913 0.785153 -1.226845
v -2.400783 0.783556 -1.226965
v -2.400179 0.783636 -1.227405
v -2.399764 0.784116 -1.227771
v -2.401920 0.785040 -1.226451
v -2.402721 0.784958 -1.226249
v -2.402108 0.783834 -1.226556
v -2.401490 0.783478 -1.226725
v -2.399209 0.785392 -1.228199
v -2.399776 0.783704 -1.227870
v -2.398745 0.787595 -1.228376
v -2.399764 0.784116 -1.227771
v -2.401367 0.782962 -1.226866
v -2.402103 0.783424 -1.226664
v -2.400764 0.783026 -1.227052
v -2.402108 0.783834 -1.226556
v -2.403997 0.796440 -1.223780
v -2.403202 0.797561 -1.223503
v -2.404455 0.795042 -1.224127
v -2.403022 0.797456 -1.223510
v -2.399912 0.798824 -1.224360
v -2.399263 0.798035 -1.225545
v -2.400821 0.799109 -1.223425
v -2.399351 0.797898 -1.225414
v -2.398833 0.797062 -1.226458
v -2.398595 0.795748 -1.227166
v -2.400264 0.783095 -1.227437
v -2.403003 0.784935 -1.226232
v -2.403818 0.786984 -1.225746
v -2.402030 0.798569 -1.223262
v -2.404614 0.793203 -1.224578
v -2.404541 0.791137 -1.225030
v -2.398525 0.793937 -1.227734
v -2.398543 0.791860 -1.228139
v -2.398570 0.789748 -1.228354
v -2.404303 0.789058 -1.225382
vn -0.260000 0.385900 -0.885100
vn -0.460300 0.391400 -0.796800
vn -0.465200 0.335900 -0.819000
vn -0.286800 0.329200 -0.899600
vn -0.297200 0.305100 -0.904800
vn -0.267900 0.385200 -0.883100
vn -0.246600 0.440400 -0.863200
vn -0.288900 0.468600 -0.834800
vn -0.449400 0.475100 -0.756500
vn -0.642400 0.339800 -0.686900
vn -0.636300 0.340800 -0.692000
vn -0.622300 0.265900 -0.736200
vn -0.628500 0.288100 -0.722400
vn -0.601300 0.430800 -0.672900
vn -0.642600 0.392500 -0.658000
vn -0.560100 0.077900 -0.824700
vn -0.528600 0.073700 -0.845600
vn -0.524000 0.042000 -0.850600
vn -0.564700 0.044000 -0.824100
vn -0.464200 0.046800 -0.884500
vn -0.466800 0.089100 -0.879800
vn -0.469700 0.173500 -0.865600
vn -0.573700 0.151500 -0.804900
vn -0.550700 0.137800 -0.823200
vn -0.368300 0.101000 -0.924200
vn -0.358800 0.068800 -0.930800
vn -0.402700 0.056600 -0.913500
vn -0.401900 0.089000 -0.911300
vn -0.383400 0.157900 -0.909900
vn -0.358500 0.177400 -0.916500
vn -0.328000 0.263100 -0.907300
vn -0.468800 0.265100 -0.842600
vn -0.344300 0.236400 -0.908600
vn -0.599400 0.230400 -0.766600
vn -0.586100 0.207200 -0.783200
vn -0.584600 0.027000 -0.810800
vn -0.541400 0.020400 -0.840500
vn -0.566500 0.000000 -0.824100
vn -0.597200 -0.032000 -0.801400
vn -0.457300 -0.029300 -0.888800
vn -0.462700 0.026900 -0.886100
vn -0.333700 0.057300 -0.940900
vn -0.308100 0.003100 -0.951400
vn -0.349500 0.026300 -0.936500
vn -0.380700 0.039800 -0.923900
vn 0.235000 -0.364600 0.901000
vn 0.461800 -0.376200 0.803200
vn 0.466400 -0.316800 0.825900
vn 0.156700 -0.300900 0.940700
vn 0.040500 -0.270200 0.961900
vn 0.064700 -0.281100 0.957500
vn 0.135200 -0.282200 0.949800
vn 0.272300 -0.328300 0.904400
vn 0.465100 -0.336000 0.819000
vn 0.665300 -0.312700 0.677900
vn 0.790300 -0.193500 0.581300
vn 0.805400 -0.178200 0.565400
vn 0.729100 -0.232200 0.643800
vn 0.640400 -0.284000 0.713500
vn 0.745000 -0.208600 0.633600
vn 0.573600 -0.077300 0.815500
vn 0.662300 -0.073400 0.745700
vn 0.672600 -0.124300 0.729400
vn 0.586000 -0.150000 0.796300
vn 0.469700 -0.173300 0.865600
vn 0.466900 -0.088900 0.879800
vn 0.464200 -0.046700 0.884500
vn 0.580400 -0.045400 0.813000
vn 0.680600 -0.068000 0.729500
vn 0.353100 -0.103800 0.929800
vn 0.344300 -0.179100 0.921600
vn 0.237000 -0.176800 0.955300
vn 0.246400 -0.123500 0.961200
vn 0.222100 -0.123200 0.967200
vn 0.341400 -0.074100 0.937000
vn 0.314100 -0.263900 0.912000
vn 0.468800 -0.265100 0.842600
vn 0.197000 -0.241900 0.950100
vn 0.611000 -0.228100 0.758000
vn 0.703000 -0.180900 0.687800
vn 0.606700 -0.043900 0.793700
vn 0.720800 -0.095800 0.686500
vn 0.463600 -0.039000 0.885100
vn 0.467000 -0.092100 0.879400
vn 0.666200 -0.105800 0.738200
vn 0.743300 -0.118200 0.658400
vn 0.310900 -0.079600 0.947100
vn 0.170000 -0.162300 0.972000
vn 0.139000 -0.191300 0.971600
vn 0.244500 -0.156800 0.956900
vn 0.732900 -0.261500 -0.628000
vn 0.536300 -0.620100 -0.572500
vn 0.786900 -0.116500 -0.606000
vn 0.743300 -0.118200 0.658400
vn -0.153700 -0.988000 -0.010000
vn -0.645500 -0.762700 0.040100
vn 0.129500 -0.991300 0.020600
vn 0.139000 -0.191300 0.971600
vn -0.913500 0.315300 0.256900
vn -0.745900 0.584700 0.319000
vn -0.963600 0.110800 0.243400
vn 0.040500 -0.270200 0.961900
vn 0.476000 0.878100 0.048100
vn 0.564600 0.742400 -0.360600
vn 0.126400 0.884800 0.448400
vn 0.805400 -0.178200 0.565400
vn 0.658100 0.505600 -0.557800
vn 0.713800 0.313400 -0.626200
vn 0.263300 -0.937900 -0.225700
vn -0.867900 -0.454000 0.201700
vn -0.907200 -0.320500 0.272300
vn -0.391400 0.773900 0.497900
vn -0.966400 -0.036400 0.254500
vn -0.954300 -0.120700 0.273300
vn 0.752300 0.170800 -0.636200
vn 0.776600 0.088200 -0.623700
vn 0.795000 0.005600 -0.606600
vn -0.935100 -0.203100 0.290400
vt 0.839504 0.118056
vt 0.856743 0.205307
vt 0.741230 0.205307
vt 0.734555 0.106726
vt 0.724541 0.032791
vt 0.813647 0.052618
vt 0.868992 0.081539
vt 0.913398 0.129584
vt 0.940923 0.205307
vt 0.839504 0.292557
vt 0.813647 0.357995
vt 0.724541 0.377822
vt 0.734555 0.303887
vt 0.913398 0.281029
vt 0.868992 0.329074
vt 0.369475 0.299954
vt 0.368286 0.370940
vt 0.245840 0.351447
vt 0.246397 0.288815
vt 0.246768 0.205307
vt 0.370268 0.205307
vt 0.494283 0.205307
vt 0.492822 0.304944
vt 0.490632 0.379672
vt 0.369475 0.110659
vt 0.246397 0.121798
vt 0.245841 0.059166
vt 0.368286 0.039673
vt 0.490632 0.030941
vt 0.492822 0.105669
vt 0.616755 0.103478
vt 0.619174 0.205307
vt 0.613127 0.027106
vt 0.616755 0.307135
vt 0.613126 0.383507
vt 0.123273 0.268175
vt 0.123047 0.315326
vt 0.054743 0.283353
vt 0.030912 0.249131
vt 0.030973 0.205306
vt 0.123423 0.205306
vt 0.123273 0.142438
vt 0.030912 0.161481
vt 0.054744 0.127260
vt 0.123047 0.095287
vt 0.839504 0.118056
vt 0.856743 0.205307
vt 0.968983 0.205307
vt 0.938030 0.133427
vt 0.876123 0.061548
vt 0.805028 0.030806
vt 0.721203 0.008146
vt 0.734555 0.106726
vt 0.741230 0.205307
vt 0.839504 0.292557
vt 0.805028 0.379807
vt 0.876123 0.349065
vt 0.938030 0.277186
vt 0.734555 0.303887
vt 0.721203 0.402467
vt 0.369475 0.299954
vt 0.367890 0.394602
vt 0.489902 0.404581
vt 0.492822 0.304944
vt 0.494283 0.205307
vt 0.370268 0.205307
vt 0.246768 0.205307
vt 0.246397 0.288815
vt 0.245655 0.372324
vt 0.369475 0.110659
vt 0.492822 0.105669
vt 0.489902 0.006032
vt 0.367890 0.016011
vt 0.245655 0.038289
vt 0.246397 0.121798
vt 0.616755 0.103478
vt 0.619174 0.205307
vt 0.611917 0.001649
vt 0.616755 0.307135
vt 0.611917 0.408964
vt 0.123273 0.268175
vt 0.122972 0.331043
vt 0.123423 0.205306
vt 0.000156 0.205306
vt 0.000125 0.242784
vt 0.000064 0.280261
vt 0.123273 0.142438
vt 0.122972 0.079570
vt 0.000064 0.130352
vt 0.000125 0.167829
vt 0.122972 0.331043
vt 0.030806 0.283587
vt 0.245655 0.372324
vt 0.030806 0.283587
vt 0.000125 0.167829
vt 0.030806 0.127026
vt 0.000156 0.205306
vt 0.030806 0.127026
vt 0.805028 0.030806
vt 0.873826 0.071832
vt 0.721203 0.008146
vt 0.873826 0.071832
vt 0.938030 0.277186
vt 0.873826 0.338781
vt 0.968983 0.205307
vt 0.873826 0.338781
vt 0.805028 0.379807
vt 0.721203 0.402467
vt 0.000125 0.242784
vt 0.122972 0.079570
vt 0.245655 0.038289
vt 0.938030 0.133427
vt 0.611917 0.001649
vt 0.489902 0.006032
vt 0.611917 0.408964
vt 0.489902 0.404581
vt 0.367890 0.394602
vt 0.367890 0.016011
f 1/1/1 2/2/2 3/3/3
f 1/1/1 3/3/3 4/4/4
f 1/1/1 4/4/4 5/5/5
f 1/1/1 5/5/5 6/6/6
f 1/1/1 6/6/6 7/7/7
f 1/1/1 7/7/7 8/8/8
f 1/1/1 8/8/8 9/9/9
f 1/1/1 9/9/9 2/2/2
f 10/10/10 11/11/11 12/12/12
f 10/10/10 12/12/12 13/13/13
f 10/10/10 13/13/13 3/3/3
f 10/10/10 3/3/3 2/2/2
f 10/10/10 2/2/2 9/9/9
f 10/10/10 9/9/9 14/14/14
f 10/10/10 14/14/14 15/15/15
f 10/10/10 15/15/15 11/11/11
f 16/16/16 17/17/17 18/18/18
f 16/16/16 18/18/18 19/19/19
f 16/16/16 19/19/19 20/20/20
f 16/16/16 20/20/20 21/21/21
f 16/16/16 21/21/21 22/22/22
f 16/16/16 22/22/22 23/23/23
f 16/16/16 23/23/23 24/24/24
f 16/16/16 24/24/24 17/17/17
f 25/25/25 21/21/21 20/20/20
f 25/25/25 20/20/20 26/26/26
f 25/25/25 26/26/26 27/27/27
f 25/25/25 27/27/27 28/28/28
f 25/25/25 28/28/28 29/29/29
f 25/25/25 29/29/29 30/30/30
f 25/25/25 30/30/30 22/22/22
f 25/25/25 22/22/22 21/21/21
f 31/31/31 32/32/32 22/22/22
f 31/31/31 22/22/22 30/30/30
f 31/31/31 30/30/30 29/29/29
f 31/31/31 29/29/29 33/33/33
f 31/31/31 33/33/33 5/5/5
f 31/31/31 5/5/5 4/4/4
f 31/31/31 4/4/4 3/3/3
f 31/31/31 3/3/3 32/32/32
f 34/34/34 35/35/35 24/24/24
f 34/34/34 24/24/24 23/23/23
f 34/34/34 23/23/23 22/22/22
f 34/34/34 22/22/22 32/32/32
f 34/34/34 32/32/32 3/3/3
f 34/34/34 3/3/3 13/13/13
f 34/34/34 13/13/13 12/12/12
f 34/34/34 12/12/12 35/35/35
f 36/36/36 37/37/37 38/38/38
f 36/36/36 38/38/38 39/39/39
f 36/36/36 39/39/39 40/40/40
f 36/36/36 40/40/40 41/41/41
f 36/36/36 41/41/41 20/20/20
f 36/36/36 20/20/20 19/19/19
f 36/36/36 19/19/19 18/18/18
f 36/36/36 18/18/18 37/37/37
f 42/42/42 41/41/41 40/40/40
f 42/42/42 40/40/40 43/43/43
f 42/42/42 43/43/43 44/44/44
f 42/42/42 44/44/44 45/45/45
f 42/42/42 45/45/45 27/27/27
f 42/42/42 27/27/27 26/26/26
f 42/42/42 26/26/26 20/20/20
f 42/42/42 20/20/20 41/41/41
f 46/46/46 47/47/47 48/48/48
f 46/46/46 48/48/48 49/49/49
f 46/46/46 49/49/49 50/50/50
f 46/46/46 50/50/50 51/51/51
f 46/46/46 51/51/51 52/52/52
f 46/46/46 52/52/52 53/53/53
f 46/46/46 53/53/53 54/54/54
f 46/46/46 54/54/54 47/47/47
f 55/55/55 56/56/56 57/57/57
f 55/55/55 57/57/57 58/58/58
f 55/55/55 58/58/58 48/48/48
f 55/55/55 48/48/48 47/47/47
f 55/55/55 47/47/47 54/54/54
f 55/55/55 54/54/54 59/59/59
f 55/55/55 59/59/59 60/60/60
f 55/55/55 60/60/60 56/56/56
f 61/61/61 62/62/62 63/63/63
f 61/61/61 63/63/63 64/64/64
f 61/61/61 64/64/64 65/65/65
f 61/61/61 65/65/65 66/66/66
f 61/61/61 66/66/66 67/67/67
f 61/61/61 67/67/67 68/68/68
f 61/61/61 68/68/68 69/69/69
f 61/61/61 69/69/69 62/62/62
f 70/70/70 66/66/66 65/65/65
f 70/70/70 65/65/65 71/71/71
f 70/70/70 71/71/71 72/72/72
f 70/70/70 72/72/72 73/73/73
f 70/70/70 73/73/73 74/74/74
f 70/70/70 74/74/74 75/75/75
f 70/70/70 75/75/75 67/67/67
f 70/70/70 67/67/67 66/66/66
f 76/76/76 77/77/77 54/54/54
f 76/76/76 54/54/54 53/53/53
f 76/76/76 53/53/53 52/52/52
f 76/76/76 52/52/52 78/78/78
f 76/76/76 78/78/78 72/72/72
f 76/76/76 72/72/72 71/71/71
f 76/76/76 71/71/71 65/65/65
f 76/76/76 65/65/65 77/77/77
f 79/79/79 80/80/80 60/60/60
f 79/79/79 60/60/60 59/59/59
f 79/79/79 59/59/59 54/54/54
f 79/79/79 54/54/54 77/77/77
f 79/79/79 77/77/77 65/65/65
f 79/79/79 65/65/65 64/64/64
f 79/79/79 64/64/64 63/63/63
f 79/79/79 63/63/63 80/80/80
f 81/81/81 82/82/82 69/69/69
f 81/81/81 69/69/69 68/68/68
f 81/81/81 68/68/68 67/67/67
f 81/81/81 67/67/67 83/83/83
f 81/81/81 83/83/83 84/84/84
f 81/81/81 84/84/84 85/85/85
f 81/81/81 85/85/85 86/86/86
f 81/81/81 86/86/86 82/82/82
f 87/87/87 83/83/83 67/67/67
f 87/87/87 67/67/67 75/75/75
f 87/87/87 75/75/75 74/74/74
f 87/87/87 74/74/74 88/88/88
f 87/87/87 88/88/88 89/89/89
f 87/87/87 89/89/89 90/90/90
f 87/87/87 90/90/90 84/84/84
f 87/87/87 84/84/84 83/83/83
f 91/91/91 92/92/92 38/38/38
f 91/91/91 38/38/38 37/37/37
f 91/91/91 37/37/37 18/18/18
f 91/91/91 18/18/18 93/93/93
f 91/91/91 93/93/93 69/69/69
f 91/91/91 69/69/69 82/82/82
f 91/91/91 82/82/82 94/94/94
f 91/91/91 94/94/94 92/92/92
f 95/95/95 96/96/96 44/44/44
f 95/95/95 44/44/44 43/43/43
f 95/95/95 43/43/43 40/40/40
f 95/95/95 40/40/40 97/97/97
f 95/95/95 97/97/97 84/84/84
f 95/95/95 84/84/84 90/90/90
f 95/95/95 90/90/90 98/98/98
f 95/95/95 98/98/98 96/96/96
f 99/99/99 100/100/100 7/7/7
f 99/99/99 7/7/7 6/6/6
f 99/99/99 6/6/6 5/5/5
f 99/99/99 5/5/5 101/101/101
f 99/99/99 101/101/101 52/52/52
f 99/99/99 52/52/52 51/51/51
f 99/99/99 51/51/51 102/102/102
f 99/99/99 102/102/102 100/100/100
f 103/103/103 104/104/104 15/15/15
f 103/103/103 15/15/15 14/14/14
f 103/103/103 14/14/14 9/9/9
f 103/103/103 9/9/9 105/105/105
f 103/103/103 105/105/105 48/48/48
f 103/103/103 48/48/48 58/58/58
f 103/103/103 58/58/58 106/106/106
f 103/103/103 106/106/106 104/104/104
f 107/107/107 108/108/108 12/12/12
f 107/107/107 12/12/12 11/11/11
f 107/107/107 11/11/11 15/15/15
f 107/107/107 15/15/15 104/104/104
f 107/107/107 104/104/104 106/106/106
f 107/107/107 106/106/106 56/56/56
f 107/107/107 56/56/56 60/60/60
f 107/107/107 60/60/60 108/108/108
f 109/109/109 97/97/97 40/40/40
f 109/109/109 40/40/40 39/39/39
f 109/109/109 39/39/39 38/38/38
f 109/109/109 38/38/38 92/92/92
f 109/109/109 92/92/92 94/94/94
f 109/109/109 94/94/94 85/85/85
f 109/109/109 85/85/85 84/84/84
f 109/109/109 84/84/84 97/97/97
f 110/110/110 111/111/111 27/27/27
f 110/110/110 27/27/27 45/45/45
f 110/110/110 45/45/45 44/44/44
f 110/110/110 44/44/44 96/96/96
f 110/110/110 96/96/96 98/98/98
f 110/110/110 98/98/98 88/88/88
f 110/110/110 88/88/88 74/74/74
f 110/110/110 74/74/74 111/111/111
f 112/112/112 105/105/105 9/9/9
f 112/112/112 9/9/9 8/8/8
f 112/112/112 8/8/8 7/7/7
f 112/112/112 7/7/7 100/100/100
f 112/112/112 100/100/100 102/102/102
f 112/112/112 102/102/102 49/49/49
f 112/112/112 49/49/49 48/48/48
f 112/112/112 48/48/48 105/105/105
f 113/113/113 101/101/101 5/5/5
f 113/113/113 5/5/5 33/33/33
f 113/113/113 33/33/33 29/29/29
f 113/113/113 29/29/29 114/114/114
f 113/113/113 114/114/114 72/72/72
f 113/113/113 72/72/72 78/78/78
f 113/113/113 78/78/78 52/52/52
f 113/113/113 52/52/52 101/101/101
f 115/115/115 116/116/116 24/24/24
f 115/115/115 24/24/24 35/35/35
f 115/115/115 35/35/35 12/12/12
f 115/115/115 12/12/12 108/108/108
f 115/115/115 108/108/108 60/60/60
f 115/115/115 60/60/60 80/80/80
f 115/115/115 80/80/80 63/63/63
f 115/115/115 63/63/63 116/116/116
f 117/117/117 93/93/93 18/18/18
f 117/117/117 18/18/18 17/17/17
f 117/117/117 17/17/17 24/24/24
f 117/117/117 24/24/24 116/116/116
f 117/117/117 116/116/116 63/63/63
f 117/117/117 63/63/63 62/62/62
f 117/117/117 62/62/62 69/69/69
f 117/117/117 69/69/69 93/93/93
f 118/118/118 114/114/114 29/29/29
f 118/118/118 29/29/29 28/28/28
f 118/118/118 28/28/28 27/27/27
f 118/118/118 27/27/27 111/111/111
f 118/118/118 111/111/111 74/74/74
f 118/118/118 74/74/74 73/73/73
f 118/118/118 73/73/73 72/72/72
f 118/118/118 72/72/72 114/114/114
