v -2.316444 0.767739 -1.245181
v -2.317697 0.768282 -1.244637
v -2.316958 0.767352 -1.243083
v -2.315640 0.766805 -1.243880
v -2.314530 0.766459 -1.244382
v -2.315328 0.767339 -1.245387
v -2.316106 0.767872 -1.245892
v -2.317098 0.768362 -1.246086
v -2.318278 0.768912 -1.245788
v -2.318456 0.768890 -1.243535
v -2.318856 0.769357 -1.242501
v -2.318539 0.768752 -1.241103
v -2.317927 0.768113 -1.242010
v -2.318840 0.769358 -1.244661
v -2.318964 0.769507 -1.243555
v -2.316268 0.764391 -1.237435
v -2.317001 0.764962 -1.236674
v -2.316444 0.763357 -1.235424
v -2.315803 0.762847 -1.236102
v -2.314889 0.762218 -1.236964
v -2.315230 0.763683 -1.238404
v -2.315667 0.765055 -1.239898
v -2.316744 0.765805 -1.238879
v -2.317495 0.766417 -1.238074
v -2.314027 0.763110 -1.239268
v -2.313821 0.761714 -1.237723
v -2.312972 0.761370 -1.238264
v -2.313075 0.762716 -1.239885
v -2.313388 0.764068 -1.241434
v -2.314399 0.764465 -1.240796
v -2.314948 0.765705 -1.242376
v -2.316262 0.766276 -1.241480
v -2.313879 0.765342 -1.242998
v -2.317327 0.767065 -1.240431
v -2.318047 0.767726 -1.239589
v -2.315248 0.761197 -1.234885
v -2.315704 0.761597 -1.234361
v -2.315200 0.760497 -1.233916
v -2.314814 0.759910 -1.234021
v -2.314384 0.759559 -1.234486
v -2.314585 0.760713 -1.235540
v -2.313770 0.760352 -1.236094
v -2.313801 0.759330 -1.234850
v -2.313377 0.759454 -1.235407
v -2.313111 0.760114 -1.236482
v -2.316522 0.767614 -1.245226
v -2.317791 0.768165 -1.244669
v -2.318348 0.768823 -1.245811
v -2.317155 0.768267 -1.246118
v -2.316145 0.767801 -1.245919
v -2.315378 0.767243 -1.245426
v -2.314584 0.766366 -1.244424
v -2.315722 0.766684 -1.243929
v -2.317054 0.767237 -1.243120
v -2.318564 0.768782 -1.243555
v -2.318944 0.769283 -1.242509
v -2.319026 0.769449 -1.243562
v -2.318920 0.769277 -1.244674
v -2.318036 0.768007 -1.242036
v -2.318627 0.768678 -1.241118
v -2.316382 0.764300 -1.237487
v -2.317091 0.764897 -1.236708
v -2.317584 0.766348 -1.238104
v -2.316855 0.765709 -1.238924
v -2.315769 0.764952 -1.239951
v -2.315334 0.763586 -1.238464
v -2.314995 0.762125 -1.237028
v -2.315917 0.762760 -1.236158
v -2.316535 0.763295 -1.235461
v -2.314122 0.763008 -1.239335
v -2.314491 0.764357 -1.240858
v -2.313451 0.763985 -1.241484
v -2.313140 0.762638 -1.239939
v -2.313038 0.761295 -1.238322
v -2.313916 0.761616 -1.237795
v -2.315035 0.765590 -1.242431
v -2.316361 0.766168 -1.241525
v -2.313937 0.765254 -1.243044
v -2.317437 0.766964 -1.240466
v -2.318135 0.767654 -1.239611
v -2.315364 0.761113 -1.234942
v -2.315796 0.761537 -1.234399
v -2.314691 0.760622 -1.235606
v -2.314463 0.759491 -1.234536
v -2.314902 0.759847 -1.234064
v -2.315267 0.760452 -1.233945
v -2.313865 0.760255 -1.236168
v -2.313177 0.760039 -1.236542
v -2.313427 0.759399 -1.235450
v -2.313872 0.759258 -1.234906
v -2.315898 0.761704 -1.234203
v -2.315146 0.760200 -1.233638
v -2.316700 0.763500 -1.235213
v -2.315267 0.760452 -1.233945
v -2.313843 0.758958 -1.234461
v -2.313319 0.759156 -1.235132
v -2.314352 0.759144 -1.234157
v -2.313427 0.759399 -1.235450
v -2.314976 0.767162 -1.245474
v -2.316003 0.767869 -1.246049
v -2.314183 0.766302 -1.244569
v -2.316145 0.767801 -1.245919
v -2.319003 0.769478 -1.245041
v -2.319095 0.769637 -1.243521
v -2.318503 0.769082 -1.246181
v -2.319026 0.769449 -1.243562
v -2.319030 0.769481 -1.242158
v -2.318783 0.768933 -1.240806
v -2.314708 0.759453 -1.233753
v -2.312919 0.760000 -1.236639
v -2.312717 0.761222 -1.238471
v -2.317341 0.768527 -1.246401
v -2.313547 0.765181 -1.243227
v -2.313078 0.763898 -1.241669
v -2.318327 0.767915 -1.239318
v -2.317786 0.766591 -1.237818
v -2.317286 0.765124 -1.236434
v -2.312785 0.762550 -1.240116
vn 0.430800 0.848500 0.307300
vn 0.590000 0.789400 0.169400
vn 0.612200 0.760400 0.216800
vn 0.471300 0.812800 0.342200
vn 0.487300 0.797000 0.356700
vn 0.437400 0.846500 0.303400
vn 0.400900 0.877300 0.263700
vn 0.426300 0.879500 0.211500
vn 0.551200 0.829000 0.094100
vn 0.737200 0.673300 0.056600
vn 0.733100 0.677300 0.061800
vn 0.748300 0.647700 0.143400
vn 0.745300 0.656100 0.118100
vn 0.676400 0.736500 0.006700
vn 0.718100 0.695900 0.004200
vn 0.754000 0.560700 0.342000
vn 0.731700 0.571900 0.370700
vn 0.735200 0.550700 0.395200
vn 0.764900 0.534000 0.360300
vn 0.688600 0.578100 0.437700
vn 0.681300 0.607700 0.408000
vn 0.662800 0.664000 0.346100
vn 0.746100 0.604700 0.278700
vn 0.733000 0.606400 0.308200
vn 0.600100 0.648700 0.467900
vn 0.599800 0.628300 0.495300
vn 0.637900 0.606400 0.474600
vn 0.630200 0.630000 0.453800
vn 0.598700 0.683200 0.418000
vn 0.573500 0.703400 0.420000
vn 0.525200 0.764900 0.372800
vn 0.636800 0.720300 0.274900
vn 0.546200 0.744500 0.383900
vn 0.742800 0.640500 0.194800
vn 0.740300 0.633400 0.225200
vn 0.782900 0.511600 0.353900
vn 0.752800 0.526900 0.394500
vn 0.775400 0.499800 0.385900
vn 0.803600 0.459700 0.378000
vn 0.698700 0.522100 0.489100
vn 0.691600 0.563800 0.451400
vn 0.581700 0.626700 0.518500
vn 0.571700 0.592200 0.567800
vn 0.601700 0.598800 0.528600
vn 0.624100 0.600300 0.500100
vn -0.416300 -0.843000 -0.340500
vn -0.596400 -0.781600 -0.182500
vn -0.619300 -0.749800 -0.232800
vn -0.368000 -0.821600 -0.435300
vn -0.272100 -0.815800 -0.510300
vn -0.291000 -0.820500 -0.492000
vn -0.354200 -0.813800 -0.460700
vn -0.459400 -0.815700 -0.351500
vn -0.612200 -0.760400 -0.216700
vn -0.761300 -0.645800 -0.058300
vn -0.872900 -0.487600 -0.016100
vn -0.885100 -0.465300 -0.008800
vn -0.826800 -0.559300 -0.059800
vn -0.754500 -0.646900 -0.110000
vn -0.843300 -0.534000 -0.060700
vn -0.763900 -0.553900 -0.331000
vn -0.826600 -0.503300 -0.251700
vn -0.821300 -0.532100 -0.205700
vn -0.755300 -0.597500 -0.269100
vn -0.662900 -0.663800 -0.346200
vn -0.681300 -0.607600 -0.408100
vn -0.688600 -0.578000 -0.437800
vn -0.775900 -0.527500 -0.346000
vn -0.839900 -0.488300 -0.236900
vn -0.587200 -0.655000 -0.475500
vn -0.561500 -0.708400 -0.427600
vn -0.471900 -0.732000 -0.491400
vn -0.493100 -0.694100 -0.524400
vn -0.472100 -0.698700 -0.537500
vn -0.584300 -0.637000 -0.502700
vn -0.513500 -0.769000 -0.380600
vn -0.636900 -0.720300 -0.274900
vn -0.420100 -0.780500 -0.462900
vn -0.751600 -0.632900 -0.185900
vn -0.825800 -0.548400 -0.131000
vn -0.794900 -0.513100 -0.323700
vn -0.859000 -0.481100 -0.174900
vn -0.689800 -0.572500 -0.443100
vn -0.680700 -0.609900 -0.405800
vn -0.821300 -0.524000 -0.225400
vn -0.867200 -0.479900 -0.133200
vn -0.557800 -0.648800 -0.517600
vn -0.417300 -0.733700 -0.536100
vn -0.382500 -0.757000 -0.529700
vn -0.483400 -0.717100 -0.502000
vn -0.443600 0.222500 0.868100
vn -0.204400 -0.098700 0.973900
vn -0.529500 0.322400 0.784600
vn -0.867200 -0.479900 -0.133200
vn 0.343000 -0.764300 0.545900
vn 0.742500 -0.639800 0.198300
vn 0.070700 -0.775000 0.628000
vn -0.382500 -0.757000 -0.529700
vn 0.712200 0.047900 -0.700300
vn 0.483400 0.223000 -0.846500
vn 0.803900 -0.103900 -0.585700
vn -0.272100 -0.815800 -0.510300
vn -0.633700 0.667100 -0.391600
vn -0.566800 0.823700 0.012800
vn -0.427800 0.405700 -0.807700
vn -0.885100 -0.465300 -0.008800
vn -0.547400 0.768700 0.330800
vn -0.540600 0.665500 0.514600
vn 0.009300 -0.573200 0.819300
vn 0.839700 -0.511700 -0.181400
vn 0.828900 -0.454100 -0.326400
vn 0.062800 0.268900 -0.961100
vn 0.832600 -0.225200 -0.506000
vn 0.832600 -0.302100 -0.464200
vn -0.545200 0.562900 0.621100
vn -0.555100 0.491900 0.670800
vn -0.561100 0.417700 0.714600
vn 0.826000 -0.375900 -0.419900
vt 0.839504 0.118056
vt 0.856743 0.205307
vt 0.741230 0.205307
vt 0.734555 0.106726
vt 0.724541 0.032791
vt 0.813647 0.052618
vt 0.868992 0.081539
vt 0.913398 0.129584
vt 0.940923 0.205307
vt 0.839504 0.292557
vt 0.813647 0.357995
vt 0.724541 0.377822
vt 0.734555 0.303887
vt 0.913398 0.281029
vt 0.868992 0.329074
vt 0.369475 0.299954
vt 0.368286 0.370940
vt 0.245840 0.351447
vt 0.246397 0.288815
vt 0.246768 0.205307
vt 0.370268 0.205307
vt 0.494283 0.205307
vt 0.492822 0.304944
vt 0.490632 0.379672
vt 0.369475 0.110659
vt 0.246397 0.121798
vt 0.245841 0.059166
vt 0.368286 0.039673
vt 0.490632 0.030941
vt 0.492822 0.105669
vt 0.616755 0.103478
vt 0.619174 0.205307
vt 0.613127 0.027106
vt 0.616755 0.307135
vt 0.613126 0.383507
vt 0.123273 0.268175
vt 0.123047 0.315326
vt 0.054743 0.283353
vt 0.030912 0.249131
vt 0.030973 0.205306
vt 0.123423 0.205306
vt 0.123273 0.142438
vt 0.030912 0.161481
vt 0.054744 0.127260
vt 0.123047 0.095287
vt 0.839504 0.118056
vt 0.856743 0.205307
vt 0.968983 0.205307
vt 0.938030 0.133427
vt 0.876123 0.061548
vt 0.805028 0.030806
vt 0.721203 0.008146
vt 0.734555 0.106726
vt 0.741230 0.205307
vt 0.839504 0.292557
vt 0.805028 0.379807
vt 0.876123 0.349065
vt 0.938030 0.277186
vt 0.734555 0.303887
vt 0.721203 0.402467
vt 0.369475 0.299954
vt 0.367890 0.394602
vt 0.489902 0.404581
vt 0.492822 0.304944
vt 0.494283 0.205307
vt 0.370268 0.205307
vt 0.246768 0.205307
vt 0.246397 0.288815
vt 0.245655 0.372324
vt 0.369475 0.110659
vt 0.492822 0.105669
vt 0.489902 0.006032
vt 0.367890 0.016011
vt 0.245655 0.038289
vt 0.246397 0.121798
vt 0.616755 0.103478
vt 0.619174 0.205307
vt 0.611917 0.001649
vt 0.616755 0.307135
vt 0.611917 0.408964
vt 0.123273 0.268175
vt 0.122972 0.331043
vt 0.123423 0.205306
vt 0.000156 0.205306
vt 0.000125 0.242784
vt 0.000064 0.280261
vt 0.123273 0.142438
vt 0.122972 0.079570
vt 0.000064 0.130352
vt 0.000125 0.167829
vt 0.122972 0.331043
vt 0.030806 0.283587
vt 0.245655 0.372324
vt 0.030806 0.283587
vt 0.000125 0.167829
vt 0.030806 0.127026
vt 0.000156 0.205306
vt 0.030806 0.127026
vt 0.805028 0.030806
vt 0.873826 0.071832
vt 0.721203 0.008146
vt 0.873826 0.071832
vt 0.938030 0.277186
vt 0.873826 0.338781
vt 0.968983 0.205307
vt 0.873826 0.338781
vt 0.805028 0.379807
vt 0.721203 0.402467
vt 0.000125 0.242784
vt 0.122972 0.079570
vt 0.245655 0.038289
vt 0.938030 0.133427
vt 0.611917 0.001649
vt 0.489902 0.006032
vt 0.611917 0.408964
vt 0.489902 0.404581
vt 0.367890 0.394602
vt 0.367890 0.016011
f 1/1/1 2/2/2 3/3/3
f 1/1/1 3/3/3 4/4/4
f 1/1/1 4/4/4 5/5/5
f 1/1/1 5/5/5 6/6/6
f 1/1/1 6/6/6 7/7/7
f 1/1/1 7/7/7 8/8/8
f 1/1/1 8/8/8 9/9/9
f 1/1/1 9/9/9 2/2/2
f 10/10/10 11/11/11 12/12/12
f 10/10/10 12/12/12 13/13/13
f 10/10/10 13/13/13 3/3/3
f 10/10/10 3/3/3 2/2/2
f 10/10/10 2/2/2 9/9/9
f 10/10/10 9/9/9 14/14/14
f 10/10/10 14/14/14 15/15/15
f 10/10/10 15/15/15 11/11/11
f 16/16/16 17/17/17 18/18/18
f 16/16/16 18/18/18 19/19/19
f 16/16/16 19/19/19 20/20/20
f 16/16/16 20/20/20 21/21/21
f 16/16/16 21/21/21 22/22/22
f 16/16/16 22/22/22 23/23/23
f 16/16/16 23/23/23 24/24/24
f 16/16/16 24/24/24 17/17/17
f 25/25/25 21/21/21 20/20/20
f 25/25/25 20/20/20 26/26/26
f 25/25/25 26/26/26 27/27/27
f 25/25/25 27/27/27 28/28/28
f 25/25/25 28/28/28 29/29/29
f 25/25/25 29/29/29 30/30/30
f 25/25/25 30/30/30 22/22/22
f 25/25/25 22/22/22 21/21/21
f 31/31/31 32/32/32 22/22/22
f 31/31/31 22/22/22 30/30/30
f 31/31/31 30/30/30 29/29/29
f 31/31/31 29/29/29 33/33/33
f 31/31/31 33/33/33 5/5/5
f 31/31/31 5/5/5 4/4/4
f 31/31/31 4/4/4 3/3/3
f 31/31/31 3/3/3 32/32/32
f 34/34/34 35/35/35 24/24/24
f 34/34/34 24/24/24 23/23/23
f 34/34/34 23/23/23 22/22/22
f 34/34/34 22/22/22 32/32/32
f 34/34/34 32/32/32 3/3/3
f 34/34/34 3/3/3 13/13/13
f 34/34/34 13/13/13 12/12/12
f 34/34/34 12/12/12 35/35/35
f 36/36/36 37/37/37 38/38/38
f 36/36/36 38/38/38 39/39/39
f 36/36/36 39/39/39 40/40/40
f 36/36/36 40/40/40 41/41/41
f 36/36/36 41/41/41 20/20/20
f 36/36/36 20/20/20 19/19/19
f 36/36/36 19/19/19 18/18/18
f 36/36/36 18/18/18 37/37/37
f 42/42/42 41/41/41 40/40/40
f 42/42/42 40/40/40 43/43/43
f 42/42/42 43/43/43 44/44/44
f 42/42/42 44/44/44 45/45/45
f 42/42/42 45/45/45 27/27/27
f 42/42/42 27/27/27 26/26/26
f 42/42/42 26/26/26 20/20/20
f 42/42/42 20/20/20 41/41/41
f 46/46/46 47/47/47 48/48/48
f 46/46/46 48/48/48 49/49/49
f 46/46/46 49/49/49 50/50/50
f 46/46/46 50/50/50 51/51/51
f 46/46/46 51/51/51 52/52/52
f 46/46/46 52/52/52 53/53/53
f 46/46/46 53/53/53 54/54/54
f 46/46/46 54/54/54 47/47/47
f 55/55/55 56/56/56 57/57/57
f 55/55/55 57/57/57 58/58/58
f 55/55/55 58/58/58 48/48/48
f 55/55/55 48/48/48 47/47/47
f 55/55/55 47/47/47 54/54/54
f 55/55/55 54/54/54 59/59/59
f 55/55/55 59/59/59 60/60/60
f 55/55/55 60/60/60 56/56/56
f 61/61/61 62/62/62 63/63/63
f 61/61/61 63/63/63 64/64/64
f 61/61/61 64/64/64 65/65/65
f 61/61/61 65/65/65 66/66/66
f 61/61/61 66/66/66 67/67/67
f 61/61/61 67/67/67 68/68/68
f 61/61/61 68/68/68 69/69/69
f 61/61/61 69/69/69 62/62/62
f 70/70/70 66/66/66 65/65/65
f 70/70/70 65/65/65 71/71/71
f 70/70/70 71/71/71 72/72/72
f 70/70/70 72/72/72 73/73/73
f 70/70/70 73/73/73 74/74/74
f 70/70/70 74/74/74 75/75/75
f 70/70/70 75/75/75 67/67/67
f 70/70/70 67/67/67 66/66/66
f 76/76/76 77/77/77 54/54/54
f 76/76/76 54/54/54 53/53/53
f 76/76/76 53/53/53 52/52/52
f 76/76/76 52/52/52 78/78/78
f 76/76/76 78/78/78 72/72/72
f 76/76/76 72/72/72 71/71/71
f 76/76/76 71/71/71 65/65/65
f 76/76/76 65/65/65 77/77/77
f 79/79/79 80/80/80 60/60/60
f 79/79/79 60/60/60 59/59/59
f 79/79/79 59/59/59 54/54/54
f 79/79/79 54/54/54 77/77/77
f 79/79/79 77/77/77 65/65/65
f 79/79/79 65/65/65 64/64/64
f 79/79/79 64/64/64 63/63/63
f 79/79/79 63/63/63 80/80/80
f 81/81/81 82/82/82 69/69/69
f 81/81/81 69/69/69 68/68/68
f 81/81/81 68/68/68 67/67/67
f 81/81/81 67/67/67 83/83/83
f 81/81/81 83/83/83 84/84/84
f 81/81/81 84/84/84 85/85/85
f 81/81/81 85/85/85 86/86/86
f 81/81/81 86/86/86 82/82/82
f 87/87/87 83/83/83 67/67/67
f 87/87/87 67/67/67 75/75/75
f 87/87/87 75/75/75 74/74/74
f 87/87/87 74/74/74 88/88/88
f 87/87/87 88/88/88 89/89/89
f 87/87/87 89/89/89 90/90/90
f 87/87/87 90/90/90 84/84/84
f 87/87/87 84/84/84 83/83/83
f 91/91/91 92/92/92 38/38/38
f 91/91/91 38/38/38 37/37/37
f 91/91/91 37/37/37 18/18/18
f 91/91/91 18/18/18 93/93/93
f 91/91/91 93/93/93 69/69/69
f 91/91/91 69/69/69 82/82/82
f 91/91/91 82/82/82 94/94/94
f 91/91/91 94/94/94 92/92/92
f 95/95/95 96/96/96 44/44/44
f 95/95/95 44/44/44 43/43/43
f 95/95/95 43/43/43 40/40/40
f 95/95/95 40/40/40 97/97/97
f 95/95/95 97/97/97 84/84/84
f 95/95/95 84/84/84 90/90/90
f 95/95/95 90/90/90 98/98/98
f 95/95/95 98/98/98 96/96/96
f 99/99/99 100/100/100 7/7/7
f 99/99/99 7/7/7 6/6/6
f 99/99/99 6/6/6 5/5/5
f 99/99/99 5/5/5 101/101/101
f 99/99/99 101/101/101 52/52/52
f 99/99/99 52/52/52 51/51/51
f 99/99/99 51/51/51 102/102/102
f 99/99/99 102/102/102 100/100/100
f 103/103/103 104/104/104 15/15/15
f 103/103/103 15/15/15 14/14/14
f 103/103/103 14/14/14 9/9/9
f 103/103/103 9/9/9 105/105/105
f 103/103/103 105/105/105 48/48/48
f 103/103/103 48/48/48 58/58/58
f 103/103/103 58/58/58 106/106/106
f 103/103/103 106/106/106 104/104/104
f 107/107/107 108/108/108 12/12/12
f 107/107/107 12/12/12 11/11/11
f 107/107/107 11/11/11 15/15/15
f 107/107/107 15/15/15 104/104/104
f 107/107/107 104/104/104 106/106/106
f 107/107/107 106/106/106 56/56/56
f 107/107/107 56/56/56 60/60/60
f 107/107/107 60/60/60 108/108/108
f 109/109/109 97/97/97 40/40/40
f 109/109/109 40/40/40 39/39/39
f 109/109/109 39/39/39 38/38/38
f 109/109/109 38/38/38 92/92/92
f 109/109/109 92/92/92 94/94/94
f 109/109/109 94/94/94 85/85/85
f 109/109/109 85/85/85 84/84/84
f 109/109/109 84/84/84 97/97/97
f 110/110/110 111/111/111 27/27/27
f 110/110/110 27/27/27 45/45/45
f 110/110/110 45/45/45 44/44/44
f 110/110/110 44/44/44 96/96/96
f 110/110/110 96/96/96 98/98/98
f 110/110/110 98/98/98 88/88/88
f 110/110/110 88/88/88 74/74/74
f 110/110/110 74/74/74 111/111/111
f 112/112/112 105/105/105 9/9/9
f 112/112/112 9/9/9 8/8/8
f 112/112/112 8/8/8 7/7/7
f 112/112/112 7/7/7 100/100/100
f 112/112/112 100/100/100 102/102/102
f 112/112/112 102/102/102 49/49/49
f 112/112/112 49/49/49 48/48/48
f 112/112/112 48/48/48 105/105/105
f 113/113/113 101/101/101 5/5/5
f 113/113/113 5/5/5 33/33/33
f 113/113/113 33/33/33 29/29/29
f 113/113/113 29/29/29 114/114/114
f 113/113/113 114/114/114 72/72/72
f 113/113/113 72/72/72 78/78/78
f 113/113/113 78/78/78 52/52/52
f 113/113/113 52/52/52 101/101/101
f 115/115/115 116/116/116 24/24/24
f 115/115/115 24/24/24 35/35/35
f 115/115/115 35/35/35 12/12/12
f 115/115/115 12/12/12 108/108/108
f 115/115/115 108/108/108 60/60/60
f 115/115/115 60/60/60 80/80/80
f 115/115/115 80/80/80 63/63/63
f 115/115/115 63/63/63 116/116/116
f 117/117/117 93/93/93 18/18/18
f 117/117/117 18/18/18 17/17/17
f 117/117/117 17/17/17 24/24/24
f 117/117/117 24/24/24 116/116/116
f 117/117/117 116/116/116 63/63/63
f 117/117/117 63/63/63 62/62/62
f 117/117/117 62/62/62 69/69/69
f 117/117/117 69/69/69 93/93/93
f 118/118/118 114/114/114 29/29/29
f 118/118/118 29/29/29 28/28/28
f 118/118/118 28/28/28 27/27/27
f 118/118/118 27/27/27 111/111/111
f 118/118/118 111/111/111 74/74/74
f 118/118/118 74/74/74 73/73/73
f 118/118/118 73/73/73 72/72/72
f 118/118/118 72/72/72 114/114/114
