v -2.384599 0.797358 -1.178806
v -2.386227 0.797017 -1.181631
v -2.389156 0.795573 -1.178738
v -2.386960 0.796033 -1.175866
v -2.385523 0.796607 -1.173504
v -2.383791 0.797762 -1.176278
v -2.383024 0.798135 -1.178508
v -2.382966 0.798129 -1.181011
v -2.384042 0.797933 -1.183782
v -2.389006 0.797175 -1.183360
v -2.391520 0.797440 -1.184265
v -2.394303 0.796242 -1.182576
v -2.391968 0.795825 -1.181042
v -2.386780 0.797970 -1.184953
v -2.389283 0.797874 -1.184975
v -2.400332 0.789116 -1.172577
v -2.402348 0.789309 -1.174331
v -2.404400 0.786423 -1.171234
v -2.402606 0.786238 -1.169692
v -2.400316 0.786138 -1.167559
v -2.397754 0.789015 -1.170154
v -2.395060 0.791620 -1.172865
v -2.397770 0.791754 -1.175389
v -2.399898 0.791998 -1.177206
v -2.395425 0.789320 -1.167505
v -2.398266 0.786419 -1.165208
v -2.396795 0.786740 -1.163374
v -2.393749 0.789667 -1.165445
v -2.390903 0.792373 -1.167911
v -2.392636 0.791968 -1.170084
v -2.389727 0.794221 -1.172915
v -2.392148 0.793790 -1.175771
v -2.388028 0.794749 -1.170656
v -2.394936 0.794004 -1.178298
v -2.397156 0.794369 -1.180089
v -2.404572 0.783270 -1.166568
v -2.405950 0.783466 -1.167685
v -2.406433 0.781712 -1.165460
v -2.405915 0.780976 -1.164155
v -2.404687 0.780837 -1.163115
v -2.402834 0.783151 -1.165001
v -2.401333 0.783405 -1.163221
v -2.403695 0.781069 -1.161861
v -2.402439 0.781878 -1.161333
v -2.400271 0.783702 -1.161816
v -2.384471 0.797044 -1.178852
v -2.386130 0.796699 -1.181711
v -2.383973 0.797693 -1.183839
v -2.382871 0.797893 -1.181041
v -2.382946 0.797962 -1.178523
v -2.383679 0.797531 -1.176295
v -2.385408 0.796378 -1.173532
v -2.386825 0.795724 -1.175925
v -2.389050 0.795259 -1.178827
v -2.388943 0.796858 -1.183474
v -2.391490 0.797205 -1.184367
v -2.389258 0.797699 -1.185045
v -2.386739 0.797732 -1.185037
v -2.391892 0.795513 -1.181162
v -2.394261 0.796010 -1.182681
v -2.400208 0.788833 -1.172728
v -2.402265 0.789097 -1.174455
v -2.399826 0.791780 -1.177323
v -2.397658 0.791461 -1.175530
v -2.394926 0.791326 -1.172984
v -2.397607 0.788732 -1.170284
v -2.400161 0.785862 -1.167697
v -2.402473 0.785963 -1.169852
v -2.404312 0.786218 -1.171364
v -2.395258 0.789039 -1.167613
v -2.392480 0.791676 -1.170179
v -2.390775 0.792157 -1.167970
v -2.393614 0.789458 -1.165514
v -2.396653 0.786537 -1.163449
v -2.398091 0.786146 -1.165323
v -2.389582 0.793919 -1.172992
v -2.392028 0.793485 -1.175875
v -2.387907 0.794525 -1.170700
v -2.394842 0.793700 -1.178428
v -2.397099 0.794142 -1.180199
v -2.404438 0.782999 -1.166732
v -2.405862 0.783263 -1.167820
v -2.402677 0.782879 -1.165142
v -2.404569 0.780633 -1.163221
v -2.405815 0.780773 -1.164279
v -2.406364 0.781562 -1.165556
v -2.401154 0.783135 -1.163338
v -2.400126 0.783502 -1.161892
v -2.402334 0.781729 -1.161392
v -2.403560 0.780867 -1.161948
v -2.406373 0.783441 -1.168120
v -2.406924 0.781118 -1.164967
v -2.404961 0.786394 -1.171808
v -2.406364 0.781562 -1.165556
v -2.404422 0.780200 -1.161447
v -2.402924 0.781285 -1.160833
v -2.405252 0.779975 -1.162533
v -2.402334 0.781729 -1.161392
v -2.383468 0.797795 -1.175440
v -2.382658 0.798271 -1.178353
v -2.384990 0.796698 -1.172725
v -2.382946 0.797962 -1.178523
v -2.386021 0.798129 -1.185521
v -2.389430 0.797989 -1.185351
v -2.383283 0.798131 -1.184524
v -2.389258 0.797699 -1.185045
v -2.392348 0.797425 -1.184616
v -2.395066 0.796278 -1.183137
v -2.406318 0.780122 -1.163406
v -2.399850 0.783713 -1.161379
v -2.396239 0.786757 -1.162794
v -2.382380 0.798281 -1.181758
v -2.387405 0.794826 -1.169919
v -2.390266 0.792412 -1.167210
v -2.397874 0.794390 -1.180738
v -2.400578 0.791983 -1.177866
v -2.402985 0.789279 -1.174973
v -2.393128 0.789690 -1.164786
vn -0.403400 0.913500 0.052200
vn -0.244700 0.949000 0.198500
vn -0.284700 0.928600 0.238100
vn -0.428500 0.896900 0.109000
vn -0.438700 0.888800 0.132400
vn -0.398600 0.915300 0.058400
vn -0.367700 0.929900 0.006400
vn -0.314600 0.949000 0.020000
vn -0.180400 0.974200 0.135400
vn -0.102400 0.926000 0.363200
vn -0.108600 0.927300 0.358100
vn -0.182700 0.899400 0.397000
vn -0.159400 0.908100 0.387100
vn -0.068800 0.959200 0.274100
vn -0.056200 0.942900 0.328300
vn -0.363300 0.804200 0.470400
vn -0.395200 0.800800 0.450100
vn -0.415300 0.781100 0.466200
vn -0.376000 0.783600 0.494600
vn -0.465700 0.779300 0.419200
vn -0.441900 0.805300 0.395200
vn -0.391800 0.853000 0.344800
vn -0.308900 0.846000 0.434600
vn -0.339200 0.838400 0.426500
vn -0.514400 0.797800 0.314300
vn -0.538100 0.776800 0.327100
vn -0.510900 0.777100 0.367400
vn -0.494900 0.796600 0.347000
vn -0.471100 0.832900 0.290300
vn -0.478400 0.839000 0.259300
vn -0.446100 0.876200 0.182400
vn -0.333200 0.898300 0.286200
vn -0.452000 0.866500 0.211700
vn -0.232400 0.885000 0.403300
vn -0.261400 0.874400 0.408600
vn -0.364500 0.772800 0.519500
vn -0.409400 0.768200 0.492100
vn -0.394800 0.755600 0.522700
vn -0.378100 0.733900 0.564300
vn -0.506300 0.729000 0.460600
vn -0.476600 0.766600 0.430300
vn -0.562100 0.764600 0.315300
vn -0.605800 0.724400 0.329000
vn -0.565800 0.748400 0.346100
vn -0.536200 0.762900 0.361200
vn 0.436400 -0.898500 -0.046800
vn 0.255800 -0.943800 -0.209500
vn 0.298100 -0.920800 -0.251300
vn 0.530200 -0.847400 -0.027400
vn 0.611100 -0.790300 0.043500
vn 0.592100 -0.805200 0.031400
vn 0.555000 -0.831500 -0.022700
vn 0.439100 -0.893000 -0.098600
vn 0.284600 -0.928600 -0.238000
vn 0.097600 -0.912600 -0.396900
vn 0.020800 -0.828900 -0.558900
vn 0.008900 -0.815400 -0.578800
vn 0.079300 -0.866300 -0.493200
vn 0.149100 -0.905100 -0.398100
vn 0.074800 -0.851500 -0.519000
vn 0.350500 -0.803900 -0.480500
vn 0.258900 -0.796400 -0.546400
vn 0.218900 -0.824200 -0.522200
vn 0.297500 -0.845000 -0.444400
vn 0.391900 -0.852900 -0.344900
vn 0.442100 -0.805100 -0.395300
vn 0.465800 -0.779200 -0.419300
vn 0.360000 -0.784400 -0.505100
vn 0.240700 -0.790900 -0.562600
vn 0.524000 -0.796600 -0.301200
vn 0.487800 -0.837100 -0.247700
vn 0.562000 -0.809900 -0.167700
vn 0.586400 -0.782800 -0.208000
vn 0.601800 -0.775800 -0.189400
vn 0.548100 -0.776500 -0.310700
vn 0.455500 -0.873500 -0.171500
vn 0.333200 -0.898300 -0.286200
vn 0.546200 -0.832100 -0.096000
vn 0.221700 -0.883300 -0.413100
vn 0.147800 -0.848700 -0.507800
vn 0.334100 -0.782900 -0.524900
vn 0.176900 -0.799900 -0.573500
vn 0.470000 -0.774300 -0.423600
vn 0.440200 -0.807100 -0.393400
vn 0.236900 -0.814900 -0.528900
vn 0.135100 -0.806900 -0.574900
vn 0.566900 -0.773200 -0.284200
vn 0.610900 -0.781800 -0.125100
vn 0.611300 -0.787000 -0.083100
vn 0.569000 -0.801000 -0.185800
vn -0.927400 -0.099200 -0.360700
vn -0.958900 -0.283600 0.007400
vn -0.868700 -0.041500 -0.493500
vn 0.135100 -0.806900 -0.574900
vn -0.383200 -0.574700 0.723100
vn -0.028400 -0.245100 0.969100
vn -0.485400 -0.718200 0.498600
vn 0.611300 -0.787000 -0.083100
vn 0.741200 0.442900 0.504400
vn 0.837100 0.508100 0.202700
vn 0.660800 0.339100 0.669500
vn 0.611100 -0.790300 0.043500
vn 0.222700 0.339500 -0.913800
vn -0.194800 0.465200 -0.863500
vn 0.691300 0.247500 -0.678800
vn 0.008900 -0.815400 -0.578800
vn -0.496600 0.391500 -0.774700
vn -0.660100 0.284100 -0.695300
vn -0.711700 -0.588400 0.383600
vn 0.333000 -0.046800 0.941800
vn 0.465400 0.014200 0.885000
vn 0.906400 0.368100 -0.207300
vn 0.604700 0.236700 0.760400
vn 0.576400 0.164700 0.800400
vn -0.748300 0.180600 -0.638200
vn -0.786300 0.108200 -0.608300
vn -0.818000 0.035300 -0.574200
vn 0.544600 0.092100 0.833600
vt 0.839504 0.118056
vt 0.856743 0.205307
vt 0.741230 0.205307
vt 0.734555 0.106726
vt 0.724541 0.032791
vt 0.813647 0.052618
vt 0.868992 0.081539
vt 0.913398 0.129584
vt 0.940923 0.205307
vt 0.839504 0.292557
vt 0.813647 0.357995
vt 0.724541 0.377822
vt 0.734555 0.303887
vt 0.913398 0.281029
vt 0.868992 0.329074
vt 0.369475 0.299954
vt 0.368286 0.370940
vt 0.245840 0.351447
vt 0.246397 0.288815
vt 0.246768 0.205307
vt 0.370268 0.205307
vt 0.494283 0.205307
vt 0.492822 0.304944
vt 0.490632 0.379672
vt 0.369475 0.110659
vt 0.246397 0.121798
vt 0.245841 0.059166
vt 0.368286 0.039673
vt 0.490632 0.030941
vt 0.492822 0.105669
vt 0.616755 0.103478
vt 0.619174 0.205307
vt 0.613127 0.027106
vt 0.616755 0.307135
vt 0.613126 0.383507
vt 0.123273 0.268175
vt 0.123047 0.315326
vt 0.054743 0.283353
vt 0.030912 0.249131
vt 0.030973 0.205306
vt 0.123423 0.205306
vt 0.123273 0.142438
vt 0.030912 0.161481
vt 0.054744 0.127260
vt 0.123047 0.095287
vt 0.839504 0.118056
vt 0.856743 0.205307
vt 0.968983 0.205307
vt 0.938030 0.133427
vt 0.876123 0.061548
vt 0.805028 0.030806
vt 0.721203 0.008146
vt 0.734555 0.106726
vt 0.741230 0.205307
vt 0.839504 0.292557
vt 0.805028 0.379807
vt 0.876123 0.349065
vt 0.938030 0.277186
vt 0.734555 0.303887
vt 0.721203 0.402467
vt 0.369475 0.299954
vt 0.367890 0.394602
vt 0.489902 0.404581
vt 0.492822 0.304944
vt 0.494283 0.205307
vt 0.370268 0.205307
vt 0.246768 0.205307
vt 0.246397 0.288815
vt 0.245655 0.372324
vt 0.369475 0.110659
vt 0.492822 0.105669
vt 0.489902 0.006032
vt 0.367890 0.016011
vt 0.245655 0.038289
vt 0.246397 0.121798
vt 0.616755 0.103478
vt 0.619174 0.205307
vt 0.611917 0.001649
vt 0.616755 0.307135
vt 0.611917 0.408964
vt 0.123273 0.268175
vt 0.122972 0.331043
vt 0.123423 0.205306
vt 0.000156 0.205306
vt 0.000125 0.242784
vt 0.000064 0.280261
vt 0.123273 0.142438
vt 0.122972 0.079570
vt 0.000064 0.130352
vt 0.000125 0.167829
vt 0.122972 0.331043
vt 0.030806 0.283587
vt 0.245655 0.372324
vt 0.030806 0.283587
vt 0.000125 0.167829
vt 0.030806 0.127026
vt 0.000156 0.205306
vt 0.030806 0.127026
vt 0.805028 0.030806
vt 0.873826 0.071832
vt 0.721203 0.008146
vt 0.873826 0.071832
vt 0.938030 0.277186
vt 0.873826 0.338781
vt 0.968983 0.205307
vt 0.873826 0.338781
vt 0.805028 0.379807
vt 0.721203 0.402467
vt 0.000125 0.242784
vt 0.122972 0.079570
vt 0.245655 0.038289
vt 0.938030 0.133427
vt 0.611917 0.001649
vt 0.489902 0.006032
vt 0.611917 0.408964
vt 0.489902 0.404581
vt 0.367890 0.394602
vt 0.367890 0.016011
f 1/1/1 2/2/2 3/3/3
f 1/1/1 3/3/3 4/4/4
f 1/1/1 4/4/4 5/5/5
f 1/1/1 5/5/5 6/6/6
f 1/1/1 6/6/6 7/7/7
f 1/1/1 7/7/7 8/8/8
f 1/1/1 8/8/8 9/9/9
f 1/1/1 9/9/9 2/2/2
f 10/10/10 11/11/11 12/12/12
f 10/10/10 12/12/12 13/13/13
f 10/10/10 13/13/13 3/3/3
f 10/10/10 3/3/3 2/2/2
f 10/10/10 2/2/2 9/9/9
f 10/10/10 9/9/9 14/14/14
f 10/10/10 14/14/14 15/15/15
f 10/10/10 15/15/15 11/11/11
f 16/16/16 17/17/17 18/18/18
f 16/16/16 18/18/18 19/19/19
f 16/16/16 19/19/19 20/20/20
f 16/16/16 20/20/20 21/21/21
f 16/16/16 21/21/21 22/22/22
f 16/16/16 22/22/22 23/23/23
f 16/16/16 23/23/23 24/24/24
f 16/16/16 24/24/24 17/17/17
f 25/25/25 21/21/21 20/20/20
f 25/25/25 20/20/20 26/26/26
f 25/25/25 26/26/26 27/27/27
f 25/25/25 27/27/27 28/28/28
f 25/25/25 28/28/28 29/29/29
f 25/25/25 29/29/29 30/30/30
f 25/25/25 30/30/30 22/22/22
f 25/25/25 22/22/22 21/21/21
f 31/31/31 32/32/32 22/22/22
f 31/31/31 22/22/22 30/30/30
f 31/31/31 30/30/30 29/29/29
f 31/31/31 29/29/29 33/33/33
f 31/31/31 33/33/33 5/5/5
f 31/31/31 5/5/5 4/4/4
f 31/31/31 4/4/4 3/3/3
f 31/31/31 3/3/3 32/32/32
f 34/34/34 35/35/35 24/24/24
f 34/34/34 24/24/24 23/23/23
f 34/34/34 23/23/23 22/22/22
f 34/34/34 22/22/22 32/32/32
f 34/34/34 32/32/32 3/3/3
f 34/34/34 3/3/3 13/13/13
f 34/34/34 13/13/13 12/12/12
f 34/34/34 12/12/12 35/35/35
f 36/36/36 37/37/37 38/38/38
f 36/36/36 38/38/38 39/39/39
f 36/36/36 39/39/39 40/40/40
f 36/36/36 40/40/40 41/41/41
f 36/36/36 41/41/41 20/20/20
f 36/36/36 20/20/20 19/19/19
f 36/36/36 19/19/19 18/18/18
f 36/36/36 18/18/18 37/37/37
f 42/42/42 41/41/41 40/40/40
f 42/42/42 40/40/40 43/43/43
f 42/42/42 43/43/43 44/44/44
f 42/42/42 44/44/44 45/45/45
f 42/42/42 45/45/45 27/27/27
f 42/42/42 27/27/27 26/26/26
f 42/42/42 26/26/26 20/20/20
f 42/42/42 20/20/20 41/41/41
f 46/46/46 47/47/47 48/48/48
f 46/46/46 48/48/48 49/49/49
f 46/46/46 49/49/49 50/50/50
f 46/46/46 50/50/50 51/51/51
f 46/46/46 51/51/51 52/52/52
f 46/46/46 52/52/52 53/53/53
f 46/46/46 53/53/53 54/54/54
f 46/46/46 54/54/54 47/47/47
f 55/55/55 56/56/56 57/57/57
f 55/55/55 57/57/57 58/58/58
f 55/55/55 58/58/58 48/48/48
f 55/55/55 48/48/48 47/47/47
f 55/55/55 47/47/47 54/54/54
f 55/55/55 54/54/54 59/59/59
f 55/55/55 59/59/59 60/60/60
f 55/55/55 60/60/60 56/56/56
f 61/61/61 62/62/62 63/63/63
f 61/61/61 63/63/63 64/64/64
f 61/61/61 64/64/64 65/65/65
f 61/61/61 65/65/65 66/66/66
f 61/61/61 66/66/66 67/67/67
f 61/61/61 67/67/67 68/68/68
f 61/61/61 68/68/68 69/69/69
f 61/61/61 69/69/69 62/62/62
f 70/70/70 66/66/66 65/65/65
f 70/70/70 65/65/65 71/71/71
f 70/70/70 71/71/71 72/72/72
f 70/70/70 72/72/72 73/73/73
f 70/70/70 73/73/73 74/74/74
f 70/70/70 74/74/74 75/75/75
f 70/70/70 75/75/75 67/67/67
f 70/70/70 67/67/67 66/66/66
f 76/76/76 77/77/77 54/54/54
f 76/76/76 54/54/54 53/53/53
f 76/76/76 53/53/53 52/52/52
f 76/76/76 52/52/52 78/78/78
f 76/76/76 78/78/78 72/72/72
f 76/76/76 72/72/72 71/71/71
f 76/76/76 71/71/71 65/65/65
f 76/76/76 65/65/65 77/77/77
f 79/79/79 80/80/80 60/60/60
f 79/79/79 60/60/60 59/59/59
f 79/79/79 59/59/59 54/54/54
f 79/79/79 54/54/54 77/77/77
f 79/79/79 77/77/77 65/65/65
f 79/79/79 65/65/65 64/64/64
f 79/79/79 64/64/64 63/63/63
f 79/79/79 63/63/63 80/80/80
f 81/81/81 82/82/82 69/69/69
f 81/81/81 69/69/69 68/68/68
f 81/81/81 68/68/68 67/67/67
f 81/81/81 67/67/67 83/83/83
f 81/81/81 83/83/83 84/84/84
f 81/81/81 84/84/84 85/85/85
f 81/81/81 85/85/85 86/86/86
f 81/81/81 86/86/86 82/82/82
f 87/87/87 83/83/83 67/67/67
f 87/87/87 67/67/67 75/75/75
f 87/87/87 75/75/75 74/74/74
f 87/87/87 74/74/74 88/88/88
f 87/87/87 88/88/88 89/89/89
f 87/87/87 89/89/89 90/90/90
f 87/87/87 90/90/90 84/84/84
f 87/87/87 84/84/84 83/83/83
f 91/91/91 92/92/92 38/38/38
f 91/91/91 38/38/38 37/37/37
f 91/91/91 37/37/37 18/18/18
f 91/91/91 18/18/18 93/93/93
f 91/91/91 93/93/93 69/69/69
f 91/91/91 69/69/69 82/82/82
f 91/91/91 82/82/82 94/94/94
f 91/91/91 94/94/94 92/92/92
f 95/95/95 96/96/96 44/44/44
f 95/95/95 44/44/44 43/43/43
f 95/95/95 43/43/43 40/40/40
f 95/95/95 40/40/40 97/97/97
f 95/95/95 97/97/97 84/84/84
f 95/95/95 84/84/84 90/90/90
f 95/95/95 90/90/90 98/98/98
f 95/95/95 98/98/98 96/96/96
f 99/99/99 100/100/100 7/7/7
f 99/99/99 7/7/7 6/6/6
f 99/99/99 6/6/6 5/5/5
f 99/99/99 5/5/5 101/101/101
f 99/99/99 101/101/101 52/52/52
f 99/99/99 52/52/52 51/51/51
f 99/99/99 51/51/51 102/102/102
f 99/99/99 102/102/102 100/100/100
f 103/103/103 104/104/104 15/15/15
f 103/103/103 15/15/15 14/14/14
f 103/103/103 14/14/14 9/9/9
f 103/103/103 9/9/9 105/105/105
f 103/103/103 105/105/105 48/48/48
f 103/103/103 48/48/48 58/58/58
f 103/103/103 58/58/58 106/106/106
f 103/103/103 106/106/106 104/104/104
f 107/107/107 108/108/108 12/12/12
f 107/107/107 12/12/12 11/11/11
f 107/107/107 11/11/11 15/15/15
f 107/107/107 15/15/15 104/104/104
f 107/107/107 104/104/104 106/106/106
f 107/107/107 106/106/106 56/56/56
f 107/107/107 56/56/56 60/60/60
f 107/107/107 60/60/60 108/108/108
f 109/109/109 97/97/97 40/40/40
f 109/109/109 40/40/40 39/39/39
f 109/109/109 39/39/39 38/38/38
f 109/109/109 38/38/38 92/92/92
f 109/109/109 92/92/92 94/94/94
f 109/109/109 94/94/94 85/85/85
f 109/109/109 85/85/85 84/84/84
f 109/109/109 84/84/84 97/97/97
f 110/110/110 111/111/111 27/27/27
f 110/110/110 27/27/27 45/45/45
f 110/110/110 45/45/45 44/44/44
f 110/110/110 44/44/44 96/96/96
f 110/110/110 96/96/96 98/98/98
f 110/110/110 98/98/98 88/88/88
f 110/110/110 88/88/88 74/74/74
f 110/110/110 74/74/74 111/111/111
f 112/112/112 105/105/105 9/9/9
f 112/112/112 9/9/9 8/8/8
f 112/112/112 8/8/8 7/7/7
f 112/112/112 7/7/7 100/100/100
f 112/112/112 100/100/100 102/102/102
f 112/112/112 102/102/102 49/49/49
f 112/112/112 49/49/49 48/48/48
f 112/112/112 48/48/48 105/105/105
f 113/113/113 101/101/101 5/5/5
f 113/113/113 5/5/5 33/33/33
f 113/113/113 33/33/33 29/29/29
f 113/113/113 29/29/29 114/114/114
f 113/113/113 114/114/114 72/72/72
f 113/113/113 72/72/72 78/78/78
f 113/113/113 78/78/78 52/52/52
f 113/113/113 52/52/52 101/101/101
f 115/115/115 116/116/116 24/24/24
f 115/115/115 24/24/24 35/35/35
f 115/115/115 35/35/35 12/12/12
f 115/115/115 12/12/12 108/108/108
f 115/115/115 108/108/108 60/60/60
f 115/115/115 60/60/60 80/80/80
f 115/115/115 80/80/80 63/63/63
f 115/115/115 63/63/63 116/116/116
f 117/117/117 93/93/93 18/18/18
f 117/117/117 18/18/18 17/17/17
f 117/117/117 17/17/17 24/24/24
f 117/117/117 24/24/24 116/116/116
f 117/117/117 116/116/116 63/63/63
f 117/117/117 63/63/63 62/62/62
f 117/117/117 62/62/62 69/69/69
f 117/117/117 69/69/69 93/93/93
f 118/118/118 114/114/114 29/29/29
f 118/118/118 29/29/29 28/28/28
f 118/118/118 28/28/28 27/27/27
f 118/118/118 27/27/27 111/111/111
f 118/118/118 111/111/111 74/74/74
f 118/118/118 74/74/74 73/73/73
f 118/118/118 73/73/73 72/72/72
f 118/118/118 72/72/72 114/114/114
