v -2.378202 0.703807 -1.160874
v -2.379960 0.704446 -1.158757
v -2.377552 0.702100 -1.157072
v -2.375871 0.701574 -1.159673
v -2.374318 0.701271 -1.161523
v -2.376418 0.703273 -1.162246
v -2.378133 0.704408 -1.162286
v -2.379992 0.705300 -1.161651
v -2.381809 0.706067 -1.160006
v -2.380421 0.705011 -1.156028
v -2.380309 0.705383 -1.153747
v -2.378738 0.703668 -1.151868
v -2.378393 0.702941 -1.154166
v -2.381913 0.706342 -1.157456
v -2.381284 0.706117 -1.155403
v -2.372291 0.694148 -1.149259
v -2.372965 0.694798 -1.147148
v -2.371160 0.691307 -1.146150
v -2.370579 0.690726 -1.148022
v -2.369668 0.690030 -1.150466
v -2.371245 0.693367 -1.152017
v -2.373040 0.696541 -1.153627
v -2.374113 0.697376 -1.150737
v -2.374784 0.698081 -1.148520
v -2.369820 0.692808 -1.154656
v -2.368394 0.689541 -1.152795
v -2.367331 0.689230 -1.154514
v -2.368635 0.692450 -1.156605
v -2.370255 0.695625 -1.158412
v -2.371528 0.695974 -1.156382
v -2.373596 0.698929 -1.158115
v -2.375194 0.699459 -1.155337
v -2.372207 0.698643 -1.160148
v -2.376219 0.700352 -1.152387
v -2.376803 0.701136 -1.150109
v -2.368807 0.687166 -1.147097
v -2.369185 0.687631 -1.145679
v -2.368043 0.685435 -1.145790
v -2.367487 0.684426 -1.146525
v -2.367106 0.684023 -1.147802
v -2.368170 0.686623 -1.148934
v -2.367177 0.686281 -1.150659
v -2.366370 0.683820 -1.148966
v -2.366033 0.684344 -1.150182
v -2.366326 0.686080 -1.151925
v -2.378383 0.703586 -1.160949
v -2.380159 0.704232 -1.158795
v -2.381956 0.705904 -1.160033
v -2.380124 0.705131 -1.161706
v -2.378227 0.704283 -1.162335
v -2.376543 0.703105 -1.162320
v -2.374452 0.701109 -1.161596
v -2.376062 0.701361 -1.159749
v -2.377758 0.701893 -1.157116
v -2.380635 0.704808 -1.156030
v -2.380476 0.705237 -1.153730
v -2.381405 0.706006 -1.155394
v -2.382071 0.706187 -1.157453
v -2.378613 0.702745 -1.154176
v -2.378910 0.703526 -1.151860
v -2.372537 0.693989 -1.149302
v -2.373154 0.694682 -1.147169
v -2.374968 0.697956 -1.148534
v -2.374352 0.697204 -1.150772
v -2.373269 0.696362 -1.153687
v -2.371482 0.693201 -1.152084
v -2.369910 0.689874 -1.150538
v -2.370831 0.690576 -1.148071
v -2.371353 0.691198 -1.146174
v -2.370045 0.692637 -1.154746
v -2.371745 0.695790 -1.156467
v -2.370411 0.695485 -1.158487
v -2.368798 0.692319 -1.156684
v -2.367497 0.689107 -1.154597
v -2.368625 0.689379 -1.152890
v -2.373800 0.698730 -1.158195
v -2.375411 0.699265 -1.155388
v -2.372352 0.698492 -1.160221
v -2.376448 0.700166 -1.152410
v -2.376980 0.701002 -1.150113
v -2.369061 0.687020 -1.147145
v -2.369380 0.687525 -1.145703
v -2.368413 0.686471 -1.149008
v -2.367289 0.683910 -1.147857
v -2.367678 0.684318 -1.146560
v -2.368187 0.685356 -1.145811
v -2.367408 0.686123 -1.150757
v -2.366493 0.685959 -1.152011
v -2.366158 0.684255 -1.150242
v -2.366543 0.683702 -1.149041
v -2.369399 0.687739 -1.145214
v -2.367760 0.684763 -1.145488
v -2.371440 0.691453 -1.145534
v -2.368187 0.685356 -1.145811
v -2.366178 0.682948 -1.148435
v -2.365746 0.683671 -1.149888
v -2.366832 0.683106 -1.147449
v -2.366158 0.684255 -1.150242
v -2.375876 0.703019 -1.162741
v -2.378070 0.704482 -1.162634
v -2.373858 0.701097 -1.162175
v -2.378227 0.704283 -1.162335
v -2.382480 0.706716 -1.157930
v -2.381479 0.706331 -1.155188
v -2.382490 0.706535 -1.160434
v -2.381405 0.706006 -1.155394
v -2.380347 0.705444 -1.152975
v -2.378931 0.703848 -1.151095
v -2.367132 0.683465 -1.146350
v -2.366115 0.685958 -1.152388
v -2.367049 0.689072 -1.155126
v -2.380647 0.705722 -1.161934
v -2.371807 0.698480 -1.160861
v -2.369899 0.695446 -1.159125
v -2.377078 0.701339 -1.149348
v -2.375091 0.698262 -1.147784
v -2.373275 0.694963 -1.146452
v -2.368311 0.692272 -1.157292
vn 0.550600 0.777800 0.303000
vn 0.640200 0.761100 0.104100
vn 0.678100 0.723200 0.130900
vn 0.600100 0.737400 0.309900
vn 0.619900 0.719600 0.312800
vn 0.555200 0.777100 0.296400
vn 0.507100 0.814200 0.282600
vn 0.509800 0.829800 0.226700
vn 0.576500 0.814800 0.061600
vn 0.726400 0.682500 -0.081000
vn 0.724500 0.685300 -0.073600
vn 0.769500 0.638500 -0.013900
vn 0.757300 0.652200 -0.033400
vn 0.653400 0.752000 -0.086900
vn 0.689000 0.715600 -0.114800
vn 0.849600 0.508400 0.140200
vn 0.840800 0.511500 0.177100
vn 0.852800 0.485500 0.192400
vn 0.865700 0.478800 0.145900
vn 0.827900 0.499600 0.255000
vn 0.810600 0.534900 0.238300
vn 0.771600 0.602600 0.203600
vn 0.819200 0.565200 0.097200
vn 0.818700 0.559500 0.129000
vn 0.761300 0.556300 0.333000
vn 0.771000 0.530100 0.352800
vn 0.796900 0.515800 0.314300
vn 0.782600 0.543100 0.304300
vn 0.741700 0.601200 0.297200
vn 0.720100 0.618900 0.313500
vn 0.659700 0.686900 0.304800
vn 0.721900 0.672300 0.163600
vn 0.682500 0.665600 0.301700
vn 0.784500 0.619200 0.032100
vn 0.793800 0.605300 0.058600
vn 0.878800 0.459600 0.127900
vn 0.867700 0.463400 0.179500
vn 0.884000 0.440400 0.156800
vn 0.905200 0.404800 0.129300
vn 0.855100 0.433900 0.283700
vn 0.835500 0.482700 0.262700
vn 0.763500 0.522100 0.380100
vn 0.772200 0.476900 0.419800
vn 0.784100 0.494600 0.374800
vn 0.793600 0.503700 0.341200
vn -0.550200 -0.764000 -0.337000
vn -0.650800 -0.751000 -0.111500
vn -0.690500 -0.709700 -0.139900
vn -0.542100 -0.718800 -0.435300
vn -0.483300 -0.690500 -0.538200
vn -0.493700 -0.700300 -0.515500
vn -0.539200 -0.704500 -0.461300
vn -0.592900 -0.737400 -0.323500
vn -0.678000 -0.723300 -0.130800
vn -0.748100 -0.656700 0.095300
vn -0.827400 -0.519400 0.213300
vn -0.835000 -0.499800 0.230100
vn -0.805200 -0.576200 0.139900
vn -0.762300 -0.645600 0.046400
vn -0.819700 -0.552400 0.151300
vn -0.854100 -0.504900 -0.124900
vn -0.878400 -0.477600 -0.017900
vn -0.856600 -0.515700 0.014100
vn -0.823500 -0.561100 -0.083400
vn -0.771600 -0.602500 -0.203700
vn -0.810700 -0.534700 -0.238400
vn -0.827900 -0.499400 -0.255000
vn -0.870000 -0.476300 -0.127400
vn -0.884200 -0.467100 0.004100
vn -0.752700 -0.559900 -0.346300
vn -0.712400 -0.621400 -0.326200
vn -0.656100 -0.624500 -0.423600
vn -0.687000 -0.581400 -0.435800
vn -0.673100 -0.581600 -0.456700
vn -0.760000 -0.536000 -0.367400
vn -0.652200 -0.688400 -0.317300
vn -0.721900 -0.672400 -0.163600
vn -0.599300 -0.675300 -0.429800
vn -0.788800 -0.614300 -0.019000
vn -0.832000 -0.549100 0.078600
vn -0.878000 -0.468700 -0.096700
vn -0.877000 -0.475500 0.068300
vn -0.830900 -0.493000 -0.258000
vn -0.809400 -0.537300 -0.237100
vn -0.864200 -0.503200 -0.001400
vn -0.868100 -0.484300 0.108800
vn -0.742000 -0.542500 -0.393900
vn -0.623500 -0.613000 -0.485200
vn -0.590000 -0.635200 -0.498400
vn -0.670200 -0.608400 -0.425100
vn -0.056700 -0.008700 0.998300
vn 0.190700 -0.330500 0.924300
vn -0.164500 0.102900 0.981000
vn -0.868100 -0.484300 0.108800
vn 0.499700 -0.848700 0.172900
vn 0.734700 -0.625200 -0.263300
vn 0.280600 -0.893600 0.350200
vn -0.590000 -0.635200 -0.498400
vn 0.380900 0.247200 -0.890900
vn 0.119900 0.438400 -0.890700
vn 0.504000 0.078800 -0.860100
vn -0.483300 -0.690500 -0.538200
vn -0.709500 0.702500 0.055200
vn -0.483000 0.765100 0.425800
vn -0.694700 0.556100 -0.456100
vn -0.835000 -0.499800 0.230100
vn -0.342600 0.639700 0.688000
vn -0.267800 0.497500 0.825000
vn 0.307700 -0.744800 0.592100
vn 0.679700 -0.407600 -0.609800
vn 0.614700 -0.319400 -0.721100
vn -0.310200 0.486200 -0.816900
vn 0.556700 -0.055700 -0.828800
vn 0.569800 -0.139600 -0.809800
vn -0.234000 0.373400 0.897700
vn -0.226400 0.292400 0.929100
vn -0.217700 0.209800 0.953200
vn 0.578200 -0.221600 -0.785200
vt 0.839504 0.118056
vt 0.856743 0.205307
vt 0.741230 0.205307
vt 0.734555 0.106726
vt 0.724541 0.032791
vt 0.813647 0.052618
vt 0.868992 0.081539
vt 0.913398 0.129584
vt 0.940923 0.205307
vt 0.839504 0.292557
vt 0.813647 0.357995
vt 0.724541 0.377822
vt 0.734555 0.303887
vt 0.913398 0.281029
vt 0.868992 0.329074
vt 0.369475 0.299954
vt 0.368286 0.370940
vt 0.245840 0.351447
vt 0.246397 0.288815
vt 0.246768 0.205307
vt 0.370268 0.205307
vt 0.494283 0.205307
vt 0.492822 0.304944
vt 0.490632 0.379672
vt 0.369475 0.110659
vt 0.246397 0.121798
vt 0.245841 0.059166
vt 0.368286 0.039673
vt 0.490632 0.030941
vt 0.492822 0.105669
vt 0.616755 0.103478
vt 0.619174 0.205307
vt 0.613127 0.027106
vt 0.616755 0.307135
vt 0.613126 0.383507
vt 0.123273 0.268175
vt 0.123047 0.315326
vt 0.054743 0.283353
vt 0.030912 0.249131
vt 0.030973 0.205306
vt 0.123423 0.205306
vt 0.123273 0.142438
vt 0.030912 0.161481
vt 0.054744 0.127260
vt 0.123047 0.095287
vt 0.839504 0.118056
vt 0.856743 0.205307
vt 0.968983 0.205307
vt 0.938030 0.133427
vt 0.876123 0.061548
vt 0.805028 0.030806
vt 0.721203 0.008146
vt 0.734555 0.106726
vt 0.741230 0.205307
vt 0.839504 0.292557
vt 0.805028 0.379807
vt 0.876123 0.349065
vt 0.938030 0.277186
vt 0.734555 0.303887
vt 0.721203 0.402467
vt 0.369475 0.299954
vt 0.367890 0.394602
vt 0.489902 0.404581
vt 0.492822 0.304944
vt 0.494283 0.205307
vt 0.370268 0.205307
vt 0.246768 0.205307
vt 0.246397 0.288815
vt 0.245655 0.372324
vt 0.369475 0.110659
vt 0.492822 0.105669
vt 0.489902 0.006032
vt 0.367890 0.016011
vt 0.245655 0.038289
vt 0.246397 0.121798
vt 0.616755 0.103478
vt 0.619174 0.205307
vt 0.611917 0.001649
vt 0.616755 0.307135
vt 0.611917 0.408964
vt 0.123273 0.268175
vt 0.122972 0.331043
vt 0.123423 0.205306
vt 0.000156 0.205306
vt 0.000125 0.242784
vt 0.000064 0.280261
vt 0.123273 0.142438
vt 0.122972 0.079570
vt 0.000064 0.130352
vt 0.000125 0.167829
vt 0.122972 0.331043
vt 0.030806 0.283587
vt 0.245655 0.372324
vt 0.030806 0.283587
vt 0.000125 0.167829
vt 0.030806 0.127026
vt 0.000156 0.205306
vt 0.030806 0.127026
vt 0.805028 0.030806
vt 0.873826 0.071832
vt 0.721203 0.008146
vt 0.873826 0.071832
vt 0.938030 0.277186
vt 0.873826 0.338781
vt 0.968983 0.205307
vt 0.873826 0.338781
vt 0.805028 0.379807
vt 0.721203 0.402467
vt 0.000125 0.242784
vt 0.122972 0.079570
vt 0.245655 0.038289
vt 0.938030 0.133427
vt 0.611917 0.001649
vt 0.489902 0.006032
vt 0.611917 0.408964
vt 0.489902 0.404581
vt 0.367890 0.394602
vt 0.367890 0.016011
f 1/1/1 2/2/2 3/3/3
f 1/1/1 3/3/3 4/4/4
f 1/1/1 4/4/4 5/5/5
f 1/1/1 5/5/5 6/6/6
f 1/1/1 6/6/6 7/7/7
f 1/1/1 7/7/7 8/8/8
f 1/1/1 8/8/8 9/9/9
f 1/1/1 9/9/9 2/2/2
f 10/10/10 11/11/11 12/12/12
f 10/10/10 12/12/12 13/13/13
f 10/10/10 13/13/13 3/3/3
f 10/10/10 3/3/3 2/2/2
f 10/10/10 2/2/2 9/9/9
f 10/10/10 9/9/9 14/14/14
f 10/10/10 14/14/14 15/15/15
f 10/10/10 15/15/15 11/11/11
f 16/16/16 17/17/17 18/18/18
f 16/16/16 18/18/18 19/19/19
f 16/16/16 19/19/19 20/20/20
f 16/16/16 20/20/20 21/21/21
f 16/16/16 21/21/21 22/22/22
f 16/16/16 22/22/22 23/23/23
f 16/16/16 23/23/23 24/24/24
f 16/16/16 24/24/24 17/17/17
f 25/25/25 21/21/21 20/20/20
f 25/25/25 20/20/20 26/26/26
f 25/25/25 26/26/26 27/27/27
f 25/25/25 27/27/27 28/28/28
f 25/25/25 28/28/28 29/29/29
f 25/25/25 29/29/29 30/30/30
f 25/25/25 30/30/30 22/22/22
f 25/25/25 22/22/22 21/21/21
f 31/31/31 32/32/32 22/22/22
f 31/31/31 22/22/22 30/30/30
f 31/31/31 30/30/30 29/29/29
f 31/31/31 29/29/29 33/33/33
f 31/31/31 33/33/33 5/5/5
f 31/31/31 5/5/5 4/4/4
f 31/31/31 4/4/4 3/3/3
f 31/31/31 3/3/3 32/32/32
f 34/34/34 35/35/35 24/24/24
f 34/34/34 24/24/24 23/23/23
f 34/34/34 23/23/23 22/22/22
f 34/34/34 22/22/22 32/32/32
f 34/34/34 32/32/32 3/3/3
f 34/34/34 3/3/3 13/13/13
f 34/34/34 13/13/13 12/12/12
f 34/34/34 12/12/12 35/35/35
f 36/36/36 37/37/37 38/38/38
f 36/36/36 38/38/38 39/39/39
f 36/36/36 39/39/39 40/40/40
f 36/36/36 40/40/40 41/41/41
f 36/36/36 41/41/41 20/20/20
f 36/36/36 20/20/20 19/19/19
f 36/36/36 19/19/19 18/18/18
f 36/36/36 18/18/18 37/37/37
f 42/42/42 41/41/41 40/40/40
f 42/42/42 40/40/40 43/43/43
f 42/42/42 43/43/43 44/44/44
f 42/42/42 44/44/44 45/45/45
f 42/42/42 45/45/45 27/27/27
f 42/42/42 27/27/27 26/26/26
f 42/42/42 26/26/26 20/20/20
f 42/42/42 20/20/20 41/41/41
f 46/46/46 47/47/47 48/48/48
f 46/46/46 48/48/48 49/49/49
f 46/46/46 49/49/49 50/50/50
f 46/46/46 50/50/50 51/51/51
f 46/46/46 51/51/51 52/52/52
f 46/46/46 52/52/52 53/53/53
f 46/46/46 53/53/53 54/54/54
f 46/46/46 54/54/54 47/47/47
f 55/55/55 56/56/56 57/57/57
f 55/55/55 57/57/57 58/58/58
f 55/55/55 58/58/58 48/48/48
f 55/55/55 48/48/48 47/47/47
f 55/55/55 47/47/47 54/54/54
f 55/55/55 54/54/54 59/59/59
f 55/55/55 59/59/59 60/60/60
f 55/55/55 60/60/60 56/56/56
f 61/61/61 62/62/62 63/63/63
f 61/61/61 63/63/63 64/64/64
f 61/61/61 64/64/64 65/65/65
f 61/61/61 65/65/65 66/66/66
f 61/61/61 66/66/66 67/67/67
f 61/61/61 67/67/67 68/68/68
f 61/61/61 68/68/68 69/69/69
f 61/61/61 69/69/69 62/62/62
f 70/70/70 66/66/66 65/65/65
f 70/70/70 65/65/65 71/71/71
f 70/70/70 71/71/71 72/72/72
f 70/70/70 72/72/72 73/73/73
f 70/70/70 73/73/73 74/74/74
f 70/70/70 74/74/74 75/75/75
f 70/70/70 75/75/75 67/67/67
f 70/70/70 67/67/67 66/66/66
f 76/76/76 77/77/77 54/54/54
f 76/76/76 54/54/54 53/53/53
f 76/76/76 53/53/53 52/52/52
f 76/76/76 52/52/52 78/78/78
f 76/76/76 78/78/78 72/72/72
f 76/76/76 72/72/72 71/71/71
f 76/76/76 71/71/71 65/65/65
f 76/76/76 65/65/65 77/77/77
f 79/79/79 80/80/80 60/60/60
f 79/79/79 60/60/60 59/59/59
f 79/79/79 59/59/59 54/54/54
f 79/79/79 54/54/54 77/77/77
f 79/79/79 77/77/77 65/65/65
f 79/79/79 65/65/65 64/64/64
f 79/79/79 64/64/64 63/63/63
f 79/79/79 63/63/63 80/80/80
f 81/81/81 82/82/82 69/69/69
f 81/81/81 69/69/69 68/68/68
f 81/81/81 68/68/68 67/67/67
f 81/81/81 67/67/67 83/83/83
f 81/81/81 83/83/83 84/84/84
f 81/81/81 84/84/84 85/85/85
f 81/81/81 85/85/85 86/86/86
f 81/81/81 86/86/86 82/82/82
f 87/87/87 83/83/83 67/67/67
f 87/87/87 67/67/67 75/75/75
f 87/87/87 75/75/75 74/74/74
f 87/87/87 74/74/74 88/88/88
f 87/87/87 88/88/88 89/89/89
f 87/87/87 89/89/89 90/90/90
f 87/87/87 90/90/90 84/84/84
f 87/87/87 84/84/84 83/83/83
f 91/91/91 92/92/92 38/38/38
f 91/91/91 38/38/38 37/37/37
f 91/91/91 37/37/37 18/18/18
f 91/91/91 18/18/18 93/93/93
f 91/91/91 93/93/93 69/69/69
f 91/91/91 69/69/69 82/82/82
f 91/91/91 82/82/82 94/94/94
f 91/91/91 94/94/94 92/92/92
f 95/95/95 96/96/96 44/44/44
f 95/95/95 44/44/44 43/43/43
f 95/95/95 43/43/43 40/40/40
f 95/95/95 40/40/40 97/97/97
f 95/95/95 97/97/97 84/84/84
f 95/95/95 84/84/84 90/90/90
f 95/95/95 90/90/90 98/98/98
f 95/95/95 98/98/98 96/96/96
f 99/99/99 100/100/100 7/7/7
f 99/99/99 7/7/7 6/6/6
f 99/99/99 6/6/6 5/5/5
f 99/99/99 5/5/5 101/101/101
f 99/99/99 101/101/101 52/52/52
f 99/99/99 52/52/52 51/51/51
f 99/99/99 51/51/51 102/102/102
f 99/99/99 102/102/102 100/100/100
f 103/103/103 104/104/104 15/15/15
f 103/103/103 15/15/15 14/14/14
f 103/103/103 14/14/14 9/9/9
f 103/103/103 9/9/9 105/105/105
f 103/103/103 105/105/105 48/48/48
f 103/103/103 48/48/48 58/58/58
f 103/103/103 58/58/58 106/106/106
f 103/103/103 106/106/106 104/104/104
f 107/107/107 108/108/108 12/12/12
f 107/107/107 12/12/12 11/11/11
f 107/107/107 11/11/11 15/15/15
f 107/107/107 15/15/15 104/104/104
f 107/107/107 104/104/104 106/106/106
f 107/107/107 106/106/106 56/56/56
f 107/107/107 56/56/56 60/60/60
f 107/107/107 60/60/60 108/108/108
f 109/109/109 97/97/97 40/40/40
f 109/109/109 40/40/40 39/39/39
f 109/109/109 39/39/39 38/38/38
f 109/109/109 38/38/38 92/92/92
f 109/109/109 92/92/92 94/94/94
f 109/109/109 94/94/94 85/85/85
f 109/109/109 85/85/85 84/84/84
f 109/109/109 84/84/84 97/97/97
f 110/110/110 111/111/111 27/27/27
f 110/110/110 27/27/27 45/45/45
f 110/110/110 45/45/45 44/44/44
f 110/110/110 44/44/44 96/96/96
f 110/110/110 96/96/96 98/98/98
f 110/110/110 98/98/98 88/88/88
f 110/110/110 88/88/88 74/74/74
f 110/110/110 74/74/74 111/111/111
f 112/112/112 105/105/105 9/9/9
f 112/112/112 9/9/9 8/8/8
f 112/112/112 8/8/8 7/7/7
f 112/112/112 7/7/7 100/100/100
f 112/112/112 100/100/100 102/102/102
f 112/112/112 102/102/102 49/49/49
f 112/112/112 49/49/49 48/48/48
f 112/112/112 48/48/48 105/105/105
f 113/113/113 101/101/101 5/5/5
f 113/113/113 5/5/5 33/33/33
f 113/113/113 33/33/33 29/29/29
f 113/113/113 29/29/29 114/114/114
f 113/113/113 114/114/114 72/72/72
f 113/113/113 72/72/72 78/78/78
f 113/113/113 78/78/78 52/52/52
f 113/113/113 52/52/52 101/101/101
f 115/115/115 116/116/116 24/24/24
f 115/115/115 24/24/24 35/35/35
f 115/115/115 35/35/35 12/12/12
f 115/115/115 12/12/12 108/108/108
f 115/115/115 108/108/108 60/60/60
f 115/115/115 60/60/60 80/80/80
f 115/115/115 80/80/80 63/63/63
f 115/115/115 63/63/63 116/116/116
f 117/117/117 93/93/93 18/18/18
f 117/117/117 18/18/18 17/17/17
f 117/117/117 17/17/17 24/24/24
f 117/117/117 24/24/24 116/116/116
f 117/117/117 116/116/116 63/63/63
f 117/117/117 63/63/63 62/62/62
f 117/117/117 62/62/62 69/69/69
f 117/117/117 69/69/69 93/93/93
f 118/118/118 114/114/114 29/29/29
f 118/118/118 29/29/29 28/28/28
f 118/118/118 28/28/28 27/27/27
f 118/118/118 27/27/27 111/111/111
f 118/118/118 111/111/111 74/74/74
f 118/118/118 74/74/74 73/73/73
f 118/118/118 73/73/73 72/72/72
f 118/118/118 72/72/72 114/114/114
