v -2.426810 0.665291 -1.073577
v -2.425468 0.664738 -1.071221
v -2.422822 0.664221 -1.073730
v -2.424650 0.664830 -1.076128
v -2.425863 0.665525 -1.078060
v -2.427476 0.665924 -1.075649
v -2.428197 0.665840 -1.073769
v -2.428294 0.665465 -1.071691
v -2.427427 0.664991 -1.069378
v -2.423184 0.664857 -1.069664
v -2.421117 0.665163 -1.068786
v -2.418639 0.664661 -1.070264
v -2.420530 0.664337 -1.071681
v -2.425156 0.665089 -1.068303
v -2.423048 0.665224 -1.068211
v -2.412733 0.660753 -1.079386
v -2.411094 0.660831 -1.077830
v -2.409047 0.659076 -1.080746
v -2.410505 0.658992 -1.082117
v -2.412376 0.659021 -1.083985
v -2.414840 0.660799 -1.081505
v -2.417391 0.662323 -1.078972
v -2.415179 0.662300 -1.076760
v -2.413451 0.662422 -1.075140
v -2.416770 0.661236 -1.083744
v -2.414076 0.659420 -1.085970
v -2.415304 0.659825 -1.087500
v -2.418168 0.661678 -1.085466
v -2.420852 0.663308 -1.083128
v -2.419403 0.662806 -1.081319
v -2.422106 0.664003 -1.078744
v -2.420091 0.663440 -1.076347
v -2.423536 0.664622 -1.080606
v -2.417820 0.663490 -1.074119
v -2.416025 0.663723 -1.072500
v -2.408523 0.657165 -1.085070
v -2.407406 0.657283 -1.084065
v -2.406797 0.656200 -1.086150
v -2.407139 0.655737 -1.087358
v -2.408136 0.655667 -1.088285
v -2.409940 0.657144 -1.086450
v -2.411188 0.657484 -1.087947
v -2.408965 0.655956 -1.089328
v -2.410083 0.656593 -1.089696
v -2.412079 0.657843 -1.089108
v -2.426890 0.665013 -1.073588
v -2.425521 0.664454 -1.071203
v -2.427464 0.664778 -1.069367
v -2.428352 0.665256 -1.071704
v -2.428247 0.665688 -1.073784
v -2.427549 0.665720 -1.075672
v -2.425939 0.665322 -1.078073
v -2.424736 0.664554 -1.076128
v -2.422883 0.663939 -1.073705
v -2.423210 0.664573 -1.069616
v -2.421123 0.664951 -1.068735
v -2.423054 0.665066 -1.068179
v -2.425170 0.664876 -1.068269
v -2.420567 0.664055 -1.071628
v -2.418655 0.664450 -1.070212
v -2.412814 0.660486 -1.079305
v -2.411146 0.660631 -1.077760
v -2.413494 0.662218 -1.075077
v -2.415249 0.662028 -1.076689
v -2.417480 0.662051 -1.078920
v -2.414939 0.660533 -1.081442
v -2.412483 0.658760 -1.083915
v -2.410594 0.658730 -1.082028
v -2.409105 0.658879 -1.080670
v -2.416887 0.660973 -1.083701
v -2.419509 0.662538 -1.081287
v -2.420940 0.663109 -1.083114
v -2.418264 0.661483 -1.085443
v -2.415406 0.659633 -1.087471
v -2.414200 0.659161 -1.085919
v -2.422201 0.663730 -1.078729
v -2.420165 0.663162 -1.076309
v -2.423618 0.664420 -1.080606
v -2.417873 0.663212 -1.074058
v -2.416055 0.663515 -1.072443
v -2.408614 0.656905 -1.084978
v -2.407464 0.657088 -1.083986
v -2.410049 0.656885 -1.086377
v -2.408219 0.655473 -1.088230
v -2.407207 0.655542 -1.087287
v -2.406843 0.656056 -1.086093
v -2.411316 0.657228 -1.087894
v -2.412184 0.657653 -1.089079
v -2.410158 0.656452 -1.089671
v -2.409062 0.655764 -1.089290
v -2.407057 0.657236 -1.083692
v -2.406321 0.655823 -1.086627
v -2.408584 0.659016 -1.080254
v -2.406843 0.656056 -1.086093
v -2.408267 0.655362 -1.089772
v -2.409612 0.656217 -1.090179
v -2.407572 0.655088 -1.088872
v -2.410158 0.656452 -1.089671
v -2.427733 0.666046 -1.076353
v -2.428513 0.665943 -1.073890
v -2.426303 0.665667 -1.078713
v -2.428247 0.665688 -1.073784
v -2.425818 0.665071 -1.067835
v -2.422942 0.665277 -1.067878
v -2.428096 0.664981 -1.068759
v -2.423054 0.665066 -1.068179
v -2.420428 0.665171 -1.068467
v -2.418014 0.664675 -1.069766
v -2.406708 0.655175 -1.088088
v -2.412424 0.657878 -1.089485
v -2.415761 0.659875 -1.087999
v -2.428814 0.665430 -1.071069
v -2.424051 0.664739 -1.081229
v -2.421376 0.663388 -1.083727
v -2.415438 0.663708 -1.071933
v -2.412892 0.662372 -1.074570
v -2.410568 0.660768 -1.077278
v -2.418679 0.661739 -1.086032
vn 0.303000 0.945400 0.120200
vn 0.144700 0.989200 -0.024400
vn 0.187700 0.980000 -0.065200
vn 0.331000 0.941600 0.062400
vn 0.342700 0.938600 0.038500
vn 0.298300 0.947600 0.114100
vn 0.264700 0.949800 0.166600
vn 0.210100 0.965400 0.154300
vn 0.076800 0.996200 0.039400
vn 0.009600 0.980500 -0.196300
vn 0.015600 0.981400 -0.191000
vn 0.093100 0.968500 -0.230800
vn 0.068800 0.972900 -0.220600
vn -0.029400 0.994100 -0.104300
vn -0.038900 0.986100 -0.161100
vn 0.284600 0.906500 -0.311800
vn 0.316200 0.903000 -0.291000
vn 0.338700 0.888500 -0.309400
vn 0.300000 0.891800 -0.338500
vn 0.387900 0.883800 -0.261400
vn 0.360900 0.902600 -0.234300
vn 0.304800 0.935500 -0.178600
vn 0.225200 0.935700 -0.271600
vn 0.256000 0.930000 -0.263800
vn 0.431900 0.888900 -0.152900
vn 0.458000 0.872900 -0.168100
vn 0.431900 0.877400 -0.208800
vn 0.413400 0.891300 -0.186000
vn 0.384500 0.914600 -0.125100
vn 0.390400 0.915900 -0.093300
vn 0.352500 0.935700 -0.012600
vn 0.240200 0.963800 -0.115700
vn 0.360000 0.931900 -0.042800
vn 0.144200 0.960600 -0.237300
vn 0.174300 0.954200 -0.243200
vn 0.290400 0.884400 -0.365300
vn 0.334900 0.879800 -0.337400
vn 0.322400 0.871200 -0.370300
vn 0.309100 0.855400 -0.415500
vn 0.434600 0.845900 -0.308900
vn 0.400400 0.874400 -0.274000
vn 0.483000 0.861400 -0.157500
vn 0.531000 0.828900 -0.176000
vn 0.489100 0.851200 -0.190600
vn 0.458400 0.865000 -0.204100
vn -0.337300 -0.933100 -0.124300
vn -0.156600 -0.987000 0.035600
vn -0.202100 -0.976200 0.079000
vn -0.435600 -0.889400 -0.138600
vn -0.520700 -0.829400 -0.202200
vn -0.500500 -0.844100 -0.192100
vn -0.461900 -0.875500 -0.141600
vn -0.341700 -0.937000 -0.072500
vn -0.187600 -0.980100 0.065100
vn -0.007100 -0.972700 0.232000
vn 0.056300 -0.910800 0.408900
vn 0.066300 -0.899800 0.431300
vn 0.003800 -0.942000 0.335500
vn -0.059100 -0.970800 0.232400
vn 0.006100 -0.931500 0.363500
vn -0.272200 -0.906600 0.322400
vn -0.183500 -0.901300 0.392300
vn -0.140100 -0.920300 0.365300
vn -0.214200 -0.935200 0.282000
vn -0.304900 -0.935500 0.178700
vn -0.361000 -0.902600 0.234400
vn -0.388000 -0.883800 0.261500
vn -0.284200 -0.892800 0.349400
vn -0.166300 -0.896800 0.409900
vn -0.441300 -0.886400 0.139800
vn -0.399600 -0.913000 0.081800
vn -0.474500 -0.880200 0.004500
vn -0.502700 -0.863100 0.047800
vn -0.518300 -0.854700 0.030000
vn -0.467600 -0.870800 0.151600
vn -0.361800 -0.932200 0.001800
vn -0.240200 -0.963800 0.115700
vn -0.454700 -0.887900 -0.069100
vn -0.134000 -0.959500 0.247700
vn -0.066400 -0.934400 0.350000
vn -0.259100 -0.892100 0.370200
vn -0.102300 -0.900900 0.421700
vn -0.392800 -0.880200 0.266300
vn -0.359000 -0.903900 0.232300
vn -0.159200 -0.914100 0.372800
vn -0.060100 -0.903800 0.423700
vn -0.486000 -0.864900 0.125300
vn -0.525100 -0.850300 -0.034600
vn -0.523900 -0.848200 -0.077000
vn -0.482800 -0.875400 0.023500
vn 0.924200 -0.064200 0.376400
vn 0.983900 -0.178100 -0.016100
vn 0.856500 -0.036600 0.514800
vn -0.060100 -0.903800 0.423700
vn 0.459800 -0.398300 -0.793700
vn 0.077300 -0.069600 -0.994600
vn 0.571400 -0.567400 -0.592900
vn -0.523900 -0.848200 -0.077000
vn -0.773000 0.445000 -0.452100
vn -0.882300 0.446800 -0.148100
vn -0.678100 0.380000 -0.629100
vn -0.520700 -0.829400 -0.202200
vn -0.279100 0.151600 0.948200
vn 0.123100 0.326300 0.937200
vn -0.729500 0.053700 0.681800
vn 0.066300 -0.899800 0.431300
vn 0.433100 0.300600 0.849700
vn 0.609000 0.226000 0.760300
vn 0.779800 -0.436800 -0.448300
vn -0.303900 0.082700 -0.949100
vn -0.443500 0.119100 -0.888300
vn -0.945500 0.231500 0.228900
vn -0.609300 0.301300 -0.733500
vn -0.572400 0.240500 -0.783900
vn 0.709500 0.143500 0.689900
vn 0.755900 0.081500 0.649500
vn 0.795900 0.019400 0.605100
vn -0.532000 0.178500 -0.827700
vt 0.839504 0.118056
vt 0.856743 0.205307
vt 0.741230 0.205307
vt 0.734555 0.106726
vt 0.724541 0.032791
vt 0.813647 0.052618
vt 0.868992 0.081539
vt 0.913398 0.129584
vt 0.940923 0.205307
vt 0.839504 0.292557
vt 0.813647 0.357995
vt 0.724541 0.377822
vt 0.734555 0.303887
vt 0.913398 0.281029
vt 0.868992 0.329074
vt 0.369475 0.299954
vt 0.368286 0.370940
vt 0.245840 0.351447
vt 0.246397 0.288815
vt 0.246768 0.205307
vt 0.370268 0.205307
vt 0.494283 0.205307
vt 0.492822 0.304944
vt 0.490632 0.379672
vt 0.369475 0.110659
vt 0.246397 0.121798
vt 0.245841 0.059166
vt 0.368286 0.039673
vt 0.490632 0.030941
vt 0.492822 0.105669
vt 0.616755 0.103478
vt 0.619174 0.205307
vt 0.613127 0.027106
vt 0.616755 0.307135
vt 0.613126 0.383507
vt 0.123273 0.268175
vt 0.123047 0.315326
vt 0.054743 0.283353
vt 0.030912 0.249131
vt 0.030973 0.205306
vt 0.123423 0.205306
vt 0.123273 0.142438
vt 0.030912 0.161481
vt 0.054744 0.127260
vt 0.123047 0.095287
vt 0.839504 0.118056
vt 0.856743 0.205307
vt 0.968983 0.205307
vt 0.938030 0.133427
vt 0.876123 0.061548
vt 0.805028 0.030806
vt 0.721203 0.008146
vt 0.734555 0.106726
vt 0.741230 0.205307
vt 0.839504 0.292557
vt 0.805028 0.379807
vt 0.876123 0.349065
vt 0.938030 0.277186
vt 0.734555 0.303887
vt 0.721203 0.402467
vt 0.369475 0.299954
vt 0.367890 0.394602
vt 0.489902 0.404581
vt 0.492822 0.304944
vt 0.494283 0.205307
vt 0.370268 0.205307
vt 0.246768 0.205307
vt 0.246397 0.288815
vt 0.245655 0.372324
vt 0.369475 0.110659
vt 0.492822 0.105669
vt 0.489902 0.006032
vt 0.367890 0.016011
vt 0.245655 0.038289
vt 0.246397 0.121798
vt 0.616755 0.103478
vt 0.619174 0.205307
vt 0.611917 0.001649
vt 0.616755 0.307135
vt 0.611917 0.408964
vt 0.123273 0.268175
vt 0.122972 0.331043
vt 0.123423 0.205306
vt 0.000156 0.205306
vt 0.000125 0.242784
vt 0.000064 0.280261
vt 0.123273 0.142438
vt 0.122972 0.079570
vt 0.000064 0.130352
vt 0.000125 0.167829
vt 0.122972 0.331043
vt 0.030806 0.283587
vt 0.245655 0.372324
vt 0.030806 0.283587
vt 0.000125 0.167829
vt 0.030806 0.127026
vt 0.000156 0.205306
vt 0.030806 0.127026
vt 0.805028 0.030806
vt 0.873826 0.071832
vt 0.721203 0.008146
vt 0.873826 0.071832
vt 0.938030 0.277186
vt 0.873826 0.338781
vt 0.968983 0.205307
vt 0.873826 0.338781
vt 0.805028 0.379807
vt 0.721203 0.402467
vt 0.000125 0.242784
vt 0.122972 0.079570
vt 0.245655 0.038289
vt 0.938030 0.133427
vt 0.611917 0.001649
vt 0.489902 0.006032
vt 0.611917 0.408964
vt 0.489902 0.404581
vt 0.367890 0.394602
vt 0.367890 0.016011
f 1/1/1 2/2/2 3/3/3
f 1/1/1 3/3/3 4/4/4
f 1/1/1 4/4/4 5/5/5
f 1/1/1 5/5/5 6/6/6
f 1/1/1 6/6/6 7/7/7
f 1/1/1 7/7/7 8/8/8
f 1/1/1 8/8/8 9/9/9
f 1/1/1 9/9/9 2/2/2
f 10/10/10 11/11/11 12/12/12
f 10/10/10 12/12/12 13/13/13
f 10/10/10 13/13/13 3/3/3
f 10/10/10 3/3/3 2/2/2
f 10/10/10 2/2/2 9/9/9
f 10/10/10 9/9/9 14/14/14
f 10/10/10 14/14/14 15/15/15
f 10/10/10 15/15/15 11/11/11
f 16/16/16 17/17/17 18/18/18
f 16/16/16 18/18/18 19/19/19
f 16/16/16 19/19/19 20/20/20
f 16/16/16 20/20/20 21/21/21
f 16/16/16 21/21/21 22/22/22
f 16/16/16 22/22/22 23/23/23
f 16/16/16 23/23/23 24/24/24
f 16/16/16 24/24/24 17/17/17
f 25/25/25 21/21/21 20/20/20
f 25/25/25 20/20/20 26/26/26
f 25/25/25 26/26/26 27/27/27
f 25/25/25 27/27/27 28/28/28
f 25/25/25 28/28/28 29/29/29
f 25/25/25 29/29/29 30/30/30
f 25/25/25 30/30/30 22/22/22
f 25/25/25 22/22/22 21/21/21
f 31/31/31 32/32/32 22/22/22
f 31/31/31 22/22/22 30/30/30
f 31/31/31 30/30/30 29/29/29
f 31/31/31 29/29/29 33/33/33
f 31/31/31 33/33/33 5/5/5
f 31/31/31 5/5/5 4/4/4
f 31/31/31 4/4/4 3/3/3
f 31/31/31 3/3/3 32/32/32
f 34/34/34 35/35/35 24/24/24
f 34/34/34 24/24/24 23/23/23
f 34/34/34 23/23/23 22/22/22
f 34/34/34 22/22/22 32/32/32
f 34/34/34 32/32/32 3/3/3
f 34/34/34 3/3/3 13/13/13
f 34/34/34 13/13/13 12/12/12
f 34/34/34 12/12/12 35/35/35
f 36/36/36 37/37/37 38/38/38
f 36/36/36 38/38/38 39/39/39
f 36/36/36 39/39/39 40/40/40
f 36/36/36 40/40/40 41/41/41
f 36/36/36 41/41/41 20/20/20
f 36/36/36 20/20/20 19/19/19
f 36/36/36 19/19/19 18/18/18
f 36/36/36 18/18/18 37/37/37
f 42/42/42 41/41/41 40/40/40
f 42/42/42 40/40/40 43/43/43
f 42/42/42 43/43/43 44/44/44
f 42/42/42 44/44/44 45/45/45
f 42/42/42 45/45/45 27/27/27
f 42/42/42 27/27/27 26/26/26
f 42/42/42 26/26/26 20/20/20
f 42/42/42 20/20/20 41/41/41
f 46/46/46 47/47/47 48/48/48
f 46/46/46 48/48/48 49/49/49
f 46/46/46 49/49/49 50/50/50
f 46/46/46 50/50/50 51/51/51
f 46/46/46 51/51/51 52/52/52
f 46/46/46 52/52/52 53/53/53
f 46/46/46 53/53/53 54/54/54
f 46/46/46 54/54/54 47/47/47
f 55/55/55 56/56/56 57/57/57
f 55/55/55 57/57/57 58/58/58
f 55/55/55 58/58/58 48/48/48
f 55/55/55 48/48/48 47/47/47
f 55/55/55 47/47/47 54/54/54
f 55/55/55 54/54/54 59/59/59
f 55/55/55 59/59/59 60/60/60
f 55/55/55 60/60/60 56/56/56
f 61/61/61 62/62/62 63/63/63
f 61/61/61 63/63/63 64/64/64
f 61/61/61 64/64/64 65/65/65
f 61/61/61 65/65/65 66/66/66
f 61/61/61 66/66/66 67/67/67
f 61/61/61 67/67/67 68/68/68
f 61/61/61 68/68/68 69/69/69
f 61/61/61 69/69/69 62/62/62
f 70/70/70 66/66/66 65/65/65
f 70/70/70 65/65/65 71/71/71
f 70/70/70 71/71/71 72/72/72
f 70/70/70 72/72/72 73/73/73
f 70/70/70 73/73/73 74/74/74
f 70/70/70 74/74/74 75/75/75
f 70/70/70 75/75/75 67/67/67
f 70/70/70 67/67/67 66/66/66
f 76/76/76 77/77/77 54/54/54
f 76/76/76 54/54/54 53/53/53
f 76/76/76 53/53/53 52/52/52
f 76/76/76 52/52/52 78/78/78
f 76/76/76 78/78/78 72/72/72
f 76/76/76 72/72/72 71/71/71
f 76/76/76 71/71/71 65/65/65
f 76/76/76 65/65/65 77/77/77
f 79/79/79 80/80/80 60/60/60
f 79/79/79 60/60/60 59/59/59
f 79/79/79 59/59/59 54/54/54
f 79/79/79 54/54/54 77/77/77
f 79/79/79 77/77/77 65/65/65
f 79/79/79 65/65/65 64/64/64
f 79/79/79 64/64/64 63/63/63
f 79/79/79 63/63/63 80/80/80
f 81/81/81 82/82/82 69/69/69
f 81/81/81 69/69/69 68/68/68
f 81/81/81 68/68/68 67/67/67
f 81/81/81 67/67/67 83/83/83
f 81/81/81 83/83/83 84/84/84
f 81/81/81 84/84/84 85/85/85
f 81/81/81 85/85/85 86/86/86
f 81/81/81 86/86/86 82/82/82
f 87/87/87 83/83/83 67/67/67
f 87/87/87 67/67/67 75/75/75
f 87/87/87 75/75/75 74/74/74
f 87/87/87 74/74/74 88/88/88
f 87/87/87 88/88/88 89/89/89
f 87/87/87 89/89/89 90/90/90
f 87/87/87 90/90/90 84/84/84
f 87/87/87 84/84/84 83/83/83
f 91/91/91 92/92/92 38/38/38
f 91/91/91 38/38/38 37/37/37
f 91/91/91 37/37/37 18/18/18
f 91/91/91 18/18/18 93/93/93
f 91/91/91 93/93/93 69/69/69
f 91/91/91 69/69/69 82/82/82
f 91/91/91 82/82/82 94/94/94
f 91/91/91 94/94/94 92/92/92
f 95/95/95 96/96/96 44/44/44
f 95/95/95 44/44/44 43/43/43
f 95/95/95 43/43/43 40/40/40
f 95/95/95 40/40/40 97/97/97
f 95/95/95 97/97/97 84/84/84
f 95/95/95 84/84/84 90/90/90
f 95/95/95 90/90/90 98/98/98
f 95/95/95 98/98/98 96/96/96
f 99/99/99 100/100/100 7/7/7
f 99/99/99 7/7/7 6/6/6
f 99/99/99 6/6/6 5/5/5
f 99/99/99 5/5/5 101/101/101
f 99/99/99 101/101/101 52/52/52
f 99/99/99 52/52/52 51/51/51
f 99/99/99 51/51/51 102/102/102
f 99/99/99 102/102/102 100/100/100
f 103/103/103 104/104/104 15/15/15
f 103/103/103 15/15/15 14/14/14
f 103/103/103 14/14/14 9/9/9
f 103/103/103 9/9/9 105/105/105
f 103/103/103 105/105/105 48/48/48
f 103/103/103 48/48/48 58/58/58
f 103/103/103 58/58/58 106/106/106
f 103/103/103 106/106/106 104/104/104
f 107/107/107 108/108/108 12/12/12
f 107/107/107 12/12/12 11/11/11
f 107/107/107 11/11/11 15/15/15
f 107/107/107 15/15/15 104/104/104
f 107/107/107 104/104/104 106/106/106
f 107/107/107 106/106/106 56/56/56
f 107/107/107 56/56/56 60/60/60
f 107/107/107 60/60/60 108/108/108
f 109/109/109 97/97/97 40/40/40
f 109/109/109 40/40/40 39/39/39
f 109/109/109 39/39/39 38/38/38
f 109/109/109 38/38/38 92/92/92
f 109/109/109 92/92/92 94/94/94
f 109/109/109 94/94/94 85/85/85
f 109/109/109 85/85/85 84/84/84
f 109/109/109 84/84/84 97/97/97
f 110/110/110 111/111/111 27/27/27
f 110/110/110 27/27/27 45/45/45
f 110/110/110 45/45/45 44/44/44
f 110/110/110 44/44/44 96/96/96
f 110/110/110 96/96/96 98/98/98
f 110/110/110 98/98/98 88/88/88
f 110/110/110 88/88/88 74/74/74
f 110/110/110 74/74/74 111/111/111
f 112/112/112 105/105/105 9/9/9
f 112/112/112 9/9/9 8/8/8
f 112/112/112 8/8/8 7/7/7
f 112/112/112 7/7/7 100/100/100
f 112/112/112 100/100/100 102/102/102
f 112/112/112 102/102/102 49/49/49
f 112/112/112 49/49/49 48/48/48
f 112/112/112 48/48/48 105/105/105
f 113/113/113 101/101/101 5/5/5
f 113/113/113 5/5/5 33/33/33
f 113/113/113 33/33/33 29/29/29
f 113/113/113 29/29/29 114/114/114
f 113/113/113 114/114/114 72/72/72
f 113/113/113 72/72/72 78/78/78
f 113/113/113 78/78/78 52/52/52
f 113/113/113 52/52/52 101/101/101
f 115/115/115 116/116/116 24/24/24
f 115/115/115 24/24/24 35/35/35
f 115/115/115 35/35/35 12/12/12
f 115/115/115 12/12/12 108/108/108
f 115/115/115 108/108/108 60/60/60
f 115/115/115 60/60/60 80/80/80
f 115/115/115 80/80/80 63/63/63
f 115/115/115 63/63/63 116/116/116
f 117/117/117 93/93/93 18/18/18
f 117/117/117 18/18/18 17/17/17
f 117/117/117 17/17/17 24/24/24
f 117/117/117 24/24/24 116/116/116
f 117/117/117 116/116/116 63/63/63
f 117/117/117 63/63/63 62/62/62
f 117/117/117 62/62/62 69/69/69
f 117/117/117 69/69/69 93/93/93
f 118/118/118 114/114/114 29/29/29
f 118/118/118 29/29/29 28/28/28
f 118/118/118 28/28/28 27/27/27
f 118/118/118 27/27/27 111/111/111
f 118/118/118 111/111/111 74/74/74
f 118/118/118 74/74/74 73/73/73
f 118/118/118 73/73/73 72/72/72
f 118/118/118 72/72/72 114/114/114
