v -2.387068 0.726087 -1.046936
v -2.385936 0.725437 -1.045222
v -2.384313 0.724489 -1.047388
v -2.385802 0.725278 -1.049091
v -2.386767 0.726015 -1.050495
v -2.387651 0.726668 -1.048497
v -2.388016 0.726773 -1.046975
v -2.387952 0.726538 -1.045347
v -2.387164 0.726041 -1.043625
v -2.384049 0.725095 -1.044240
v -2.382357 0.724927 -1.043768
v -2.380753 0.724038 -1.045123
v -2.382371 0.724150 -1.046026
v -2.385339 0.725679 -1.043013
v -2.383729 0.725364 -1.043145
v -2.378022 0.719801 -1.052570
v -2.376626 0.719556 -1.051526
v -2.375733 0.717790 -1.053902
v -2.376977 0.717997 -1.054819
v -2.378558 0.718365 -1.056086
v -2.379802 0.720225 -1.054009
v -2.381155 0.721912 -1.051872
v -2.379284 0.721487 -1.050372
v -2.377806 0.721258 -1.049289
v -2.381384 0.720906 -1.055572
v -2.379950 0.718974 -1.057474
v -2.380943 0.719502 -1.058555
v -2.382516 0.721493 -1.056787
v -2.383967 0.723284 -1.054792
v -2.382800 0.722643 -1.053513
v -2.384326 0.724115 -1.051318
v -2.382689 0.723324 -1.049635
v -2.385462 0.724839 -1.052644
v -2.380758 0.722942 -1.048131
v -2.379209 0.722783 -1.047059
v -2.376151 0.716188 -1.057215
v -2.375192 0.716070 -1.056548
v -2.375158 0.715105 -1.058173
v -2.375626 0.714808 -1.059055
v -2.376478 0.714940 -1.059675
v -2.377352 0.716435 -1.058146
v -2.378369 0.716918 -1.059196
v -2.377146 0.715308 -1.060413
v -2.377894 0.716005 -1.060616
v -2.379082 0.717349 -1.060023
v -2.387183 0.725894 -1.046926
v -2.386029 0.725234 -1.045192
v -2.387232 0.725888 -1.043605
v -2.388038 0.726393 -1.045343
v -2.388085 0.726668 -1.046975
v -2.387748 0.726529 -1.048500
v -2.386865 0.725877 -1.050490
v -2.385920 0.725087 -1.049072
v -2.384411 0.724290 -1.047352
v -2.384119 0.724887 -1.044190
v -2.382397 0.724770 -1.043721
v -2.383761 0.725247 -1.043114
v -2.385389 0.725522 -1.042977
v -2.382449 0.723945 -1.045972
v -2.380801 0.723883 -1.045073
v -2.378127 0.719617 -1.052489
v -2.376697 0.719417 -1.051459
v -2.377871 0.721114 -1.049228
v -2.379381 0.721296 -1.050300
v -2.381269 0.721726 -1.051813
v -2.379921 0.720045 -1.053941
v -2.378681 0.718190 -1.056012
v -2.377086 0.717818 -1.054732
v -2.375807 0.717654 -1.053830
v -2.381518 0.720732 -1.055518
v -2.382929 0.722463 -1.053468
v -2.384071 0.723152 -1.054766
v -2.382623 0.721365 -1.056752
v -2.381053 0.719379 -1.058516
v -2.380088 0.718805 -1.057413
v -2.384449 0.723929 -1.051286
v -2.382795 0.723131 -1.049588
v -2.385562 0.724704 -1.052628
v -2.380846 0.722744 -1.048068
v -2.379265 0.722633 -1.047004
v -2.376260 0.716012 -1.057125
v -2.375265 0.715935 -1.056474
v -2.377477 0.716263 -1.058069
v -2.376572 0.714811 -1.059617
v -2.375707 0.714676 -1.058987
v -2.375215 0.715006 -1.058120
v -2.378509 0.716751 -1.059134
v -2.379194 0.717227 -1.059984
v -2.377975 0.715914 -1.060585
v -2.377252 0.715184 -1.060367
v -2.374903 0.715970 -1.056292
v -2.374924 0.714721 -1.058572
v -2.375350 0.717660 -1.053563
v -2.375215 0.715006 -1.058120
v -2.376786 0.714716 -1.060798
v -2.377664 0.715622 -1.061019
v -2.376228 0.714385 -1.060159
v -2.377975 0.715914 -1.060585
v -2.387891 0.726801 -1.049021
v -2.388245 0.726912 -1.047043
v -2.387134 0.726201 -1.050963
v -2.388085 0.726668 -1.046975
v -2.385791 0.725803 -1.042588
v -2.383606 0.725387 -1.042900
v -2.387603 0.726174 -1.043084
v -2.383761 0.725247 -1.043114
v -2.381808 0.724801 -1.043588
v -2.380233 0.723931 -1.044798
v -2.375487 0.714289 -1.059638
v -2.379371 0.717439 -1.060283
v -2.381324 0.719624 -1.058899
v -2.388285 0.726623 -1.044816
v -2.385886 0.725021 -1.053081
v -2.384404 0.723440 -1.055209
v -2.378716 0.722664 -1.046676
v -2.377340 0.721117 -1.048900
v -2.376190 0.719412 -1.051147
v -2.382942 0.721632 -1.057178
vn 0.543000 0.839000 0.035600
vn 0.383300 0.919100 -0.090900
vn 0.416900 0.898700 -0.136000
vn 0.561400 0.827200 -0.024900
vn 0.568700 0.821000 -0.049900
vn 0.538200 0.842300 0.029900
vn 0.513300 0.853900 0.085900
vn 0.463100 0.882700 0.079500
vn 0.328100 0.944400 -0.019700
vn 0.229300 0.942100 -0.244600
vn 0.235900 0.941600 -0.240000
vn 0.302000 0.908700 -0.288300
vn 0.281000 0.919300 -0.275300
vn 0.207100 0.966900 -0.149300
vn 0.188700 0.960600 -0.204100
vn 0.459600 0.798500 -0.388700
vn 0.491700 0.787400 -0.371600
vn 0.507400 0.767400 -0.391900
vn 0.467300 0.780000 -0.416300
vn 0.559600 0.751200 -0.350000
vn 0.541900 0.776800 -0.320800
vn 0.503500 0.823800 -0.260400
vn 0.415100 0.842600 -0.343000
vn 0.444300 0.829300 -0.338700
vn 0.617100 0.746800 -0.248000
vn 0.636200 0.724400 -0.265400
vn 0.607000 0.734700 -0.302800
vn 0.595700 0.753300 -0.278700
vn 0.581700 0.784200 -0.215900
vn 0.591700 0.784500 -0.185200
vn 0.570800 0.814700 -0.101600
vn 0.456800 0.868700 -0.191700
vn 0.573200 0.808600 -0.132200
vn 0.348200 0.887900 -0.300500
vn 0.374700 0.873900 -0.309600
vn 0.452600 0.774900 -0.441200
vn 0.497900 0.759400 -0.418700
vn 0.479500 0.753700 -0.449300
vn 0.457000 0.741100 -0.491900
vn 0.588800 0.701900 -0.400800
vn 0.567600 0.738700 -0.363500
vn 0.658600 0.707100 -0.257400
vn 0.694200 0.663100 -0.279900
vn 0.657600 0.695200 -0.290300
vn 0.629900 0.716100 -0.300800
vn -0.573300 -0.818600 -0.036100
vn -0.392700 -0.913800 0.103300
vn -0.428000 -0.891000 0.151200
vn -0.658600 -0.751400 -0.040600
vn -0.733400 -0.672900 -0.096200
vn -0.716500 -0.692000 -0.087900
vn -0.680700 -0.731300 -0.041000
vn -0.571800 -0.820200 0.016000
vn -0.416900 -0.898700 0.135900
vn -0.220200 -0.934600 0.279200
vn -0.121000 -0.887800 0.443900
vn -0.105800 -0.879300 0.464200
vn -0.188700 -0.905900 0.378900
vn -0.269700 -0.919500 0.285800
vn -0.180300 -0.895900 0.406000
vn -0.446400 -0.801700 0.397600
vn -0.350900 -0.817900 0.455900
vn -0.317500 -0.847700 0.424900
vn -0.403100 -0.844800 0.351900
vn -0.503600 -0.823700 0.260600
vn -0.542000 -0.776600 0.320900
vn -0.559600 -0.751100 0.350100
vn -0.450900 -0.784800 0.425200
vn -0.331000 -0.817500 0.471200
vn -0.627200 -0.742200 0.236100
vn -0.601400 -0.779600 0.174800
vn -0.675100 -0.730100 0.105500
vn -0.692200 -0.705700 0.151000
vn -0.707300 -0.693900 0.134900
vn -0.647000 -0.720300 0.250100
vn -0.580200 -0.809200 0.091900
vn -0.456800 -0.868700 0.191700
vn -0.667700 -0.743800 0.030500
vn -0.336600 -0.889300 0.309500
vn -0.252400 -0.880400 0.401500
vn -0.423900 -0.790100 0.442700
vn -0.269100 -0.837600 0.475300
vn -0.562700 -0.746300 0.355300
vn -0.540600 -0.778600 0.318700
vn -0.333300 -0.836800 0.434300
vn -0.229000 -0.851100 0.472300
vn -0.666600 -0.710300 0.226000
vn -0.721200 -0.689000 0.071300
vn -0.725100 -0.688000 0.029100
vn -0.679300 -0.723100 0.125200
vn 0.919300 -0.290600 0.265400
vn 0.897200 -0.423200 -0.126000
vn 0.879100 -0.244100 0.409200
vn -0.229000 -0.851100 0.472300
vn 0.239100 -0.516300 -0.822300
vn -0.072100 -0.104200 -0.991900
vn 0.329800 -0.704400 -0.628500
vn -0.725100 -0.688000 0.029100
vn -0.689000 0.619300 -0.376600
vn -0.753800 0.654100 -0.062400
vn -0.637100 0.529300 -0.560200
vn -0.733400 -0.672900 -0.096200
vn -0.107200 0.234100 0.966300
vn 0.321100 0.300500 0.898100
vn -0.598200 0.249600 0.761500
vn -0.105800 -0.879300 0.464200
vn 0.601000 0.195100 0.775000
vn 0.739500 0.076500 0.668700
vn 0.581000 -0.628800 -0.516700
vn -0.394100 0.141300 -0.908100
vn -0.510700 0.212600 -0.833100
vn -0.819600 0.468500 0.329700
vn -0.604300 0.434000 -0.668200
vn -0.590500 0.364800 -0.719800
vn 0.806200 -0.030100 0.590900
vn 0.829800 -0.102300 0.548500
vn 0.846700 -0.173000 0.503200
vn -0.572700 0.293400 -0.765500
vt 0.839504 0.118056
vt 0.856743 0.205307
vt 0.741230 0.205307
vt 0.734555 0.106726
vt 0.724541 0.032791
vt 0.813647 0.052618
vt 0.868992 0.081539
vt 0.913398 0.129584
vt 0.940923 0.205307
vt 0.839504 0.292557
vt 0.813647 0.357995
vt 0.724541 0.377822
vt 0.734555 0.303887
vt 0.913398 0.281029
vt 0.868992 0.329074
vt 0.369475 0.299954
vt 0.368286 0.370940
vt 0.245840 0.351447
vt 0.246397 0.288815
vt 0.246768 0.205307
vt 0.370268 0.205307
vt 0.494283 0.205307
vt 0.492822 0.304944
vt 0.490632 0.379672
vt 0.369475 0.110659
vt 0.246397 0.121798
vt 0.245841 0.059166
vt 0.368286 0.039673
vt 0.490632 0.030941
vt 0.492822 0.105669
vt 0.616755 0.103478
vt 0.619174 0.205307
vt 0.613127 0.027106
vt 0.616755 0.307135
vt 0.613126 0.383507
vt 0.123273 0.268175
vt 0.123047 0.315326
vt 0.054743 0.283353
vt 0.030912 0.249131
vt 0.030973 0.205306
vt 0.123423 0.205306
vt 0.123273 0.142438
vt 0.030912 0.161481
vt 0.054744 0.127260
vt 0.123047 0.095287
vt 0.839504 0.118056
vt 0.856743 0.205307
vt 0.968983 0.205307
vt 0.938030 0.133427
vt 0.876123 0.061548
vt 0.805028 0.030806
vt 0.721203 0.008146
vt 0.734555 0.106726
vt 0.741230 0.205307
vt 0.839504 0.292557
vt 0.805028 0.379807
vt 0.876123 0.349065
vt 0.938030 0.277186
vt 0.734555 0.303887
vt 0.721203 0.402467
vt 0.369475 0.299954
vt 0.367890 0.394602
vt 0.489902 0.404581
vt 0.492822 0.304944
vt 0.494283 0.205307
vt 0.370268 0.205307
vt 0.246768 0.205307
vt 0.246397 0.288815
vt 0.245655 0.372324
vt 0.369475 0.110659
vt 0.492822 0.105669
vt 0.489902 0.006032
vt 0.367890 0.016011
vt 0.245655 0.038289
vt 0.246397 0.121798
vt 0.616755 0.103478
vt 0.619174 0.205307
vt 0.611917 0.001649
vt 0.616755 0.307135
vt 0.611917 0.408964
vt 0.123273 0.268175
vt 0.122972 0.331043
vt 0.123423 0.205306
vt 0.000156 0.205306
vt 0.000125 0.242784
vt 0.000064 0.280261
vt 0.123273 0.142438
vt 0.122972 0.079570
vt 0.000064 0.130352
vt 0.000125 0.167829
vt 0.122972 0.331043
vt 0.030806 0.283587
vt 0.245655 0.372324
vt 0.030806 0.283587
vt 0.000125 0.167829
vt 0.030806 0.127026
vt 0.000156 0.205306
vt 0.030806 0.127026
vt 0.805028 0.030806
vt 0.873826 0.071832
vt 0.721203 0.008146
vt 0.873826 0.071832
vt 0.938030 0.277186
vt 0.873826 0.338781
vt 0.968983 0.205307
vt 0.873826 0.338781
vt 0.805028 0.379807
vt 0.721203 0.402467
vt 0.000125 0.242784
vt 0.122972 0.079570
vt 0.245655 0.038289
vt 0.938030 0.133427
vt 0.611917 0.001649
vt 0.489902 0.006032
vt 0.611917 0.408964
vt 0.489902 0.404581
vt 0.367890 0.394602
vt 0.367890 0.016011
f 1/1/1 2/2/2 3/3/3
f 1/1/1 3/3/3 4/4/4
f 1/1/1 4/4/4 5/5/5
f 1/1/1 5/5/5 6/6/6
f 1/1/1 6/6/6 7/7/7
f 1/1/1 7/7/7 8/8/8
f 1/1/1 8/8/8 9/9/9
f 1/1/1 9/9/9 2/2/2
f 10/10/10 11/11/11 12/12/12
f 10/10/10 12/12/12 13/13/13
f 10/10/10 13/13/13 3/3/3
f 10/10/10 3/3/3 2/2/2
f 10/10/10 2/2/2 9/9/9
f 10/10/10 9/9/9 14/14/14
f 10/10/10 14/14/14 15/15/15
f 10/10/10 15/15/15 11/11/11
f 16/16/16 17/17/17 18/18/18
f 16/16/16 18/18/18 19/19/19
f 16/16/16 19/19/19 20/20/20
f 16/16/16 20/20/20 21/21/21
f 16/16/16 21/21/21 22/22/22
f 16/16/16 22/22/22 23/23/23
f 16/16/16 23/23/23 24/24/24
f 16/16/16 24/24/24 17/17/17
f 25/25/25 21/21/21 20/20/20
f 25/25/25 20/20/20 26/26/26
f 25/25/25 26/26/26 27/27/27
f 25/25/25 27/27/27 28/28/28
f 25/25/25 28/28/28 29/29/29
f 25/25/25 29/29/29 30/30/30
f 25/25/25 30/30/30 22/22/22
f 25/25/25 22/22/22 21/21/21
f 31/31/31 32/32/32 22/22/22
f 31/31/31 22/22/22 30/30/30
f 31/31/31 30/30/30 29/29/29
f 31/31/31 29/29/29 33/33/33
f 31/31/31 33/33/33 5/5/5
f 31/31/31 5/5/5 4/4/4
f 31/31/31 4/4/4 3/3/3
f 31/31/31 3/3/3 32/32/32
f 34/34/34 35/35/35 24/24/24
f 34/34/34 24/24/24 23/23/23
f 34/34/34 23/23/23 22/22/22
f 34/34/34 22/22/22 32/32/32
f 34/34/34 32/32/32 3/3/3
f 34/34/34 3/3/3 13/13/13
f 34/34/34 13/13/13 12/12/12
f 34/34/34 12/12/12 35/35/35
f 36/36/36 37/37/37 38/38/38
f 36/36/36 38/38/38 39/39/39
f 36/36/36 39/39/39 40/40/40
f 36/36/36 40/40/40 41/41/41
f 36/36/36 41/41/41 20/20/20
f 36/36/36 20/20/20 19/19/19
f 36/36/36 19/19/19 18/18/18
f 36/36/36 18/18/18 37/37/37
f 42/42/42 41/41/41 40/40/40
f 42/42/42 40/40/40 43/43/43
f 42/42/42 43/43/43 44/44/44
f 42/42/42 44/44/44 45/45/45
f 42/42/42 45/45/45 27/27/27
f 42/42/42 27/27/27 26/26/26
f 42/42/42 26/26/26 20/20/20
f 42/42/42 20/20/20 41/41/41
f 46/46/46 47/47/47 48/48/48
f 46/46/46 48/48/48 49/49/49
f 46/46/46 49/49/49 50/50/50
f 46/46/46 50/50/50 51/51/51
f 46/46/46 51/51/51 52/52/52
f 46/46/46 52/52/52 53/53/53
f 46/46/46 53/53/53 54/54/54
f 46/46/46 54/54/54 47/47/47
f 55/55/55 56/56/56 57/57/57
f 55/55/55 57/57/57 58/58/58
f 55/55/55 58/58/58 48/48/48
f 55/55/55 48/48/48 47/47/47
f 55/55/55 47/47/47 54/54/54
f 55/55/55 54/54/54 59/59/59
f 55/55/55 59/59/59 60/60/60
f 55/55/55 60/60/60 56/56/56
f 61/61/61 62/62/62 63/63/63
f 61/61/61 63/63/63 64/64/64
f 61/61/61 64/64/64 65/65/65
f 61/61/61 65/65/65 66/66/66
f 61/61/61 66/66/66 67/67/67
f 61/61/61 67/67/67 68/68/68
f 61/61/61 68/68/68 69/69/69
f 61/61/61 69/69/69 62/62/62
f 70/70/70 66/66/66 65/65/65
f 70/70/70 65/65/65 71/71/71
f 70/70/70 71/71/71 72/72/72
f 70/70/70 72/72/72 73/73/73
f 70/70/70 73/73/73 74/74/74
f 70/70/70 74/74/74 75/75/75
f 70/70/70 75/75/75 67/67/67
f 70/70/70 67/67/67 66/66/66
f 76/76/76 77/77/77 54/54/54
f 76/76/76 54/54/54 53/53/53
f 76/76/76 53/53/53 52/52/52
f 76/76/76 52/52/52 78/78/78
f 76/76/76 78/78/78 72/72/72
f 76/76/76 72/72/72 71/71/71
f 76/76/76 71/71/71 65/65/65
f 76/76/76 65/65/65 77/77/77
f 79/79/79 80/80/80 60/60/60
f 79/79/79 60/60/60 59/59/59
f 79/79/79 59/59/59 54/54/54
f 79/79/79 54/54/54 77/77/77
f 79/79/79 77/77/77 65/65/65
f 79/79/79 65/65/65 64/64/64
f 79/79/79 64/64/64 63/63/63
f 79/79/79 63/63/63 80/80/80
f 81/81/81 82/82/82 69/69/69
f 81/81/81 69/69/69 68/68/68
f 81/81/81 68/68/68 67/67/67
f 81/81/81 67/67/67 83/83/83
f 81/81/81 83/83/83 84/84/84
f 81/81/81 84/84/84 85/85/85
f 81/81/81 85/85/85 86/86/86
f 81/81/81 86/86/86 82/82/82
f 87/87/87 83/83/83 67/67/67
f 87/87/87 67/67/67 75/75/75
f 87/87/87 75/75/75 74/74/74
f 87/87/87 74/74/74 88/88/88
f 87/87/87 88/88/88 89/89/89
f 87/87/87 89/89/89 90/90/90
f 87/87/87 90/90/90 84/84/84
f 87/87/87 84/84/84 83/83/83
f 91/91/91 92/92/92 38/38/38
f 91/91/91 38/38/38 37/37/37
f 91/91/91 37/37/37 18/18/18
f 91/91/91 18/18/18 93/93/93
f 91/91/91 93/93/93 69/69/69
f 91/91/91 69/69/69 82/82/82
f 91/91/91 82/82/82 94/94/94
f 91/91/91 94/94/94 92/92/92
f 95/95/95 96/96/96 44/44/44
f 95/95/95 44/44/44 43/43/43
f 95/95/95 43/43/43 40/40/40
f 95/95/95 40/40/40 97/97/97
f 95/95/95 97/97/97 84/84/84
f 95/95/95 84/84/84 90/90/90
f 95/95/95 90/90/90 98/98/98
f 95/95/95 98/98/98 96/96/96
f 99/99/99 100/100/100 7/7/7
f 99/99/99 7/7/7 6/6/6
f 99/99/99 6/6/6 5/5/5
f 99/99/99 5/5/5 101/101/101
f 99/99/99 101/101/101 52/52/52
f 99/99/99 52/52/52 51/51/51
f 99/99/99 51/51/51 102/102/102
f 99/99/99 102/102/102 100/100/100
f 103/103/103 104/104/104 15/15/15
f 103/103/103 15/15/15 14/14/14
f 103/103/103 14/14/14 9/9/9
f 103/103/103 9/9/9 105/105/105
f 103/103/103 105/105/105 48/48/48
f 103/103/103 48/48/48 58/58/58
f 103/103/103 58/58/58 106/106/106
f 103/103/103 106/106/106 104/104/104
f 107/107/107 108/108/108 12/12/12
f 107/107/107 12/12/12 11/11/11
f 107/107/107 11/11/11 15/15/15
f 107/107/107 15/15/15 104/104/104
f 107/107/107 104/104/104 106/106/106
f 107/107/107 106/106/106 56/56/56
f 107/107/107 56/56/56 60/60/60
f 107/107/107 60/60/60 108/108/108
f 109/109/109 97/97/97 40/40/40
f 109/109/109 40/40/40 39/39/39
f 109/109/109 39/39/39 38/38/38
f 109/109/109 38/38/38 92/92/92
f 109/109/109 92/92/92 94/94/94
f 109/109/109 94/94/94 85/85/85
f 109/109/109 85/85/85 84/84/84
f 109/109/109 84/84/84 97/97/97
f 110/110/110 111/111/111 27/27/27
f 110/110/110 27/27/27 45/45/45
f 110/110/110 45/45/45 44/44/44
f 110/110/110 44/44/44 96/96/96
f 110/110/110 96/96/96 98/98/98
f 110/110/110 98/98/98 88/88/88
f 110/110/110 88/88/88 74/74/74
f 110/110/110 74/74/74 111/111/111
f 112/112/112 105/105/105 9/9/9
f 112/112/112 9/9/9 8/8/8
f 112/112/112 8/8/8 7/7/7
f 112/112/112 7/7/7 100/100/100
f 112/112/112 100/100/100 102/102/102
f 112/112/112 102/102/102 49/49/49
f 112/112/112 49/49/49 48/48/48
f 112/112/112 48/48/48 105/105/105
f 113/113/113 101/101/101 5/5/5
f 113/113/113 5/5/5 33/33/33
f 113/113/113 33/33/33 29/29/29
f 113/113/113 29/29/29 114/114/114
f 113/113/113 114/114/114 72/72/72
f 113/113/113 72/72/72 78/78/78
f 113/113/113 78/78/78 52/52/52
f 113/113/113 52/52/52 101/101/101
f 115/115/115 116/116/116 24/24/24
f 115/115/115 24/24/24 35/35/35
f 115/115/115 35/35/35 12/12/12
f 115/115/115 12/12/12 108/108/108
f 115/115/115 108/108/108 60/60/60
f 115/115/115 60/60/60 80/80/80
f 115/115/115 80/80/80 63/63/63
f 115/115/115 63/63/63 116/116/116
f 117/117/117 93/93/93 18/18/18
f 117/117/117 18/18/18 17/17/17
f 117/117/117 17/17/17 24/24/24
f 117/117/117 24/24/24 116/116/116
f 117/117/117 116/116/116 63/63/63
f 117/117/117 63/63/63 62/62/62
f 117/117/117 62/62/62 69/69/69
f 117/117/117 69/69/69 93/93/93
f 118/118/118 114/114/114 29/29/29
f 118/118/118 29/29/29 28/28/28
f 118/118/118 28/28/28 27/27/27
f 118/118/118 27/27/27 111/111/111
f 118/118/118 111/111/111 74/74/74
f 118/118/118 74/74/74 73/73/73
f 118/118/118 73/73/73 72/72/72
f 118/118/118 72/72/72 114/114/114
