v -2.346442 0.695541 -1.133229
v -2.345204 0.696312 -1.135335
v -2.348080 0.695035 -1.136648
v -2.349135 0.694238 -1.134126
v -2.350181 0.693787 -1.132235
v -2.347826 0.695034 -1.131736
v -2.346109 0.695747 -1.131893
v -2.344447 0.696383 -1.132707
v -2.343041 0.697148 -1.134398
v -2.345218 0.697356 -1.137674
v -2.345679 0.698217 -1.139531
v -2.347742 0.697402 -1.141090
v -2.347744 0.696300 -1.139177
v -2.343387 0.697953 -1.136555
v -2.344370 0.698324 -1.138206
v -2.355729 0.690747 -1.143581
v -2.355423 0.691690 -1.145424
v -2.357877 0.689175 -1.146505
v -2.358135 0.688331 -1.144874
v -2.358591 0.687308 -1.142698
v -2.356258 0.689598 -1.141120
v -2.353758 0.691702 -1.139573
v -2.353221 0.692922 -1.142143
v -2.352926 0.693938 -1.144067
v -2.357093 0.688726 -1.138631
v -2.359340 0.686544 -1.140496
v -2.359990 0.686043 -1.138833
v -2.357812 0.688149 -1.136751
v -2.355425 0.690235 -1.134994
v -2.354647 0.690809 -1.136965
v -2.351932 0.692653 -1.135417
v -2.350982 0.693506 -1.138072
v -2.352797 0.692151 -1.133405
v -2.350485 0.694798 -1.140671
v -2.350262 0.695909 -1.142612
v -2.360561 0.685734 -1.145912
v -2.360414 0.686404 -1.147127
v -2.361821 0.684653 -1.147173
v -2.362363 0.683697 -1.146601
v -2.362527 0.683114 -1.145493
v -2.360867 0.684941 -1.144290
v -2.361460 0.684401 -1.142645
v -2.362979 0.682783 -1.144362
v -2.362930 0.683009 -1.143145
v -2.361991 0.684065 -1.141399
v -2.346317 0.695306 -1.133249
v -2.345068 0.696088 -1.135389
v -2.342942 0.696978 -1.134440
v -2.344357 0.696204 -1.132722
v -2.346044 0.695614 -1.131896
v -2.347737 0.694853 -1.131733
v -2.350083 0.693611 -1.132234
v -2.348999 0.694008 -1.134145
v -2.347935 0.694815 -1.136698
v -2.345074 0.697147 -1.137761
v -2.345567 0.698070 -1.139612
v -2.344290 0.698212 -1.138263
v -2.343282 0.697797 -1.136623
v -2.347592 0.696095 -1.139256
v -2.347624 0.697256 -1.141164
v -2.355540 0.690562 -1.143631
v -2.355279 0.691556 -1.145472
v -2.352790 0.693799 -1.144121
v -2.353042 0.692730 -1.142201
v -2.353586 0.691499 -1.139608
v -2.356074 0.689404 -1.141149
v -2.358400 0.687120 -1.142722
v -2.357939 0.688152 -1.144919
v -2.357728 0.689046 -1.146549
v -2.356915 0.688524 -1.138638
v -2.354481 0.690597 -1.136978
v -2.355304 0.690073 -1.134992
v -2.357682 0.687994 -1.136746
v -2.359855 0.685892 -1.138824
v -2.359156 0.686348 -1.140499
v -2.351782 0.692432 -1.135434
v -2.350824 0.693294 -1.138115
v -2.352689 0.691981 -1.133404
v -2.350320 0.694598 -1.140740
v -2.350135 0.695766 -1.142676
v -2.360361 0.685559 -1.145957
v -2.360262 0.686278 -1.147173
v -2.360673 0.684755 -1.144313
v -2.362382 0.682976 -1.145510
v -2.362213 0.683567 -1.146636
v -2.361709 0.684558 -1.147204
v -2.361274 0.684207 -1.142644
v -2.361855 0.683916 -1.141387
v -2.362828 0.682899 -1.143139
v -2.362839 0.682638 -1.144361
v -2.360296 0.686572 -1.147555
v -2.362259 0.684185 -1.147490
v -2.357724 0.689400 -1.147071
v -2.361709 0.684558 -1.147204
v -2.363423 0.682180 -1.144934
v -2.363370 0.682537 -1.143454
v -2.363016 0.682444 -1.145902
v -2.362828 0.682899 -1.143139
v -2.348249 0.694784 -1.131233
v -2.346081 0.695741 -1.131566
v -2.350487 0.693558 -1.131601
v -2.346044 0.695614 -1.131896
v -2.342731 0.698083 -1.136212
v -2.344200 0.698529 -1.138396
v -2.342277 0.697351 -1.134105
v -2.344290 0.698212 -1.138263
v -2.345782 0.698440 -1.140190
v -2.347688 0.697706 -1.141763
v -2.362897 0.682960 -1.146846
v -2.362109 0.683886 -1.140976
v -2.360147 0.685808 -1.138273
v -2.343742 0.696583 -1.132540
v -2.353038 0.691907 -1.132731
v -2.355631 0.689971 -1.134334
v -2.350130 0.696217 -1.143290
v -2.352767 0.694217 -1.144735
v -2.355256 0.691946 -1.146063
v -2.357995 0.687887 -1.136120
vn -0.415000 0.909700 0.015700
vn -0.461800 0.858400 0.223200
vn -0.511900 0.835400 0.200000
vn -0.472600 0.881200 0.013800
vn -0.496000 0.868200 0.012400
vn -0.418100 0.908100 0.023000
vn -0.361100 0.932000 0.031300
vn -0.348500 0.933200 0.087900
vn -0.380200 0.888200 0.257900
vn -0.522000 0.751100 0.404200
vn -0.521300 0.755200 0.397400
vn -0.587100 0.733300 0.343000
vn -0.568200 0.739400 0.361100
vn -0.435900 0.803600 0.405200
vn -0.471900 0.767800 0.433400
vn -0.724900 0.661600 0.191600
vn -0.723700 0.672400 0.155100
vn -0.744200 0.653500 0.138400
vn -0.748100 0.637500 0.184200
vn -0.730600 0.678500 0.075700
vn -0.702800 0.705100 0.094300
vn -0.643200 0.754400 0.130800
vn -0.674200 0.699800 0.235900
vn -0.681900 0.702300 0.204500
vn -0.671200 0.741200 -0.003400
vn -0.690500 0.722900 -0.025000
vn -0.710200 0.703800 0.015100
vn -0.688300 0.724900 0.026400
vn -0.635000 0.771700 0.034500
vn -0.613900 0.789100 0.017100
vn -0.539400 0.841600 0.023700
vn -0.571900 0.802500 0.170000
vn -0.565300 0.824400 0.028000
vn -0.615400 0.729100 0.299500
vn -0.633000 0.724000 0.274000
vn -0.761000 0.616800 0.200600
vn -0.760600 0.631600 0.149900
vn -0.776300 0.606700 0.170900
vn -0.798500 0.569400 0.195100
vn -0.777200 0.627800 0.042200
vn -0.743200 0.665600 0.067000
vn -0.690800 0.720900 -0.054400
vn -0.717800 0.689200 -0.098800
vn -0.715500 0.696800 -0.049700
vn -0.715400 0.698500 -0.013500
vn 0.424900 -0.905000 0.019300
vn 0.475800 -0.852400 -0.216900
vn 0.528600 -0.826900 -0.192000
vn 0.448000 -0.885500 0.123300
vn 0.420300 -0.874600 0.241500
vn 0.423300 -0.880000 0.215400
vn 0.454100 -0.877900 0.151700
vn 0.468600 -0.883400 0.000900
vn 0.511800 -0.835400 -0.200100
vn 0.545300 -0.726500 -0.418100
vn 0.626400 -0.578900 -0.522000
vn 0.634400 -0.557400 -0.535600
vn 0.608200 -0.648000 -0.458400
vn 0.571700 -0.730600 -0.373300
vn 0.624800 -0.624900 -0.468000
vn 0.726700 -0.655100 -0.206400
vn 0.733200 -0.606100 -0.308100
vn 0.697200 -0.630800 -0.340600
vn 0.676400 -0.693100 -0.249200
vn 0.643300 -0.754300 -0.130700
vn 0.703000 -0.704900 -0.094100
vn 0.730700 -0.678400 -0.075700
vn 0.748700 -0.631200 -0.202300
vn 0.736400 -0.591600 -0.328200
vn 0.665100 -0.746500 0.017500
vn 0.608700 -0.793400 -0.003600
vn 0.575200 -0.811600 0.102200
vn 0.616800 -0.778700 0.114600
vn 0.608000 -0.781900 0.137800
vn 0.681900 -0.730300 0.040500
vn 0.534700 -0.845000 -0.010200
vn 0.571900 -0.802500 -0.170000
vn 0.511000 -0.852200 0.112400
vn 0.617800 -0.721800 -0.312000
vn 0.652700 -0.642200 -0.401900
vn 0.751600 -0.617500 -0.231800
vn 0.714100 -0.582100 -0.388700
vn 0.735600 -0.673500 -0.072300
vn 0.700800 -0.706900 -0.095600
vn 0.710500 -0.624000 -0.325300
vn 0.695000 -0.578800 -0.426500
vn 0.668800 -0.740200 0.068700
vn 0.559900 -0.810700 0.171100
vn 0.525900 -0.829600 0.187800
vn 0.592500 -0.798900 0.103300
vn -0.159800 0.234400 -0.958900
vn -0.451300 -0.049400 -0.891000
vn -0.028700 0.318500 -0.947500
vn 0.695000 -0.578800 -0.426500
vn -0.701100 -0.682100 -0.208000
vn -0.782100 -0.540200 0.310600
vn -0.540500 -0.716400 -0.441100
vn 0.525900 -0.829600 0.187800
vn -0.117900 0.074300 0.990200
vn 0.172600 0.212700 0.961700
vn -0.279500 -0.058000 0.958400
vn 0.420300 -0.874600 0.241500
vn 0.819700 0.565400 -0.091600
vn 0.539300 0.756600 -0.369700
vn 0.881700 0.298900 0.365000
vn 0.634400 -0.557400 -0.535600
vn 0.321900 0.726400 -0.607200
vn 0.190400 0.637900 -0.746100
vn -0.584500 -0.509000 -0.631900
vn -0.607700 -0.429300 0.668100
vn -0.502700 -0.384200 0.774400
vn 0.576700 0.205100 0.790800
vn -0.366200 -0.169600 0.914900
vn -0.401500 -0.242800 0.883100
vn 0.115300 0.543600 -0.831400
vn 0.083100 0.475400 -0.875800
vn 0.051400 0.404500 -0.913100
vn -0.432800 -0.313400 0.845200
vt 0.839504 0.118056
vt 0.856743 0.205307
vt 0.741230 0.205307
vt 0.734555 0.106726
vt 0.724541 0.032791
vt 0.813647 0.052618
vt 0.868992 0.081539
vt 0.913398 0.129584
vt 0.940923 0.205307
vt 0.839504 0.292557
vt 0.813647 0.357995
vt 0.724541 0.377822
vt 0.734555 0.303887
vt 0.913398 0.281029
vt 0.868992 0.329074
vt 0.369475 0.299954
vt 0.368286 0.370940
vt 0.245840 0.351447
vt 0.246397 0.288815
vt 0.246768 0.205307
vt 0.370268 0.205307
vt 0.494283 0.205307
vt 0.492822 0.304944
vt 0.490632 0.379672
vt 0.369475 0.110659
vt 0.246397 0.121798
vt 0.245841 0.059166
vt 0.368286 0.039673
vt 0.490632 0.030941
vt 0.492822 0.105669
vt 0.616755 0.103478
vt 0.619174 0.205307
vt 0.613127 0.027106
vt 0.616755 0.307135
vt 0.613126 0.383507
vt 0.123273 0.268175
vt 0.123047 0.315326
vt 0.054743 0.283353
vt 0.030912 0.249131
vt 0.030973 0.205306
vt 0.123423 0.205306
vt 0.123273 0.142438
vt 0.030912 0.161481
vt 0.054744 0.127260
vt 0.123047 0.095287
vt 0.839504 0.118056
vt 0.856743 0.205307
vt 0.968983 0.205307
vt 0.938030 0.133427
vt 0.876123 0.061548
vt 0.805028 0.030806
vt 0.721203 0.008146
vt 0.734555 0.106726
vt 0.741230 0.205307
vt 0.839504 0.292557
vt 0.805028 0.379807
vt 0.876123 0.349065
vt 0.938030 0.277186
vt 0.734555 0.303887
vt 0.721203 0.402467
vt 0.369475 0.299954
vt 0.367890 0.394602
vt 0.489902 0.404581
vt 0.492822 0.304944
vt 0.494283 0.205307
vt 0.370268 0.205307
vt 0.246768 0.205307
vt 0.246397 0.288815
vt 0.245655 0.372324
vt 0.369475 0.110659
vt 0.492822 0.105669
vt 0.489902 0.006032
vt 0.367890 0.016011
vt 0.245655 0.038289
vt 0.246397 0.121798
vt 0.616755 0.103478
vt 0.619174 0.205307
vt 0.611917 0.001649
vt 0.616755 0.307135
vt 0.611917 0.408964
vt 0.123273 0.268175
vt 0.122972 0.331043
vt 0.123423 0.205306
vt 0.000156 0.205306
vt 0.000125 0.242784
vt 0.000064 0.280261
vt 0.123273 0.142438
vt 0.122972 0.079570
vt 0.000064 0.130352
vt 0.000125 0.167829
vt 0.122972 0.331043
vt 0.030806 0.283587
vt 0.245655 0.372324
vt 0.030806 0.283587
vt 0.000125 0.167829
vt 0.030806 0.127026
vt 0.000156 0.205306
vt 0.030806 0.127026
vt 0.805028 0.030806
vt 0.873826 0.071832
vt 0.721203 0.008146
vt 0.873826 0.071832
vt 0.938030 0.277186
vt 0.873826 0.338781
vt 0.968983 0.205307
vt 0.873826 0.338781
vt 0.805028 0.379807
vt 0.721203 0.402467
vt 0.000125 0.242784
vt 0.122972 0.079570
vt 0.245655 0.038289
vt 0.938030 0.133427
vt 0.611917 0.001649
vt 0.489902 0.006032
vt 0.611917 0.408964
vt 0.489902 0.404581
vt 0.367890 0.394602
vt 0.367890 0.016011
f 1/1/1 2/2/2 3/3/3
f 1/1/1 3/3/3 4/4/4
f 1/1/1 4/4/4 5/5/5
f 1/1/1 5/5/5 6/6/6
f 1/1/1 6/6/6 7/7/7
f 1/1/1 7/7/7 8/8/8
f 1/1/1 8/8/8 9/9/9
f 1/1/1 9/9/9 2/2/2
f 10/10/10 11/11/11 12/12/12
f 10/10/10 12/12/12 13/13/13
f 10/10/10 13/13/13 3/3/3
f 10/10/10 3/3/3 2/2/2
f 10/10/10 2/2/2 9/9/9
f 10/10/10 9/9/9 14/14/14
f 10/10/10 14/14/14 15/15/15
f 10/10/10 15/15/15 11/11/11
f 16/16/16 17/17/17 18/18/18
f 16/16/16 18/18/18 19/19/19
f 16/16/16 19/19/19 20/20/20
f 16/16/16 20/20/20 21/21/21
f 16/16/16 21/21/21 22/22/22
f 16/16/16 22/22/22 23/23/23
f 16/16/16 23/23/23 24/24/24
f 16/16/16 24/24/24 17/17/17
f 25/25/25 21/21/21 20/20/20
f 25/25/25 20/20/20 26/26/26
f 25/25/25 26/26/26 27/27/27
f 25/25/25 27/27/27 28/28/28
f 25/25/25 28/28/28 29/29/29
f 25/25/25 29/29/29 30/30/30
f 25/25/25 30/30/30 22/22/22
f 25/25/25 22/22/22 21/21/21
f 31/31/31 32/32/32 22/22/22
f 31/31/31 22/22/22 30/30/30
f 31/31/31 30/30/30 29/29/29
f 31/31/31 29/29/29 33/33/33
f 31/31/31 33/33/33 5/5/5
f 31/31/31 5/5/5 4/4/4
f 31/31/31 4/4/4 3/3/3
f 31/31/31 3/3/3 32/32/32
f 34/34/34 35/35/35 24/24/24
f 34/34/34 24/24/24 23/23/23
f 34/34/34 23/23/23 22/22/22
f 34/34/34 22/22/22 32/32/32
f 34/34/34 32/32/32 3/3/3
f 34/34/34 3/3/3 13/13/13
f 34/34/34 13/13/13 12/12/12
f 34/34/34 12/12/12 35/35/35
f 36/36/36 37/37/37 38/38/38
f 36/36/36 38/38/38 39/39/39
f 36/36/36 39/39/39 40/40/40
f 36/36/36 40/40/40 41/41/41
f 36/36/36 41/41/41 20/20/20
f 36/36/36 20/20/20 19/19/19
f 36/36/36 19/19/19 18/18/18
f 36/36/36 18/18/18 37/37/37
f 42/42/42 41/41/41 40/40/40
f 42/42/42 40/40/40 43/43/43
f 42/42/42 43/43/43 44/44/44
f 42/42/42 44/44/44 45/45/45
f 42/42/42 45/45/45 27/27/27
f 42/42/42 27/27/27 26/26/26
f 42/42/42 26/26/26 20/20/20
f 42/42/42 20/20/20 41/41/41
f 46/46/46 47/47/47 48/48/48
f 46/46/46 48/48/48 49/49/49
f 46/46/46 49/49/49 50/50/50
f 46/46/46 50/50/50 51/51/51
f 46/46/46 51/51/51 52/52/52
f 46/46/46 52/52/52 53/53/53
f 46/46/46 53/53/53 54/54/54
f 46/46/46 54/54/54 47/47/47
f 55/55/55 56/56/56 57/57/57
f 55/55/55 57/57/57 58/58/58
f 55/55/55 58/58/58 48/48/48
f 55/55/55 48/48/48 47/47/47
f 55/55/55 47/47/47 54/54/54
f 55/55/55 54/54/54 59/59/59
f 55/55/55 59/59/59 60/60/60
f 55/55/55 60/60/60 56/56/56
f 61/61/61 62/62/62 63/63/63
f 61/61/61 63/63/63 64/64/64
f 61/61/61 64/64/64 65/65/65
f 61/61/61 65/65/65 66/66/66
f 61/61/61 66/66/66 67/67/67
f 61/61/61 67/67/67 68/68/68
f 61/61/61 68/68/68 69/69/69
f 61/61/61 69/69/69 62/62/62
f 70/70/70 66/66/66 65/65/65
f 70/70/70 65/65/65 71/71/71
f 70/70/70 71/71/71 72/72/72
f 70/70/70 72/72/72 73/73/73
f 70/70/70 73/73/73 74/74/74
f 70/70/70 74/74/74 75/75/75
f 70/70/70 75/75/75 67/67/67
f 70/70/70 67/67/67 66/66/66
f 76/76/76 77/77/77 54/54/54
f 76/76/76 54/54/54 53/53/53
f 76/76/76 53/53/53 52/52/52
f 76/76/76 52/52/52 78/78/78
f 76/76/76 78/78/78 72/72/72
f 76/76/76 72/72/72 71/71/71
f 76/76/76 71/71/71 65/65/65
f 76/76/76 65/65/65 77/77/77
f 79/79/79 80/80/80 60/60/60
f 79/79/79 60/60/60 59/59/59
f 79/79/79 59/59/59 54/54/54
f 79/79/79 54/54/54 77/77/77
f 79/79/79 77/77/77 65/65/65
f 79/79/79 65/65/65 64/64/64
f 79/79/79 64/64/64 63/63/63
f 79/79/79 63/63/63 80/80/80
f 81/81/81 82/82/82 69/69/69
f 81/81/81 69/69/69 68/68/68
f 81/81/81 68/68/68 67/67/67
f 81/81/81 67/67/67 83/83/83
f 81/81/81 83/83/83 84/84/84
f 81/81/81 84/84/84 85/85/85
f 81/81/81 85/85/85 86/86/86
f 81/81/81 86/86/86 82/82/82
f 87/87/87 83/83/83 67/67/67
f 87/87/87 67/67/67 75/75/75
f 87/87/87 75/75/75 74/74/74
f 87/87/87 74/74/74 88/88/88
f 87/87/87 88/88/88 89/89/89
f 87/87/87 89/89/89 90/90/90
f 87/87/87 90/90/90 84/84/84
f 87/87/87 84/84/84 83/83/83
f 91/91/91 92/92/92 38/38/38
f 91/91/91 38/38/38 37/37/37
f 91/91/91 37/37/37 18/18/18
f 91/91/91 18/18/18 93/93/93
f 91/91/91 93/93/93 69/69/69
f 91/91/91 69/69/69 82/82/82
f 91/91/91 82/82/82 94/94/94
f 91/91/91 94/94/94 92/92/92
f 95/95/95 96/96/96 44/44/44
f 95/95/95 44/44/44 43/43/43
f 95/95/95 43/43/43 40/40/40
f 95/95/95 40/40/40 97/97/97
f 95/95/95 97/97/97 84/84/84
f 95/95/95 84/84/84 90/90/90
f 95/95/95 90/90/90 98/98/98
f 95/95/95 98/98/98 96/96/96
f 99/99/99 100/100/100 7/7/7
f 99/99/99 7/7/7 6/6/6
f 99/99/99 6/6/6 5/5/5
f 99/99/99 5/5/5 101/101/101
f 99/99/99 101/101/101 52/52/52
f 99/99/99 52/52/52 51/51/51
f 99/99/99 51/51/51 102/102/102
f 99/99/99 102/102/102 100/100/100
f 103/103/103 104/104/104 15/15/15
f 103/103/103 15/15/15 14/14/14
f 103/103/103 14/14/14 9/9/9
f 103/103/103 9/9/9 105/105/105
f 103/103/103 105/105/105 48/48/48
f 103/103/103 48/48/48 58/58/58
f 103/103/103 58/58/58 106/106/106
f 103/103/103 106/106/106 104/104/104
f 107/107/107 108/108/108 12/12/12
f 107/107/107 12/12/12 11/11/11
f 107/107/107 11/11/11 15/15/15
f 107/107/107 15/15/15 104/104/104
f 107/107/107 104/104/104 106/106/106
f 107/107/107 106/106/106 56/56/56
f 107/107/107 56/56/56 60/60/60
f 107/107/107 60/60/60 108/108/108
f 109/109/109 97/97/97 40/40/40
f 109/109/109 40/40/40 39/39/39
f 109/109/109 39/39/39 38/38/38
f 109/109/109 38/38/38 92/92/92
f 109/109/109 92/92/92 94/94/94
f 109/109/109 94/94/94 85/85/85
f 109/109/109 85/85/85 84/84/84
f 109/109/109 84/84/84 97/97/97
f 110/110/110 111/111/111 27/27/27
f 110/110/110 27/27/27 45/45/45
f 110/110/110 45/45/45 44/44/44
f 110/110/110 44/44/44 96/96/96
f 110/110/110 96/96/96 98/98/98
f 110/110/110 98/98/98 88/88/88
f 110/110/110 88/88/88 74/74/74
f 110/110/110 74/74/74 111/111/111
f 112/112/112 105/105/105 9/9/9
f 112/112/112 9/9/9 8/8/8
f 112/112/112 8/8/8 7/7/7
f 112/112/112 7/7/7 100/100/100
f 112/112/112 100/100/100 102/102/102
f 112/112/112 102/102/102 49/49/49
f 112/112/112 49/49/49 48/48/48
f 112/112/112 48/48/48 105/105/105
f 113/113/113 101/101/101 5/5/5
f 113/113/113 5/5/5 33/33/33
f 113/113/113 33/33/33 29/29/29
f 113/113/113 29/29/29 114/114/114
f 113/113/113 114/114/114 72/72/72
f 113/113/113 72/72/72 78/78/78
f 113/113/113 78/78/78 52/52/52
f 113/113/113 52/52/52 101/101/101
f 115/115/115 116/116/116 24/24/24
f 115/115/115 24/24/24 35/35/35
f 115/115/115 35/35/35 12/12/12
f 115/115/115 12/12/12 108/108/108
f 115/115/115 108/108/108 60/60/60
f 115/115/115 60/60/60 80/80/80
f 115/115/115 80/80/80 63/63/63
f 115/115/115 63/63/63 116/116/116
f 117/117/117 93/93/93 18/18/18
f 117/117/117 18/18/18 17/17/17
f 117/117/117 17/17/17 24/24/24
f 117/117/117 24/24/24 116/116/116
f 117/117/117 116/116/116 63/63/63
f 117/117/117 63/63/63 62/62/62
f 117/117/117 62/62/62 69/69/69
f 117/117/117 69/69/69 93/93/93
f 118/118/118 114/114/114 29/29/29
f 118/118/118 29/29/29 28/28/28
f 118/118/118 28/28/28 27/27/27
f 118/118/118 27/27/27 111/111/111
f 118/118/118 111/111/111 74/74/74
f 118/118/118 74/74/74 73/73/73
f 118/118/118 73/73/73 72/72/72
f 118/118/118 72/72/72 114/114/114
