v -2.409523 0.787440 -1.228334
v -2.409332 0.788058 -1.227480
v -2.408154 0.787254 -1.227528
v -2.408513 0.786623 -1.228472
v -2.408689 0.786172 -1.229258
v -2.409492 0.786948 -1.229060
v -2.409958 0.787473 -1.228720
v -2.410244 0.788007 -1.228169
v -2.410213 0.788617 -1.227411
v -2.408657 0.788624 -1.226871
v -2.407973 0.789024 -1.226493
v -2.406963 0.788530 -1.226342
v -2.407528 0.787968 -1.226809
v -2.409494 0.789032 -1.226902
v -2.408727 0.789154 -1.226641
v -2.404205 0.785011 -1.226418
v -2.403767 0.785548 -1.225883
v -2.402872 0.784306 -1.225739
v -2.403264 0.783829 -1.226208
v -2.403744 0.783217 -1.226874
v -2.404743 0.784321 -1.227175
v -2.405801 0.785376 -1.227402
v -2.405233 0.786104 -1.226618
v -2.404766 0.786673 -1.226069
v -2.405170 0.783693 -1.228048
v -2.404118 0.782664 -1.227649
v -2.404367 0.782263 -1.228265
v -2.405458 0.783238 -1.228739
v -2.406534 0.784257 -1.229057
v -2.406242 0.784725 -1.228323
v -2.407388 0.785710 -1.228466
v -2.406958 0.786357 -1.227511
v -2.407658 0.785255 -1.229243
v -2.406364 0.787109 -1.226736
v -2.405863 0.787707 -1.226211
v -2.402394 0.782557 -1.226060
v -2.402085 0.782922 -1.225726
v -2.401739 0.782050 -1.225787
v -2.401777 0.781564 -1.225962
v -2.402047 0.781237 -1.226277
v -2.402765 0.782093 -1.226544
v -2.403031 0.781687 -1.227136
v -2.402213 0.780968 -1.226699
v -2.402525 0.780977 -1.227113
v -2.403201 0.781396 -1.227613
v -2.409575 0.787367 -1.228267
v -2.409377 0.787993 -1.227401
v -2.410246 0.788567 -1.227351
v -2.410282 0.787951 -1.228119
v -2.409988 0.787431 -1.228686
v -2.409534 0.786889 -1.229016
v -2.408734 0.786116 -1.229212
v -2.408568 0.786554 -1.228403
v -2.408204 0.787192 -1.227448
v -2.408695 0.788569 -1.226781
v -2.407998 0.788988 -1.226421
v -2.408747 0.789126 -1.226589
v -2.409521 0.788990 -1.226835
v -2.407572 0.787915 -1.226720
v -2.406993 0.788494 -1.226271
v -2.404266 0.784969 -1.226333
v -2.403811 0.785520 -1.225816
v -2.404805 0.786642 -1.226002
v -2.405289 0.786058 -1.226532
v -2.405862 0.785324 -1.227323
v -2.404809 0.784272 -1.227097
v -2.403813 0.783172 -1.226797
v -2.403328 0.783790 -1.226124
v -2.402918 0.784280 -1.225673
v -2.405240 0.783639 -1.227977
v -2.406307 0.784667 -1.228252
v -2.406585 0.784211 -1.229008
v -2.405512 0.783196 -1.228690
v -2.404424 0.782223 -1.228217
v -2.404190 0.782613 -1.227580
v -2.407448 0.785646 -1.228396
v -2.407013 0.786300 -1.227432
v -2.407705 0.785204 -1.229195
v -2.406414 0.787059 -1.226649
v -2.405897 0.787673 -1.226142
v -2.402460 0.782519 -1.225976
v -2.402131 0.782897 -1.225660
v -2.402835 0.782050 -1.226467
v -2.402100 0.781205 -1.226219
v -2.401826 0.781536 -1.225899
v -2.401774 0.782031 -1.225739
v -2.403105 0.781637 -1.227067
v -2.403259 0.781356 -1.227565
v -2.402567 0.780948 -1.227077
v -2.402269 0.780930 -1.226648
v -2.402001 0.783033 -1.225585
v -2.401549 0.781829 -1.225718
v -2.402761 0.784454 -1.225552
v -2.401774 0.782031 -1.225739
v -2.401965 0.780711 -1.226531
v -2.402336 0.780755 -1.227047
v -2.401831 0.780938 -1.226162
v -2.402567 0.780948 -1.227077
v -2.409502 0.786757 -1.229284
v -2.410051 0.787452 -1.228819
v -2.408769 0.785996 -1.229500
v -2.409988 0.787431 -1.228686
v -2.409785 0.789149 -1.226883
v -2.408720 0.789271 -1.226570
v -2.410521 0.788781 -1.227361
v -2.408747 0.789126 -1.226589
v -2.407755 0.789142 -1.226334
v -2.406787 0.788702 -1.226154
v -2.401593 0.781221 -1.225901
v -2.403284 0.781281 -1.227751
v -2.404476 0.782111 -1.228449
v -2.410501 0.788171 -1.228092
v -2.407769 0.785080 -1.229482
v -2.406655 0.784080 -1.229281
v -2.405710 0.787892 -1.226005
v -2.404627 0.786850 -1.225856
v -2.403640 0.785715 -1.225674
v -2.405578 0.783067 -1.228948
vn 0.462900 0.704700 -0.537600
vn 0.363800 0.607200 -0.706400
vn 0.412900 0.573000 -0.707900
vn 0.503900 0.659600 -0.557600
vn 0.520700 0.640000 -0.565000
vn 0.460700 0.701000 -0.544300
vn 0.415600 0.740700 -0.527800
vn 0.371200 0.736800 -0.565100
vn 0.284300 0.656200 -0.699000
vn 0.281900 0.457400 -0.843400
vn 0.286100 0.462800 -0.839000
vn 0.366600 0.429600 -0.825300
vn 0.342100 0.438400 -0.831100
vn 0.223400 0.534700 -0.815000
vn 0.228200 0.484800 -0.844300
vn 0.554000 0.342500 -0.758800
vn 0.577200 0.359000 -0.733500
vn 0.600000 0.337400 -0.725300
vn 0.572400 0.313700 -0.757600
vn 0.631900 0.375600 -0.677900
vn 0.603600 0.406400 -0.685900
vn 0.543300 0.465800 -0.698400
vn 0.493900 0.387400 -0.778400
vn 0.519400 0.392300 -0.759100
vn 0.644800 0.466700 -0.605300
vn 0.669900 0.447000 -0.592900
vn 0.657400 0.415800 -0.628300
vn 0.637000 0.440900 -0.632200
vn 0.598700 0.500700 -0.625100
vn 0.595900 0.526600 -0.606200
vn 0.543000 0.599100 -0.588400
vn 0.472200 0.527600 -0.706200
vn 0.557500 0.573700 -0.599900
vn 0.414500 0.423500 -0.805500
vn 0.442800 0.417200 -0.793600
vn 0.568900 0.287500 -0.770500
vn 0.602000 0.309800 -0.735900
vn 0.597400 0.277800 -0.752300
vn 0.593800 0.231700 -0.770500
vn 0.680100 0.318500 -0.660200
vn 0.644900 0.360800 -0.673700
vn 0.687700 0.449900 -0.569700
vn 0.730400 0.419000 -0.539400
vn 0.700100 0.418100 -0.578800
vn 0.678200 0.413700 -0.607300
vn -0.491200 -0.703100 0.514200
vn -0.377400 -0.598000 0.707100
vn -0.429300 -0.561000 0.707800
vn -0.569400 -0.694400 0.439800
vn -0.618600 -0.713200 0.329700
vn -0.605800 -0.712800 0.353300
vn -0.590300 -0.690200 0.418500
vn -0.510200 -0.665400 0.544900
vn -0.412800 -0.573100 0.707900
vn -0.287400 -0.424500 0.858600
vn -0.262000 -0.243500 0.933800
vn -0.256200 -0.218400 0.941600
vn -0.298200 -0.324200 0.897700
vn -0.335800 -0.427100 0.839500
vn -0.301400 -0.295700 0.906500
vn -0.545200 -0.333400 0.769200
vn -0.479800 -0.268900 0.835100
vn -0.436300 -0.298200 0.848900
vn -0.486300 -0.378200 0.787600
vn -0.543400 -0.465800 0.698400
vn -0.603700 -0.406100 0.686000
vn -0.632100 -0.375400 0.677900
vn -0.560700 -0.304500 0.770000
vn -0.467500 -0.250900 0.847600
vn -0.649600 -0.476000 0.592800
vn -0.600800 -0.534600 0.594300
vn -0.642700 -0.580200 0.500300
vn -0.676900 -0.538000 0.502300
vn -0.684800 -0.547800 0.480500
vn -0.673900 -0.459200 0.578800
vn -0.548100 -0.605900 0.576500
vn -0.472100 -0.527600 0.706200
vn -0.606000 -0.640800 0.471300
vn -0.407500 -0.413800 0.814100
vn -0.366400 -0.313400 0.876100
vn -0.542700 -0.286000 0.789700
vn -0.411800 -0.239400 0.879300
vn -0.637100 -0.369900 0.676200
vn -0.601500 -0.408600 0.686400
vn -0.454800 -0.290200 0.842000
vn -0.373500 -0.236400 0.897000
vn -0.682800 -0.477300 0.553100
vn -0.672700 -0.595900 0.438600
vn -0.659700 -0.627500 0.413600
vn -0.654400 -0.563200 0.504500
vn 0.748800 0.324400 0.578000
vn 0.885500 -0.048600 0.462100
vn 0.654300 0.444000 0.612200
vn -0.373500 -0.236400 0.897000
vn 0.555900 -0.831200 0.007500
vn 0.326200 -0.812300 -0.483400
vn 0.568400 -0.771200 0.286500
vn -0.659700 -0.627500 0.413600
vn -0.501800 -0.134400 -0.854400
vn -0.686200 0.095400 -0.721100
vn -0.379500 -0.305600 -0.873200
vn -0.618600 -0.713200 0.329700
vn -0.484600 0.811600 0.326200
vn -0.064900 0.942700 0.327200
vn -0.855700 0.508600 0.094900
vn -0.256200 -0.218400 0.941600
vn 0.242300 0.882400 0.403200
vn 0.414600 0.779800 0.468900
vn 0.753700 -0.561100 0.342200
vn -0.009300 -0.711700 -0.702400
vn -0.147800 -0.652500 -0.743200
vn -0.895700 0.250800 -0.367200
vn -0.304100 -0.431000 -0.849600
vn -0.269800 -0.505000 -0.819800
vn 0.509200 0.681600 0.525400
vn 0.549900 0.614900 0.565100
vn 0.586000 0.544300 0.600300
vn -0.234000 -0.574900 -0.784000
vt 0.839504 0.118056
vt 0.856743 0.205307
vt 0.741230 0.205307
vt 0.734555 0.106726
vt 0.724541 0.032791
vt 0.813647 0.052618
vt 0.868992 0.081539
vt 0.913398 0.129584
vt 0.940923 0.205307
vt 0.839504 0.292557
vt 0.813647 0.357995
vt 0.724541 0.377822
vt 0.734555 0.303887
vt 0.913398 0.281029
vt 0.868992 0.329074
vt 0.369475 0.299954
vt 0.368286 0.370940
vt 0.245840 0.351447
vt 0.246397 0.288815
vt 0.246768 0.205307
vt 0.370268 0.205307
vt 0.494283 0.205307
vt 0.492822 0.304944
vt 0.490632 0.379672
vt 0.369475 0.110659
vt 0.246397 0.121798
vt 0.245841 0.059166
vt 0.368286 0.039673
vt 0.490632 0.030941
vt 0.492822 0.105669
vt 0.616755 0.103478
vt 0.619174 0.205307
vt 0.613127 0.027106
vt 0.616755 0.307135
vt 0.613126 0.383507
vt 0.123273 0.268175
vt 0.123047 0.315326
vt 0.054743 0.283353
vt 0.030912 0.249131
vt 0.030973 0.205306
vt 0.123423 0.205306
vt 0.123273 0.142438
vt 0.030912 0.161481
vt 0.054744 0.127260
vt 0.123047 0.095287
vt 0.839504 0.118056
vt 0.856743 0.205307
vt 0.968983 0.205307
vt 0.938030 0.133427
vt 0.876123 0.061548
vt 0.805028 0.030806
vt 0.721203 0.008146
vt 0.734555 0.106726
vt 0.741230 0.205307
vt 0.839504 0.292557
vt 0.805028 0.379807
vt 0.876123 0.349065
vt 0.938030 0.277186
vt 0.734555 0.303887
vt 0.721203 0.402467
vt 0.369475 0.299954
vt 0.367890 0.394602
vt 0.489902 0.404581
vt 0.492822 0.304944
vt 0.494283 0.205307
vt 0.370268 0.205307
vt 0.246768 0.205307
vt 0.246397 0.288815
vt 0.245655 0.372324
vt 0.369475 0.110659
vt 0.492822 0.105669
vt 0.489902 0.006032
vt 0.367890 0.016011
vt 0.245655 0.038289
vt 0.246397 0.121798
vt 0.616755 0.103478
vt 0.619174 0.205307
vt 0.611917 0.001649
vt 0.616755 0.307135
vt 0.611917 0.408964
vt 0.123273 0.268175
vt 0.122972 0.331043
vt 0.123423 0.205306
vt 0.000156 0.205306
vt 0.000125 0.242784
vt 0.000064 0.280261
vt 0.123273 0.142438
vt 0.122972 0.079570
vt 0.000064 0.130352
vt 0.000125 0.167829
vt 0.122972 0.331043
vt 0.030806 0.283587
vt 0.245655 0.372324
vt 0.030806 0.283587
vt 0.000125 0.167829
vt 0.030806 0.127026
vt 0.000156 0.205306
vt 0.030806 0.127026
vt 0.805028 0.030806
vt 0.873826 0.071832
vt 0.721203 0.008146
vt 0.873826 0.071832
vt 0.938030 0.277186
vt 0.873826 0.338781
vt 0.968983 0.205307
vt 0.873826 0.338781
vt 0.805028 0.379807
vt 0.721203 0.402467
vt 0.000125 0.242784
vt 0.122972 0.079570
vt 0.245655 0.038289
vt 0.938030 0.133427
vt 0.611917 0.001649
vt 0.489902 0.006032
vt 0.611917 0.408964
vt 0.489902 0.404581
vt 0.367890 0.394602
vt 0.367890 0.016011
f 1/1/1 2/2/2 3/3/3
f 1/1/1 3/3/3 4/4/4
f 1/1/1 4/4/4 5/5/5
f 1/1/1 5/5/5 6/6/6
f 1/1/1 6/6/6 7/7/7
f 1/1/1 7/7/7 8/8/8
f 1/1/1 8/8/8 9/9/9
f 1/1/1 9/9/9 2/2/2
f 10/10/10 11/11/11 12/12/12
f 10/10/10 12/12/12 13/13/13
f 10/10/10 13/13/13 3/3/3
f 10/10/10 3/3/3 2/2/2
f 10/10/10 2/2/2 9/9/9
f 10/10/10 9/9/9 14/14/14
f 10/10/10 14/14/14 15/15/15
f 10/10/10 15/15/15 11/11/11
f 16/16/16 17/17/17 18/18/18
f 16/16/16 18/18/18 19/19/19
f 16/16/16 19/19/19 20/20/20
f 16/16/16 20/20/20 21/21/21
f 16/16/16 21/21/21 22/22/22
f 16/16/16 22/22/22 23/23/23
f 16/16/16 23/23/23 24/24/24
f 16/16/16 24/24/24 17/17/17
f 25/25/25 21/21/21 20/20/20
f 25/25/25 20/20/20 26/26/26
f 25/25/25 26/26/26 27/27/27
f 25/25/25 27/27/27 28/28/28
f 25/25/25 28/28/28 29/29/29
f 25/25/25 29/29/29 30/30/30
f 25/25/25 30/30/30 22/22/22
f 25/25/25 22/22/22 21/21/21
f 31/31/31 32/32/32 22/22/22
f 31/31/31 22/22/22 30/30/30
f 31/31/31 30/30/30 29/29/29
f 31/31/31 29/29/29 33/33/33
f 31/31/31 33/33/33 5/5/5
f 31/31/31 5/5/5 4/4/4
f 31/31/31 4/4/4 3/3/3
f 31/31/31 3/3/3 32/32/32
f 34/34/34 35/35/35 24/24/24
f 34/34/34 24/24/24 23/23/23
f 34/34/34 23/23/23 22/22/22
f 34/34/34 22/22/22 32/32/32
f 34/34/34 32/32/32 3/3/3
f 34/34/34 3/3/3 13/13/13
f 34/34/34 13/13/13 12/12/12
f 34/34/34 12/12/12 35/35/35
f 36/36/36 37/37/37 38/38/38
f 36/36/36 38/38/38 39/39/39
f 36/36/36 39/39/39 40/40/40
f 36/36/36 40/40/40 41/41/41
f 36/36/36 41/41/41 20/20/20
f 36/36/36 20/20/20 19/19/19
f 36/36/36 19/19/19 18/18/18
f 36/36/36 18/18/18 37/37/37
f 42/42/42 41/41/41 40/40/40
f 42/42/42 40/40/40 43/43/43
f 42/42/42 43/43/43 44/44/44
f 42/42/42 44/44/44 45/45/45
f 42/42/42 45/45/45 27/27/27
f 42/42/42 27/27/27 26/26/26
f 42/42/42 26/26/26 20/20/20
f 42/42/42 20/20/20 41/41/41
f 46/46/46 47/47/47 48/48/48
f 46/46/46 48/48/48 49/49/49
f 46/46/46 49/49/49 50/50/50
f 46/46/46 50/50/50 51/51/51
f 46/46/46 51/51/51 52/52/52
f 46/46/46 52/52/52 53/53/53
f 46/46/46 53/53/53 54/54/54
f 46/46/46 54/54/54 47/47/47
f 55/55/55 56/56/56 57/57/57
f 55/55/55 57/57/57 58/58/58
f 55/55/55 58/58/58 48/48/48
f 55/55/55 48/48/48 47/47/47
f 55/55/55 47/47/47 54/54/54
f 55/55/55 54/54/54 59/59/59
f 55/55/55 59/59/59 60/60/60
f 55/55/55 60/60/60 56/56/56
f 61/61/61 62/62/62 63/63/63
f 61/61/61 63/63/63 64/64/64
f 61/61/61 64/64/64 65/65/65
f 61/61/61 65/65/65 66/66/66
f 61/61/61 66/66/66 67/67/67
f 61/61/61 67/67/67 68/68/68
f 61/61/61 68/68/68 69/69/69
f 61/61/61 69/69/69 62/62/62
f 70/70/70 66/66/66 65/65/65
f 70/70/70 65/65/65 71/71/71
f 70/70/70 71/71/71 72/72/72
f 70/70/70 72/72/72 73/73/73
f 70/70/70 73/73/73 74/74/74
f 70/70/70 74/74/74 75/75/75
f 70/70/70 75/75/75 67/67/67
f 70/70/70 67/67/67 66/66/66
f 76/76/76 77/77/77 54/54/54
f 76/76/76 54/54/54 53/53/53
f 76/76/76 53/53/53 52/52/52
f 76/76/76 52/52/52 78/78/78
f 76/76/76 78/78/78 72/72/72
f 76/76/76 72/72/72 71/71/71
f 76/76/76 71/71/71 65/65/65
f 76/76/76 65/65/65 77/77/77
f 79/79/79 80/80/80 60/60/60
f 79/79/79 60/60/60 59/59/59
f 79/79/79 59/59/59 54/54/54
f 79/79/79 54/54/54 77/77/77
f 79/79/79 77/77/77 65/65/65
f 79/79/79 65/65/65 64/64/64
f 79/79/79 64/64/64 63/63/63
f 79/79/79 63/63/63 80/80/80
f 81/81/81 82/82/82 69/69/69
f 81/81/81 69/69/69 68/68/68
f 81/81/81 68/68/68 67/67/67
f 81/81/81 67/67/67 83/83/83
f 81/81/81 83/83/83 84/84/84
f 81/81/81 84/84/84 85/85/85
f 81/81/81 85/85/85 86/86/86
f 81/81/81 86/86/86 82/82/82
f 87/87/87 83/83/83 67/67/67
f 87/87/87 67/67/67 75/75/75
f 87/87/87 75/75/75 74/74/74
f 87/87/87 74/74/74 88/88/88
f 87/87/87 88/88/88 89/89/89
f 87/87/87 89/89/89 90/90/90
f 87/87/87 90/90/90 84/84/84
f 87/87/87 84/84/84 83/83/83
f 91/91/91 92/92/92 38/38/38
f 91/91/91 38/38/38 37/37/37
f 91/91/91 37/37/37 18/18/18
f 91/91/91 18/18/18 93/93/93
f 91/91/91 93/93/93 69/69/69
f 91/91/91 69/69/69 82/82/82
f 91/91/91 82/82/82 94/94/94
f 91/91/91 94/94/94 92/92/92
f 95/95/95 96/96/96 44/44/44
f 95/95/95 44/44/44 43/43/43
f 95/95/95 43/43/43 40/40/40
f 95/95/95 40/40/40 97/97/97
f 95/95/95 97/97/97 84/84/84
f 95/95/95 84/84/84 90/90/90
f 95/95/95 90/90/90 98/98/98
f 95/95/95 98/98/98 96/96/96
f 99/99/99 100/100/100 7/7/7
f 99/99/99 7/7/7 6/6/6
f 99/99/99 6/6/6 5/5/5
f 99/99/99 5/5/5 101/101/101
f 99/99/99 101/101/101 52/52/52
f 99/99/99 52/52/52 51/51/51
f 99/99/99 51/51/51 102/102/102
f 99/99/99 102/102/102 100/100/100
f 103/103/103 104/104/104 15/15/15
f 103/103/103 15/15/15 14/14/14
f 103/103/103 14/14/14 9/9/9
f 103/103/103 9/9/9 105/105/105
f 103/103/103 105/105/105 48/48/48
f 103/103/103 48/48/48 58/58/58
f 103/103/103 58/58/58 106/106/106
f 103/103/103 106/106/106 104/104/104
f 107/107/107 108/108/108 12/12/12
f 107/107/107 12/12/12 11/11/11
f 107/107/107 11/11/11 15/15/15
f 107/107/107 15/15/15 104/104/104
f 107/107/107 104/104/104 106/106/106
f 107/107/107 106/106/106 56/56/56
f 107/107/107 56/56/56 60/60/60
f 107/107/107 60/60/60 108/108/108
f 109/109/109 97/97/97 40/40/40
f 109/109/109 40/40/40 39/39/39
f 109/109/109 39/39/39 38/38/38
f 109/109/109 38/38/38 92/92/92
f 109/109/109 92/92/92 94/94/94
f 109/109/109 94/94/94 85/85/85
f 109/109/109 85/85/85 84/84/84
f 109/109/109 84/84/84 97/97/97
f 110/110/110 111/111/111 27/27/27
f 110/110/110 27/27/27 45/45/45
f 110/110/110 45/45/45 44/44/44
f 110/110/110 44/44/44 96/96/96
f 110/110/110 96/96/96 98/98/98
f 110/110/110 98/98/98 88/88/88
f 110/110/110 88/88/88 74/74/74
f 110/110/110 74/74/74 111/111/111
f 112/112/112 105/105/105 9/9/9
f 112/112/112 9/9/9 8/8/8
f 112/112/112 8/8/8 7/7/7
f 112/112/112 7/7/7 100/100/100
f 112/112/112 100/100/100 102/102/102
f 112/112/112 102/102/102 49/49/49
f 112/112/112 49/49/49 48/48/48
f 112/112/112 48/48/48 105/105/105
f 113/113/113 101/101/101 5/5/5
f 113/113/113 5/5/5 33/33/33
f 113/113/113 33/33/33 29/29/29
f 113/113/113 29/29/29 114/114/114
f 113/113/113 114/114/114 72/72/72
f 113/113/113 72/72/72 78/78/78
f 113/113/113 78/78/78 52/52/52
f 113/113/113 52/52/52 101/101/101
f 115/115/115 116/116/116 24/24/24
f 115/115/115 24/24/24 35/35/35
f 115/115/115 35/35/35 12/12/12
f 115/115/115 12/12/12 108/108/108
f 115/115/115 108/108/108 60/60/60
f 115/115/115 60/60/60 80/80/80
f 115/115/115 80/80/80 63/63/63
f 115/115/115 63/63/63 116/116/116
f 117/117/117 93/93/93 18/18/18
f 117/117/117 18/18/18 17/17/17
f 117/117/117 17/17/17 24/24/24
f 117/117/117 24/24/24 116/116/116
f 117/117/117 116/116/116 63/63/63
f 117/117/117 63/63/63 62/62/62
f 117/117/117 62/62/62 69/69/69
f 117/117/117 69/69/69 93/93/93
f 118/118/118 114/114/114 29/29/29
f 118/118/118 29/29/29 28/28/28
f 118/118/118 28/28/28 27/27/27
f 118/118/118 27/27/27 111/111/111
f 118/118/118 111/111/111 74/74/74
f 118/118/118 74/74/74 73/73/73
f 118/118/118 73/73/73 72/72/72
f 118/118/118 72/72/72 114/114/114
