v -2.380857 0.708286 -1.212286
v -2.382339 0.708728 -1.211627
v -2.381539 0.707343 -1.210062
v -2.379969 0.706958 -1.211002
v -2.378660 0.706723 -1.211577
v -2.379554 0.707921 -1.212543
v -2.380438 0.708614 -1.213030
v -2.381582 0.709177 -1.213192
v -2.382969 0.709686 -1.212802
v -2.383291 0.709126 -1.210299
v -2.383822 0.709393 -1.209057
v -2.383509 0.708395 -1.207617
v -2.382735 0.707912 -1.208743
v -2.383688 0.709903 -1.211472
v -2.383895 0.709805 -1.210207
v -2.380927 0.702719 -1.204397
v -2.381828 0.703156 -1.203456
v -2.381191 0.701081 -1.202400
v -2.380401 0.700691 -1.203239
v -2.379286 0.700217 -1.204295
v -2.379659 0.702186 -1.205583
v -2.380137 0.704060 -1.206959
v -2.381452 0.704627 -1.205710
v -2.382379 0.705100 -1.204712
v -2.378216 0.701784 -1.206610
v -2.378004 0.699864 -1.205197
v -2.376991 0.699633 -1.205831
v -2.377079 0.701519 -1.207335
v -2.377411 0.703387 -1.208769
v -2.378617 0.703650 -1.208025
v -2.379212 0.705394 -1.209535
v -2.380784 0.705783 -1.208479
v -2.377942 0.705167 -1.210251
v -2.382089 0.706385 -1.207186
v -2.382983 0.706905 -1.206134
v -2.379763 0.698574 -1.202230
v -2.380328 0.698884 -1.201579
v -2.379730 0.697563 -1.201307
v -2.379259 0.696943 -1.201540
v -2.378728 0.696673 -1.202115
v -2.378951 0.698207 -1.203036
v -2.377975 0.697957 -1.203691
v -2.378033 0.696520 -1.202541
v -2.377525 0.696803 -1.203109
v -2.377192 0.697802 -1.204141
v -2.380938 0.708155 -1.212371
v -2.382439 0.708602 -1.211697
v -2.383043 0.709590 -1.212853
v -2.381640 0.709077 -1.213254
v -2.380478 0.708539 -1.213080
v -2.379605 0.707821 -1.212613
v -2.378715 0.706627 -1.211649
v -2.380055 0.706832 -1.211089
v -2.381641 0.707221 -1.210136
v -2.383409 0.709007 -1.210353
v -2.383919 0.709308 -1.209090
v -2.383964 0.709741 -1.210233
v -2.383776 0.709813 -1.211510
v -2.382853 0.707797 -1.208804
v -2.383605 0.708313 -1.207656
v -2.381050 0.702626 -1.204483
v -2.381926 0.703089 -1.203516
v -2.382476 0.705027 -1.204766
v -2.381574 0.704527 -1.205789
v -2.380246 0.703955 -1.207049
v -2.379771 0.702089 -1.205679
v -2.379399 0.700125 -1.204395
v -2.380525 0.700603 -1.203329
v -2.381290 0.701018 -1.202462
v -2.378316 0.701683 -1.206715
v -2.378714 0.703541 -1.208125
v -2.377477 0.703304 -1.208849
v -2.377147 0.701441 -1.207418
v -2.377060 0.699560 -1.205917
v -2.378105 0.699769 -1.205306
v -2.379303 0.705275 -1.209628
v -2.380890 0.705669 -1.208561
v -2.378003 0.705077 -1.210327
v -2.382208 0.706277 -1.207256
v -2.383080 0.706827 -1.206180
v -2.379889 0.698489 -1.202321
v -2.380429 0.698823 -1.201641
v -2.379065 0.698117 -1.203137
v -2.378813 0.696606 -1.202191
v -2.379354 0.696879 -1.201607
v -2.379803 0.697517 -1.201355
v -2.378075 0.697864 -1.203802
v -2.377260 0.697730 -1.204229
v -2.377578 0.696750 -1.203173
v -2.378108 0.696450 -1.202625
v -2.380563 0.698960 -1.201388
v -2.379671 0.697167 -1.201062
v -2.381500 0.701184 -1.202147
v -2.379803 0.697517 -1.201355
v -2.378086 0.696010 -1.202195
v -2.377461 0.696405 -1.202867
v -2.378692 0.696131 -1.201842
v -2.377578 0.696750 -1.203173
v -2.379140 0.707754 -1.212661
v -2.380312 0.708650 -1.213201
v -2.378246 0.706602 -1.211802
v -2.380478 0.708539 -1.213080
v -2.383860 0.710122 -1.211879
v -2.384052 0.709939 -1.210147
v -2.383211 0.709963 -1.213216
v -2.383964 0.709741 -1.210233
v -2.384044 0.709445 -1.208656
v -2.383811 0.708520 -1.207257
v -2.379133 0.696371 -1.201339
v -2.376960 0.697718 -1.204331
v -2.376682 0.699523 -1.206081
v -2.381849 0.709429 -1.213521
v -2.377544 0.705051 -1.210525
v -2.377037 0.703262 -1.209054
v -2.383326 0.707044 -1.205803
v -2.382732 0.705226 -1.204403
v -2.382173 0.703272 -1.203168
v -2.376729 0.701395 -1.207614
vn 0.384600 0.778000 0.496700
vn 0.552100 0.752800 0.358300
vn 0.573100 0.715300 0.399900
vn 0.424700 0.737100 0.525700
vn 0.440600 0.719000 0.537500
vn 0.391500 0.777100 0.492800
vn 0.355600 0.814600 0.458200
vn 0.383200 0.828100 0.409000
vn 0.515400 0.806100 0.290800
vn 0.708600 0.666300 0.232100
vn 0.703800 0.669300 0.237800
vn 0.716400 0.623900 0.312300
vn 0.714500 0.637100 0.289100
vn 0.647900 0.736800 0.192900
vn 0.691100 0.698800 0.184400
vn 0.716200 0.497900 0.488900
vn 0.692200 0.502400 0.518100
vn 0.695300 0.476700 0.537800
vn 0.727200 0.468200 0.502000
vn 0.645900 0.493400 0.582500
vn 0.638800 0.528400 0.559200
vn 0.621200 0.595700 0.509200
vn 0.709600 0.553700 0.435600
vn 0.695000 0.549100 0.464100
vn 0.553500 0.554000 0.621800
vn 0.552600 0.528400 0.644400
vn 0.592500 0.512200 0.621800
vn 0.584900 0.539400 0.605800
vn 0.553100 0.597900 0.580000
vn 0.527100 0.616600 0.584700
vn 0.478800 0.685400 0.548600
vn 0.596500 0.664800 0.449800
vn 0.500000 0.663600 0.556400
vn 0.708900 0.606000 0.360700
vn 0.705100 0.592900 0.388900
vn 0.746300 0.448200 0.492000
vn 0.713900 0.453900 0.533200
vn 0.737700 0.429800 0.520600
vn 0.767700 0.393000 0.506100
vn 0.655500 0.428400 0.621800
vn 0.648800 0.476700 0.593200
vn 0.533600 0.521600 0.665800
vn 0.522600 0.477400 0.706400
vn 0.553700 0.493300 0.670900
vn 0.577400 0.501000 0.644600
vn -0.368800 -0.765400 -0.527300
vn -0.558100 -0.742800 -0.369800
vn -0.579800 -0.701900 -0.413600
vn -0.316800 -0.724000 -0.612700
vn -0.217700 -0.700200 -0.679900
vn -0.237300 -0.708900 -0.664100
vn -0.302200 -0.710500 -0.635500
vn -0.412300 -0.737600 -0.534700
vn -0.573100 -0.715300 -0.399800
vn -0.733600 -0.639600 -0.229400
vn -0.852800 -0.496500 -0.161700
vn -0.866200 -0.476500 -0.150500
vn -0.801900 -0.556800 -0.216500
vn -0.724400 -0.630000 -0.279800
vn -0.819300 -0.532200 -0.213200
vn -0.726800 -0.493800 -0.477300
vn -0.795100 -0.462300 -0.392600
vn -0.790800 -0.499700 -0.353400
vn -0.719500 -0.549000 -0.425200
vn -0.621200 -0.595600 -0.509300
vn -0.638800 -0.528200 -0.559300
vn -0.645900 -0.493300 -0.582600
vn -0.739100 -0.465000 -0.487300
vn -0.809600 -0.451000 -0.375700
vn -0.540000 -0.558200 -0.629900
vn -0.514600 -0.619600 -0.592600
vn -0.421500 -0.627100 -0.655000
vn -0.442500 -0.583900 -0.680600
vn -0.420800 -0.585100 -0.693200
vn -0.536500 -0.534900 -0.652600
vn -0.466700 -0.687400 -0.556500
vn -0.596500 -0.664800 -0.449700
vn -0.369200 -0.679200 -0.634300
vn -0.718400 -0.600600 -0.350900
vn -0.798100 -0.531300 -0.284000
vn -0.759600 -0.456200 -0.463500
vn -0.831800 -0.457200 -0.314600
vn -0.647100 -0.486800 -0.586700
vn -0.638300 -0.530800 -0.557500
vn -0.790300 -0.487700 -0.371000
vn -0.841900 -0.464900 -0.274100
vn -0.508900 -0.542700 -0.668200
vn -0.364600 -0.618500 -0.696100
vn -0.329300 -0.641700 -0.692600
vn -0.432800 -0.610800 -0.663000
vn -0.491300 0.027700 0.870500
vn -0.246600 -0.301200 0.921100
vn -0.576900 0.140400 0.804600
vn -0.841900 -0.464900 -0.274100
vn 0.345100 -0.851000 0.395700
vn 0.755200 -0.647400 0.103100
vn 0.069500 -0.885600 0.459200
vn -0.329300 -0.641700 -0.692600
vn 0.741700 0.210100 -0.637000
vn 0.513900 0.405000 -0.756200
vn 0.833700 0.040000 -0.550700
vn -0.217700 -0.700200 -0.679900
vn -0.638900 0.716400 -0.280200
vn -0.596800 0.788000 0.150800
vn -0.404600 0.551900 -0.729100
vn -0.866200 -0.476500 -0.150500
vn -0.590300 0.669000 0.451600
vn -0.588200 0.530000 0.610800
vn -0.008100 -0.728900 0.684500
vn 0.865500 -0.441400 -0.236700
vn 0.859200 -0.355800 -0.367600
vn 0.097100 0.462700 -0.881100
vn 0.863000 -0.094200 -0.496300
vn 0.863700 -0.177600 -0.471600
vn -0.594000 0.408200 0.693200
vn -0.603500 0.328600 0.726500
vn -0.608700 0.246800 0.754000
vn 0.857800 -0.259400 -0.443600
vt 0.839504 0.118056
vt 0.856743 0.205307
vt 0.741230 0.205307
vt 0.734555 0.106726
vt 0.724541 0.032791
vt 0.813647 0.052618
vt 0.868992 0.081539
vt 0.913398 0.129584
vt 0.940923 0.205307
vt 0.839504 0.292557
vt 0.813647 0.357995
vt 0.724541 0.377822
vt 0.734555 0.303887
vt 0.913398 0.281029
vt 0.868992 0.329074
vt 0.369475 0.299954
vt 0.368286 0.370940
vt 0.245840 0.351447
vt 0.246397 0.288815
vt 0.246768 0.205307
vt 0.370268 0.205307
vt 0.494283 0.205307
vt 0.492822 0.304944
vt 0.490632 0.379672
vt 0.369475 0.110659
vt 0.246397 0.121798
vt 0.245841 0.059166
vt 0.368286 0.039673
vt 0.490632 0.030941
vt 0.492822 0.105669
vt 0.616755 0.103478
vt 0.619174 0.205307
vt 0.613127 0.027106
vt 0.616755 0.307135
vt 0.613126 0.383507
vt 0.123273 0.268175
vt 0.123047 0.315326
vt 0.054743 0.283353
vt 0.030912 0.249131
vt 0.030973 0.205306
vt 0.123423 0.205306
vt 0.123273 0.142438
vt 0.030912 0.161481
vt 0.054744 0.127260
vt 0.123047 0.095287
vt 0.839504 0.118056
vt 0.856743 0.205307
vt 0.968983 0.205307
vt 0.938030 0.133427
vt 0.876123 0.061548
vt 0.805028 0.030806
vt 0.721203 0.008146
vt 0.734555 0.106726
vt 0.741230 0.205307
vt 0.839504 0.292557
vt 0.805028 0.379807
vt 0.876123 0.349065
vt 0.938030 0.277186
vt 0.734555 0.303887
vt 0.721203 0.402467
vt 0.369475 0.299954
vt 0.367890 0.394602
vt 0.489902 0.404581
vt 0.492822 0.304944
vt 0.494283 0.205307
vt 0.370268 0.205307
vt 0.246768 0.205307
vt 0.246397 0.288815
vt 0.245655 0.372324
vt 0.369475 0.110659
vt 0.492822 0.105669
vt 0.489902 0.006032
vt 0.367890 0.016011
vt 0.245655 0.038289
vt 0.246397 0.121798
vt 0.616755 0.103478
vt 0.619174 0.205307
vt 0.611917 0.001649
vt 0.616755 0.307135
vt 0.611917 0.408964
vt 0.123273 0.268175
vt 0.122972 0.331043
vt 0.123423 0.205306
vt 0.000156 0.205306
vt 0.000125 0.242784
vt 0.000064 0.280261
vt 0.123273 0.142438
vt 0.122972 0.079570
vt 0.000064 0.130352
vt 0.000125 0.167829
vt 0.122972 0.331043
vt 0.030806 0.283587
vt 0.245655 0.372324
vt 0.030806 0.283587
vt 0.000125 0.167829
vt 0.030806 0.127026
vt 0.000156 0.205306
vt 0.030806 0.127026
vt 0.805028 0.030806
vt 0.873826 0.071832
vt 0.721203 0.008146
vt 0.873826 0.071832
vt 0.938030 0.277186
vt 0.873826 0.338781
vt 0.968983 0.205307
vt 0.873826 0.338781
vt 0.805028 0.379807
vt 0.721203 0.402467
vt 0.000125 0.242784
vt 0.122972 0.079570
vt 0.245655 0.038289
vt 0.938030 0.133427
vt 0.611917 0.001649
vt 0.489902 0.006032
vt 0.611917 0.408964
vt 0.489902 0.404581
vt 0.367890 0.394602
vt 0.367890 0.016011
f 1/1/1 2/2/2 3/3/3
f 1/1/1 3/3/3 4/4/4
f 1/1/1 4/4/4 5/5/5
f 1/1/1 5/5/5 6/6/6
f 1/1/1 6/6/6 7/7/7
f 1/1/1 7/7/7 8/8/8
f 1/1/1 8/8/8 9/9/9
f 1/1/1 9/9/9 2/2/2
f 10/10/10 11/11/11 12/12/12
f 10/10/10 12/12/12 13/13/13
f 10/10/10 13/13/13 3/3/3
f 10/10/10 3/3/3 2/2/2
f 10/10/10 2/2/2 9/9/9
f 10/10/10 9/9/9 14/14/14
f 10/10/10 14/14/14 15/15/15
f 10/10/10 15/15/15 11/11/11
f 16/16/16 17/17/17 18/18/18
f 16/16/16 18/18/18 19/19/19
f 16/16/16 19/19/19 20/20/20
f 16/16/16 20/20/20 21/21/21
f 16/16/16 21/21/21 22/22/22
f 16/16/16 22/22/22 23/23/23
f 16/16/16 23/23/23 24/24/24
f 16/16/16 24/24/24 17/17/17
f 25/25/25 21/21/21 20/20/20
f 25/25/25 20/20/20 26/26/26
f 25/25/25 26/26/26 27/27/27
f 25/25/25 27/27/27 28/28/28
f 25/25/25 28/28/28 29/29/29
f 25/25/25 29/29/29 30/30/30
f 25/25/25 30/30/30 22/22/22
f 25/25/25 22/22/22 21/21/21
f 31/31/31 32/32/32 22/22/22
f 31/31/31 22/22/22 30/30/30
f 31/31/31 30/30/30 29/29/29
f 31/31/31 29/29/29 33/33/33
f 31/31/31 33/33/33 5/5/5
f 31/31/31 5/5/5 4/4/4
f 31/31/31 4/4/4 3/3/3
f 31/31/31 3/3/3 32/32/32
f 34/34/34 35/35/35 24/24/24
f 34/34/34 24/24/24 23/23/23
f 34/34/34 23/23/23 22/22/22
f 34/34/34 22/22/22 32/32/32
f 34/34/34 32/32/32 3/3/3
f 34/34/34 3/3/3 13/13/13
f 34/34/34 13/13/13 12/12/12
f 34/34/34 12/12/12 35/35/35
f 36/36/36 37/37/37 38/38/38
f 36/36/36 38/38/38 39/39/39
f 36/36/36 39/39/39 40/40/40
f 36/36/36 40/40/40 41/41/41
f 36/36/36 41/41/41 20/20/20
f 36/36/36 20/20/20 19/19/19
f 36/36/36 19/19/19 18/18/18
f 36/36/36 18/18/18 37/37/37
f 42/42/42 41/41/41 40/40/40
f 42/42/42 40/40/40 43/43/43
f 42/42/42 43/43/43 44/44/44
f 42/42/42 44/44/44 45/45/45
f 42/42/42 45/45/45 27/27/27
f 42/42/42 27/27/27 26/26/26
f 42/42/42 26/26/26 20/20/20
f 42/42/42 20/20/20 41/41/41
f 46/46/46 47/47/47 48/48/48
f 46/46/46 48/48/48 49/49/49
f 46/46/46 49/49/49 50/50/50
f 46/46/46 50/50/50 51/51/51
f 46/46/46 51/51/51 52/52/52
f 46/46/46 52/52/52 53/53/53
f 46/46/46 53/53/53 54/54/54
f 46/46/46 54/54/54 47/47/47
f 55/55/55 56/56/56 57/57/57
f 55/55/55 57/57/57 58/58/58
f 55/55/55 58/58/58 48/48/48
f 55/55/55 48/48/48 47/47/47
f 55/55/55 47/47/47 54/54/54
f 55/55/55 54/54/54 59/59/59
f 55/55/55 59/59/59 60/60/60
f 55/55/55 60/60/60 56/56/56
f 61/61/61 62/62/62 63/63/63
f 61/61/61 63/63/63 64/64/64
f 61/61/61 64/64/64 65/65/65
f 61/61/61 65/65/65 66/66/66
f 61/61/61 66/66/66 67/67/67
f 61/61/61 67/67/67 68/68/68
f 61/61/61 68/68/68 69/69/69
f 61/61/61 69/69/69 62/62/62
f 70/70/70 66/66/66 65/65/65
f 70/70/70 65/65/65 71/71/71
f 70/70/70 71/71/71 72/72/72
f 70/70/70 72/72/72 73/73/73
f 70/70/70 73/73/73 74/74/74
f 70/70/70 74/74/74 75/75/75
f 70/70/70 75/75/75 67/67/67
f 70/70/70 67/67/67 66/66/66
f 76/76/76 77/77/77 54/54/54
f 76/76/76 54/54/54 53/53/53
f 76/76/76 53/53/53 52/52/52
f 76/76/76 52/52/52 78/78/78
f 76/76/76 78/78/78 72/72/72
f 76/76/76 72/72/72 71/71/71
f 76/76/76 71/71/71 65/65/65
f 76/76/76 65/65/65 77/77/77
f 79/79/79 80/80/80 60/60/60
f 79/79/79 60/60/60 59/59/59
f 79/79/79 59/59/59 54/54/54
f 79/79/79 54/54/54 77/77/77
f 79/79/79 77/77/77 65/65/65
f 79/79/79 65/65/65 64/64/64
f 79/79/79 64/64/64 63/63/63
f 79/79/79 63/63/63 80/80/80
f 81/81/81 82/82/82 69/69/69
f 81/81/81 69/69/69 68/68/68
f 81/81/81 68/68/68 67/67/67
f 81/81/81 67/67/67 83/83/83
f 81/81/81 83/83/83 84/84/84
f 81/81/81 84/84/84 85/85/85
f 81/81/81 85/85/85 86/86/86
f 81/81/81 86/86/86 82/82/82
f 87/87/87 83/83/83 67/67/67
f 87/87/87 67/67/67 75/75/75
f 87/87/87 75/75/75 74/74/74
f 87/87/87 74/74/74 88/88/88
f 87/87/87 88/88/88 89/89/89
f 87/87/87 89/89/89 90/90/90
f 87/87/87 90/90/90 84/84/84
f 87/87/87 84/84/84 83/83/83
f 91/91/91 92/92/92 38/38/38
f 91/91/91 38/38/38 37/37/37
f 91/91/91 37/37/37 18/18/18
f 91/91/91 18/18/18 93/93/93
f 91/91/91 93/93/93 69/69/69
f 91/91/91 69/69/69 82/82/82
f 91/91/91 82/82/82 94/94/94
f 91/91/91 94/94/94 92/92/92
f 95/95/95 96/96/96 44/44/44
f 95/95/95 44/44/44 43/43/43
f 95/95/95 43/43/43 40/40/40
f 95/95/95 40/40/40 97/97/97
f 95/95/95 97/97/97 84/84/84
f 95/95/95 84/84/84 90/90/90
f 95/95/95 90/90/90 98/98/98
f 95/95/95 98/98/98 96/96/96
f 99/99/99 100/100/100 7/7/7
f 99/99/99 7/7/7 6/6/6
f 99/99/99 6/6/6 5/5/5
f 99/99/99 5/5/5 101/101/101
f 99/99/99 101/101/101 52/52/52
f 99/99/99 52/52/52 51/51/51
f 99/99/99 51/51/51 102/102/102
f 99/99/99 102/102/102 100/100/100
f 103/103/103 104/104/104 15/15/15
f 103/103/103 15/15/15 14/14/14
f 103/103/103 14/14/14 9/9/9
f 103/103/103 9/9/9 105/105/105
f 103/103/103 105/105/105 48/48/48
f 103/103/103 48/48/48 58/58/58
f 103/103/103 58/58/58 106/106/106
f 103/103/103 106/106/106 104/104/104
f 107/107/107 108/108/108 12/12/12
f 107/107/107 12/12/12 11/11/11
f 107/107/107 11/11/11 15/15/15
f 107/107/107 15/15/15 104/104/104
f 107/107/107 104/104/104 106/106/106
f 107/107/107 106/106/106 56/56/56
f 107/107/107 56/56/56 60/60/60
f 107/107/107 60/60/60 108/108/108
f 109/109/109 97/97/97 40/40/40
f 109/109/109 40/40/40 39/39/39
f 109/109/109 39/39/39 38/38/38
f 109/109/109 38/38/38 92/92/92
f 109/109/109 92/92/92 94/94/94
f 109/109/109 94/94/94 85/85/85
f 109/109/109 85/85/85 84/84/84
f 109/109/109 84/84/84 97/97/97
f 110/110/110 111/111/111 27/27/27
f 110/110/110 27/27/27 45/45/45
f 110/110/110 45/45/45 44/44/44
f 110/110/110 44/44/44 96/96/96
f 110/110/110 96/96/96 98/98/98
f 110/110/110 98/98/98 88/88/88
f 110/110/110 88/88/88 74/74/74
f 110/110/110 74/74/74 111/111/111
f 112/112/112 105/105/105 9/9/9
f 112/112/112 9/9/9 8/8/8
f 112/112/112 8/8/8 7/7/7
f 112/112/112 7/7/7 100/100/100
f 112/112/112 100/100/100 102/102/102
f 112/112/112 102/102/102 49/49/49
f 112/112/112 49/49/49 48/48/48
f 112/112/112 48/48/48 105/105/105
f 113/113/113 101/101/101 5/5/5
f 113/113/113 5/5/5 33/33/33
f 113/113/113 33/33/33 29/29/29
f 113/113/113 29/29/29 114/114/114
f 113/113/113 114/114/114 72/72/72
f 113/113/113 72/72/72 78/78/78
f 113/113/113 78/78/78 52/52/52
f 113/113/113 52/52/52 101/101/101
f 115/115/115 116/116/116 24/24/24
f 115/115/115 24/24/24 35/35/35
f 115/115/115 35/35/35 12/12/12
f 115/115/115 12/12/12 108/108/108
f 115/115/115 108/108/108 60/60/60
f 115/115/115 60/60/60 80/80/80
f 115/115/115 80/80/80 63/63/63
f 115/115/115 63/63/63 116/116/116
f 117/117/117 93/93/93 18/18/18
f 117/117/117 18/18/18 17/17/17
f 117/117/117 17/17/17 24/24/24
f 117/117/117 24/24/24 116/116/116
f 117/117/117 116/116/116 63/63/63
f 117/117/117 63/63/63 62/62/62
f 117/117/117 62/62/62 69/69/69
f 117/117/117 69/69/69 93/93/93
f 118/118/118 114/114/114 29/29/29
f 118/118/118 29/29/29 28/28/28
f 118/118/118 28/28/28 27/27/27
f 118/118/118 27/27/27 111/111/111
f 118/118/118 111/111/111 74/74/74
f 118/118/118 74/74/74 73/73/73
f 118/118/118 73/73/73 72/72/72
f 118/118/118 72/72/72 114/114/114
