v -2.409044 0.740781 -1.112165
v -2.410937 0.740650 -1.111394
v -2.409580 0.738867 -1.109839
v -2.407598 0.739170 -1.110920
v -2.405975 0.739461 -1.111550
v -2.407392 0.740831 -1.112453
v -2.408644 0.741492 -1.112923
v -2.410165 0.741834 -1.113063
v -2.411963 0.741885 -1.112586
v -2.412201 0.740442 -1.109796
v -2.412930 0.740238 -1.108299
v -2.412266 0.738786 -1.106831
v -2.411186 0.738785 -1.108227
v -2.412898 0.741541 -1.111013
v -2.413129 0.741011 -1.109558
v -2.407479 0.732168 -1.104307
v -2.408692 0.732130 -1.103153
v -2.407301 0.729652 -1.102401
v -2.406235 0.729681 -1.103431
v -2.404758 0.729774 -1.104712
v -2.405802 0.732278 -1.105746
v -2.406937 0.734664 -1.106917
v -2.408682 0.734562 -1.105399
v -2.409937 0.734541 -1.104171
v -2.403962 0.732545 -1.106945
v -2.403125 0.730014 -1.105764
v -2.401851 0.730236 -1.106489
v -2.402530 0.732791 -1.107776
v -2.403491 0.735232 -1.109006
v -2.405004 0.734957 -1.108158
v -2.406233 0.737197 -1.109534
v -2.408221 0.736866 -1.108314
v -2.404657 0.737525 -1.110333
v -2.409966 0.736796 -1.106734
v -2.411198 0.736824 -1.105426
v -2.404830 0.727167 -1.102745
v -2.405602 0.727167 -1.101939
v -2.404485 0.725760 -1.101918
v -2.403730 0.725258 -1.102319
v -2.403012 0.725272 -1.103027
v -2.403746 0.727220 -1.103728
v -2.402509 0.727416 -1.104486
v -2.402140 0.725429 -1.103512
v -2.401623 0.726067 -1.104065
v -2.401532 0.727603 -1.104992
v -2.409096 0.740629 -1.112307
v -2.411014 0.740494 -1.111519
v -2.412019 0.741766 -1.112678
v -2.410201 0.741719 -1.113169
v -2.408666 0.741408 -1.113005
v -2.407419 0.740721 -1.112567
v -2.406009 0.739354 -1.111666
v -2.407657 0.739023 -1.111065
v -2.409661 0.738717 -1.109969
v -2.412302 0.740286 -1.109902
v -2.413016 0.740121 -1.108368
v -2.413189 0.740923 -1.109612
v -2.412973 0.741421 -1.111090
v -2.411288 0.738634 -1.108341
v -2.412353 0.738674 -1.106907
v -2.407593 0.732048 -1.104444
v -2.408784 0.732040 -1.103250
v -2.410027 0.734443 -1.104262
v -2.408792 0.734432 -1.105530
v -2.407031 0.734535 -1.107061
v -2.405901 0.732159 -1.105895
v -2.404861 0.729662 -1.104865
v -2.406353 0.729568 -1.103572
v -2.407396 0.729566 -1.102500
v -2.404046 0.732428 -1.107105
v -2.405081 0.734830 -1.108314
v -2.403541 0.735139 -1.109128
v -2.402585 0.732704 -1.107901
v -2.401908 0.730155 -1.106617
v -2.403212 0.729904 -1.105928
v -2.406302 0.737060 -1.109684
v -2.408309 0.736726 -1.108451
v -2.404699 0.737424 -1.110451
v -2.410071 0.736655 -1.106856
v -2.411286 0.736718 -1.105510
v -2.404949 0.727057 -1.102886
v -2.405699 0.727084 -1.102038
v -2.403850 0.727111 -1.103882
v -2.403090 0.725191 -1.103143
v -2.403821 0.725176 -1.102424
v -2.404555 0.725699 -1.101994
v -2.402596 0.727309 -1.104651
v -2.401589 0.727525 -1.105122
v -2.401667 0.726009 -1.104160
v -2.402205 0.725349 -1.103636
v -2.405905 0.727130 -1.101713
v -2.404293 0.725256 -1.101729
v -2.407700 0.729604 -1.102100
v -2.404555 0.725699 -1.101994
v -2.402046 0.724731 -1.103243
v -2.401426 0.725564 -1.103879
v -2.402802 0.724587 -1.102845
v -2.401667 0.726009 -1.104160
v -2.406850 0.740800 -1.112601
v -2.408504 0.741620 -1.113104
v -2.405447 0.739511 -1.111814
v -2.408666 0.741408 -1.113005
v -2.413163 0.741854 -1.111452
v -2.413357 0.741099 -1.109464
v -2.412330 0.742244 -1.113024
v -2.413189 0.740923 -1.109612
v -2.413213 0.740118 -1.107828
v -2.412667 0.738737 -1.106398
v -2.403404 0.724585 -1.102223
v -2.401230 0.727631 -1.105220
v -2.401450 0.730274 -1.106789
v -2.410554 0.742133 -1.113410
v -2.404148 0.737590 -1.110653
v -2.403007 0.735283 -1.109344
v -2.411650 0.736786 -1.105026
v -2.410397 0.734491 -1.103801
v -2.409139 0.732077 -1.102811
v -2.402075 0.732835 -1.108109
vn 0.163000 0.713500 0.681400
vn 0.333000 0.763700 0.553100
vn 0.362600 0.724000 0.586800
vn 0.212100 0.678300 0.703500
vn 0.232000 0.662600 0.712100
vn 0.170100 0.715200 0.677900
vn 0.126100 0.749400 0.650000
vn 0.149800 0.780500 0.607000
vn 0.284400 0.820100 0.496400
vn 0.508100 0.750500 0.422500
vn 0.502500 0.750900 0.428400
vn 0.525700 0.694100 0.491900
vn 0.520600 0.711400 0.472000
vn 0.431600 0.810700 0.395600
vn 0.483300 0.787700 0.382000
vn 0.556100 0.534900 0.636000
vn 0.531400 0.526400 0.663700
vn 0.541000 0.498600 0.677300
vn 0.574300 0.506700 0.643000
vn 0.488200 0.491500 0.721100
vn 0.472600 0.528000 0.705500
vn 0.438700 0.598400 0.670400
vn 0.535900 0.598000 0.595900
vn 0.522700 0.583400 0.621600
vn 0.382900 0.516300 0.766000
vn 0.388400 0.486800 0.782300
vn 0.431300 0.486800 0.759600
vn 0.417100 0.514000 0.749500
vn 0.371600 0.567100 0.735000
vn 0.341500 0.577200 0.741800
vn 0.277500 0.638000 0.718300
vn 0.397600 0.670900 0.625900
vn 0.303500 0.621000 0.722600
vn 0.522600 0.664300 0.534400
vn 0.522000 0.644400 0.558700
vn 0.598100 0.494900 0.630300
vn 0.564800 0.482800 0.669200
vn 0.594100 0.469100 0.653400
vn 0.632900 0.445200 0.633400
vn 0.514100 0.423700 0.745800
vn 0.495300 0.474000 0.728000
vn 0.371500 0.470600 0.800300
vn 0.371800 0.417000 0.829300
vn 0.398100 0.448000 0.800500
vn 0.419300 0.467300 0.778300
vn -0.150600 -0.690700 -0.707200
vn -0.341300 -0.753000 -0.562600
vn -0.372200 -0.710000 -0.597700
vn -0.110200 -0.618900 -0.777600
vn -0.020100 -0.556300 -0.830700
vn -0.037000 -0.573200 -0.818600
vn -0.099400 -0.597400 -0.795700
vn -0.199800 -0.673700 -0.711400
vn -0.362500 -0.724100 -0.586700
vn -0.539100 -0.732400 -0.415800
vn -0.692000 -0.643500 -0.327200
vn -0.710400 -0.630400 -0.312800
vn -0.627100 -0.674200 -0.390100
vn -0.532200 -0.709300 -0.462100
vn -0.650000 -0.656400 -0.382700
vn -0.567600 -0.536300 -0.624600
vn -0.642600 -0.543300 -0.540200
vn -0.629200 -0.586500 -0.509900
vn -0.546800 -0.598400 -0.585500
vn -0.438800 -0.598200 -0.670500
vn -0.472700 -0.527800 -0.705600
vn -0.488300 -0.491400 -0.721200
vn -0.586700 -0.510200 -0.628800
vn -0.659900 -0.540200 -0.522200
vn -0.368600 -0.515000 -0.773900
vn -0.328600 -0.575000 -0.749200
vn -0.235800 -0.544300 -0.805000
vn -0.267000 -0.503100 -0.821900
vn -0.245600 -0.495900 -0.832900
vn -0.371000 -0.487000 -0.790600
vn -0.265100 -0.635100 -0.725500
vn -0.397600 -0.670900 -0.625900
vn -0.172200 -0.585000 -0.792500
vn -0.533200 -0.663800 -0.524400
vn -0.629000 -0.634100 -0.449800
vn -0.609200 -0.512400 -0.605200
vn -0.680400 -0.565700 -0.465800
vn -0.491000 -0.484700 -0.723900
vn -0.471500 -0.530600 -0.704400
vn -0.631800 -0.570900 -0.524300
vn -0.688700 -0.584600 -0.428800
vn -0.342200 -0.483800 -0.805500
vn -0.182800 -0.512400 -0.839000
vn -0.142700 -0.526200 -0.838300
vn -0.251000 -0.530000 -0.810000
vn -0.492000 -0.297500 0.818200
vn -0.171100 -0.557000 0.812600
vn -0.603100 -0.197800 0.772700
vn -0.688700 -0.584600 -0.428800
vn 0.549900 -0.804900 0.223000
vn 0.896400 -0.443000 0.012000
vn 0.291800 -0.921100 0.257500
vn -0.142700 -0.526200 -0.838300
vn 0.669400 0.529700 -0.520900
vn 0.399900 0.683700 -0.610500
vn 0.801200 0.373200 -0.467700
vn -0.020100 -0.556300 -0.830700
vn -0.799900 0.578200 -0.160600
vn -0.783100 0.557000 0.276600
vn -0.525700 0.585400 -0.617100
vn -0.710400 -0.630400 -0.312800
vn -0.749700 0.377500 0.543500
vn -0.713300 0.210800 0.668300
vn 0.173200 -0.845200 0.505600
vn 0.953300 -0.142900 -0.265900
vn 0.926500 -0.034400 -0.374500
vn -0.015800 0.662300 -0.749100
vn 0.863700 0.241800 -0.442200
vn 0.886000 0.157300 -0.436100
vn -0.687700 0.074800 0.722100
vn -0.676700 -0.010200 0.736100
vn -0.661200 -0.094000 0.744300
vn 0.901300 0.072600 -0.427100
vt 0.839504 0.118056
vt 0.856743 0.205307
vt 0.741230 0.205307
vt 0.734555 0.106726
vt 0.724541 0.032791
vt 0.813647 0.052618
vt 0.868992 0.081539
vt 0.913398 0.129584
vt 0.940923 0.205307
vt 0.839504 0.292557
vt 0.813647 0.357995
vt 0.724541 0.377822
vt 0.734555 0.303887
vt 0.913398 0.281029
vt 0.868992 0.329074
vt 0.369475 0.299954
vt 0.368286 0.370940
vt 0.245840 0.351447
vt 0.246397 0.288815
vt 0.246768 0.205307
vt 0.370268 0.205307
vt 0.494283 0.205307
vt 0.492822 0.304944
vt 0.490632 0.379672
vt 0.369475 0.110659
vt 0.246397 0.121798
vt 0.245841 0.059166
vt 0.368286 0.039673
vt 0.490632 0.030941
vt 0.492822 0.105669
vt 0.616755 0.103478
vt 0.619174 0.205307
vt 0.613127 0.027106
vt 0.616755 0.307135
vt 0.613126 0.383507
vt 0.123273 0.268175
vt 0.123047 0.315326
vt 0.054743 0.283353
vt 0.030912 0.249131
vt 0.030973 0.205306
vt 0.123423 0.205306
vt 0.123273 0.142438
vt 0.030912 0.161481
vt 0.054744 0.127260
vt 0.123047 0.095287
vt 0.839504 0.118056
vt 0.856743 0.205307
vt 0.968983 0.205307
vt 0.938030 0.133427
vt 0.876123 0.061548
vt 0.805028 0.030806
vt 0.721203 0.008146
vt 0.734555 0.106726
vt 0.741230 0.205307
vt 0.839504 0.292557
vt 0.805028 0.379807
vt 0.876123 0.349065
vt 0.938030 0.277186
vt 0.734555 0.303887
vt 0.721203 0.402467
vt 0.369475 0.299954
vt 0.367890 0.394602
vt 0.489902 0.404581
vt 0.492822 0.304944
vt 0.494283 0.205307
vt 0.370268 0.205307
vt 0.246768 0.205307
vt 0.246397 0.288815
vt 0.245655 0.372324
vt 0.369475 0.110659
vt 0.492822 0.105669
vt 0.489902 0.006032
vt 0.367890 0.016011
vt 0.245655 0.038289
vt 0.246397 0.121798
vt 0.616755 0.103478
vt 0.619174 0.205307
vt 0.611917 0.001649
vt 0.616755 0.307135
vt 0.611917 0.408964
vt 0.123273 0.268175
vt 0.122972 0.331043
vt 0.123423 0.205306
vt 0.000156 0.205306
vt 0.000125 0.242784
vt 0.000064 0.280261
vt 0.123273 0.142438
vt 0.122972 0.079570
vt 0.000064 0.130352
vt 0.000125 0.167829
vt 0.122972 0.331043
vt 0.030806 0.283587
vt 0.245655 0.372324
vt 0.030806 0.283587
vt 0.000125 0.167829
vt 0.030806 0.127026
vt 0.000156 0.205306
vt 0.030806 0.127026
vt 0.805028 0.030806
vt 0.873826 0.071832
vt 0.721203 0.008146
vt 0.873826 0.071832
vt 0.938030 0.277186
vt 0.873826 0.338781
vt 0.968983 0.205307
vt 0.873826 0.338781
vt 0.805028 0.379807
vt 0.721203 0.402467
vt 0.000125 0.242784
vt 0.122972 0.079570
vt 0.245655 0.038289
vt 0.938030 0.133427
vt 0.611917 0.001649
vt 0.489902 0.006032
vt 0.611917 0.408964
vt 0.489902 0.404581
vt 0.367890 0.394602
vt 0.367890 0.016011
f 1/1/1 2/2/2 3/3/3
f 1/1/1 3/3/3 4/4/4
f 1/1/1 4/4/4 5/5/5
f 1/1/1 5/5/5 6/6/6
f 1/1/1 6/6/6 7/7/7
f 1/1/1 7/7/7 8/8/8
f 1/1/1 8/8/8 9/9/9
f 1/1/1 9/9/9 2/2/2
f 10/10/10 11/11/11 12/12/12
f 10/10/10 12/12/12 13/13/13
f 10/10/10 13/13/13 3/3/3
f 10/10/10 3/3/3 2/2/2
f 10/10/10 2/2/2 9/9/9
f 10/10/10 9/9/9 14/14/14
f 10/10/10 14/14/14 15/15/15
f 10/10/10 15/15/15 11/11/11
f 16/16/16 17/17/17 18/18/18
f 16/16/16 18/18/18 19/19/19
f 16/16/16 19/19/19 20/20/20
f 16/16/16 20/20/20 21/21/21
f 16/16/16 21/21/21 22/22/22
f 16/16/16 22/22/22 23/23/23
f 16/16/16 23/23/23 24/24/24
f 16/16/16 24/24/24 17/17/17
f 25/25/25 21/21/21 20/20/20
f 25/25/25 20/20/20 26/26/26
f 25/25/25 26/26/26 27/27/27
f 25/25/25 27/27/27 28/28/28
f 25/25/25 28/28/28 29/29/29
f 25/25/25 29/29/29 30/30/30
f 25/25/25 30/30/30 22/22/22
f 25/25/25 22/22/22 21/21/21
f 31/31/31 32/32/32 22/22/22
f 31/31/31 22/22/22 30/30/30
f 31/31/31 30/30/30 29/29/29
f 31/31/31 29/29/29 33/33/33
f 31/31/31 33/33/33 5/5/5
f 31/31/31 5/5/5 4/4/4
f 31/31/31 4/4/4 3/3/3
f 31/31/31 3/3/3 32/32/32
f 34/34/34 35/35/35 24/24/24
f 34/34/34 24/24/24 23/23/23
f 34/34/34 23/23/23 22/22/22
f 34/34/34 22/22/22 32/32/32
f 34/34/34 32/32/32 3/3/3
f 34/34/34 3/3/3 13/13/13
f 34/34/34 13/13/13 12/12/12
f 34/34/34 12/12/12 35/35/35
f 36/36/36 37/37/37 38/38/38
f 36/36/36 38/38/38 39/39/39
f 36/36/36 39/39/39 40/40/40
f 36/36/36 40/40/40 41/41/41
f 36/36/36 41/41/41 20/20/20
f 36/36/36 20/20/20 19/19/19
f 36/36/36 19/19/19 18/18/18
f 36/36/36 18/18/18 37/37/37
f 42/42/42 41/41/41 40/40/40
f 42/42/42 40/40/40 43/43/43
f 42/42/42 43/43/43 44/44/44
f 42/42/42 44/44/44 45/45/45
f 42/42/42 45/45/45 27/27/27
f 42/42/42 27/27/27 26/26/26
f 42/42/42 26/26/26 20/20/20
f 42/42/42 20/20/20 41/41/41
f 46/46/46 47/47/47 48/48/48
f 46/46/46 48/48/48 49/49/49
f 46/46/46 49/49/49 50/50/50
f 46/46/46 50/50/50 51/51/51
f 46/46/46 51/51/51 52/52/52
f 46/46/46 52/52/52 53/53/53
f 46/46/46 53/53/53 54/54/54
f 46/46/46 54/54/54 47/47/47
f 55/55/55 56/56/56 57/57/57
f 55/55/55 57/57/57 58/58/58
f 55/55/55 58/58/58 48/48/48
f 55/55/55 48/48/48 47/47/47
f 55/55/55 47/47/47 54/54/54
f 55/55/55 54/54/54 59/59/59
f 55/55/55 59/59/59 60/60/60
f 55/55/55 60/60/60 56/56/56
f 61/61/61 62/62/62 63/63/63
f 61/61/61 63/63/63 64/64/64
f 61/61/61 64/64/64 65/65/65
f 61/61/61 65/65/65 66/66/66
f 61/61/61 66/66/66 67/67/67
f 61/61/61 67/67/67 68/68/68
f 61/61/61 68/68/68 69/69/69
f 61/61/61 69/69/69 62/62/62
f 70/70/70 66/66/66 65/65/65
f 70/70/70 65/65/65 71/71/71
f 70/70/70 71/71/71 72/72/72
f 70/70/70 72/72/72 73/73/73
f 70/70/70 73/73/73 74/74/74
f 70/70/70 74/74/74 75/75/75
f 70/70/70 75/75/75 67/67/67
f 70/70/70 67/67/67 66/66/66
f 76/76/76 77/77/77 54/54/54
f 76/76/76 54/54/54 53/53/53
f 76/76/76 53/53/53 52/52/52
f 76/76/76 52/52/52 78/78/78
f 76/76/76 78/78/78 72/72/72
f 76/76/76 72/72/72 71/71/71
f 76/76/76 71/71/71 65/65/65
f 76/76/76 65/65/65 77/77/77
f 79/79/79 80/80/80 60/60/60
f 79/79/79 60/60/60 59/59/59
f 79/79/79 59/59/59 54/54/54
f 79/79/79 54/54/54 77/77/77
f 79/79/79 77/77/77 65/65/65
f 79/79/79 65/65/65 64/64/64
f 79/79/79 64/64/64 63/63/63
f 79/79/79 63/63/63 80/80/80
f 81/81/81 82/82/82 69/69/69
f 81/81/81 69/69/69 68/68/68
f 81/81/81 68/68/68 67/67/67
f 81/81/81 67/67/67 83/83/83
f 81/81/81 83/83/83 84/84/84
f 81/81/81 84/84/84 85/85/85
f 81/81/81 85/85/85 86/86/86
f 81/81/81 86/86/86 82/82/82
f 87/87/87 83/83/83 67/67/67
f 87/87/87 67/67/67 75/75/75
f 87/87/87 75/75/75 74/74/74
f 87/87/87 74/74/74 88/88/88
f 87/87/87 88/88/88 89/89/89
f 87/87/87 89/89/89 90/90/90
f 87/87/87 90/90/90 84/84/84
f 87/87/87 84/84/84 83/83/83
f 91/91/91 92/92/92 38/38/38
f 91/91/91 38/38/38 37/37/37
f 91/91/91 37/37/37 18/18/18
f 91/91/91 18/18/18 93/93/93
f 91/91/91 93/93/93 69/69/69
f 91/91/91 69/69/69 82/82/82
f 91/91/91 82/82/82 94/94/94
f 91/91/91 94/94/94 92/92/92
f 95/95/95 96/96/96 44/44/44
f 95/95/95 44/44/44 43/43/43
f 95/95/95 43/43/43 40/40/40
f 95/95/95 40/40/40 97/97/97
f 95/95/95 97/97/97 84/84/84
f 95/95/95 84/84/84 90/90/90
f 95/95/95 90/90/90 98/98/98
f 95/95/95 98/98/98 96/96/96
f 99/99/99 100/100/100 7/7/7
f 99/99/99 7/7/7 6/6/6
f 99/99/99 6/6/6 5/5/5
f 99/99/99 5/5/5 101/101/101
f 99/99/99 101/101/101 52/52/52
f 99/99/99 52/52/52 51/51/51
f 99/99/99 51/51/51 102/102/102
f 99/99/99 102/102/102 100/100/100
f 103/103/103 104/104/104 15/15/15
f 103/103/103 15/15/15 14/14/14
f 103/103/103 14/14/14 9/9/9
f 103/103/103 9/9/9 105/105/105
f 103/103/103 105/105/105 48/48/48
f 103/103/103 48/48/48 58/58/58
f 103/103/103 58/58/58 106/106/106
f 103/103/103 106/106/106 104/104/104
f 107/107/107 108/108/108 12/12/12
f 107/107/107 12/12/12 11/11/11
f 107/107/107 11/11/11 15/15/15
f 107/107/107 15/15/15 104/104/104
f 107/107/107 104/104/104 106/106/106
f 107/107/107 106/106/106 56/56/56
f 107/107/107 56/56/56 60/60/60
f 107/107/107 60/60/60 108/108/108
f 109/109/109 97/97/97 40/40/40
f 109/109/109 40/40/40 39/39/39
f 109/109/109 39/39/39 38/38/38
f 109/109/109 38/38/38 92/92/92
f 109/109/109 92/92/92 94/94/94
f 109/109/109 94/94/94 85/85/85
f 109/109/109 85/85/85 84/84/84
f 109/109/109 84/84/84 97/97/97
f 110/110/110 111/111/111 27/27/27
f 110/110/110 27/27/27 45/45/45
f 110/110/110 45/45/45 44/44/44
f 110/110/110 44/44/44 96/96/96
f 110/110/110 96/96/96 98/98/98
f 110/110/110 98/98/98 88/88/88
f 110/110/110 88/88/88 74/74/74
f 110/110/110 74/74/74 111/111/111
f 112/112/112 105/105/105 9/9/9
f 112/112/112 9/9/9 8/8/8
f 112/112/112 8/8/8 7/7/7
f 112/112/112 7/7/7 100/100/100
f 112/112/112 100/100/100 102/102/102
f 112/112/112 102/102/102 49/49/49
f 112/112/112 49/49/49 48/48/48
f 112/112/112 48/48/48 105/105/105
f 113/113/113 101/101/101 5/5/5
f 113/113/113 5/5/5 33/33/33
f 113/113/113 33/33/33 29/29/29
f 113/113/113 29/29/29 114/114/114
f 113/113/113 114/114/114 72/72/72
f 113/113/113 72/72/72 78/78/78
f 113/113/113 78/78/78 52/52/52
f 113/113/113 52/52/52 101/101/101
f 115/115/115 116/116/116 24/24/24
f 115/115/115 24/24/24 35/35/35
f 115/115/115 35/35/35 12/12/12
f 115/115/115 12/12/12 108/108/108
f 115/115/115 108/108/108 60/60/60
f 115/115/115 60/60/60 80/80/80
f 115/115/115 80/80/80 63/63/63
f 115/115/115 63/63/63 116/116/116
f 117/117/117 93/93/93 18/18/18
f 117/117/117 18/18/18 17/17/17
f 117/117/117 17/17/17 24/24/24
f 117/117/117 24/24/24 116/116/116
f 117/117/117 116/116/116 63/63/63
f 117/117/117 63/63/63 62/62/62
f 117/117/117 62/62/62 69/69/69
f 117/117/117 69/69/69 93/93/93
f 118/118/118 114/114/114 29/29/29
f 118/118/118 29/29/29 28/28/28
f 118/118/118 28/28/28 27/27/27
f 118/118/118 27/27/27 111/111/111
f 118/118/118 111/111/111 74/74/74
f 118/118/118 74/74/74 73/73/73
f 118/118/118 73/73/73 72/72/72
f 118/118/118 72/72/72 114/114/114
