v -2.460755 0.731817 -1.140666
v -2.460192 0.732127 -1.137452
v -2.456162 0.731503 -1.139004
v -2.457252 0.731131 -1.142462
v -2.457868 0.731123 -1.145218
v -2.460704 0.731831 -1.143350
v -2.462273 0.732062 -1.141566
v -2.463200 0.732162 -1.139242
v -2.463152 0.732439 -1.136277
v -2.458346 0.733208 -1.134970
v -2.456479 0.734270 -1.133360
v -2.453068 0.733894 -1.133869
v -2.454513 0.732711 -1.135988
v -2.461115 0.733366 -1.134311
v -2.458851 0.734037 -1.133476
v -2.442240 0.728458 -1.140221
v -2.441098 0.729342 -1.137965
v -2.437397 0.727069 -1.139771
v -2.438417 0.726271 -1.141758
v -2.439698 0.725373 -1.144472
v -2.443679 0.727458 -1.143297
v -2.447746 0.729250 -1.142014
v -2.446234 0.730326 -1.138807
v -2.445026 0.731296 -1.136464
v -2.444924 0.726909 -1.146565
v -2.440790 0.724901 -1.147369
v -2.441555 0.724668 -1.149602
v -2.445800 0.726628 -1.149081
v -2.449944 0.728457 -1.148091
v -2.449041 0.728706 -1.145443
v -2.453249 0.730103 -1.144065
v -2.451960 0.730571 -1.140554
v -2.454124 0.729977 -1.146801
v -2.450401 0.731747 -1.137331
v -2.449133 0.732858 -1.135001
v -2.434761 0.723892 -1.143605
v -2.433968 0.724553 -1.142148
v -2.432284 0.722921 -1.143812
v -2.432094 0.722000 -1.145087
v -2.432794 0.721442 -1.146432
v -2.435740 0.723173 -1.145609
v -2.436532 0.722870 -1.147792
v -2.433308 0.721299 -1.147956
v -2.434467 0.721661 -1.148974
v -2.437073 0.722760 -1.149490
v -2.460802 0.731481 -1.140617
v -2.460221 0.731799 -1.137360
v -2.463169 0.732192 -1.136209
v -2.463232 0.731910 -1.139209
v -2.462302 0.731874 -1.141551
v -2.460749 0.731577 -1.143335
v -2.457920 0.730872 -1.145194
v -2.457310 0.730798 -1.142403
v -2.456204 0.731176 -1.138907
v -2.458357 0.732893 -1.134835
v -2.456478 0.734043 -1.133238
v -2.458851 0.733866 -1.133392
v -2.461117 0.733130 -1.134210
v -2.454539 0.732397 -1.135853
v -2.453080 0.733666 -1.133749
v -2.442329 0.728159 -1.140076
v -2.441159 0.729121 -1.137843
v -2.445073 0.731072 -1.136344
v -2.446305 0.730020 -1.138666
v -2.447829 0.728935 -1.141902
v -2.443780 0.727150 -1.143179
v -2.439811 0.725071 -1.144350
v -2.438518 0.725977 -1.141610
v -2.437466 0.726853 -1.139646
v -2.445036 0.726596 -1.146475
v -2.449136 0.728386 -1.145361
v -2.450022 0.728215 -1.148044
v -2.445889 0.726391 -1.149027
v -2.441653 0.724436 -1.149547
v -2.440914 0.724594 -1.147275
v -2.453324 0.729776 -1.143994
v -2.452022 0.730250 -1.140450
v -2.454188 0.729730 -1.146765
v -2.450448 0.731436 -1.137194
v -2.449162 0.732631 -1.134882
v -2.434865 0.723601 -1.143454
v -2.434039 0.724339 -1.142021
v -2.435857 0.722873 -1.145486
v -2.432883 0.721218 -1.146339
v -2.432172 0.721782 -1.144972
v -2.432339 0.722762 -1.143721
v -2.436661 0.722564 -1.147699
v -2.437176 0.722529 -1.149436
v -2.434542 0.721490 -1.148930
v -2.433406 0.721070 -1.147888
v -2.433734 0.724679 -1.141603
v -2.431511 0.722482 -1.144026
v -2.437086 0.727240 -1.139050
v -2.432339 0.722762 -1.143721
v -2.432277 0.720674 -1.147981
v -2.433698 0.721219 -1.149198
v -2.431852 0.720765 -1.146665
v -2.434542 0.721490 -1.148930
v -2.460709 0.731722 -1.144243
v -2.462584 0.732073 -1.141848
v -2.458099 0.731008 -1.146130
v -2.462302 0.731874 -1.141551
v -2.462038 0.733314 -1.134047
v -2.458881 0.734210 -1.133095
v -2.464145 0.732433 -1.135855
v -2.458851 0.733866 -1.133392
v -2.455854 0.734525 -1.132764
v -2.452590 0.734188 -1.133106
v -2.431240 0.721273 -1.145530
v -2.437300 0.722620 -1.150035
v -2.441855 0.724487 -1.150325
v -2.464028 0.732165 -1.138754
v -2.454446 0.729825 -1.147701
v -2.450281 0.728266 -1.148957
v -2.448722 0.733129 -1.134168
v -2.444643 0.731521 -1.135626
v -2.440743 0.729539 -1.137156
v -2.446133 0.726428 -1.149899
vn 0.134500 0.989200 -0.057500
vn 0.033800 0.967500 -0.250500
vn 0.089100 0.958300 -0.271600
vn 0.181400 0.978300 -0.100100
vn 0.201000 0.972500 -0.117400
vn 0.132000 0.989100 -0.065100
vn 0.082100 0.996200 -0.028500
vn 0.034100 0.997500 -0.061100
vn -0.052700 0.975000 -0.215800
vn -0.030000 0.894200 -0.446600
vn -0.026600 0.897500 -0.440100
vn 0.061000 0.891700 -0.448500
vn 0.034200 0.893400 -0.448000
vn -0.100400 0.919900 -0.379000
vn -0.088200 0.897900 -0.431300
vn 0.274300 0.852400 -0.445100
vn 0.296800 0.859900 -0.415300
vn 0.325700 0.846600 -0.420900
vn 0.299700 0.835500 -0.460500
vn 0.355000 0.862400 -0.360700
vn 0.318300 0.881100 -0.349700
vn 0.242800 0.913700 -0.325800
vn 0.201700 0.877400 -0.435300
vn 0.228200 0.879800 -0.416900
vn 0.357000 0.900100 -0.249800
vn 0.388300 0.886700 -0.251000
vn 0.378000 0.876700 -0.297400
vn 0.351300 0.891400 -0.286400
vn 0.300300 0.921400 -0.246400
vn 0.294400 0.930900 -0.216100
vn 0.228500 0.960300 -0.160000
vn 0.157500 0.941900 -0.296600
vn 0.246600 0.951500 -0.184000
vn 0.111600 0.892800 -0.436300
vn 0.142400 0.891300 -0.430400
vn 0.301000 0.820600 -0.485900
vn 0.333000 0.831100 -0.445300
vn 0.334000 0.813100 -0.476700
vn 0.339300 0.785400 -0.517600
vn 0.419400 0.824900 -0.378800
vn 0.372100 0.853100 -0.365600
vn 0.409100 0.882900 -0.230400
vn 0.463900 0.857300 -0.223200
vn 0.427400 0.867100 -0.255700
vn 0.402300 0.871200 -0.281400
vn -0.166300 -0.985300 0.039600
vn -0.049000 -0.965300 0.256400
vn -0.107800 -0.954300 0.278600
vn -0.257300 -0.966200 -0.016100
vn -0.320600 -0.940000 -0.116900
vn -0.303900 -0.947700 -0.097500
vn -0.282300 -0.958800 -0.030900
vn -0.188300 -0.978300 0.086400
vn -0.088900 -0.958300 0.271600
vn 0.019000 -0.878300 0.477700
vn 0.008500 -0.767400 0.641100
vn 0.008700 -0.749900 0.661400
vn -0.010800 -0.823900 0.566500
vn -0.029800 -0.886800 0.461200
vn -0.019700 -0.807200 0.589900
vn -0.266500 -0.847700 0.458600
vn -0.209400 -0.809600 0.548400
vn -0.157500 -0.825000 0.542700
vn -0.195200 -0.872500 0.447900
vn -0.243000 -0.913700 0.325800
vn -0.318500 -0.881000 0.349800
vn -0.355100 -0.862400 0.360700
vn -0.288800 -0.830900 0.475600
vn -0.200200 -0.797900 0.568600
vn -0.361400 -0.902500 0.234300
vn -0.299200 -0.932600 0.201900
vn -0.345100 -0.933300 0.099200
vn -0.388400 -0.912900 0.125000
vn -0.397700 -0.911900 0.101700
vn -0.391700 -0.890200 0.232400
vn -0.233700 -0.961200 0.146400
vn -0.157500 -0.941900 0.296600
vn -0.299900 -0.953100 0.040600
vn -0.105900 -0.887400 0.448600
vn -0.082100 -0.827300 0.555700
vn -0.272900 -0.820600 0.502200
vn -0.144400 -0.786500 0.600400
vn -0.361700 -0.858800 0.362700
vn -0.315700 -0.882400 0.348900
vn -0.178600 -0.821300 0.541800
vn -0.105500 -0.780500 0.616200
vn -0.400200 -0.894000 0.201100
vn -0.381600 -0.923500 0.039600
vn -0.365700 -0.930700 0.000900
vn -0.360100 -0.926100 0.112600
vn 0.732600 0.205600 0.648900
vn 0.939400 0.021400 0.342200
vn 0.617800 0.249300 0.745800
vn -0.105500 -0.780500 0.616200
vn 0.751600 -0.465700 -0.467100
vn 0.430600 -0.272200 -0.860500
vn 0.803100 -0.560200 -0.203000
vn -0.365700 -0.930700 0.000900
vn -0.607600 0.171100 -0.775500
vn -0.816700 0.218700 -0.533900
vn -0.449800 0.088600 -0.888700
vn -0.320600 -0.940000 -0.116900
vn -0.611300 0.300100 0.732300
vn -0.252600 0.544300 0.799900
vn -0.924500 0.058400 0.376700
vn 0.008700 -0.749900 0.661400
vn 0.069000 0.561700 0.824400
vn 0.272600 0.505400 0.818700
vn 0.931100 -0.362200 -0.042800
vn 0.043500 -0.192200 -0.980400
vn -0.111400 -0.171800 -0.978800
vn -0.984900 0.084400 -0.151300
vn -0.340300 0.003800 -0.940300
vn -0.281200 -0.058100 -0.957900
vn 0.399800 0.430900 0.809000
vn 0.463800 0.372100 0.804000
vn 0.523500 0.310800 0.793300
vn -0.221200 -0.119300 -0.967900
vt 0.839504 0.118056
vt 0.856743 0.205307
vt 0.741230 0.205307
vt 0.734555 0.106726
vt 0.724541 0.032791
vt 0.813647 0.052618
vt 0.868992 0.081539
vt 0.913398 0.129584
vt 0.940923 0.205307
vt 0.839504 0.292557
vt 0.813647 0.357995
vt 0.724541 0.377822
vt 0.734555 0.303887
vt 0.913398 0.281029
vt 0.868992 0.329074
vt 0.369475 0.299954
vt 0.368286 0.370940
vt 0.245840 0.351447
vt 0.246397 0.288815
vt 0.246768 0.205307
vt 0.370268 0.205307
vt 0.494283 0.205307
vt 0.492822 0.304944
vt 0.490632 0.379672
vt 0.369475 0.110659
vt 0.246397 0.121798
vt 0.245841 0.059166
vt 0.368286 0.039673
vt 0.490632 0.030941
vt 0.492822 0.105669
vt 0.616755 0.103478
vt 0.619174 0.205307
vt 0.613127 0.027106
vt 0.616755 0.307135
vt 0.613126 0.383507
vt 0.123273 0.268175
vt 0.123047 0.315326
vt 0.054743 0.283353
vt 0.030912 0.249131
vt 0.030973 0.205306
vt 0.123423 0.205306
vt 0.123273 0.142438
vt 0.030912 0.161481
vt 0.054744 0.127260
vt 0.123047 0.095287
vt 0.839504 0.118056
vt 0.856743 0.205307
vt 0.968983 0.205307
vt 0.938030 0.133427
vt 0.876123 0.061548
vt 0.805028 0.030806
vt 0.721203 0.008146
vt 0.734555 0.106726
vt 0.741230 0.205307
vt 0.839504 0.292557
vt 0.805028 0.379807
vt 0.876123 0.349065
vt 0.938030 0.277186
vt 0.734555 0.303887
vt 0.721203 0.402467
vt 0.369475 0.299954
vt 0.367890 0.394602
vt 0.489902 0.404581
vt 0.492822 0.304944
vt 0.494283 0.205307
vt 0.370268 0.205307
vt 0.246768 0.205307
vt 0.246397 0.288815
vt 0.245655 0.372324
vt 0.369475 0.110659
vt 0.492822 0.105669
vt 0.489902 0.006032
vt 0.367890 0.016011
vt 0.245655 0.038289
vt 0.246397 0.121798
vt 0.616755 0.103478
vt 0.619174 0.205307
vt 0.611917 0.001649
vt 0.616755 0.307135
vt 0.611917 0.408964
vt 0.123273 0.268175
vt 0.122972 0.331043
vt 0.123423 0.205306
vt 0.000156 0.205306
vt 0.000125 0.242784
vt 0.000064 0.280261
vt 0.123273 0.142438
vt 0.122972 0.079570
vt 0.000064 0.130352
vt 0.000125 0.167829
vt 0.122972 0.331043
vt 0.030806 0.283587
vt 0.245655 0.372324
vt 0.030806 0.283587
vt 0.000125 0.167829
vt 0.030806 0.127026
vt 0.000156 0.205306
vt 0.030806 0.127026
vt 0.805028 0.030806
vt 0.873826 0.071832
vt 0.721203 0.008146
vt 0.873826 0.071832
vt 0.938030 0.277186
vt 0.873826 0.338781
vt 0.968983 0.205307
vt 0.873826 0.338781
vt 0.805028 0.379807
vt 0.721203 0.402467
vt 0.000125 0.242784
vt 0.122972 0.079570
vt 0.245655 0.038289
vt 0.938030 0.133427
vt 0.611917 0.001649
vt 0.489902 0.006032
vt 0.611917 0.408964
vt 0.489902 0.404581
vt 0.367890 0.394602
vt 0.367890 0.016011
f 1/1/1 2/2/2 3/3/3
f 1/1/1 3/3/3 4/4/4
f 1/1/1 4/4/4 5/5/5
f 1/1/1 5/5/5 6/6/6
f 1/1/1 6/6/6 7/7/7
f 1/1/1 7/7/7 8/8/8
f 1/1/1 8/8/8 9/9/9
f 1/1/1 9/9/9 2/2/2
f 10/10/10 11/11/11 12/12/12
f 10/10/10 12/12/12 13/13/13
f 10/10/10 13/13/13 3/3/3
f 10/10/10 3/3/3 2/2/2
f 10/10/10 2/2/2 9/9/9
f 10/10/10 9/9/9 14/14/14
f 10/10/10 14/14/14 15/15/15
f 10/10/10 15/15/15 11/11/11
f 16/16/16 17/17/17 18/18/18
f 16/16/16 18/18/18 19/19/19
f 16/16/16 19/19/19 20/20/20
f 16/16/16 20/20/20 21/21/21
f 16/16/16 21/21/21 22/22/22
f 16/16/16 22/22/22 23/23/23
f 16/16/16 23/23/23 24/24/24
f 16/16/16 24/24/24 17/17/17
f 25/25/25 21/21/21 20/20/20
f 25/25/25 20/20/20 26/26/26
f 25/25/25 26/26/26 27/27/27
f 25/25/25 27/27/27 28/28/28
f 25/25/25 28/28/28 29/29/29
f 25/25/25 29/29/29 30/30/30
f 25/25/25 30/30/30 22/22/22
f 25/25/25 22/22/22 21/21/21
f 31/31/31 32/32/32 22/22/22
f 31/31/31 22/22/22 30/30/30
f 31/31/31 30/30/30 29/29/29
f 31/31/31 29/29/29 33/33/33
f 31/31/31 33/33/33 5/5/5
f 31/31/31 5/5/5 4/4/4
f 31/31/31 4/4/4 3/3/3
f 31/31/31 3/3/3 32/32/32
f 34/34/34 35/35/35 24/24/24
f 34/34/34 24/24/24 23/23/23
f 34/34/34 23/23/23 22/22/22
f 34/34/34 22/22/22 32/32/32
f 34/34/34 32/32/32 3/3/3
f 34/34/34 3/3/3 13/13/13
f 34/34/34 13/13/13 12/12/12
f 34/34/34 12/12/12 35/35/35
f 36/36/36 37/37/37 38/38/38
f 36/36/36 38/38/38 39/39/39
f 36/36/36 39/39/39 40/40/40
f 36/36/36 40/40/40 41/41/41
f 36/36/36 41/41/41 20/20/20
f 36/36/36 20/20/20 19/19/19
f 36/36/36 19/19/19 18/18/18
f 36/36/36 18/18/18 37/37/37
f 42/42/42 41/41/41 40/40/40
f 42/42/42 40/40/40 43/43/43
f 42/42/42 43/43/43 44/44/44
f 42/42/42 44/44/44 45/45/45
f 42/42/42 45/45/45 27/27/27
f 42/42/42 27/27/27 26/26/26
f 42/42/42 26/26/26 20/20/20
f 42/42/42 20/20/20 41/41/41
f 46/46/46 47/47/47 48/48/48
f 46/46/46 48/48/48 49/49/49
f 46/46/46 49/49/49 50/50/50
f 46/46/46 50/50/50 51/51/51
f 46/46/46 51/51/51 52/52/52
f 46/46/46 52/52/52 53/53/53
f 46/46/46 53/53/53 54/54/54
f 46/46/46 54/54/54 47/47/47
f 55/55/55 56/56/56 57/57/57
f 55/55/55 57/57/57 58/58/58
f 55/55/55 58/58/58 48/48/48
f 55/55/55 48/48/48 47/47/47
f 55/55/55 47/47/47 54/54/54
f 55/55/55 54/54/54 59/59/59
f 55/55/55 59/59/59 60/60/60
f 55/55/55 60/60/60 56/56/56
f 61/61/61 62/62/62 63/63/63
f 61/61/61 63/63/63 64/64/64
f 61/61/61 64/64/64 65/65/65
f 61/61/61 65/65/65 66/66/66
f 61/61/61 66/66/66 67/67/67
f 61/61/61 67/67/67 68/68/68
f 61/61/61 68/68/68 69/69/69
f 61/61/61 69/69/69 62/62/62
f 70/70/70 66/66/66 65/65/65
f 70/70/70 65/65/65 71/71/71
f 70/70/70 71/71/71 72/72/72
f 70/70/70 72/72/72 73/73/73
f 70/70/70 73/73/73 74/74/74
f 70/70/70 74/74/74 75/75/75
f 70/70/70 75/75/75 67/67/67
f 70/70/70 67/67/67 66/66/66
f 76/76/76 77/77/77 54/54/54
f 76/76/76 54/54/54 53/53/53
f 76/76/76 53/53/53 52/52/52
f 76/76/76 52/52/52 78/78/78
f 76/76/76 78/78/78 72/72/72
f 76/76/76 72/72/72 71/71/71
f 76/76/76 71/71/71 65/65/65
f 76/76/76 65/65/65 77/77/77
f 79/79/79 80/80/80 60/60/60
f 79/79/79 60/60/60 59/59/59
f 79/79/79 59/59/59 54/54/54
f 79/79/79 54/54/54 77/77/77
f 79/79/79 77/77/77 65/65/65
f 79/79/79 65/65/65 64/64/64
f 79/79/79 64/64/64 63/63/63
f 79/79/79 63/63/63 80/80/80
f 81/81/81 82/82/82 69/69/69
f 81/81/81 69/69/69 68/68/68
f 81/81/81 68/68/68 67/67/67
f 81/81/81 67/67/67 83/83/83
f 81/81/81 83/83/83 84/84/84
f 81/81/81 84/84/84 85/85/85
f 81/81/81 85/85/85 86/86/86
f 81/81/81 86/86/86 82/82/82
f 87/87/87 83/83/83 67/67/67
f 87/87/87 67/67/67 75/75/75
f 87/87/87 75/75/75 74/74/74
f 87/87/87 74/74/74 88/88/88
f 87/87/87 88/88/88 89/89/89
f 87/87/87 89/89/89 90/90/90
f 87/87/87 90/90/90 84/84/84
f 87/87/87 84/84/84 83/83/83
f 91/91/91 92/92/92 38/38/38
f 91/91/91 38/38/38 37/37/37
f 91/91/91 37/37/37 18/18/18
f 91/91/91 18/18/18 93/93/93
f 91/91/91 93/93/93 69/69/69
f 91/91/91 69/69/69 82/82/82
f 91/91/91 82/82/82 94/94/94
f 91/91/91 94/94/94 92/92/92
f 95/95/95 96/96/96 44/44/44
f 95/95/95 44/44/44 43/43/43
f 95/95/95 43/43/43 40/40/40
f 95/95/95 40/40/40 97/97/97
f 95/95/95 97/97/97 84/84/84
f 95/95/95 84/84/84 90/90/90
f 95/95/95 90/90/90 98/98/98
f 95/95/95 98/98/98 96/96/96
f 99/99/99 100/100/100 7/7/7
f 99/99/99 7/7/7 6/6/6
f 99/99/99 6/6/6 5/5/5
f 99/99/99 5/5/5 101/101/101
f 99/99/99 101/101/101 52/52/52
f 99/99/99 52/52/52 51/51/51
f 99/99/99 51/51/51 102/102/102
f 99/99/99 102/102/102 100/100/100
f 103/103/103 104/104/104 15/15/15
f 103/103/103 15/15/15 14/14/14
f 103/103/103 14/14/14 9/9/9
f 103/103/103 9/9/9 105/105/105
f 103/103/103 105/105/105 48/48/48
f 103/103/103 48/48/48 58/58/58
f 103/103/103 58/58/58 106/106/106
f 103/103/103 106/106/106 104/104/104
f 107/107/107 108/108/108 12/12/12
f 107/107/107 12/12/12 11/11/11
f 107/107/107 11/11/11 15/15/15
f 107/107/107 15/15/15 104/104/104
f 107/107/107 104/104/104 106/106/106
f 107/107/107 106/106/106 56/56/56
f 107/107/107 56/56/56 60/60/60
f 107/107/107 60/60/60 108/108/108
f 109/109/109 97/97/97 40/40/40
f 109/109/109 40/40/40 39/39/39
f 109/109/109 39/39/39 38/38/38
f 109/109/109 38/38/38 92/92/92
f 109/109/109 92/92/92 94/94/94
f 109/109/109 94/94/94 85/85/85
f 109/109/109 85/85/85 84/84/84
f 109/109/109 84/84/84 97/97/97
f 110/110/110 111/111/111 27/27/27
f 110/110/110 27/27/27 45/45/45
f 110/110/110 45/45/45 44/44/44
f 110/110/110 44/44/44 96/96/96
f 110/110/110 96/96/96 98/98/98
f 110/110/110 98/98/98 88/88/88
f 110/110/110 88/88/88 74/74/74
f 110/110/110 74/74/74 111/111/111
f 112/112/112 105/105/105 9/9/9
f 112/112/112 9/9/9 8/8/8
f 112/112/112 8/8/8 7/7/7
f 112/112/112 7/7/7 100/100/100
f 112/112/112 100/100/100 102/102/102
f 112/112/112 102/102/102 49/49/49
f 112/112/112 49/49/49 48/48/48
f 112/112/112 48/48/48 105/105/105
f 113/113/113 101/101/101 5/5/5
f 113/113/113 5/5/5 33/33/33
f 113/113/113 33/33/33 29/29/29
f 113/113/113 29/29/29 114/114/114
f 113/113/113 114/114/114 72/72/72
f 113/113/113 72/72/72 78/78/78
f 113/113/113 78/78/78 52/52/52
f 113/113/113 52/52/52 101/101/101
f 115/115/115 116/116/116 24/24/24
f 115/115/115 24/24/24 35/35/35
f 115/115/115 35/35/35 12/12/12
f 115/115/115 12/12/12 108/108/108
f 115/115/115 108/108/108 60/60/60
f 115/115/115 60/60/60 80/80/80
f 115/115/115 80/80/80 63/63/63
f 115/115/115 63/63/63 116/116/116
f 117/117/117 93/93/93 18/18/18
f 117/117/117 18/18/18 17/17/17
f 117/117/117 17/17/17 24/24/24
f 117/117/117 24/24/24 116/116/116
f 117/117/117 116/116/116 63/63/63
f 117/117/117 63/63/63 62/62/62
f 117/117/117 62/62/62 69/69/69
f 117/117/117 69/69/69 93/93/93
f 118/118/118 114/114/114 29/29/29
f 118/118/118 29/29/29 28/28/28
f 118/118/118 28/28/28 27/27/27
f 118/118/118 27/27/27 111/111/111
f 118/118/118 111/111/111 74/74/74
f 118/118/118 74/74/74 73/73/73
f 118/118/118 73/73/73 72/72/72
f 118/118/118 72/72/72 114/114/114
