v -2.394649 0.745196 -1.191421
v -2.393963 0.745041 -1.194013
v -2.396665 0.742706 -1.193835
v -2.397097 0.743083 -1.190904
v -2.397717 0.743450 -1.188704
v -2.395651 0.745250 -1.189463
v -2.394170 0.746121 -1.190398
v -2.392822 0.746578 -1.191877
v -2.391903 0.746659 -1.194137
v -2.394639 0.744788 -1.196601
v -2.395633 0.744534 -1.198547
v -2.397696 0.742637 -1.199023
v -2.397086 0.742619 -1.196790
v -2.392813 0.746224 -1.196360
v -2.394155 0.745541 -1.197754
v -2.404128 0.733946 -1.196061
v -2.404379 0.733911 -1.198242
v -2.406270 0.730658 -1.197402
v -2.406031 0.730682 -1.195472
v -2.405855 0.730787 -1.192914
v -2.403944 0.734069 -1.193169
v -2.401818 0.737198 -1.193411
v -2.402031 0.737085 -1.196438
v -2.402328 0.737074 -1.198721
v -2.404140 0.734400 -1.190293
v -2.406041 0.731084 -1.190371
v -2.406287 0.731362 -1.188463
v -2.404400 0.734708 -1.188135
v -2.402349 0.737907 -1.188149
v -2.402043 0.737561 -1.190404
v -2.399629 0.740496 -1.190586
v -2.399338 0.740084 -1.193633
v -2.400035 0.740912 -1.188302
v -2.399617 0.740014 -1.196709
v -2.400014 0.740066 -1.199031
v -2.407863 0.727382 -1.194565
v -2.408097 0.727392 -1.196009
v -2.409003 0.725541 -1.194868
v -2.409180 0.724875 -1.193767
v -2.409005 0.724884 -1.192455
v -2.407689 0.727438 -1.192653
v -2.407871 0.727682 -1.190758
v -2.409185 0.725081 -1.191158
v -2.409013 0.725911 -1.190174
v -2.408110 0.727918 -1.189334
v -2.394459 0.744996 -1.191366
v -2.393772 0.744837 -1.193997
v -2.391762 0.746503 -1.194124
v -2.392683 0.746426 -1.191833
v -2.394066 0.746011 -1.190358
v -2.395510 0.745104 -1.189403
v -2.397569 0.743309 -1.188649
v -2.396899 0.742890 -1.190853
v -2.396465 0.742509 -1.193819
v -2.394449 0.744582 -1.196623
v -2.395492 0.744381 -1.198583
v -2.394052 0.745426 -1.197776
v -2.392674 0.746068 -1.196379
v -2.396887 0.742421 -1.196809
v -2.397548 0.742489 -1.199054
v -2.403895 0.733788 -1.196073
v -2.404205 0.733793 -1.198263
v -2.402160 0.736946 -1.198744
v -2.401807 0.736915 -1.196451
v -2.401593 0.737029 -1.193397
v -2.403710 0.733913 -1.193156
v -2.405614 0.730640 -1.192902
v -2.405791 0.730534 -1.195485
v -2.406090 0.730546 -1.197424
v -2.403906 0.734247 -1.190255
v -2.401819 0.737395 -1.190364
v -2.402181 0.737784 -1.188106
v -2.404225 0.734594 -1.188094
v -2.406108 0.731256 -1.188422
v -2.405802 0.730940 -1.190334
v -2.399418 0.740316 -1.190541
v -2.399126 0.739900 -1.193619
v -2.399878 0.740779 -1.188254
v -2.399405 0.739829 -1.196724
v -2.399856 0.739928 -1.199058
v -2.407621 0.727237 -1.194580
v -2.407917 0.727283 -1.196034
v -2.407446 0.727295 -1.192642
v -2.408823 0.724777 -1.192446
v -2.408998 0.724767 -1.193779
v -2.408869 0.725461 -1.194883
v -2.407629 0.727541 -1.190719
v -2.407930 0.727814 -1.189292
v -2.408879 0.725834 -1.190147
v -2.409004 0.724976 -1.191128
v -2.408095 0.727347 -1.196504
v -2.409354 0.724880 -1.194821
v -2.406270 0.730600 -1.198058
v -2.408869 0.725461 -1.194883
v -2.409543 0.724167 -1.191278
v -2.409364 0.725251 -1.190119
v -2.409363 0.723986 -1.192385
v -2.408879 0.725834 -1.190147
v -2.395923 0.745204 -1.188779
v -2.394090 0.746286 -1.190108
v -2.397857 0.743511 -1.187943
v -2.394066 0.746011 -1.190358
v -2.392143 0.746633 -1.196288
v -2.394074 0.745659 -1.198066
v -2.391154 0.747129 -1.194172
v -2.394052 0.745426 -1.197776
v -2.395902 0.744382 -1.199216
v -2.397834 0.742578 -1.199785
v -2.409539 0.723991 -1.193507
v -2.408110 0.727951 -1.188837
v -2.406290 0.731408 -1.187806
v -2.392152 0.746970 -1.192009
v -2.400100 0.740992 -1.187516
v -2.402376 0.737968 -1.187375
v -2.400076 0.740022 -1.199821
v -2.402352 0.737013 -1.199495
v -2.404386 0.733847 -1.198981
v -2.404409 0.734760 -1.187395
vn -0.641400 0.716200 -0.274900
vn -0.641200 0.764900 -0.061500
vn -0.685900 0.725300 -0.058500
vn -0.688600 0.681000 -0.249200
vn -0.707500 0.665200 -0.238600
vn -0.642900 0.717900 -0.267200
vn -0.594100 0.752000 -0.285300
vn -0.574000 0.782800 -0.240200
vn -0.566700 0.821300 -0.065800
vn -0.642200 0.750300 0.156800
vn -0.643600 0.750700 0.148800
vn -0.708200 0.694100 0.128700
vn -0.689400 0.711400 0.136700
vn -0.574600 0.810700 0.112200
vn -0.594800 0.787400 0.161500
vn -0.841900 0.535600 0.065100
vn -0.849100 0.527300 0.028700
vn -0.865800 0.499500 0.027800
vn -0.858400 0.507300 0.075300
vn -0.869100 0.492900 -0.040600
vn -0.847200 0.529400 -0.043400
vn -0.798700 0.599700 -0.048800
vn -0.797700 0.598500 0.073600
vn -0.810300 0.584100 0.047500
vn -0.841500 0.518400 -0.151600
vn -0.858000 0.489000 -0.157200
vn -0.865600 0.488700 -0.109200
vn -0.848900 0.516000 -0.114300
vn -0.809900 0.569200 -0.141500
vn -0.797200 0.579400 -0.169600
vn -0.739900 0.640400 -0.206100
vn -0.738400 0.672200 -0.054400
vn -0.759000 0.623300 -0.188100
vn -0.740500 0.664500 0.100400
vn -0.759500 0.644800 0.085200
vn -0.862700 0.495400 0.101800
vn -0.873700 0.483600 0.051600
vn -0.878800 0.469600 0.084500
vn -0.886200 0.445300 0.127400
vn -0.904400 0.425100 -0.035200
vn -0.878800 0.475400 -0.039200
vn -0.862100 0.473100 -0.181500
vn -0.885600 0.419700 -0.199100
vn -0.878400 0.450200 -0.160500
vn -0.873400 0.469200 -0.130100
vn 0.654700 -0.693700 0.300400
vn 0.653700 -0.754300 0.060700
vn 0.700700 -0.711100 0.057500
vn 0.686800 -0.622300 0.375600
vn 0.674900 -0.560500 0.480000
vn 0.675300 -0.577200 0.459000
vn 0.694600 -0.601100 0.395200
vn 0.687600 -0.676400 0.263800
vn 0.685800 -0.725400 0.058500
vn 0.655600 -0.731900 -0.185500
vn 0.676800 -0.642000 -0.360100
vn 0.676500 -0.628700 -0.383500
vn 0.688000 -0.673300 -0.270800
vn 0.688400 -0.709200 -0.151900
vn 0.695900 -0.655400 -0.293400
vn 0.839700 -0.536900 -0.081200
vn 0.817400 -0.543100 -0.191900
vn 0.785100 -0.586100 -0.199800
vn 0.795900 -0.598900 -0.088500
vn 0.798800 -0.599600 0.048800
vn 0.847300 -0.529300 0.043400
vn 0.869200 -0.492800 0.040500
vn 0.854700 -0.510600 -0.093800
vn 0.813400 -0.539800 -0.216500
vn 0.839200 -0.517300 0.167600
vn 0.795400 -0.577300 0.184400
vn 0.784200 -0.547300 0.292200
vn 0.816500 -0.506100 0.277800
vn 0.812400 -0.499000 0.301500
vn 0.854100 -0.489400 0.176000
vn 0.738200 -0.637600 0.220400
vn 0.738300 -0.672200 0.054400
vn 0.735800 -0.588300 0.335300
vn 0.738900 -0.664000 -0.114900
vn 0.737000 -0.633300 -0.236100
vn 0.849300 -0.512700 -0.125900
vn 0.780800 -0.564900 -0.266900
vn 0.873000 -0.486100 0.040000
vn 0.845600 -0.531900 0.043600
vn 0.798200 -0.570600 -0.193100
vn 0.756100 -0.583800 -0.295900
vn 0.848600 -0.486300 0.208000
vn 0.779500 -0.515900 0.355200
vn 0.754800 -0.529800 0.386700
vn 0.797200 -0.533100 0.283200
vn -0.357800 -0.291400 -0.887100
vn -0.547000 -0.552700 -0.628700
vn -0.254500 -0.191200 -0.948000
vn 0.756100 -0.583800 -0.295900
vn -0.510100 -0.806300 0.299300
vn -0.549600 -0.447400 0.705500
vn -0.382200 -0.921200 0.071900
vn 0.754800 -0.529800 0.386700
vn 0.013800 0.523700 0.851800
vn 0.247700 0.678700 0.691400
vn -0.107900 0.367000 0.923900
vn 0.674900 -0.560500 0.480000
vn 0.610400 0.581200 -0.538100
vn 0.251000 0.562000 -0.788100
vn 0.809800 0.585000 -0.044300
vn 0.676500 -0.628700 -0.383500
vn 0.017300 0.383600 -0.923300
vn -0.104400 0.217600 -0.970400
vn -0.509100 -0.843400 -0.171500
vn -0.361400 -0.149100 0.920400
vn -0.258200 -0.040400 0.965200
vn 0.608600 0.658700 0.442300
vn -0.166200 0.235500 0.957500
vn -0.184400 0.151300 0.971100
vn -0.162400 0.082600 -0.983200
vn -0.180500 -0.002700 -0.983600
vn -0.196800 -0.087300 -0.976500
vn -0.200700 0.066800 0.977400
vt 0.839504 0.118056
vt 0.856743 0.205307
vt 0.741230 0.205307
vt 0.734555 0.106726
vt 0.724541 0.032791
vt 0.813647 0.052618
vt 0.868992 0.081539
vt 0.913398 0.129584
vt 0.940923 0.205307
vt 0.839504 0.292557
vt 0.813647 0.357995
vt 0.724541 0.377822
vt 0.734555 0.303887
vt 0.913398 0.281029
vt 0.868992 0.329074
vt 0.369475 0.299954
vt 0.368286 0.370940
vt 0.245840 0.351447
vt 0.246397 0.288815
vt 0.246768 0.205307
vt 0.370268 0.205307
vt 0.494283 0.205307
vt 0.492822 0.304944
vt 0.490632 0.379672
vt 0.369475 0.110659
vt 0.246397 0.121798
vt 0.245841 0.059166
vt 0.368286 0.039673
vt 0.490632 0.030941
vt 0.492822 0.105669
vt 0.616755 0.103478
vt 0.619174 0.205307
vt 0.613127 0.027106
vt 0.616755 0.307135
vt 0.613126 0.383507
vt 0.123273 0.268175
vt 0.123047 0.315326
vt 0.054743 0.283353
vt 0.030912 0.249131
vt 0.030973 0.205306
vt 0.123423 0.205306
vt 0.123273 0.142438
vt 0.030912 0.161481
vt 0.054744 0.127260
vt 0.123047 0.095287
vt 0.839504 0.118056
vt 0.856743 0.205307
vt 0.968983 0.205307
vt 0.938030 0.133427
vt 0.876123 0.061548
vt 0.805028 0.030806
vt 0.721203 0.008146
vt 0.734555 0.106726
vt 0.741230 0.205307
vt 0.839504 0.292557
vt 0.805028 0.379807
vt 0.876123 0.349065
vt 0.938030 0.277186
vt 0.734555 0.303887
vt 0.721203 0.402467
vt 0.369475 0.299954
vt 0.367890 0.394602
vt 0.489902 0.404581
vt 0.492822 0.304944
vt 0.494283 0.205307
vt 0.370268 0.205307
vt 0.246768 0.205307
vt 0.246397 0.288815
vt 0.245655 0.372324
vt 0.369475 0.110659
vt 0.492822 0.105669
vt 0.489902 0.006032
vt 0.367890 0.016011
vt 0.245655 0.038289
vt 0.246397 0.121798
vt 0.616755 0.103478
vt 0.619174 0.205307
vt 0.611917 0.001649
vt 0.616755 0.307135
vt 0.611917 0.408964
vt 0.123273 0.268175
vt 0.122972 0.331043
vt 0.123423 0.205306
vt 0.000156 0.205306
vt 0.000125 0.242784
vt 0.000064 0.280261
vt 0.123273 0.142438
vt 0.122972 0.079570
vt 0.000064 0.130352
vt 0.000125 0.167829
vt 0.122972 0.331043
vt 0.030806 0.283587
vt 0.245655 0.372324
vt 0.030806 0.283587
vt 0.000125 0.167829
vt 0.030806 0.127026
vt 0.000156 0.205306
vt 0.030806 0.127026
vt 0.805028 0.030806
vt 0.873826 0.071832
vt 0.721203 0.008146
vt 0.873826 0.071832
vt 0.938030 0.277186
vt 0.873826 0.338781
vt 0.968983 0.205307
vt 0.873826 0.338781
vt 0.805028 0.379807
vt 0.721203 0.402467
vt 0.000125 0.242784
vt 0.122972 0.079570
vt 0.245655 0.038289
vt 0.938030 0.133427
vt 0.611917 0.001649
vt 0.489902 0.006032
vt 0.611917 0.408964
vt 0.489902 0.404581
vt 0.367890 0.394602
vt 0.367890 0.016011
f 1/1/1 2/2/2 3/3/3
f 1/1/1 3/3/3 4/4/4
f 1/1/1 4/4/4 5/5/5
f 1/1/1 5/5/5 6/6/6
f 1/1/1 6/6/6 7/7/7
f 1/1/1 7/7/7 8/8/8
f 1/1/1 8/8/8 9/9/9
f 1/1/1 9/9/9 2/2/2
f 10/10/10 11/11/11 12/12/12
f 10/10/10 12/12/12 13/13/13
f 10/10/10 13/13/13 3/3/3
f 10/10/10 3/3/3 2/2/2
f 10/10/10 2/2/2 9/9/9
f 10/10/10 9/9/9 14/14/14
f 10/10/10 14/14/14 15/15/15
f 10/10/10 15/15/15 11/11/11
f 16/16/16 17/17/17 18/18/18
f 16/16/16 18/18/18 19/19/19
f 16/16/16 19/19/19 20/20/20
f 16/16/16 20/20/20 21/21/21
f 16/16/16 21/21/21 22/22/22
f 16/16/16 22/22/22 23/23/23
f 16/16/16 23/23/23 24/24/24
f 16/16/16 24/24/24 17/17/17
f 25/25/25 21/21/21 20/20/20
f 25/25/25 20/20/20 26/26/26
f 25/25/25 26/26/26 27/27/27
f 25/25/25 27/27/27 28/28/28
f 25/25/25 28/28/28 29/29/29
f 25/25/25 29/29/29 30/30/30
f 25/25/25 30/30/30 22/22/22
f 25/25/25 22/22/22 21/21/21
f 31/31/31 32/32/32 22/22/22
f 31/31/31 22/22/22 30/30/30
f 31/31/31 30/30/30 29/29/29
f 31/31/31 29/29/29 33/33/33
f 31/31/31 33/33/33 5/5/5
f 31/31/31 5/5/5 4/4/4
f 31/31/31 4/4/4 3/3/3
f 31/31/31 3/3/3 32/32/32
f 34/34/34 35/35/35 24/24/24
f 34/34/34 24/24/24 23/23/23
f 34/34/34 23/23/23 22/22/22
f 34/34/34 22/22/22 32/32/32
f 34/34/34 32/32/32 3/3/3
f 34/34/34 3/3/3 13/13/13
f 34/34/34 13/13/13 12/12/12
f 34/34/34 12/12/12 35/35/35
f 36/36/36 37/37/37 38/38/38
f 36/36/36 38/38/38 39/39/39
f 36/36/36 39/39/39 40/40/40
f 36/36/36 40/40/40 41/41/41
f 36/36/36 41/41/41 20/20/20
f 36/36/36 20/20/20 19/19/19
f 36/36/36 19/19/19 18/18/18
f 36/36/36 18/18/18 37/37/37
f 42/42/42 41/41/41 40/40/40
f 42/42/42 40/40/40 43/43/43
f 42/42/42 43/43/43 44/44/44
f 42/42/42 44/44/44 45/45/45
f 42/42/42 45/45/45 27/27/27
f 42/42/42 27/27/27 26/26/26
f 42/42/42 26/26/26 20/20/20
f 42/42/42 20/20/20 41/41/41
f 46/46/46 47/47/47 48/48/48
f 46/46/46 48/48/48 49/49/49
f 46/46/46 49/49/49 50/50/50
f 46/46/46 50/50/50 51/51/51
f 46/46/46 51/51/51 52/52/52
f 46/46/46 52/52/52 53/53/53
f 46/46/46 53/53/53 54/54/54
f 46/46/46 54/54/54 47/47/47
f 55/55/55 56/56/56 57/57/57
f 55/55/55 57/57/57 58/58/58
f 55/55/55 58/58/58 48/48/48
f 55/55/55 48/48/48 47/47/47
f 55/55/55 47/47/47 54/54/54
f 55/55/55 54/54/54 59/59/59
f 55/55/55 59/59/59 60/60/60
f 55/55/55 60/60/60 56/56/56
f 61/61/61 62/62/62 63/63/63
f 61/61/61 63/63/63 64/64/64
f 61/61/61 64/64/64 65/65/65
f 61/61/61 65/65/65 66/66/66
f 61/61/61 66/66/66 67/67/67
f 61/61/61 67/67/67 68/68/68
f 61/61/61 68/68/68 69/69/69
f 61/61/61 69/69/69 62/62/62
f 70/70/70 66/66/66 65/65/65
f 70/70/70 65/65/65 71/71/71
f 70/70/70 71/71/71 72/72/72
f 70/70/70 72/72/72 73/73/73
f 70/70/70 73/73/73 74/74/74
f 70/70/70 74/74/74 75/75/75
f 70/70/70 75/75/75 67/67/67
f 70/70/70 67/67/67 66/66/66
f 76/76/76 77/77/77 54/54/54
f 76/76/76 54/54/54 53/53/53
f 76/76/76 53/53/53 52/52/52
f 76/76/76 52/52/52 78/78/78
f 76/76/76 78/78/78 72/72/72
f 76/76/76 72/72/72 71/71/71
f 76/76/76 71/71/71 65/65/65
f 76/76/76 65/65/65 77/77/77
f 79/79/79 80/80/80 60/60/60
f 79/79/79 60/60/60 59/59/59
f 79/79/79 59/59/59 54/54/54
f 79/79/79 54/54/54 77/77/77
f 79/79/79 77/77/77 65/65/65
f 79/79/79 65/65/65 64/64/64
f 79/79/79 64/64/64 63/63/63
f 79/79/79 63/63/63 80/80/80
f 81/81/81 82/82/82 69/69/69
f 81/81/81 69/69/69 68/68/68
f 81/81/81 68/68/68 67/67/67
f 81/81/81 67/67/67 83/83/83
f 81/81/81 83/83/83 84/84/84
f 81/81/81 84/84/84 85/85/85
f 81/81/81 85/85/85 86/86/86
f 81/81/81 86/86/86 82/82/82
f 87/87/87 83/83/83 67/67/67
f 87/87/87 67/67/67 75/75/75
f 87/87/87 75/75/75 74/74/74
f 87/87/87 74/74/74 88/88/88
f 87/87/87 88/88/88 89/89/89
f 87/87/87 89/89/89 90/90/90
f 87/87/87 90/90/90 84/84/84
f 87/87/87 84/84/84 83/83/83
f 91/91/91 92/92/92 38/38/38
f 91/91/91 38/38/38 37/37/37
f 91/91/91 37/37/37 18/18/18
f 91/91/91 18/18/18 93/93/93
f 91/91/91 93/93/93 69/69/69
f 91/91/91 69/69/69 82/82/82
f 91/91/91 82/82/82 94/94/94
f 91/91/91 94/94/94 92/92/92
f 95/95/95 96/96/96 44/44/44
f 95/95/95 44/44/44 43/43/43
f 95/95/95 43/43/43 40/40/40
f 95/95/95 40/40/40 97/97/97
f 95/95/95 97/97/97 84/84/84
f 95/95/95 84/84/84 90/90/90
f 95/95/95 90/90/90 98/98/98
f 95/95/95 98/98/98 96/96/96
f 99/99/99 100/100/100 7/7/7
f 99/99/99 7/7/7 6/6/6
f 99/99/99 6/6/6 5/5/5
f 99/99/99 5/5/5 101/101/101
f 99/99/99 101/101/101 52/52/52
f 99/99/99 52/52/52 51/51/51
f 99/99/99 51/51/51 102/102/102
f 99/99/99 102/102/102 100/100/100
f 103/103/103 104/104/104 15/15/15
f 103/103/103 15/15/15 14/14/14
f 103/103/103 14/14/14 9/9/9
f 103/103/103 9/9/9 105/105/105
f 103/103/103 105/105/105 48/48/48
f 103/103/103 48/48/48 58/58/58
f 103/103/103 58/58/58 106/106/106
f 103/103/103 106/106/106 104/104/104
f 107/107/107 108/108/108 12/12/12
f 107/107/107 12/12/12 11/11/11
f 107/107/107 11/11/11 15/15/15
f 107/107/107 15/15/15 104/104/104
f 107/107/107 104/104/104 106/106/106
f 107/107/107 106/106/106 56/56/56
f 107/107/107 56/56/56 60/60/60
f 107/107/107 60/60/60 108/108/108
f 109/109/109 97/97/97 40/40/40
f 109/109/109 40/40/40 39/39/39
f 109/109/109 39/39/39 38/38/38
f 109/109/109 38/38/38 92/92/92
f 109/109/109 92/92/92 94/94/94
f 109/109/109 94/94/94 85/85/85
f 109/109/109 85/85/85 84/84/84
f 109/109/109 84/84/84 97/97/97
f 110/110/110 111/111/111 27/27/27
f 110/110/110 27/27/27 45/45/45
f 110/110/110 45/45/45 44/44/44
f 110/110/110 44/44/44 96/96/96
f 110/110/110 96/96/96 98/98/98
f 110/110/110 98/98/98 88/88/88
f 110/110/110 88/88/88 74/74/74
f 110/110/110 74/74/74 111/111/111
f 112/112/112 105/105/105 9/9/9
f 112/112/112 9/9/9 8/8/8
f 112/112/112 8/8/8 7/7/7
f 112/112/112 7/7/7 100/100/100
f 112/112/112 100/100/100 102/102/102
f 112/112/112 102/102/102 49/49/49
f 112/112/112 49/49/49 48/48/48
f 112/112/112 48/48/48 105/105/105
f 113/113/113 101/101/101 5/5/5
f 113/113/113 5/5/5 33/33/33
f 113/113/113 33/33/33 29/29/29
f 113/113/113 29/29/29 114/114/114
f 113/113/113 114/114/114 72/72/72
f 113/113/113 72/72/72 78/78/78
f 113/113/113 78/78/78 52/52/52
f 113/113/113 52/52/52 101/101/101
f 115/115/115 116/116/116 24/24/24
f 115/115/115 24/24/24 35/35/35
f 115/115/115 35/35/35 12/12/12
f 115/115/115 12/12/12 108/108/108
f 115/115/115 108/108/108 60/60/60
f 115/115/115 60/60/60 80/80/80
f 115/115/115 80/80/80 63/63/63
f 115/115/115 63/63/63 116/116/116
f 117/117/117 93/93/93 18/18/18
f 117/117/117 18/18/18 17/17/17
f 117/117/117 17/17/17 24/24/24
f 117/117/117 24/24/24 116/116/116
f 117/117/117 116/116/116 63/63/63
f 117/117/117 63/63/63 62/62/62
f 117/117/117 62/62/62 69/69/69
f 117/117/117 69/69/69 93/93/93
f 118/118/118 114/114/114 29/29/29
f 118/118/118 29/29/29 28/28/28
f 118/118/118 28/28/28 27/27/27
f 118/118/118 27/27/27 111/111/111
f 118/118/118 111/111/111 74/74/74
f 118/118/118 74/74/74 73/73/73
f 118/118/118 73/73/73 72/72/72
f 118/118/118 72/72/72 114/114/114
