v -2.370096 0.513856 -1.156608
v -2.371531 0.514231 -1.157215
v -2.370640 0.514589 -1.158041
v -2.369387 0.514458 -1.157912
v -2.368489 0.514027 -1.157131
v -2.368662 0.513482 -1.156002
v -2.369553 0.513124 -1.155175
v -2.370806 0.513255 -1.155304
v -2.371704 0.513686 -1.156085
v -2.369895 0.593697 -1.120603
v -2.370785 0.593338 -1.119773
v -2.369707 0.579411 -1.127485
v -2.368817 0.579769 -1.128312
v -2.368643 0.580314 -1.129441
v -2.369721 0.594243 -1.121732
v -2.370799 0.608172 -1.114023
v -2.370972 0.607625 -1.112894
v -2.371864 0.607264 -1.112061
v -2.368739 0.546625 -1.142157
v -2.369630 0.546268 -1.141330
v -2.368566 0.547170 -1.143286
v -2.370883 0.546398 -1.141459
v -2.371781 0.546830 -1.142240
v -2.370960 0.579542 -1.127614
v -2.371858 0.579974 -1.128395
v -2.371608 0.547375 -1.143370
v -2.370717 0.547733 -1.144196
v -2.371685 0.580519 -1.129525
v -2.370795 0.580876 -1.130351
v -2.369465 0.547602 -1.144067
v -2.369542 0.580746 -1.130222
v -2.372039 0.593467 -1.119896
v -2.372937 0.593899 -1.120673
v -2.373118 0.607393 -1.112178
v -2.374017 0.607824 -1.112950
v -2.372764 0.594445 -1.121802
v -2.371873 0.594804 -1.122632
v -2.373843 0.608371 -1.114079
v -2.372951 0.608732 -1.114912
v -2.370620 0.594674 -1.122508
v -2.371697 0.608603 -1.114794
v -2.373775 0.626034 -1.103001
v -2.374666 0.625674 -1.102172
v -2.373601 0.626581 -1.104130
v -2.376405 0.644991 -1.094237
v -2.376578 0.644444 -1.093108
v -2.377469 0.644084 -1.092283
v -2.375920 0.625803 -1.102295
v -2.376818 0.626235 -1.103071
v -2.378722 0.644214 -1.092412
v -2.379620 0.644646 -1.093193
v -2.376645 0.626782 -1.104200
v -2.375753 0.627143 -1.105029
v -2.379447 0.645194 -1.094321
v -2.378556 0.645553 -1.095147
v -2.374500 0.627013 -1.104906
v -2.377303 0.645424 -1.095017
v -2.375344 0.691647 -1.072138
v -2.376234 0.691289 -1.071312
v -2.377219 0.677953 -1.077616
v -2.376329 0.678311 -1.078443
v -2.376156 0.678856 -1.079572
v -2.375171 0.692192 -1.073268
v -2.373842 0.704089 -1.067375
v -2.374015 0.703544 -1.066246
v -2.374905 0.703187 -1.065419
v -2.377487 0.691420 -1.071441
v -2.378385 0.691852 -1.072222
v -2.379371 0.678515 -1.078527
v -2.378472 0.678083 -1.077746
v -2.376158 0.703317 -1.065548
v -2.377056 0.703749 -1.066329
v -2.378212 0.692397 -1.073352
v -2.377322 0.692754 -1.074178
v -2.378307 0.679418 -1.080482
v -2.379197 0.679060 -1.079656
v -2.376883 0.704294 -1.067459
v -2.375993 0.704652 -1.068285
v -2.376069 0.692624 -1.074049
v -2.377054 0.679288 -1.080353
v -2.374740 0.704521 -1.068156
v -2.376626 0.662097 -1.085570
v -2.377517 0.661738 -1.084744
v -2.376452 0.662643 -1.086699
v -2.378769 0.661868 -1.084873
v -2.379668 0.662300 -1.085654
v -2.379494 0.662846 -1.086783
v -2.378603 0.663205 -1.087609
v -2.377351 0.663075 -1.087479
vn -0.048200 -0.896700 -0.440000
vn -0.699900 -0.427700 -0.571900
vn -0.269400 -0.249900 -0.930000
vn 0.313200 -0.304600 -0.899500
vn 0.727200 -0.472400 -0.498000
vn 0.674100 -0.737900 0.032000
vn 0.235600 -0.877100 0.418400
vn -0.364200 -0.859200 0.359300
vn -0.760500 -0.648900 -0.023600
vn 0.896300 -0.159700 0.413700
vn 0.322700 -0.439300 0.838300
vn 0.335100 -0.398500 0.853700
vn 0.901900 -0.158900 0.401500
vn 0.943100 0.172500 -0.284300
vn 0.944500 0.212000 -0.251000
vn 0.943300 0.234800 -0.234500
vn 0.895700 -0.129800 0.425300
vn 0.332200 -0.420800 0.844100
vn 0.896600 -0.168900 0.409300
vn 0.322400 -0.364200 0.873700
vn 0.947000 0.125700 -0.295700
vn -0.441100 -0.346800 0.827700
vn -0.947000 -0.125700 0.295600
vn -0.442100 -0.405000 0.800300
vn -0.950600 -0.165600 0.262600
vn -0.896600 0.168900 -0.409300
vn -0.322400 0.364200 -0.873700
vn -0.890700 0.169900 -0.421600
vn -0.308800 0.406000 -0.860100
vn 0.441100 0.346800 -0.827800
vn 0.443800 0.403900 -0.799900
vn -0.441400 -0.460900 0.769900
vn -0.944400 -0.212300 0.250900
vn -0.433800 -0.468900 0.769400
vn -0.940000 -0.241000 0.241400
vn -0.896300 0.159900 -0.413600
vn -0.322800 0.439500 -0.838200
vn -0.894200 0.130300 -0.428300
vn -0.316700 0.427000 -0.846900
vn 0.441500 0.460600 -0.770000
vn 0.445400 0.468200 -0.763200
vn 0.892200 -0.100700 0.440200
vn 0.323100 -0.409100 0.853300
vn 0.938500 0.263000 -0.223700
vn 0.947400 0.196000 -0.252900
vn 0.888800 -0.142000 0.435800
vn 0.301100 -0.397000 0.867000
vn -0.440900 -0.475700 0.761100
vn -0.938500 -0.262900 0.223700
vn -0.450100 -0.414500 0.790900
vn -0.943800 -0.196100 0.265900
vn -0.892200 0.100500 -0.440300
vn -0.323000 0.409000 -0.853400
vn -0.901000 0.130900 -0.413600
vn -0.342300 0.383600 -0.857700
vn 0.440700 0.475900 -0.761100
vn 0.436000 0.416300 -0.797800
vn 0.893600 -0.260000 0.365800
vn 0.316400 -0.436800 0.842100
vn 0.316200 -0.405400 0.857700
vn 0.896200 -0.217300 0.386700
vn 0.944100 0.099800 -0.314200
vn 0.942600 0.070400 -0.326400
vn 0.944500 0.054800 -0.323800
vn 0.893700 -0.275300 0.354100
vn 0.331700 -0.448200 0.830100
vn -0.444900 -0.356200 0.821600
vn -0.945100 -0.067200 0.319700
vn -0.947900 -0.095200 0.303900
vn -0.446600 -0.354300 0.821600
vn -0.433000 -0.360800 0.826000
vn -0.940900 -0.060000 0.333300
vn -0.893500 0.259900 -0.366100
vn -0.323200 0.436400 -0.839700
vn -0.326500 0.404700 -0.854200
vn -0.896000 0.217700 -0.387000
vn -0.890300 0.278000 -0.360500
vn -0.306100 0.449800 -0.839000
vn 0.438200 0.358400 -0.824300
vn 0.436400 0.356500 -0.826100
vn 0.450200 0.355400 -0.819100
vn 0.896600 -0.181700 0.403700
vn 0.320000 -0.378700 0.868400
vn 0.946200 0.122300 -0.299400
vn -0.443500 -0.353500 0.823600
vn -0.947700 -0.120600 0.295300
vn -0.896600 0.182000 -0.403700
vn -0.324000 0.378300 -0.867100
vn 0.439500 0.354100 -0.825500
vt 0.000000 0.000000
vt 0.000000 0.000000
vt 0.000000 0.000000
vt 0.000000 0.000000
vt 0.000000 0.000000
vt 0.000000 0.000000
vt 0.000000 0.000000
vt 0.000000 0.000000
vt 0.000000 0.000000
vt 0.000000 0.000000
vt 0.000000 0.000000
vt 0.000000 0.000000
vt 0.000000 0.000000
vt 0.000000 0.000000
vt 0.000000 0.000000
vt 0.000000 0.000000
vt 0.000000 0.000000
vt 0.000000 0.000000
vt 0.000000 0.000000
vt 0.000000 0.000000
vt 0.000000 0.000000
vt 0.000000 0.000000
vt 0.000000 0.000000
vt 0.000000 0.000000
vt 0.000000 0.000000
vt 0.000000 0.000000
vt 0.000000 0.000000
vt 0.000000 0.000000
vt 0.000000 0.000000
vt 0.000000 0.000000
vt 0.000000 0.000000
vt 0.000000 0.000000
vt 0.000000 0.000000
vt 0.000000 0.000000
vt 0.000000 0.000000
vt 0.000000 0.000000
vt 0.000000 0.000000
vt 0.000000 0.000000
vt 0.000000 0.000000
vt 0.000000 0.000000
vt 0.000000 0.000000
vt 0.000000 0.000000
vt 0.000000 0.000000
vt 0.000000 0.000000
vt 0.000000 0.000000
vt 0.000000 0.000000
vt 0.000000 0.000000
vt 0.000000 0.000000
vt 0.000000 0.000000
vt 0.000000 0.000000
vt 0.000000 0.000000
vt 0.000000 0.000000
vt 0.000000 0.000000
vt 0.000000 0.000000
vt 0.000000 0.000000
vt 0.000000 0.000000
vt 0.000000 0.000000
vt 0.000000 0.000000
vt 0.000000 0.000000
vt 0.000000 0.000000
vt 0.000000 0.000000
vt 0.000000 0.000000
vt 0.000000 0.000000
vt 0.000000 0.000000
vt 0.000000 0.000000
vt 0.000000 0.000000
vt 0.000000 0.000000
vt 0.000000 0.000000
vt 0.000000 0.000000
vt 0.000000 0.000000
vt 0.000000 0.000000
vt 0.000000 0.000000
vt 0.000000 0.000000
vt 0.000000 0.000000
vt 0.000000 0.000000
vt 0.000000 0.000000
vt 0.000000 0.000000
vt 0.000000 0.000000
vt 0.000000 0.000000
vt 0.000000 0.000000
vt 0.000000 0.000000
vt 0.000000 0.000000
vt 0.000000 0.000000
vt 0.000000 0.000000
vt 0.000000 0.000000
vt 0.000000 0.000000
vt 0.000000 0.000000
vt 0.000000 0.000000
vt 0.000000 0.000000
f 1/1/1 2/2/2 3/3/3
f 1/1/1 3/3/3 4/4/4
f 1/1/1 4/4/4 5/5/5
f 1/1/1 5/5/5 6/6/6
f 1/1/1 6/6/6 7/7/7
f 1/1/1 7/7/7 8/8/8
f 1/1/1 8/8/8 9/9/9
f 1/1/1 9/9/9 2/2/2
f 10/10/10 11/11/11 12/12/12
f 10/10/10 12/12/12 13/13/13
f 10/10/10 13/13/13 14/14/14
f 10/10/10 14/14/14 15/15/15
f 10/10/10 15/15/15 16/16/16
f 10/10/10 16/16/16 17/17/17
f 10/10/10 17/17/17 18/18/18
f 10/10/10 18/18/18 11/11/11
f 19/19/19 20/20/20 7/7/7
f 19/19/19 7/7/7 6/6/6
f 19/19/19 6/6/6 5/5/5
f 19/19/19 5/5/5 21/21/21
f 19/19/19 21/21/21 14/14/14
f 19/19/19 14/14/14 13/13/13
f 19/19/19 13/13/13 12/12/12
f 19/19/19 12/12/12 20/20/20
f 22/22/22 23/23/23 9/9/9
f 22/22/22 9/9/9 8/8/8
f 22/22/22 8/8/8 7/7/7
f 22/22/22 7/7/7 20/20/20
f 22/22/22 20/20/20 12/12/12
f 22/22/22 12/12/12 24/24/24
f 22/22/22 24/24/24 25/25/25
f 22/22/22 25/25/25 23/23/23
f 26/26/26 27/27/27 3/3/3
f 26/26/26 3/3/3 2/2/2
f 26/26/26 2/2/2 9/9/9
f 26/26/26 9/9/9 23/23/23
f 26/26/26 23/23/23 25/25/25
f 26/26/26 25/25/25 28/28/28
f 26/26/26 28/28/28 29/29/29
f 26/26/26 29/29/29 27/27/27
f 30/30/30 21/21/21 5/5/5
f 30/30/30 5/5/5 4/4/4
f 30/30/30 4/4/4 3/3/3
f 30/30/30 3/3/3 27/27/27
f 30/30/30 27/27/27 29/29/29
f 30/30/30 29/29/29 31/31/31
f 30/30/30 31/31/31 14/14/14
f 30/30/30 14/14/14 21/21/21
f 32/32/32 33/33/33 25/25/25
f 32/32/32 25/25/25 24/24/24
f 32/32/32 24/24/24 12/12/12
f 32/32/32 12/12/12 11/11/11
f 32/32/32 11/11/11 18/18/18
f 32/32/32 18/18/18 34/34/34
f 32/32/32 34/34/34 35/35/35
f 32/32/32 35/35/35 33/33/33
f 36/36/36 37/37/37 29/29/29
f 36/36/36 29/29/29 28/28/28
f 36/36/36 28/28/28 25/25/25
f 36/36/36 25/25/25 33/33/33
f 36/36/36 33/33/33 35/35/35
f 36/36/36 35/35/35 38/38/38
f 36/36/36 38/38/38 39/39/39
f 36/36/36 39/39/39 37/37/37
f 40/40/40 15/15/15 14/14/14
f 40/40/40 14/14/14 31/31/31
f 40/40/40 31/31/31 29/29/29
f 40/40/40 29/29/29 37/37/37
f 40/40/40 37/37/37 39/39/39
f 40/40/40 39/39/39 41/41/41
f 40/40/40 41/41/41 16/16/16
f 40/40/40 16/16/16 15/15/15
f 42/42/42 43/43/43 18/18/18
f 42/42/42 18/18/18 17/17/17
f 42/42/42 17/17/17 16/16/16
f 42/42/42 16/16/16 44/44/44
f 42/42/42 44/44/44 45/45/45
f 42/42/42 45/45/45 46/46/46
f 42/42/42 46/46/46 47/47/47
f 42/42/42 47/47/47 43/43/43
f 48/48/48 49/49/49 35/35/35
f 48/48/48 35/35/35 34/34/34
f 48/48/48 34/34/34 18/18/18
f 48/48/48 18/18/18 43/43/43
f 48/48/48 43/43/43 47/47/47
f 48/48/48 47/47/47 50/50/50
f 48/48/48 50/50/50 51/51/51
f 48/48/48 51/51/51 49/49/49
f 52/52/52 53/53/53 39/39/39
f 52/52/52 39/39/39 38/38/38
f 52/52/52 38/38/38 35/35/35
f 52/52/52 35/35/35 49/49/49
f 52/52/52 49/49/49 51/51/51
f 52/52/52 51/51/51 54/54/54
f 52/52/52 54/54/54 55/55/55
f 52/52/52 55/55/55 53/53/53
f 56/56/56 44/44/44 16/16/16
f 56/56/56 16/16/16 41/41/41
f 56/56/56 41/41/41 39/39/39
f 56/56/56 39/39/39 53/53/53
f 56/56/56 53/53/53 55/55/55
f 56/56/56 55/55/55 57/57/57
f 56/56/56 57/57/57 45/45/45
f 56/56/56 45/45/45 44/44/44
f 58/58/58 59/59/59 60/60/60
f 58/58/58 60/60/60 61/61/61
f 58/58/58 61/61/61 62/62/62
f 58/58/58 62/62/62 63/63/63
f 58/58/58 63/63/63 64/64/64
f 58/58/58 64/64/64 65/65/65
f 58/58/58 65/65/65 66/66/66
f 58/58/58 66/66/66 59/59/59
f 67/67/67 68/68/68 69/69/69
f 67/67/67 69/69/69 70/70/70
f 67/67/67 70/70/70 60/60/60
f 67/67/67 60/60/60 59/59/59
f 67/67/67 59/59/59 66/66/66
f 67/67/67 66/66/66 71/71/71
f 67/67/67 71/71/71 72/72/72
f 67/67/67 72/72/72 68/68/68
f 73/73/73 74/74/74 75/75/75
f 73/73/73 75/75/75 76/76/76
f 73/73/73 76/76/76 69/69/69
f 73/73/73 69/69/69 68/68/68
f 73/73/73 68/68/68 72/72/72
f 73/73/73 72/72/72 77/77/77
f 73/73/73 77/77/77 78/78/78
f 73/73/73 78/78/78 74/74/74
f 79/79/79 63/63/63 62/62/62
f 79/79/79 62/62/62 80/80/80
f 79/79/79 80/80/80 75/75/75
f 79/79/79 75/75/75 74/74/74
f 79/79/79 74/74/74 78/78/78
f 79/79/79 78/78/78 81/81/81
f 79/79/79 81/81/81 64/64/64
f 79/79/79 64/64/64 63/63/63
f 82/82/82 83/83/83 47/47/47
f 82/82/82 47/47/47 46/46/46
f 82/82/82 46/46/46 45/45/45
f 82/82/82 45/45/45 84/84/84
f 82/82/82 84/84/84 62/62/62
f 82/82/82 62/62/62 61/61/61
f 82/82/82 61/61/61 60/60/60
f 82/82/82 60/60/60 83/83/83
f 85/85/85 86/86/86 51/51/51
f 85/85/85 51/51/51 50/50/50
f 85/85/85 50/50/50 47/47/47
f 85/85/85 47/47/47 83/83/83
f 85/85/85 83/83/83 60/60/60
f 85/85/85 60/60/60 70/70/70
f 85/85/85 70/70/70 69/69/69
f 85/85/85 69/69/69 86/86/86
f 87/87/87 88/88/88 55/55/55
f 87/87/87 55/55/55 54/54/54
f 87/87/87 54/54/54 51/51/51
f 87/87/87 51/51/51 86/86/86
f 87/87/87 86/86/86 69/69/69
f 87/87/87 69/69/69 76/76/76
f 87/87/87 76/76/76 75/75/75
f 87/87/87 75/75/75 88/88/88
f 89/89/89 84/84/84 45/45/45
f 89/89/89 45/45/45 57/57/57
f 89/89/89 57/57/57 55/55/55
f 89/89/89 55/55/55 88/88/88
f 89/89/89 88/88/88 75/75/75
f 89/89/89 75/75/75 80/80/80
f 89/89/89 80/80/80 62/62/62
f 89/89/89 62/62/62 84/84/84
