v -2.396590 0.742869 -1.189843
v -2.396061 0.743020 -1.192169
v -2.398419 0.740884 -1.192178
v -2.398716 0.740899 -1.189538
v -2.399202 0.740980 -1.187539
v -2.397420 0.742691 -1.188079
v -2.396147 0.743587 -1.188856
v -2.395003 0.744174 -1.190153
v -2.394259 0.744503 -1.192167
v -2.396740 0.743055 -1.194459
v -2.397681 0.743016 -1.196175
v -2.399499 0.741350 -1.196735
v -2.398885 0.741110 -1.194784
v -2.395132 0.744335 -1.194149
v -2.396358 0.743851 -1.195412
v -2.404982 0.733233 -1.194851
v -2.405274 0.733428 -1.196772
v -2.406874 0.730428 -1.196320
v -2.406601 0.730251 -1.194621
v -2.406365 0.730077 -1.192356
v -2.404728 0.733041 -1.192290
v -2.402897 0.735872 -1.192235
v -2.403180 0.736088 -1.194913
v -2.403516 0.736312 -1.196921
v -2.404815 0.733027 -1.189710
v -2.406454 0.730068 -1.190075
v -2.406617 0.730108 -1.188353
v -2.404983 0.733066 -1.187765
v -2.403212 0.735933 -1.187499
v -2.403007 0.735871 -1.189536
v -2.400914 0.738531 -1.189457
v -2.400745 0.738494 -1.192199
v -2.401209 0.738649 -1.187384
v -2.401090 0.738751 -1.194913
v -2.401518 0.739034 -1.196946
v -2.408147 0.727204 -1.194115
v -2.408401 0.727361 -1.195382
v -2.409140 0.725587 -1.194544
v -2.409251 0.724880 -1.193637
v -2.409054 0.724753 -1.192483
v -2.407932 0.727056 -1.192427
v -2.408037 0.727068 -1.190722
v -2.409176 0.724786 -1.191313
v -2.409005 0.725419 -1.190361
v -2.408209 0.727121 -1.189433
v -2.396417 0.742691 -1.189821
v -2.395887 0.742841 -1.192181
v -2.394131 0.744366 -1.192177
v -2.394876 0.744038 -1.190135
v -2.396052 0.743488 -1.188835
v -2.397290 0.742558 -1.188045
v -2.399067 0.740853 -1.187509
v -2.398535 0.740728 -1.189520
v -2.398237 0.740713 -1.192191
v -2.396568 0.742879 -1.194507
v -2.397554 0.742887 -1.196228
v -2.396265 0.743754 -1.195447
v -2.395006 0.744201 -1.194186
v -2.398706 0.740942 -1.194828
v -2.399366 0.741226 -1.196783
v -2.404772 0.733100 -1.194885
v -2.405117 0.733329 -1.196809
v -2.403366 0.736205 -1.196960
v -2.402979 0.735943 -1.194949
v -2.402694 0.735726 -1.192248
v -2.404516 0.732907 -1.192302
v -2.406148 0.729951 -1.192368
v -2.406386 0.730126 -1.194655
v -2.406714 0.730335 -1.196357
v -2.404604 0.732892 -1.189700
v -2.402804 0.735725 -1.189525
v -2.403060 0.735824 -1.187479
v -2.404824 0.732964 -1.187746
v -2.406455 0.730013 -1.188334
v -2.406238 0.729942 -1.190064
v -2.400722 0.738372 -1.189443
v -2.400553 0.738334 -1.192212
v -2.401065 0.738530 -1.187360
v -2.400900 0.738593 -1.194953
v -2.401376 0.738918 -1.196989
v -2.407930 0.727083 -1.194151
v -2.408240 0.727271 -1.195421
v -2.407713 0.726933 -1.192439
v -2.408890 0.724661 -1.192492
v -2.409089 0.724789 -1.193665
v -2.409020 0.725521 -1.194570
v -2.407819 0.726944 -1.190710
v -2.408046 0.727029 -1.189412
v -2.408884 0.725351 -1.190349
v -2.409012 0.724694 -1.191303
v -2.408414 0.727373 -1.195824
v -2.409440 0.724992 -1.194562
v -2.406894 0.730446 -1.196905
v -2.409020 0.725521 -1.194570
v -2.409483 0.723985 -1.191505
v -2.409305 0.724823 -1.190371
v -2.409355 0.723945 -1.192506
v -2.408884 0.725351 -1.190349
v -2.397639 0.742573 -1.187472
v -2.396069 0.743705 -1.188585
v -2.399304 0.740950 -1.186856
v -2.396052 0.743488 -1.188835
v -2.394541 0.744701 -1.194062
v -2.396298 0.743990 -1.195678
v -2.393603 0.744936 -1.192171
v -2.396265 0.743754 -1.195447
v -2.397939 0.742947 -1.196774
v -2.399645 0.741375 -1.197410
v -2.409547 0.724065 -1.193491
v -2.408194 0.727098 -1.188991
v -2.406599 0.730079 -1.187768
v -2.394418 0.744548 -1.190248
v -2.401244 0.738636 -1.186680
v -2.403213 0.735905 -1.186808
v -2.401598 0.739077 -1.197646
v -2.403562 0.736340 -1.197610
v -2.405302 0.733449 -1.197432
v -2.404968 0.733034 -1.187106
vn -0.663800 0.729200 -0.166000
vn -0.656800 0.752200 0.051500
vn -0.700700 0.711600 0.051200
vn -0.709400 0.690100 -0.143200
vn -0.727600 0.672700 -0.133900
vn -0.665000 0.729900 -0.158100
vn -0.617500 0.767100 -0.173600
vn -0.596400 0.792700 -0.125900
vn -0.583600 0.810400 0.051400
vn -0.649800 0.711800 0.266500
vn -0.651500 0.713200 0.258600
vn -0.715800 0.657900 0.234000
vn -0.696900 0.674500 0.243400
vn -0.585000 0.778500 0.227300
vn -0.603000 0.749200 0.274000
vn -0.848800 0.505100 0.156600
vn -0.857100 0.501000 0.119600
vn -0.873300 0.473100 0.116100
vn -0.864300 0.475500 0.163800
vn -0.878900 0.474600 0.047500
vn -0.857800 0.511700 0.048300
vn -0.810800 0.583200 0.049600
vn -0.805400 0.567600 0.170900
vn -0.818600 0.556000 0.143700
vn -0.855800 0.513800 -0.060500
vn -0.871900 0.484800 -0.069100
vn -0.877700 0.478700 -0.021200
vn -0.861800 0.506700 -0.023600
vn -0.824700 0.563600 -0.045600
vn -0.813200 0.577400 -0.072600
vn -0.758400 0.643500 -0.103500
vn -0.752000 0.657200 0.050700
vn -0.776500 0.624000 -0.087100
vn -0.748400 0.631200 0.203500
vn -0.767700 0.613000 0.186700
vn -0.867400 0.460400 0.188800
vn -0.880000 0.454400 0.138000
vn -0.883600 0.436500 0.169300
vn -0.889100 0.407100 0.209200
vn -0.912700 0.405900 0.045800
vn -0.888300 0.456900 0.047000
vn -0.876600 0.471800 -0.095000
vn -0.899600 0.420400 -0.118100
vn -0.891600 0.446300 -0.076400
vn -0.886000 0.461600 -0.044200
vn 0.677500 -0.709500 0.193600
vn 0.669200 -0.741300 -0.051400
vn 0.715000 -0.697300 -0.051100
vn 0.711000 -0.646800 0.275800
vn 0.701800 -0.598000 0.387100
vn 0.701700 -0.612200 0.364300
vn 0.719100 -0.628000 0.297400
vn 0.708900 -0.687300 0.158300
vn 0.700700 -0.711600 -0.051200
vn 0.661800 -0.689900 -0.293100
vn 0.675200 -0.579300 -0.456600
vn 0.673800 -0.563300 -0.478200
vn 0.690000 -0.620900 -0.372000
vn 0.695400 -0.670600 -0.258200
vn 0.696900 -0.600200 -0.392600
vn 0.845900 -0.504500 -0.172600
vn 0.819800 -0.498100 -0.282400
vn 0.788100 -0.540600 -0.294400
vn 0.803100 -0.566100 -0.185800
vn 0.810800 -0.583100 -0.049600
vn 0.857900 -0.511500 -0.048300
vn 0.878900 -0.474500 -0.047500
vn 0.860000 -0.476600 -0.182400
vn 0.814900 -0.492000 -0.306300
vn 0.854000 -0.514500 0.076700
vn 0.811900 -0.577100 0.087600
vn 0.804000 -0.560400 0.198600
vn 0.835000 -0.517000 0.188200
vn 0.831700 -0.512900 0.212700
vn 0.868700 -0.487500 0.087800
vn 0.757200 -0.642400 0.118100
vn 0.752000 -0.657200 -0.050700
vn 0.758000 -0.607200 0.238100
vn 0.746300 -0.628900 -0.217800
vn 0.739500 -0.584200 -0.334400
vn 0.853500 -0.474900 -0.214400
vn 0.780800 -0.511700 -0.358400
vn 0.882600 -0.467700 -0.047300
vn 0.856200 -0.514300 -0.048300
vn 0.801000 -0.525800 -0.286200
vn 0.755500 -0.527500 -0.388600
vn 0.864300 -0.488400 0.120200
vn 0.801000 -0.536800 0.265000
vn 0.777600 -0.554900 0.295400
vn 0.816500 -0.544800 0.190900
vn -0.384200 -0.192400 -0.903000
vn -0.559100 -0.486800 -0.671100
vn -0.284900 -0.083300 -0.954900
vn 0.755500 -0.527500 -0.388600
vn -0.484100 -0.847400 0.218000
vn -0.515700 -0.539900 0.665200
vn -0.362600 -0.931600 -0.025700
vn 0.777600 -0.554900 0.295400
vn 0.034300 0.418900 0.907300
vn 0.259700 0.597600 0.758600
vn -0.081700 0.252400 0.964200
vn 0.701800 -0.598000 0.387100
vn 0.579900 0.654300 -0.485300
vn 0.212200 0.657000 -0.723400
vn 0.797100 0.603800 -0.001500
vn 0.673800 -0.563300 -0.478200
vn -0.022600 0.490900 -0.870900
vn -0.142700 0.329000 -0.933500
vn -0.499400 -0.828500 -0.253100
vn -0.325700 -0.265300 0.907500
vn -0.222800 -0.160300 0.961600
vn 0.611800 0.614900 0.497600
vn -0.136200 0.116500 0.983800
vn -0.152500 0.030800 0.987800
vn -0.198800 0.195000 -0.960400
vn -0.215500 0.109800 -0.970300
vn -0.230100 0.024700 -0.972800
vn -0.166900 -0.053900 0.984500
vt 0.839504 0.118056
vt 0.856743 0.205307
vt 0.741230 0.205307
vt 0.734555 0.106726
vt 0.724541 0.032791
vt 0.813647 0.052618
vt 0.868992 0.081539
vt 0.913398 0.129584
vt 0.940923 0.205307
vt 0.839504 0.292557
vt 0.813647 0.357995
vt 0.724541 0.377822
vt 0.734555 0.303887
vt 0.913398 0.281029
vt 0.868992 0.329074
vt 0.369475 0.299954
vt 0.368286 0.370940
vt 0.245840 0.351447
vt 0.246397 0.288815
vt 0.246768 0.205307
vt 0.370268 0.205307
vt 0.494283 0.205307
vt 0.492822 0.304944
vt 0.490632 0.379672
vt 0.369475 0.110659
vt 0.246397 0.121798
vt 0.245841 0.059166
vt 0.368286 0.039673
vt 0.490632 0.030941
vt 0.492822 0.105669
vt 0.616755 0.103478
vt 0.619174 0.205307
vt 0.613127 0.027106
vt 0.616755 0.307135
vt 0.613126 0.383507
vt 0.123273 0.268175
vt 0.123047 0.315326
vt 0.054743 0.283353
vt 0.030912 0.249131
vt 0.030973 0.205306
vt 0.123423 0.205306
vt 0.123273 0.142438
vt 0.030912 0.161481
vt 0.054744 0.127260
vt 0.123047 0.095287
vt 0.839504 0.118056
vt 0.856743 0.205307
vt 0.968983 0.205307
vt 0.938030 0.133427
vt 0.876123 0.061548
vt 0.805028 0.030806
vt 0.721203 0.008146
vt 0.734555 0.106726
vt 0.741230 0.205307
vt 0.839504 0.292557
vt 0.805028 0.379807
vt 0.876123 0.349065
vt 0.938030 0.277186
vt 0.734555 0.303887
vt 0.721203 0.402467
vt 0.369475 0.299954
vt 0.367890 0.394602
vt 0.489902 0.404581
vt 0.492822 0.304944
vt 0.494283 0.205307
vt 0.370268 0.205307
vt 0.246768 0.205307
vt 0.246397 0.288815
vt 0.245655 0.372324
vt 0.369475 0.110659
vt 0.492822 0.105669
vt 0.489902 0.006032
vt 0.367890 0.016011
vt 0.245655 0.038289
vt 0.246397 0.121798
vt 0.616755 0.103478
vt 0.619174 0.205307
vt 0.611917 0.001649
vt 0.616755 0.307135
vt 0.611917 0.408964
vt 0.123273 0.268175
vt 0.122972 0.331043
vt 0.123423 0.205306
vt 0.000156 0.205306
vt 0.000125 0.242784
vt 0.000064 0.280261
vt 0.123273 0.142438
vt 0.122972 0.079570
vt 0.000064 0.130352
vt 0.000125 0.167829
vt 0.122972 0.331043
vt 0.030806 0.283587
vt 0.245655 0.372324
vt 0.030806 0.283587
vt 0.000125 0.167829
vt 0.030806 0.127026
vt 0.000156 0.205306
vt 0.030806 0.127026
vt 0.805028 0.030806
vt 0.873826 0.071832
vt 0.721203 0.008146
vt 0.873826 0.071832
vt 0.938030 0.277186
vt 0.873826 0.338781
vt 0.968983 0.205307
vt 0.873826 0.338781
vt 0.805028 0.379807
vt 0.721203 0.402467
vt 0.000125 0.242784
vt 0.122972 0.079570
vt 0.245655 0.038289
vt 0.938030 0.133427
vt 0.611917 0.001649
vt 0.489902 0.006032
vt 0.611917 0.408964
vt 0.489902 0.404581
vt 0.367890 0.394602
vt 0.367890 0.016011
f 1/1/1 2/2/2 3/3/3
f 1/1/1 3/3/3 4/4/4
f 1/1/1 4/4/4 5/5/5
f 1/1/1 5/5/5 6/6/6
f 1/1/1 6/6/6 7/7/7
f 1/1/1 7/7/7 8/8/8
f 1/1/1 8/8/8 9/9/9
f 1/1/1 9/9/9 2/2/2
f 10/10/10 11/11/11 12/12/12
f 10/10/10 12/12/12 13/13/13
f 10/10/10 13/13/13 3/3/3
f 10/10/10 3/3/3 2/2/2
f 10/10/10 2/2/2 9/9/9
f 10/10/10 9/9/9 14/14/14
f 10/10/10 14/14/14 15/15/15
f 10/10/10 15/15/15 11/11/11
f 16/16/16 17/17/17 18/18/18
f 16/16/16 18/18/18 19/19/19
f 16/16/16 19/19/19 20/20/20
f 16/16/16 20/20/20 21/21/21
f 16/16/16 21/21/21 22/22/22
f 16/16/16 22/22/22 23/23/23
f 16/16/16 23/23/23 24/24/24
f 16/16/16 24/24/24 17/17/17
f 25/25/25 21/21/21 20/20/20
f 25/25/25 20/20/20 26/26/26
f 25/25/25 26/26/26 27/27/27
f 25/25/25 27/27/27 28/28/28
f 25/25/25 28/28/28 29/29/29
f 25/25/25 29/29/29 30/30/30
f 25/25/25 30/30/30 22/22/22
f 25/25/25 22/22/22 21/21/21
f 31/31/31 32/32/32 22/22/22
f 31/31/31 22/22/22 30/30/30
f 31/31/31 30/30/30 29/29/29
f 31/31/31 29/29/29 33/33/33
f 31/31/31 33/33/33 5/5/5
f 31/31/31 5/5/5 4/4/4
f 31/31/31 4/4/4 3/3/3
f 31/31/31 3/3/3 32/32/32
f 34/34/34 35/35/35 24/24/24
f 34/34/34 24/24/24 23/23/23
f 34/34/34 23/23/23 22/22/22
f 34/34/34 22/22/22 32/32/32
f 34/34/34 32/32/32 3/3/3
f 34/34/34 3/3/3 13/13/13
f 34/34/34 13/13/13 12/12/12
f 34/34/34 12/12/12 35/35/35
f 36/36/36 37/37/37 38/38/38
f 36/36/36 38/38/38 39/39/39
f 36/36/36 39/39/39 40/40/40
f 36/36/36 40/40/40 41/41/41
f 36/36/36 41/41/41 20/20/20
f 36/36/36 20/20/20 19/19/19
f 36/36/36 19/19/19 18/18/18
f 36/36/36 18/18/18 37/37/37
f 42/42/42 41/41/41 40/40/40
f 42/42/42 40/40/40 43/43/43
f 42/42/42 43/43/43 44/44/44
f 42/42/42 44/44/44 45/45/45
f 42/42/42 45/45/45 27/27/27
f 42/42/42 27/27/27 26/26/26
f 42/42/42 26/26/26 20/20/20
f 42/42/42 20/20/20 41/41/41
f 46/46/46 47/47/47 48/48/48
f 46/46/46 48/48/48 49/49/49
f 46/46/46 49/49/49 50/50/50
f 46/46/46 50/50/50 51/51/51
f 46/46/46 51/51/51 52/52/52
f 46/46/46 52/52/52 53/53/53
f 46/46/46 53/53/53 54/54/54
f 46/46/46 54/54/54 47/47/47
f 55/55/55 56/56/56 57/57/57
f 55/55/55 57/57/57 58/58/58
f 55/55/55 58/58/58 48/48/48
f 55/55/55 48/48/48 47/47/47
f 55/55/55 47/47/47 54/54/54
f 55/55/55 54/54/54 59/59/59
f 55/55/55 59/59/59 60/60/60
f 55/55/55 60/60/60 56/56/56
f 61/61/61 62/62/62 63/63/63
f 61/61/61 63/63/63 64/64/64
f 61/61/61 64/64/64 65/65/65
f 61/61/61 65/65/65 66/66/66
f 61/61/61 66/66/66 67/67/67
f 61/61/61 67/67/67 68/68/68
f 61/61/61 68/68/68 69/69/69
f 61/61/61 69/69/69 62/62/62
f 70/70/70 66/66/66 65/65/65
f 70/70/70 65/65/65 71/71/71
f 70/70/70 71/71/71 72/72/72
f 70/70/70 72/72/72 73/73/73
f 70/70/70 73/73/73 74/74/74
f 70/70/70 74/74/74 75/75/75
f 70/70/70 75/75/75 67/67/67
f 70/70/70 67/67/67 66/66/66
f 76/76/76 77/77/77 54/54/54
f 76/76/76 54/54/54 53/53/53
f 76/76/76 53/53/53 52/52/52
f 76/76/76 52/52/52 78/78/78
f 76/76/76 78/78/78 72/72/72
f 76/76/76 72/72/72 71/71/71
f 76/76/76 71/71/71 65/65/65
f 76/76/76 65/65/65 77/77/77
f 79/79/79 80/80/80 60/60/60
f 79/79/79 60/60/60 59/59/59
f 79/79/79 59/59/59 54/54/54
f 79/79/79 54/54/54 77/77/77
f 79/79/79 77/77/77 65/65/65
f 79/79/79 65/65/65 64/64/64
f 79/79/79 64/64/64 63/63/63
f 79/79/79 63/63/63 80/80/80
f 81/81/81 82/82/82 69/69/69
f 81/81/81 69/69/69 68/68/68
f 81/81/81 68/68/68 67/67/67
f 81/81/81 67/67/67 83/83/83
f 81/81/81 83/83/83 84/84/84
f 81/81/81 84/84/84 85/85/85
f 81/81/81 85/85/85 86/86/86
f 81/81/81 86/86/86 82/82/82
f 87/87/87 83/83/83 67/67/67
f 87/87/87 67/67/67 75/75/75
f 87/87/87 75/75/75 74/74/74
f 87/87/87 74/74/74 88/88/88
f 87/87/87 88/88/88 89/89/89
f 87/87/87 89/89/89 90/90/90
f 87/87/87 90/90/90 84/84/84
f 87/87/87 84/84/84 83/83/83
f 91/91/91 92/92/92 38/38/38
f 91/91/91 38/38/38 37/37/37
f 91/91/91 37/37/37 18/18/18
f 91/91/91 18/18/18 93/93/93
f 91/91/91 93/93/93 69/69/69
f 91/91/91 69/69/69 82/82/82
f 91/91/91 82/82/82 94/94/94
f 91/91/91 94/94/94 92/92/92
f 95/95/95 96/96/96 44/44/44
f 95/95/95 44/44/44 43/43/43
f 95/95/95 43/43/43 40/40/40
f 95/95/95 40/40/40 97/97/97
f 95/95/95 97/97/97 84/84/84
f 95/95/95 84/84/84 90/90/90
f 95/95/95 90/90/90 98/98/98
f 95/95/95 98/98/98 96/96/96
f 99/99/99 100/100/100 7/7/7
f 99/99/99 7/7/7 6/6/6
f 99/99/99 6/6/6 5/5/5
f 99/99/99 5/5/5 101/101/101
f 99/99/99 101/101/101 52/52/52
f 99/99/99 52/52/52 51/51/51
f 99/99/99 51/51/51 102/102/102
f 99/99/99 102/102/102 100/100/100
f 103/103/103 104/104/104 15/15/15
f 103/103/103 15/15/15 14/14/14
f 103/103/103 14/14/14 9/9/9
f 103/103/103 9/9/9 105/105/105
f 103/103/103 105/105/105 48/48/48
f 103/103/103 48/48/48 58/58/58
f 103/103/103 58/58/58 106/106/106
f 103/103/103 106/106/106 104/104/104
f 107/107/107 108/108/108 12/12/12
f 107/107/107 12/12/12 11/11/11
f 107/107/107 11/11/11 15/15/15
f 107/107/107 15/15/15 104/104/104
f 107/107/107 104/104/104 106/106/106
f 107/107/107 106/106/106 56/56/56
f 107/107/107 56/56/56 60/60/60
f 107/107/107 60/60/60 108/108/108
f 109/109/109 97/97/97 40/40/40
f 109/109/109 40/40/40 39/39/39
f 109/109/109 39/39/39 38/38/38
f 109/109/109 38/38/38 92/92/92
f 109/109/109 92/92/92 94/94/94
f 109/109/109 94/94/94 85/85/85
f 109/109/109 85/85/85 84/84/84
f 109/109/109 84/84/84 97/97/97
f 110/110/110 111/111/111 27/27/27
f 110/110/110 27/27/27 45/45/45
f 110/110/110 45/45/45 44/44/44
f 110/110/110 44/44/44 96/96/96
f 110/110/110 96/96/96 98/98/98
f 110/110/110 98/98/98 88/88/88
f 110/110/110 88/88/88 74/74/74
f 110/110/110 74/74/74 111/111/111
f 112/112/112 105/105/105 9/9/9
f 112/112/112 9/9/9 8/8/8
f 112/112/112 8/8/8 7/7/7
f 112/112/112 7/7/7 100/100/100
f 112/112/112 100/100/100 102/102/102
f 112/112/112 102/102/102 49/49/49
f 112/112/112 49/49/49 48/48/48
f 112/112/112 48/48/48 105/105/105
f 113/113/113 101/101/101 5/5/5
f 113/113/113 5/5/5 33/33/33
f 113/113/113 33/33/33 29/29/29
f 113/113/113 29/29/29 114/114/114
f 113/113/113 114/114/114 72/72/72
f 113/113/113 72/72/72 78/78/78
f 113/113/113 78/78/78 52/52/52
f 113/113/113 52/52/52 101/101/101
f 115/115/115 116/116/116 24/24/24
f 115/115/115 24/24/24 35/35/35
f 115/115/115 35/35/35 12/12/12
f 115/115/115 12/12/12 108/108/108
f 115/115/115 108/108/108 60/60/60
f 115/115/115 60/60/60 80/80/80
f 115/115/115 80/80/80 63/63/63
f 115/115/115 63/63/63 116/116/116
f 117/117/117 93/93/93 18/18/18
f 117/117/117 18/18/18 17/17/17
f 117/117/117 17/17/17 24/24/24
f 117/117/117 24/24/24 116/116/116
f 117/117/117 116/116/116 63/63/63
f 117/117/117 63/63/63 62/62/62
f 117/117/117 62/62/62 69/69/69
f 117/117/117 69/69/69 93/93/93
f 118/118/118 114/114/114 29/29/29
f 118/118/118 29/29/29 28/28/28
f 118/118/118 28/28/28 27/27/27
f 118/118/118 27/27/27 111/111/111
f 118/118/118 111/111/111 74/74/74
f 118/118/118 74/74/74 73/73/73
f 118/118/118 73/73/73 72/72/72
f 118/118/118 72/72/72 114/114/114
