v -2.420673 0.753332 -1.119592
v -2.422235 0.753343 -1.121962
v -2.424626 0.751806 -1.119472
v -2.422569 0.751892 -1.117080
v -2.421195 0.752131 -1.115071
v -2.419835 0.753410 -1.117425
v -2.419288 0.753963 -1.119340
v -2.419372 0.754222 -1.121492
v -2.420453 0.754349 -1.123831
v -2.424729 0.753669 -1.123278
v -2.426947 0.754001 -1.123889
v -2.429274 0.752803 -1.122414
v -2.427178 0.752275 -1.121269
v -2.422882 0.754514 -1.124682
v -2.425047 0.754442 -1.124575
v -2.434020 0.745643 -1.114255
v -2.435854 0.746001 -1.115630
v -2.437490 0.743201 -1.113163
v -2.435859 0.742874 -1.111958
v -2.433766 0.742554 -1.110263
v -2.431662 0.745292 -1.112327
v -2.429453 0.747808 -1.114527
v -2.431930 0.748199 -1.116531
v -2.433864 0.748608 -1.117948
v -2.429504 0.745268 -1.110150
v -2.431865 0.742542 -1.108328
v -2.430492 0.742620 -1.106802
v -2.427941 0.745343 -1.108437
v -2.425587 0.747920 -1.110424
v -2.427206 0.747806 -1.112236
v -2.424820 0.750032 -1.114587
v -2.427070 0.749970 -1.116951
v -2.423225 0.750242 -1.112686
v -2.429614 0.750430 -1.118944
v -2.431625 0.750940 -1.120322
v -2.437420 0.740000 -1.109482
v -2.438670 0.740290 -1.110345
v -2.438985 0.738549 -1.108593
v -2.438474 0.737778 -1.107579
v -2.437358 0.737544 -1.106769
v -2.435835 0.739726 -1.108245
v -2.434440 0.739752 -1.106772
v -2.436432 0.737608 -1.105723
v -2.435310 0.738244 -1.105253
v -2.433443 0.739856 -1.105594
v -2.420568 0.753067 -1.119671
v -2.422159 0.753077 -1.122070
v -2.420398 0.754148 -1.123909
v -2.419294 0.754021 -1.121547
v -2.419223 0.753816 -1.119376
v -2.419741 0.753213 -1.117470
v -2.421099 0.751937 -1.115126
v -2.422459 0.751631 -1.117170
v -2.424543 0.751545 -1.119588
v -2.424684 0.753409 -1.123413
v -2.426929 0.753810 -1.124004
v -2.425031 0.754299 -1.124655
v -2.422853 0.754317 -1.124782
v -2.427122 0.752019 -1.121409
v -2.429246 0.752614 -1.122531
v -2.433923 0.745416 -1.114421
v -2.435792 0.745832 -1.115763
v -2.433811 0.748432 -1.118075
v -2.431844 0.747961 -1.116688
v -2.429346 0.747568 -1.114666
v -2.431545 0.745062 -1.112477
v -2.433642 0.742332 -1.110419
v -2.435756 0.742654 -1.112131
v -2.437423 0.743038 -1.113302
v -2.429368 0.745037 -1.110281
v -2.427078 0.747565 -1.112357
v -2.425482 0.747740 -1.110504
v -2.427830 0.745170 -1.108526
v -2.430376 0.742452 -1.106895
v -2.431723 0.742318 -1.108465
v -2.424702 0.749780 -1.114693
v -2.426975 0.749719 -1.117078
v -2.423125 0.750054 -1.112754
v -2.429543 0.750182 -1.119093
v -2.431584 0.750757 -1.120443
v -2.437316 0.739783 -1.109658
v -2.438602 0.740129 -1.110486
v -2.435709 0.739507 -1.108403
v -2.437264 0.737380 -1.106888
v -2.438397 0.737616 -1.107713
v -2.438932 0.738430 -1.108696
v -2.434294 0.739532 -1.106911
v -2.433324 0.739691 -1.105688
v -2.435224 0.738122 -1.105325
v -2.436321 0.737443 -1.105826
v -2.439059 0.740316 -1.110698
v -2.439389 0.737989 -1.108207
v -2.438007 0.743238 -1.113628
v -2.438932 0.738430 -1.108696
v -2.437047 0.736820 -1.105419
v -2.435707 0.737683 -1.104860
v -2.437824 0.736744 -1.106329
v -2.435224 0.738122 -1.105325
v -2.419511 0.753349 -1.116719
v -2.418962 0.754063 -1.119213
v -2.420691 0.752125 -1.114423
v -2.419223 0.753816 -1.119376
v -2.422255 0.754708 -1.125194
v -2.425194 0.754581 -1.124877
v -2.419835 0.754595 -1.124488
v -2.425031 0.754299 -1.124655
v -2.427682 0.754028 -1.124147
v -2.429963 0.752896 -1.122851
v -2.438791 0.736965 -1.107005
v -2.433056 0.739817 -1.105241
v -2.429980 0.742571 -1.106332
v -2.418904 0.754429 -1.122149
v -2.422646 0.750228 -1.112080
v -2.424998 0.747878 -1.109853
v -2.432280 0.751029 -1.120837
v -2.434488 0.748666 -1.118479
v -2.436440 0.746045 -1.116149
v -2.427369 0.745292 -1.107903
vn -0.388900 0.901900 0.187700
vn -0.221000 0.918800 0.327100
vn -0.258700 0.893800 0.366300
vn -0.410500 0.878700 0.243700
vn -0.419400 0.867800 0.266400
vn -0.383800 0.902800 0.193900
vn -0.356000 0.923600 0.142200
vn -0.301900 0.940700 0.154600
vn -0.160500 0.951200 0.263600
vn -0.069000 0.875400 0.478500
vn -0.075500 0.877200 0.474000
vn -0.147400 0.845100 0.513800
vn -0.124600 0.854900 0.503600
vn -0.040600 0.919000 0.392100
vn -0.024800 0.896100 0.443100
vn -0.324100 0.742300 0.586400
vn -0.357300 0.741600 0.567800
vn -0.376700 0.720100 0.582600
vn -0.335600 0.719000 0.608600
vn -0.429800 0.724300 0.539100
vn -0.407300 0.752900 0.516900
vn -0.359800 0.806200 0.469600
vn -0.271600 0.788000 0.552400
vn -0.302500 0.781600 0.545500
vn -0.484700 0.755700 0.440400
vn -0.507800 0.733300 0.452000
vn -0.478200 0.728600 0.490300
vn -0.463300 0.750400 0.471400
vn -0.442600 0.793200 0.418200
vn -0.451700 0.803000 0.388700
vn -0.423900 0.849200 0.315000
vn -0.304500 0.858100 0.413400
vn -0.428000 0.836100 0.343100
vn -0.196800 0.830300 0.521400
vn -0.225600 0.819200 0.527200
vn -0.322700 0.705300 0.631200
vn -0.369300 0.704100 0.606500
vn -0.352900 0.687800 0.634300
vn -0.333800 0.661300 0.671700
vn -0.468300 0.669600 0.576400
vn -0.440200 0.710400 0.549200
vn -0.532600 0.722700 0.440400
vn -0.575800 0.681400 0.451800
vn -0.534500 0.703000 0.469200
vn -0.504000 0.715400 0.484000
vn 0.422300 -0.887800 -0.182700
vn 0.231400 -0.912200 -0.338000
vn 0.271300 -0.884500 -0.379400
vn 0.517700 -0.839800 -0.163300
vn 0.603700 -0.792000 -0.091100
vn 0.583800 -0.805200 -0.103600
vn 0.543000 -0.824700 -0.158200
vn 0.421800 -0.876100 -0.233500
vn 0.258600 -0.893900 -0.366200
vn 0.062300 -0.857900 -0.510000
vn -0.023300 -0.754800 -0.655500
vn -0.036300 -0.738900 -0.672800
vn 0.038600 -0.800100 -0.598600
vn 0.113700 -0.850500 -0.513500
vn 0.032700 -0.782300 -0.622000
vn 0.310800 -0.740700 -0.595500
vn 0.215300 -0.725100 -0.654100
vn 0.176600 -0.755400 -0.630900
vn 0.259600 -0.785800 -0.561400
vn 0.359900 -0.806100 -0.469700
vn 0.407400 -0.752800 -0.517000
vn 0.429900 -0.724200 -0.539100
vn 0.318900 -0.718500 -0.618100
vn 0.196200 -0.717400 -0.668400
vn 0.495200 -0.756100 -0.427900
vn 0.461800 -0.802600 -0.377500
vn 0.541200 -0.785700 -0.299600
vn 0.563400 -0.754000 -0.337800
vn 0.579900 -0.749400 -0.319600
vn 0.518800 -0.735100 -0.436400
vn 0.433900 -0.848000 -0.304400
vn 0.304500 -0.858100 -0.413400
vn 0.529600 -0.816300 -0.230400
vn 0.185500 -0.827300 -0.530200
vn 0.106200 -0.781100 -0.615200
vn 0.291800 -0.714500 -0.635900
vn 0.131800 -0.724800 -0.676200
vn 0.433900 -0.718800 -0.543100
vn 0.405700 -0.754800 -0.515300
vn 0.194300 -0.745400 -0.637700
vn 0.089900 -0.731500 -0.675900
vn 0.539300 -0.735000 -0.411000
vn 0.592900 -0.763100 -0.257100
vn 0.595800 -0.773500 -0.216100
vn 0.547100 -0.774700 -0.316900
vn -0.949100 -0.051100 -0.310900
vn -0.959700 -0.278800 0.033400
vn -0.898200 0.022000 -0.439000
vn 0.089900 -0.731500 -0.675900
vn -0.344400 -0.657000 0.670600
vn 0.029200 -0.360900 0.932200
vn -0.461800 -0.771700 0.437200
vn 0.595800 -0.773500 -0.216100
vn 0.776100 0.375700 0.506500
vn 0.853600 0.476700 0.209900
vn 0.705100 0.252800 0.662500
vn 0.603700 -0.792000 -0.091100
vn 0.169500 0.447400 -0.878100
vn -0.242600 0.567600 -0.786700
vn 0.650700 0.325500 -0.686000
vn -0.036300 -0.738900 -0.672800
vn -0.539300 0.484700 -0.688600
vn -0.698700 0.369100 -0.612800
vn -0.693500 -0.627900 0.353300
vn 0.390100 -0.162200 0.906300
vn 0.519200 -0.095700 0.849200
vn 0.896000 0.387000 -0.217700
vn 0.653500 0.140200 0.743800
vn 0.626700 0.063800 0.776600
vn -0.784700 0.259500 -0.562900
vn -0.821700 0.183800 -0.539400
vn -0.851800 0.107700 -0.512600
vn 0.595900 -0.012300 0.802900
vt 0.839504 0.118056
vt 0.856743 0.205307
vt 0.741230 0.205307
vt 0.734555 0.106726
vt 0.724541 0.032791
vt 0.813647 0.052618
vt 0.868992 0.081539
vt 0.913398 0.129584
vt 0.940923 0.205307
vt 0.839504 0.292557
vt 0.813647 0.357995
vt 0.724541 0.377822
vt 0.734555 0.303887
vt 0.913398 0.281029
vt 0.868992 0.329074
vt 0.369475 0.299954
vt 0.368286 0.370940
vt 0.245840 0.351447
vt 0.246397 0.288815
vt 0.246768 0.205307
vt 0.370268 0.205307
vt 0.494283 0.205307
vt 0.492822 0.304944
vt 0.490632 0.379672
vt 0.369475 0.110659
vt 0.246397 0.121798
vt 0.245841 0.059166
vt 0.368286 0.039673
vt 0.490632 0.030941
vt 0.492822 0.105669
vt 0.616755 0.103478
vt 0.619174 0.205307
vt 0.613127 0.027106
vt 0.616755 0.307135
vt 0.613126 0.383507
vt 0.123273 0.268175
vt 0.123047 0.315326
vt 0.054743 0.283353
vt 0.030912 0.249131
vt 0.030973 0.205306
vt 0.123423 0.205306
vt 0.123273 0.142438
vt 0.030912 0.161481
vt 0.054744 0.127260
vt 0.123047 0.095287
vt 0.839504 0.118056
vt 0.856743 0.205307
vt 0.968983 0.205307
vt 0.938030 0.133427
vt 0.876123 0.061548
vt 0.805028 0.030806
vt 0.721203 0.008146
vt 0.734555 0.106726
vt 0.741230 0.205307
vt 0.839504 0.292557
vt 0.805028 0.379807
vt 0.876123 0.349065
vt 0.938030 0.277186
vt 0.734555 0.303887
vt 0.721203 0.402467
vt 0.369475 0.299954
vt 0.367890 0.394602
vt 0.489902 0.404581
vt 0.492822 0.304944
vt 0.494283 0.205307
vt 0.370268 0.205307
vt 0.246768 0.205307
vt 0.246397 0.288815
vt 0.245655 0.372324
vt 0.369475 0.110659
vt 0.492822 0.105669
vt 0.489902 0.006032
vt 0.367890 0.016011
vt 0.245655 0.038289
vt 0.246397 0.121798
vt 0.616755 0.103478
vt 0.619174 0.205307
vt 0.611917 0.001649
vt 0.616755 0.307135
vt 0.611917 0.408964
vt 0.123273 0.268175
vt 0.122972 0.331043
vt 0.123423 0.205306
vt 0.000156 0.205306
vt 0.000125 0.242784
vt 0.000064 0.280261
vt 0.123273 0.142438
vt 0.122972 0.079570
vt 0.000064 0.130352
vt 0.000125 0.167829
vt 0.122972 0.331043
vt 0.030806 0.283587
vt 0.245655 0.372324
vt 0.030806 0.283587
vt 0.000125 0.167829
vt 0.030806 0.127026
vt 0.000156 0.205306
vt 0.030806 0.127026
vt 0.805028 0.030806
vt 0.873826 0.071832
vt 0.721203 0.008146
vt 0.873826 0.071832
vt 0.938030 0.277186
vt 0.873826 0.338781
vt 0.968983 0.205307
vt 0.873826 0.338781
vt 0.805028 0.379807
vt 0.721203 0.402467
vt 0.000125 0.242784
vt 0.122972 0.079570
vt 0.245655 0.038289
vt 0.938030 0.133427
vt 0.611917 0.001649
vt 0.489902 0.006032
vt 0.611917 0.408964
vt 0.489902 0.404581
vt 0.367890 0.394602
vt 0.367890 0.016011
f 1/1/1 2/2/2 3/3/3
f 1/1/1 3/3/3 4/4/4
f 1/1/1 4/4/4 5/5/5
f 1/1/1 5/5/5 6/6/6
f 1/1/1 6/6/6 7/7/7
f 1/1/1 7/7/7 8/8/8
f 1/1/1 8/8/8 9/9/9
f 1/1/1 9/9/9 2/2/2
f 10/10/10 11/11/11 12/12/12
f 10/10/10 12/12/12 13/13/13
f 10/10/10 13/13/13 3/3/3
f 10/10/10 3/3/3 2/2/2
f 10/10/10 2/2/2 9/9/9
f 10/10/10 9/9/9 14/14/14
f 10/10/10 14/14/14 15/15/15
f 10/10/10 15/15/15 11/11/11
f 16/16/16 17/17/17 18/18/18
f 16/16/16 18/18/18 19/19/19
f 16/16/16 19/19/19 20/20/20
f 16/16/16 20/20/20 21/21/21
f 16/16/16 21/21/21 22/22/22
f 16/16/16 22/22/22 23/23/23
f 16/16/16 23/23/23 24/24/24
f 16/16/16 24/24/24 17/17/17
f 25/25/25 21/21/21 20/20/20
f 25/25/25 20/20/20 26/26/26
f 25/25/25 26/26/26 27/27/27
f 25/25/25 27/27/27 28/28/28
f 25/25/25 28/28/28 29/29/29
f 25/25/25 29/29/29 30/30/30
f 25/25/25 30/30/30 22/22/22
f 25/25/25 22/22/22 21/21/21
f 31/31/31 32/32/32 22/22/22
f 31/31/31 22/22/22 30/30/30
f 31/31/31 30/30/30 29/29/29
f 31/31/31 29/29/29 33/33/33
f 31/31/31 33/33/33 5/5/5
f 31/31/31 5/5/5 4/4/4
f 31/31/31 4/4/4 3/3/3
f 31/31/31 3/3/3 32/32/32
f 34/34/34 35/35/35 24/24/24
f 34/34/34 24/24/24 23/23/23
f 34/34/34 23/23/23 22/22/22
f 34/34/34 22/22/22 32/32/32
f 34/34/34 32/32/32 3/3/3
f 34/34/34 3/3/3 13/13/13
f 34/34/34 13/13/13 12/12/12
f 34/34/34 12/12/12 35/35/35
f 36/36/36 37/37/37 38/38/38
f 36/36/36 38/38/38 39/39/39
f 36/36/36 39/39/39 40/40/40
f 36/36/36 40/40/40 41/41/41
f 36/36/36 41/41/41 20/20/20
f 36/36/36 20/20/20 19/19/19
f 36/36/36 19/19/19 18/18/18
f 36/36/36 18/18/18 37/37/37
f 42/42/42 41/41/41 40/40/40
f 42/42/42 40/40/40 43/43/43
f 42/42/42 43/43/43 44/44/44
f 42/42/42 44/44/44 45/45/45
f 42/42/42 45/45/45 27/27/27
f 42/42/42 27/27/27 26/26/26
f 42/42/42 26/26/26 20/20/20
f 42/42/42 20/20/20 41/41/41
f 46/46/46 47/47/47 48/48/48
f 46/46/46 48/48/48 49/49/49
f 46/46/46 49/49/49 50/50/50
f 46/46/46 50/50/50 51/51/51
f 46/46/46 51/51/51 52/52/52
f 46/46/46 52/52/52 53/53/53
f 46/46/46 53/53/53 54/54/54
f 46/46/46 54/54/54 47/47/47
f 55/55/55 56/56/56 57/57/57
f 55/55/55 57/57/57 58/58/58
f 55/55/55 58/58/58 48/48/48
f 55/55/55 48/48/48 47/47/47
f 55/55/55 47/47/47 54/54/54
f 55/55/55 54/54/54 59/59/59
f 55/55/55 59/59/59 60/60/60
f 55/55/55 60/60/60 56/56/56
f 61/61/61 62/62/62 63/63/63
f 61/61/61 63/63/63 64/64/64
f 61/61/61 64/64/64 65/65/65
f 61/61/61 65/65/65 66/66/66
f 61/61/61 66/66/66 67/67/67
f 61/61/61 67/67/67 68/68/68
f 61/61/61 68/68/68 69/69/69
f 61/61/61 69/69/69 62/62/62
f 70/70/70 66/66/66 65/65/65
f 70/70/70 65/65/65 71/71/71
f 70/70/70 71/71/71 72/72/72
f 70/70/70 72/72/72 73/73/73
f 70/70/70 73/73/73 74/74/74
f 70/70/70 74/74/74 75/75/75
f 70/70/70 75/75/75 67/67/67
f 70/70/70 67/67/67 66/66/66
f 76/76/76 77/77/77 54/54/54
f 76/76/76 54/54/54 53/53/53
f 76/76/76 53/53/53 52/52/52
f 76/76/76 52/52/52 78/78/78
f 76/76/76 78/78/78 72/72/72
f 76/76/76 72/72/72 71/71/71
f 76/76/76 71/71/71 65/65/65
f 76/76/76 65/65/65 77/77/77
f 79/79/79 80/80/80 60/60/60
f 79/79/79 60/60/60 59/59/59
f 79/79/79 59/59/59 54/54/54
f 79/79/79 54/54/54 77/77/77
f 79/79/79 77/77/77 65/65/65
f 79/79/79 65/65/65 64/64/64
f 79/79/79 64/64/64 63/63/63
f 79/79/79 63/63/63 80/80/80
f 81/81/81 82/82/82 69/69/69
f 81/81/81 69/69/69 68/68/68
f 81/81/81 68/68/68 67/67/67
f 81/81/81 67/67/67 83/83/83
f 81/81/81 83/83/83 84/84/84
f 81/81/81 84/84/84 85/85/85
f 81/81/81 85/85/85 86/86/86
f 81/81/81 86/86/86 82/82/82
f 87/87/87 83/83/83 67/67/67
f 87/87/87 67/67/67 75/75/75
f 87/87/87 75/75/75 74/74/74
f 87/87/87 74/74/74 88/88/88
f 87/87/87 88/88/88 89/89/89
f 87/87/87 89/89/89 90/90/90
f 87/87/87 90/90/90 84/84/84
f 87/87/87 84/84/84 83/83/83
f 91/91/91 92/92/92 38/38/38
f 91/91/91 38/38/38 37/37/37
f 91/91/91 37/37/37 18/18/18
f 91/91/91 18/18/18 93/93/93
f 91/91/91 93/93/93 69/69/69
f 91/91/91 69/69/69 82/82/82
f 91/91/91 82/82/82 94/94/94
f 91/91/91 94/94/94 92/92/92
f 95/95/95 96/96/96 44/44/44
f 95/95/95 44/44/44 43/43/43
f 95/95/95 43/43/43 40/40/40
f 95/95/95 40/40/40 97/97/97
f 95/95/95 97/97/97 84/84/84
f 95/95/95 84/84/84 90/90/90
f 95/95/95 90/90/90 98/98/98
f 95/95/95 98/98/98 96/96/96
f 99/99/99 100/100/100 7/7/7
f 99/99/99 7/7/7 6/6/6
f 99/99/99 6/6/6 5/5/5
f 99/99/99 5/5/5 101/101/101
f 99/99/99 101/101/101 52/52/52
f 99/99/99 52/52/52 51/51/51
f 99/99/99 51/51/51 102/102/102
f 99/99/99 102/102/102 100/100/100
f 103/103/103 104/104/104 15/15/15
f 103/103/103 15/15/15 14/14/14
f 103/103/103 14/14/14 9/9/9
f 103/103/103 9/9/9 105/105/105
f 103/103/103 105/105/105 48/48/48
f 103/103/103 48/48/48 58/58/58
f 103/103/103 58/58/58 106/106/106
f 103/103/103 106/106/106 104/104/104
f 107/107/107 108/108/108 12/12/12
f 107/107/107 12/12/12 11/11/11
f 107/107/107 11/11/11 15/15/15
f 107/107/107 15/15/15 104/104/104
f 107/107/107 104/104/104 106/106/106
f 107/107/107 106/106/106 56/56/56
f 107/107/107 56/56/56 60/60/60
f 107/107/107 60/60/60 108/108/108
f 109/109/109 97/97/97 40/40/40
f 109/109/109 40/40/40 39/39/39
f 109/109/109 39/39/39 38/38/38
f 109/109/109 38/38/38 92/92/92
f 109/109/109 92/92/92 94/94/94
f 109/109/109 94/94/94 85/85/85
f 109/109/109 85/85/85 84/84/84
f 109/109/109 84/84/84 97/97/97
f 110/110/110 111/111/111 27/27/27
f 110/110/110 27/27/27 45/45/45
f 110/110/110 45/45/45 44/44/44
f 110/110/110 44/44/44 96/96/96
f 110/110/110 96/96/96 98/98/98
f 110/110/110 98/98/98 88/88/88
f 110/110/110 88/88/88 74/74/74
f 110/110/110 74/74/74 111/111/111
f 112/112/112 105/105/105 9/9/9
f 112/112/112 9/9/9 8/8/8
f 112/112/112 8/8/8 7/7/7
f 112/112/112 7/7/7 100/100/100
f 112/112/112 100/100/100 102/102/102
f 112/112/112 102/102/102 49/49/49
f 112/112/112 49/49/49 48/48/48
f 112/112/112 48/48/48 105/105/105
f 113/113/113 101/101/101 5/5/5
f 113/113/113 5/5/5 33/33/33
f 113/113/113 33/33/33 29/29/29
f 113/113/113 29/29/29 114/114/114
f 113/113/113 114/114/114 72/72/72
f 113/113/113 72/72/72 78/78/78
f 113/113/113 78/78/78 52/52/52
f 113/113/113 52/52/52 101/101/101
f 115/115/115 116/116/116 24/24/24
f 115/115/115 24/24/24 35/35/35
f 115/115/115 35/35/35 12/12/12
f 115/115/115 12/12/12 108/108/108
f 115/115/115 108/108/108 60/60/60
f 115/115/115 60/60/60 80/80/80
f 115/115/115 80/80/80 63/63/63
f 115/115/115 63/63/63 116/116/116
f 117/117/117 93/93/93 18/18/18
f 117/117/117 18/18/18 17/17/17
f 117/117/117 17/17/17 24/24/24
f 117/117/117 24/24/24 116/116/116
f 117/117/117 116/116/116 63/63/63
f 117/117/117 63/63/63 62/62/62
f 117/117/117 62/62/62 69/69/69
f 117/117/117 69/69/69 93/93/93
f 118/118/118 114/114/114 29/29/29
f 118/118/118 29/29/29 28/28/28
f 118/118/118 28/28/28 27/27/27
f 118/118/118 27/27/27 111/111/111
f 118/118/118 111/111/111 74/74/74
f 118/118/118 74/74/74 73/73/73
f 118/118/118 73/73/73 72/72/72
f 118/118/118 72/72/72 114/114/114
