v -2.423172 0.763189 -1.101991
v -2.423749 0.764170 -1.104216
v -2.426233 0.762001 -1.103766
v -2.425269 0.761080 -1.101327
v -2.424771 0.760442 -1.099331
v -2.423137 0.762370 -1.100115
v -2.422198 0.763564 -1.101119
v -2.421666 0.764630 -1.102611
v -2.421876 0.765683 -1.104614
v -2.425445 0.764990 -1.105860
v -2.427125 0.765527 -1.106900
v -2.429302 0.764029 -1.107039
v -2.427853 0.763126 -1.105725
v -2.423635 0.766188 -1.105960
v -2.425428 0.766120 -1.106614
v -2.434622 0.755212 -1.105360
v -2.435764 0.756070 -1.106820
v -2.437451 0.752909 -1.106618
v -2.436428 0.752146 -1.105335
v -2.435173 0.751186 -1.103544
v -2.433214 0.754130 -1.103325
v -2.431100 0.756953 -1.103254
v -2.432587 0.758098 -1.105368
v -2.433806 0.759014 -1.106872
v -2.432089 0.753207 -1.101051
v -2.434188 0.750373 -1.101525
v -2.433527 0.749802 -1.099940
v -2.431327 0.752557 -1.099270
v -2.429165 0.755340 -1.098974
v -2.429938 0.756001 -1.100860
v -2.427594 0.758654 -1.100952
v -2.428728 0.759586 -1.103423
v -2.426880 0.758034 -1.098973
v -2.430282 0.760782 -1.105525
v -2.431590 0.761763 -1.106987
v -2.438045 0.748922 -1.105130
v -2.438852 0.749514 -1.106053
v -2.439390 0.747451 -1.105541
v -2.439167 0.746432 -1.104929
v -2.438462 0.745908 -1.104066
v -2.437077 0.748189 -1.103819
v -2.436374 0.747599 -1.102286
v -2.438022 0.745526 -1.102981
v -2.437330 0.745820 -1.102034
v -2.435921 0.747194 -1.101067
v -2.423025 0.763012 -1.102114
v -2.423619 0.764004 -1.104370
v -2.421781 0.765556 -1.104728
v -2.421559 0.764494 -1.102702
v -2.422115 0.763461 -1.101179
v -2.423020 0.762232 -1.100191
v -2.424650 0.760311 -1.099413
v -2.425117 0.760910 -1.101455
v -2.426095 0.761842 -1.103921
v -2.425333 0.764839 -1.106041
v -2.427050 0.765422 -1.107050
v -2.425371 0.766039 -1.106721
v -2.423554 0.766074 -1.106097
v -2.427731 0.762980 -1.105904
v -2.429218 0.763927 -1.107185
v -2.434462 0.755099 -1.105535
v -2.435651 0.755990 -1.106960
v -2.433701 0.758927 -1.107013
v -2.432437 0.757974 -1.105544
v -2.430938 0.756819 -1.103411
v -2.433043 0.754008 -1.103482
v -2.434995 0.751072 -1.103701
v -2.436262 0.752041 -1.105511
v -2.437333 0.752835 -1.106758
v -2.431908 0.753077 -1.101189
v -2.429765 0.755859 -1.100997
v -2.429030 0.755229 -1.099066
v -2.431187 0.752456 -1.099364
v -2.433381 0.749707 -1.100034
v -2.434000 0.750251 -1.101663
v -2.427432 0.758498 -1.101084
v -2.428578 0.759439 -1.103580
v -2.426753 0.757912 -1.099060
v -2.430146 0.760646 -1.105703
v -2.431496 0.761667 -1.107131
v -2.437878 0.748821 -1.105306
v -2.438733 0.749443 -1.106195
v -2.436897 0.748079 -1.103976
v -2.438328 0.745826 -1.104184
v -2.439043 0.746358 -1.105062
v -2.439301 0.747398 -1.105643
v -2.436184 0.747480 -1.102422
v -2.435774 0.747100 -1.101158
v -2.437222 0.745752 -1.102105
v -2.437879 0.745436 -1.103082
v -2.439070 0.749681 -1.106426
v -2.439759 0.746862 -1.105603
v -2.437741 0.753132 -1.107110
v -2.439301 0.747398 -1.105643
v -2.438508 0.744795 -1.103257
v -2.437695 0.745228 -1.102090
v -2.438864 0.745111 -1.104201
v -2.437222 0.745752 -1.102105
v -2.423072 0.762034 -1.099520
v -2.421983 0.763586 -1.100883
v -2.424550 0.760171 -1.098698
v -2.422115 0.763461 -1.101179
v -2.422996 0.766537 -1.106055
v -2.425477 0.766352 -1.106829
v -2.421210 0.766131 -1.104797
v -2.425371 0.766039 -1.106721
v -2.427654 0.765661 -1.107316
v -2.429749 0.764286 -1.107545
v -2.439486 0.745570 -1.104922
v -2.435704 0.747016 -1.100699
v -2.433240 0.749569 -1.099451
v -2.421117 0.765049 -1.102858
v -2.426584 0.757772 -1.098349
v -2.428846 0.755070 -1.098384
v -2.431986 0.762049 -1.107541
v -2.434167 0.759282 -1.107438
v -2.436096 0.756321 -1.107371
v -2.431010 0.752294 -1.098716
vn -0.564000 0.723700 0.397600
vn -0.457500 0.672500 0.581700
vn -0.501800 0.633000 0.589400
vn -0.599400 0.677800 0.425700
vn -0.613700 0.657900 0.436500
vn -0.561400 0.721700 0.405000
vn -0.521500 0.763200 0.381500
vn -0.478200 0.771800 0.419000
vn -0.385000 0.729300 0.565500
vn -0.360500 0.562500 0.744100
vn -0.365200 0.566200 0.738900
vn -0.440400 0.520800 0.731300
vn -0.417300 0.533700 0.735500
vn -0.311800 0.640200 0.702100
vn -0.310800 0.596300 0.740200
vn -0.613100 0.399100 0.681800
vn -0.637500 0.407400 0.653800
vn -0.657200 0.381900 0.649700
vn -0.627600 0.368400 0.685900
vn -0.692600 0.406200 0.596000
vn -0.668700 0.441500 0.598300
vn -0.616900 0.509700 0.599700
vn -0.559900 0.454300 0.692800
vn -0.585300 0.452300 0.672900
vn -0.715300 0.480000 0.507900
vn -0.737200 0.455200 0.499300
vn -0.721800 0.433200 0.539800
vn -0.705000 0.460800 0.539000
vn -0.674500 0.522800 0.521200
vn -0.674600 0.545100 0.497700
vn -0.631100 0.619400 0.466900
vn -0.554600 0.580600 0.596100
vn -0.642400 0.594900 0.483000
vn -0.486500 0.504900 0.713000
vn -0.513500 0.492900 0.702400
vn -0.621000 0.345700 0.703400
vn -0.655800 0.356600 0.665300
vn -0.647500 0.329100 0.687300
vn -0.638300 0.288100 0.713800
vn -0.732500 0.341100 0.589200
vn -0.703400 0.389400 0.594600
vn -0.754700 0.451400 0.476000
vn -0.792300 0.410100 0.451700
vn -0.763000 0.420900 0.490600
vn -0.741500 0.424700 0.519400
vn 0.591300 -0.713900 -0.375000
vn 0.469900 -0.661900 -0.584000
vn 0.516400 -0.619100 -0.591600
vn 0.665800 -0.681700 -0.303300
vn 0.714000 -0.673400 -0.191600
vn 0.701800 -0.679200 -0.214900
vn 0.685400 -0.670900 -0.283200
vn 0.606000 -0.680400 -0.412100
vn 0.501700 -0.633100 -0.589400
vn 0.362000 -0.532500 -0.765100
vn 0.315300 -0.373000 -0.872600
vn 0.306600 -0.350800 -0.884800
vn 0.360900 -0.440200 -0.822100
vn 0.409900 -0.525100 -0.745800
vn 0.360500 -0.413700 -0.836000
vn 0.603500 -0.393200 -0.693600
vn 0.532100 -0.351000 -0.770500
vn 0.493000 -0.388000 -0.778700
vn 0.551400 -0.448100 -0.703600
vn 0.617000 -0.509600 -0.599700
vn 0.668800 -0.441300 -0.598300
vn 0.692600 -0.406100 -0.596000
vn 0.615200 -0.363300 -0.699700
vn 0.517900 -0.337500 -0.786000
vn 0.720900 -0.486200 -0.493900
vn 0.680200 -0.550000 -0.484500
vn 0.725200 -0.571700 -0.383700
vn 0.753700 -0.526400 -0.393400
vn 0.762200 -0.530900 -0.370300
vn 0.742400 -0.464100 -0.483100
vn 0.636700 -0.623300 -0.454000
vn 0.554600 -0.580600 -0.596100
vn 0.695900 -0.630300 -0.344000
vn 0.478500 -0.498000 -0.723100
vn 0.426300 -0.417000 -0.802700
vn 0.595400 -0.351200 -0.722600
vn 0.461900 -0.339400 -0.819400
vn 0.696900 -0.399600 -0.595500
vn 0.667000 -0.443900 -0.598400
vn 0.510200 -0.376300 -0.773300
vn 0.423900 -0.344800 -0.837500
vn 0.752900 -0.475900 -0.454500
vn 0.755400 -0.571800 -0.320000
vn 0.745900 -0.599700 -0.289600
vn 0.734800 -0.554100 -0.391200
vn -0.769400 0.111500 -0.628900
vn -0.859600 -0.248100 -0.446600
vn -0.690200 0.234400 -0.684500
vn 0.423900 -0.344800 -0.837500
vn -0.443300 -0.884600 0.144300
vn -0.230100 -0.746200 0.624600
vn -0.456100 -0.878800 -0.140100
vn 0.745900 -0.599700 -0.289600
vn 0.492800 0.091100 0.865400
vn 0.649100 0.314600 0.692600
vn 0.393200 -0.088200 0.915200
vn 0.714000 -0.673400 -0.191600
vn 0.383100 0.795300 -0.469800
vn -0.049000 0.867500 -0.495000
vn 0.784400 0.591600 -0.185900
vn 0.306600 -0.350800 -0.884800
vn -0.344700 0.753900 -0.559300
vn -0.500300 0.619100 -0.605300
vn -0.665400 -0.708900 -0.233600
vn 0.083400 -0.563200 0.822000
vn 0.212400 -0.479800 0.851300
vn 0.845700 0.429100 0.317300
vn 0.335600 -0.224400 0.914900
vn 0.311600 -0.306900 0.899300
vn -0.579900 0.500300 -0.643000
vn -0.610400 0.423100 -0.669600
vn -0.635600 0.343500 -0.691300
vn 0.286100 -0.386000 0.877000
vt 0.839504 0.118056
vt 0.856743 0.205307
vt 0.741230 0.205307
vt 0.734555 0.106726
vt 0.724541 0.032791
vt 0.813647 0.052618
vt 0.868992 0.081539
vt 0.913398 0.129584
vt 0.940923 0.205307
vt 0.839504 0.292557
vt 0.813647 0.357995
vt 0.724541 0.377822
vt 0.734555 0.303887
vt 0.913398 0.281029
vt 0.868992 0.329074
vt 0.369475 0.299954
vt 0.368286 0.370940
vt 0.245840 0.351447
vt 0.246397 0.288815
vt 0.246768 0.205307
vt 0.370268 0.205307
vt 0.494283 0.205307
vt 0.492822 0.304944
vt 0.490632 0.379672
vt 0.369475 0.110659
vt 0.246397 0.121798
vt 0.245841 0.059166
vt 0.368286 0.039673
vt 0.490632 0.030941
vt 0.492822 0.105669
vt 0.616755 0.103478
vt 0.619174 0.205307
vt 0.613127 0.027106
vt 0.616755 0.307135
vt 0.613126 0.383507
vt 0.123273 0.268175
vt 0.123047 0.315326
vt 0.054743 0.283353
vt 0.030912 0.249131
vt 0.030973 0.205306
vt 0.123423 0.205306
vt 0.123273 0.142438
vt 0.030912 0.161481
vt 0.054744 0.127260
vt 0.123047 0.095287
vt 0.839504 0.118056
vt 0.856743 0.205307
vt 0.968983 0.205307
vt 0.938030 0.133427
vt 0.876123 0.061548
vt 0.805028 0.030806
vt 0.721203 0.008146
vt 0.734555 0.106726
vt 0.741230 0.205307
vt 0.839504 0.292557
vt 0.805028 0.379807
vt 0.876123 0.349065
vt 0.938030 0.277186
vt 0.734555 0.303887
vt 0.721203 0.402467
vt 0.369475 0.299954
vt 0.367890 0.394602
vt 0.489902 0.404581
vt 0.492822 0.304944
vt 0.494283 0.205307
vt 0.370268 0.205307
vt 0.246768 0.205307
vt 0.246397 0.288815
vt 0.245655 0.372324
vt 0.369475 0.110659
vt 0.492822 0.105669
vt 0.489902 0.006032
vt 0.367890 0.016011
vt 0.245655 0.038289
vt 0.246397 0.121798
vt 0.616755 0.103478
vt 0.619174 0.205307
vt 0.611917 0.001649
vt 0.616755 0.307135
vt 0.611917 0.408964
vt 0.123273 0.268175
vt 0.122972 0.331043
vt 0.123423 0.205306
vt 0.000156 0.205306
vt 0.000125 0.242784
vt 0.000064 0.280261
vt 0.123273 0.142438
vt 0.122972 0.079570
vt 0.000064 0.130352
vt 0.000125 0.167829
vt 0.122972 0.331043
vt 0.030806 0.283587
vt 0.245655 0.372324
vt 0.030806 0.283587
vt 0.000125 0.167829
vt 0.030806 0.127026
vt 0.000156 0.205306
vt 0.030806 0.127026
vt 0.805028 0.030806
vt 0.873826 0.071832
vt 0.721203 0.008146
vt 0.873826 0.071832
vt 0.938030 0.277186
vt 0.873826 0.338781
vt 0.968983 0.205307
vt 0.873826 0.338781
vt 0.805028 0.379807
vt 0.721203 0.402467
vt 0.000125 0.242784
vt 0.122972 0.079570
vt 0.245655 0.038289
vt 0.938030 0.133427
vt 0.611917 0.001649
vt 0.489902 0.006032
vt 0.611917 0.408964
vt 0.489902 0.404581
vt 0.367890 0.394602
vt 0.367890 0.016011
f 1/1/1 2/2/2 3/3/3
f 1/1/1 3/3/3 4/4/4
f 1/1/1 4/4/4 5/5/5
f 1/1/1 5/5/5 6/6/6
f 1/1/1 6/6/6 7/7/7
f 1/1/1 7/7/7 8/8/8
f 1/1/1 8/8/8 9/9/9
f 1/1/1 9/9/9 2/2/2
f 10/10/10 11/11/11 12/12/12
f 10/10/10 12/12/12 13/13/13
f 10/10/10 13/13/13 3/3/3
f 10/10/10 3/3/3 2/2/2
f 10/10/10 2/2/2 9/9/9
f 10/10/10 9/9/9 14/14/14
f 10/10/10 14/14/14 15/15/15
f 10/10/10 15/15/15 11/11/11
f 16/16/16 17/17/17 18/18/18
f 16/16/16 18/18/18 19/19/19
f 16/16/16 19/19/19 20/20/20
f 16/16/16 20/20/20 21/21/21
f 16/16/16 21/21/21 22/22/22
f 16/16/16 22/22/22 23/23/23
f 16/16/16 23/23/23 24/24/24
f 16/16/16 24/24/24 17/17/17
f 25/25/25 21/21/21 20/20/20
f 25/25/25 20/20/20 26/26/26
f 25/25/25 26/26/26 27/27/27
f 25/25/25 27/27/27 28/28/28
f 25/25/25 28/28/28 29/29/29
f 25/25/25 29/29/29 30/30/30
f 25/25/25 30/30/30 22/22/22
f 25/25/25 22/22/22 21/21/21
f 31/31/31 32/32/32 22/22/22
f 31/31/31 22/22/22 30/30/30
f 31/31/31 30/30/30 29/29/29
f 31/31/31 29/29/29 33/33/33
f 31/31/31 33/33/33 5/5/5
f 31/31/31 5/5/5 4/4/4
f 31/31/31 4/4/4 3/3/3
f 31/31/31 3/3/3 32/32/32
f 34/34/34 35/35/35 24/24/24
f 34/34/34 24/24/24 23/23/23
f 34/34/34 23/23/23 22/22/22
f 34/34/34 22/22/22 32/32/32
f 34/34/34 32/32/32 3/3/3
f 34/34/34 3/3/3 13/13/13
f 34/34/34 13/13/13 12/12/12
f 34/34/34 12/12/12 35/35/35
f 36/36/36 37/37/37 38/38/38
f 36/36/36 38/38/38 39/39/39
f 36/36/36 39/39/39 40/40/40
f 36/36/36 40/40/40 41/41/41
f 36/36/36 41/41/41 20/20/20
f 36/36/36 20/20/20 19/19/19
f 36/36/36 19/19/19 18/18/18
f 36/36/36 18/18/18 37/37/37
f 42/42/42 41/41/41 40/40/40
f 42/42/42 40/40/40 43/43/43
f 42/42/42 43/43/43 44/44/44
f 42/42/42 44/44/44 45/45/45
f 42/42/42 45/45/45 27/27/27
f 42/42/42 27/27/27 26/26/26
f 42/42/42 26/26/26 20/20/20
f 42/42/42 20/20/20 41/41/41
f 46/46/46 47/47/47 48/48/48
f 46/46/46 48/48/48 49/49/49
f 46/46/46 49/49/49 50/50/50
f 46/46/46 50/50/50 51/51/51
f 46/46/46 51/51/51 52/52/52
f 46/46/46 52/52/52 53/53/53
f 46/46/46 53/53/53 54/54/54
f 46/46/46 54/54/54 47/47/47
f 55/55/55 56/56/56 57/57/57
f 55/55/55 57/57/57 58/58/58
f 55/55/55 58/58/58 48/48/48
f 55/55/55 48/48/48 47/47/47
f 55/55/55 47/47/47 54/54/54
f 55/55/55 54/54/54 59/59/59
f 55/55/55 59/59/59 60/60/60
f 55/55/55 60/60/60 56/56/56
f 61/61/61 62/62/62 63/63/63
f 61/61/61 63/63/63 64/64/64
f 61/61/61 64/64/64 65/65/65
f 61/61/61 65/65/65 66/66/66
f 61/61/61 66/66/66 67/67/67
f 61/61/61 67/67/67 68/68/68
f 61/61/61 68/68/68 69/69/69
f 61/61/61 69/69/69 62/62/62
f 70/70/70 66/66/66 65/65/65
f 70/70/70 65/65/65 71/71/71
f 70/70/70 71/71/71 72/72/72
f 70/70/70 72/72/72 73/73/73
f 70/70/70 73/73/73 74/74/74
f 70/70/70 74/74/74 75/75/75
f 70/70/70 75/75/75 67/67/67
f 70/70/70 67/67/67 66/66/66
f 76/76/76 77/77/77 54/54/54
f 76/76/76 54/54/54 53/53/53
f 76/76/76 53/53/53 52/52/52
f 76/76/76 52/52/52 78/78/78
f 76/76/76 78/78/78 72/72/72
f 76/76/76 72/72/72 71/71/71
f 76/76/76 71/71/71 65/65/65
f 76/76/76 65/65/65 77/77/77
f 79/79/79 80/80/80 60/60/60
f 79/79/79 60/60/60 59/59/59
f 79/79/79 59/59/59 54/54/54
f 79/79/79 54/54/54 77/77/77
f 79/79/79 77/77/77 65/65/65
f 79/79/79 65/65/65 64/64/64
f 79/79/79 64/64/64 63/63/63
f 79/79/79 63/63/63 80/80/80
f 81/81/81 82/82/82 69/69/69
f 81/81/81 69/69/69 68/68/68
f 81/81/81 68/68/68 67/67/67
f 81/81/81 67/67/67 83/83/83
f 81/81/81 83/83/83 84/84/84
f 81/81/81 84/84/84 85/85/85
f 81/81/81 85/85/85 86/86/86
f 81/81/81 86/86/86 82/82/82
f 87/87/87 83/83/83 67/67/67
f 87/87/87 67/67/67 75/75/75
f 87/87/87 75/75/75 74/74/74
f 87/87/87 74/74/74 88/88/88
f 87/87/87 88/88/88 89/89/89
f 87/87/87 89/89/89 90/90/90
f 87/87/87 90/90/90 84/84/84
f 87/87/87 84/84/84 83/83/83
f 91/91/91 92/92/92 38/38/38
f 91/91/91 38/38/38 37/37/37
f 91/91/91 37/37/37 18/18/18
f 91/91/91 18/18/18 93/93/93
f 91/91/91 93/93/93 69/69/69
f 91/91/91 69/69/69 82/82/82
f 91/91/91 82/82/82 94/94/94
f 91/91/91 94/94/94 92/92/92
f 95/95/95 96/96/96 44/44/44
f 95/95/95 44/44/44 43/43/43
f 95/95/95 43/43/43 40/40/40
f 95/95/95 40/40/40 97/97/97
f 95/95/95 97/97/97 84/84/84
f 95/95/95 84/84/84 90/90/90
f 95/95/95 90/90/90 98/98/98
f 95/95/95 98/98/98 96/96/96
f 99/99/99 100/100/100 7/7/7
f 99/99/99 7/7/7 6/6/6
f 99/99/99 6/6/6 5/5/5
f 99/99/99 5/5/5 101/101/101
f 99/99/99 101/101/101 52/52/52
f 99/99/99 52/52/52 51/51/51
f 99/99/99 51/51/51 102/102/102
f 99/99/99 102/102/102 100/100/100
f 103/103/103 104/104/104 15/15/15
f 103/103/103 15/15/15 14/14/14
f 103/103/103 14/14/14 9/9/9
f 103/103/103 9/9/9 105/105/105
f 103/103/103 105/105/105 48/48/48
f 103/103/103 48/48/48 58/58/58
f 103/103/103 58/58/58 106/106/106
f 103/103/103 106/106/106 104/104/104
f 107/107/107 108/108/108 12/12/12
f 107/107/107 12/12/12 11/11/11
f 107/107/107 11/11/11 15/15/15
f 107/107/107 15/15/15 104/104/104
f 107/107/107 104/104/104 106/106/106
f 107/107/107 106/106/106 56/56/56
f 107/107/107 56/56/56 60/60/60
f 107/107/107 60/60/60 108/108/108
f 109/109/109 97/97/97 40/40/40
f 109/109/109 40/40/40 39/39/39
f 109/109/109 39/39/39 38/38/38
f 109/109/109 38/38/38 92/92/92
f 109/109/109 92/92/92 94/94/94
f 109/109/109 94/94/94 85/85/85
f 109/109/109 85/85/85 84/84/84
f 109/109/109 84/84/84 97/97/97
f 110/110/110 111/111/111 27/27/27
f 110/110/110 27/27/27 45/45/45
f 110/110/110 45/45/45 44/44/44
f 110/110/110 44/44/44 96/96/96
f 110/110/110 96/96/96 98/98/98
f 110/110/110 98/98/98 88/88/88
f 110/110/110 88/88/88 74/74/74
f 110/110/110 74/74/74 111/111/111
f 112/112/112 105/105/105 9/9/9
f 112/112/112 9/9/9 8/8/8
f 112/112/112 8/8/8 7/7/7
f 112/112/112 7/7/7 100/100/100
f 112/112/112 100/100/100 102/102/102
f 112/112/112 102/102/102 49/49/49
f 112/112/112 49/49/49 48/48/48
f 112/112/112 48/48/48 105/105/105
f 113/113/113 101/101/101 5/5/5
f 113/113/113 5/5/5 33/33/33
f 113/113/113 33/33/33 29/29/29
f 113/113/113 29/29/29 114/114/114
f 113/113/113 114/114/114 72/72/72
f 113/113/113 72/72/72 78/78/78
f 113/113/113 78/78/78 52/52/52
f 113/113/113 52/52/52 101/101/101
f 115/115/115 116/116/116 24/24/24
f 115/115/115 24/24/24 35/35/35
f 115/115/115 35/35/35 12/12/12
f 115/115/115 12/12/12 108/108/108
f 115/115/115 108/108/108 60/60/60
f 115/115/115 60/60/60 80/80/80
f 115/115/115 80/80/80 63/63/63
f 115/115/115 63/63/63 116/116/116
f 117/117/117 93/93/93 18/18/18
f 117/117/117 18/18/18 17/17/17
f 117/117/117 17/17/17 24/24/24
f 117/117/117 24/24/24 116/116/116
f 117/117/117 116/116/116 63/63/63
f 117/117/117 63/63/63 62/62/62
f 117/117/117 62/62/62 69/69/69
f 117/117/117 69/69/69 93/93/93
f 118/118/118 114/114/114 29/29/29
f 118/118/118 29/29/29 28/28/28
f 118/118/118 28/28/28 27/27/27
f 118/118/118 27/27/27 111/111/111
f 118/118/118 111/111/111 74/74/74
f 118/118/118 74/74/74 73/73/73
f 118/118/118 73/73/73 72/72/72
f 118/118/118 72/72/72 114/114/114
