v -2.396354 0.682245 -1.092929
v -2.398160 0.683142 -1.094030
v -2.399397 0.680674 -1.092713
v -2.397202 0.679893 -1.091663
v -2.395625 0.679301 -1.090622
v -2.395152 0.681403 -1.091750
v -2.395209 0.682722 -1.092779
v -2.395819 0.683875 -1.093954
v -2.397246 0.684898 -1.095086
v -2.400403 0.683635 -1.094125
v -2.402254 0.683841 -1.093848
v -2.403692 0.682070 -1.093004
v -2.401804 0.681473 -1.093022
v -2.399324 0.685079 -1.094989
v -2.400960 0.684696 -1.094478
v -2.405432 0.673006 -1.090394
v -2.407182 0.673633 -1.090658
v -2.407880 0.670452 -1.090130
v -2.406327 0.669897 -1.089911
v -2.404294 0.669180 -1.089491
v -2.403136 0.672196 -1.089906
v -2.401939 0.675144 -1.090534
v -2.404343 0.675999 -1.091024
v -2.406181 0.676666 -1.091266
v -2.400922 0.671457 -1.089062
v -2.402339 0.668527 -1.088733
v -2.400891 0.668053 -1.088066
v -2.399281 0.670920 -1.088324
v -2.397915 0.673828 -1.088825
v -2.399626 0.674379 -1.089631
v -2.398339 0.677231 -1.090530
v -2.400675 0.677989 -1.091508
v -2.396621 0.676699 -1.089619
v -2.403126 0.678875 -1.091944
v -2.405009 0.679578 -1.092096
v -2.406966 0.666673 -1.089429
v -2.408139 0.667097 -1.089541
v -2.407978 0.665111 -1.089235
v -2.407346 0.664207 -1.089098
v -2.406288 0.663827 -1.088961
v -2.405440 0.666132 -1.089155
v -2.403990 0.665651 -1.088550
v -2.405307 0.663507 -1.088495
v -2.404308 0.663851 -1.088151
v -2.402920 0.665305 -1.088000
v -2.396300 0.682122 -1.093129
v -2.398137 0.683029 -1.094240
v -2.397230 0.684811 -1.095243
v -2.395779 0.683780 -1.094102
v -2.395172 0.682651 -1.092886
v -2.395096 0.681308 -1.091894
v -2.395571 0.679213 -1.090770
v -2.397148 0.679780 -1.091868
v -2.399370 0.680568 -1.092927
v -2.400410 0.683533 -1.094343
v -2.402274 0.683772 -1.094014
v -2.400972 0.684642 -1.094599
v -2.399333 0.685000 -1.095151
v -2.401804 0.681379 -1.093243
v -2.403706 0.682005 -1.093173
v -2.405406 0.672947 -1.090627
v -2.407173 0.673592 -1.090834
v -2.406177 0.676617 -1.091441
v -2.404324 0.675929 -1.091254
v -2.401899 0.675067 -1.090758
v -2.403091 0.672131 -1.090134
v -2.404246 0.669124 -1.089720
v -2.406298 0.669847 -1.090146
v -2.407868 0.670419 -1.090308
v -2.400857 0.671386 -1.089284
v -2.399565 0.674295 -1.089848
v -2.397860 0.673762 -1.088984
v -2.399223 0.670863 -1.088486
v -2.400831 0.668003 -1.088229
v -2.402271 0.668465 -1.088956
v -2.398283 0.677132 -1.090742
v -2.400641 0.677896 -1.091728
v -2.396567 0.676621 -1.089773
v -2.403116 0.678791 -1.092169
v -2.405014 0.679521 -1.092268
v -2.406938 0.666627 -1.089665
v -2.408128 0.667066 -1.089720
v -2.405390 0.666079 -1.089385
v -2.406251 0.663787 -1.089134
v -2.407326 0.664173 -1.089275
v -2.407967 0.665088 -1.089367
v -2.403920 0.665591 -1.088773
v -2.402857 0.665257 -1.088163
v -2.404264 0.663817 -1.088273
v -2.405253 0.663462 -1.088663
v -2.408528 0.667225 -1.089658
v -2.408204 0.664513 -1.089178
v -2.408395 0.670623 -1.090282
v -2.407967 0.665088 -1.089367
v -2.405722 0.662772 -1.088551
v -2.404528 0.663251 -1.088092
v -2.406555 0.663041 -1.088974
v -2.404264 0.663817 -1.088273
v -2.394723 0.681079 -1.091420
v -2.394924 0.682771 -1.092726
v -2.395072 0.679063 -1.090339
v -2.395172 0.682651 -1.092886
v -2.398969 0.685525 -1.095349
v -2.401146 0.684907 -1.094564
v -2.396934 0.685444 -1.095507
v -2.400972 0.684642 -1.094599
v -2.402883 0.683880 -1.093830
v -2.404331 0.682242 -1.093074
v -2.407464 0.663370 -1.089066
v -2.402534 0.665167 -1.087888
v -2.400379 0.667872 -1.087915
v -2.395623 0.684376 -1.094361
v -2.396022 0.676486 -1.089382
v -2.397318 0.673614 -1.088626
v -2.405642 0.679788 -1.092224
v -2.406794 0.676867 -1.091425
v -2.407764 0.673825 -1.090824
v -2.398706 0.670715 -1.088149
vn -0.279000 0.554300 0.784100
vn -0.075100 0.515600 0.853500
vn -0.099200 0.466900 0.878700
vn -0.282500 0.500100 0.818500
vn -0.284200 0.476800 0.831700
vn -0.272100 0.552300 0.787900
vn -0.261600 0.603000 0.753600
vn -0.205800 0.618500 0.758300
vn -0.036800 0.587900 0.808100
vn 0.115500 0.418900 0.900700
vn 0.108000 0.421900 0.900200
vn 0.051400 0.361600 0.930900
vn 0.070100 0.379000 0.922700
vn 0.116400 0.508100 0.853400
vn 0.146800 0.463100 0.874100
vn -0.096500 0.208700 0.973200
vn -0.133800 0.213300 0.967800
vn -0.148100 0.184400 0.971600
vn -0.101000 0.175300 0.979300
vn -0.212200 0.203900 0.955700
vn -0.197000 0.243300 0.949700
vn -0.165300 0.320900 0.932600
vn -0.055900 0.273400 0.960300
vn -0.087600 0.267100 0.959700
vn -0.294500 0.276600 0.914700
vn -0.313400 0.248200 0.916600
vn -0.273400 0.227400 0.934600
vn -0.264500 0.258100 0.929200
vn -0.260400 0.326400 0.908600
vn -0.278100 0.349600 0.894700
vn -0.273500 0.433400 0.858600
vn -0.128800 0.403800 0.905700
vn -0.269000 0.406100 0.873300
vn 0.006500 0.337300 0.941300
vn -0.019300 0.320400 0.947100
vn -0.082200 0.153400 0.984700
vn -0.134200 0.159100 0.978100
vn -0.110400 0.132700 0.985000
vn -0.081200 0.093000 0.992300
vn -0.238800 0.132300 0.962000
vn -0.219300 0.185200 0.957900
vn -0.341000 0.242300 0.908300
vn -0.379700 0.195500 0.904200
vn -0.334400 0.209700 0.918800
vn -0.300300 0.216200 0.929000
vn 0.312800 -0.540400 -0.781100
vn 0.081800 -0.502300 -0.860800
vn 0.107300 -0.450000 -0.886500
vn 0.411000 -0.497200 -0.764100
vn 0.516900 -0.486000 -0.704700
vn 0.493600 -0.492800 -0.716500
vn 0.437000 -0.484000 -0.758100
vn 0.296500 -0.502000 -0.812400
vn 0.099200 -0.467000 -0.878700
vn -0.131300 -0.388000 -0.912300
vn -0.255200 -0.235800 -0.937700
vn -0.272500 -0.215400 -0.937700
vn -0.179800 -0.294700 -0.938500
vn -0.083400 -0.371600 -0.924600
vn -0.192300 -0.268000 -0.944000
vn 0.081000 -0.204300 -0.975500
vn -0.027600 -0.173700 -0.984400
vn -0.057900 -0.217700 -0.974300
vn 0.041800 -0.268400 -0.962400
vn 0.165300 -0.320800 -0.932600
vn 0.197000 -0.243100 -0.949800
vn 0.212300 -0.203800 -0.955700
vn 0.082200 -0.172200 -0.981600
vn -0.050000 -0.162600 -0.985400
vn 0.308400 -0.282400 -0.908400
vn 0.291200 -0.354000 -0.888700
vn 0.391800 -0.372100 -0.841500
vn 0.401700 -0.321100 -0.857600
vn 0.423400 -0.325100 -0.845600
vn 0.328800 -0.256800 -0.908800
vn 0.286400 -0.436900 -0.852700
vn 0.128800 -0.403900 -0.905700
vn 0.401700 -0.438200 -0.804100
vn -0.019900 -0.331700 -0.943100
vn -0.120400 -0.258900 -0.958300
vn 0.051100 -0.163200 -0.985300
vn -0.113800 -0.174500 -0.978000
vn 0.215000 -0.196600 -0.956600
vn 0.195900 -0.246100 -0.949200
vn -0.043000 -0.203000 -0.978200
vn -0.153600 -0.186900 -0.970300
vn 0.356200 -0.268000 -0.895100
vn 0.455000 -0.369800 -0.810100
vn 0.470400 -0.401100 -0.786000
vn 0.392200 -0.352400 -0.849700
vn -0.999800 -0.018000 -0.005400
vn -0.908200 -0.400100 0.122900
vn -0.989700 0.122700 -0.072800
vn -0.153600 -0.186900 -0.970300
vn -0.135900 -0.967800 0.211600
vn 0.311300 -0.818400 0.483000
vn -0.324700 -0.945800 -0.000700
vn 0.470400 -0.401100 -0.786000
vn 0.908700 0.139200 0.393500
vn 0.891400 0.402700 0.207800
vn 0.886700 -0.060800 0.458300
vn 0.516900 -0.486000 -0.704700
vn -0.103000 0.889400 -0.445300
vn -0.460600 0.866600 -0.191700
vn 0.410000 0.760100 -0.504100
vn -0.272500 -0.215400 -0.937700
vn -0.713200 0.695700 -0.085400
vn -0.844100 0.533500 -0.053200
vn -0.565600 -0.820300 0.084700
vn 0.651700 -0.585100 0.482600
vn 0.758400 -0.477600 0.443400
vn 0.793000 0.581900 -0.180400
vn 0.859900 -0.205900 0.467000
vn 0.842500 -0.290400 0.453700
vn -0.913400 0.402800 -0.057000
vn -0.943600 0.322600 -0.073800
vn -0.966200 0.241200 -0.090400
vn 0.819100 -0.371700 0.436800
vt 0.839504 0.118056
vt 0.856743 0.205307
vt 0.741230 0.205307
vt 0.734555 0.106726
vt 0.724541 0.032791
vt 0.813647 0.052618
vt 0.868992 0.081539
vt 0.913398 0.129584
vt 0.940923 0.205307
vt 0.839504 0.292557
vt 0.813647 0.357995
vt 0.724541 0.377822
vt 0.734555 0.303887
vt 0.913398 0.281029
vt 0.868992 0.329074
vt 0.369475 0.299954
vt 0.368286 0.370940
vt 0.245840 0.351447
vt 0.246397 0.288815
vt 0.246768 0.205307
vt 0.370268 0.205307
vt 0.494283 0.205307
vt 0.492822 0.304944
vt 0.490632 0.379672
vt 0.369475 0.110659
vt 0.246397 0.121798
vt 0.245841 0.059166
vt 0.368286 0.039673
vt 0.490632 0.030941
vt 0.492822 0.105669
vt 0.616755 0.103478
vt 0.619174 0.205307
vt 0.613127 0.027106
vt 0.616755 0.307135
vt 0.613126 0.383507
vt 0.123273 0.268175
vt 0.123047 0.315326
vt 0.054743 0.283353
vt 0.030912 0.249131
vt 0.030973 0.205306
vt 0.123423 0.205306
vt 0.123273 0.142438
vt 0.030912 0.161481
vt 0.054744 0.127260
vt 0.123047 0.095287
vt 0.839504 0.118056
vt 0.856743 0.205307
vt 0.968983 0.205307
vt 0.938030 0.133427
vt 0.876123 0.061548
vt 0.805028 0.030806
vt 0.721203 0.008146
vt 0.734555 0.106726
vt 0.741230 0.205307
vt 0.839504 0.292557
vt 0.805028 0.379807
vt 0.876123 0.349065
vt 0.938030 0.277186
vt 0.734555 0.303887
vt 0.721203 0.402467
vt 0.369475 0.299954
vt 0.367890 0.394602
vt 0.489902 0.404581
vt 0.492822 0.304944
vt 0.494283 0.205307
vt 0.370268 0.205307
vt 0.246768 0.205307
vt 0.246397 0.288815
vt 0.245655 0.372324
vt 0.369475 0.110659
vt 0.492822 0.105669
vt 0.489902 0.006032
vt 0.367890 0.016011
vt 0.245655 0.038289
vt 0.246397 0.121798
vt 0.616755 0.103478
vt 0.619174 0.205307
vt 0.611917 0.001649
vt 0.616755 0.307135
vt 0.611917 0.408964
vt 0.123273 0.268175
vt 0.122972 0.331043
vt 0.123423 0.205306
vt 0.000156 0.205306
vt 0.000125 0.242784
vt 0.000064 0.280261
vt 0.123273 0.142438
vt 0.122972 0.079570
vt 0.000064 0.130352
vt 0.000125 0.167829
vt 0.122972 0.331043
vt 0.030806 0.283587
vt 0.245655 0.372324
vt 0.030806 0.283587
vt 0.000125 0.167829
vt 0.030806 0.127026
vt 0.000156 0.205306
vt 0.030806 0.127026
vt 0.805028 0.030806
vt 0.873826 0.071832
vt 0.721203 0.008146
vt 0.873826 0.071832
vt 0.938030 0.277186
vt 0.873826 0.338781
vt 0.968983 0.205307
vt 0.873826 0.338781
vt 0.805028 0.379807
vt 0.721203 0.402467
vt 0.000125 0.242784
vt 0.122972 0.079570
vt 0.245655 0.038289
vt 0.938030 0.133427
vt 0.611917 0.001649
vt 0.489902 0.006032
vt 0.611917 0.408964
vt 0.489902 0.404581
vt 0.367890 0.394602
vt 0.367890 0.016011
f 1/1/1 2/2/2 3/3/3
f 1/1/1 3/3/3 4/4/4
f 1/1/1 4/4/4 5/5/5
f 1/1/1 5/5/5 6/6/6
f 1/1/1 6/6/6 7/7/7
f 1/1/1 7/7/7 8/8/8
f 1/1/1 8/8/8 9/9/9
f 1/1/1 9/9/9 2/2/2
f 10/10/10 11/11/11 12/12/12
f 10/10/10 12/12/12 13/13/13
f 10/10/10 13/13/13 3/3/3
f 10/10/10 3/3/3 2/2/2
f 10/10/10 2/2/2 9/9/9
f 10/10/10 9/9/9 14/14/14
f 10/10/10 14/14/14 15/15/15
f 10/10/10 15/15/15 11/11/11
f 16/16/16 17/17/17 18/18/18
f 16/16/16 18/18/18 19/19/19
f 16/16/16 19/19/19 20/20/20
f 16/16/16 20/20/20 21/21/21
f 16/16/16 21/21/21 22/22/22
f 16/16/16 22/22/22 23/23/23
f 16/16/16 23/23/23 24/24/24
f 16/16/16 24/24/24 17/17/17
f 25/25/25 21/21/21 20/20/20
f 25/25/25 20/20/20 26/26/26
f 25/25/25 26/26/26 27/27/27
f 25/25/25 27/27/27 28/28/28
f 25/25/25 28/28/28 29/29/29
f 25/25/25 29/29/29 30/30/30
f 25/25/25 30/30/30 22/22/22
f 25/25/25 22/22/22 21/21/21
f 31/31/31 32/32/32 22/22/22
f 31/31/31 22/22/22 30/30/30
f 31/31/31 30/30/30 29/29/29
f 31/31/31 29/29/29 33/33/33
f 31/31/31 33/33/33 5/5/5
f 31/31/31 5/5/5 4/4/4
f 31/31/31 4/4/4 3/3/3
f 31/31/31 3/3/3 32/32/32
f 34/34/34 35/35/35 24/24/24
f 34/34/34 24/24/24 23/23/23
f 34/34/34 23/23/23 22/22/22
f 34/34/34 22/22/22 32/32/32
f 34/34/34 32/32/32 3/3/3
f 34/34/34 3/3/3 13/13/13
f 34/34/34 13/13/13 12/12/12
f 34/34/34 12/12/12 35/35/35
f 36/36/36 37/37/37 38/38/38
f 36/36/36 38/38/38 39/39/39
f 36/36/36 39/39/39 40/40/40
f 36/36/36 40/40/40 41/41/41
f 36/36/36 41/41/41 20/20/20
f 36/36/36 20/20/20 19/19/19
f 36/36/36 19/19/19 18/18/18
f 36/36/36 18/18/18 37/37/37
f 42/42/42 41/41/41 40/40/40
f 42/42/42 40/40/40 43/43/43
f 42/42/42 43/43/43 44/44/44
f 42/42/42 44/44/44 45/45/45
f 42/42/42 45/45/45 27/27/27
f 42/42/42 27/27/27 26/26/26
f 42/42/42 26/26/26 20/20/20
f 42/42/42 20/20/20 41/41/41
f 46/46/46 47/47/47 48/48/48
f 46/46/46 48/48/48 49/49/49
f 46/46/46 49/49/49 50/50/50
f 46/46/46 50/50/50 51/51/51
f 46/46/46 51/51/51 52/52/52
f 46/46/46 52/52/52 53/53/53
f 46/46/46 53/53/53 54/54/54
f 46/46/46 54/54/54 47/47/47
f 55/55/55 56/56/56 57/57/57
f 55/55/55 57/57/57 58/58/58
f 55/55/55 58/58/58 48/48/48
f 55/55/55 48/48/48 47/47/47
f 55/55/55 47/47/47 54/54/54
f 55/55/55 54/54/54 59/59/59
f 55/55/55 59/59/59 60/60/60
f 55/55/55 60/60/60 56/56/56
f 61/61/61 62/62/62 63/63/63
f 61/61/61 63/63/63 64/64/64
f 61/61/61 64/64/64 65/65/65
f 61/61/61 65/65/65 66/66/66
f 61/61/61 66/66/66 67/67/67
f 61/61/61 67/67/67 68/68/68
f 61/61/61 68/68/68 69/69/69
f 61/61/61 69/69/69 62/62/62
f 70/70/70 66/66/66 65/65/65
f 70/70/70 65/65/65 71/71/71
f 70/70/70 71/71/71 72/72/72
f 70/70/70 72/72/72 73/73/73
f 70/70/70 73/73/73 74/74/74
f 70/70/70 74/74/74 75/75/75
f 70/70/70 75/75/75 67/67/67
f 70/70/70 67/67/67 66/66/66
f 76/76/76 77/77/77 54/54/54
f 76/76/76 54/54/54 53/53/53
f 76/76/76 53/53/53 52/52/52
f 76/76/76 52/52/52 78/78/78
f 76/76/76 78/78/78 72/72/72
f 76/76/76 72/72/72 71/71/71
f 76/76/76 71/71/71 65/65/65
f 76/76/76 65/65/65 77/77/77
f 79/79/79 80/80/80 60/60/60
f 79/79/79 60/60/60 59/59/59
f 79/79/79 59/59/59 54/54/54
f 79/79/79 54/54/54 77/77/77
f 79/79/79 77/77/77 65/65/65
f 79/79/79 65/65/65 64/64/64
f 79/79/79 64/64/64 63/63/63
f 79/79/79 63/63/63 80/80/80
f 81/81/81 82/82/82 69/69/69
f 81/81/81 69/69/69 68/68/68
f 81/81/81 68/68/68 67/67/67
f 81/81/81 67/67/67 83/83/83
f 81/81/81 83/83/83 84/84/84
f 81/81/81 84/84/84 85/85/85
f 81/81/81 85/85/85 86/86/86
f 81/81/81 86/86/86 82/82/82
f 87/87/87 83/83/83 67/67/67
f 87/87/87 67/67/67 75/75/75
f 87/87/87 75/75/75 74/74/74
f 87/87/87 74/74/74 88/88/88
f 87/87/87 88/88/88 89/89/89
f 87/87/87 89/89/89 90/90/90
f 87/87/87 90/90/90 84/84/84
f 87/87/87 84/84/84 83/83/83
f 91/91/91 92/92/92 38/38/38
f 91/91/91 38/38/38 37/37/37
f 91/91/91 37/37/37 18/18/18
f 91/91/91 18/18/18 93/93/93
f 91/91/91 93/93/93 69/69/69
f 91/91/91 69/69/69 82/82/82
f 91/91/91 82/82/82 94/94/94
f 91/91/91 94/94/94 92/92/92
f 95/95/95 96/96/96 44/44/44
f 95/95/95 44/44/44 43/43/43
f 95/95/95 43/43/43 40/40/40
f 95/95/95 40/40/40 97/97/97
f 95/95/95 97/97/97 84/84/84
f 95/95/95 84/84/84 90/90/90
f 95/95/95 90/90/90 98/98/98
f 95/95/95 98/98/98 96/96/96
f 99/99/99 100/100/100 7/7/7
f 99/99/99 7/7/7 6/6/6
f 99/99/99 6/6/6 5/5/5
f 99/99/99 5/5/5 101/101/101
f 99/99/99 101/101/101 52/52/52
f 99/99/99 52/52/52 51/51/51
f 99/99/99 51/51/51 102/102/102
f 99/99/99 102/102/102 100/100/100
f 103/103/103 104/104/104 15/15/15
f 103/103/103 15/15/15 14/14/14
f 103/103/103 14/14/14 9/9/9
f 103/103/103 9/9/9 105/105/105
f 103/103/103 105/105/105 48/48/48
f 103/103/103 48/48/48 58/58/58
f 103/103/103 58/58/58 106/106/106
f 103/103/103 106/106/106 104/104/104
f 107/107/107 108/108/108 12/12/12
f 107/107/107 12/12/12 11/11/11
f 107/107/107 11/11/11 15/15/15
f 107/107/107 15/15/15 104/104/104
f 107/107/107 104/104/104 106/106/106
f 107/107/107 106/106/106 56/56/56
f 107/107/107 56/56/56 60/60/60
f 107/107/107 60/60/60 108/108/108
f 109/109/109 97/97/97 40/40/40
f 109/109/109 40/40/40 39/39/39
f 109/109/109 39/39/39 38/38/38
f 109/109/109 38/38/38 92/92/92
f 109/109/109 92/92/92 94/94/94
f 109/109/109 94/94/94 85/85/85
f 109/109/109 85/85/85 84/84/84
f 109/109/109 84/84/84 97/97/97
f 110/110/110 111/111/111 27/27/27
f 110/110/110 27/27/27 45/45/45
f 110/110/110 45/45/45 44/44/44
f 110/110/110 44/44/44 96/96/96
f 110/110/110 96/96/96 98/98/98
f 110/110/110 98/98/98 88/88/88
f 110/110/110 88/88/88 74/74/74
f 110/110/110 74/74/74 111/111/111
f 112/112/112 105/105/105 9/9/9
f 112/112/112 9/9/9 8/8/8
f 112/112/112 8/8/8 7/7/7
f 112/112/112 7/7/7 100/100/100
f 112/112/112 100/100/100 102/102/102
f 112/112/112 102/102/102 49/49/49
f 112/112/112 49/49/49 48/48/48
f 112/112/112 48/48/48 105/105/105
f 113/113/113 101/101/101 5/5/5
f 113/113/113 5/5/5 33/33/33
f 113/113/113 33/33/33 29/29/29
f 113/113/113 29/29/29 114/114/114
f 113/113/113 114/114/114 72/72/72
f 113/113/113 72/72/72 78/78/78
f 113/113/113 78/78/78 52/52/52
f 113/113/113 52/52/52 101/101/101
f 115/115/115 116/116/116 24/24/24
f 115/115/115 24/24/24 35/35/35
f 115/115/115 35/35/35 12/12/12
f 115/115/115 12/12/12 108/108/108
f 115/115/115 108/108/108 60/60/60
f 115/115/115 60/60/60 80/80/80
f 115/115/115 80/80/80 63/63/63
f 115/115/115 63/63/63 116/116/116
f 117/117/117 93/93/93 18/18/18
f 117/117/117 18/18/18 17/17/17
f 117/117/117 17/17/17 24/24/24
f 117/117/117 24/24/24 116/116/116
f 117/117/117 116/116/116 63/63/63
f 117/117/117 63/63/63 62/62/62
f 117/117/117 62/62/62 69/69/69
f 117/117/117 69/69/69 93/93/93
f 118/118/118 114/114/114 29/29/29
f 118/118/118 29/29/29 28/28/28
f 118/118/118 28/28/28 27/27/27
f 118/118/118 27/27/27 111/111/111
f 118/118/118 111/111/111 74/74/74
f 118/118/118 74/74/74 73/73/73
f 118/118/118 73/73/73 72/72/72
f 118/118/118 72/72/72 114/114/114
