v -1.220802 1.883074 -2.204213
v -1.220962 1.883074 -2.206475
v -1.221356 1.884788 -2.206148
v -1.221203 1.884894 -2.204044
v -1.222495 1.886280 -2.205509
v -1.222402 1.886485 -2.203541
v -1.221959 1.883074 -2.208000
v -1.222291 1.884713 -2.207567
v -1.222962 1.885855 -2.206689
v -1.221806 1.884788 -2.201623
v -1.221444 1.883074 -2.201613
v -1.223115 1.884713 -2.199263
v -1.222844 1.883074 -2.199082
v -1.222911 1.886280 -2.201321
v -1.223663 1.885855 -2.199628
v -1.221806 1.881360 -2.201623
v -1.221203 1.881254 -2.204044
v -1.222911 1.879868 -2.201321
v -1.222402 1.879663 -2.203541
v -1.223115 1.881435 -2.199263
v -1.223663 1.880294 -2.199628
v -1.221356 1.881360 -2.206148
v -1.222291 1.881435 -2.207567
v -1.222495 1.879868 -2.205509
v -1.222962 1.880294 -2.206689
v -1.240062 1.883074 -2.196756
v -1.237191 1.883074 -2.195293
v -1.237148 1.885346 -2.195726
v -1.239983 1.885191 -2.197152
v -1.237019 1.887240 -2.197026
v -1.239821 1.886953 -2.198388
v -1.234007 1.883074 -2.194536
v -1.233964 1.885393 -2.194969
v -1.233835 1.887326 -2.196269
v -1.242206 1.884914 -2.199041
v -1.242393 1.883074 -2.198756
v -1.243757 1.884713 -2.201312
v -1.244058 1.883074 -2.201188
v -1.241944 1.886437 -2.200084
v -1.243147 1.885855 -2.201563
v -1.242206 1.881235 -2.199041
v -1.239983 1.880957 -2.197152
v -1.241944 1.879711 -2.200084
v -1.239821 1.879196 -2.198388
v -1.243757 1.881435 -2.201312
v -1.243147 1.880294 -2.201563
v -1.237148 1.880802 -2.195726
v -1.233964 1.880755 -2.194969
v -1.237019 1.878909 -2.197026
v -1.233835 1.878822 -2.196269
v -1.245052 1.883074 -2.206620
v -1.244933 1.883074 -2.203945
v -1.244577 1.884788 -2.203884
v -1.244692 1.884894 -2.206376
v -1.243553 1.886280 -2.203370
v -1.243615 1.886485 -2.205647
v -1.244128 1.884788 -2.208409
v -1.244450 1.883074 -2.208807
v -1.242933 1.884713 -2.209616
v -1.243173 1.883074 -2.210106
v -1.243137 1.886280 -2.207558
v -1.242447 1.885855 -2.208623
v -1.244128 1.881360 -2.208409
v -1.244692 1.881254 -2.206376
v -1.243137 1.879868 -2.207558
v -1.243615 1.879663 -2.205647
v -1.242933 1.881435 -2.209616
v -1.242447 1.880294 -2.208623
v -1.244577 1.881360 -2.203884
v -1.243553 1.879868 -2.203370
v -1.226384 1.883074 -2.208111
v -1.229446 1.883074 -2.207650
v -1.229489 1.885346 -2.207217
v -1.226467 1.885191 -2.207672
v -1.229618 1.887240 -2.205917
v -1.226634 1.886953 -2.206394
v -1.232717 1.883074 -2.207533
v -1.232760 1.885393 -2.207100
v -1.232889 1.887326 -2.205800
v -1.224031 1.884914 -2.207932
v -1.223827 1.883074 -2.208386
v -1.224310 1.886437 -2.206719
v -1.224031 1.881235 -2.207932
v -1.226467 1.880957 -2.207672
v -1.224310 1.879711 -2.206719
v -1.226634 1.879196 -2.206394
v -1.229489 1.880802 -2.207217
v -1.232760 1.880755 -2.207100
v -1.229618 1.878909 -2.205917
v -1.232889 1.878822 -2.205800
v -1.239437 1.877796 -2.203050
v -1.239150 1.878144 -2.205540
v -1.236288 1.877773 -2.204391
v -1.236546 1.877394 -2.201792
v -1.233104 1.877663 -2.203634
v -1.233362 1.877276 -2.201035
v -1.238905 1.879196 -2.207613
v -1.236073 1.878909 -2.206558
v -1.236804 1.877773 -2.199192
v -1.239650 1.878144 -2.200510
v -1.233620 1.877663 -2.198435
v -1.241905 1.878820 -2.202074
v -1.241829 1.878532 -2.204437
v -1.241455 1.878820 -2.206599
v -1.241119 1.879711 -2.208388
v -1.227009 1.888352 -2.201817
v -1.226801 1.888004 -2.204314
v -1.229833 1.888376 -2.203751
v -1.230091 1.888754 -2.201151
v -1.233104 1.888486 -2.203634
v -1.233362 1.888872 -2.201035
v -1.230349 1.888376 -2.198551
v -1.227300 1.888004 -2.199284
v -1.230564 1.887240 -2.196385
v -1.227550 1.886953 -2.197170
v -1.233620 1.888486 -2.198435
v -1.224781 1.887329 -2.200374
v -1.224391 1.887617 -2.202706
v -1.225134 1.886437 -2.198415
v -1.224332 1.887329 -2.204899
v -1.227634 1.883074 -2.195522
v -1.224955 1.883074 -2.197025
v -1.225083 1.884914 -2.197341
v -1.227633 1.885191 -2.195926
v -1.230693 1.885346 -2.195086
v -1.230736 1.883074 -2.194652
v -1.230693 1.880802 -2.195086
v -1.227633 1.880957 -2.195926
v -1.230564 1.878909 -2.196385
v -1.227550 1.879196 -2.197170
v -1.225083 1.881235 -2.197341
v -1.225134 1.879711 -2.198415
v -1.238812 1.883074 -2.209345
v -1.241265 1.883074 -2.210118
v -1.241154 1.884914 -2.209632
v -1.238817 1.885191 -2.208898
v -1.241119 1.886437 -2.208388
v -1.238905 1.886953 -2.207613
v -1.235944 1.885346 -2.207858
v -1.235901 1.883074 -2.208291
v -1.236073 1.887240 -2.206558
v -1.235944 1.880802 -2.207858
v -1.238817 1.880957 -2.208898
v -1.241154 1.881235 -2.209632
v -1.227009 1.877796 -2.201817
v -1.226801 1.878144 -2.204314
v -1.224332 1.878820 -2.204899
v -1.224391 1.878532 -2.202706
v -1.224781 1.878820 -2.200374
v -1.227300 1.878144 -2.199284
v -1.230349 1.877773 -2.198551
v -1.230091 1.877394 -2.201151
v -1.229833 1.877773 -2.203751
v -1.239437 1.888352 -2.203050
v -1.239150 1.888004 -2.205540
v -1.241455 1.887329 -2.206599
v -1.241829 1.887617 -2.204437
v -1.241905 1.887329 -2.202074
v -1.239650 1.888004 -2.200510
v -1.236804 1.888376 -2.199192
v -1.236546 1.888754 -2.201792
v -1.236288 1.888376 -2.204391
vn 0.997200 0.000000 0.074100
vn 0.940300 0.000000 -0.340400
vn 0.834300 0.461200 -0.302000
vn 0.908100 0.413100 0.067500
vn 0.578400 0.770900 -0.266700
vn 0.671200 0.739400 0.052900
vn 0.569000 0.000000 -0.822300
vn 0.505400 0.471400 -0.722700
vn 0.410800 0.726700 -0.550500
vn 0.867100 0.358600 0.345800
vn 0.931600 0.000000 0.363400
vn 0.755300 0.327500 0.567600
vn 0.796700 0.000000 0.604300
vn 0.687700 0.653300 0.316500
vn 0.669500 0.558700 0.489500
vn 0.867100 -0.358600 0.345700
vn 0.908100 -0.413100 0.067500
vn 0.687700 -0.653300 0.316500
vn 0.671200 -0.739300 0.052900
vn 0.755400 -0.327500 0.567600
vn 0.669500 -0.558700 0.489500
vn 0.834300 -0.461200 -0.302100
vn 0.505400 -0.471400 -0.722700
vn 0.578400 -0.770900 -0.266700
vn 0.410900 -0.726700 -0.550500
vn -0.555100 0.000000 0.831800
vn -0.343300 0.000000 0.939200
vn -0.327300 0.373100 0.868100
vn -0.533000 0.357200 0.767000
vn -0.268600 0.729900 0.628500
vn -0.455600 0.698200 0.552200
vn -0.098800 0.000000 0.995100
vn -0.091400 0.378700 0.921000
vn -0.066700 0.737900 0.671600
vn -0.713800 0.334600 0.615200
vn -0.746000 0.000000 0.665900
vn -0.852200 0.327500 0.408000
vn -0.900000 0.000000 0.435900
vn -0.629600 0.635800 0.446400
vn -0.752600 0.558700 0.348300
vn -0.713800 -0.334500 0.615300
vn -0.533000 -0.357200 0.767000
vn -0.629600 -0.635800 0.446500
vn -0.455600 -0.698200 0.552200
vn -0.852200 -0.327500 0.408000
vn -0.752600 -0.558700 0.348300
vn -0.327300 -0.373100 0.868100
vn -0.091400 -0.378700 0.921000
vn -0.268600 -0.729900 0.628500
vn -0.066700 -0.737900 0.671600
vn -0.992300 0.000000 -0.123400
vn -0.984900 0.000000 0.173200
vn -0.918100 0.358600 0.168500
vn -0.903700 0.413100 -0.112400
vn -0.736500 0.653300 0.175100
vn -0.668500 0.739300 -0.080100
vn -0.758600 0.461200 -0.460200
vn -0.854900 0.000000 -0.518700
vn -0.353500 0.471400 -0.807900
vn -0.396200 0.000000 -0.918100
vn -0.514700 0.770900 -0.375300
vn -0.294600 0.726700 -0.620500
vn -0.758600 -0.461200 -0.460200
vn -0.903700 -0.413100 -0.112400
vn -0.514700 -0.770900 -0.375300
vn -0.668500 -0.739300 -0.080100
vn -0.353500 -0.471400 -0.807900
vn -0.294600 -0.726700 -0.620600
vn -0.918100 -0.358600 0.168500
vn -0.736600 -0.653300 0.175100
vn -0.118500 0.000000 -0.993000
vn -0.090500 0.000000 -0.995900
vn -0.070900 0.389400 -0.918300
vn -0.078600 0.406900 -0.910100
vn -0.015800 0.755900 -0.654500
vn 0.021600 0.764400 -0.644300
vn 0.098800 0.000000 -0.995100
vn 0.090900 0.391100 -0.915800
vn 0.064400 0.758300 -0.648700
vn 0.094500 0.442700 -0.891700
vn 0.071400 0.000000 -0.997400
vn 0.182900 0.765200 -0.617300
vn 0.094500 -0.442700 -0.891700
vn -0.078600 -0.406900 -0.910100
vn 0.182900 -0.765200 -0.617300
vn 0.021600 -0.764400 -0.644300
vn -0.070900 -0.389400 -0.918300
vn 0.090900 -0.391100 -0.915800
vn -0.015700 -0.755900 -0.654500
vn 0.064400 -0.758300 -0.648700
vn -0.208300 -0.977900 -0.018400
vn -0.066800 -0.949700 -0.306000
vn 0.015900 -0.954300 -0.298300
vn -0.086200 -0.996200 -0.001500
vn 0.029200 -0.955200 -0.294400
vn -0.001200 -0.999900 0.012300
vn 0.105500 -0.764400 -0.636000
vn 0.144200 -0.755900 -0.638600
vn -0.176900 -0.939400 0.293500
vn -0.334600 -0.907200 0.255000
vn -0.031800 -0.946700 0.320400
vn -0.523000 -0.826100 0.209800
vn -0.401100 -0.915100 -0.041800
vn -0.243700 -0.913700 -0.325100
vn -0.058000 -0.765200 -0.641200
vn 0.207900 0.977900 0.022900
vn 0.125700 0.949700 -0.286900
vn 0.043100 0.954300 -0.295600
vn 0.084800 0.996200 0.015400
vn 0.029200 0.955200 -0.294500
vn -0.001200 0.999900 0.012300
vn 0.115700 0.939400 0.322600
vn 0.278000 0.907200 0.315800
vn 0.139800 0.729900 0.669100
vn 0.338100 0.698200 0.631000
vn -0.031800 0.946700 0.320400
vn 0.471500 0.826100 0.308600
vn 0.401500 0.915100 0.037800
vn 0.529500 0.635900 0.561500
vn 0.302900 0.913700 -0.270900
vn 0.380700 0.000000 0.924700
vn 0.600500 0.000000 0.799600
vn 0.578900 0.334500 0.743600
vn 0.371800 0.357200 0.856800
vn 0.150300 0.373200 0.915500
vn 0.151900 0.000000 0.988400
vn 0.150300 -0.373200 0.915500
vn 0.371800 -0.357200 0.856800
vn 0.139800 -0.729900 0.669100
vn 0.338100 -0.698200 0.631000
vn 0.578900 -0.334600 0.743600
vn 0.529500 -0.635800 0.561500
vn 0.311400 0.000000 -0.950300
vn 0.126000 0.000000 -0.992000
vn 0.082600 0.442700 -0.892800
vn 0.256000 0.406900 -0.876900
vn -0.058000 0.765200 -0.641200
vn 0.105500 0.764400 -0.636000
vn 0.250200 0.389400 -0.886400
vn 0.284600 0.000000 -0.958600
vn 0.144200 0.755900 -0.638600
vn 0.250100 -0.389400 -0.886400
vn 0.256000 -0.406900 -0.876900
vn 0.082600 -0.442700 -0.892800
vn 0.207900 -0.977900 0.022900
vn 0.125700 -0.949700 -0.286900
vn 0.302900 -0.913700 -0.270900
vn 0.401500 -0.915100 0.037800
vn 0.471500 -0.826100 0.308600
vn 0.278000 -0.907200 0.315800
vn 0.115700 -0.939400 0.322600
vn 0.084800 -0.996200 0.015400
vn 0.043100 -0.954300 -0.295600
vn -0.208300 0.977900 -0.018300
vn -0.066800 0.949700 -0.306000
vn -0.243700 0.913700 -0.325100
vn -0.401100 0.915100 -0.041800
vn -0.522900 0.826100 0.209800
vn -0.334600 0.907200 0.255000
vn -0.176900 0.939400 0.293500
vn -0.086200 0.996200 -0.001500
vn 0.015900 0.954300 -0.298300
vt 0.000000 0.000000
vt 0.000000 0.000000
vt 0.000000 0.000000
vt 0.000000 0.000000
vt 0.000000 0.000000
vt 0.000000 0.000000
vt 0.000000 0.000000
vt 0.000000 0.000000
vt 0.000000 0.000000
vt 0.000000 0.000000
vt 0.000000 0.000000
vt 0.000000 0.000000
vt 0.000000 0.000000
vt 0.000000 0.000000
vt 0.000000 0.000000
vt 0.000000 0.000000
vt 0.000000 0.000000
vt 0.000000 0.000000
vt 0.000000 0.000000
vt 0.000000 0.000000
vt 0.000000 0.000000
vt 0.000000 0.000000
vt 0.000000 0.000000
vt 0.000000 0.000000
vt 0.000000 0.000000
vt 0.000000 0.000000
vt 0.000000 0.000000
vt 0.000000 0.000000
vt 0.000000 0.000000
vt 0.000000 0.000000
vt 0.000000 0.000000
vt 0.000000 0.000000
vt 0.000000 0.000000
vt 0.000000 0.000000
vt 0.000000 0.000000
vt 0.000000 0.000000
vt 0.000000 0.000000
vt 0.000000 0.000000
vt 0.000000 0.000000
vt 0.000000 0.000000
vt 0.000000 0.000000
vt 0.000000 0.000000
vt 0.000000 0.000000
vt 0.000000 0.000000
vt 0.000000 0.000000
vt 0.000000 0.000000
vt 0.000000 0.000000
vt 0.000000 0.000000
vt 0.000000 0.000000
vt 0.000000 0.000000
vt 0.000000 0.000000
vt 0.000000 0.000000
vt 0.000000 0.000000
vt 0.000000 0.000000
vt 0.000000 0.000000
vt 0.000000 0.000000
vt 0.000000 0.000000
vt 0.000000 0.000000
vt 0.000000 0.000000
vt 0.000000 0.000000
vt 0.000000 0.000000
vt 0.000000 0.000000
vt 0.000000 0.000000
vt 0.000000 0.000000
vt 0.000000 0.000000
vt 0.000000 0.000000
vt 0.000000 0.000000
vt 0.000000 0.000000
vt 0.000000 0.000000
vt 0.000000 0.000000
vt 0.000000 0.000000
vt 0.000000 0.000000
vt 0.000000 0.000000
vt 0.000000 0.000000
vt 0.000000 0.000000
vt 0.000000 0.000000
vt 0.000000 0.000000
vt 0.000000 0.000000
vt 0.000000 0.000000
vt 0.000000 0.000000
vt 0.000000 0.000000
vt 0.000000 0.000000
vt 0.000000 0.000000
vt 0.000000 0.000000
vt 0.000000 0.000000
vt 0.000000 0.000000
vt 0.000000 0.000000
vt 0.000000 0.000000
vt 0.000000 0.000000
vt 0.000000 0.000000
vt 0.000000 0.000000
vt 0.000000 0.000000
vt 0.000000 0.000000
vt 0.000000 0.000000
vt 0.000000 0.000000
vt 0.000000 0.000000
vt 0.000000 0.000000
vt 0.000000 0.000000
vt 0.000000 0.000000
vt 0.000000 0.000000
vt 0.000000 0.000000
vt 0.000000 0.000000
vt 0.000000 0.000000
vt 0.000000 0.000000
vt 0.000000 0.000000
vt 0.000000 0.000000
vt 0.000000 0.000000
vt 0.000000 0.000000
vt 0.000000 0.000000
vt 0.000000 0.000000
vt 0.000000 0.000000
vt 0.000000 0.000000
vt 0.000000 0.000000
vt 0.000000 0.000000
vt 0.000000 0.000000
vt 0.000000 0.000000
vt 0.000000 0.000000
vt 0.000000 0.000000
vt 0.000000 0.000000
vt 0.000000 0.000000
vt 0.000000 0.000000
vt 0.000000 0.000000
vt 0.000000 0.000000
vt 0.000000 0.000000
vt 0.000000 0.000000
vt 0.000000 0.000000
vt 0.000000 0.000000
vt 0.000000 0.000000
vt 0.000000 0.000000
vt 0.000000 0.000000
vt 0.000000 0.000000
vt 0.000000 0.000000
vt 0.000000 0.000000
vt 0.000000 0.000000
vt 0.000000 0.000000
vt 0.000000 0.000000
vt 0.000000 0.000000
vt 0.000000 0.000000
vt 0.000000 0.000000
vt 0.000000 0.000000
vt 0.000000 0.000000
vt 0.000000 0.000000
vt 0.000000 0.000000
vt 0.000000 0.000000
vt 0.000000 0.000000
vt 0.000000 0.000000
vt 0.000000 0.000000
vt 0.000000 0.000000
vt 0.000000 0.000000
vt 0.000000 0.000000
vt 0.000000 0.000000
vt 0.000000 0.000000
vt 0.000000 0.000000
vt 0.000000 0.000000
vt 0.000000 0.000000
vt 0.000000 0.000000
vt 0.000000 0.000000
vt 0.000000 0.000000
vt 0.000000 0.000000
vt 0.000000 0.000000
vt 0.000000 0.000000
vt 0.000000 0.000000
f 1/1/1 2/2/2 3/3/3
f 1/1/1 3/3/3 4/4/4
f 4/4/4 3/3/3 5/5/5
f 4/4/4 5/5/5 6/6/6
f 2/2/2 7/7/7 8/8/8
f 2/2/2 8/8/8 3/3/3
f 3/3/3 8/8/8 9/9/9
f 3/3/3 9/9/9 5/5/5
f 1/1/1 4/4/4 10/10/10
f 1/1/1 10/10/10 11/11/11
f 11/11/11 10/10/10 12/12/12
f 11/11/11 12/12/12 13/13/13
f 4/4/4 6/6/6 14/14/14
f 4/4/4 14/14/14 10/10/10
f 10/10/10 14/14/14 15/15/15
f 10/10/10 15/15/15 12/12/12
f 1/1/1 11/11/11 16/16/16
f 1/1/1 16/16/16 17/17/17
f 17/17/17 16/16/16 18/18/18
f 17/17/17 18/18/18 19/19/19
f 11/11/11 13/13/13 20/20/20
f 11/11/11 20/20/20 16/16/16
f 16/16/16 20/20/20 21/21/21
f 16/16/16 21/21/21 18/18/18
f 1/1/1 17/17/17 22/22/22
f 1/1/1 22/22/22 2/2/2
f 2/2/2 22/22/22 23/23/23
f 2/2/2 23/23/23 7/7/7
f 17/17/17 19/19/19 24/24/24
f 17/17/17 24/24/24 22/22/22
f 22/22/22 24/24/24 25/25/25
f 22/22/22 25/25/25 23/23/23
f 26/26/26 27/27/27 28/28/28
f 26/26/26 28/28/28 29/29/29
f 29/29/29 28/28/28 30/30/30
f 29/29/29 30/30/30 31/31/31
f 27/27/27 32/32/32 33/33/33
f 27/27/27 33/33/33 28/28/28
f 28/28/28 33/33/33 34/34/34
f 28/28/28 34/34/34 30/30/30
f 26/26/26 29/29/29 35/35/35
f 26/26/26 35/35/35 36/36/36
f 36/36/36 35/35/35 37/37/37
f 36/36/36 37/37/37 38/38/38
f 29/29/29 31/31/31 39/39/39
f 29/29/29 39/39/39 35/35/35
f 35/35/35 39/39/39 40/40/40
f 35/35/35 40/40/40 37/37/37
f 26/26/26 36/36/36 41/41/41
f 26/26/26 41/41/41 42/42/42
f 42/42/42 41/41/41 43/43/43
f 42/42/42 43/43/43 44/44/44
f 36/36/36 38/38/38 45/45/45
f 36/36/36 45/45/45 41/41/41
f 41/41/41 45/45/45 46/46/46
f 41/41/41 46/46/46 43/43/43
f 26/26/26 42/42/42 47/47/47
f 26/26/26 47/47/47 27/27/27
f 27/27/27 47/47/47 48/48/48
f 27/27/27 48/48/48 32/32/32
f 42/42/42 44/44/44 49/49/49
f 42/42/42 49/49/49 47/47/47
f 47/47/47 49/49/49 50/50/50
f 47/47/47 50/50/50 48/48/48
f 51/51/51 52/52/52 53/53/53
f 51/51/51 53/53/53 54/54/54
f 54/54/54 53/53/53 55/55/55
f 54/54/54 55/55/55 56/56/56
f 52/52/52 38/38/38 37/37/37
f 52/52/52 37/37/37 53/53/53
f 53/53/53 37/37/37 40/40/40
f 53/53/53 40/40/40 55/55/55
f 51/51/51 54/54/54 57/57/57
f 51/51/51 57/57/57 58/58/58
f 58/58/58 57/57/57 59/59/59
f 58/58/58 59/59/59 60/60/60
f 54/54/54 56/56/56 61/61/61
f 54/54/54 61/61/61 57/57/57
f 57/57/57 61/61/61 62/62/62
f 57/57/57 62/62/62 59/59/59
f 51/51/51 58/58/58 63/63/63
f 51/51/51 63/63/63 64/64/64
f 64/64/64 63/63/63 65/65/65
f 64/64/64 65/65/65 66/66/66
f 58/58/58 60/60/60 67/67/67
f 58/58/58 67/67/67 63/63/63
f 63/63/63 67/67/67 68/68/68
f 63/63/63 68/68/68 65/65/65
f 51/51/51 64/64/64 69/69/69
f 51/51/51 69/69/69 52/52/52
f 52/52/52 69/69/69 45/45/45
f 52/52/52 45/45/45 38/38/38
f 64/64/64 66/66/66 70/70/70
f 64/64/64 70/70/70 69/69/69
f 69/69/69 70/70/70 46/46/46
f 69/69/69 46/46/46 45/45/45
f 71/71/71 72/72/72 73/73/73
f 71/71/71 73/73/73 74/74/74
f 74/74/74 73/73/73 75/75/75
f 74/74/74 75/75/75 76/76/76
f 72/72/72 77/77/77 78/78/78
f 72/72/72 78/78/78 73/73/73
f 73/73/73 78/78/78 79/79/79
f 73/73/73 79/79/79 75/75/75
f 71/71/71 74/74/74 80/80/80
f 71/71/71 80/80/80 81/81/81
f 81/81/81 80/80/80 8/8/8
f 81/81/81 8/8/8 7/7/7
f 74/74/74 76/76/76 82/82/82
f 74/74/74 82/82/82 80/80/80
f 80/80/80 82/82/82 9/9/9
f 80/80/80 9/9/9 8/8/8
f 71/71/71 81/81/81 83/83/83
f 71/71/71 83/83/83 84/84/84
f 84/84/84 83/83/83 85/85/85
f 84/84/84 85/85/85 86/86/86
f 81/81/81 7/7/7 23/23/23
f 81/81/81 23/23/23 83/83/83
f 83/83/83 23/23/23 25/25/25
f 83/83/83 25/25/25 85/85/85
f 71/71/71 84/84/84 87/87/87
f 71/71/71 87/87/87 72/72/72
f 72/72/72 87/87/87 88/88/88
f 72/72/72 88/88/88 77/77/77
f 84/84/84 86/86/86 89/89/89
f 84/84/84 89/89/89 87/87/87
f 87/87/87 89/89/89 90/90/90
f 87/87/87 90/90/90 88/88/88
f 91/91/91 92/92/92 93/93/93
f 91/91/91 93/93/93 94/94/94
f 94/94/94 93/93/93 95/95/95
f 94/94/94 95/95/95 96/96/96
f 92/92/92 97/97/97 98/98/98
f 92/92/92 98/98/98 93/93/93
f 93/93/93 98/98/98 90/90/90
f 93/93/93 90/90/90 95/95/95
f 91/91/91 94/94/94 99/99/99
f 91/91/91 99/99/99 100/100/100
f 100/100/100 99/99/99 49/49/49
f 100/100/100 49/49/49 44/44/44
f 94/94/94 96/96/96 101/101/101
f 94/94/94 101/101/101 99/99/99
f 99/99/99 101/101/101 50/50/50
f 99/99/99 50/50/50 49/49/49
f 91/91/91 100/100/100 102/102/102
f 91/91/91 102/102/102 103/103/103
f 103/103/103 102/102/102 70/70/70
f 103/103/103 70/70/70 66/66/66
f 100/100/100 44/44/44 43/43/43
f 100/100/100 43/43/43 102/102/102
f 102/102/102 43/43/43 46/46/46
f 102/102/102 46/46/46 70/70/70
f 91/91/91 103/103/103 104/104/104
f 91/91/91 104/104/104 92/92/92
f 92/92/92 104/104/104 105/105/105
f 92/92/92 105/105/105 97/97/97
f 103/103/103 66/66/66 65/65/65
f 103/103/103 65/65/65 104/104/104
f 104/104/104 65/65/65 68/68/68
f 104/104/104 68/68/68 105/105/105
f 106/106/106 107/107/107 108/108/108
f 106/106/106 108/108/108 109/109/109
f 109/109/109 108/108/108 110/110/110
f 109/109/109 110/110/110 111/111/111
f 107/107/107 76/76/76 75/75/75
f 107/107/107 75/75/75 108/108/108
f 108/108/108 75/75/75 79/79/79
f 108/108/108 79/79/79 110/110/110
f 106/106/106 109/109/109 112/112/112
f 106/106/106 112/112/112 113/113/113
f 113/113/113 112/112/112 114/114/114
f 113/113/113 114/114/114 115/115/115
f 109/109/109 111/111/111 116/116/116
f 109/109/109 116/116/116 112/112/112
f 112/112/112 116/116/116 34/34/34
f 112/112/112 34/34/34 114/114/114
f 106/106/106 113/113/113 117/117/117
f 106/106/106 117/117/117 118/118/118
f 118/118/118 117/117/117 14/14/14
f 118/118/118 14/14/14 6/6/6
f 113/113/113 115/115/115 119/119/119
f 113/113/113 119/119/119 117/117/117
f 117/117/117 119/119/119 15/15/15
f 117/117/117 15/15/15 14/14/14
f 106/106/106 118/118/118 120/120/120
f 106/106/106 120/120/120 107/107/107
f 107/107/107 120/120/120 82/82/82
f 107/107/107 82/82/82 76/76/76
f 118/118/118 6/6/6 5/5/5
f 118/118/118 5/5/5 120/120/120
f 120/120/120 5/5/5 9/9/9
f 120/120/120 9/9/9 82/82/82
f 121/121/121 122/122/122 123/123/123
f 121/121/121 123/123/123 124/124/124
f 124/124/124 123/123/123 119/119/119
f 124/124/124 119/119/119 115/115/115
f 122/122/122 13/13/13 12/12/12
f 122/122/122 12/12/12 123/123/123
f 123/123/123 12/12/12 15/15/15
f 123/123/123 15/15/15 119/119/119
f 121/121/121 124/124/124 125/125/125
f 121/121/121 125/125/125 126/126/126
f 126/126/126 125/125/125 33/33/33
f 126/126/126 33/33/33 32/32/32
f 124/124/124 115/115/115 114/114/114
f 124/124/124 114/114/114 125/125/125
f 125/125/125 114/114/114 34/34/34
f 125/125/125 34/34/34 33/33/33
f 121/121/121 126/126/126 127/127/127
f 121/121/121 127/127/127 128/128/128
f 128/128/128 127/127/127 129/129/129
f 128/128/128 129/129/129 130/130/130
f 126/126/126 32/32/32 48/48/48
f 126/126/126 48/48/48 127/127/127
f 127/127/127 48/48/48 50/50/50
f 127/127/127 50/50/50 129/129/129
f 121/121/121 128/128/128 131/131/131
f 121/121/121 131/131/131 122/122/122
f 122/122/122 131/131/131 20/20/20
f 122/122/122 20/20/20 13/13/13
f 128/128/128 130/130/130 132/132/132
f 128/128/128 132/132/132 131/131/131
f 131/131/131 132/132/132 21/21/21
f 131/131/131 21/21/21 20/20/20
f 133/133/133 134/134/134 135/135/135
f 133/133/133 135/135/135 136/136/136
f 136/136/136 135/135/135 137/137/137
f 136/136/136 137/137/137 138/138/138
f 134/134/134 60/60/60 59/59/59
f 134/134/134 59/59/59 135/135/135
f 135/135/135 59/59/59 62/62/62
f 135/135/135 62/62/62 137/137/137
f 133/133/133 136/136/136 139/139/139
f 133/133/133 139/139/139 140/140/140
f 140/140/140 139/139/139 78/78/78
f 140/140/140 78/78/78 77/77/77
f 136/136/136 138/138/138 141/141/141
f 136/136/136 141/141/141 139/139/139
f 139/139/139 141/141/141 79/79/79
f 139/139/139 79/79/79 78/78/78
f 133/133/133 140/140/140 142/142/142
f 133/133/133 142/142/142 143/143/143
f 143/143/143 142/142/142 98/98/98
f 143/143/143 98/98/98 97/97/97
f 140/140/140 77/77/77 88/88/88
f 140/140/140 88/88/88 142/142/142
f 142/142/142 88/88/88 90/90/90
f 142/142/142 90/90/90 98/98/98
f 133/133/133 143/143/143 144/144/144
f 133/133/133 144/144/144 134/134/134
f 134/134/134 144/144/144 67/67/67
f 134/134/134 67/67/67 60/60/60
f 143/143/143 97/97/97 105/105/105
f 143/143/143 105/105/105 144/144/144
f 144/144/144 105/105/105 68/68/68
f 144/144/144 68/68/68 67/67/67
f 145/145/145 146/146/146 147/147/147
f 145/145/145 147/147/147 148/148/148
f 148/148/148 147/147/147 24/24/24
f 148/148/148 24/24/24 19/19/19
f 146/146/146 86/86/86 85/85/85
f 146/146/146 85/85/85 147/147/147
f 147/147/147 85/85/85 25/25/25
f 147/147/147 25/25/25 24/24/24
f 145/145/145 148/148/148 149/149/149
f 145/145/145 149/149/149 150/150/150
f 150/150/150 149/149/149 132/132/132
f 150/150/150 132/132/132 130/130/130
f 148/148/148 19/19/19 18/18/18
f 148/148/148 18/18/18 149/149/149
f 149/149/149 18/18/18 21/21/21
f 149/149/149 21/21/21 132/132/132
f 145/145/145 150/150/150 151/151/151
f 145/145/145 151/151/151 152/152/152
f 152/152/152 151/151/151 101/101/101
f 152/152/152 101/101/101 96/96/96
f 150/150/150 130/130/130 129/129/129
f 150/150/150 129/129/129 151/151/151
f 151/151/151 129/129/129 50/50/50
f 151/151/151 50/50/50 101/101/101
f 145/145/145 152/152/152 153/153/153
f 145/145/145 153/153/153 146/146/146
f 146/146/146 153/153/153 89/89/89
f 146/146/146 89/89/89 86/86/86
f 152/152/152 96/96/96 95/95/95
f 152/152/152 95/95/95 153/153/153
f 153/153/153 95/95/95 90/90/90
f 153/153/153 90/90/90 89/89/89
f 154/154/154 155/155/155 156/156/156
f 154/154/154 156/156/156 157/157/157
f 157/157/157 156/156/156 61/61/61
f 157/157/157 61/61/61 56/56/56
f 155/155/155 138/138/138 137/137/137
f 155/155/155 137/137/137 156/156/156
f 156/156/156 137/137/137 62/62/62
f 156/156/156 62/62/62 61/61/61
f 154/154/154 157/157/157 158/158/158
f 154/154/154 158/158/158 159/159/159
f 159/159/159 158/158/158 39/39/39
f 159/159/159 39/39/39 31/31/31
f 157/157/157 56/56/56 55/55/55
f 157/157/157 55/55/55 158/158/158
f 158/158/158 55/55/55 40/40/40
f 158/158/158 40/40/40 39/39/39
f 154/154/154 159/159/159 160/160/160
f 154/154/154 160/160/160 161/161/161
f 161/161/161 160/160/160 116/116/116
f 161/161/161 116/116/116 111/111/111
f 159/159/159 31/31/31 30/30/30
f 159/159/159 30/30/30 160/160/160
f 160/160/160 30/30/30 34/34/34
f 160/160/160 34/34/34 116/116/116
f 154/154/154 161/161/161 162/162/162
f 154/154/154 162/162/162 155/155/155
f 155/155/155 162/162/162 141/141/141
f 155/155/155 141/141/141 138/138/138
f 161/161/161 111/111/111 110/110/110
f 161/161/161 110/110/110 162/162/162
f 162/162/162 110/110/110 79/79/79
f 162/162/162 79/79/79 141/141/141
