v -2.305043 0.766827 -1.244800
v -2.306249 0.767085 -1.245665
v -2.307098 0.766520 -1.243938
v -2.305639 0.766251 -1.243161
v -2.304561 0.766154 -1.242444
v -2.304211 0.766709 -1.243897
v -2.304254 0.766977 -1.244960
v -2.304681 0.767176 -1.246010
v -2.305637 0.767434 -1.246956
v -2.307657 0.767592 -1.245835
v -2.308796 0.768050 -1.245711
v -2.309770 0.767678 -1.244504
v -2.308610 0.767120 -1.244337
v -2.306944 0.767838 -1.246905
v -2.307967 0.768063 -1.246429
v -2.311334 0.764354 -1.239402
v -2.312434 0.764798 -1.239730
v -2.313082 0.763490 -1.238135
v -2.312108 0.763091 -1.237852
v -2.310817 0.762627 -1.237417
v -2.309875 0.763835 -1.238904
v -2.308937 0.764920 -1.240473
v -2.310462 0.765476 -1.240986
v -2.311613 0.765960 -1.241317
v -2.308423 0.763503 -1.238250
v -2.309533 0.762338 -1.236833
v -2.308570 0.762171 -1.236350
v -2.307333 0.763306 -1.237712
v -2.306276 0.764399 -1.239206
v -2.307417 0.764585 -1.239781
v -2.306459 0.765502 -1.241454
v -2.308002 0.765807 -1.242179
v -2.305301 0.765366 -1.240831
v -2.309550 0.766406 -1.242676
v -2.310717 0.766950 -1.242974
v -2.312726 0.761735 -1.236265
v -2.313456 0.762060 -1.236453
v -2.313480 0.761156 -1.235490
v -2.313134 0.760669 -1.235073
v -2.312472 0.760391 -1.234886
v -2.311762 0.761369 -1.235958
v -2.310805 0.761173 -1.235504
v -2.311817 0.760284 -1.234552
v -2.311111 0.760463 -1.234553
v -2.310087 0.761075 -1.235120
v -2.305041 0.766679 -1.244854
v -2.306267 0.766941 -1.245727
v -2.305650 0.767326 -1.247000
v -2.304679 0.767065 -1.246048
v -2.304248 0.766894 -1.244987
v -2.304199 0.766597 -1.243933
v -2.304550 0.766044 -1.242485
v -2.305635 0.766105 -1.243222
v -2.307112 0.766378 -1.244006
v -2.307694 0.767455 -1.245904
v -2.308833 0.767952 -1.245767
v -2.307992 0.767989 -1.246468
v -2.306973 0.767736 -1.246956
v -2.308642 0.766984 -1.244411
v -2.309802 0.767580 -1.244563
v -2.311348 0.764229 -1.239498
v -2.312451 0.764707 -1.239804
v -2.311634 0.765866 -1.241386
v -2.310481 0.765347 -1.241076
v -2.308942 0.764787 -1.240557
v -2.309876 0.763706 -1.238995
v -2.310815 0.762501 -1.237513
v -2.312119 0.762969 -1.237952
v -2.313097 0.763402 -1.238213
v -2.308412 0.763370 -1.238336
v -2.307409 0.764448 -1.239861
v -2.306264 0.764295 -1.239262
v -2.307318 0.763206 -1.237774
v -2.308553 0.762073 -1.236415
v -2.309519 0.762209 -1.236924
v -2.306454 0.765361 -1.241523
v -2.308013 0.765669 -1.242255
v -2.305290 0.765259 -1.240880
v -2.309575 0.766273 -1.242758
v -2.310743 0.766854 -1.243038
v -2.312738 0.761615 -1.236367
v -2.313471 0.761973 -1.236532
v -2.311759 0.761244 -1.236056
v -2.312470 0.760298 -1.234960
v -2.313143 0.760579 -1.235151
v -2.313490 0.761090 -1.235549
v -2.310789 0.761045 -1.235596
v -2.310068 0.760977 -1.235186
v -2.311099 0.760391 -1.234603
v -2.311805 0.760188 -1.234621
v -2.313708 0.762130 -1.236552
v -2.313668 0.760906 -1.235209
v -2.313415 0.763585 -1.238264
v -2.313490 0.761090 -1.235549
v -2.312149 0.759945 -1.234266
v -2.311294 0.760212 -1.234270
v -2.312707 0.760024 -1.234562
v -2.311099 0.760391 -1.234603
v -2.303926 0.766619 -1.243611
v -2.304061 0.766985 -1.244963
v -2.304195 0.766073 -1.242222
v -2.304248 0.766894 -1.244987
v -2.306719 0.767875 -1.247284
v -2.308079 0.768160 -1.246552
v -2.305439 0.767503 -1.247405
v -2.307992 0.767989 -1.246468
v -2.309195 0.768160 -1.245695
v -2.310173 0.767821 -1.244587
v -2.313274 0.760274 -1.234711
v -2.309838 0.760998 -1.235020
v -2.308240 0.762071 -1.236217
v -2.304559 0.767243 -1.246429
v -2.304908 0.765273 -1.240645
v -2.305889 0.764291 -1.239038
v -2.311119 0.767090 -1.243102
v -2.312007 0.766080 -1.241459
v -2.312810 0.764906 -1.239873
v -2.306962 0.763196 -1.237559
vn -0.072500 0.957000 0.280800
vn 0.133700 0.927900 0.347900
vn 0.108300 0.910400 0.399200
vn -0.077000 0.936600 0.341700
vn -0.079200 0.926900 0.366700
vn -0.065500 0.956300 0.284800
vn -0.054600 0.972700 0.225600
vn 0.002700 0.976300 0.216600
vn 0.172400 0.948600 0.265500
vn 0.316000 0.843300 0.434600
vn 0.308900 0.846900 0.432700
vn 0.251300 0.830300 0.497500
vn 0.270300 0.835000 0.479100
vn 0.320100 0.883500 0.342000
vn 0.347500 0.855200 0.384500
vn 0.094800 0.767500 0.633900
vn 0.057900 0.775400 0.628800
vn 0.041000 0.758300 0.650600
vn 0.087200 0.746400 0.659700
vn -0.021900 0.776600 0.629500
vn -0.003100 0.800300 0.599500
vn 0.034600 0.843500 0.536000
vn 0.140300 0.801500 0.581300
vn 0.108400 0.802700 0.586400
vn -0.100300 0.824600 0.556700
vn -0.122000 0.807600 0.576900
vn -0.082400 0.794400 0.601700
vn -0.070700 0.813000 0.578000
vn -0.061700 0.852400 0.519100
vn -0.078500 0.865500 0.494600
vn -0.069700 0.907600 0.414000
vn 0.076000 0.884000 0.461300
vn -0.066200 0.894400 0.442300
vn 0.206200 0.826900 0.523200
vn 0.179800 0.822500 0.539600
vn 0.103900 0.729000 0.676500
vn 0.052600 0.739900 0.670600
vn 0.073700 0.719000 0.691100
vn 0.098500 0.686800 0.720100
vn -0.055500 0.730500 0.680600
vn -0.030700 0.765000 0.643300
vn -0.151100 0.803600 0.575600
vn -0.195300 0.772700 0.603900
vn -0.146800 0.783300 0.604000
vn -0.111000 0.787700 0.605900
vn 0.107800 -0.951200 -0.289000
vn -0.126700 -0.923400 -0.362200
vn -0.099500 -0.903700 -0.416300
vn 0.211900 -0.927500 -0.307800
vn 0.326900 -0.904300 -0.274500
vn 0.301500 -0.911900 -0.278300
vn 0.240100 -0.918900 -0.313100
vn 0.091400 -0.937200 -0.336500
vn -0.108300 -0.910400 -0.399200
vn -0.329600 -0.823300 -0.462100
vn -0.436100 -0.696300 -0.570100
vn -0.450500 -0.677100 -0.581800
vn -0.369800 -0.757500 -0.537900
vn -0.282800 -0.827800 -0.484600
vn -0.379700 -0.737600 -0.558300
vn -0.109800 -0.762400 -0.637600
vn -0.213600 -0.722400 -0.657600
vn -0.247100 -0.744100 -0.620600
vn -0.153800 -0.796100 -0.585200
vn -0.034600 -0.843400 -0.536100
vn 0.003200 -0.800200 -0.599600
vn 0.022000 -0.776600 -0.629600
vn -0.105600 -0.741600 -0.662500
vn -0.234400 -0.709900 -0.664100
vn 0.114100 -0.828000 -0.549000
vn 0.091800 -0.867900 -0.488000
vn 0.195700 -0.873700 -0.445400
vn 0.209100 -0.846000 -0.490400
vn 0.231800 -0.846200 -0.479700
vn 0.137200 -0.812600 -0.566400
vn 0.082900 -0.909200 -0.408000
vn -0.076000 -0.884000 -0.461300
vn 0.203600 -0.904100 -0.375500
vn -0.218800 -0.820900 -0.527400
vn -0.310700 -0.753700 -0.579100
vn -0.135600 -0.730600 -0.669200
vn -0.296900 -0.702000 -0.647400
vn 0.025400 -0.772100 -0.635000
vn 0.001700 -0.802000 -0.597300
vn -0.231200 -0.738200 -0.633700
vn -0.335900 -0.698800 -0.631400
vn 0.165000 -0.818500 -0.550300
vn 0.263100 -0.865700 -0.425900
vn 0.278300 -0.878400 -0.388500
vn 0.197200 -0.863500 -0.464100
vn -0.981000 0.183500 0.062300
vn -0.917200 -0.052000 0.395000
vn -0.965100 0.249500 -0.078700
vn -0.335900 -0.698800 -0.631400
vn -0.216700 -0.591800 0.776300
vn 0.283500 -0.403300 0.870000
vn -0.434500 -0.665000 0.607400
vn 0.278300 -0.878400 -0.388500
vn 0.972000 0.161600 0.170700
vn 0.956600 0.256500 -0.137900
vn 0.936400 0.050600 0.347200
vn 0.326900 -0.904300 -0.274500
vn -0.065100 0.438400 -0.896400
vn -0.375200 0.645700 -0.665000
vn 0.410500 0.200000 -0.889600
vn -0.450500 -0.677100 -0.581800
vn -0.625700 0.628800 -0.461500
vn -0.768600 0.549400 -0.327600
vn -0.640500 -0.468200 0.608700
vn 0.645700 -0.291800 0.705600
vn 0.757200 -0.253500 0.601900
vn 0.817500 0.180400 -0.547000
vn 0.893600 -0.050500 0.446000
vn 0.863800 -0.120300 0.489200
vn -0.853200 0.460200 -0.245300
vn -0.895400 0.394200 -0.207000
vn -0.930300 0.326000 -0.168200
vn 0.828500 -0.188400 0.527400
vt 0.839504 0.118056
vt 0.856743 0.205307
vt 0.741230 0.205307
vt 0.734555 0.106726
vt 0.724541 0.032791
vt 0.813647 0.052618
vt 0.868992 0.081539
vt 0.913398 0.129584
vt 0.940923 0.205307
vt 0.839504 0.292557
vt 0.813647 0.357995
vt 0.724541 0.377822
vt 0.734555 0.303887
vt 0.913398 0.281029
vt 0.868992 0.329074
vt 0.369475 0.299954
vt 0.368286 0.370940
vt 0.245840 0.351447
vt 0.246397 0.288815
vt 0.246768 0.205307
vt 0.370268 0.205307
vt 0.494283 0.205307
vt 0.492822 0.304944
vt 0.490632 0.379672
vt 0.369475 0.110659
vt 0.246397 0.121798
vt 0.245841 0.059166
vt 0.368286 0.039673
vt 0.490632 0.030941
vt 0.492822 0.105669
vt 0.616755 0.103478
vt 0.619174 0.205307
vt 0.613127 0.027106
vt 0.616755 0.307135
vt 0.613126 0.383507
vt 0.123273 0.268175
vt 0.123047 0.315326
vt 0.054743 0.283353
vt 0.030912 0.249131
vt 0.030973 0.205306
vt 0.123423 0.205306
vt 0.123273 0.142438
vt 0.030912 0.161481
vt 0.054744 0.127260
vt 0.123047 0.095287
vt 0.839504 0.118056
vt 0.856743 0.205307
vt 0.968983 0.205307
vt 0.938030 0.133427
vt 0.876123 0.061548
vt 0.805028 0.030806
vt 0.721203 0.008146
vt 0.734555 0.106726
vt 0.741230 0.205307
vt 0.839504 0.292557
vt 0.805028 0.379807
vt 0.876123 0.349065
vt 0.938030 0.277186
vt 0.734555 0.303887
vt 0.721203 0.402467
vt 0.369475 0.299954
vt 0.367890 0.394602
vt 0.489902 0.404581
vt 0.492822 0.304944
vt 0.494283 0.205307
vt 0.370268 0.205307
vt 0.246768 0.205307
vt 0.246397 0.288815
vt 0.245655 0.372324
vt 0.369475 0.110659
vt 0.492822 0.105669
vt 0.489902 0.006032
vt 0.367890 0.016011
vt 0.245655 0.038289
vt 0.246397 0.121798
vt 0.616755 0.103478
vt 0.619174 0.205307
vt 0.611917 0.001649
vt 0.616755 0.307135
vt 0.611917 0.408964
vt 0.123273 0.268175
vt 0.122972 0.331043
vt 0.123423 0.205306
vt 0.000156 0.205306
vt 0.000125 0.242784
vt 0.000064 0.280261
vt 0.123273 0.142438
vt 0.122972 0.079570
vt 0.000064 0.130352
vt 0.000125 0.167829
vt 0.122972 0.331043
vt 0.030806 0.283587
vt 0.245655 0.372324
vt 0.030806 0.283587
vt 0.000125 0.167829
vt 0.030806 0.127026
vt 0.000156 0.205306
vt 0.030806 0.127026
vt 0.805028 0.030806
vt 0.873826 0.071832
vt 0.721203 0.008146
vt 0.873826 0.071832
vt 0.938030 0.277186
vt 0.873826 0.338781
vt 0.968983 0.205307
vt 0.873826 0.338781
vt 0.805028 0.379807
vt 0.721203 0.402467
vt 0.000125 0.242784
vt 0.122972 0.079570
vt 0.245655 0.038289
vt 0.938030 0.133427
vt 0.611917 0.001649
vt 0.489902 0.006032
vt 0.611917 0.408964
vt 0.489902 0.404581
vt 0.367890 0.394602
vt 0.367890 0.016011
f 1/1/1 2/2/2 3/3/3
f 1/1/1 3/3/3 4/4/4
f 1/1/1 4/4/4 5/5/5
f 1/1/1 5/5/5 6/6/6
f 1/1/1 6/6/6 7/7/7
f 1/1/1 7/7/7 8/8/8
f 1/1/1 8/8/8 9/9/9
f 1/1/1 9/9/9 2/2/2
f 10/10/10 11/11/11 12/12/12
f 10/10/10 12/12/12 13/13/13
f 10/10/10 13/13/13 3/3/3
f 10/10/10 3/3/3 2/2/2
f 10/10/10 2/2/2 9/9/9
f 10/10/10 9/9/9 14/14/14
f 10/10/10 14/14/14 15/15/15
f 10/10/10 15/15/15 11/11/11
f 16/16/16 17/17/17 18/18/18
f 16/16/16 18/18/18 19/19/19
f 16/16/16 19/19/19 20/20/20
f 16/16/16 20/20/20 21/21/21
f 16/16/16 21/21/21 22/22/22
f 16/16/16 22/22/22 23/23/23
f 16/16/16 23/23/23 24/24/24
f 16/16/16 24/24/24 17/17/17
f 25/25/25 21/21/21 20/20/20
f 25/25/25 20/20/20 26/26/26
f 25/25/25 26/26/26 27/27/27
f 25/25/25 27/27/27 28/28/28
f 25/25/25 28/28/28 29/29/29
f 25/25/25 29/29/29 30/30/30
f 25/25/25 30/30/30 22/22/22
f 25/25/25 22/22/22 21/21/21
f 31/31/31 32/32/32 22/22/22
f 31/31/31 22/22/22 30/30/30
f 31/31/31 30/30/30 29/29/29
f 31/31/31 29/29/29 33/33/33
f 31/31/31 33/33/33 5/5/5
f 31/31/31 5/5/5 4/4/4
f 31/31/31 4/4/4 3/3/3
f 31/31/31 3/3/3 32/32/32
f 34/34/34 35/35/35 24/24/24
f 34/34/34 24/24/24 23/23/23
f 34/34/34 23/23/23 22/22/22
f 34/34/34 22/22/22 32/32/32
f 34/34/34 32/32/32 3/3/3
f 34/34/34 3/3/3 13/13/13
f 34/34/34 13/13/13 12/12/12
f 34/34/34 12/12/12 35/35/35
f 36/36/36 37/37/37 38/38/38
f 36/36/36 38/38/38 39/39/39
f 36/36/36 39/39/39 40/40/40
f 36/36/36 40/40/40 41/41/41
f 36/36/36 41/41/41 20/20/20
f 36/36/36 20/20/20 19/19/19
f 36/36/36 19/19/19 18/18/18
f 36/36/36 18/18/18 37/37/37
f 42/42/42 41/41/41 40/40/40
f 42/42/42 40/40/40 43/43/43
f 42/42/42 43/43/43 44/44/44
f 42/42/42 44/44/44 45/45/45
f 42/42/42 45/45/45 27/27/27
f 42/42/42 27/27/27 26/26/26
f 42/42/42 26/26/26 20/20/20
f 42/42/42 20/20/20 41/41/41
f 46/46/46 47/47/47 48/48/48
f 46/46/46 48/48/48 49/49/49
f 46/46/46 49/49/49 50/50/50
f 46/46/46 50/50/50 51/51/51
f 46/46/46 51/51/51 52/52/52
f 46/46/46 52/52/52 53/53/53
f 46/46/46 53/53/53 54/54/54
f 46/46/46 54/54/54 47/47/47
f 55/55/55 56/56/56 57/57/57
f 55/55/55 57/57/57 58/58/58
f 55/55/55 58/58/58 48/48/48
f 55/55/55 48/48/48 47/47/47
f 55/55/55 47/47/47 54/54/54
f 55/55/55 54/54/54 59/59/59
f 55/55/55 59/59/59 60/60/60
f 55/55/55 60/60/60 56/56/56
f 61/61/61 62/62/62 63/63/63
f 61/61/61 63/63/63 64/64/64
f 61/61/61 64/64/64 65/65/65
f 61/61/61 65/65/65 66/66/66
f 61/61/61 66/66/66 67/67/67
f 61/61/61 67/67/67 68/68/68
f 61/61/61 68/68/68 69/69/69
f 61/61/61 69/69/69 62/62/62
f 70/70/70 66/66/66 65/65/65
f 70/70/70 65/65/65 71/71/71
f 70/70/70 71/71/71 72/72/72
f 70/70/70 72/72/72 73/73/73
f 70/70/70 73/73/73 74/74/74
f 70/70/70 74/74/74 75/75/75
f 70/70/70 75/75/75 67/67/67
f 70/70/70 67/67/67 66/66/66
f 76/76/76 77/77/77 54/54/54
f 76/76/76 54/54/54 53/53/53
f 76/76/76 53/53/53 52/52/52
f 76/76/76 52/52/52 78/78/78
f 76/76/76 78/78/78 72/72/72
f 76/76/76 72/72/72 71/71/71
f 76/76/76 71/71/71 65/65/65
f 76/76/76 65/65/65 77/77/77
f 79/79/79 80/80/80 60/60/60
f 79/79/79 60/60/60 59/59/59
f 79/79/79 59/59/59 54/54/54
f 79/79/79 54/54/54 77/77/77
f 79/79/79 77/77/77 65/65/65
f 79/79/79 65/65/65 64/64/64
f 79/79/79 64/64/64 63/63/63
f 79/79/79 63/63/63 80/80/80
f 81/81/81 82/82/82 69/69/69
f 81/81/81 69/69/69 68/68/68
f 81/81/81 68/68/68 67/67/67
f 81/81/81 67/67/67 83/83/83
f 81/81/81 83/83/83 84/84/84
f 81/81/81 84/84/84 85/85/85
f 81/81/81 85/85/85 86/86/86
f 81/81/81 86/86/86 82/82/82
f 87/87/87 83/83/83 67/67/67
f 87/87/87 67/67/67 75/75/75
f 87/87/87 75/75/75 74/74/74
f 87/87/87 74/74/74 88/88/88
f 87/87/87 88/88/88 89/89/89
f 87/87/87 89/89/89 90/90/90
f 87/87/87 90/90/90 84/84/84
f 87/87/87 84/84/84 83/83/83
f 91/91/91 92/92/92 38/38/38
f 91/91/91 38/38/38 37/37/37
f 91/91/91 37/37/37 18/18/18
f 91/91/91 18/18/18 93/93/93
f 91/91/91 93/93/93 69/69/69
f 91/91/91 69/69/69 82/82/82
f 91/91/91 82/82/82 94/94/94
f 91/91/91 94/94/94 92/92/92
f 95/95/95 96/96/96 44/44/44
f 95/95/95 44/44/44 43/43/43
f 95/95/95 43/43/43 40/40/40
f 95/95/95 40/40/40 97/97/97
f 95/95/95 97/97/97 84/84/84
f 95/95/95 84/84/84 90/90/90
f 95/95/95 90/90/90 98/98/98
f 95/95/95 98/98/98 96/96/96
f 99/99/99 100/100/100 7/7/7
f 99/99/99 7/7/7 6/6/6
f 99/99/99 6/6/6 5/5/5
f 99/99/99 5/5/5 101/101/101
f 99/99/99 101/101/101 52/52/52
f 99/99/99 52/52/52 51/51/51
f 99/99/99 51/51/51 102/102/102
f 99/99/99 102/102/102 100/100/100
f 103/103/103 104/104/104 15/15/15
f 103/103/103 15/15/15 14/14/14
f 103/103/103 14/14/14 9/9/9
f 103/103/103 9/9/9 105/105/105
f 103/103/103 105/105/105 48/48/48
f 103/103/103 48/48/48 58/58/58
f 103/103/103 58/58/58 106/106/106
f 103/103/103 106/106/106 104/104/104
f 107/107/107 108/108/108 12/12/12
f 107/107/107 12/12/12 11/11/11
f 107/107/107 11/11/11 15/15/15
f 107/107/107 15/15/15 104/104/104
f 107/107/107 104/104/104 106/106/106
f 107/107/107 106/106/106 56/56/56
f 107/107/107 56/56/56 60/60/60
f 107/107/107 60/60/60 108/108/108
f 109/109/109 97/97/97 40/40/40
f 109/109/109 40/40/40 39/39/39
f 109/109/109 39/39/39 38/38/38
f 109/109/109 38/38/38 92/92/92
f 109/109/109 92/92/92 94/94/94
f 109/109/109 94/94/94 85/85/85
f 109/109/109 85/85/85 84/84/84
f 109/109/109 84/84/84 97/97/97
f 110/110/110 111/111/111 27/27/27
f 110/110/110 27/27/27 45/45/45
f 110/110/110 45/45/45 44/44/44
f 110/110/110 44/44/44 96/96/96
f 110/110/110 96/96/96 98/98/98
f 110/110/110 98/98/98 88/88/88
f 110/110/110 88/88/88 74/74/74
f 110/110/110 74/74/74 111/111/111
f 112/112/112 105/105/105 9/9/9
f 112/112/112 9/9/9 8/8/8
f 112/112/112 8/8/8 7/7/7
f 112/112/112 7/7/7 100/100/100
f 112/112/112 100/100/100 102/102/102
f 112/112/112 102/102/102 49/49/49
f 112/112/112 49/49/49 48/48/48
f 112/112/112 48/48/48 105/105/105
f 113/113/113 101/101/101 5/5/5
f 113/113/113 5/5/5 33/33/33
f 113/113/113 33/33/33 29/29/29
f 113/113/113 29/29/29 114/114/114
f 113/113/113 114/114/114 72/72/72
f 113/113/113 72/72/72 78/78/78
f 113/113/113 78/78/78 52/52/52
f 113/113/113 52/52/52 101/101/101
f 115/115/115 116/116/116 24/24/24
f 115/115/115 24/24/24 35/35/35
f 115/115/115 35/35/35 12/12/12
f 115/115/115 12/12/12 108/108/108
f 115/115/115 108/108/108 60/60/60
f 115/115/115 60/60/60 80/80/80
f 115/115/115 80/80/80 63/63/63
f 115/115/115 63/63/63 116/116/116
f 117/117/117 93/93/93 18/18/18
f 117/117/117 18/18/18 17/17/17
f 117/117/117 17/17/17 24/24/24
f 117/117/117 24/24/24 116/116/116
f 117/117/117 116/116/116 63/63/63
f 117/117/117 63/63/63 62/62/62
f 117/117/117 62/62/62 69/69/69
f 117/117/117 69/69/69 93/93/93
f 118/118/118 114/114/114 29/29/29
f 118/118/118 29/29/29 28/28/28
f 118/118/118 28/28/28 27/27/27
f 118/118/118 27/27/27 111/111/111
f 118/118/118 111/111/111 74/74/74
f 118/118/118 74/74/74 73/73/73
f 118/118/118 73/73/73 72/72/72
f 118/118/118 72/72/72 114/114/114
