v -2.417879 0.805561 -1.151685
v -2.416399 0.806119 -1.150678
v -2.415319 0.804704 -1.152430
v -2.417119 0.804186 -1.153347
v -2.418431 0.803867 -1.154234
v -2.418880 0.805124 -1.152765
v -2.418852 0.805859 -1.151614
v -2.418352 0.806480 -1.150423
v -2.417186 0.807089 -1.149339
v -2.414612 0.806679 -1.150574
v -2.413151 0.807086 -1.150817
v -2.411922 0.806096 -1.152021
v -2.413405 0.805458 -1.152084
v -2.415524 0.807448 -1.149462
v -2.414211 0.807448 -1.150036
v -2.410056 0.800038 -1.156614
v -2.408664 0.800610 -1.156321
v -2.407910 0.798388 -1.157640
v -2.409142 0.797877 -1.157888
v -2.410768 0.797253 -1.158313
v -2.411892 0.799336 -1.157105
v -2.413027 0.801307 -1.155751
v -2.411106 0.802053 -1.155251
v -2.409649 0.802669 -1.154968
v -2.413695 0.798792 -1.157851
v -2.412360 0.796775 -1.158982
v -2.413548 0.796457 -1.159557
v -2.415040 0.798427 -1.158488
v -2.416318 0.800386 -1.157235
v -2.414912 0.800750 -1.156545
v -2.416091 0.802565 -1.155005
v -2.414182 0.803098 -1.154156
v -2.417512 0.802244 -1.155770
v -2.412230 0.803888 -1.153692
v -2.410744 0.804561 -1.153470
v -2.408428 0.795604 -1.159180
v -2.407501 0.796008 -1.159032
v -2.407511 0.794558 -1.159810
v -2.407967 0.793845 -1.160135
v -2.408806 0.793492 -1.160295
v -2.409645 0.795121 -1.159469
v -2.410830 0.794782 -1.159997
v -2.409613 0.793281 -1.160695
v -2.410472 0.793544 -1.160816
v -2.411712 0.794566 -1.160464
v -2.417899 0.805408 -1.151563
v -2.416393 0.805973 -1.150547
v -2.417181 0.806978 -1.149243
v -2.418366 0.806363 -1.150334
v -2.418868 0.805772 -1.151550
v -2.418907 0.805007 -1.152679
v -2.418457 0.803755 -1.154142
v -2.417139 0.804039 -1.153219
v -2.415317 0.804563 -1.152293
v -2.414582 0.806544 -1.150436
v -2.413116 0.806990 -1.150710
v -2.414188 0.807374 -1.149959
v -2.415499 0.807345 -1.149359
v -2.413382 0.805326 -1.151941
v -2.411893 0.806002 -1.151911
v -2.410055 0.799928 -1.156451
v -2.408656 0.800531 -1.156197
v -2.409635 0.802585 -1.154847
v -2.411099 0.801935 -1.155094
v -2.413036 0.801183 -1.155598
v -2.411906 0.799221 -1.156946
v -2.410785 0.797143 -1.158150
v -2.409144 0.797773 -1.157721
v -2.407903 0.798313 -1.157512
v -2.413725 0.798672 -1.157698
v -2.414938 0.800621 -1.156399
v -2.416346 0.800287 -1.157128
v -2.415070 0.798335 -1.158377
v -2.413581 0.796369 -1.159442
v -2.412394 0.796661 -1.158825
v -2.416114 0.802427 -1.154868
v -2.414186 0.802965 -1.154012
v -2.417539 0.802137 -1.155671
v -2.412214 0.803762 -1.153542
v -2.410724 0.804471 -1.153355
v -2.408430 0.795503 -1.159011
v -2.407494 0.795935 -1.158903
v -2.409664 0.795014 -1.159304
v -2.408821 0.793411 -1.160172
v -2.407968 0.793769 -1.160008
v -2.407508 0.794503 -1.159715
v -2.410865 0.794669 -1.159839
v -2.411747 0.794479 -1.160349
v -2.410496 0.793480 -1.160730
v -2.409640 0.793197 -1.160577
v -2.407187 0.796111 -1.158925
v -2.407289 0.794138 -1.160030
v -2.407494 0.798526 -1.157500
v -2.407508 0.794503 -1.159715
v -2.409220 0.792744 -1.160875
v -2.410256 0.793122 -1.161038
v -2.408533 0.792913 -1.160516
v -2.410496 0.793480 -1.160730
v -2.419229 0.804926 -1.153087
v -2.419090 0.805884 -1.151628
v -2.418883 0.803710 -1.154490
v -2.418868 0.805772 -1.151550
v -2.415816 0.807658 -1.149046
v -2.414069 0.807603 -1.149921
v -2.417446 0.807363 -1.148851
v -2.414188 0.807374 -1.149959
v -2.412645 0.807180 -1.150850
v -2.411412 0.806268 -1.151951
v -2.407814 0.793225 -1.160397
v -2.412024 0.794455 -1.160569
v -2.413961 0.796312 -1.159698
v -2.418516 0.806734 -1.149963
v -2.418000 0.802089 -1.155982
v -2.416800 0.800220 -1.157418
v -2.410238 0.804746 -1.153344
v -2.409155 0.802838 -1.154819
v -2.408195 0.800766 -1.156168
v -2.415504 0.798264 -1.158652
vn 0.154500 0.811100 -0.564100
vn -0.050700 0.774400 -0.630600
vn -0.024800 0.740000 -0.672200
vn 0.159600 0.772100 -0.615000
vn 0.162100 0.754900 -0.635400
vn 0.147500 0.809700 -0.568000
vn 0.135600 0.844700 -0.517800
vn 0.078400 0.854300 -0.513700
vn -0.090800 0.822600 -0.561300
vn -0.235600 0.677500 -0.696700
vn -0.228300 0.681200 -0.695600
vn -0.169700 0.641300 -0.748200
vn -0.189000 0.652800 -0.733600
vn -0.240000 0.745400 -0.621900
vn -0.268000 0.706700 -0.654800
vn -0.013400 0.529100 -0.848400
vn 0.023800 0.535900 -0.843900
vn 0.040300 0.511800 -0.858100
vn -0.006500 0.500400 -0.865700
vn 0.103400 0.532200 -0.840300
vn 0.085300 0.565300 -0.820400
vn 0.048600 0.628700 -0.776100
vn -0.058200 0.580700 -0.812000
vn -0.026000 0.578300 -0.815400
vn 0.182300 0.596200 -0.781900
vn 0.203500 0.572300 -0.794300
vn 0.164000 0.554200 -0.816000
vn 0.153000 0.580200 -0.800000
vn 0.144700 0.636900 -0.757300
vn 0.161400 0.656000 -0.737300
vn 0.152800 0.722000 -0.674800
vn 0.007600 0.693200 -0.720600
vn 0.149400 0.700800 -0.697500
vn -0.124100 0.627200 -0.768900
vn -0.097400 0.616200 -0.781500
vn -0.023800 0.479600 -0.877100
vn 0.027800 0.488700 -0.872000
vn 0.005800 0.463500 -0.886000
vn -0.020000 0.425400 -0.904800
vn 0.135400 0.470200 -0.872100
vn 0.111900 0.516200 -0.849100
vn 0.232200 0.567200 -0.790100
vn 0.275100 0.526400 -0.804500
vn 0.227400 0.539300 -0.810800
vn 0.192100 0.544900 -0.816200
vn -0.189500 -0.800900 0.567900
vn 0.043600 -0.765200 0.642300
vn 0.016000 -0.727700 0.685700
vn -0.292100 -0.766300 0.572200
vn -0.403700 -0.748300 0.526400
vn -0.379000 -0.755900 0.533800
vn -0.319800 -0.754800 0.572700
vn -0.173800 -0.773500 0.609400
vn 0.024900 -0.740000 0.672100
vn 0.249500 -0.650700 0.717200
vn 0.361200 -0.502500 0.785500
vn 0.376500 -0.481400 0.791500
vn 0.291900 -0.566500 0.770600
vn 0.201800 -0.644900 0.737100
vn 0.302400 -0.541700 0.784200
vn 0.028600 -0.524000 0.851200
vn 0.134300 -0.485900 0.863600
vn 0.167400 -0.520200 0.837500
vn 0.071900 -0.575200 0.814800
vn -0.048600 -0.628600 0.776200
vn -0.085400 -0.565200 0.820500
vn -0.103500 -0.532100 0.840300
vn 0.025100 -0.496100 0.867900
vn 0.155600 -0.473300 0.867100
vn -0.196200 -0.601000 0.774800
vn -0.174600 -0.659600 0.731000
vn -0.277100 -0.672400 0.686300
vn -0.290000 -0.631200 0.719400
vn -0.312300 -0.633400 0.707900
vn -0.218600 -0.579500 0.785000
vn -0.165900 -0.724700 0.668700
vn -0.007600 -0.693200 0.720600
vn -0.284600 -0.723100 0.629400
vn 0.137000 -0.621000 0.771700
vn 0.231600 -0.546300 0.804900
vn 0.055500 -0.485400 0.872500
vn 0.219300 -0.474600 0.852400
vn -0.106700 -0.525900 0.843800
vn -0.084000 -0.567600 0.819000
vn 0.151600 -0.509400 0.847000
vn 0.259300 -0.479000 0.838600
vn -0.246100 -0.588600 0.770000
vn -0.342900 -0.667100 0.661300
vn -0.357600 -0.690200 0.629000
vn -0.278500 -0.656700 0.700800
vn 0.993600 0.096200 -0.058700
vn 0.924700 -0.229600 -0.303500
vn 0.977600 0.203600 0.052800
vn 0.259300 -0.479000 0.838600
vn 0.200900 -0.820600 -0.534900
vn -0.280900 -0.642300 -0.713100
vn 0.405400 -0.848900 -0.339200
vn -0.357600 -0.690200 0.629000
vn -0.950000 0.155400 -0.270700
vn -0.939300 0.343000 -0.007200
vn -0.916600 -0.006800 -0.399600
vn -0.403700 -0.748300 0.526400
vn 0.064700 0.697000 0.714100
vn 0.397800 0.800700 0.447900
vn -0.427200 0.497500 0.754900
vn 0.376500 -0.481400 0.791500
vn 0.653200 0.705200 0.275500
vn 0.794600 0.579100 0.182200
vn 0.625400 -0.675300 -0.390700
vn -0.639600 -0.462700 -0.613800
vn -0.750900 -0.387500 -0.534800
vn -0.821500 0.393700 0.412500
vn -0.878300 -0.136200 -0.458300
vn -0.852100 -0.218100 -0.475700
vn 0.875500 0.463100 0.137500
vn 0.914000 0.386100 0.124500
vn 0.945400 0.306500 0.110900
vn -0.819900 -0.297500 -0.489100
vt 0.839504 0.118056
vt 0.856743 0.205307
vt 0.741230 0.205307
vt 0.734555 0.106726
vt 0.724541 0.032791
vt 0.813647 0.052618
vt 0.868992 0.081539
vt 0.913398 0.129584
vt 0.940923 0.205307
vt 0.839504 0.292557
vt 0.813647 0.357995
vt 0.724541 0.377822
vt 0.734555 0.303887
vt 0.913398 0.281029
vt 0.868992 0.329074
vt 0.369475 0.299954
vt 0.368286 0.370940
vt 0.245840 0.351447
vt 0.246397 0.288815
vt 0.246768 0.205307
vt 0.370268 0.205307
vt 0.494283 0.205307
vt 0.492822 0.304944
vt 0.490632 0.379672
vt 0.369475 0.110659
vt 0.246397 0.121798
vt 0.245841 0.059166
vt 0.368286 0.039673
vt 0.490632 0.030941
vt 0.492822 0.105669
vt 0.616755 0.103478
vt 0.619174 0.205307
vt 0.613127 0.027106
vt 0.616755 0.307135
vt 0.613126 0.383507
vt 0.123273 0.268175
vt 0.123047 0.315326
vt 0.054743 0.283353
vt 0.030912 0.249131
vt 0.030973 0.205306
vt 0.123423 0.205306
vt 0.123273 0.142438
vt 0.030912 0.161481
vt 0.054744 0.127260
vt 0.123047 0.095287
vt 0.839504 0.118056
vt 0.856743 0.205307
vt 0.968983 0.205307
vt 0.938030 0.133427
vt 0.876123 0.061548
vt 0.805028 0.030806
vt 0.721203 0.008146
vt 0.734555 0.106726
vt 0.741230 0.205307
vt 0.839504 0.292557
vt 0.805028 0.379807
vt 0.876123 0.349065
vt 0.938030 0.277186
vt 0.734555 0.303887
vt 0.721203 0.402467
vt 0.369475 0.299954
vt 0.367890 0.394602
vt 0.489902 0.404581
vt 0.492822 0.304944
vt 0.494283 0.205307
vt 0.370268 0.205307
vt 0.246768 0.205307
vt 0.246397 0.288815
vt 0.245655 0.372324
vt 0.369475 0.110659
vt 0.492822 0.105669
vt 0.489902 0.006032
vt 0.367890 0.016011
vt 0.245655 0.038289
vt 0.246397 0.121798
vt 0.616755 0.103478
vt 0.619174 0.205307
vt 0.611917 0.001649
vt 0.616755 0.307135
vt 0.611917 0.408964
vt 0.123273 0.268175
vt 0.122972 0.331043
vt 0.123423 0.205306
vt 0.000156 0.205306
vt 0.000125 0.242784
vt 0.000064 0.280261
vt 0.123273 0.142438
vt 0.122972 0.079570
vt 0.000064 0.130352
vt 0.000125 0.167829
vt 0.122972 0.331043
vt 0.030806 0.283587
vt 0.245655 0.372324
vt 0.030806 0.283587
vt 0.000125 0.167829
vt 0.030806 0.127026
vt 0.000156 0.205306
vt 0.030806 0.127026
vt 0.805028 0.030806
vt 0.873826 0.071832
vt 0.721203 0.008146
vt 0.873826 0.071832
vt 0.938030 0.277186
vt 0.873826 0.338781
vt 0.968983 0.205307
vt 0.873826 0.338781
vt 0.805028 0.379807
vt 0.721203 0.402467
vt 0.000125 0.242784
vt 0.122972 0.079570
vt 0.245655 0.038289
vt 0.938030 0.133427
vt 0.611917 0.001649
vt 0.489902 0.006032
vt 0.611917 0.408964
vt 0.489902 0.404581
vt 0.367890 0.394602
vt 0.367890 0.016011
f 1/1/1 2/2/2 3/3/3
f 1/1/1 3/3/3 4/4/4
f 1/1/1 4/4/4 5/5/5
f 1/1/1 5/5/5 6/6/6
f 1/1/1 6/6/6 7/7/7
f 1/1/1 7/7/7 8/8/8
f 1/1/1 8/8/8 9/9/9
f 1/1/1 9/9/9 2/2/2
f 10/10/10 11/11/11 12/12/12
f 10/10/10 12/12/12 13/13/13
f 10/10/10 13/13/13 3/3/3
f 10/10/10 3/3/3 2/2/2
f 10/10/10 2/2/2 9/9/9
f 10/10/10 9/9/9 14/14/14
f 10/10/10 14/14/14 15/15/15
f 10/10/10 15/15/15 11/11/11
f 16/16/16 17/17/17 18/18/18
f 16/16/16 18/18/18 19/19/19
f 16/16/16 19/19/19 20/20/20
f 16/16/16 20/20/20 21/21/21
f 16/16/16 21/21/21 22/22/22
f 16/16/16 22/22/22 23/23/23
f 16/16/16 23/23/23 24/24/24
f 16/16/16 24/24/24 17/17/17
f 25/25/25 21/21/21 20/20/20
f 25/25/25 20/20/20 26/26/26
f 25/25/25 26/26/26 27/27/27
f 25/25/25 27/27/27 28/28/28
f 25/25/25 28/28/28 29/29/29
f 25/25/25 29/29/29 30/30/30
f 25/25/25 30/30/30 22/22/22
f 25/25/25 22/22/22 21/21/21
f 31/31/31 32/32/32 22/22/22
f 31/31/31 22/22/22 30/30/30
f 31/31/31 30/30/30 29/29/29
f 31/31/31 29/29/29 33/33/33
f 31/31/31 33/33/33 5/5/5
f 31/31/31 5/5/5 4/4/4
f 31/31/31 4/4/4 3/3/3
f 31/31/31 3/3/3 32/32/32
f 34/34/34 35/35/35 24/24/24
f 34/34/34 24/24/24 23/23/23
f 34/34/34 23/23/23 22/22/22
f 34/34/34 22/22/22 32/32/32
f 34/34/34 32/32/32 3/3/3
f 34/34/34 3/3/3 13/13/13
f 34/34/34 13/13/13 12/12/12
f 34/34/34 12/12/12 35/35/35
f 36/36/36 37/37/37 38/38/38
f 36/36/36 38/38/38 39/39/39
f 36/36/36 39/39/39 40/40/40
f 36/36/36 40/40/40 41/41/41
f 36/36/36 41/41/41 20/20/20
f 36/36/36 20/20/20 19/19/19
f 36/36/36 19/19/19 18/18/18
f 36/36/36 18/18/18 37/37/37
f 42/42/42 41/41/41 40/40/40
f 42/42/42 40/40/40 43/43/43
f 42/42/42 43/43/43 44/44/44
f 42/42/42 44/44/44 45/45/45
f 42/42/42 45/45/45 27/27/27
f 42/42/42 27/27/27 26/26/26
f 42/42/42 26/26/26 20/20/20
f 42/42/42 20/20/20 41/41/41
f 46/46/46 47/47/47 48/48/48
f 46/46/46 48/48/48 49/49/49
f 46/46/46 49/49/49 50/50/50
f 46/46/46 50/50/50 51/51/51
f 46/46/46 51/51/51 52/52/52
f 46/46/46 52/52/52 53/53/53
f 46/46/46 53/53/53 54/54/54
f 46/46/46 54/54/54 47/47/47
f 55/55/55 56/56/56 57/57/57
f 55/55/55 57/57/57 58/58/58
f 55/55/55 58/58/58 48/48/48
f 55/55/55 48/48/48 47/47/47
f 55/55/55 47/47/47 54/54/54
f 55/55/55 54/54/54 59/59/59
f 55/55/55 59/59/59 60/60/60
f 55/55/55 60/60/60 56/56/56
f 61/61/61 62/62/62 63/63/63
f 61/61/61 63/63/63 64/64/64
f 61/61/61 64/64/64 65/65/65
f 61/61/61 65/65/65 66/66/66
f 61/61/61 66/66/66 67/67/67
f 61/61/61 67/67/67 68/68/68
f 61/61/61 68/68/68 69/69/69
f 61/61/61 69/69/69 62/62/62
f 70/70/70 66/66/66 65/65/65
f 70/70/70 65/65/65 71/71/71
f 70/70/70 71/71/71 72/72/72
f 70/70/70 72/72/72 73/73/73
f 70/70/70 73/73/73 74/74/74
f 70/70/70 74/74/74 75/75/75
f 70/70/70 75/75/75 67/67/67
f 70/70/70 67/67/67 66/66/66
f 76/76/76 77/77/77 54/54/54
f 76/76/76 54/54/54 53/53/53
f 76/76/76 53/53/53 52/52/52
f 76/76/76 52/52/52 78/78/78
f 76/76/76 78/78/78 72/72/72
f 76/76/76 72/72/72 71/71/71
f 76/76/76 71/71/71 65/65/65
f 76/76/76 65/65/65 77/77/77
f 79/79/79 80/80/80 60/60/60
f 79/79/79 60/60/60 59/59/59
f 79/79/79 59/59/59 54/54/54
f 79/79/79 54/54/54 77/77/77
f 79/79/79 77/77/77 65/65/65
f 79/79/79 65/65/65 64/64/64
f 79/79/79 64/64/64 63/63/63
f 79/79/79 63/63/63 80/80/80
f 81/81/81 82/82/82 69/69/69
f 81/81/81 69/69/69 68/68/68
f 81/81/81 68/68/68 67/67/67
f 81/81/81 67/67/67 83/83/83
f 81/81/81 83/83/83 84/84/84
f 81/81/81 84/84/84 85/85/85
f 81/81/81 85/85/85 86/86/86
f 81/81/81 86/86/86 82/82/82
f 87/87/87 83/83/83 67/67/67
f 87/87/87 67/67/67 75/75/75
f 87/87/87 75/75/75 74/74/74
f 87/87/87 74/74/74 88/88/88
f 87/87/87 88/88/88 89/89/89
f 87/87/87 89/89/89 90/90/90
f 87/87/87 90/90/90 84/84/84
f 87/87/87 84/84/84 83/83/83
f 91/91/91 92/92/92 38/38/38
f 91/91/91 38/38/38 37/37/37
f 91/91/91 37/37/37 18/18/18
f 91/91/91 18/18/18 93/93/93
f 91/91/91 93/93/93 69/69/69
f 91/91/91 69/69/69 82/82/82
f 91/91/91 82/82/82 94/94/94
f 91/91/91 94/94/94 92/92/92
f 95/95/95 96/96/96 44/44/44
f 95/95/95 44/44/44 43/43/43
f 95/95/95 43/43/43 40/40/40
f 95/95/95 40/40/40 97/97/97
f 95/95/95 97/97/97 84/84/84
f 95/95/95 84/84/84 90/90/90
f 95/95/95 90/90/90 98/98/98
f 95/95/95 98/98/98 96/96/96
f 99/99/99 100/100/100 7/7/7
f 99/99/99 7/7/7 6/6/6
f 99/99/99 6/6/6 5/5/5
f 99/99/99 5/5/5 101/101/101
f 99/99/99 101/101/101 52/52/52
f 99/99/99 52/52/52 51/51/51
f 99/99/99 51/51/51 102/102/102
f 99/99/99 102/102/102 100/100/100
f 103/103/103 104/104/104 15/15/15
f 103/103/103 15/15/15 14/14/14
f 103/103/103 14/14/14 9/9/9
f 103/103/103 9/9/9 105/105/105
f 103/103/103 105/105/105 48/48/48
f 103/103/103 48/48/48 58/58/58
f 103/103/103 58/58/58 106/106/106
f 103/103/103 106/106/106 104/104/104
f 107/107/107 108/108/108 12/12/12
f 107/107/107 12/12/12 11/11/11
f 107/107/107 11/11/11 15/15/15
f 107/107/107 15/15/15 104/104/104
f 107/107/107 104/104/104 106/106/106
f 107/107/107 106/106/106 56/56/56
f 107/107/107 56/56/56 60/60/60
f 107/107/107 60/60/60 108/108/108
f 109/109/109 97/97/97 40/40/40
f 109/109/109 40/40/40 39/39/39
f 109/109/109 39/39/39 38/38/38
f 109/109/109 38/38/38 92/92/92
f 109/109/109 92/92/92 94/94/94
f 109/109/109 94/94/94 85/85/85
f 109/109/109 85/85/85 84/84/84
f 109/109/109 84/84/84 97/97/97
f 110/110/110 111/111/111 27/27/27
f 110/110/110 27/27/27 45/45/45
f 110/110/110 45/45/45 44/44/44
f 110/110/110 44/44/44 96/96/96
f 110/110/110 96/96/96 98/98/98
f 110/110/110 98/98/98 88/88/88
f 110/110/110 88/88/88 74/74/74
f 110/110/110 74/74/74 111/111/111
f 112/112/112 105/105/105 9/9/9
f 112/112/112 9/9/9 8/8/8
f 112/112/112 8/8/8 7/7/7
f 112/112/112 7/7/7 100/100/100
f 112/112/112 100/100/100 102/102/102
f 112/112/112 102/102/102 49/49/49
f 112/112/112 49/49/49 48/48/48
f 112/112/112 48/48/48 105/105/105
f 113/113/113 101/101/101 5/5/5
f 113/113/113 5/5/5 33/33/33
f 113/113/113 33/33/33 29/29/29
f 113/113/113 29/29/29 114/114/114
f 113/113/113 114/114/114 72/72/72
f 113/113/113 72/72/72 78/78/78
f 113/113/113 78/78/78 52/52/52
f 113/113/113 52/52/52 101/101/101
f 115/115/115 116/116/116 24/24/24
f 115/115/115 24/24/24 35/35/35
f 115/115/115 35/35/35 12/12/12
f 115/115/115 12/12/12 108/108/108
f 115/115/115 108/108/108 60/60/60
f 115/115/115 60/60/60 80/80/80
f 115/115/115 80/80/80 63/63/63
f 115/115/115 63/63/63 116/116/116
f 117/117/117 93/93/93 18/18/18
f 117/117/117 18/18/18 17/17/17
f 117/117/117 17/17/17 24/24/24
f 117/117/117 24/24/24 116/116/116
f 117/117/117 116/116/116 63/63/63
f 117/117/117 63/63/63 62/62/62
f 117/117/117 62/62/62 69/69/69
f 117/117/117 69/69/69 93/93/93
f 118/118/118 114/114/114 29/29/29
f 118/118/118 29/29/29 28/28/28
f 118/118/118 28/28/28 27/27/27
f 118/118/118 27/27/27 111/111/111
f 118/118/118 111/111/111 74/74/74
f 118/118/118 74/74/74 73/73/73
f 118/118/118 73/73/73 72/72/72
f 118/118/118 72/72/72 114/114/114
