v -2.406874 0.679125 -1.099600
v -2.409070 0.679062 -1.100073
v -2.408768 0.676700 -1.098261
v -2.406303 0.676995 -1.097973
v -2.404441 0.677236 -1.097502
v -2.405192 0.679042 -1.098857
v -2.406052 0.679984 -1.099882
v -2.407356 0.680554 -1.100844
v -2.409288 0.680729 -1.101482
v -2.411197 0.678689 -1.099448
v -2.412773 0.678276 -1.098591
v -2.413053 0.676367 -1.097200
v -2.411216 0.676499 -1.097801
v -2.411097 0.680177 -1.100712
v -2.412191 0.679364 -1.099667
v -2.410182 0.668228 -1.093524
v -2.411991 0.668114 -1.093228
v -2.411165 0.665149 -1.092265
v -2.409565 0.665247 -1.092541
v -2.407437 0.665413 -1.092780
v -2.407776 0.668418 -1.093782
v -2.408112 0.671332 -1.094986
v -2.410630 0.671144 -1.094697
v -2.412523 0.671040 -1.094356
v -2.405368 0.668714 -1.093693
v -2.405308 0.665676 -1.092690
v -2.403705 0.665901 -1.092526
v -2.403556 0.668966 -1.093524
v -2.403699 0.671930 -1.094665
v -2.405594 0.671652 -1.094874
v -2.405891 0.674458 -1.096349
v -2.408446 0.674108 -1.096522
v -2.403968 0.674776 -1.096048
v -2.411001 0.673943 -1.096170
v -2.412923 0.673873 -1.095734
v -2.408685 0.662254 -1.091635
v -2.409881 0.662194 -1.091378
v -2.408865 0.660548 -1.090998
v -2.407930 0.659995 -1.091013
v -2.406842 0.660058 -1.091213
v -2.407097 0.662367 -1.091853
v -2.405508 0.662574 -1.091747
v -2.405752 0.660215 -1.091089
v -2.404948 0.660944 -1.091135
v -2.404310 0.662756 -1.091574
v -2.406835 0.678995 -1.099791
v -2.409063 0.678926 -1.100265
v -2.409282 0.680625 -1.101624
v -2.407324 0.680454 -1.100985
v -2.406022 0.679912 -1.099987
v -2.405146 0.678947 -1.098999
v -2.404400 0.677147 -1.097649
v -2.406269 0.676871 -1.098171
v -2.408762 0.676572 -1.098458
v -2.411222 0.678552 -1.099637
v -2.412808 0.678174 -1.098731
v -2.412213 0.679287 -1.099770
v -2.411118 0.680071 -1.100852
v -2.411240 0.676370 -1.097996
v -2.413085 0.676270 -1.097345
v -2.410202 0.668138 -1.093742
v -2.412016 0.668046 -1.093390
v -2.412548 0.670962 -1.094513
v -2.410649 0.671042 -1.094909
v -2.408109 0.671232 -1.095199
v -2.407774 0.668329 -1.094001
v -2.407437 0.665333 -1.093002
v -2.409586 0.665165 -1.092761
v -2.411191 0.665087 -1.092429
v -2.405346 0.668628 -1.093912
v -2.405569 0.671554 -1.095087
v -2.403669 0.671858 -1.094825
v -2.403529 0.668902 -1.093688
v -2.403678 0.665845 -1.092692
v -2.405287 0.665599 -1.092912
v -2.405862 0.674347 -1.096554
v -2.408442 0.673993 -1.096728
v -2.403934 0.674695 -1.096201
v -2.411021 0.673826 -1.096374
v -2.412951 0.673785 -1.095885
v -2.408707 0.662175 -1.091857
v -2.409909 0.662135 -1.091543
v -2.407098 0.662291 -1.092076
v -2.406842 0.660001 -1.091380
v -2.407947 0.659936 -1.091179
v -2.408883 0.660505 -1.091120
v -2.405486 0.662501 -1.091970
v -2.404282 0.662702 -1.091740
v -2.404930 0.660903 -1.091259
v -2.405735 0.660160 -1.091257
v -2.410294 0.662148 -1.091366
v -2.408802 0.659949 -1.090823
v -2.411713 0.665088 -1.092245
v -2.408883 0.660505 -1.091120
v -2.405826 0.659404 -1.090945
v -2.404877 0.660345 -1.090961
v -2.406757 0.659263 -1.091074
v -2.404930 0.660903 -1.091259
v -2.404607 0.678972 -1.098672
v -2.405815 0.680139 -1.099933
v -2.403799 0.677278 -1.097410
v -2.406022 0.679912 -1.099987
v -2.411073 0.680625 -1.101195
v -2.412457 0.679469 -1.099700
v -2.409358 0.681239 -1.102015
v -2.412213 0.679287 -1.099770
v -2.413318 0.678093 -1.098367
v -2.413682 0.676280 -1.097063
v -2.407686 0.659216 -1.090880
v -2.403895 0.662793 -1.091590
v -2.403157 0.665951 -1.092545
v -2.407502 0.680985 -1.101320
v -2.403309 0.674847 -1.096015
v -2.403052 0.671991 -1.094666
v -2.413579 0.673811 -1.095656
v -2.413167 0.670970 -1.094312
v -2.412608 0.668046 -1.093201
v -2.402938 0.669022 -1.093540
vn -0.247400 0.567200 0.785500
vn -0.035000 0.619900 0.783900
vn -0.029000 0.572200 0.819600
vn -0.218600 0.523600 0.823400
vn -0.206900 0.504600 0.838200
vn -0.239700 0.568400 0.787000
vn -0.260900 0.611400 0.747000
vn -0.217500 0.646500 0.731200
vn -0.044300 0.689900 0.722500
vn 0.183100 0.610500 0.770500
vn 0.175400 0.610400 0.772400
vn 0.159600 0.541600 0.825300
vn 0.166300 0.562500 0.809900
vn 0.134200 0.682000 0.718900
vn 0.184800 0.656300 0.731500
vn 0.105700 0.358100 0.927700
vn 0.069800 0.347700 0.935000
vn 0.070300 0.317100 0.945700
vn 0.117100 0.327400 0.937600
vn 0.002200 0.308400 0.951200
vn -0.002300 0.348400 0.937300
vn -0.011400 0.426900 0.904200
vn 0.110800 0.428800 0.896500
vn 0.085500 0.411600 0.907300
vn -0.110400 0.336300 0.935200
vn -0.114800 0.304000 0.945700
vn -0.066400 0.303400 0.950500
vn -0.072900 0.333300 0.940000
vn -0.103000 0.392500 0.913900
vn -0.131700 0.404400 0.905000
vn -0.172200 0.474700 0.863100
vn -0.021300 0.509800 0.860000
vn -0.153000 0.454500 0.877500
vn 0.133500 0.505600 0.852400
vn 0.119600 0.482100 0.867900
vn 0.144000 0.315500 0.937900
vn 0.094600 0.300500 0.949000
vn 0.127900 0.286600 0.949500
vn 0.171500 0.262500 0.949600
vn 0.010400 0.235100 0.971900
vn 0.004300 0.289300 0.957200
vn -0.138700 0.287000 0.947800
vn -0.154200 0.229600 0.961000
vn -0.116500 0.261900 0.958000
vn -0.086600 0.282300 0.955400
vn 0.271900 -0.541600 -0.795400
vn 0.033400 -0.606900 -0.794000
vn 0.026900 -0.555500 -0.831000
vn 0.344200 -0.463700 -0.816400
vn 0.448300 -0.402900 -0.797900
vn 0.427700 -0.419700 -0.800600
vn 0.363000 -0.440700 -0.820900
vn 0.233300 -0.519100 -0.822300
vn 0.029100 -0.572300 -0.819500
vn -0.212800 -0.590500 -0.778400
vn -0.389700 -0.502200 -0.771900
vn -0.413100 -0.489900 -0.767700
vn -0.300500 -0.528700 -0.793800
vn -0.181400 -0.561000 -0.807700
vn -0.323900 -0.510000 -0.796800
vn -0.121600 -0.360200 -0.924900
vn -0.230800 -0.373400 -0.898500
vn -0.236200 -0.422200 -0.875100
vn -0.125600 -0.429900 -0.894100
vn 0.011300 -0.426700 -0.904300
vn 0.002300 -0.348200 -0.937400
vn -0.002200 -0.308300 -0.951300
vn -0.135300 -0.331800 -0.933600
vn -0.255100 -0.371600 -0.892600
vn 0.126600 -0.335200 -0.933600
vn 0.146600 -0.402400 -0.903600
vn 0.254600 -0.372700 -0.892300
vn 0.237800 -0.326200 -0.914900
vn 0.261500 -0.319500 -0.910800
vn 0.133800 -0.304600 -0.943000
vn 0.186600 -0.471900 -0.861700
vn 0.021300 -0.509800 -0.860000
vn 0.300800 -0.421300 -0.855500
vn -0.147900 -0.505700 -0.849900
vn -0.269200 -0.478900 -0.835500
vn -0.167000 -0.335600 -0.927000
vn -0.303400 -0.403900 -0.863000
vn -0.003000 -0.300900 -0.953600
vn 0.002600 -0.351300 -0.936200
vn -0.230400 -0.404200 -0.885100
vn -0.330600 -0.427900 -0.841200
vn 0.166000 -0.302000 -0.938700
vn 0.317200 -0.341300 -0.884800
vn 0.350300 -0.359100 -0.865000
vn 0.244600 -0.356300 -0.901800
vn -0.861800 -0.377800 0.338400
vn -0.590000 -0.665400 0.457300
vn -0.929600 -0.260600 0.260600
vn -0.330600 -0.427900 -0.841200
vn 0.338400 -0.884400 0.321400
vn 0.741100 -0.531100 0.410800
vn 0.105200 -0.977000 0.185500
vn 0.350300 -0.359100 -0.865000
vn 0.843000 0.535900 0.046900
vn 0.667800 0.730600 -0.142200
vn 0.923800 0.359700 0.130800
vn 0.448300 -0.402900 -0.797900
vn -0.578800 0.678400 -0.452400
vn -0.808300 0.581700 -0.090800
vn -0.097700 0.733500 -0.672600
vn -0.413100 -0.489900 -0.767700
vn -0.927600 0.357300 0.108900
vn -0.965700 0.169300 0.197000
vn -0.131700 -0.931900 0.337900
vn 0.941200 -0.196100 0.275100
vn 0.978700 -0.068100 0.193600
vn 0.399300 0.777000 -0.486500
vn 0.962300 0.220100 0.159600
vn 0.977900 0.134300 0.159900
vn -0.973500 0.025300 0.227100
vn -0.971700 -0.061900 0.227700
vn -0.962700 -0.148000 0.226500
vn 0.986200 0.048600 0.158400
vt 0.839504 0.118056
vt 0.856743 0.205307
vt 0.741230 0.205307
vt 0.734555 0.106726
vt 0.724541 0.032791
vt 0.813647 0.052618
vt 0.868992 0.081539
vt 0.913398 0.129584
vt 0.940923 0.205307
vt 0.839504 0.292557
vt 0.813647 0.357995
vt 0.724541 0.377822
vt 0.734555 0.303887
vt 0.913398 0.281029
vt 0.868992 0.329074
vt 0.369475 0.299954
vt 0.368286 0.370940
vt 0.245840 0.351447
vt 0.246397 0.288815
vt 0.246768 0.205307
vt 0.370268 0.205307
vt 0.494283 0.205307
vt 0.492822 0.304944
vt 0.490632 0.379672
vt 0.369475 0.110659
vt 0.246397 0.121798
vt 0.245841 0.059166
vt 0.368286 0.039673
vt 0.490632 0.030941
vt 0.492822 0.105669
vt 0.616755 0.103478
vt 0.619174 0.205307
vt 0.613127 0.027106
vt 0.616755 0.307135
vt 0.613126 0.383507
vt 0.123273 0.268175
vt 0.123047 0.315326
vt 0.054743 0.283353
vt 0.030912 0.249131
vt 0.030973 0.205306
vt 0.123423 0.205306
vt 0.123273 0.142438
vt 0.030912 0.161481
vt 0.054744 0.127260
vt 0.123047 0.095287
vt 0.839504 0.118056
vt 0.856743 0.205307
vt 0.968983 0.205307
vt 0.938030 0.133427
vt 0.876123 0.061548
vt 0.805028 0.030806
vt 0.721203 0.008146
vt 0.734555 0.106726
vt 0.741230 0.205307
vt 0.839504 0.292557
vt 0.805028 0.379807
vt 0.876123 0.349065
vt 0.938030 0.277186
vt 0.734555 0.303887
vt 0.721203 0.402467
vt 0.369475 0.299954
vt 0.367890 0.394602
vt 0.489902 0.404581
vt 0.492822 0.304944
vt 0.494283 0.205307
vt 0.370268 0.205307
vt 0.246768 0.205307
vt 0.246397 0.288815
vt 0.245655 0.372324
vt 0.369475 0.110659
vt 0.492822 0.105669
vt 0.489902 0.006032
vt 0.367890 0.016011
vt 0.245655 0.038289
vt 0.246397 0.121798
vt 0.616755 0.103478
vt 0.619174 0.205307
vt 0.611917 0.001649
vt 0.616755 0.307135
vt 0.611917 0.408964
vt 0.123273 0.268175
vt 0.122972 0.331043
vt 0.123423 0.205306
vt 0.000156 0.205306
vt 0.000125 0.242784
vt 0.000064 0.280261
vt 0.123273 0.142438
vt 0.122972 0.079570
vt 0.000064 0.130352
vt 0.000125 0.167829
vt 0.122972 0.331043
vt 0.030806 0.283587
vt 0.245655 0.372324
vt 0.030806 0.283587
vt 0.000125 0.167829
vt 0.030806 0.127026
vt 0.000156 0.205306
vt 0.030806 0.127026
vt 0.805028 0.030806
vt 0.873826 0.071832
vt 0.721203 0.008146
vt 0.873826 0.071832
vt 0.938030 0.277186
vt 0.873826 0.338781
vt 0.968983 0.205307
vt 0.873826 0.338781
vt 0.805028 0.379807
vt 0.721203 0.402467
vt 0.000125 0.242784
vt 0.122972 0.079570
vt 0.245655 0.038289
vt 0.938030 0.133427
vt 0.611917 0.001649
vt 0.489902 0.006032
vt 0.611917 0.408964
vt 0.489902 0.404581
vt 0.367890 0.394602
vt 0.367890 0.016011
f 1/1/1 2/2/2 3/3/3
f 1/1/1 3/3/3 4/4/4
f 1/1/1 4/4/4 5/5/5
f 1/1/1 5/5/5 6/6/6
f 1/1/1 6/6/6 7/7/7
f 1/1/1 7/7/7 8/8/8
f 1/1/1 8/8/8 9/9/9
f 1/1/1 9/9/9 2/2/2
f 10/10/10 11/11/11 12/12/12
f 10/10/10 12/12/12 13/13/13
f 10/10/10 13/13/13 3/3/3
f 10/10/10 3/3/3 2/2/2
f 10/10/10 2/2/2 9/9/9
f 10/10/10 9/9/9 14/14/14
f 10/10/10 14/14/14 15/15/15
f 10/10/10 15/15/15 11/11/11
f 16/16/16 17/17/17 18/18/18
f 16/16/16 18/18/18 19/19/19
f 16/16/16 19/19/19 20/20/20
f 16/16/16 20/20/20 21/21/21
f 16/16/16 21/21/21 22/22/22
f 16/16/16 22/22/22 23/23/23
f 16/16/16 23/23/23 24/24/24
f 16/16/16 24/24/24 17/17/17
f 25/25/25 21/21/21 20/20/20
f 25/25/25 20/20/20 26/26/26
f 25/25/25 26/26/26 27/27/27
f 25/25/25 27/27/27 28/28/28
f 25/25/25 28/28/28 29/29/29
f 25/25/25 29/29/29 30/30/30
f 25/25/25 30/30/30 22/22/22
f 25/25/25 22/22/22 21/21/21
f 31/31/31 32/32/32 22/22/22
f 31/31/31 22/22/22 30/30/30
f 31/31/31 30/30/30 29/29/29
f 31/31/31 29/29/29 33/33/33
f 31/31/31 33/33/33 5/5/5
f 31/31/31 5/5/5 4/4/4
f 31/31/31 4/4/4 3/3/3
f 31/31/31 3/3/3 32/32/32
f 34/34/34 35/35/35 24/24/24
f 34/34/34 24/24/24 23/23/23
f 34/34/34 23/23/23 22/22/22
f 34/34/34 22/22/22 32/32/32
f 34/34/34 32/32/32 3/3/3
f 34/34/34 3/3/3 13/13/13
f 34/34/34 13/13/13 12/12/12
f 34/34/34 12/12/12 35/35/35
f 36/36/36 37/37/37 38/38/38
f 36/36/36 38/38/38 39/39/39
f 36/36/36 39/39/39 40/40/40
f 36/36/36 40/40/40 41/41/41
f 36/36/36 41/41/41 20/20/20
f 36/36/36 20/20/20 19/19/19
f 36/36/36 19/19/19 18/18/18
f 36/36/36 18/18/18 37/37/37
f 42/42/42 41/41/41 40/40/40
f 42/42/42 40/40/40 43/43/43
f 42/42/42 43/43/43 44/44/44
f 42/42/42 44/44/44 45/45/45
f 42/42/42 45/45/45 27/27/27
f 42/42/42 27/27/27 26/26/26
f 42/42/42 26/26/26 20/20/20
f 42/42/42 20/20/20 41/41/41
f 46/46/46 47/47/47 48/48/48
f 46/46/46 48/48/48 49/49/49
f 46/46/46 49/49/49 50/50/50
f 46/46/46 50/50/50 51/51/51
f 46/46/46 51/51/51 52/52/52
f 46/46/46 52/52/52 53/53/53
f 46/46/46 53/53/53 54/54/54
f 46/46/46 54/54/54 47/47/47
f 55/55/55 56/56/56 57/57/57
f 55/55/55 57/57/57 58/58/58
f 55/55/55 58/58/58 48/48/48
f 55/55/55 48/48/48 47/47/47
f 55/55/55 47/47/47 54/54/54
f 55/55/55 54/54/54 59/59/59
f 55/55/55 59/59/59 60/60/60
f 55/55/55 60/60/60 56/56/56
f 61/61/61 62/62/62 63/63/63
f 61/61/61 63/63/63 64/64/64
f 61/61/61 64/64/64 65/65/65
f 61/61/61 65/65/65 66/66/66
f 61/61/61 66/66/66 67/67/67
f 61/61/61 67/67/67 68/68/68
f 61/61/61 68/68/68 69/69/69
f 61/61/61 69/69/69 62/62/62
f 70/70/70 66/66/66 65/65/65
f 70/70/70 65/65/65 71/71/71
f 70/70/70 71/71/71 72/72/72
f 70/70/70 72/72/72 73/73/73
f 70/70/70 73/73/73 74/74/74
f 70/70/70 74/74/74 75/75/75
f 70/70/70 75/75/75 67/67/67
f 70/70/70 67/67/67 66/66/66
f 76/76/76 77/77/77 54/54/54
f 76/76/76 54/54/54 53/53/53
f 76/76/76 53/53/53 52/52/52
f 76/76/76 52/52/52 78/78/78
f 76/76/76 78/78/78 72/72/72
f 76/76/76 72/72/72 71/71/71
f 76/76/76 71/71/71 65/65/65
f 76/76/76 65/65/65 77/77/77
f 79/79/79 80/80/80 60/60/60
f 79/79/79 60/60/60 59/59/59
f 79/79/79 59/59/59 54/54/54
f 79/79/79 54/54/54 77/77/77
f 79/79/79 77/77/77 65/65/65
f 79/79/79 65/65/65 64/64/64
f 79/79/79 64/64/64 63/63/63
f 79/79/79 63/63/63 80/80/80
f 81/81/81 82/82/82 69/69/69
f 81/81/81 69/69/69 68/68/68
f 81/81/81 68/68/68 67/67/67
f 81/81/81 67/67/67 83/83/83
f 81/81/81 83/83/83 84/84/84
f 81/81/81 84/84/84 85/85/85
f 81/81/81 85/85/85 86/86/86
f 81/81/81 86/86/86 82/82/82
f 87/87/87 83/83/83 67/67/67
f 87/87/87 67/67/67 75/75/75
f 87/87/87 75/75/75 74/74/74
f 87/87/87 74/74/74 88/88/88
f 87/87/87 88/88/88 89/89/89
f 87/87/87 89/89/89 90/90/90
f 87/87/87 90/90/90 84/84/84
f 87/87/87 84/84/84 83/83/83
f 91/91/91 92/92/92 38/38/38
f 91/91/91 38/38/38 37/37/37
f 91/91/91 37/37/37 18/18/18
f 91/91/91 18/18/18 93/93/93
f 91/91/91 93/93/93 69/69/69
f 91/91/91 69/69/69 82/82/82
f 91/91/91 82/82/82 94/94/94
f 91/91/91 94/94/94 92/92/92
f 95/95/95 96/96/96 44/44/44
f 95/95/95 44/44/44 43/43/43
f 95/95/95 43/43/43 40/40/40
f 95/95/95 40/40/40 97/97/97
f 95/95/95 97/97/97 84/84/84
f 95/95/95 84/84/84 90/90/90
f 95/95/95 90/90/90 98/98/98
f 95/95/95 98/98/98 96/96/96
f 99/99/99 100/100/100 7/7/7
f 99/99/99 7/7/7 6/6/6
f 99/99/99 6/6/6 5/5/5
f 99/99/99 5/5/5 101/101/101
f 99/99/99 101/101/101 52/52/52
f 99/99/99 52/52/52 51/51/51
f 99/99/99 51/51/51 102/102/102
f 99/99/99 102/102/102 100/100/100
f 103/103/103 104/104/104 15/15/15
f 103/103/103 15/15/15 14/14/14
f 103/103/103 14/14/14 9/9/9
f 103/103/103 9/9/9 105/105/105
f 103/103/103 105/105/105 48/48/48
f 103/103/103 48/48/48 58/58/58
f 103/103/103 58/58/58 106/106/106
f 103/103/103 106/106/106 104/104/104
f 107/107/107 108/108/108 12/12/12
f 107/107/107 12/12/12 11/11/11
f 107/107/107 11/11/11 15/15/15
f 107/107/107 15/15/15 104/104/104
f 107/107/107 104/104/104 106/106/106
f 107/107/107 106/106/106 56/56/56
f 107/107/107 56/56/56 60/60/60
f 107/107/107 60/60/60 108/108/108
f 109/109/109 97/97/97 40/40/40
f 109/109/109 40/40/40 39/39/39
f 109/109/109 39/39/39 38/38/38
f 109/109/109 38/38/38 92/92/92
f 109/109/109 92/92/92 94/94/94
f 109/109/109 94/94/94 85/85/85
f 109/109/109 85/85/85 84/84/84
f 109/109/109 84/84/84 97/97/97
f 110/110/110 111/111/111 27/27/27
f 110/110/110 27/27/27 45/45/45
f 110/110/110 45/45/45 44/44/44
f 110/110/110 44/44/44 96/96/96
f 110/110/110 96/96/96 98/98/98
f 110/110/110 98/98/98 88/88/88
f 110/110/110 88/88/88 74/74/74
f 110/110/110 74/74/74 111/111/111
f 112/112/112 105/105/105 9/9/9
f 112/112/112 9/9/9 8/8/8
f 112/112/112 8/8/8 7/7/7
f 112/112/112 7/7/7 100/100/100
f 112/112/112 100/100/100 102/102/102
f 112/112/112 102/102/102 49/49/49
f 112/112/112 49/49/49 48/48/48
f 112/112/112 48/48/48 105/105/105
f 113/113/113 101/101/101 5/5/5
f 113/113/113 5/5/5 33/33/33
f 113/113/113 33/33/33 29/29/29
f 113/113/113 29/29/29 114/114/114
f 113/113/113 114/114/114 72/72/72
f 113/113/113 72/72/72 78/78/78
f 113/113/113 78/78/78 52/52/52
f 113/113/113 52/52/52 101/101/101
f 115/115/115 116/116/116 24/24/24
f 115/115/115 24/24/24 35/35/35
f 115/115/115 35/35/35 12/12/12
f 115/115/115 12/12/12 108/108/108
f 115/115/115 108/108/108 60/60/60
f 115/115/115 60/60/60 80/80/80
f 115/115/115 80/80/80 63/63/63
f 115/115/115 63/63/63 116/116/116
f 117/117/117 93/93/93 18/18/18
f 117/117/117 18/18/18 17/17/17
f 117/117/117 17/17/17 24/24/24
f 117/117/117 24/24/24 116/116/116
f 117/117/117 116/116/116 63/63/63
f 117/117/117 63/63/63 62/62/62
f 117/117/117 62/62/62 69/69/69
f 117/117/117 69/69/69 93/93/93
f 118/118/118 114/114/114 29/29/29
f 118/118/118 29/29/29 28/28/28
f 118/118/118 28/28/28 27/27/27
f 118/118/118 27/27/27 111/111/111
f 118/118/118 111/111/111 74/74/74
f 118/118/118 74/74/74 73/73/73
f 118/118/118 73/73/73 72/72/72
f 118/118/118 72/72/72 114/114/114
