v -2.382204 0.782632 -1.238600
v -2.383572 0.782377 -1.240830
v -2.385919 0.781375 -1.238436
v -2.384089 0.781704 -1.236180
v -2.382874 0.782146 -1.234321
v -2.381495 0.782963 -1.236595
v -2.380907 0.783199 -1.238402
v -2.380908 0.783154 -1.240410
v -2.381828 0.782996 -1.242609
v -2.385825 0.782582 -1.242170
v -2.387845 0.782876 -1.242855
v -2.390087 0.782046 -1.241432
v -2.388205 0.781648 -1.240237
v -2.384042 0.783111 -1.243499
v -2.386050 0.783128 -1.243471
v -2.394998 0.776718 -1.233194
v -2.396637 0.776922 -1.234568
v -2.398331 0.774735 -1.232002
v -2.396873 0.774543 -1.230796
v -2.395003 0.774408 -1.229124
v -2.392891 0.776576 -1.231296
v -2.390687 0.778520 -1.233559
v -2.392899 0.778691 -1.235537
v -2.394628 0.778940 -1.236960
v -2.390965 0.776773 -1.229219
v -2.393307 0.774592 -1.227280
v -2.392082 0.774821 -1.225842
v -2.389572 0.777019 -1.227603
v -2.387237 0.779042 -1.229674
v -2.388681 0.778749 -1.231379
v -2.386319 0.780401 -1.233736
v -2.388326 0.780104 -1.235976
v -2.384896 0.780795 -1.231964
v -2.390598 0.780343 -1.237955
v -2.392396 0.780691 -1.239357
v -2.398500 0.772287 -1.228208
v -2.399618 0.772479 -1.229083
v -2.400029 0.771126 -1.227262
v -2.399617 0.770537 -1.226213
v -2.398620 0.770394 -1.225399
v -2.397084 0.772150 -1.226981
v -2.395839 0.772323 -1.225585
v -2.397794 0.770562 -1.224415
v -2.396748 0.771171 -1.224027
v -2.394952 0.772543 -1.224483
v -2.382113 0.782374 -1.238634
v -2.383508 0.782117 -1.240891
v -2.381783 0.782800 -1.242652
v -2.380841 0.782961 -1.240431
v -2.380852 0.783057 -1.238412
v -2.381413 0.782773 -1.236607
v -2.382790 0.781957 -1.234342
v -2.383994 0.781450 -1.236225
v -2.385848 0.781118 -1.238504
v -2.385788 0.782324 -1.242257
v -2.387831 0.782685 -1.242933
v -2.386038 0.782986 -1.243525
v -2.384019 0.782917 -1.243563
v -2.388158 0.781393 -1.240329
v -2.390064 0.781857 -1.241513
v -2.394911 0.776484 -1.233314
v -2.396581 0.776747 -1.234665
v -2.394581 0.778760 -1.237051
v -2.392823 0.778450 -1.235647
v -2.390592 0.778278 -1.233652
v -2.392787 0.776342 -1.231399
v -2.394892 0.774179 -1.229233
v -2.396780 0.774315 -1.230922
v -2.398271 0.774565 -1.232105
v -2.390844 0.776540 -1.229304
v -2.388568 0.778509 -1.231453
v -2.387144 0.778863 -1.229720
v -2.389473 0.776845 -1.227658
v -2.391978 0.774652 -1.225901
v -2.393179 0.774364 -1.227372
v -2.386215 0.780153 -1.233795
v -2.388244 0.779854 -1.236056
v -2.384808 0.780610 -1.231997
v -2.390537 0.780094 -1.238056
v -2.392361 0.780506 -1.239443
v -2.398407 0.772062 -1.228338
v -2.399557 0.772310 -1.229189
v -2.396971 0.771924 -1.227093
v -2.398535 0.770225 -1.225483
v -2.399547 0.770368 -1.226311
v -2.399981 0.771001 -1.227338
v -2.395708 0.772099 -1.225677
v -2.394844 0.772375 -1.224542
v -2.396670 0.771047 -1.224074
v -2.397694 0.770394 -1.224484
v -2.399966 0.772468 -1.229423
v -2.400436 0.770676 -1.226849
v -2.398793 0.774724 -1.232452
v -2.399981 0.771001 -1.227338
v -2.398401 0.769900 -1.224056
v -2.397148 0.770721 -1.223608
v -2.399094 0.769734 -1.224909
v -2.396670 0.771047 -1.224074
v -2.381219 0.782990 -1.235929
v -2.380607 0.783296 -1.238287
v -2.382429 0.782210 -1.233708
v -2.380852 0.783057 -1.238412
v -2.383438 0.783201 -1.243970
v -2.386170 0.783220 -1.243771
v -2.381227 0.783114 -1.243220
v -2.386038 0.782986 -1.243525
v -2.388515 0.782889 -1.243121
v -2.390707 0.782096 -1.241869
v -2.399958 0.769878 -1.225592
v -2.394606 0.772542 -1.224140
v -2.391626 0.774822 -1.225387
v -2.380446 0.783242 -1.241021
v -2.384381 0.780844 -1.231385
v -2.386713 0.779060 -1.229124
v -2.392982 0.780726 -1.239865
v -2.395185 0.778943 -1.237476
v -2.397161 0.776913 -1.235071
v -2.389061 0.777024 -1.227087
vn -0.359100 0.932300 0.042800
vn -0.195500 0.963100 0.184900
vn -0.235500 0.945200 0.225700
vn -0.383600 0.918000 0.100600
vn -0.393700 0.910800 0.124300
vn -0.354300 0.933800 0.049000
vn -0.323900 0.946100 -0.004000
vn -0.269500 0.963000 0.008000
vn -0.131700 0.984000 0.119800
vn -0.050700 0.936600 0.346800
vn -0.056900 0.938000 0.341900
vn -0.131400 0.914400 0.382900
vn -0.107900 0.921800 0.372300
vn -0.017600 0.966400 0.256300
vn -0.004600 0.950500 0.310600
vn -0.314400 0.829100 0.462200
vn -0.346900 0.826800 0.442600
vn -0.367600 0.808500 0.459500
vn -0.327500 0.809600 0.487000
vn -0.419000 0.808100 0.413800
vn -0.394700 0.832500 0.388700
vn -0.343600 0.876800 0.336300
vn -0.259000 0.867700 0.424300
vn -0.289800 0.861400 0.417100
vn -0.469300 0.827000 0.309600
vn -0.493600 0.807300 0.323300
vn -0.465400 0.807200 0.363100
vn -0.449000 0.825500 0.341900
vn -0.424900 0.859500 0.284000
vn -0.432700 0.865300 0.253100
vn -0.400500 0.899500 0.174700
vn -0.284300 0.918300 0.275600
vn -0.406100 0.890700 0.204300
vn -0.181600 0.902500 0.390500
vn -0.210900 0.893400 0.396700
vn -0.316000 0.798800 0.511900
vn -0.361700 0.795700 0.485700
vn -0.347000 0.783000 0.516300
vn -0.330300 0.761400 0.557700
vn -0.461000 0.760600 0.457000
vn -0.430300 0.796200 0.425400
vn -0.518400 0.796000 0.312300
vn -0.563600 0.758200 0.327800
vn -0.522000 0.780600 0.343600
vn -0.491500 0.794000 0.357700
vn 0.392800 -0.918800 -0.038500
vn 0.206600 -0.958500 -0.196200
vn 0.248900 -0.938400 -0.239400
vn 0.489200 -0.871900 -0.022300
vn 0.574400 -0.817300 0.045700
vn 0.554700 -0.831300 0.034400
vn 0.515100 -0.856900 -0.018400
vn 0.394500 -0.914400 -0.090400
vn 0.235500 -0.945300 -0.225700
vn 0.045700 -0.923600 -0.380700
vn -0.030700 -0.839400 -0.542600
vn -0.042400 -0.825700 -0.562500
vn 0.027500 -0.878200 -0.477500
vn 0.097500 -0.918500 -0.383200
vn 0.023000 -0.863700 -0.503300
vn 0.301400 -0.828400 -0.472100
vn 0.208800 -0.817900 -0.536000
vn 0.168100 -0.843300 -0.510400
vn 0.247400 -0.866300 -0.433900
vn 0.343700 -0.876800 -0.336400
vn 0.394800 -0.832400 -0.388900
vn 0.419100 -0.808100 -0.413900
vn 0.311200 -0.809900 -0.497200
vn 0.190500 -0.811800 -0.552000
vn 0.479200 -0.826000 -0.296800
vn 0.442400 -0.863600 -0.241700
vn 0.519600 -0.838500 -0.163900
vn 0.544400 -0.813300 -0.205200
vn 0.560400 -0.806800 -0.187200
vn 0.504000 -0.807200 -0.307200
vn 0.410200 -0.897100 -0.164000
vn 0.284200 -0.918300 -0.275600
vn 0.504500 -0.858500 -0.091500
vn 0.170700 -0.900400 -0.400200
vn 0.096300 -0.864200 -0.493900
vn 0.285000 -0.807500 -0.516400
vn 0.126200 -0.818000 -0.561200
vn 0.423500 -0.803500 -0.418400
vn 0.392900 -0.834200 -0.386900
vn 0.186400 -0.835000 -0.517600
vn 0.084100 -0.823100 -0.561600
vn 0.523500 -0.804200 -0.281300
vn 0.570700 -0.811900 -0.123000
vn 0.571800 -0.816300 -0.080900
vn 0.526500 -0.830300 -0.182300
vn -0.939100 -0.062200 -0.338100
vn -0.970500 -0.238400 0.034700
vn -0.880900 -0.009800 -0.473200
vn 0.084100 -0.823100 -0.561600
vn -0.393000 -0.542400 0.742500
vn -0.017200 -0.225000 0.974200
vn -0.506800 -0.685000 0.523300
vn 0.571800 -0.816300 -0.080900
vn 0.772300 0.417300 0.478900
vn 0.864200 0.472100 0.174000
vn 0.691200 0.320400 0.647800
vn 0.574400 -0.817300 0.045700
vn 0.217100 0.311300 -0.925200
vn -0.192600 0.457500 -0.868100
vn 0.686100 0.201600 -0.699000
vn -0.042400 -0.825700 -0.562500
vn -0.495600 0.399700 -0.771100
vn -0.661900 0.301700 -0.686100
vn -0.729400 -0.546900 0.410800
vn 0.352200 -0.044700 0.934800
vn 0.485900 0.008900 0.873900
vn 0.917500 0.320900 -0.234700
vn 0.632600 0.222500 0.741800
vn 0.601900 0.152500 0.783900
vn -0.753800 0.203400 -0.624800
vn -0.794400 0.133500 -0.592600
vn -0.828400 0.063000 -0.556500
vn 0.567400 0.082100 0.819300
vt 0.839504 0.118056
vt 0.856743 0.205307
vt 0.741230 0.205307
vt 0.734555 0.106726
vt 0.724541 0.032791
vt 0.813647 0.052618
vt 0.868992 0.081539
vt 0.913398 0.129584
vt 0.940923 0.205307
vt 0.839504 0.292557
vt 0.813647 0.357995
vt 0.724541 0.377822
vt 0.734555 0.303887
vt 0.913398 0.281029
vt 0.868992 0.329074
vt 0.369475 0.299954
vt 0.368286 0.370940
vt 0.245840 0.351447
vt 0.246397 0.288815
vt 0.246768 0.205307
vt 0.370268 0.205307
vt 0.494283 0.205307
vt 0.492822 0.304944
vt 0.490632 0.379672
vt 0.369475 0.110659
vt 0.246397 0.121798
vt 0.245841 0.059166
vt 0.368286 0.039673
vt 0.490632 0.030941
vt 0.492822 0.105669
vt 0.616755 0.103478
vt 0.619174 0.205307
vt 0.613127 0.027106
vt 0.616755 0.307135
vt 0.613126 0.383507
vt 0.123273 0.268175
vt 0.123047 0.315326
vt 0.054743 0.283353
vt 0.030912 0.249131
vt 0.030973 0.205306
vt 0.123423 0.205306
vt 0.123273 0.142438
vt 0.030912 0.161481
vt 0.054744 0.127260
vt 0.123047 0.095287
vt 0.839504 0.118056
vt 0.856743 0.205307
vt 0.968983 0.205307
vt 0.938030 0.133427
vt 0.876123 0.061548
vt 0.805028 0.030806
vt 0.721203 0.008146
vt 0.734555 0.106726
vt 0.741230 0.205307
vt 0.839504 0.292557
vt 0.805028 0.379807
vt 0.876123 0.349065
vt 0.938030 0.277186
vt 0.734555 0.303887
vt 0.721203 0.402467
vt 0.369475 0.299954
vt 0.367890 0.394602
vt 0.489902 0.404581
vt 0.492822 0.304944
vt 0.494283 0.205307
vt 0.370268 0.205307
vt 0.246768 0.205307
vt 0.246397 0.288815
vt 0.245655 0.372324
vt 0.369475 0.110659
vt 0.492822 0.105669
vt 0.489902 0.006032
vt 0.367890 0.016011
vt 0.245655 0.038289
vt 0.246397 0.121798
vt 0.616755 0.103478
vt 0.619174 0.205307
vt 0.611917 0.001649
vt 0.616755 0.307135
vt 0.611917 0.408964
vt 0.123273 0.268175
vt 0.122972 0.331043
vt 0.123423 0.205306
vt 0.000156 0.205306
vt 0.000125 0.242784
vt 0.000064 0.280261
vt 0.123273 0.142438
vt 0.122972 0.079570
vt 0.000064 0.130352
vt 0.000125 0.167829
vt 0.122972 0.331043
vt 0.030806 0.283587
vt 0.245655 0.372324
vt 0.030806 0.283587
vt 0.000125 0.167829
vt 0.030806 0.127026
vt 0.000156 0.205306
vt 0.030806 0.127026
vt 0.805028 0.030806
vt 0.873826 0.071832
vt 0.721203 0.008146
vt 0.873826 0.071832
vt 0.938030 0.277186
vt 0.873826 0.338781
vt 0.968983 0.205307
vt 0.873826 0.338781
vt 0.805028 0.379807
vt 0.721203 0.402467
vt 0.000125 0.242784
vt 0.122972 0.079570
vt 0.245655 0.038289
vt 0.938030 0.133427
vt 0.611917 0.001649
vt 0.489902 0.006032
vt 0.611917 0.408964
vt 0.489902 0.404581
vt 0.367890 0.394602
vt 0.367890 0.016011
f 1/1/1 2/2/2 3/3/3
f 1/1/1 3/3/3 4/4/4
f 1/1/1 4/4/4 5/5/5
f 1/1/1 5/5/5 6/6/6
f 1/1/1 6/6/6 7/7/7
f 1/1/1 7/7/7 8/8/8
f 1/1/1 8/8/8 9/9/9
f 1/1/1 9/9/9 2/2/2
f 10/10/10 11/11/11 12/12/12
f 10/10/10 12/12/12 13/13/13
f 10/10/10 13/13/13 3/3/3
f 10/10/10 3/3/3 2/2/2
f 10/10/10 2/2/2 9/9/9
f 10/10/10 9/9/9 14/14/14
f 10/10/10 14/14/14 15/15/15
f 10/10/10 15/15/15 11/11/11
f 16/16/16 17/17/17 18/18/18
f 16/16/16 18/18/18 19/19/19
f 16/16/16 19/19/19 20/20/20
f 16/16/16 20/20/20 21/21/21
f 16/16/16 21/21/21 22/22/22
f 16/16/16 22/22/22 23/23/23
f 16/16/16 23/23/23 24/24/24
f 16/16/16 24/24/24 17/17/17
f 25/25/25 21/21/21 20/20/20
f 25/25/25 20/20/20 26/26/26
f 25/25/25 26/26/26 27/27/27
f 25/25/25 27/27/27 28/28/28
f 25/25/25 28/28/28 29/29/29
f 25/25/25 29/29/29 30/30/30
f 25/25/25 30/30/30 22/22/22
f 25/25/25 22/22/22 21/21/21
f 31/31/31 32/32/32 22/22/22
f 31/31/31 22/22/22 30/30/30
f 31/31/31 30/30/30 29/29/29
f 31/31/31 29/29/29 33/33/33
f 31/31/31 33/33/33 5/5/5
f 31/31/31 5/5/5 4/4/4
f 31/31/31 4/4/4 3/3/3
f 31/31/31 3/3/3 32/32/32
f 34/34/34 35/35/35 24/24/24
f 34/34/34 24/24/24 23/23/23
f 34/34/34 23/23/23 22/22/22
f 34/34/34 22/22/22 32/32/32
f 34/34/34 32/32/32 3/3/3
f 34/34/34 3/3/3 13/13/13
f 34/34/34 13/13/13 12/12/12
f 34/34/34 12/12/12 35/35/35
f 36/36/36 37/37/37 38/38/38
f 36/36/36 38/38/38 39/39/39
f 36/36/36 39/39/39 40/40/40
f 36/36/36 40/40/40 41/41/41
f 36/36/36 41/41/41 20/20/20
f 36/36/36 20/20/20 19/19/19
f 36/36/36 19/19/19 18/18/18
f 36/36/36 18/18/18 37/37/37
f 42/42/42 41/41/41 40/40/40
f 42/42/42 40/40/40 43/43/43
f 42/42/42 43/43/43 44/44/44
f 42/42/42 44/44/44 45/45/45
f 42/42/42 45/45/45 27/27/27
f 42/42/42 27/27/27 26/26/26
f 42/42/42 26/26/26 20/20/20
f 42/42/42 20/20/20 41/41/41
f 46/46/46 47/47/47 48/48/48
f 46/46/46 48/48/48 49/49/49
f 46/46/46 49/49/49 50/50/50
f 46/46/46 50/50/50 51/51/51
f 46/46/46 51/51/51 52/52/52
f 46/46/46 52/52/52 53/53/53
f 46/46/46 53/53/53 54/54/54
f 46/46/46 54/54/54 47/47/47
f 55/55/55 56/56/56 57/57/57
f 55/55/55 57/57/57 58/58/58
f 55/55/55 58/58/58 48/48/48
f 55/55/55 48/48/48 47/47/47
f 55/55/55 47/47/47 54/54/54
f 55/55/55 54/54/54 59/59/59
f 55/55/55 59/59/59 60/60/60
f 55/55/55 60/60/60 56/56/56
f 61/61/61 62/62/62 63/63/63
f 61/61/61 63/63/63 64/64/64
f 61/61/61 64/64/64 65/65/65
f 61/61/61 65/65/65 66/66/66
f 61/61/61 66/66/66 67/67/67
f 61/61/61 67/67/67 68/68/68
f 61/61/61 68/68/68 69/69/69
f 61/61/61 69/69/69 62/62/62
f 70/70/70 66/66/66 65/65/65
f 70/70/70 65/65/65 71/71/71
f 70/70/70 71/71/71 72/72/72
f 70/70/70 72/72/72 73/73/73
f 70/70/70 73/73/73 74/74/74
f 70/70/70 74/74/74 75/75/75
f 70/70/70 75/75/75 67/67/67
f 70/70/70 67/67/67 66/66/66
f 76/76/76 77/77/77 54/54/54
f 76/76/76 54/54/54 53/53/53
f 76/76/76 53/53/53 52/52/52
f 76/76/76 52/52/52 78/78/78
f 76/76/76 78/78/78 72/72/72
f 76/76/76 72/72/72 71/71/71
f 76/76/76 71/71/71 65/65/65
f 76/76/76 65/65/65 77/77/77
f 79/79/79 80/80/80 60/60/60
f 79/79/79 60/60/60 59/59/59
f 79/79/79 59/59/59 54/54/54
f 79/79/79 54/54/54 77/77/77
f 79/79/79 77/77/77 65/65/65
f 79/79/79 65/65/65 64/64/64
f 79/79/79 64/64/64 63/63/63
f 79/79/79 63/63/63 80/80/80
f 81/81/81 82/82/82 69/69/69
f 81/81/81 69/69/69 68/68/68
f 81/81/81 68/68/68 67/67/67
f 81/81/81 67/67/67 83/83/83
f 81/81/81 83/83/83 84/84/84
f 81/81/81 84/84/84 85/85/85
f 81/81/81 85/85/85 86/86/86
f 81/81/81 86/86/86 82/82/82
f 87/87/87 83/83/83 67/67/67
f 87/87/87 67/67/67 75/75/75
f 87/87/87 75/75/75 74/74/74
f 87/87/87 74/74/74 88/88/88
f 87/87/87 88/88/88 89/89/89
f 87/87/87 89/89/89 90/90/90
f 87/87/87 90/90/90 84/84/84
f 87/87/87 84/84/84 83/83/83
f 91/91/91 92/92/92 38/38/38
f 91/91/91 38/38/38 37/37/37
f 91/91/91 37/37/37 18/18/18
f 91/91/91 18/18/18 93/93/93
f 91/91/91 93/93/93 69/69/69
f 91/91/91 69/69/69 82/82/82
f 91/91/91 82/82/82 94/94/94
f 91/91/91 94/94/94 92/92/92
f 95/95/95 96/96/96 44/44/44
f 95/95/95 44/44/44 43/43/43
f 95/95/95 43/43/43 40/40/40
f 95/95/95 40/40/40 97/97/97
f 95/95/95 97/97/97 84/84/84
f 95/95/95 84/84/84 90/90/90
f 95/95/95 90/90/90 98/98/98
f 95/95/95 98/98/98 96/96/96
f 99/99/99 100/100/100 7/7/7
f 99/99/99 7/7/7 6/6/6
f 99/99/99 6/6/6 5/5/5
f 99/99/99 5/5/5 101/101/101
f 99/99/99 101/101/101 52/52/52
f 99/99/99 52/52/52 51/51/51
f 99/99/99 51/51/51 102/102/102
f 99/99/99 102/102/102 100/100/100
f 103/103/103 104/104/104 15/15/15
f 103/103/103 15/15/15 14/14/14
f 103/103/103 14/14/14 9/9/9
f 103/103/103 9/9/9 105/105/105
f 103/103/103 105/105/105 48/48/48
f 103/103/103 48/48/48 58/58/58
f 103/103/103 58/58/58 106/106/106
f 103/103/103 106/106/106 104/104/104
f 107/107/107 108/108/108 12/12/12
f 107/107/107 12/12/12 11/11/11
f 107/107/107 11/11/11 15/15/15
f 107/107/107 15/15/15 104/104/104
f 107/107/107 104/104/104 106/106/106
f 107/107/107 106/106/106 56/56/56
f 107/107/107 56/56/56 60/60/60
f 107/107/107 60/60/60 108/108/108
f 109/109/109 97/97/97 40/40/40
f 109/109/109 40/40/40 39/39/39
f 109/109/109 39/39/39 38/38/38
f 109/109/109 38/38/38 92/92/92
f 109/109/109 92/92/92 94/94/94
f 109/109/109 94/94/94 85/85/85
f 109/109/109 85/85/85 84/84/84
f 109/109/109 84/84/84 97/97/97
f 110/110/110 111/111/111 27/27/27
f 110/110/110 27/27/27 45/45/45
f 110/110/110 45/45/45 44/44/44
f 110/110/110 44/44/44 96/96/96
f 110/110/110 96/96/96 98/98/98
f 110/110/110 98/98/98 88/88/88
f 110/110/110 88/88/88 74/74/74
f 110/110/110 74/74/74 111/111/111
f 112/112/112 105/105/105 9/9/9
f 112/112/112 9/9/9 8/8/8
f 112/112/112 8/8/8 7/7/7
f 112/112/112 7/7/7 100/100/100
f 112/112/112 100/100/100 102/102/102
f 112/112/112 102/102/102 49/49/49
f 112/112/112 49/49/49 48/48/48
f 112/112/112 48/48/48 105/105/105
f 113/113/113 101/101/101 5/5/5
f 113/113/113 5/5/5 33/33/33
f 113/113/113 33/33/33 29/29/29
f 113/113/113 29/29/29 114/114/114
f 113/113/113 114/114/114 72/72/72
f 113/113/113 72/72/72 78/78/78
f 113/113/113 78/78/78 52/52/52
f 113/113/113 52/52/52 101/101/101
f 115/115/115 116/116/116 24/24/24
f 115/115/115 24/24/24 35/35/35
f 115/115/115 35/35/35 12/12/12
f 115/115/115 12/12/12 108/108/108
f 115/115/115 108/108/108 60/60/60
f 115/115/115 60/60/60 80/80/80
f 115/115/115 80/80/80 63/63/63
f 115/115/115 63/63/63 116/116/116
f 117/117/117 93/93/93 18/18/18
f 117/117/117 18/18/18 17/17/17
f 117/117/117 17/17/17 24/24/24
f 117/117/117 24/24/24 116/116/116
f 117/117/117 116/116/116 63/63/63
f 117/117/117 63/63/63 62/62/62
f 117/117/117 62/62/62 69/69/69
f 117/117/117 69/69/69 93/93/93
f 118/118/118 114/114/114 29/29/29
f 118/118/118 29/29/29 28/28/28
f 118/118/118 28/28/28 27/27/27
f 118/118/118 27/27/27 111/111/111
f 118/118/118 111/111/111 74/74/74
f 118/118/118 74/74/74 73/73/73
f 118/118/118 73/73/73 72/72/72
f 118/118/118 72/72/72 114/114/114
