v -2.400823 0.751730 -1.193898
v -2.400842 0.751978 -1.196142
v -2.402872 0.749797 -1.195750
v -2.402583 0.749713 -1.193257
v -2.402609 0.749696 -1.191312
v -2.401197 0.751451 -1.192109
v -2.400251 0.752410 -1.193051
v -2.399515 0.753083 -1.194459
v -2.399282 0.753504 -1.196454
v -2.401956 0.752028 -1.198105
v -2.403183 0.751974 -1.199487
v -2.404866 0.750289 -1.199694
v -2.403871 0.750052 -1.198039
v -2.400495 0.753341 -1.198101
v -2.401860 0.752833 -1.199026
v -2.408979 0.742197 -1.197168
v -2.409669 0.742415 -1.198865
v -2.410850 0.739461 -1.198245
v -2.410226 0.739265 -1.196748
v -2.409516 0.739053 -1.194722
v -2.408188 0.741960 -1.194873
v -2.406676 0.744756 -1.195083
v -2.407521 0.745016 -1.197477
v -2.408272 0.745262 -1.199243
v -2.407717 0.741865 -1.192483
v -2.409111 0.738972 -1.192604
v -2.408895 0.738947 -1.190985
v -2.407459 0.741833 -1.190656
v -2.405959 0.744654 -1.190656
v -2.406201 0.744669 -1.192576
v -2.404433 0.747323 -1.192826
v -2.404860 0.747379 -1.195386
v -2.404270 0.747352 -1.190852
v -2.405772 0.747675 -1.197798
v -2.406616 0.747969 -1.199566
v -2.411343 0.736270 -1.196093
v -2.411857 0.736436 -1.197198
v -2.412243 0.734688 -1.196350
v -2.412107 0.733988 -1.195524
v -2.411672 0.733849 -1.194510
v -2.410777 0.736097 -1.194592
v -2.410511 0.736051 -1.193001
v -2.411537 0.733838 -1.193406
v -2.411217 0.734419 -1.192538
v -2.410397 0.736052 -1.191776
v -2.400647 0.751575 -1.193922
v -2.400673 0.751823 -1.196198
v -2.399158 0.753385 -1.196496
v -2.399385 0.752963 -1.194475
v -2.400153 0.752323 -1.193057
v -2.401062 0.751335 -1.192111
v -2.402470 0.749585 -1.191320
v -2.402402 0.749565 -1.193286
v -2.402698 0.749649 -1.195807
v -2.401797 0.751877 -1.198192
v -2.403070 0.751863 -1.199568
v -2.401775 0.752750 -1.199082
v -2.400379 0.753225 -1.198167
v -2.403704 0.749907 -1.198124
v -2.404746 0.750184 -1.199771
v -2.408785 0.742088 -1.197250
v -2.409527 0.742334 -1.198936
v -2.408135 0.745173 -1.199315
v -2.407334 0.744896 -1.197559
v -2.406482 0.744633 -1.195143
v -2.407988 0.741849 -1.194935
v -2.409311 0.738950 -1.194784
v -2.410028 0.739164 -1.196830
v -2.410705 0.739387 -1.198317
v -2.407513 0.741753 -1.192524
v -2.406003 0.744546 -1.192615
v -2.405809 0.744561 -1.190675
v -2.407303 0.741749 -1.190677
v -2.408736 0.738869 -1.191006
v -2.408902 0.738868 -1.192646
v -2.404243 0.747186 -1.192860
v -2.404677 0.747243 -1.195445
v -2.404125 0.747250 -1.190865
v -2.405596 0.747541 -1.197882
v -2.406488 0.747871 -1.199640
v -2.411144 0.736172 -1.196177
v -2.411711 0.736364 -1.197271
v -2.410571 0.735997 -1.194654
v -2.411517 0.733775 -1.194557
v -2.411958 0.733915 -1.195588
v -2.412134 0.734635 -1.196402
v -2.410300 0.735950 -1.193041
v -2.410237 0.735976 -1.191795
v -2.411099 0.734363 -1.192555
v -2.411378 0.733763 -1.193435
v -2.411964 0.736459 -1.197601
v -2.412484 0.734107 -1.196331
v -2.410995 0.739494 -1.198779
v -2.412134 0.734635 -1.196402
v -2.411808 0.733067 -1.193553
v -2.411456 0.733836 -1.192511
v -2.411902 0.733067 -1.194503
v -2.411099 0.734363 -1.192555
v -2.401261 0.751307 -1.191509
v -2.400129 0.752518 -1.192813
v -2.402555 0.749641 -1.190664
v -2.400153 0.752323 -1.193057
v -2.399957 0.753726 -1.198129
v -2.401870 0.752976 -1.199277
v -2.398708 0.753960 -1.196576
v -2.401775 0.752750 -1.199082
v -2.403543 0.751907 -1.199987
v -2.405145 0.750322 -1.200283
v -2.412295 0.733195 -1.195363
v -2.410287 0.736018 -1.191374
v -2.408752 0.738904 -1.190452
v -2.399021 0.753480 -1.194653
v -2.404150 0.747317 -1.190197
v -2.405811 0.744607 -1.190022
v -2.406841 0.748024 -1.200191
v -2.408462 0.745304 -1.199867
v -2.409837 0.742451 -1.199465
v -2.407303 0.741785 -1.190054
vn -0.731900 0.681100 0.020500
vn -0.677600 0.697900 0.231800
vn -0.717600 0.654000 0.239500
vn -0.768400 0.637900 0.051100
vn -0.782900 0.618900 0.063400
vn -0.731300 0.681400 0.028600
vn -0.691100 0.722700 0.004600
vn -0.661600 0.748300 0.047600
vn -0.610500 0.761300 0.218300
vn -0.619600 0.651500 0.437700
vn -0.623200 0.652900 0.430500
vn -0.687300 0.593800 0.418300
vn -0.668000 0.611400 0.424100
vn -0.569900 0.724200 0.388200
vn -0.574900 0.692100 0.436400
vn -0.823700 0.433600 0.365300
vn -0.839900 0.430100 0.331000
vn -0.854500 0.401200 0.329800
vn -0.835200 0.402800 0.374400
vn -0.875500 0.404400 0.264400
vn -0.857400 0.442900 0.262200
vn -0.816200 0.517700 0.256400
vn -0.782500 0.498800 0.372600
vn -0.800700 0.487200 0.348500
vn -0.880100 0.448400 0.155900
vn -0.895700 0.418600 0.149800
vn -0.890200 0.410500 0.197500
vn -0.877100 0.439800 0.192800
vn -0.849900 0.500100 0.165800
vn -0.845800 0.515400 0.137600
vn -0.803900 0.586500 0.098400
vn -0.763800 0.595800 0.247800
vn -0.816600 0.565100 0.117600
vn -0.724100 0.565600 0.394600
vn -0.745400 0.546500 0.381700
vn -0.831500 0.386600 0.398800
vn -0.854900 0.381200 0.351800
vn -0.850200 0.362100 0.382200
vn -0.844400 0.331400 0.420800
vn -0.904200 0.333200 0.267000
vn -0.883500 0.385900 0.265200
vn -0.905200 0.406000 0.124900
vn -0.929400 0.353600 0.105300
vn -0.914000 0.378800 0.145400
vn -0.902200 0.393600 0.176200
vn 0.750200 -0.661200 0.004200
vn 0.688900 -0.686000 -0.234000
vn 0.730600 -0.638400 -0.241900
vn 0.797000 -0.598700 0.079600
vn 0.809700 -0.554300 0.192300
vn 0.805500 -0.567800 0.169500
vn 0.808500 -0.579900 0.099900
vn 0.771100 -0.635600 -0.036200
vn 0.717500 -0.654000 -0.239500
vn 0.623800 -0.627900 -0.465400
vn 0.592400 -0.511600 -0.622400
vn 0.585100 -0.495200 -0.642200
vn 0.628700 -0.554700 -0.545000
vn 0.662900 -0.607200 -0.438000
vn 0.629300 -0.532800 -0.565700
vn 0.817400 -0.432800 -0.380300
vn 0.766700 -0.424900 -0.481100
vn 0.736000 -0.469400 -0.487700
vn 0.776900 -0.497100 -0.386400
vn 0.816300 -0.517600 -0.256400
vn 0.857500 -0.442700 -0.262200
vn 0.875600 -0.404200 -0.264400
vn 0.826800 -0.403600 -0.391600
vn 0.756200 -0.418600 -0.502900
vn 0.882100 -0.449800 -0.139800
vn 0.847900 -0.515800 -0.122700
vn 0.864100 -0.503100 -0.012100
vn 0.889000 -0.457100 -0.027200
vn 0.891000 -0.453900 -0.002400
vn 0.897000 -0.422100 -0.131000
vn 0.805900 -0.586000 -0.083900
vn 0.763800 -0.595900 -0.247800
vn 0.831400 -0.554500 0.034400
vn 0.718700 -0.563000 -0.407900
vn 0.682800 -0.515400 -0.517800
vn 0.813200 -0.401500 -0.421200
vn 0.712700 -0.439200 -0.547000
vn 0.878700 -0.397200 -0.264700
vn 0.856100 -0.445400 -0.262000
vn 0.749500 -0.453800 -0.481900
vn 0.682400 -0.455800 -0.571400
vn 0.900100 -0.424400 -0.098500
vn 0.874600 -0.481700 0.054200
vn 0.860000 -0.502500 0.088200
vn 0.873400 -0.486400 -0.021600
vn -0.563900 -0.193200 -0.802900
vn -0.661900 -0.506800 -0.552300
vn -0.486500 -0.075400 -0.870400
vn 0.682400 -0.455800 -0.571400
vn -0.363800 -0.888300 0.280200
vn -0.314700 -0.598300 0.736900
vn -0.295100 -0.955400 0.011500
vn 0.860000 -0.502500 0.088200
vn 0.209900 0.392500 0.895500
vn 0.383500 0.591800 0.708900
vn 0.121100 0.215800 0.968900
vn 0.809700 -0.554300 0.192300
vn 0.410000 0.711400 -0.570800
vn -0.001700 0.693000 -0.720900
vn 0.733300 0.663000 -0.150400
vn 0.585100 -0.495200 -0.642200
vn -0.251700 0.514200 -0.819900
vn -0.371500 0.345600 -0.861700
vn -0.486600 -0.855900 -0.175100
vn -0.093200 -0.316800 0.943900
vn 0.011600 -0.206000 0.978500
vn 0.665200 0.644400 0.377100
vn 0.081600 0.075500 0.993800
vn 0.072700 -0.011100 0.997300
vn -0.423300 0.208300 -0.881700
vn -0.435900 0.122700 -0.891600
vn -0.444600 0.037200 -0.894900
vn 0.063700 -0.096500 0.993300
vt 0.839504 0.118056
vt 0.856743 0.205307
vt 0.741230 0.205307
vt 0.734555 0.106726
vt 0.724541 0.032791
vt 0.813647 0.052618
vt 0.868992 0.081539
vt 0.913398 0.129584
vt 0.940923 0.205307
vt 0.839504 0.292557
vt 0.813647 0.357995
vt 0.724541 0.377822
vt 0.734555 0.303887
vt 0.913398 0.281029
vt 0.868992 0.329074
vt 0.369475 0.299954
vt 0.368286 0.370940
vt 0.245840 0.351447
vt 0.246397 0.288815
vt 0.246768 0.205307
vt 0.370268 0.205307
vt 0.494283 0.205307
vt 0.492822 0.304944
vt 0.490632 0.379672
vt 0.369475 0.110659
vt 0.246397 0.121798
vt 0.245841 0.059166
vt 0.368286 0.039673
vt 0.490632 0.030941
vt 0.492822 0.105669
vt 0.616755 0.103478
vt 0.619174 0.205307
vt 0.613127 0.027106
vt 0.616755 0.307135
vt 0.613126 0.383507
vt 0.123273 0.268175
vt 0.123047 0.315326
vt 0.054743 0.283353
vt 0.030912 0.249131
vt 0.030973 0.205306
vt 0.123423 0.205306
vt 0.123273 0.142438
vt 0.030912 0.161481
vt 0.054744 0.127260
vt 0.123047 0.095287
vt 0.839504 0.118056
vt 0.856743 0.205307
vt 0.968983 0.205307
vt 0.938030 0.133427
vt 0.876123 0.061548
vt 0.805028 0.030806
vt 0.721203 0.008146
vt 0.734555 0.106726
vt 0.741230 0.205307
vt 0.839504 0.292557
vt 0.805028 0.379807
vt 0.876123 0.349065
vt 0.938030 0.277186
vt 0.734555 0.303887
vt 0.721203 0.402467
vt 0.369475 0.299954
vt 0.367890 0.394602
vt 0.489902 0.404581
vt 0.492822 0.304944
vt 0.494283 0.205307
vt 0.370268 0.205307
vt 0.246768 0.205307
vt 0.246397 0.288815
vt 0.245655 0.372324
vt 0.369475 0.110659
vt 0.492822 0.105669
vt 0.489902 0.006032
vt 0.367890 0.016011
vt 0.245655 0.038289
vt 0.246397 0.121798
vt 0.616755 0.103478
vt 0.619174 0.205307
vt 0.611917 0.001649
vt 0.616755 0.307135
vt 0.611917 0.408964
vt 0.123273 0.268175
vt 0.122972 0.331043
vt 0.123423 0.205306
vt 0.000156 0.205306
vt 0.000125 0.242784
vt 0.000064 0.280261
vt 0.123273 0.142438
vt 0.122972 0.079570
vt 0.000064 0.130352
vt 0.000125 0.167829
vt 0.122972 0.331043
vt 0.030806 0.283587
vt 0.245655 0.372324
vt 0.030806 0.283587
vt 0.000125 0.167829
vt 0.030806 0.127026
vt 0.000156 0.205306
vt 0.030806 0.127026
vt 0.805028 0.030806
vt 0.873826 0.071832
vt 0.721203 0.008146
vt 0.873826 0.071832
vt 0.938030 0.277186
vt 0.873826 0.338781
vt 0.968983 0.205307
vt 0.873826 0.338781
vt 0.805028 0.379807
vt 0.721203 0.402467
vt 0.000125 0.242784
vt 0.122972 0.079570
vt 0.245655 0.038289
vt 0.938030 0.133427
vt 0.611917 0.001649
vt 0.489902 0.006032
vt 0.611917 0.408964
vt 0.489902 0.404581
vt 0.367890 0.394602
vt 0.367890 0.016011
f 1/1/1 2/2/2 3/3/3
f 1/1/1 3/3/3 4/4/4
f 1/1/1 4/4/4 5/5/5
f 1/1/1 5/5/5 6/6/6
f 1/1/1 6/6/6 7/7/7
f 1/1/1 7/7/7 8/8/8
f 1/1/1 8/8/8 9/9/9
f 1/1/1 9/9/9 2/2/2
f 10/10/10 11/11/11 12/12/12
f 10/10/10 12/12/12 13/13/13
f 10/10/10 13/13/13 3/3/3
f 10/10/10 3/3/3 2/2/2
f 10/10/10 2/2/2 9/9/9
f 10/10/10 9/9/9 14/14/14
f 10/10/10 14/14/14 15/15/15
f 10/10/10 15/15/15 11/11/11
f 16/16/16 17/17/17 18/18/18
f 16/16/16 18/18/18 19/19/19
f 16/16/16 19/19/19 20/20/20
f 16/16/16 20/20/20 21/21/21
f 16/16/16 21/21/21 22/22/22
f 16/16/16 22/22/22 23/23/23
f 16/16/16 23/23/23 24/24/24
f 16/16/16 24/24/24 17/17/17
f 25/25/25 21/21/21 20/20/20
f 25/25/25 20/20/20 26/26/26
f 25/25/25 26/26/26 27/27/27
f 25/25/25 27/27/27 28/28/28
f 25/25/25 28/28/28 29/29/29
f 25/25/25 29/29/29 30/30/30
f 25/25/25 30/30/30 22/22/22
f 25/25/25 22/22/22 21/21/21
f 31/31/31 32/32/32 22/22/22
f 31/31/31 22/22/22 30/30/30
f 31/31/31 30/30/30 29/29/29
f 31/31/31 29/29/29 33/33/33
f 31/31/31 33/33/33 5/5/5
f 31/31/31 5/5/5 4/4/4
f 31/31/31 4/4/4 3/3/3
f 31/31/31 3/3/3 32/32/32
f 34/34/34 35/35/35 24/24/24
f 34/34/34 24/24/24 23/23/23
f 34/34/34 23/23/23 22/22/22
f 34/34/34 22/22/22 32/32/32
f 34/34/34 32/32/32 3/3/3
f 34/34/34 3/3/3 13/13/13
f 34/34/34 13/13/13 12/12/12
f 34/34/34 12/12/12 35/35/35
f 36/36/36 37/37/37 38/38/38
f 36/36/36 38/38/38 39/39/39
f 36/36/36 39/39/39 40/40/40
f 36/36/36 40/40/40 41/41/41
f 36/36/36 41/41/41 20/20/20
f 36/36/36 20/20/20 19/19/19
f 36/36/36 19/19/19 18/18/18
f 36/36/36 18/18/18 37/37/37
f 42/42/42 41/41/41 40/40/40
f 42/42/42 40/40/40 43/43/43
f 42/42/42 43/43/43 44/44/44
f 42/42/42 44/44/44 45/45/45
f 42/42/42 45/45/45 27/27/27
f 42/42/42 27/27/27 26/26/26
f 42/42/42 26/26/26 20/20/20
f 42/42/42 20/20/20 41/41/41
f 46/46/46 47/47/47 48/48/48
f 46/46/46 48/48/48 49/49/49
f 46/46/46 49/49/49 50/50/50
f 46/46/46 50/50/50 51/51/51
f 46/46/46 51/51/51 52/52/52
f 46/46/46 52/52/52 53/53/53
f 46/46/46 53/53/53 54/54/54
f 46/46/46 54/54/54 47/47/47
f 55/55/55 56/56/56 57/57/57
f 55/55/55 57/57/57 58/58/58
f 55/55/55 58/58/58 48/48/48
f 55/55/55 48/48/48 47/47/47
f 55/55/55 47/47/47 54/54/54
f 55/55/55 54/54/54 59/59/59
f 55/55/55 59/59/59 60/60/60
f 55/55/55 60/60/60 56/56/56
f 61/61/61 62/62/62 63/63/63
f 61/61/61 63/63/63 64/64/64
f 61/61/61 64/64/64 65/65/65
f 61/61/61 65/65/65 66/66/66
f 61/61/61 66/66/66 67/67/67
f 61/61/61 67/67/67 68/68/68
f 61/61/61 68/68/68 69/69/69
f 61/61/61 69/69/69 62/62/62
f 70/70/70 66/66/66 65/65/65
f 70/70/70 65/65/65 71/71/71
f 70/70/70 71/71/71 72/72/72
f 70/70/70 72/72/72 73/73/73
f 70/70/70 73/73/73 74/74/74
f 70/70/70 74/74/74 75/75/75
f 70/70/70 75/75/75 67/67/67
f 70/70/70 67/67/67 66/66/66
f 76/76/76 77/77/77 54/54/54
f 76/76/76 54/54/54 53/53/53
f 76/76/76 53/53/53 52/52/52
f 76/76/76 52/52/52 78/78/78
f 76/76/76 78/78/78 72/72/72
f 76/76/76 72/72/72 71/71/71
f 76/76/76 71/71/71 65/65/65
f 76/76/76 65/65/65 77/77/77
f 79/79/79 80/80/80 60/60/60
f 79/79/79 60/60/60 59/59/59
f 79/79/79 59/59/59 54/54/54
f 79/79/79 54/54/54 77/77/77
f 79/79/79 77/77/77 65/65/65
f 79/79/79 65/65/65 64/64/64
f 79/79/79 64/64/64 63/63/63
f 79/79/79 63/63/63 80/80/80
f 81/81/81 82/82/82 69/69/69
f 81/81/81 69/69/69 68/68/68
f 81/81/81 68/68/68 67/67/67
f 81/81/81 67/67/67 83/83/83
f 81/81/81 83/83/83 84/84/84
f 81/81/81 84/84/84 85/85/85
f 81/81/81 85/85/85 86/86/86
f 81/81/81 86/86/86 82/82/82
f 87/87/87 83/83/83 67/67/67
f 87/87/87 67/67/67 75/75/75
f 87/87/87 75/75/75 74/74/74
f 87/87/87 74/74/74 88/88/88
f 87/87/87 88/88/88 89/89/89
f 87/87/87 89/89/89 90/90/90
f 87/87/87 90/90/90 84/84/84
f 87/87/87 84/84/84 83/83/83
f 91/91/91 92/92/92 38/38/38
f 91/91/91 38/38/38 37/37/37
f 91/91/91 37/37/37 18/18/18
f 91/91/91 18/18/18 93/93/93
f 91/91/91 93/93/93 69/69/69
f 91/91/91 69/69/69 82/82/82
f 91/91/91 82/82/82 94/94/94
f 91/91/91 94/94/94 92/92/92
f 95/95/95 96/96/96 44/44/44
f 95/95/95 44/44/44 43/43/43
f 95/95/95 43/43/43 40/40/40
f 95/95/95 40/40/40 97/97/97
f 95/95/95 97/97/97 84/84/84
f 95/95/95 84/84/84 90/90/90
f 95/95/95 90/90/90 98/98/98
f 95/95/95 98/98/98 96/96/96
f 99/99/99 100/100/100 7/7/7
f 99/99/99 7/7/7 6/6/6
f 99/99/99 6/6/6 5/5/5
f 99/99/99 5/5/5 101/101/101
f 99/99/99 101/101/101 52/52/52
f 99/99/99 52/52/52 51/51/51
f 99/99/99 51/51/51 102/102/102
f 99/99/99 102/102/102 100/100/100
f 103/103/103 104/104/104 15/15/15
f 103/103/103 15/15/15 14/14/14
f 103/103/103 14/14/14 9/9/9
f 103/103/103 9/9/9 105/105/105
f 103/103/103 105/105/105 48/48/48
f 103/103/103 48/48/48 58/58/58
f 103/103/103 58/58/58 106/106/106
f 103/103/103 106/106/106 104/104/104
f 107/107/107 108/108/108 12/12/12
f 107/107/107 12/12/12 11/11/11
f 107/107/107 11/11/11 15/15/15
f 107/107/107 15/15/15 104/104/104
f 107/107/107 104/104/104 106/106/106
f 107/107/107 106/106/106 56/56/56
f 107/107/107 56/56/56 60/60/60
f 107/107/107 60/60/60 108/108/108
f 109/109/109 97/97/97 40/40/40
f 109/109/109 40/40/40 39/39/39
f 109/109/109 39/39/39 38/38/38
f 109/109/109 38/38/38 92/92/92
f 109/109/109 92/92/92 94/94/94
f 109/109/109 94/94/94 85/85/85
f 109/109/109 85/85/85 84/84/84
f 109/109/109 84/84/84 97/97/97
f 110/110/110 111/111/111 27/27/27
f 110/110/110 27/27/27 45/45/45
f 110/110/110 45/45/45 44/44/44
f 110/110/110 44/44/44 96/96/96
f 110/110/110 96/96/96 98/98/98
f 110/110/110 98/98/98 88/88/88
f 110/110/110 88/88/88 74/74/74
f 110/110/110 74/74/74 111/111/111
f 112/112/112 105/105/105 9/9/9
f 112/112/112 9/9/9 8/8/8
f 112/112/112 8/8/8 7/7/7
f 112/112/112 7/7/7 100/100/100
f 112/112/112 100/100/100 102/102/102
f 112/112/112 102/102/102 49/49/49
f 112/112/112 49/49/49 48/48/48
f 112/112/112 48/48/48 105/105/105
f 113/113/113 101/101/101 5/5/5
f 113/113/113 5/5/5 33/33/33
f 113/113/113 33/33/33 29/29/29
f 113/113/113 29/29/29 114/114/114
f 113/113/113 114/114/114 72/72/72
f 113/113/113 72/72/72 78/78/78
f 113/113/113 78/78/78 52/52/52
f 113/113/113 52/52/52 101/101/101
f 115/115/115 116/116/116 24/24/24
f 115/115/115 24/24/24 35/35/35
f 115/115/115 35/35/35 12/12/12
f 115/115/115 12/12/12 108/108/108
f 115/115/115 108/108/108 60/60/60
f 115/115/115 60/60/60 80/80/80
f 115/115/115 80/80/80 63/63/63
f 115/115/115 63/63/63 116/116/116
f 117/117/117 93/93/93 18/18/18
f 117/117/117 18/18/18 17/17/17
f 117/117/117 17/17/17 24/24/24
f 117/117/117 24/24/24 116/116/116
f 117/117/117 116/116/116 63/63/63
f 117/117/117 63/63/63 62/62/62
f 117/117/117 62/62/62 69/69/69
f 117/117/117 69/69/69 93/93/93
f 118/118/118 114/114/114 29/29/29
f 118/118/118 29/29/29 28/28/28
f 118/118/118 28/28/28 27/27/27
f 118/118/118 27/27/27 111/111/111
f 118/118/118 111/111/111 74/74/74
f 118/118/118 74/74/74 73/73/73
f 118/118/118 73/73/73 72/72/72
f 118/118/118 72/72/72 114/114/114
