v -2.384909 0.779762 -1.174314
v -2.385799 0.780080 -1.171442
v -2.381879 0.779280 -1.171001
v -2.381318 0.778926 -1.174297
v -2.380650 0.778897 -1.176816
v -2.383725 0.779722 -1.176490
v -2.385754 0.780044 -1.175696
v -2.387494 0.780225 -1.174187
v -2.388702 0.780533 -1.171738
v -2.385290 0.781032 -1.168618
v -2.384394 0.781950 -1.166499
v -2.381410 0.781429 -1.165467
v -2.381751 0.780370 -1.167823
v -2.387825 0.781324 -1.169256
v -2.386296 0.781849 -1.167605
v -2.370143 0.775777 -1.166090
v -2.370123 0.776578 -1.163752
v -2.366447 0.774271 -1.163669
v -2.366477 0.773548 -1.165735
v -2.366417 0.772733 -1.168506
v -2.370062 0.774868 -1.169226
v -2.373838 0.776740 -1.169896
v -2.373910 0.777718 -1.166622
v -2.373870 0.778597 -1.164184
v -2.369718 0.774362 -1.172434
v -2.366102 0.772297 -1.171345
v -2.365789 0.772078 -1.173500
v -2.369379 0.774098 -1.174868
v -2.373091 0.776003 -1.175811
v -2.373466 0.776238 -1.173257
v -2.377418 0.777755 -1.173912
v -2.377834 0.778189 -1.170487
v -2.376977 0.777630 -1.176525
v -2.377869 0.779257 -1.167179
v -2.377767 0.780262 -1.164725
v -2.362828 0.771145 -1.165704
v -2.362765 0.771742 -1.164170
v -2.360766 0.770127 -1.164825
v -2.360116 0.769245 -1.165794
v -2.360146 0.768740 -1.167195
v -2.362813 0.770493 -1.167765
v -2.362547 0.770211 -1.169891
v -2.359924 0.768605 -1.168662
v -2.360420 0.768976 -1.169987
v -2.362273 0.770105 -1.171512
v -2.384985 0.779456 -1.174296
v -2.385879 0.779780 -1.171381
v -2.388757 0.780308 -1.171691
v -2.387547 0.779994 -1.174175
v -2.385793 0.779873 -1.175696
v -2.383781 0.779490 -1.176498
v -2.380716 0.778668 -1.176819
v -2.381407 0.778623 -1.174276
v -2.381971 0.778983 -1.170941
v -2.385373 0.780745 -1.168514
v -2.384457 0.781743 -1.166401
v -2.386340 0.781693 -1.167538
v -2.387882 0.781109 -1.169176
v -2.381846 0.780084 -1.167726
v -2.381482 0.781221 -1.165375
v -2.370292 0.775508 -1.166011
v -2.370235 0.776380 -1.163680
v -2.373970 0.778395 -1.164107
v -2.374044 0.777443 -1.166538
v -2.373970 0.776457 -1.169842
v -2.370210 0.774592 -1.169174
v -2.366577 0.772462 -1.168456
v -2.366638 0.773285 -1.165658
v -2.366568 0.774078 -1.163597
v -2.369864 0.774081 -1.172410
v -2.373595 0.775949 -1.173232
v -2.373187 0.775785 -1.175807
v -2.369487 0.773886 -1.174864
v -2.365905 0.771869 -1.173497
v -2.366259 0.772022 -1.171323
v -2.377527 0.777459 -1.173888
v -2.377945 0.777898 -1.170430
v -2.377057 0.777406 -1.176524
v -2.377982 0.778975 -1.167088
v -2.377853 0.780057 -1.164641
v -2.362993 0.770885 -1.165626
v -2.362889 0.771552 -1.164097
v -2.362977 0.770225 -1.167716
v -2.360269 0.768539 -1.167159
v -2.360240 0.769051 -1.165734
v -2.360858 0.769985 -1.164775
v -2.362708 0.769938 -1.169872
v -2.362392 0.769898 -1.171512
v -2.360509 0.768823 -1.169984
v -2.360045 0.768400 -1.168650
v -2.362799 0.771858 -1.163623
v -2.360066 0.769681 -1.164673
v -2.366491 0.774427 -1.162945
v -2.360858 0.769985 -1.164775
v -2.359104 0.767979 -1.168247
v -2.359720 0.768527 -1.169845
v -2.359311 0.768067 -1.166989
v -2.360509 0.768823 -1.169984
v -2.383355 0.779605 -1.177223
v -2.385887 0.780064 -1.176059
v -2.380456 0.778786 -1.177661
v -2.385793 0.779873 -1.175696
v -2.388694 0.781326 -1.169433
v -2.386473 0.782016 -1.167305
v -2.389693 0.780584 -1.171815
v -2.386340 0.781693 -1.167538
v -2.384124 0.782166 -1.165745
v -2.381329 0.781691 -1.164637
v -2.359268 0.768526 -1.165797
v -2.362235 0.769977 -1.172056
v -2.365736 0.771912 -1.174220
v -2.388379 0.780276 -1.174140
v -2.376865 0.777489 -1.177400
v -2.373008 0.775828 -1.176664
v -2.377771 0.780507 -1.163867
v -2.373901 0.778801 -1.163334
v -2.370166 0.776758 -1.162938
v -2.369313 0.773915 -1.175680
vn 0.201100 0.979400 0.017300
vn 0.199600 0.959100 -0.200500
vn 0.257700 0.946600 -0.193900
vn 0.261600 0.965100 0.000900
vn 0.286700 0.958000 -0.005300
vn 0.202300 0.979200 0.009300
vn 0.141700 0.989700 0.018800
vn 0.114200 0.992900 -0.032300
vn 0.107400 0.971900 -0.209600
vn 0.229300 0.885300 -0.404400
vn 0.229500 0.888600 -0.397100
vn 0.310700 0.878000 -0.364100
vn 0.286800 0.881000 -0.376000
vn 0.137300 0.916000 -0.376800
vn 0.170900 0.892300 -0.417800
vn 0.495900 0.827600 -0.263000
vn 0.502400 0.834500 -0.226100
vn 0.530000 0.819500 -0.217900
vn 0.524500 0.809000 -0.265100
vn 0.529000 0.835100 -0.150800
vn 0.492400 0.855900 -0.157900
vn 0.416400 0.892800 -0.171300
vn 0.428400 0.856600 -0.287600
vn 0.443600 0.858000 -0.259000
vn 0.481700 0.874800 -0.051300
vn 0.509300 0.859700 -0.037900
vn 0.521000 0.849400 -0.084000
vn 0.493100 0.865700 -0.086500
vn 0.431200 0.899200 -0.074300
vn 0.412500 0.909600 -0.050100
vn 0.329900 0.943500 -0.030500
vn 0.329000 0.926100 -0.184500
vn 0.356500 0.933300 -0.043500
vn 0.350000 0.876700 -0.330000
vn 0.374400 0.873700 -0.310500
vn 0.536500 0.793600 -0.287000
vn 0.546700 0.803300 -0.236200
vn 0.561000 0.784700 -0.263700
vn 0.583100 0.755800 -0.297700
vn 0.592300 0.793900 -0.137400
vn 0.545900 0.824800 -0.147400
vn 0.518000 0.855300 -0.010200
vn 0.561800 0.827000 0.021300
vn 0.545100 0.838000 -0.024300
vn 0.534900 0.842900 -0.058600
vn -0.220700 -0.974200 -0.047700
vn -0.215600 -0.956000 0.198800
vn -0.277300 -0.941500 0.191400
vn -0.274600 -0.951400 -0.139000
vn -0.282600 -0.924000 -0.257500
vn -0.277300 -0.932200 -0.232600
vn -0.289500 -0.943100 -0.163700
vn -0.261400 -0.965100 -0.016300
vn -0.257600 -0.946600 0.193900
vn -0.252500 -0.868300 0.427000
vn -0.330900 -0.753600 0.568000
vn -0.339100 -0.735700 0.586200
vn -0.316900 -0.810600 0.492400
vn -0.288600 -0.874500 0.389800
vn -0.334600 -0.793000 0.509100
vn -0.494900 -0.823100 0.278600
vn -0.483600 -0.786100 0.384900
vn -0.435800 -0.804400 0.403700
vn -0.428200 -0.851800 0.301900
vn -0.416500 -0.892800 0.171200
vn -0.492600 -0.855800 0.157900
vn -0.529100 -0.835000 0.150800
vn -0.521500 -0.804700 0.283500
vn -0.484100 -0.774500 0.407100
vn -0.478600 -0.877300 0.035500
vn -0.410400 -0.911200 0.035200
vn -0.403700 -0.911600 -0.077100
vn -0.452800 -0.888500 -0.074000
vn -0.450100 -0.887400 -0.098900
vn -0.503900 -0.863500 0.019900
vn -0.328300 -0.944400 0.016000
vn -0.329000 -0.926100 0.184500
vn -0.337800 -0.934900 -0.108400
vn -0.350300 -0.871300 0.343600
vn -0.375100 -0.810400 0.449900
vn -0.519100 -0.794700 0.314500
vn -0.448600 -0.765500 0.461200
vn -0.535700 -0.831100 0.149500
vn -0.489800 -0.857300 0.158500
vn -0.453900 -0.799600 0.393200
vn -0.421200 -0.761200 0.493200
vn -0.497300 -0.867500 -0.011700
vn -0.408000 -0.901100 -0.146700
vn -0.376600 -0.909900 -0.173800
vn -0.422700 -0.903300 -0.072000
vn 0.361300 0.179900 0.914900
vn 0.675200 -0.020800 0.737400
vn 0.217400 0.231500 0.948200
vn -0.421200 -0.761200 0.493200
vn 0.854900 -0.514000 -0.070600
vn 0.762600 -0.311900 -0.566700
vn 0.773500 -0.605600 0.187000
vn -0.376600 -0.909900 -0.173800
vn -0.171200 0.187100 -0.967300
vn -0.465200 0.250400 -0.849100
vn 0.016200 0.094100 -0.995400
vn -0.282600 -0.924000 -0.257500
vn -0.862100 0.346600 0.369600
vn -0.561900 0.573000 0.596500
vn -0.989200 0.114400 -0.092000
vn -0.339100 -0.735700 0.586200
vn -0.287300 0.573900 0.766800
vn -0.107800 0.506900 0.855200
vn 0.824000 -0.411300 0.389500
vn 0.479500 -0.214100 -0.851000
vn 0.342700 -0.185500 -0.920900
vn -0.797800 0.133000 -0.588000
vn 0.132200 0.002700 -0.991200
vn 0.189000 -0.062700 -0.979900
vn 0.005200 0.425600 0.904800
vn 0.061100 0.363300 0.929600
vn 0.115500 0.298800 0.947300
vn 0.243300 -0.127000 -0.961600
vt 0.839504 0.118056
vt 0.856743 0.205307
vt 0.741230 0.205307
vt 0.734555 0.106726
vt 0.724541 0.032791
vt 0.813647 0.052618
vt 0.868992 0.081539
vt 0.913398 0.129584
vt 0.940923 0.205307
vt 0.839504 0.292557
vt 0.813647 0.357995
vt 0.724541 0.377822
vt 0.734555 0.303887
vt 0.913398 0.281029
vt 0.868992 0.329074
vt 0.369475 0.299954
vt 0.368286 0.370940
vt 0.245840 0.351447
vt 0.246397 0.288815
vt 0.246768 0.205307
vt 0.370268 0.205307
vt 0.494283 0.205307
vt 0.492822 0.304944
vt 0.490632 0.379672
vt 0.369475 0.110659
vt 0.246397 0.121798
vt 0.245841 0.059166
vt 0.368286 0.039673
vt 0.490632 0.030941
vt 0.492822 0.105669
vt 0.616755 0.103478
vt 0.619174 0.205307
vt 0.613127 0.027106
vt 0.616755 0.307135
vt 0.613126 0.383507
vt 0.123273 0.268175
vt 0.123047 0.315326
vt 0.054743 0.283353
vt 0.030912 0.249131
vt 0.030973 0.205306
vt 0.123423 0.205306
vt 0.123273 0.142438
vt 0.030912 0.161481
vt 0.054744 0.127260
vt 0.123047 0.095287
vt 0.839504 0.118056
vt 0.856743 0.205307
vt 0.968983 0.205307
vt 0.938030 0.133427
vt 0.876123 0.061548
vt 0.805028 0.030806
vt 0.721203 0.008146
vt 0.734555 0.106726
vt 0.741230 0.205307
vt 0.839504 0.292557
vt 0.805028 0.379807
vt 0.876123 0.349065
vt 0.938030 0.277186
vt 0.734555 0.303887
vt 0.721203 0.402467
vt 0.369475 0.299954
vt 0.367890 0.394602
vt 0.489902 0.404581
vt 0.492822 0.304944
vt 0.494283 0.205307
vt 0.370268 0.205307
vt 0.246768 0.205307
vt 0.246397 0.288815
vt 0.245655 0.372324
vt 0.369475 0.110659
vt 0.492822 0.105669
vt 0.489902 0.006032
vt 0.367890 0.016011
vt 0.245655 0.038289
vt 0.246397 0.121798
vt 0.616755 0.103478
vt 0.619174 0.205307
vt 0.611917 0.001649
vt 0.616755 0.307135
vt 0.611917 0.408964
vt 0.123273 0.268175
vt 0.122972 0.331043
vt 0.123423 0.205306
vt 0.000156 0.205306
vt 0.000125 0.242784
vt 0.000064 0.280261
vt 0.123273 0.142438
vt 0.122972 0.079570
vt 0.000064 0.130352
vt 0.000125 0.167829
vt 0.122972 0.331043
vt 0.030806 0.283587
vt 0.245655 0.372324
vt 0.030806 0.283587
vt 0.000125 0.167829
vt 0.030806 0.127026
vt 0.000156 0.205306
vt 0.030806 0.127026
vt 0.805028 0.030806
vt 0.873826 0.071832
vt 0.721203 0.008146
vt 0.873826 0.071832
vt 0.938030 0.277186
vt 0.873826 0.338781
vt 0.968983 0.205307
vt 0.873826 0.338781
vt 0.805028 0.379807
vt 0.721203 0.402467
vt 0.000125 0.242784
vt 0.122972 0.079570
vt 0.245655 0.038289
vt 0.938030 0.133427
vt 0.611917 0.001649
vt 0.489902 0.006032
vt 0.611917 0.408964
vt 0.489902 0.404581
vt 0.367890 0.394602
vt 0.367890 0.016011
f 1/1/1 2/2/2 3/3/3
f 1/1/1 3/3/3 4/4/4
f 1/1/1 4/4/4 5/5/5
f 1/1/1 5/5/5 6/6/6
f 1/1/1 6/6/6 7/7/7
f 1/1/1 7/7/7 8/8/8
f 1/1/1 8/8/8 9/9/9
f 1/1/1 9/9/9 2/2/2
f 10/10/10 11/11/11 12/12/12
f 10/10/10 12/12/12 13/13/13
f 10/10/10 13/13/13 3/3/3
f 10/10/10 3/3/3 2/2/2
f 10/10/10 2/2/2 9/9/9
f 10/10/10 9/9/9 14/14/14
f 10/10/10 14/14/14 15/15/15
f 10/10/10 15/15/15 11/11/11
f 16/16/16 17/17/17 18/18/18
f 16/16/16 18/18/18 19/19/19
f 16/16/16 19/19/19 20/20/20
f 16/16/16 20/20/20 21/21/21
f 16/16/16 21/21/21 22/22/22
f 16/16/16 22/22/22 23/23/23
f 16/16/16 23/23/23 24/24/24
f 16/16/16 24/24/24 17/17/17
f 25/25/25 21/21/21 20/20/20
f 25/25/25 20/20/20 26/26/26
f 25/25/25 26/26/26 27/27/27
f 25/25/25 27/27/27 28/28/28
f 25/25/25 28/28/28 29/29/29
f 25/25/25 29/29/29 30/30/30
f 25/25/25 30/30/30 22/22/22
f 25/25/25 22/22/22 21/21/21
f 31/31/31 32/32/32 22/22/22
f 31/31/31 22/22/22 30/30/30
f 31/31/31 30/30/30 29/29/29
f 31/31/31 29/29/29 33/33/33
f 31/31/31 33/33/33 5/5/5
f 31/31/31 5/5/5 4/4/4
f 31/31/31 4/4/4 3/3/3
f 31/31/31 3/3/3 32/32/32
f 34/34/34 35/35/35 24/24/24
f 34/34/34 24/24/24 23/23/23
f 34/34/34 23/23/23 22/22/22
f 34/34/34 22/22/22 32/32/32
f 34/34/34 32/32/32 3/3/3
f 34/34/34 3/3/3 13/13/13
f 34/34/34 13/13/13 12/12/12
f 34/34/34 12/12/12 35/35/35
f 36/36/36 37/37/37 38/38/38
f 36/36/36 38/38/38 39/39/39
f 36/36/36 39/39/39 40/40/40
f 36/36/36 40/40/40 41/41/41
f 36/36/36 41/41/41 20/20/20
f 36/36/36 20/20/20 19/19/19
f 36/36/36 19/19/19 18/18/18
f 36/36/36 18/18/18 37/37/37
f 42/42/42 41/41/41 40/40/40
f 42/42/42 40/40/40 43/43/43
f 42/42/42 43/43/43 44/44/44
f 42/42/42 44/44/44 45/45/45
f 42/42/42 45/45/45 27/27/27
f 42/42/42 27/27/27 26/26/26
f 42/42/42 26/26/26 20/20/20
f 42/42/42 20/20/20 41/41/41
f 46/46/46 47/47/47 48/48/48
f 46/46/46 48/48/48 49/49/49
f 46/46/46 49/49/49 50/50/50
f 46/46/46 50/50/50 51/51/51
f 46/46/46 51/51/51 52/52/52
f 46/46/46 52/52/52 53/53/53
f 46/46/46 53/53/53 54/54/54
f 46/46/46 54/54/54 47/47/47
f 55/55/55 56/56/56 57/57/57
f 55/55/55 57/57/57 58/58/58
f 55/55/55 58/58/58 48/48/48
f 55/55/55 48/48/48 47/47/47
f 55/55/55 47/47/47 54/54/54
f 55/55/55 54/54/54 59/59/59
f 55/55/55 59/59/59 60/60/60
f 55/55/55 60/60/60 56/56/56
f 61/61/61 62/62/62 63/63/63
f 61/61/61 63/63/63 64/64/64
f 61/61/61 64/64/64 65/65/65
f 61/61/61 65/65/65 66/66/66
f 61/61/61 66/66/66 67/67/67
f 61/61/61 67/67/67 68/68/68
f 61/61/61 68/68/68 69/69/69
f 61/61/61 69/69/69 62/62/62
f 70/70/70 66/66/66 65/65/65
f 70/70/70 65/65/65 71/71/71
f 70/70/70 71/71/71 72/72/72
f 70/70/70 72/72/72 73/73/73
f 70/70/70 73/73/73 74/74/74
f 70/70/70 74/74/74 75/75/75
f 70/70/70 75/75/75 67/67/67
f 70/70/70 67/67/67 66/66/66
f 76/76/76 77/77/77 54/54/54
f 76/76/76 54/54/54 53/53/53
f 76/76/76 53/53/53 52/52/52
f 76/76/76 52/52/52 78/78/78
f 76/76/76 78/78/78 72/72/72
f 76/76/76 72/72/72 71/71/71
f 76/76/76 71/71/71 65/65/65
f 76/76/76 65/65/65 77/77/77
f 79/79/79 80/80/80 60/60/60
f 79/79/79 60/60/60 59/59/59
f 79/79/79 59/59/59 54/54/54
f 79/79/79 54/54/54 77/77/77
f 79/79/79 77/77/77 65/65/65
f 79/79/79 65/65/65 64/64/64
f 79/79/79 64/64/64 63/63/63
f 79/79/79 63/63/63 80/80/80
f 81/81/81 82/82/82 69/69/69
f 81/81/81 69/69/69 68/68/68
f 81/81/81 68/68/68 67/67/67
f 81/81/81 67/67/67 83/83/83
f 81/81/81 83/83/83 84/84/84
f 81/81/81 84/84/84 85/85/85
f 81/81/81 85/85/85 86/86/86
f 81/81/81 86/86/86 82/82/82
f 87/87/87 83/83/83 67/67/67
f 87/87/87 67/67/67 75/75/75
f 87/87/87 75/75/75 74/74/74
f 87/87/87 74/74/74 88/88/88
f 87/87/87 88/88/88 89/89/89
f 87/87/87 89/89/89 90/90/90
f 87/87/87 90/90/90 84/84/84
f 87/87/87 84/84/84 83/83/83
f 91/91/91 92/92/92 38/38/38
f 91/91/91 38/38/38 37/37/37
f 91/91/91 37/37/37 18/18/18
f 91/91/91 18/18/18 93/93/93
f 91/91/91 93/93/93 69/69/69
f 91/91/91 69/69/69 82/82/82
f 91/91/91 82/82/82 94/94/94
f 91/91/91 94/94/94 92/92/92
f 95/95/95 96/96/96 44/44/44
f 95/95/95 44/44/44 43/43/43
f 95/95/95 43/43/43 40/40/40
f 95/95/95 40/40/40 97/97/97
f 95/95/95 97/97/97 84/84/84
f 95/95/95 84/84/84 90/90/90
f 95/95/95 90/90/90 98/98/98
f 95/95/95 98/98/98 96/96/96
f 99/99/99 100/100/100 7/7/7
f 99/99/99 7/7/7 6/6/6
f 99/99/99 6/6/6 5/5/5
f 99/99/99 5/5/5 101/101/101
f 99/99/99 101/101/101 52/52/52
f 99/99/99 52/52/52 51/51/51
f 99/99/99 51/51/51 102/102/102
f 99/99/99 102/102/102 100/100/100
f 103/103/103 104/104/104 15/15/15
f 103/103/103 15/15/15 14/14/14
f 103/103/103 14/14/14 9/9/9
f 103/103/103 9/9/9 105/105/105
f 103/103/103 105/105/105 48/48/48
f 103/103/103 48/48/48 58/58/58
f 103/103/103 58/58/58 106/106/106
f 103/103/103 106/106/106 104/104/104
f 107/107/107 108/108/108 12/12/12
f 107/107/107 12/12/12 11/11/11
f 107/107/107 11/11/11 15/15/15
f 107/107/107 15/15/15 104/104/104
f 107/107/107 104/104/104 106/106/106
f 107/107/107 106/106/106 56/56/56
f 107/107/107 56/56/56 60/60/60
f 107/107/107 60/60/60 108/108/108
f 109/109/109 97/97/97 40/40/40
f 109/109/109 40/40/40 39/39/39
f 109/109/109 39/39/39 38/38/38
f 109/109/109 38/38/38 92/92/92
f 109/109/109 92/92/92 94/94/94
f 109/109/109 94/94/94 85/85/85
f 109/109/109 85/85/85 84/84/84
f 109/109/109 84/84/84 97/97/97
f 110/110/110 111/111/111 27/27/27
f 110/110/110 27/27/27 45/45/45
f 110/110/110 45/45/45 44/44/44
f 110/110/110 44/44/44 96/96/96
f 110/110/110 96/96/96 98/98/98
f 110/110/110 98/98/98 88/88/88
f 110/110/110 88/88/88 74/74/74
f 110/110/110 74/74/74 111/111/111
f 112/112/112 105/105/105 9/9/9
f 112/112/112 9/9/9 8/8/8
f 112/112/112 8/8/8 7/7/7
f 112/112/112 7/7/7 100/100/100
f 112/112/112 100/100/100 102/102/102
f 112/112/112 102/102/102 49/49/49
f 112/112/112 49/49/49 48/48/48
f 112/112/112 48/48/48 105/105/105
f 113/113/113 101/101/101 5/5/5
f 113/113/113 5/5/5 33/33/33
f 113/113/113 33/33/33 29/29/29
f 113/113/113 29/29/29 114/114/114
f 113/113/113 114/114/114 72/72/72
f 113/113/113 72/72/72 78/78/78
f 113/113/113 78/78/78 52/52/52
f 113/113/113 52/52/52 101/101/101
f 115/115/115 116/116/116 24/24/24
f 115/115/115 24/24/24 35/35/35
f 115/115/115 35/35/35 12/12/12
f 115/115/115 12/12/12 108/108/108
f 115/115/115 108/108/108 60/60/60
f 115/115/115 60/60/60 80/80/80
f 115/115/115 80/80/80 63/63/63
f 115/115/115 63/63/63 116/116/116
f 117/117/117 93/93/93 18/18/18
f 117/117/117 18/18/18 17/17/17
f 117/117/117 17/17/17 24/24/24
f 117/117/117 24/24/24 116/116/116
f 117/117/117 116/116/116 63/63/63
f 117/117/117 63/63/63 62/62/62
f 117/117/117 62/62/62 69/69/69
f 117/117/117 69/69/69 93/93/93
f 118/118/118 114/114/114 29/29/29
f 118/118/118 29/29/29 28/28/28
f 118/118/118 28/28/28 27/27/27
f 118/118/118 27/27/27 111/111/111
f 118/118/118 111/111/111 74/74/74
f 118/118/118 74/74/74 73/73/73
f 118/118/118 73/73/73 72/72/72
f 118/118/118 72/72/72 114/114/114
