v -2.404064 0.681372 -1.095547
v -2.405997 0.681592 -1.096171
v -2.406157 0.679337 -1.094658
v -2.403940 0.679304 -1.094163
v -2.402287 0.679282 -1.093558
v -2.402634 0.681064 -1.094733
v -2.403205 0.682065 -1.095675
v -2.404222 0.682778 -1.096622
v -2.405876 0.683192 -1.097357
v -2.408006 0.681470 -1.095818
v -2.409547 0.681236 -1.095209
v -2.410140 0.679477 -1.094099
v -2.408420 0.679415 -1.094471
v -2.407634 0.682863 -1.096856
v -2.408804 0.682204 -1.096061
v -2.408805 0.671628 -1.091042
v -2.410470 0.671719 -1.090942
v -2.410145 0.668904 -1.090186
v -2.408671 0.668822 -1.090288
v -2.406721 0.668739 -1.090306
v -2.406600 0.671535 -1.091051
v -2.406468 0.674260 -1.091983
v -2.408776 0.674366 -1.091956
v -2.410518 0.674473 -1.091821
v -2.404415 0.671519 -1.090740
v -2.404789 0.668726 -1.090021
v -2.403342 0.668735 -1.089718
v -2.402778 0.671528 -1.090412
v -2.402472 0.674273 -1.091267
v -2.404184 0.674252 -1.091640
v -2.404003 0.676889 -1.092821
v -2.406317 0.676877 -1.093224
v -2.402271 0.676938 -1.092359
v -2.408662 0.677004 -1.093142
v -2.410436 0.677141 -1.092922
v -2.408296 0.665979 -1.089582
v -2.409400 0.666050 -1.089459
v -2.408705 0.664432 -1.089130
v -2.407924 0.663826 -1.089097
v -2.406922 0.663768 -1.089177
v -2.406838 0.665909 -1.089631
v -2.405398 0.665907 -1.089383
v -2.405939 0.663777 -1.088960
v -2.405133 0.664343 -1.088884
v -2.404320 0.665924 -1.089110
v -2.404025 0.681260 -1.095724
v -2.405988 0.681480 -1.096352
v -2.405869 0.683105 -1.097491
v -2.404191 0.682692 -1.096753
v -2.403176 0.682002 -1.095771
v -2.402590 0.680981 -1.094864
v -2.402246 0.679204 -1.093693
v -2.403904 0.679199 -1.094346
v -2.406147 0.679232 -1.094844
v -2.408026 0.681359 -1.096000
v -2.409577 0.681155 -1.095345
v -2.408822 0.682142 -1.096160
v -2.407650 0.682778 -1.096991
v -2.408437 0.679312 -1.094658
v -2.410166 0.679401 -1.094238
v -2.408812 0.671560 -1.091246
v -2.410484 0.671669 -1.091094
v -2.410535 0.674414 -1.091971
v -2.408784 0.674287 -1.092155
v -2.406456 0.674180 -1.092182
v -2.406588 0.671466 -1.091254
v -2.406708 0.668678 -1.090512
v -2.408678 0.668762 -1.090494
v -2.410159 0.668860 -1.090341
v -2.404384 0.671450 -1.090941
v -2.404152 0.674172 -1.091836
v -2.402439 0.674213 -1.091413
v -2.402745 0.671476 -1.090561
v -2.403308 0.668689 -1.089869
v -2.404758 0.668665 -1.090224
v -2.403969 0.676795 -1.093010
v -2.406307 0.676784 -1.093416
v -2.402234 0.676868 -1.092500
v -2.408674 0.676912 -1.093334
v -2.410457 0.677073 -1.093066
v -2.408303 0.665923 -1.089789
v -2.409416 0.666008 -1.089615
v -2.406825 0.665852 -1.089838
v -2.406913 0.663725 -1.089332
v -2.407931 0.663784 -1.089252
v -2.408714 0.664401 -1.089245
v -2.405365 0.665850 -1.089587
v -2.404284 0.665881 -1.089261
v -2.405109 0.664311 -1.088997
v -2.405913 0.663734 -1.089113
v -2.409777 0.666055 -1.089487
v -2.408730 0.663876 -1.089005
v -2.410645 0.668912 -1.090221
v -2.408714 0.664401 -1.089245
v -2.406107 0.663048 -1.088887
v -2.405152 0.663787 -1.088759
v -2.406946 0.663035 -1.089095
v -2.405109 0.664311 -1.088997
v -2.402135 0.680925 -1.094519
v -2.402971 0.682179 -1.095690
v -2.401715 0.679241 -1.093416
v -2.403176 0.682002 -1.095771
v -2.407517 0.683289 -1.097262
v -2.409028 0.682330 -1.096107
v -2.405832 0.683686 -1.097812
v -2.408822 0.682142 -1.096160
v -2.410078 0.681122 -1.095067
v -2.410728 0.679465 -1.094036
v -2.407804 0.663090 -1.089004
v -2.403942 0.665910 -1.089085
v -2.402842 0.668718 -1.089683
v -2.404260 0.683208 -1.097038
v -2.401675 0.676923 -1.092267
v -2.401885 0.674253 -1.091208
v -2.411039 0.677156 -1.092912
v -2.411109 0.674482 -1.091843
v -2.411033 0.671727 -1.090976
v -2.402215 0.671508 -1.090368
vn -0.258200 0.548200 0.795400
vn -0.042100 0.573700 0.818000
vn -0.045500 0.523600 0.850700
vn -0.239000 0.499500 0.832700
vn -0.231100 0.478300 0.847200
vn -0.250600 0.548600 0.797600
vn -0.262300 0.595900 0.759000
vn -0.213400 0.626200 0.749900
vn -0.036300 0.647600 0.761100
vn 0.173700 0.537500 0.825200
vn 0.165600 0.538400 0.826200
vn 0.136200 0.469200 0.872500
vn 0.147000 0.489900 0.859300
vn 0.139300 0.617500 0.774100
vn 0.184900 0.584900 0.789700
vn 0.050300 0.288400 0.956200
vn 0.012900 0.282200 0.959200
vn 0.008500 0.251300 0.967900
vn 0.056800 0.256100 0.965000
vn -0.060300 0.251000 0.966100
vn -0.058500 0.292000 0.954600
vn -0.054500 0.372700 0.926300
vn 0.067100 0.359600 0.930700
vn 0.039100 0.345100 0.937700
vn -0.166500 0.293800 0.941200
vn -0.175800 0.261800 0.948900
vn -0.128600 0.254600 0.958400
vn -0.130100 0.285800 0.949400
vn -0.150000 0.349800 0.924700
vn -0.176100 0.365600 0.913900
vn -0.203300 0.442900 0.873200
vn -0.049700 0.458600 0.887200
vn -0.188100 0.419600 0.888000
vn 0.103300 0.435200 0.894400
vn 0.085200 0.412800 0.906800
vn 0.081800 0.240800 0.967100
vn 0.030300 0.231500 0.972300
vn 0.061500 0.213400 0.975000
vn 0.101400 0.184100 0.977600
vn -0.063300 0.176100 0.982300
vn -0.061100 0.231500 0.970900
vn -0.201600 0.247800 0.947600
vn -0.225200 0.192200 0.955100
vn -0.183900 0.219600 0.958100
vn -0.151800 0.236100 0.959800
vn 0.286400 -0.525600 -0.801000
vn 0.043000 -0.560100 -0.827300
vn 0.046600 -0.506200 -0.861100
vn 0.369400 -0.456400 -0.809400
vn 0.477700 -0.410400 -0.776800
vn 0.455500 -0.424200 -0.782600
vn 0.391300 -0.435900 -0.810500
vn 0.253900 -0.496900 -0.829800
vn 0.045500 -0.523700 -0.850600
vn -0.199600 -0.513500 -0.834500
vn -0.364300 -0.403900 -0.839100
vn -0.386400 -0.388800 -0.836300
vn -0.277300 -0.440200 -0.854000
vn -0.162100 -0.486500 -0.858500
vn -0.297600 -0.418700 -0.857900
vn -0.066500 -0.288700 -0.955100
vn -0.178600 -0.289300 -0.940400
vn -0.192400 -0.338300 -0.921100
vn -0.082100 -0.358900 -0.929700
vn 0.054500 -0.372600 -0.926400
vn 0.058400 -0.291800 -0.954600
vn 0.060300 -0.250900 -0.966100
vn -0.075800 -0.258300 -0.963100
vn -0.203000 -0.284800 -0.936800
vn 0.182400 -0.294900 -0.937900
vn 0.190900 -0.365700 -0.910900
vn 0.299900 -0.350600 -0.887200
vn 0.291300 -0.301100 -0.908000
vn 0.315100 -0.297700 -0.901100
vn 0.194200 -0.265000 -0.944500
vn 0.217500 -0.442000 -0.870200
vn 0.049700 -0.458600 -0.887200
vn 0.335800 -0.406800 -0.849500
vn -0.117900 -0.433600 -0.893300
vn -0.235800 -0.392600 -0.888900
vn -0.108200 -0.258500 -0.959900
vn -0.257800 -0.312400 -0.914300
vn 0.060600 -0.243400 -0.968000
vn 0.058400 -0.294900 -0.953700
vn -0.183500 -0.320700 -0.929200
vn -0.290000 -0.333800 -0.896900
vn 0.225800 -0.266800 -0.936900
vn 0.364900 -0.327900 -0.871400
vn 0.393200 -0.350900 -0.849800
vn 0.292900 -0.332600 -0.896400
vn -0.931600 -0.284500 0.226400
vn -0.710600 -0.609900 0.350800
vn -0.976400 -0.155000 0.150500
vn -0.290000 -0.333800 -0.896900
vn 0.193800 -0.937100 0.290400
vn 0.624400 -0.643500 0.442700
vn -0.032800 -0.991400 0.126400
vn 0.393200 -0.350900 -0.849800
vn 0.891700 0.421500 0.165100
vn 0.762000 0.647100 -0.025800
vn 0.941600 0.231600 0.244200
vn 0.477700 -0.410400 -0.776800
vn -0.442500 0.771000 -0.457900
vn -0.718000 0.684000 -0.128300
vn 0.062200 0.777100 -0.626200
vn -0.386400 -0.388800 -0.836300
vn -0.883900 0.465700 0.042700
vn -0.953600 0.278900 0.113500
vn -0.277600 -0.925400 0.257900
vn 0.876500 -0.329500 0.351000
vn 0.937600 -0.202900 0.282400
vn 0.538700 0.746500 -0.390400
vn 0.959800 0.086700 0.266900
vn 0.964900 0.000200 0.262500
vn -0.981800 0.135200 0.133000
vn -0.990600 0.048900 0.127800
vn -0.991900 -0.037000 0.121300
vn 0.962900 -0.085800 0.256000
vt 0.839504 0.118056
vt 0.856743 0.205307
vt 0.741230 0.205307
vt 0.734555 0.106726
vt 0.724541 0.032791
vt 0.813647 0.052618
vt 0.868992 0.081539
vt 0.913398 0.129584
vt 0.940923 0.205307
vt 0.839504 0.292557
vt 0.813647 0.357995
vt 0.724541 0.377822
vt 0.734555 0.303887
vt 0.913398 0.281029
vt 0.868992 0.329074
vt 0.369475 0.299954
vt 0.368286 0.370940
vt 0.245840 0.351447
vt 0.246397 0.288815
vt 0.246768 0.205307
vt 0.370268 0.205307
vt 0.494283 0.205307
vt 0.492822 0.304944
vt 0.490632 0.379672
vt 0.369475 0.110659
vt 0.246397 0.121798
vt 0.245841 0.059166
vt 0.368286 0.039673
vt 0.490632 0.030941
vt 0.492822 0.105669
vt 0.616755 0.103478
vt 0.619174 0.205307
vt 0.613127 0.027106
vt 0.616755 0.307135
vt 0.613126 0.383507
vt 0.123273 0.268175
vt 0.123047 0.315326
vt 0.054743 0.283353
vt 0.030912 0.249131
vt 0.030973 0.205306
vt 0.123423 0.205306
vt 0.123273 0.142438
vt 0.030912 0.161481
vt 0.054744 0.127260
vt 0.123047 0.095287
vt 0.839504 0.118056
vt 0.856743 0.205307
vt 0.968983 0.205307
vt 0.938030 0.133427
vt 0.876123 0.061548
vt 0.805028 0.030806
vt 0.721203 0.008146
vt 0.734555 0.106726
vt 0.741230 0.205307
vt 0.839504 0.292557
vt 0.805028 0.379807
vt 0.876123 0.349065
vt 0.938030 0.277186
vt 0.734555 0.303887
vt 0.721203 0.402467
vt 0.369475 0.299954
vt 0.367890 0.394602
vt 0.489902 0.404581
vt 0.492822 0.304944
vt 0.494283 0.205307
vt 0.370268 0.205307
vt 0.246768 0.205307
vt 0.246397 0.288815
vt 0.245655 0.372324
vt 0.369475 0.110659
vt 0.492822 0.105669
vt 0.489902 0.006032
vt 0.367890 0.016011
vt 0.245655 0.038289
vt 0.246397 0.121798
vt 0.616755 0.103478
vt 0.619174 0.205307
vt 0.611917 0.001649
vt 0.616755 0.307135
vt 0.611917 0.408964
vt 0.123273 0.268175
vt 0.122972 0.331043
vt 0.123423 0.205306
vt 0.000156 0.205306
vt 0.000125 0.242784
vt 0.000064 0.280261
vt 0.123273 0.142438
vt 0.122972 0.079570
vt 0.000064 0.130352
vt 0.000125 0.167829
vt 0.122972 0.331043
vt 0.030806 0.283587
vt 0.245655 0.372324
vt 0.030806 0.283587
vt 0.000125 0.167829
vt 0.030806 0.127026
vt 0.000156 0.205306
vt 0.030806 0.127026
vt 0.805028 0.030806
vt 0.873826 0.071832
vt 0.721203 0.008146
vt 0.873826 0.071832
vt 0.938030 0.277186
vt 0.873826 0.338781
vt 0.968983 0.205307
vt 0.873826 0.338781
vt 0.805028 0.379807
vt 0.721203 0.402467
vt 0.000125 0.242784
vt 0.122972 0.079570
vt 0.245655 0.038289
vt 0.938030 0.133427
vt 0.611917 0.001649
vt 0.489902 0.006032
vt 0.611917 0.408964
vt 0.489902 0.404581
vt 0.367890 0.394602
vt 0.367890 0.016011
f 1/1/1 2/2/2 3/3/3
f 1/1/1 3/3/3 4/4/4
f 1/1/1 4/4/4 5/5/5
f 1/1/1 5/5/5 6/6/6
f 1/1/1 6/6/6 7/7/7
f 1/1/1 7/7/7 8/8/8
f 1/1/1 8/8/8 9/9/9
f 1/1/1 9/9/9 2/2/2
f 10/10/10 11/11/11 12/12/12
f 10/10/10 12/12/12 13/13/13
f 10/10/10 13/13/13 3/3/3
f 10/10/10 3/3/3 2/2/2
f 10/10/10 2/2/2 9/9/9
f 10/10/10 9/9/9 14/14/14
f 10/10/10 14/14/14 15/15/15
f 10/10/10 15/15/15 11/11/11
f 16/16/16 17/17/17 18/18/18
f 16/16/16 18/18/18 19/19/19
f 16/16/16 19/19/19 20/20/20
f 16/16/16 20/20/20 21/21/21
f 16/16/16 21/21/21 22/22/22
f 16/16/16 22/22/22 23/23/23
f 16/16/16 23/23/23 24/24/24
f 16/16/16 24/24/24 17/17/17
f 25/25/25 21/21/21 20/20/20
f 25/25/25 20/20/20 26/26/26
f 25/25/25 26/26/26 27/27/27
f 25/25/25 27/27/27 28/28/28
f 25/25/25 28/28/28 29/29/29
f 25/25/25 29/29/29 30/30/30
f 25/25/25 30/30/30 22/22/22
f 25/25/25 22/22/22 21/21/21
f 31/31/31 32/32/32 22/22/22
f 31/31/31 22/22/22 30/30/30
f 31/31/31 30/30/30 29/29/29
f 31/31/31 29/29/29 33/33/33
f 31/31/31 33/33/33 5/5/5
f 31/31/31 5/5/5 4/4/4
f 31/31/31 4/4/4 3/3/3
f 31/31/31 3/3/3 32/32/32
f 34/34/34 35/35/35 24/24/24
f 34/34/34 24/24/24 23/23/23
f 34/34/34 23/23/23 22/22/22
f 34/34/34 22/22/22 32/32/32
f 34/34/34 32/32/32 3/3/3
f 34/34/34 3/3/3 13/13/13
f 34/34/34 13/13/13 12/12/12
f 34/34/34 12/12/12 35/35/35
f 36/36/36 37/37/37 38/38/38
f 36/36/36 38/38/38 39/39/39
f 36/36/36 39/39/39 40/40/40
f 36/36/36 40/40/40 41/41/41
f 36/36/36 41/41/41 20/20/20
f 36/36/36 20/20/20 19/19/19
f 36/36/36 19/19/19 18/18/18
f 36/36/36 18/18/18 37/37/37
f 42/42/42 41/41/41 40/40/40
f 42/42/42 40/40/40 43/43/43
f 42/42/42 43/43/43 44/44/44
f 42/42/42 44/44/44 45/45/45
f 42/42/42 45/45/45 27/27/27
f 42/42/42 27/27/27 26/26/26
f 42/42/42 26/26/26 20/20/20
f 42/42/42 20/20/20 41/41/41
f 46/46/46 47/47/47 48/48/48
f 46/46/46 48/48/48 49/49/49
f 46/46/46 49/49/49 50/50/50
f 46/46/46 50/50/50 51/51/51
f 46/46/46 51/51/51 52/52/52
f 46/46/46 52/52/52 53/53/53
f 46/46/46 53/53/53 54/54/54
f 46/46/46 54/54/54 47/47/47
f 55/55/55 56/56/56 57/57/57
f 55/55/55 57/57/57 58/58/58
f 55/55/55 58/58/58 48/48/48
f 55/55/55 48/48/48 47/47/47
f 55/55/55 47/47/47 54/54/54
f 55/55/55 54/54/54 59/59/59
f 55/55/55 59/59/59 60/60/60
f 55/55/55 60/60/60 56/56/56
f 61/61/61 62/62/62 63/63/63
f 61/61/61 63/63/63 64/64/64
f 61/61/61 64/64/64 65/65/65
f 61/61/61 65/65/65 66/66/66
f 61/61/61 66/66/66 67/67/67
f 61/61/61 67/67/67 68/68/68
f 61/61/61 68/68/68 69/69/69
f 61/61/61 69/69/69 62/62/62
f 70/70/70 66/66/66 65/65/65
f 70/70/70 65/65/65 71/71/71
f 70/70/70 71/71/71 72/72/72
f 70/70/70 72/72/72 73/73/73
f 70/70/70 73/73/73 74/74/74
f 70/70/70 74/74/74 75/75/75
f 70/70/70 75/75/75 67/67/67
f 70/70/70 67/67/67 66/66/66
f 76/76/76 77/77/77 54/54/54
f 76/76/76 54/54/54 53/53/53
f 76/76/76 53/53/53 52/52/52
f 76/76/76 52/52/52 78/78/78
f 76/76/76 78/78/78 72/72/72
f 76/76/76 72/72/72 71/71/71
f 76/76/76 71/71/71 65/65/65
f 76/76/76 65/65/65 77/77/77
f 79/79/79 80/80/80 60/60/60
f 79/79/79 60/60/60 59/59/59
f 79/79/79 59/59/59 54/54/54
f 79/79/79 54/54/54 77/77/77
f 79/79/79 77/77/77 65/65/65
f 79/79/79 65/65/65 64/64/64
f 79/79/79 64/64/64 63/63/63
f 79/79/79 63/63/63 80/80/80
f 81/81/81 82/82/82 69/69/69
f 81/81/81 69/69/69 68/68/68
f 81/81/81 68/68/68 67/67/67
f 81/81/81 67/67/67 83/83/83
f 81/81/81 83/83/83 84/84/84
f 81/81/81 84/84/84 85/85/85
f 81/81/81 85/85/85 86/86/86
f 81/81/81 86/86/86 82/82/82
f 87/87/87 83/83/83 67/67/67
f 87/87/87 67/67/67 75/75/75
f 87/87/87 75/75/75 74/74/74
f 87/87/87 74/74/74 88/88/88
f 87/87/87 88/88/88 89/89/89
f 87/87/87 89/89/89 90/90/90
f 87/87/87 90/90/90 84/84/84
f 87/87/87 84/84/84 83/83/83
f 91/91/91 92/92/92 38/38/38
f 91/91/91 38/38/38 37/37/37
f 91/91/91 37/37/37 18/18/18
f 91/91/91 18/18/18 93/93/93
f 91/91/91 93/93/93 69/69/69
f 91/91/91 69/69/69 82/82/82
f 91/91/91 82/82/82 94/94/94
f 91/91/91 94/94/94 92/92/92
f 95/95/95 96/96/96 44/44/44
f 95/95/95 44/44/44 43/43/43
f 95/95/95 43/43/43 40/40/40
f 95/95/95 40/40/40 97/97/97
f 95/95/95 97/97/97 84/84/84
f 95/95/95 84/84/84 90/90/90
f 95/95/95 90/90/90 98/98/98
f 95/95/95 98/98/98 96/96/96
f 99/99/99 100/100/100 7/7/7
f 99/99/99 7/7/7 6/6/6
f 99/99/99 6/6/6 5/5/5
f 99/99/99 5/5/5 101/101/101
f 99/99/99 101/101/101 52/52/52
f 99/99/99 52/52/52 51/51/51
f 99/99/99 51/51/51 102/102/102
f 99/99/99 102/102/102 100/100/100
f 103/103/103 104/104/104 15/15/15
f 103/103/103 15/15/15 14/14/14
f 103/103/103 14/14/14 9/9/9
f 103/103/103 9/9/9 105/105/105
f 103/103/103 105/105/105 48/48/48
f 103/103/103 48/48/48 58/58/58
f 103/103/103 58/58/58 106/106/106
f 103/103/103 106/106/106 104/104/104
f 107/107/107 108/108/108 12/12/12
f 107/107/107 12/12/12 11/11/11
f 107/107/107 11/11/11 15/15/15
f 107/107/107 15/15/15 104/104/104
f 107/107/107 104/104/104 106/106/106
f 107/107/107 106/106/106 56/56/56
f 107/107/107 56/56/56 60/60/60
f 107/107/107 60/60/60 108/108/108
f 109/109/109 97/97/97 40/40/40
f 109/109/109 40/40/40 39/39/39
f 109/109/109 39/39/39 38/38/38
f 109/109/109 38/38/38 92/92/92
f 109/109/109 92/92/92 94/94/94
f 109/109/109 94/94/94 85/85/85
f 109/109/109 85/85/85 84/84/84
f 109/109/109 84/84/84 97/97/97
f 110/110/110 111/111/111 27/27/27
f 110/110/110 27/27/27 45/45/45
f 110/110/110 45/45/45 44/44/44
f 110/110/110 44/44/44 96/96/96
f 110/110/110 96/96/96 98/98/98
f 110/110/110 98/98/98 88/88/88
f 110/110/110 88/88/88 74/74/74
f 110/110/110 74/74/74 111/111/111
f 112/112/112 105/105/105 9/9/9
f 112/112/112 9/9/9 8/8/8
f 112/112/112 8/8/8 7/7/7
f 112/112/112 7/7/7 100/100/100
f 112/112/112 100/100/100 102/102/102
f 112/112/112 102/102/102 49/49/49
f 112/112/112 49/49/49 48/48/48
f 112/112/112 48/48/48 105/105/105
f 113/113/113 101/101/101 5/5/5
f 113/113/113 5/5/5 33/33/33
f 113/113/113 33/33/33 29/29/29
f 113/113/113 29/29/29 114/114/114
f 113/113/113 114/114/114 72/72/72
f 113/113/113 72/72/72 78/78/78
f 113/113/113 78/78/78 52/52/52
f 113/113/113 52/52/52 101/101/101
f 115/115/115 116/116/116 24/24/24
f 115/115/115 24/24/24 35/35/35
f 115/115/115 35/35/35 12/12/12
f 115/115/115 12/12/12 108/108/108
f 115/115/115 108/108/108 60/60/60
f 115/115/115 60/60/60 80/80/80
f 115/115/115 80/80/80 63/63/63
f 115/115/115 63/63/63 116/116/116
f 117/117/117 93/93/93 18/18/18
f 117/117/117 18/18/18 17/17/17
f 117/117/117 17/17/17 24/24/24
f 117/117/117 24/24/24 116/116/116
f 117/117/117 116/116/116 63/63/63
f 117/117/117 63/63/63 62/62/62
f 117/117/117 62/62/62 69/69/69
f 117/117/117 69/69/69 93/93/93
f 118/118/118 114/114/114 29/29/29
f 118/118/118 29/29/29 28/28/28
f 118/118/118 28/28/28 27/27/27
f 118/118/118 27/27/27 111/111/111
f 118/118/118 111/111/111 74/74/74
f 118/118/118 74/74/74 73/73/73
f 118/118/118 73/73/73 72/72/72
f 118/118/118 72/72/72 114/114/114
