v -2.448734 0.738814 -1.076481
v -2.448207 0.738615 -1.074449
v -2.445723 0.738297 -1.075716
v -2.446601 0.738499 -1.077881
v -2.447128 0.738837 -1.079586
v -2.448829 0.739139 -1.078174
v -2.449740 0.739116 -1.076938
v -2.450219 0.738929 -1.075411
v -2.450035 0.738752 -1.073512
v -2.446866 0.738955 -1.072857
v -2.445554 0.739386 -1.071820
v -2.443408 0.739118 -1.072369
v -2.444479 0.738660 -1.073763
v -2.448602 0.739051 -1.072275
v -2.447088 0.739316 -1.071792
v -2.436974 0.736147 -1.077586
v -2.436102 0.736408 -1.076123
v -2.433900 0.735087 -1.077724
v -2.434678 0.734845 -1.079014
v -2.435661 0.734633 -1.080760
v -2.438080 0.735917 -1.079563
v -2.440558 0.737005 -1.078328
v -2.439397 0.737266 -1.076263
v -2.438476 0.737570 -1.074738
v -2.439054 0.735990 -1.081621
v -2.436517 0.734706 -1.082582
v -2.437123 0.734844 -1.083977
v -2.439746 0.736133 -1.083192
v -2.442287 0.737282 -1.082133
v -2.441572 0.737102 -1.080484
v -2.444151 0.737933 -1.079226
v -2.443140 0.737779 -1.077028
v -2.444848 0.738201 -1.080919
v -2.441943 0.738100 -1.074944
v -2.440980 0.738493 -1.073414
v -2.432511 0.733463 -1.080651
v -2.431909 0.733687 -1.079699
v -2.430969 0.732809 -1.081027
v -2.430942 0.732372 -1.081948
v -2.431475 0.732197 -1.082823
v -2.433260 0.733272 -1.081945
v -2.433883 0.733360 -1.083314
v -2.431883 0.732301 -1.083773
v -2.432661 0.732681 -1.084310
v -2.434315 0.733506 -1.084368
v -2.448773 0.738597 -1.076486
v -2.448233 0.738397 -1.074427
v -2.450052 0.738588 -1.073497
v -2.450246 0.738766 -1.075418
v -2.449765 0.738996 -1.076948
v -2.448867 0.738978 -1.078192
v -2.447170 0.738677 -1.079597
v -2.446647 0.738284 -1.077879
v -2.445757 0.738080 -1.075691
v -2.446878 0.738741 -1.072809
v -2.445557 0.739228 -1.071770
v -2.447090 0.739198 -1.071759
v -2.448607 0.738890 -1.072238
v -2.444500 0.738446 -1.073713
v -2.443418 0.738960 -1.072319
v -2.437035 0.735943 -1.077524
v -2.436143 0.736256 -1.076068
v -2.438508 0.737415 -1.074686
v -2.439446 0.737058 -1.076206
v -2.440617 0.736796 -1.078290
v -2.438150 0.735711 -1.079519
v -2.435739 0.734430 -1.080712
v -2.434746 0.734644 -1.078949
v -2.433946 0.734938 -1.077666
v -2.439132 0.735784 -1.081594
v -2.441641 0.736892 -1.080463
v -2.442343 0.737125 -1.082128
v -2.439809 0.735979 -1.083181
v -2.437191 0.734693 -1.083963
v -2.436603 0.734504 -1.082552
v -2.444207 0.737720 -1.079215
v -2.443186 0.737566 -1.076996
v -2.444896 0.738042 -1.080921
v -2.441978 0.737889 -1.074891
v -2.441001 0.738336 -1.073364
v -2.432581 0.733264 -1.080584
v -2.431956 0.733539 -1.079639
v -2.433340 0.733071 -1.081896
v -2.431535 0.732047 -1.082786
v -2.430995 0.732223 -1.081897
v -2.431006 0.732699 -1.080985
v -2.433972 0.733159 -1.083284
v -2.434387 0.733356 -1.084355
v -2.432713 0.732570 -1.084298
v -2.431950 0.732151 -1.083751
v -2.431728 0.733696 -1.079353
v -2.430500 0.732536 -1.081254
v -2.433660 0.735101 -1.077266
v -2.431006 0.732699 -1.080985
v -2.431246 0.731882 -1.083916
v -2.432195 0.732408 -1.084544
v -2.430907 0.731772 -1.083099
v -2.432713 0.732570 -1.084298
v -2.448879 0.739176 -1.078749
v -2.449952 0.739164 -1.077098
v -2.447324 0.738879 -1.080162
v -2.449765 0.738996 -1.076948
v -2.449183 0.739011 -1.072065
v -2.447083 0.739380 -1.071531
v -2.450651 0.738725 -1.073193
v -2.447090 0.739198 -1.071759
v -2.445117 0.739460 -1.071449
v -2.443054 0.739201 -1.071879
v -2.430442 0.731942 -1.082357
v -2.434492 0.733488 -1.084716
v -2.437356 0.734822 -1.084437
v -2.450726 0.738895 -1.075058
v -2.445103 0.738219 -1.081486
v -2.442551 0.737272 -1.082683
v -2.440666 0.738554 -1.072880
v -2.438182 0.737602 -1.074205
v -2.435829 0.736427 -1.075609
v -2.440006 0.736112 -1.083713
vn 0.185000 0.976500 0.110400
vn 0.069000 0.994800 -0.074300
vn 0.121900 0.987300 -0.101300
vn 0.227800 0.971700 0.062600
vn 0.245700 0.968400 0.043000
vn 0.181900 0.977900 0.103100
vn 0.135300 0.980200 0.144400
vn 0.085100 0.989500 0.116600
vn -0.014100 0.999400 -0.031600
vn -0.013300 0.961500 -0.274300
vn -0.009200 0.963500 -0.267600
vn 0.077000 0.955600 -0.284300
vn 0.050500 0.958300 -0.281200
vn -0.076800 0.977300 -0.197500
vn -0.069900 0.964700 -0.253800
vn 0.287500 0.907600 -0.305900
vn 0.312400 0.908600 -0.277200
vn 0.340100 0.895300 -0.287600
vn 0.310700 0.892800 -0.326200
vn 0.374700 0.898600 -0.228100
vn 0.340000 0.916400 -0.210900
vn 0.268500 0.947200 -0.175200
vn 0.217300 0.933300 -0.285600
vn 0.245200 0.931300 -0.269400
vn 0.387000 0.915100 -0.112800
vn 0.417500 0.900800 -0.119000
vn 0.403200 0.900000 -0.165300
vn 0.378200 0.913500 -0.149700
vn 0.332100 0.937800 -0.100900
vn 0.329000 0.941800 -0.068900
vn 0.269200 0.963000 -0.003200
vn 0.187400 0.973000 -0.134400
vn 0.285000 0.958100 -0.029800
vn 0.128500 0.952400 -0.276300
vn 0.159400 0.948600 -0.273400
vn 0.309200 0.882700 -0.353700
vn 0.344700 0.884300 -0.314700
vn 0.342400 0.872400 -0.348800
vn 0.343100 0.852400 -0.394400
vn 0.435400 0.862500 -0.257900
vn 0.390800 0.889700 -0.236000
vn 0.439400 0.892500 -0.101200
vn 0.493100 0.863800 -0.103300
vn 0.454900 0.880900 -0.130300
vn 0.428200 0.890700 -0.152700
vn -0.217700 -0.968000 -0.124500
vn -0.083600 -0.993100 0.081700
vn -0.139800 -0.984000 0.110400
vn -0.311400 -0.935300 -0.168100
vn -0.380400 -0.888400 -0.257000
vn -0.362800 -0.900200 -0.240600
vn -0.337000 -0.924300 -0.179100
vn -0.235700 -0.968900 -0.075600
vn -0.121800 -0.987400 0.101200
vn 0.005500 -0.951200 0.308500
vn 0.013600 -0.871900 0.489500
vn 0.016200 -0.858400 0.512600
vn -0.014500 -0.912800 0.408100
vn -0.044700 -0.954400 0.294900
vn -0.020700 -0.900400 0.434500
vn -0.278400 -0.905800 0.319300
vn -0.212700 -0.887200 0.409300
vn -0.162400 -0.903400 0.396700
vn -0.209600 -0.931100 0.298300
vn -0.268600 -0.947100 0.175300
vn -0.340200 -0.916300 0.211000
vn -0.374800 -0.898600 0.228200
vn -0.298400 -0.891500 0.340900
vn -0.201400 -0.879800 0.430400
vn -0.392800 -0.914400 0.097500
vn -0.335000 -0.940600 0.055200
vn -0.388300 -0.920500 -0.041800
vn -0.428400 -0.903500 -0.009200
vn -0.439300 -0.897800 -0.031100
vn -0.422400 -0.900800 0.100400
vn -0.275600 -0.961200 -0.009900
vn -0.187300 -0.973100 0.134400
vn -0.348900 -0.931100 -0.106600
vn -0.121500 -0.949600 0.288900
vn -0.086400 -0.911300 0.402600
vn -0.280000 -0.886900 0.367400
vn -0.142900 -0.876800 0.459100
vn -0.381100 -0.895200 0.231200
vn -0.337500 -0.917700 0.209600
vn -0.183200 -0.898800 0.398100
vn -0.102600 -0.875400 0.472400
vn -0.433400 -0.898500 0.069800
vn -0.428600 -0.898400 -0.095500
vn -0.416100 -0.899100 -0.136000
vn -0.401900 -0.915300 -0.026100
vn 0.789300 0.052400 0.611700
vn 0.962100 -0.081000 0.260300
vn 0.685000 0.082200 0.723900
vn -0.102600 -0.875400 0.472400
vn 0.687200 -0.402500 -0.604700
vn 0.349200 -0.126900 -0.928400
vn 0.753100 -0.545900 -0.367000
vn -0.416100 -0.899100 -0.136000
vn -0.653400 0.335800 -0.678400
vn -0.840800 0.346700 -0.415600
vn -0.509300 0.269000 -0.817400
vn -0.380400 -0.888400 -0.257000
vn -0.536600 0.185600 0.823100
vn -0.161200 0.398000 0.903100
vn -0.888900 0.026400 0.457300
vn 0.016200 -0.858400 0.512600
vn 0.161800 0.397300 0.903300
vn 0.360600 0.334600 0.870600
vn 0.903600 -0.386300 -0.184900
vn -0.040400 -0.010300 -0.999100
vn -0.193500 0.015800 -0.981000
vn -0.987200 0.151500 -0.050700
vn -0.408600 0.190600 -0.892600
vn -0.354800 0.130500 -0.925800
vn 0.482500 0.258000 0.837000
vn 0.542600 0.198500 0.816200
vn 0.597900 0.137800 0.789600
vn -0.299300 0.069900 -0.951600
vt 0.839504 0.118056
vt 0.856743 0.205307
vt 0.741230 0.205307
vt 0.734555 0.106726
vt 0.724541 0.032791
vt 0.813647 0.052618
vt 0.868992 0.081539
vt 0.913398 0.129584
vt 0.940923 0.205307
vt 0.839504 0.292557
vt 0.813647 0.357995
vt 0.724541 0.377822
vt 0.734555 0.303887
vt 0.913398 0.281029
vt 0.868992 0.329074
vt 0.369475 0.299954
vt 0.368286 0.370940
vt 0.245840 0.351447
vt 0.246397 0.288815
vt 0.246768 0.205307
vt 0.370268 0.205307
vt 0.494283 0.205307
vt 0.492822 0.304944
vt 0.490632 0.379672
vt 0.369475 0.110659
vt 0.246397 0.121798
vt 0.245841 0.059166
vt 0.368286 0.039673
vt 0.490632 0.030941
vt 0.492822 0.105669
vt 0.616755 0.103478
vt 0.619174 0.205307
vt 0.613127 0.027106
vt 0.616755 0.307135
vt 0.613126 0.383507
vt 0.123273 0.268175
vt 0.123047 0.315326
vt 0.054743 0.283353
vt 0.030912 0.249131
vt 0.030973 0.205306
vt 0.123423 0.205306
vt 0.123273 0.142438
vt 0.030912 0.161481
vt 0.054744 0.127260
vt 0.123047 0.095287
vt 0.839504 0.118056
vt 0.856743 0.205307
vt 0.968983 0.205307
vt 0.938030 0.133427
vt 0.876123 0.061548
vt 0.805028 0.030806
vt 0.721203 0.008146
vt 0.734555 0.106726
vt 0.741230 0.205307
vt 0.839504 0.292557
vt 0.805028 0.379807
vt 0.876123 0.349065
vt 0.938030 0.277186
vt 0.734555 0.303887
vt 0.721203 0.402467
vt 0.369475 0.299954
vt 0.367890 0.394602
vt 0.489902 0.404581
vt 0.492822 0.304944
vt 0.494283 0.205307
vt 0.370268 0.205307
vt 0.246768 0.205307
vt 0.246397 0.288815
vt 0.245655 0.372324
vt 0.369475 0.110659
vt 0.492822 0.105669
vt 0.489902 0.006032
vt 0.367890 0.016011
vt 0.245655 0.038289
vt 0.246397 0.121798
vt 0.616755 0.103478
vt 0.619174 0.205307
vt 0.611917 0.001649
vt 0.616755 0.307135
vt 0.611917 0.408964
vt 0.123273 0.268175
vt 0.122972 0.331043
vt 0.123423 0.205306
vt 0.000156 0.205306
vt 0.000125 0.242784
vt 0.000064 0.280261
vt 0.123273 0.142438
vt 0.122972 0.079570
vt 0.000064 0.130352
vt 0.000125 0.167829
vt 0.122972 0.331043
vt 0.030806 0.283587
vt 0.245655 0.372324
vt 0.030806 0.283587
vt 0.000125 0.167829
vt 0.030806 0.127026
vt 0.000156 0.205306
vt 0.030806 0.127026
vt 0.805028 0.030806
vt 0.873826 0.071832
vt 0.721203 0.008146
vt 0.873826 0.071832
vt 0.938030 0.277186
vt 0.873826 0.338781
vt 0.968983 0.205307
vt 0.873826 0.338781
vt 0.805028 0.379807
vt 0.721203 0.402467
vt 0.000125 0.242784
vt 0.122972 0.079570
vt 0.245655 0.038289
vt 0.938030 0.133427
vt 0.611917 0.001649
vt 0.489902 0.006032
vt 0.611917 0.408964
vt 0.489902 0.404581
vt 0.367890 0.394602
vt 0.367890 0.016011
f 1/1/1 2/2/2 3/3/3
f 1/1/1 3/3/3 4/4/4
f 1/1/1 4/4/4 5/5/5
f 1/1/1 5/5/5 6/6/6
f 1/1/1 6/6/6 7/7/7
f 1/1/1 7/7/7 8/8/8
f 1/1/1 8/8/8 9/9/9
f 1/1/1 9/9/9 2/2/2
f 10/10/10 11/11/11 12/12/12
f 10/10/10 12/12/12 13/13/13
f 10/10/10 13/13/13 3/3/3
f 10/10/10 3/3/3 2/2/2
f 10/10/10 2/2/2 9/9/9
f 10/10/10 9/9/9 14/14/14
f 10/10/10 14/14/14 15/15/15
f 10/10/10 15/15/15 11/11/11
f 16/16/16 17/17/17 18/18/18
f 16/16/16 18/18/18 19/19/19
f 16/16/16 19/19/19 20/20/20
f 16/16/16 20/20/20 21/21/21
f 16/16/16 21/21/21 22/22/22
f 16/16/16 22/22/22 23/23/23
f 16/16/16 23/23/23 24/24/24
f 16/16/16 24/24/24 17/17/17
f 25/25/25 21/21/21 20/20/20
f 25/25/25 20/20/20 26/26/26
f 25/25/25 26/26/26 27/27/27
f 25/25/25 27/27/27 28/28/28
f 25/25/25 28/28/28 29/29/29
f 25/25/25 29/29/29 30/30/30
f 25/25/25 30/30/30 22/22/22
f 25/25/25 22/22/22 21/21/21
f 31/31/31 32/32/32 22/22/22
f 31/31/31 22/22/22 30/30/30
f 31/31/31 30/30/30 29/29/29
f 31/31/31 29/29/29 33/33/33
f 31/31/31 33/33/33 5/5/5
f 31/31/31 5/5/5 4/4/4
f 31/31/31 4/4/4 3/3/3
f 31/31/31 3/3/3 32/32/32
f 34/34/34 35/35/35 24/24/24
f 34/34/34 24/24/24 23/23/23
f 34/34/34 23/23/23 22/22/22
f 34/34/34 22/22/22 32/32/32
f 34/34/34 32/32/32 3/3/3
f 34/34/34 3/3/3 13/13/13
f 34/34/34 13/13/13 12/12/12
f 34/34/34 12/12/12 35/35/35
f 36/36/36 37/37/37 38/38/38
f 36/36/36 38/38/38 39/39/39
f 36/36/36 39/39/39 40/40/40
f 36/36/36 40/40/40 41/41/41
f 36/36/36 41/41/41 20/20/20
f 36/36/36 20/20/20 19/19/19
f 36/36/36 19/19/19 18/18/18
f 36/36/36 18/18/18 37/37/37
f 42/42/42 41/41/41 40/40/40
f 42/42/42 40/40/40 43/43/43
f 42/42/42 43/43/43 44/44/44
f 42/42/42 44/44/44 45/45/45
f 42/42/42 45/45/45 27/27/27
f 42/42/42 27/27/27 26/26/26
f 42/42/42 26/26/26 20/20/20
f 42/42/42 20/20/20 41/41/41
f 46/46/46 47/47/47 48/48/48
f 46/46/46 48/48/48 49/49/49
f 46/46/46 49/49/49 50/50/50
f 46/46/46 50/50/50 51/51/51
f 46/46/46 51/51/51 52/52/52
f 46/46/46 52/52/52 53/53/53
f 46/46/46 53/53/53 54/54/54
f 46/46/46 54/54/54 47/47/47
f 55/55/55 56/56/56 57/57/57
f 55/55/55 57/57/57 58/58/58
f 55/55/55 58/58/58 48/48/48
f 55/55/55 48/48/48 47/47/47
f 55/55/55 47/47/47 54/54/54
f 55/55/55 54/54/54 59/59/59
f 55/55/55 59/59/59 60/60/60
f 55/55/55 60/60/60 56/56/56
f 61/61/61 62/62/62 63/63/63
f 61/61/61 63/63/63 64/64/64
f 61/61/61 64/64/64 65/65/65
f 61/61/61 65/65/65 66/66/66
f 61/61/61 66/66/66 67/67/67
f 61/61/61 67/67/67 68/68/68
f 61/61/61 68/68/68 69/69/69
f 61/61/61 69/69/69 62/62/62
f 70/70/70 66/66/66 65/65/65
f 70/70/70 65/65/65 71/71/71
f 70/70/70 71/71/71 72/72/72
f 70/70/70 72/72/72 73/73/73
f 70/70/70 73/73/73 74/74/74
f 70/70/70 74/74/74 75/75/75
f 70/70/70 75/75/75 67/67/67
f 70/70/70 67/67/67 66/66/66
f 76/76/76 77/77/77 54/54/54
f 76/76/76 54/54/54 53/53/53
f 76/76/76 53/53/53 52/52/52
f 76/76/76 52/52/52 78/78/78
f 76/76/76 78/78/78 72/72/72
f 76/76/76 72/72/72 71/71/71
f 76/76/76 71/71/71 65/65/65
f 76/76/76 65/65/65 77/77/77
f 79/79/79 80/80/80 60/60/60
f 79/79/79 60/60/60 59/59/59
f 79/79/79 59/59/59 54/54/54
f 79/79/79 54/54/54 77/77/77
f 79/79/79 77/77/77 65/65/65
f 79/79/79 65/65/65 64/64/64
f 79/79/79 64/64/64 63/63/63
f 79/79/79 63/63/63 80/80/80
f 81/81/81 82/82/82 69/69/69
f 81/81/81 69/69/69 68/68/68
f 81/81/81 68/68/68 67/67/67
f 81/81/81 67/67/67 83/83/83
f 81/81/81 83/83/83 84/84/84
f 81/81/81 84/84/84 85/85/85
f 81/81/81 85/85/85 86/86/86
f 81/81/81 86/86/86 82/82/82
f 87/87/87 83/83/83 67/67/67
f 87/87/87 67/67/67 75/75/75
f 87/87/87 75/75/75 74/74/74
f 87/87/87 74/74/74 88/88/88
f 87/87/87 88/88/88 89/89/89
f 87/87/87 89/89/89 90/90/90
f 87/87/87 90/90/90 84/84/84
f 87/87/87 84/84/84 83/83/83
f 91/91/91 92/92/92 38/38/38
f 91/91/91 38/38/38 37/37/37
f 91/91/91 37/37/37 18/18/18
f 91/91/91 18/18/18 93/93/93
f 91/91/91 93/93/93 69/69/69
f 91/91/91 69/69/69 82/82/82
f 91/91/91 82/82/82 94/94/94
f 91/91/91 94/94/94 92/92/92
f 95/95/95 96/96/96 44/44/44
f 95/95/95 44/44/44 43/43/43
f 95/95/95 43/43/43 40/40/40
f 95/95/95 40/40/40 97/97/97
f 95/95/95 97/97/97 84/84/84
f 95/95/95 84/84/84 90/90/90
f 95/95/95 90/90/90 98/98/98
f 95/95/95 98/98/98 96/96/96
f 99/99/99 100/100/100 7/7/7
f 99/99/99 7/7/7 6/6/6
f 99/99/99 6/6/6 5/5/5
f 99/99/99 5/5/5 101/101/101
f 99/99/99 101/101/101 52/52/52
f 99/99/99 52/52/52 51/51/51
f 99/99/99 51/51/51 102/102/102
f 99/99/99 102/102/102 100/100/100
f 103/103/103 104/104/104 15/15/15
f 103/103/103 15/15/15 14/14/14
f 103/103/103 14/14/14 9/9/9
f 103/103/103 9/9/9 105/105/105
f 103/103/103 105/105/105 48/48/48
f 103/103/103 48/48/48 58/58/58
f 103/103/103 58/58/58 106/106/106
f 103/103/103 106/106/106 104/104/104
f 107/107/107 108/108/108 12/12/12
f 107/107/107 12/12/12 11/11/11
f 107/107/107 11/11/11 15/15/15
f 107/107/107 15/15/15 104/104/104
f 107/107/107 104/104/104 106/106/106
f 107/107/107 106/106/106 56/56/56
f 107/107/107 56/56/56 60/60/60
f 107/107/107 60/60/60 108/108/108
f 109/109/109 97/97/97 40/40/40
f 109/109/109 40/40/40 39/39/39
f 109/109/109 39/39/39 38/38/38
f 109/109/109 38/38/38 92/92/92
f 109/109/109 92/92/92 94/94/94
f 109/109/109 94/94/94 85/85/85
f 109/109/109 85/85/85 84/84/84
f 109/109/109 84/84/84 97/97/97
f 110/110/110 111/111/111 27/27/27
f 110/110/110 27/27/27 45/45/45
f 110/110/110 45/45/45 44/44/44
f 110/110/110 44/44/44 96/96/96
f 110/110/110 96/96/96 98/98/98
f 110/110/110 98/98/98 88/88/88
f 110/110/110 88/88/88 74/74/74
f 110/110/110 74/74/74 111/111/111
f 112/112/112 105/105/105 9/9/9
f 112/112/112 9/9/9 8/8/8
f 112/112/112 8/8/8 7/7/7
f 112/112/112 7/7/7 100/100/100
f 112/112/112 100/100/100 102/102/102
f 112/112/112 102/102/102 49/49/49
f 112/112/112 49/49/49 48/48/48
f 112/112/112 48/48/48 105/105/105
f 113/113/113 101/101/101 5/5/5
f 113/113/113 5/5/5 33/33/33
f 113/113/113 33/33/33 29/29/29
f 113/113/113 29/29/29 114/114/114
f 113/113/113 114/114/114 72/72/72
f 113/113/113 72/72/72 78/78/78
f 113/113/113 78/78/78 52/52/52
f 113/113/113 52/52/52 101/101/101
f 115/115/115 116/116/116 24/24/24
f 115/115/115 24/24/24 35/35/35
f 115/115/115 35/35/35 12/12/12
f 115/115/115 12/12/12 108/108/108
f 115/115/115 108/108/108 60/60/60
f 115/115/115 60/60/60 80/80/80
f 115/115/115 80/80/80 63/63/63
f 115/115/115 63/63/63 116/116/116
f 117/117/117 93/93/93 18/18/18
f 117/117/117 18/18/18 17/17/17
f 117/117/117 17/17/17 24/24/24
f 117/117/117 24/24/24 116/116/116
f 117/117/117 116/116/116 63/63/63
f 117/117/117 63/63/63 62/62/62
f 117/117/117 62/62/62 69/69/69
f 117/117/117 69/69/69 93/93/93
f 118/118/118 114/114/114 29/29/29
f 118/118/118 29/29/29 28/28/28
f 118/118/118 28/28/28 27/27/27
f 118/118/118 27/27/27 111/111/111
f 118/118/118 111/111/111 74/74/74
f 118/118/118 74/74/74 73/73/73
f 118/118/118 73/73/73 72/72/72
f 118/118/118 72/72/72 114/114/114
