v -2.381350 0.735847 -1.064061
v -2.382938 0.735663 -1.062891
v -2.381599 0.733461 -1.062328
v -2.379974 0.733885 -1.063754
v -2.378576 0.734198 -1.064685
v -2.379882 0.735838 -1.064754
v -2.381047 0.736686 -1.064664
v -2.382432 0.737169 -1.064289
v -2.383973 0.737229 -1.063360
v -2.383763 0.735117 -1.061173
v -2.384114 0.734557 -1.059691
v -2.383384 0.732743 -1.058932
v -2.382716 0.733055 -1.060473
v -2.384520 0.736537 -1.061789
v -2.384474 0.735649 -1.060564
v -2.379411 0.725527 -1.059672
v -2.380265 0.725261 -1.058323
v -2.379195 0.722648 -1.058662
v -2.378448 0.722882 -1.059865
v -2.377371 0.723214 -1.061386
v -2.378183 0.725902 -1.061385
v -2.379131 0.728531 -1.061512
v -2.380402 0.728145 -1.059708
v -2.381274 0.727876 -1.058276
v -2.376723 0.726340 -1.062888
v -2.376072 0.723602 -1.062708
v -2.375030 0.723908 -1.063645
v -2.375556 0.726686 -1.063957
v -2.376349 0.729367 -1.064170
v -2.377591 0.728996 -1.063072
v -2.378697 0.731556 -1.063393
v -2.380299 0.731067 -1.061848
v -2.377377 0.731956 -1.064451
v -2.381550 0.730692 -1.059980
v -2.382376 0.730443 -1.058470
v -2.377385 0.720255 -1.060277
v -2.377909 0.720087 -1.059348
v -2.377094 0.718694 -1.059992
v -2.376571 0.718284 -1.060683
v -2.376072 0.718442 -1.061508
v -2.376607 0.720496 -1.061435
v -2.375612 0.720792 -1.062399
v -2.375356 0.718652 -1.062137
v -2.374907 0.719356 -1.062609
v -2.374799 0.721028 -1.063069
v -2.381456 0.735753 -1.064212
v -2.383064 0.735562 -1.063021
v -2.384066 0.737151 -1.063457
v -2.382509 0.737096 -1.064402
v -2.381100 0.736635 -1.064753
v -2.379952 0.735772 -1.064877
v -2.378652 0.734136 -1.064806
v -2.380086 0.733797 -1.063905
v -2.381728 0.733368 -1.062460
v -2.383905 0.735012 -1.061281
v -2.384229 0.734477 -1.059759
v -2.384556 0.735589 -1.060617
v -2.384626 0.736456 -1.061868
v -2.382861 0.732957 -1.060585
v -2.383500 0.732669 -1.059005
v -2.379568 0.725466 -1.059795
v -2.380388 0.725213 -1.058407
v -2.381395 0.727820 -1.058358
v -2.380555 0.728073 -1.059829
v -2.379272 0.728462 -1.061648
v -2.378329 0.725845 -1.061522
v -2.377520 0.723164 -1.061523
v -2.378608 0.722829 -1.059987
v -2.379320 0.722606 -1.058747
v -2.376857 0.726286 -1.063038
v -2.377719 0.728931 -1.063221
v -2.376439 0.729320 -1.064289
v -2.375651 0.726647 -1.064076
v -2.375126 0.723875 -1.063765
v -2.376208 0.723555 -1.062859
v -2.378818 0.731479 -1.063543
v -2.380435 0.730985 -1.061982
v -2.377460 0.731901 -1.064571
v -2.381699 0.730607 -1.060096
v -2.382494 0.730378 -1.058548
v -2.377547 0.720204 -1.060398
v -2.378036 0.720047 -1.059431
v -2.376757 0.720450 -1.061572
v -2.376184 0.718407 -1.061610
v -2.376693 0.718247 -1.060773
v -2.377187 0.718665 -1.060056
v -2.375748 0.720749 -1.062550
v -2.374895 0.720998 -1.063189
v -2.374980 0.719333 -1.062696
v -2.375458 0.718620 -1.062251
v -2.378141 0.720013 -1.059073
v -2.376952 0.718159 -1.060004
v -2.379500 0.722551 -1.058298
v -2.377187 0.718665 -1.060056
v -2.375315 0.717925 -1.062101
v -2.374761 0.718822 -1.062626
v -2.375943 0.717741 -1.061577
v -2.374980 0.719333 -1.062696
v -2.379422 0.735807 -1.065042
v -2.380940 0.736844 -1.064831
v -2.378142 0.734276 -1.065050
v -2.381100 0.736635 -1.064753
v -2.384820 0.736974 -1.062029
v -2.384648 0.735722 -1.060395
v -2.384359 0.737716 -1.063559
v -2.384556 0.735589 -1.060617
v -2.384284 0.734335 -1.059224
v -2.383660 0.732606 -1.058449
v -2.376354 0.717611 -1.060859
v -2.374569 0.721094 -1.063347
v -2.374724 0.723996 -1.064012
v -2.382826 0.737577 -1.064415
v -2.376972 0.732066 -1.064859
v -2.375973 0.729470 -1.064590
v -2.382705 0.730331 -1.057999
v -2.381620 0.727761 -1.057834
v -2.380606 0.725151 -1.057909
v -2.375208 0.726784 -1.064367
vn 0.439300 0.460700 0.771100
vn 0.578700 0.531900 0.618200
vn 0.608700 0.481500 0.630500
vn 0.485900 0.416400 0.768400
vn 0.504500 0.397100 0.766700
vn 0.445400 0.462700 0.766500
vn 0.402200 0.507200 0.762100
vn 0.419600 0.547500 0.724000
vn 0.527800 0.606600 0.594500
vn 0.711900 0.543300 0.445000
vn 0.708100 0.542300 0.452100
vn 0.736400 0.467300 0.489100
vn 0.729600 0.490100 0.476800
vn 0.642300 0.614900 0.457500
vn 0.684500 0.592700 0.424400
vn 0.774700 0.270300 0.571600
vn 0.756400 0.256100 0.601900
vn 0.764300 0.224700 0.604400
vn 0.789100 0.239900 0.565400
vn 0.723500 0.209600 0.657700
vn 0.710800 0.250300 0.657300
vn 0.681300 0.330600 0.653000
vn 0.755900 0.344000 0.556900
vn 0.747100 0.323600 0.580600
vn 0.637800 0.228900 0.735300
vn 0.642300 0.195500 0.741100
vn 0.677800 0.198600 0.707900
vn 0.666200 0.228800 0.709800
vn 0.627800 0.287500 0.723300
vn 0.602400 0.297600 0.740600
vn 0.545500 0.367900 0.753000
vn 0.643100 0.416300 0.642800
vn 0.568500 0.348200 0.745300
vn 0.739000 0.426500 0.521400
vn 0.741100 0.400500 0.538800
vn 0.806800 0.230500 0.543900
vn 0.782500 0.210100 0.586100
vn 0.804500 0.199200 0.559500
vn 0.832800 0.179100 0.523800
vn 0.743000 0.135600 0.655300
vn 0.729000 0.190300 0.657400
vn 0.627800 0.176300 0.758100
vn 0.626500 0.116700 0.770600
vn 0.649700 0.152200 0.744700
vn 0.667700 0.175300 0.723400
vn -0.430200 -0.432400 -0.792400
vn -0.587100 -0.518200 -0.621800
vn -0.618400 -0.464000 -0.634200
vn -0.397000 -0.346500 -0.849900
vn -0.313500 -0.279100 -0.907700
vn -0.329400 -0.297300 -0.896100
vn -0.387600 -0.321700 -0.863800
vn -0.475300 -0.410700 -0.778000
vn -0.608600 -0.481600 -0.630500
vn -0.737100 -0.525100 -0.425300
vn -0.846800 -0.453900 -0.277000
vn -0.858900 -0.444100 -0.255100
vn -0.805100 -0.470100 -0.361500
vn -0.737900 -0.490100 -0.463900
vn -0.822400 -0.453400 -0.343500
vn -0.783100 -0.274100 -0.558100
vn -0.835200 -0.299500 -0.461100
vn -0.822200 -0.350700 -0.448300
vn -0.763800 -0.346600 -0.544400
vn -0.681400 -0.330400 -0.653100
vn -0.710800 -0.250100 -0.657400
vn -0.723500 -0.209500 -0.657700
vn -0.798200 -0.246300 -0.549700
vn -0.846900 -0.300400 -0.438800
vn -0.626000 -0.226500 -0.746200
vn -0.591500 -0.294400 -0.750600
vn -0.511500 -0.256600 -0.820000
vn -0.538700 -0.209700 -0.816000
vn -0.519600 -0.201400 -0.830300
vn -0.627800 -0.194800 -0.753600
vn -0.534900 -0.364100 -0.762400
vn -0.643000 -0.416300 -0.642800
vn -0.454200 -0.304500 -0.837200
vn -0.746600 -0.428200 -0.509000
vn -0.815100 -0.413700 -0.405500
vn -0.814200 -0.253500 -0.522200
vn -0.856900 -0.339700 -0.387700
vn -0.725700 -0.202000 -0.657700
vn -0.709800 -0.253200 -0.657300
vn -0.825500 -0.331500 -0.456700
vn -0.858800 -0.368100 -0.356300
vn -0.603300 -0.189800 -0.774600
vn -0.463800 -0.220700 -0.858000
vn -0.427600 -0.237400 -0.872200
vn -0.524900 -0.240300 -0.816500
vn -0.318700 -0.484800 0.814400
vn -0.055100 -0.758400 0.649400
vn -0.419900 -0.366700 0.830200
vn -0.858800 -0.368100 -0.356300
vn 0.448400 -0.879100 -0.161600
vn 0.786800 -0.502600 -0.358100
vn 0.191000 -0.977600 -0.087700
vn -0.427600 -0.237400 -0.872200
vn 0.599400 0.600600 -0.529100
vn 0.345300 0.797300 -0.495000
vn 0.712300 0.425200 -0.558400
vn -0.313500 -0.279100 -0.907700
vn -0.708900 0.666900 0.229500
vn -0.589300 0.514400 0.623000
vn -0.557200 0.786300 -0.266800
vn -0.858900 -0.444100 -0.255100
vn -0.521600 0.261200 0.812200
vn -0.483700 0.062500 0.873000
vn 0.150900 -0.969200 0.194400
vn 0.822600 -0.139200 -0.551300
vn 0.788200 -0.001000 -0.615300
vn -0.089500 0.854500 -0.511600
vn 0.757000 0.287000 -0.587000
vn 0.765900 0.202900 -0.610000
vn -0.468800 -0.083700 0.879300
vn -0.468700 -0.170100 0.866800
vn -0.465200 -0.254600 0.847800
vn 0.768600 0.119000 -0.628500
vt 0.839504 0.118056
vt 0.856743 0.205307
vt 0.741230 0.205307
vt 0.734555 0.106726
vt 0.724541 0.032791
vt 0.813647 0.052618
vt 0.868992 0.081539
vt 0.913398 0.129584
vt 0.940923 0.205307
vt 0.839504 0.292557
vt 0.813647 0.357995
vt 0.724541 0.377822
vt 0.734555 0.303887
vt 0.913398 0.281029
vt 0.868992 0.329074
vt 0.369475 0.299954
vt 0.368286 0.370940
vt 0.245840 0.351447
vt 0.246397 0.288815
vt 0.246768 0.205307
vt 0.370268 0.205307
vt 0.494283 0.205307
vt 0.492822 0.304944
vt 0.490632 0.379672
vt 0.369475 0.110659
vt 0.246397 0.121798
vt 0.245841 0.059166
vt 0.368286 0.039673
vt 0.490632 0.030941
vt 0.492822 0.105669
vt 0.616755 0.103478
vt 0.619174 0.205307
vt 0.613127 0.027106
vt 0.616755 0.307135
vt 0.613126 0.383507
vt 0.123273 0.268175
vt 0.123047 0.315326
vt 0.054743 0.283353
vt 0.030912 0.249131
vt 0.030973 0.205306
vt 0.123423 0.205306
vt 0.123273 0.142438
vt 0.030912 0.161481
vt 0.054744 0.127260
vt 0.123047 0.095287
vt 0.839504 0.118056
vt 0.856743 0.205307
vt 0.968983 0.205307
vt 0.938030 0.133427
vt 0.876123 0.061548
vt 0.805028 0.030806
vt 0.721203 0.008146
vt 0.734555 0.106726
vt 0.741230 0.205307
vt 0.839504 0.292557
vt 0.805028 0.379807
vt 0.876123 0.349065
vt 0.938030 0.277186
vt 0.734555 0.303887
vt 0.721203 0.402467
vt 0.369475 0.299954
vt 0.367890 0.394602
vt 0.489902 0.404581
vt 0.492822 0.304944
vt 0.494283 0.205307
vt 0.370268 0.205307
vt 0.246768 0.205307
vt 0.246397 0.288815
vt 0.245655 0.372324
vt 0.369475 0.110659
vt 0.492822 0.105669
vt 0.489902 0.006032
vt 0.367890 0.016011
vt 0.245655 0.038289
vt 0.246397 0.121798
vt 0.616755 0.103478
vt 0.619174 0.205307
vt 0.611917 0.001649
vt 0.616755 0.307135
vt 0.611917 0.408964
vt 0.123273 0.268175
vt 0.122972 0.331043
vt 0.123423 0.205306
vt 0.000156 0.205306
vt 0.000125 0.242784
vt 0.000064 0.280261
vt 0.123273 0.142438
vt 0.122972 0.079570
vt 0.000064 0.130352
vt 0.000125 0.167829
vt 0.122972 0.331043
vt 0.030806 0.283587
vt 0.245655 0.372324
vt 0.030806 0.283587
vt 0.000125 0.167829
vt 0.030806 0.127026
vt 0.000156 0.205306
vt 0.030806 0.127026
vt 0.805028 0.030806
vt 0.873826 0.071832
vt 0.721203 0.008146
vt 0.873826 0.071832
vt 0.938030 0.277186
vt 0.873826 0.338781
vt 0.968983 0.205307
vt 0.873826 0.338781
vt 0.805028 0.379807
vt 0.721203 0.402467
vt 0.000125 0.242784
vt 0.122972 0.079570
vt 0.245655 0.038289
vt 0.938030 0.133427
vt 0.611917 0.001649
vt 0.489902 0.006032
vt 0.611917 0.408964
vt 0.489902 0.404581
vt 0.367890 0.394602
vt 0.367890 0.016011
f 1/1/1 2/2/2 3/3/3
f 1/1/1 3/3/3 4/4/4
f 1/1/1 4/4/4 5/5/5
f 1/1/1 5/5/5 6/6/6
f 1/1/1 6/6/6 7/7/7
f 1/1/1 7/7/7 8/8/8
f 1/1/1 8/8/8 9/9/9
f 1/1/1 9/9/9 2/2/2
f 10/10/10 11/11/11 12/12/12
f 10/10/10 12/12/12 13/13/13
f 10/10/10 13/13/13 3/3/3
f 10/10/10 3/3/3 2/2/2
f 10/10/10 2/2/2 9/9/9
f 10/10/10 9/9/9 14/14/14
f 10/10/10 14/14/14 15/15/15
f 10/10/10 15/15/15 11/11/11
f 16/16/16 17/17/17 18/18/18
f 16/16/16 18/18/18 19/19/19
f 16/16/16 19/19/19 20/20/20
f 16/16/16 20/20/20 21/21/21
f 16/16/16 21/21/21 22/22/22
f 16/16/16 22/22/22 23/23/23
f 16/16/16 23/23/23 24/24/24
f 16/16/16 24/24/24 17/17/17
f 25/25/25 21/21/21 20/20/20
f 25/25/25 20/20/20 26/26/26
f 25/25/25 26/26/26 27/27/27
f 25/25/25 27/27/27 28/28/28
f 25/25/25 28/28/28 29/29/29
f 25/25/25 29/29/29 30/30/30
f 25/25/25 30/30/30 22/22/22
f 25/25/25 22/22/22 21/21/21
f 31/31/31 32/32/32 22/22/22
f 31/31/31 22/22/22 30/30/30
f 31/31/31 30/30/30 29/29/29
f 31/31/31 29/29/29 33/33/33
f 31/31/31 33/33/33 5/5/5
f 31/31/31 5/5/5 4/4/4
f 31/31/31 4/4/4 3/3/3
f 31/31/31 3/3/3 32/32/32
f 34/34/34 35/35/35 24/24/24
f 34/34/34 24/24/24 23/23/23
f 34/34/34 23/23/23 22/22/22
f 34/34/34 22/22/22 32/32/32
f 34/34/34 32/32/32 3/3/3
f 34/34/34 3/3/3 13/13/13
f 34/34/34 13/13/13 12/12/12
f 34/34/34 12/12/12 35/35/35
f 36/36/36 37/37/37 38/38/38
f 36/36/36 38/38/38 39/39/39
f 36/36/36 39/39/39 40/40/40
f 36/36/36 40/40/40 41/41/41
f 36/36/36 41/41/41 20/20/20
f 36/36/36 20/20/20 19/19/19
f 36/36/36 19/19/19 18/18/18
f 36/36/36 18/18/18 37/37/37
f 42/42/42 41/41/41 40/40/40
f 42/42/42 40/40/40 43/43/43
f 42/42/42 43/43/43 44/44/44
f 42/42/42 44/44/44 45/45/45
f 42/42/42 45/45/45 27/27/27
f 42/42/42 27/27/27 26/26/26
f 42/42/42 26/26/26 20/20/20
f 42/42/42 20/20/20 41/41/41
f 46/46/46 47/47/47 48/48/48
f 46/46/46 48/48/48 49/49/49
f 46/46/46 49/49/49 50/50/50
f 46/46/46 50/50/50 51/51/51
f 46/46/46 51/51/51 52/52/52
f 46/46/46 52/52/52 53/53/53
f 46/46/46 53/53/53 54/54/54
f 46/46/46 54/54/54 47/47/47
f 55/55/55 56/56/56 57/57/57
f 55/55/55 57/57/57 58/58/58
f 55/55/55 58/58/58 48/48/48
f 55/55/55 48/48/48 47/47/47
f 55/55/55 47/47/47 54/54/54
f 55/55/55 54/54/54 59/59/59
f 55/55/55 59/59/59 60/60/60
f 55/55/55 60/60/60 56/56/56
f 61/61/61 62/62/62 63/63/63
f 61/61/61 63/63/63 64/64/64
f 61/61/61 64/64/64 65/65/65
f 61/61/61 65/65/65 66/66/66
f 61/61/61 66/66/66 67/67/67
f 61/61/61 67/67/67 68/68/68
f 61/61/61 68/68/68 69/69/69
f 61/61/61 69/69/69 62/62/62
f 70/70/70 66/66/66 65/65/65
f 70/70/70 65/65/65 71/71/71
f 70/70/70 71/71/71 72/72/72
f 70/70/70 72/72/72 73/73/73
f 70/70/70 73/73/73 74/74/74
f 70/70/70 74/74/74 75/75/75
f 70/70/70 75/75/75 67/67/67
f 70/70/70 67/67/67 66/66/66
f 76/76/76 77/77/77 54/54/54
f 76/76/76 54/54/54 53/53/53
f 76/76/76 53/53/53 52/52/52
f 76/76/76 52/52/52 78/78/78
f 76/76/76 78/78/78 72/72/72
f 76/76/76 72/72/72 71/71/71
f 76/76/76 71/71/71 65/65/65
f 76/76/76 65/65/65 77/77/77
f 79/79/79 80/80/80 60/60/60
f 79/79/79 60/60/60 59/59/59
f 79/79/79 59/59/59 54/54/54
f 79/79/79 54/54/54 77/77/77
f 79/79/79 77/77/77 65/65/65
f 79/79/79 65/65/65 64/64/64
f 79/79/79 64/64/64 63/63/63
f 79/79/79 63/63/63 80/80/80
f 81/81/81 82/82/82 69/69/69
f 81/81/81 69/69/69 68/68/68
f 81/81/81 68/68/68 67/67/67
f 81/81/81 67/67/67 83/83/83
f 81/81/81 83/83/83 84/84/84
f 81/81/81 84/84/84 85/85/85
f 81/81/81 85/85/85 86/86/86
f 81/81/81 86/86/86 82/82/82
f 87/87/87 83/83/83 67/67/67
f 87/87/87 67/67/67 75/75/75
f 87/87/87 75/75/75 74/74/74
f 87/87/87 74/74/74 88/88/88
f 87/87/87 88/88/88 89/89/89
f 87/87/87 89/89/89 90/90/90
f 87/87/87 90/90/90 84/84/84
f 87/87/87 84/84/84 83/83/83
f 91/91/91 92/92/92 38/38/38
f 91/91/91 38/38/38 37/37/37
f 91/91/91 37/37/37 18/18/18
f 91/91/91 18/18/18 93/93/93
f 91/91/91 93/93/93 69/69/69
f 91/91/91 69/69/69 82/82/82
f 91/91/91 82/82/82 94/94/94
f 91/91/91 94/94/94 92/92/92
f 95/95/95 96/96/96 44/44/44
f 95/95/95 44/44/44 43/43/43
f 95/95/95 43/43/43 40/40/40
f 95/95/95 40/40/40 97/97/97
f 95/95/95 97/97/97 84/84/84
f 95/95/95 84/84/84 90/90/90
f 95/95/95 90/90/90 98/98/98
f 95/95/95 98/98/98 96/96/96
f 99/99/99 100/100/100 7/7/7
f 99/99/99 7/7/7 6/6/6
f 99/99/99 6/6/6 5/5/5
f 99/99/99 5/5/5 101/101/101
f 99/99/99 101/101/101 52/52/52
f 99/99/99 52/52/52 51/51/51
f 99/99/99 51/51/51 102/102/102
f 99/99/99 102/102/102 100/100/100
f 103/103/103 104/104/104 15/15/15
f 103/103/103 15/15/15 14/14/14
f 103/103/103 14/14/14 9/9/9
f 103/103/103 9/9/9 105/105/105
f 103/103/103 105/105/105 48/48/48
f 103/103/103 48/48/48 58/58/58
f 103/103/103 58/58/58 106/106/106
f 103/103/103 106/106/106 104/104/104
f 107/107/107 108/108/108 12/12/12
f 107/107/107 12/12/12 11/11/11
f 107/107/107 11/11/11 15/15/15
f 107/107/107 15/15/15 104/104/104
f 107/107/107 104/104/104 106/106/106
f 107/107/107 106/106/106 56/56/56
f 107/107/107 56/56/56 60/60/60
f 107/107/107 60/60/60 108/108/108
f 109/109/109 97/97/97 40/40/40
f 109/109/109 40/40/40 39/39/39
f 109/109/109 39/39/39 38/38/38
f 109/109/109 38/38/38 92/92/92
f 109/109/109 92/92/92 94/94/94
f 109/109/109 94/94/94 85/85/85
f 109/109/109 85/85/85 84/84/84
f 109/109/109 84/84/84 97/97/97
f 110/110/110 111/111/111 27/27/27
f 110/110/110 27/27/27 45/45/45
f 110/110/110 45/45/45 44/44/44
f 110/110/110 44/44/44 96/96/96
f 110/110/110 96/96/96 98/98/98
f 110/110/110 98/98/98 88/88/88
f 110/110/110 88/88/88 74/74/74
f 110/110/110 74/74/74 111/111/111
f 112/112/112 105/105/105 9/9/9
f 112/112/112 9/9/9 8/8/8
f 112/112/112 8/8/8 7/7/7
f 112/112/112 7/7/7 100/100/100
f 112/112/112 100/100/100 102/102/102
f 112/112/112 102/102/102 49/49/49
f 112/112/112 49/49/49 48/48/48
f 112/112/112 48/48/48 105/105/105
f 113/113/113 101/101/101 5/5/5
f 113/113/113 5/5/5 33/33/33
f 113/113/113 33/33/33 29/29/29
f 113/113/113 29/29/29 114/114/114
f 113/113/113 114/114/114 72/72/72
f 113/113/113 72/72/72 78/78/78
f 113/113/113 78/78/78 52/52/52
f 113/113/113 52/52/52 101/101/101
f 115/115/115 116/116/116 24/24/24
f 115/115/115 24/24/24 35/35/35
f 115/115/115 35/35/35 12/12/12
f 115/115/115 12/12/12 108/108/108
f 115/115/115 108/108/108 60/60/60
f 115/115/115 60/60/60 80/80/80
f 115/115/115 80/80/80 63/63/63
f 115/115/115 63/63/63 116/116/116
f 117/117/117 93/93/93 18/18/18
f 117/117/117 18/18/18 17/17/17
f 117/117/117 17/17/17 24/24/24
f 117/117/117 24/24/24 116/116/116
f 117/117/117 116/116/116 63/63/63
f 117/117/117 63/63/63 62/62/62
f 117/117/117 62/62/62 69/69/69
f 117/117/117 69/69/69 93/93/93
f 118/118/118 114/114/114 29/29/29
f 118/118/118 29/29/29 28/28/28
f 118/118/118 28/28/28 27/27/27
f 118/118/118 27/27/27 111/111/111
f 118/118/118 111/111/111 74/74/74
f 118/118/118 74/74/74 73/73/73
f 118/118/118 73/73/73 72/72/72
f 118/118/118 72/72/72 114/114/114
