v -2.401421 0.792119 -1.214696
v -2.399617 0.792353 -1.214652
v -2.399845 0.790584 -1.216291
v -2.401859 0.790479 -1.216124
v -2.403424 0.790435 -1.216197
v -2.402848 0.791865 -1.215044
v -2.402129 0.792655 -1.214260
v -2.401025 0.793221 -1.213632
v -2.399432 0.793592 -1.213393
v -2.398007 0.792421 -1.215497
v -2.396861 0.792394 -1.216448
v -2.396623 0.791036 -1.217792
v -2.397979 0.790822 -1.217034
v -2.398070 0.793482 -1.214325
v -2.397280 0.793084 -1.215397
v -2.398423 0.784465 -1.221145
v -2.397041 0.784664 -1.221656
v -2.397463 0.782272 -1.222614
v -2.398683 0.782092 -1.222151
v -2.400330 0.781892 -1.221632
v -2.400288 0.784241 -1.220568
v -2.400203 0.786501 -1.219354
v -2.398256 0.786745 -1.219972
v -2.396817 0.786968 -1.220530
v -2.402224 0.784129 -1.220253
v -2.402045 0.781795 -1.221362
v -2.403354 0.781751 -1.221232
v -2.403702 0.784076 -1.220094
v -2.403785 0.786352 -1.218896
v -2.402233 0.786394 -1.219039
v -2.402120 0.788541 -1.217618
v -2.400048 0.788625 -1.217893
v -2.403714 0.788535 -1.217539
v -2.398085 0.788897 -1.218564
v -2.396643 0.789159 -1.219197
v -2.399134 0.779666 -1.223057
v -2.398233 0.779815 -1.223442
v -2.398878 0.778393 -1.223770
v -2.399536 0.777816 -1.223680
v -2.400363 0.777690 -1.223356
v -2.400356 0.779505 -1.222641
v -2.401643 0.779444 -1.222469
v -2.401256 0.777664 -1.223277
v -2.401972 0.778120 -1.223045
v -2.402632 0.779426 -1.222410
v -2.401404 0.791994 -1.214553
v -2.399574 0.792229 -1.214514
v -2.399400 0.793497 -1.213291
v -2.401014 0.793126 -1.213527
v -2.402126 0.792585 -1.214181
v -2.402848 0.791772 -1.214936
v -2.403420 0.790346 -1.216085
v -2.401838 0.790360 -1.215977
v -2.399801 0.790466 -1.216148
v -2.397939 0.792300 -1.215366
v -2.396797 0.792307 -1.216354
v -2.397236 0.793017 -1.215328
v -2.398018 0.793390 -1.214229
v -2.397913 0.790707 -1.216897
v -2.396562 0.790952 -1.217693
v -2.398360 0.784378 -1.220986
v -2.396986 0.784600 -1.221539
v -2.396762 0.786898 -1.220418
v -2.398193 0.786650 -1.219819
v -2.400157 0.786404 -1.219197
v -2.400242 0.784153 -1.220405
v -2.400284 0.781811 -1.221465
v -2.398620 0.782013 -1.221988
v -2.397408 0.782213 -1.222494
v -2.402195 0.784040 -1.220087
v -2.402205 0.786295 -1.218878
v -2.403773 0.786278 -1.218774
v -2.403688 0.784008 -1.219968
v -2.403341 0.781689 -1.221103
v -2.402015 0.781713 -1.221192
v -2.402095 0.788431 -1.217463
v -2.400003 0.788516 -1.217743
v -2.403706 0.788453 -1.217422
v -2.398021 0.788791 -1.218419
v -2.396585 0.789082 -1.219091
v -2.399071 0.779589 -1.222894
v -2.398176 0.779759 -1.223322
v -2.400309 0.779426 -1.222473
v -2.400328 0.777632 -1.223230
v -2.399488 0.777759 -1.223558
v -2.398839 0.778351 -1.223681
v -2.401615 0.779364 -1.222298
v -2.402620 0.779366 -1.222280
v -2.401960 0.778075 -1.222949
v -2.401235 0.777605 -1.223148
v -2.397906 0.779840 -1.223517
v -2.398879 0.777923 -1.223963
v -2.397030 0.782306 -1.222715
v -2.398839 0.778351 -1.223681
v -2.401118 0.777045 -1.223489
v -2.401978 0.777649 -1.223236
v -2.400350 0.777059 -1.223539
v -2.401960 0.778075 -1.222949
v -2.403326 0.791740 -1.215112
v -2.402326 0.792739 -1.214169
v -2.403947 0.790381 -1.216171
v -2.402126 0.792585 -1.214181
v -2.398068 0.793795 -1.213892
v -2.397080 0.793203 -1.215399
v -2.399355 0.793963 -1.212928
v -2.397236 0.793017 -1.215328
v -2.396448 0.792347 -1.216724
v -2.396142 0.791070 -1.218001
v -2.399649 0.777174 -1.223833
v -2.402959 0.779393 -1.222333
v -2.403787 0.781709 -1.221131
v -2.400888 0.793546 -1.213231
v -2.404244 0.788496 -1.217460
v -2.404299 0.786305 -1.218794
v -2.396135 0.789213 -1.219362
v -2.396311 0.787011 -1.220667
v -2.396554 0.784703 -1.221775
v -2.404190 0.784028 -1.219984
vn -0.009000 0.677900 -0.735100
vn -0.222300 0.690900 -0.687900
vn -0.227800 0.646700 -0.727900
vn -0.037500 0.634000 -0.772400
vn -0.049100 0.614700 -0.787200
vn -0.017100 0.678000 -0.734900
vn 0.004700 0.719700 -0.694200
vn -0.039600 0.744700 -0.666100
vn -0.212200 0.754900 -0.620500
vn -0.429100 0.640700 -0.636600
vn -0.421900 0.642400 -0.639800
vn -0.406200 0.583200 -0.703400
vn -0.413100 0.600800 -0.684400
vn -0.382700 0.714700 -0.585400
vn -0.430000 0.681600 -0.592000
vn -0.345800 0.423600 -0.837200
vn -0.311000 0.420700 -0.852200
vn -0.308700 0.391700 -0.866700
vn -0.353900 0.392400 -0.848900
vn -0.242700 0.396000 -0.885600
vn -0.241800 0.434600 -0.867500
vn -0.238800 0.509800 -0.826500
vn -0.355700 0.488800 -0.796600
vn -0.330800 0.477500 -0.814000
vn -0.134900 0.442200 -0.886700
vn -0.127700 0.412400 -0.902000
vn -0.175300 0.403500 -0.898000
vn -0.171700 0.432900 -0.884900
vn -0.146800 0.493700 -0.857100
vn -0.119100 0.509600 -0.852100
vn -0.082600 0.581600 -0.809200
vn -0.233500 0.588200 -0.774200
vn -0.101000 0.559900 -0.822400
vn -0.380900 0.555300 -0.739300
vn -0.366800 0.536300 -0.760100
vn -0.378100 0.375900 -0.846000
vn -0.330200 0.371300 -0.867800
vn -0.360400 0.351600 -0.864000
vn -0.398600 0.320100 -0.859400
vn -0.243000 0.324900 -0.914000
vn -0.242900 0.377500 -0.893600
vn -0.102300 0.400300 -0.910600
vn -0.080800 0.348300 -0.933900
vn -0.121700 0.372800 -0.919900
vn -0.153300 0.387000 -0.909200
vn -0.016700 -0.658400 0.752400
vn 0.223900 -0.678900 0.699200
vn 0.229500 -0.631200 0.740900
vn -0.094800 -0.597300 0.796400
vn -0.208700 -0.554900 0.805300
vn -0.185400 -0.567900 0.801900
vn -0.115600 -0.578800 0.807200
vn 0.022400 -0.632100 0.774600
vn 0.227800 -0.646700 0.727900
vn 0.456200 -0.616600 0.641600
vn 0.611900 -0.497300 0.614900
vn 0.631700 -0.480500 0.608300
vn 0.534200 -0.541800 0.648900
vn 0.427000 -0.596300 0.679700
vn 0.554400 -0.519600 0.650000
vn 0.360900 -0.422500 0.831400
vn 0.463200 -0.412900 0.784100
vn 0.471600 -0.457400 0.753900
vn 0.369700 -0.486800 0.791400
vn 0.238800 -0.509600 0.826600
vn 0.241800 -0.434500 0.867600
vn 0.242600 -0.395900 0.885600
vn 0.371400 -0.393000 0.841100
vn 0.485300 -0.406200 0.774300
vn 0.118800 -0.443900 0.888100
vn 0.104100 -0.510300 0.853700
vn -0.007200 -0.499700 0.866200
vn 0.006000 -0.453300 0.891300
vn -0.018800 -0.450700 0.892500
vn 0.109000 -0.416200 0.902700
vn 0.068100 -0.581300 0.810800
vn 0.233500 -0.588300 0.774200
vn -0.051500 -0.552000 0.832200
vn 0.394400 -0.552500 0.734300
vn 0.504400 -0.502900 0.701800
vn 0.401400 -0.390400 0.828500
vn 0.531100 -0.426100 0.732400
vn 0.242700 -0.388900 0.888700
vn 0.241700 -0.437500 0.866100
vn 0.465100 -0.441800 0.767100
vn 0.556800 -0.442400 0.703000
vn 0.076500 -0.419100 0.904700
vn -0.074400 -0.479500 0.874400
vn -0.107400 -0.501100 0.858700
vn 0.001700 -0.482800 0.875700
vn 0.824800 -0.179900 -0.536000
vn 0.584100 -0.498200 -0.640800
vn 0.887400 -0.060300 -0.456900
vn 0.556800 -0.442400 0.703000
vn -0.250600 -0.894800 -0.369500
vn -0.715000 -0.612900 -0.336300
vn 0.016100 -0.956500 -0.291400
vn -0.107400 -0.501100 0.858700
vn -0.909300 0.375900 0.178400
vn -0.732700 0.579500 0.356700
vn -0.976300 0.197700 0.088200
vn -0.208700 -0.554900 0.805300
vn 0.542900 0.723700 0.426000
vn 0.706800 0.707100 0.020100
vn 0.113300 0.668300 0.735200
vn 0.631700 -0.480500 0.608300
vn 0.817900 0.529100 -0.226100
vn 0.867000 0.360200 -0.344300
vn 0.206900 -0.854300 -0.476800
vn -0.934100 -0.334800 -0.123500
vn -0.974300 -0.224400 -0.020400
vn -0.411400 0.639400 0.649500
vn -0.997200 0.056800 0.048300
vn -0.998700 -0.030100 0.039200
vn 0.891300 0.223200 -0.394700
vn 0.903100 0.137700 -0.406600
vn 0.908300 0.052400 -0.414900
vn -0.992800 -0.115400 0.030800
vt 0.839504 0.118056
vt 0.856743 0.205307
vt 0.741230 0.205307
vt 0.734555 0.106726
vt 0.724541 0.032791
vt 0.813647 0.052618
vt 0.868992 0.081539
vt 0.913398 0.129584
vt 0.940923 0.205307
vt 0.839504 0.292557
vt 0.813647 0.357995
vt 0.724541 0.377822
vt 0.734555 0.303887
vt 0.913398 0.281029
vt 0.868992 0.329074
vt 0.369475 0.299954
vt 0.368286 0.370940
vt 0.245840 0.351447
vt 0.246397 0.288815
vt 0.246768 0.205307
vt 0.370268 0.205307
vt 0.494283 0.205307
vt 0.492822 0.304944
vt 0.490632 0.379672
vt 0.369475 0.110659
vt 0.246397 0.121798
vt 0.245841 0.059166
vt 0.368286 0.039673
vt 0.490632 0.030941
vt 0.492822 0.105669
vt 0.616755 0.103478
vt 0.619174 0.205307
vt 0.613127 0.027106
vt 0.616755 0.307135
vt 0.613126 0.383507
vt 0.123273 0.268175
vt 0.123047 0.315326
vt 0.054743 0.283353
vt 0.030912 0.249131
vt 0.030973 0.205306
vt 0.123423 0.205306
vt 0.123273 0.142438
vt 0.030912 0.161481
vt 0.054744 0.127260
vt 0.123047 0.095287
vt 0.839504 0.118056
vt 0.856743 0.205307
vt 0.968983 0.205307
vt 0.938030 0.133427
vt 0.876123 0.061548
vt 0.805028 0.030806
vt 0.721203 0.008146
vt 0.734555 0.106726
vt 0.741230 0.205307
vt 0.839504 0.292557
vt 0.805028 0.379807
vt 0.876123 0.349065
vt 0.938030 0.277186
vt 0.734555 0.303887
vt 0.721203 0.402467
vt 0.369475 0.299954
vt 0.367890 0.394602
vt 0.489902 0.404581
vt 0.492822 0.304944
vt 0.494283 0.205307
vt 0.370268 0.205307
vt 0.246768 0.205307
vt 0.246397 0.288815
vt 0.245655 0.372324
vt 0.369475 0.110659
vt 0.492822 0.105669
vt 0.489902 0.006032
vt 0.367890 0.016011
vt 0.245655 0.038289
vt 0.246397 0.121798
vt 0.616755 0.103478
vt 0.619174 0.205307
vt 0.611917 0.001649
vt 0.616755 0.307135
vt 0.611917 0.408964
vt 0.123273 0.268175
vt 0.122972 0.331043
vt 0.123423 0.205306
vt 0.000156 0.205306
vt 0.000125 0.242784
vt 0.000064 0.280261
vt 0.123273 0.142438
vt 0.122972 0.079570
vt 0.000064 0.130352
vt 0.000125 0.167829
vt 0.122972 0.331043
vt 0.030806 0.283587
vt 0.245655 0.372324
vt 0.030806 0.283587
vt 0.000125 0.167829
vt 0.030806 0.127026
vt 0.000156 0.205306
vt 0.030806 0.127026
vt 0.805028 0.030806
vt 0.873826 0.071832
vt 0.721203 0.008146
vt 0.873826 0.071832
vt 0.938030 0.277186
vt 0.873826 0.338781
vt 0.968983 0.205307
vt 0.873826 0.338781
vt 0.805028 0.379807
vt 0.721203 0.402467
vt 0.000125 0.242784
vt 0.122972 0.079570
vt 0.245655 0.038289
vt 0.938030 0.133427
vt 0.611917 0.001649
vt 0.489902 0.006032
vt 0.611917 0.408964
vt 0.489902 0.404581
vt 0.367890 0.394602
vt 0.367890 0.016011
f 1/1/1 2/2/2 3/3/3
f 1/1/1 3/3/3 4/4/4
f 1/1/1 4/4/4 5/5/5
f 1/1/1 5/5/5 6/6/6
f 1/1/1 6/6/6 7/7/7
f 1/1/1 7/7/7 8/8/8
f 1/1/1 8/8/8 9/9/9
f 1/1/1 9/9/9 2/2/2
f 10/10/10 11/11/11 12/12/12
f 10/10/10 12/12/12 13/13/13
f 10/10/10 13/13/13 3/3/3
f 10/10/10 3/3/3 2/2/2
f 10/10/10 2/2/2 9/9/9
f 10/10/10 9/9/9 14/14/14
f 10/10/10 14/14/14 15/15/15
f 10/10/10 15/15/15 11/11/11
f 16/16/16 17/17/17 18/18/18
f 16/16/16 18/18/18 19/19/19
f 16/16/16 19/19/19 20/20/20
f 16/16/16 20/20/20 21/21/21
f 16/16/16 21/21/21 22/22/22
f 16/16/16 22/22/22 23/23/23
f 16/16/16 23/23/23 24/24/24
f 16/16/16 24/24/24 17/17/17
f 25/25/25 21/21/21 20/20/20
f 25/25/25 20/20/20 26/26/26
f 25/25/25 26/26/26 27/27/27
f 25/25/25 27/27/27 28/28/28
f 25/25/25 28/28/28 29/29/29
f 25/25/25 29/29/29 30/30/30
f 25/25/25 30/30/30 22/22/22
f 25/25/25 22/22/22 21/21/21
f 31/31/31 32/32/32 22/22/22
f 31/31/31 22/22/22 30/30/30
f 31/31/31 30/30/30 29/29/29
f 31/31/31 29/29/29 33/33/33
f 31/31/31 33/33/33 5/5/5
f 31/31/31 5/5/5 4/4/4
f 31/31/31 4/4/4 3/3/3
f 31/31/31 3/3/3 32/32/32
f 34/34/34 35/35/35 24/24/24
f 34/34/34 24/24/24 23/23/23
f 34/34/34 23/23/23 22/22/22
f 34/34/34 22/22/22 32/32/32
f 34/34/34 32/32/32 3/3/3
f 34/34/34 3/3/3 13/13/13
f 34/34/34 13/13/13 12/12/12
f 34/34/34 12/12/12 35/35/35
f 36/36/36 37/37/37 38/38/38
f 36/36/36 38/38/38 39/39/39
f 36/36/36 39/39/39 40/40/40
f 36/36/36 40/40/40 41/41/41
f 36/36/36 41/41/41 20/20/20
f 36/36/36 20/20/20 19/19/19
f 36/36/36 19/19/19 18/18/18
f 36/36/36 18/18/18 37/37/37
f 42/42/42 41/41/41 40/40/40
f 42/42/42 40/40/40 43/43/43
f 42/42/42 43/43/43 44/44/44
f 42/42/42 44/44/44 45/45/45
f 42/42/42 45/45/45 27/27/27
f 42/42/42 27/27/27 26/26/26
f 42/42/42 26/26/26 20/20/20
f 42/42/42 20/20/20 41/41/41
f 46/46/46 47/47/47 48/48/48
f 46/46/46 48/48/48 49/49/49
f 46/46/46 49/49/49 50/50/50
f 46/46/46 50/50/50 51/51/51
f 46/46/46 51/51/51 52/52/52
f 46/46/46 52/52/52 53/53/53
f 46/46/46 53/53/53 54/54/54
f 46/46/46 54/54/54 47/47/47
f 55/55/55 56/56/56 57/57/57
f 55/55/55 57/57/57 58/58/58
f 55/55/55 58/58/58 48/48/48
f 55/55/55 48/48/48 47/47/47
f 55/55/55 47/47/47 54/54/54
f 55/55/55 54/54/54 59/59/59
f 55/55/55 59/59/59 60/60/60
f 55/55/55 60/60/60 56/56/56
f 61/61/61 62/62/62 63/63/63
f 61/61/61 63/63/63 64/64/64
f 61/61/61 64/64/64 65/65/65
f 61/61/61 65/65/65 66/66/66
f 61/61/61 66/66/66 67/67/67
f 61/61/61 67/67/67 68/68/68
f 61/61/61 68/68/68 69/69/69
f 61/61/61 69/69/69 62/62/62
f 70/70/70 66/66/66 65/65/65
f 70/70/70 65/65/65 71/71/71
f 70/70/70 71/71/71 72/72/72
f 70/70/70 72/72/72 73/73/73
f 70/70/70 73/73/73 74/74/74
f 70/70/70 74/74/74 75/75/75
f 70/70/70 75/75/75 67/67/67
f 70/70/70 67/67/67 66/66/66
f 76/76/76 77/77/77 54/54/54
f 76/76/76 54/54/54 53/53/53
f 76/76/76 53/53/53 52/52/52
f 76/76/76 52/52/52 78/78/78
f 76/76/76 78/78/78 72/72/72
f 76/76/76 72/72/72 71/71/71
f 76/76/76 71/71/71 65/65/65
f 76/76/76 65/65/65 77/77/77
f 79/79/79 80/80/80 60/60/60
f 79/79/79 60/60/60 59/59/59
f 79/79/79 59/59/59 54/54/54
f 79/79/79 54/54/54 77/77/77
f 79/79/79 77/77/77 65/65/65
f 79/79/79 65/65/65 64/64/64
f 79/79/79 64/64/64 63/63/63
f 79/79/79 63/63/63 80/80/80
f 81/81/81 82/82/82 69/69/69
f 81/81/81 69/69/69 68/68/68
f 81/81/81 68/68/68 67/67/67
f 81/81/81 67/67/67 83/83/83
f 81/81/81 83/83/83 84/84/84
f 81/81/81 84/84/84 85/85/85
f 81/81/81 85/85/85 86/86/86
f 81/81/81 86/86/86 82/82/82
f 87/87/87 83/83/83 67/67/67
f 87/87/87 67/67/67 75/75/75
f 87/87/87 75/75/75 74/74/74
f 87/87/87 74/74/74 88/88/88
f 87/87/87 88/88/88 89/89/89
f 87/87/87 89/89/89 90/90/90
f 87/87/87 90/90/90 84/84/84
f 87/87/87 84/84/84 83/83/83
f 91/91/91 92/92/92 38/38/38
f 91/91/91 38/38/38 37/37/37
f 91/91/91 37/37/37 18/18/18
f 91/91/91 18/18/18 93/93/93
f 91/91/91 93/93/93 69/69/69
f 91/91/91 69/69/69 82/82/82
f 91/91/91 82/82/82 94/94/94
f 91/91/91 94/94/94 92/92/92
f 95/95/95 96/96/96 44/44/44
f 95/95/95 44/44/44 43/43/43
f 95/95/95 43/43/43 40/40/40
f 95/95/95 40/40/40 97/97/97
f 95/95/95 97/97/97 84/84/84
f 95/95/95 84/84/84 90/90/90
f 95/95/95 90/90/90 98/98/98
f 95/95/95 98/98/98 96/96/96
f 99/99/99 100/100/100 7/7/7
f 99/99/99 7/7/7 6/6/6
f 99/99/99 6/6/6 5/5/5
f 99/99/99 5/5/5 101/101/101
f 99/99/99 101/101/101 52/52/52
f 99/99/99 52/52/52 51/51/51
f 99/99/99 51/51/51 102/102/102
f 99/99/99 102/102/102 100/100/100
f 103/103/103 104/104/104 15/15/15
f 103/103/103 15/15/15 14/14/14
f 103/103/103 14/14/14 9/9/9
f 103/103/103 9/9/9 105/105/105
f 103/103/103 105/105/105 48/48/48
f 103/103/103 48/48/48 58/58/58
f 103/103/103 58/58/58 106/106/106
f 103/103/103 106/106/106 104/104/104
f 107/107/107 108/108/108 12/12/12
f 107/107/107 12/12/12 11/11/11
f 107/107/107 11/11/11 15/15/15
f 107/107/107 15/15/15 104/104/104
f 107/107/107 104/104/104 106/106/106
f 107/107/107 106/106/106 56/56/56
f 107/107/107 56/56/56 60/60/60
f 107/107/107 60/60/60 108/108/108
f 109/109/109 97/97/97 40/40/40
f 109/109/109 40/40/40 39/39/39
f 109/109/109 39/39/39 38/38/38
f 109/109/109 38/38/38 92/92/92
f 109/109/109 92/92/92 94/94/94
f 109/109/109 94/94/94 85/85/85
f 109/109/109 85/85/85 84/84/84
f 109/109/109 84/84/84 97/97/97
f 110/110/110 111/111/111 27/27/27
f 110/110/110 27/27/27 45/45/45
f 110/110/110 45/45/45 44/44/44
f 110/110/110 44/44/44 96/96/96
f 110/110/110 96/96/96 98/98/98
f 110/110/110 98/98/98 88/88/88
f 110/110/110 88/88/88 74/74/74
f 110/110/110 74/74/74 111/111/111
f 112/112/112 105/105/105 9/9/9
f 112/112/112 9/9/9 8/8/8
f 112/112/112 8/8/8 7/7/7
f 112/112/112 7/7/7 100/100/100
f 112/112/112 100/100/100 102/102/102
f 112/112/112 102/102/102 49/49/49
f 112/112/112 49/49/49 48/48/48
f 112/112/112 48/48/48 105/105/105
f 113/113/113 101/101/101 5/5/5
f 113/113/113 5/5/5 33/33/33
f 113/113/113 33/33/33 29/29/29
f 113/113/113 29/29/29 114/114/114
f 113/113/113 114/114/114 72/72/72
f 113/113/113 72/72/72 78/78/78
f 113/113/113 78/78/78 52/52/52
f 113/113/113 52/52/52 101/101/101
f 115/115/115 116/116/116 24/24/24
f 115/115/115 24/24/24 35/35/35
f 115/115/115 35/35/35 12/12/12
f 115/115/115 12/12/12 108/108/108
f 115/115/115 108/108/108 60/60/60
f 115/115/115 60/60/60 80/80/80
f 115/115/115 80/80/80 63/63/63
f 115/115/115 63/63/63 116/116/116
f 117/117/117 93/93/93 18/18/18
f 117/117/117 18/18/18 17/17/17
f 117/117/117 17/17/17 24/24/24
f 117/117/117 24/24/24 116/116/116
f 117/117/117 116/116/116 63/63/63
f 117/117/117 63/63/63 62/62/62
f 117/117/117 62/62/62 69/69/69
f 117/117/117 69/69/69 93/93/93
f 118/118/118 114/114/114 29/29/29
f 118/118/118 29/29/29 28/28/28
f 118/118/118 28/28/28 27/27/27
f 118/118/118 27/27/27 111/111/111
f 118/118/118 111/111/111 74/74/74
f 118/118/118 74/74/74 73/73/73
f 118/118/118 73/73/73 72/72/72
f 118/118/118 72/72/72 114/114/114
