v -2.394863 0.785731 -1.208959
v -2.392941 0.786151 -1.210037
v -2.394214 0.784129 -1.211829
v -2.396222 0.783829 -1.210380
v -2.397915 0.783663 -1.209461
v -2.396584 0.785346 -1.208443
v -2.395333 0.786291 -1.207983
v -2.393775 0.787006 -1.207960
v -2.391950 0.787558 -1.208682
v -2.391793 0.786441 -1.211942
v -2.391200 0.786592 -1.213675
v -2.391798 0.785079 -1.215404
v -2.392733 0.784637 -1.213770
v -2.391118 0.787621 -1.210542
v -2.390973 0.787300 -1.212220
v -2.395767 0.777219 -1.218588
v -2.394645 0.777621 -1.219982
v -2.395676 0.774750 -1.221015
v -2.396658 0.774391 -1.219773
v -2.398054 0.773967 -1.218202
v -2.397354 0.776744 -1.216820
v -2.396512 0.779401 -1.215320
v -2.394865 0.779911 -1.217180
v -2.393714 0.780350 -1.218657
v -2.399186 0.776428 -1.215266
v -2.399682 0.773691 -1.216835
v -2.400975 0.773524 -1.215867
v -2.400636 0.776234 -1.214161
v -2.399981 0.778900 -1.212568
v -2.398442 0.779083 -1.213705
v -2.397434 0.781582 -1.212019
v -2.395434 0.781871 -1.213623
v -2.399060 0.781445 -1.210918
v -2.393806 0.782422 -1.215546
v -2.392701 0.782917 -1.217098
v -2.397687 0.771471 -1.220738
v -2.396988 0.771761 -1.221698
v -2.397861 0.770001 -1.221808
v -2.398488 0.769234 -1.221365
v -2.399147 0.768984 -1.220514
v -2.398701 0.771138 -1.219541
v -2.399943 0.770949 -1.218546
v -2.400034 0.768876 -1.219863
v -2.400643 0.769357 -1.219105
v -2.400945 0.770845 -1.217854
v -2.394752 0.785565 -1.208836
v -2.392805 0.785988 -1.209936
v -2.391850 0.787434 -1.208608
v -2.393695 0.786879 -1.207869
v -2.395278 0.786198 -1.207911
v -2.396513 0.785221 -1.208341
v -2.397837 0.783543 -1.209357
v -2.396104 0.783670 -1.210254
v -2.394074 0.783973 -1.211722
v -2.391635 0.786286 -1.211864
v -2.391071 0.786481 -1.213628
v -2.390881 0.787215 -1.212183
v -2.391000 0.787503 -1.210487
v -2.392574 0.784488 -1.213684
v -2.391669 0.784971 -1.215350
v -2.395598 0.777102 -1.218473
v -2.394512 0.777535 -1.219903
v -2.393583 0.780257 -1.218584
v -2.394699 0.779784 -1.217072
v -2.396361 0.779269 -1.215196
v -2.397200 0.776623 -1.216690
v -2.397897 0.773854 -1.218067
v -2.396487 0.774282 -1.219653
v -2.395541 0.774671 -1.220933
v -2.399047 0.776304 -1.215122
v -2.398307 0.778948 -1.213567
v -2.399889 0.778797 -1.212457
v -2.400540 0.776140 -1.214046
v -2.400877 0.773435 -1.215749
v -2.399540 0.773575 -1.216686
v -2.397308 0.781435 -1.211888
v -2.395289 0.781726 -1.213508
v -2.398975 0.781334 -1.210811
v -2.393643 0.782283 -1.215448
v -2.392571 0.782816 -1.217034
v -2.397514 0.771365 -1.220618
v -2.396852 0.771684 -1.221616
v -2.398543 0.771029 -1.219405
v -2.399028 0.768902 -1.220411
v -2.398357 0.769155 -1.221275
v -2.397761 0.769943 -1.221745
v -2.399802 0.770836 -1.218395
v -2.400848 0.770759 -1.217733
v -2.400568 0.769294 -1.219017
v -2.399929 0.768792 -1.219749
v -2.396693 0.771824 -1.221984
v -2.397979 0.769444 -1.222068
v -2.395287 0.774835 -1.221394
v -2.397761 0.769943 -1.221745
v -2.400017 0.768148 -1.220251
v -2.400767 0.768799 -1.219360
v -2.399243 0.768230 -1.220792
v -2.400568 0.769294 -1.219017
v -2.397129 0.785162 -1.208223
v -2.395483 0.786370 -1.207751
v -2.398447 0.783555 -1.209106
v -2.395278 0.786198 -1.207911
v -2.390841 0.787961 -1.210052
v -2.390765 0.787462 -1.212335
v -2.391576 0.787972 -1.208198
v -2.390881 0.787215 -1.212183
v -2.390943 0.786594 -1.214234
v -2.391427 0.785179 -1.215927
v -2.398696 0.768454 -1.221534
v -2.401238 0.770772 -1.217568
v -2.401364 0.773429 -1.215490
v -2.393378 0.787374 -1.207587
v -2.399567 0.781350 -1.210502
v -2.400455 0.778793 -1.212138
v -2.392273 0.783038 -1.217589
v -2.393270 0.780456 -1.219118
v -2.394211 0.777717 -1.220413
v -2.401079 0.776127 -1.213740
vn -0.398400 0.733800 -0.550300
vn -0.555900 0.729600 -0.398300
vn -0.581000 0.688600 -0.433900
vn -0.441800 0.691300 -0.571600
vn -0.459200 0.672700 -0.580200
vn -0.405300 0.733300 -0.545900
vn -0.365700 0.773000 -0.518400
vn -0.389200 0.792800 -0.469000
vn -0.512600 0.788500 -0.339800
vn -0.704900 0.662800 -0.252600
vn -0.700500 0.665000 -0.258900
vn -0.719700 0.612400 -0.327000
vn -0.715800 0.628000 -0.305500
vn -0.639500 0.734800 -0.225800
vn -0.683000 0.699500 -0.210200
vn -0.736400 0.468300 -0.488200
vn -0.714500 0.468800 -0.519400
vn -0.719900 0.441200 -0.535800
vn -0.749100 0.437800 -0.497100
vn -0.673400 0.451200 -0.585600
vn -0.663600 0.488200 -0.566700
vn -0.640400 0.559700 -0.525800
vn -0.724300 0.529200 -0.442000
vn -0.712000 0.521000 -0.470800
vn -0.582600 0.503800 -0.637700
vn -0.584100 0.476000 -0.657400
vn -0.622500 0.463900 -0.630300
vn -0.613000 0.492200 -0.618000
vn -0.577800 0.552000 -0.601200
vn -0.551700 0.569100 -0.609600
vn -0.499000 0.639500 -0.584800
vn -0.609400 0.633900 -0.476200
vn -0.521300 0.617700 -0.588700
vn -0.716500 0.589100 -0.373500
vn -0.715200 0.572800 -0.400300
vn -0.768000 0.419600 -0.483800
vn -0.738600 0.419800 -0.527400
vn -0.762100 0.398100 -0.510600
vn -0.792000 0.364000 -0.490200
vn -0.687800 0.382700 -0.616700
vn -0.677500 0.433500 -0.594100
vn -0.566900 0.466200 -0.679200
vn -0.560300 0.417600 -0.715300
vn -0.588000 0.438300 -0.679700
vn -0.609500 0.449700 -0.652900
vn 0.385400 -0.717400 0.580300
vn 0.562900 -0.718600 0.408200
vn 0.589000 -0.674100 0.445700
vn 0.341000 -0.665000 0.664400
vn 0.248100 -0.630600 0.735400
vn 0.266300 -0.641900 0.719100
vn 0.328800 -0.648800 0.686200
vn 0.430100 -0.690600 0.581500
vn 0.580900 -0.688700 0.433900
vn 0.730300 -0.637500 0.245200
vn 0.848000 -0.507000 0.154000
vn 0.861200 -0.488600 0.139800
vn 0.800000 -0.558800 0.218500
vn 0.725200 -0.622200 0.294700
vn 0.817600 -0.535600 0.211400
vn 0.746200 -0.465800 0.475500
vn 0.808700 -0.446200 0.383300
vn 0.800500 -0.487300 0.348700
vn 0.733500 -0.526000 0.430500
vn 0.640500 -0.559600 0.525900
vn 0.663700 -0.488100 0.566800
vn 0.673400 -0.451100 0.585600
vn 0.760000 -0.436700 0.481300
vn 0.822200 -0.437200 0.364300
vn 0.569600 -0.506700 0.647100
vn 0.539800 -0.570800 0.618700
vn 0.451300 -0.568200 0.688100
vn 0.475300 -0.523300 0.707300
vn 0.454600 -0.522300 0.721500
vn 0.568500 -0.481000 0.667400
vn 0.487400 -0.640300 0.593700
vn 0.609400 -0.633900 0.476200
vn 0.396300 -0.620300 0.676900
vn 0.725300 -0.585200 0.362500
vn 0.801800 -0.526300 0.282900
vn 0.778900 -0.431100 0.455400
vn 0.839700 -0.450700 0.302800
vn 0.675000 -0.444300 0.588900
vn 0.662800 -0.490800 0.565400
vn 0.801700 -0.473400 0.364900
vn 0.846500 -0.463000 0.262700
vn 0.541900 -0.486000 0.685600
vn 0.398000 -0.553000 0.731900
vn 0.361900 -0.575200 0.733600
vn 0.463700 -0.551600 0.693300
vn 0.425200 -0.084100 -0.901200
vn 0.168000 -0.407500 -0.897600
vn 0.518700 0.031700 -0.854400
vn 0.846500 -0.463000 0.262700
vn -0.398300 -0.875300 -0.274100
vn -0.779200 -0.626300 0.023000
vn -0.129100 -0.926700 -0.352900
vn 0.361900 -0.575200 0.733600
vn -0.686300 0.303000 0.661100
vn -0.444800 0.501800 0.741800
vn -0.788700 0.128800 0.601100
vn 0.248100 -0.630600 0.735400
vn 0.678100 0.718700 0.153500
vn 0.605700 0.745300 -0.278500
vn 0.473900 0.611900 0.633300
vn 0.861200 -0.488600 0.139800
vn 0.573800 0.595300 -0.562400
vn 0.556000 0.440600 -0.704800
vn -0.063800 -0.798100 -0.599000
vn -0.857700 -0.380600 0.345600
vn -0.839100 -0.281600 0.465400
vn -0.018000 0.557700 0.829800
vn -0.825800 -0.009400 0.563800
vn -0.830900 -0.095000 0.548300
vn 0.551800 0.309900 -0.774200
vn 0.556600 0.226500 -0.799300
vn 0.557400 0.142200 -0.817900
vn -0.829300 -0.178600 0.529500
vt 0.839504 0.118056
vt 0.856743 0.205307
vt 0.741230 0.205307
vt 0.734555 0.106726
vt 0.724541 0.032791
vt 0.813647 0.052618
vt 0.868992 0.081539
vt 0.913398 0.129584
vt 0.940923 0.205307
vt 0.839504 0.292557
vt 0.813647 0.357995
vt 0.724541 0.377822
vt 0.734555 0.303887
vt 0.913398 0.281029
vt 0.868992 0.329074
vt 0.369475 0.299954
vt 0.368286 0.370940
vt 0.245840 0.351447
vt 0.246397 0.288815
vt 0.246768 0.205307
vt 0.370268 0.205307
vt 0.494283 0.205307
vt 0.492822 0.304944
vt 0.490632 0.379672
vt 0.369475 0.110659
vt 0.246397 0.121798
vt 0.245841 0.059166
vt 0.368286 0.039673
vt 0.490632 0.030941
vt 0.492822 0.105669
vt 0.616755 0.103478
vt 0.619174 0.205307
vt 0.613127 0.027106
vt 0.616755 0.307135
vt 0.613126 0.383507
vt 0.123273 0.268175
vt 0.123047 0.315326
vt 0.054743 0.283353
vt 0.030912 0.249131
vt 0.030973 0.205306
vt 0.123423 0.205306
vt 0.123273 0.142438
vt 0.030912 0.161481
vt 0.054744 0.127260
vt 0.123047 0.095287
vt 0.839504 0.118056
vt 0.856743 0.205307
vt 0.968983 0.205307
vt 0.938030 0.133427
vt 0.876123 0.061548
vt 0.805028 0.030806
vt 0.721203 0.008146
vt 0.734555 0.106726
vt 0.741230 0.205307
vt 0.839504 0.292557
vt 0.805028 0.379807
vt 0.876123 0.349065
vt 0.938030 0.277186
vt 0.734555 0.303887
vt 0.721203 0.402467
vt 0.369475 0.299954
vt 0.367890 0.394602
vt 0.489902 0.404581
vt 0.492822 0.304944
vt 0.494283 0.205307
vt 0.370268 0.205307
vt 0.246768 0.205307
vt 0.246397 0.288815
vt 0.245655 0.372324
vt 0.369475 0.110659
vt 0.492822 0.105669
vt 0.489902 0.006032
vt 0.367890 0.016011
vt 0.245655 0.038289
vt 0.246397 0.121798
vt 0.616755 0.103478
vt 0.619174 0.205307
vt 0.611917 0.001649
vt 0.616755 0.307135
vt 0.611917 0.408964
vt 0.123273 0.268175
vt 0.122972 0.331043
vt 0.123423 0.205306
vt 0.000156 0.205306
vt 0.000125 0.242784
vt 0.000064 0.280261
vt 0.123273 0.142438
vt 0.122972 0.079570
vt 0.000064 0.130352
vt 0.000125 0.167829
vt 0.122972 0.331043
vt 0.030806 0.283587
vt 0.245655 0.372324
vt 0.030806 0.283587
vt 0.000125 0.167829
vt 0.030806 0.127026
vt 0.000156 0.205306
vt 0.030806 0.127026
vt 0.805028 0.030806
vt 0.873826 0.071832
vt 0.721203 0.008146
vt 0.873826 0.071832
vt 0.938030 0.277186
vt 0.873826 0.338781
vt 0.968983 0.205307
vt 0.873826 0.338781
vt 0.805028 0.379807
vt 0.721203 0.402467
vt 0.000125 0.242784
vt 0.122972 0.079570
vt 0.245655 0.038289
vt 0.938030 0.133427
vt 0.611917 0.001649
vt 0.489902 0.006032
vt 0.611917 0.408964
vt 0.489902 0.404581
vt 0.367890 0.394602
vt 0.367890 0.016011
f 1/1/1 2/2/2 3/3/3
f 1/1/1 3/3/3 4/4/4
f 1/1/1 4/4/4 5/5/5
f 1/1/1 5/5/5 6/6/6
f 1/1/1 6/6/6 7/7/7
f 1/1/1 7/7/7 8/8/8
f 1/1/1 8/8/8 9/9/9
f 1/1/1 9/9/9 2/2/2
f 10/10/10 11/11/11 12/12/12
f 10/10/10 12/12/12 13/13/13
f 10/10/10 13/13/13 3/3/3
f 10/10/10 3/3/3 2/2/2
f 10/10/10 2/2/2 9/9/9
f 10/10/10 9/9/9 14/14/14
f 10/10/10 14/14/14 15/15/15
f 10/10/10 15/15/15 11/11/11
f 16/16/16 17/17/17 18/18/18
f 16/16/16 18/18/18 19/19/19
f 16/16/16 19/19/19 20/20/20
f 16/16/16 20/20/20 21/21/21
f 16/16/16 21/21/21 22/22/22
f 16/16/16 22/22/22 23/23/23
f 16/16/16 23/23/23 24/24/24
f 16/16/16 24/24/24 17/17/17
f 25/25/25 21/21/21 20/20/20
f 25/25/25 20/20/20 26/26/26
f 25/25/25 26/26/26 27/27/27
f 25/25/25 27/27/27 28/28/28
f 25/25/25 28/28/28 29/29/29
f 25/25/25 29/29/29 30/30/30
f 25/25/25 30/30/30 22/22/22
f 25/25/25 22/22/22 21/21/21
f 31/31/31 32/32/32 22/22/22
f 31/31/31 22/22/22 30/30/30
f 31/31/31 30/30/30 29/29/29
f 31/31/31 29/29/29 33/33/33
f 31/31/31 33/33/33 5/5/5
f 31/31/31 5/5/5 4/4/4
f 31/31/31 4/4/4 3/3/3
f 31/31/31 3/3/3 32/32/32
f 34/34/34 35/35/35 24/24/24
f 34/34/34 24/24/24 23/23/23
f 34/34/34 23/23/23 22/22/22
f 34/34/34 22/22/22 32/32/32
f 34/34/34 32/32/32 3/3/3
f 34/34/34 3/3/3 13/13/13
f 34/34/34 13/13/13 12/12/12
f 34/34/34 12/12/12 35/35/35
f 36/36/36 37/37/37 38/38/38
f 36/36/36 38/38/38 39/39/39
f 36/36/36 39/39/39 40/40/40
f 36/36/36 40/40/40 41/41/41
f 36/36/36 41/41/41 20/20/20
f 36/36/36 20/20/20 19/19/19
f 36/36/36 19/19/19 18/18/18
f 36/36/36 18/18/18 37/37/37
f 42/42/42 41/41/41 40/40/40
f 42/42/42 40/40/40 43/43/43
f 42/42/42 43/43/43 44/44/44
f 42/42/42 44/44/44 45/45/45
f 42/42/42 45/45/45 27/27/27
f 42/42/42 27/27/27 26/26/26
f 42/42/42 26/26/26 20/20/20
f 42/42/42 20/20/20 41/41/41
f 46/46/46 47/47/47 48/48/48
f 46/46/46 48/48/48 49/49/49
f 46/46/46 49/49/49 50/50/50
f 46/46/46 50/50/50 51/51/51
f 46/46/46 51/51/51 52/52/52
f 46/46/46 52/52/52 53/53/53
f 46/46/46 53/53/53 54/54/54
f 46/46/46 54/54/54 47/47/47
f 55/55/55 56/56/56 57/57/57
f 55/55/55 57/57/57 58/58/58
f 55/55/55 58/58/58 48/48/48
f 55/55/55 48/48/48 47/47/47
f 55/55/55 47/47/47 54/54/54
f 55/55/55 54/54/54 59/59/59
f 55/55/55 59/59/59 60/60/60
f 55/55/55 60/60/60 56/56/56
f 61/61/61 62/62/62 63/63/63
f 61/61/61 63/63/63 64/64/64
f 61/61/61 64/64/64 65/65/65
f 61/61/61 65/65/65 66/66/66
f 61/61/61 66/66/66 67/67/67
f 61/61/61 67/67/67 68/68/68
f 61/61/61 68/68/68 69/69/69
f 61/61/61 69/69/69 62/62/62
f 70/70/70 66/66/66 65/65/65
f 70/70/70 65/65/65 71/71/71
f 70/70/70 71/71/71 72/72/72
f 70/70/70 72/72/72 73/73/73
f 70/70/70 73/73/73 74/74/74
f 70/70/70 74/74/74 75/75/75
f 70/70/70 75/75/75 67/67/67
f 70/70/70 67/67/67 66/66/66
f 76/76/76 77/77/77 54/54/54
f 76/76/76 54/54/54 53/53/53
f 76/76/76 53/53/53 52/52/52
f 76/76/76 52/52/52 78/78/78
f 76/76/76 78/78/78 72/72/72
f 76/76/76 72/72/72 71/71/71
f 76/76/76 71/71/71 65/65/65
f 76/76/76 65/65/65 77/77/77
f 79/79/79 80/80/80 60/60/60
f 79/79/79 60/60/60 59/59/59
f 79/79/79 59/59/59 54/54/54
f 79/79/79 54/54/54 77/77/77
f 79/79/79 77/77/77 65/65/65
f 79/79/79 65/65/65 64/64/64
f 79/79/79 64/64/64 63/63/63
f 79/79/79 63/63/63 80/80/80
f 81/81/81 82/82/82 69/69/69
f 81/81/81 69/69/69 68/68/68
f 81/81/81 68/68/68 67/67/67
f 81/81/81 67/67/67 83/83/83
f 81/81/81 83/83/83 84/84/84
f 81/81/81 84/84/84 85/85/85
f 81/81/81 85/85/85 86/86/86
f 81/81/81 86/86/86 82/82/82
f 87/87/87 83/83/83 67/67/67
f 87/87/87 67/67/67 75/75/75
f 87/87/87 75/75/75 74/74/74
f 87/87/87 74/74/74 88/88/88
f 87/87/87 88/88/88 89/89/89
f 87/87/87 89/89/89 90/90/90
f 87/87/87 90/90/90 84/84/84
f 87/87/87 84/84/84 83/83/83
f 91/91/91 92/92/92 38/38/38
f 91/91/91 38/38/38 37/37/37
f 91/91/91 37/37/37 18/18/18
f 91/91/91 18/18/18 93/93/93
f 91/91/91 93/93/93 69/69/69
f 91/91/91 69/69/69 82/82/82
f 91/91/91 82/82/82 94/94/94
f 91/91/91 94/94/94 92/92/92
f 95/95/95 96/96/96 44/44/44
f 95/95/95 44/44/44 43/43/43
f 95/95/95 43/43/43 40/40/40
f 95/95/95 40/40/40 97/97/97
f 95/95/95 97/97/97 84/84/84
f 95/95/95 84/84/84 90/90/90
f 95/95/95 90/90/90 98/98/98
f 95/95/95 98/98/98 96/96/96
f 99/99/99 100/100/100 7/7/7
f 99/99/99 7/7/7 6/6/6
f 99/99/99 6/6/6 5/5/5
f 99/99/99 5/5/5 101/101/101
f 99/99/99 101/101/101 52/52/52
f 99/99/99 52/52/52 51/51/51
f 99/99/99 51/51/51 102/102/102
f 99/99/99 102/102/102 100/100/100
f 103/103/103 104/104/104 15/15/15
f 103/103/103 15/15/15 14/14/14
f 103/103/103 14/14/14 9/9/9
f 103/103/103 9/9/9 105/105/105
f 103/103/103 105/105/105 48/48/48
f 103/103/103 48/48/48 58/58/58
f 103/103/103 58/58/58 106/106/106
f 103/103/103 106/106/106 104/104/104
f 107/107/107 108/108/108 12/12/12
f 107/107/107 12/12/12 11/11/11
f 107/107/107 11/11/11 15/15/15
f 107/107/107 15/15/15 104/104/104
f 107/107/107 104/104/104 106/106/106
f 107/107/107 106/106/106 56/56/56
f 107/107/107 56/56/56 60/60/60
f 107/107/107 60/60/60 108/108/108
f 109/109/109 97/97/97 40/40/40
f 109/109/109 40/40/40 39/39/39
f 109/109/109 39/39/39 38/38/38
f 109/109/109 38/38/38 92/92/92
f 109/109/109 92/92/92 94/94/94
f 109/109/109 94/94/94 85/85/85
f 109/109/109 85/85/85 84/84/84
f 109/109/109 84/84/84 97/97/97
f 110/110/110 111/111/111 27/27/27
f 110/110/110 27/27/27 45/45/45
f 110/110/110 45/45/45 44/44/44
f 110/110/110 44/44/44 96/96/96
f 110/110/110 96/96/96 98/98/98
f 110/110/110 98/98/98 88/88/88
f 110/110/110 88/88/88 74/74/74
f 110/110/110 74/74/74 111/111/111
f 112/112/112 105/105/105 9/9/9
f 112/112/112 9/9/9 8/8/8
f 112/112/112 8/8/8 7/7/7
f 112/112/112 7/7/7 100/100/100
f 112/112/112 100/100/100 102/102/102
f 112/112/112 102/102/102 49/49/49
f 112/112/112 49/49/49 48/48/48
f 112/112/112 48/48/48 105/105/105
f 113/113/113 101/101/101 5/5/5
f 113/113/113 5/5/5 33/33/33
f 113/113/113 33/33/33 29/29/29
f 113/113/113 29/29/29 114/114/114
f 113/113/113 114/114/114 72/72/72
f 113/113/113 72/72/72 78/78/78
f 113/113/113 78/78/78 52/52/52
f 113/113/113 52/52/52 101/101/101
f 115/115/115 116/116/116 24/24/24
f 115/115/115 24/24/24 35/35/35
f 115/115/115 35/35/35 12/12/12
f 115/115/115 12/12/12 108/108/108
f 115/115/115 108/108/108 60/60/60
f 115/115/115 60/60/60 80/80/80
f 115/115/115 80/80/80 63/63/63
f 115/115/115 63/63/63 116/116/116
f 117/117/117 93/93/93 18/18/18
f 117/117/117 18/18/18 17/17/17
f 117/117/117 17/17/17 24/24/24
f 117/117/117 24/24/24 116/116/116
f 117/117/117 116/116/116 63/63/63
f 117/117/117 63/63/63 62/62/62
f 117/117/117 62/62/62 69/69/69
f 117/117/117 69/69/69 93/93/93
f 118/118/118 114/114/114 29/29/29
f 118/118/118 29/29/29 28/28/28
f 118/118/118 28/28/28 27/27/27
f 118/118/118 27/27/27 111/111/111
f 118/118/118 111/111/111 74/74/74
f 118/118/118 74/74/74 73/73/73
f 118/118/118 73/73/73 72/72/72
f 118/118/118 72/72/72 114/114/114
