v -2.454216 0.751314 -1.090457
v -2.452928 0.751721 -1.089107
v -2.451439 0.751172 -1.091094
v -2.453060 0.750721 -1.092390
v -2.454236 0.750524 -1.093524
v -2.455044 0.751123 -1.091770
v -2.455248 0.751417 -1.090426
v -2.454964 0.751664 -1.089016
v -2.454006 0.752042 -1.087619
v -2.451265 0.752495 -1.088573
v -2.449870 0.753194 -1.088467
v -2.448358 0.752877 -1.089771
v -2.449707 0.752063 -1.090249
v -2.452411 0.752686 -1.087386
v -2.451058 0.753094 -1.087751
v -2.444958 0.749069 -1.095893
v -2.443706 0.749725 -1.095231
v -2.442417 0.748211 -1.097117
v -2.443526 0.747622 -1.097695
v -2.444990 0.746926 -1.098533
v -2.446612 0.748290 -1.096848
v -2.448233 0.749494 -1.095064
v -2.446504 0.750326 -1.094074
v -2.445194 0.751037 -1.093396
v -2.448243 0.747754 -1.097991
v -2.446432 0.746459 -1.099550
v -2.447509 0.746173 -1.100368
v -2.449463 0.747421 -1.098906
v -2.451216 0.748627 -1.097241
v -2.449941 0.748950 -1.096268
v -2.451591 0.749936 -1.094364
v -2.449858 0.750442 -1.093112
v -2.452884 0.749677 -1.095397
v -2.448103 0.751332 -1.092137
v -2.446773 0.752123 -1.091495
v -2.442269 0.746044 -1.099579
v -2.441436 0.746519 -1.099176
v -2.441102 0.745423 -1.100398
v -2.441392 0.744793 -1.101008
v -2.442146 0.744384 -1.101394
v -2.443365 0.745499 -1.100183
v -2.444438 0.745176 -1.100964
v -2.442878 0.744198 -1.101956
v -2.443776 0.744353 -1.102105
v -2.445239 0.744997 -1.101604
v -2.454215 0.751125 -1.090394
v -2.452904 0.751539 -1.089029
v -2.453986 0.751905 -1.087564
v -2.454963 0.751521 -1.088972
v -2.455253 0.751310 -1.090396
v -2.455055 0.750978 -1.091730
v -2.454247 0.750382 -1.093477
v -2.453061 0.750534 -1.092319
v -2.451420 0.750991 -1.091010
v -2.451220 0.752324 -1.088482
v -2.449825 0.753071 -1.088392
v -2.451027 0.753002 -1.087698
v -2.452374 0.752557 -1.087319
v -2.449669 0.751892 -1.090153
v -2.448320 0.752754 -1.089693
v -2.444947 0.748908 -1.095773
v -2.443691 0.749608 -1.095137
v -2.445174 0.750917 -1.093308
v -2.446486 0.750161 -1.093961
v -2.448230 0.749322 -1.094960
v -2.446616 0.748123 -1.096737
v -2.444999 0.746762 -1.098416
v -2.443521 0.747465 -1.097570
v -2.442405 0.748097 -1.097020
v -2.448261 0.747582 -1.097889
v -2.449953 0.748773 -1.096175
v -2.451233 0.748492 -1.097177
v -2.449484 0.747290 -1.098835
v -2.447533 0.746045 -1.100293
v -2.446455 0.746291 -1.099443
v -2.451597 0.749754 -1.094282
v -2.449847 0.750266 -1.093019
v -2.452898 0.749538 -1.095342
v -2.448075 0.751163 -1.092034
v -2.446743 0.752001 -1.091412
v -2.442265 0.745889 -1.099452
v -2.441425 0.746407 -1.099076
v -2.443376 0.745337 -1.100065
v -2.442154 0.744263 -1.101305
v -2.441388 0.744677 -1.100911
v -2.441096 0.745339 -1.100325
v -2.444463 0.745009 -1.100856
v -2.445266 0.744870 -1.101528
v -2.443794 0.744259 -1.102047
v -2.442898 0.744073 -1.101876
v -2.441152 0.746628 -1.098996
v -2.440782 0.745139 -1.100715
v -2.442040 0.748358 -1.096881
v -2.441096 0.745339 -1.100325
v -2.442367 0.743816 -1.102251
v -2.443460 0.744067 -1.102426
v -2.441744 0.743959 -1.101758
v -2.443794 0.744259 -1.102047
v -2.455327 0.750994 -1.092192
v -2.455489 0.751408 -1.090464
v -2.454636 0.750395 -1.093882
v -2.455253 0.751310 -1.090396
v -2.452775 0.752692 -1.086960
v -2.450956 0.753222 -1.087570
v -2.454356 0.752088 -1.087099
v -2.451027 0.753002 -1.087698
v -2.449382 0.753374 -1.088396
v -2.447890 0.753095 -1.089576
v -2.441097 0.744325 -1.101441
v -2.445519 0.744880 -1.101784
v -2.447880 0.746020 -1.100609
v -2.455213 0.751716 -1.088517
v -2.453323 0.749528 -1.095718
v -2.451651 0.748459 -1.097538
v -2.446314 0.752333 -1.091243
v -2.444747 0.751222 -1.093130
v -2.443280 0.749893 -1.094967
v -2.449880 0.747251 -1.099181
vn 0.038400 0.969200 -0.243100
vn -0.150300 0.926400 -0.345300
vn -0.115100 0.912800 -0.391900
vn 0.054800 0.951500 -0.302700
vn 0.062000 0.943000 -0.327000
vn 0.032000 0.968200 -0.248000
vn 0.009900 0.981500 -0.191300
vn -0.048100 0.980200 -0.192200
vn -0.204100 0.940900 -0.270100
vn -0.307400 0.830800 -0.463900
vn -0.301100 0.834800 -0.460900
vn -0.232200 0.825200 -0.514900
vn -0.254400 0.827800 -0.500100
vn -0.330500 0.867200 -0.372400
vn -0.347900 0.838200 -0.419800
vn -0.050000 0.780000 -0.623800
vn -0.015400 0.790600 -0.612200
vn 0.006400 0.775700 -0.631000
vn -0.036500 0.760500 -0.648300
vn 0.063100 0.798100 -0.599200
vn 0.037500 0.819200 -0.572300
vn -0.014000 0.856900 -0.515200
vn -0.106600 0.808300 -0.579000
vn -0.074400 0.812200 -0.578500
vn 0.123500 0.849500 -0.512900
vn 0.149800 0.835000 -0.529400
vn 0.116200 0.819600 -0.560900
vn 0.099200 0.836400 -0.539000
vn 0.077000 0.872900 -0.481800
vn 0.088200 0.886300 -0.454600
vn 0.062300 0.924600 -0.375800
vn -0.070700 0.891200 -0.448000
vn 0.064700 0.912200 -0.404500
vn -0.183200 0.826300 -0.532600
vn -0.154100 0.824600 -0.544300
vn -0.048600 0.742400 -0.668200
vn -0.000000 0.757200 -0.653200
vn -0.015500 0.735300 -0.677500
vn -0.032300 0.702400 -0.711000
vn 0.108700 0.756700 -0.644600
vn 0.075100 0.787700 -0.611400
vn 0.178500 0.833200 -0.523200
vn 0.229400 0.807100 -0.544000
vn 0.180800 0.813800 -0.552200
vn 0.145500 0.815400 -0.560300
vn -0.074900 -0.966600 0.245200
vn 0.140700 -0.922900 0.358300
vn 0.103100 -0.907400 0.407300
vn -0.182100 -0.951900 0.246300
vn -0.291300 -0.936700 0.194000
vn -0.266300 -0.942400 0.202100
vn -0.211500 -0.945700 0.246800
vn -0.068000 -0.953000 0.295100
vn 0.115200 -0.912800 0.391800
vn 0.314400 -0.810800 0.493700
vn 0.390000 -0.679600 0.621200
vn 0.400500 -0.659800 0.635700
vn 0.335600 -0.744700 0.576900
vn 0.265000 -0.819700 0.507700
vn 0.340100 -0.724800 0.599000
vn 0.063800 -0.773900 0.630100
vn 0.158800 -0.726500 0.668500
vn 0.199900 -0.744100 0.637400
vn 0.118700 -0.802100 0.585300
vn 0.013900 -0.856800 0.515300
vn -0.037600 -0.819100 0.572400
vn -0.063100 -0.798100 0.599200
vn 0.053600 -0.754300 0.654300
vn 0.177100 -0.712600 0.678800
vn -0.135600 -0.853700 0.502800
vn -0.099900 -0.889600 0.445700
vn -0.194300 -0.901900 0.385700
vn -0.217400 -0.877100 0.428300
vn -0.237800 -0.878700 0.413900
vn -0.162500 -0.840800 0.516300
vn -0.074200 -0.927100 0.367500
vn 0.070700 -0.891200 0.448000
vn -0.187600 -0.930400 0.315000
vn 0.194500 -0.819500 0.539000
vn 0.270200 -0.747100 0.607300
vn 0.081000 -0.741200 0.666300
vn 0.240600 -0.699200 0.673200
vn -0.067800 -0.794100 0.604000
vn -0.035600 -0.820600 0.570300
vn 0.181700 -0.739800 0.647800
vn 0.281400 -0.692400 0.664400
vn -0.186500 -0.848300 0.495500
vn -0.257800 -0.898600 0.355100
vn -0.265400 -0.911100 0.315300
vn -0.199900 -0.892600 0.404100
vn 0.958100 0.263300 0.112500
vn 0.972100 0.035600 -0.231700
vn 0.913100 0.322300 0.249600
vn 0.281400 -0.692400 0.664400
vn 0.394500 -0.544500 -0.740200
vn -0.097000 -0.392600 -0.914500
vn 0.586200 -0.605900 -0.537800
vn -0.265400 -0.911100 0.315300
vn -0.939000 0.090100 -0.332000
vn -0.984400 0.174500 -0.023100
vn -0.864800 -0.011100 -0.501900
vn -0.291300 -0.936700 0.194000
vn -0.125300 0.409500 0.903700
vn 0.201000 0.649000 0.733700
vn -0.570800 0.134500 0.810000
vn 0.400500 -0.659800 0.635700
vn 0.483000 0.659400 0.576100
vn 0.652700 0.596400 0.467200
vn 0.772500 -0.393000 -0.498700
vn -0.490200 -0.316100 -0.812300
vn -0.619600 -0.291000 -0.728900
vn -0.910400 0.095300 0.402500
vn -0.797700 -0.105000 -0.593800
vn -0.755400 -0.170400 -0.632700
vn 0.757100 0.517400 0.398900
vn 0.810400 0.456500 0.367200
vn 0.857300 0.392400 0.333200
vn -0.707800 -0.234100 -0.666500
vt 0.839504 0.118056
vt 0.856743 0.205307
vt 0.741230 0.205307
vt 0.734555 0.106726
vt 0.724541 0.032791
vt 0.813647 0.052618
vt 0.868992 0.081539
vt 0.913398 0.129584
vt 0.940923 0.205307
vt 0.839504 0.292557
vt 0.813647 0.357995
vt 0.724541 0.377822
vt 0.734555 0.303887
vt 0.913398 0.281029
vt 0.868992 0.329074
vt 0.369475 0.299954
vt 0.368286 0.370940
vt 0.245840 0.351447
vt 0.246397 0.288815
vt 0.246768 0.205307
vt 0.370268 0.205307
vt 0.494283 0.205307
vt 0.492822 0.304944
vt 0.490632 0.379672
vt 0.369475 0.110659
vt 0.246397 0.121798
vt 0.245841 0.059166
vt 0.368286 0.039673
vt 0.490632 0.030941
vt 0.492822 0.105669
vt 0.616755 0.103478
vt 0.619174 0.205307
vt 0.613127 0.027106
vt 0.616755 0.307135
vt 0.613126 0.383507
vt 0.123273 0.268175
vt 0.123047 0.315326
vt 0.054743 0.283353
vt 0.030912 0.249131
vt 0.030973 0.205306
vt 0.123423 0.205306
vt 0.123273 0.142438
vt 0.030912 0.161481
vt 0.054744 0.127260
vt 0.123047 0.095287
vt 0.839504 0.118056
vt 0.856743 0.205307
vt 0.968983 0.205307
vt 0.938030 0.133427
vt 0.876123 0.061548
vt 0.805028 0.030806
vt 0.721203 0.008146
vt 0.734555 0.106726
vt 0.741230 0.205307
vt 0.839504 0.292557
vt 0.805028 0.379807
vt 0.876123 0.349065
vt 0.938030 0.277186
vt 0.734555 0.303887
vt 0.721203 0.402467
vt 0.369475 0.299954
vt 0.367890 0.394602
vt 0.489902 0.404581
vt 0.492822 0.304944
vt 0.494283 0.205307
vt 0.370268 0.205307
vt 0.246768 0.205307
vt 0.246397 0.288815
vt 0.245655 0.372324
vt 0.369475 0.110659
vt 0.492822 0.105669
vt 0.489902 0.006032
vt 0.367890 0.016011
vt 0.245655 0.038289
vt 0.246397 0.121798
vt 0.616755 0.103478
vt 0.619174 0.205307
vt 0.611917 0.001649
vt 0.616755 0.307135
vt 0.611917 0.408964
vt 0.123273 0.268175
vt 0.122972 0.331043
vt 0.123423 0.205306
vt 0.000156 0.205306
vt 0.000125 0.242784
vt 0.000064 0.280261
vt 0.123273 0.142438
vt 0.122972 0.079570
vt 0.000064 0.130352
vt 0.000125 0.167829
vt 0.122972 0.331043
vt 0.030806 0.283587
vt 0.245655 0.372324
vt 0.030806 0.283587
vt 0.000125 0.167829
vt 0.030806 0.127026
vt 0.000156 0.205306
vt 0.030806 0.127026
vt 0.805028 0.030806
vt 0.873826 0.071832
vt 0.721203 0.008146
vt 0.873826 0.071832
vt 0.938030 0.277186
vt 0.873826 0.338781
vt 0.968983 0.205307
vt 0.873826 0.338781
vt 0.805028 0.379807
vt 0.721203 0.402467
vt 0.000125 0.242784
vt 0.122972 0.079570
vt 0.245655 0.038289
vt 0.938030 0.133427
vt 0.611917 0.001649
vt 0.489902 0.006032
vt 0.611917 0.408964
vt 0.489902 0.404581
vt 0.367890 0.394602
vt 0.367890 0.016011
f 1/1/1 2/2/2 3/3/3
f 1/1/1 3/3/3 4/4/4
f 1/1/1 4/4/4 5/5/5
f 1/1/1 5/5/5 6/6/6
f 1/1/1 6/6/6 7/7/7
f 1/1/1 7/7/7 8/8/8
f 1/1/1 8/8/8 9/9/9
f 1/1/1 9/9/9 2/2/2
f 10/10/10 11/11/11 12/12/12
f 10/10/10 12/12/12 13/13/13
f 10/10/10 13/13/13 3/3/3
f 10/10/10 3/3/3 2/2/2
f 10/10/10 2/2/2 9/9/9
f 10/10/10 9/9/9 14/14/14
f 10/10/10 14/14/14 15/15/15
f 10/10/10 15/15/15 11/11/11
f 16/16/16 17/17/17 18/18/18
f 16/16/16 18/18/18 19/19/19
f 16/16/16 19/19/19 20/20/20
f 16/16/16 20/20/20 21/21/21
f 16/16/16 21/21/21 22/22/22
f 16/16/16 22/22/22 23/23/23
f 16/16/16 23/23/23 24/24/24
f 16/16/16 24/24/24 17/17/17
f 25/25/25 21/21/21 20/20/20
f 25/25/25 20/20/20 26/26/26
f 25/25/25 26/26/26 27/27/27
f 25/25/25 27/27/27 28/28/28
f 25/25/25 28/28/28 29/29/29
f 25/25/25 29/29/29 30/30/30
f 25/25/25 30/30/30 22/22/22
f 25/25/25 22/22/22 21/21/21
f 31/31/31 32/32/32 22/22/22
f 31/31/31 22/22/22 30/30/30
f 31/31/31 30/30/30 29/29/29
f 31/31/31 29/29/29 33/33/33
f 31/31/31 33/33/33 5/5/5
f 31/31/31 5/5/5 4/4/4
f 31/31/31 4/4/4 3/3/3
f 31/31/31 3/3/3 32/32/32
f 34/34/34 35/35/35 24/24/24
f 34/34/34 24/24/24 23/23/23
f 34/34/34 23/23/23 22/22/22
f 34/34/34 22/22/22 32/32/32
f 34/34/34 32/32/32 3/3/3
f 34/34/34 3/3/3 13/13/13
f 34/34/34 13/13/13 12/12/12
f 34/34/34 12/12/12 35/35/35
f 36/36/36 37/37/37 38/38/38
f 36/36/36 38/38/38 39/39/39
f 36/36/36 39/39/39 40/40/40
f 36/36/36 40/40/40 41/41/41
f 36/36/36 41/41/41 20/20/20
f 36/36/36 20/20/20 19/19/19
f 36/36/36 19/19/19 18/18/18
f 36/36/36 18/18/18 37/37/37
f 42/42/42 41/41/41 40/40/40
f 42/42/42 40/40/40 43/43/43
f 42/42/42 43/43/43 44/44/44
f 42/42/42 44/44/44 45/45/45
f 42/42/42 45/45/45 27/27/27
f 42/42/42 27/27/27 26/26/26
f 42/42/42 26/26/26 20/20/20
f 42/42/42 20/20/20 41/41/41
f 46/46/46 47/47/47 48/48/48
f 46/46/46 48/48/48 49/49/49
f 46/46/46 49/49/49 50/50/50
f 46/46/46 50/50/50 51/51/51
f 46/46/46 51/51/51 52/52/52
f 46/46/46 52/52/52 53/53/53
f 46/46/46 53/53/53 54/54/54
f 46/46/46 54/54/54 47/47/47
f 55/55/55 56/56/56 57/57/57
f 55/55/55 57/57/57 58/58/58
f 55/55/55 58/58/58 48/48/48
f 55/55/55 48/48/48 47/47/47
f 55/55/55 47/47/47 54/54/54
f 55/55/55 54/54/54 59/59/59
f 55/55/55 59/59/59 60/60/60
f 55/55/55 60/60/60 56/56/56
f 61/61/61 62/62/62 63/63/63
f 61/61/61 63/63/63 64/64/64
f 61/61/61 64/64/64 65/65/65
f 61/61/61 65/65/65 66/66/66
f 61/61/61 66/66/66 67/67/67
f 61/61/61 67/67/67 68/68/68
f 61/61/61 68/68/68 69/69/69
f 61/61/61 69/69/69 62/62/62
f 70/70/70 66/66/66 65/65/65
f 70/70/70 65/65/65 71/71/71
f 70/70/70 71/71/71 72/72/72
f 70/70/70 72/72/72 73/73/73
f 70/70/70 73/73/73 74/74/74
f 70/70/70 74/74/74 75/75/75
f 70/70/70 75/75/75 67/67/67
f 70/70/70 67/67/67 66/66/66
f 76/76/76 77/77/77 54/54/54
f 76/76/76 54/54/54 53/53/53
f 76/76/76 53/53/53 52/52/52
f 76/76/76 52/52/52 78/78/78
f 76/76/76 78/78/78 72/72/72
f 76/76/76 72/72/72 71/71/71
f 76/76/76 71/71/71 65/65/65
f 76/76/76 65/65/65 77/77/77
f 79/79/79 80/80/80 60/60/60
f 79/79/79 60/60/60 59/59/59
f 79/79/79 59/59/59 54/54/54
f 79/79/79 54/54/54 77/77/77
f 79/79/79 77/77/77 65/65/65
f 79/79/79 65/65/65 64/64/64
f 79/79/79 64/64/64 63/63/63
f 79/79/79 63/63/63 80/80/80
f 81/81/81 82/82/82 69/69/69
f 81/81/81 69/69/69 68/68/68
f 81/81/81 68/68/68 67/67/67
f 81/81/81 67/67/67 83/83/83
f 81/81/81 83/83/83 84/84/84
f 81/81/81 84/84/84 85/85/85
f 81/81/81 85/85/85 86/86/86
f 81/81/81 86/86/86 82/82/82
f 87/87/87 83/83/83 67/67/67
f 87/87/87 67/67/67 75/75/75
f 87/87/87 75/75/75 74/74/74
f 87/87/87 74/74/74 88/88/88
f 87/87/87 88/88/88 89/89/89
f 87/87/87 89/89/89 90/90/90
f 87/87/87 90/90/90 84/84/84
f 87/87/87 84/84/84 83/83/83
f 91/91/91 92/92/92 38/38/38
f 91/91/91 38/38/38 37/37/37
f 91/91/91 37/37/37 18/18/18
f 91/91/91 18/18/18 93/93/93
f 91/91/91 93/93/93 69/69/69
f 91/91/91 69/69/69 82/82/82
f 91/91/91 82/82/82 94/94/94
f 91/91/91 94/94/94 92/92/92
f 95/95/95 96/96/96 44/44/44
f 95/95/95 44/44/44 43/43/43
f 95/95/95 43/43/43 40/40/40
f 95/95/95 40/40/40 97/97/97
f 95/95/95 97/97/97 84/84/84
f 95/95/95 84/84/84 90/90/90
f 95/95/95 90/90/90 98/98/98
f 95/95/95 98/98/98 96/96/96
f 99/99/99 100/100/100 7/7/7
f 99/99/99 7/7/7 6/6/6
f 99/99/99 6/6/6 5/5/5
f 99/99/99 5/5/5 101/101/101
f 99/99/99 101/101/101 52/52/52
f 99/99/99 52/52/52 51/51/51
f 99/99/99 51/51/51 102/102/102
f 99/99/99 102/102/102 100/100/100
f 103/103/103 104/104/104 15/15/15
f 103/103/103 15/15/15 14/14/14
f 103/103/103 14/14/14 9/9/9
f 103/103/103 9/9/9 105/105/105
f 103/103/103 105/105/105 48/48/48
f 103/103/103 48/48/48 58/58/58
f 103/103/103 58/58/58 106/106/106
f 103/103/103 106/106/106 104/104/104
f 107/107/107 108/108/108 12/12/12
f 107/107/107 12/12/12 11/11/11
f 107/107/107 11/11/11 15/15/15
f 107/107/107 15/15/15 104/104/104
f 107/107/107 104/104/104 106/106/106
f 107/107/107 106/106/106 56/56/56
f 107/107/107 56/56/56 60/60/60
f 107/107/107 60/60/60 108/108/108
f 109/109/109 97/97/97 40/40/40
f 109/109/109 40/40/40 39/39/39
f 109/109/109 39/39/39 38/38/38
f 109/109/109 38/38/38 92/92/92
f 109/109/109 92/92/92 94/94/94
f 109/109/109 94/94/94 85/85/85
f 109/109/109 85/85/85 84/84/84
f 109/109/109 84/84/84 97/97/97
f 110/110/110 111/111/111 27/27/27
f 110/110/110 27/27/27 45/45/45
f 110/110/110 45/45/45 44/44/44
f 110/110/110 44/44/44 96/96/96
f 110/110/110 96/96/96 98/98/98
f 110/110/110 98/98/98 88/88/88
f 110/110/110 88/88/88 74/74/74
f 110/110/110 74/74/74 111/111/111
f 112/112/112 105/105/105 9/9/9
f 112/112/112 9/9/9 8/8/8
f 112/112/112 8/8/8 7/7/7
f 112/112/112 7/7/7 100/100/100
f 112/112/112 100/100/100 102/102/102
f 112/112/112 102/102/102 49/49/49
f 112/112/112 49/49/49 48/48/48
f 112/112/112 48/48/48 105/105/105
f 113/113/113 101/101/101 5/5/5
f 113/113/113 5/5/5 33/33/33
f 113/113/113 33/33/33 29/29/29
f 113/113/113 29/29/29 114/114/114
f 113/113/113 114/114/114 72/72/72
f 113/113/113 72/72/72 78/78/78
f 113/113/113 78/78/78 52/52/52
f 113/113/113 52/52/52 101/101/101
f 115/115/115 116/116/116 24/24/24
f 115/115/115 24/24/24 35/35/35
f 115/115/115 35/35/35 12/12/12
f 115/115/115 12/12/12 108/108/108
f 115/115/115 108/108/108 60/60/60
f 115/115/115 60/60/60 80/80/80
f 115/115/115 80/80/80 63/63/63
f 115/115/115 63/63/63 116/116/116
f 117/117/117 93/93/93 18/18/18
f 117/117/117 18/18/18 17/17/17
f 117/117/117 17/17/17 24/24/24
f 117/117/117 24/24/24 116/116/116
f 117/117/117 116/116/116 63/63/63
f 117/117/117 63/63/63 62/62/62
f 117/117/117 62/62/62 69/69/69
f 117/117/117 69/69/69 93/93/93
f 118/118/118 114/114/114 29/29/29
f 118/118/118 29/29/29 28/28/28
f 118/118/118 28/28/28 27/27/27
f 118/118/118 27/27/27 111/111/111
f 118/118/118 111/111/111 74/74/74
f 118/118/118 74/74/74 73/73/73
f 118/118/118 73/73/73 72/72/72
f 118/118/118 72/72/72 114/114/114
