v -2.331787 0.766029 -1.228045
v -2.330869 0.766911 -1.226203
v -2.328879 0.764815 -1.226929
v -2.330167 0.764005 -1.228899
v -2.330958 0.763430 -1.230561
v -2.332161 0.765265 -1.229668
v -2.332760 0.766407 -1.228670
v -2.332930 0.767419 -1.227302
v -2.332368 0.768384 -1.225602
v -2.329070 0.767570 -1.225046
v -2.327397 0.767967 -1.224409
v -2.325545 0.766499 -1.224586
v -2.327079 0.765756 -1.225490
v -2.330579 0.768753 -1.224706
v -2.328901 0.768595 -1.224411
v -2.321632 0.758269 -1.226650
v -2.320347 0.758993 -1.225568
v -2.319074 0.756063 -1.225921
v -2.320221 0.755420 -1.226868
v -2.321664 0.754606 -1.228221
v -2.323255 0.757351 -1.228190
v -2.324966 0.760000 -1.228001
v -2.323257 0.760971 -1.226406
v -2.321894 0.761743 -1.225299
v -2.324658 0.756554 -1.229990
v -2.322897 0.753903 -1.229822
v -2.323763 0.753405 -1.231097
v -2.325648 0.755987 -1.231421
v -2.327439 0.758599 -1.231421
v -2.326422 0.759176 -1.229900
v -2.328319 0.761691 -1.229527
v -2.326876 0.762499 -1.227554
v -2.329297 0.761144 -1.231140
v -2.325107 0.763512 -1.225982
v -2.323669 0.764335 -1.224927
v -2.319014 0.752438 -1.227211
v -2.318124 0.752935 -1.226541
v -2.317848 0.751050 -1.227019
v -2.318199 0.750143 -1.227493
v -2.318986 0.749701 -1.228127
v -2.320115 0.751819 -1.228193
v -2.321010 0.751306 -1.229416
v -2.319568 0.749367 -1.229003
v -2.320311 0.749654 -1.229736
v -2.321625 0.750950 -1.230407
v -2.331906 0.765882 -1.227908
v -2.330968 0.766773 -1.226042
v -2.332440 0.768278 -1.225482
v -2.333018 0.767306 -1.227202
v -2.332830 0.766321 -1.228601
v -2.332260 0.765150 -1.229579
v -2.331059 0.763321 -1.230466
v -2.330290 0.763865 -1.228757
v -2.328985 0.764683 -1.226766
v -2.329148 0.767445 -1.224864
v -2.327445 0.767881 -1.224263
v -2.328938 0.768528 -1.224306
v -2.330634 0.768658 -1.224570
v -2.327166 0.765637 -1.225309
v -2.325601 0.766416 -1.224441
v -2.321751 0.758181 -1.226467
v -2.320429 0.758931 -1.225425
v -2.321969 0.761674 -1.225155
v -2.323368 0.760873 -1.226223
v -2.325090 0.759893 -1.227833
v -2.323387 0.757256 -1.228021
v -2.321801 0.754518 -1.228052
v -2.320345 0.755340 -1.226684
v -2.319160 0.756007 -1.225777
v -2.324803 0.756451 -1.229836
v -2.326560 0.759062 -1.229748
v -2.327549 0.758510 -1.231315
v -2.325763 0.755906 -1.231313
v -2.323882 0.753330 -1.230989
v -2.323047 0.753808 -1.229667
v -2.328449 0.761563 -1.229379
v -2.326991 0.762380 -1.227389
v -2.329402 0.761044 -1.231039
v -2.325206 0.763402 -1.225799
v -2.323734 0.764258 -1.224783
v -2.319138 0.752362 -1.227027
v -2.318209 0.752882 -1.226396
v -2.320254 0.751734 -1.228023
v -2.319091 0.749638 -1.228000
v -2.318292 0.750086 -1.227354
v -2.317914 0.751010 -1.226913
v -2.321163 0.751214 -1.229262
v -2.321746 0.750877 -1.230300
v -2.320399 0.749602 -1.229655
v -2.319683 0.749298 -1.228889
v -2.317863 0.753078 -1.226252
v -2.317548 0.750503 -1.227005
v -2.318728 0.756254 -1.225540
v -2.317914 0.751010 -1.226913
v -2.319138 0.748690 -1.228815
v -2.320014 0.749104 -1.229728
v -2.318657 0.748968 -1.228049
v -2.320399 0.749602 -1.229655
v -2.332333 0.764958 -1.230173
v -2.332985 0.766436 -1.228845
v -2.331269 0.763189 -1.231076
v -2.332830 0.766321 -1.228601
v -2.331105 0.769104 -1.224533
v -2.328811 0.768803 -1.224236
v -2.332899 0.768827 -1.225348
v -2.328938 0.768528 -1.224306
v -2.326858 0.768062 -1.224129
v -2.325057 0.766711 -1.224219
v -2.317969 0.749353 -1.227525
v -2.321885 0.750797 -1.230691
v -2.324106 0.753205 -1.231476
v -2.333350 0.767831 -1.227011
v -2.329671 0.760916 -1.231635
v -2.327829 0.758366 -1.231883
v -2.323217 0.764576 -1.224510
v -2.321471 0.761971 -1.224864
v -2.319953 0.759207 -1.225142
v -2.326030 0.755761 -1.231851
vn 0.529000 0.675500 -0.513600
vn 0.388400 0.627900 -0.674400
vn 0.428100 0.585300 -0.688500
vn 0.555900 0.626700 -0.546000
vn 0.566700 0.605700 -0.558500
vn 0.525000 0.673400 -0.520400
vn 0.492500 0.718100 -0.491600
vn 0.443800 0.728900 -0.521200
vn 0.323700 0.689700 -0.647600
vn 0.257300 0.521400 -0.813600
vn 0.263200 0.525000 -0.809400
vn 0.335500 0.474600 -0.813700
vn 0.312900 0.489100 -0.814100
vn 0.221900 0.603100 -0.766100
vn 0.211300 0.558600 -0.802000
vn 0.506200 0.342500 -0.791400
vn 0.535700 0.349800 -0.768500
vn 0.554100 0.323100 -0.767200
vn 0.517700 0.310900 -0.797000
vn 0.600000 0.346000 -0.721300
vn 0.578300 0.382700 -0.720500
vn 0.531500 0.454300 -0.714900
vn 0.455500 0.401000 -0.794700
vn 0.483900 0.397700 -0.779500
vn 0.642600 0.419900 -0.640900
vn 0.664100 0.393800 -0.635500
vn 0.640400 0.372000 -0.671900
vn 0.625800 0.400800 -0.669100
vn 0.602900 0.465100 -0.648200
vn 0.608500 0.487800 -0.625800
vn 0.576000 0.565400 -0.590300
vn 0.475500 0.529300 -0.702600
vn 0.582700 0.540000 -0.607300
vn 0.383100 0.456000 -0.803200
vn 0.410700 0.442400 -0.797200
vn 0.506900 0.288200 -0.812400
vn 0.548400 0.297600 -0.781400
vn 0.534600 0.270300 -0.800700
vn 0.518300 0.229500 -0.823800
vn 0.636200 0.278500 -0.719400
vn 0.609800 0.328600 -0.721200
vn 0.685200 0.389400 -0.615500
vn 0.723700 0.346000 -0.597000
vn 0.688900 0.357800 -0.630400
vn 0.662900 0.362500 -0.655100
vn -0.559100 -0.664400 0.495900
vn -0.399500 -0.616400 0.678500
vn -0.441300 -0.570300 0.692800
vn -0.643000 -0.628600 0.437400
vn -0.709600 -0.619400 0.335600
vn -0.694000 -0.625400 0.356500
vn -0.665100 -0.616900 0.420700
vn -0.564900 -0.629100 0.533900
vn -0.428000 -0.585400 0.688500
vn -0.253300 -0.491000 0.833500
vn -0.178400 -0.332900 0.925900
vn -0.166200 -0.311200 0.935700
vn -0.236200 -0.397900 0.886400
vn -0.303300 -0.480700 0.822700
vn -0.231700 -0.371100 0.899200
vn -0.494300 -0.337200 0.801200
vn -0.407900 -0.298300 0.862900
vn -0.370400 -0.337700 0.865300
vn -0.444900 -0.395200 0.803600
vn -0.531600 -0.454100 0.714900
vn -0.578400 -0.382600 0.720500
vn -0.600100 -0.345900 0.721300
vn -0.502900 -0.306300 0.808300
vn -0.390300 -0.285400 0.875300
vn -0.650900 -0.426000 0.628300
vn -0.616700 -0.492600 0.614000
vn -0.680100 -0.513300 0.523400
vn -0.703600 -0.466000 0.536500
vn -0.716300 -0.470300 0.515400
vn -0.672700 -0.402600 0.620800
vn -0.584100 -0.569200 0.578700
vn -0.475500 -0.529300 0.702600
vn -0.662200 -0.574500 0.481100
vn -0.373000 -0.449600 0.811600
vn -0.302500 -0.370600 0.878100
vn -0.478600 -0.295100 0.827000
vn -0.329600 -0.290500 0.898300
vn -0.603900 -0.339200 0.721300
vn -0.576700 -0.385300 0.720400
vn -0.387400 -0.324900 0.862700
vn -0.289500 -0.298000 0.909600
vn -0.688700 -0.414300 0.594900
vn -0.721200 -0.512600 0.466000
vn -0.719000 -0.541700 0.435300
vn -0.687100 -0.494900 0.531900
vn 0.874400 0.071900 0.479800
vn 0.907800 -0.296900 0.296200
vn 0.814300 0.201000 0.544500
vn -0.289500 -0.298000 0.909600
vn 0.353900 -0.915500 -0.191500
vn 0.067800 -0.772700 -0.631100
vn 0.417800 -0.904400 0.086400
vn -0.719000 -0.541700 0.435300
vn -0.631600 0.106300 -0.767900
vn -0.740400 0.343500 -0.577800
vn -0.554200 -0.080100 -0.828500
vn -0.709600 -0.619400 0.335600
vn -0.242300 0.829000 0.504000
vn 0.190700 0.872000 0.450700
vn -0.699900 0.647300 0.301900
vn -0.166200 -0.311200 0.935700
vn 0.485300 0.740200 0.465400
vn 0.638200 0.595700 0.487600
vn 0.650800 -0.746900 0.136200
vn -0.263200 -0.573300 -0.775900
vn -0.389600 -0.482200 -0.784700
vn -0.859800 0.478800 -0.177400
vn -0.506000 -0.219900 -0.834000
vn -0.485100 -0.303200 -0.820200
vn 0.715500 0.472500 0.514500
vn 0.745200 0.394100 0.537900
vn 0.768800 0.313500 0.557300
vn -0.461100 -0.383500 -0.800200
vt 0.839504 0.118056
vt 0.856743 0.205307
vt 0.741230 0.205307
vt 0.734555 0.106726
vt 0.724541 0.032791
vt 0.813647 0.052618
vt 0.868992 0.081539
vt 0.913398 0.129584
vt 0.940923 0.205307
vt 0.839504 0.292557
vt 0.813647 0.357995
vt 0.724541 0.377822
vt 0.734555 0.303887
vt 0.913398 0.281029
vt 0.868992 0.329074
vt 0.369475 0.299954
vt 0.368286 0.370940
vt 0.245840 0.351447
vt 0.246397 0.288815
vt 0.246768 0.205307
vt 0.370268 0.205307
vt 0.494283 0.205307
vt 0.492822 0.304944
vt 0.490632 0.379672
vt 0.369475 0.110659
vt 0.246397 0.121798
vt 0.245841 0.059166
vt 0.368286 0.039673
vt 0.490632 0.030941
vt 0.492822 0.105669
vt 0.616755 0.103478
vt 0.619174 0.205307
vt 0.613127 0.027106
vt 0.616755 0.307135
vt 0.613126 0.383507
vt 0.123273 0.268175
vt 0.123047 0.315326
vt 0.054743 0.283353
vt 0.030912 0.249131
vt 0.030973 0.205306
vt 0.123423 0.205306
vt 0.123273 0.142438
vt 0.030912 0.161481
vt 0.054744 0.127260
vt 0.123047 0.095287
vt 0.839504 0.118056
vt 0.856743 0.205307
vt 0.968983 0.205307
vt 0.938030 0.133427
vt 0.876123 0.061548
vt 0.805028 0.030806
vt 0.721203 0.008146
vt 0.734555 0.106726
vt 0.741230 0.205307
vt 0.839504 0.292557
vt 0.805028 0.379807
vt 0.876123 0.349065
vt 0.938030 0.277186
vt 0.734555 0.303887
vt 0.721203 0.402467
vt 0.369475 0.299954
vt 0.367890 0.394602
vt 0.489902 0.404581
vt 0.492822 0.304944
vt 0.494283 0.205307
vt 0.370268 0.205307
vt 0.246768 0.205307
vt 0.246397 0.288815
vt 0.245655 0.372324
vt 0.369475 0.110659
vt 0.492822 0.105669
vt 0.489902 0.006032
vt 0.367890 0.016011
vt 0.245655 0.038289
vt 0.246397 0.121798
vt 0.616755 0.103478
vt 0.619174 0.205307
vt 0.611917 0.001649
vt 0.616755 0.307135
vt 0.611917 0.408964
vt 0.123273 0.268175
vt 0.122972 0.331043
vt 0.123423 0.205306
vt 0.000156 0.205306
vt 0.000125 0.242784
vt 0.000064 0.280261
vt 0.123273 0.142438
vt 0.122972 0.079570
vt 0.000064 0.130352
vt 0.000125 0.167829
vt 0.122972 0.331043
vt 0.030806 0.283587
vt 0.245655 0.372324
vt 0.030806 0.283587
vt 0.000125 0.167829
vt 0.030806 0.127026
vt 0.000156 0.205306
vt 0.030806 0.127026
vt 0.805028 0.030806
vt 0.873826 0.071832
vt 0.721203 0.008146
vt 0.873826 0.071832
vt 0.938030 0.277186
vt 0.873826 0.338781
vt 0.968983 0.205307
vt 0.873826 0.338781
vt 0.805028 0.379807
vt 0.721203 0.402467
vt 0.000125 0.242784
vt 0.122972 0.079570
vt 0.245655 0.038289
vt 0.938030 0.133427
vt 0.611917 0.001649
vt 0.489902 0.006032
vt 0.611917 0.408964
vt 0.489902 0.404581
vt 0.367890 0.394602
vt 0.367890 0.016011
f 1/1/1 2/2/2 3/3/3
f 1/1/1 3/3/3 4/4/4
f 1/1/1 4/4/4 5/5/5
f 1/1/1 5/5/5 6/6/6
f 1/1/1 6/6/6 7/7/7
f 1/1/1 7/7/7 8/8/8
f 1/1/1 8/8/8 9/9/9
f 1/1/1 9/9/9 2/2/2
f 10/10/10 11/11/11 12/12/12
f 10/10/10 12/12/12 13/13/13
f 10/10/10 13/13/13 3/3/3
f 10/10/10 3/3/3 2/2/2
f 10/10/10 2/2/2 9/9/9
f 10/10/10 9/9/9 14/14/14
f 10/10/10 14/14/14 15/15/15
f 10/10/10 15/15/15 11/11/11
f 16/16/16 17/17/17 18/18/18
f 16/16/16 18/18/18 19/19/19
f 16/16/16 19/19/19 20/20/20
f 16/16/16 20/20/20 21/21/21
f 16/16/16 21/21/21 22/22/22
f 16/16/16 22/22/22 23/23/23
f 16/16/16 23/23/23 24/24/24
f 16/16/16 24/24/24 17/17/17
f 25/25/25 21/21/21 20/20/20
f 25/25/25 20/20/20 26/26/26
f 25/25/25 26/26/26 27/27/27
f 25/25/25 27/27/27 28/28/28
f 25/25/25 28/28/28 29/29/29
f 25/25/25 29/29/29 30/30/30
f 25/25/25 30/30/30 22/22/22
f 25/25/25 22/22/22 21/21/21
f 31/31/31 32/32/32 22/22/22
f 31/31/31 22/22/22 30/30/30
f 31/31/31 30/30/30 29/29/29
f 31/31/31 29/29/29 33/33/33
f 31/31/31 33/33/33 5/5/5
f 31/31/31 5/5/5 4/4/4
f 31/31/31 4/4/4 3/3/3
f 31/31/31 3/3/3 32/32/32
f 34/34/34 35/35/35 24/24/24
f 34/34/34 24/24/24 23/23/23
f 34/34/34 23/23/23 22/22/22
f 34/34/34 22/22/22 32/32/32
f 34/34/34 32/32/32 3/3/3
f 34/34/34 3/3/3 13/13/13
f 34/34/34 13/13/13 12/12/12
f 34/34/34 12/12/12 35/35/35
f 36/36/36 37/37/37 38/38/38
f 36/36/36 38/38/38 39/39/39
f 36/36/36 39/39/39 40/40/40
f 36/36/36 40/40/40 41/41/41
f 36/36/36 41/41/41 20/20/20
f 36/36/36 20/20/20 19/19/19
f 36/36/36 19/19/19 18/18/18
f 36/36/36 18/18/18 37/37/37
f 42/42/42 41/41/41 40/40/40
f 42/42/42 40/40/40 43/43/43
f 42/42/42 43/43/43 44/44/44
f 42/42/42 44/44/44 45/45/45
f 42/42/42 45/45/45 27/27/27
f 42/42/42 27/27/27 26/26/26
f 42/42/42 26/26/26 20/20/20
f 42/42/42 20/20/20 41/41/41
f 46/46/46 47/47/47 48/48/48
f 46/46/46 48/48/48 49/49/49
f 46/46/46 49/49/49 50/50/50
f 46/46/46 50/50/50 51/51/51
f 46/46/46 51/51/51 52/52/52
f 46/46/46 52/52/52 53/53/53
f 46/46/46 53/53/53 54/54/54
f 46/46/46 54/54/54 47/47/47
f 55/55/55 56/56/56 57/57/57
f 55/55/55 57/57/57 58/58/58
f 55/55/55 58/58/58 48/48/48
f 55/55/55 48/48/48 47/47/47
f 55/55/55 47/47/47 54/54/54
f 55/55/55 54/54/54 59/59/59
f 55/55/55 59/59/59 60/60/60
f 55/55/55 60/60/60 56/56/56
f 61/61/61 62/62/62 63/63/63
f 61/61/61 63/63/63 64/64/64
f 61/61/61 64/64/64 65/65/65
f 61/61/61 65/65/65 66/66/66
f 61/61/61 66/66/66 67/67/67
f 61/61/61 67/67/67 68/68/68
f 61/61/61 68/68/68 69/69/69
f 61/61/61 69/69/69 62/62/62
f 70/70/70 66/66/66 65/65/65
f 70/70/70 65/65/65 71/71/71
f 70/70/70 71/71/71 72/72/72
f 70/70/70 72/72/72 73/73/73
f 70/70/70 73/73/73 74/74/74
f 70/70/70 74/74/74 75/75/75
f 70/70/70 75/75/75 67/67/67
f 70/70/70 67/67/67 66/66/66
f 76/76/76 77/77/77 54/54/54
f 76/76/76 54/54/54 53/53/53
f 76/76/76 53/53/53 52/52/52
f 76/76/76 52/52/52 78/78/78
f 76/76/76 78/78/78 72/72/72
f 76/76/76 72/72/72 71/71/71
f 76/76/76 71/71/71 65/65/65
f 76/76/76 65/65/65 77/77/77
f 79/79/79 80/80/80 60/60/60
f 79/79/79 60/60/60 59/59/59
f 79/79/79 59/59/59 54/54/54
f 79/79/79 54/54/54 77/77/77
f 79/79/79 77/77/77 65/65/65
f 79/79/79 65/65/65 64/64/64
f 79/79/79 64/64/64 63/63/63
f 79/79/79 63/63/63 80/80/80
f 81/81/81 82/82/82 69/69/69
f 81/81/81 69/69/69 68/68/68
f 81/81/81 68/68/68 67/67/67
f 81/81/81 67/67/67 83/83/83
f 81/81/81 83/83/83 84/84/84
f 81/81/81 84/84/84 85/85/85
f 81/81/81 85/85/85 86/86/86
f 81/81/81 86/86/86 82/82/82
f 87/87/87 83/83/83 67/67/67
f 87/87/87 67/67/67 75/75/75
f 87/87/87 75/75/75 74/74/74
f 87/87/87 74/74/74 88/88/88
f 87/87/87 88/88/88 89/89/89
f 87/87/87 89/89/89 90/90/90
f 87/87/87 90/90/90 84/84/84
f 87/87/87 84/84/84 83/83/83
f 91/91/91 92/92/92 38/38/38
f 91/91/91 38/38/38 37/37/37
f 91/91/91 37/37/37 18/18/18
f 91/91/91 18/18/18 93/93/93
f 91/91/91 93/93/93 69/69/69
f 91/91/91 69/69/69 82/82/82
f 91/91/91 82/82/82 94/94/94
f 91/91/91 94/94/94 92/92/92
f 95/95/95 96/96/96 44/44/44
f 95/95/95 44/44/44 43/43/43
f 95/95/95 43/43/43 40/40/40
f 95/95/95 40/40/40 97/97/97
f 95/95/95 97/97/97 84/84/84
f 95/95/95 84/84/84 90/90/90
f 95/95/95 90/90/90 98/98/98
f 95/95/95 98/98/98 96/96/96
f 99/99/99 100/100/100 7/7/7
f 99/99/99 7/7/7 6/6/6
f 99/99/99 6/6/6 5/5/5
f 99/99/99 5/5/5 101/101/101
f 99/99/99 101/101/101 52/52/52
f 99/99/99 52/52/52 51/51/51
f 99/99/99 51/51/51 102/102/102
f 99/99/99 102/102/102 100/100/100
f 103/103/103 104/104/104 15/15/15
f 103/103/103 15/15/15 14/14/14
f 103/103/103 14/14/14 9/9/9
f 103/103/103 9/9/9 105/105/105
f 103/103/103 105/105/105 48/48/48
f 103/103/103 48/48/48 58/58/58
f 103/103/103 58/58/58 106/106/106
f 103/103/103 106/106/106 104/104/104
f 107/107/107 108/108/108 12/12/12
f 107/107/107 12/12/12 11/11/11
f 107/107/107 11/11/11 15/15/15
f 107/107/107 15/15/15 104/104/104
f 107/107/107 104/104/104 106/106/106
f 107/107/107 106/106/106 56/56/56
f 107/107/107 56/56/56 60/60/60
f 107/107/107 60/60/60 108/108/108
f 109/109/109 97/97/97 40/40/40
f 109/109/109 40/40/40 39/39/39
f 109/109/109 39/39/39 38/38/38
f 109/109/109 38/38/38 92/92/92
f 109/109/109 92/92/92 94/94/94
f 109/109/109 94/94/94 85/85/85
f 109/109/109 85/85/85 84/84/84
f 109/109/109 84/84/84 97/97/97
f 110/110/110 111/111/111 27/27/27
f 110/110/110 27/27/27 45/45/45
f 110/110/110 45/45/45 44/44/44
f 110/110/110 44/44/44 96/96/96
f 110/110/110 96/96/96 98/98/98
f 110/110/110 98/98/98 88/88/88
f 110/110/110 88/88/88 74/74/74
f 110/110/110 74/74/74 111/111/111
f 112/112/112 105/105/105 9/9/9
f 112/112/112 9/9/9 8/8/8
f 112/112/112 8/8/8 7/7/7
f 112/112/112 7/7/7 100/100/100
f 112/112/112 100/100/100 102/102/102
f 112/112/112 102/102/102 49/49/49
f 112/112/112 49/49/49 48/48/48
f 112/112/112 48/48/48 105/105/105
f 113/113/113 101/101/101 5/5/5
f 113/113/113 5/5/5 33/33/33
f 113/113/113 33/33/33 29/29/29
f 113/113/113 29/29/29 114/114/114
f 113/113/113 114/114/114 72/72/72
f 113/113/113 72/72/72 78/78/78
f 113/113/113 78/78/78 52/52/52
f 113/113/113 52/52/52 101/101/101
f 115/115/115 116/116/116 24/24/24
f 115/115/115 24/24/24 35/35/35
f 115/115/115 35/35/35 12/12/12
f 115/115/115 12/12/12 108/108/108
f 115/115/115 108/108/108 60/60/60
f 115/115/115 60/60/60 80/80/80
f 115/115/115 80/80/80 63/63/63
f 115/115/115 63/63/63 116/116/116
f 117/117/117 93/93/93 18/18/18
f 117/117/117 18/18/18 17/17/17
f 117/117/117 17/17/17 24/24/24
f 117/117/117 24/24/24 116/116/116
f 117/117/117 116/116/116 63/63/63
f 117/117/117 63/63/63 62/62/62
f 117/117/117 62/62/62 69/69/69
f 117/117/117 69/69/69 93/93/93
f 118/118/118 114/114/114 29/29/29
f 118/118/118 29/29/29 28/28/28
f 118/118/118 28/28/28 27/27/27
f 118/118/118 27/27/27 111/111/111
f 118/118/118 111/111/111 74/74/74
f 118/118/118 74/74/74 73/73/73
f 118/118/118 73/73/73 72/72/72
f 118/118/118 72/72/72 114/114/114
