v -2.340069 0.687594 -1.154706
v -2.340853 0.688459 -1.157145
v -2.344009 0.688034 -1.155467
v -2.342778 0.687031 -1.152915
v -2.341968 0.686485 -1.150800
v -2.339805 0.687136 -1.152556
v -2.338711 0.687500 -1.154152
v -2.338212 0.687910 -1.156115
v -2.338556 0.688659 -1.158430
v -2.342507 0.689923 -1.158704
v -2.344081 0.691220 -1.159567
v -2.346826 0.691125 -1.158764
v -2.345549 0.689678 -1.157458
v -2.340323 0.689925 -1.159575
v -2.342174 0.690807 -1.159830
v -2.355482 0.686589 -1.153121
v -2.356562 0.687795 -1.154625
v -2.359610 0.685977 -1.153054
v -2.358648 0.684898 -1.151734
v -2.357406 0.683588 -1.149886
v -2.354082 0.685120 -1.151021
v -2.350734 0.686429 -1.152301
v -2.352200 0.687989 -1.154483
v -2.353333 0.689284 -1.156034
v -2.352766 0.683996 -1.148669
v -2.356247 0.682604 -1.147798
v -2.355401 0.681957 -1.146156
v -2.351804 0.683250 -1.146825
v -2.348356 0.684530 -1.147875
v -2.349359 0.685275 -1.149827
v -2.345952 0.686273 -1.151265
v -2.347340 0.687379 -1.153818
v -2.344948 0.685613 -1.149220
v -2.348835 0.689026 -1.155990
v -2.349999 0.690437 -1.157500
v -2.361666 0.682984 -1.150154
v -2.362399 0.683839 -1.151104
v -2.363757 0.682385 -1.149814
v -2.363870 0.681438 -1.148919
v -2.363214 0.680692 -1.148031
v -2.360728 0.681969 -1.148803
v -2.359874 0.681272 -1.147216
v -2.362642 0.680265 -1.146906
v -2.361547 0.680274 -1.146191
v -2.359256 0.680837 -1.145952
v -2.340074 0.687330 -1.154806
v -2.340878 0.688209 -1.157276
v -2.338578 0.688472 -1.158526
v -2.338219 0.687710 -1.156186
v -2.338711 0.687349 -1.154199
v -2.339799 0.686931 -1.152615
v -2.341957 0.686283 -1.150867
v -2.342775 0.686770 -1.153023
v -2.344023 0.687787 -1.155603
v -2.342549 0.689694 -1.158863
v -2.344121 0.691060 -1.159700
v -2.342203 0.690685 -1.159924
v -2.340359 0.689754 -1.159694
v -2.345579 0.689448 -1.157620
v -2.346856 0.690963 -1.158898
v -2.355460 0.686367 -1.153297
v -2.356552 0.687634 -1.154766
v -2.353334 0.689122 -1.156172
v -2.352193 0.687762 -1.154654
v -2.350715 0.686190 -1.152452
v -2.354048 0.684886 -1.151178
v -2.357362 0.683358 -1.150047
v -2.358617 0.684680 -1.151914
v -2.359592 0.685820 -1.153198
v -2.352721 0.683751 -1.148806
v -2.349327 0.685025 -1.149957
v -2.348326 0.684338 -1.147962
v -2.351765 0.683062 -1.146918
v -2.355354 0.681772 -1.146251
v -2.356192 0.682363 -1.147938
v -2.345936 0.686017 -1.151384
v -2.347338 0.687135 -1.153961
v -2.344928 0.685415 -1.149297
v -2.348846 0.688797 -1.156156
v -2.350014 0.690274 -1.157635
v -2.361632 0.682768 -1.150336
v -2.362379 0.683684 -1.151250
v -2.360681 0.681740 -1.148965
v -2.363178 0.680521 -1.148152
v -2.363844 0.681277 -1.149057
v -2.363740 0.682268 -1.149920
v -2.359814 0.681032 -1.147357
v -2.359205 0.680652 -1.146046
v -2.361511 0.680139 -1.146264
v -2.362596 0.680085 -1.147011
v -2.362636 0.684057 -1.151487
v -2.364408 0.682062 -1.149610
v -2.359923 0.686268 -1.153560
v -2.363740 0.682268 -1.149920
v -2.363544 0.679849 -1.146849
v -2.362194 0.679947 -1.145981
v -2.364026 0.680191 -1.147827
v -2.361511 0.680139 -1.146264
v -2.339712 0.686891 -1.151862
v -2.338427 0.687431 -1.153968
v -2.341691 0.686212 -1.150121
v -2.338711 0.687349 -1.154199
v -2.339612 0.689850 -1.159918
v -2.342173 0.691010 -1.160110
v -2.337801 0.688643 -1.158900
v -2.342203 0.690685 -1.159924
v -2.344625 0.691584 -1.159917
v -2.347266 0.691537 -1.159261
v -2.364593 0.680851 -1.148569
v -2.359026 0.680609 -1.145570
v -2.355097 0.681658 -1.145648
v -2.337597 0.687926 -1.156615
v -2.344603 0.685304 -1.148569
v -2.348007 0.684195 -1.147261
v -2.350395 0.690837 -1.158066
v -2.353713 0.689646 -1.156615
v -2.356919 0.688127 -1.155191
v -2.351465 0.682917 -1.146249
vn 0.011000 0.962600 0.270900
vn 0.133400 0.889500 0.436900
vn 0.080800 0.881900 0.464500
vn -0.030600 0.947700 0.317600
vn -0.048300 0.940500 0.336400
vn 0.014500 0.960500 0.277800
vn 0.059400 0.970000 0.235700
vn 0.111200 0.959300 0.259700
vn 0.214500 0.895200 0.390700
vn 0.212900 0.769700 0.601900
vn 0.209100 0.774700 0.596800
vn 0.123500 0.776400 0.618000
vn 0.149900 0.775300 0.613500
vn 0.276200 0.801700 0.530000
vn 0.268400 0.770300 0.578400
vn -0.091600 0.761400 0.641700
vn -0.116700 0.777500 0.618000
vn -0.146200 0.766300 0.625600
vn -0.116700 0.744400 0.657500
vn -0.181000 0.797700 0.575200
vn -0.143900 0.814300 0.562200
vn -0.068700 0.843200 0.533200
vn -0.018300 0.780200 0.625300
vn -0.046500 0.789200 0.612300
vn -0.193000 0.858200 0.475600
vn -0.225400 0.848200 0.479200
vn -0.210200 0.827500 0.520500
vn -0.183600 0.841300 0.508300
vn -0.134900 0.873700 0.467400
vn -0.132000 0.888800 0.438800
vn -0.071000 0.922400 0.379700
vn 0.014800 0.867800 0.496600
vn -0.086700 0.910600 0.404100
vn 0.072300 0.785500 0.614700
vn 0.041100 0.788500 0.613700
vn -0.116600 0.724600 0.679200
vn -0.152000 0.746900 0.647300
vn -0.151100 0.722900 0.674200
vn -0.154600 0.687700 0.709300
vn -0.246800 0.764200 0.595800
vn -0.198300 0.789400 0.580900
vn -0.249100 0.851200 0.461900
vn -0.307300 0.833600 0.458900
vn -0.265900 0.832400 0.486300
vn -0.237100 0.828200 0.507900
vn 0.023100 -0.965800 -0.258000
vn -0.119000 -0.887700 -0.444700
vn -0.062800 -0.878500 -0.473500
vn 0.122700 -0.968800 -0.215100
vn 0.202200 -0.971600 -0.122700
vn 0.182000 -0.973200 -0.140400
vn 0.150200 -0.967500 -0.203400
vn 0.039200 -0.951400 -0.305400
vn -0.080900 -0.881900 -0.464500
vn -0.204100 -0.748700 -0.630600
vn -0.201200 -0.607100 -0.768700
vn -0.201800 -0.585800 -0.784900
vn -0.179600 -0.680000 -0.710800
vn -0.155200 -0.765600 -0.624300
vn -0.171800 -0.659800 -0.731500
vn 0.082700 -0.753200 -0.652600
vn 0.019500 -0.690900 -0.722600
vn -0.032600 -0.701600 -0.711800
vn 0.010800 -0.772000 -0.635500
vn 0.068800 -0.843100 -0.533200
vn 0.144100 -0.814300 -0.562300
vn 0.181100 -0.797700 -0.575200
vn 0.104600 -0.735500 -0.669400
vn 0.009300 -0.674200 -0.738500
vn 0.199100 -0.864300 -0.461800
vn 0.138500 -0.893900 -0.426300
vn 0.197500 -0.921400 -0.334500
vn 0.239200 -0.900700 -0.362500
vn 0.251600 -0.905600 -0.341300
vn 0.230800 -0.856000 -0.462500
vn 0.077900 -0.926700 -0.367500
vn -0.014800 -0.867800 -0.496600
vn 0.158500 -0.948500 -0.274400
vn -0.078900 -0.776900 -0.624600
vn -0.108800 -0.693100 -0.712500
vn 0.086700 -0.718200 -0.690500
vn -0.048200 -0.650400 -0.758000
vn 0.187800 -0.794500 -0.577500
vn 0.141300 -0.815400 -0.561300
vn -0.011400 -0.700400 -0.713600
vn -0.087700 -0.637100 -0.765700
vn 0.242900 -0.867300 -0.434400
vn 0.242800 -0.928500 -0.280800
vn 0.231600 -0.942100 -0.242200
vn 0.211300 -0.913100 -0.348500
vn -0.779400 0.416000 -0.468400
vn -0.965600 0.192900 -0.174000
vn -0.674600 0.466700 -0.572000
vn -0.087700 -0.637100 -0.765700
vn -0.736700 -0.473100 0.483100
vn -0.341600 -0.403200 0.848900
vn -0.836500 -0.503000 0.217500
vn 0.231600 -0.942100 -0.242200
vn 0.725900 -0.063800 0.684800
vn 0.904600 0.012200 0.426100
vn 0.575300 -0.151500 0.803800
vn 0.202200 -0.971600 -0.122700
vn 0.539900 0.384000 -0.749000
vn 0.212500 0.673200 -0.708200
vn 0.863100 0.040200 -0.503400
vn -0.201800 -0.585800 -0.784900
vn -0.104100 0.729200 -0.676300
vn -0.310600 0.694700 -0.648700
vn -0.957200 -0.262700 0.121700
vn 0.065600 -0.391900 0.917700
vn 0.220200 -0.388000 0.894900
vn 0.998500 -0.054000 0.002800
vn 0.463400 -0.233300 0.854900
vn 0.399400 -0.291100 0.869300
vn -0.444400 0.633700 -0.633100
vn -0.514600 0.582200 -0.629400
vn -0.580200 0.526600 -0.621300
vn 0.333600 -0.346300 0.876800
vt 0.839504 0.118056
vt 0.856743 0.205307
vt 0.741230 0.205307
vt 0.734555 0.106726
vt 0.724541 0.032791
vt 0.813647 0.052618
vt 0.868992 0.081539
vt 0.913398 0.129584
vt 0.940923 0.205307
vt 0.839504 0.292557
vt 0.813647 0.357995
vt 0.724541 0.377822
vt 0.734555 0.303887
vt 0.913398 0.281029
vt 0.868992 0.329074
vt 0.369475 0.299954
vt 0.368286 0.370940
vt 0.245840 0.351447
vt 0.246397 0.288815
vt 0.246768 0.205307
vt 0.370268 0.205307
vt 0.494283 0.205307
vt 0.492822 0.304944
vt 0.490632 0.379672
vt 0.369475 0.110659
vt 0.246397 0.121798
vt 0.245841 0.059166
vt 0.368286 0.039673
vt 0.490632 0.030941
vt 0.492822 0.105669
vt 0.616755 0.103478
vt 0.619174 0.205307
vt 0.613127 0.027106
vt 0.616755 0.307135
vt 0.613126 0.383507
vt 0.123273 0.268175
vt 0.123047 0.315326
vt 0.054743 0.283353
vt 0.030912 0.249131
vt 0.030973 0.205306
vt 0.123423 0.205306
vt 0.123273 0.142438
vt 0.030912 0.161481
vt 0.054744 0.127260
vt 0.123047 0.095287
vt 0.839504 0.118056
vt 0.856743 0.205307
vt 0.968983 0.205307
vt 0.938030 0.133427
vt 0.876123 0.061548
vt 0.805028 0.030806
vt 0.721203 0.008146
vt 0.734555 0.106726
vt 0.741230 0.205307
vt 0.839504 0.292557
vt 0.805028 0.379807
vt 0.876123 0.349065
vt 0.938030 0.277186
vt 0.734555 0.303887
vt 0.721203 0.402467
vt 0.369475 0.299954
vt 0.367890 0.394602
vt 0.489902 0.404581
vt 0.492822 0.304944
vt 0.494283 0.205307
vt 0.370268 0.205307
vt 0.246768 0.205307
vt 0.246397 0.288815
vt 0.245655 0.372324
vt 0.369475 0.110659
vt 0.492822 0.105669
vt 0.489902 0.006032
vt 0.367890 0.016011
vt 0.245655 0.038289
vt 0.246397 0.121798
vt 0.616755 0.103478
vt 0.619174 0.205307
vt 0.611917 0.001649
vt 0.616755 0.307135
vt 0.611917 0.408964
vt 0.123273 0.268175
vt 0.122972 0.331043
vt 0.123423 0.205306
vt 0.000156 0.205306
vt 0.000125 0.242784
vt 0.000064 0.280261
vt 0.123273 0.142438
vt 0.122972 0.079570
vt 0.000064 0.130352
vt 0.000125 0.167829
vt 0.122972 0.331043
vt 0.030806 0.283587
vt 0.245655 0.372324
vt 0.030806 0.283587
vt 0.000125 0.167829
vt 0.030806 0.127026
vt 0.000156 0.205306
vt 0.030806 0.127026
vt 0.805028 0.030806
vt 0.873826 0.071832
vt 0.721203 0.008146
vt 0.873826 0.071832
vt 0.938030 0.277186
vt 0.873826 0.338781
vt 0.968983 0.205307
vt 0.873826 0.338781
vt 0.805028 0.379807
vt 0.721203 0.402467
vt 0.000125 0.242784
vt 0.122972 0.079570
vt 0.245655 0.038289
vt 0.938030 0.133427
vt 0.611917 0.001649
vt 0.489902 0.006032
vt 0.611917 0.408964
vt 0.489902 0.404581
vt 0.367890 0.394602
vt 0.367890 0.016011
f 1/1/1 2/2/2 3/3/3
f 1/1/1 3/3/3 4/4/4
f 1/1/1 4/4/4 5/5/5
f 1/1/1 5/5/5 6/6/6
f 1/1/1 6/6/6 7/7/7
f 1/1/1 7/7/7 8/8/8
f 1/1/1 8/8/8 9/9/9
f 1/1/1 9/9/9 2/2/2
f 10/10/10 11/11/11 12/12/12
f 10/10/10 12/12/12 13/13/13
f 10/10/10 13/13/13 3/3/3
f 10/10/10 3/3/3 2/2/2
f 10/10/10 2/2/2 9/9/9
f 10/10/10 9/9/9 14/14/14
f 10/10/10 14/14/14 15/15/15
f 10/10/10 15/15/15 11/11/11
f 16/16/16 17/17/17 18/18/18
f 16/16/16 18/18/18 19/19/19
f 16/16/16 19/19/19 20/20/20
f 16/16/16 20/20/20 21/21/21
f 16/16/16 21/21/21 22/22/22
f 16/16/16 22/22/22 23/23/23
f 16/16/16 23/23/23 24/24/24
f 16/16/16 24/24/24 17/17/17
f 25/25/25 21/21/21 20/20/20
f 25/25/25 20/20/20 26/26/26
f 25/25/25 26/26/26 27/27/27
f 25/25/25 27/27/27 28/28/28
f 25/25/25 28/28/28 29/29/29
f 25/25/25 29/29/29 30/30/30
f 25/25/25 30/30/30 22/22/22
f 25/25/25 22/22/22 21/21/21
f 31/31/31 32/32/32 22/22/22
f 31/31/31 22/22/22 30/30/30
f 31/31/31 30/30/30 29/29/29
f 31/31/31 29/29/29 33/33/33
f 31/31/31 33/33/33 5/5/5
f 31/31/31 5/5/5 4/4/4
f 31/31/31 4/4/4 3/3/3
f 31/31/31 3/3/3 32/32/32
f 34/34/34 35/35/35 24/24/24
f 34/34/34 24/24/24 23/23/23
f 34/34/34 23/23/23 22/22/22
f 34/34/34 22/22/22 32/32/32
f 34/34/34 32/32/32 3/3/3
f 34/34/34 3/3/3 13/13/13
f 34/34/34 13/13/13 12/12/12
f 34/34/34 12/12/12 35/35/35
f 36/36/36 37/37/37 38/38/38
f 36/36/36 38/38/38 39/39/39
f 36/36/36 39/39/39 40/40/40
f 36/36/36 40/40/40 41/41/41
f 36/36/36 41/41/41 20/20/20
f 36/36/36 20/20/20 19/19/19
f 36/36/36 19/19/19 18/18/18
f 36/36/36 18/18/18 37/37/37
f 42/42/42 41/41/41 40/40/40
f 42/42/42 40/40/40 43/43/43
f 42/42/42 43/43/43 44/44/44
f 42/42/42 44/44/44 45/45/45
f 42/42/42 45/45/45 27/27/27
f 42/42/42 27/27/27 26/26/26
f 42/42/42 26/26/26 20/20/20
f 42/42/42 20/20/20 41/41/41
f 46/46/46 47/47/47 48/48/48
f 46/46/46 48/48/48 49/49/49
f 46/46/46 49/49/49 50/50/50
f 46/46/46 50/50/50 51/51/51
f 46/46/46 51/51/51 52/52/52
f 46/46/46 52/52/52 53/53/53
f 46/46/46 53/53/53 54/54/54
f 46/46/46 54/54/54 47/47/47
f 55/55/55 56/56/56 57/57/57
f 55/55/55 57/57/57 58/58/58
f 55/55/55 58/58/58 48/48/48
f 55/55/55 48/48/48 47/47/47
f 55/55/55 47/47/47 54/54/54
f 55/55/55 54/54/54 59/59/59
f 55/55/55 59/59/59 60/60/60
f 55/55/55 60/60/60 56/56/56
f 61/61/61 62/62/62 63/63/63
f 61/61/61 63/63/63 64/64/64
f 61/61/61 64/64/64 65/65/65
f 61/61/61 65/65/65 66/66/66
f 61/61/61 66/66/66 67/67/67
f 61/61/61 67/67/67 68/68/68
f 61/61/61 68/68/68 69/69/69
f 61/61/61 69/69/69 62/62/62
f 70/70/70 66/66/66 65/65/65
f 70/70/70 65/65/65 71/71/71
f 70/70/70 71/71/71 72/72/72
f 70/70/70 72/72/72 73/73/73
f 70/70/70 73/73/73 74/74/74
f 70/70/70 74/74/74 75/75/75
f 70/70/70 75/75/75 67/67/67
f 70/70/70 67/67/67 66/66/66
f 76/76/76 77/77/77 54/54/54
f 76/76/76 54/54/54 53/53/53
f 76/76/76 53/53/53 52/52/52
f 76/76/76 52/52/52 78/78/78
f 76/76/76 78/78/78 72/72/72
f 76/76/76 72/72/72 71/71/71
f 76/76/76 71/71/71 65/65/65
f 76/76/76 65/65/65 77/77/77
f 79/79/79 80/80/80 60/60/60
f 79/79/79 60/60/60 59/59/59
f 79/79/79 59/59/59 54/54/54
f 79/79/79 54/54/54 77/77/77
f 79/79/79 77/77/77 65/65/65
f 79/79/79 65/65/65 64/64/64
f 79/79/79 64/64/64 63/63/63
f 79/79/79 63/63/63 80/80/80
f 81/81/81 82/82/82 69/69/69
f 81/81/81 69/69/69 68/68/68
f 81/81/81 68/68/68 67/67/67
f 81/81/81 67/67/67 83/83/83
f 81/81/81 83/83/83 84/84/84
f 81/81/81 84/84/84 85/85/85
f 81/81/81 85/85/85 86/86/86
f 81/81/81 86/86/86 82/82/82
f 87/87/87 83/83/83 67/67/67
f 87/87/87 67/67/67 75/75/75
f 87/87/87 75/75/75 74/74/74
f 87/87/87 74/74/74 88/88/88
f 87/87/87 88/88/88 89/89/89
f 87/87/87 89/89/89 90/90/90
f 87/87/87 90/90/90 84/84/84
f 87/87/87 84/84/84 83/83/83
f 91/91/91 92/92/92 38/38/38
f 91/91/91 38/38/38 37/37/37
f 91/91/91 37/37/37 18/18/18
f 91/91/91 18/18/18 93/93/93
f 91/91/91 93/93/93 69/69/69
f 91/91/91 69/69/69 82/82/82
f 91/91/91 82/82/82 94/94/94
f 91/91/91 94/94/94 92/92/92
f 95/95/95 96/96/96 44/44/44
f 95/95/95 44/44/44 43/43/43
f 95/95/95 43/43/43 40/40/40
f 95/95/95 40/40/40 97/97/97
f 95/95/95 97/97/97 84/84/84
f 95/95/95 84/84/84 90/90/90
f 95/95/95 90/90/90 98/98/98
f 95/95/95 98/98/98 96/96/96
f 99/99/99 100/100/100 7/7/7
f 99/99/99 7/7/7 6/6/6
f 99/99/99 6/6/6 5/5/5
f 99/99/99 5/5/5 101/101/101
f 99/99/99 101/101/101 52/52/52
f 99/99/99 52/52/52 51/51/51
f 99/99/99 51/51/51 102/102/102
f 99/99/99 102/102/102 100/100/100
f 103/103/103 104/104/104 15/15/15
f 103/103/103 15/15/15 14/14/14
f 103/103/103 14/14/14 9/9/9
f 103/103/103 9/9/9 105/105/105
f 103/103/103 105/105/105 48/48/48
f 103/103/103 48/48/48 58/58/58
f 103/103/103 58/58/58 106/106/106
f 103/103/103 106/106/106 104/104/104
f 107/107/107 108/108/108 12/12/12
f 107/107/107 12/12/12 11/11/11
f 107/107/107 11/11/11 15/15/15
f 107/107/107 15/15/15 104/104/104
f 107/107/107 104/104/104 106/106/106
f 107/107/107 106/106/106 56/56/56
f 107/107/107 56/56/56 60/60/60
f 107/107/107 60/60/60 108/108/108
f 109/109/109 97/97/97 40/40/40
f 109/109/109 40/40/40 39/39/39
f 109/109/109 39/39/39 38/38/38
f 109/109/109 38/38/38 92/92/92
f 109/109/109 92/92/92 94/94/94
f 109/109/109 94/94/94 85/85/85
f 109/109/109 85/85/85 84/84/84
f 109/109/109 84/84/84 97/97/97
f 110/110/110 111/111/111 27/27/27
f 110/110/110 27/27/27 45/45/45
f 110/110/110 45/45/45 44/44/44
f 110/110/110 44/44/44 96/96/96
f 110/110/110 96/96/96 98/98/98
f 110/110/110 98/98/98 88/88/88
f 110/110/110 88/88/88 74/74/74
f 110/110/110 74/74/74 111/111/111
f 112/112/112 105/105/105 9/9/9
f 112/112/112 9/9/9 8/8/8
f 112/112/112 8/8/8 7/7/7
f 112/112/112 7/7/7 100/100/100
f 112/112/112 100/100/100 102/102/102
f 112/112/112 102/102/102 49/49/49
f 112/112/112 49/49/49 48/48/48
f 112/112/112 48/48/48 105/105/105
f 113/113/113 101/101/101 5/5/5
f 113/113/113 5/5/5 33/33/33
f 113/113/113 33/33/33 29/29/29
f 113/113/113 29/29/29 114/114/114
f 113/113/113 114/114/114 72/72/72
f 113/113/113 72/72/72 78/78/78
f 113/113/113 78/78/78 52/52/52
f 113/113/113 52/52/52 101/101/101
f 115/115/115 116/116/116 24/24/24
f 115/115/115 24/24/24 35/35/35
f 115/115/115 35/35/35 12/12/12
f 115/115/115 12/12/12 108/108/108
f 115/115/115 108/108/108 60/60/60
f 115/115/115 60/60/60 80/80/80
f 115/115/115 80/80/80 63/63/63
f 115/115/115 63/63/63 116/116/116
f 117/117/117 93/93/93 18/18/18
f 117/117/117 18/18/18 17/17/17
f 117/117/117 17/17/17 24/24/24
f 117/117/117 24/24/24 116/116/116
f 117/117/117 116/116/116 63/63/63
f 117/117/117 63/63/63 62/62/62
f 117/117/117 62/62/62 69/69/69
f 117/117/117 69/69/69 93/93/93
f 118/118/118 114/114/114 29/29/29
f 118/118/118 29/29/29 28/28/28
f 118/118/118 28/28/28 27/27/27
f 118/118/118 27/27/27 111/111/111
f 118/118/118 111/111/111 74/74/74
f 118/118/118 74/74/74 73/73/73
f 118/118/118 73/73/73 72/72/72
f 118/118/118 72/72/72 114/114/114
