v -2.428454 0.738056 -1.167126
v -2.430721 0.738266 -1.167490
v -2.430652 0.736970 -1.164708
v -2.428094 0.736817 -1.164628
v -2.426127 0.736838 -1.164347
v -2.426697 0.737958 -1.166439
v -2.427501 0.738497 -1.167812
v -2.428812 0.738836 -1.168938
v -2.430790 0.739120 -1.169572
v -2.432847 0.738707 -1.166714
v -2.434402 0.739099 -1.165716
v -2.434879 0.738135 -1.163526
v -2.433087 0.737557 -1.164160
v -2.432615 0.739399 -1.168582
v -2.433741 0.739421 -1.167226
v -2.433112 0.732048 -1.156283
v -2.434911 0.732491 -1.155934
v -2.434532 0.730145 -1.153631
v -2.432943 0.729744 -1.153951
v -2.430809 0.729303 -1.154279
v -2.430697 0.731557 -1.156642
v -2.430624 0.733635 -1.159145
v -2.433146 0.734167 -1.158756
v -2.435021 0.734659 -1.158370
v -2.428220 0.731323 -1.156742
v -2.428617 0.729103 -1.154357
v -2.426950 0.729022 -1.154342
v -2.426338 0.731221 -1.156738
v -2.426054 0.733330 -1.159211
v -2.428029 0.733409 -1.159237
v -2.427969 0.735254 -1.161932
v -2.430614 0.735433 -1.161880
v -2.425948 0.735249 -1.161843
v -2.433162 0.736024 -1.161445
v -2.435048 0.736597 -1.160989
v -2.432522 0.727334 -1.151688
v -2.433701 0.727670 -1.151409
v -2.432950 0.726171 -1.150278
v -2.432120 0.725466 -1.150036
v -2.431043 0.725185 -1.150263
v -2.430937 0.726977 -1.151962
v -2.429293 0.726856 -1.151990
v -2.429908 0.725138 -1.150244
v -2.428969 0.725581 -1.150652
v -2.428038 0.726831 -1.151940
v -2.428462 0.737841 -1.167236
v -2.430762 0.738054 -1.167598
v -2.430821 0.738959 -1.169650
v -2.428817 0.738674 -1.169017
v -2.427497 0.738377 -1.167871
v -2.426686 0.737797 -1.166522
v -2.426121 0.736680 -1.164437
v -2.428106 0.736607 -1.164746
v -2.430693 0.736763 -1.164824
v -2.432921 0.738502 -1.166817
v -2.434474 0.738951 -1.165792
v -2.433790 0.739309 -1.167281
v -2.432672 0.739245 -1.168656
v -2.433157 0.737355 -1.164272
v -2.434947 0.737988 -1.163609
v -2.433175 0.731870 -1.156435
v -2.434968 0.732360 -1.156046
v -2.435080 0.734522 -1.158474
v -2.433210 0.733981 -1.158897
v -2.430666 0.733445 -1.159289
v -2.430739 0.731375 -1.156797
v -2.430851 0.729127 -1.154441
v -2.433006 0.729572 -1.154110
v -2.434589 0.730018 -1.153748
v -2.428240 0.731139 -1.156898
v -2.428048 0.733216 -1.159381
v -2.426057 0.733185 -1.159320
v -2.426342 0.731082 -1.156855
v -2.426954 0.728887 -1.154464
v -2.428637 0.728925 -1.154520
v -2.427985 0.735052 -1.162063
v -2.430656 0.735234 -1.162009
v -2.425947 0.735097 -1.161942
v -2.433229 0.735829 -1.161571
v -2.435111 0.736454 -1.161082
v -2.432586 0.727165 -1.151849
v -2.433759 0.727546 -1.151529
v -2.430978 0.726804 -1.152126
v -2.431074 0.725055 -1.150386
v -2.432169 0.725340 -1.150157
v -2.432991 0.726078 -1.150367
v -2.429312 0.726680 -1.152156
v -2.428041 0.726698 -1.152065
v -2.428974 0.725483 -1.150744
v -2.429920 0.725007 -1.150368
v -2.434122 0.727727 -1.151369
v -2.432980 0.725710 -1.149830
v -2.435089 0.730223 -1.153576
v -2.432991 0.726078 -1.150367
v -2.430118 0.724507 -1.149717
v -2.428992 0.725119 -1.150204
v -2.431092 0.724530 -1.149751
v -2.428974 0.725483 -1.150744
v -2.426103 0.737854 -1.166247
v -2.427240 0.738557 -1.167936
v -2.425465 0.736775 -1.164293
v -2.427497 0.738377 -1.167871
v -2.432564 0.739562 -1.169236
v -2.433991 0.739557 -1.167303
v -2.430826 0.739333 -1.170300
v -2.433790 0.739309 -1.167281
v -2.434956 0.739165 -1.165417
v -2.435510 0.738263 -1.163351
v -2.432008 0.724787 -1.149539
v -2.427619 0.726764 -1.151979
v -2.426393 0.728935 -1.154391
v -2.428933 0.739024 -1.169577
v -2.425271 0.735179 -1.161857
v -2.425395 0.733239 -1.159251
v -2.435708 0.736726 -1.160878
v -2.435675 0.734762 -1.158287
v -2.435538 0.732581 -1.155867
v -2.425710 0.731125 -1.156789
vn -0.046000 0.903800 0.425400
vn 0.170800 0.902300 0.395800
vn 0.172000 0.876400 0.449800
vn -0.021500 0.877700 0.478700
vn -0.011800 0.865500 0.500700
vn -0.037900 0.904000 0.425700
vn -0.055400 0.927100 0.370600
vn -0.008400 0.940600 0.339300
vn 0.167700 0.936200 0.308700
vn 0.380500 0.840600 0.385400
vn 0.373100 0.843100 0.387200
vn 0.351100 0.811800 0.466600
vn 0.359700 0.821100 0.443000
vn 0.340000 0.889000 0.306600
vn 0.386100 0.861700 0.329100
vn 0.276400 0.712800 0.644600
vn 0.240300 0.715000 0.656500
vn 0.236300 0.693600 0.680500
vn 0.283000 0.688500 0.667700
vn 0.169000 0.703400 0.690400
vn 0.170400 0.732400 0.659200
vn 0.172200 0.786600 0.592900
vn 0.290800 0.758200 0.583500
vn 0.264300 0.753700 0.601600
vn 0.062300 0.744500 0.664700
vn 0.053300 0.722500 0.689300
vn 0.101000 0.713600 0.693200
vn 0.099000 0.736000 0.669700
vn 0.077500 0.781500 0.619100
vn 0.050600 0.793800 0.606100
vn 0.019200 0.843700 0.536300
vn 0.172700 0.839700 0.514800
vn 0.036000 0.828900 0.558200
vn 0.322100 0.798900 0.508000
vn 0.305900 0.788900 0.532900
vn 0.307000 0.672500 0.673300
vn 0.257500 0.675600 0.690800
vn 0.287500 0.656500 0.697300
vn 0.325500 0.626300 0.708400
vn 0.165700 0.648000 0.743300
vn 0.168200 0.689300 0.704700
vn 0.027100 0.714000 0.699600
vn 0.002800 0.674100 0.738600
vn 0.045300 0.692200 0.720300
vn 0.077800 0.702000 0.707900
vn 0.073500 -0.891800 -0.446400
vn -0.171200 -0.895500 -0.410800
vn -0.172300 -0.866900 -0.467800
vn 0.156000 -0.850100 -0.502900
vn 0.271000 -0.811900 -0.517000
vn 0.247400 -0.823100 -0.511100
vn 0.178200 -0.836600 -0.518000
vn 0.036800 -0.876400 -0.480200
vn -0.172000 -0.876500 -0.449600
vn -0.406700 -0.820600 -0.401400
vn -0.562200 -0.703300 -0.435100
vn -0.582300 -0.685500 -0.437000
vn -0.482700 -0.755400 -0.443100
vn -0.374000 -0.815500 -0.441600
vn -0.502300 -0.735700 -0.454200
vn -0.292000 -0.709900 -0.640900
vn -0.397900 -0.685300 -0.609900
vn -0.409600 -0.715400 -0.566100
vn -0.305200 -0.754700 -0.580700
vn -0.172200 -0.786500 -0.593100
vn -0.170300 -0.732300 -0.659400
vn -0.169000 -0.703300 -0.690500
vn -0.301200 -0.686400 -0.661900
vn -0.420600 -0.675700 -0.605300
vn -0.046100 -0.746300 -0.664000
vn -0.035600 -0.794600 -0.606000
vn 0.076500 -0.787400 -0.611700
vn 0.066200 -0.754100 -0.653400
vn 0.091100 -0.751600 -0.653300
vn -0.034600 -0.725900 -0.686800
vn -0.004600 -0.843800 -0.536600
vn -0.172700 -0.839700 -0.514800
vn 0.116900 -0.822400 -0.556700
vn -0.335900 -0.794700 -0.505500
vn -0.447700 -0.738700 -0.503900
vn -0.332100 -0.679800 -0.653900
vn -0.470300 -0.679400 -0.563200
vn -0.168600 -0.697900 -0.696100
vn -0.170400 -0.734400 -0.656900
vn -0.401800 -0.705700 -0.583500
vn -0.498800 -0.684000 -0.532200
vn -0.002100 -0.728700 -0.684800
vn 0.144500 -0.770300 -0.621000
vn 0.175700 -0.783800 -0.595600
vn 0.068700 -0.775400 -0.627600
vn -0.871900 0.018200 0.489300
vn -0.646000 -0.233300 0.726800
vn -0.925400 0.098200 0.365900
vn -0.498800 -0.684000 -0.532200
vn 0.203500 -0.686300 0.698200
vn 0.673000 -0.428500 0.602900
vn -0.056500 -0.778000 0.625700
vn 0.175700 -0.783800 -0.595600
vn 0.927100 0.299500 -0.225400
vn 0.770200 0.417800 -0.481900
vn 0.983200 0.168900 -0.068700
vn 0.271000 -0.811900 -0.517000
vn -0.491700 0.501100 -0.712100
vn -0.691700 0.634400 -0.345100
vn -0.037200 0.342300 -0.938800
vn -0.582300 -0.685500 -0.437000
vn -0.826700 0.559300 -0.060900
vn -0.888500 0.446500 0.106200
vn -0.261500 -0.617300 0.741900
vn 0.914300 -0.246200 0.321500
vn 0.965100 -0.181800 0.188500
vn 0.477000 0.357600 -0.802900
vn 0.998300 0.053600 0.022300
vn 0.997700 -0.023300 0.062700
vn -0.919300 0.337900 0.201700
vn -0.933500 0.262300 0.244300
vn -0.940700 0.186100 0.283500
vn 0.989800 -0.099400 0.102000
vt 0.839504 0.118056
vt 0.856743 0.205307
vt 0.741230 0.205307
vt 0.734555 0.106726
vt 0.724541 0.032791
vt 0.813647 0.052618
vt 0.868992 0.081539
vt 0.913398 0.129584
vt 0.940923 0.205307
vt 0.839504 0.292557
vt 0.813647 0.357995
vt 0.724541 0.377822
vt 0.734555 0.303887
vt 0.913398 0.281029
vt 0.868992 0.329074
vt 0.369475 0.299954
vt 0.368286 0.370940
vt 0.245840 0.351447
vt 0.246397 0.288815
vt 0.246768 0.205307
vt 0.370268 0.205307
vt 0.494283 0.205307
vt 0.492822 0.304944
vt 0.490632 0.379672
vt 0.369475 0.110659
vt 0.246397 0.121798
vt 0.245841 0.059166
vt 0.368286 0.039673
vt 0.490632 0.030941
vt 0.492822 0.105669
vt 0.616755 0.103478
vt 0.619174 0.205307
vt 0.613127 0.027106
vt 0.616755 0.307135
vt 0.613126 0.383507
vt 0.123273 0.268175
vt 0.123047 0.315326
vt 0.054743 0.283353
vt 0.030912 0.249131
vt 0.030973 0.205306
vt 0.123423 0.205306
vt 0.123273 0.142438
vt 0.030912 0.161481
vt 0.054744 0.127260
vt 0.123047 0.095287
vt 0.839504 0.118056
vt 0.856743 0.205307
vt 0.968983 0.205307
vt 0.938030 0.133427
vt 0.876123 0.061548
vt 0.805028 0.030806
vt 0.721203 0.008146
vt 0.734555 0.106726
vt 0.741230 0.205307
vt 0.839504 0.292557
vt 0.805028 0.379807
vt 0.876123 0.349065
vt 0.938030 0.277186
vt 0.734555 0.303887
vt 0.721203 0.402467
vt 0.369475 0.299954
vt 0.367890 0.394602
vt 0.489902 0.404581
vt 0.492822 0.304944
vt 0.494283 0.205307
vt 0.370268 0.205307
vt 0.246768 0.205307
vt 0.246397 0.288815
vt 0.245655 0.372324
vt 0.369475 0.110659
vt 0.492822 0.105669
vt 0.489902 0.006032
vt 0.367890 0.016011
vt 0.245655 0.038289
vt 0.246397 0.121798
vt 0.616755 0.103478
vt 0.619174 0.205307
vt 0.611917 0.001649
vt 0.616755 0.307135
vt 0.611917 0.408964
vt 0.123273 0.268175
vt 0.122972 0.331043
vt 0.123423 0.205306
vt 0.000156 0.205306
vt 0.000125 0.242784
vt 0.000064 0.280261
vt 0.123273 0.142438
vt 0.122972 0.079570
vt 0.000064 0.130352
vt 0.000125 0.167829
vt 0.122972 0.331043
vt 0.030806 0.283587
vt 0.245655 0.372324
vt 0.030806 0.283587
vt 0.000125 0.167829
vt 0.030806 0.127026
vt 0.000156 0.205306
vt 0.030806 0.127026
vt 0.805028 0.030806
vt 0.873826 0.071832
vt 0.721203 0.008146
vt 0.873826 0.071832
vt 0.938030 0.277186
vt 0.873826 0.338781
vt 0.968983 0.205307
vt 0.873826 0.338781
vt 0.805028 0.379807
vt 0.721203 0.402467
vt 0.000125 0.242784
vt 0.122972 0.079570
vt 0.245655 0.038289
vt 0.938030 0.133427
vt 0.611917 0.001649
vt 0.489902 0.006032
vt 0.611917 0.408964
vt 0.489902 0.404581
vt 0.367890 0.394602
vt 0.367890 0.016011
f 1/1/1 2/2/2 3/3/3
f 1/1/1 3/3/3 4/4/4
f 1/1/1 4/4/4 5/5/5
f 1/1/1 5/5/5 6/6/6
f 1/1/1 6/6/6 7/7/7
f 1/1/1 7/7/7 8/8/8
f 1/1/1 8/8/8 9/9/9
f 1/1/1 9/9/9 2/2/2
f 10/10/10 11/11/11 12/12/12
f 10/10/10 12/12/12 13/13/13
f 10/10/10 13/13/13 3/3/3
f 10/10/10 3/3/3 2/2/2
f 10/10/10 2/2/2 9/9/9
f 10/10/10 9/9/9 14/14/14
f 10/10/10 14/14/14 15/15/15
f 10/10/10 15/15/15 11/11/11
f 16/16/16 17/17/17 18/18/18
f 16/16/16 18/18/18 19/19/19
f 16/16/16 19/19/19 20/20/20
f 16/16/16 20/20/20 21/21/21
f 16/16/16 21/21/21 22/22/22
f 16/16/16 22/22/22 23/23/23
f 16/16/16 23/23/23 24/24/24
f 16/16/16 24/24/24 17/17/17
f 25/25/25 21/21/21 20/20/20
f 25/25/25 20/20/20 26/26/26
f 25/25/25 26/26/26 27/27/27
f 25/25/25 27/27/27 28/28/28
f 25/25/25 28/28/28 29/29/29
f 25/25/25 29/29/29 30/30/30
f 25/25/25 30/30/30 22/22/22
f 25/25/25 22/22/22 21/21/21
f 31/31/31 32/32/32 22/22/22
f 31/31/31 22/22/22 30/30/30
f 31/31/31 30/30/30 29/29/29
f 31/31/31 29/29/29 33/33/33
f 31/31/31 33/33/33 5/5/5
f 31/31/31 5/5/5 4/4/4
f 31/31/31 4/4/4 3/3/3
f 31/31/31 3/3/3 32/32/32
f 34/34/34 35/35/35 24/24/24
f 34/34/34 24/24/24 23/23/23
f 34/34/34 23/23/23 22/22/22
f 34/34/34 22/22/22 32/32/32
f 34/34/34 32/32/32 3/3/3
f 34/34/34 3/3/3 13/13/13
f 34/34/34 13/13/13 12/12/12
f 34/34/34 12/12/12 35/35/35
f 36/36/36 37/37/37 38/38/38
f 36/36/36 38/38/38 39/39/39
f 36/36/36 39/39/39 40/40/40
f 36/36/36 40/40/40 41/41/41
f 36/36/36 41/41/41 20/20/20
f 36/36/36 20/20/20 19/19/19
f 36/36/36 19/19/19 18/18/18
f 36/36/36 18/18/18 37/37/37
f 42/42/42 41/41/41 40/40/40
f 42/42/42 40/40/40 43/43/43
f 42/42/42 43/43/43 44/44/44
f 42/42/42 44/44/44 45/45/45
f 42/42/42 45/45/45 27/27/27
f 42/42/42 27/27/27 26/26/26
f 42/42/42 26/26/26 20/20/20
f 42/42/42 20/20/20 41/41/41
f 46/46/46 47/47/47 48/48/48
f 46/46/46 48/48/48 49/49/49
f 46/46/46 49/49/49 50/50/50
f 46/46/46 50/50/50 51/51/51
f 46/46/46 51/51/51 52/52/52
f 46/46/46 52/52/52 53/53/53
f 46/46/46 53/53/53 54/54/54
f 46/46/46 54/54/54 47/47/47
f 55/55/55 56/56/56 57/57/57
f 55/55/55 57/57/57 58/58/58
f 55/55/55 58/58/58 48/48/48
f 55/55/55 48/48/48 47/47/47
f 55/55/55 47/47/47 54/54/54
f 55/55/55 54/54/54 59/59/59
f 55/55/55 59/59/59 60/60/60
f 55/55/55 60/60/60 56/56/56
f 61/61/61 62/62/62 63/63/63
f 61/61/61 63/63/63 64/64/64
f 61/61/61 64/64/64 65/65/65
f 61/61/61 65/65/65 66/66/66
f 61/61/61 66/66/66 67/67/67
f 61/61/61 67/67/67 68/68/68
f 61/61/61 68/68/68 69/69/69
f 61/61/61 69/69/69 62/62/62
f 70/70/70 66/66/66 65/65/65
f 70/70/70 65/65/65 71/71/71
f 70/70/70 71/71/71 72/72/72
f 70/70/70 72/72/72 73/73/73
f 70/70/70 73/73/73 74/74/74
f 70/70/70 74/74/74 75/75/75
f 70/70/70 75/75/75 67/67/67
f 70/70/70 67/67/67 66/66/66
f 76/76/76 77/77/77 54/54/54
f 76/76/76 54/54/54 53/53/53
f 76/76/76 53/53/53 52/52/52
f 76/76/76 52/52/52 78/78/78
f 76/76/76 78/78/78 72/72/72
f 76/76/76 72/72/72 71/71/71
f 76/76/76 71/71/71 65/65/65
f 76/76/76 65/65/65 77/77/77
f 79/79/79 80/80/80 60/60/60
f 79/79/79 60/60/60 59/59/59
f 79/79/79 59/59/59 54/54/54
f 79/79/79 54/54/54 77/77/77
f 79/79/79 77/77/77 65/65/65
f 79/79/79 65/65/65 64/64/64
f 79/79/79 64/64/64 63/63/63
f 79/79/79 63/63/63 80/80/80
f 81/81/81 82/82/82 69/69/69
f 81/81/81 69/69/69 68/68/68
f 81/81/81 68/68/68 67/67/67
f 81/81/81 67/67/67 83/83/83
f 81/81/81 83/83/83 84/84/84
f 81/81/81 84/84/84 85/85/85
f 81/81/81 85/85/85 86/86/86
f 81/81/81 86/86/86 82/82/82
f 87/87/87 83/83/83 67/67/67
f 87/87/87 67/67/67 75/75/75
f 87/87/87 75/75/75 74/74/74
f 87/87/87 74/74/74 88/88/88
f 87/87/87 88/88/88 89/89/89
f 87/87/87 89/89/89 90/90/90
f 87/87/87 90/90/90 84/84/84
f 87/87/87 84/84/84 83/83/83
f 91/91/91 92/92/92 38/38/38
f 91/91/91 38/38/38 37/37/37
f 91/91/91 37/37/37 18/18/18
f 91/91/91 18/18/18 93/93/93
f 91/91/91 93/93/93 69/69/69
f 91/91/91 69/69/69 82/82/82
f 91/91/91 82/82/82 94/94/94
f 91/91/91 94/94/94 92/92/92
f 95/95/95 96/96/96 44/44/44
f 95/95/95 44/44/44 43/43/43
f 95/95/95 43/43/43 40/40/40
f 95/95/95 40/40/40 97/97/97
f 95/95/95 97/97/97 84/84/84
f 95/95/95 84/84/84 90/90/90
f 95/95/95 90/90/90 98/98/98
f 95/95/95 98/98/98 96/96/96
f 99/99/99 100/100/100 7/7/7
f 99/99/99 7/7/7 6/6/6
f 99/99/99 6/6/6 5/5/5
f 99/99/99 5/5/5 101/101/101
f 99/99/99 101/101/101 52/52/52
f 99/99/99 52/52/52 51/51/51
f 99/99/99 51/51/51 102/102/102
f 99/99/99 102/102/102 100/100/100
f 103/103/103 104/104/104 15/15/15
f 103/103/103 15/15/15 14/14/14
f 103/103/103 14/14/14 9/9/9
f 103/103/103 9/9/9 105/105/105
f 103/103/103 105/105/105 48/48/48
f 103/103/103 48/48/48 58/58/58
f 103/103/103 58/58/58 106/106/106
f 103/103/103 106/106/106 104/104/104
f 107/107/107 108/108/108 12/12/12
f 107/107/107 12/12/12 11/11/11
f 107/107/107 11/11/11 15/15/15
f 107/107/107 15/15/15 104/104/104
f 107/107/107 104/104/104 106/106/106
f 107/107/107 106/106/106 56/56/56
f 107/107/107 56/56/56 60/60/60
f 107/107/107 60/60/60 108/108/108
f 109/109/109 97/97/97 40/40/40
f 109/109/109 40/40/40 39/39/39
f 109/109/109 39/39/39 38/38/38
f 109/109/109 38/38/38 92/92/92
f 109/109/109 92/92/92 94/94/94
f 109/109/109 94/94/94 85/85/85
f 109/109/109 85/85/85 84/84/84
f 109/109/109 84/84/84 97/97/97
f 110/110/110 111/111/111 27/27/27
f 110/110/110 27/27/27 45/45/45
f 110/110/110 45/45/45 44/44/44
f 110/110/110 44/44/44 96/96/96
f 110/110/110 96/96/96 98/98/98
f 110/110/110 98/98/98 88/88/88
f 110/110/110 88/88/88 74/74/74
f 110/110/110 74/74/74 111/111/111
f 112/112/112 105/105/105 9/9/9
f 112/112/112 9/9/9 8/8/8
f 112/112/112 8/8/8 7/7/7
f 112/112/112 7/7/7 100/100/100
f 112/112/112 100/100/100 102/102/102
f 112/112/112 102/102/102 49/49/49
f 112/112/112 49/49/49 48/48/48
f 112/112/112 48/48/48 105/105/105
f 113/113/113 101/101/101 5/5/5
f 113/113/113 5/5/5 33/33/33
f 113/113/113 33/33/33 29/29/29
f 113/113/113 29/29/29 114/114/114
f 113/113/113 114/114/114 72/72/72
f 113/113/113 72/72/72 78/78/78
f 113/113/113 78/78/78 52/52/52
f 113/113/113 52/52/52 101/101/101
f 115/115/115 116/116/116 24/24/24
f 115/115/115 24/24/24 35/35/35
f 115/115/115 35/35/35 12/12/12
f 115/115/115 12/12/12 108/108/108
f 115/115/115 108/108/108 60/60/60
f 115/115/115 60/60/60 80/80/80
f 115/115/115 80/80/80 63/63/63
f 115/115/115 63/63/63 116/116/116
f 117/117/117 93/93/93 18/18/18
f 117/117/117 18/18/18 17/17/17
f 117/117/117 17/17/17 24/24/24
f 117/117/117 24/24/24 116/116/116
f 117/117/117 116/116/116 63/63/63
f 117/117/117 63/63/63 62/62/62
f 117/117/117 62/62/62 69/69/69
f 117/117/117 69/69/69 93/93/93
f 118/118/118 114/114/114 29/29/29
f 118/118/118 29/29/29 28/28/28
f 118/118/118 28/28/28 27/27/27
f 118/118/118 27/27/27 111/111/111
f 118/118/118 111/111/111 74/74/74
f 118/118/118 74/74/74 73/73/73
f 118/118/118 73/73/73 72/72/72
f 118/118/118 72/72/72 114/114/114
