v -2.353893 0.697149 -1.131601
v -2.352197 0.697412 -1.132805
v -2.353989 0.696240 -1.134595
v -2.355694 0.696019 -1.133020
v -2.357147 0.695976 -1.131948
v -2.355467 0.697006 -1.130929
v -2.354082 0.697517 -1.130539
v -2.352521 0.697865 -1.130636
v -2.350842 0.698184 -1.131479
v -2.351325 0.697883 -1.134652
v -2.350963 0.698292 -1.136280
v -2.352031 0.697437 -1.138027
v -2.352775 0.696853 -1.136488
v -2.350298 0.698499 -1.133277
v -2.350434 0.698559 -1.134872
v -2.357667 0.691871 -1.141742
v -2.356735 0.692332 -1.143103
v -2.358400 0.690195 -1.144411
v -2.359216 0.689779 -1.143201
v -2.360379 0.689309 -1.141640
v -2.358991 0.691346 -1.139982
v -2.357486 0.693225 -1.138263
v -2.356112 0.693791 -1.140109
v -2.355155 0.694298 -1.141543
v -2.360528 0.691054 -1.138344
v -2.361745 0.689057 -1.140197
v -2.362833 0.688929 -1.139146
v -2.361746 0.690901 -1.137149
v -2.360397 0.692801 -1.135315
v -2.359103 0.692936 -1.136555
v -2.357461 0.694603 -1.134726
v -2.355785 0.694851 -1.136441
v -2.358827 0.694533 -1.133495
v -2.354426 0.695470 -1.138332
v -2.353507 0.696053 -1.139816
v -2.360882 0.687582 -1.144458
v -2.360304 0.687926 -1.145381
v -2.361480 0.686543 -1.145673
v -2.362157 0.685877 -1.145318
v -2.362704 0.685586 -1.144491
v -2.361726 0.687206 -1.143279
v -2.362770 0.687043 -1.142216
v -2.363450 0.685507 -1.143781
v -2.363807 0.685878 -1.142908
v -2.363614 0.686980 -1.141449
v -2.353813 0.696954 -1.131540
v -2.352098 0.697220 -1.132767
v -2.350770 0.698039 -1.131453
v -2.352465 0.697717 -1.130592
v -2.354044 0.697408 -1.130501
v -2.355417 0.696859 -1.130872
v -2.357090 0.695832 -1.131890
v -2.355606 0.695828 -1.132956
v -2.353884 0.696053 -1.134552
v -2.351207 0.697699 -1.134637
v -2.350865 0.698159 -1.136280
v -2.350365 0.698459 -1.134871
v -2.350211 0.698361 -1.133270
v -2.352653 0.696672 -1.136465
v -2.351931 0.697306 -1.138020
v -2.357526 0.691711 -1.141688
v -2.356623 0.692214 -1.143070
v -2.355047 0.694175 -1.141516
v -2.355977 0.693623 -1.140064
v -2.357363 0.693053 -1.138201
v -2.358862 0.691182 -1.139913
v -2.360246 0.689150 -1.141566
v -2.359071 0.689624 -1.143142
v -2.358286 0.690081 -1.144375
v -2.360411 0.690887 -1.138260
v -2.358995 0.692761 -1.136478
v -2.360322 0.692669 -1.135249
v -2.361665 0.690775 -1.137080
v -2.362749 0.688807 -1.139072
v -2.361625 0.688895 -1.140108
v -2.357363 0.694420 -1.134656
v -2.355672 0.694670 -1.136389
v -2.358761 0.694395 -1.133434
v -2.354298 0.695295 -1.138298
v -2.353404 0.695925 -1.139799
v -2.360734 0.687430 -1.144398
v -2.360187 0.687814 -1.145345
v -2.361591 0.687050 -1.143203
v -2.362602 0.685469 -1.144434
v -2.362045 0.685763 -1.145273
v -2.361395 0.686459 -1.145643
v -2.362648 0.686884 -1.142124
v -2.363530 0.686860 -1.141373
v -2.363743 0.685789 -1.142853
v -2.363360 0.685388 -1.143712
v -2.360058 0.687991 -1.145674
v -2.361737 0.686126 -1.145994
v -2.358076 0.690284 -1.144800
v -2.361395 0.686459 -1.145643
v -2.363637 0.684942 -1.144272
v -2.364068 0.685460 -1.143224
v -2.362985 0.684994 -1.144870
v -2.363743 0.685789 -1.142853
v -2.355972 0.696893 -1.130677
v -2.354172 0.697563 -1.130291
v -2.357608 0.695897 -1.131562
v -2.354044 0.697408 -1.130501
v -2.349917 0.698643 -1.132816
v -2.350226 0.698690 -1.134979
v -2.350359 0.698377 -1.131026
v -2.350365 0.698459 -1.134871
v -2.350796 0.698371 -1.136825
v -2.351736 0.697574 -1.138539
v -2.362532 0.685258 -1.145585
v -2.363859 0.686906 -1.141158
v -2.363159 0.688832 -1.138761
v -2.352040 0.698037 -1.130295
v -2.359255 0.694449 -1.133056
v -2.360796 0.692697 -1.134871
v -2.353153 0.696191 -1.140305
v -2.354786 0.694413 -1.142010
v -2.356373 0.692434 -1.143544
v -2.362118 0.690794 -1.136719
vn -0.286400 0.906200 -0.311000
vn -0.420000 0.897000 -0.137900
vn -0.458200 0.871200 -0.176200
vn -0.340700 0.879400 -0.332600
vn -0.362700 0.867000 -0.341700
vn -0.292400 0.906200 -0.305400
vn -0.241800 0.929700 -0.277800
vn -0.253700 0.941400 -0.222200
vn -0.357500 0.930700 -0.077200
vn -0.560600 0.827900 0.014800
vn -0.556600 0.830700 0.008400
vn -0.596000 0.800400 -0.064500
vn -0.585900 0.809300 -0.041300
vn -0.477800 0.877300 0.043900
vn -0.525700 0.848600 0.059400
vn -0.665500 0.704600 -0.246300
vn -0.648200 0.708100 -0.280100
vn -0.661700 0.686900 -0.300500
vn -0.685800 0.680100 -0.258800
vn -0.620900 0.699100 -0.354500
vn -0.600600 0.728000 -0.330500
vn -0.556700 0.781900 -0.280600
vn -0.634000 0.749200 -0.191400
vn -0.627700 0.745800 -0.223000
vn -0.527800 0.743900 -0.409900
vn -0.538100 0.722300 -0.434300
vn -0.574600 0.711800 -0.403900
vn -0.557400 0.734000 -0.388000
vn -0.507600 0.780100 -0.365700
vn -0.479500 0.793400 -0.375000
vn -0.409400 0.844200 -0.346000
vn -0.503500 0.834700 -0.223200
vn -0.436400 0.828800 -0.350200
vn -0.604100 0.788600 -0.114600
vn -0.610000 0.779200 -0.143900
vn -0.706500 0.663400 -0.246400
vn -0.683600 0.668200 -0.293700
vn -0.709000 0.648100 -0.277800
vn -0.743200 0.616500 -0.259700
vn -0.654400 0.644100 -0.395900
vn -0.630100 0.685100 -0.365600
vn -0.526500 0.714700 -0.460300
vn -0.535800 0.675800 -0.506100
vn -0.553600 0.692300 -0.462800
vn -0.568300 0.701000 -0.430900
vn 0.281400 -0.895200 0.345500
vn 0.430700 -0.890200 0.148500
vn 0.470800 -0.861700 0.189100
vn 0.261300 -0.856700 0.444800
vn 0.188400 -0.822600 0.536500
vn 0.201300 -0.833000 0.515300
vn 0.255700 -0.844000 0.471500
vn 0.330800 -0.878600 0.344300
vn 0.458100 -0.871200 0.176200
vn 0.590100 -0.807100 -0.021200
vn 0.721700 -0.684500 -0.103000
vn 0.737000 -0.666000 -0.115400
vn 0.672000 -0.739300 -0.043100
vn 0.594900 -0.803200 0.030500
vn 0.693300 -0.719000 -0.048300
vn 0.673900 -0.701100 0.232800
vn 0.727000 -0.672700 0.137200
vn 0.705400 -0.702100 0.096900
vn 0.642200 -0.745200 0.179400
vn 0.556700 -0.781800 0.280700
vn 0.600700 -0.727900 0.330700
vn 0.620900 -0.699100 0.354600
vn 0.694600 -0.677400 0.242000
vn 0.739800 -0.662400 0.118200
vn 0.515800 -0.746200 0.420700
vn 0.468700 -0.794800 0.385400
vn 0.392800 -0.791400 0.468300
vn 0.428700 -0.757800 0.491700
vn 0.410700 -0.756300 0.509200
vn 0.523200 -0.726400 0.445600
vn 0.399100 -0.844800 0.356400
vn 0.503500 -0.834700 0.223100
vn 0.326300 -0.827700 0.456600
vn 0.612200 -0.783900 0.103300
vn 0.689300 -0.724000 0.025200
vn 0.710900 -0.669700 0.214700
vn 0.745700 -0.664100 0.053300
vn 0.624500 -0.693700 0.358900
vn 0.599100 -0.730000 0.328800
vn 0.711800 -0.692900 0.115100
vn 0.744300 -0.667700 0.011100
vn 0.498700 -0.730300 0.466800
vn 0.350400 -0.777000 0.522900
vn 0.310700 -0.791500 0.526300
vn 0.409200 -0.779400 0.474500
vn 0.277400 0.050500 -0.959400
vn -0.044500 -0.208400 -0.977000
vn 0.399800 0.131400 -0.907100
vn 0.744300 -0.667700 0.011100
vn -0.619500 -0.690800 -0.372800
vn -0.892200 -0.450500 0.030000
vn -0.381200 -0.773400 -0.506400
vn 0.310700 -0.791500 0.526300
vn -0.509300 0.265600 0.818600
vn -0.219900 0.388700 0.894700
vn -0.655600 0.134000 0.743100
vn 0.188400 -0.822600 0.536500
vn 0.838200 0.516000 0.176100
vn 0.720100 0.657300 -0.222100
vn 0.677400 0.340500 0.652100
vn 0.737000 -0.666000 -0.115400
vn 0.618900 0.587800 -0.521000
vn 0.548100 0.477800 -0.686500
vn -0.319500 -0.605200 -0.729100
vn -0.871200 -0.277600 0.404900
vn -0.815300 -0.214800 0.537700
vn 0.215400 0.337900 0.916200
vn -0.727600 0.018600 0.685800
vn -0.754100 -0.058500 0.654100
vn 0.505400 0.370800 -0.779100
vn 0.487800 0.296400 -0.821100
vn 0.467000 0.220100 -0.856400
vn -0.774100 -0.133900 0.618700
vt 0.839504 0.118056
vt 0.856743 0.205307
vt 0.741230 0.205307
vt 0.734555 0.106726
vt 0.724541 0.032791
vt 0.813647 0.052618
vt 0.868992 0.081539
vt 0.913398 0.129584
vt 0.940923 0.205307
vt 0.839504 0.292557
vt 0.813647 0.357995
vt 0.724541 0.377822
vt 0.734555 0.303887
vt 0.913398 0.281029
vt 0.868992 0.329074
vt 0.369475 0.299954
vt 0.368286 0.370940
vt 0.245840 0.351447
vt 0.246397 0.288815
vt 0.246768 0.205307
vt 0.370268 0.205307
vt 0.494283 0.205307
vt 0.492822 0.304944
vt 0.490632 0.379672
vt 0.369475 0.110659
vt 0.246397 0.121798
vt 0.245841 0.059166
vt 0.368286 0.039673
vt 0.490632 0.030941
vt 0.492822 0.105669
vt 0.616755 0.103478
vt 0.619174 0.205307
vt 0.613127 0.027106
vt 0.616755 0.307135
vt 0.613126 0.383507
vt 0.123273 0.268175
vt 0.123047 0.315326
vt 0.054743 0.283353
vt 0.030912 0.249131
vt 0.030973 0.205306
vt 0.123423 0.205306
vt 0.123273 0.142438
vt 0.030912 0.161481
vt 0.054744 0.127260
vt 0.123047 0.095287
vt 0.839504 0.118056
vt 0.856743 0.205307
vt 0.968983 0.205307
vt 0.938030 0.133427
vt 0.876123 0.061548
vt 0.805028 0.030806
vt 0.721203 0.008146
vt 0.734555 0.106726
vt 0.741230 0.205307
vt 0.839504 0.292557
vt 0.805028 0.379807
vt 0.876123 0.349065
vt 0.938030 0.277186
vt 0.734555 0.303887
vt 0.721203 0.402467
vt 0.369475 0.299954
vt 0.367890 0.394602
vt 0.489902 0.404581
vt 0.492822 0.304944
vt 0.494283 0.205307
vt 0.370268 0.205307
vt 0.246768 0.205307
vt 0.246397 0.288815
vt 0.245655 0.372324
vt 0.369475 0.110659
vt 0.492822 0.105669
vt 0.489902 0.006032
vt 0.367890 0.016011
vt 0.245655 0.038289
vt 0.246397 0.121798
vt 0.616755 0.103478
vt 0.619174 0.205307
vt 0.611917 0.001649
vt 0.616755 0.307135
vt 0.611917 0.408964
vt 0.123273 0.268175
vt 0.122972 0.331043
vt 0.123423 0.205306
vt 0.000156 0.205306
vt 0.000125 0.242784
vt 0.000064 0.280261
vt 0.123273 0.142438
vt 0.122972 0.079570
vt 0.000064 0.130352
vt 0.000125 0.167829
vt 0.122972 0.331043
vt 0.030806 0.283587
vt 0.245655 0.372324
vt 0.030806 0.283587
vt 0.000125 0.167829
vt 0.030806 0.127026
vt 0.000156 0.205306
vt 0.030806 0.127026
vt 0.805028 0.030806
vt 0.873826 0.071832
vt 0.721203 0.008146
vt 0.873826 0.071832
vt 0.938030 0.277186
vt 0.873826 0.338781
vt 0.968983 0.205307
vt 0.873826 0.338781
vt 0.805028 0.379807
vt 0.721203 0.402467
vt 0.000125 0.242784
vt 0.122972 0.079570
vt 0.245655 0.038289
vt 0.938030 0.133427
vt 0.611917 0.001649
vt 0.489902 0.006032
vt 0.611917 0.408964
vt 0.489902 0.404581
vt 0.367890 0.394602
vt 0.367890 0.016011
f 1/1/1 2/2/2 3/3/3
f 1/1/1 3/3/3 4/4/4
f 1/1/1 4/4/4 5/5/5
f 1/1/1 5/5/5 6/6/6
f 1/1/1 6/6/6 7/7/7
f 1/1/1 7/7/7 8/8/8
f 1/1/1 8/8/8 9/9/9
f 1/1/1 9/9/9 2/2/2
f 10/10/10 11/11/11 12/12/12
f 10/10/10 12/12/12 13/13/13
f 10/10/10 13/13/13 3/3/3
f 10/10/10 3/3/3 2/2/2
f 10/10/10 2/2/2 9/9/9
f 10/10/10 9/9/9 14/14/14
f 10/10/10 14/14/14 15/15/15
f 10/10/10 15/15/15 11/11/11
f 16/16/16 17/17/17 18/18/18
f 16/16/16 18/18/18 19/19/19
f 16/16/16 19/19/19 20/20/20
f 16/16/16 20/20/20 21/21/21
f 16/16/16 21/21/21 22/22/22
f 16/16/16 22/22/22 23/23/23
f 16/16/16 23/23/23 24/24/24
f 16/16/16 24/24/24 17/17/17
f 25/25/25 21/21/21 20/20/20
f 25/25/25 20/20/20 26/26/26
f 25/25/25 26/26/26 27/27/27
f 25/25/25 27/27/27 28/28/28
f 25/25/25 28/28/28 29/29/29
f 25/25/25 29/29/29 30/30/30
f 25/25/25 30/30/30 22/22/22
f 25/25/25 22/22/22 21/21/21
f 31/31/31 32/32/32 22/22/22
f 31/31/31 22/22/22 30/30/30
f 31/31/31 30/30/30 29/29/29
f 31/31/31 29/29/29 33/33/33
f 31/31/31 33/33/33 5/5/5
f 31/31/31 5/5/5 4/4/4
f 31/31/31 4/4/4 3/3/3
f 31/31/31 3/3/3 32/32/32
f 34/34/34 35/35/35 24/24/24
f 34/34/34 24/24/24 23/23/23
f 34/34/34 23/23/23 22/22/22
f 34/34/34 22/22/22 32/32/32
f 34/34/34 32/32/32 3/3/3
f 34/34/34 3/3/3 13/13/13
f 34/34/34 13/13/13 12/12/12
f 34/34/34 12/12/12 35/35/35
f 36/36/36 37/37/37 38/38/38
f 36/36/36 38/38/38 39/39/39
f 36/36/36 39/39/39 40/40/40
f 36/36/36 40/40/40 41/41/41
f 36/36/36 41/41/41 20/20/20
f 36/36/36 20/20/20 19/19/19
f 36/36/36 19/19/19 18/18/18
f 36/36/36 18/18/18 37/37/37
f 42/42/42 41/41/41 40/40/40
f 42/42/42 40/40/40 43/43/43
f 42/42/42 43/43/43 44/44/44
f 42/42/42 44/44/44 45/45/45
f 42/42/42 45/45/45 27/27/27
f 42/42/42 27/27/27 26/26/26
f 42/42/42 26/26/26 20/20/20
f 42/42/42 20/20/20 41/41/41
f 46/46/46 47/47/47 48/48/48
f 46/46/46 48/48/48 49/49/49
f 46/46/46 49/49/49 50/50/50
f 46/46/46 50/50/50 51/51/51
f 46/46/46 51/51/51 52/52/52
f 46/46/46 52/52/52 53/53/53
f 46/46/46 53/53/53 54/54/54
f 46/46/46 54/54/54 47/47/47
f 55/55/55 56/56/56 57/57/57
f 55/55/55 57/57/57 58/58/58
f 55/55/55 58/58/58 48/48/48
f 55/55/55 48/48/48 47/47/47
f 55/55/55 47/47/47 54/54/54
f 55/55/55 54/54/54 59/59/59
f 55/55/55 59/59/59 60/60/60
f 55/55/55 60/60/60 56/56/56
f 61/61/61 62/62/62 63/63/63
f 61/61/61 63/63/63 64/64/64
f 61/61/61 64/64/64 65/65/65
f 61/61/61 65/65/65 66/66/66
f 61/61/61 66/66/66 67/67/67
f 61/61/61 67/67/67 68/68/68
f 61/61/61 68/68/68 69/69/69
f 61/61/61 69/69/69 62/62/62
f 70/70/70 66/66/66 65/65/65
f 70/70/70 65/65/65 71/71/71
f 70/70/70 71/71/71 72/72/72
f 70/70/70 72/72/72 73/73/73
f 70/70/70 73/73/73 74/74/74
f 70/70/70 74/74/74 75/75/75
f 70/70/70 75/75/75 67/67/67
f 70/70/70 67/67/67 66/66/66
f 76/76/76 77/77/77 54/54/54
f 76/76/76 54/54/54 53/53/53
f 76/76/76 53/53/53 52/52/52
f 76/76/76 52/52/52 78/78/78
f 76/76/76 78/78/78 72/72/72
f 76/76/76 72/72/72 71/71/71
f 76/76/76 71/71/71 65/65/65
f 76/76/76 65/65/65 77/77/77
f 79/79/79 80/80/80 60/60/60
f 79/79/79 60/60/60 59/59/59
f 79/79/79 59/59/59 54/54/54
f 79/79/79 54/54/54 77/77/77
f 79/79/79 77/77/77 65/65/65
f 79/79/79 65/65/65 64/64/64
f 79/79/79 64/64/64 63/63/63
f 79/79/79 63/63/63 80/80/80
f 81/81/81 82/82/82 69/69/69
f 81/81/81 69/69/69 68/68/68
f 81/81/81 68/68/68 67/67/67
f 81/81/81 67/67/67 83/83/83
f 81/81/81 83/83/83 84/84/84
f 81/81/81 84/84/84 85/85/85
f 81/81/81 85/85/85 86/86/86
f 81/81/81 86/86/86 82/82/82
f 87/87/87 83/83/83 67/67/67
f 87/87/87 67/67/67 75/75/75
f 87/87/87 75/75/75 74/74/74
f 87/87/87 74/74/74 88/88/88
f 87/87/87 88/88/88 89/89/89
f 87/87/87 89/89/89 90/90/90
f 87/87/87 90/90/90 84/84/84
f 87/87/87 84/84/84 83/83/83
f 91/91/91 92/92/92 38/38/38
f 91/91/91 38/38/38 37/37/37
f 91/91/91 37/37/37 18/18/18
f 91/91/91 18/18/18 93/93/93
f 91/91/91 93/93/93 69/69/69
f 91/91/91 69/69/69 82/82/82
f 91/91/91 82/82/82 94/94/94
f 91/91/91 94/94/94 92/92/92
f 95/95/95 96/96/96 44/44/44
f 95/95/95 44/44/44 43/43/43
f 95/95/95 43/43/43 40/40/40
f 95/95/95 40/40/40 97/97/97
f 95/95/95 97/97/97 84/84/84
f 95/95/95 84/84/84 90/90/90
f 95/95/95 90/90/90 98/98/98
f 95/95/95 98/98/98 96/96/96
f 99/99/99 100/100/100 7/7/7
f 99/99/99 7/7/7 6/6/6
f 99/99/99 6/6/6 5/5/5
f 99/99/99 5/5/5 101/101/101
f 99/99/99 101/101/101 52/52/52
f 99/99/99 52/52/52 51/51/51
f 99/99/99 51/51/51 102/102/102
f 99/99/99 102/102/102 100/100/100
f 103/103/103 104/104/104 15/15/15
f 103/103/103 15/15/15 14/14/14
f 103/103/103 14/14/14 9/9/9
f 103/103/103 9/9/9 105/105/105
f 103/103/103 105/105/105 48/48/48
f 103/103/103 48/48/48 58/58/58
f 103/103/103 58/58/58 106/106/106
f 103/103/103 106/106/106 104/104/104
f 107/107/107 108/108/108 12/12/12
f 107/107/107 12/12/12 11/11/11
f 107/107/107 11/11/11 15/15/15
f 107/107/107 15/15/15 104/104/104
f 107/107/107 104/104/104 106/106/106
f 107/107/107 106/106/106 56/56/56
f 107/107/107 56/56/56 60/60/60
f 107/107/107 60/60/60 108/108/108
f 109/109/109 97/97/97 40/40/40
f 109/109/109 40/40/40 39/39/39
f 109/109/109 39/39/39 38/38/38
f 109/109/109 38/38/38 92/92/92
f 109/109/109 92/92/92 94/94/94
f 109/109/109 94/94/94 85/85/85
f 109/109/109 85/85/85 84/84/84
f 109/109/109 84/84/84 97/97/97
f 110/110/110 111/111/111 27/27/27
f 110/110/110 27/27/27 45/45/45
f 110/110/110 45/45/45 44/44/44
f 110/110/110 44/44/44 96/96/96
f 110/110/110 96/96/96 98/98/98
f 110/110/110 98/98/98 88/88/88
f 110/110/110 88/88/88 74/74/74
f 110/110/110 74/74/74 111/111/111
f 112/112/112 105/105/105 9/9/9
f 112/112/112 9/9/9 8/8/8
f 112/112/112 8/8/8 7/7/7
f 112/112/112 7/7/7 100/100/100
f 112/112/112 100/100/100 102/102/102
f 112/112/112 102/102/102 49/49/49
f 112/112/112 49/49/49 48/48/48
f 112/112/112 48/48/48 105/105/105
f 113/113/113 101/101/101 5/5/5
f 113/113/113 5/5/5 33/33/33
f 113/113/113 33/33/33 29/29/29
f 113/113/113 29/29/29 114/114/114
f 113/113/113 114/114/114 72/72/72
f 113/113/113 72/72/72 78/78/78
f 113/113/113 78/78/78 52/52/52
f 113/113/113 52/52/52 101/101/101
f 115/115/115 116/116/116 24/24/24
f 115/115/115 24/24/24 35/35/35
f 115/115/115 35/35/35 12/12/12
f 115/115/115 12/12/12 108/108/108
f 115/115/115 108/108/108 60/60/60
f 115/115/115 60/60/60 80/80/80
f 115/115/115 80/80/80 63/63/63
f 115/115/115 63/63/63 116/116/116
f 117/117/117 93/93/93 18/18/18
f 117/117/117 18/18/18 17/17/17
f 117/117/117 17/17/17 24/24/24
f 117/117/117 24/24/24 116/116/116
f 117/117/117 116/116/116 63/63/63
f 117/117/117 63/63/63 62/62/62
f 117/117/117 62/62/62 69/69/69
f 117/117/117 69/69/69 93/93/93
f 118/118/118 114/114/114 29/29/29
f 118/118/118 29/29/29 28/28/28
f 118/118/118 28/28/28 27/27/27
f 118/118/118 27/27/27 111/111/111
f 118/118/118 111/111/111 74/74/74
f 118/118/118 74/74/74 73/73/73
f 118/118/118 73/73/73 72/72/72
f 118/118/118 72/72/72 114/114/114
