v -2.444946 0.740369 -1.072605
v -2.443870 0.740690 -1.071080
v -2.442133 0.740244 -1.072850
v -2.443542 0.739879 -1.074370
v -2.444538 0.739754 -1.075655
v -2.445576 0.740257 -1.074017
v -2.445964 0.740476 -1.072712
v -2.445882 0.740642 -1.071278
v -2.445136 0.740934 -1.069755
v -2.442314 0.741415 -1.070284
v -2.440960 0.742091 -1.069947
v -2.439295 0.741838 -1.071032
v -2.440551 0.741068 -1.071732
v -2.443604 0.741547 -1.069269
v -2.442226 0.741962 -1.069416
v -2.435102 0.738379 -1.076766
v -2.433966 0.738984 -1.075907
v -2.432437 0.737579 -1.077659
v -2.433445 0.737035 -1.078412
v -2.434764 0.736401 -1.079474
v -2.436591 0.737671 -1.077975
v -2.438432 0.738777 -1.076386
v -2.436873 0.739534 -1.075129
v -2.435683 0.740193 -1.074245
v -2.438033 0.737214 -1.079350
v -2.436037 0.736005 -1.080697
v -2.436980 0.735774 -1.081664
v -2.439102 0.736943 -1.080435
v -2.441056 0.738058 -1.078982
v -2.439939 0.738316 -1.077833
v -2.441825 0.739199 -1.076143
v -2.440300 0.739620 -1.074648
v -2.442950 0.739008 -1.077349
v -2.438714 0.740436 -1.073400
v -2.437498 0.741174 -1.072542
v -2.431948 0.735567 -1.080170
v -2.431187 0.736009 -1.079632
v -2.430688 0.734989 -1.080843
v -2.430887 0.734400 -1.081515
v -2.431573 0.734022 -1.082021
v -2.432939 0.735067 -1.080944
v -2.433882 0.734798 -1.081875
v -2.432212 0.733873 -1.082684
v -2.433073 0.734041 -1.082946
v -2.434579 0.734661 -1.082623
v -2.444953 0.740178 -1.072553
v -2.443858 0.740505 -1.071011
v -2.445124 0.740795 -1.069705
v -2.445886 0.740498 -1.071242
v -2.445972 0.740369 -1.072689
v -2.445592 0.740112 -1.073987
v -2.444556 0.739611 -1.075619
v -2.443553 0.739690 -1.074311
v -2.442126 0.740060 -1.072775
v -2.442282 0.741240 -1.070198
v -2.440927 0.741966 -1.069874
v -2.442203 0.741867 -1.069365
v -2.443577 0.741416 -1.069206
v -2.440527 0.740893 -1.071642
v -2.439268 0.741712 -1.070957
v -2.435108 0.738213 -1.076656
v -2.433965 0.738863 -1.075819
v -2.435675 0.740069 -1.074161
v -2.436871 0.739365 -1.075026
v -2.438443 0.738601 -1.076294
v -2.436610 0.737500 -1.077875
v -2.434789 0.736233 -1.079370
v -2.433457 0.736872 -1.078297
v -2.432440 0.737460 -1.077568
v -2.438065 0.737038 -1.079263
v -2.439964 0.738136 -1.077753
v -2.441081 0.737921 -1.078928
v -2.439132 0.736809 -1.080376
v -2.437014 0.735643 -1.081601
v -2.436074 0.735832 -1.080605
v -2.441842 0.739015 -1.076073
v -2.440301 0.739440 -1.074565
v -2.442971 0.738867 -1.077304
v -2.438700 0.740263 -1.073303
v -2.437480 0.741049 -1.072463
v -2.431961 0.735407 -1.080053
v -2.431190 0.735893 -1.079539
v -2.432965 0.734901 -1.080838
v -2.431593 0.733897 -1.081942
v -2.430896 0.734280 -1.081427
v -2.430692 0.734901 -1.080775
v -2.433922 0.734627 -1.081782
v -2.434616 0.734531 -1.082560
v -2.433099 0.733945 -1.082897
v -2.432243 0.733745 -1.082615
v -2.430933 0.736106 -1.079410
v -2.430329 0.734723 -1.081125
v -2.432101 0.737708 -1.077367
v -2.430692 0.734901 -1.080775
v -2.431669 0.733508 -1.082923
v -2.432719 0.733773 -1.083232
v -2.431127 0.733618 -1.082345
v -2.433099 0.733945 -1.082897
v -2.445795 0.740155 -1.074477
v -2.446195 0.740471 -1.072783
v -2.444880 0.739648 -1.076070
v -2.445972 0.740369 -1.072689
v -2.444021 0.741533 -1.068903
v -2.442151 0.742078 -1.069217
v -2.445552 0.740954 -1.069292
v -2.442203 0.741867 -1.069365
v -2.440492 0.742262 -1.069800
v -2.438863 0.742040 -1.070763
v -2.430537 0.733958 -1.081925
v -2.434829 0.734557 -1.082846
v -2.437310 0.735638 -1.081960
v -2.446196 0.740669 -1.070820
v -2.443336 0.738881 -1.077733
v -2.441441 0.737910 -1.079342
v -2.437083 0.741366 -1.072220
v -2.435282 0.740358 -1.073911
v -2.433586 0.739132 -1.075580
v -2.439473 0.736793 -1.080772
vn 0.071400 0.980800 -0.181300
vn -0.101000 0.944900 -0.311300
vn -0.059700 0.933700 -0.353100
vn 0.096000 0.966200 -0.238900
vn 0.106600 0.959000 -0.262500
vn 0.065900 0.980100 -0.187200
vn 0.036000 0.990400 -0.133500
vn -0.021400 0.989500 -0.142600
vn -0.164900 0.955700 -0.243800
vn -0.239900 0.857100 -0.455800
vn -0.234100 0.860800 -0.451800
vn -0.158200 0.853800 -0.496000
vn -0.182200 0.855700 -0.484300
vn -0.275600 0.888500 -0.366900
vn -0.286200 0.862300 -0.417700
vn 0.037400 0.813300 -0.580600
vn 0.070200 0.823000 -0.563700
vn 0.094400 0.809000 -0.580200
vn 0.054400 0.795100 -0.604000
vn 0.146000 0.829300 -0.539400
vn 0.116900 0.849000 -0.515200
vn 0.057800 0.883900 -0.464000
vn -0.024800 0.839500 -0.542700
vn 0.006900 0.843200 -0.537500
vn 0.193700 0.875400 -0.442800
vn 0.222000 0.861700 -0.456200
vn 0.193300 0.848300 -0.492900
vn 0.173300 0.864000 -0.472700
vn 0.143300 0.897400 -0.417300
vn 0.150500 0.909200 -0.388100
vn 0.113800 0.943300 -0.311700
vn -0.007800 0.914900 -0.403500
vn 0.120300 0.932500 -0.340400
vn -0.107200 0.855500 -0.506500
vn -0.076800 0.854200 -0.514200
vn 0.045300 0.778300 -0.626300
vn 0.091300 0.791800 -0.603900
vn 0.079400 0.771400 -0.631400
vn 0.067400 0.740500 -0.668600
vn 0.197600 0.790100 -0.580200
vn 0.159600 0.819500 -0.550300
vn 0.249600 0.859400 -0.446100
vn 0.302900 0.834100 -0.460900
vn 0.256000 0.841600 -0.475500
vn 0.222200 0.843800 -0.488400
vn -0.107700 -0.978000 0.178400
vn 0.089700 -0.942200 0.322900
vn 0.045600 -0.929000 0.367100
vn -0.214200 -0.962700 0.165300
vn -0.314900 -0.943900 0.099100
vn -0.291500 -0.950200 0.110200
vn -0.243400 -0.956300 0.162000
vn -0.108100 -0.967300 0.229400
vn 0.059800 -0.933700 0.353000
vn 0.242600 -0.838800 0.487400
vn 0.299400 -0.715500 0.631200
vn 0.307700 -0.696500 0.648200
vn 0.251800 -0.777400 0.576400
vn 0.191700 -0.848100 0.493800
vn 0.253200 -0.758900 0.599900
vn -0.024800 -0.807700 0.589100
vn 0.063900 -0.763100 0.643000
vn 0.108900 -0.779300 0.617100
vn 0.035900 -0.833700 0.551000
vn -0.057900 -0.883900 0.464100
vn -0.117000 -0.849000 0.515300
vn -0.146100 -0.829300 0.539400
vn -0.038200 -0.789400 0.612700
vn 0.080500 -0.750100 0.656400
vn -0.204200 -0.879000 0.430800
vn -0.160900 -0.911900 0.377500
vn -0.245900 -0.920300 0.304200
vn -0.274700 -0.897700 0.344400
vn -0.292900 -0.898400 0.327200
vn -0.232800 -0.866700 0.441100
vn -0.124300 -0.945300 0.301600
vn 0.007800 -0.914900 0.403500
vn -0.229300 -0.944900 0.233600
vn 0.117400 -0.849200 0.514800
vn 0.182700 -0.781200 0.597000
vn -0.012800 -0.777200 0.629100
vn 0.144100 -0.736700 0.660700
vn -0.151300 -0.825500 0.543700
vn -0.114800 -0.850400 0.513400
vn 0.089400 -0.775500 0.624900
vn 0.185900 -0.729600 0.658100
vn -0.253600 -0.872900 0.416800
vn -0.304400 -0.914900 0.265100
vn -0.306300 -0.925200 0.224000
vn -0.254000 -0.912000 0.322100
vn 0.933000 0.249500 0.259500
vn 0.995000 0.041600 -0.090400
vn 0.869100 0.301200 0.392100
vn 0.185900 -0.729600 0.658100
vn 0.495300 -0.505800 -0.706300
vn 0.033000 -0.341100 -0.939500
vn 0.655900 -0.580000 -0.483100
vn -0.306300 -0.925200 0.224000
vn -0.883000 0.114800 -0.455000
vn -0.971400 0.182500 -0.151500
vn -0.785900 0.022600 -0.617900
vn -0.314900 -0.943900 0.099100
vn -0.251200 0.360400 0.898300
vn 0.095300 0.606500 0.789300
vn -0.679500 0.094000 0.727600
vn 0.307700 -0.696500 0.648200
vn 0.396700 0.623500 0.673700
vn 0.579800 0.565500 0.586500
vn 0.834500 -0.371200 -0.407100
vn -0.370600 -0.267800 -0.889300
vn -0.510800 -0.246200 -0.823700
vn -0.958300 0.079300 0.274500
vn -0.706400 -0.066600 -0.704600
vn -0.658800 -0.130100 -0.740900
vn 0.693100 0.489500 0.529100
vn 0.750600 0.429900 0.501800
vn 0.801800 0.367400 0.471200
vn -0.607100 -0.192200 -0.771000
vt 0.839504 0.118056
vt 0.856743 0.205307
vt 0.741230 0.205307
vt 0.734555 0.106726
vt 0.724541 0.032791
vt 0.813647 0.052618
vt 0.868992 0.081539
vt 0.913398 0.129584
vt 0.940923 0.205307
vt 0.839504 0.292557
vt 0.813647 0.357995
vt 0.724541 0.377822
vt 0.734555 0.303887
vt 0.913398 0.281029
vt 0.868992 0.329074
vt 0.369475 0.299954
vt 0.368286 0.370940
vt 0.245840 0.351447
vt 0.246397 0.288815
vt 0.246768 0.205307
vt 0.370268 0.205307
vt 0.494283 0.205307
vt 0.492822 0.304944
vt 0.490632 0.379672
vt 0.369475 0.110659
vt 0.246397 0.121798
vt 0.245841 0.059166
vt 0.368286 0.039673
vt 0.490632 0.030941
vt 0.492822 0.105669
vt 0.616755 0.103478
vt 0.619174 0.205307
vt 0.613127 0.027106
vt 0.616755 0.307135
vt 0.613126 0.383507
vt 0.123273 0.268175
vt 0.123047 0.315326
vt 0.054743 0.283353
vt 0.030912 0.249131
vt 0.030973 0.205306
vt 0.123423 0.205306
vt 0.123273 0.142438
vt 0.030912 0.161481
vt 0.054744 0.127260
vt 0.123047 0.095287
vt 0.839504 0.118056
vt 0.856743 0.205307
vt 0.968983 0.205307
vt 0.938030 0.133427
vt 0.876123 0.061548
vt 0.805028 0.030806
vt 0.721203 0.008146
vt 0.734555 0.106726
vt 0.741230 0.205307
vt 0.839504 0.292557
vt 0.805028 0.379807
vt 0.876123 0.349065
vt 0.938030 0.277186
vt 0.734555 0.303887
vt 0.721203 0.402467
vt 0.369475 0.299954
vt 0.367890 0.394602
vt 0.489902 0.404581
vt 0.492822 0.304944
vt 0.494283 0.205307
vt 0.370268 0.205307
vt 0.246768 0.205307
vt 0.246397 0.288815
vt 0.245655 0.372324
vt 0.369475 0.110659
vt 0.492822 0.105669
vt 0.489902 0.006032
vt 0.367890 0.016011
vt 0.245655 0.038289
vt 0.246397 0.121798
vt 0.616755 0.103478
vt 0.619174 0.205307
vt 0.611917 0.001649
vt 0.616755 0.307135
vt 0.611917 0.408964
vt 0.123273 0.268175
vt 0.122972 0.331043
vt 0.123423 0.205306
vt 0.000156 0.205306
vt 0.000125 0.242784
vt 0.000064 0.280261
vt 0.123273 0.142438
vt 0.122972 0.079570
vt 0.000064 0.130352
vt 0.000125 0.167829
vt 0.122972 0.331043
vt 0.030806 0.283587
vt 0.245655 0.372324
vt 0.030806 0.283587
vt 0.000125 0.167829
vt 0.030806 0.127026
vt 0.000156 0.205306
vt 0.030806 0.127026
vt 0.805028 0.030806
vt 0.873826 0.071832
vt 0.721203 0.008146
vt 0.873826 0.071832
vt 0.938030 0.277186
vt 0.873826 0.338781
vt 0.968983 0.205307
vt 0.873826 0.338781
vt 0.805028 0.379807
vt 0.721203 0.402467
vt 0.000125 0.242784
vt 0.122972 0.079570
vt 0.245655 0.038289
vt 0.938030 0.133427
vt 0.611917 0.001649
vt 0.489902 0.006032
vt 0.611917 0.408964
vt 0.489902 0.404581
vt 0.367890 0.394602
vt 0.367890 0.016011
f 1/1/1 2/2/2 3/3/3
f 1/1/1 3/3/3 4/4/4
f 1/1/1 4/4/4 5/5/5
f 1/1/1 5/5/5 6/6/6
f 1/1/1 6/6/6 7/7/7
f 1/1/1 7/7/7 8/8/8
f 1/1/1 8/8/8 9/9/9
f 1/1/1 9/9/9 2/2/2
f 10/10/10 11/11/11 12/12/12
f 10/10/10 12/12/12 13/13/13
f 10/10/10 13/13/13 3/3/3
f 10/10/10 3/3/3 2/2/2
f 10/10/10 2/2/2 9/9/9
f 10/10/10 9/9/9 14/14/14
f 10/10/10 14/14/14 15/15/15
f 10/10/10 15/15/15 11/11/11
f 16/16/16 17/17/17 18/18/18
f 16/16/16 18/18/18 19/19/19
f 16/16/16 19/19/19 20/20/20
f 16/16/16 20/20/20 21/21/21
f 16/16/16 21/21/21 22/22/22
f 16/16/16 22/22/22 23/23/23
f 16/16/16 23/23/23 24/24/24
f 16/16/16 24/24/24 17/17/17
f 25/25/25 21/21/21 20/20/20
f 25/25/25 20/20/20 26/26/26
f 25/25/25 26/26/26 27/27/27
f 25/25/25 27/27/27 28/28/28
f 25/25/25 28/28/28 29/29/29
f 25/25/25 29/29/29 30/30/30
f 25/25/25 30/30/30 22/22/22
f 25/25/25 22/22/22 21/21/21
f 31/31/31 32/32/32 22/22/22
f 31/31/31 22/22/22 30/30/30
f 31/31/31 30/30/30 29/29/29
f 31/31/31 29/29/29 33/33/33
f 31/31/31 33/33/33 5/5/5
f 31/31/31 5/5/5 4/4/4
f 31/31/31 4/4/4 3/3/3
f 31/31/31 3/3/3 32/32/32
f 34/34/34 35/35/35 24/24/24
f 34/34/34 24/24/24 23/23/23
f 34/34/34 23/23/23 22/22/22
f 34/34/34 22/22/22 32/32/32
f 34/34/34 32/32/32 3/3/3
f 34/34/34 3/3/3 13/13/13
f 34/34/34 13/13/13 12/12/12
f 34/34/34 12/12/12 35/35/35
f 36/36/36 37/37/37 38/38/38
f 36/36/36 38/38/38 39/39/39
f 36/36/36 39/39/39 40/40/40
f 36/36/36 40/40/40 41/41/41
f 36/36/36 41/41/41 20/20/20
f 36/36/36 20/20/20 19/19/19
f 36/36/36 19/19/19 18/18/18
f 36/36/36 18/18/18 37/37/37
f 42/42/42 41/41/41 40/40/40
f 42/42/42 40/40/40 43/43/43
f 42/42/42 43/43/43 44/44/44
f 42/42/42 44/44/44 45/45/45
f 42/42/42 45/45/45 27/27/27
f 42/42/42 27/27/27 26/26/26
f 42/42/42 26/26/26 20/20/20
f 42/42/42 20/20/20 41/41/41
f 46/46/46 47/47/47 48/48/48
f 46/46/46 48/48/48 49/49/49
f 46/46/46 49/49/49 50/50/50
f 46/46/46 50/50/50 51/51/51
f 46/46/46 51/51/51 52/52/52
f 46/46/46 52/52/52 53/53/53
f 46/46/46 53/53/53 54/54/54
f 46/46/46 54/54/54 47/47/47
f 55/55/55 56/56/56 57/57/57
f 55/55/55 57/57/57 58/58/58
f 55/55/55 58/58/58 48/48/48
f 55/55/55 48/48/48 47/47/47
f 55/55/55 47/47/47 54/54/54
f 55/55/55 54/54/54 59/59/59
f 55/55/55 59/59/59 60/60/60
f 55/55/55 60/60/60 56/56/56
f 61/61/61 62/62/62 63/63/63
f 61/61/61 63/63/63 64/64/64
f 61/61/61 64/64/64 65/65/65
f 61/61/61 65/65/65 66/66/66
f 61/61/61 66/66/66 67/67/67
f 61/61/61 67/67/67 68/68/68
f 61/61/61 68/68/68 69/69/69
f 61/61/61 69/69/69 62/62/62
f 70/70/70 66/66/66 65/65/65
f 70/70/70 65/65/65 71/71/71
f 70/70/70 71/71/71 72/72/72
f 70/70/70 72/72/72 73/73/73
f 70/70/70 73/73/73 74/74/74
f 70/70/70 74/74/74 75/75/75
f 70/70/70 75/75/75 67/67/67
f 70/70/70 67/67/67 66/66/66
f 76/76/76 77/77/77 54/54/54
f 76/76/76 54/54/54 53/53/53
f 76/76/76 53/53/53 52/52/52
f 76/76/76 52/52/52 78/78/78
f 76/76/76 78/78/78 72/72/72
f 76/76/76 72/72/72 71/71/71
f 76/76/76 71/71/71 65/65/65
f 76/76/76 65/65/65 77/77/77
f 79/79/79 80/80/80 60/60/60
f 79/79/79 60/60/60 59/59/59
f 79/79/79 59/59/59 54/54/54
f 79/79/79 54/54/54 77/77/77
f 79/79/79 77/77/77 65/65/65
f 79/79/79 65/65/65 64/64/64
f 79/79/79 64/64/64 63/63/63
f 79/79/79 63/63/63 80/80/80
f 81/81/81 82/82/82 69/69/69
f 81/81/81 69/69/69 68/68/68
f 81/81/81 68/68/68 67/67/67
f 81/81/81 67/67/67 83/83/83
f 81/81/81 83/83/83 84/84/84
f 81/81/81 84/84/84 85/85/85
f 81/81/81 85/85/85 86/86/86
f 81/81/81 86/86/86 82/82/82
f 87/87/87 83/83/83 67/67/67
f 87/87/87 67/67/67 75/75/75
f 87/87/87 75/75/75 74/74/74
f 87/87/87 74/74/74 88/88/88
f 87/87/87 88/88/88 89/89/89
f 87/87/87 89/89/89 90/90/90
f 87/87/87 90/90/90 84/84/84
f 87/87/87 84/84/84 83/83/83
f 91/91/91 92/92/92 38/38/38
f 91/91/91 38/38/38 37/37/37
f 91/91/91 37/37/37 18/18/18
f 91/91/91 18/18/18 93/93/93
f 91/91/91 93/93/93 69/69/69
f 91/91/91 69/69/69 82/82/82
f 91/91/91 82/82/82 94/94/94
f 91/91/91 94/94/94 92/92/92
f 95/95/95 96/96/96 44/44/44
f 95/95/95 44/44/44 43/43/43
f 95/95/95 43/43/43 40/40/40
f 95/95/95 40/40/40 97/97/97
f 95/95/95 97/97/97 84/84/84
f 95/95/95 84/84/84 90/90/90
f 95/95/95 90/90/90 98/98/98
f 95/95/95 98/98/98 96/96/96
f 99/99/99 100/100/100 7/7/7
f 99/99/99 7/7/7 6/6/6
f 99/99/99 6/6/6 5/5/5
f 99/99/99 5/5/5 101/101/101
f 99/99/99 101/101/101 52/52/52
f 99/99/99 52/52/52 51/51/51
f 99/99/99 51/51/51 102/102/102
f 99/99/99 102/102/102 100/100/100
f 103/103/103 104/104/104 15/15/15
f 103/103/103 15/15/15 14/14/14
f 103/103/103 14/14/14 9/9/9
f 103/103/103 9/9/9 105/105/105
f 103/103/103 105/105/105 48/48/48
f 103/103/103 48/48/48 58/58/58
f 103/103/103 58/58/58 106/106/106
f 103/103/103 106/106/106 104/104/104
f 107/107/107 108/108/108 12/12/12
f 107/107/107 12/12/12 11/11/11
f 107/107/107 11/11/11 15/15/15
f 107/107/107 15/15/15 104/104/104
f 107/107/107 104/104/104 106/106/106
f 107/107/107 106/106/106 56/56/56
f 107/107/107 56/56/56 60/60/60
f 107/107/107 60/60/60 108/108/108
f 109/109/109 97/97/97 40/40/40
f 109/109/109 40/40/40 39/39/39
f 109/109/109 39/39/39 38/38/38
f 109/109/109 38/38/38 92/92/92
f 109/109/109 92/92/92 94/94/94
f 109/109/109 94/94/94 85/85/85
f 109/109/109 85/85/85 84/84/84
f 109/109/109 84/84/84 97/97/97
f 110/110/110 111/111/111 27/27/27
f 110/110/110 27/27/27 45/45/45
f 110/110/110 45/45/45 44/44/44
f 110/110/110 44/44/44 96/96/96
f 110/110/110 96/96/96 98/98/98
f 110/110/110 98/98/98 88/88/88
f 110/110/110 88/88/88 74/74/74
f 110/110/110 74/74/74 111/111/111
f 112/112/112 105/105/105 9/9/9
f 112/112/112 9/9/9 8/8/8
f 112/112/112 8/8/8 7/7/7
f 112/112/112 7/7/7 100/100/100
f 112/112/112 100/100/100 102/102/102
f 112/112/112 102/102/102 49/49/49
f 112/112/112 49/49/49 48/48/48
f 112/112/112 48/48/48 105/105/105
f 113/113/113 101/101/101 5/5/5
f 113/113/113 5/5/5 33/33/33
f 113/113/113 33/33/33 29/29/29
f 113/113/113 29/29/29 114/114/114
f 113/113/113 114/114/114 72/72/72
f 113/113/113 72/72/72 78/78/78
f 113/113/113 78/78/78 52/52/52
f 113/113/113 52/52/52 101/101/101
f 115/115/115 116/116/116 24/24/24
f 115/115/115 24/24/24 35/35/35
f 115/115/115 35/35/35 12/12/12
f 115/115/115 12/12/12 108/108/108
f 115/115/115 108/108/108 60/60/60
f 115/115/115 60/60/60 80/80/80
f 115/115/115 80/80/80 63/63/63
f 115/115/115 63/63/63 116/116/116
f 117/117/117 93/93/93 18/18/18
f 117/117/117 18/18/18 17/17/17
f 117/117/117 17/17/17 24/24/24
f 117/117/117 24/24/24 116/116/116
f 117/117/117 116/116/116 63/63/63
f 117/117/117 63/63/63 62/62/62
f 117/117/117 62/62/62 69/69/69
f 117/117/117 69/69/69 93/93/93
f 118/118/118 114/114/114 29/29/29
f 118/118/118 29/29/29 28/28/28
f 118/118/118 28/28/28 27/27/27
f 118/118/118 27/27/27 111/111/111
f 118/118/118 111/111/111 74/74/74
f 118/118/118 74/74/74 73/73/73
f 118/118/118 73/73/73 72/72/72
f 118/118/118 72/72/72 114/114/114
