v -2.423607 0.748414 -1.156631
v -2.424733 0.748445 -1.158131
v -2.425934 0.746857 -1.156624
v -2.424501 0.746957 -1.155113
v -2.423548 0.747097 -1.153815
v -2.422969 0.748356 -1.155235
v -2.422789 0.748990 -1.156432
v -2.422988 0.749370 -1.157799
v -2.423819 0.749541 -1.159278
v -2.426450 0.748429 -1.158884
v -2.427956 0.748383 -1.159185
v -2.429214 0.747126 -1.158302
v -2.427733 0.746974 -1.157673
v -2.425449 0.749383 -1.159749
v -2.426828 0.749011 -1.159631
v -2.430866 0.741022 -1.153690
v -2.432166 0.741128 -1.154495
v -2.432707 0.738849 -1.153168
v -2.431551 0.738751 -1.152464
v -2.430073 0.738673 -1.151453
v -2.429202 0.740937 -1.152538
v -2.428240 0.743091 -1.153739
v -2.429989 0.743191 -1.154932
v -2.431363 0.743320 -1.155757
v -2.427699 0.741005 -1.151181
v -2.428750 0.738736 -1.150246
v -2.427799 0.738824 -1.149281
v -2.426617 0.741099 -1.150100
v -2.425559 0.743289 -1.151159
v -2.426676 0.743174 -1.152309
v -2.425567 0.745184 -1.153646
v -2.427127 0.745068 -1.155131
v -2.424474 0.745348 -1.152427
v -2.428929 0.745202 -1.156308
v -2.430364 0.745379 -1.157092
v -2.432032 0.736435 -1.151141
v -2.432921 0.736529 -1.151637
v -2.432794 0.735191 -1.150688
v -2.432307 0.734668 -1.150130
v -2.431515 0.734595 -1.149659
v -2.430912 0.736360 -1.150410
v -2.429942 0.736424 -1.149486
v -2.430875 0.734660 -1.148996
v -2.430217 0.735178 -1.148647
v -2.429256 0.736510 -1.148734
v -2.423506 0.748269 -1.156716
v -2.424653 0.748298 -1.158233
v -2.423760 0.749429 -1.159353
v -2.422912 0.749259 -1.157860
v -2.422729 0.748909 -1.156474
v -2.422883 0.748249 -1.155290
v -2.423462 0.746993 -1.153876
v -2.424398 0.746817 -1.155204
v -2.425850 0.746715 -1.156731
v -2.426392 0.748284 -1.159002
v -2.427923 0.748276 -1.159282
v -2.426802 0.748931 -1.159699
v -2.425408 0.749273 -1.159837
v -2.427669 0.746834 -1.157794
v -2.429175 0.747023 -1.158400
v -2.430781 0.740909 -1.153826
v -2.432109 0.741044 -1.154602
v -2.431310 0.743229 -1.155861
v -2.429909 0.743069 -1.155064
v -2.428144 0.742968 -1.153860
v -2.429102 0.740824 -1.152665
v -2.429971 0.738566 -1.151583
v -2.431462 0.738644 -1.152605
v -2.432648 0.738770 -1.153278
v -2.427586 0.740892 -1.151297
v -2.426567 0.743052 -1.152418
v -2.425470 0.743198 -1.151235
v -2.426526 0.741014 -1.150180
v -2.427706 0.738744 -1.149364
v -2.428634 0.738629 -1.150365
v -2.425462 0.745052 -1.153746
v -2.427037 0.744935 -1.155245
v -2.424387 0.745250 -1.152495
v -2.428856 0.745070 -1.156434
v -2.430318 0.745282 -1.157193
v -2.431944 0.736331 -1.151284
v -2.432863 0.736452 -1.151749
v -2.430808 0.736256 -1.150541
v -2.431438 0.734517 -1.149758
v -2.432241 0.734590 -1.150238
v -2.432749 0.735134 -1.150770
v -2.429825 0.736320 -1.149605
v -2.429161 0.736432 -1.148817
v -2.430148 0.735120 -1.148710
v -2.430786 0.734582 -1.149085
v -2.433193 0.736526 -1.151853
v -2.432957 0.734735 -1.150490
v -2.433068 0.738847 -1.153453
v -2.432749 0.735134 -1.150770
v -2.431146 0.734038 -1.148872
v -2.430375 0.734722 -1.148445
v -2.431682 0.733972 -1.149453
v -2.430148 0.735120 -1.148710
v -2.422715 0.748290 -1.154792
v -2.422587 0.749087 -1.156347
v -2.423190 0.747097 -1.153408
v -2.422729 0.748909 -1.156474
v -2.425098 0.749651 -1.160076
v -2.426957 0.749110 -1.159808
v -2.423488 0.749857 -1.159693
v -2.426802 0.748931 -1.159699
v -2.428446 0.748320 -1.159330
v -2.429692 0.747132 -1.158557
v -2.432370 0.734044 -1.149841
v -2.428983 0.736504 -1.148519
v -2.427440 0.738817 -1.148995
v -2.422748 0.749639 -1.158215
v -2.424068 0.745360 -1.152050
v -2.425145 0.743288 -1.150808
v -2.430824 0.745395 -1.157400
v -2.431799 0.743323 -1.156079
v -2.432576 0.741126 -1.154812
v -2.426214 0.741093 -1.149774
vn -0.554200 0.752300 0.356100
vn -0.383500 0.783200 0.489400
vn -0.412000 0.744600 0.525200
vn -0.566200 0.716200 0.407900
vn -0.570900 0.700100 0.428900
vn -0.548800 0.753400 0.362100
vn -0.530100 0.787800 0.313600
vn -0.480100 0.814100 0.326700
vn -0.336200 0.837800 0.430100
vn -0.214800 0.750600 0.624900
vn -0.221800 0.751700 0.621100
vn -0.282100 0.698600 0.657500
vn -0.262700 0.714700 0.648200
vn -0.202800 0.812500 0.546500
vn -0.178700 0.785900 0.592000
vn -0.427300 0.549200 0.718200
vn -0.460800 0.544100 0.701100
vn -0.474100 0.516900 0.712800
vn -0.431800 0.520600 0.736500
vn -0.530100 0.516100 0.672700
vn -0.515800 0.552200 0.655000
vn -0.484400 0.621500 0.615700
vn -0.388200 0.610100 0.690600
vn -0.417500 0.598300 0.683900
vn -0.597600 0.550100 0.583200
vn -0.614600 0.521600 0.591700
vn -0.581900 0.517500 0.627300
vn -0.573400 0.544800 0.611900
vn -0.566200 0.599000 0.566100
vn -0.579400 0.611100 0.539200
vn -0.567600 0.673500 0.473500
vn -0.445600 0.692600 0.567200
vn -0.566600 0.655500 0.499200
vn -0.326500 0.672200 0.664400
vn -0.351800 0.654300 0.669300
vn -0.414600 0.506700 0.755900
vn -0.461700 0.499300 0.733100
vn -0.440100 0.482800 0.757000
vn -0.413200 0.455400 0.788600
vn -0.553300 0.449000 0.701600
vn -0.536500 0.498800 0.680700
vn -0.637500 0.507800 0.579400
vn -0.670000 0.456800 0.585100
vn -0.632900 0.483800 0.604400
vn -0.604600 0.500000 0.619900
vn 0.584200 -0.732200 -0.350000
vn 0.391500 -0.772800 -0.499500
vn 0.421400 -0.730800 -0.537000
vn 0.668700 -0.668100 -0.326300
vn 0.747800 -0.614900 -0.250500
vn 0.730200 -0.630000 -0.264300
vn 0.690400 -0.648900 -0.319700
vn 0.577400 -0.712900 -0.397900
vn 0.412000 -0.744600 -0.525200
vn 0.202100 -0.730200 -0.652600
vn 0.086000 -0.626600 -0.774600
vn 0.068600 -0.611500 -0.788300
vn 0.160200 -0.665700 -0.728800
vn 0.250400 -0.711200 -0.656900
vn 0.148900 -0.646000 -0.748600
vn 0.413200 -0.549100 -0.726400
vn 0.312400 -0.545600 -0.777600
vn 0.282800 -0.587100 -0.758500
vn 0.375400 -0.609100 -0.698500
vn 0.484500 -0.621300 -0.615800
vn 0.515900 -0.552000 -0.655000
vn 0.530100 -0.516000 -0.672800
vn 0.414700 -0.522300 -0.745100
vn 0.291000 -0.540200 -0.789600
vn 0.608900 -0.550200 -0.571400
vn 0.590000 -0.610300 -0.528600
vn 0.669800 -0.589100 -0.452000
vn 0.681900 -0.547500 -0.485000
vn 0.698500 -0.542300 -0.466800
vn 0.626900 -0.523400 -0.577100
vn 0.577900 -0.671800 -0.463300
vn 0.445500 -0.692600 -0.567200
vn 0.670100 -0.632300 -0.388700
vn 0.314200 -0.670500 -0.672100
vn 0.220900 -0.629800 -0.744600
vn 0.386100 -0.521500 -0.760900
vn 0.229300 -0.560100 -0.796000
vn 0.532600 -0.509300 -0.675900
vn 0.514700 -0.554700 -0.653700
vn 0.297400 -0.572400 -0.764100
vn 0.189900 -0.575800 -0.795200
vn 0.648700 -0.522900 -0.552900
vn 0.718600 -0.562800 -0.408300
vn 0.726800 -0.578800 -0.369900
vn 0.671900 -0.574400 -0.467400
vn -0.938000 -0.208000 -0.277300
vn -0.874600 -0.484300 0.022200
vn -0.913500 -0.106100 -0.392600
vn 0.189900 -0.575800 -0.795200
vn -0.146800 -0.815300 0.560000
vn 0.175400 -0.489700 0.854000
vn -0.254800 -0.914100 0.315300
vn 0.726800 -0.578800 -0.369900
vn 0.716000 0.450400 0.533300
vn 0.748100 0.612700 0.254800
vn 0.684200 0.291200 0.668600
vn 0.747800 -0.614900 -0.250500
vn 0.004500 0.608400 -0.793600
vn -0.415600 0.618800 -0.666600
vn 0.513700 0.566200 -0.644600
vn 0.068600 -0.611500 -0.788300
vn -0.680100 0.457900 -0.572500
vn -0.805100 0.299700 -0.511800
vn -0.517100 -0.813300 0.266700
vn 0.483100 -0.215500 0.848600
vn 0.590800 -0.113400 0.798800
vn 0.775400 0.604400 -0.182900
vn 0.663800 0.158700 0.730800
vn 0.656500 0.074900 0.750500
vn -0.862100 0.167400 -0.478300
vn -0.880500 0.082800 -0.466700
vn -0.891900 -0.001300 -0.452300
vn 0.644600 -0.008900 0.764400
vt 0.839504 0.118056
vt 0.856743 0.205307
vt 0.741230 0.205307
vt 0.734555 0.106726
vt 0.724541 0.032791
vt 0.813647 0.052618
vt 0.868992 0.081539
vt 0.913398 0.129584
vt 0.940923 0.205307
vt 0.839504 0.292557
vt 0.813647 0.357995
vt 0.724541 0.377822
vt 0.734555 0.303887
vt 0.913398 0.281029
vt 0.868992 0.329074
vt 0.369475 0.299954
vt 0.368286 0.370940
vt 0.245840 0.351447
vt 0.246397 0.288815
vt 0.246768 0.205307
vt 0.370268 0.205307
vt 0.494283 0.205307
vt 0.492822 0.304944
vt 0.490632 0.379672
vt 0.369475 0.110659
vt 0.246397 0.121798
vt 0.245841 0.059166
vt 0.368286 0.039673
vt 0.490632 0.030941
vt 0.492822 0.105669
vt 0.616755 0.103478
vt 0.619174 0.205307
vt 0.613127 0.027106
vt 0.616755 0.307135
vt 0.613126 0.383507
vt 0.123273 0.268175
vt 0.123047 0.315326
vt 0.054743 0.283353
vt 0.030912 0.249131
vt 0.030973 0.205306
vt 0.123423 0.205306
vt 0.123273 0.142438
vt 0.030912 0.161481
vt 0.054744 0.127260
vt 0.123047 0.095287
vt 0.839504 0.118056
vt 0.856743 0.205307
vt 0.968983 0.205307
vt 0.938030 0.133427
vt 0.876123 0.061548
vt 0.805028 0.030806
vt 0.721203 0.008146
vt 0.734555 0.106726
vt 0.741230 0.205307
vt 0.839504 0.292557
vt 0.805028 0.379807
vt 0.876123 0.349065
vt 0.938030 0.277186
vt 0.734555 0.303887
vt 0.721203 0.402467
vt 0.369475 0.299954
vt 0.367890 0.394602
vt 0.489902 0.404581
vt 0.492822 0.304944
vt 0.494283 0.205307
vt 0.370268 0.205307
vt 0.246768 0.205307
vt 0.246397 0.288815
vt 0.245655 0.372324
vt 0.369475 0.110659
vt 0.492822 0.105669
vt 0.489902 0.006032
vt 0.367890 0.016011
vt 0.245655 0.038289
vt 0.246397 0.121798
vt 0.616755 0.103478
vt 0.619174 0.205307
vt 0.611917 0.001649
vt 0.616755 0.307135
vt 0.611917 0.408964
vt 0.123273 0.268175
vt 0.122972 0.331043
vt 0.123423 0.205306
vt 0.000156 0.205306
vt 0.000125 0.242784
vt 0.000064 0.280261
vt 0.123273 0.142438
vt 0.122972 0.079570
vt 0.000064 0.130352
vt 0.000125 0.167829
vt 0.122972 0.331043
vt 0.030806 0.283587
vt 0.245655 0.372324
vt 0.030806 0.283587
vt 0.000125 0.167829
vt 0.030806 0.127026
vt 0.000156 0.205306
vt 0.030806 0.127026
vt 0.805028 0.030806
vt 0.873826 0.071832
vt 0.721203 0.008146
vt 0.873826 0.071832
vt 0.938030 0.277186
vt 0.873826 0.338781
vt 0.968983 0.205307
vt 0.873826 0.338781
vt 0.805028 0.379807
vt 0.721203 0.402467
vt 0.000125 0.242784
vt 0.122972 0.079570
vt 0.245655 0.038289
vt 0.938030 0.133427
vt 0.611917 0.001649
vt 0.489902 0.006032
vt 0.611917 0.408964
vt 0.489902 0.404581
vt 0.367890 0.394602
vt 0.367890 0.016011
f 1/1/1 2/2/2 3/3/3
f 1/1/1 3/3/3 4/4/4
f 1/1/1 4/4/4 5/5/5
f 1/1/1 5/5/5 6/6/6
f 1/1/1 6/6/6 7/7/7
f 1/1/1 7/7/7 8/8/8
f 1/1/1 8/8/8 9/9/9
f 1/1/1 9/9/9 2/2/2
f 10/10/10 11/11/11 12/12/12
f 10/10/10 12/12/12 13/13/13
f 10/10/10 13/13/13 3/3/3
f 10/10/10 3/3/3 2/2/2
f 10/10/10 2/2/2 9/9/9
f 10/10/10 9/9/9 14/14/14
f 10/10/10 14/14/14 15/15/15
f 10/10/10 15/15/15 11/11/11
f 16/16/16 17/17/17 18/18/18
f 16/16/16 18/18/18 19/19/19
f 16/16/16 19/19/19 20/20/20
f 16/16/16 20/20/20 21/21/21
f 16/16/16 21/21/21 22/22/22
f 16/16/16 22/22/22 23/23/23
f 16/16/16 23/23/23 24/24/24
f 16/16/16 24/24/24 17/17/17
f 25/25/25 21/21/21 20/20/20
f 25/25/25 20/20/20 26/26/26
f 25/25/25 26/26/26 27/27/27
f 25/25/25 27/27/27 28/28/28
f 25/25/25 28/28/28 29/29/29
f 25/25/25 29/29/29 30/30/30
f 25/25/25 30/30/30 22/22/22
f 25/25/25 22/22/22 21/21/21
f 31/31/31 32/32/32 22/22/22
f 31/31/31 22/22/22 30/30/30
f 31/31/31 30/30/30 29/29/29
f 31/31/31 29/29/29 33/33/33
f 31/31/31 33/33/33 5/5/5
f 31/31/31 5/5/5 4/4/4
f 31/31/31 4/4/4 3/3/3
f 31/31/31 3/3/3 32/32/32
f 34/34/34 35/35/35 24/24/24
f 34/34/34 24/24/24 23/23/23
f 34/34/34 23/23/23 22/22/22
f 34/34/34 22/22/22 32/32/32
f 34/34/34 32/32/32 3/3/3
f 34/34/34 3/3/3 13/13/13
f 34/34/34 13/13/13 12/12/12
f 34/34/34 12/12/12 35/35/35
f 36/36/36 37/37/37 38/38/38
f 36/36/36 38/38/38 39/39/39
f 36/36/36 39/39/39 40/40/40
f 36/36/36 40/40/40 41/41/41
f 36/36/36 41/41/41 20/20/20
f 36/36/36 20/20/20 19/19/19
f 36/36/36 19/19/19 18/18/18
f 36/36/36 18/18/18 37/37/37
f 42/42/42 41/41/41 40/40/40
f 42/42/42 40/40/40 43/43/43
f 42/42/42 43/43/43 44/44/44
f 42/42/42 44/44/44 45/45/45
f 42/42/42 45/45/45 27/27/27
f 42/42/42 27/27/27 26/26/26
f 42/42/42 26/26/26 20/20/20
f 42/42/42 20/20/20 41/41/41
f 46/46/46 47/47/47 48/48/48
f 46/46/46 48/48/48 49/49/49
f 46/46/46 49/49/49 50/50/50
f 46/46/46 50/50/50 51/51/51
f 46/46/46 51/51/51 52/52/52
f 46/46/46 52/52/52 53/53/53
f 46/46/46 53/53/53 54/54/54
f 46/46/46 54/54/54 47/47/47
f 55/55/55 56/56/56 57/57/57
f 55/55/55 57/57/57 58/58/58
f 55/55/55 58/58/58 48/48/48
f 55/55/55 48/48/48 47/47/47
f 55/55/55 47/47/47 54/54/54
f 55/55/55 54/54/54 59/59/59
f 55/55/55 59/59/59 60/60/60
f 55/55/55 60/60/60 56/56/56
f 61/61/61 62/62/62 63/63/63
f 61/61/61 63/63/63 64/64/64
f 61/61/61 64/64/64 65/65/65
f 61/61/61 65/65/65 66/66/66
f 61/61/61 66/66/66 67/67/67
f 61/61/61 67/67/67 68/68/68
f 61/61/61 68/68/68 69/69/69
f 61/61/61 69/69/69 62/62/62
f 70/70/70 66/66/66 65/65/65
f 70/70/70 65/65/65 71/71/71
f 70/70/70 71/71/71 72/72/72
f 70/70/70 72/72/72 73/73/73
f 70/70/70 73/73/73 74/74/74
f 70/70/70 74/74/74 75/75/75
f 70/70/70 75/75/75 67/67/67
f 70/70/70 67/67/67 66/66/66
f 76/76/76 77/77/77 54/54/54
f 76/76/76 54/54/54 53/53/53
f 76/76/76 53/53/53 52/52/52
f 76/76/76 52/52/52 78/78/78
f 76/76/76 78/78/78 72/72/72
f 76/76/76 72/72/72 71/71/71
f 76/76/76 71/71/71 65/65/65
f 76/76/76 65/65/65 77/77/77
f 79/79/79 80/80/80 60/60/60
f 79/79/79 60/60/60 59/59/59
f 79/79/79 59/59/59 54/54/54
f 79/79/79 54/54/54 77/77/77
f 79/79/79 77/77/77 65/65/65
f 79/79/79 65/65/65 64/64/64
f 79/79/79 64/64/64 63/63/63
f 79/79/79 63/63/63 80/80/80
f 81/81/81 82/82/82 69/69/69
f 81/81/81 69/69/69 68/68/68
f 81/81/81 68/68/68 67/67/67
f 81/81/81 67/67/67 83/83/83
f 81/81/81 83/83/83 84/84/84
f 81/81/81 84/84/84 85/85/85
f 81/81/81 85/85/85 86/86/86
f 81/81/81 86/86/86 82/82/82
f 87/87/87 83/83/83 67/67/67
f 87/87/87 67/67/67 75/75/75
f 87/87/87 75/75/75 74/74/74
f 87/87/87 74/74/74 88/88/88
f 87/87/87 88/88/88 89/89/89
f 87/87/87 89/89/89 90/90/90
f 87/87/87 90/90/90 84/84/84
f 87/87/87 84/84/84 83/83/83
f 91/91/91 92/92/92 38/38/38
f 91/91/91 38/38/38 37/37/37
f 91/91/91 37/37/37 18/18/18
f 91/91/91 18/18/18 93/93/93
f 91/91/91 93/93/93 69/69/69
f 91/91/91 69/69/69 82/82/82
f 91/91/91 82/82/82 94/94/94
f 91/91/91 94/94/94 92/92/92
f 95/95/95 96/96/96 44/44/44
f 95/95/95 44/44/44 43/43/43
f 95/95/95 43/43/43 40/40/40
f 95/95/95 40/40/40 97/97/97
f 95/95/95 97/97/97 84/84/84
f 95/95/95 84/84/84 90/90/90
f 95/95/95 90/90/90 98/98/98
f 95/95/95 98/98/98 96/96/96
f 99/99/99 100/100/100 7/7/7
f 99/99/99 7/7/7 6/6/6
f 99/99/99 6/6/6 5/5/5
f 99/99/99 5/5/5 101/101/101
f 99/99/99 101/101/101 52/52/52
f 99/99/99 52/52/52 51/51/51
f 99/99/99 51/51/51 102/102/102
f 99/99/99 102/102/102 100/100/100
f 103/103/103 104/104/104 15/15/15
f 103/103/103 15/15/15 14/14/14
f 103/103/103 14/14/14 9/9/9
f 103/103/103 9/9/9 105/105/105
f 103/103/103 105/105/105 48/48/48
f 103/103/103 48/48/48 58/58/58
f 103/103/103 58/58/58 106/106/106
f 103/103/103 106/106/106 104/104/104
f 107/107/107 108/108/108 12/12/12
f 107/107/107 12/12/12 11/11/11
f 107/107/107 11/11/11 15/15/15
f 107/107/107 15/15/15 104/104/104
f 107/107/107 104/104/104 106/106/106
f 107/107/107 106/106/106 56/56/56
f 107/107/107 56/56/56 60/60/60
f 107/107/107 60/60/60 108/108/108
f 109/109/109 97/97/97 40/40/40
f 109/109/109 40/40/40 39/39/39
f 109/109/109 39/39/39 38/38/38
f 109/109/109 38/38/38 92/92/92
f 109/109/109 92/92/92 94/94/94
f 109/109/109 94/94/94 85/85/85
f 109/109/109 85/85/85 84/84/84
f 109/109/109 84/84/84 97/97/97
f 110/110/110 111/111/111 27/27/27
f 110/110/110 27/27/27 45/45/45
f 110/110/110 45/45/45 44/44/44
f 110/110/110 44/44/44 96/96/96
f 110/110/110 96/96/96 98/98/98
f 110/110/110 98/98/98 88/88/88
f 110/110/110 88/88/88 74/74/74
f 110/110/110 74/74/74 111/111/111
f 112/112/112 105/105/105 9/9/9
f 112/112/112 9/9/9 8/8/8
f 112/112/112 8/8/8 7/7/7
f 112/112/112 7/7/7 100/100/100
f 112/112/112 100/100/100 102/102/102
f 112/112/112 102/102/102 49/49/49
f 112/112/112 49/49/49 48/48/48
f 112/112/112 48/48/48 105/105/105
f 113/113/113 101/101/101 5/5/5
f 113/113/113 5/5/5 33/33/33
f 113/113/113 33/33/33 29/29/29
f 113/113/113 29/29/29 114/114/114
f 113/113/113 114/114/114 72/72/72
f 113/113/113 72/72/72 78/78/78
f 113/113/113 78/78/78 52/52/52
f 113/113/113 52/52/52 101/101/101
f 115/115/115 116/116/116 24/24/24
f 115/115/115 24/24/24 35/35/35
f 115/115/115 35/35/35 12/12/12
f 115/115/115 12/12/12 108/108/108
f 115/115/115 108/108/108 60/60/60
f 115/115/115 60/60/60 80/80/80
f 115/115/115 80/80/80 63/63/63
f 115/115/115 63/63/63 116/116/116
f 117/117/117 93/93/93 18/18/18
f 117/117/117 18/18/18 17/17/17
f 117/117/117 17/17/17 24/24/24
f 117/117/117 24/24/24 116/116/116
f 117/117/117 116/116/116 63/63/63
f 117/117/117 63/63/63 62/62/62
f 117/117/117 62/62/62 69/69/69
f 117/117/117 69/69/69 93/93/93
f 118/118/118 114/114/114 29/29/29
f 118/118/118 29/29/29 28/28/28
f 118/118/118 28/28/28 27/27/27
f 118/118/118 27/27/27 111/111/111
f 118/118/118 111/111/111 74/74/74
f 118/118/118 74/74/74 73/73/73
f 118/118/118 73/73/73 72/72/72
f 118/118/118 72/72/72 114/114/114
