v -2.403226 0.756521 -1.201232
v -2.403847 0.756226 -1.203838
v -2.405603 0.753473 -1.202353
v -2.404648 0.754065 -1.199575
v -2.404202 0.754542 -1.197346
v -2.403160 0.756597 -1.199027
v -2.402514 0.757619 -1.200573
v -2.402158 0.758155 -1.202530
v -2.402468 0.758167 -1.204960
v -2.405613 0.755594 -1.205773
v -2.407346 0.754971 -1.206991
v -2.408957 0.752694 -1.206393
v -2.407361 0.753011 -1.204736
v -2.404224 0.757352 -1.206460
v -2.405903 0.756302 -1.207023
v -2.411287 0.743321 -1.200625
v -2.412539 0.743020 -1.202412
v -2.413095 0.739575 -1.200742
v -2.411972 0.739838 -1.199168
v -2.410618 0.740233 -1.197013
v -2.409770 0.743769 -1.198181
v -2.408699 0.747194 -1.199443
v -2.410308 0.746737 -1.201991
v -2.411652 0.746441 -1.203846
v -2.408629 0.744354 -1.195567
v -2.409622 0.740752 -1.194695
v -2.408976 0.741176 -1.192904
v -2.407881 0.744830 -1.193551
v -2.406780 0.748334 -1.194576
v -2.407528 0.747818 -1.196700
v -2.406142 0.751110 -1.198050
v -2.407266 0.750445 -1.200861
v -2.405482 0.751679 -1.195852
v -2.408962 0.750013 -1.203418
v -2.410425 0.749758 -1.205259
v -2.412437 0.736365 -1.197466
v -2.413331 0.736186 -1.198617
v -2.413185 0.734323 -1.197169
v -2.412674 0.733750 -1.196116
v -2.411898 0.733924 -1.195052
v -2.411384 0.736645 -1.195878
v -2.410683 0.737046 -1.194129
v -2.411472 0.734217 -1.193828
v -2.411022 0.735164 -1.193053
v -2.410255 0.737381 -1.192765
v -2.402996 0.756365 -1.201276
v -2.403633 0.756061 -1.203917
v -2.402309 0.758040 -1.205017
v -2.401987 0.758035 -1.202559
v -2.402383 0.757533 -1.200588
v -2.402980 0.756486 -1.199042
v -2.404020 0.754435 -1.197369
v -2.404415 0.753917 -1.199627
v -2.405384 0.753316 -1.202436
v -2.405419 0.755423 -1.205886
v -2.407211 0.754841 -1.207092
v -2.405802 0.756205 -1.207093
v -2.404082 0.757221 -1.206545
v -2.407159 0.752850 -1.204849
v -2.408815 0.752572 -1.206493
v -2.411060 0.743206 -1.200750
v -2.412375 0.742932 -1.202516
v -2.411494 0.746342 -1.203947
v -2.410087 0.746608 -1.202111
v -2.408465 0.747069 -1.199541
v -2.409531 0.743659 -1.198284
v -2.410376 0.740132 -1.197120
v -2.411742 0.739733 -1.199296
v -2.412930 0.739495 -1.200849
v -2.408379 0.744248 -1.195648
v -2.407282 0.747698 -1.196774
v -2.406592 0.748247 -1.194620
v -2.407690 0.744753 -1.193600
v -2.408781 0.741107 -1.192956
v -2.409369 0.740656 -1.194780
v -2.405902 0.750975 -1.198113
v -2.407039 0.750304 -1.200951
v -2.405296 0.751582 -1.195886
v -2.408751 0.749867 -1.203534
v -2.410275 0.749647 -1.205359
v -2.412207 0.736264 -1.197598
v -2.413166 0.736108 -1.198727
v -2.411141 0.736549 -1.195986
v -2.411715 0.733852 -1.195133
v -2.412502 0.733675 -1.196215
v -2.413061 0.734267 -1.197247
v -2.410428 0.736955 -1.194213
v -2.410059 0.737316 -1.192816
v -2.410878 0.735115 -1.193094
v -2.411280 0.734150 -1.193891
v -2.413557 0.736091 -1.199052
v -2.413329 0.733617 -1.196954
v -2.413397 0.739451 -1.201316
v -2.413061 0.734267 -1.197247
v -2.411650 0.733244 -1.193756
v -2.411162 0.734459 -1.192831
v -2.411988 0.732985 -1.194813
v -2.410878 0.735115 -1.193094
v -2.403057 0.756574 -1.198295
v -2.402340 0.757826 -1.200359
v -2.403971 0.754654 -1.196610
v -2.402383 0.757533 -1.200588
v -2.403698 0.757880 -1.206727
v -2.406007 0.756400 -1.207337
v -2.401938 0.758757 -1.205358
v -2.405802 0.756205 -1.207093
v -2.407866 0.754705 -1.207446
v -2.409428 0.752533 -1.206993
v -2.412677 0.732845 -1.195710
v -2.410024 0.737464 -1.192330
v -2.408673 0.741287 -1.192327
v -2.401726 0.758646 -1.202974
v -2.405178 0.751827 -1.195131
v -2.406446 0.748468 -1.193885
v -2.410848 0.749623 -1.205920
v -2.412032 0.746298 -1.204512
v -2.412885 0.742880 -1.203057
v -2.407546 0.744955 -1.192898
vn -0.825100 0.560500 0.070600
vn -0.733100 0.629900 0.256600
vn -0.761900 0.583500 0.281200
vn -0.846100 0.520200 0.116200
vn -0.854000 0.502500 0.134700
vn -0.823000 0.562600 0.078000
vn -0.796800 0.602900 0.038300
vn -0.764500 0.641000 0.067800
vn -0.682900 0.697700 0.216400
vn -0.626900 0.637500 0.447800
vn -0.632000 0.636900 0.441600
vn -0.685300 0.568100 0.455600
vn -0.668800 0.589100 0.453400
vn -0.602600 0.704000 0.375800
vn -0.591800 0.682600 0.428700
vn -0.797800 0.382800 0.465800
vn -0.819600 0.369800 0.437600
vn -0.828600 0.339600 0.445100
vn -0.801300 0.353300 0.482800
vn -0.862700 0.325600 0.386900
vn -0.852800 0.364900 0.373600
vn -0.828200 0.441700 0.345000
vn -0.768700 0.453100 0.451400
vn -0.788900 0.434200 0.434800
vn -0.897200 0.344200 0.276500
vn -0.908000 0.311900 0.279700
vn -0.891500 0.315100 0.325300
vn -0.885300 0.344200 0.312600
vn -0.875800 0.400400 0.269600
vn -0.880300 0.409700 0.239000
vn -0.861100 0.475800 0.178900
vn -0.794000 0.522700 0.310500
vn -0.865400 0.457600 0.204000
vn -0.720400 0.530500 0.446700
vn -0.739900 0.506400 0.442800
vn -0.789800 0.343600 0.508000
vn -0.820900 0.325000 0.469600
vn -0.806600 0.313700 0.500900
vn -0.787600 0.293200 0.542000
vn -0.876600 0.253400 0.408900
vn -0.866800 0.306800 0.392900
vn -0.919900 0.293000 0.260500
vn -0.937500 0.234800 0.256700
vn -0.919200 0.269900 0.286800
vn -0.904300 0.292500 0.310800
vn 0.844000 -0.533500 -0.054900
vn 0.741300 -0.617300 -0.263500
vn 0.771000 -0.567300 -0.289300
vn 0.892900 -0.450200 -0.005000
vn 0.919900 -0.381100 0.091700
vn 0.913700 -0.399600 0.073300
vn 0.904600 -0.426100 0.008200
vn 0.851300 -0.514500 -0.102900
vn 0.761800 -0.583600 -0.281100
vn 0.620900 -0.620100 -0.479500
vn 0.537400 -0.545900 -0.642700
vn 0.523400 -0.535300 -0.662900
vn 0.596100 -0.565700 -0.569800
vn 0.660300 -0.588700 -0.466200
vn 0.588400 -0.549000 -0.593600
vn 0.788400 -0.386200 -0.478800
vn 0.717900 -0.407400 -0.564500
vn 0.695200 -0.456000 -0.555500
vn 0.760100 -0.455200 -0.463600
vn 0.828200 -0.441500 -0.345100
vn 0.852800 -0.364700 -0.373700
vn 0.862700 -0.325400 -0.386900
vn 0.789800 -0.359100 -0.497100
vn 0.702000 -0.407500 -0.584000
vn 0.902700 -0.341700 -0.261300
vn 0.885400 -0.406600 -0.225100
vn 0.921200 -0.368200 -0.125600
vn 0.933600 -0.323600 -0.154100
vn 0.939900 -0.315000 -0.131400
vn 0.913800 -0.310900 -0.261400
vn 0.865900 -0.471900 -0.165600
vn 0.793900 -0.522700 -0.310500
vn 0.908700 -0.412400 -0.064300
vn 0.711900 -0.531800 -0.458600
vn 0.646300 -0.514400 -0.563600
vn 0.770400 -0.365200 -0.522600
vn 0.655100 -0.442900 -0.612000
vn 0.864400 -0.318200 -0.389300
vn 0.852000 -0.367600 -0.372700
vn 0.706400 -0.437900 -0.556000
vn 0.624100 -0.468500 -0.625300
vn 0.923700 -0.305700 -0.230700
vn 0.940800 -0.331800 -0.068500
vn 0.937500 -0.346600 -0.028900
vn 0.925200 -0.352800 -0.139900
vn -0.669900 -0.438600 -0.599000
vn -0.655300 -0.701400 -0.280400
vn -0.630900 -0.328200 -0.703000
vn 0.624100 -0.468500 -0.625300
vn -0.129300 -0.848700 0.512800
vn -0.042400 -0.462700 0.885500
vn -0.105300 -0.962000 0.252000
vn 0.937500 -0.346600 -0.028900
vn 0.311600 0.601900 0.735200
vn 0.403500 0.778600 0.480600
vn 0.273700 0.434400 0.858100
vn 0.919900 -0.381100 0.091700
vn 0.147600 0.622000 -0.769000
vn -0.275800 0.514200 -0.812100
vn 0.552500 0.710600 -0.435600
vn 0.523400 -0.535300 -0.662900
vn -0.503300 0.285100 -0.815700
vn -0.596200 0.096200 -0.797100
vn -0.346000 -0.932800 0.101000
vn 0.160200 -0.115800 0.980300
vn 0.247700 0.012900 0.968700
vn 0.597500 0.797000 0.087900
vn 0.266600 0.298700 0.916300
vn 0.274600 0.214400 0.937300
vn -0.624700 -0.047900 -0.779400
vn -0.622900 -0.134300 -0.770600
vn -0.616300 -0.219100 -0.756400
vn 0.280800 0.129200 0.951000
vt 0.839504 0.118056
vt 0.856743 0.205307
vt 0.741230 0.205307
vt 0.734555 0.106726
vt 0.724541 0.032791
vt 0.813647 0.052618
vt 0.868992 0.081539
vt 0.913398 0.129584
vt 0.940923 0.205307
vt 0.839504 0.292557
vt 0.813647 0.357995
vt 0.724541 0.377822
vt 0.734555 0.303887
vt 0.913398 0.281029
vt 0.868992 0.329074
vt 0.369475 0.299954
vt 0.368286 0.370940
vt 0.245840 0.351447
vt 0.246397 0.288815
vt 0.246768 0.205307
vt 0.370268 0.205307
vt 0.494283 0.205307
vt 0.492822 0.304944
vt 0.490632 0.379672
vt 0.369475 0.110659
vt 0.246397 0.121798
vt 0.245841 0.059166
vt 0.368286 0.039673
vt 0.490632 0.030941
vt 0.492822 0.105669
vt 0.616755 0.103478
vt 0.619174 0.205307
vt 0.613127 0.027106
vt 0.616755 0.307135
vt 0.613126 0.383507
vt 0.123273 0.268175
vt 0.123047 0.315326
vt 0.054743 0.283353
vt 0.030912 0.249131
vt 0.030973 0.205306
vt 0.123423 0.205306
vt 0.123273 0.142438
vt 0.030912 0.161481
vt 0.054744 0.127260
vt 0.123047 0.095287
vt 0.839504 0.118056
vt 0.856743 0.205307
vt 0.968983 0.205307
vt 0.938030 0.133427
vt 0.876123 0.061548
vt 0.805028 0.030806
vt 0.721203 0.008146
vt 0.734555 0.106726
vt 0.741230 0.205307
vt 0.839504 0.292557
vt 0.805028 0.379807
vt 0.876123 0.349065
vt 0.938030 0.277186
vt 0.734555 0.303887
vt 0.721203 0.402467
vt 0.369475 0.299954
vt 0.367890 0.394602
vt 0.489902 0.404581
vt 0.492822 0.304944
vt 0.494283 0.205307
vt 0.370268 0.205307
vt 0.246768 0.205307
vt 0.246397 0.288815
vt 0.245655 0.372324
vt 0.369475 0.110659
vt 0.492822 0.105669
vt 0.489902 0.006032
vt 0.367890 0.016011
vt 0.245655 0.038289
vt 0.246397 0.121798
vt 0.616755 0.103478
vt 0.619174 0.205307
vt 0.611917 0.001649
vt 0.616755 0.307135
vt 0.611917 0.408964
vt 0.123273 0.268175
vt 0.122972 0.331043
vt 0.123423 0.205306
vt 0.000156 0.205306
vt 0.000125 0.242784
vt 0.000064 0.280261
vt 0.123273 0.142438
vt 0.122972 0.079570
vt 0.000064 0.130352
vt 0.000125 0.167829
vt 0.122972 0.331043
vt 0.030806 0.283587
vt 0.245655 0.372324
vt 0.030806 0.283587
vt 0.000125 0.167829
vt 0.030806 0.127026
vt 0.000156 0.205306
vt 0.030806 0.127026
vt 0.805028 0.030806
vt 0.873826 0.071832
vt 0.721203 0.008146
vt 0.873826 0.071832
vt 0.938030 0.277186
vt 0.873826 0.338781
vt 0.968983 0.205307
vt 0.873826 0.338781
vt 0.805028 0.379807
vt 0.721203 0.402467
vt 0.000125 0.242784
vt 0.122972 0.079570
vt 0.245655 0.038289
vt 0.938030 0.133427
vt 0.611917 0.001649
vt 0.489902 0.006032
vt 0.611917 0.408964
vt 0.489902 0.404581
vt 0.367890 0.394602
vt 0.367890 0.016011
f 1/1/1 2/2/2 3/3/3
f 1/1/1 3/3/3 4/4/4
f 1/1/1 4/4/4 5/5/5
f 1/1/1 5/5/5 6/6/6
f 1/1/1 6/6/6 7/7/7
f 1/1/1 7/7/7 8/8/8
f 1/1/1 8/8/8 9/9/9
f 1/1/1 9/9/9 2/2/2
f 10/10/10 11/11/11 12/12/12
f 10/10/10 12/12/12 13/13/13
f 10/10/10 13/13/13 3/3/3
f 10/10/10 3/3/3 2/2/2
f 10/10/10 2/2/2 9/9/9
f 10/10/10 9/9/9 14/14/14
f 10/10/10 14/14/14 15/15/15
f 10/10/10 15/15/15 11/11/11
f 16/16/16 17/17/17 18/18/18
f 16/16/16 18/18/18 19/19/19
f 16/16/16 19/19/19 20/20/20
f 16/16/16 20/20/20 21/21/21
f 16/16/16 21/21/21 22/22/22
f 16/16/16 22/22/22 23/23/23
f 16/16/16 23/23/23 24/24/24
f 16/16/16 24/24/24 17/17/17
f 25/25/25 21/21/21 20/20/20
f 25/25/25 20/20/20 26/26/26
f 25/25/25 26/26/26 27/27/27
f 25/25/25 27/27/27 28/28/28
f 25/25/25 28/28/28 29/29/29
f 25/25/25 29/29/29 30/30/30
f 25/25/25 30/30/30 22/22/22
f 25/25/25 22/22/22 21/21/21
f 31/31/31 32/32/32 22/22/22
f 31/31/31 22/22/22 30/30/30
f 31/31/31 30/30/30 29/29/29
f 31/31/31 29/29/29 33/33/33
f 31/31/31 33/33/33 5/5/5
f 31/31/31 5/5/5 4/4/4
f 31/31/31 4/4/4 3/3/3
f 31/31/31 3/3/3 32/32/32
f 34/34/34 35/35/35 24/24/24
f 34/34/34 24/24/24 23/23/23
f 34/34/34 23/23/23 22/22/22
f 34/34/34 22/22/22 32/32/32
f 34/34/34 32/32/32 3/3/3
f 34/34/34 3/3/3 13/13/13
f 34/34/34 13/13/13 12/12/12
f 34/34/34 12/12/12 35/35/35
f 36/36/36 37/37/37 38/38/38
f 36/36/36 38/38/38 39/39/39
f 36/36/36 39/39/39 40/40/40
f 36/36/36 40/40/40 41/41/41
f 36/36/36 41/41/41 20/20/20
f 36/36/36 20/20/20 19/19/19
f 36/36/36 19/19/19 18/18/18
f 36/36/36 18/18/18 37/37/37
f 42/42/42 41/41/41 40/40/40
f 42/42/42 40/40/40 43/43/43
f 42/42/42 43/43/43 44/44/44
f 42/42/42 44/44/44 45/45/45
f 42/42/42 45/45/45 27/27/27
f 42/42/42 27/27/27 26/26/26
f 42/42/42 26/26/26 20/20/20
f 42/42/42 20/20/20 41/41/41
f 46/46/46 47/47/47 48/48/48
f 46/46/46 48/48/48 49/49/49
f 46/46/46 49/49/49 50/50/50
f 46/46/46 50/50/50 51/51/51
f 46/46/46 51/51/51 52/52/52
f 46/46/46 52/52/52 53/53/53
f 46/46/46 53/53/53 54/54/54
f 46/46/46 54/54/54 47/47/47
f 55/55/55 56/56/56 57/57/57
f 55/55/55 57/57/57 58/58/58
f 55/55/55 58/58/58 48/48/48
f 55/55/55 48/48/48 47/47/47
f 55/55/55 47/47/47 54/54/54
f 55/55/55 54/54/54 59/59/59
f 55/55/55 59/59/59 60/60/60
f 55/55/55 60/60/60 56/56/56
f 61/61/61 62/62/62 63/63/63
f 61/61/61 63/63/63 64/64/64
f 61/61/61 64/64/64 65/65/65
f 61/61/61 65/65/65 66/66/66
f 61/61/61 66/66/66 67/67/67
f 61/61/61 67/67/67 68/68/68
f 61/61/61 68/68/68 69/69/69
f 61/61/61 69/69/69 62/62/62
f 70/70/70 66/66/66 65/65/65
f 70/70/70 65/65/65 71/71/71
f 70/70/70 71/71/71 72/72/72
f 70/70/70 72/72/72 73/73/73
f 70/70/70 73/73/73 74/74/74
f 70/70/70 74/74/74 75/75/75
f 70/70/70 75/75/75 67/67/67
f 70/70/70 67/67/67 66/66/66
f 76/76/76 77/77/77 54/54/54
f 76/76/76 54/54/54 53/53/53
f 76/76/76 53/53/53 52/52/52
f 76/76/76 52/52/52 78/78/78
f 76/76/76 78/78/78 72/72/72
f 76/76/76 72/72/72 71/71/71
f 76/76/76 71/71/71 65/65/65
f 76/76/76 65/65/65 77/77/77
f 79/79/79 80/80/80 60/60/60
f 79/79/79 60/60/60 59/59/59
f 79/79/79 59/59/59 54/54/54
f 79/79/79 54/54/54 77/77/77
f 79/79/79 77/77/77 65/65/65
f 79/79/79 65/65/65 64/64/64
f 79/79/79 64/64/64 63/63/63
f 79/79/79 63/63/63 80/80/80
f 81/81/81 82/82/82 69/69/69
f 81/81/81 69/69/69 68/68/68
f 81/81/81 68/68/68 67/67/67
f 81/81/81 67/67/67 83/83/83
f 81/81/81 83/83/83 84/84/84
f 81/81/81 84/84/84 85/85/85
f 81/81/81 85/85/85 86/86/86
f 81/81/81 86/86/86 82/82/82
f 87/87/87 83/83/83 67/67/67
f 87/87/87 67/67/67 75/75/75
f 87/87/87 75/75/75 74/74/74
f 87/87/87 74/74/74 88/88/88
f 87/87/87 88/88/88 89/89/89
f 87/87/87 89/89/89 90/90/90
f 87/87/87 90/90/90 84/84/84
f 87/87/87 84/84/84 83/83/83
f 91/91/91 92/92/92 38/38/38
f 91/91/91 38/38/38 37/37/37
f 91/91/91 37/37/37 18/18/18
f 91/91/91 18/18/18 93/93/93
f 91/91/91 93/93/93 69/69/69
f 91/91/91 69/69/69 82/82/82
f 91/91/91 82/82/82 94/94/94
f 91/91/91 94/94/94 92/92/92
f 95/95/95 96/96/96 44/44/44
f 95/95/95 44/44/44 43/43/43
f 95/95/95 43/43/43 40/40/40
f 95/95/95 40/40/40 97/97/97
f 95/95/95 97/97/97 84/84/84
f 95/95/95 84/84/84 90/90/90
f 95/95/95 90/90/90 98/98/98
f 95/95/95 98/98/98 96/96/96
f 99/99/99 100/100/100 7/7/7
f 99/99/99 7/7/7 6/6/6
f 99/99/99 6/6/6 5/5/5
f 99/99/99 5/5/5 101/101/101
f 99/99/99 101/101/101 52/52/52
f 99/99/99 52/52/52 51/51/51
f 99/99/99 51/51/51 102/102/102
f 99/99/99 102/102/102 100/100/100
f 103/103/103 104/104/104 15/15/15
f 103/103/103 15/15/15 14/14/14
f 103/103/103 14/14/14 9/9/9
f 103/103/103 9/9/9 105/105/105
f 103/103/103 105/105/105 48/48/48
f 103/103/103 48/48/48 58/58/58
f 103/103/103 58/58/58 106/106/106
f 103/103/103 106/106/106 104/104/104
f 107/107/107 108/108/108 12/12/12
f 107/107/107 12/12/12 11/11/11
f 107/107/107 11/11/11 15/15/15
f 107/107/107 15/15/15 104/104/104
f 107/107/107 104/104/104 106/106/106
f 107/107/107 106/106/106 56/56/56
f 107/107/107 56/56/56 60/60/60
f 107/107/107 60/60/60 108/108/108
f 109/109/109 97/97/97 40/40/40
f 109/109/109 40/40/40 39/39/39
f 109/109/109 39/39/39 38/38/38
f 109/109/109 38/38/38 92/92/92
f 109/109/109 92/92/92 94/94/94
f 109/109/109 94/94/94 85/85/85
f 109/109/109 85/85/85 84/84/84
f 109/109/109 84/84/84 97/97/97
f 110/110/110 111/111/111 27/27/27
f 110/110/110 27/27/27 45/45/45
f 110/110/110 45/45/45 44/44/44
f 110/110/110 44/44/44 96/96/96
f 110/110/110 96/96/96 98/98/98
f 110/110/110 98/98/98 88/88/88
f 110/110/110 88/88/88 74/74/74
f 110/110/110 74/74/74 111/111/111
f 112/112/112 105/105/105 9/9/9
f 112/112/112 9/9/9 8/8/8
f 112/112/112 8/8/8 7/7/7
f 112/112/112 7/7/7 100/100/100
f 112/112/112 100/100/100 102/102/102
f 112/112/112 102/102/102 49/49/49
f 112/112/112 49/49/49 48/48/48
f 112/112/112 48/48/48 105/105/105
f 113/113/113 101/101/101 5/5/5
f 113/113/113 5/5/5 33/33/33
f 113/113/113 33/33/33 29/29/29
f 113/113/113 29/29/29 114/114/114
f 113/113/113 114/114/114 72/72/72
f 113/113/113 72/72/72 78/78/78
f 113/113/113 78/78/78 52/52/52
f 113/113/113 52/52/52 101/101/101
f 115/115/115 116/116/116 24/24/24
f 115/115/115 24/24/24 35/35/35
f 115/115/115 35/35/35 12/12/12
f 115/115/115 12/12/12 108/108/108
f 115/115/115 108/108/108 60/60/60
f 115/115/115 60/60/60 80/80/80
f 115/115/115 80/80/80 63/63/63
f 115/115/115 63/63/63 116/116/116
f 117/117/117 93/93/93 18/18/18
f 117/117/117 18/18/18 17/17/17
f 117/117/117 17/17/17 24/24/24
f 117/117/117 24/24/24 116/116/116
f 117/117/117 116/116/116 63/63/63
f 117/117/117 63/63/63 62/62/62
f 117/117/117 62/62/62 69/69/69
f 117/117/117 69/69/69 93/93/93
f 118/118/118 114/114/114 29/29/29
f 118/118/118 29/29/29 28/28/28
f 118/118/118 28/28/28 27/27/27
f 118/118/118 27/27/27 111/111/111
f 118/118/118 111/111/111 74/74/74
f 118/118/118 74/74/74 73/73/73
f 118/118/118 73/73/73 72/72/72
f 118/118/118 72/72/72 114/114/114
