v -2.384691 0.795945 -1.223252
v -2.383819 0.795713 -1.225719
v -2.386440 0.793398 -1.225669
v -2.387093 0.793863 -1.222860
v -2.387872 0.794291 -1.220778
v -2.385820 0.796053 -1.221424
v -2.384313 0.796892 -1.222252
v -2.382890 0.797306 -1.223605
v -2.381819 0.797320 -1.225739
v -2.384274 0.795364 -1.228283
v -2.385089 0.795034 -1.230247
v -2.387041 0.793133 -1.230801
v -2.386619 0.793202 -1.228578
v -2.382529 0.796803 -1.227960
v -2.383721 0.796067 -1.229397
v -2.393441 0.784650 -1.228097
v -2.393516 0.784536 -1.230239
v -2.395386 0.781358 -1.229449
v -2.395304 0.781454 -1.227551
v -2.395332 0.781648 -1.225048
v -2.393488 0.784875 -1.225268
v -2.391433 0.787955 -1.225454
v -2.391404 0.787736 -1.228416
v -2.391515 0.787640 -1.230663
v -2.393905 0.785297 -1.222494
v -2.395715 0.782026 -1.222596
v -2.396105 0.782361 -1.220766
v -2.394329 0.785670 -1.220422
v -2.392366 0.788826 -1.220393
v -2.391889 0.788413 -1.222555
v -2.389555 0.791310 -1.222652
v -2.389030 0.790804 -1.225584
v -2.390133 0.791790 -1.220473
v -2.389063 0.790623 -1.228599
v -2.389270 0.790587 -1.230895
v -2.397122 0.778234 -1.226689
v -2.397238 0.778189 -1.228114
v -2.398189 0.776407 -1.227005
v -2.398439 0.775793 -1.225922
v -2.398370 0.775850 -1.224630
v -2.397101 0.778358 -1.224815
v -2.397428 0.778661 -1.222991
v -2.398649 0.776085 -1.223388
v -2.398566 0.776934 -1.222446
v -2.397775 0.778938 -1.221630
v -2.384507 0.795755 -1.223176
v -2.383631 0.795517 -1.225681
v -2.381681 0.797170 -1.225711
v -2.382756 0.797162 -1.223546
v -2.384214 0.796788 -1.222200
v -2.385685 0.795915 -1.221348
v -2.387730 0.794157 -1.220708
v -2.386901 0.793680 -1.222789
v -2.386244 0.793209 -1.225631
v -2.384084 0.795165 -1.228283
v -2.384947 0.794885 -1.230266
v -2.383617 0.795955 -1.229406
v -2.382390 0.796652 -1.227962
v -2.386422 0.793011 -1.228574
v -2.386893 0.792990 -1.230815
v -2.393210 0.784499 -1.228085
v -2.393343 0.784422 -1.230243
v -2.391349 0.787516 -1.230667
v -2.391182 0.787572 -1.228405
v -2.391212 0.787793 -1.225417
v -2.393258 0.784726 -1.225232
v -2.395097 0.781509 -1.225013
v -2.395067 0.781312 -1.227540
v -2.395209 0.781251 -1.229453
v -2.393678 0.785152 -1.222433
v -2.391672 0.788255 -1.222493
v -2.392205 0.788710 -1.220334
v -2.394161 0.785563 -1.220365
v -2.395933 0.782261 -1.220709
v -2.395482 0.781890 -1.222537
v -2.389351 0.791138 -1.222586
v -2.388823 0.790628 -1.225546
v -2.389982 0.791665 -1.220409
v -2.388854 0.790445 -1.228591
v -2.389113 0.790453 -1.230904
v -2.396883 0.778095 -1.226679
v -2.397059 0.778085 -1.228121
v -2.396863 0.778222 -1.224780
v -2.398192 0.775749 -1.224604
v -2.398259 0.775689 -1.225916
v -2.398056 0.776330 -1.227007
v -2.397194 0.778528 -1.222930
v -2.397601 0.778841 -1.221572
v -2.398437 0.776861 -1.222406
v -2.398473 0.775987 -1.223341
v -2.397197 0.778128 -1.228595
v -2.398527 0.775758 -1.226963
v -2.395335 0.781279 -1.230086
v -2.398056 0.776330 -1.227007
v -2.398977 0.775183 -1.223499
v -2.398905 0.776285 -1.222395
v -2.398714 0.774969 -1.224557
v -2.398437 0.776861 -1.222406
v -2.386137 0.796028 -1.220777
v -2.384259 0.797065 -1.221969
v -2.388069 0.794375 -1.220049
v -2.384214 0.796788 -1.222200
v -2.381886 0.797215 -1.227853
v -2.383619 0.796173 -1.229699
v -2.381092 0.797788 -1.225733
v -2.383617 0.795955 -1.229406
v -2.385298 0.794858 -1.230914
v -2.387116 0.793046 -1.231552
v -2.398798 0.774933 -1.225664
v -2.397814 0.778988 -1.221148
v -2.396159 0.782429 -1.220128
v -2.382231 0.797695 -1.223696
v -2.390259 0.791896 -1.219715
v -2.392454 0.788912 -1.219644
v -2.389269 0.790515 -1.231667
v -2.391479 0.787553 -1.231417
v -2.393464 0.784447 -1.230958
v -2.394397 0.785747 -1.219704
vn -0.626000 0.696300 -0.351000
vn -0.643300 0.752700 -0.140200
vn -0.687700 0.712500 -0.139300
vn -0.674700 0.661300 -0.327700
vn -0.694200 0.645600 -0.318100
vn -0.628000 0.698300 -0.343400
vn -0.578500 0.732500 -0.358800
vn -0.562400 0.765100 -0.313500
vn -0.569500 0.809800 -0.140800
vn -0.661500 0.745900 0.077700
vn -0.662400 0.745900 0.069800
vn -0.724400 0.687800 0.046600
vn -0.706400 0.705600 0.055500
vn -0.591400 0.805500 0.036600
vn -0.615300 0.783700 0.084900
vn -0.850800 0.525000 -0.021300
vn -0.854900 0.515400 -0.057900
vn -0.871200 0.487300 -0.059000
vn -0.867700 0.497000 -0.011500
vn -0.869000 0.478200 -0.127200
vn -0.847300 0.514900 -0.129600
vn -0.799400 0.585700 -0.133800
vn -0.808100 0.588900 -0.011800
vn -0.818400 0.573400 -0.038200
vn -0.833000 0.500200 -0.236500
vn -0.848500 0.470300 -0.242300
vn -0.859900 0.471600 -0.195100
vn -0.843200 0.499000 -0.199900
vn -0.802800 0.551700 -0.226000
vn -0.788100 0.561100 -0.253200
vn -0.728700 0.621500 -0.287400
vn -0.739600 0.658800 -0.137300
vn -0.749000 0.604800 -0.270300
vn -0.754000 0.656700 0.016900
vn -0.771500 0.636200 0.001100
vn -0.873900 0.485900 0.015000
vn -0.880800 0.472200 -0.035400
vn -0.888200 0.459300 -0.002400
vn -0.898700 0.436600 0.040600
vn -0.903800 0.410100 -0.122200
vn -0.878600 0.460700 -0.126000
vn -0.850600 0.453400 -0.266400
vn -0.871900 0.399100 -0.283800
vn -0.868200 0.431100 -0.245800
vn -0.865900 0.451200 -0.215800
vn 0.636900 -0.672700 0.376600
vn 0.655800 -0.741900 0.140000
vn 0.702300 -0.698200 0.138800
vn 0.662100 -0.598100 0.451400
vn 0.641300 -0.532800 0.552100
vn 0.643500 -0.550300 0.532000
vn 0.668200 -0.576100 0.470800
vn 0.672500 -0.656200 0.342100
vn 0.687600 -0.712600 0.139200
vn 0.676900 -0.728400 -0.106000
vn 0.710900 -0.644200 -0.281900
vn 0.712400 -0.631800 -0.305600
vn 0.715300 -0.672300 -0.190600
vn 0.706700 -0.704000 -0.070800
vn 0.724800 -0.655200 -0.213200
vn 0.849800 -0.527000 0.005200
vn 0.836500 -0.537500 -0.106600
vn 0.805400 -0.581300 -0.115400
vn 0.807500 -0.589800 -0.003200
vn 0.799500 -0.585600 0.133800
vn 0.847400 -0.514800 0.129600
vn 0.869000 -0.478100 0.127200
vn 0.865400 -0.501000 -0.007100
vn 0.834400 -0.535200 -0.131500
vn 0.829400 -0.498400 0.252300
vn 0.785000 -0.558500 0.267800
vn 0.765000 -0.524800 0.373200
vn 0.797800 -0.483600 0.359900
vn 0.791800 -0.475800 0.383000
vn 0.843300 -0.470000 0.260800
vn 0.725900 -0.618200 0.301400
vn 0.739600 -0.658800 0.137300
vn 0.713900 -0.564900 0.413800
vn 0.753500 -0.656700 -0.031600
vn 0.760800 -0.630500 -0.153600
vn 0.862700 -0.504200 -0.039500
vn 0.806100 -0.562600 -0.183500
vn 0.872800 -0.471400 0.126700
vn 0.845700 -0.517600 0.129800
vn 0.817700 -0.565400 -0.108200
vn 0.784000 -0.582800 -0.213600
vn 0.835200 -0.465900 0.292200
vn 0.754900 -0.491200 0.434600
vn 0.727900 -0.504300 0.464500
vn 0.778500 -0.510700 0.364800
vn -0.283000 -0.328500 -0.901100
vn -0.488800 -0.582600 -0.649300
vn -0.176200 -0.229000 -0.957300
vn 0.784000 -0.582800 -0.213600
vn -0.522600 -0.802500 0.287900
vn -0.598300 -0.429100 0.676600
vn -0.376000 -0.923600 0.075400
vn 0.727900 -0.504300 0.464500
vn -0.060100 0.554100 0.830300
vn 0.184100 0.706700 0.683200
vn -0.185300 0.398400 0.898300
vn 0.641300 -0.532800 0.552100
vn 0.644100 0.570600 -0.509400
vn 0.305300 0.537000 -0.786300
vn 0.803700 0.595000 -0.002400
vn 0.712400 -0.631800 -0.305600
vn 0.085800 0.350600 -0.932600
vn -0.029500 0.181100 -0.983000
vn -0.483900 -0.856400 -0.179900
vn -0.431500 -0.121100 0.893900
vn -0.333600 -0.009400 0.942700
vn 0.563400 0.683100 0.464700
vn -0.244300 0.267400 0.932100
vn -0.262600 0.183600 0.947300
vn -0.085000 0.044600 -0.995400
vn -0.101900 -0.040700 -0.993900
vn -0.117600 -0.125000 -0.985100
vn -0.278400 0.099100 0.955300
vt 0.839504 0.118056
vt 0.856743 0.205307
vt 0.741230 0.205307
vt 0.734555 0.106726
vt 0.724541 0.032791
vt 0.813647 0.052618
vt 0.868992 0.081539
vt 0.913398 0.129584
vt 0.940923 0.205307
vt 0.839504 0.292557
vt 0.813647 0.357995
vt 0.724541 0.377822
vt 0.734555 0.303887
vt 0.913398 0.281029
vt 0.868992 0.329074
vt 0.369475 0.299954
vt 0.368286 0.370940
vt 0.245840 0.351447
vt 0.246397 0.288815
vt 0.246768 0.205307
vt 0.370268 0.205307
vt 0.494283 0.205307
vt 0.492822 0.304944
vt 0.490632 0.379672
vt 0.369475 0.110659
vt 0.246397 0.121798
vt 0.245841 0.059166
vt 0.368286 0.039673
vt 0.490632 0.030941
vt 0.492822 0.105669
vt 0.616755 0.103478
vt 0.619174 0.205307
vt 0.613127 0.027106
vt 0.616755 0.307135
vt 0.613126 0.383507
vt 0.123273 0.268175
vt 0.123047 0.315326
vt 0.054743 0.283353
vt 0.030912 0.249131
vt 0.030973 0.205306
vt 0.123423 0.205306
vt 0.123273 0.142438
vt 0.030912 0.161481
vt 0.054744 0.127260
vt 0.123047 0.095287
vt 0.839504 0.118056
vt 0.856743 0.205307
vt 0.968983 0.205307
vt 0.938030 0.133427
vt 0.876123 0.061548
vt 0.805028 0.030806
vt 0.721203 0.008146
vt 0.734555 0.106726
vt 0.741230 0.205307
vt 0.839504 0.292557
vt 0.805028 0.379807
vt 0.876123 0.349065
vt 0.938030 0.277186
vt 0.734555 0.303887
vt 0.721203 0.402467
vt 0.369475 0.299954
vt 0.367890 0.394602
vt 0.489902 0.404581
vt 0.492822 0.304944
vt 0.494283 0.205307
vt 0.370268 0.205307
vt 0.246768 0.205307
vt 0.246397 0.288815
vt 0.245655 0.372324
vt 0.369475 0.110659
vt 0.492822 0.105669
vt 0.489902 0.006032
vt 0.367890 0.016011
vt 0.245655 0.038289
vt 0.246397 0.121798
vt 0.616755 0.103478
vt 0.619174 0.205307
vt 0.611917 0.001649
vt 0.616755 0.307135
vt 0.611917 0.408964
vt 0.123273 0.268175
vt 0.122972 0.331043
vt 0.123423 0.205306
vt 0.000156 0.205306
vt 0.000125 0.242784
vt 0.000064 0.280261
vt 0.123273 0.142438
vt 0.122972 0.079570
vt 0.000064 0.130352
vt 0.000125 0.167829
vt 0.122972 0.331043
vt 0.030806 0.283587
vt 0.245655 0.372324
vt 0.030806 0.283587
vt 0.000125 0.167829
vt 0.030806 0.127026
vt 0.000156 0.205306
vt 0.030806 0.127026
vt 0.805028 0.030806
vt 0.873826 0.071832
vt 0.721203 0.008146
vt 0.873826 0.071832
vt 0.938030 0.277186
vt 0.873826 0.338781
vt 0.968983 0.205307
vt 0.873826 0.338781
vt 0.805028 0.379807
vt 0.721203 0.402467
vt 0.000125 0.242784
vt 0.122972 0.079570
vt 0.245655 0.038289
vt 0.938030 0.133427
vt 0.611917 0.001649
vt 0.489902 0.006032
vt 0.611917 0.408964
vt 0.489902 0.404581
vt 0.367890 0.394602
vt 0.367890 0.016011
f 1/1/1 2/2/2 3/3/3
f 1/1/1 3/3/3 4/4/4
f 1/1/1 4/4/4 5/5/5
f 1/1/1 5/5/5 6/6/6
f 1/1/1 6/6/6 7/7/7
f 1/1/1 7/7/7 8/8/8
f 1/1/1 8/8/8 9/9/9
f 1/1/1 9/9/9 2/2/2
f 10/10/10 11/11/11 12/12/12
f 10/10/10 12/12/12 13/13/13
f 10/10/10 13/13/13 3/3/3
f 10/10/10 3/3/3 2/2/2
f 10/10/10 2/2/2 9/9/9
f 10/10/10 9/9/9 14/14/14
f 10/10/10 14/14/14 15/15/15
f 10/10/10 15/15/15 11/11/11
f 16/16/16 17/17/17 18/18/18
f 16/16/16 18/18/18 19/19/19
f 16/16/16 19/19/19 20/20/20
f 16/16/16 20/20/20 21/21/21
f 16/16/16 21/21/21 22/22/22
f 16/16/16 22/22/22 23/23/23
f 16/16/16 23/23/23 24/24/24
f 16/16/16 24/24/24 17/17/17
f 25/25/25 21/21/21 20/20/20
f 25/25/25 20/20/20 26/26/26
f 25/25/25 26/26/26 27/27/27
f 25/25/25 27/27/27 28/28/28
f 25/25/25 28/28/28 29/29/29
f 25/25/25 29/29/29 30/30/30
f 25/25/25 30/30/30 22/22/22
f 25/25/25 22/22/22 21/21/21
f 31/31/31 32/32/32 22/22/22
f 31/31/31 22/22/22 30/30/30
f 31/31/31 30/30/30 29/29/29
f 31/31/31 29/29/29 33/33/33
f 31/31/31 33/33/33 5/5/5
f 31/31/31 5/5/5 4/4/4
f 31/31/31 4/4/4 3/3/3
f 31/31/31 3/3/3 32/32/32
f 34/34/34 35/35/35 24/24/24
f 34/34/34 24/24/24 23/23/23
f 34/34/34 23/23/23 22/22/22
f 34/34/34 22/22/22 32/32/32
f 34/34/34 32/32/32 3/3/3
f 34/34/34 3/3/3 13/13/13
f 34/34/34 13/13/13 12/12/12
f 34/34/34 12/12/12 35/35/35
f 36/36/36 37/37/37 38/38/38
f 36/36/36 38/38/38 39/39/39
f 36/36/36 39/39/39 40/40/40
f 36/36/36 40/40/40 41/41/41
f 36/36/36 41/41/41 20/20/20
f 36/36/36 20/20/20 19/19/19
f 36/36/36 19/19/19 18/18/18
f 36/36/36 18/18/18 37/37/37
f 42/42/42 41/41/41 40/40/40
f 42/42/42 40/40/40 43/43/43
f 42/42/42 43/43/43 44/44/44
f 42/42/42 44/44/44 45/45/45
f 42/42/42 45/45/45 27/27/27
f 42/42/42 27/27/27 26/26/26
f 42/42/42 26/26/26 20/20/20
f 42/42/42 20/20/20 41/41/41
f 46/46/46 47/47/47 48/48/48
f 46/46/46 48/48/48 49/49/49
f 46/46/46 49/49/49 50/50/50
f 46/46/46 50/50/50 51/51/51
f 46/46/46 51/51/51 52/52/52
f 46/46/46 52/52/52 53/53/53
f 46/46/46 53/53/53 54/54/54
f 46/46/46 54/54/54 47/47/47
f 55/55/55 56/56/56 57/57/57
f 55/55/55 57/57/57 58/58/58
f 55/55/55 58/58/58 48/48/48
f 55/55/55 48/48/48 47/47/47
f 55/55/55 47/47/47 54/54/54
f 55/55/55 54/54/54 59/59/59
f 55/55/55 59/59/59 60/60/60
f 55/55/55 60/60/60 56/56/56
f 61/61/61 62/62/62 63/63/63
f 61/61/61 63/63/63 64/64/64
f 61/61/61 64/64/64 65/65/65
f 61/61/61 65/65/65 66/66/66
f 61/61/61 66/66/66 67/67/67
f 61/61/61 67/67/67 68/68/68
f 61/61/61 68/68/68 69/69/69
f 61/61/61 69/69/69 62/62/62
f 70/70/70 66/66/66 65/65/65
f 70/70/70 65/65/65 71/71/71
f 70/70/70 71/71/71 72/72/72
f 70/70/70 72/72/72 73/73/73
f 70/70/70 73/73/73 74/74/74
f 70/70/70 74/74/74 75/75/75
f 70/70/70 75/75/75 67/67/67
f 70/70/70 67/67/67 66/66/66
f 76/76/76 77/77/77 54/54/54
f 76/76/76 54/54/54 53/53/53
f 76/76/76 53/53/53 52/52/52
f 76/76/76 52/52/52 78/78/78
f 76/76/76 78/78/78 72/72/72
f 76/76/76 72/72/72 71/71/71
f 76/76/76 71/71/71 65/65/65
f 76/76/76 65/65/65 77/77/77
f 79/79/79 80/80/80 60/60/60
f 79/79/79 60/60/60 59/59/59
f 79/79/79 59/59/59 54/54/54
f 79/79/79 54/54/54 77/77/77
f 79/79/79 77/77/77 65/65/65
f 79/79/79 65/65/65 64/64/64
f 79/79/79 64/64/64 63/63/63
f 79/79/79 63/63/63 80/80/80
f 81/81/81 82/82/82 69/69/69
f 81/81/81 69/69/69 68/68/68
f 81/81/81 68/68/68 67/67/67
f 81/81/81 67/67/67 83/83/83
f 81/81/81 83/83/83 84/84/84
f 81/81/81 84/84/84 85/85/85
f 81/81/81 85/85/85 86/86/86
f 81/81/81 86/86/86 82/82/82
f 87/87/87 83/83/83 67/67/67
f 87/87/87 67/67/67 75/75/75
f 87/87/87 75/75/75 74/74/74
f 87/87/87 74/74/74 88/88/88
f 87/87/87 88/88/88 89/89/89
f 87/87/87 89/89/89 90/90/90
f 87/87/87 90/90/90 84/84/84
f 87/87/87 84/84/84 83/83/83
f 91/91/91 92/92/92 38/38/38
f 91/91/91 38/38/38 37/37/37
f 91/91/91 37/37/37 18/18/18
f 91/91/91 18/18/18 93/93/93
f 91/91/91 93/93/93 69/69/69
f 91/91/91 69/69/69 82/82/82
f 91/91/91 82/82/82 94/94/94
f 91/91/91 94/94/94 92/92/92
f 95/95/95 96/96/96 44/44/44
f 95/95/95 44/44/44 43/43/43
f 95/95/95 43/43/43 40/40/40
f 95/95/95 40/40/40 97/97/97
f 95/95/95 97/97/97 84/84/84
f 95/95/95 84/84/84 90/90/90
f 95/95/95 90/90/90 98/98/98
f 95/95/95 98/98/98 96/96/96
f 99/99/99 100/100/100 7/7/7
f 99/99/99 7/7/7 6/6/6
f 99/99/99 6/6/6 5/5/5
f 99/99/99 5/5/5 101/101/101
f 99/99/99 101/101/101 52/52/52
f 99/99/99 52/52/52 51/51/51
f 99/99/99 51/51/51 102/102/102
f 99/99/99 102/102/102 100/100/100
f 103/103/103 104/104/104 15/15/15
f 103/103/103 15/15/15 14/14/14
f 103/103/103 14/14/14 9/9/9
f 103/103/103 9/9/9 105/105/105
f 103/103/103 105/105/105 48/48/48
f 103/103/103 48/48/48 58/58/58
f 103/103/103 58/58/58 106/106/106
f 103/103/103 106/106/106 104/104/104
f 107/107/107 108/108/108 12/12/12
f 107/107/107 12/12/12 11/11/11
f 107/107/107 11/11/11 15/15/15
f 107/107/107 15/15/15 104/104/104
f 107/107/107 104/104/104 106/106/106
f 107/107/107 106/106/106 56/56/56
f 107/107/107 56/56/56 60/60/60
f 107/107/107 60/60/60 108/108/108
f 109/109/109 97/97/97 40/40/40
f 109/109/109 40/40/40 39/39/39
f 109/109/109 39/39/39 38/38/38
f 109/109/109 38/38/38 92/92/92
f 109/109/109 92/92/92 94/94/94
f 109/109/109 94/94/94 85/85/85
f 109/109/109 85/85/85 84/84/84
f 109/109/109 84/84/84 97/97/97
f 110/110/110 111/111/111 27/27/27
f 110/110/110 27/27/27 45/45/45
f 110/110/110 45/45/45 44/44/44
f 110/110/110 44/44/44 96/96/96
f 110/110/110 96/96/96 98/98/98
f 110/110/110 98/98/98 88/88/88
f 110/110/110 88/88/88 74/74/74
f 110/110/110 74/74/74 111/111/111
f 112/112/112 105/105/105 9/9/9
f 112/112/112 9/9/9 8/8/8
f 112/112/112 8/8/8 7/7/7
f 112/112/112 7/7/7 100/100/100
f 112/112/112 100/100/100 102/102/102
f 112/112/112 102/102/102 49/49/49
f 112/112/112 49/49/49 48/48/48
f 112/112/112 48/48/48 105/105/105
f 113/113/113 101/101/101 5/5/5
f 113/113/113 5/5/5 33/33/33
f 113/113/113 33/33/33 29/29/29
f 113/113/113 29/29/29 114/114/114
f 113/113/113 114/114/114 72/72/72
f 113/113/113 72/72/72 78/78/78
f 113/113/113 78/78/78 52/52/52
f 113/113/113 52/52/52 101/101/101
f 115/115/115 116/116/116 24/24/24
f 115/115/115 24/24/24 35/35/35
f 115/115/115 35/35/35 12/12/12
f 115/115/115 12/12/12 108/108/108
f 115/115/115 108/108/108 60/60/60
f 115/115/115 60/60/60 80/80/80
f 115/115/115 80/80/80 63/63/63
f 115/115/115 63/63/63 116/116/116
f 117/117/117 93/93/93 18/18/18
f 117/117/117 18/18/18 17/17/17
f 117/117/117 17/17/17 24/24/24
f 117/117/117 24/24/24 116/116/116
f 117/117/117 116/116/116 63/63/63
f 117/117/117 63/63/63 62/62/62
f 117/117/117 62/62/62 69/69/69
f 117/117/117 69/69/69 93/93/93
f 118/118/118 114/114/114 29/29/29
f 118/118/118 29/29/29 28/28/28
f 118/118/118 28/28/28 27/27/27
f 118/118/118 27/27/27 111/111/111
f 118/118/118 111/111/111 74/74/74
f 118/118/118 74/74/74 73/73/73
f 118/118/118 73/73/73 72/72/72
f 118/118/118 72/72/72 114/114/114
