v -2.364696 0.732578 -1.061955
v -2.365703 0.733243 -1.063231
v -2.366971 0.731407 -1.062532
v -2.365669 0.730827 -1.061196
v -2.364807 0.730395 -1.060029
v -2.364144 0.731963 -1.060777
v -2.363901 0.732939 -1.061568
v -2.364023 0.733788 -1.062600
v -2.364746 0.734545 -1.063805
v -2.367286 0.733632 -1.063884
v -2.368687 0.733811 -1.064161
v -2.369968 0.732495 -1.063873
v -2.368613 0.732025 -1.063389
v -2.366265 0.734701 -1.064270
v -2.367580 0.734436 -1.064308
v -2.372037 0.725664 -1.062197
v -2.373222 0.726148 -1.062849
v -2.373912 0.723740 -1.062562
v -2.372858 0.723311 -1.061995
v -2.371512 0.722763 -1.061155
v -2.370522 0.725045 -1.061239
v -2.369449 0.727269 -1.061464
v -2.371043 0.727923 -1.062452
v -2.372294 0.728438 -1.063112
v -2.369153 0.724491 -1.060048
v -2.370307 0.722274 -1.060094
v -2.369441 0.721921 -1.059232
v -2.368167 0.724091 -1.059084
v -2.367006 0.726287 -1.059174
v -2.368025 0.726696 -1.060205
v -2.366821 0.728837 -1.060600
v -2.368243 0.729402 -1.061919
v -2.365824 0.728446 -1.059492
v -2.369883 0.730083 -1.062881
v -2.371190 0.730629 -1.063488
v -2.373496 0.720869 -1.061725
v -2.374305 0.721197 -1.062116
v -2.374300 0.719689 -1.061801
v -2.373895 0.718998 -1.061518
v -2.373174 0.718705 -1.061140
v -2.372475 0.720453 -1.061124
v -2.371592 0.720094 -1.060307
v -2.372591 0.718468 -1.060546
v -2.371953 0.718734 -1.060053
v -2.370967 0.719839 -1.059629
v -2.364609 0.732478 -1.062082
v -2.365634 0.733150 -1.063374
v -2.364696 0.734473 -1.063911
v -2.363958 0.733711 -1.062693
v -2.363849 0.732881 -1.061634
v -2.364069 0.731885 -1.060864
v -2.364732 0.730323 -1.060120
v -2.365579 0.730734 -1.061327
v -2.366898 0.731319 -1.062677
v -2.367238 0.733548 -1.064040
v -2.368661 0.733753 -1.064284
v -2.367559 0.734391 -1.064397
v -2.366231 0.734636 -1.064386
v -2.368558 0.731946 -1.063546
v -2.369936 0.732440 -1.063996
v -2.371961 0.725613 -1.062356
v -2.373171 0.726112 -1.062973
v -2.372248 0.728396 -1.063235
v -2.370972 0.727863 -1.062611
v -2.369365 0.727202 -1.061614
v -2.370432 0.724988 -1.061390
v -2.371420 0.722712 -1.061307
v -2.372779 0.723266 -1.062155
v -2.373859 0.723709 -1.062687
v -2.369051 0.724429 -1.060189
v -2.367928 0.726624 -1.060344
v -2.366927 0.726231 -1.059273
v -2.368085 0.724043 -1.059185
v -2.369357 0.721877 -1.059333
v -2.370202 0.722218 -1.060236
v -2.366728 0.728754 -1.060735
v -2.368164 0.729325 -1.062066
v -2.365747 0.728382 -1.059587
v -2.369820 0.730012 -1.063038
v -2.371151 0.730580 -1.063612
v -2.373416 0.720827 -1.061886
v -2.374253 0.721169 -1.062241
v -2.372381 0.720405 -1.061276
v -2.373104 0.718669 -1.061254
v -2.373836 0.718967 -1.061639
v -2.374259 0.719667 -1.061893
v -2.371485 0.720041 -1.060448
v -2.370880 0.719797 -1.059729
v -2.371891 0.718704 -1.060129
v -2.372510 0.718428 -1.060652
v -2.374553 0.721295 -1.062302
v -2.374488 0.719236 -1.061802
v -2.374241 0.723870 -1.062808
v -2.374259 0.719667 -1.061893
v -2.372888 0.717908 -1.060673
v -2.372136 0.718279 -1.060050
v -2.373376 0.718106 -1.061196
v -2.371891 0.718704 -1.060129
v -2.363924 0.731723 -1.060421
v -2.363708 0.732976 -1.061458
v -2.364484 0.730219 -1.059679
v -2.363849 0.732881 -1.061634
v -2.365910 0.735028 -1.064450
v -2.367689 0.734595 -1.064423
v -2.364405 0.734947 -1.064044
v -2.367559 0.734391 -1.064397
v -2.369144 0.733846 -1.064309
v -2.370407 0.732628 -1.064090
v -2.374002 0.718361 -1.061503
v -2.370718 0.719735 -1.059446
v -2.369114 0.721784 -1.058989
v -2.363770 0.734157 -1.062856
v -2.365456 0.728287 -1.059163
v -2.366630 0.726126 -1.058873
v -2.371610 0.730790 -1.063747
v -2.372692 0.728592 -1.063388
v -2.373595 0.726293 -1.063122
v -2.367800 0.723936 -1.058806
vn -0.511600 0.587900 0.626600
vn -0.343300 0.550000 0.761300
vn -0.375500 0.502500 0.778700
vn -0.527600 0.535000 0.659800
vn -0.534000 0.512300 0.672500
vn -0.506500 0.585900 0.632600
vn -0.483800 0.635400 0.601700
vn -0.432500 0.650500 0.624300
vn -0.290600 0.619900 0.728800
vn -0.181400 0.453400 0.872600
vn -0.188200 0.456500 0.869600
vn -0.253100 0.398100 0.881700
vn -0.232500 0.414900 0.879600
vn -0.162800 0.540500 0.825400
vn -0.142000 0.496100 0.856500
vn -0.410000 0.248300 0.877600
vn -0.443400 0.253000 0.859900
vn -0.458700 0.224500 0.859700
vn -0.417100 0.215200 0.883000
vn -0.513500 0.243900 0.822700
vn -0.496200 0.282900 0.820800
vn -0.458900 0.359500 0.812500
vn -0.366100 0.312000 0.876700
vn -0.395900 0.306000 0.865700
vn -0.575800 0.315700 0.754200
vn -0.594900 0.287600 0.750600
vn -0.563600 0.267100 0.781600
vn -0.552800 0.297500 0.778400
vn -0.540500 0.364800 0.758100
vn -0.552000 0.387600 0.738200
vn -0.533900 0.470000 0.702900
vn -0.413800 0.440900 0.796400
vn -0.535100 0.443300 0.719200
vn -0.299500 0.374600 0.877500
vn -0.326100 0.358200 0.874800
vn -0.401600 0.193500 0.895100
vn -0.448300 0.199300 0.871400
vn -0.428700 0.172900 0.886700
vn -0.404600 0.133400 0.904700
vn -0.542200 0.172900 0.822300
vn -0.521300 0.225400 0.823100
vn -0.618300 0.281600 0.733700
vn -0.654400 0.235000 0.718600
vn -0.616200 0.249100 0.747100
vn -0.587300 0.255800 0.767800
vn 0.542700 -0.574100 -0.613100
vn 0.352300 -0.537100 -0.766400
vn 0.386100 -0.486000 -0.784000
vn 0.630400 -0.531500 -0.565700
vn 0.710800 -0.518800 -0.474900
vn 0.692800 -0.525700 -0.493600
vn 0.653500 -0.517900 -0.552000
vn 0.538700 -0.536800 -0.649300
vn 0.375400 -0.502700 -0.778700
vn 0.171100 -0.422900 -0.889900
vn 0.066000 -0.270700 -0.960400
vn 0.050300 -0.250100 -0.966900
vn 0.136100 -0.330200 -0.934000
vn 0.220700 -0.407500 -0.886100
vn 0.126600 -0.303600 -0.944300
vn 0.396300 -0.243900 -0.885100
vn 0.297600 -0.212700 -0.930700
vn 0.264600 -0.255900 -0.929700
vn 0.353600 -0.307000 -0.883500
vn 0.459000 -0.359300 -0.812500
vn 0.496300 -0.282700 -0.820800
vn 0.513500 -0.243800 -0.822700
vn 0.400200 -0.212000 -0.891500
vn 0.276900 -0.201400 -0.939500
vn 0.586600 -0.321300 -0.743400
vn 0.562300 -0.391900 -0.728100
vn 0.641000 -0.409100 -0.649400
vn 0.656900 -0.358800 -0.663100
vn 0.673200 -0.362600 -0.644400
vn 0.606600 -0.296000 -0.737800
vn 0.544000 -0.473300 -0.692800
vn 0.413800 -0.440900 -0.796400
vn 0.636500 -0.473700 -0.608600
vn 0.287600 -0.368900 -0.883800
vn 0.199400 -0.295900 -0.934100
vn 0.372200 -0.202900 -0.905700
vn 0.214300 -0.212400 -0.953400
vn 0.516600 -0.236700 -0.822900
vn 0.494900 -0.285700 -0.820600
vn 0.280300 -0.241500 -0.929000
vn 0.174000 -0.224100 -0.958900
vn 0.627700 -0.306900 -0.715400
vn 0.690200 -0.406000 -0.598900
vn 0.696100 -0.436400 -0.570100
vn 0.644600 -0.389600 -0.657700
vn -0.941300 -0.009000 -0.337500
vn -0.905900 -0.386400 -0.173100
vn -0.906200 0.128800 -0.402600
vn 0.174000 -0.224100 -0.958900
vn -0.219600 -0.957300 0.187700
vn 0.115200 -0.801200 0.587100
vn -0.326800 -0.942000 -0.076100
vn 0.696100 -0.436400 -0.570100
vn 0.728900 0.146100 0.668800
vn 0.780400 0.402200 0.478700
vn 0.682400 -0.050500 0.729200
vn 0.710800 -0.518800 -0.474900
vn 0.070600 0.871900 -0.484500
vn -0.351200 0.862600 -0.364000
vn 0.570700 0.735600 -0.364800
vn 0.050300 -0.250100 -0.966900
vn -0.628400 0.698500 -0.342200
vn -0.766600 0.538600 -0.349600
vn -0.579800 -0.810800 -0.080200
vn 0.441200 -0.571500 0.691900
vn 0.556800 -0.466800 0.687100
vn 0.820600 0.566700 0.073900
vn 0.650900 -0.195100 0.733700
vn 0.636900 -0.280000 0.718300
vn -0.833500 0.408700 -0.371800
vn -0.857900 0.328300 -0.395200
vn -0.875500 0.246400 -0.415500
vn 0.618700 -0.361700 0.697400
vt 0.839504 0.118056
vt 0.856743 0.205307
vt 0.741230 0.205307
vt 0.734555 0.106726
vt 0.724541 0.032791
vt 0.813647 0.052618
vt 0.868992 0.081539
vt 0.913398 0.129584
vt 0.940923 0.205307
vt 0.839504 0.292557
vt 0.813647 0.357995
vt 0.724541 0.377822
vt 0.734555 0.303887
vt 0.913398 0.281029
vt 0.868992 0.329074
vt 0.369475 0.299954
vt 0.368286 0.370940
vt 0.245840 0.351447
vt 0.246397 0.288815
vt 0.246768 0.205307
vt 0.370268 0.205307
vt 0.494283 0.205307
vt 0.492822 0.304944
vt 0.490632 0.379672
vt 0.369475 0.110659
vt 0.246397 0.121798
vt 0.245841 0.059166
vt 0.368286 0.039673
vt 0.490632 0.030941
vt 0.492822 0.105669
vt 0.616755 0.103478
vt 0.619174 0.205307
vt 0.613127 0.027106
vt 0.616755 0.307135
vt 0.613126 0.383507
vt 0.123273 0.268175
vt 0.123047 0.315326
vt 0.054743 0.283353
vt 0.030912 0.249131
vt 0.030973 0.205306
vt 0.123423 0.205306
vt 0.123273 0.142438
vt 0.030912 0.161481
vt 0.054744 0.127260
vt 0.123047 0.095287
vt 0.839504 0.118056
vt 0.856743 0.205307
vt 0.968983 0.205307
vt 0.938030 0.133427
vt 0.876123 0.061548
vt 0.805028 0.030806
vt 0.721203 0.008146
vt 0.734555 0.106726
vt 0.741230 0.205307
vt 0.839504 0.292557
vt 0.805028 0.379807
vt 0.876123 0.349065
vt 0.938030 0.277186
vt 0.734555 0.303887
vt 0.721203 0.402467
vt 0.369475 0.299954
vt 0.367890 0.394602
vt 0.489902 0.404581
vt 0.492822 0.304944
vt 0.494283 0.205307
vt 0.370268 0.205307
vt 0.246768 0.205307
vt 0.246397 0.288815
vt 0.245655 0.372324
vt 0.369475 0.110659
vt 0.492822 0.105669
vt 0.489902 0.006032
vt 0.367890 0.016011
vt 0.245655 0.038289
vt 0.246397 0.121798
vt 0.616755 0.103478
vt 0.619174 0.205307
vt 0.611917 0.001649
vt 0.616755 0.307135
vt 0.611917 0.408964
vt 0.123273 0.268175
vt 0.122972 0.331043
vt 0.123423 0.205306
vt 0.000156 0.205306
vt 0.000125 0.242784
vt 0.000064 0.280261
vt 0.123273 0.142438
vt 0.122972 0.079570
vt 0.000064 0.130352
vt 0.000125 0.167829
vt 0.122972 0.331043
vt 0.030806 0.283587
vt 0.245655 0.372324
vt 0.030806 0.283587
vt 0.000125 0.167829
vt 0.030806 0.127026
vt 0.000156 0.205306
vt 0.030806 0.127026
vt 0.805028 0.030806
vt 0.873826 0.071832
vt 0.721203 0.008146
vt 0.873826 0.071832
vt 0.938030 0.277186
vt 0.873826 0.338781
vt 0.968983 0.205307
vt 0.873826 0.338781
vt 0.805028 0.379807
vt 0.721203 0.402467
vt 0.000125 0.242784
vt 0.122972 0.079570
vt 0.245655 0.038289
vt 0.938030 0.133427
vt 0.611917 0.001649
vt 0.489902 0.006032
vt 0.611917 0.408964
vt 0.489902 0.404581
vt 0.367890 0.394602
vt 0.367890 0.016011
f 1/1/1 2/2/2 3/3/3
f 1/1/1 3/3/3 4/4/4
f 1/1/1 4/4/4 5/5/5
f 1/1/1 5/5/5 6/6/6
f 1/1/1 6/6/6 7/7/7
f 1/1/1 7/7/7 8/8/8
f 1/1/1 8/8/8 9/9/9
f 1/1/1 9/9/9 2/2/2
f 10/10/10 11/11/11 12/12/12
f 10/10/10 12/12/12 13/13/13
f 10/10/10 13/13/13 3/3/3
f 10/10/10 3/3/3 2/2/2
f 10/10/10 2/2/2 9/9/9
f 10/10/10 9/9/9 14/14/14
f 10/10/10 14/14/14 15/15/15
f 10/10/10 15/15/15 11/11/11
f 16/16/16 17/17/17 18/18/18
f 16/16/16 18/18/18 19/19/19
f 16/16/16 19/19/19 20/20/20
f 16/16/16 20/20/20 21/21/21
f 16/16/16 21/21/21 22/22/22
f 16/16/16 22/22/22 23/23/23
f 16/16/16 23/23/23 24/24/24
f 16/16/16 24/24/24 17/17/17
f 25/25/25 21/21/21 20/20/20
f 25/25/25 20/20/20 26/26/26
f 25/25/25 26/26/26 27/27/27
f 25/25/25 27/27/27 28/28/28
f 25/25/25 28/28/28 29/29/29
f 25/25/25 29/29/29 30/30/30
f 25/25/25 30/30/30 22/22/22
f 25/25/25 22/22/22 21/21/21
f 31/31/31 32/32/32 22/22/22
f 31/31/31 22/22/22 30/30/30
f 31/31/31 30/30/30 29/29/29
f 31/31/31 29/29/29 33/33/33
f 31/31/31 33/33/33 5/5/5
f 31/31/31 5/5/5 4/4/4
f 31/31/31 4/4/4 3/3/3
f 31/31/31 3/3/3 32/32/32
f 34/34/34 35/35/35 24/24/24
f 34/34/34 24/24/24 23/23/23
f 34/34/34 23/23/23 22/22/22
f 34/34/34 22/22/22 32/32/32
f 34/34/34 32/32/32 3/3/3
f 34/34/34 3/3/3 13/13/13
f 34/34/34 13/13/13 12/12/12
f 34/34/34 12/12/12 35/35/35
f 36/36/36 37/37/37 38/38/38
f 36/36/36 38/38/38 39/39/39
f 36/36/36 39/39/39 40/40/40
f 36/36/36 40/40/40 41/41/41
f 36/36/36 41/41/41 20/20/20
f 36/36/36 20/20/20 19/19/19
f 36/36/36 19/19/19 18/18/18
f 36/36/36 18/18/18 37/37/37
f 42/42/42 41/41/41 40/40/40
f 42/42/42 40/40/40 43/43/43
f 42/42/42 43/43/43 44/44/44
f 42/42/42 44/44/44 45/45/45
f 42/42/42 45/45/45 27/27/27
f 42/42/42 27/27/27 26/26/26
f 42/42/42 26/26/26 20/20/20
f 42/42/42 20/20/20 41/41/41
f 46/46/46 47/47/47 48/48/48
f 46/46/46 48/48/48 49/49/49
f 46/46/46 49/49/49 50/50/50
f 46/46/46 50/50/50 51/51/51
f 46/46/46 51/51/51 52/52/52
f 46/46/46 52/52/52 53/53/53
f 46/46/46 53/53/53 54/54/54
f 46/46/46 54/54/54 47/47/47
f 55/55/55 56/56/56 57/57/57
f 55/55/55 57/57/57 58/58/58
f 55/55/55 58/58/58 48/48/48
f 55/55/55 48/48/48 47/47/47
f 55/55/55 47/47/47 54/54/54
f 55/55/55 54/54/54 59/59/59
f 55/55/55 59/59/59 60/60/60
f 55/55/55 60/60/60 56/56/56
f 61/61/61 62/62/62 63/63/63
f 61/61/61 63/63/63 64/64/64
f 61/61/61 64/64/64 65/65/65
f 61/61/61 65/65/65 66/66/66
f 61/61/61 66/66/66 67/67/67
f 61/61/61 67/67/67 68/68/68
f 61/61/61 68/68/68 69/69/69
f 61/61/61 69/69/69 62/62/62
f 70/70/70 66/66/66 65/65/65
f 70/70/70 65/65/65 71/71/71
f 70/70/70 71/71/71 72/72/72
f 70/70/70 72/72/72 73/73/73
f 70/70/70 73/73/73 74/74/74
f 70/70/70 74/74/74 75/75/75
f 70/70/70 75/75/75 67/67/67
f 70/70/70 67/67/67 66/66/66
f 76/76/76 77/77/77 54/54/54
f 76/76/76 54/54/54 53/53/53
f 76/76/76 53/53/53 52/52/52
f 76/76/76 52/52/52 78/78/78
f 76/76/76 78/78/78 72/72/72
f 76/76/76 72/72/72 71/71/71
f 76/76/76 71/71/71 65/65/65
f 76/76/76 65/65/65 77/77/77
f 79/79/79 80/80/80 60/60/60
f 79/79/79 60/60/60 59/59/59
f 79/79/79 59/59/59 54/54/54
f 79/79/79 54/54/54 77/77/77
f 79/79/79 77/77/77 65/65/65
f 79/79/79 65/65/65 64/64/64
f 79/79/79 64/64/64 63/63/63
f 79/79/79 63/63/63 80/80/80
f 81/81/81 82/82/82 69/69/69
f 81/81/81 69/69/69 68/68/68
f 81/81/81 68/68/68 67/67/67
f 81/81/81 67/67/67 83/83/83
f 81/81/81 83/83/83 84/84/84
f 81/81/81 84/84/84 85/85/85
f 81/81/81 85/85/85 86/86/86
f 81/81/81 86/86/86 82/82/82
f 87/87/87 83/83/83 67/67/67
f 87/87/87 67/67/67 75/75/75
f 87/87/87 75/75/75 74/74/74
f 87/87/87 74/74/74 88/88/88
f 87/87/87 88/88/88 89/89/89
f 87/87/87 89/89/89 90/90/90
f 87/87/87 90/90/90 84/84/84
f 87/87/87 84/84/84 83/83/83
f 91/91/91 92/92/92 38/38/38
f 91/91/91 38/38/38 37/37/37
f 91/91/91 37/37/37 18/18/18
f 91/91/91 18/18/18 93/93/93
f 91/91/91 93/93/93 69/69/69
f 91/91/91 69/69/69 82/82/82
f 91/91/91 82/82/82 94/94/94
f 91/91/91 94/94/94 92/92/92
f 95/95/95 96/96/96 44/44/44
f 95/95/95 44/44/44 43/43/43
f 95/95/95 43/43/43 40/40/40
f 95/95/95 40/40/40 97/97/97
f 95/95/95 97/97/97 84/84/84
f 95/95/95 84/84/84 90/90/90
f 95/95/95 90/90/90 98/98/98
f 95/95/95 98/98/98 96/96/96
f 99/99/99 100/100/100 7/7/7
f 99/99/99 7/7/7 6/6/6
f 99/99/99 6/6/6 5/5/5
f 99/99/99 5/5/5 101/101/101
f 99/99/99 101/101/101 52/52/52
f 99/99/99 52/52/52 51/51/51
f 99/99/99 51/51/51 102/102/102
f 99/99/99 102/102/102 100/100/100
f 103/103/103 104/104/104 15/15/15
f 103/103/103 15/15/15 14/14/14
f 103/103/103 14/14/14 9/9/9
f 103/103/103 9/9/9 105/105/105
f 103/103/103 105/105/105 48/48/48
f 103/103/103 48/48/48 58/58/58
f 103/103/103 58/58/58 106/106/106
f 103/103/103 106/106/106 104/104/104
f 107/107/107 108/108/108 12/12/12
f 107/107/107 12/12/12 11/11/11
f 107/107/107 11/11/11 15/15/15
f 107/107/107 15/15/15 104/104/104
f 107/107/107 104/104/104 106/106/106
f 107/107/107 106/106/106 56/56/56
f 107/107/107 56/56/56 60/60/60
f 107/107/107 60/60/60 108/108/108
f 109/109/109 97/97/97 40/40/40
f 109/109/109 40/40/40 39/39/39
f 109/109/109 39/39/39 38/38/38
f 109/109/109 38/38/38 92/92/92
f 109/109/109 92/92/92 94/94/94
f 109/109/109 94/94/94 85/85/85
f 109/109/109 85/85/85 84/84/84
f 109/109/109 84/84/84 97/97/97
f 110/110/110 111/111/111 27/27/27
f 110/110/110 27/27/27 45/45/45
f 110/110/110 45/45/45 44/44/44
f 110/110/110 44/44/44 96/96/96
f 110/110/110 96/96/96 98/98/98
f 110/110/110 98/98/98 88/88/88
f 110/110/110 88/88/88 74/74/74
f 110/110/110 74/74/74 111/111/111
f 112/112/112 105/105/105 9/9/9
f 112/112/112 9/9/9 8/8/8
f 112/112/112 8/8/8 7/7/7
f 112/112/112 7/7/7 100/100/100
f 112/112/112 100/100/100 102/102/102
f 112/112/112 102/102/102 49/49/49
f 112/112/112 49/49/49 48/48/48
f 112/112/112 48/48/48 105/105/105
f 113/113/113 101/101/101 5/5/5
f 113/113/113 5/5/5 33/33/33
f 113/113/113 33/33/33 29/29/29
f 113/113/113 29/29/29 114/114/114
f 113/113/113 114/114/114 72/72/72
f 113/113/113 72/72/72 78/78/78
f 113/113/113 78/78/78 52/52/52
f 113/113/113 52/52/52 101/101/101
f 115/115/115 116/116/116 24/24/24
f 115/115/115 24/24/24 35/35/35
f 115/115/115 35/35/35 12/12/12
f 115/115/115 12/12/12 108/108/108
f 115/115/115 108/108/108 60/60/60
f 115/115/115 60/60/60 80/80/80
f 115/115/115 80/80/80 63/63/63
f 115/115/115 63/63/63 116/116/116
f 117/117/117 93/93/93 18/18/18
f 117/117/117 18/18/18 17/17/17
f 117/117/117 17/17/17 24/24/24
f 117/117/117 24/24/24 116/116/116
f 117/117/117 116/116/116 63/63/63
f 117/117/117 63/63/63 62/62/62
f 117/117/117 62/62/62 69/69/69
f 117/117/117 69/69/69 93/93/93
f 118/118/118 114/114/114 29/29/29
f 118/118/118 29/29/29 28/28/28
f 118/118/118 28/28/28 27/27/27
f 118/118/118 27/27/27 111/111/111
f 118/118/118 111/111/111 74/74/74
f 118/118/118 74/74/74 73/73/73
f 118/118/118 73/73/73 72/72/72
f 118/118/118 72/72/72 114/114/114
