v -2.449491 0.747378 -1.083486
v -2.447495 0.748283 -1.082633
v -2.446706 0.747685 -1.085602
v -2.449032 0.746666 -1.086225
v -2.450845 0.746062 -1.086897
v -2.451009 0.746829 -1.084535
v -2.450639 0.747300 -1.082931
v -2.449687 0.747819 -1.081499
v -2.448026 0.748630 -1.080427
v -2.445574 0.749613 -1.082895
v -2.444141 0.750748 -1.083499
v -2.443043 0.750514 -1.085720
v -2.444581 0.749206 -1.085554
v -2.446297 0.749753 -1.080988
v -2.445077 0.750474 -1.082092
v -2.441434 0.745876 -1.094216
v -2.439876 0.746996 -1.094123
v -2.439036 0.745203 -1.096856
v -2.440410 0.744202 -1.096928
v -2.442281 0.742971 -1.097109
v -2.443553 0.744493 -1.094432
v -2.444739 0.745834 -1.091638
v -2.442532 0.747299 -1.091424
v -2.440915 0.748499 -1.091344
v -2.445796 0.743387 -1.094875
v -2.444267 0.742002 -1.097510
v -2.445795 0.741346 -1.097875
v -2.447518 0.742636 -1.095276
v -2.448909 0.743938 -1.092550
v -2.447094 0.744696 -1.092112
v -2.448203 0.745780 -1.089164
v -2.445789 0.746883 -1.088650
v -2.450082 0.745089 -1.089663
v -2.443574 0.748422 -1.088466
v -2.441969 0.749718 -1.088439
v -2.439590 0.742326 -1.099640
v -2.438580 0.743113 -1.099620
v -2.438563 0.741712 -1.101133
v -2.439039 0.740822 -1.101655
v -2.439969 0.740132 -1.101697
v -2.440973 0.741377 -1.099749
v -2.442469 0.740684 -1.100074
v -2.441011 0.739696 -1.101953
v -2.442112 0.739687 -1.101668
v -2.443628 0.740233 -1.100381
v -2.449415 0.747156 -1.083412
v -2.447389 0.748076 -1.082554
v -2.447946 0.748474 -1.080371
v -2.449631 0.747651 -1.081447
v -2.450605 0.747173 -1.082893
v -2.450969 0.746656 -1.084482
v -2.450802 0.745893 -1.086836
v -2.448956 0.746448 -1.086140
v -2.446603 0.747480 -1.085514
v -2.445440 0.749425 -1.082812
v -2.444026 0.750618 -1.083435
v -2.444995 0.750374 -1.082046
v -2.446194 0.749612 -1.080929
v -2.444452 0.749018 -1.085461
v -2.442934 0.750382 -1.085649
v -2.441327 0.745698 -1.094084
v -2.439786 0.746868 -1.094023
v -2.440821 0.748369 -1.091252
v -2.442419 0.747116 -1.091303
v -2.444646 0.745639 -1.091520
v -2.443465 0.744304 -1.094301
v -2.442196 0.742786 -1.096970
v -2.440307 0.744028 -1.096786
v -2.438949 0.745078 -1.096749
v -2.445726 0.743188 -1.094747
v -2.447021 0.744490 -1.091997
v -2.448865 0.743779 -1.092466
v -2.447475 0.742481 -1.095183
v -2.445755 0.741195 -1.097776
v -2.444201 0.741806 -1.097374
v -2.448128 0.745568 -1.089065
v -2.445690 0.746683 -1.088547
v -2.450037 0.744925 -1.089590
v -2.443453 0.748236 -1.088360
v -2.441868 0.749586 -1.088358
v -2.439487 0.742154 -1.099495
v -2.438493 0.742991 -1.099511
v -2.440889 0.741193 -1.099607
v -2.439906 0.739994 -1.101590
v -2.438960 0.740694 -1.101547
v -2.438501 0.741620 -1.101052
v -2.442406 0.740489 -1.099935
v -2.443591 0.740082 -1.100280
v -2.442082 0.739577 -1.101593
v -2.440965 0.739550 -1.101849
v -2.438202 0.743323 -1.099565
v -2.438301 0.741396 -1.101645
v -2.438537 0.745483 -1.096784
v -2.438501 0.741620 -1.101052
v -2.440505 0.739302 -1.102533
v -2.441856 0.739367 -1.102181
v -2.439606 0.739656 -1.102298
v -2.442082 0.739577 -1.101593
v -2.451501 0.746568 -1.084862
v -2.450922 0.747236 -1.082852
v -2.451433 0.745784 -1.087094
v -2.450605 0.747173 -1.082893
v -2.446491 0.749737 -1.080326
v -2.444905 0.750670 -1.081944
v -2.448167 0.748676 -1.079667
v -2.444995 0.750374 -1.082046
v -2.443609 0.751071 -1.083671
v -2.442479 0.750894 -1.085743
v -2.438820 0.740264 -1.102279
v -2.444000 0.740015 -1.100439
v -2.446289 0.741059 -1.097953
v -2.449728 0.747891 -1.080814
v -2.450691 0.744784 -1.089797
v -2.449497 0.743613 -1.092659
v -2.441387 0.750093 -1.088393
v -2.440332 0.748843 -1.091276
v -2.439314 0.747314 -1.094047
v -2.448075 0.742315 -1.095369
vn -0.243600 0.935300 -0.256500
vn -0.445800 0.853000 -0.271200
vn -0.430400 0.841000 -0.327800
vn -0.249400 0.914900 -0.317200
vn -0.251100 0.905400 -0.342300
vn -0.251000 0.932900 -0.258400
vn -0.250600 0.947600 -0.197900
vn -0.302900 0.936800 -0.174800
vn -0.466600 0.865700 -0.181000
vn -0.616500 0.722500 -0.312800
vn -0.610300 0.727800 -0.312600
vn -0.568400 0.724400 -0.390100
vn -0.582800 0.724700 -0.367500
vn -0.607400 0.763100 -0.220800
vn -0.636600 0.727400 -0.256200
vn -0.440200 0.699200 -0.563300
vn -0.406400 0.716200 -0.567300
vn -0.391600 0.703400 -0.593100
vn -0.434200 0.679900 -0.590900
vn -0.332200 0.737700 -0.587700
vn -0.348300 0.756700 -0.553100
vn -0.378700 0.790800 -0.480800
vn -0.478200 0.722100 -0.499800
vn -0.450000 0.731100 -0.512700
vn -0.253000 0.806000 -0.535100
vn -0.233300 0.794500 -0.560600
vn -0.273300 0.770900 -0.575300
vn -0.282800 0.786800 -0.548600
vn -0.286600 0.824400 -0.488100
vn -0.268200 0.841900 -0.468100
vn -0.266900 0.882800 -0.386400
vn -0.409000 0.821700 -0.396800
vn -0.274000 0.868300 -0.413300
vn -0.531700 0.731700 -0.426400
vn -0.510100 0.733600 -0.449000
vn -0.449600 0.658300 -0.603700
vn -0.402800 0.682100 -0.610200
vn -0.422400 0.655800 -0.625600
vn -0.444700 0.617600 -0.648600
vn -0.301800 0.700000 -0.647100
vn -0.324400 0.728200 -0.603700
vn -0.204800 0.798100 -0.566700
vn -0.162600 0.778500 -0.606100
vn -0.210900 0.776500 -0.593700
vn -0.245900 0.771600 -0.586600
vn 0.211200 -0.938400 0.273400
vn 0.441700 -0.850000 0.286900
vn 0.424800 -0.836200 0.346900
vn 0.112600 -0.941200 0.318400
vn -0.009100 -0.948900 0.315300
vn 0.017500 -0.949800 0.312300
vn 0.085300 -0.939800 0.330700
vn 0.234800 -0.919300 0.315700
vn 0.430400 -0.841000 0.327700
vn 0.631000 -0.698900 0.336600
vn 0.725500 -0.545800 0.419100
vn 0.737000 -0.523300 0.427800
vn 0.670900 -0.622700 0.402600
vn 0.594000 -0.714400 0.369900
vn 0.680300 -0.600400 0.420400
vn 0.453900 -0.690400 0.563300
vn 0.545700 -0.624800 0.558300
vn 0.573400 -0.638400 0.513500
vn 0.490500 -0.713400 0.500500
vn 0.378700 -0.790800 0.480800
vn 0.348300 -0.756600 0.553300
vn 0.332200 -0.737600 0.587800
vn 0.450800 -0.670500 0.589100
vn 0.563600 -0.607300 0.560000
vn 0.238900 -0.813100 0.530900
vn 0.254700 -0.847900 0.464900
vn 0.148200 -0.881000 0.449300
vn 0.140000 -0.856300 0.497100
vn 0.116200 -0.862500 0.492400
vn 0.217800 -0.803500 0.554000
vn 0.253500 -0.887900 0.383700
vn 0.409000 -0.821700 0.396700
vn 0.131300 -0.914500 0.382600
vn 0.543100 -0.722600 0.427400
vn 0.624900 -0.632800 0.457100
vn 0.477800 -0.652100 0.588600
vn 0.615900 -0.584200 0.528500
vn 0.329200 -0.734000 0.594000
vn 0.349400 -0.758000 0.550600
vn 0.560400 -0.636200 0.530300
vn 0.647800 -0.571700 0.503500
vn 0.189300 -0.816700 0.545100
vn 0.078400 -0.890900 0.447400
vn 0.058100 -0.908200 0.414400
vn 0.149000 -0.870900 0.468200
vn 0.855400 0.424600 -0.296400
vn 0.772700 0.170700 -0.611400
vn 0.859000 0.488200 -0.154100
vn 0.647800 -0.571700 0.503500
vn 0.158700 -0.540900 -0.826000
vn -0.380400 -0.487700 -0.785700
vn 0.422600 -0.551700 -0.719100
vn 0.058100 -0.908200 0.414400
vn -0.992100 -0.094800 0.081500
vn -0.924800 0.010100 0.380400
vn -0.974900 -0.198200 -0.101300
vn -0.009100 -0.948900 0.315300
vn 0.173500 0.467500 0.866800
vn 0.353500 0.739400 0.573000
vn -0.212700 0.116400 0.970200
vn 0.737000 -0.523300 0.427800
vn 0.541300 0.780300 0.313200
vn 0.661500 0.735600 0.145500
vn 0.565600 -0.308800 -0.764600
vn -0.706000 -0.466800 -0.532600
vn -0.793800 -0.454900 -0.403600
vn -0.673500 -0.015800 0.739000
vn -0.934000 -0.288200 -0.210900
vn -0.899400 -0.349300 -0.262800
vn 0.742500 0.668500 0.042000
vn 0.789100 0.614100 -0.008100
vn 0.829600 0.555500 -0.057100
vn -0.858600 -0.407200 -0.311300
vt 0.839504 0.118056
vt 0.856743 0.205307
vt 0.741230 0.205307
vt 0.734555 0.106726
vt 0.724541 0.032791
vt 0.813647 0.052618
vt 0.868992 0.081539
vt 0.913398 0.129584
vt 0.940923 0.205307
vt 0.839504 0.292557
vt 0.813647 0.357995
vt 0.724541 0.377822
vt 0.734555 0.303887
vt 0.913398 0.281029
vt 0.868992 0.329074
vt 0.369475 0.299954
vt 0.368286 0.370940
vt 0.245840 0.351447
vt 0.246397 0.288815
vt 0.246768 0.205307
vt 0.370268 0.205307
vt 0.494283 0.205307
vt 0.492822 0.304944
vt 0.490632 0.379672
vt 0.369475 0.110659
vt 0.246397 0.121798
vt 0.245841 0.059166
vt 0.368286 0.039673
vt 0.490632 0.030941
vt 0.492822 0.105669
vt 0.616755 0.103478
vt 0.619174 0.205307
vt 0.613127 0.027106
vt 0.616755 0.307135
vt 0.613126 0.383507
vt 0.123273 0.268175
vt 0.123047 0.315326
vt 0.054743 0.283353
vt 0.030912 0.249131
vt 0.030973 0.205306
vt 0.123423 0.205306
vt 0.123273 0.142438
vt 0.030912 0.161481
vt 0.054744 0.127260
vt 0.123047 0.095287
vt 0.839504 0.118056
vt 0.856743 0.205307
vt 0.968983 0.205307
vt 0.938030 0.133427
vt 0.876123 0.061548
vt 0.805028 0.030806
vt 0.721203 0.008146
vt 0.734555 0.106726
vt 0.741230 0.205307
vt 0.839504 0.292557
vt 0.805028 0.379807
vt 0.876123 0.349065
vt 0.938030 0.277186
vt 0.734555 0.303887
vt 0.721203 0.402467
vt 0.369475 0.299954
vt 0.367890 0.394602
vt 0.489902 0.404581
vt 0.492822 0.304944
vt 0.494283 0.205307
vt 0.370268 0.205307
vt 0.246768 0.205307
vt 0.246397 0.288815
vt 0.245655 0.372324
vt 0.369475 0.110659
vt 0.492822 0.105669
vt 0.489902 0.006032
vt 0.367890 0.016011
vt 0.245655 0.038289
vt 0.246397 0.121798
vt 0.616755 0.103478
vt 0.619174 0.205307
vt 0.611917 0.001649
vt 0.616755 0.307135
vt 0.611917 0.408964
vt 0.123273 0.268175
vt 0.122972 0.331043
vt 0.123423 0.205306
vt 0.000156 0.205306
vt 0.000125 0.242784
vt 0.000064 0.280261
vt 0.123273 0.142438
vt 0.122972 0.079570
vt 0.000064 0.130352
vt 0.000125 0.167829
vt 0.122972 0.331043
vt 0.030806 0.283587
vt 0.245655 0.372324
vt 0.030806 0.283587
vt 0.000125 0.167829
vt 0.030806 0.127026
vt 0.000156 0.205306
vt 0.030806 0.127026
vt 0.805028 0.030806
vt 0.873826 0.071832
vt 0.721203 0.008146
vt 0.873826 0.071832
vt 0.938030 0.277186
vt 0.873826 0.338781
vt 0.968983 0.205307
vt 0.873826 0.338781
vt 0.805028 0.379807
vt 0.721203 0.402467
vt 0.000125 0.242784
vt 0.122972 0.079570
vt 0.245655 0.038289
vt 0.938030 0.133427
vt 0.611917 0.001649
vt 0.489902 0.006032
vt 0.611917 0.408964
vt 0.489902 0.404581
vt 0.367890 0.394602
vt 0.367890 0.016011
f 1/1/1 2/2/2 3/3/3
f 1/1/1 3/3/3 4/4/4
f 1/1/1 4/4/4 5/5/5
f 1/1/1 5/5/5 6/6/6
f 1/1/1 6/6/6 7/7/7
f 1/1/1 7/7/7 8/8/8
f 1/1/1 8/8/8 9/9/9
f 1/1/1 9/9/9 2/2/2
f 10/10/10 11/11/11 12/12/12
f 10/10/10 12/12/12 13/13/13
f 10/10/10 13/13/13 3/3/3
f 10/10/10 3/3/3 2/2/2
f 10/10/10 2/2/2 9/9/9
f 10/10/10 9/9/9 14/14/14
f 10/10/10 14/14/14 15/15/15
f 10/10/10 15/15/15 11/11/11
f 16/16/16 17/17/17 18/18/18
f 16/16/16 18/18/18 19/19/19
f 16/16/16 19/19/19 20/20/20
f 16/16/16 20/20/20 21/21/21
f 16/16/16 21/21/21 22/22/22
f 16/16/16 22/22/22 23/23/23
f 16/16/16 23/23/23 24/24/24
f 16/16/16 24/24/24 17/17/17
f 25/25/25 21/21/21 20/20/20
f 25/25/25 20/20/20 26/26/26
f 25/25/25 26/26/26 27/27/27
f 25/25/25 27/27/27 28/28/28
f 25/25/25 28/28/28 29/29/29
f 25/25/25 29/29/29 30/30/30
f 25/25/25 30/30/30 22/22/22
f 25/25/25 22/22/22 21/21/21
f 31/31/31 32/32/32 22/22/22
f 31/31/31 22/22/22 30/30/30
f 31/31/31 30/30/30 29/29/29
f 31/31/31 29/29/29 33/33/33
f 31/31/31 33/33/33 5/5/5
f 31/31/31 5/5/5 4/4/4
f 31/31/31 4/4/4 3/3/3
f 31/31/31 3/3/3 32/32/32
f 34/34/34 35/35/35 24/24/24
f 34/34/34 24/24/24 23/23/23
f 34/34/34 23/23/23 22/22/22
f 34/34/34 22/22/22 32/32/32
f 34/34/34 32/32/32 3/3/3
f 34/34/34 3/3/3 13/13/13
f 34/34/34 13/13/13 12/12/12
f 34/34/34 12/12/12 35/35/35
f 36/36/36 37/37/37 38/38/38
f 36/36/36 38/38/38 39/39/39
f 36/36/36 39/39/39 40/40/40
f 36/36/36 40/40/40 41/41/41
f 36/36/36 41/41/41 20/20/20
f 36/36/36 20/20/20 19/19/19
f 36/36/36 19/19/19 18/18/18
f 36/36/36 18/18/18 37/37/37
f 42/42/42 41/41/41 40/40/40
f 42/42/42 40/40/40 43/43/43
f 42/42/42 43/43/43 44/44/44
f 42/42/42 44/44/44 45/45/45
f 42/42/42 45/45/45 27/27/27
f 42/42/42 27/27/27 26/26/26
f 42/42/42 26/26/26 20/20/20
f 42/42/42 20/20/20 41/41/41
f 46/46/46 47/47/47 48/48/48
f 46/46/46 48/48/48 49/49/49
f 46/46/46 49/49/49 50/50/50
f 46/46/46 50/50/50 51/51/51
f 46/46/46 51/51/51 52/52/52
f 46/46/46 52/52/52 53/53/53
f 46/46/46 53/53/53 54/54/54
f 46/46/46 54/54/54 47/47/47
f 55/55/55 56/56/56 57/57/57
f 55/55/55 57/57/57 58/58/58
f 55/55/55 58/58/58 48/48/48
f 55/55/55 48/48/48 47/47/47
f 55/55/55 47/47/47 54/54/54
f 55/55/55 54/54/54 59/59/59
f 55/55/55 59/59/59 60/60/60
f 55/55/55 60/60/60 56/56/56
f 61/61/61 62/62/62 63/63/63
f 61/61/61 63/63/63 64/64/64
f 61/61/61 64/64/64 65/65/65
f 61/61/61 65/65/65 66/66/66
f 61/61/61 66/66/66 67/67/67
f 61/61/61 67/67/67 68/68/68
f 61/61/61 68/68/68 69/69/69
f 61/61/61 69/69/69 62/62/62
f 70/70/70 66/66/66 65/65/65
f 70/70/70 65/65/65 71/71/71
f 70/70/70 71/71/71 72/72/72
f 70/70/70 72/72/72 73/73/73
f 70/70/70 73/73/73 74/74/74
f 70/70/70 74/74/74 75/75/75
f 70/70/70 75/75/75 67/67/67
f 70/70/70 67/67/67 66/66/66
f 76/76/76 77/77/77 54/54/54
f 76/76/76 54/54/54 53/53/53
f 76/76/76 53/53/53 52/52/52
f 76/76/76 52/52/52 78/78/78
f 76/76/76 78/78/78 72/72/72
f 76/76/76 72/72/72 71/71/71
f 76/76/76 71/71/71 65/65/65
f 76/76/76 65/65/65 77/77/77
f 79/79/79 80/80/80 60/60/60
f 79/79/79 60/60/60 59/59/59
f 79/79/79 59/59/59 54/54/54
f 79/79/79 54/54/54 77/77/77
f 79/79/79 77/77/77 65/65/65
f 79/79/79 65/65/65 64/64/64
f 79/79/79 64/64/64 63/63/63
f 79/79/79 63/63/63 80/80/80
f 81/81/81 82/82/82 69/69/69
f 81/81/81 69/69/69 68/68/68
f 81/81/81 68/68/68 67/67/67
f 81/81/81 67/67/67 83/83/83
f 81/81/81 83/83/83 84/84/84
f 81/81/81 84/84/84 85/85/85
f 81/81/81 85/85/85 86/86/86
f 81/81/81 86/86/86 82/82/82
f 87/87/87 83/83/83 67/67/67
f 87/87/87 67/67/67 75/75/75
f 87/87/87 75/75/75 74/74/74
f 87/87/87 74/74/74 88/88/88
f 87/87/87 88/88/88 89/89/89
f 87/87/87 89/89/89 90/90/90
f 87/87/87 90/90/90 84/84/84
f 87/87/87 84/84/84 83/83/83
f 91/91/91 92/92/92 38/38/38
f 91/91/91 38/38/38 37/37/37
f 91/91/91 37/37/37 18/18/18
f 91/91/91 18/18/18 93/93/93
f 91/91/91 93/93/93 69/69/69
f 91/91/91 69/69/69 82/82/82
f 91/91/91 82/82/82 94/94/94
f 91/91/91 94/94/94 92/92/92
f 95/95/95 96/96/96 44/44/44
f 95/95/95 44/44/44 43/43/43
f 95/95/95 43/43/43 40/40/40
f 95/95/95 40/40/40 97/97/97
f 95/95/95 97/97/97 84/84/84
f 95/95/95 84/84/84 90/90/90
f 95/95/95 90/90/90 98/98/98
f 95/95/95 98/98/98 96/96/96
f 99/99/99 100/100/100 7/7/7
f 99/99/99 7/7/7 6/6/6
f 99/99/99 6/6/6 5/5/5
f 99/99/99 5/5/5 101/101/101
f 99/99/99 101/101/101 52/52/52
f 99/99/99 52/52/52 51/51/51
f 99/99/99 51/51/51 102/102/102
f 99/99/99 102/102/102 100/100/100
f 103/103/103 104/104/104 15/15/15
f 103/103/103 15/15/15 14/14/14
f 103/103/103 14/14/14 9/9/9
f 103/103/103 9/9/9 105/105/105
f 103/103/103 105/105/105 48/48/48
f 103/103/103 48/48/48 58/58/58
f 103/103/103 58/58/58 106/106/106
f 103/103/103 106/106/106 104/104/104
f 107/107/107 108/108/108 12/12/12
f 107/107/107 12/12/12 11/11/11
f 107/107/107 11/11/11 15/15/15
f 107/107/107 15/15/15 104/104/104
f 107/107/107 104/104/104 106/106/106
f 107/107/107 106/106/106 56/56/56
f 107/107/107 56/56/56 60/60/60
f 107/107/107 60/60/60 108/108/108
f 109/109/109 97/97/97 40/40/40
f 109/109/109 40/40/40 39/39/39
f 109/109/109 39/39/39 38/38/38
f 109/109/109 38/38/38 92/92/92
f 109/109/109 92/92/92 94/94/94
f 109/109/109 94/94/94 85/85/85
f 109/109/109 85/85/85 84/84/84
f 109/109/109 84/84/84 97/97/97
f 110/110/110 111/111/111 27/27/27
f 110/110/110 27/27/27 45/45/45
f 110/110/110 45/45/45 44/44/44
f 110/110/110 44/44/44 96/96/96
f 110/110/110 96/96/96 98/98/98
f 110/110/110 98/98/98 88/88/88
f 110/110/110 88/88/88 74/74/74
f 110/110/110 74/74/74 111/111/111
f 112/112/112 105/105/105 9/9/9
f 112/112/112 9/9/9 8/8/8
f 112/112/112 8/8/8 7/7/7
f 112/112/112 7/7/7 100/100/100
f 112/112/112 100/100/100 102/102/102
f 112/112/112 102/102/102 49/49/49
f 112/112/112 49/49/49 48/48/48
f 112/112/112 48/48/48 105/105/105
f 113/113/113 101/101/101 5/5/5
f 113/113/113 5/5/5 33/33/33
f 113/113/113 33/33/33 29/29/29
f 113/113/113 29/29/29 114/114/114
f 113/113/113 114/114/114 72/72/72
f 113/113/113 72/72/72 78/78/78
f 113/113/113 78/78/78 52/52/52
f 113/113/113 52/52/52 101/101/101
f 115/115/115 116/116/116 24/24/24
f 115/115/115 24/24/24 35/35/35
f 115/115/115 35/35/35 12/12/12
f 115/115/115 12/12/12 108/108/108
f 115/115/115 108/108/108 60/60/60
f 115/115/115 60/60/60 80/80/80
f 115/115/115 80/80/80 63/63/63
f 115/115/115 63/63/63 116/116/116
f 117/117/117 93/93/93 18/18/18
f 117/117/117 18/18/18 17/17/17
f 117/117/117 17/17/17 24/24/24
f 117/117/117 24/24/24 116/116/116
f 117/117/117 116/116/116 63/63/63
f 117/117/117 63/63/63 62/62/62
f 117/117/117 62/62/62 69/69/69
f 117/117/117 69/69/69 93/93/93
f 118/118/118 114/114/114 29/29/29
f 118/118/118 29/29/29 28/28/28
f 118/118/118 28/28/28 27/27/27
f 118/118/118 27/27/27 111/111/111
f 118/118/118 111/111/111 74/74/74
f 118/118/118 74/74/74 73/73/73
f 118/118/118 73/73/73 72/72/72
f 118/118/118 72/72/72 114/114/114
