v -2.373755 0.712023 -1.203222
v -2.373513 0.711904 -1.204924
v -2.374655 0.709965 -1.204478
v -2.374763 0.710291 -1.202593
v -2.375039 0.710528 -1.201153
v -2.374217 0.711981 -1.201890
v -2.373573 0.712743 -1.202651
v -2.372968 0.713194 -1.203730
v -2.372607 0.713284 -1.205251
v -2.374072 0.711457 -1.206492
v -2.374773 0.710988 -1.207624
v -2.375670 0.709400 -1.207667
v -2.375123 0.709647 -1.206309
v -2.373242 0.712703 -1.206560
v -2.374023 0.711939 -1.207294
v -2.377557 0.703040 -1.204890
v -2.377873 0.702835 -1.206247
v -2.378288 0.700539 -1.205426
v -2.377997 0.700719 -1.204226
v -2.377712 0.700975 -1.202625
v -2.377245 0.703330 -1.203078
v -2.376615 0.705633 -1.203538
v -2.376958 0.705336 -1.205433
v -2.377314 0.705130 -1.206851
v -2.377204 0.703670 -1.201248
v -2.377685 0.701277 -1.201006
v -2.377740 0.701516 -1.199783
v -2.377254 0.703939 -1.199867
v -2.376667 0.706285 -1.200177
v -2.376589 0.705995 -1.201624
v -2.375741 0.708242 -1.202066
v -2.375721 0.707860 -1.204010
v -2.375892 0.708556 -1.200594
v -2.376116 0.707573 -1.205930
v -2.376548 0.707383 -1.207367
v -2.378362 0.698410 -1.203367
v -2.378619 0.698281 -1.204260
v -2.378701 0.697049 -1.203389
v -2.378586 0.696678 -1.202652
v -2.378380 0.696799 -1.201837
v -2.378119 0.698597 -1.202174
v -2.378129 0.698827 -1.200963
v -2.378427 0.696963 -1.201005
v -2.378413 0.697562 -1.200426
v -2.378210 0.699011 -1.200047
v -2.373595 0.711943 -1.203198
v -2.373354 0.711818 -1.204925
v -2.372489 0.713217 -1.205251
v -2.372850 0.713131 -1.203710
v -2.373485 0.712699 -1.202631
v -2.374098 0.711924 -1.201859
v -2.374917 0.710475 -1.201127
v -2.374600 0.710216 -1.202573
v -2.374494 0.709886 -1.204480
v -2.373917 0.711368 -1.206517
v -2.374660 0.710920 -1.207655
v -2.373939 0.711888 -1.207314
v -2.373128 0.712634 -1.206579
v -2.374965 0.709565 -1.206333
v -2.375554 0.709338 -1.207696
v -2.377385 0.702989 -1.204914
v -2.377745 0.702796 -1.206273
v -2.377188 0.705083 -1.206877
v -2.376789 0.705275 -1.205456
v -2.376444 0.705575 -1.203544
v -2.377070 0.703281 -1.203086
v -2.377536 0.700934 -1.202635
v -2.377824 0.700675 -1.204252
v -2.378159 0.700504 -1.205453
v -2.377029 0.703625 -1.201241
v -2.376417 0.705941 -1.201614
v -2.376537 0.706246 -1.200161
v -2.377123 0.703907 -1.199854
v -2.377608 0.701488 -1.199771
v -2.377508 0.701239 -1.201000
v -2.375574 0.708176 -1.202051
v -2.375554 0.707791 -1.204014
v -2.375766 0.708509 -1.200574
v -2.375952 0.707501 -1.205954
v -2.376427 0.707328 -1.207394
v -2.378188 0.698369 -1.203394
v -2.378490 0.698249 -1.204289
v -2.377942 0.698558 -1.202184
v -2.378247 0.696770 -1.201845
v -2.378456 0.696647 -1.202673
v -2.378605 0.697026 -1.203408
v -2.377952 0.698791 -1.200957
v -2.378077 0.698986 -1.200033
v -2.378315 0.697543 -1.200418
v -2.378293 0.696937 -1.200999
v -2.378647 0.698224 -1.204573
v -2.378775 0.696582 -1.203304
v -2.378327 0.700463 -1.205840
v -2.378605 0.697026 -1.203408
v -2.378466 0.696330 -1.201016
v -2.378487 0.697096 -1.200335
v -2.378408 0.696187 -1.201728
v -2.378315 0.697543 -1.200418
v -2.374318 0.711942 -1.201429
v -2.373535 0.712877 -1.202480
v -2.375077 0.710585 -1.200659
v -2.373485 0.712699 -1.202631
v -2.372915 0.713088 -1.206591
v -2.374022 0.712007 -1.207504
v -2.372253 0.713714 -1.205360
v -2.373939 0.711888 -1.207314
v -2.374957 0.710801 -1.208017
v -2.375802 0.709290 -1.208135
v -2.378603 0.696087 -1.202423
v -2.378178 0.699062 -1.199733
v -2.377700 0.701583 -1.199368
v -2.372653 0.713556 -1.203890
v -2.375886 0.708640 -1.200093
v -2.376635 0.706365 -1.199686
v -2.376639 0.707295 -1.207860
v -2.377377 0.705040 -1.207337
v -2.377922 0.702749 -1.206713
v -2.377213 0.704015 -1.199399
vn -0.863600 0.455600 -0.216000
vn -0.852600 0.522400 -0.007800
vn -0.881900 0.471500 0.003800
vn -0.893600 0.410400 -0.181800
vn -0.905100 0.390600 -0.167600
vn -0.864400 0.457600 -0.208100
vn -0.831600 0.503100 -0.235100
vn -0.816800 0.542900 -0.195100
vn -0.800900 0.598300 -0.025900
vn -0.822300 0.529300 0.208800
vn -0.824800 0.528500 0.201100
vn -0.870100 0.453200 0.193800
vn -0.856800 0.476100 0.197900
vn -0.783300 0.602800 0.151700
vn -0.788900 0.579400 0.204500
vn -0.953500 0.256000 0.158900
vn -0.962200 0.242400 0.124500
vn -0.969200 0.210800 0.127400
vn -0.958800 0.225200 0.172800
vn -0.978500 0.197100 0.060700
vn -0.969800 0.238100 0.052700
vn -0.947000 0.319000 0.036500
vn -0.930800 0.330000 0.157400
vn -0.941200 0.309900 0.134300
vn -0.974200 0.219000 -0.054300
vn -0.981000 0.185600 -0.055800
vn -0.982200 0.187500 -0.007400
vn -0.975800 0.218000 -0.016300
vn -0.959300 0.277700 -0.051800
vn -0.953900 0.288500 -0.081800
vn -0.923700 0.360400 -0.129600
vn -0.913800 0.405600 0.018300
vn -0.934100 0.340100 -0.108000
vn -0.894500 0.412600 0.172000
vn -0.908100 0.386600 0.160900
vn -0.955800 0.215100 0.200300
vn -0.968600 0.196000 0.152800
vn -0.964900 0.184500 0.187000
vn -0.959000 0.163100 0.231700
vn -0.989600 0.122600 0.074600
vn -0.982000 0.177700 0.064400
vn -0.982800 0.166900 -0.078400
vn -0.990100 0.107400 -0.089500
vn -0.988300 0.142200 -0.054100
vn -0.986000 0.164700 -0.025900
vn 0.871900 -0.427800 0.238000
vn 0.861000 -0.508600 0.004600
vn 0.891000 -0.453800 -0.007800
vn 0.888800 -0.342900 0.303900
vn 0.870800 -0.277900 0.405500
vn 0.873900 -0.295900 0.385500
vn 0.891800 -0.318800 0.320900
vn 0.893000 -0.404900 0.196100
vn 0.881800 -0.471600 -0.003800
vn 0.825600 -0.510500 -0.240100
vn 0.795700 -0.435500 -0.420800
vn 0.788400 -0.425200 -0.444400
vn 0.827100 -0.453300 -0.332200
vn 0.853400 -0.475800 -0.213000
vn 0.826100 -0.436100 -0.356700
vn 0.949900 -0.259500 -0.174400
vn 0.917400 -0.282800 -0.280100
vn 0.899600 -0.334200 -0.281000
vn 0.927400 -0.332200 -0.171900
vn 0.947100 -0.318900 -0.036600
vn 0.969800 -0.237900 -0.052800
vn 0.978500 -0.197000 -0.060700
vn 0.954100 -0.231200 -0.190400
vn 0.909600 -0.283200 -0.303900
vn 0.973600 -0.217000 0.070400
vn 0.953400 -0.285800 0.096600
vn 0.946500 -0.250400 0.203300
vn 0.962100 -0.202800 0.182000
vn 0.959000 -0.195100 0.205500
vn 0.979800 -0.185200 0.075000
vn 0.923000 -0.356800 0.143700
vn 0.913800 -0.405600 -0.018300
vn 0.919200 -0.299800 0.255000
vn 0.891000 -0.414000 -0.186200
vn 0.864800 -0.397200 -0.307300
vn 0.945800 -0.237800 -0.221200
vn 0.880600 -0.322000 -0.347700
vn 0.979900 -0.189500 -0.062200
vn 0.969100 -0.241100 -0.052200
vn 0.907700 -0.315200 -0.276900
vn 0.859700 -0.350300 -0.371800
vn 0.977600 -0.181000 0.107400
vn 0.939900 -0.215900 0.264300
vn 0.924900 -0.233700 0.299900
vn 0.953200 -0.233800 0.191700
vn -0.352800 -0.470400 -0.808800
vn -0.416800 -0.751700 -0.511000
vn -0.294600 -0.350500 -0.889000
vn 0.859700 -0.350300 -0.371800
vn -0.188100 -0.890800 0.413500
vn -0.289400 -0.523400 0.801400
vn -0.059700 -0.982600 0.175700
vn 0.924900 -0.233700 0.299900
vn -0.048800 0.581800 0.811800
vn 0.103000 0.785500 0.610200
vn -0.105000 0.403200 0.909100
vn 0.870800 -0.277900 0.405500
vn 0.324800 0.685600 -0.651500
vn -0.038300 0.533000 -0.845200
vn 0.571600 0.797400 -0.193500
vn 0.788400 -0.425200 -0.444400
vn -0.217900 0.279900 -0.935000
vn -0.285600 0.080800 -0.954900
vn -0.233400 -0.971100 -0.049700
vn -0.180400 -0.163000 0.970000
vn -0.112200 -0.024500 0.993300
vn 0.418300 0.852600 0.313100
vn -0.113900 0.264300 0.957700
vn -0.102900 0.180300 0.978200
vn -0.299200 -0.066500 -0.951900
vn -0.289300 -0.152800 -0.944900
vn -0.277000 -0.237100 -0.931200
vn -0.090700 0.095800 0.991200
vt 0.839504 0.118056
vt 0.856743 0.205307
vt 0.741230 0.205307
vt 0.734555 0.106726
vt 0.724541 0.032791
vt 0.813647 0.052618
vt 0.868992 0.081539
vt 0.913398 0.129584
vt 0.940923 0.205307
vt 0.839504 0.292557
vt 0.813647 0.357995
vt 0.724541 0.377822
vt 0.734555 0.303887
vt 0.913398 0.281029
vt 0.868992 0.329074
vt 0.369475 0.299954
vt 0.368286 0.370940
vt 0.245840 0.351447
vt 0.246397 0.288815
vt 0.246768 0.205307
vt 0.370268 0.205307
vt 0.494283 0.205307
vt 0.492822 0.304944
vt 0.490632 0.379672
vt 0.369475 0.110659
vt 0.246397 0.121798
vt 0.245841 0.059166
vt 0.368286 0.039673
vt 0.490632 0.030941
vt 0.492822 0.105669
vt 0.616755 0.103478
vt 0.619174 0.205307
vt 0.613127 0.027106
vt 0.616755 0.307135
vt 0.613126 0.383507
vt 0.123273 0.268175
vt 0.123047 0.315326
vt 0.054743 0.283353
vt 0.030912 0.249131
vt 0.030973 0.205306
vt 0.123423 0.205306
vt 0.123273 0.142438
vt 0.030912 0.161481
vt 0.054744 0.127260
vt 0.123047 0.095287
vt 0.839504 0.118056
vt 0.856743 0.205307
vt 0.968983 0.205307
vt 0.938030 0.133427
vt 0.876123 0.061548
vt 0.805028 0.030806
vt 0.721203 0.008146
vt 0.734555 0.106726
vt 0.741230 0.205307
vt 0.839504 0.292557
vt 0.805028 0.379807
vt 0.876123 0.349065
vt 0.938030 0.277186
vt 0.734555 0.303887
vt 0.721203 0.402467
vt 0.369475 0.299954
vt 0.367890 0.394602
vt 0.489902 0.404581
vt 0.492822 0.304944
vt 0.494283 0.205307
vt 0.370268 0.205307
vt 0.246768 0.205307
vt 0.246397 0.288815
vt 0.245655 0.372324
vt 0.369475 0.110659
vt 0.492822 0.105669
vt 0.489902 0.006032
vt 0.367890 0.016011
vt 0.245655 0.038289
vt 0.246397 0.121798
vt 0.616755 0.103478
vt 0.619174 0.205307
vt 0.611917 0.001649
vt 0.616755 0.307135
vt 0.611917 0.408964
vt 0.123273 0.268175
vt 0.122972 0.331043
vt 0.123423 0.205306
vt 0.000156 0.205306
vt 0.000125 0.242784
vt 0.000064 0.280261
vt 0.123273 0.142438
vt 0.122972 0.079570
vt 0.000064 0.130352
vt 0.000125 0.167829
vt 0.122972 0.331043
vt 0.030806 0.283587
vt 0.245655 0.372324
vt 0.030806 0.283587
vt 0.000125 0.167829
vt 0.030806 0.127026
vt 0.000156 0.205306
vt 0.030806 0.127026
vt 0.805028 0.030806
vt 0.873826 0.071832
vt 0.721203 0.008146
vt 0.873826 0.071832
vt 0.938030 0.277186
vt 0.873826 0.338781
vt 0.968983 0.205307
vt 0.873826 0.338781
vt 0.805028 0.379807
vt 0.721203 0.402467
vt 0.000125 0.242784
vt 0.122972 0.079570
vt 0.245655 0.038289
vt 0.938030 0.133427
vt 0.611917 0.001649
vt 0.489902 0.006032
vt 0.611917 0.408964
vt 0.489902 0.404581
vt 0.367890 0.394602
vt 0.367890 0.016011
f 1/1/1 2/2/2 3/3/3
f 1/1/1 3/3/3 4/4/4
f 1/1/1 4/4/4 5/5/5
f 1/1/1 5/5/5 6/6/6
f 1/1/1 6/6/6 7/7/7
f 1/1/1 7/7/7 8/8/8
f 1/1/1 8/8/8 9/9/9
f 1/1/1 9/9/9 2/2/2
f 10/10/10 11/11/11 12/12/12
f 10/10/10 12/12/12 13/13/13
f 10/10/10 13/13/13 3/3/3
f 10/10/10 3/3/3 2/2/2
f 10/10/10 2/2/2 9/9/9
f 10/10/10 9/9/9 14/14/14
f 10/10/10 14/14/14 15/15/15
f 10/10/10 15/15/15 11/11/11
f 16/16/16 17/17/17 18/18/18
f 16/16/16 18/18/18 19/19/19
f 16/16/16 19/19/19 20/20/20
f 16/16/16 20/20/20 21/21/21
f 16/16/16 21/21/21 22/22/22
f 16/16/16 22/22/22 23/23/23
f 16/16/16 23/23/23 24/24/24
f 16/16/16 24/24/24 17/17/17
f 25/25/25 21/21/21 20/20/20
f 25/25/25 20/20/20 26/26/26
f 25/25/25 26/26/26 27/27/27
f 25/25/25 27/27/27 28/28/28
f 25/25/25 28/28/28 29/29/29
f 25/25/25 29/29/29 30/30/30
f 25/25/25 30/30/30 22/22/22
f 25/25/25 22/22/22 21/21/21
f 31/31/31 32/32/32 22/22/22
f 31/31/31 22/22/22 30/30/30
f 31/31/31 30/30/30 29/29/29
f 31/31/31 29/29/29 33/33/33
f 31/31/31 33/33/33 5/5/5
f 31/31/31 5/5/5 4/4/4
f 31/31/31 4/4/4 3/3/3
f 31/31/31 3/3/3 32/32/32
f 34/34/34 35/35/35 24/24/24
f 34/34/34 24/24/24 23/23/23
f 34/34/34 23/23/23 22/22/22
f 34/34/34 22/22/22 32/32/32
f 34/34/34 32/32/32 3/3/3
f 34/34/34 3/3/3 13/13/13
f 34/34/34 13/13/13 12/12/12
f 34/34/34 12/12/12 35/35/35
f 36/36/36 37/37/37 38/38/38
f 36/36/36 38/38/38 39/39/39
f 36/36/36 39/39/39 40/40/40
f 36/36/36 40/40/40 41/41/41
f 36/36/36 41/41/41 20/20/20
f 36/36/36 20/20/20 19/19/19
f 36/36/36 19/19/19 18/18/18
f 36/36/36 18/18/18 37/37/37
f 42/42/42 41/41/41 40/40/40
f 42/42/42 40/40/40 43/43/43
f 42/42/42 43/43/43 44/44/44
f 42/42/42 44/44/44 45/45/45
f 42/42/42 45/45/45 27/27/27
f 42/42/42 27/27/27 26/26/26
f 42/42/42 26/26/26 20/20/20
f 42/42/42 20/20/20 41/41/41
f 46/46/46 47/47/47 48/48/48
f 46/46/46 48/48/48 49/49/49
f 46/46/46 49/49/49 50/50/50
f 46/46/46 50/50/50 51/51/51
f 46/46/46 51/51/51 52/52/52
f 46/46/46 52/52/52 53/53/53
f 46/46/46 53/53/53 54/54/54
f 46/46/46 54/54/54 47/47/47
f 55/55/55 56/56/56 57/57/57
f 55/55/55 57/57/57 58/58/58
f 55/55/55 58/58/58 48/48/48
f 55/55/55 48/48/48 47/47/47
f 55/55/55 47/47/47 54/54/54
f 55/55/55 54/54/54 59/59/59
f 55/55/55 59/59/59 60/60/60
f 55/55/55 60/60/60 56/56/56
f 61/61/61 62/62/62 63/63/63
f 61/61/61 63/63/63 64/64/64
f 61/61/61 64/64/64 65/65/65
f 61/61/61 65/65/65 66/66/66
f 61/61/61 66/66/66 67/67/67
f 61/61/61 67/67/67 68/68/68
f 61/61/61 68/68/68 69/69/69
f 61/61/61 69/69/69 62/62/62
f 70/70/70 66/66/66 65/65/65
f 70/70/70 65/65/65 71/71/71
f 70/70/70 71/71/71 72/72/72
f 70/70/70 72/72/72 73/73/73
f 70/70/70 73/73/73 74/74/74
f 70/70/70 74/74/74 75/75/75
f 70/70/70 75/75/75 67/67/67
f 70/70/70 67/67/67 66/66/66
f 76/76/76 77/77/77 54/54/54
f 76/76/76 54/54/54 53/53/53
f 76/76/76 53/53/53 52/52/52
f 76/76/76 52/52/52 78/78/78
f 76/76/76 78/78/78 72/72/72
f 76/76/76 72/72/72 71/71/71
f 76/76/76 71/71/71 65/65/65
f 76/76/76 65/65/65 77/77/77
f 79/79/79 80/80/80 60/60/60
f 79/79/79 60/60/60 59/59/59
f 79/79/79 59/59/59 54/54/54
f 79/79/79 54/54/54 77/77/77
f 79/79/79 77/77/77 65/65/65
f 79/79/79 65/65/65 64/64/64
f 79/79/79 64/64/64 63/63/63
f 79/79/79 63/63/63 80/80/80
f 81/81/81 82/82/82 69/69/69
f 81/81/81 69/69/69 68/68/68
f 81/81/81 68/68/68 67/67/67
f 81/81/81 67/67/67 83/83/83
f 81/81/81 83/83/83 84/84/84
f 81/81/81 84/84/84 85/85/85
f 81/81/81 85/85/85 86/86/86
f 81/81/81 86/86/86 82/82/82
f 87/87/87 83/83/83 67/67/67
f 87/87/87 67/67/67 75/75/75
f 87/87/87 75/75/75 74/74/74
f 87/87/87 74/74/74 88/88/88
f 87/87/87 88/88/88 89/89/89
f 87/87/87 89/89/89 90/90/90
f 87/87/87 90/90/90 84/84/84
f 87/87/87 84/84/84 83/83/83
f 91/91/91 92/92/92 38/38/38
f 91/91/91 38/38/38 37/37/37
f 91/91/91 37/37/37 18/18/18
f 91/91/91 18/18/18 93/93/93
f 91/91/91 93/93/93 69/69/69
f 91/91/91 69/69/69 82/82/82
f 91/91/91 82/82/82 94/94/94
f 91/91/91 94/94/94 92/92/92
f 95/95/95 96/96/96 44/44/44
f 95/95/95 44/44/44 43/43/43
f 95/95/95 43/43/43 40/40/40
f 95/95/95 40/40/40 97/97/97
f 95/95/95 97/97/97 84/84/84
f 95/95/95 84/84/84 90/90/90
f 95/95/95 90/90/90 98/98/98
f 95/95/95 98/98/98 96/96/96
f 99/99/99 100/100/100 7/7/7
f 99/99/99 7/7/7 6/6/6
f 99/99/99 6/6/6 5/5/5
f 99/99/99 5/5/5 101/101/101
f 99/99/99 101/101/101 52/52/52
f 99/99/99 52/52/52 51/51/51
f 99/99/99 51/51/51 102/102/102
f 99/99/99 102/102/102 100/100/100
f 103/103/103 104/104/104 15/15/15
f 103/103/103 15/15/15 14/14/14
f 103/103/103 14/14/14 9/9/9
f 103/103/103 9/9/9 105/105/105
f 103/103/103 105/105/105 48/48/48
f 103/103/103 48/48/48 58/58/58
f 103/103/103 58/58/58 106/106/106
f 103/103/103 106/106/106 104/104/104
f 107/107/107 108/108/108 12/12/12
f 107/107/107 12/12/12 11/11/11
f 107/107/107 11/11/11 15/15/15
f 107/107/107 15/15/15 104/104/104
f 107/107/107 104/104/104 106/106/106
f 107/107/107 106/106/106 56/56/56
f 107/107/107 56/56/56 60/60/60
f 107/107/107 60/60/60 108/108/108
f 109/109/109 97/97/97 40/40/40
f 109/109/109 40/40/40 39/39/39
f 109/109/109 39/39/39 38/38/38
f 109/109/109 38/38/38 92/92/92
f 109/109/109 92/92/92 94/94/94
f 109/109/109 94/94/94 85/85/85
f 109/109/109 85/85/85 84/84/84
f 109/109/109 84/84/84 97/97/97
f 110/110/110 111/111/111 27/27/27
f 110/110/110 27/27/27 45/45/45
f 110/110/110 45/45/45 44/44/44
f 110/110/110 44/44/44 96/96/96
f 110/110/110 96/96/96 98/98/98
f 110/110/110 98/98/98 88/88/88
f 110/110/110 88/88/88 74/74/74
f 110/110/110 74/74/74 111/111/111
f 112/112/112 105/105/105 9/9/9
f 112/112/112 9/9/9 8/8/8
f 112/112/112 8/8/8 7/7/7
f 112/112/112 7/7/7 100/100/100
f 112/112/112 100/100/100 102/102/102
f 112/112/112 102/102/102 49/49/49
f 112/112/112 49/49/49 48/48/48
f 112/112/112 48/48/48 105/105/105
f 113/113/113 101/101/101 5/5/5
f 113/113/113 5/5/5 33/33/33
f 113/113/113 33/33/33 29/29/29
f 113/113/113 29/29/29 114/114/114
f 113/113/113 114/114/114 72/72/72
f 113/113/113 72/72/72 78/78/78
f 113/113/113 78/78/78 52/52/52
f 113/113/113 52/52/52 101/101/101
f 115/115/115 116/116/116 24/24/24
f 115/115/115 24/24/24 35/35/35
f 115/115/115 35/35/35 12/12/12
f 115/115/115 12/12/12 108/108/108
f 115/115/115 108/108/108 60/60/60
f 115/115/115 60/60/60 80/80/80
f 115/115/115 80/80/80 63/63/63
f 115/115/115 63/63/63 116/116/116
f 117/117/117 93/93/93 18/18/18
f 117/117/117 18/18/18 17/17/17
f 117/117/117 17/17/17 24/24/24
f 117/117/117 24/24/24 116/116/116
f 117/117/117 116/116/116 63/63/63
f 117/117/117 63/63/63 62/62/62
f 117/117/117 62/62/62 69/69/69
f 117/117/117 69/69/69 93/93/93
f 118/118/118 114/114/114 29/29/29
f 118/118/118 29/29/29 28/28/28
f 118/118/118 28/28/28 27/27/27
f 118/118/118 27/27/27 111/111/111
f 118/118/118 111/111/111 74/74/74
f 118/118/118 74/74/74 73/73/73
f 118/118/118 73/73/73 72/72/72
f 118/118/118 72/72/72 114/114/114
