v -2.371011 0.709767 -1.191215
v -2.369246 0.709910 -1.192598
v -2.370734 0.707586 -1.193750
v -2.372537 0.707640 -1.192021
v -2.374096 0.707706 -1.190875
v -2.372650 0.709536 -1.190411
v -2.371352 0.710529 -1.190324
v -2.369806 0.711198 -1.190653
v -2.368092 0.711548 -1.191705
v -2.368357 0.709773 -1.194656
v -2.367996 0.709547 -1.196447
v -2.368810 0.707719 -1.197731
v -2.369521 0.707647 -1.195932
v -2.367510 0.711204 -1.193631
v -2.367584 0.710538 -1.195212
v -2.373128 0.699448 -1.198665
v -2.372199 0.699526 -1.200247
v -2.373344 0.696524 -1.200517
v -2.374154 0.696452 -1.199109
v -2.375331 0.696396 -1.197314
v -2.374470 0.699387 -1.196645
v -2.373450 0.702282 -1.195853
v -2.372062 0.702357 -1.197978
v -2.371115 0.702454 -1.199652
v -2.376083 0.699442 -1.194833
v -2.376768 0.696446 -1.195720
v -2.377923 0.696513 -1.194578
v -2.377377 0.699514 -1.193532
v -2.376531 0.702442 -1.192628
v -2.375153 0.702350 -1.193970
v -2.373944 0.705125 -1.192986
v -2.372170 0.705029 -1.194861
v -2.375413 0.705257 -1.191678
v -2.370808 0.705132 -1.197054
v -2.369917 0.705270 -1.198807
v -2.375287 0.693415 -1.199302
v -2.374721 0.693484 -1.200385
v -2.375592 0.691757 -1.200010
v -2.376153 0.691113 -1.199339
v -2.376695 0.691060 -1.198375
v -2.376135 0.693362 -1.197940
v -2.377237 0.693411 -1.196773
v -2.377490 0.691109 -1.197606
v -2.377997 0.691752 -1.196892
v -2.378141 0.693476 -1.195950
v -2.370883 0.709627 -1.191076
v -2.369097 0.709769 -1.192483
v -2.367982 0.711440 -1.191620
v -2.369714 0.711091 -1.190548
v -2.371288 0.710451 -1.190242
v -2.372566 0.709433 -1.190295
v -2.374005 0.707609 -1.190759
v -2.372402 0.707508 -1.191881
v -2.370581 0.707453 -1.193632
v -2.368190 0.709633 -1.194569
v -2.367862 0.709444 -1.196395
v -2.367487 0.710460 -1.195170
v -2.367385 0.711097 -1.193568
v -2.369351 0.707515 -1.195838
v -2.368674 0.707621 -1.197673
v -2.372945 0.699354 -1.198551
v -2.372056 0.699456 -1.200170
v -2.370974 0.702375 -1.199579
v -2.371882 0.702251 -1.197868
v -2.373283 0.702175 -1.195725
v -2.374299 0.699292 -1.196513
v -2.375157 0.696310 -1.197180
v -2.373968 0.696366 -1.198992
v -2.373198 0.696460 -1.200438
v -2.375925 0.699347 -1.194685
v -2.375000 0.702244 -1.193825
v -2.376424 0.702362 -1.192511
v -2.377266 0.699444 -1.193414
v -2.377810 0.696449 -1.194457
v -2.376607 0.696360 -1.195569
v -2.373801 0.705005 -1.192844
v -2.372010 0.704908 -1.194738
v -2.375314 0.705168 -1.191562
v -2.370633 0.705013 -1.196951
v -2.369779 0.705181 -1.198740
v -2.375099 0.693333 -1.199185
v -2.374574 0.693423 -1.200307
v -2.375960 0.693279 -1.197805
v -2.376563 0.690998 -1.198274
v -2.376011 0.691051 -1.199253
v -2.375485 0.691712 -1.199950
v -2.377077 0.693328 -1.196621
v -2.378028 0.693415 -1.195828
v -2.377912 0.691706 -1.196803
v -2.377370 0.691048 -1.197491
v -2.374466 0.693480 -1.200714
v -2.375742 0.691160 -1.200131
v -2.373008 0.696519 -1.200953
v -2.375485 0.691712 -1.199950
v -2.377520 0.690315 -1.197833
v -2.378151 0.691155 -1.197007
v -2.376823 0.690265 -1.198475
v -2.377912 0.691706 -1.196803
v -2.373161 0.709414 -1.190089
v -2.371471 0.710657 -1.190096
v -2.374577 0.707686 -1.190439
v -2.371288 0.710451 -1.190242
v -2.367172 0.711633 -1.193262
v -2.367394 0.710667 -1.195384
v -2.367659 0.712045 -1.191370
v -2.367487 0.710460 -1.195170
v -2.367815 0.709426 -1.197023
v -2.368510 0.707700 -1.198308
v -2.376379 0.690318 -1.199313
v -2.378394 0.693471 -1.195619
v -2.378260 0.696507 -1.194142
v -2.369364 0.711628 -1.190419
v -2.375861 0.705262 -1.191189
v -2.376945 0.702437 -1.192127
v -2.369557 0.705276 -1.199364
v -2.370735 0.702451 -1.200180
v -2.371825 0.699521 -1.200742
v -2.377760 0.699507 -1.193044
vn -0.470700 0.612300 -0.635200
vn -0.606800 0.643300 -0.466800
vn -0.636200 0.596300 -0.489500
vn -0.516300 0.567300 -0.641500
vn -0.534400 0.547700 -0.643800
vn -0.476700 0.613000 -0.630000
vn -0.434200 0.656500 -0.616700
vn -0.451200 0.686700 -0.570000
vn -0.556700 0.712000 -0.427900
vn -0.735200 0.611600 -0.292300
vn -0.731600 0.612400 -0.299500
vn -0.759400 0.547100 -0.352000
vn -0.752700 0.566800 -0.334900
vn -0.667200 0.686100 -0.289900
vn -0.708100 0.655800 -0.261700
vn -0.796300 0.373100 -0.476100
vn -0.778700 0.366600 -0.509100
vn -0.786000 0.336400 -0.518600
vn -0.809900 0.341700 -0.476600
vn -0.746500 0.334800 -0.575000
vn -0.734500 0.374600 -0.565700
vn -0.706600 0.452600 -0.544000
vn -0.778500 0.442000 -0.445500
vn -0.770100 0.427700 -0.473300
vn -0.663600 0.373400 -0.648200
vn -0.667500 0.342100 -0.661300
vn -0.702100 0.336600 -0.627500
vn -0.691100 0.366800 -0.622800
vn -0.654300 0.427900 -0.623500
vn -0.629600 0.442300 -0.638700
vn -0.574400 0.515100 -0.636100
vn -0.669600 0.534700 -0.515400
vn -0.596900 0.493500 -0.632500
vn -0.762100 0.514700 -0.392600
vn -0.764300 0.493200 -0.415400
vn -0.826800 0.327200 -0.457500
vn -0.803300 0.317600 -0.503700
vn -0.824400 0.300400 -0.479800
vn -0.851100 0.272200 -0.448900
vn -0.764500 0.261700 -0.589100
vn -0.751600 0.315800 -0.579000
vn -0.653200 0.327600 -0.682600
vn -0.651100 0.272600 -0.708300
vn -0.674200 0.300700 -0.674500
vn -0.692000 0.317800 -0.648100
vn 0.461600 -0.589700 0.662600
vn 0.615100 -0.630600 0.473200
vn 0.645700 -0.579800 0.496800
vn 0.428400 -0.520100 0.738900
vn 0.345400 -0.469600 0.812500
vn 0.361400 -0.484300 0.796700
vn 0.419000 -0.499300 0.758400
vn 0.505900 -0.564200 0.652400
vn 0.636200 -0.596400 0.489400
vn 0.759200 -0.589100 0.276600
vn 0.863400 -0.483000 0.145800
vn 0.874400 -0.468400 0.126400
vn 0.824400 -0.519200 0.225300
vn 0.760600 -0.563600 0.322200
vn 0.840800 -0.498300 0.211300
vn 0.804400 -0.373500 0.462000
vn 0.854200 -0.374800 0.360500
vn 0.841700 -0.422100 0.336700
vn 0.786200 -0.441500 0.432500
vn 0.706600 -0.452500 0.544000
vn 0.734600 -0.374500 0.565800
vn 0.746500 -0.334700 0.575000
vn 0.818600 -0.344200 0.459700
vn 0.865100 -0.370400 0.338200
vn 0.651900 -0.373900 0.659600
vn 0.619000 -0.441800 0.649300
vn 0.540300 -0.422800 0.727500
vn 0.566400 -0.375500 0.733600
vn 0.547800 -0.371200 0.749700
vn 0.653400 -0.344500 0.674000
vn 0.564100 -0.513700 0.646400
vn 0.669600 -0.534700 0.515400
vn 0.484500 -0.474800 0.734700
vn 0.769500 -0.513300 0.380000
vn 0.834500 -0.474000 0.280800
vn 0.834000 -0.344600 0.430900
vn 0.874300 -0.396800 0.279400
vn 0.748500 -0.327300 0.576600
vn 0.733600 -0.377500 0.565000
vn 0.844900 -0.405300 0.349100
vn 0.875900 -0.417300 0.242200
vn 0.629400 -0.345100 0.696200
vn 0.493300 -0.397700 0.773600
vn 0.457900 -0.418300 0.784400
vn 0.553200 -0.405800 0.727400
vn 0.304100 -0.278900 -0.910900
vn 0.051100 -0.588400 -0.806900
vn 0.402200 -0.157800 -0.901800
vn 0.875900 -0.417300 0.242200
vn -0.426200 -0.904100 -0.031800
vn -0.766200 -0.590500 0.253400
vn -0.169000 -0.976700 -0.132500
vn 0.457900 -0.418300 0.784400
vn -0.594700 0.449900 0.666200
vn -0.345700 0.655200 0.671700
vn -0.703700 0.269000 0.657600
vn 0.345400 -0.469600 0.812500
vn 0.688700 0.719700 -0.088400
vn 0.560500 0.657400 -0.503600
vn 0.549400 0.719400 0.425000
vn 0.874400 -0.468400 0.126400
vn 0.492200 0.452100 -0.743800
vn 0.456700 0.271700 -0.847100
vn -0.137500 -0.903200 -0.406500
vn -0.803000 -0.282000 0.525000
vn -0.769600 -0.161100 0.617900
vn 0.088200 0.718200 0.690200
vn -0.744700 0.126900 0.655200
vn -0.751300 0.039900 0.658700
vn 0.444000 0.129500 -0.886600
vn 0.445800 0.042400 -0.894100
vn 0.444800 -0.043500 -0.894500
vn -0.752100 -0.046700 0.657400
vt 0.839504 0.118056
vt 0.856743 0.205307
vt 0.741230 0.205307
vt 0.734555 0.106726
vt 0.724541 0.032791
vt 0.813647 0.052618
vt 0.868992 0.081539
vt 0.913398 0.129584
vt 0.940923 0.205307
vt 0.839504 0.292557
vt 0.813647 0.357995
vt 0.724541 0.377822
vt 0.734555 0.303887
vt 0.913398 0.281029
vt 0.868992 0.329074
vt 0.369475 0.299954
vt 0.368286 0.370940
vt 0.245840 0.351447
vt 0.246397 0.288815
vt 0.246768 0.205307
vt 0.370268 0.205307
vt 0.494283 0.205307
vt 0.492822 0.304944
vt 0.490632 0.379672
vt 0.369475 0.110659
vt 0.246397 0.121798
vt 0.245841 0.059166
vt 0.368286 0.039673
vt 0.490632 0.030941
vt 0.492822 0.105669
vt 0.616755 0.103478
vt 0.619174 0.205307
vt 0.613127 0.027106
vt 0.616755 0.307135
vt 0.613126 0.383507
vt 0.123273 0.268175
vt 0.123047 0.315326
vt 0.054743 0.283353
vt 0.030912 0.249131
vt 0.030973 0.205306
vt 0.123423 0.205306
vt 0.123273 0.142438
vt 0.030912 0.161481
vt 0.054744 0.127260
vt 0.123047 0.095287
vt 0.839504 0.118056
vt 0.856743 0.205307
vt 0.968983 0.205307
vt 0.938030 0.133427
vt 0.876123 0.061548
vt 0.805028 0.030806
vt 0.721203 0.008146
vt 0.734555 0.106726
vt 0.741230 0.205307
vt 0.839504 0.292557
vt 0.805028 0.379807
vt 0.876123 0.349065
vt 0.938030 0.277186
vt 0.734555 0.303887
vt 0.721203 0.402467
vt 0.369475 0.299954
vt 0.367890 0.394602
vt 0.489902 0.404581
vt 0.492822 0.304944
vt 0.494283 0.205307
vt 0.370268 0.205307
vt 0.246768 0.205307
vt 0.246397 0.288815
vt 0.245655 0.372324
vt 0.369475 0.110659
vt 0.492822 0.105669
vt 0.489902 0.006032
vt 0.367890 0.016011
vt 0.245655 0.038289
vt 0.246397 0.121798
vt 0.616755 0.103478
vt 0.619174 0.205307
vt 0.611917 0.001649
vt 0.616755 0.307135
vt 0.611917 0.408964
vt 0.123273 0.268175
vt 0.122972 0.331043
vt 0.123423 0.205306
vt 0.000156 0.205306
vt 0.000125 0.242784
vt 0.000064 0.280261
vt 0.123273 0.142438
vt 0.122972 0.079570
vt 0.000064 0.130352
vt 0.000125 0.167829
vt 0.122972 0.331043
vt 0.030806 0.283587
vt 0.245655 0.372324
vt 0.030806 0.283587
vt 0.000125 0.167829
vt 0.030806 0.127026
vt 0.000156 0.205306
vt 0.030806 0.127026
vt 0.805028 0.030806
vt 0.873826 0.071832
vt 0.721203 0.008146
vt 0.873826 0.071832
vt 0.938030 0.277186
vt 0.873826 0.338781
vt 0.968983 0.205307
vt 0.873826 0.338781
vt 0.805028 0.379807
vt 0.721203 0.402467
vt 0.000125 0.242784
vt 0.122972 0.079570
vt 0.245655 0.038289
vt 0.938030 0.133427
vt 0.611917 0.001649
vt 0.489902 0.006032
vt 0.611917 0.408964
vt 0.489902 0.404581
vt 0.367890 0.394602
vt 0.367890 0.016011
f 1/1/1 2/2/2 3/3/3
f 1/1/1 3/3/3 4/4/4
f 1/1/1 4/4/4 5/5/5
f 1/1/1 5/5/5 6/6/6
f 1/1/1 6/6/6 7/7/7
f 1/1/1 7/7/7 8/8/8
f 1/1/1 8/8/8 9/9/9
f 1/1/1 9/9/9 2/2/2
f 10/10/10 11/11/11 12/12/12
f 10/10/10 12/12/12 13/13/13
f 10/10/10 13/13/13 3/3/3
f 10/10/10 3/3/3 2/2/2
f 10/10/10 2/2/2 9/9/9
f 10/10/10 9/9/9 14/14/14
f 10/10/10 14/14/14 15/15/15
f 10/10/10 15/15/15 11/11/11
f 16/16/16 17/17/17 18/18/18
f 16/16/16 18/18/18 19/19/19
f 16/16/16 19/19/19 20/20/20
f 16/16/16 20/20/20 21/21/21
f 16/16/16 21/21/21 22/22/22
f 16/16/16 22/22/22 23/23/23
f 16/16/16 23/23/23 24/24/24
f 16/16/16 24/24/24 17/17/17
f 25/25/25 21/21/21 20/20/20
f 25/25/25 20/20/20 26/26/26
f 25/25/25 26/26/26 27/27/27
f 25/25/25 27/27/27 28/28/28
f 25/25/25 28/28/28 29/29/29
f 25/25/25 29/29/29 30/30/30
f 25/25/25 30/30/30 22/22/22
f 25/25/25 22/22/22 21/21/21
f 31/31/31 32/32/32 22/22/22
f 31/31/31 22/22/22 30/30/30
f 31/31/31 30/30/30 29/29/29
f 31/31/31 29/29/29 33/33/33
f 31/31/31 33/33/33 5/5/5
f 31/31/31 5/5/5 4/4/4
f 31/31/31 4/4/4 3/3/3
f 31/31/31 3/3/3 32/32/32
f 34/34/34 35/35/35 24/24/24
f 34/34/34 24/24/24 23/23/23
f 34/34/34 23/23/23 22/22/22
f 34/34/34 22/22/22 32/32/32
f 34/34/34 32/32/32 3/3/3
f 34/34/34 3/3/3 13/13/13
f 34/34/34 13/13/13 12/12/12
f 34/34/34 12/12/12 35/35/35
f 36/36/36 37/37/37 38/38/38
f 36/36/36 38/38/38 39/39/39
f 36/36/36 39/39/39 40/40/40
f 36/36/36 40/40/40 41/41/41
f 36/36/36 41/41/41 20/20/20
f 36/36/36 20/20/20 19/19/19
f 36/36/36 19/19/19 18/18/18
f 36/36/36 18/18/18 37/37/37
f 42/42/42 41/41/41 40/40/40
f 42/42/42 40/40/40 43/43/43
f 42/42/42 43/43/43 44/44/44
f 42/42/42 44/44/44 45/45/45
f 42/42/42 45/45/45 27/27/27
f 42/42/42 27/27/27 26/26/26
f 42/42/42 26/26/26 20/20/20
f 42/42/42 20/20/20 41/41/41
f 46/46/46 47/47/47 48/48/48
f 46/46/46 48/48/48 49/49/49
f 46/46/46 49/49/49 50/50/50
f 46/46/46 50/50/50 51/51/51
f 46/46/46 51/51/51 52/52/52
f 46/46/46 52/52/52 53/53/53
f 46/46/46 53/53/53 54/54/54
f 46/46/46 54/54/54 47/47/47
f 55/55/55 56/56/56 57/57/57
f 55/55/55 57/57/57 58/58/58
f 55/55/55 58/58/58 48/48/48
f 55/55/55 48/48/48 47/47/47
f 55/55/55 47/47/47 54/54/54
f 55/55/55 54/54/54 59/59/59
f 55/55/55 59/59/59 60/60/60
f 55/55/55 60/60/60 56/56/56
f 61/61/61 62/62/62 63/63/63
f 61/61/61 63/63/63 64/64/64
f 61/61/61 64/64/64 65/65/65
f 61/61/61 65/65/65 66/66/66
f 61/61/61 66/66/66 67/67/67
f 61/61/61 67/67/67 68/68/68
f 61/61/61 68/68/68 69/69/69
f 61/61/61 69/69/69 62/62/62
f 70/70/70 66/66/66 65/65/65
f 70/70/70 65/65/65 71/71/71
f 70/70/70 71/71/71 72/72/72
f 70/70/70 72/72/72 73/73/73
f 70/70/70 73/73/73 74/74/74
f 70/70/70 74/74/74 75/75/75
f 70/70/70 75/75/75 67/67/67
f 70/70/70 67/67/67 66/66/66
f 76/76/76 77/77/77 54/54/54
f 76/76/76 54/54/54 53/53/53
f 76/76/76 53/53/53 52/52/52
f 76/76/76 52/52/52 78/78/78
f 76/76/76 78/78/78 72/72/72
f 76/76/76 72/72/72 71/71/71
f 76/76/76 71/71/71 65/65/65
f 76/76/76 65/65/65 77/77/77
f 79/79/79 80/80/80 60/60/60
f 79/79/79 60/60/60 59/59/59
f 79/79/79 59/59/59 54/54/54
f 79/79/79 54/54/54 77/77/77
f 79/79/79 77/77/77 65/65/65
f 79/79/79 65/65/65 64/64/64
f 79/79/79 64/64/64 63/63/63
f 79/79/79 63/63/63 80/80/80
f 81/81/81 82/82/82 69/69/69
f 81/81/81 69/69/69 68/68/68
f 81/81/81 68/68/68 67/67/67
f 81/81/81 67/67/67 83/83/83
f 81/81/81 83/83/83 84/84/84
f 81/81/81 84/84/84 85/85/85
f 81/81/81 85/85/85 86/86/86
f 81/81/81 86/86/86 82/82/82
f 87/87/87 83/83/83 67/67/67
f 87/87/87 67/67/67 75/75/75
f 87/87/87 75/75/75 74/74/74
f 87/87/87 74/74/74 88/88/88
f 87/87/87 88/88/88 89/89/89
f 87/87/87 89/89/89 90/90/90
f 87/87/87 90/90/90 84/84/84
f 87/87/87 84/84/84 83/83/83
f 91/91/91 92/92/92 38/38/38
f 91/91/91 38/38/38 37/37/37
f 91/91/91 37/37/37 18/18/18
f 91/91/91 18/18/18 93/93/93
f 91/91/91 93/93/93 69/69/69
f 91/91/91 69/69/69 82/82/82
f 91/91/91 82/82/82 94/94/94
f 91/91/91 94/94/94 92/92/92
f 95/95/95 96/96/96 44/44/44
f 95/95/95 44/44/44 43/43/43
f 95/95/95 43/43/43 40/40/40
f 95/95/95 40/40/40 97/97/97
f 95/95/95 97/97/97 84/84/84
f 95/95/95 84/84/84 90/90/90
f 95/95/95 90/90/90 98/98/98
f 95/95/95 98/98/98 96/96/96
f 99/99/99 100/100/100 7/7/7
f 99/99/99 7/7/7 6/6/6
f 99/99/99 6/6/6 5/5/5
f 99/99/99 5/5/5 101/101/101
f 99/99/99 101/101/101 52/52/52
f 99/99/99 52/52/52 51/51/51
f 99/99/99 51/51/51 102/102/102
f 99/99/99 102/102/102 100/100/100
f 103/103/103 104/104/104 15/15/15
f 103/103/103 15/15/15 14/14/14
f 103/103/103 14/14/14 9/9/9
f 103/103/103 9/9/9 105/105/105
f 103/103/103 105/105/105 48/48/48
f 103/103/103 48/48/48 58/58/58
f 103/103/103 58/58/58 106/106/106
f 103/103/103 106/106/106 104/104/104
f 107/107/107 108/108/108 12/12/12
f 107/107/107 12/12/12 11/11/11
f 107/107/107 11/11/11 15/15/15
f 107/107/107 15/15/15 104/104/104
f 107/107/107 104/104/104 106/106/106
f 107/107/107 106/106/106 56/56/56
f 107/107/107 56/56/56 60/60/60
f 107/107/107 60/60/60 108/108/108
f 109/109/109 97/97/97 40/40/40
f 109/109/109 40/40/40 39/39/39
f 109/109/109 39/39/39 38/38/38
f 109/109/109 38/38/38 92/92/92
f 109/109/109 92/92/92 94/94/94
f 109/109/109 94/94/94 85/85/85
f 109/109/109 85/85/85 84/84/84
f 109/109/109 84/84/84 97/97/97
f 110/110/110 111/111/111 27/27/27
f 110/110/110 27/27/27 45/45/45
f 110/110/110 45/45/45 44/44/44
f 110/110/110 44/44/44 96/96/96
f 110/110/110 96/96/96 98/98/98
f 110/110/110 98/98/98 88/88/88
f 110/110/110 88/88/88 74/74/74
f 110/110/110 74/74/74 111/111/111
f 112/112/112 105/105/105 9/9/9
f 112/112/112 9/9/9 8/8/8
f 112/112/112 8/8/8 7/7/7
f 112/112/112 7/7/7 100/100/100
f 112/112/112 100/100/100 102/102/102
f 112/112/112 102/102/102 49/49/49
f 112/112/112 49/49/49 48/48/48
f 112/112/112 48/48/48 105/105/105
f 113/113/113 101/101/101 5/5/5
f 113/113/113 5/5/5 33/33/33
f 113/113/113 33/33/33 29/29/29
f 113/113/113 29/29/29 114/114/114
f 113/113/113 114/114/114 72/72/72
f 113/113/113 72/72/72 78/78/78
f 113/113/113 78/78/78 52/52/52
f 113/113/113 52/52/52 101/101/101
f 115/115/115 116/116/116 24/24/24
f 115/115/115 24/24/24 35/35/35
f 115/115/115 35/35/35 12/12/12
f 115/115/115 12/12/12 108/108/108
f 115/115/115 108/108/108 60/60/60
f 115/115/115 60/60/60 80/80/80
f 115/115/115 80/80/80 63/63/63
f 115/115/115 63/63/63 116/116/116
f 117/117/117 93/93/93 18/18/18
f 117/117/117 18/18/18 17/17/17
f 117/117/117 17/17/17 24/24/24
f 117/117/117 24/24/24 116/116/116
f 117/117/117 116/116/116 63/63/63
f 117/117/117 63/63/63 62/62/62
f 117/117/117 62/62/62 69/69/69
f 117/117/117 69/69/69 93/93/93
f 118/118/118 114/114/114 29/29/29
f 118/118/118 29/29/29 28/28/28
f 118/118/118 28/28/28 27/27/27
f 118/118/118 27/27/27 111/111/111
f 118/118/118 111/111/111 74/74/74
f 118/118/118 74/74/74 73/73/73
f 118/118/118 73/73/73 72/72/72
f 118/118/118 72/72/72 114/114/114
