v -2.440279 0.760535 -1.093492
v -2.439638 0.761153 -1.094088
v -2.440274 0.760349 -1.095081
v -2.440908 0.759718 -1.094294
v -2.441497 0.759266 -1.093745
v -2.440921 0.760042 -1.093152
v -2.440392 0.760568 -1.092921
v -2.439773 0.761102 -1.092953
v -2.439133 0.761712 -1.093362
v -2.439453 0.761719 -1.094979
v -2.439472 0.762119 -1.095760
v -2.439851 0.761625 -1.096707
v -2.439969 0.761063 -1.095984
v -2.439058 0.762127 -1.094240
v -2.439219 0.762249 -1.095033
v -2.441309 0.758106 -1.099050
v -2.441067 0.758643 -1.099698
v -2.441396 0.757401 -1.100544
v -2.441602 0.756924 -1.099968
v -2.441935 0.756312 -1.099218
v -2.441690 0.757415 -1.098204
v -2.441353 0.758471 -1.097176
v -2.440963 0.759199 -1.098062
v -2.440725 0.759768 -1.098742
v -2.442229 0.756788 -1.097394
v -2.442416 0.755758 -1.098504
v -2.442821 0.755358 -1.097978
v -2.442680 0.756333 -1.096797
v -2.442411 0.757352 -1.095707
v -2.441925 0.757820 -1.096330
v -2.441470 0.758805 -1.095268
v -2.440863 0.759452 -1.096122
v -2.442005 0.758350 -1.094643
v -2.440494 0.760204 -1.097026
v -2.440294 0.760802 -1.097723
v -2.441914 0.755652 -1.100794
v -2.441782 0.756017 -1.101230
v -2.442008 0.755145 -1.101497
v -2.442141 0.754659 -1.101376
v -2.442276 0.754332 -1.100984
v -2.442145 0.755188 -1.100229
v -2.442521 0.754782 -1.099701
v -2.442557 0.754063 -1.100628
v -2.442757 0.754072 -1.100150
v -2.442847 0.754491 -1.099313
v -2.440195 0.760462 -1.093481
v -2.439547 0.761088 -1.094089
v -2.439065 0.761662 -1.093364
v -2.439711 0.761046 -1.092946
v -2.440348 0.760526 -1.092913
v -2.440861 0.759984 -1.093138
v -2.441435 0.759211 -1.093731
v -2.440820 0.759649 -1.094282
v -2.440180 0.760287 -1.095078
v -2.439356 0.761664 -1.094990
v -2.439397 0.762083 -1.095774
v -2.439164 0.762221 -1.095043
v -2.438985 0.762085 -1.094250
v -2.439870 0.761010 -1.095991
v -2.439775 0.761589 -1.096718
v -2.441205 0.758064 -1.099040
v -2.440988 0.758615 -1.099694
v -2.440646 0.759737 -1.098742
v -2.440860 0.759153 -1.098057
v -2.441254 0.758419 -1.097163
v -2.441590 0.757367 -1.098186
v -2.441834 0.756267 -1.099198
v -2.441498 0.756885 -1.099955
v -2.441315 0.757375 -1.100538
v -2.442133 0.756734 -1.097370
v -2.441831 0.757762 -1.096309
v -2.442343 0.757306 -1.095688
v -2.442610 0.756290 -1.096775
v -2.442751 0.755318 -1.097954
v -2.442319 0.755708 -1.098476
v -2.441380 0.758741 -1.095252
v -2.440767 0.759395 -1.096115
v -2.441940 0.758299 -1.094627
v -2.440393 0.760154 -1.097027
v -2.440217 0.760768 -1.097728
v -2.441808 0.755614 -1.100780
v -2.441701 0.755992 -1.101223
v -2.442043 0.755145 -1.100208
v -2.442200 0.754300 -1.100968
v -2.442062 0.754631 -1.101366
v -2.441949 0.755126 -1.101491
v -2.442424 0.754732 -1.099672
v -2.442777 0.754451 -1.099288
v -2.442705 0.754043 -1.100132
v -2.442485 0.754025 -1.100605
v -2.441702 0.756128 -1.101373
v -2.442045 0.754924 -1.101696
v -2.441290 0.757549 -1.100734
v -2.441949 0.755126 -1.101491
v -2.442537 0.753806 -1.100926
v -2.442796 0.753850 -1.100346
v -2.442286 0.754033 -1.101228
v -2.442705 0.754043 -1.100132
v -2.441109 0.759852 -1.093031
v -2.440431 0.760547 -1.092792
v -2.441666 0.759091 -1.093555
v -2.440348 0.760526 -1.092913
v -2.438894 0.762244 -1.093999
v -2.439161 0.762366 -1.095076
v -2.438935 0.761876 -1.093121
v -2.439164 0.762221 -1.095043
v -2.439445 0.762237 -1.096027
v -2.439777 0.761797 -1.096954
v -2.442181 0.754315 -1.101566
v -2.442925 0.754376 -1.099172
v -2.442926 0.755206 -1.097791
v -2.439577 0.761266 -1.092770
v -2.442155 0.758175 -1.094427
v -2.442544 0.757175 -1.095490
v -2.440192 0.760987 -1.097959
v -2.440610 0.759945 -1.098970
v -2.440952 0.758810 -1.099913
v -2.442800 0.756162 -1.096588
vn -0.697600 0.704900 -0.128300
vn -0.793400 0.607200 0.042500
vn -0.819500 0.573000 0.000800
vn -0.735700 0.659600 -0.153600
vn -0.750600 0.639900 -0.164300
vn -0.702300 0.701200 -0.122800
vn -0.665300 0.740800 -0.092300
vn -0.675400 0.736600 -0.035300
vn -0.746900 0.656200 0.107200
vn -0.870300 0.457400 0.182300
vn -0.868800 0.462600 0.176500
vn -0.897500 0.429500 0.099900
vn -0.890200 0.438300 0.124200
vn -0.816200 0.534900 0.218500
vn -0.844000 0.485000 0.229200
vn -0.934600 0.342600 -0.095200
vn -0.924600 0.358700 -0.127900
vn -0.929000 0.337500 -0.151900
vn -0.942900 0.313700 -0.111600
vn -0.904200 0.375600 -0.203400
vn -0.896800 0.406400 -0.174800
vn -0.877100 0.465900 -0.116500
vn -0.921300 0.387500 -0.033600
vn -0.917600 0.392100 -0.065200
vn -0.848000 0.466600 -0.251200
vn -0.850000 0.446900 -0.279000
vn -0.874200 0.416000 -0.250400
vn -0.867300 0.440900 -0.230900
vn -0.841900 0.500700 -0.201300
vn -0.824000 0.526700 -0.208500
vn -0.782000 0.599100 -0.171800
vn -0.848000 0.527500 -0.051100
vn -0.799300 0.573800 -0.178400
vn -0.904600 0.423400 0.048700
vn -0.908700 0.417100 0.018300
vn -0.952300 0.287500 -0.102100
vn -0.939100 0.309800 -0.148400
vn -0.951000 0.277600 -0.135900
vn -0.964900 0.231700 -0.123300
vn -0.913300 0.318500 -0.253800
vn -0.907100 0.360900 -0.216700
vn -0.839000 0.449900 -0.306100
vn -0.834400 0.418800 -0.358300
vn -0.852900 0.418300 -0.312200
vn -0.866500 0.414000 -0.278900
vn 0.691900 -0.703000 0.164500
vn 0.800800 -0.598000 -0.031000
vn 0.827700 -0.560900 0.013300
vn 0.667200 -0.694400 0.269300
vn 0.597000 -0.713200 0.367300
vn 0.610700 -0.713000 0.344500
vn 0.659200 -0.690100 0.298400
vn 0.727900 -0.665400 0.165400
vn 0.819500 -0.573100 -0.000900
vn 0.886300 -0.424500 -0.185300
vn 0.938300 -0.243700 -0.245100
vn 0.942100 -0.218700 -0.254000
vn 0.925500 -0.324400 -0.195600
vn 0.894200 -0.427100 -0.133800
vn 0.934800 -0.295300 -0.197400
vn 0.939200 -0.333400 0.082500
vn 0.963200 -0.268500 -0.007300
vn 0.953100 -0.298200 -0.051900
vn 0.925400 -0.378200 0.022300
vn 0.877100 -0.465800 0.116600
vn 0.896800 -0.406300 0.174900
vn 0.904200 -0.375500 0.203500
vn 0.947700 -0.304600 0.095500
vn 0.967700 -0.250900 -0.024200
vn 0.839600 -0.476100 0.261500
vn 0.816300 -0.534600 0.218700
vn 0.756300 -0.580200 0.302200
vn 0.775300 -0.538000 0.330800
vn 0.760500 -0.547700 0.348600
vn 0.839800 -0.459100 0.289700
vn 0.774300 -0.605900 0.182200
vn 0.847900 -0.527600 0.051200
vn 0.712600 -0.640900 0.285300
vn 0.908400 -0.413800 -0.059100
vn 0.941200 -0.313400 -0.125900
vn 0.955700 -0.286000 0.069900
vn 0.966800 -0.239600 -0.088400
vn 0.905300 -0.369900 0.208700
vn 0.896200 -0.408600 0.172700
vn 0.956400 -0.290100 -0.032500
vn 0.962800 -0.236500 -0.130500
vn 0.822200 -0.477200 0.310200
vn 0.718200 -0.595800 0.359400
vn 0.690000 -0.627500 0.360700
vn 0.766000 -0.562900 0.310300
vn 0.121200 0.323900 -0.938300
vn -0.048400 -0.048800 -0.997600
vn 0.198200 0.444100 -0.873700
vn 0.962800 -0.236500 -0.130500
vn -0.273500 -0.831300 -0.483900
vn -0.581600 -0.812600 -0.037400
vn -0.039600 -0.771200 -0.635300
vn 0.690000 -0.627500 0.360700
vn -0.484100 -0.134400 0.864600
vn -0.276300 0.094900 0.956400
vn -0.562400 -0.305800 0.768200
vn 0.597000 -0.713200 0.367300
vn 0.526400 0.811800 0.252700
vn 0.315700 0.942600 -0.108900
vn 0.514100 0.510200 0.689500
vn 0.942100 -0.218700 -0.254000
vn 0.225300 0.882300 -0.413200
vn 0.195300 0.779900 -0.594700
vn -0.085300 -0.561300 -0.823200
vn -0.601900 -0.711400 0.362700
vn -0.567200 -0.652200 0.502900
vn 0.134100 0.250000 0.958900
vn -0.579800 -0.430500 0.691700
vn -0.571300 -0.505200 0.646800
vn 0.196400 0.681100 -0.705300
vn 0.209700 0.614000 -0.760900
vn 0.221900 0.544100 -0.809100
vn -0.558800 -0.575200 0.597300
vt 0.839504 0.118056
vt 0.856743 0.205307
vt 0.741230 0.205307
vt 0.734555 0.106726
vt 0.724541 0.032791
vt 0.813647 0.052618
vt 0.868992 0.081539
vt 0.913398 0.129584
vt 0.940923 0.205307
vt 0.839504 0.292557
vt 0.813647 0.357995
vt 0.724541 0.377822
vt 0.734555 0.303887
vt 0.913398 0.281029
vt 0.868992 0.329074
vt 0.369475 0.299954
vt 0.368286 0.370940
vt 0.245840 0.351447
vt 0.246397 0.288815
vt 0.246768 0.205307
vt 0.370268 0.205307
vt 0.494283 0.205307
vt 0.492822 0.304944
vt 0.490632 0.379672
vt 0.369475 0.110659
vt 0.246397 0.121798
vt 0.245841 0.059166
vt 0.368286 0.039673
vt 0.490632 0.030941
vt 0.492822 0.105669
vt 0.616755 0.103478
vt 0.619174 0.205307
vt 0.613127 0.027106
vt 0.616755 0.307135
vt 0.613126 0.383507
vt 0.123273 0.268175
vt 0.123047 0.315326
vt 0.054743 0.283353
vt 0.030912 0.249131
vt 0.030973 0.205306
vt 0.123423 0.205306
vt 0.123273 0.142438
vt 0.030912 0.161481
vt 0.054744 0.127260
vt 0.123047 0.095287
vt 0.839504 0.118056
vt 0.856743 0.205307
vt 0.968983 0.205307
vt 0.938030 0.133427
vt 0.876123 0.061548
vt 0.805028 0.030806
vt 0.721203 0.008146
vt 0.734555 0.106726
vt 0.741230 0.205307
vt 0.839504 0.292557
vt 0.805028 0.379807
vt 0.876123 0.349065
vt 0.938030 0.277186
vt 0.734555 0.303887
vt 0.721203 0.402467
vt 0.369475 0.299954
vt 0.367890 0.394602
vt 0.489902 0.404581
vt 0.492822 0.304944
vt 0.494283 0.205307
vt 0.370268 0.205307
vt 0.246768 0.205307
vt 0.246397 0.288815
vt 0.245655 0.372324
vt 0.369475 0.110659
vt 0.492822 0.105669
vt 0.489902 0.006032
vt 0.367890 0.016011
vt 0.245655 0.038289
vt 0.246397 0.121798
vt 0.616755 0.103478
vt 0.619174 0.205307
vt 0.611917 0.001649
vt 0.616755 0.307135
vt 0.611917 0.408964
vt 0.123273 0.268175
vt 0.122972 0.331043
vt 0.123423 0.205306
vt 0.000156 0.205306
vt 0.000125 0.242784
vt 0.000064 0.280261
vt 0.123273 0.142438
vt 0.122972 0.079570
vt 0.000064 0.130352
vt 0.000125 0.167829
vt 0.122972 0.331043
vt 0.030806 0.283587
vt 0.245655 0.372324
vt 0.030806 0.283587
vt 0.000125 0.167829
vt 0.030806 0.127026
vt 0.000156 0.205306
vt 0.030806 0.127026
vt 0.805028 0.030806
vt 0.873826 0.071832
vt 0.721203 0.008146
vt 0.873826 0.071832
vt 0.938030 0.277186
vt 0.873826 0.338781
vt 0.968983 0.205307
vt 0.873826 0.338781
vt 0.805028 0.379807
vt 0.721203 0.402467
vt 0.000125 0.242784
vt 0.122972 0.079570
vt 0.245655 0.038289
vt 0.938030 0.133427
vt 0.611917 0.001649
vt 0.489902 0.006032
vt 0.611917 0.408964
vt 0.489902 0.404581
vt 0.367890 0.394602
vt 0.367890 0.016011
f 1/1/1 2/2/2 3/3/3
f 1/1/1 3/3/3 4/4/4
f 1/1/1 4/4/4 5/5/5
f 1/1/1 5/5/5 6/6/6
f 1/1/1 6/6/6 7/7/7
f 1/1/1 7/7/7 8/8/8
f 1/1/1 8/8/8 9/9/9
f 1/1/1 9/9/9 2/2/2
f 10/10/10 11/11/11 12/12/12
f 10/10/10 12/12/12 13/13/13
f 10/10/10 13/13/13 3/3/3
f 10/10/10 3/3/3 2/2/2
f 10/10/10 2/2/2 9/9/9
f 10/10/10 9/9/9 14/14/14
f 10/10/10 14/14/14 15/15/15
f 10/10/10 15/15/15 11/11/11
f 16/16/16 17/17/17 18/18/18
f 16/16/16 18/18/18 19/19/19
f 16/16/16 19/19/19 20/20/20
f 16/16/16 20/20/20 21/21/21
f 16/16/16 21/21/21 22/22/22
f 16/16/16 22/22/22 23/23/23
f 16/16/16 23/23/23 24/24/24
f 16/16/16 24/24/24 17/17/17
f 25/25/25 21/21/21 20/20/20
f 25/25/25 20/20/20 26/26/26
f 25/25/25 26/26/26 27/27/27
f 25/25/25 27/27/27 28/28/28
f 25/25/25 28/28/28 29/29/29
f 25/25/25 29/29/29 30/30/30
f 25/25/25 30/30/30 22/22/22
f 25/25/25 22/22/22 21/21/21
f 31/31/31 32/32/32 22/22/22
f 31/31/31 22/22/22 30/30/30
f 31/31/31 30/30/30 29/29/29
f 31/31/31 29/29/29 33/33/33
f 31/31/31 33/33/33 5/5/5
f 31/31/31 5/5/5 4/4/4
f 31/31/31 4/4/4 3/3/3
f 31/31/31 3/3/3 32/32/32
f 34/34/34 35/35/35 24/24/24
f 34/34/34 24/24/24 23/23/23
f 34/34/34 23/23/23 22/22/22
f 34/34/34 22/22/22 32/32/32
f 34/34/34 32/32/32 3/3/3
f 34/34/34 3/3/3 13/13/13
f 34/34/34 13/13/13 12/12/12
f 34/34/34 12/12/12 35/35/35
f 36/36/36 37/37/37 38/38/38
f 36/36/36 38/38/38 39/39/39
f 36/36/36 39/39/39 40/40/40
f 36/36/36 40/40/40 41/41/41
f 36/36/36 41/41/41 20/20/20
f 36/36/36 20/20/20 19/19/19
f 36/36/36 19/19/19 18/18/18
f 36/36/36 18/18/18 37/37/37
f 42/42/42 41/41/41 40/40/40
f 42/42/42 40/40/40 43/43/43
f 42/42/42 43/43/43 44/44/44
f 42/42/42 44/44/44 45/45/45
f 42/42/42 45/45/45 27/27/27
f 42/42/42 27/27/27 26/26/26
f 42/42/42 26/26/26 20/20/20
f 42/42/42 20/20/20 41/41/41
f 46/46/46 47/47/47 48/48/48
f 46/46/46 48/48/48 49/49/49
f 46/46/46 49/49/49 50/50/50
f 46/46/46 50/50/50 51/51/51
f 46/46/46 51/51/51 52/52/52
f 46/46/46 52/52/52 53/53/53
f 46/46/46 53/53/53 54/54/54
f 46/46/46 54/54/54 47/47/47
f 55/55/55 56/56/56 57/57/57
f 55/55/55 57/57/57 58/58/58
f 55/55/55 58/58/58 48/48/48
f 55/55/55 48/48/48 47/47/47
f 55/55/55 47/47/47 54/54/54
f 55/55/55 54/54/54 59/59/59
f 55/55/55 59/59/59 60/60/60
f 55/55/55 60/60/60 56/56/56
f 61/61/61 62/62/62 63/63/63
f 61/61/61 63/63/63 64/64/64
f 61/61/61 64/64/64 65/65/65
f 61/61/61 65/65/65 66/66/66
f 61/61/61 66/66/66 67/67/67
f 61/61/61 67/67/67 68/68/68
f 61/61/61 68/68/68 69/69/69
f 61/61/61 69/69/69 62/62/62
f 70/70/70 66/66/66 65/65/65
f 70/70/70 65/65/65 71/71/71
f 70/70/70 71/71/71 72/72/72
f 70/70/70 72/72/72 73/73/73
f 70/70/70 73/73/73 74/74/74
f 70/70/70 74/74/74 75/75/75
f 70/70/70 75/75/75 67/67/67
f 70/70/70 67/67/67 66/66/66
f 76/76/76 77/77/77 54/54/54
f 76/76/76 54/54/54 53/53/53
f 76/76/76 53/53/53 52/52/52
f 76/76/76 52/52/52 78/78/78
f 76/76/76 78/78/78 72/72/72
f 76/76/76 72/72/72 71/71/71
f 76/76/76 71/71/71 65/65/65
f 76/76/76 65/65/65 77/77/77
f 79/79/79 80/80/80 60/60/60
f 79/79/79 60/60/60 59/59/59
f 79/79/79 59/59/59 54/54/54
f 79/79/79 54/54/54 77/77/77
f 79/79/79 77/77/77 65/65/65
f 79/79/79 65/65/65 64/64/64
f 79/79/79 64/64/64 63/63/63
f 79/79/79 63/63/63 80/80/80
f 81/81/81 82/82/82 69/69/69
f 81/81/81 69/69/69 68/68/68
f 81/81/81 68/68/68 67/67/67
f 81/81/81 67/67/67 83/83/83
f 81/81/81 83/83/83 84/84/84
f 81/81/81 84/84/84 85/85/85
f 81/81/81 85/85/85 86/86/86
f 81/81/81 86/86/86 82/82/82
f 87/87/87 83/83/83 67/67/67
f 87/87/87 67/67/67 75/75/75
f 87/87/87 75/75/75 74/74/74
f 87/87/87 74/74/74 88/88/88
f 87/87/87 88/88/88 89/89/89
f 87/87/87 89/89/89 90/90/90
f 87/87/87 90/90/90 84/84/84
f 87/87/87 84/84/84 83/83/83
f 91/91/91 92/92/92 38/38/38
f 91/91/91 38/38/38 37/37/37
f 91/91/91 37/37/37 18/18/18
f 91/91/91 18/18/18 93/93/93
f 91/91/91 93/93/93 69/69/69
f 91/91/91 69/69/69 82/82/82
f 91/91/91 82/82/82 94/94/94
f 91/91/91 94/94/94 92/92/92
f 95/95/95 96/96/96 44/44/44
f 95/95/95 44/44/44 43/43/43
f 95/95/95 43/43/43 40/40/40
f 95/95/95 40/40/40 97/97/97
f 95/95/95 97/97/97 84/84/84
f 95/95/95 84/84/84 90/90/90
f 95/95/95 90/90/90 98/98/98
f 95/95/95 98/98/98 96/96/96
f 99/99/99 100/100/100 7/7/7
f 99/99/99 7/7/7 6/6/6
f 99/99/99 6/6/6 5/5/5
f 99/99/99 5/5/5 101/101/101
f 99/99/99 101/101/101 52/52/52
f 99/99/99 52/52/52 51/51/51
f 99/99/99 51/51/51 102/102/102
f 99/99/99 102/102/102 100/100/100
f 103/103/103 104/104/104 15/15/15
f 103/103/103 15/15/15 14/14/14
f 103/103/103 14/14/14 9/9/9
f 103/103/103 9/9/9 105/105/105
f 103/103/103 105/105/105 48/48/48
f 103/103/103 48/48/48 58/58/58
f 103/103/103 58/58/58 106/106/106
f 103/103/103 106/106/106 104/104/104
f 107/107/107 108/108/108 12/12/12
f 107/107/107 12/12/12 11/11/11
f 107/107/107 11/11/11 15/15/15
f 107/107/107 15/15/15 104/104/104
f 107/107/107 104/104/104 106/106/106
f 107/107/107 106/106/106 56/56/56
f 107/107/107 56/56/56 60/60/60
f 107/107/107 60/60/60 108/108/108
f 109/109/109 97/97/97 40/40/40
f 109/109/109 40/40/40 39/39/39
f 109/109/109 39/39/39 38/38/38
f 109/109/109 38/38/38 92/92/92
f 109/109/109 92/92/92 94/94/94
f 109/109/109 94/94/94 85/85/85
f 109/109/109 85/85/85 84/84/84
f 109/109/109 84/84/84 97/97/97
f 110/110/110 111/111/111 27/27/27
f 110/110/110 27/27/27 45/45/45
f 110/110/110 45/45/45 44/44/44
f 110/110/110 44/44/44 96/96/96
f 110/110/110 96/96/96 98/98/98
f 110/110/110 98/98/98 88/88/88
f 110/110/110 88/88/88 74/74/74
f 110/110/110 74/74/74 111/111/111
f 112/112/112 105/105/105 9/9/9
f 112/112/112 9/9/9 8/8/8
f 112/112/112 8/8/8 7/7/7
f 112/112/112 7/7/7 100/100/100
f 112/112/112 100/100/100 102/102/102
f 112/112/112 102/102/102 49/49/49
f 112/112/112 49/49/49 48/48/48
f 112/112/112 48/48/48 105/105/105
f 113/113/113 101/101/101 5/5/5
f 113/113/113 5/5/5 33/33/33
f 113/113/113 33/33/33 29/29/29
f 113/113/113 29/29/29 114/114/114
f 113/113/113 114/114/114 72/72/72
f 113/113/113 72/72/72 78/78/78
f 113/113/113 78/78/78 52/52/52
f 113/113/113 52/52/52 101/101/101
f 115/115/115 116/116/116 24/24/24
f 115/115/115 24/24/24 35/35/35
f 115/115/115 35/35/35 12/12/12
f 115/115/115 12/12/12 108/108/108
f 115/115/115 108/108/108 60/60/60
f 115/115/115 60/60/60 80/80/80
f 115/115/115 80/80/80 63/63/63
f 115/115/115 63/63/63 116/116/116
f 117/117/117 93/93/93 18/18/18
f 117/117/117 18/18/18 17/17/17
f 117/117/117 17/17/17 24/24/24
f 117/117/117 24/24/24 116/116/116
f 117/117/117 116/116/116 63/63/63
f 117/117/117 63/63/63 62/62/62
f 117/117/117 62/62/62 69/69/69
f 117/117/117 69/69/69 93/93/93
f 118/118/118 114/114/114 29/29/29
f 118/118/118 29/29/29 28/28/28
f 118/118/118 28/28/28 27/27/27
f 118/118/118 27/27/27 111/111/111
f 118/118/118 111/111/111 74/74/74
f 118/118/118 74/74/74 73/73/73
f 118/118/118 73/73/73 72/72/72
f 118/118/118 72/72/72 114/114/114
