v -2.358947 0.711681 -1.081085
v -2.356372 0.712007 -1.081629
v -2.357667 0.711114 -1.084789
v -2.360427 0.710772 -1.083812
v -2.362644 0.710710 -1.083259
v -2.361116 0.711584 -1.081072
v -2.359659 0.711968 -1.079865
v -2.357770 0.712214 -1.079175
v -2.355386 0.712547 -1.079296
v -2.354440 0.712820 -1.083254
v -2.353213 0.713583 -1.084875
v -2.353666 0.712980 -1.087579
v -2.355306 0.712067 -1.086276
v -2.353869 0.713200 -1.081052
v -2.353258 0.713586 -1.082945
v -2.358756 0.707476 -1.095721
v -2.356988 0.708179 -1.096758
v -2.358416 0.705978 -1.099515
v -2.359973 0.705344 -1.098588
v -2.362108 0.704623 -1.097429
v -2.361177 0.706671 -1.094419
v -2.360146 0.708496 -1.091318
v -2.357624 0.709360 -1.092688
v -2.355789 0.710131 -1.093786
v -2.363775 0.706207 -1.093306
v -2.364411 0.704222 -1.096453
v -2.366194 0.704012 -1.095773
v -2.365782 0.705956 -1.092526
v -2.364988 0.707805 -1.089360
v -2.362873 0.708033 -1.090162
v -2.361747 0.709555 -1.086917
v -2.358951 0.709960 -1.088064
v -2.363938 0.709420 -1.086146
v -2.356420 0.710902 -1.089480
v -2.354603 0.711781 -1.090638
v -2.361430 0.703060 -1.101300
v -2.360292 0.703582 -1.102021
v -2.361598 0.702068 -1.103210
v -2.362594 0.701262 -1.103261
v -2.363647 0.700820 -1.102625
v -2.363003 0.702485 -1.100412
v -2.364742 0.702223 -1.099706
v -2.364864 0.700689 -1.102169
v -2.365682 0.701036 -1.101244
v -2.366100 0.702114 -1.099226
v -2.358893 0.711416 -1.081021
v -2.356284 0.711749 -1.081581
v -2.355321 0.712352 -1.079264
v -2.357733 0.712014 -1.079129
v -2.359638 0.711820 -1.079827
v -2.361094 0.711385 -1.081016
v -2.362613 0.710513 -1.083197
v -2.360366 0.710511 -1.083739
v -2.357574 0.710859 -1.084731
v -2.354319 0.712573 -1.083222
v -2.353106 0.713404 -1.084860
v -2.353184 0.713452 -1.082933
v -2.353778 0.713014 -1.081033
v -2.355184 0.711821 -1.086233
v -2.353559 0.712802 -1.087554
v -2.358626 0.707248 -1.095628
v -2.356880 0.708012 -1.096694
v -2.355683 0.709959 -1.093733
v -2.357497 0.709126 -1.092609
v -2.360042 0.708254 -1.091228
v -2.361068 0.706437 -1.094315
v -2.361995 0.704394 -1.097316
v -2.359840 0.705122 -1.098486
v -2.358306 0.705815 -1.099444
v -2.363688 0.705968 -1.093192
v -2.362792 0.707787 -1.090061
v -2.364939 0.707619 -1.089279
v -2.365727 0.705775 -1.092436
v -2.366138 0.703835 -1.095676
v -2.364321 0.703988 -1.096330
v -2.361675 0.709301 -1.086831
v -2.358852 0.709711 -1.087990
v -2.363898 0.709228 -1.086075
v -2.356296 0.710661 -1.089420
v -2.354497 0.711605 -1.090599
v -2.361294 0.702840 -1.101195
v -2.360179 0.703421 -1.101949
v -2.362890 0.702258 -1.100296
v -2.363561 0.700650 -1.102538
v -2.362491 0.701098 -1.103183
v -2.361517 0.701948 -1.103154
v -2.364652 0.701991 -1.099579
v -2.366045 0.701938 -1.099126
v -2.365638 0.700906 -1.101171
v -2.364798 0.700515 -1.102073
v -2.359860 0.703685 -1.102231
v -2.361766 0.701643 -1.103792
v -2.357846 0.706118 -1.099794
v -2.361517 0.701948 -1.103154
v -2.364876 0.700100 -1.102947
v -2.365857 0.700608 -1.101823
v -2.363823 0.700189 -1.103324
v -2.365638 0.700906 -1.101171
v -2.361834 0.711463 -1.081041
v -2.359882 0.711991 -1.079610
v -2.363372 0.710602 -1.083045
v -2.359638 0.711820 -1.079827
v -2.353638 0.713244 -1.080310
v -2.352957 0.713742 -1.082942
v -2.355029 0.712640 -1.078505
v -2.353184 0.713452 -1.082933
v -2.352753 0.713759 -1.085411
v -2.353068 0.713207 -1.088004
v -2.362937 0.700591 -1.103881
v -2.366531 0.701999 -1.099021
v -2.366766 0.703863 -1.095502
v -2.357362 0.712303 -1.078518
v -2.364654 0.709290 -1.085856
v -2.365674 0.707646 -1.089056
v -2.353948 0.711996 -1.091008
v -2.355128 0.710312 -1.094130
v -2.356348 0.708340 -1.097076
v -2.366429 0.705791 -1.092226
vn -0.109400 0.966600 -0.231800
vn -0.299100 0.946100 -0.124500
vn -0.320800 0.930200 -0.178000
vn -0.152500 0.948900 -0.276100
vn -0.169900 0.940400 -0.294700
vn -0.116900 0.966300 -0.229000
vn -0.079800 0.980200 -0.181100
vn -0.111500 0.984900 -0.132500
vn -0.263000 0.964000 -0.040100
vn -0.489900 0.870400 -0.048600
vn -0.483600 0.873700 -0.052600
vn -0.493500 0.858500 -0.138900
vn -0.492600 0.862900 -0.112500
vn -0.422200 0.906300 0.017000
vn -0.473700 0.880600 0.008500
vn -0.492600 0.798000 -0.347200
vn -0.463600 0.804600 -0.371000
vn -0.469300 0.788000 -0.398400
vn -0.507600 0.777900 -0.370400
vn -0.410400 0.803800 -0.430600
vn -0.399600 0.826600 -0.396200
vn -0.375800 0.867800 -0.325100
vn -0.482500 0.830700 -0.277700
vn -0.464800 0.831300 -0.304800
vn -0.301600 0.846300 -0.439200
vn -0.302700 0.829700 -0.469000
vn -0.348300 0.818700 -0.456500
vn -0.337600 0.836400 -0.431700
vn -0.298200 0.873400 -0.385000
vn -0.268200 0.884900 -0.380900
vn -0.212300 0.923400 -0.319700
vn -0.346300 0.905900 -0.243800
vn -0.236200 0.911700 -0.336200
vn -0.482400 0.855100 -0.189700
vn -0.477100 0.850800 -0.220300
vn -0.532200 0.761700 -0.369600
vn -0.492900 0.770900 -0.403500
vn -0.523400 0.751400 -0.401800
vn -0.563000 0.721400 -0.403300
vn -0.427900 0.759100 -0.490500
vn -0.415200 0.792500 -0.446500
vn -0.282400 0.824800 -0.489800
vn -0.275100 0.794200 -0.541900
vn -0.307200 0.806100 -0.505800
vn -0.332600 0.811500 -0.480500
vn 0.092100 -0.960300 0.263400
vn 0.305200 -0.942000 0.139200
vn 0.328000 -0.924100 0.196000
vn 0.037300 -0.934700 0.353300
vn -0.063400 -0.907000 0.416200
vn -0.043900 -0.915500 0.399900
vn 0.022600 -0.925500 0.377900
vn 0.138900 -0.948900 0.283300
vn 0.320800 -0.930300 0.177800
vn 0.520400 -0.852000 0.057300
vn 0.678200 -0.733000 0.052300
vn 0.697700 -0.714600 0.050000
vn 0.607100 -0.790600 0.079300
vn 0.505300 -0.856300 0.107000
vn 0.629600 -0.772100 0.085800
vn 0.505600 -0.793500 0.338600
vn 0.592200 -0.757100 0.275700
vn 0.586300 -0.778000 0.225800
vn 0.494700 -0.825900 0.270500
vn 0.375900 -0.867700 0.325200
vn 0.399700 -0.826500 0.396400
vn 0.410400 -0.803700 0.430700
vn 0.522200 -0.773700 0.358700
vn 0.611700 -0.745400 0.264800
vn 0.286300 -0.848900 0.444200
vn 0.254200 -0.886700 0.386200
vn 0.152600 -0.887600 0.434600
vn 0.178200 -0.861800 0.475000
vn 0.155100 -0.860900 0.484500
vn 0.284400 -0.833800 0.473100
vn 0.198800 -0.924400 0.325400
vn 0.346300 -0.905900 0.243800
vn 0.094100 -0.914700 0.393000
vn 0.494400 -0.849700 0.183100
vn 0.597800 -0.787300 0.150700
vn 0.547900 -0.763800 0.341100
vn 0.641700 -0.738300 0.207400
vn 0.412300 -0.799400 0.436900
vn 0.398800 -0.828200 0.393700
vn 0.585700 -0.772200 0.246400
vn 0.656500 -0.735400 0.167800
vn 0.253600 -0.838200 0.482700
vn 0.093300 -0.877000 0.471400
vn 0.054800 -0.887600 0.457400
vn 0.165900 -0.878300 0.448400
vn 0.622600 0.160800 -0.765800
vn 0.321700 -0.057600 -0.945100
vn 0.719600 0.220600 -0.658400
vn 0.656500 -0.735400 0.167800
vn -0.458500 -0.561300 -0.689000
vn -0.854700 -0.355000 -0.378700
vn -0.191400 -0.647800 -0.737300
vn 0.054800 -0.887600 0.457400
vn -0.770400 0.195000 0.607000
vn -0.527400 0.274900 0.803900
vn -0.882700 0.091500 0.461000
vn -0.063400 -0.907000 0.416200
vn 0.728900 0.395300 0.558900
vn 0.776700 0.604600 0.176400
vn 0.392100 0.169800 0.904100
vn 0.697700 -0.714600 0.050000
vn 0.793800 0.590300 -0.146000
vn 0.786800 0.513400 -0.342500
vn -0.043800 -0.456500 -0.888600
vn -0.970400 -0.241600 0.001600
vn -0.966600 -0.205600 0.153200
vn -0.135300 0.176700 0.974900
vn -0.932200 -0.006300 0.361800
vn -0.947800 -0.074600 0.309900
vn 0.778200 0.426100 -0.461300
vn 0.774700 0.360700 -0.519200
vn 0.765900 0.293400 -0.572000
vn -0.956000 -0.142000 0.256600
vt 0.839504 0.118056
vt 0.856743 0.205307
vt 0.741230 0.205307
vt 0.734555 0.106726
vt 0.724541 0.032791
vt 0.813647 0.052618
vt 0.868992 0.081539
vt 0.913398 0.129584
vt 0.940923 0.205307
vt 0.839504 0.292557
vt 0.813647 0.357995
vt 0.724541 0.377822
vt 0.734555 0.303887
vt 0.913398 0.281029
vt 0.868992 0.329074
vt 0.369475 0.299954
vt 0.368286 0.370940
vt 0.245840 0.351447
vt 0.246397 0.288815
vt 0.246768 0.205307
vt 0.370268 0.205307
vt 0.494283 0.205307
vt 0.492822 0.304944
vt 0.490632 0.379672
vt 0.369475 0.110659
vt 0.246397 0.121798
vt 0.245841 0.059166
vt 0.368286 0.039673
vt 0.490632 0.030941
vt 0.492822 0.105669
vt 0.616755 0.103478
vt 0.619174 0.205307
vt 0.613127 0.027106
vt 0.616755 0.307135
vt 0.613126 0.383507
vt 0.123273 0.268175
vt 0.123047 0.315326
vt 0.054743 0.283353
vt 0.030912 0.249131
vt 0.030973 0.205306
vt 0.123423 0.205306
vt 0.123273 0.142438
vt 0.030912 0.161481
vt 0.054744 0.127260
vt 0.123047 0.095287
vt 0.839504 0.118056
vt 0.856743 0.205307
vt 0.968983 0.205307
vt 0.938030 0.133427
vt 0.876123 0.061548
vt 0.805028 0.030806
vt 0.721203 0.008146
vt 0.734555 0.106726
vt 0.741230 0.205307
vt 0.839504 0.292557
vt 0.805028 0.379807
vt 0.876123 0.349065
vt 0.938030 0.277186
vt 0.734555 0.303887
vt 0.721203 0.402467
vt 0.369475 0.299954
vt 0.367890 0.394602
vt 0.489902 0.404581
vt 0.492822 0.304944
vt 0.494283 0.205307
vt 0.370268 0.205307
vt 0.246768 0.205307
vt 0.246397 0.288815
vt 0.245655 0.372324
vt 0.369475 0.110659
vt 0.492822 0.105669
vt 0.489902 0.006032
vt 0.367890 0.016011
vt 0.245655 0.038289
vt 0.246397 0.121798
vt 0.616755 0.103478
vt 0.619174 0.205307
vt 0.611917 0.001649
vt 0.616755 0.307135
vt 0.611917 0.408964
vt 0.123273 0.268175
vt 0.122972 0.331043
vt 0.123423 0.205306
vt 0.000156 0.205306
vt 0.000125 0.242784
vt 0.000064 0.280261
vt 0.123273 0.142438
vt 0.122972 0.079570
vt 0.000064 0.130352
vt 0.000125 0.167829
vt 0.122972 0.331043
vt 0.030806 0.283587
vt 0.245655 0.372324
vt 0.030806 0.283587
vt 0.000125 0.167829
vt 0.030806 0.127026
vt 0.000156 0.205306
vt 0.030806 0.127026
vt 0.805028 0.030806
vt 0.873826 0.071832
vt 0.721203 0.008146
vt 0.873826 0.071832
vt 0.938030 0.277186
vt 0.873826 0.338781
vt 0.968983 0.205307
vt 0.873826 0.338781
vt 0.805028 0.379807
vt 0.721203 0.402467
vt 0.000125 0.242784
vt 0.122972 0.079570
vt 0.245655 0.038289
vt 0.938030 0.133427
vt 0.611917 0.001649
vt 0.489902 0.006032
vt 0.611917 0.408964
vt 0.489902 0.404581
vt 0.367890 0.394602
vt 0.367890 0.016011
f 1/1/1 2/2/2 3/3/3
f 1/1/1 3/3/3 4/4/4
f 1/1/1 4/4/4 5/5/5
f 1/1/1 5/5/5 6/6/6
f 1/1/1 6/6/6 7/7/7
f 1/1/1 7/7/7 8/8/8
f 1/1/1 8/8/8 9/9/9
f 1/1/1 9/9/9 2/2/2
f 10/10/10 11/11/11 12/12/12
f 10/10/10 12/12/12 13/13/13
f 10/10/10 13/13/13 3/3/3
f 10/10/10 3/3/3 2/2/2
f 10/10/10 2/2/2 9/9/9
f 10/10/10 9/9/9 14/14/14
f 10/10/10 14/14/14 15/15/15
f 10/10/10 15/15/15 11/11/11
f 16/16/16 17/17/17 18/18/18
f 16/16/16 18/18/18 19/19/19
f 16/16/16 19/19/19 20/20/20
f 16/16/16 20/20/20 21/21/21
f 16/16/16 21/21/21 22/22/22
f 16/16/16 22/22/22 23/23/23
f 16/16/16 23/23/23 24/24/24
f 16/16/16 24/24/24 17/17/17
f 25/25/25 21/21/21 20/20/20
f 25/25/25 20/20/20 26/26/26
f 25/25/25 26/26/26 27/27/27
f 25/25/25 27/27/27 28/28/28
f 25/25/25 28/28/28 29/29/29
f 25/25/25 29/29/29 30/30/30
f 25/25/25 30/30/30 22/22/22
f 25/25/25 22/22/22 21/21/21
f 31/31/31 32/32/32 22/22/22
f 31/31/31 22/22/22 30/30/30
f 31/31/31 30/30/30 29/29/29
f 31/31/31 29/29/29 33/33/33
f 31/31/31 33/33/33 5/5/5
f 31/31/31 5/5/5 4/4/4
f 31/31/31 4/4/4 3/3/3
f 31/31/31 3/3/3 32/32/32
f 34/34/34 35/35/35 24/24/24
f 34/34/34 24/24/24 23/23/23
f 34/34/34 23/23/23 22/22/22
f 34/34/34 22/22/22 32/32/32
f 34/34/34 32/32/32 3/3/3
f 34/34/34 3/3/3 13/13/13
f 34/34/34 13/13/13 12/12/12
f 34/34/34 12/12/12 35/35/35
f 36/36/36 37/37/37 38/38/38
f 36/36/36 38/38/38 39/39/39
f 36/36/36 39/39/39 40/40/40
f 36/36/36 40/40/40 41/41/41
f 36/36/36 41/41/41 20/20/20
f 36/36/36 20/20/20 19/19/19
f 36/36/36 19/19/19 18/18/18
f 36/36/36 18/18/18 37/37/37
f 42/42/42 41/41/41 40/40/40
f 42/42/42 40/40/40 43/43/43
f 42/42/42 43/43/43 44/44/44
f 42/42/42 44/44/44 45/45/45
f 42/42/42 45/45/45 27/27/27
f 42/42/42 27/27/27 26/26/26
f 42/42/42 26/26/26 20/20/20
f 42/42/42 20/20/20 41/41/41
f 46/46/46 47/47/47 48/48/48
f 46/46/46 48/48/48 49/49/49
f 46/46/46 49/49/49 50/50/50
f 46/46/46 50/50/50 51/51/51
f 46/46/46 51/51/51 52/52/52
f 46/46/46 52/52/52 53/53/53
f 46/46/46 53/53/53 54/54/54
f 46/46/46 54/54/54 47/47/47
f 55/55/55 56/56/56 57/57/57
f 55/55/55 57/57/57 58/58/58
f 55/55/55 58/58/58 48/48/48
f 55/55/55 48/48/48 47/47/47
f 55/55/55 47/47/47 54/54/54
f 55/55/55 54/54/54 59/59/59
f 55/55/55 59/59/59 60/60/60
f 55/55/55 60/60/60 56/56/56
f 61/61/61 62/62/62 63/63/63
f 61/61/61 63/63/63 64/64/64
f 61/61/61 64/64/64 65/65/65
f 61/61/61 65/65/65 66/66/66
f 61/61/61 66/66/66 67/67/67
f 61/61/61 67/67/67 68/68/68
f 61/61/61 68/68/68 69/69/69
f 61/61/61 69/69/69 62/62/62
f 70/70/70 66/66/66 65/65/65
f 70/70/70 65/65/65 71/71/71
f 70/70/70 71/71/71 72/72/72
f 70/70/70 72/72/72 73/73/73
f 70/70/70 73/73/73 74/74/74
f 70/70/70 74/74/74 75/75/75
f 70/70/70 75/75/75 67/67/67
f 70/70/70 67/67/67 66/66/66
f 76/76/76 77/77/77 54/54/54
f 76/76/76 54/54/54 53/53/53
f 76/76/76 53/53/53 52/52/52
f 76/76/76 52/52/52 78/78/78
f 76/76/76 78/78/78 72/72/72
f 76/76/76 72/72/72 71/71/71
f 76/76/76 71/71/71 65/65/65
f 76/76/76 65/65/65 77/77/77
f 79/79/79 80/80/80 60/60/60
f 79/79/79 60/60/60 59/59/59
f 79/79/79 59/59/59 54/54/54
f 79/79/79 54/54/54 77/77/77
f 79/79/79 77/77/77 65/65/65
f 79/79/79 65/65/65 64/64/64
f 79/79/79 64/64/64 63/63/63
f 79/79/79 63/63/63 80/80/80
f 81/81/81 82/82/82 69/69/69
f 81/81/81 69/69/69 68/68/68
f 81/81/81 68/68/68 67/67/67
f 81/81/81 67/67/67 83/83/83
f 81/81/81 83/83/83 84/84/84
f 81/81/81 84/84/84 85/85/85
f 81/81/81 85/85/85 86/86/86
f 81/81/81 86/86/86 82/82/82
f 87/87/87 83/83/83 67/67/67
f 87/87/87 67/67/67 75/75/75
f 87/87/87 75/75/75 74/74/74
f 87/87/87 74/74/74 88/88/88
f 87/87/87 88/88/88 89/89/89
f 87/87/87 89/89/89 90/90/90
f 87/87/87 90/90/90 84/84/84
f 87/87/87 84/84/84 83/83/83
f 91/91/91 92/92/92 38/38/38
f 91/91/91 38/38/38 37/37/37
f 91/91/91 37/37/37 18/18/18
f 91/91/91 18/18/18 93/93/93
f 91/91/91 93/93/93 69/69/69
f 91/91/91 69/69/69 82/82/82
f 91/91/91 82/82/82 94/94/94
f 91/91/91 94/94/94 92/92/92
f 95/95/95 96/96/96 44/44/44
f 95/95/95 44/44/44 43/43/43
f 95/95/95 43/43/43 40/40/40
f 95/95/95 40/40/40 97/97/97
f 95/95/95 97/97/97 84/84/84
f 95/95/95 84/84/84 90/90/90
f 95/95/95 90/90/90 98/98/98
f 95/95/95 98/98/98 96/96/96
f 99/99/99 100/100/100 7/7/7
f 99/99/99 7/7/7 6/6/6
f 99/99/99 6/6/6 5/5/5
f 99/99/99 5/5/5 101/101/101
f 99/99/99 101/101/101 52/52/52
f 99/99/99 52/52/52 51/51/51
f 99/99/99 51/51/51 102/102/102
f 99/99/99 102/102/102 100/100/100
f 103/103/103 104/104/104 15/15/15
f 103/103/103 15/15/15 14/14/14
f 103/103/103 14/14/14 9/9/9
f 103/103/103 9/9/9 105/105/105
f 103/103/103 105/105/105 48/48/48
f 103/103/103 48/48/48 58/58/58
f 103/103/103 58/58/58 106/106/106
f 103/103/103 106/106/106 104/104/104
f 107/107/107 108/108/108 12/12/12
f 107/107/107 12/12/12 11/11/11
f 107/107/107 11/11/11 15/15/15
f 107/107/107 15/15/15 104/104/104
f 107/107/107 104/104/104 106/106/106
f 107/107/107 106/106/106 56/56/56
f 107/107/107 56/56/56 60/60/60
f 107/107/107 60/60/60 108/108/108
f 109/109/109 97/97/97 40/40/40
f 109/109/109 40/40/40 39/39/39
f 109/109/109 39/39/39 38/38/38
f 109/109/109 38/38/38 92/92/92
f 109/109/109 92/92/92 94/94/94
f 109/109/109 94/94/94 85/85/85
f 109/109/109 85/85/85 84/84/84
f 109/109/109 84/84/84 97/97/97
f 110/110/110 111/111/111 27/27/27
f 110/110/110 27/27/27 45/45/45
f 110/110/110 45/45/45 44/44/44
f 110/110/110 44/44/44 96/96/96
f 110/110/110 96/96/96 98/98/98
f 110/110/110 98/98/98 88/88/88
f 110/110/110 88/88/88 74/74/74
f 110/110/110 74/74/74 111/111/111
f 112/112/112 105/105/105 9/9/9
f 112/112/112 9/9/9 8/8/8
f 112/112/112 8/8/8 7/7/7
f 112/112/112 7/7/7 100/100/100
f 112/112/112 100/100/100 102/102/102
f 112/112/112 102/102/102 49/49/49
f 112/112/112 49/49/49 48/48/48
f 112/112/112 48/48/48 105/105/105
f 113/113/113 101/101/101 5/5/5
f 113/113/113 5/5/5 33/33/33
f 113/113/113 33/33/33 29/29/29
f 113/113/113 29/29/29 114/114/114
f 113/113/113 114/114/114 72/72/72
f 113/113/113 72/72/72 78/78/78
f 113/113/113 78/78/78 52/52/52
f 113/113/113 52/52/52 101/101/101
f 115/115/115 116/116/116 24/24/24
f 115/115/115 24/24/24 35/35/35
f 115/115/115 35/35/35 12/12/12
f 115/115/115 12/12/12 108/108/108
f 115/115/115 108/108/108 60/60/60
f 115/115/115 60/60/60 80/80/80
f 115/115/115 80/80/80 63/63/63
f 115/115/115 63/63/63 116/116/116
f 117/117/117 93/93/93 18/18/18
f 117/117/117 18/18/18 17/17/17
f 117/117/117 17/17/17 24/24/24
f 117/117/117 24/24/24 116/116/116
f 117/117/117 116/116/116 63/63/63
f 117/117/117 63/63/63 62/62/62
f 117/117/117 62/62/62 69/69/69
f 117/117/117 69/69/69 93/93/93
f 118/118/118 114/114/114 29/29/29
f 118/118/118 29/29/29 28/28/28
f 118/118/118 28/28/28 27/27/27
f 118/118/118 27/27/27 111/111/111
f 118/118/118 111/111/111 74/74/74
f 118/118/118 74/74/74 73/73/73
f 118/118/118 73/73/73 72/72/72
f 118/118/118 72/72/72 114/114/114
