v -2.319703 0.758358 -1.250462
v -2.321722 0.759364 -1.249935
v -2.320809 0.758307 -1.247184
v -2.318654 0.757228 -1.248095
v -2.316856 0.756542 -1.248628
v -2.317937 0.757664 -1.250522
v -2.319070 0.758375 -1.251552
v -2.320582 0.759103 -1.252116
v -2.322454 0.760054 -1.251961
v -2.323040 0.760607 -1.248490
v -2.323791 0.761609 -1.247063
v -2.323506 0.761023 -1.244699
v -2.322447 0.759785 -1.245853
v -2.323471 0.761050 -1.250408
v -2.323810 0.761570 -1.248750
v -2.320609 0.755155 -1.237579
v -2.321841 0.756252 -1.236648
v -2.321199 0.754070 -1.234222
v -2.320119 0.753091 -1.235052
v -2.318594 0.751874 -1.236098
v -2.318874 0.753785 -1.238753
v -2.319304 0.755539 -1.241480
v -2.321104 0.756988 -1.240245
v -2.322369 0.758160 -1.239261
v -2.316892 0.752650 -1.239775
v -2.316832 0.750876 -1.236995
v -2.315439 0.750188 -1.237625
v -2.315328 0.751863 -1.240497
v -2.315557 0.753569 -1.243287
v -2.317216 0.754367 -1.242543
v -2.317814 0.755896 -1.245385
v -2.319976 0.757039 -1.244328
v -2.316064 0.755153 -1.246107
v -2.321759 0.758554 -1.243054
v -2.322978 0.759812 -1.242021
v -2.319479 0.750832 -1.232665
v -2.320250 0.751596 -1.232020
v -2.319563 0.749993 -1.230977
v -2.318965 0.749046 -1.230936
v -2.318240 0.748373 -1.231506
v -2.318368 0.749898 -1.233463
v -2.317026 0.749179 -1.234114
v -2.317284 0.747913 -1.231930
v -2.316538 0.747954 -1.232765
v -2.315948 0.748697 -1.234562
v -2.319824 0.758154 -1.250511
v -2.321869 0.759175 -1.249968
v -2.322564 0.759911 -1.251983
v -2.320670 0.758948 -1.252149
v -2.319130 0.758258 -1.251581
v -2.318014 0.757505 -1.250566
v -2.316939 0.756387 -1.248677
v -2.318781 0.757029 -1.248150
v -2.320960 0.758122 -1.247227
v -2.323212 0.760437 -1.248509
v -2.323930 0.761491 -1.247070
v -2.323910 0.761480 -1.248756
v -2.323600 0.760922 -1.250419
v -2.322619 0.759616 -1.245883
v -2.323644 0.760906 -1.244715
v -2.320784 0.755002 -1.237651
v -2.321979 0.756143 -1.236698
v -2.322507 0.758047 -1.239301
v -2.321277 0.756828 -1.240305
v -2.319461 0.755367 -1.241550
v -2.319034 0.753621 -1.238836
v -2.318754 0.751715 -1.236188
v -2.320295 0.752944 -1.235133
v -2.321338 0.753965 -1.234277
v -2.317035 0.752475 -1.239866
v -2.317355 0.754185 -1.242623
v -2.315652 0.753427 -1.243352
v -2.315427 0.751727 -1.240570
v -2.315538 0.750056 -1.237705
v -2.316976 0.750707 -1.237094
v -2.317948 0.755705 -1.245453
v -2.320130 0.756860 -1.244384
v -2.316154 0.755004 -1.246163
v -2.321932 0.758390 -1.243098
v -2.323116 0.759696 -1.242049
v -2.319657 0.750687 -1.232748
v -2.320391 0.751494 -1.232077
v -2.318529 0.749741 -1.233556
v -2.318361 0.748255 -1.231577
v -2.319099 0.748938 -1.230998
v -2.319665 0.749916 -1.231021
v -2.317169 0.749011 -1.234218
v -2.316046 0.748566 -1.234644
v -2.316613 0.747859 -1.232824
v -2.317391 0.747787 -1.232008
v -2.320571 0.751807 -1.231830
v -2.319527 0.749602 -1.230463
v -2.321623 0.754351 -1.233968
v -2.319665 0.749916 -1.231021
v -2.317417 0.747435 -1.231236
v -2.316496 0.747560 -1.232253
v -2.318251 0.747812 -1.230885
v -2.316613 0.747859 -1.232824
v -2.317380 0.757361 -1.250564
v -2.318887 0.758328 -1.251780
v -2.316291 0.756243 -1.248829
v -2.319130 0.758258 -1.251581
v -2.323672 0.761140 -1.251052
v -2.324015 0.761784 -1.248749
v -2.322747 0.760221 -1.252646
v -2.323910 0.761480 -1.248756
v -2.324105 0.761893 -1.246589
v -2.323922 0.761386 -1.244320
v -2.318853 0.748403 -1.230388
v -2.315631 0.748477 -1.234749
v -2.315016 0.749899 -1.237872
v -2.320914 0.759282 -1.252681
v -2.315519 0.754838 -1.246374
v -2.315044 0.753239 -1.243565
v -2.323448 0.760182 -1.241688
v -2.322854 0.758502 -1.238949
v -2.322315 0.756571 -1.236359
v -2.314848 0.751539 -1.240771
vn 0.423700 0.882900 0.202200
vn 0.592800 0.800200 0.090500
vn 0.610100 0.779200 0.143800
vn 0.460200 0.853000 0.245900
vn 0.474600 0.839600 0.264200
vn 0.430700 0.880200 0.199300
vn 0.398400 0.904500 0.152000
vn 0.428200 0.897800 0.102500
vn 0.561500 0.827400 0.006600
vn 0.746200 0.665600 0.011700
vn 0.741400 0.670900 0.015700
vn 0.748900 0.654700 0.102100
vn 0.748600 0.658700 0.075600
vn 0.691500 0.720400 -0.053100
vn 0.732100 0.679700 -0.045200
vn 0.735600 0.601300 0.312000
vn 0.711100 0.617400 0.336300
vn 0.712000 0.600400 0.364000
vn 0.744100 0.577800 0.335200
vn 0.662600 0.634800 0.397300
vn 0.658600 0.659300 0.362600
vn 0.646900 0.704800 0.291000
vn 0.734200 0.634400 0.241900
vn 0.718600 0.641100 0.269500
vn 0.573700 0.710400 0.407600
vn 0.570500 0.694800 0.437900
vn 0.609600 0.669500 0.424500
vn 0.604300 0.689400 0.399500
vn 0.577400 0.736200 0.352900
vn 0.552600 0.756800 0.349200
vn 0.510100 0.810200 0.288600
vn 0.628600 0.749000 0.209600
vn 0.529500 0.791700 0.304700
vn 0.739100 0.655900 0.153300
vn 0.733600 0.654100 0.184100
vn 0.762000 0.554600 0.334200
vn 0.729000 0.576600 0.368800
vn 0.751500 0.548300 0.366900
vn 0.779300 0.507100 0.368200
vn 0.666900 0.587900 0.457800
vn 0.664100 0.622900 0.413400
vn 0.550300 0.697300 0.459200
vn 0.535300 0.671500 0.512400
vn 0.568300 0.671700 0.475200
vn 0.593200 0.668100 0.449100
vn -0.406400 -0.883100 -0.234500
vn -0.597700 -0.794700 -0.105200
vn -0.615500 -0.771300 -0.161800
vn -0.349400 -0.878200 -0.326600
vn -0.247300 -0.885700 -0.392900
vn -0.267900 -0.887100 -0.375800
vn -0.333400 -0.874700 -0.351700
vn -0.447600 -0.857500 -0.253500
vn -0.610100 -0.779200 -0.143700
vn -0.769400 -0.638400 -0.020000
vn -0.880000 -0.474700 -0.014000
vn -0.892400 -0.451100 -0.011600
vn -0.832200 -0.552800 -0.041200
vn -0.758200 -0.648200 -0.069900
vn -0.847800 -0.528100 -0.047700
vn -0.746200 -0.592700 -0.303100
vn -0.814200 -0.529100 -0.238900
vn -0.813600 -0.549900 -0.188700
vn -0.744000 -0.625700 -0.234400
vn -0.647000 -0.704700 -0.291100
vn -0.658700 -0.659200 -0.362800
vn -0.662600 -0.634800 -0.397400
vn -0.756200 -0.568900 -0.323300
vn -0.828400 -0.511700 -0.227900
vn -0.560300 -0.718000 -0.413000
vn -0.540100 -0.763100 -0.354900
vn -0.446000 -0.797700 -0.405900
vn -0.463300 -0.765600 -0.446300
vn -0.441400 -0.772500 -0.456500
vn -0.554600 -0.704800 -0.442400
vn -0.497900 -0.815700 -0.294600
vn -0.628600 -0.749000 -0.209600
vn -0.398100 -0.841500 -0.365200
vn -0.748400 -0.646900 -0.146500
vn -0.824900 -0.553900 -0.113000
vn -0.776700 -0.551000 -0.305300
vn -0.852600 -0.494200 -0.169900
vn -0.663200 -0.630200 -0.403600
vn -0.658300 -0.661100 -0.360100
vn -0.811800 -0.545100 -0.209300
vn -0.864200 -0.486100 -0.129900
vn -0.527100 -0.719100 -0.452700
vn -0.387700 -0.807500 -0.444500
vn -0.354200 -0.829700 -0.431300
vn -0.456000 -0.784800 -0.419500
vn -0.510600 0.366700 0.777700
vn -0.290500 0.065900 0.954600
vn -0.586800 0.452700 0.671300
vn -0.864200 -0.486100 -0.129900
vn 0.276100 -0.667600 0.691400
vn 0.706200 -0.606200 0.365800
vn -0.002700 -0.662300 0.749200
vn -0.354200 -0.829700 -0.431300
vn 0.770800 -0.075300 -0.632600
vn 0.560100 0.075500 -0.824900
vn 0.848600 -0.207300 -0.486700
vn -0.247300 -0.885700 -0.392900
vn -0.581000 0.600300 -0.549600
vn -0.545500 0.820200 -0.171900
vn -0.347300 0.272400 -0.897300
vn -0.892400 -0.451100 -0.011600
vn -0.555000 0.817900 0.151300
vn -0.566600 0.746200 0.349400
vn -0.075500 -0.430900 0.899200
vn 0.839400 -0.543200 -0.020200
vn 0.842400 -0.510100 -0.173300
vn 0.151600 0.106700 -0.982700
vn 0.867200 -0.314100 -0.386300
vn 0.861600 -0.383000 -0.333000
vn -0.582700 0.662900 0.470100
vn -0.598400 0.601200 0.529600
vn -0.610000 0.535500 0.584000
vn 0.849500 -0.448100 -0.278300
vt 0.839504 0.118056
vt 0.856743 0.205307
vt 0.741230 0.205307
vt 0.734555 0.106726
vt 0.724541 0.032791
vt 0.813647 0.052618
vt 0.868992 0.081539
vt 0.913398 0.129584
vt 0.940923 0.205307
vt 0.839504 0.292557
vt 0.813647 0.357995
vt 0.724541 0.377822
vt 0.734555 0.303887
vt 0.913398 0.281029
vt 0.868992 0.329074
vt 0.369475 0.299954
vt 0.368286 0.370940
vt 0.245840 0.351447
vt 0.246397 0.288815
vt 0.246768 0.205307
vt 0.370268 0.205307
vt 0.494283 0.205307
vt 0.492822 0.304944
vt 0.490632 0.379672
vt 0.369475 0.110659
vt 0.246397 0.121798
vt 0.245841 0.059166
vt 0.368286 0.039673
vt 0.490632 0.030941
vt 0.492822 0.105669
vt 0.616755 0.103478
vt 0.619174 0.205307
vt 0.613127 0.027106
vt 0.616755 0.307135
vt 0.613126 0.383507
vt 0.123273 0.268175
vt 0.123047 0.315326
vt 0.054743 0.283353
vt 0.030912 0.249131
vt 0.030973 0.205306
vt 0.123423 0.205306
vt 0.123273 0.142438
vt 0.030912 0.161481
vt 0.054744 0.127260
vt 0.123047 0.095287
vt 0.839504 0.118056
vt 0.856743 0.205307
vt 0.968983 0.205307
vt 0.938030 0.133427
vt 0.876123 0.061548
vt 0.805028 0.030806
vt 0.721203 0.008146
vt 0.734555 0.106726
vt 0.741230 0.205307
vt 0.839504 0.292557
vt 0.805028 0.379807
vt 0.876123 0.349065
vt 0.938030 0.277186
vt 0.734555 0.303887
vt 0.721203 0.402467
vt 0.369475 0.299954
vt 0.367890 0.394602
vt 0.489902 0.404581
vt 0.492822 0.304944
vt 0.494283 0.205307
vt 0.370268 0.205307
vt 0.246768 0.205307
vt 0.246397 0.288815
vt 0.245655 0.372324
vt 0.369475 0.110659
vt 0.492822 0.105669
vt 0.489902 0.006032
vt 0.367890 0.016011
vt 0.245655 0.038289
vt 0.246397 0.121798
vt 0.616755 0.103478
vt 0.619174 0.205307
vt 0.611917 0.001649
vt 0.616755 0.307135
vt 0.611917 0.408964
vt 0.123273 0.268175
vt 0.122972 0.331043
vt 0.123423 0.205306
vt 0.000156 0.205306
vt 0.000125 0.242784
vt 0.000064 0.280261
vt 0.123273 0.142438
vt 0.122972 0.079570
vt 0.000064 0.130352
vt 0.000125 0.167829
vt 0.122972 0.331043
vt 0.030806 0.283587
vt 0.245655 0.372324
vt 0.030806 0.283587
vt 0.000125 0.167829
vt 0.030806 0.127026
vt 0.000156 0.205306
vt 0.030806 0.127026
vt 0.805028 0.030806
vt 0.873826 0.071832
vt 0.721203 0.008146
vt 0.873826 0.071832
vt 0.938030 0.277186
vt 0.873826 0.338781
vt 0.968983 0.205307
vt 0.873826 0.338781
vt 0.805028 0.379807
vt 0.721203 0.402467
vt 0.000125 0.242784
vt 0.122972 0.079570
vt 0.245655 0.038289
vt 0.938030 0.133427
vt 0.611917 0.001649
vt 0.489902 0.006032
vt 0.611917 0.408964
vt 0.489902 0.404581
vt 0.367890 0.394602
vt 0.367890 0.016011
f 1/1/1 2/2/2 3/3/3
f 1/1/1 3/3/3 4/4/4
f 1/1/1 4/4/4 5/5/5
f 1/1/1 5/5/5 6/6/6
f 1/1/1 6/6/6 7/7/7
f 1/1/1 7/7/7 8/8/8
f 1/1/1 8/8/8 9/9/9
f 1/1/1 9/9/9 2/2/2
f 10/10/10 11/11/11 12/12/12
f 10/10/10 12/12/12 13/13/13
f 10/10/10 13/13/13 3/3/3
f 10/10/10 3/3/3 2/2/2
f 10/10/10 2/2/2 9/9/9
f 10/10/10 9/9/9 14/14/14
f 10/10/10 14/14/14 15/15/15
f 10/10/10 15/15/15 11/11/11
f 16/16/16 17/17/17 18/18/18
f 16/16/16 18/18/18 19/19/19
f 16/16/16 19/19/19 20/20/20
f 16/16/16 20/20/20 21/21/21
f 16/16/16 21/21/21 22/22/22
f 16/16/16 22/22/22 23/23/23
f 16/16/16 23/23/23 24/24/24
f 16/16/16 24/24/24 17/17/17
f 25/25/25 21/21/21 20/20/20
f 25/25/25 20/20/20 26/26/26
f 25/25/25 26/26/26 27/27/27
f 25/25/25 27/27/27 28/28/28
f 25/25/25 28/28/28 29/29/29
f 25/25/25 29/29/29 30/30/30
f 25/25/25 30/30/30 22/22/22
f 25/25/25 22/22/22 21/21/21
f 31/31/31 32/32/32 22/22/22
f 31/31/31 22/22/22 30/30/30
f 31/31/31 30/30/30 29/29/29
f 31/31/31 29/29/29 33/33/33
f 31/31/31 33/33/33 5/5/5
f 31/31/31 5/5/5 4/4/4
f 31/31/31 4/4/4 3/3/3
f 31/31/31 3/3/3 32/32/32
f 34/34/34 35/35/35 24/24/24
f 34/34/34 24/24/24 23/23/23
f 34/34/34 23/23/23 22/22/22
f 34/34/34 22/22/22 32/32/32
f 34/34/34 32/32/32 3/3/3
f 34/34/34 3/3/3 13/13/13
f 34/34/34 13/13/13 12/12/12
f 34/34/34 12/12/12 35/35/35
f 36/36/36 37/37/37 38/38/38
f 36/36/36 38/38/38 39/39/39
f 36/36/36 39/39/39 40/40/40
f 36/36/36 40/40/40 41/41/41
f 36/36/36 41/41/41 20/20/20
f 36/36/36 20/20/20 19/19/19
f 36/36/36 19/19/19 18/18/18
f 36/36/36 18/18/18 37/37/37
f 42/42/42 41/41/41 40/40/40
f 42/42/42 40/40/40 43/43/43
f 42/42/42 43/43/43 44/44/44
f 42/42/42 44/44/44 45/45/45
f 42/42/42 45/45/45 27/27/27
f 42/42/42 27/27/27 26/26/26
f 42/42/42 26/26/26 20/20/20
f 42/42/42 20/20/20 41/41/41
f 46/46/46 47/47/47 48/48/48
f 46/46/46 48/48/48 49/49/49
f 46/46/46 49/49/49 50/50/50
f 46/46/46 50/50/50 51/51/51
f 46/46/46 51/51/51 52/52/52
f 46/46/46 52/52/52 53/53/53
f 46/46/46 53/53/53 54/54/54
f 46/46/46 54/54/54 47/47/47
f 55/55/55 56/56/56 57/57/57
f 55/55/55 57/57/57 58/58/58
f 55/55/55 58/58/58 48/48/48
f 55/55/55 48/48/48 47/47/47
f 55/55/55 47/47/47 54/54/54
f 55/55/55 54/54/54 59/59/59
f 55/55/55 59/59/59 60/60/60
f 55/55/55 60/60/60 56/56/56
f 61/61/61 62/62/62 63/63/63
f 61/61/61 63/63/63 64/64/64
f 61/61/61 64/64/64 65/65/65
f 61/61/61 65/65/65 66/66/66
f 61/61/61 66/66/66 67/67/67
f 61/61/61 67/67/67 68/68/68
f 61/61/61 68/68/68 69/69/69
f 61/61/61 69/69/69 62/62/62
f 70/70/70 66/66/66 65/65/65
f 70/70/70 65/65/65 71/71/71
f 70/70/70 71/71/71 72/72/72
f 70/70/70 72/72/72 73/73/73
f 70/70/70 73/73/73 74/74/74
f 70/70/70 74/74/74 75/75/75
f 70/70/70 75/75/75 67/67/67
f 70/70/70 67/67/67 66/66/66
f 76/76/76 77/77/77 54/54/54
f 76/76/76 54/54/54 53/53/53
f 76/76/76 53/53/53 52/52/52
f 76/76/76 52/52/52 78/78/78
f 76/76/76 78/78/78 72/72/72
f 76/76/76 72/72/72 71/71/71
f 76/76/76 71/71/71 65/65/65
f 76/76/76 65/65/65 77/77/77
f 79/79/79 80/80/80 60/60/60
f 79/79/79 60/60/60 59/59/59
f 79/79/79 59/59/59 54/54/54
f 79/79/79 54/54/54 77/77/77
f 79/79/79 77/77/77 65/65/65
f 79/79/79 65/65/65 64/64/64
f 79/79/79 64/64/64 63/63/63
f 79/79/79 63/63/63 80/80/80
f 81/81/81 82/82/82 69/69/69
f 81/81/81 69/69/69 68/68/68
f 81/81/81 68/68/68 67/67/67
f 81/81/81 67/67/67 83/83/83
f 81/81/81 83/83/83 84/84/84
f 81/81/81 84/84/84 85/85/85
f 81/81/81 85/85/85 86/86/86
f 81/81/81 86/86/86 82/82/82
f 87/87/87 83/83/83 67/67/67
f 87/87/87 67/67/67 75/75/75
f 87/87/87 75/75/75 74/74/74
f 87/87/87 74/74/74 88/88/88
f 87/87/87 88/88/88 89/89/89
f 87/87/87 89/89/89 90/90/90
f 87/87/87 90/90/90 84/84/84
f 87/87/87 84/84/84 83/83/83
f 91/91/91 92/92/92 38/38/38
f 91/91/91 38/38/38 37/37/37
f 91/91/91 37/37/37 18/18/18
f 91/91/91 18/18/18 93/93/93
f 91/91/91 93/93/93 69/69/69
f 91/91/91 69/69/69 82/82/82
f 91/91/91 82/82/82 94/94/94
f 91/91/91 94/94/94 92/92/92
f 95/95/95 96/96/96 44/44/44
f 95/95/95 44/44/44 43/43/43
f 95/95/95 43/43/43 40/40/40
f 95/95/95 40/40/40 97/97/97
f 95/95/95 97/97/97 84/84/84
f 95/95/95 84/84/84 90/90/90
f 95/95/95 90/90/90 98/98/98
f 95/95/95 98/98/98 96/96/96
f 99/99/99 100/100/100 7/7/7
f 99/99/99 7/7/7 6/6/6
f 99/99/99 6/6/6 5/5/5
f 99/99/99 5/5/5 101/101/101
f 99/99/99 101/101/101 52/52/52
f 99/99/99 52/52/52 51/51/51
f 99/99/99 51/51/51 102/102/102
f 99/99/99 102/102/102 100/100/100
f 103/103/103 104/104/104 15/15/15
f 103/103/103 15/15/15 14/14/14
f 103/103/103 14/14/14 9/9/9
f 103/103/103 9/9/9 105/105/105
f 103/103/103 105/105/105 48/48/48
f 103/103/103 48/48/48 58/58/58
f 103/103/103 58/58/58 106/106/106
f 103/103/103 106/106/106 104/104/104
f 107/107/107 108/108/108 12/12/12
f 107/107/107 12/12/12 11/11/11
f 107/107/107 11/11/11 15/15/15
f 107/107/107 15/15/15 104/104/104
f 107/107/107 104/104/104 106/106/106
f 107/107/107 106/106/106 56/56/56
f 107/107/107 56/56/56 60/60/60
f 107/107/107 60/60/60 108/108/108
f 109/109/109 97/97/97 40/40/40
f 109/109/109 40/40/40 39/39/39
f 109/109/109 39/39/39 38/38/38
f 109/109/109 38/38/38 92/92/92
f 109/109/109 92/92/92 94/94/94
f 109/109/109 94/94/94 85/85/85
f 109/109/109 85/85/85 84/84/84
f 109/109/109 84/84/84 97/97/97
f 110/110/110 111/111/111 27/27/27
f 110/110/110 27/27/27 45/45/45
f 110/110/110 45/45/45 44/44/44
f 110/110/110 44/44/44 96/96/96
f 110/110/110 96/96/96 98/98/98
f 110/110/110 98/98/98 88/88/88
f 110/110/110 88/88/88 74/74/74
f 110/110/110 74/74/74 111/111/111
f 112/112/112 105/105/105 9/9/9
f 112/112/112 9/9/9 8/8/8
f 112/112/112 8/8/8 7/7/7
f 112/112/112 7/7/7 100/100/100
f 112/112/112 100/100/100 102/102/102
f 112/112/112 102/102/102 49/49/49
f 112/112/112 49/49/49 48/48/48
f 112/112/112 48/48/48 105/105/105
f 113/113/113 101/101/101 5/5/5
f 113/113/113 5/5/5 33/33/33
f 113/113/113 33/33/33 29/29/29
f 113/113/113 29/29/29 114/114/114
f 113/113/113 114/114/114 72/72/72
f 113/113/113 72/72/72 78/78/78
f 113/113/113 78/78/78 52/52/52
f 113/113/113 52/52/52 101/101/101
f 115/115/115 116/116/116 24/24/24
f 115/115/115 24/24/24 35/35/35
f 115/115/115 35/35/35 12/12/12
f 115/115/115 12/12/12 108/108/108
f 115/115/115 108/108/108 60/60/60
f 115/115/115 60/60/60 80/80/80
f 115/115/115 80/80/80 63/63/63
f 115/115/115 63/63/63 116/116/116
f 117/117/117 93/93/93 18/18/18
f 117/117/117 18/18/18 17/17/17
f 117/117/117 17/17/17 24/24/24
f 117/117/117 24/24/24 116/116/116
f 117/117/117 116/116/116 63/63/63
f 117/117/117 63/63/63 62/62/62
f 117/117/117 62/62/62 69/69/69
f 117/117/117 69/69/69 93/93/93
f 118/118/118 114/114/114 29/29/29
f 118/118/118 29/29/29 28/28/28
f 118/118/118 28/28/28 27/27/27
f 118/118/118 27/27/27 111/111/111
f 118/118/118 111/111/111 74/74/74
f 118/118/118 74/74/74 73/73/73
f 118/118/118 73/73/73 72/72/72
f 118/118/118 72/72/72 114/114/114
