v -2.429944 0.751658 -1.098011
v -2.432426 0.751551 -1.098319
v -2.431902 0.749065 -1.096162
v -2.429141 0.749414 -1.096103
v -2.427030 0.749718 -1.095778
v -2.428005 0.751621 -1.097344
v -2.429064 0.752590 -1.098469
v -2.430607 0.753151 -1.099451
v -2.432814 0.753297 -1.099986
v -2.434724 0.751186 -1.097394
v -2.436388 0.750793 -1.096262
v -2.436553 0.748778 -1.094549
v -2.434574 0.748878 -1.095402
v -2.434744 0.752742 -1.098917
v -2.435853 0.751920 -1.097592
v -2.432963 0.740013 -1.090134
v -2.434942 0.739910 -1.089624
v -2.433914 0.736687 -1.088410
v -2.432165 0.736775 -1.088877
v -2.429828 0.736940 -1.089359
v -2.430318 0.740203 -1.090665
v -2.430825 0.743350 -1.092189
v -2.433591 0.743164 -1.091613
v -2.435658 0.743075 -1.091045
v -2.427639 0.740538 -1.090821
v -2.427457 0.737239 -1.089485
v -2.425664 0.737501 -1.089475
v -2.425614 0.740830 -1.090828
v -2.425900 0.744038 -1.092304
v -2.428022 0.743714 -1.092331
v -2.428511 0.746719 -1.094151
v -2.431361 0.746318 -1.094070
v -2.426350 0.747095 -1.094026
v -2.434162 0.746162 -1.093421
v -2.436253 0.746118 -1.092748
v -2.431083 0.733517 -1.087731
v -2.432385 0.733471 -1.087327
v -2.431210 0.731671 -1.086877
v -2.430170 0.731054 -1.086942
v -2.428983 0.731108 -1.087273
v -2.429342 0.733626 -1.088133
v -2.427569 0.733864 -1.088184
v -2.427763 0.731292 -1.087253
v -2.426878 0.732098 -1.087436
v -2.426224 0.734079 -1.088122
v -2.429917 0.751498 -1.098217
v -2.432436 0.751386 -1.098522
v -2.432820 0.753171 -1.100136
v -2.430584 0.753028 -1.099603
v -2.429040 0.752502 -1.098582
v -2.427967 0.751505 -1.097499
v -2.426998 0.749607 -1.095938
v -2.429120 0.749262 -1.096315
v -2.431914 0.748908 -1.096371
v -2.434770 0.751019 -1.097591
v -2.436441 0.750669 -1.096406
v -2.435887 0.751826 -1.097698
v -2.434780 0.752614 -1.099061
v -2.434618 0.748719 -1.095605
v -2.436602 0.748659 -1.094699
v -2.433005 0.739896 -1.090366
v -2.434985 0.739821 -1.089795
v -2.435701 0.742976 -1.091210
v -2.433632 0.743034 -1.091837
v -2.430842 0.743222 -1.092418
v -2.430337 0.740088 -1.090901
v -2.429848 0.736834 -1.089600
v -2.432209 0.736667 -1.089113
v -2.433958 0.736605 -1.088585
v -2.427635 0.740426 -1.091059
v -2.428014 0.743589 -1.092562
v -2.425883 0.743946 -1.092478
v -2.425599 0.740747 -1.091007
v -2.425650 0.737425 -1.089657
v -2.427454 0.737136 -1.089727
v -2.428498 0.746580 -1.094372
v -2.431375 0.746174 -1.094289
v -2.426326 0.746993 -1.094193
v -2.434204 0.746016 -1.093636
v -2.436298 0.746009 -1.092906
v -2.431129 0.733413 -1.087968
v -2.432431 0.733392 -1.087502
v -2.429363 0.733524 -1.088374
v -2.428998 0.731032 -1.087454
v -2.430206 0.730976 -1.087120
v -2.431242 0.731613 -1.087008
v -2.427566 0.733765 -1.088428
v -2.426208 0.734006 -1.088305
v -2.426870 0.732044 -1.087572
v -2.427759 0.731218 -1.087436
v -2.432842 0.733420 -1.087269
v -2.431120 0.731018 -1.086644
v -2.434520 0.736621 -1.088331
v -2.431242 0.731613 -1.087008
v -2.427825 0.730402 -1.087024
v -2.426780 0.731446 -1.087205
v -2.428870 0.730236 -1.087066
v -2.426870 0.732044 -1.087572
v -2.427338 0.751558 -1.097191
v -2.428806 0.752758 -1.098559
v -2.426308 0.749771 -1.095741
v -2.429040 0.752502 -1.098582
v -2.434767 0.753204 -1.099488
v -2.436152 0.752033 -1.097611
v -2.432945 0.753822 -1.100608
v -2.435887 0.751826 -1.097698
v -2.436970 0.750607 -1.095948
v -2.437238 0.748692 -1.094331
v -2.429882 0.730199 -1.086758
v -2.425766 0.734119 -1.088182
v -2.425057 0.737555 -1.089552
v -2.430817 0.753593 -1.099998
v -2.425616 0.747176 -1.094059
v -2.425183 0.744105 -1.092372
v -2.436973 0.746055 -1.092593
v -2.436369 0.743001 -1.090928
v -2.435623 0.739836 -1.089529
v -2.424930 0.740891 -1.090910
vn -0.182000 0.619800 0.763400
vn 0.029100 0.672300 0.739700
vn 0.038500 0.627200 0.777900
vn -0.149800 0.579100 0.801400
vn -0.136700 0.561100 0.816300
vn -0.174100 0.621300 0.763900
vn -0.199000 0.661300 0.723200
vn -0.157200 0.695400 0.701200
vn 0.014300 0.738000 0.674700
vn 0.245400 0.661900 0.708200
vn 0.237800 0.662100 0.710700
vn 0.227000 0.597100 0.769400
vn 0.232300 0.616800 0.752000
vn 0.191700 0.729800 0.656200
vn 0.243400 0.705000 0.666100
vn 0.183200 0.421000 0.888400
vn 0.148200 0.411100 0.899400
vn 0.149700 0.381400 0.912200
vn 0.195600 0.391100 0.899300
vn 0.082400 0.373100 0.924100
vn 0.076500 0.412100 0.907900
vn 0.064100 0.488000 0.870400
vn 0.185200 0.489400 0.852100
vn 0.161200 0.473000 0.866200
vn -0.031300 0.399800 0.916000
vn -0.034500 0.368400 0.929000
vn 0.014000 0.367900 0.929700
vn 0.006600 0.397100 0.917700
vn -0.025900 0.454500 0.890400
vn -0.055500 0.465700 0.883200
vn -0.099900 0.532900 0.840200
vn 0.050000 0.567700 0.821700
vn -0.079300 0.513800 0.854200
vn 0.203500 0.562900 0.801000
vn 0.191200 0.540600 0.819300
vn 0.222400 0.379200 0.898200
vn 0.174400 0.365100 0.914500
vn 0.207800 0.351100 0.912900
vn 0.251300 0.327000 0.911000
vn 0.092700 0.301300 0.949000
vn 0.085100 0.354500 0.931200
vn -0.058100 0.351500 0.934400
vn -0.072200 0.295200 0.952700
vn -0.035200 0.327200 0.944300
vn -0.005700 0.347200 0.937700
vn 0.205400 -0.595100 -0.776900
vn -0.031700 -0.660100 -0.750500
vn -0.041700 -0.611300 -0.790200
vn 0.275200 -0.518800 -0.809400
vn 0.380100 -0.456900 -0.804200
vn 0.359400 -0.473900 -0.803900
vn 0.293500 -0.496200 -0.817100
vn 0.164500 -0.574400 -0.801800
vn -0.038500 -0.627200 -0.777900
vn -0.275700 -0.642600 -0.714800
vn -0.451900 -0.554000 -0.699200
vn -0.474900 -0.541200 -0.693800
vn -0.364800 -0.581900 -0.726800
vn -0.247200 -0.615100 -0.748700
vn -0.388500 -0.563500 -0.729000
vn -0.198800 -0.422900 -0.884100
vn -0.305200 -0.434200 -0.847500
vn -0.308500 -0.481300 -0.820500
vn -0.199700 -0.490300 -0.848400
vn -0.064200 -0.487900 -0.870500
vn -0.076500 -0.411900 -0.908000
vn -0.082400 -0.372900 -0.924200
vn -0.213400 -0.395200 -0.893500
vn -0.328900 -0.432100 -0.839700
vn 0.047600 -0.398600 -0.915900
vn 0.070400 -0.463600 -0.883200
vn 0.178700 -0.433200 -0.883400
vn 0.159900 -0.388300 -0.907500
vn 0.183900 -0.381400 -0.905900
vn 0.053700 -0.368800 -0.927900
vn 0.114200 -0.530100 -0.840200
vn -0.050000 -0.567700 -0.821700
vn 0.228300 -0.479300 -0.847400
vn -0.217700 -0.562900 -0.797300
vn -0.337500 -0.535100 -0.774400
vn -0.244400 -0.398600 -0.883900
vn -0.374300 -0.462200 -0.803900
vn -0.083500 -0.365800 -0.926900
vn -0.076100 -0.414800 -0.906700
vn -0.303500 -0.464100 -0.832100
vn -0.399500 -0.484600 -0.778100
vn 0.086200 -0.365900 -0.926600
vn 0.241900 -0.401400 -0.883400
vn 0.276600 -0.417900 -0.865400
vn 0.167900 -0.417500 -0.893000
vn -0.827100 -0.353700 0.436700
vn -0.544200 -0.632500 0.551200
vn -0.902100 -0.242200 0.357200
vn -0.399500 -0.484600 -0.778100
vn 0.369200 -0.860500 0.350900
vn 0.776800 -0.501600 0.380700
vn 0.126000 -0.962000 0.242200
vn 0.276600 -0.417900 -0.865400
vn 0.840700 0.537700 -0.063000
vn 0.648800 0.718900 -0.249400
vn 0.929400 0.368100 0.025300
vn 0.380100 -0.456900 -0.804200
vn -0.619400 0.646000 -0.446100
vn -0.816200 0.574600 -0.060600
vn -0.159200 0.685600 -0.710300
vn -0.474900 -0.541200 -0.693800
vn -0.916700 0.364600 0.163300
vn -0.946100 0.182800 0.267400
vn -0.096300 -0.906600 0.410900
vn 0.962400 -0.177100 0.205800
vn 0.992100 -0.055300 0.112800
vn 0.351300 0.741700 -0.571300
vn 0.971200 0.230700 0.060100
vn 0.987300 0.144800 0.064900
vn -0.950400 0.040800 0.308300
vn -0.948100 -0.045900 0.314700
vn -0.938700 -0.131800 0.318500
vn 0.995900 0.059000 0.068800
vt 0.839504 0.118056
vt 0.856743 0.205307
vt 0.741230 0.205307
vt 0.734555 0.106726
vt 0.724541 0.032791
vt 0.813647 0.052618
vt 0.868992 0.081539
vt 0.913398 0.129584
vt 0.940923 0.205307
vt 0.839504 0.292557
vt 0.813647 0.357995
vt 0.724541 0.377822
vt 0.734555 0.303887
vt 0.913398 0.281029
vt 0.868992 0.329074
vt 0.369475 0.299954
vt 0.368286 0.370940
vt 0.245840 0.351447
vt 0.246397 0.288815
vt 0.246768 0.205307
vt 0.370268 0.205307
vt 0.494283 0.205307
vt 0.492822 0.304944
vt 0.490632 0.379672
vt 0.369475 0.110659
vt 0.246397 0.121798
vt 0.245841 0.059166
vt 0.368286 0.039673
vt 0.490632 0.030941
vt 0.492822 0.105669
vt 0.616755 0.103478
vt 0.619174 0.205307
vt 0.613127 0.027106
vt 0.616755 0.307135
vt 0.613126 0.383507
vt 0.123273 0.268175
vt 0.123047 0.315326
vt 0.054743 0.283353
vt 0.030912 0.249131
vt 0.030973 0.205306
vt 0.123423 0.205306
vt 0.123273 0.142438
vt 0.030912 0.161481
vt 0.054744 0.127260
vt 0.123047 0.095287
vt 0.839504 0.118056
vt 0.856743 0.205307
vt 0.968983 0.205307
vt 0.938030 0.133427
vt 0.876123 0.061548
vt 0.805028 0.030806
vt 0.721203 0.008146
vt 0.734555 0.106726
vt 0.741230 0.205307
vt 0.839504 0.292557
vt 0.805028 0.379807
vt 0.876123 0.349065
vt 0.938030 0.277186
vt 0.734555 0.303887
vt 0.721203 0.402467
vt 0.369475 0.299954
vt 0.367890 0.394602
vt 0.489902 0.404581
vt 0.492822 0.304944
vt 0.494283 0.205307
vt 0.370268 0.205307
vt 0.246768 0.205307
vt 0.246397 0.288815
vt 0.245655 0.372324
vt 0.369475 0.110659
vt 0.492822 0.105669
vt 0.489902 0.006032
vt 0.367890 0.016011
vt 0.245655 0.038289
vt 0.246397 0.121798
vt 0.616755 0.103478
vt 0.619174 0.205307
vt 0.611917 0.001649
vt 0.616755 0.307135
vt 0.611917 0.408964
vt 0.123273 0.268175
vt 0.122972 0.331043
vt 0.123423 0.205306
vt 0.000156 0.205306
vt 0.000125 0.242784
vt 0.000064 0.280261
vt 0.123273 0.142438
vt 0.122972 0.079570
vt 0.000064 0.130352
vt 0.000125 0.167829
vt 0.122972 0.331043
vt 0.030806 0.283587
vt 0.245655 0.372324
vt 0.030806 0.283587
vt 0.000125 0.167829
vt 0.030806 0.127026
vt 0.000156 0.205306
vt 0.030806 0.127026
vt 0.805028 0.030806
vt 0.873826 0.071832
vt 0.721203 0.008146
vt 0.873826 0.071832
vt 0.938030 0.277186
vt 0.873826 0.338781
vt 0.968983 0.205307
vt 0.873826 0.338781
vt 0.805028 0.379807
vt 0.721203 0.402467
vt 0.000125 0.242784
vt 0.122972 0.079570
vt 0.245655 0.038289
vt 0.938030 0.133427
vt 0.611917 0.001649
vt 0.489902 0.006032
vt 0.611917 0.408964
vt 0.489902 0.404581
vt 0.367890 0.394602
vt 0.367890 0.016011
f 1/1/1 2/2/2 3/3/3
f 1/1/1 3/3/3 4/4/4
f 1/1/1 4/4/4 5/5/5
f 1/1/1 5/5/5 6/6/6
f 1/1/1 6/6/6 7/7/7
f 1/1/1 7/7/7 8/8/8
f 1/1/1 8/8/8 9/9/9
f 1/1/1 9/9/9 2/2/2
f 10/10/10 11/11/11 12/12/12
f 10/10/10 12/12/12 13/13/13
f 10/10/10 13/13/13 3/3/3
f 10/10/10 3/3/3 2/2/2
f 10/10/10 2/2/2 9/9/9
f 10/10/10 9/9/9 14/14/14
f 10/10/10 14/14/14 15/15/15
f 10/10/10 15/15/15 11/11/11
f 16/16/16 17/17/17 18/18/18
f 16/16/16 18/18/18 19/19/19
f 16/16/16 19/19/19 20/20/20
f 16/16/16 20/20/20 21/21/21
f 16/16/16 21/21/21 22/22/22
f 16/16/16 22/22/22 23/23/23
f 16/16/16 23/23/23 24/24/24
f 16/16/16 24/24/24 17/17/17
f 25/25/25 21/21/21 20/20/20
f 25/25/25 20/20/20 26/26/26
f 25/25/25 26/26/26 27/27/27
f 25/25/25 27/27/27 28/28/28
f 25/25/25 28/28/28 29/29/29
f 25/25/25 29/29/29 30/30/30
f 25/25/25 30/30/30 22/22/22
f 25/25/25 22/22/22 21/21/21
f 31/31/31 32/32/32 22/22/22
f 31/31/31 22/22/22 30/30/30
f 31/31/31 30/30/30 29/29/29
f 31/31/31 29/29/29 33/33/33
f 31/31/31 33/33/33 5/5/5
f 31/31/31 5/5/5 4/4/4
f 31/31/31 4/4/4 3/3/3
f 31/31/31 3/3/3 32/32/32
f 34/34/34 35/35/35 24/24/24
f 34/34/34 24/24/24 23/23/23
f 34/34/34 23/23/23 22/22/22
f 34/34/34 22/22/22 32/32/32
f 34/34/34 32/32/32 3/3/3
f 34/34/34 3/3/3 13/13/13
f 34/34/34 13/13/13 12/12/12
f 34/34/34 12/12/12 35/35/35
f 36/36/36 37/37/37 38/38/38
f 36/36/36 38/38/38 39/39/39
f 36/36/36 39/39/39 40/40/40
f 36/36/36 40/40/40 41/41/41
f 36/36/36 41/41/41 20/20/20
f 36/36/36 20/20/20 19/19/19
f 36/36/36 19/19/19 18/18/18
f 36/36/36 18/18/18 37/37/37
f 42/42/42 41/41/41 40/40/40
f 42/42/42 40/40/40 43/43/43
f 42/42/42 43/43/43 44/44/44
f 42/42/42 44/44/44 45/45/45
f 42/42/42 45/45/45 27/27/27
f 42/42/42 27/27/27 26/26/26
f 42/42/42 26/26/26 20/20/20
f 42/42/42 20/20/20 41/41/41
f 46/46/46 47/47/47 48/48/48
f 46/46/46 48/48/48 49/49/49
f 46/46/46 49/49/49 50/50/50
f 46/46/46 50/50/50 51/51/51
f 46/46/46 51/51/51 52/52/52
f 46/46/46 52/52/52 53/53/53
f 46/46/46 53/53/53 54/54/54
f 46/46/46 54/54/54 47/47/47
f 55/55/55 56/56/56 57/57/57
f 55/55/55 57/57/57 58/58/58
f 55/55/55 58/58/58 48/48/48
f 55/55/55 48/48/48 47/47/47
f 55/55/55 47/47/47 54/54/54
f 55/55/55 54/54/54 59/59/59
f 55/55/55 59/59/59 60/60/60
f 55/55/55 60/60/60 56/56/56
f 61/61/61 62/62/62 63/63/63
f 61/61/61 63/63/63 64/64/64
f 61/61/61 64/64/64 65/65/65
f 61/61/61 65/65/65 66/66/66
f 61/61/61 66/66/66 67/67/67
f 61/61/61 67/67/67 68/68/68
f 61/61/61 68/68/68 69/69/69
f 61/61/61 69/69/69 62/62/62
f 70/70/70 66/66/66 65/65/65
f 70/70/70 65/65/65 71/71/71
f 70/70/70 71/71/71 72/72/72
f 70/70/70 72/72/72 73/73/73
f 70/70/70 73/73/73 74/74/74
f 70/70/70 74/74/74 75/75/75
f 70/70/70 75/75/75 67/67/67
f 70/70/70 67/67/67 66/66/66
f 76/76/76 77/77/77 54/54/54
f 76/76/76 54/54/54 53/53/53
f 76/76/76 53/53/53 52/52/52
f 76/76/76 52/52/52 78/78/78
f 76/76/76 78/78/78 72/72/72
f 76/76/76 72/72/72 71/71/71
f 76/76/76 71/71/71 65/65/65
f 76/76/76 65/65/65 77/77/77
f 79/79/79 80/80/80 60/60/60
f 79/79/79 60/60/60 59/59/59
f 79/79/79 59/59/59 54/54/54
f 79/79/79 54/54/54 77/77/77
f 79/79/79 77/77/77 65/65/65
f 79/79/79 65/65/65 64/64/64
f 79/79/79 64/64/64 63/63/63
f 79/79/79 63/63/63 80/80/80
f 81/81/81 82/82/82 69/69/69
f 81/81/81 69/69/69 68/68/68
f 81/81/81 68/68/68 67/67/67
f 81/81/81 67/67/67 83/83/83
f 81/81/81 83/83/83 84/84/84
f 81/81/81 84/84/84 85/85/85
f 81/81/81 85/85/85 86/86/86
f 81/81/81 86/86/86 82/82/82
f 87/87/87 83/83/83 67/67/67
f 87/87/87 67/67/67 75/75/75
f 87/87/87 75/75/75 74/74/74
f 87/87/87 74/74/74 88/88/88
f 87/87/87 88/88/88 89/89/89
f 87/87/87 89/89/89 90/90/90
f 87/87/87 90/90/90 84/84/84
f 87/87/87 84/84/84 83/83/83
f 91/91/91 92/92/92 38/38/38
f 91/91/91 38/38/38 37/37/37
f 91/91/91 37/37/37 18/18/18
f 91/91/91 18/18/18 93/93/93
f 91/91/91 93/93/93 69/69/69
f 91/91/91 69/69/69 82/82/82
f 91/91/91 82/82/82 94/94/94
f 91/91/91 94/94/94 92/92/92
f 95/95/95 96/96/96 44/44/44
f 95/95/95 44/44/44 43/43/43
f 95/95/95 43/43/43 40/40/40
f 95/95/95 40/40/40 97/97/97
f 95/95/95 97/97/97 84/84/84
f 95/95/95 84/84/84 90/90/90
f 95/95/95 90/90/90 98/98/98
f 95/95/95 98/98/98 96/96/96
f 99/99/99 100/100/100 7/7/7
f 99/99/99 7/7/7 6/6/6
f 99/99/99 6/6/6 5/5/5
f 99/99/99 5/5/5 101/101/101
f 99/99/99 101/101/101 52/52/52
f 99/99/99 52/52/52 51/51/51
f 99/99/99 51/51/51 102/102/102
f 99/99/99 102/102/102 100/100/100
f 103/103/103 104/104/104 15/15/15
f 103/103/103 15/15/15 14/14/14
f 103/103/103 14/14/14 9/9/9
f 103/103/103 9/9/9 105/105/105
f 103/103/103 105/105/105 48/48/48
f 103/103/103 48/48/48 58/58/58
f 103/103/103 58/58/58 106/106/106
f 103/103/103 106/106/106 104/104/104
f 107/107/107 108/108/108 12/12/12
f 107/107/107 12/12/12 11/11/11
f 107/107/107 11/11/11 15/15/15
f 107/107/107 15/15/15 104/104/104
f 107/107/107 104/104/104 106/106/106
f 107/107/107 106/106/106 56/56/56
f 107/107/107 56/56/56 60/60/60
f 107/107/107 60/60/60 108/108/108
f 109/109/109 97/97/97 40/40/40
f 109/109/109 40/40/40 39/39/39
f 109/109/109 39/39/39 38/38/38
f 109/109/109 38/38/38 92/92/92
f 109/109/109 92/92/92 94/94/94
f 109/109/109 94/94/94 85/85/85
f 109/109/109 85/85/85 84/84/84
f 109/109/109 84/84/84 97/97/97
f 110/110/110 111/111/111 27/27/27
f 110/110/110 27/27/27 45/45/45
f 110/110/110 45/45/45 44/44/44
f 110/110/110 44/44/44 96/96/96
f 110/110/110 96/96/96 98/98/98
f 110/110/110 98/98/98 88/88/88
f 110/110/110 88/88/88 74/74/74
f 110/110/110 74/74/74 111/111/111
f 112/112/112 105/105/105 9/9/9
f 112/112/112 9/9/9 8/8/8
f 112/112/112 8/8/8 7/7/7
f 112/112/112 7/7/7 100/100/100
f 112/112/112 100/100/100 102/102/102
f 112/112/112 102/102/102 49/49/49
f 112/112/112 49/49/49 48/48/48
f 112/112/112 48/48/48 105/105/105
f 113/113/113 101/101/101 5/5/5
f 113/113/113 5/5/5 33/33/33
f 113/113/113 33/33/33 29/29/29
f 113/113/113 29/29/29 114/114/114
f 113/113/113 114/114/114 72/72/72
f 113/113/113 72/72/72 78/78/78
f 113/113/113 78/78/78 52/52/52
f 113/113/113 52/52/52 101/101/101
f 115/115/115 116/116/116 24/24/24
f 115/115/115 24/24/24 35/35/35
f 115/115/115 35/35/35 12/12/12
f 115/115/115 12/12/12 108/108/108
f 115/115/115 108/108/108 60/60/60
f 115/115/115 60/60/60 80/80/80
f 115/115/115 80/80/80 63/63/63
f 115/115/115 63/63/63 116/116/116
f 117/117/117 93/93/93 18/18/18
f 117/117/117 18/18/18 17/17/17
f 117/117/117 17/17/17 24/24/24
f 117/117/117 24/24/24 116/116/116
f 117/117/117 116/116/116 63/63/63
f 117/117/117 63/63/63 62/62/62
f 117/117/117 62/62/62 69/69/69
f 117/117/117 69/69/69 93/93/93
f 118/118/118 114/114/114 29/29/29
f 118/118/118 29/29/29 28/28/28
f 118/118/118 28/28/28 27/27/27
f 118/118/118 27/27/27 111/111/111
f 118/118/118 111/111/111 74/74/74
f 118/118/118 74/74/74 73/73/73
f 118/118/118 73/73/73 72/72/72
f 118/118/118 72/72/72 114/114/114
