v -2.418491 0.736236 -1.178378
v -2.416822 0.737166 -1.178192
v -2.416372 0.735690 -1.180228
v -2.418293 0.734761 -1.180183
v -2.419805 0.734113 -1.180351
v -2.419790 0.735495 -1.178862
v -2.419387 0.736388 -1.177865
v -2.418523 0.737248 -1.177050
v -2.417110 0.738190 -1.176648
v -2.415294 0.738028 -1.178969
v -2.414183 0.738638 -1.179900
v -2.413435 0.737683 -1.181530
v -2.414659 0.736798 -1.180856
v -2.415756 0.738800 -1.177563
v -2.414847 0.738934 -1.178706
v -2.412638 0.731304 -1.186309
v -2.411378 0.732139 -1.186728
v -2.410855 0.729859 -1.188183
v -2.411965 0.729116 -1.187801
v -2.413483 0.728173 -1.187388
v -2.414358 0.730241 -1.185852
v -2.415153 0.732213 -1.184174
v -2.413362 0.733335 -1.184665
v -2.412056 0.734224 -1.185126
v -2.416198 0.729308 -1.185650
v -2.415114 0.727351 -1.187218
v -2.416373 0.726765 -1.187161
v -2.417616 0.728642 -1.185573
v -2.418582 0.730566 -1.183918
v -2.417086 0.731247 -1.183976
v -2.417804 0.733081 -1.182101
v -2.415820 0.734034 -1.182261
v -2.419357 0.732429 -1.182107
v -2.414025 0.735200 -1.182801
v -2.412735 0.736142 -1.183333
v -2.411456 0.726781 -1.189210
v -2.410643 0.727354 -1.189533
v -2.410712 0.725797 -1.190169
v -2.411123 0.724966 -1.190217
v -2.411874 0.724456 -1.189948
v -2.412576 0.726064 -1.188873
v -2.413806 0.725464 -1.188775
v -2.412733 0.724063 -1.189919
v -2.413610 0.724173 -1.189633
v -2.414763 0.725044 -1.188771
v -2.418422 0.736096 -1.178251
v -2.416728 0.737038 -1.178069
v -2.417039 0.738092 -1.176559
v -2.418472 0.737141 -1.176958
v -2.419355 0.736307 -1.177796
v -2.419751 0.735385 -1.178766
v -2.419764 0.734008 -1.180250
v -2.418222 0.734627 -1.180051
v -2.416279 0.735567 -1.180099
v -2.415177 0.737916 -1.178852
v -2.414084 0.738561 -1.179815
v -2.414776 0.738874 -1.178643
v -2.415666 0.738714 -1.177477
v -2.414546 0.736688 -1.180731
v -2.413341 0.737608 -1.181439
v -2.412539 0.731215 -1.186157
v -2.411297 0.732077 -1.186616
v -2.411972 0.734157 -1.185020
v -2.413259 0.733239 -1.184521
v -2.415066 0.732108 -1.184026
v -2.414275 0.730144 -1.185696
v -2.413402 0.728082 -1.187227
v -2.411869 0.729033 -1.187644
v -2.410775 0.729801 -1.188067
v -2.416131 0.729202 -1.185492
v -2.417016 0.731133 -1.183825
v -2.418538 0.730476 -1.183804
v -2.417574 0.728559 -1.185454
v -2.416332 0.726687 -1.187039
v -2.415049 0.727251 -1.187055
v -2.417733 0.732957 -1.181960
v -2.415730 0.733919 -1.182122
v -2.419314 0.732332 -1.182000
v -2.413917 0.735096 -1.182667
v -2.412645 0.736071 -1.183234
v -2.411360 0.726702 -1.189052
v -2.410563 0.727299 -1.189417
v -2.412496 0.725975 -1.188711
v -2.411814 0.724390 -1.189826
v -2.411051 0.724907 -1.190098
v -2.410655 0.725755 -1.190082
v -2.413743 0.725366 -1.188611
v -2.414725 0.724967 -1.188646
v -2.413579 0.724116 -1.189541
v -2.412687 0.723990 -1.189795
v -2.410335 0.727522 -1.189590
v -2.410529 0.725382 -1.190455
v -2.410448 0.730082 -1.188259
v -2.410655 0.725755 -1.190082
v -2.412355 0.723563 -1.190245
v -2.413432 0.723755 -1.189918
v -2.411613 0.723891 -1.190252
v -2.413579 0.724116 -1.189541
v -2.420208 0.735197 -1.178980
v -2.419611 0.736373 -1.177766
v -2.420293 0.733849 -1.180362
v -2.419355 0.736307 -1.177796
v -2.415869 0.739018 -1.177057
v -2.414699 0.739127 -1.178675
v -2.417175 0.738487 -1.176095
v -2.414776 0.738874 -1.178643
v -2.413766 0.738809 -1.180173
v -2.412983 0.737947 -1.181715
v -2.410980 0.724335 -1.190499
v -2.415067 0.724869 -1.188714
v -2.416776 0.726534 -1.187088
v -2.418511 0.737538 -1.176568
v -2.419858 0.732168 -1.182061
v -2.419063 0.730298 -1.183848
v -2.412263 0.736426 -1.183467
v -2.411582 0.734492 -1.185233
v -2.410920 0.732391 -1.186819
v -2.418072 0.728382 -1.185495
vn -0.278500 0.745300 -0.605800
vn -0.479900 0.668600 -0.568000
vn -0.469000 0.633500 -0.615300
vn -0.289000 0.701400 -0.651500
vn -0.292700 0.682200 -0.670000
vn -0.286100 0.742500 -0.605700
vn -0.281000 0.781200 -0.557400
vn -0.330900 0.782200 -0.527800
vn -0.493500 0.718500 -0.490000
vn -0.651400 0.536200 -0.536700
vn -0.645400 0.540900 -0.539300
vn -0.609900 0.504400 -0.611200
vn -0.622400 0.514500 -0.589900
vn -0.635300 0.611700 -0.471400
vn -0.666800 0.564900 -0.486000
vn -0.495900 0.406100 -0.767500
vn -0.462800 0.419200 -0.781100
vn -0.450100 0.396300 -0.800200
vn -0.491900 0.376900 -0.784800
vn -0.390900 0.428400 -0.814600
vn -0.404400 0.460600 -0.790100
vn -0.429300 0.522700 -0.736500
vn -0.528900 0.454300 -0.716800
vn -0.502000 0.456500 -0.734500
vn -0.308700 0.511000 -0.802200
vn -0.291100 0.489400 -0.822000
vn -0.331800 0.462500 -0.822100
vn -0.339400 0.488300 -0.803900
vn -0.338700 0.548100 -0.764800
vn -0.318900 0.572000 -0.755600
vn -0.311600 0.643500 -0.699100
vn -0.453100 0.586600 -0.671200
vn -0.320600 0.619200 -0.716800
vn -0.576400 0.495000 -0.650100
vn -0.556700 0.486800 -0.673100
vn -0.508000 0.352200 -0.786000
vn -0.462400 0.369900 -0.805800
vn -0.482700 0.340000 -0.807100
vn -0.506100 0.296100 -0.810000
vn -0.364900 0.368600 -0.854900
vn -0.384400 0.413000 -0.825600
vn -0.263200 0.489500 -0.831400
vn -0.224000 0.454500 -0.862100
vn -0.271100 0.458700 -0.846200
vn -0.305400 0.457800 -0.834900
vn 0.247600 -0.740400 0.624900
vn 0.477100 -0.659100 0.581200
vn 0.464900 -0.621100 0.630900
vn 0.153100 -0.722100 0.674600
vn 0.031700 -0.727900 0.684900
vn 0.058200 -0.730400 0.680500
vn 0.127000 -0.715000 0.687500
vn 0.274300 -0.705700 0.653200
vn 0.469100 -0.633600 0.615200
vn 0.667400 -0.505100 0.547200
vn 0.766000 -0.333400 0.549600
vn 0.777800 -0.309500 0.546900
vn 0.711500 -0.408900 0.571400
vn 0.633500 -0.504300 0.586700
vn 0.721900 -0.381300 0.577400
vn 0.509400 -0.398300 0.762700
vn 0.599600 -0.342800 0.723100
vn 0.623600 -0.374600 0.686100
vn 0.541100 -0.446400 0.712700
vn 0.429200 -0.522500 0.736700
vn 0.404400 -0.460500 0.790200
vn 0.390900 -0.428300 0.814700
vn 0.508200 -0.369400 0.778000
vn 0.617300 -0.326500 0.715700
vn 0.294400 -0.518800 0.802500
vn 0.305300 -0.578500 0.756300
vn 0.198600 -0.612800 0.764800
vn 0.193900 -0.570200 0.798200
vn 0.169900 -0.577300 0.798600
vn 0.275100 -0.500000 0.821100
vn 0.298000 -0.649000 0.700000
vn 0.453100 -0.586600 0.671200
vn 0.176700 -0.671000 0.720100
vn 0.587700 -0.486600 0.646300
vn 0.670300 -0.394200 0.628700
vn 0.534700 -0.353400 0.767500
vn 0.666600 -0.319800 0.673300
vn 0.388400 -0.422400 0.819000
vn 0.405400 -0.462900 0.788300
vn 0.611900 -0.365300 0.701500
vn 0.696000 -0.319700 0.642900
vn 0.246200 -0.515200 0.820900
vn 0.128900 -0.621200 0.772900
vn 0.106100 -0.650500 0.752100
vn 0.200600 -0.596000 0.777500
vn 0.821300 0.242400 -0.516500
vn 0.716900 -0.118800 -0.686900
vn 0.835600 0.360000 -0.414800
vn 0.696000 -0.319700 0.642900
vn 0.099000 -0.841200 -0.531500
vn -0.436100 -0.765000 -0.473800
vn 0.371300 -0.811100 -0.451800
vn 0.106100 -0.650500 0.752100
vn -0.980400 -0.031400 0.194500
vn -0.890700 0.187600 0.414100
vn -0.976700 -0.202300 0.071200
vn 0.031700 -0.727900 0.684900
vn 0.236700 0.785200 0.572200
vn 0.387600 0.904500 0.177600
vn -0.134100 0.517900 0.844800
vn 0.777800 -0.309500 0.546900
vn 0.552500 0.828700 -0.089100
vn 0.659200 0.715500 -0.231200
vn 0.505900 -0.613200 -0.606600
vn -0.740300 -0.632800 -0.227000
vn -0.816700 -0.566700 -0.108800
vn -0.609900 0.310600 0.729100
vn -0.943700 -0.330800 0.006900
vn -0.912400 -0.408900 -0.017000
vn 0.732600 0.609300 -0.303400
vn 0.776000 0.537600 -0.329700
vn 0.813300 0.462800 -0.352700
vn -0.874400 -0.483600 -0.040400
vt 0.839504 0.118056
vt 0.856743 0.205307
vt 0.741230 0.205307
vt 0.734555 0.106726
vt 0.724541 0.032791
vt 0.813647 0.052618
vt 0.868992 0.081539
vt 0.913398 0.129584
vt 0.940923 0.205307
vt 0.839504 0.292557
vt 0.813647 0.357995
vt 0.724541 0.377822
vt 0.734555 0.303887
vt 0.913398 0.281029
vt 0.868992 0.329074
vt 0.369475 0.299954
vt 0.368286 0.370940
vt 0.245840 0.351447
vt 0.246397 0.288815
vt 0.246768 0.205307
vt 0.370268 0.205307
vt 0.494283 0.205307
vt 0.492822 0.304944
vt 0.490632 0.379672
vt 0.369475 0.110659
vt 0.246397 0.121798
vt 0.245841 0.059166
vt 0.368286 0.039673
vt 0.490632 0.030941
vt 0.492822 0.105669
vt 0.616755 0.103478
vt 0.619174 0.205307
vt 0.613127 0.027106
vt 0.616755 0.307135
vt 0.613126 0.383507
vt 0.123273 0.268175
vt 0.123047 0.315326
vt 0.054743 0.283353
vt 0.030912 0.249131
vt 0.030973 0.205306
vt 0.123423 0.205306
vt 0.123273 0.142438
vt 0.030912 0.161481
vt 0.054744 0.127260
vt 0.123047 0.095287
vt 0.839504 0.118056
vt 0.856743 0.205307
vt 0.968983 0.205307
vt 0.938030 0.133427
vt 0.876123 0.061548
vt 0.805028 0.030806
vt 0.721203 0.008146
vt 0.734555 0.106726
vt 0.741230 0.205307
vt 0.839504 0.292557
vt 0.805028 0.379807
vt 0.876123 0.349065
vt 0.938030 0.277186
vt 0.734555 0.303887
vt 0.721203 0.402467
vt 0.369475 0.299954
vt 0.367890 0.394602
vt 0.489902 0.404581
vt 0.492822 0.304944
vt 0.494283 0.205307
vt 0.370268 0.205307
vt 0.246768 0.205307
vt 0.246397 0.288815
vt 0.245655 0.372324
vt 0.369475 0.110659
vt 0.492822 0.105669
vt 0.489902 0.006032
vt 0.367890 0.016011
vt 0.245655 0.038289
vt 0.246397 0.121798
vt 0.616755 0.103478
vt 0.619174 0.205307
vt 0.611917 0.001649
vt 0.616755 0.307135
vt 0.611917 0.408964
vt 0.123273 0.268175
vt 0.122972 0.331043
vt 0.123423 0.205306
vt 0.000156 0.205306
vt 0.000125 0.242784
vt 0.000064 0.280261
vt 0.123273 0.142438
vt 0.122972 0.079570
vt 0.000064 0.130352
vt 0.000125 0.167829
vt 0.122972 0.331043
vt 0.030806 0.283587
vt 0.245655 0.372324
vt 0.030806 0.283587
vt 0.000125 0.167829
vt 0.030806 0.127026
vt 0.000156 0.205306
vt 0.030806 0.127026
vt 0.805028 0.030806
vt 0.873826 0.071832
vt 0.721203 0.008146
vt 0.873826 0.071832
vt 0.938030 0.277186
vt 0.873826 0.338781
vt 0.968983 0.205307
vt 0.873826 0.338781
vt 0.805028 0.379807
vt 0.721203 0.402467
vt 0.000125 0.242784
vt 0.122972 0.079570
vt 0.245655 0.038289
vt 0.938030 0.133427
vt 0.611917 0.001649
vt 0.489902 0.006032
vt 0.611917 0.408964
vt 0.489902 0.404581
vt 0.367890 0.394602
vt 0.367890 0.016011
f 1/1/1 2/2/2 3/3/3
f 1/1/1 3/3/3 4/4/4
f 1/1/1 4/4/4 5/5/5
f 1/1/1 5/5/5 6/6/6
f 1/1/1 6/6/6 7/7/7
f 1/1/1 7/7/7 8/8/8
f 1/1/1 8/8/8 9/9/9
f 1/1/1 9/9/9 2/2/2
f 10/10/10 11/11/11 12/12/12
f 10/10/10 12/12/12 13/13/13
f 10/10/10 13/13/13 3/3/3
f 10/10/10 3/3/3 2/2/2
f 10/10/10 2/2/2 9/9/9
f 10/10/10 9/9/9 14/14/14
f 10/10/10 14/14/14 15/15/15
f 10/10/10 15/15/15 11/11/11
f 16/16/16 17/17/17 18/18/18
f 16/16/16 18/18/18 19/19/19
f 16/16/16 19/19/19 20/20/20
f 16/16/16 20/20/20 21/21/21
f 16/16/16 21/21/21 22/22/22
f 16/16/16 22/22/22 23/23/23
f 16/16/16 23/23/23 24/24/24
f 16/16/16 24/24/24 17/17/17
f 25/25/25 21/21/21 20/20/20
f 25/25/25 20/20/20 26/26/26
f 25/25/25 26/26/26 27/27/27
f 25/25/25 27/27/27 28/28/28
f 25/25/25 28/28/28 29/29/29
f 25/25/25 29/29/29 30/30/30
f 25/25/25 30/30/30 22/22/22
f 25/25/25 22/22/22 21/21/21
f 31/31/31 32/32/32 22/22/22
f 31/31/31 22/22/22 30/30/30
f 31/31/31 30/30/30 29/29/29
f 31/31/31 29/29/29 33/33/33
f 31/31/31 33/33/33 5/5/5
f 31/31/31 5/5/5 4/4/4
f 31/31/31 4/4/4 3/3/3
f 31/31/31 3/3/3 32/32/32
f 34/34/34 35/35/35 24/24/24
f 34/34/34 24/24/24 23/23/23
f 34/34/34 23/23/23 22/22/22
f 34/34/34 22/22/22 32/32/32
f 34/34/34 32/32/32 3/3/3
f 34/34/34 3/3/3 13/13/13
f 34/34/34 13/13/13 12/12/12
f 34/34/34 12/12/12 35/35/35
f 36/36/36 37/37/37 38/38/38
f 36/36/36 38/38/38 39/39/39
f 36/36/36 39/39/39 40/40/40
f 36/36/36 40/40/40 41/41/41
f 36/36/36 41/41/41 20/20/20
f 36/36/36 20/20/20 19/19/19
f 36/36/36 19/19/19 18/18/18
f 36/36/36 18/18/18 37/37/37
f 42/42/42 41/41/41 40/40/40
f 42/42/42 40/40/40 43/43/43
f 42/42/42 43/43/43 44/44/44
f 42/42/42 44/44/44 45/45/45
f 42/42/42 45/45/45 27/27/27
f 42/42/42 27/27/27 26/26/26
f 42/42/42 26/26/26 20/20/20
f 42/42/42 20/20/20 41/41/41
f 46/46/46 47/47/47 48/48/48
f 46/46/46 48/48/48 49/49/49
f 46/46/46 49/49/49 50/50/50
f 46/46/46 50/50/50 51/51/51
f 46/46/46 51/51/51 52/52/52
f 46/46/46 52/52/52 53/53/53
f 46/46/46 53/53/53 54/54/54
f 46/46/46 54/54/54 47/47/47
f 55/55/55 56/56/56 57/57/57
f 55/55/55 57/57/57 58/58/58
f 55/55/55 58/58/58 48/48/48
f 55/55/55 48/48/48 47/47/47
f 55/55/55 47/47/47 54/54/54
f 55/55/55 54/54/54 59/59/59
f 55/55/55 59/59/59 60/60/60
f 55/55/55 60/60/60 56/56/56
f 61/61/61 62/62/62 63/63/63
f 61/61/61 63/63/63 64/64/64
f 61/61/61 64/64/64 65/65/65
f 61/61/61 65/65/65 66/66/66
f 61/61/61 66/66/66 67/67/67
f 61/61/61 67/67/67 68/68/68
f 61/61/61 68/68/68 69/69/69
f 61/61/61 69/69/69 62/62/62
f 70/70/70 66/66/66 65/65/65
f 70/70/70 65/65/65 71/71/71
f 70/70/70 71/71/71 72/72/72
f 70/70/70 72/72/72 73/73/73
f 70/70/70 73/73/73 74/74/74
f 70/70/70 74/74/74 75/75/75
f 70/70/70 75/75/75 67/67/67
f 70/70/70 67/67/67 66/66/66
f 76/76/76 77/77/77 54/54/54
f 76/76/76 54/54/54 53/53/53
f 76/76/76 53/53/53 52/52/52
f 76/76/76 52/52/52 78/78/78
f 76/76/76 78/78/78 72/72/72
f 76/76/76 72/72/72 71/71/71
f 76/76/76 71/71/71 65/65/65
f 76/76/76 65/65/65 77/77/77
f 79/79/79 80/80/80 60/60/60
f 79/79/79 60/60/60 59/59/59
f 79/79/79 59/59/59 54/54/54
f 79/79/79 54/54/54 77/77/77
f 79/79/79 77/77/77 65/65/65
f 79/79/79 65/65/65 64/64/64
f 79/79/79 64/64/64 63/63/63
f 79/79/79 63/63/63 80/80/80
f 81/81/81 82/82/82 69/69/69
f 81/81/81 69/69/69 68/68/68
f 81/81/81 68/68/68 67/67/67
f 81/81/81 67/67/67 83/83/83
f 81/81/81 83/83/83 84/84/84
f 81/81/81 84/84/84 85/85/85
f 81/81/81 85/85/85 86/86/86
f 81/81/81 86/86/86 82/82/82
f 87/87/87 83/83/83 67/67/67
f 87/87/87 67/67/67 75/75/75
f 87/87/87 75/75/75 74/74/74
f 87/87/87 74/74/74 88/88/88
f 87/87/87 88/88/88 89/89/89
f 87/87/87 89/89/89 90/90/90
f 87/87/87 90/90/90 84/84/84
f 87/87/87 84/84/84 83/83/83
f 91/91/91 92/92/92 38/38/38
f 91/91/91 38/38/38 37/37/37
f 91/91/91 37/37/37 18/18/18
f 91/91/91 18/18/18 93/93/93
f 91/91/91 93/93/93 69/69/69
f 91/91/91 69/69/69 82/82/82
f 91/91/91 82/82/82 94/94/94
f 91/91/91 94/94/94 92/92/92
f 95/95/95 96/96/96 44/44/44
f 95/95/95 44/44/44 43/43/43
f 95/95/95 43/43/43 40/40/40
f 95/95/95 40/40/40 97/97/97
f 95/95/95 97/97/97 84/84/84
f 95/95/95 84/84/84 90/90/90
f 95/95/95 90/90/90 98/98/98
f 95/95/95 98/98/98 96/96/96
f 99/99/99 100/100/100 7/7/7
f 99/99/99 7/7/7 6/6/6
f 99/99/99 6/6/6 5/5/5
f 99/99/99 5/5/5 101/101/101
f 99/99/99 101/101/101 52/52/52
f 99/99/99 52/52/52 51/51/51
f 99/99/99 51/51/51 102/102/102
f 99/99/99 102/102/102 100/100/100
f 103/103/103 104/104/104 15/15/15
f 103/103/103 15/15/15 14/14/14
f 103/103/103 14/14/14 9/9/9
f 103/103/103 9/9/9 105/105/105
f 103/103/103 105/105/105 48/48/48
f 103/103/103 48/48/48 58/58/58
f 103/103/103 58/58/58 106/106/106
f 103/103/103 106/106/106 104/104/104
f 107/107/107 108/108/108 12/12/12
f 107/107/107 12/12/12 11/11/11
f 107/107/107 11/11/11 15/15/15
f 107/107/107 15/15/15 104/104/104
f 107/107/107 104/104/104 106/106/106
f 107/107/107 106/106/106 56/56/56
f 107/107/107 56/56/56 60/60/60
f 107/107/107 60/60/60 108/108/108
f 109/109/109 97/97/97 40/40/40
f 109/109/109 40/40/40 39/39/39
f 109/109/109 39/39/39 38/38/38
f 109/109/109 38/38/38 92/92/92
f 109/109/109 92/92/92 94/94/94
f 109/109/109 94/94/94 85/85/85
f 109/109/109 85/85/85 84/84/84
f 109/109/109 84/84/84 97/97/97
f 110/110/110 111/111/111 27/27/27
f 110/110/110 27/27/27 45/45/45
f 110/110/110 45/45/45 44/44/44
f 110/110/110 44/44/44 96/96/96
f 110/110/110 96/96/96 98/98/98
f 110/110/110 98/98/98 88/88/88
f 110/110/110 88/88/88 74/74/74
f 110/110/110 74/74/74 111/111/111
f 112/112/112 105/105/105 9/9/9
f 112/112/112 9/9/9 8/8/8
f 112/112/112 8/8/8 7/7/7
f 112/112/112 7/7/7 100/100/100
f 112/112/112 100/100/100 102/102/102
f 112/112/112 102/102/102 49/49/49
f 112/112/112 49/49/49 48/48/48
f 112/112/112 48/48/48 105/105/105
f 113/113/113 101/101/101 5/5/5
f 113/113/113 5/5/5 33/33/33
f 113/113/113 33/33/33 29/29/29
f 113/113/113 29/29/29 114/114/114
f 113/113/113 114/114/114 72/72/72
f 113/113/113 72/72/72 78/78/78
f 113/113/113 78/78/78 52/52/52
f 113/113/113 52/52/52 101/101/101
f 115/115/115 116/116/116 24/24/24
f 115/115/115 24/24/24 35/35/35
f 115/115/115 35/35/35 12/12/12
f 115/115/115 12/12/12 108/108/108
f 115/115/115 108/108/108 60/60/60
f 115/115/115 60/60/60 80/80/80
f 115/115/115 80/80/80 63/63/63
f 115/115/115 63/63/63 116/116/116
f 117/117/117 93/93/93 18/18/18
f 117/117/117 18/18/18 17/17/17
f 117/117/117 17/17/17 24/24/24
f 117/117/117 24/24/24 116/116/116
f 117/117/117 116/116/116 63/63/63
f 117/117/117 63/63/63 62/62/62
f 117/117/117 62/62/62 69/69/69
f 117/117/117 69/69/69 93/93/93
f 118/118/118 114/114/114 29/29/29
f 118/118/118 29/29/29 28/28/28
f 118/118/118 28/28/28 27/27/27
f 118/118/118 27/27/27 111/111/111
f 118/118/118 111/111/111 74/74/74
f 118/118/118 74/74/74 73/73/73
f 118/118/118 73/73/73 72/72/72
f 118/118/118 72/72/72 114/114/114
