v -2.382096 0.773666 -1.246638
v -2.384350 0.772972 -1.248821
v -2.386544 0.772638 -1.245165
v -2.383731 0.773374 -1.243090
v -2.381749 0.774217 -1.241351
v -2.380683 0.774473 -1.244570
v -2.380466 0.774241 -1.246888
v -2.381019 0.773694 -1.249217
v -2.382725 0.773070 -1.251503
v -2.387384 0.773146 -1.249861
v -2.389958 0.773561 -1.250222
v -2.392285 0.773181 -1.247771
v -2.389741 0.772783 -1.246753
v -2.385596 0.773244 -1.252006
v -2.387977 0.773503 -1.251465
v -2.396184 0.769426 -1.235502
v -2.398498 0.769520 -1.236738
v -2.399940 0.767742 -1.232735
v -2.397885 0.767641 -1.231650
v -2.395210 0.767676 -1.230144
v -2.393166 0.769481 -1.233790
v -2.391049 0.770986 -1.237506
v -2.394212 0.770959 -1.239292
v -2.396645 0.771105 -1.240575
v -2.390294 0.770005 -1.231913
v -2.392677 0.768153 -1.228476
v -2.390812 0.768639 -1.227173
v -2.388179 0.770535 -1.230450
v -2.385850 0.772166 -1.233997
v -2.388052 0.771565 -1.235538
v -2.385790 0.772681 -1.239327
v -2.388810 0.772007 -1.241346
v -2.383589 0.773421 -1.237728
v -2.392041 0.772066 -1.243136
v -2.394544 0.772344 -1.244404
v -2.399245 0.765778 -1.227620
v -2.400803 0.765920 -1.228405
v -2.400872 0.764803 -1.225819
v -2.400130 0.764312 -1.224545
v -2.398728 0.764227 -1.223813
v -2.397232 0.765752 -1.226515
v -2.395358 0.766160 -1.225251
v -2.397466 0.764574 -1.222922
v -2.396080 0.765274 -1.222898
v -2.393987 0.766590 -1.224252
v -2.382013 0.773341 -1.246633
v -2.384306 0.772639 -1.248839
v -2.382694 0.772820 -1.251512
v -2.380957 0.773450 -1.249207
v -2.380411 0.774063 -1.246877
v -2.380601 0.774234 -1.244554
v -2.381667 0.773978 -1.241347
v -2.383645 0.773049 -1.243099
v -2.386494 0.772307 -1.245195
v -2.387380 0.772813 -1.249904
v -2.389975 0.773312 -1.250266
v -2.387985 0.773318 -1.251493
v -2.385598 0.772994 -1.252035
v -2.389726 0.772451 -1.246805
v -2.392291 0.772934 -1.247821
v -2.396127 0.769108 -1.235601
v -2.398469 0.769282 -1.236820
v -2.396624 0.770863 -1.240646
v -2.394166 0.770636 -1.239376
v -2.390976 0.770664 -1.237574
v -2.393083 0.769165 -1.233874
v -2.395122 0.767364 -1.230239
v -2.397822 0.767328 -1.231760
v -2.399906 0.767507 -1.232825
v -2.390187 0.769692 -1.231981
v -2.387952 0.771247 -1.235589
v -2.385762 0.771931 -1.234027
v -2.388086 0.770303 -1.230493
v -2.390715 0.768410 -1.227224
v -2.392563 0.767845 -1.228555
v -2.385698 0.772358 -1.239356
v -2.388748 0.771680 -1.241394
v -2.383504 0.773183 -1.237741
v -2.392010 0.771738 -1.243203
v -2.394536 0.772098 -1.244463
v -2.399182 0.765466 -1.227735
v -2.400770 0.765686 -1.228499
v -2.397141 0.765443 -1.226614
v -2.398660 0.763995 -1.223888
v -2.400084 0.764079 -1.224633
v -2.400844 0.764630 -1.225887
v -2.395241 0.765854 -1.225333
v -2.393886 0.766363 -1.224305
v -2.396008 0.765106 -1.222940
v -2.397377 0.764345 -1.222983
v -2.401311 0.765863 -1.228711
v -2.401270 0.764416 -1.225114
v -2.400612 0.767671 -1.233139
v -2.400844 0.764630 -1.225887
v -2.398129 0.763943 -1.222173
v -2.396468 0.764888 -1.222188
v -2.399197 0.763616 -1.222946
v -2.396008 0.765106 -1.222940
v -2.380171 0.774637 -1.243871
v -2.380071 0.774351 -1.246857
v -2.381048 0.774393 -1.240767
v -2.380411 0.774063 -1.246877
v -2.385002 0.773165 -1.252733
v -2.388197 0.773552 -1.251809
v -2.382170 0.772991 -1.252400
v -2.387985 0.773318 -1.251493
v -2.390828 0.773589 -1.250364
v -2.393140 0.773204 -1.248135
v -2.400404 0.763720 -1.223559
v -2.393482 0.766633 -1.223940
v -2.390145 0.768700 -1.226760
v -2.380632 0.773595 -1.250070
v -2.382814 0.773563 -1.237199
v -2.385074 0.772263 -1.233495
v -2.395378 0.772328 -1.244855
v -2.397449 0.771046 -1.241036
v -2.399260 0.769446 -1.237189
v -2.387430 0.770609 -1.229980
vn -0.295200 0.951500 -0.086600
vn -0.102700 0.994700 0.008000
vn -0.133300 0.989300 0.059100
vn -0.306700 0.951500 -0.023300
vn -0.311700 0.950200 0.002900
vn -0.288900 0.953800 -0.082100
vn -0.270600 0.952200 -0.141700
vn -0.214300 0.965900 -0.145200
vn -0.054100 0.995900 -0.071900
vn 0.073300 0.987700 0.137900
vn 0.066200 0.988700 0.134200
vn 0.001800 0.981000 0.194000
vn 0.022600 0.983900 0.177300
vn 0.086600 0.995500 0.038100
vn 0.110800 0.989700 0.090700
vn -0.162700 0.931100 0.326300
vn -0.198800 0.928000 0.314900
vn -0.216000 0.915500 0.339400
vn -0.170800 0.918300 0.357000
vn -0.276400 0.910800 0.306600
vn -0.257100 0.927200 0.272300
vn -0.217000 0.955000 0.202000
vn -0.115300 0.955800 0.270200
vn -0.147400 0.951100 0.271200
vn -0.347700 0.912900 0.213600
vn -0.369200 0.898800 0.236100
vn -0.333000 0.904000 0.268100
vn -0.320900 0.916000 0.240500
vn -0.308700 0.935300 0.172900
vn -0.322900 0.935400 0.143800
vn -0.307500 0.949900 0.054900
vn -0.170800 0.977600 0.122700
vn -0.306800 0.947800 0.086200
vn -0.045900 0.975700 0.214300
vn -0.073500 0.970800 0.228300
vn -0.154500 0.911700 0.380600
vn -0.205000 0.907800 0.365800
vn -0.184400 0.900100 0.394600
vn -0.159900 0.885900 0.435500
vn -0.309700 0.877200 0.366800
vn -0.285300 0.902500 0.322600
vn -0.396400 0.887900 0.233200
vn -0.438700 0.858500 0.265600
vn -0.393700 0.879500 0.267100
vn -0.360200 0.892500 0.271300
vn 0.329700 -0.940600 0.080800
vn 0.111100 -0.993500 -0.022100
vn 0.143600 -0.986700 -0.076500
vn 0.429300 -0.900700 0.065900
vn 0.530200 -0.841800 0.101100
vn 0.507600 -0.856000 0.097500
vn 0.456000 -0.887900 0.061000
vn 0.319900 -0.947000 0.029900
vn 0.133200 -0.989300 -0.059100
vn -0.085100 -0.981400 -0.172000
vn -0.191700 -0.924800 -0.328700
vn -0.207000 -0.914300 -0.348100
vn -0.122400 -0.955000 -0.270300
vn -0.035000 -0.981800 -0.186300
vn -0.131800 -0.945600 -0.297200
vn 0.147900 -0.931200 -0.333200
vn 0.043900 -0.925100 -0.377100
vn 0.008800 -0.940900 -0.338600
vn 0.102000 -0.955400 -0.277300
vn 0.217000 -0.955000 -0.202100
vn 0.257200 -0.927200 -0.272500
vn 0.276400 -0.910800 -0.306700
vn 0.152700 -0.919100 -0.363200
vn 0.022700 -0.920600 -0.389800
vn 0.360300 -0.910300 -0.203700
vn 0.335000 -0.932400 -0.135300
vn 0.428800 -0.899600 -0.082600
vn 0.444800 -0.885700 -0.132800
vn 0.464900 -0.877200 -0.120300
vn 0.382900 -0.896500 -0.222800
vn 0.319500 -0.946400 -0.047200
vn 0.170800 -0.977600 -0.122700
vn 0.429300 -0.903100 -0.006100
vn 0.033200 -0.974500 -0.221700
vn -0.058400 -0.951000 -0.303400
vn 0.122900 -0.918200 -0.376600
vn -0.042200 -0.922400 -0.383800
vn 0.279900 -0.907600 -0.312900
vn 0.255700 -0.928300 -0.269800
vn 0.025300 -0.935900 -0.351200
vn -0.083500 -0.923500 -0.374300
vn 0.408000 -0.890200 -0.202900
vn 0.488900 -0.870200 -0.060200
vn 0.499200 -0.866200 -0.019300
vn 0.431800 -0.896000 -0.103500
vn -0.992800 -0.040100 -0.112600
vn -0.948500 -0.133600 0.287200
vn -0.964000 -0.021700 -0.265100
vn -0.083500 -0.923500 -0.374300
vn -0.242300 -0.342100 0.907900
vn 0.190500 -0.021800 0.981400
vn -0.408900 -0.514600 0.753600
vn 0.499200 -0.866200 -0.019300
vn 0.879200 0.430200 0.204700
vn 0.902900 0.413600 -0.117300
vn 0.833400 0.377400 0.403700
vn 0.530200 -0.841800 0.101100
vn 0.019000 0.096700 -0.995100
vn -0.360100 0.289300 -0.886900
vn 0.521000 -0.008900 -0.853500
vn -0.207000 -0.914300 -0.348100
vn -0.636000 0.281200 -0.718600
vn -0.783800 0.218400 -0.581300
vn -0.644200 -0.381500 0.662800
vn 0.550200 0.111500 0.827600
vn 0.669200 0.138800 0.730000
vn 0.855900 0.178900 -0.485200
vn 0.792700 0.306600 0.526900
vn 0.768700 0.249700 0.588800
vn -0.864200 0.143600 -0.482300
vn -0.899800 0.085600 -0.427700
vn -0.928200 0.027400 -0.371100
vn 0.739600 0.191400 0.645200
vt 0.839504 0.118056
vt 0.856743 0.205307
vt 0.741230 0.205307
vt 0.734555 0.106726
vt 0.724541 0.032791
vt 0.813647 0.052618
vt 0.868992 0.081539
vt 0.913398 0.129584
vt 0.940923 0.205307
vt 0.839504 0.292557
vt 0.813647 0.357995
vt 0.724541 0.377822
vt 0.734555 0.303887
vt 0.913398 0.281029
vt 0.868992 0.329074
vt 0.369475 0.299954
vt 0.368286 0.370940
vt 0.245840 0.351447
vt 0.246397 0.288815
vt 0.246768 0.205307
vt 0.370268 0.205307
vt 0.494283 0.205307
vt 0.492822 0.304944
vt 0.490632 0.379672
vt 0.369475 0.110659
vt 0.246397 0.121798
vt 0.245841 0.059166
vt 0.368286 0.039673
vt 0.490632 0.030941
vt 0.492822 0.105669
vt 0.616755 0.103478
vt 0.619174 0.205307
vt 0.613127 0.027106
vt 0.616755 0.307135
vt 0.613126 0.383507
vt 0.123273 0.268175
vt 0.123047 0.315326
vt 0.054743 0.283353
vt 0.030912 0.249131
vt 0.030973 0.205306
vt 0.123423 0.205306
vt 0.123273 0.142438
vt 0.030912 0.161481
vt 0.054744 0.127260
vt 0.123047 0.095287
vt 0.839504 0.118056
vt 0.856743 0.205307
vt 0.968983 0.205307
vt 0.938030 0.133427
vt 0.876123 0.061548
vt 0.805028 0.030806
vt 0.721203 0.008146
vt 0.734555 0.106726
vt 0.741230 0.205307
vt 0.839504 0.292557
vt 0.805028 0.379807
vt 0.876123 0.349065
vt 0.938030 0.277186
vt 0.734555 0.303887
vt 0.721203 0.402467
vt 0.369475 0.299954
vt 0.367890 0.394602
vt 0.489902 0.404581
vt 0.492822 0.304944
vt 0.494283 0.205307
vt 0.370268 0.205307
vt 0.246768 0.205307
vt 0.246397 0.288815
vt 0.245655 0.372324
vt 0.369475 0.110659
vt 0.492822 0.105669
vt 0.489902 0.006032
vt 0.367890 0.016011
vt 0.245655 0.038289
vt 0.246397 0.121798
vt 0.616755 0.103478
vt 0.619174 0.205307
vt 0.611917 0.001649
vt 0.616755 0.307135
vt 0.611917 0.408964
vt 0.123273 0.268175
vt 0.122972 0.331043
vt 0.123423 0.205306
vt 0.000156 0.205306
vt 0.000125 0.242784
vt 0.000064 0.280261
vt 0.123273 0.142438
vt 0.122972 0.079570
vt 0.000064 0.130352
vt 0.000125 0.167829
vt 0.122972 0.331043
vt 0.030806 0.283587
vt 0.245655 0.372324
vt 0.030806 0.283587
vt 0.000125 0.167829
vt 0.030806 0.127026
vt 0.000156 0.205306
vt 0.030806 0.127026
vt 0.805028 0.030806
vt 0.873826 0.071832
vt 0.721203 0.008146
vt 0.873826 0.071832
vt 0.938030 0.277186
vt 0.873826 0.338781
vt 0.968983 0.205307
vt 0.873826 0.338781
vt 0.805028 0.379807
vt 0.721203 0.402467
vt 0.000125 0.242784
vt 0.122972 0.079570
vt 0.245655 0.038289
vt 0.938030 0.133427
vt 0.611917 0.001649
vt 0.489902 0.006032
vt 0.611917 0.408964
vt 0.489902 0.404581
vt 0.367890 0.394602
vt 0.367890 0.016011
f 1/1/1 2/2/2 3/3/3
f 1/1/1 3/3/3 4/4/4
f 1/1/1 4/4/4 5/5/5
f 1/1/1 5/5/5 6/6/6
f 1/1/1 6/6/6 7/7/7
f 1/1/1 7/7/7 8/8/8
f 1/1/1 8/8/8 9/9/9
f 1/1/1 9/9/9 2/2/2
f 10/10/10 11/11/11 12/12/12
f 10/10/10 12/12/12 13/13/13
f 10/10/10 13/13/13 3/3/3
f 10/10/10 3/3/3 2/2/2
f 10/10/10 2/2/2 9/9/9
f 10/10/10 9/9/9 14/14/14
f 10/10/10 14/14/14 15/15/15
f 10/10/10 15/15/15 11/11/11
f 16/16/16 17/17/17 18/18/18
f 16/16/16 18/18/18 19/19/19
f 16/16/16 19/19/19 20/20/20
f 16/16/16 20/20/20 21/21/21
f 16/16/16 21/21/21 22/22/22
f 16/16/16 22/22/22 23/23/23
f 16/16/16 23/23/23 24/24/24
f 16/16/16 24/24/24 17/17/17
f 25/25/25 21/21/21 20/20/20
f 25/25/25 20/20/20 26/26/26
f 25/25/25 26/26/26 27/27/27
f 25/25/25 27/27/27 28/28/28
f 25/25/25 28/28/28 29/29/29
f 25/25/25 29/29/29 30/30/30
f 25/25/25 30/30/30 22/22/22
f 25/25/25 22/22/22 21/21/21
f 31/31/31 32/32/32 22/22/22
f 31/31/31 22/22/22 30/30/30
f 31/31/31 30/30/30 29/29/29
f 31/31/31 29/29/29 33/33/33
f 31/31/31 33/33/33 5/5/5
f 31/31/31 5/5/5 4/4/4
f 31/31/31 4/4/4 3/3/3
f 31/31/31 3/3/3 32/32/32
f 34/34/34 35/35/35 24/24/24
f 34/34/34 24/24/24 23/23/23
f 34/34/34 23/23/23 22/22/22
f 34/34/34 22/22/22 32/32/32
f 34/34/34 32/32/32 3/3/3
f 34/34/34 3/3/3 13/13/13
f 34/34/34 13/13/13 12/12/12
f 34/34/34 12/12/12 35/35/35
f 36/36/36 37/37/37 38/38/38
f 36/36/36 38/38/38 39/39/39
f 36/36/36 39/39/39 40/40/40
f 36/36/36 40/40/40 41/41/41
f 36/36/36 41/41/41 20/20/20
f 36/36/36 20/20/20 19/19/19
f 36/36/36 19/19/19 18/18/18
f 36/36/36 18/18/18 37/37/37
f 42/42/42 41/41/41 40/40/40
f 42/42/42 40/40/40 43/43/43
f 42/42/42 43/43/43 44/44/44
f 42/42/42 44/44/44 45/45/45
f 42/42/42 45/45/45 27/27/27
f 42/42/42 27/27/27 26/26/26
f 42/42/42 26/26/26 20/20/20
f 42/42/42 20/20/20 41/41/41
f 46/46/46 47/47/47 48/48/48
f 46/46/46 48/48/48 49/49/49
f 46/46/46 49/49/49 50/50/50
f 46/46/46 50/50/50 51/51/51
f 46/46/46 51/51/51 52/52/52
f 46/46/46 52/52/52 53/53/53
f 46/46/46 53/53/53 54/54/54
f 46/46/46 54/54/54 47/47/47
f 55/55/55 56/56/56 57/57/57
f 55/55/55 57/57/57 58/58/58
f 55/55/55 58/58/58 48/48/48
f 55/55/55 48/48/48 47/47/47
f 55/55/55 47/47/47 54/54/54
f 55/55/55 54/54/54 59/59/59
f 55/55/55 59/59/59 60/60/60
f 55/55/55 60/60/60 56/56/56
f 61/61/61 62/62/62 63/63/63
f 61/61/61 63/63/63 64/64/64
f 61/61/61 64/64/64 65/65/65
f 61/61/61 65/65/65 66/66/66
f 61/61/61 66/66/66 67/67/67
f 61/61/61 67/67/67 68/68/68
f 61/61/61 68/68/68 69/69/69
f 61/61/61 69/69/69 62/62/62
f 70/70/70 66/66/66 65/65/65
f 70/70/70 65/65/65 71/71/71
f 70/70/70 71/71/71 72/72/72
f 70/70/70 72/72/72 73/73/73
f 70/70/70 73/73/73 74/74/74
f 70/70/70 74/74/74 75/75/75
f 70/70/70 75/75/75 67/67/67
f 70/70/70 67/67/67 66/66/66
f 76/76/76 77/77/77 54/54/54
f 76/76/76 54/54/54 53/53/53
f 76/76/76 53/53/53 52/52/52
f 76/76/76 52/52/52 78/78/78
f 76/76/76 78/78/78 72/72/72
f 76/76/76 72/72/72 71/71/71
f 76/76/76 71/71/71 65/65/65
f 76/76/76 65/65/65 77/77/77
f 79/79/79 80/80/80 60/60/60
f 79/79/79 60/60/60 59/59/59
f 79/79/79 59/59/59 54/54/54
f 79/79/79 54/54/54 77/77/77
f 79/79/79 77/77/77 65/65/65
f 79/79/79 65/65/65 64/64/64
f 79/79/79 64/64/64 63/63/63
f 79/79/79 63/63/63 80/80/80
f 81/81/81 82/82/82 69/69/69
f 81/81/81 69/69/69 68/68/68
f 81/81/81 68/68/68 67/67/67
f 81/81/81 67/67/67 83/83/83
f 81/81/81 83/83/83 84/84/84
f 81/81/81 84/84/84 85/85/85
f 81/81/81 85/85/85 86/86/86
f 81/81/81 86/86/86 82/82/82
f 87/87/87 83/83/83 67/67/67
f 87/87/87 67/67/67 75/75/75
f 87/87/87 75/75/75 74/74/74
f 87/87/87 74/74/74 88/88/88
f 87/87/87 88/88/88 89/89/89
f 87/87/87 89/89/89 90/90/90
f 87/87/87 90/90/90 84/84/84
f 87/87/87 84/84/84 83/83/83
f 91/91/91 92/92/92 38/38/38
f 91/91/91 38/38/38 37/37/37
f 91/91/91 37/37/37 18/18/18
f 91/91/91 18/18/18 93/93/93
f 91/91/91 93/93/93 69/69/69
f 91/91/91 69/69/69 82/82/82
f 91/91/91 82/82/82 94/94/94
f 91/91/91 94/94/94 92/92/92
f 95/95/95 96/96/96 44/44/44
f 95/95/95 44/44/44 43/43/43
f 95/95/95 43/43/43 40/40/40
f 95/95/95 40/40/40 97/97/97
f 95/95/95 97/97/97 84/84/84
f 95/95/95 84/84/84 90/90/90
f 95/95/95 90/90/90 98/98/98
f 95/95/95 98/98/98 96/96/96
f 99/99/99 100/100/100 7/7/7
f 99/99/99 7/7/7 6/6/6
f 99/99/99 6/6/6 5/5/5
f 99/99/99 5/5/5 101/101/101
f 99/99/99 101/101/101 52/52/52
f 99/99/99 52/52/52 51/51/51
f 99/99/99 51/51/51 102/102/102
f 99/99/99 102/102/102 100/100/100
f 103/103/103 104/104/104 15/15/15
f 103/103/103 15/15/15 14/14/14
f 103/103/103 14/14/14 9/9/9
f 103/103/103 9/9/9 105/105/105
f 103/103/103 105/105/105 48/48/48
f 103/103/103 48/48/48 58/58/58
f 103/103/103 58/58/58 106/106/106
f 103/103/103 106/106/106 104/104/104
f 107/107/107 108/108/108 12/12/12
f 107/107/107 12/12/12 11/11/11
f 107/107/107 11/11/11 15/15/15
f 107/107/107 15/15/15 104/104/104
f 107/107/107 104/104/104 106/106/106
f 107/107/107 106/106/106 56/56/56
f 107/107/107 56/56/56 60/60/60
f 107/107/107 60/60/60 108/108/108
f 109/109/109 97/97/97 40/40/40
f 109/109/109 40/40/40 39/39/39
f 109/109/109 39/39/39 38/38/38
f 109/109/109 38/38/38 92/92/92
f 109/109/109 92/92/92 94/94/94
f 109/109/109 94/94/94 85/85/85
f 109/109/109 85/85/85 84/84/84
f 109/109/109 84/84/84 97/97/97
f 110/110/110 111/111/111 27/27/27
f 110/110/110 27/27/27 45/45/45
f 110/110/110 45/45/45 44/44/44
f 110/110/110 44/44/44 96/96/96
f 110/110/110 96/96/96 98/98/98
f 110/110/110 98/98/98 88/88/88
f 110/110/110 88/88/88 74/74/74
f 110/110/110 74/74/74 111/111/111
f 112/112/112 105/105/105 9/9/9
f 112/112/112 9/9/9 8/8/8
f 112/112/112 8/8/8 7/7/7
f 112/112/112 7/7/7 100/100/100
f 112/112/112 100/100/100 102/102/102
f 112/112/112 102/102/102 49/49/49
f 112/112/112 49/49/49 48/48/48
f 112/112/112 48/48/48 105/105/105
f 113/113/113 101/101/101 5/5/5
f 113/113/113 5/5/5 33/33/33
f 113/113/113 33/33/33 29/29/29
f 113/113/113 29/29/29 114/114/114
f 113/113/113 114/114/114 72/72/72
f 113/113/113 72/72/72 78/78/78
f 113/113/113 78/78/78 52/52/52
f 113/113/113 52/52/52 101/101/101
f 115/115/115 116/116/116 24/24/24
f 115/115/115 24/24/24 35/35/35
f 115/115/115 35/35/35 12/12/12
f 115/115/115 12/12/12 108/108/108
f 115/115/115 108/108/108 60/60/60
f 115/115/115 60/60/60 80/80/80
f 115/115/115 80/80/80 63/63/63
f 115/115/115 63/63/63 116/116/116
f 117/117/117 93/93/93 18/18/18
f 117/117/117 18/18/18 17/17/17
f 117/117/117 17/17/17 24/24/24
f 117/117/117 24/24/24 116/116/116
f 117/117/117 116/116/116 63/63/63
f 117/117/117 63/63/63 62/62/62
f 117/117/117 62/62/62 69/69/69
f 117/117/117 69/69/69 93/93/93
f 118/118/118 114/114/114 29/29/29
f 118/118/118 29/29/29 28/28/28
f 118/118/118 28/28/28 27/27/27
f 118/118/118 27/27/27 111/111/111
f 118/118/118 111/111/111 74/74/74
f 118/118/118 74/74/74 73/73/73
f 118/118/118 73/73/73 72/72/72
f 118/118/118 72/72/72 114/114/114
