v -2.374184 0.527810 -1.144227
v -2.372841 0.528045 -1.143386
v -2.373709 0.527533 -1.142619
v -2.374894 0.527205 -1.142924
v -2.375724 0.527180 -1.143880
v -2.375527 0.527575 -1.145067
v -2.374660 0.528086 -1.145834
v -2.373475 0.528414 -1.145529
v -2.372645 0.528439 -1.144573
v -2.398190 0.608194 -1.119067
v -2.397321 0.608707 -1.119838
v -2.394068 0.593466 -1.123260
v -2.394935 0.592955 -1.122493
v -2.395132 0.592560 -1.121306
v -2.398387 0.607800 -1.117880
v -2.401642 0.623041 -1.114453
v -2.401445 0.623434 -1.115641
v -2.400576 0.623948 -1.116415
v -2.385231 0.560265 -1.133780
v -2.384364 0.560776 -1.134547
v -2.385427 0.559870 -1.132593
v -2.383179 0.561104 -1.134243
v -2.382349 0.561129 -1.133287
v -2.392883 0.593794 -1.122956
v -2.392053 0.593819 -1.122000
v -2.382545 0.560735 -1.132100
v -2.383413 0.560223 -1.131333
v -2.392249 0.593424 -1.120813
v -2.393117 0.592913 -1.120046
v -2.384598 0.559895 -1.131637
v -2.394302 0.592585 -1.120350
v -2.396137 0.609038 -1.119538
v -2.395307 0.609066 -1.118586
v -2.399390 0.624282 -1.116120
v -2.398561 0.624313 -1.115171
v -2.395504 0.608672 -1.117398
v -2.396372 0.608159 -1.116628
v -2.398758 0.623921 -1.113983
v -2.399627 0.623406 -1.113210
v -2.397557 0.607829 -1.116927
v -2.400813 0.623072 -1.113504
v -2.404392 0.643733 -1.110755
v -2.403523 0.644245 -1.111526
v -2.404589 0.643341 -1.109567
v -2.407537 0.663641 -1.104681
v -2.407339 0.664033 -1.105869
v -2.406470 0.664543 -1.106636
v -2.402338 0.644575 -1.111226
v -2.401508 0.644604 -1.110274
v -2.405285 0.664869 -1.106332
v -2.404455 0.664895 -1.105376
v -2.401706 0.644212 -1.109086
v -2.402575 0.643700 -1.108315
v -2.404653 0.664503 -1.104188
v -2.405522 0.663993 -1.103421
v -2.403760 0.643370 -1.108615
v -2.406707 0.663667 -1.103725
v -2.422574 0.711067 -1.090865
v -2.421706 0.711579 -1.091632
v -2.416752 0.698204 -1.095524
v -2.417620 0.697692 -1.094757
v -2.417817 0.697298 -1.093570
v -2.422770 0.710672 -1.089678
v -2.427648 0.722665 -1.086451
v -2.427452 0.723060 -1.087638
v -2.426584 0.723572 -1.088405
v -2.420521 0.711906 -1.091327
v -2.419691 0.711931 -1.090371
v -2.414738 0.698556 -1.094264
v -2.415568 0.698531 -1.095219
v -2.425400 0.723899 -1.088101
v -2.424570 0.723924 -1.087145
v -2.419888 0.711537 -1.089184
v -2.420755 0.711025 -1.088417
v -2.415802 0.697650 -1.092309
v -2.414934 0.698162 -1.093076
v -2.424766 0.723530 -1.085958
v -2.425634 0.723018 -1.085191
v -2.421940 0.710698 -1.088722
v -2.416987 0.697323 -1.092614
v -2.426818 0.722691 -1.085495
v -2.412517 0.681553 -1.099980
v -2.411649 0.682064 -1.100747
v -2.412714 0.681160 -1.098793
v -2.410464 0.682391 -1.100443
v -2.409634 0.682416 -1.099487
v -2.409831 0.682023 -1.098300
v -2.410699 0.681513 -1.097532
v -2.411884 0.681186 -1.097837
vn 0.317200 -0.914400 -0.251300
vn 0.837700 -0.500800 0.217800
vn 0.412800 -0.717700 0.560800
vn -0.136900 -0.884900 0.445100
vn -0.531300 -0.847200 -0.006100
vn -0.463800 -0.676300 -0.572200
vn -0.043800 -0.411500 -0.910400
vn 0.534500 -0.284700 -0.795700
vn 0.899300 -0.284400 -0.332300
vn -0.861700 -0.071100 -0.502400
vn -0.279600 0.153100 -0.947800
vn -0.303500 0.189000 -0.933900
vn -0.866200 -0.080000 -0.493200
vn -0.923900 -0.302700 0.234000
vn -0.938500 -0.253200 0.234700
vn -0.944800 -0.225900 0.237400
vn -0.869900 -0.042100 -0.491400
vn -0.294100 0.167600 -0.940900
vn -0.859300 -0.080700 -0.505000
vn -0.301900 0.229800 -0.925200
vn -0.914600 -0.344500 0.211500
vn 0.432700 0.406300 -0.804700
vn 0.914600 0.344500 -0.211500
vn 0.451100 0.347200 -0.822100
vn 0.931400 0.295400 -0.212500
vn 0.859300 0.080700 0.505100
vn 0.301900 -0.229800 0.925200
vn 0.854500 0.071800 0.514500
vn 0.276800 -0.194600 0.941000
vn -0.432700 -0.406300 0.804700
vn -0.452700 -0.348000 0.820900
vn 0.467700 0.287300 -0.835900
vn 0.938500 0.252900 -0.234800
vn 0.462400 0.279300 -0.841500
vn 0.942500 0.225100 -0.246900
vn 0.861700 0.071400 0.502300
vn 0.279600 -0.152800 0.947800
vn 0.868600 0.040100 0.493800
vn 0.277800 -0.169000 0.945600
vn -0.467700 -0.287500 0.835800
vn -0.474000 -0.278700 0.835200
vn -0.875400 -0.010700 -0.483200
vn -0.289300 0.184300 -0.939300
vn -0.948400 -0.197500 0.248200
vn -0.937100 -0.266600 0.225400
vn -0.861200 -0.042200 -0.506500
vn -0.272400 0.207500 -0.939500
vn 0.471800 0.270800 -0.839100
vn 0.948400 0.197500 -0.248100
vn 0.462100 0.336200 -0.820600
vn 0.932400 0.274100 -0.235700
vn 0.875400 0.010500 0.483300
vn 0.289100 -0.184500 0.939300
vn 0.873500 0.051900 0.484000
vn 0.314500 -0.200600 0.927800
vn -0.471600 -0.270700 0.839200
vn -0.448500 -0.335900 0.828200
vn -0.829000 -0.173300 -0.531700
vn -0.274500 0.159000 -0.948300
vn -0.283800 0.191600 -0.939500
vn -0.844400 -0.129900 -0.519800
vn -0.903400 -0.374400 0.208900
vn -0.893300 -0.402900 0.199000
vn -0.891500 -0.412800 0.186600
vn -0.824100 -0.191900 -0.533000
vn -0.285300 0.139000 -0.948300
vn 0.439400 0.396600 -0.806000
vn 0.895600 0.401400 -0.191500
vn 0.907000 0.371800 -0.197800
vn 0.440500 0.398400 -0.804500
vn 0.428600 0.393200 -0.813400
vn 0.888400 0.414500 -0.197400
vn 0.828900 0.172900 0.531900
vn 0.281000 -0.155900 0.947000
vn 0.293600 -0.187200 0.937400
vn 0.844100 0.129800 0.520200
vn 0.820600 0.188700 0.539300
vn 0.261100 -0.150300 0.953500
vn -0.433100 -0.395000 0.810100
vn -0.430800 -0.397000 0.810400
vn -0.444400 -0.396800 0.803100
vn -0.855500 -0.093500 -0.509300
vn -0.295400 0.216700 -0.930400
vn -0.912700 -0.349200 0.212200
vn 0.437100 0.399400 -0.805800
vn 0.914100 0.348100 -0.208000
vn 0.855300 0.093700 0.509500
vn 0.299200 -0.215100 0.929600
vn -0.433300 -0.399200 0.808000
vt 0.000000 0.000000
vt 0.000000 0.000000
vt 0.000000 0.000000
vt 0.000000 0.000000
vt 0.000000 0.000000
vt 0.000000 0.000000
vt 0.000000 0.000000
vt 0.000000 0.000000
vt 0.000000 0.000000
vt 0.000000 0.000000
vt 0.000000 0.000000
vt 0.000000 0.000000
vt 0.000000 0.000000
vt 0.000000 0.000000
vt 0.000000 0.000000
vt 0.000000 0.000000
vt 0.000000 0.000000
vt 0.000000 0.000000
vt 0.000000 0.000000
vt 0.000000 0.000000
vt 0.000000 0.000000
vt 0.000000 0.000000
vt 0.000000 0.000000
vt 0.000000 0.000000
vt 0.000000 0.000000
vt 0.000000 0.000000
vt 0.000000 0.000000
vt 0.000000 0.000000
vt 0.000000 0.000000
vt 0.000000 0.000000
vt 0.000000 0.000000
vt 0.000000 0.000000
vt 0.000000 0.000000
vt 0.000000 0.000000
vt 0.000000 0.000000
vt 0.000000 0.000000
vt 0.000000 0.000000
vt 0.000000 0.000000
vt 0.000000 0.000000
vt 0.000000 0.000000
vt 0.000000 0.000000
vt 0.000000 0.000000
vt 0.000000 0.000000
vt 0.000000 0.000000
vt 0.000000 0.000000
vt 0.000000 0.000000
vt 0.000000 0.000000
vt 0.000000 0.000000
vt 0.000000 0.000000
vt 0.000000 0.000000
vt 0.000000 0.000000
vt 0.000000 0.000000
vt 0.000000 0.000000
vt 0.000000 0.000000
vt 0.000000 0.000000
vt 0.000000 0.000000
vt 0.000000 0.000000
vt 0.000000 0.000000
vt 0.000000 0.000000
vt 0.000000 0.000000
vt 0.000000 0.000000
vt 0.000000 0.000000
vt 0.000000 0.000000
vt 0.000000 0.000000
vt 0.000000 0.000000
vt 0.000000 0.000000
vt 0.000000 0.000000
vt 0.000000 0.000000
vt 0.000000 0.000000
vt 0.000000 0.000000
vt 0.000000 0.000000
vt 0.000000 0.000000
vt 0.000000 0.000000
vt 0.000000 0.000000
vt 0.000000 0.000000
vt 0.000000 0.000000
vt 0.000000 0.000000
vt 0.000000 0.000000
vt 0.000000 0.000000
vt 0.000000 0.000000
vt 0.000000 0.000000
vt 0.000000 0.000000
vt 0.000000 0.000000
vt 0.000000 0.000000
vt 0.000000 0.000000
vt 0.000000 0.000000
vt 0.000000 0.000000
vt 0.000000 0.000000
vt 0.000000 0.000000
f 1/1/1 2/2/2 3/3/3
f 1/1/1 3/3/3 4/4/4
f 1/1/1 4/4/4 5/5/5
f 1/1/1 5/5/5 6/6/6
f 1/1/1 6/6/6 7/7/7
f 1/1/1 7/7/7 8/8/8
f 1/1/1 8/8/8 9/9/9
f 1/1/1 9/9/9 2/2/2
f 10/10/10 11/11/11 12/12/12
f 10/10/10 12/12/12 13/13/13
f 10/10/10 13/13/13 14/14/14
f 10/10/10 14/14/14 15/15/15
f 10/10/10 15/15/15 16/16/16
f 10/10/10 16/16/16 17/17/17
f 10/10/10 17/17/17 18/18/18
f 10/10/10 18/18/18 11/11/11
f 19/19/19 20/20/20 7/7/7
f 19/19/19 7/7/7 6/6/6
f 19/19/19 6/6/6 5/5/5
f 19/19/19 5/5/5 21/21/21
f 19/19/19 21/21/21 14/14/14
f 19/19/19 14/14/14 13/13/13
f 19/19/19 13/13/13 12/12/12
f 19/19/19 12/12/12 20/20/20
f 22/22/22 23/23/23 9/9/9
f 22/22/22 9/9/9 8/8/8
f 22/22/22 8/8/8 7/7/7
f 22/22/22 7/7/7 20/20/20
f 22/22/22 20/20/20 12/12/12
f 22/22/22 12/12/12 24/24/24
f 22/22/22 24/24/24 25/25/25
f 22/22/22 25/25/25 23/23/23
f 26/26/26 27/27/27 3/3/3
f 26/26/26 3/3/3 2/2/2
f 26/26/26 2/2/2 9/9/9
f 26/26/26 9/9/9 23/23/23
f 26/26/26 23/23/23 25/25/25
f 26/26/26 25/25/25 28/28/28
f 26/26/26 28/28/28 29/29/29
f 26/26/26 29/29/29 27/27/27
f 30/30/30 21/21/21 5/5/5
f 30/30/30 5/5/5 4/4/4
f 30/30/30 4/4/4 3/3/3
f 30/30/30 3/3/3 27/27/27
f 30/30/30 27/27/27 29/29/29
f 30/30/30 29/29/29 31/31/31
f 30/30/30 31/31/31 14/14/14
f 30/30/30 14/14/14 21/21/21
f 32/32/32 33/33/33 25/25/25
f 32/32/32 25/25/25 24/24/24
f 32/32/32 24/24/24 12/12/12
f 32/32/32 12/12/12 11/11/11
f 32/32/32 11/11/11 18/18/18
f 32/32/32 18/18/18 34/34/34
f 32/32/32 34/34/34 35/35/35
f 32/32/32 35/35/35 33/33/33
f 36/36/36 37/37/37 29/29/29
f 36/36/36 29/29/29 28/28/28
f 36/36/36 28/28/28 25/25/25
f 36/36/36 25/25/25 33/33/33
f 36/36/36 33/33/33 35/35/35
f 36/36/36 35/35/35 38/38/38
f 36/36/36 38/38/38 39/39/39
f 36/36/36 39/39/39 37/37/37
f 40/40/40 15/15/15 14/14/14
f 40/40/40 14/14/14 31/31/31
f 40/40/40 31/31/31 29/29/29
f 40/40/40 29/29/29 37/37/37
f 40/40/40 37/37/37 39/39/39
f 40/40/40 39/39/39 41/41/41
f 40/40/40 41/41/41 16/16/16
f 40/40/40 16/16/16 15/15/15
f 42/42/42 43/43/43 18/18/18
f 42/42/42 18/18/18 17/17/17
f 42/42/42 17/17/17 16/16/16
f 42/42/42 16/16/16 44/44/44
f 42/42/42 44/44/44 45/45/45
f 42/42/42 45/45/45 46/46/46
f 42/42/42 46/46/46 47/47/47
f 42/42/42 47/47/47 43/43/43
f 48/48/48 49/49/49 35/35/35
f 48/48/48 35/35/35 34/34/34
f 48/48/48 34/34/34 18/18/18
f 48/48/48 18/18/18 43/43/43
f 48/48/48 43/43/43 47/47/47
f 48/48/48 47/47/47 50/50/50
f 48/48/48 50/50/50 51/51/51
f 48/48/48 51/51/51 49/49/49
f 52/52/52 53/53/53 39/39/39
f 52/52/52 39/39/39 38/38/38
f 52/52/52 38/38/38 35/35/35
f 52/52/52 35/35/35 49/49/49
f 52/52/52 49/49/49 51/51/51
f 52/52/52 51/51/51 54/54/54
f 52/52/52 54/54/54 55/55/55
f 52/52/52 55/55/55 53/53/53
f 56/56/56 44/44/44 16/16/16
f 56/56/56 16/16/16 41/41/41
f 56/56/56 41/41/41 39/39/39
f 56/56/56 39/39/39 53/53/53
f 56/56/56 53/53/53 55/55/55
f 56/56/56 55/55/55 57/57/57
f 56/56/56 57/57/57 45/45/45
f 56/56/56 45/45/45 44/44/44
f 58/58/58 59/59/59 60/60/60
f 58/58/58 60/60/60 61/61/61
f 58/58/58 61/61/61 62/62/62
f 58/58/58 62/62/62 63/63/63
f 58/58/58 63/63/63 64/64/64
f 58/58/58 64/64/64 65/65/65
f 58/58/58 65/65/65 66/66/66
f 58/58/58 66/66/66 59/59/59
f 67/67/67 68/68/68 69/69/69
f 67/67/67 69/69/69 70/70/70
f 67/67/67 70/70/70 60/60/60
f 67/67/67 60/60/60 59/59/59
f 67/67/67 59/59/59 66/66/66
f 67/67/67 66/66/66 71/71/71
f 67/67/67 71/71/71 72/72/72
f 67/67/67 72/72/72 68/68/68
f 73/73/73 74/74/74 75/75/75
f 73/73/73 75/75/75 76/76/76
f 73/73/73 76/76/76 69/69/69
f 73/73/73 69/69/69 68/68/68
f 73/73/73 68/68/68 72/72/72
f 73/73/73 72/72/72 77/77/77
f 73/73/73 77/77/77 78/78/78
f 73/73/73 78/78/78 74/74/74
f 79/79/79 63/63/63 62/62/62
f 79/79/79 62/62/62 80/80/80
f 79/79/79 80/80/80 75/75/75
f 79/79/79 75/75/75 74/74/74
f 79/79/79 74/74/74 78/78/78
f 79/79/79 78/78/78 81/81/81
f 79/79/79 81/81/81 64/64/64
f 79/79/79 64/64/64 63/63/63
f 82/82/82 83/83/83 47/47/47
f 82/82/82 47/47/47 46/46/46
f 82/82/82 46/46/46 45/45/45
f 82/82/82 45/45/45 84/84/84
f 82/82/82 84/84/84 62/62/62
f 82/82/82 62/62/62 61/61/61
f 82/82/82 61/61/61 60/60/60
f 82/82/82 60/60/60 83/83/83
f 85/85/85 86/86/86 51/51/51
f 85/85/85 51/51/51 50/50/50
f 85/85/85 50/50/50 47/47/47
f 85/85/85 47/47/47 83/83/83
f 85/85/85 83/83/83 60/60/60
f 85/85/85 60/60/60 70/70/70
f 85/85/85 70/70/70 69/69/69
f 85/85/85 69/69/69 86/86/86
f 87/87/87 88/88/88 55/55/55
f 87/87/87 55/55/55 54/54/54
f 87/87/87 54/54/54 51/51/51
f 87/87/87 51/51/51 86/86/86
f 87/87/87 86/86/86 69/69/69
f 87/87/87 69/69/69 76/76/76
f 87/87/87 76/76/76 75/75/75
f 87/87/87 75/75/75 88/88/88
f 89/89/89 84/84/84 45/45/45
f 89/89/89 45/45/45 57/57/57
f 89/89/89 57/57/57 55/55/55
f 89/89/89 55/55/55 88/88/88
f 89/89/89 88/88/88 75/75/75
f 89/89/89 75/75/75 80/80/80
f 89/89/89 80/80/80 62/62/62
f 89/89/89 62/62/62 84/84/84
