v -2.358475 0.697440 -1.127274
v -2.356389 0.697926 -1.128026
v -2.357665 0.696722 -1.130487
v -2.359867 0.696246 -1.129348
v -2.361680 0.696022 -1.128648
v -2.360294 0.697136 -1.127033
v -2.358999 0.697731 -1.126194
v -2.357370 0.698203 -1.125826
v -2.355407 0.698718 -1.126202
v -2.354997 0.698648 -1.129669
v -2.354195 0.699255 -1.131232
v -2.354752 0.698429 -1.133419
v -2.355915 0.697620 -1.132069
v -2.354360 0.699249 -1.127899
v -2.354059 0.699447 -1.129596
v -2.359156 0.692441 -1.139297
v -2.357837 0.693112 -1.140417
v -2.359041 0.690831 -1.142408
v -2.360199 0.690228 -1.141410
v -2.361814 0.689516 -1.140148
v -2.360990 0.691643 -1.137878
v -2.360048 0.693600 -1.135523
v -2.358141 0.694452 -1.137015
v -2.356780 0.695182 -1.138199
v -2.363029 0.691095 -1.136630
v -2.363624 0.689038 -1.139051
v -2.365043 0.688745 -1.138275
v -2.364623 0.690755 -1.135744
v -2.363878 0.692715 -1.133311
v -2.362192 0.693045 -1.134225
v -2.361122 0.694772 -1.131731
v -2.358912 0.695287 -1.133022
v -2.362886 0.694510 -1.130843
v -2.357012 0.696200 -1.134562
v -2.355683 0.697012 -1.135804
v -2.361413 0.687878 -1.143352
v -2.360578 0.688363 -1.144124
v -2.361614 0.686831 -1.144862
v -2.362368 0.686044 -1.144733
v -2.363148 0.685625 -1.144048
v -2.362595 0.687319 -1.142390
v -2.363969 0.686990 -1.141592
v -2.364120 0.685435 -1.143527
v -2.364766 0.685737 -1.142692
v -2.365059 0.686806 -1.141038
v -2.358394 0.697229 -1.127202
v -2.356280 0.697722 -1.127971
v -2.355328 0.698563 -1.126164
v -2.357312 0.698043 -1.125774
v -2.358961 0.697612 -1.126151
v -2.360247 0.696976 -1.126970
v -2.361626 0.695865 -1.128582
v -2.359779 0.696040 -1.129270
v -2.357553 0.696522 -1.130425
v -2.354864 0.698455 -1.129632
v -2.354083 0.699118 -1.131214
v -2.353980 0.699343 -1.129581
v -2.354260 0.699104 -1.127875
v -2.355780 0.697430 -1.132023
v -2.354640 0.698292 -1.133393
v -2.359012 0.692271 -1.139212
v -2.357721 0.692989 -1.140359
v -2.356666 0.695053 -1.138150
v -2.358000 0.694275 -1.136940
v -2.359924 0.693416 -1.135436
v -2.360862 0.691467 -1.137781
v -2.361683 0.689346 -1.140043
v -2.360052 0.690064 -1.141318
v -2.358923 0.690711 -1.142346
v -2.362918 0.690914 -1.136522
v -2.362087 0.692856 -1.134126
v -2.363809 0.692571 -1.133231
v -2.364549 0.690616 -1.135658
v -2.364967 0.688611 -1.138184
v -2.363510 0.688863 -1.138936
v -2.361025 0.694573 -1.131643
v -2.358794 0.695094 -1.132948
v -2.362824 0.694359 -1.130771
v -2.356874 0.696016 -1.134502
v -2.355570 0.696879 -1.135766
v -2.361264 0.687717 -1.143258
v -2.360457 0.688246 -1.144061
v -2.362463 0.687152 -1.142283
v -2.363049 0.685500 -1.143968
v -2.362256 0.685924 -1.144663
v -2.361528 0.686744 -1.144813
v -2.363856 0.686816 -1.141473
v -2.364984 0.686673 -1.140943
v -2.364707 0.685639 -1.142623
v -2.364036 0.685305 -1.143437
v -2.360244 0.688474 -1.144355
v -2.361760 0.686397 -1.145300
v -2.358601 0.690979 -1.142715
v -2.361528 0.686744 -1.144813
v -2.364133 0.684859 -1.144132
v -2.364918 0.685300 -1.143126
v -2.363289 0.685005 -1.144566
v -2.364707 0.685639 -1.142623
v -2.360882 0.696963 -1.126922
v -2.359166 0.697753 -1.125958
v -2.362263 0.695877 -1.128384
v -2.358961 0.697612 -1.126151
v -2.354103 0.699384 -1.127299
v -2.353822 0.699610 -1.129638
v -2.355045 0.698912 -1.125578
v -2.353980 0.699343 -1.129581
v -2.353875 0.699398 -1.131748
v -2.354312 0.698639 -1.133859
v -2.362637 0.685379 -1.145162
v -2.365391 0.686685 -1.140810
v -2.365484 0.688588 -1.137975
v -2.356977 0.698386 -1.125320
v -2.363449 0.694355 -1.130514
v -2.364412 0.692541 -1.132970
v -2.355187 0.697225 -1.136203
v -2.356274 0.695368 -1.138574
v -2.357344 0.693282 -1.140766
v -2.365124 0.690579 -1.135409
vn -0.260700 0.912500 -0.315200
vn -0.433500 0.882000 -0.184500
vn -0.458500 0.857500 -0.233200
vn -0.305400 0.884700 -0.352100
vn -0.323300 0.872000 -0.367500
vn -0.267900 0.911700 -0.311600
vn -0.228000 0.935500 -0.270000
vn -0.254600 0.941900 -0.218900
vn -0.391400 0.913900 -0.107300
vn -0.603600 0.793300 -0.079100
vn -0.598100 0.797000 -0.084100
vn -0.615100 0.770600 -0.166600
vn -0.612000 0.778200 -0.141100
vn -0.534500 0.844700 -0.026000
vn -0.582700 0.812300 -0.025700
vn -0.628000 0.686600 -0.366200
vn -0.602800 0.693800 -0.393900
vn -0.609000 0.673700 -0.418500
vn -0.642600 0.662300 -0.385200
vn -0.556600 0.692400 -0.458900
vn -0.545400 0.720300 -0.428600
vn -0.519900 0.772100 -0.365400
vn -0.615100 0.728200 -0.302100
vn -0.600600 0.727800 -0.331000
vn -0.455900 0.746400 -0.484700
vn -0.458000 0.726400 -0.512400
vn -0.500300 0.711500 -0.493400
vn -0.489300 0.733300 -0.472000
vn -0.450400 0.779900 -0.434500
vn -0.422000 0.795300 -0.435100
vn -0.365600 0.847200 -0.385300
vn -0.487400 0.822700 -0.292600
vn -0.389300 0.830800 -0.397600
vn -0.609100 0.762600 -0.217700
vn -0.606400 0.755400 -0.248100
vn -0.664600 0.643500 -0.379700
vn -0.630600 0.653300 -0.418900
vn -0.657900 0.630600 -0.411600
vn -0.693100 0.596100 -0.405200
vn -0.574200 0.639400 -0.511300
vn -0.561600 0.678900 -0.472900
vn -0.439500 0.721600 -0.534800
vn -0.433600 0.686300 -0.583800
vn -0.463100 0.698400 -0.545700
vn -0.486200 0.703500 -0.518300
vn 0.246100 -0.904600 0.347900
vn 0.440600 -0.875600 0.198000
vn 0.466600 -0.848500 0.249500
vn 0.198200 -0.875500 0.440700
vn 0.101800 -0.853000 0.511900
vn 0.120500 -0.860800 0.494300
vn 0.185100 -0.865300 0.465700
vn 0.292800 -0.885500 0.360900
vn 0.458500 -0.857600 0.233000
vn 0.632000 -0.770500 0.082100
vn 0.771300 -0.634800 0.046100
vn 0.787800 -0.614600 0.039500
vn 0.711600 -0.697100 0.087200
vn 0.623000 -0.770700 0.133400
vn 0.732100 -0.675300 0.089000
vn 0.639400 -0.681600 0.355700
vn 0.713300 -0.642700 0.279500
vn 0.705000 -0.669800 0.233000
vn 0.625800 -0.722900 0.293000
vn 0.520000 -0.772000 0.365600
vn 0.545500 -0.720100 0.428800
vn 0.556700 -0.692400 0.459000
vn 0.655300 -0.657700 0.371500
vn 0.729700 -0.630200 0.265200
vn 0.441700 -0.750300 0.491800
vn 0.409000 -0.798200 0.442300
vn 0.314000 -0.805700 0.502200
vn 0.340200 -0.772400 0.536300
vn 0.318300 -0.773200 0.548500
vn 0.440900 -0.732200 0.519000
vn 0.353000 -0.849200 0.392700
vn 0.487400 -0.822700 0.292600
vn 0.255700 -0.844300 0.470900
vn 0.619400 -0.756600 0.209300
vn 0.709600 -0.686500 0.158400
vn 0.677400 -0.647000 0.350000
vn 0.752300 -0.626300 0.204200
vn 0.558500 -0.687200 0.464400
vn 0.544500 -0.722200 0.426400
vn 0.705700 -0.661900 0.252800
vn 0.762300 -0.626300 0.163000
vn 0.412100 -0.739100 0.532700
vn 0.258100 -0.798000 0.544600
vn 0.220000 -0.814700 0.536500
vn 0.327400 -0.793200 0.513300
vn 0.511700 0.143400 -0.847100
vn 0.225400 -0.128800 -0.965700
vn 0.610500 0.226300 -0.759000
vn 0.762300 -0.626300 0.163000
vn -0.450100 -0.689200 -0.567800
vn -0.835400 -0.496900 -0.235100
vn -0.179900 -0.748100 -0.638800
vn 0.220000 -0.814700 0.536500
vn -0.721300 0.170600 0.671200
vn -0.471500 0.301800 0.828600
vn -0.833500 0.038100 0.551200
vn 0.101800 -0.853000 0.511900
vn 0.724700 0.542800 0.424400
vn 0.704000 0.709900 0.019300
vn 0.458900 0.320500 0.828700
vn 0.787800 -0.614600 0.039500
vn 0.688700 0.660200 -0.299700
vn 0.671100 0.560600 -0.485000
vn -0.075800 -0.559300 -0.825500
vn -0.924000 -0.355100 0.141800
vn -0.909100 -0.301500 0.287600
vn -0.054000 0.272300 0.960700
vn -0.880000 -0.076300 0.468800
vn -0.891700 -0.151600 0.426500
vn 0.661800 0.459700 -0.592100
vn 0.661200 0.388600 -0.641600
vn 0.655900 0.314500 -0.686200
vn -0.896200 -0.224900 0.382300
vt 0.839504 0.118056
vt 0.856743 0.205307
vt 0.741230 0.205307
vt 0.734555 0.106726
vt 0.724541 0.032791
vt 0.813647 0.052618
vt 0.868992 0.081539
vt 0.913398 0.129584
vt 0.940923 0.205307
vt 0.839504 0.292557
vt 0.813647 0.357995
vt 0.724541 0.377822
vt 0.734555 0.303887
vt 0.913398 0.281029
vt 0.868992 0.329074
vt 0.369475 0.299954
vt 0.368286 0.370940
vt 0.245840 0.351447
vt 0.246397 0.288815
vt 0.246768 0.205307
vt 0.370268 0.205307
vt 0.494283 0.205307
vt 0.492822 0.304944
vt 0.490632 0.379672
vt 0.369475 0.110659
vt 0.246397 0.121798
vt 0.245841 0.059166
vt 0.368286 0.039673
vt 0.490632 0.030941
vt 0.492822 0.105669
vt 0.616755 0.103478
vt 0.619174 0.205307
vt 0.613127 0.027106
vt 0.616755 0.307135
vt 0.613126 0.383507
vt 0.123273 0.268175
vt 0.123047 0.315326
vt 0.054743 0.283353
vt 0.030912 0.249131
vt 0.030973 0.205306
vt 0.123423 0.205306
vt 0.123273 0.142438
vt 0.030912 0.161481
vt 0.054744 0.127260
vt 0.123047 0.095287
vt 0.839504 0.118056
vt 0.856743 0.205307
vt 0.968983 0.205307
vt 0.938030 0.133427
vt 0.876123 0.061548
vt 0.805028 0.030806
vt 0.721203 0.008146
vt 0.734555 0.106726
vt 0.741230 0.205307
vt 0.839504 0.292557
vt 0.805028 0.379807
vt 0.876123 0.349065
vt 0.938030 0.277186
vt 0.734555 0.303887
vt 0.721203 0.402467
vt 0.369475 0.299954
vt 0.367890 0.394602
vt 0.489902 0.404581
vt 0.492822 0.304944
vt 0.494283 0.205307
vt 0.370268 0.205307
vt 0.246768 0.205307
vt 0.246397 0.288815
vt 0.245655 0.372324
vt 0.369475 0.110659
vt 0.492822 0.105669
vt 0.489902 0.006032
vt 0.367890 0.016011
vt 0.245655 0.038289
vt 0.246397 0.121798
vt 0.616755 0.103478
vt 0.619174 0.205307
vt 0.611917 0.001649
vt 0.616755 0.307135
vt 0.611917 0.408964
vt 0.123273 0.268175
vt 0.122972 0.331043
vt 0.123423 0.205306
vt 0.000156 0.205306
vt 0.000125 0.242784
vt 0.000064 0.280261
vt 0.123273 0.142438
vt 0.122972 0.079570
vt 0.000064 0.130352
vt 0.000125 0.167829
vt 0.122972 0.331043
vt 0.030806 0.283587
vt 0.245655 0.372324
vt 0.030806 0.283587
vt 0.000125 0.167829
vt 0.030806 0.127026
vt 0.000156 0.205306
vt 0.030806 0.127026
vt 0.805028 0.030806
vt 0.873826 0.071832
vt 0.721203 0.008146
vt 0.873826 0.071832
vt 0.938030 0.277186
vt 0.873826 0.338781
vt 0.968983 0.205307
vt 0.873826 0.338781
vt 0.805028 0.379807
vt 0.721203 0.402467
vt 0.000125 0.242784
vt 0.122972 0.079570
vt 0.245655 0.038289
vt 0.938030 0.133427
vt 0.611917 0.001649
vt 0.489902 0.006032
vt 0.611917 0.408964
vt 0.489902 0.404581
vt 0.367890 0.394602
vt 0.367890 0.016011
f 1/1/1 2/2/2 3/3/3
f 1/1/1 3/3/3 4/4/4
f 1/1/1 4/4/4 5/5/5
f 1/1/1 5/5/5 6/6/6
f 1/1/1 6/6/6 7/7/7
f 1/1/1 7/7/7 8/8/8
f 1/1/1 8/8/8 9/9/9
f 1/1/1 9/9/9 2/2/2
f 10/10/10 11/11/11 12/12/12
f 10/10/10 12/12/12 13/13/13
f 10/10/10 13/13/13 3/3/3
f 10/10/10 3/3/3 2/2/2
f 10/10/10 2/2/2 9/9/9
f 10/10/10 9/9/9 14/14/14
f 10/10/10 14/14/14 15/15/15
f 10/10/10 15/15/15 11/11/11
f 16/16/16 17/17/17 18/18/18
f 16/16/16 18/18/18 19/19/19
f 16/16/16 19/19/19 20/20/20
f 16/16/16 20/20/20 21/21/21
f 16/16/16 21/21/21 22/22/22
f 16/16/16 22/22/22 23/23/23
f 16/16/16 23/23/23 24/24/24
f 16/16/16 24/24/24 17/17/17
f 25/25/25 21/21/21 20/20/20
f 25/25/25 20/20/20 26/26/26
f 25/25/25 26/26/26 27/27/27
f 25/25/25 27/27/27 28/28/28
f 25/25/25 28/28/28 29/29/29
f 25/25/25 29/29/29 30/30/30
f 25/25/25 30/30/30 22/22/22
f 25/25/25 22/22/22 21/21/21
f 31/31/31 32/32/32 22/22/22
f 31/31/31 22/22/22 30/30/30
f 31/31/31 30/30/30 29/29/29
f 31/31/31 29/29/29 33/33/33
f 31/31/31 33/33/33 5/5/5
f 31/31/31 5/5/5 4/4/4
f 31/31/31 4/4/4 3/3/3
f 31/31/31 3/3/3 32/32/32
f 34/34/34 35/35/35 24/24/24
f 34/34/34 24/24/24 23/23/23
f 34/34/34 23/23/23 22/22/22
f 34/34/34 22/22/22 32/32/32
f 34/34/34 32/32/32 3/3/3
f 34/34/34 3/3/3 13/13/13
f 34/34/34 13/13/13 12/12/12
f 34/34/34 12/12/12 35/35/35
f 36/36/36 37/37/37 38/38/38
f 36/36/36 38/38/38 39/39/39
f 36/36/36 39/39/39 40/40/40
f 36/36/36 40/40/40 41/41/41
f 36/36/36 41/41/41 20/20/20
f 36/36/36 20/20/20 19/19/19
f 36/36/36 19/19/19 18/18/18
f 36/36/36 18/18/18 37/37/37
f 42/42/42 41/41/41 40/40/40
f 42/42/42 40/40/40 43/43/43
f 42/42/42 43/43/43 44/44/44
f 42/42/42 44/44/44 45/45/45
f 42/42/42 45/45/45 27/27/27
f 42/42/42 27/27/27 26/26/26
f 42/42/42 26/26/26 20/20/20
f 42/42/42 20/20/20 41/41/41
f 46/46/46 47/47/47 48/48/48
f 46/46/46 48/48/48 49/49/49
f 46/46/46 49/49/49 50/50/50
f 46/46/46 50/50/50 51/51/51
f 46/46/46 51/51/51 52/52/52
f 46/46/46 52/52/52 53/53/53
f 46/46/46 53/53/53 54/54/54
f 46/46/46 54/54/54 47/47/47
f 55/55/55 56/56/56 57/57/57
f 55/55/55 57/57/57 58/58/58
f 55/55/55 58/58/58 48/48/48
f 55/55/55 48/48/48 47/47/47
f 55/55/55 47/47/47 54/54/54
f 55/55/55 54/54/54 59/59/59
f 55/55/55 59/59/59 60/60/60
f 55/55/55 60/60/60 56/56/56
f 61/61/61 62/62/62 63/63/63
f 61/61/61 63/63/63 64/64/64
f 61/61/61 64/64/64 65/65/65
f 61/61/61 65/65/65 66/66/66
f 61/61/61 66/66/66 67/67/67
f 61/61/61 67/67/67 68/68/68
f 61/61/61 68/68/68 69/69/69
f 61/61/61 69/69/69 62/62/62
f 70/70/70 66/66/66 65/65/65
f 70/70/70 65/65/65 71/71/71
f 70/70/70 71/71/71 72/72/72
f 70/70/70 72/72/72 73/73/73
f 70/70/70 73/73/73 74/74/74
f 70/70/70 74/74/74 75/75/75
f 70/70/70 75/75/75 67/67/67
f 70/70/70 67/67/67 66/66/66
f 76/76/76 77/77/77 54/54/54
f 76/76/76 54/54/54 53/53/53
f 76/76/76 53/53/53 52/52/52
f 76/76/76 52/52/52 78/78/78
f 76/76/76 78/78/78 72/72/72
f 76/76/76 72/72/72 71/71/71
f 76/76/76 71/71/71 65/65/65
f 76/76/76 65/65/65 77/77/77
f 79/79/79 80/80/80 60/60/60
f 79/79/79 60/60/60 59/59/59
f 79/79/79 59/59/59 54/54/54
f 79/79/79 54/54/54 77/77/77
f 79/79/79 77/77/77 65/65/65
f 79/79/79 65/65/65 64/64/64
f 79/79/79 64/64/64 63/63/63
f 79/79/79 63/63/63 80/80/80
f 81/81/81 82/82/82 69/69/69
f 81/81/81 69/69/69 68/68/68
f 81/81/81 68/68/68 67/67/67
f 81/81/81 67/67/67 83/83/83
f 81/81/81 83/83/83 84/84/84
f 81/81/81 84/84/84 85/85/85
f 81/81/81 85/85/85 86/86/86
f 81/81/81 86/86/86 82/82/82
f 87/87/87 83/83/83 67/67/67
f 87/87/87 67/67/67 75/75/75
f 87/87/87 75/75/75 74/74/74
f 87/87/87 74/74/74 88/88/88
f 87/87/87 88/88/88 89/89/89
f 87/87/87 89/89/89 90/90/90
f 87/87/87 90/90/90 84/84/84
f 87/87/87 84/84/84 83/83/83
f 91/91/91 92/92/92 38/38/38
f 91/91/91 38/38/38 37/37/37
f 91/91/91 37/37/37 18/18/18
f 91/91/91 18/18/18 93/93/93
f 91/91/91 93/93/93 69/69/69
f 91/91/91 69/69/69 82/82/82
f 91/91/91 82/82/82 94/94/94
f 91/91/91 94/94/94 92/92/92
f 95/95/95 96/96/96 44/44/44
f 95/95/95 44/44/44 43/43/43
f 95/95/95 43/43/43 40/40/40
f 95/95/95 40/40/40 97/97/97
f 95/95/95 97/97/97 84/84/84
f 95/95/95 84/84/84 90/90/90
f 95/95/95 90/90/90 98/98/98
f 95/95/95 98/98/98 96/96/96
f 99/99/99 100/100/100 7/7/7
f 99/99/99 7/7/7 6/6/6
f 99/99/99 6/6/6 5/5/5
f 99/99/99 5/5/5 101/101/101
f 99/99/99 101/101/101 52/52/52
f 99/99/99 52/52/52 51/51/51
f 99/99/99 51/51/51 102/102/102
f 99/99/99 102/102/102 100/100/100
f 103/103/103 104/104/104 15/15/15
f 103/103/103 15/15/15 14/14/14
f 103/103/103 14/14/14 9/9/9
f 103/103/103 9/9/9 105/105/105
f 103/103/103 105/105/105 48/48/48
f 103/103/103 48/48/48 58/58/58
f 103/103/103 58/58/58 106/106/106
f 103/103/103 106/106/106 104/104/104
f 107/107/107 108/108/108 12/12/12
f 107/107/107 12/12/12 11/11/11
f 107/107/107 11/11/11 15/15/15
f 107/107/107 15/15/15 104/104/104
f 107/107/107 104/104/104 106/106/106
f 107/107/107 106/106/106 56/56/56
f 107/107/107 56/56/56 60/60/60
f 107/107/107 60/60/60 108/108/108
f 109/109/109 97/97/97 40/40/40
f 109/109/109 40/40/40 39/39/39
f 109/109/109 39/39/39 38/38/38
f 109/109/109 38/38/38 92/92/92
f 109/109/109 92/92/92 94/94/94
f 109/109/109 94/94/94 85/85/85
f 109/109/109 85/85/85 84/84/84
f 109/109/109 84/84/84 97/97/97
f 110/110/110 111/111/111 27/27/27
f 110/110/110 27/27/27 45/45/45
f 110/110/110 45/45/45 44/44/44
f 110/110/110 44/44/44 96/96/96
f 110/110/110 96/96/96 98/98/98
f 110/110/110 98/98/98 88/88/88
f 110/110/110 88/88/88 74/74/74
f 110/110/110 74/74/74 111/111/111
f 112/112/112 105/105/105 9/9/9
f 112/112/112 9/9/9 8/8/8
f 112/112/112 8/8/8 7/7/7
f 112/112/112 7/7/7 100/100/100
f 112/112/112 100/100/100 102/102/102
f 112/112/112 102/102/102 49/49/49
f 112/112/112 49/49/49 48/48/48
f 112/112/112 48/48/48 105/105/105
f 113/113/113 101/101/101 5/5/5
f 113/113/113 5/5/5 33/33/33
f 113/113/113 33/33/33 29/29/29
f 113/113/113 29/29/29 114/114/114
f 113/113/113 114/114/114 72/72/72
f 113/113/113 72/72/72 78/78/78
f 113/113/113 78/78/78 52/52/52
f 113/113/113 52/52/52 101/101/101
f 115/115/115 116/116/116 24/24/24
f 115/115/115 24/24/24 35/35/35
f 115/115/115 35/35/35 12/12/12
f 115/115/115 12/12/12 108/108/108
f 115/115/115 108/108/108 60/60/60
f 115/115/115 60/60/60 80/80/80
f 115/115/115 80/80/80 63/63/63
f 115/115/115 63/63/63 116/116/116
f 117/117/117 93/93/93 18/18/18
f 117/117/117 18/18/18 17/17/17
f 117/117/117 17/17/17 24/24/24
f 117/117/117 24/24/24 116/116/116
f 117/117/117 116/116/116 63/63/63
f 117/117/117 63/63/63 62/62/62
f 117/117/117 62/62/62 69/69/69
f 117/117/117 69/69/69 93/93/93
f 118/118/118 114/114/114 29/29/29
f 118/118/118 29/29/29 28/28/28
f 118/118/118 28/28/28 27/27/27
f 118/118/118 27/27/27 111/111/111
f 118/118/118 111/111/111 74/74/74
f 118/118/118 74/74/74 73/73/73
f 118/118/118 73/73/73 72/72/72
f 118/118/118 72/72/72 114/114/114
