v -2.318347 0.750454 -1.258288
v -2.321324 0.751111 -1.258356
v -2.320592 0.751002 -1.254365
v -2.317321 0.750188 -1.254725
v -2.314718 0.749841 -1.254822
v -2.315909 0.750232 -1.257795
v -2.317270 0.750369 -1.259545
v -2.319235 0.750532 -1.260786
v -2.321911 0.751059 -1.261274
v -2.323740 0.752598 -1.257241
v -2.325368 0.753992 -1.255959
v -2.325463 0.754112 -1.252735
v -2.323450 0.752625 -1.253535
v -2.323903 0.752387 -1.259879
v -2.324929 0.753414 -1.258057
v -2.321940 0.750191 -1.241153
v -2.324066 0.751372 -1.240612
v -2.323242 0.749686 -1.236659
v -2.321368 0.748625 -1.237146
v -2.318807 0.747369 -1.237735
v -2.319035 0.748785 -1.241811
v -2.319383 0.749930 -1.245944
v -2.322409 0.751428 -1.245252
v -2.324615 0.752706 -1.244677
v -2.315933 0.747803 -1.242320
v -2.316057 0.746514 -1.238177
v -2.313934 0.745986 -1.238466
v -2.313542 0.747189 -1.242656
v -2.313606 0.748330 -1.246815
v -2.316126 0.748931 -1.246472
v -2.316585 0.749703 -1.250697
v -2.319923 0.750639 -1.250178
v -2.313975 0.749211 -1.251016
v -2.322959 0.752237 -1.249459
v -2.325146 0.753651 -1.248847
v -2.320512 0.746832 -1.233213
v -2.321883 0.747685 -1.232825
v -2.320810 0.746296 -1.230808
v -2.319783 0.745368 -1.230302
v -2.318517 0.744632 -1.230638
v -2.318622 0.745848 -1.233670
v -2.316548 0.745256 -1.233983
v -2.317067 0.744288 -1.230829
v -2.315923 0.744353 -1.231757
v -2.314933 0.744922 -1.234175
v -2.318423 0.750144 -1.258295
v -2.321441 0.750814 -1.258354
v -2.321998 0.750837 -1.261268
v -2.319288 0.750299 -1.260787
v -2.317301 0.750195 -1.259549
v -2.315945 0.749995 -1.257805
v -2.314761 0.749606 -1.254840
v -2.317404 0.749881 -1.254744
v -2.320711 0.750707 -1.254376
v -2.323897 0.752320 -1.257232
v -2.325505 0.753795 -1.255949
v -2.325026 0.753266 -1.258049
v -2.324022 0.752181 -1.259867
v -2.323605 0.752346 -1.253539
v -2.325596 0.753913 -1.252736
v -2.322092 0.749917 -1.241219
v -2.324193 0.751173 -1.240658
v -2.324742 0.752505 -1.244710
v -2.322561 0.751151 -1.245299
v -2.319508 0.749641 -1.245996
v -2.319163 0.748500 -1.241881
v -2.318935 0.747087 -1.237817
v -2.321522 0.748355 -1.237223
v -2.323370 0.749489 -1.236714
v -2.316034 0.747509 -1.242395
v -2.316224 0.748632 -1.246530
v -2.313665 0.748102 -1.246861
v -2.313604 0.746964 -1.242714
v -2.313996 0.745763 -1.238534
v -2.316159 0.746223 -1.238265
v -2.316675 0.749399 -1.250734
v -2.320046 0.750346 -1.250209
v -2.314026 0.748978 -1.251047
v -2.323113 0.751958 -1.249484
v -2.325276 0.753450 -1.248863
v -2.320668 0.746564 -1.233295
v -2.322014 0.747491 -1.232883
v -2.318751 0.745567 -1.233758
v -2.318613 0.744422 -1.230704
v -2.319901 0.745167 -1.230363
v -2.320903 0.746151 -1.230852
v -2.316648 0.744966 -1.234075
v -2.314993 0.744700 -1.234247
v -2.315971 0.744190 -1.231810
v -2.317140 0.744070 -1.230899
v -2.322401 0.747885 -1.232721
v -2.320783 0.745991 -1.230014
v -2.323926 0.749953 -1.236520
v -2.320903 0.746151 -1.230852
v -2.317272 0.743868 -1.229809
v -2.315886 0.744044 -1.230965
v -2.318524 0.744134 -1.229656
v -2.315971 0.744190 -1.231810
v -2.315108 0.750052 -1.257636
v -2.316965 0.750307 -1.259780
v -2.313866 0.749620 -1.254863
v -2.317301 0.750195 -1.259549
v -2.324010 0.752226 -1.260752
v -2.325252 0.753602 -1.258171
v -2.322145 0.750943 -1.262243
v -2.325026 0.753266 -1.258049
v -2.325975 0.754372 -1.255526
v -2.326197 0.754521 -1.252469
v -2.319592 0.744791 -1.229359
v -2.314418 0.744711 -1.234272
v -2.313251 0.745710 -1.238593
v -2.319554 0.750454 -1.261618
v -2.313124 0.748942 -1.251137
v -2.312789 0.748028 -1.246950
v -2.325936 0.754035 -1.248649
v -2.325410 0.753044 -1.244500
v -2.324834 0.751678 -1.240452
v -2.312770 0.746883 -1.242794
vn 0.156100 0.987700 0.001300
vn 0.358800 0.931500 -0.059000
vn 0.369300 0.929300 -0.000100
vn 0.188900 0.980400 0.056100
vn 0.201900 0.976200 0.079200
vn 0.164000 0.986400 0.000200
vn 0.137200 0.989000 -0.055900
vn 0.177100 0.979400 -0.097000
vn 0.339800 0.928300 -0.150500
vn 0.552100 0.830300 -0.075500
vn 0.545600 0.834700 -0.073800
vn 0.538900 0.842200 0.013800
vn 0.543000 0.839600 -0.012600
vn 0.500500 0.850800 -0.159800
vn 0.547000 0.826100 -0.135500
vn 0.496000 0.838300 0.226400
vn 0.464100 0.852100 0.241800
vn 0.463400 0.843000 0.273000
vn 0.504900 0.824200 0.256300
vn 0.401500 0.869300 0.288400
vn 0.399100 0.882700 0.248000
vn 0.391900 0.905000 0.165600
vn 0.501300 0.852100 0.150400
vn 0.479200 0.860500 0.172600
vn 0.297200 0.917300 0.265000
vn 0.291600 0.909000 0.297700
vn 0.337500 0.893100 0.297300
vn 0.332900 0.904300 0.267300
vn 0.305900 0.929400 0.206200
vn 0.278200 0.940800 0.193700
vn 0.237600 0.964400 0.115300
vn 0.380700 0.921800 0.073300
vn 0.257200 0.956400 0.138500
vn 0.518800 0.852700 0.060700
vn 0.507900 0.856700 0.089800
vn 0.527700 0.807300 0.264200
vn 0.484100 0.826700 0.286600
vn 0.512400 0.806200 0.295700
vn 0.548300 0.775800 0.312200
vn 0.404100 0.841000 0.359600
vn 0.402400 0.862300 0.307200
vn 0.267600 0.910600 0.314700
vn 0.248500 0.895000 0.370400
vn 0.287500 0.895600 0.339300
vn 0.317200 0.893100 0.318900
vn -0.133000 -0.990700 -0.029600
vn -0.361900 -0.931200 0.042800
vn -0.372700 -0.927700 -0.019800
vn -0.061300 -0.991900 -0.110800
vn 0.050900 -0.986100 -0.158000
vn 0.028200 -0.989100 -0.144100
vn -0.041800 -0.990100 -0.133600
vn -0.174400 -0.982800 -0.060400
vn -0.369300 -0.929300 0.000200
vn -0.578800 -0.813400 0.056900
vn -0.723400 -0.690400 0.001800
vn -0.741100 -0.671300 -0.004200
vn -0.654200 -0.756300 0.004200
vn -0.555800 -0.831200 0.013700
vn -0.673600 -0.739000 -0.010900
vn -0.509900 -0.831100 -0.221900
vn -0.602400 -0.775700 -0.187700
vn -0.607200 -0.783100 -0.134100
vn -0.514100 -0.845000 -0.147000
vn -0.391900 -0.904900 -0.165800
vn -0.399100 -0.882700 -0.248200
vn -0.401500 -0.869200 -0.288500
vn -0.520900 -0.816500 -0.249000
vn -0.622200 -0.760900 -0.184100
vn -0.281600 -0.921800 -0.266200
vn -0.263700 -0.944500 -0.195600
vn -0.155800 -0.962600 -0.221700
vn -0.171500 -0.947000 -0.271400
vn -0.147100 -0.949700 -0.276300
vn -0.273400 -0.914900 -0.297100
vn -0.223600 -0.967500 -0.117900
vn -0.380700 -0.921800 -0.073400
vn -0.108200 -0.980400 -0.164400
vn -0.531200 -0.845200 -0.058100
vn -0.632400 -0.772100 -0.062600
vn -0.548200 -0.801200 -0.239700
vn -0.661100 -0.737600 -0.137100
vn -0.401900 -0.866600 -0.295800
vn -0.398800 -0.883600 -0.245100
vn -0.602500 -0.782900 -0.154900
vn -0.682200 -0.723800 -0.103000
vn -0.241800 -0.923000 -0.299200
vn -0.090300 -0.964500 -0.248000
vn -0.055900 -0.972800 -0.224600
vn -0.165600 -0.956600 -0.239700
vn -0.729000 0.382300 0.567700
vn -0.484800 0.204600 0.850300
vn -0.799700 0.416100 0.432800
vn -0.682200 -0.723800 -0.103000
vn 0.277400 -0.381800 0.881600
vn 0.738900 -0.281600 0.612100
vn -0.001600 -0.440500 0.897700
vn -0.055900 -0.972800 -0.224600
vn 0.879200 -0.004600 -0.476400
vn 0.682400 0.031900 -0.730300
vn 0.954100 -0.071200 -0.290800
vn 0.050900 -0.986100 -0.158000
vn -0.580700 0.267600 -0.768900
vn -0.675000 0.571300 -0.466800
vn -0.211400 -0.054600 -0.975900
vn -0.741100 -0.671300 -0.004200
vn -0.749200 0.642700 -0.160300
vn -0.783600 0.619500 0.046700
vn -0.154700 -0.210000 0.965400
vn 0.929100 -0.276600 0.245300
vn 0.955200 -0.281400 0.091500
vn 0.318800 -0.090000 -0.943500
vn 0.976400 -0.142000 -0.162700
vn 0.976300 -0.195100 -0.093400
vn -0.804000 0.565800 0.182900
vn -0.816800 0.517800 0.254400
vn -0.823500 0.466100 0.323300
vn 0.968800 -0.246400 -0.024700
vt 0.839504 0.118056
vt 0.856743 0.205307
vt 0.741230 0.205307
vt 0.734555 0.106726
vt 0.724541 0.032791
vt 0.813647 0.052618
vt 0.868992 0.081539
vt 0.913398 0.129584
vt 0.940923 0.205307
vt 0.839504 0.292557
vt 0.813647 0.357995
vt 0.724541 0.377822
vt 0.734555 0.303887
vt 0.913398 0.281029
vt 0.868992 0.329074
vt 0.369475 0.299954
vt 0.368286 0.370940
vt 0.245840 0.351447
vt 0.246397 0.288815
vt 0.246768 0.205307
vt 0.370268 0.205307
vt 0.494283 0.205307
vt 0.492822 0.304944
vt 0.490632 0.379672
vt 0.369475 0.110659
vt 0.246397 0.121798
vt 0.245841 0.059166
vt 0.368286 0.039673
vt 0.490632 0.030941
vt 0.492822 0.105669
vt 0.616755 0.103478
vt 0.619174 0.205307
vt 0.613127 0.027106
vt 0.616755 0.307135
vt 0.613126 0.383507
vt 0.123273 0.268175
vt 0.123047 0.315326
vt 0.054743 0.283353
vt 0.030912 0.249131
vt 0.030973 0.205306
vt 0.123423 0.205306
vt 0.123273 0.142438
vt 0.030912 0.161481
vt 0.054744 0.127260
vt 0.123047 0.095287
vt 0.839504 0.118056
vt 0.856743 0.205307
vt 0.968983 0.205307
vt 0.938030 0.133427
vt 0.876123 0.061548
vt 0.805028 0.030806
vt 0.721203 0.008146
vt 0.734555 0.106726
vt 0.741230 0.205307
vt 0.839504 0.292557
vt 0.805028 0.379807
vt 0.876123 0.349065
vt 0.938030 0.277186
vt 0.734555 0.303887
vt 0.721203 0.402467
vt 0.369475 0.299954
vt 0.367890 0.394602
vt 0.489902 0.404581
vt 0.492822 0.304944
vt 0.494283 0.205307
vt 0.370268 0.205307
vt 0.246768 0.205307
vt 0.246397 0.288815
vt 0.245655 0.372324
vt 0.369475 0.110659
vt 0.492822 0.105669
vt 0.489902 0.006032
vt 0.367890 0.016011
vt 0.245655 0.038289
vt 0.246397 0.121798
vt 0.616755 0.103478
vt 0.619174 0.205307
vt 0.611917 0.001649
vt 0.616755 0.307135
vt 0.611917 0.408964
vt 0.123273 0.268175
vt 0.122972 0.331043
vt 0.123423 0.205306
vt 0.000156 0.205306
vt 0.000125 0.242784
vt 0.000064 0.280261
vt 0.123273 0.142438
vt 0.122972 0.079570
vt 0.000064 0.130352
vt 0.000125 0.167829
vt 0.122972 0.331043
vt 0.030806 0.283587
vt 0.245655 0.372324
vt 0.030806 0.283587
vt 0.000125 0.167829
vt 0.030806 0.127026
vt 0.000156 0.205306
vt 0.030806 0.127026
vt 0.805028 0.030806
vt 0.873826 0.071832
vt 0.721203 0.008146
vt 0.873826 0.071832
vt 0.938030 0.277186
vt 0.873826 0.338781
vt 0.968983 0.205307
vt 0.873826 0.338781
vt 0.805028 0.379807
vt 0.721203 0.402467
vt 0.000125 0.242784
vt 0.122972 0.079570
vt 0.245655 0.038289
vt 0.938030 0.133427
vt 0.611917 0.001649
vt 0.489902 0.006032
vt 0.611917 0.408964
vt 0.489902 0.404581
vt 0.367890 0.394602
vt 0.367890 0.016011
f 1/1/1 2/2/2 3/3/3
f 1/1/1 3/3/3 4/4/4
f 1/1/1 4/4/4 5/5/5
f 1/1/1 5/5/5 6/6/6
f 1/1/1 6/6/6 7/7/7
f 1/1/1 7/7/7 8/8/8
f 1/1/1 8/8/8 9/9/9
f 1/1/1 9/9/9 2/2/2
f 10/10/10 11/11/11 12/12/12
f 10/10/10 12/12/12 13/13/13
f 10/10/10 13/13/13 3/3/3
f 10/10/10 3/3/3 2/2/2
f 10/10/10 2/2/2 9/9/9
f 10/10/10 9/9/9 14/14/14
f 10/10/10 14/14/14 15/15/15
f 10/10/10 15/15/15 11/11/11
f 16/16/16 17/17/17 18/18/18
f 16/16/16 18/18/18 19/19/19
f 16/16/16 19/19/19 20/20/20
f 16/16/16 20/20/20 21/21/21
f 16/16/16 21/21/21 22/22/22
f 16/16/16 22/22/22 23/23/23
f 16/16/16 23/23/23 24/24/24
f 16/16/16 24/24/24 17/17/17
f 25/25/25 21/21/21 20/20/20
f 25/25/25 20/20/20 26/26/26
f 25/25/25 26/26/26 27/27/27
f 25/25/25 27/27/27 28/28/28
f 25/25/25 28/28/28 29/29/29
f 25/25/25 29/29/29 30/30/30
f 25/25/25 30/30/30 22/22/22
f 25/25/25 22/22/22 21/21/21
f 31/31/31 32/32/32 22/22/22
f 31/31/31 22/22/22 30/30/30
f 31/31/31 30/30/30 29/29/29
f 31/31/31 29/29/29 33/33/33
f 31/31/31 33/33/33 5/5/5
f 31/31/31 5/5/5 4/4/4
f 31/31/31 4/4/4 3/3/3
f 31/31/31 3/3/3 32/32/32
f 34/34/34 35/35/35 24/24/24
f 34/34/34 24/24/24 23/23/23
f 34/34/34 23/23/23 22/22/22
f 34/34/34 22/22/22 32/32/32
f 34/34/34 32/32/32 3/3/3
f 34/34/34 3/3/3 13/13/13
f 34/34/34 13/13/13 12/12/12
f 34/34/34 12/12/12 35/35/35
f 36/36/36 37/37/37 38/38/38
f 36/36/36 38/38/38 39/39/39
f 36/36/36 39/39/39 40/40/40
f 36/36/36 40/40/40 41/41/41
f 36/36/36 41/41/41 20/20/20
f 36/36/36 20/20/20 19/19/19
f 36/36/36 19/19/19 18/18/18
f 36/36/36 18/18/18 37/37/37
f 42/42/42 41/41/41 40/40/40
f 42/42/42 40/40/40 43/43/43
f 42/42/42 43/43/43 44/44/44
f 42/42/42 44/44/44 45/45/45
f 42/42/42 45/45/45 27/27/27
f 42/42/42 27/27/27 26/26/26
f 42/42/42 26/26/26 20/20/20
f 42/42/42 20/20/20 41/41/41
f 46/46/46 47/47/47 48/48/48
f 46/46/46 48/48/48 49/49/49
f 46/46/46 49/49/49 50/50/50
f 46/46/46 50/50/50 51/51/51
f 46/46/46 51/51/51 52/52/52
f 46/46/46 52/52/52 53/53/53
f 46/46/46 53/53/53 54/54/54
f 46/46/46 54/54/54 47/47/47
f 55/55/55 56/56/56 57/57/57
f 55/55/55 57/57/57 58/58/58
f 55/55/55 58/58/58 48/48/48
f 55/55/55 48/48/48 47/47/47
f 55/55/55 47/47/47 54/54/54
f 55/55/55 54/54/54 59/59/59
f 55/55/55 59/59/59 60/60/60
f 55/55/55 60/60/60 56/56/56
f 61/61/61 62/62/62 63/63/63
f 61/61/61 63/63/63 64/64/64
f 61/61/61 64/64/64 65/65/65
f 61/61/61 65/65/65 66/66/66
f 61/61/61 66/66/66 67/67/67
f 61/61/61 67/67/67 68/68/68
f 61/61/61 68/68/68 69/69/69
f 61/61/61 69/69/69 62/62/62
f 70/70/70 66/66/66 65/65/65
f 70/70/70 65/65/65 71/71/71
f 70/70/70 71/71/71 72/72/72
f 70/70/70 72/72/72 73/73/73
f 70/70/70 73/73/73 74/74/74
f 70/70/70 74/74/74 75/75/75
f 70/70/70 75/75/75 67/67/67
f 70/70/70 67/67/67 66/66/66
f 76/76/76 77/77/77 54/54/54
f 76/76/76 54/54/54 53/53/53
f 76/76/76 53/53/53 52/52/52
f 76/76/76 52/52/52 78/78/78
f 76/76/76 78/78/78 72/72/72
f 76/76/76 72/72/72 71/71/71
f 76/76/76 71/71/71 65/65/65
f 76/76/76 65/65/65 77/77/77
f 79/79/79 80/80/80 60/60/60
f 79/79/79 60/60/60 59/59/59
f 79/79/79 59/59/59 54/54/54
f 79/79/79 54/54/54 77/77/77
f 79/79/79 77/77/77 65/65/65
f 79/79/79 65/65/65 64/64/64
f 79/79/79 64/64/64 63/63/63
f 79/79/79 63/63/63 80/80/80
f 81/81/81 82/82/82 69/69/69
f 81/81/81 69/69/69 68/68/68
f 81/81/81 68/68/68 67/67/67
f 81/81/81 67/67/67 83/83/83
f 81/81/81 83/83/83 84/84/84
f 81/81/81 84/84/84 85/85/85
f 81/81/81 85/85/85 86/86/86
f 81/81/81 86/86/86 82/82/82
f 87/87/87 83/83/83 67/67/67
f 87/87/87 67/67/67 75/75/75
f 87/87/87 75/75/75 74/74/74
f 87/87/87 74/74/74 88/88/88
f 87/87/87 88/88/88 89/89/89
f 87/87/87 89/89/89 90/90/90
f 87/87/87 90/90/90 84/84/84
f 87/87/87 84/84/84 83/83/83
f 91/91/91 92/92/92 38/38/38
f 91/91/91 38/38/38 37/37/37
f 91/91/91 37/37/37 18/18/18
f 91/91/91 18/18/18 93/93/93
f 91/91/91 93/93/93 69/69/69
f 91/91/91 69/69/69 82/82/82
f 91/91/91 82/82/82 94/94/94
f 91/91/91 94/94/94 92/92/92
f 95/95/95 96/96/96 44/44/44
f 95/95/95 44/44/44 43/43/43
f 95/95/95 43/43/43 40/40/40
f 95/95/95 40/40/40 97/97/97
f 95/95/95 97/97/97 84/84/84
f 95/95/95 84/84/84 90/90/90
f 95/95/95 90/90/90 98/98/98
f 95/95/95 98/98/98 96/96/96
f 99/99/99 100/100/100 7/7/7
f 99/99/99 7/7/7 6/6/6
f 99/99/99 6/6/6 5/5/5
f 99/99/99 5/5/5 101/101/101
f 99/99/99 101/101/101 52/52/52
f 99/99/99 52/52/52 51/51/51
f 99/99/99 51/51/51 102/102/102
f 99/99/99 102/102/102 100/100/100
f 103/103/103 104/104/104 15/15/15
f 103/103/103 15/15/15 14/14/14
f 103/103/103 14/14/14 9/9/9
f 103/103/103 9/9/9 105/105/105
f 103/103/103 105/105/105 48/48/48
f 103/103/103 48/48/48 58/58/58
f 103/103/103 58/58/58 106/106/106
f 103/103/103 106/106/106 104/104/104
f 107/107/107 108/108/108 12/12/12
f 107/107/107 12/12/12 11/11/11
f 107/107/107 11/11/11 15/15/15
f 107/107/107 15/15/15 104/104/104
f 107/107/107 104/104/104 106/106/106
f 107/107/107 106/106/106 56/56/56
f 107/107/107 56/56/56 60/60/60
f 107/107/107 60/60/60 108/108/108
f 109/109/109 97/97/97 40/40/40
f 109/109/109 40/40/40 39/39/39
f 109/109/109 39/39/39 38/38/38
f 109/109/109 38/38/38 92/92/92
f 109/109/109 92/92/92 94/94/94
f 109/109/109 94/94/94 85/85/85
f 109/109/109 85/85/85 84/84/84
f 109/109/109 84/84/84 97/97/97
f 110/110/110 111/111/111 27/27/27
f 110/110/110 27/27/27 45/45/45
f 110/110/110 45/45/45 44/44/44
f 110/110/110 44/44/44 96/96/96
f 110/110/110 96/96/96 98/98/98
f 110/110/110 98/98/98 88/88/88
f 110/110/110 88/88/88 74/74/74
f 110/110/110 74/74/74 111/111/111
f 112/112/112 105/105/105 9/9/9
f 112/112/112 9/9/9 8/8/8
f 112/112/112 8/8/8 7/7/7
f 112/112/112 7/7/7 100/100/100
f 112/112/112 100/100/100 102/102/102
f 112/112/112 102/102/102 49/49/49
f 112/112/112 49/49/49 48/48/48
f 112/112/112 48/48/48 105/105/105
f 113/113/113 101/101/101 5/5/5
f 113/113/113 5/5/5 33/33/33
f 113/113/113 33/33/33 29/29/29
f 113/113/113 29/29/29 114/114/114
f 113/113/113 114/114/114 72/72/72
f 113/113/113 72/72/72 78/78/78
f 113/113/113 78/78/78 52/52/52
f 113/113/113 52/52/52 101/101/101
f 115/115/115 116/116/116 24/24/24
f 115/115/115 24/24/24 35/35/35
f 115/115/115 35/35/35 12/12/12
f 115/115/115 12/12/12 108/108/108
f 115/115/115 108/108/108 60/60/60
f 115/115/115 60/60/60 80/80/80
f 115/115/115 80/80/80 63/63/63
f 115/115/115 63/63/63 116/116/116
f 117/117/117 93/93/93 18/18/18
f 117/117/117 18/18/18 17/17/17
f 117/117/117 17/17/17 24/24/24
f 117/117/117 24/24/24 116/116/116
f 117/117/117 116/116/116 63/63/63
f 117/117/117 63/63/63 62/62/62
f 117/117/117 62/62/62 69/69/69
f 117/117/117 69/69/69 93/93/93
f 118/118/118 114/114/114 29/29/29
f 118/118/118 29/29/29 28/28/28
f 118/118/118 28/28/28 27/27/27
f 118/118/118 27/27/27 111/111/111
f 118/118/118 111/111/111 74/74/74
f 118/118/118 74/74/74 73/73/73
f 118/118/118 73/73/73 72/72/72
f 118/118/118 72/72/72 114/114/114
