v -2.360238 0.782071 -1.195785
v -2.363355 0.782091 -1.195762
v -2.362486 0.781169 -1.191810
v -2.359054 0.781164 -1.192289
v -2.356381 0.781406 -1.192409
v -2.357740 0.782256 -1.195292
v -2.359179 0.782526 -1.197027
v -2.361213 0.782566 -1.198265
v -2.364014 0.782627 -1.198684
v -2.366055 0.782746 -1.194349
v -2.367941 0.783439 -1.192774
v -2.367969 0.782750 -1.189548
v -2.365664 0.781931 -1.190657
v -2.366248 0.783150 -1.197022
v -2.367440 0.783484 -1.194988
v -2.363283 0.776876 -1.178928
v -2.365644 0.777436 -1.178152
v -2.364348 0.775014 -1.174621
v -2.362265 0.774503 -1.175319
v -2.359454 0.773974 -1.176150
v -2.360100 0.776292 -1.179855
v -2.360809 0.778335 -1.183685
v -2.364132 0.778975 -1.182704
v -2.366592 0.779604 -1.181874
v -2.356805 0.776125 -1.180527
v -2.356536 0.773839 -1.176734
v -2.354310 0.773850 -1.177100
v -2.354294 0.776120 -1.180954
v -2.354720 0.778227 -1.184805
v -2.357356 0.778189 -1.184377
v -2.358099 0.779870 -1.188392
v -2.361621 0.779939 -1.187728
v -2.355395 0.780026 -1.188768
v -2.364975 0.780667 -1.186695
v -2.367444 0.781423 -1.185793
v -2.360915 0.771988 -1.171834
v -2.362456 0.772429 -1.171273
v -2.361030 0.770819 -1.169585
v -2.359792 0.770014 -1.169285
v -2.358379 0.769653 -1.169768
v -2.358830 0.771548 -1.172484
v -2.356640 0.771492 -1.172890
v -2.356862 0.769675 -1.170008
v -2.355759 0.770208 -1.170886
v -2.354959 0.771560 -1.173124
v -2.360248 0.781757 -1.195869
v -2.363409 0.781778 -1.195835
v -2.364054 0.782391 -1.198735
v -2.361217 0.782330 -1.198324
v -2.359173 0.782351 -1.197074
v -2.357725 0.782021 -1.195361
v -2.356375 0.781173 -1.192485
v -2.359071 0.780853 -1.192385
v -2.362543 0.780860 -1.191896
v -2.366152 0.782441 -1.194411
v -2.368035 0.783216 -1.192815
v -2.367504 0.783317 -1.195017
v -2.366322 0.782922 -1.197064
v -2.365760 0.781629 -1.190733
v -2.368060 0.782528 -1.189600
v -2.363379 0.776594 -1.179063
v -2.365730 0.777227 -1.178249
v -2.366678 0.779390 -1.181958
v -2.364227 0.778685 -1.182822
v -2.360874 0.778041 -1.183811
v -2.360168 0.776005 -1.179998
v -2.359524 0.773694 -1.176304
v -2.362363 0.774227 -1.175466
v -2.364436 0.774809 -1.174727
v -2.356845 0.775836 -1.180676
v -2.357392 0.777892 -1.184510
v -2.354731 0.778004 -1.184908
v -2.354310 0.775903 -1.181069
v -2.354327 0.773637 -1.177223
v -2.356578 0.773556 -1.176894
v -2.358126 0.779565 -1.188506
v -2.361682 0.779636 -1.187833
v -2.355398 0.779797 -1.188857
v -2.365069 0.780370 -1.186792
v -2.367531 0.781204 -1.185862
v -2.361016 0.771715 -1.171984
v -2.362546 0.772227 -1.171381
v -2.358901 0.771270 -1.172642
v -2.358433 0.769445 -1.169887
v -2.359869 0.769810 -1.169398
v -2.361094 0.770669 -1.169666
v -2.356681 0.771212 -1.173055
v -2.354975 0.771349 -1.173251
v -2.355775 0.770053 -1.170979
v -2.356892 0.769465 -1.170133
v -2.363013 0.772487 -1.171133
v -2.360915 0.770336 -1.168871
v -2.365085 0.775094 -1.174434
v -2.361094 0.770669 -1.169666
v -2.356949 0.768976 -1.169103
v -2.355634 0.769723 -1.170175
v -2.358253 0.768929 -1.168916
v -2.355775 0.770053 -1.170979
v -2.356896 0.782213 -1.195160
v -2.358868 0.782588 -1.197269
v -2.355483 0.781383 -1.192484
v -2.359173 0.782351 -1.197074
v -2.366345 0.783183 -1.197931
v -2.367805 0.783624 -1.195062
v -2.364251 0.782701 -1.199680
v -2.367504 0.783317 -1.195017
v -2.368616 0.783572 -1.192266
v -2.368782 0.782925 -1.189200
v -2.359452 0.769266 -1.168485
v -2.354403 0.771488 -1.173259
v -2.353572 0.773759 -1.177277
v -2.361539 0.782626 -1.199117
v -2.354491 0.779977 -1.188934
v -2.353842 0.778141 -1.184994
v -2.368309 0.781579 -1.185522
v -2.367453 0.779719 -1.181634
v -2.366472 0.777531 -1.177936
v -2.353461 0.776022 -1.181149
vn -0.052600 0.969100 0.240800
vn 0.155600 0.972500 0.173400
vn 0.168000 0.958500 0.230300
vn -0.017400 0.955900 0.293000
vn -0.003100 0.949200 0.314700
vn -0.044600 0.969800 0.239600
vn -0.072900 0.980000 0.185100
vn -0.033100 0.989000 0.143800
vn 0.135100 0.987300 0.083400
vn 0.365200 0.920700 0.137700
vn 0.358000 0.923100 0.140300
vn 0.352300 0.908000 0.226900
vn 0.356000 0.912600 0.200800
vn 0.308100 0.949500 0.059600
vn 0.359500 0.929800 0.078400
vn 0.317100 0.844600 0.431400
vn 0.283500 0.847400 0.449000
vn 0.285400 0.831200 0.477000
vn 0.329500 0.826000 0.457300
vn 0.220000 0.839500 0.496800
vn 0.213600 0.861400 0.460800
vn 0.199700 0.900600 0.385900
vn 0.317200 0.876900 0.361000
vn 0.294600 0.875000 0.384000
vn 0.107400 0.868900 0.483200
vn 0.104600 0.852100 0.512800
vn 0.152700 0.846600 0.509700
vn 0.145100 0.863400 0.483100
vn 0.111600 0.896300 0.429200
vn 0.081900 0.904200 0.419100
vn 0.035200 0.936900 0.347800
vn 0.182700 0.936200 0.300100
vn 0.056600 0.927800 0.368800
vn 0.331800 0.902500 0.274500
vn 0.321000 0.897100 0.303500
vn 0.355500 0.812800 0.461400
vn 0.309400 0.816800 0.486800
vn 0.341700 0.801100 0.491400
vn 0.383500 0.775800 0.501000
vn 0.230400 0.796300 0.559300
vn 0.222800 0.828600 0.513400
vn 0.081200 0.844600 0.529200
vn 0.067400 0.812500 0.579000
vn 0.104500 0.828600 0.550000
vn 0.133500 0.837300 0.530200
vn 0.075000 -0.960400 -0.268400
vn -0.159000 -0.969000 -0.189200
vn -0.172100 -0.952900 -0.249500
vn 0.143100 -0.927200 -0.346000
vn 0.250300 -0.887100 -0.387800
vn 0.229100 -0.898000 -0.375600
vn 0.161100 -0.916000 -0.367200
vn 0.032100 -0.954200 -0.297400
vn -0.168000 -0.958500 -0.230200
vn -0.395300 -0.905800 -0.152300
vn -0.563900 -0.806000 -0.179800
vn -0.585300 -0.790200 -0.181400
vn -0.482400 -0.854700 -0.191500
vn -0.370300 -0.907500 -0.198000
vn -0.505400 -0.838700 -0.202600
vn -0.332000 -0.841800 -0.425600
vn -0.433100 -0.816600 -0.381500
vn -0.434700 -0.837400 -0.331200
vn -0.331200 -0.873700 -0.356400
vn -0.199700 -0.900500 -0.386100
vn -0.213700 -0.861300 -0.461000
vn -0.220000 -0.839400 -0.496900
vn -0.346600 -0.823700 -0.448700
vn -0.455500 -0.807500 -0.374800
vn -0.091200 -0.869700 -0.485100
vn -0.067000 -0.904300 -0.421600
vn 0.041500 -0.892700 -0.448700
vn 0.021500 -0.869400 -0.493700
vn 0.045800 -0.865700 -0.498500
vn -0.085500 -0.854000 -0.513200
vn -0.020800 -0.936200 -0.350700
vn -0.182700 -0.936200 -0.300100
vn 0.093300 -0.913400 -0.396300
vn -0.345300 -0.898600 -0.270500
vn -0.459700 -0.849200 -0.259700
vn -0.376200 -0.817100 -0.436700
vn -0.497000 -0.804800 -0.324500
vn -0.221100 -0.835300 -0.503300
vn -0.213200 -0.862900 -0.458200
vn -0.430700 -0.831300 -0.351200
vn -0.519500 -0.804300 -0.288500
vn -0.053000 -0.854600 -0.516500
vn 0.105100 -0.874700 -0.473100
vn 0.141100 -0.880900 -0.451600
vn 0.030200 -0.884700 -0.465100
vn -0.776600 0.075700 0.625400
vn -0.493300 -0.109100 0.863000
vn -0.856500 0.125200 0.500600
vn -0.519500 -0.804300 -0.288500
vn 0.375600 -0.514500 0.770900
vn 0.798200 -0.258900 0.543900
vn 0.115900 -0.632200 0.766000
vn 0.141100 -0.880900 -0.451600
vn 0.847200 0.292500 -0.443500
vn 0.640200 0.346600 -0.685500
vn 0.939700 0.200400 -0.277200
vn 0.250300 -0.887100 -0.387800
vn -0.644900 0.316100 -0.695800
vn -0.791800 0.512600 -0.332000
vn -0.222700 0.136800 -0.965200
vn -0.585300 -0.790200 -0.181400
vn -0.870500 0.491700 -0.019300
vn -0.893600 0.413200 0.175100
vn -0.080200 -0.461600 0.883400
vn 0.972700 -0.127400 0.193700
vn 0.995000 -0.089600 0.043600
vn 0.304100 0.206000 -0.930100
vn 0.979700 0.107600 -0.169300
vn 0.992500 0.040800 -0.115000
vn -0.898600 0.325700 0.293900
vn -0.899200 0.260400 0.351600
vn -0.893200 0.193700 0.405900
vn 0.997800 -0.025800 -0.060700
vt 0.839504 0.118056
vt 0.856743 0.205307
vt 0.741230 0.205307
vt 0.734555 0.106726
vt 0.724541 0.032791
vt 0.813647 0.052618
vt 0.868992 0.081539
vt 0.913398 0.129584
vt 0.940923 0.205307
vt 0.839504 0.292557
vt 0.813647 0.357995
vt 0.724541 0.377822
vt 0.734555 0.303887
vt 0.913398 0.281029
vt 0.868992 0.329074
vt 0.369475 0.299954
vt 0.368286 0.370940
vt 0.245840 0.351447
vt 0.246397 0.288815
vt 0.246768 0.205307
vt 0.370268 0.205307
vt 0.494283 0.205307
vt 0.492822 0.304944
vt 0.490632 0.379672
vt 0.369475 0.110659
vt 0.246397 0.121798
vt 0.245841 0.059166
vt 0.368286 0.039673
vt 0.490632 0.030941
vt 0.492822 0.105669
vt 0.616755 0.103478
vt 0.619174 0.205307
vt 0.613127 0.027106
vt 0.616755 0.307135
vt 0.613126 0.383507
vt 0.123273 0.268175
vt 0.123047 0.315326
vt 0.054743 0.283353
vt 0.030912 0.249131
vt 0.030973 0.205306
vt 0.123423 0.205306
vt 0.123273 0.142438
vt 0.030912 0.161481
vt 0.054744 0.127260
vt 0.123047 0.095287
vt 0.839504 0.118056
vt 0.856743 0.205307
vt 0.968983 0.205307
vt 0.938030 0.133427
vt 0.876123 0.061548
vt 0.805028 0.030806
vt 0.721203 0.008146
vt 0.734555 0.106726
vt 0.741230 0.205307
vt 0.839504 0.292557
vt 0.805028 0.379807
vt 0.876123 0.349065
vt 0.938030 0.277186
vt 0.734555 0.303887
vt 0.721203 0.402467
vt 0.369475 0.299954
vt 0.367890 0.394602
vt 0.489902 0.404581
vt 0.492822 0.304944
vt 0.494283 0.205307
vt 0.370268 0.205307
vt 0.246768 0.205307
vt 0.246397 0.288815
vt 0.245655 0.372324
vt 0.369475 0.110659
vt 0.492822 0.105669
vt 0.489902 0.006032
vt 0.367890 0.016011
vt 0.245655 0.038289
vt 0.246397 0.121798
vt 0.616755 0.103478
vt 0.619174 0.205307
vt 0.611917 0.001649
vt 0.616755 0.307135
vt 0.611917 0.408964
vt 0.123273 0.268175
vt 0.122972 0.331043
vt 0.123423 0.205306
vt 0.000156 0.205306
vt 0.000125 0.242784
vt 0.000064 0.280261
vt 0.123273 0.142438
vt 0.122972 0.079570
vt 0.000064 0.130352
vt 0.000125 0.167829
vt 0.122972 0.331043
vt 0.030806 0.283587
vt 0.245655 0.372324
vt 0.030806 0.283587
vt 0.000125 0.167829
vt 0.030806 0.127026
vt 0.000156 0.205306
vt 0.030806 0.127026
vt 0.805028 0.030806
vt 0.873826 0.071832
vt 0.721203 0.008146
vt 0.873826 0.071832
vt 0.938030 0.277186
vt 0.873826 0.338781
vt 0.968983 0.205307
vt 0.873826 0.338781
vt 0.805028 0.379807
vt 0.721203 0.402467
vt 0.000125 0.242784
vt 0.122972 0.079570
vt 0.245655 0.038289
vt 0.938030 0.133427
vt 0.611917 0.001649
vt 0.489902 0.006032
vt 0.611917 0.408964
vt 0.489902 0.404581
vt 0.367890 0.394602
vt 0.367890 0.016011
f 1/1/1 2/2/2 3/3/3
f 1/1/1 3/3/3 4/4/4
f 1/1/1 4/4/4 5/5/5
f 1/1/1 5/5/5 6/6/6
f 1/1/1 6/6/6 7/7/7
f 1/1/1 7/7/7 8/8/8
f 1/1/1 8/8/8 9/9/9
f 1/1/1 9/9/9 2/2/2
f 10/10/10 11/11/11 12/12/12
f 10/10/10 12/12/12 13/13/13
f 10/10/10 13/13/13 3/3/3
f 10/10/10 3/3/3 2/2/2
f 10/10/10 2/2/2 9/9/9
f 10/10/10 9/9/9 14/14/14
f 10/10/10 14/14/14 15/15/15
f 10/10/10 15/15/15 11/11/11
f 16/16/16 17/17/17 18/18/18
f 16/16/16 18/18/18 19/19/19
f 16/16/16 19/19/19 20/20/20
f 16/16/16 20/20/20 21/21/21
f 16/16/16 21/21/21 22/22/22
f 16/16/16 22/22/22 23/23/23
f 16/16/16 23/23/23 24/24/24
f 16/16/16 24/24/24 17/17/17
f 25/25/25 21/21/21 20/20/20
f 25/25/25 20/20/20 26/26/26
f 25/25/25 26/26/26 27/27/27
f 25/25/25 27/27/27 28/28/28
f 25/25/25 28/28/28 29/29/29
f 25/25/25 29/29/29 30/30/30
f 25/25/25 30/30/30 22/22/22
f 25/25/25 22/22/22 21/21/21
f 31/31/31 32/32/32 22/22/22
f 31/31/31 22/22/22 30/30/30
f 31/31/31 30/30/30 29/29/29
f 31/31/31 29/29/29 33/33/33
f 31/31/31 33/33/33 5/5/5
f 31/31/31 5/5/5 4/4/4
f 31/31/31 4/4/4 3/3/3
f 31/31/31 3/3/3 32/32/32
f 34/34/34 35/35/35 24/24/24
f 34/34/34 24/24/24 23/23/23
f 34/34/34 23/23/23 22/22/22
f 34/34/34 22/22/22 32/32/32
f 34/34/34 32/32/32 3/3/3
f 34/34/34 3/3/3 13/13/13
f 34/34/34 13/13/13 12/12/12
f 34/34/34 12/12/12 35/35/35
f 36/36/36 37/37/37 38/38/38
f 36/36/36 38/38/38 39/39/39
f 36/36/36 39/39/39 40/40/40
f 36/36/36 40/40/40 41/41/41
f 36/36/36 41/41/41 20/20/20
f 36/36/36 20/20/20 19/19/19
f 36/36/36 19/19/19 18/18/18
f 36/36/36 18/18/18 37/37/37
f 42/42/42 41/41/41 40/40/40
f 42/42/42 40/40/40 43/43/43
f 42/42/42 43/43/43 44/44/44
f 42/42/42 44/44/44 45/45/45
f 42/42/42 45/45/45 27/27/27
f 42/42/42 27/27/27 26/26/26
f 42/42/42 26/26/26 20/20/20
f 42/42/42 20/20/20 41/41/41
f 46/46/46 47/47/47 48/48/48
f 46/46/46 48/48/48 49/49/49
f 46/46/46 49/49/49 50/50/50
f 46/46/46 50/50/50 51/51/51
f 46/46/46 51/51/51 52/52/52
f 46/46/46 52/52/52 53/53/53
f 46/46/46 53/53/53 54/54/54
f 46/46/46 54/54/54 47/47/47
f 55/55/55 56/56/56 57/57/57
f 55/55/55 57/57/57 58/58/58
f 55/55/55 58/58/58 48/48/48
f 55/55/55 48/48/48 47/47/47
f 55/55/55 47/47/47 54/54/54
f 55/55/55 54/54/54 59/59/59
f 55/55/55 59/59/59 60/60/60
f 55/55/55 60/60/60 56/56/56
f 61/61/61 62/62/62 63/63/63
f 61/61/61 63/63/63 64/64/64
f 61/61/61 64/64/64 65/65/65
f 61/61/61 65/65/65 66/66/66
f 61/61/61 66/66/66 67/67/67
f 61/61/61 67/67/67 68/68/68
f 61/61/61 68/68/68 69/69/69
f 61/61/61 69/69/69 62/62/62
f 70/70/70 66/66/66 65/65/65
f 70/70/70 65/65/65 71/71/71
f 70/70/70 71/71/71 72/72/72
f 70/70/70 72/72/72 73/73/73
f 70/70/70 73/73/73 74/74/74
f 70/70/70 74/74/74 75/75/75
f 70/70/70 75/75/75 67/67/67
f 70/70/70 67/67/67 66/66/66
f 76/76/76 77/77/77 54/54/54
f 76/76/76 54/54/54 53/53/53
f 76/76/76 53/53/53 52/52/52
f 76/76/76 52/52/52 78/78/78
f 76/76/76 78/78/78 72/72/72
f 76/76/76 72/72/72 71/71/71
f 76/76/76 71/71/71 65/65/65
f 76/76/76 65/65/65 77/77/77
f 79/79/79 80/80/80 60/60/60
f 79/79/79 60/60/60 59/59/59
f 79/79/79 59/59/59 54/54/54
f 79/79/79 54/54/54 77/77/77
f 79/79/79 77/77/77 65/65/65
f 79/79/79 65/65/65 64/64/64
f 79/79/79 64/64/64 63/63/63
f 79/79/79 63/63/63 80/80/80
f 81/81/81 82/82/82 69/69/69
f 81/81/81 69/69/69 68/68/68
f 81/81/81 68/68/68 67/67/67
f 81/81/81 67/67/67 83/83/83
f 81/81/81 83/83/83 84/84/84
f 81/81/81 84/84/84 85/85/85
f 81/81/81 85/85/85 86/86/86
f 81/81/81 86/86/86 82/82/82
f 87/87/87 83/83/83 67/67/67
f 87/87/87 67/67/67 75/75/75
f 87/87/87 75/75/75 74/74/74
f 87/87/87 74/74/74 88/88/88
f 87/87/87 88/88/88 89/89/89
f 87/87/87 89/89/89 90/90/90
f 87/87/87 90/90/90 84/84/84
f 87/87/87 84/84/84 83/83/83
f 91/91/91 92/92/92 38/38/38
f 91/91/91 38/38/38 37/37/37
f 91/91/91 37/37/37 18/18/18
f 91/91/91 18/18/18 93/93/93
f 91/91/91 93/93/93 69/69/69
f 91/91/91 69/69/69 82/82/82
f 91/91/91 82/82/82 94/94/94
f 91/91/91 94/94/94 92/92/92
f 95/95/95 96/96/96 44/44/44
f 95/95/95 44/44/44 43/43/43
f 95/95/95 43/43/43 40/40/40
f 95/95/95 40/40/40 97/97/97
f 95/95/95 97/97/97 84/84/84
f 95/95/95 84/84/84 90/90/90
f 95/95/95 90/90/90 98/98/98
f 95/95/95 98/98/98 96/96/96
f 99/99/99 100/100/100 7/7/7
f 99/99/99 7/7/7 6/6/6
f 99/99/99 6/6/6 5/5/5
f 99/99/99 5/5/5 101/101/101
f 99/99/99 101/101/101 52/52/52
f 99/99/99 52/52/52 51/51/51
f 99/99/99 51/51/51 102/102/102
f 99/99/99 102/102/102 100/100/100
f 103/103/103 104/104/104 15/15/15
f 103/103/103 15/15/15 14/14/14
f 103/103/103 14/14/14 9/9/9
f 103/103/103 9/9/9 105/105/105
f 103/103/103 105/105/105 48/48/48
f 103/103/103 48/48/48 58/58/58
f 103/103/103 58/58/58 106/106/106
f 103/103/103 106/106/106 104/104/104
f 107/107/107 108/108/108 12/12/12
f 107/107/107 12/12/12 11/11/11
f 107/107/107 11/11/11 15/15/15
f 107/107/107 15/15/15 104/104/104
f 107/107/107 104/104/104 106/106/106
f 107/107/107 106/106/106 56/56/56
f 107/107/107 56/56/56 60/60/60
f 107/107/107 60/60/60 108/108/108
f 109/109/109 97/97/97 40/40/40
f 109/109/109 40/40/40 39/39/39
f 109/109/109 39/39/39 38/38/38
f 109/109/109 38/38/38 92/92/92
f 109/109/109 92/92/92 94/94/94
f 109/109/109 94/94/94 85/85/85
f 109/109/109 85/85/85 84/84/84
f 109/109/109 84/84/84 97/97/97
f 110/110/110 111/111/111 27/27/27
f 110/110/110 27/27/27 45/45/45
f 110/110/110 45/45/45 44/44/44
f 110/110/110 44/44/44 96/96/96
f 110/110/110 96/96/96 98/98/98
f 110/110/110 98/98/98 88/88/88
f 110/110/110 88/88/88 74/74/74
f 110/110/110 74/74/74 111/111/111
f 112/112/112 105/105/105 9/9/9
f 112/112/112 9/9/9 8/8/8
f 112/112/112 8/8/8 7/7/7
f 112/112/112 7/7/7 100/100/100
f 112/112/112 100/100/100 102/102/102
f 112/112/112 102/102/102 49/49/49
f 112/112/112 49/49/49 48/48/48
f 112/112/112 48/48/48 105/105/105
f 113/113/113 101/101/101 5/5/5
f 113/113/113 5/5/5 33/33/33
f 113/113/113 33/33/33 29/29/29
f 113/113/113 29/29/29 114/114/114
f 113/113/113 114/114/114 72/72/72
f 113/113/113 72/72/72 78/78/78
f 113/113/113 78/78/78 52/52/52
f 113/113/113 52/52/52 101/101/101
f 115/115/115 116/116/116 24/24/24
f 115/115/115 24/24/24 35/35/35
f 115/115/115 35/35/35 12/12/12
f 115/115/115 12/12/12 108/108/108
f 115/115/115 108/108/108 60/60/60
f 115/115/115 60/60/60 80/80/80
f 115/115/115 80/80/80 63/63/63
f 115/115/115 63/63/63 116/116/116
f 117/117/117 93/93/93 18/18/18
f 117/117/117 18/18/18 17/17/17
f 117/117/117 17/17/17 24/24/24
f 117/117/117 24/24/24 116/116/116
f 117/117/117 116/116/116 63/63/63
f 117/117/117 63/63/63 62/62/62
f 117/117/117 62/62/62 69/69/69
f 117/117/117 69/69/69 93/93/93
f 118/118/118 114/114/114 29/29/29
f 118/118/118 29/29/29 28/28/28
f 118/118/118 28/28/28 27/27/27
f 118/118/118 27/27/27 111/111/111
f 118/118/118 111/111/111 74/74/74
f 118/118/118 74/74/74 73/73/73
f 118/118/118 73/73/73 72/72/72
f 118/118/118 72/72/72 114/114/114
