v -2.414402 0.785591 -1.215382
v -2.412961 0.786306 -1.213715
v -2.411220 0.784244 -1.215209
v -2.413064 0.783615 -1.216894
v -2.414323 0.783197 -1.218386
v -2.415240 0.784978 -1.216971
v -2.415538 0.786039 -1.215694
v -2.415310 0.786931 -1.214181
v -2.414260 0.787743 -1.212546
v -2.410834 0.786873 -1.212993
v -2.408981 0.787227 -1.212780
v -2.407214 0.785752 -1.213626
v -2.409009 0.785072 -1.214178
v -2.412221 0.788041 -1.212113
v -2.410470 0.787860 -1.212300
v -2.404050 0.777540 -1.217637
v -2.402454 0.778178 -1.216841
v -2.401343 0.775213 -1.217857
v -2.402761 0.774644 -1.218548
v -2.404590 0.773941 -1.219579
v -2.406111 0.776749 -1.218815
v -2.407711 0.779440 -1.217870
v -2.405547 0.780280 -1.216655
v -2.403866 0.780966 -1.215851
v -2.408024 0.776112 -1.220298
v -2.406276 0.773381 -1.220902
v -2.407501 0.772999 -1.221981
v -2.409417 0.775676 -1.221504
v -2.411150 0.778349 -1.220729
v -2.409704 0.778786 -1.219439
v -2.411441 0.781317 -1.218276
v -2.409442 0.781947 -1.216631
v -2.412873 0.780921 -1.219664
v -2.407223 0.782833 -1.215451
v -2.405481 0.783578 -1.214714
v -2.401713 0.771623 -1.219543
v -2.400630 0.772068 -1.219071
v -2.400526 0.770183 -1.219822
v -2.401026 0.769297 -1.220293
v -2.401995 0.768906 -1.220753
v -2.403095 0.771082 -1.220278
v -2.404335 0.770680 -1.221299
v -2.402823 0.768652 -1.221497
v -2.403760 0.769021 -1.221988
v -2.405229 0.770416 -1.222150
v -2.414486 0.785423 -1.215230
v -2.413019 0.786146 -1.213542
v -2.414302 0.787621 -1.212418
v -2.415372 0.786802 -1.214069
v -2.415590 0.785943 -1.215615
v -2.415316 0.784849 -1.216867
v -2.414400 0.783074 -1.218276
v -2.413151 0.783454 -1.216735
v -2.411283 0.784091 -1.215032
v -2.410864 0.786725 -1.212804
v -2.408991 0.787122 -1.212632
v -2.410479 0.787780 -1.212192
v -2.412241 0.787927 -1.211972
v -2.409047 0.784929 -1.213987
v -2.407231 0.785650 -1.213475
v -2.404120 0.777429 -1.217432
v -2.402498 0.778098 -1.216683
v -2.403903 0.780878 -1.215695
v -2.405609 0.780158 -1.216455
v -2.407791 0.779311 -1.217680
v -2.406199 0.776631 -1.218621
v -2.404682 0.773831 -1.219383
v -2.402836 0.774540 -1.218341
v -2.401390 0.775138 -1.217696
v -2.408128 0.775988 -1.220116
v -2.409803 0.778651 -1.219263
v -2.411232 0.778244 -1.220603
v -2.409503 0.775580 -1.221374
v -2.407591 0.772910 -1.221849
v -2.406384 0.773265 -1.220717
v -2.411533 0.781168 -1.218107
v -2.409513 0.781805 -1.216448
v -2.412952 0.780807 -1.219546
v -2.407274 0.782699 -1.215255
v -2.405508 0.783482 -1.214561
v -2.401788 0.771523 -1.219334
v -2.400677 0.771997 -1.218908
v -2.403189 0.770975 -1.220080
v -2.402066 0.768826 -1.220604
v -2.401081 0.769223 -1.220136
v -2.400563 0.770130 -1.219704
v -2.404448 0.770567 -1.221115
v -2.405322 0.770328 -1.222019
v -2.403826 0.768957 -1.221889
v -2.402908 0.768567 -1.221359
v -2.400288 0.772186 -1.218840
v -2.400234 0.769621 -1.219950
v -2.400889 0.775370 -1.217554
v -2.400563 0.770130 -1.219704
v -2.402357 0.767938 -1.221501
v -2.403473 0.768456 -1.222120
v -2.401660 0.768145 -1.220845
v -2.403826 0.768957 -1.221889
v -2.415555 0.784716 -1.217457
v -2.415810 0.786086 -1.215801
v -2.414780 0.783002 -1.218837
v -2.415590 0.785943 -1.215615
v -2.412691 0.788379 -1.211757
v -2.410327 0.788056 -1.212129
v -2.414711 0.788167 -1.212100
v -2.410479 0.787780 -1.212192
v -2.408365 0.787300 -1.212642
v -2.406621 0.785934 -1.213373
v -2.400821 0.768490 -1.220473
v -2.405570 0.770288 -1.222377
v -2.407952 0.772832 -1.222284
v -2.415640 0.787319 -1.213732
v -2.413387 0.780738 -1.220076
v -2.411670 0.778156 -1.221105
v -2.404910 0.783785 -1.214399
v -2.403320 0.781157 -1.215513
v -2.401940 0.778356 -1.216504
v -2.409922 0.775487 -1.221850
vn 0.386600 0.730200 -0.563200
vn 0.207400 0.698700 -0.684700
vn 0.241100 0.658200 -0.713200
vn 0.402900 0.685500 -0.606400
vn 0.409600 0.665900 -0.623500
vn 0.381000 0.729000 -0.568700
vn 0.358200 0.770100 -0.527800
vn 0.303500 0.783500 -0.542100
vn 0.153400 0.756900 -0.635200
vn 0.041900 0.606300 -0.794100
vn 0.048900 0.609500 -0.791200
vn 0.116300 0.560500 -0.819900
vn 0.094700 0.574700 -0.812800
vn 0.022000 0.682400 -0.730600
vn 0.001500 0.641900 -0.766800
vn 0.284100 0.428300 -0.857800
vn 0.318700 0.433300 -0.843000
vn 0.336300 0.406800 -0.849400
vn 0.293000 0.397400 -0.869600
vn 0.393100 0.425100 -0.815200
vn 0.373200 0.461300 -0.804900
vn 0.331100 0.531500 -0.779700
vn 0.235500 0.486300 -0.841400
vn 0.266800 0.481600 -0.834700
vn 0.457100 0.490400 -0.741900
vn 0.478700 0.464200 -0.745200
vn 0.445700 0.446100 -0.776100
vn 0.432900 0.474300 -0.766500
vn 0.417800 0.535900 -0.733600
vn 0.429700 0.556100 -0.711400
vn 0.409300 0.629300 -0.660600
vn 0.281800 0.604400 -0.745200
vn 0.410700 0.605800 -0.681400
vn 0.164500 0.541300 -0.824500
vn 0.192400 0.527400 -0.827500
vn 0.278000 0.376500 -0.883700
vn 0.326500 0.382900 -0.864100
vn 0.307500 0.357700 -0.881700
vn 0.284800 0.319300 -0.903800
vn 0.427300 0.358100 -0.830200
vn 0.402300 0.407800 -0.819600
vn 0.504300 0.457800 -0.732200
vn 0.545600 0.413100 -0.729100
vn 0.503300 0.428000 -0.750600
vn 0.471700 0.435100 -0.766900
vn -0.420100 -0.717600 0.555400
vn -0.216700 -0.687800 0.692800
vn -0.252300 -0.643900 0.722300
vn -0.515800 -0.676700 0.525400
vn -0.606900 -0.657300 0.446700
vn -0.586500 -0.665300 0.461900
vn -0.541400 -0.663300 0.516600
vn -0.415000 -0.686600 0.596900
vn -0.241000 -0.658300 0.713200
vn -0.032000 -0.578100 0.815300
vn 0.067800 -0.430100 0.900200
vn 0.082700 -0.409400 0.908600
vn 0.000400 -0.491100 0.871100
vn -0.082900 -0.567200 0.819400
vn 0.008600 -0.465700 0.884900
vn -0.269900 -0.423800 0.864600
vn -0.169400 -0.391000 0.904600
vn -0.133400 -0.430000 0.892900
vn -0.222800 -0.481300 0.847700
vn -0.331200 -0.531400 0.779700
vn -0.373300 -0.461200 0.804900
vn -0.393200 -0.425000 0.815300
vn -0.275600 -0.394000 0.876800
vn -0.148900 -0.379300 0.913200
vn -0.468600 -0.495300 0.731500
vn -0.440700 -0.559700 0.701800
vn -0.526400 -0.571200 0.629700
vn -0.544500 -0.525800 0.653400
vn -0.562600 -0.528000 0.636200
vn -0.491100 -0.471400 0.732500
vn -0.420200 -0.631900 0.651200
vn -0.281800 -0.604400 0.745200
vn -0.521500 -0.627600 0.578100
vn -0.152400 -0.535700 0.830500
vn -0.065100 -0.463600 0.883600
vn -0.247000 -0.384600 0.889400
vn -0.084300 -0.386300 0.918500
vn -0.396800 -0.418300 0.817000
vn -0.371700 -0.463900 0.804100
vn -0.150200 -0.417200 0.896300
vn -0.042700 -0.394600 0.917800
vn -0.513700 -0.480500 0.710800
vn -0.581200 -0.564900 0.585700
vn -0.587900 -0.590600 0.552700
vn -0.530500 -0.554000 0.641600
vn 0.971800 0.028300 0.234000
vn 0.947900 -0.318400 0.010800
vn 0.933800 0.149000 0.325300
vn -0.042700 -0.394600 0.917800
vn 0.271900 -0.887200 -0.372800
vn -0.117300 -0.701700 -0.702700
vn 0.407100 -0.905100 -0.122700
vn -0.587900 -0.590600 0.552700
vn -0.811200 0.182000 -0.555700
vn -0.860500 0.396600 -0.319700
vn -0.756300 0.003100 -0.654100
vn -0.606900 -0.657300 0.446700
vn -0.083000 0.769100 0.633700
vn 0.321400 0.821100 0.471600
vn -0.581400 0.605800 0.543100
vn 0.082700 -0.409400 0.908600
vn 0.606400 0.691000 0.393400
vn 0.756700 0.546400 0.358900
vn 0.647800 -0.752100 -0.121000
vn -0.471700 -0.490600 -0.732700
vn -0.594200 -0.399900 -0.697800
vn -0.866300 0.487400 0.109000
vn -0.714200 -0.135000 -0.686800
vn -0.691900 -0.219300 -0.687900
vn 0.835900 0.421900 0.351100
vn 0.869200 0.341700 0.357500
vn 0.895500 0.259500 0.361500
vn -0.665000 -0.301200 -0.683400
vt 0.839504 0.118056
vt 0.856743 0.205307
vt 0.741230 0.205307
vt 0.734555 0.106726
vt 0.724541 0.032791
vt 0.813647 0.052618
vt 0.868992 0.081539
vt 0.913398 0.129584
vt 0.940923 0.205307
vt 0.839504 0.292557
vt 0.813647 0.357995
vt 0.724541 0.377822
vt 0.734555 0.303887
vt 0.913398 0.281029
vt 0.868992 0.329074
vt 0.369475 0.299954
vt 0.368286 0.370940
vt 0.245840 0.351447
vt 0.246397 0.288815
vt 0.246768 0.205307
vt 0.370268 0.205307
vt 0.494283 0.205307
vt 0.492822 0.304944
vt 0.490632 0.379672
vt 0.369475 0.110659
vt 0.246397 0.121798
vt 0.245841 0.059166
vt 0.368286 0.039673
vt 0.490632 0.030941
vt 0.492822 0.105669
vt 0.616755 0.103478
vt 0.619174 0.205307
vt 0.613127 0.027106
vt 0.616755 0.307135
vt 0.613126 0.383507
vt 0.123273 0.268175
vt 0.123047 0.315326
vt 0.054743 0.283353
vt 0.030912 0.249131
vt 0.030973 0.205306
vt 0.123423 0.205306
vt 0.123273 0.142438
vt 0.030912 0.161481
vt 0.054744 0.127260
vt 0.123047 0.095287
vt 0.839504 0.118056
vt 0.856743 0.205307
vt 0.968983 0.205307
vt 0.938030 0.133427
vt 0.876123 0.061548
vt 0.805028 0.030806
vt 0.721203 0.008146
vt 0.734555 0.106726
vt 0.741230 0.205307
vt 0.839504 0.292557
vt 0.805028 0.379807
vt 0.876123 0.349065
vt 0.938030 0.277186
vt 0.734555 0.303887
vt 0.721203 0.402467
vt 0.369475 0.299954
vt 0.367890 0.394602
vt 0.489902 0.404581
vt 0.492822 0.304944
vt 0.494283 0.205307
vt 0.370268 0.205307
vt 0.246768 0.205307
vt 0.246397 0.288815
vt 0.245655 0.372324
vt 0.369475 0.110659
vt 0.492822 0.105669
vt 0.489902 0.006032
vt 0.367890 0.016011
vt 0.245655 0.038289
vt 0.246397 0.121798
vt 0.616755 0.103478
vt 0.619174 0.205307
vt 0.611917 0.001649
vt 0.616755 0.307135
vt 0.611917 0.408964
vt 0.123273 0.268175
vt 0.122972 0.331043
vt 0.123423 0.205306
vt 0.000156 0.205306
vt 0.000125 0.242784
vt 0.000064 0.280261
vt 0.123273 0.142438
vt 0.122972 0.079570
vt 0.000064 0.130352
vt 0.000125 0.167829
vt 0.122972 0.331043
vt 0.030806 0.283587
vt 0.245655 0.372324
vt 0.030806 0.283587
vt 0.000125 0.167829
vt 0.030806 0.127026
vt 0.000156 0.205306
vt 0.030806 0.127026
vt 0.805028 0.030806
vt 0.873826 0.071832
vt 0.721203 0.008146
vt 0.873826 0.071832
vt 0.938030 0.277186
vt 0.873826 0.338781
vt 0.968983 0.205307
vt 0.873826 0.338781
vt 0.805028 0.379807
vt 0.721203 0.402467
vt 0.000125 0.242784
vt 0.122972 0.079570
vt 0.245655 0.038289
vt 0.938030 0.133427
vt 0.611917 0.001649
vt 0.489902 0.006032
vt 0.611917 0.408964
vt 0.489902 0.404581
vt 0.367890 0.394602
vt 0.367890 0.016011
f 1/1/1 2/2/2 3/3/3
f 1/1/1 3/3/3 4/4/4
f 1/1/1 4/4/4 5/5/5
f 1/1/1 5/5/5 6/6/6
f 1/1/1 6/6/6 7/7/7
f 1/1/1 7/7/7 8/8/8
f 1/1/1 8/8/8 9/9/9
f 1/1/1 9/9/9 2/2/2
f 10/10/10 11/11/11 12/12/12
f 10/10/10 12/12/12 13/13/13
f 10/10/10 13/13/13 3/3/3
f 10/10/10 3/3/3 2/2/2
f 10/10/10 2/2/2 9/9/9
f 10/10/10 9/9/9 14/14/14
f 10/10/10 14/14/14 15/15/15
f 10/10/10 15/15/15 11/11/11
f 16/16/16 17/17/17 18/18/18
f 16/16/16 18/18/18 19/19/19
f 16/16/16 19/19/19 20/20/20
f 16/16/16 20/20/20 21/21/21
f 16/16/16 21/21/21 22/22/22
f 16/16/16 22/22/22 23/23/23
f 16/16/16 23/23/23 24/24/24
f 16/16/16 24/24/24 17/17/17
f 25/25/25 21/21/21 20/20/20
f 25/25/25 20/20/20 26/26/26
f 25/25/25 26/26/26 27/27/27
f 25/25/25 27/27/27 28/28/28
f 25/25/25 28/28/28 29/29/29
f 25/25/25 29/29/29 30/30/30
f 25/25/25 30/30/30 22/22/22
f 25/25/25 22/22/22 21/21/21
f 31/31/31 32/32/32 22/22/22
f 31/31/31 22/22/22 30/30/30
f 31/31/31 30/30/30 29/29/29
f 31/31/31 29/29/29 33/33/33
f 31/31/31 33/33/33 5/5/5
f 31/31/31 5/5/5 4/4/4
f 31/31/31 4/4/4 3/3/3
f 31/31/31 3/3/3 32/32/32
f 34/34/34 35/35/35 24/24/24
f 34/34/34 24/24/24 23/23/23
f 34/34/34 23/23/23 22/22/22
f 34/34/34 22/22/22 32/32/32
f 34/34/34 32/32/32 3/3/3
f 34/34/34 3/3/3 13/13/13
f 34/34/34 13/13/13 12/12/12
f 34/34/34 12/12/12 35/35/35
f 36/36/36 37/37/37 38/38/38
f 36/36/36 38/38/38 39/39/39
f 36/36/36 39/39/39 40/40/40
f 36/36/36 40/40/40 41/41/41
f 36/36/36 41/41/41 20/20/20
f 36/36/36 20/20/20 19/19/19
f 36/36/36 19/19/19 18/18/18
f 36/36/36 18/18/18 37/37/37
f 42/42/42 41/41/41 40/40/40
f 42/42/42 40/40/40 43/43/43
f 42/42/42 43/43/43 44/44/44
f 42/42/42 44/44/44 45/45/45
f 42/42/42 45/45/45 27/27/27
f 42/42/42 27/27/27 26/26/26
f 42/42/42 26/26/26 20/20/20
f 42/42/42 20/20/20 41/41/41
f 46/46/46 47/47/47 48/48/48
f 46/46/46 48/48/48 49/49/49
f 46/46/46 49/49/49 50/50/50
f 46/46/46 50/50/50 51/51/51
f 46/46/46 51/51/51 52/52/52
f 46/46/46 52/52/52 53/53/53
f 46/46/46 53/53/53 54/54/54
f 46/46/46 54/54/54 47/47/47
f 55/55/55 56/56/56 57/57/57
f 55/55/55 57/57/57 58/58/58
f 55/55/55 58/58/58 48/48/48
f 55/55/55 48/48/48 47/47/47
f 55/55/55 47/47/47 54/54/54
f 55/55/55 54/54/54 59/59/59
f 55/55/55 59/59/59 60/60/60
f 55/55/55 60/60/60 56/56/56
f 61/61/61 62/62/62 63/63/63
f 61/61/61 63/63/63 64/64/64
f 61/61/61 64/64/64 65/65/65
f 61/61/61 65/65/65 66/66/66
f 61/61/61 66/66/66 67/67/67
f 61/61/61 67/67/67 68/68/68
f 61/61/61 68/68/68 69/69/69
f 61/61/61 69/69/69 62/62/62
f 70/70/70 66/66/66 65/65/65
f 70/70/70 65/65/65 71/71/71
f 70/70/70 71/71/71 72/72/72
f 70/70/70 72/72/72 73/73/73
f 70/70/70 73/73/73 74/74/74
f 70/70/70 74/74/74 75/75/75
f 70/70/70 75/75/75 67/67/67
f 70/70/70 67/67/67 66/66/66
f 76/76/76 77/77/77 54/54/54
f 76/76/76 54/54/54 53/53/53
f 76/76/76 53/53/53 52/52/52
f 76/76/76 52/52/52 78/78/78
f 76/76/76 78/78/78 72/72/72
f 76/76/76 72/72/72 71/71/71
f 76/76/76 71/71/71 65/65/65
f 76/76/76 65/65/65 77/77/77
f 79/79/79 80/80/80 60/60/60
f 79/79/79 60/60/60 59/59/59
f 79/79/79 59/59/59 54/54/54
f 79/79/79 54/54/54 77/77/77
f 79/79/79 77/77/77 65/65/65
f 79/79/79 65/65/65 64/64/64
f 79/79/79 64/64/64 63/63/63
f 79/79/79 63/63/63 80/80/80
f 81/81/81 82/82/82 69/69/69
f 81/81/81 69/69/69 68/68/68
f 81/81/81 68/68/68 67/67/67
f 81/81/81 67/67/67 83/83/83
f 81/81/81 83/83/83 84/84/84
f 81/81/81 84/84/84 85/85/85
f 81/81/81 85/85/85 86/86/86
f 81/81/81 86/86/86 82/82/82
f 87/87/87 83/83/83 67/67/67
f 87/87/87 67/67/67 75/75/75
f 87/87/87 75/75/75 74/74/74
f 87/87/87 74/74/74 88/88/88
f 87/87/87 88/88/88 89/89/89
f 87/87/87 89/89/89 90/90/90
f 87/87/87 90/90/90 84/84/84
f 87/87/87 84/84/84 83/83/83
f 91/91/91 92/92/92 38/38/38
f 91/91/91 38/38/38 37/37/37
f 91/91/91 37/37/37 18/18/18
f 91/91/91 18/18/18 93/93/93
f 91/91/91 93/93/93 69/69/69
f 91/91/91 69/69/69 82/82/82
f 91/91/91 82/82/82 94/94/94
f 91/91/91 94/94/94 92/92/92
f 95/95/95 96/96/96 44/44/44
f 95/95/95 44/44/44 43/43/43
f 95/95/95 43/43/43 40/40/40
f 95/95/95 40/40/40 97/97/97
f 95/95/95 97/97/97 84/84/84
f 95/95/95 84/84/84 90/90/90
f 95/95/95 90/90/90 98/98/98
f 95/95/95 98/98/98 96/96/96
f 99/99/99 100/100/100 7/7/7
f 99/99/99 7/7/7 6/6/6
f 99/99/99 6/6/6 5/5/5
f 99/99/99 5/5/5 101/101/101
f 99/99/99 101/101/101 52/52/52
f 99/99/99 52/52/52 51/51/51
f 99/99/99 51/51/51 102/102/102
f 99/99/99 102/102/102 100/100/100
f 103/103/103 104/104/104 15/15/15
f 103/103/103 15/15/15 14/14/14
f 103/103/103 14/14/14 9/9/9
f 103/103/103 9/9/9 105/105/105
f 103/103/103 105/105/105 48/48/48
f 103/103/103 48/48/48 58/58/58
f 103/103/103 58/58/58 106/106/106
f 103/103/103 106/106/106 104/104/104
f 107/107/107 108/108/108 12/12/12
f 107/107/107 12/12/12 11/11/11
f 107/107/107 11/11/11 15/15/15
f 107/107/107 15/15/15 104/104/104
f 107/107/107 104/104/104 106/106/106
f 107/107/107 106/106/106 56/56/56
f 107/107/107 56/56/56 60/60/60
f 107/107/107 60/60/60 108/108/108
f 109/109/109 97/97/97 40/40/40
f 109/109/109 40/40/40 39/39/39
f 109/109/109 39/39/39 38/38/38
f 109/109/109 38/38/38 92/92/92
f 109/109/109 92/92/92 94/94/94
f 109/109/109 94/94/94 85/85/85
f 109/109/109 85/85/85 84/84/84
f 109/109/109 84/84/84 97/97/97
f 110/110/110 111/111/111 27/27/27
f 110/110/110 27/27/27 45/45/45
f 110/110/110 45/45/45 44/44/44
f 110/110/110 44/44/44 96/96/96
f 110/110/110 96/96/96 98/98/98
f 110/110/110 98/98/98 88/88/88
f 110/110/110 88/88/88 74/74/74
f 110/110/110 74/74/74 111/111/111
f 112/112/112 105/105/105 9/9/9
f 112/112/112 9/9/9 8/8/8
f 112/112/112 8/8/8 7/7/7
f 112/112/112 7/7/7 100/100/100
f 112/112/112 100/100/100 102/102/102
f 112/112/112 102/102/102 49/49/49
f 112/112/112 49/49/49 48/48/48
f 112/112/112 48/48/48 105/105/105
f 113/113/113 101/101/101 5/5/5
f 113/113/113 5/5/5 33/33/33
f 113/113/113 33/33/33 29/29/29
f 113/113/113 29/29/29 114/114/114
f 113/113/113 114/114/114 72/72/72
f 113/113/113 72/72/72 78/78/78
f 113/113/113 78/78/78 52/52/52
f 113/113/113 52/52/52 101/101/101
f 115/115/115 116/116/116 24/24/24
f 115/115/115 24/24/24 35/35/35
f 115/115/115 35/35/35 12/12/12
f 115/115/115 12/12/12 108/108/108
f 115/115/115 108/108/108 60/60/60
f 115/115/115 60/60/60 80/80/80
f 115/115/115 80/80/80 63/63/63
f 115/115/115 63/63/63 116/116/116
f 117/117/117 93/93/93 18/18/18
f 117/117/117 18/18/18 17/17/17
f 117/117/117 17/17/17 24/24/24
f 117/117/117 24/24/24 116/116/116
f 117/117/117 116/116/116 63/63/63
f 117/117/117 63/63/63 62/62/62
f 117/117/117 62/62/62 69/69/69
f 117/117/117 69/69/69 93/93/93
f 118/118/118 114/114/114 29/29/29
f 118/118/118 29/29/29 28/28/28
f 118/118/118 28/28/28 27/27/27
f 118/118/118 27/27/27 111/111/111
f 118/118/118 111/111/111 74/74/74
f 118/118/118 74/74/74 73/73/73
f 118/118/118 73/73/73 72/72/72
f 118/118/118 72/72/72 114/114/114
