v -2.469965 0.546593 -1.938341
v -2.483888 0.546593 -1.938229
v -2.483888 1.380326 -1.938229
v -2.469965 1.380326 -1.938341
v -2.468377 0.546593 -1.935202
v -2.467833 0.546593 -1.936727
v -2.467833 1.380326 -1.936727
v -2.468377 1.380326 -1.935202
v -2.469700 0.546593 -1.934176
v -2.469700 1.380326 -1.934176
v -2.471276 0.546593 -1.933304
v -2.471276 1.380326 -1.933304
v -2.472579 0.546593 -1.932243
v -2.472579 1.380326 -1.932243
v -2.473086 0.546593 -1.930650
v -2.473086 1.380326 -1.930650
v -2.472664 0.546593 -1.928988
v -2.472664 1.380326 -1.928988
v -2.471695 0.546593 -1.927963
v -2.471695 1.380326 -1.927963
v -2.470414 0.546593 -1.927303
v -2.470414 1.380326 -1.927303
v -2.469055 0.546593 -1.926734
v -2.469055 1.380326 -1.926734
v -2.467852 0.546593 -1.925983
v -2.467852 1.380326 -1.925983
v -2.467966 0.546593 -1.891855
v -2.467967 1.380326 -1.891855
v -2.468978 0.546593 -1.891280
v -2.467966 0.546593 -1.891855
v -2.467967 1.380326 -1.891855
v -2.468978 1.380326 -1.891280
v -2.470131 0.546593 -1.890847
v -2.470131 1.380326 -1.890847
v -2.471213 0.546593 -1.890343
v -2.471214 1.380326 -1.890343
v -2.472013 0.546593 -1.889557
v -2.472013 1.380326 -1.889557
v -2.472319 0.546593 -1.888276
v -2.472319 1.380326 -1.888276
v -2.471854 0.546593 -1.886931
v -2.471854 1.380326 -1.886931
v -2.470760 0.546593 -1.885862
v -2.470761 1.380326 -1.885862
v -2.469454 0.546593 -1.884929
v -2.469454 1.380326 -1.884929
v -2.468349 0.546593 -1.883992
v -2.468349 1.380326 -1.883992
v -2.467861 0.546593 -1.882910
v -2.467861 1.380326 -1.882910
v -2.468571 0.546593 -1.881300
v -2.468571 1.380326 -1.881300
v -2.470485 0.546593 -1.880160
v -2.470485 1.380326 -1.880160
v -2.473087 0.546593 -1.879287
v -2.473087 1.380326 -1.879287
v -2.475861 0.546593 -1.878481
v -2.475861 1.380326 -1.878481
v -2.478291 0.546593 -1.877541
v -2.478291 1.380326 -1.877541
v -2.478189 0.546593 -1.847260
v -2.478291 0.546593 -1.877541
v -2.478291 1.380326 -1.877541
v -2.478189 1.380326 -1.847260
v -2.476632 0.546593 -1.847136
v -2.478189 0.546593 -1.847260
v -2.478189 1.380326 -1.847260
v -2.476632 1.380326 -1.847136
v -2.475260 0.546593 -1.846685
v -2.475260 1.380326 -1.846685
v -2.474164 0.546593 -1.845956
v -2.474164 1.380326 -1.845956
v -2.473432 0.546593 -1.844999
v -2.473432 1.380326 -1.844999
v -2.473154 0.546593 -1.843863
v -2.473154 1.380326 -1.843863
v -2.472604 0.546593 -1.842951
v -2.472604 1.380326 -1.842951
v -2.471328 0.546593 -1.842292
v -2.471328 1.380326 -1.842292
v -2.469822 0.546593 -1.841578
v -2.469822 1.380326 -1.841578
v -2.468585 0.546593 -1.840496
v -2.468586 1.380326 -1.840496
v -2.468115 0.546593 -1.838737
v -2.468115 1.380326 -1.838737
v -2.468683 0.546593 -1.836878
v -2.468683 1.380326 -1.836878
v -2.469915 0.546593 -1.835739
v -2.469915 1.380326 -1.835739
v -2.471357 0.546593 -1.834958
v -2.471357 1.380326 -1.834958
v -2.472552 0.546593 -1.834177
v -2.472553 1.380326 -1.834177
v -2.473047 0.546593 -1.833034
v -2.473047 1.380326 -1.833034
v -2.473534 0.546593 -1.831673
v -2.473534 1.380326 -1.831673
v -2.474704 0.546593 -1.830674
v -2.474704 1.380326 -1.830674
v -2.476098 0.546593 -1.829673
v -2.476099 1.380326 -1.829673
v -2.477258 0.546593 -1.828308
v -2.477258 1.380326 -1.828308
v -2.477725 0.546593 -1.826214
v -2.477725 1.380326 -1.826214
v -2.478016 0.546593 -1.825015
v -2.478016 1.380326 -1.825015
v -2.478860 0.546593 -1.824227
v -2.478860 1.380326 -1.824227
v -2.480158 0.546593 -1.823740
v -2.480158 1.380326 -1.823740
v -2.481809 0.546593 -1.823443
v -2.481809 1.380326 -1.823443
v -2.483713 0.546593 -1.823229
v -2.483714 1.380326 -1.823229
v -2.483888 2.214059 -1.936727
v -2.478537 2.214059 -1.936727
v -2.467833 2.214059 -1.936727
v -2.468377 2.214059 -1.935202
v -2.469700 2.214059 -1.934176
v -2.471276 2.214059 -1.933304
v -2.472579 2.214059 -1.932243
v -2.473086 2.214059 -1.930650
v -2.472664 2.214059 -1.928988
v -2.471695 2.214059 -1.927963
v -2.470414 2.214059 -1.927303
v -2.469055 2.214059 -1.926734
v -2.467853 2.214059 -1.925983
v -2.467967 2.214059 -1.891855
v -2.467967 2.214059 -1.891855
v -2.468978 2.214059 -1.891280
v -2.470131 2.214059 -1.890847
v -2.471214 2.214059 -1.890343
v -2.472013 2.214059 -1.889557
v -2.472319 2.214059 -1.888276
v -2.471854 2.214059 -1.886931
v -2.470761 2.214059 -1.885862
v -2.469454 2.214059 -1.884929
v -2.468349 2.214059 -1.883992
v -2.467861 2.214059 -1.882910
v -2.468571 2.214059 -1.881300
v -2.470485 2.214059 -1.880160
v -2.473088 2.214059 -1.879287
v -2.475862 2.214059 -1.878481
v -2.478292 2.214059 -1.877541
v -2.478292 2.214059 -1.877541
v -2.478189 2.214059 -1.847260
v -2.478189 2.214059 -1.847260
v -2.476632 2.214059 -1.847136
v -2.475260 2.214059 -1.846685
v -2.474164 2.214059 -1.845956
v -2.473432 2.214059 -1.844999
v -2.473154 2.214059 -1.843863
v -2.472604 2.214059 -1.842951
v -2.471328 2.214059 -1.842292
v -2.469822 2.214059 -1.841578
v -2.468586 2.214059 -1.840496
v -2.468116 2.214059 -1.838737
v -2.468683 2.214059 -1.836878
v -2.469915 2.214059 -1.835739
v -2.471357 2.214059 -1.834958
v -2.472553 2.214059 -1.834177
v -2.473047 2.214059 -1.833034
v -2.473534 2.214059 -1.831673
v -2.474704 2.214059 -1.830674
v -2.476099 2.214059 -1.829673
v -2.477259 2.214059 -1.828308
v -2.477725 2.214059 -1.826214
v -2.478016 2.214059 -1.825015
v -2.478861 2.214059 -1.824227
v -2.480158 2.214059 -1.823740
v -2.481809 2.214059 -1.823443
v -2.483714 2.214059 -1.823229
v -2.468698 0.546593 -1.937801
v -2.468698 1.380326 -1.937801
v -2.473185 2.214059 -1.936727
v -2.467833 2.214059 -1.936727
vn 0.196100 0.000000 -0.980600
vn -0.008000 0.000000 -0.999900
vn -0.006900 0.000900 -1.000000
vn 0.116700 0.001000 -0.993200
vn 0.809800 0.000000 0.586600
vn 0.985900 0.000000 -0.167000
vn 0.949000 0.000400 -0.315100
vn 0.809800 0.000000 0.586600
vn 0.550200 0.000000 0.835000
vn 0.550200 0.000000 0.835000
vn 0.559800 0.000000 0.828600
vn 0.559800 0.000000 0.828600
vn 0.826600 0.000000 0.562800
vn 0.826600 0.000000 0.562800
vn 0.999500 0.000000 0.029500
vn 0.999500 0.000000 0.029500
vn 0.876100 0.000000 -0.482000
vn 0.876100 0.000000 -0.482000
vn 0.600900 0.000000 -0.799300
vn 0.600900 0.000000 -0.799300
vn 0.422500 0.000000 -0.906300
vn 0.422500 0.000000 -0.906300
vn 0.459500 0.000000 -0.888100
vn 0.459500 0.000000 -0.888100
vn 0.875400 0.000000 -0.483400
vn 0.875400 0.000000 -0.483400
vn 1.000000 0.000000 0.003300
vn 1.000000 0.000000 0.003300
vn 0.424000 0.000000 0.905600
vn 0.493700 0.000000 0.869600
vn 0.493700 0.000000 0.869600
vn 0.424000 0.000000 0.905600
vn 0.387200 0.000000 0.922000
vn 0.387100 0.000000 0.922000
vn 0.569800 0.000000 0.821700
vn 0.569800 0.000000 0.821700
vn 0.870800 0.000000 0.491700
vn 0.870800 0.000000 0.491700
vn 0.998800 0.000000 -0.049200
vn 0.998800 0.000000 -0.049200
vn 0.844800 0.000000 -0.535100
vn 0.844800 0.000000 -0.535100
vn 0.642000 0.000000 -0.766700
vn 0.642000 0.000000 -0.766700
vn 0.614400 0.000000 -0.789000
vn 0.614400 0.000000 -0.788900
vn 0.798800 0.000000 -0.601600
vn 0.798800 0.000000 -0.601600
vn 1.000000 0.000000 -0.004100
vn 1.000000 0.000000 -0.004100
vn 0.749000 0.000000 0.662600
vn 0.749000 0.000000 0.662600
vn 0.417400 0.000000 0.908700
vn 0.417400 0.000000 0.908700
vn 0.298500 0.000000 0.954400
vn 0.298500 0.000000 0.954400
vn 0.320100 0.000000 0.947400
vn 0.320100 0.000000 0.947400
vn 0.360700 0.000000 0.932700
vn 0.360700 0.000000 0.932700
vn 1.000000 0.000000 -0.003400
vn 1.000000 0.000000 -0.003400
vn 1.000000 0.000000 -0.003400
vn 1.000000 0.000000 -0.003400
vn 0.197300 0.000000 -0.980300
vn 0.079300 0.000000 -0.996800
vn 0.079300 0.000000 -0.996800
vn 0.197300 0.000000 -0.980300
vn 0.437100 0.000000 -0.899400
vn 0.437100 0.000000 -0.899400
vn 0.683400 0.000000 -0.730000
vn 0.683400 0.000000 -0.730000
vn 0.902000 0.000000 -0.431700
vn 0.902000 0.000000 -0.431700
vn 0.924500 0.000000 -0.381100
vn 0.924500 0.000000 -0.381100
vn 0.683400 0.000000 -0.730000
vn 0.683400 0.000000 -0.730000
vn 0.443600 0.000000 -0.896200
vn 0.443600 0.000000 -0.896200
vn 0.548700 0.000000 -0.836000
vn 0.548700 0.000000 -0.836000
vn 0.849000 0.000000 -0.528400
vn 0.849000 0.000000 -0.528400
vn 0.999800 0.000000 0.017600
vn 0.999800 0.000000 0.017600
vn 0.847000 0.000000 0.531500
vn 0.847000 0.000000 0.531500
vn 0.582000 0.000000 0.813100
vn 0.582000 0.000000 0.813100
vn 0.512000 0.000000 0.859000
vn 0.512000 0.000000 0.858900
vn 0.764700 0.000000 0.644400
vn 0.764700 0.000000 0.644400
vn 0.930100 0.000000 0.367100
vn 0.930100 0.000000 0.367100
vn 0.823200 0.000000 0.567600
vn 0.823200 0.000000 0.567600
vn 0.616700 0.000000 0.787100
vn 0.616700 0.000000 0.787100
vn 0.677600 0.000000 0.735400
vn 0.677600 0.000000 0.735400
vn 0.895300 0.000000 0.445400
vn 0.895300 0.000000 0.445400
vn 0.973900 0.000000 0.226800
vn 0.973900 0.000000 0.226800
vn 0.863300 0.000000 0.504700
vn 0.863300 0.000000 0.504700
vn 0.527200 0.000000 0.849700
vn 0.527100 0.000000 0.849800
vn 0.265300 0.000000 0.964100
vn 0.265300 0.000000 0.964100
vn 0.144400 0.000000 0.989500
vn 0.144400 0.000000 0.989500
vn 0.112000 0.000000 0.993700
vn 0.111900 0.000000 0.993700
vn -0.005800 0.001800 -1.000000
vn 0.037500 0.002000 -0.999300
vn 0.941700 0.000000 0.336300
vn 0.809800 0.000000 0.586600
vn 0.550200 0.000000 0.835000
vn 0.559800 0.000000 0.828600
vn 0.826600 0.000000 0.562800
vn 0.999500 0.000000 0.029500
vn 0.876100 0.000000 -0.482000
vn 0.600900 0.000000 -0.799300
vn 0.422500 0.000000 -0.906300
vn 0.459500 0.000000 -0.888100
vn 0.875400 0.000000 -0.483400
vn 1.000000 0.000000 0.003300
vn 0.493800 0.000000 0.869600
vn 0.424000 0.000000 0.905600
vn 0.387100 0.000000 0.922000
vn 0.569800 0.000000 0.821700
vn 0.870800 0.000000 0.491700
vn 0.998800 0.000000 -0.049200
vn 0.844800 0.000000 -0.535100
vn 0.642000 0.000000 -0.766700
vn 0.614500 0.000000 -0.788900
vn 0.798800 0.000000 -0.601600
vn 1.000000 0.000000 -0.004100
vn 0.749000 0.000000 0.662600
vn 0.417400 0.000000 0.908700
vn 0.298500 0.000000 0.954400
vn 0.320100 0.000000 0.947400
vn 0.360700 0.000000 0.932700
vn 1.000000 0.000000 -0.003400
vn 1.000000 0.000000 -0.003400
vn 0.079300 0.000000 -0.996800
vn 0.197300 0.000000 -0.980300
vn 0.437100 0.000000 -0.899400
vn 0.683400 0.000000 -0.730000
vn 0.902000 0.000000 -0.431700
vn 0.924500 0.000000 -0.381100
vn 0.683400 0.000000 -0.730000
vn 0.443600 0.000000 -0.896200
vn 0.548700 0.000000 -0.836000
vn 0.849000 0.000000 -0.528400
vn 0.999800 0.000000 0.017600
vn 0.847000 0.000000 0.531500
vn 0.582000 0.000000 0.813100
vn 0.512000 0.000000 0.858900
vn 0.764700 0.000000 0.644400
vn 0.930100 0.000000 0.367200
vn 0.823200 0.000000 0.567600
vn 0.616700 0.000000 0.787100
vn 0.677600 0.000000 0.735400
vn 0.895300 0.000000 0.445400
vn 0.973900 0.000000 0.226800
vn 0.863200 0.000000 0.504700
vn 0.527100 0.000000 0.849800
vn 0.265300 0.000000 0.964100
vn 0.144400 0.000000 0.989500
vn 0.111900 0.000000 0.993700
vn 0.603200 0.000000 -0.797500
vn 0.373800 0.000900 -0.927500
vn 0.125700 0.001600 -0.992100
vn 0.170200 0.001100 -0.985400
vt 0.000000 0.000000
vt 0.000000 0.000000
vt 0.000000 0.000000
vt 0.000000 0.000000
vt 0.000000 0.000000
vt 0.000000 0.000000
vt 0.000000 0.000000
vt 0.000000 0.000000
vt 0.000000 0.000000
vt 0.000000 0.000000
vt 0.000000 0.000000
vt 0.000000 0.000000
vt 0.000000 0.000000
vt 0.000000 0.000000
vt 0.000000 0.000000
vt 0.000000 0.000000
vt 0.000000 0.000000
vt 0.000000 0.000000
vt 0.000000 0.000000
vt 0.000000 0.000000
vt 0.000000 0.000000
vt 0.000000 0.000000
vt 0.000000 0.000000
vt 0.000000 0.000000
vt 0.000000 0.000000
vt 0.000000 0.000000
vt 0.000000 0.000000
vt 0.000000 0.000000
vt 0.000000 0.000000
vt 0.000000 0.000000
vt 0.000000 0.000000
vt 0.000000 0.000000
vt 0.000000 0.000000
vt 0.000000 0.000000
vt 0.000000 0.000000
vt 0.000000 0.000000
vt 0.000000 0.000000
vt 0.000000 0.000000
vt 0.000000 0.000000
vt 0.000000 0.000000
vt 0.000000 0.000000
vt 0.000000 0.000000
vt 0.000000 0.000000
vt 0.000000 0.000000
vt 0.000000 0.000000
vt 0.000000 0.000000
vt 0.000000 0.000000
vt 0.000000 0.000000
vt 0.000000 0.000000
vt 0.000000 0.000000
vt 0.000000 0.000000
vt 0.000000 0.000000
vt 0.000000 0.000000
vt 0.000000 0.000000
vt 0.000000 0.000000
vt 0.000000 0.000000
vt 0.000000 0.000000
vt 0.000000 0.000000
vt 0.000000 0.000000
vt 0.000000 0.000000
vt 0.000000 0.000000
vt 0.000000 0.000000
vt 0.000000 0.000000
vt 0.000000 0.000000
vt 0.000000 0.000000
vt 0.000000 0.000000
vt 0.000000 0.000000
vt 0.000000 0.000000
vt 0.000000 0.000000
vt 0.000000 0.000000
vt 0.000000 0.000000
vt 0.000000 0.000000
vt 0.000000 0.000000
vt 0.000000 0.000000
vt 0.000000 0.000000
vt 0.000000 0.000000
vt 0.000000 0.000000
vt 0.000000 0.000000
vt 0.000000 0.000000
vt 0.000000 0.000000
vt 0.000000 0.000000
vt 0.000000 0.000000
vt 0.000000 0.000000
vt 0.000000 0.000000
vt 0.000000 0.000000
vt 0.000000 0.000000
vt 0.000000 0.000000
vt 0.000000 0.000000
vt 0.000000 0.000000
vt 0.000000 0.000000
vt 0.000000 0.000000
vt 0.000000 0.000000
vt 0.000000 0.000000
vt 0.000000 0.000000
vt 0.000000 0.000000
vt 0.000000 0.000000
vt 0.000000 0.000000
vt 0.000000 0.000000
vt 0.000000 0.000000
vt 0.000000 0.000000
vt 0.000000 0.000000
vt 0.000000 0.000000
vt 0.000000 0.000000
vt 0.000000 0.000000
vt 0.000000 0.000000
vt 0.000000 0.000000
vt 0.000000 0.000000
vt 0.000000 0.000000
vt 0.000000 0.000000
vt 0.000000 0.000000
vt 0.000000 0.000000
vt 0.000000 0.000000
vt 0.000000 0.000000
vt 0.000000 0.000000
vt 0.000000 0.000000
vt 0.000000 0.000000
vt 0.000000 0.000000
vt 0.000000 0.000000
vt 0.000000 0.000000
vt 0.000000 0.000000
vt 0.000000 0.000000
vt 0.000000 0.000000
vt 0.000000 0.000000
vt 0.000000 0.000000
vt 0.000000 0.000000
vt 0.000000 0.000000
vt 0.000000 0.000000
vt 0.000000 0.000000
vt 0.000000 0.000000
vt 0.000000 0.000000
vt 0.000000 0.000000
vt 0.000000 0.000000
vt 0.000000 0.000000
vt 0.000000 0.000000
vt 0.000000 0.000000
vt 0.000000 0.000000
vt 0.000000 0.000000
vt 0.000000 0.000000
vt 0.000000 0.000000
vt 0.000000 0.000000
vt 0.000000 0.000000
vt 0.000000 0.000000
vt 0.000000 0.000000
vt 0.000000 0.000000
vt 0.000000 0.000000
vt 0.000000 0.000000
vt 0.000000 0.000000
vt 0.000000 0.000000
vt 0.000000 0.000000
vt 0.000000 0.000000
vt 0.000000 0.000000
vt 0.000000 0.000000
vt 0.000000 0.000000
vt 0.000000 0.000000
vt 0.000000 0.000000
vt 0.000000 0.000000
vt 0.000000 0.000000
vt 0.000000 0.000000
vt 0.000000 0.000000
vt 0.000000 0.000000
vt 0.000000 0.000000
vt 0.000000 0.000000
vt 0.000000 0.000000
vt 0.000000 0.000000
vt 0.000000 0.000000
vt 0.000000 0.000000
vt 0.000000 0.000000
vt 0.000000 0.000000
vt 0.000000 0.000000
vt 0.000000 0.000000
vt 0.000000 0.000000
vt 0.000000 0.000000
vt 0.000000 0.000000
vt 0.000000 0.000000
vt 0.000000 0.000000
vt 0.000000 0.000000
vt 0.000000 0.000000
vt 0.000000 0.000000
f 1/1/1 2/2/2 3/3/3
f 1/1/1 3/3/3 4/4/4
f 5/5/5 6/6/6 7/7/7
f 5/5/5 7/7/7 8/8/8
f 9/9/9 5/5/5 8/8/8
f 9/9/9 8/8/8 10/10/10
f 11/11/11 9/9/9 10/10/10
f 11/11/11 10/10/10 12/12/12
f 13/13/13 11/11/11 12/12/12
f 13/13/13 12/12/12 14/14/14
f 15/15/15 13/13/13 14/14/14
f 15/15/15 14/14/14 16/16/16
f 17/17/17 15/15/15 16/16/16
f 17/17/17 16/16/16 18/18/18
f 19/19/19 17/17/17 18/18/18
f 19/19/19 18/18/18 20/20/20
f 21/21/21 19/19/19 20/20/20
f 21/21/21 20/20/20 22/22/22
f 23/23/23 21/21/21 22/22/22
f 23/23/23 22/22/22 24/24/24
f 25/25/25 23/23/23 24/24/24
f 25/25/25 24/24/24 26/26/26
f 27/27/27 25/25/25 26/26/26
f 27/27/27 26/26/26 28/28/28
f 29/29/29 30/30/30 31/31/31
f 29/29/29 31/31/31 32/32/32
f 33/33/33 29/29/29 32/32/32
f 33/33/33 32/32/32 34/34/34
f 35/35/35 33/33/33 34/34/34
f 35/35/35 34/34/34 36/36/36
f 37/37/37 35/35/35 36/36/36
f 37/37/37 36/36/36 38/38/38
f 39/39/39 37/37/37 38/38/38
f 39/39/39 38/38/38 40/40/40
f 41/41/41 39/39/39 40/40/40
f 41/41/41 40/40/40 42/42/42
f 43/43/43 41/41/41 42/42/42
f 43/43/43 42/42/42 44/44/44
f 45/45/45 43/43/43 44/44/44
f 45/45/45 44/44/44 46/46/46
f 47/47/47 45/45/45 46/46/46
f 47/47/47 46/46/46 48/48/48
f 49/49/49 47/47/47 48/48/48
f 49/49/49 48/48/48 50/50/50
f 51/51/51 49/49/49 50/50/50
f 51/51/51 50/50/50 52/52/52
f 53/53/53 51/51/51 52/52/52
f 53/53/53 52/52/52 54/54/54
f 55/55/55 53/53/53 54/54/54
f 55/55/55 54/54/54 56/56/56
f 57/57/57 55/55/55 56/56/56
f 57/57/57 56/56/56 58/58/58
f 59/59/59 57/57/57 58/58/58
f 59/59/59 58/58/58 60/60/60
f 61/61/61 62/62/62 63/63/63
f 61/61/61 63/63/63 64/64/64
f 65/65/65 66/66/66 67/67/67
f 65/65/65 67/67/67 68/68/68
f 69/69/69 65/65/65 68/68/68
f 69/69/69 68/68/68 70/70/70
f 71/71/71 69/69/69 70/70/70
f 71/71/71 70/70/70 72/72/72
f 73/73/73 71/71/71 72/72/72
f 73/73/73 72/72/72 74/74/74
f 75/75/75 73/73/73 74/74/74
f 75/75/75 74/74/74 76/76/76
f 77/77/77 75/75/75 76/76/76
f 77/77/77 76/76/76 78/78/78
f 79/79/79 77/77/77 78/78/78
f 79/79/79 78/78/78 80/80/80
f 81/81/81 79/79/79 80/80/80
f 81/81/81 80/80/80 82/82/82
f 83/83/83 81/81/81 82/82/82
f 83/83/83 82/82/82 84/84/84
f 85/85/85 83/83/83 84/84/84
f 85/85/85 84/84/84 86/86/86
f 87/87/87 85/85/85 86/86/86
f 87/87/87 86/86/86 88/88/88
f 89/89/89 87/87/87 88/88/88
f 89/89/89 88/88/88 90/90/90
f 91/91/91 89/89/89 90/90/90
f 91/91/91 90/90/90 92/92/92
f 93/93/93 91/91/91 92/92/92
f 93/93/93 92/92/92 94/94/94
f 95/95/95 93/93/93 94/94/94
f 95/95/95 94/94/94 96/96/96
f 97/97/97 95/95/95 96/96/96
f 97/97/97 96/96/96 98/98/98
f 99/99/99 97/97/97 98/98/98
f 99/99/99 98/98/98 100/100/100
f 101/101/101 99/99/99 100/100/100
f 101/101/101 100/100/100 102/102/102
f 103/103/103 101/101/101 102/102/102
f 103/103/103 102/102/102 104/104/104
f 105/105/105 103/103/103 104/104/104
f 105/105/105 104/104/104 106/106/106
f 107/107/107 105/105/105 106/106/106
f 107/107/107 106/106/106 108/108/108
f 109/109/109 107/107/107 108/108/108
f 109/109/109 108/108/108 110/110/110
f 111/111/111 109/109/109 110/110/110
f 111/111/111 110/110/110 112/112/112
f 113/113/113 111/111/111 112/112/112
f 113/113/113 112/112/112 114/114/114
f 115/115/115 113/113/113 114/114/114
f 115/115/115 114/114/114 116/116/116
f 4/4/4 3/3/3 117/117/117
f 4/4/4 117/117/117 118/118/118
f 8/8/8 7/7/7 119/119/119
f 8/8/8 119/119/119 120/120/120
f 10/10/10 8/8/8 120/120/120
f 10/10/10 120/120/120 121/121/121
f 12/12/12 10/10/10 121/121/121
f 12/12/12 121/121/121 122/122/122
f 14/14/14 12/12/12 122/122/122
f 14/14/14 122/122/122 123/123/123
f 16/16/16 14/14/14 123/123/123
f 16/16/16 123/123/123 124/124/124
f 18/18/18 16/16/16 124/124/124
f 18/18/18 124/124/124 125/125/125
f 20/20/20 18/18/18 125/125/125
f 20/20/20 125/125/125 126/126/126
f 22/22/22 20/20/20 126/126/126
f 22/22/22 126/126/126 127/127/127
f 24/24/24 22/22/22 127/127/127
f 24/24/24 127/127/127 128/128/128
f 26/26/26 24/24/24 128/128/128
f 26/26/26 128/128/128 129/129/129
f 28/28/28 26/26/26 129/129/129
f 28/28/28 129/129/129 130/130/130
f 32/32/32 31/31/31 131/131/131
f 32/32/32 131/131/131 132/132/132
f 34/34/34 32/32/32 132/132/132
f 34/34/34 132/132/132 133/133/133
f 36/36/36 34/34/34 133/133/133
f 36/36/36 133/133/133 134/134/134
f 38/38/38 36/36/36 134/134/134
f 38/38/38 134/134/134 135/135/135
f 40/40/40 38/38/38 135/135/135
f 40/40/40 135/135/135 136/136/136
f 42/42/42 40/40/40 136/136/136
f 42/42/42 136/136/136 137/137/137
f 44/44/44 42/42/42 137/137/137
f 44/44/44 137/137/137 138/138/138
f 46/46/46 44/44/44 138/138/138
f 46/46/46 138/138/138 139/139/139
f 48/48/48 46/46/46 139/139/139
f 48/48/48 139/139/139 140/140/140
f 50/50/50 48/48/48 140/140/140
f 50/50/50 140/140/140 141/141/141
f 52/52/52 50/50/50 141/141/141
f 52/52/52 141/141/141 142/142/142
f 54/54/54 52/52/52 142/142/142
f 54/54/54 142/142/142 143/143/143
f 56/56/56 54/54/54 143/143/143
f 56/56/56 143/143/143 144/144/144
f 58/58/58 56/56/56 144/144/144
f 58/58/58 144/144/144 145/145/145
f 60/60/60 58/58/58 145/145/145
f 60/60/60 145/145/145 146/146/146
f 64/64/64 63/63/63 147/147/147
f 64/64/64 147/147/147 148/148/148
f 68/68/68 67/67/67 149/149/149
f 68/68/68 149/149/149 150/150/150
f 70/70/70 68/68/68 150/150/150
f 70/70/70 150/150/150 151/151/151
f 72/72/72 70/70/70 151/151/151
f 72/72/72 151/151/151 152/152/152
f 74/74/74 72/72/72 152/152/152
f 74/74/74 152/152/152 153/153/153
f 76/76/76 74/74/74 153/153/153
f 76/76/76 153/153/153 154/154/154
f 78/78/78 76/76/76 154/154/154
f 78/78/78 154/154/154 155/155/155
f 80/80/80 78/78/78 155/155/155
f 80/80/80 155/155/155 156/156/156
f 82/82/82 80/80/80 156/156/156
f 82/82/82 156/156/156 157/157/157
f 84/84/84 82/82/82 157/157/157
f 84/84/84 157/157/157 158/158/158
f 86/86/86 84/84/84 158/158/158
f 86/86/86 158/158/158 159/159/159
f 88/88/88 86/86/86 159/159/159
f 88/88/88 159/159/159 160/160/160
f 90/90/90 88/88/88 160/160/160
f 90/90/90 160/160/160 161/161/161
f 92/92/92 90/90/90 161/161/161
f 92/92/92 161/161/161 162/162/162
f 94/94/94 92/92/92 162/162/162
f 94/94/94 162/162/162 163/163/163
f 96/96/96 94/94/94 163/163/163
f 96/96/96 163/163/163 164/164/164
f 98/98/98 96/96/96 164/164/164
f 98/98/98 164/164/164 165/165/165
f 100/100/100 98/98/98 165/165/165
f 100/100/100 165/165/165 166/166/166
f 102/102/102 100/100/100 166/166/166
f 102/102/102 166/166/166 167/167/167
f 104/104/104 102/102/102 167/167/167
f 104/104/104 167/167/167 168/168/168
f 106/106/106 104/104/104 168/168/168
f 106/106/106 168/168/168 169/169/169
f 108/108/108 106/106/106 169/169/169
f 108/108/108 169/169/169 170/170/170
f 110/110/110 108/108/108 170/170/170
f 110/110/110 170/170/170 171/171/171
f 112/112/112 110/110/110 171/171/171
f 112/112/112 171/171/171 172/172/172
f 114/114/114 112/112/112 172/172/172
f 114/114/114 172/172/172 173/173/173
f 116/116/116 114/114/114 173/173/173
f 116/116/116 173/173/173 174/174/174
f 6/6/6 175/175/175 176/176/176
f 6/6/6 176/176/176 7/7/7
f 175/175/175 1/1/1 4/4/4
f 175/175/175 4/4/4 176/176/176
f 7/7/7 176/176/176 177/177/177
f 7/7/7 177/177/177 178/178/178
f 176/176/176 4/4/4 118/118/118
f 176/176/176 118/118/118 177/177/177
