v -2.405095 0.726096 -1.076876
v -2.402704 0.726856 -1.076460
v -2.402762 0.726575 -1.079833
v -2.405441 0.725679 -1.079928
v -2.407567 0.725208 -1.080174
v -2.407015 0.725721 -1.077590
v -2.406142 0.725993 -1.075980
v -2.404707 0.726310 -1.074709
v -2.402611 0.726956 -1.073981
v -2.400668 0.728224 -1.077128
v -2.399251 0.729453 -1.078033
v -2.398748 0.729448 -1.080677
v -2.400410 0.728097 -1.080215
v -2.400875 0.728153 -1.074928
v -2.399855 0.729015 -1.076338
v -2.399829 0.725540 -1.090484
v -2.398088 0.726654 -1.090704
v -2.398125 0.725058 -1.093987
v -2.399658 0.724061 -1.093783
v -2.401758 0.722856 -1.093577
v -2.402209 0.724189 -1.090260
v -2.402554 0.725307 -1.086868
v -2.400075 0.726743 -1.087108
v -2.398271 0.727941 -1.087350
v -2.404759 0.723170 -1.090203
v -2.404018 0.721965 -1.093534
v -2.405765 0.721385 -1.093551
v -2.406726 0.722501 -1.090212
v -2.407306 0.723597 -1.086835
v -2.405232 0.724264 -1.086814
v -2.405473 0.725084 -1.083315
v -2.402725 0.726081 -1.083347
v -2.407625 0.724500 -1.083372
v -2.400240 0.727600 -1.083614
v -2.398456 0.728908 -1.083895
v -2.399716 0.722374 -1.097047
v -2.398595 0.723167 -1.097226
v -2.399114 0.721868 -1.098962
v -2.399829 0.721006 -1.099470
v -2.400865 0.720317 -1.099326
v -2.401265 0.721439 -1.096874
v -2.402970 0.720810 -1.096862
v -2.402058 0.719934 -1.099343
v -2.403126 0.719939 -1.098733
v -2.404300 0.720425 -1.096900
v -2.405013 0.725845 -1.076846
v -2.402588 0.726618 -1.076433
v -2.402524 0.726778 -1.073964
v -2.404648 0.726121 -1.074691
v -2.406106 0.725850 -1.075964
v -2.406971 0.725527 -1.077567
v -2.407519 0.725017 -1.080142
v -2.405356 0.725430 -1.079888
v -2.402646 0.726339 -1.079795
v -2.400520 0.728005 -1.077103
v -2.399125 0.729299 -1.078014
v -2.399765 0.728898 -1.076326
v -2.400763 0.727989 -1.074913
v -2.400266 0.727877 -1.080178
v -2.398626 0.729292 -1.080650
v -2.399695 0.725326 -1.090398
v -2.397978 0.726499 -1.090641
v -2.398157 0.727784 -1.087298
v -2.399938 0.726525 -1.087037
v -2.402439 0.725078 -1.086795
v -2.402096 0.723963 -1.090172
v -2.401645 0.722634 -1.093479
v -2.399525 0.723850 -1.093687
v -2.398014 0.724906 -1.093915
v -2.404667 0.722935 -1.090114
v -2.405140 0.724024 -1.086740
v -2.407250 0.723413 -1.086779
v -2.406669 0.722321 -1.090145
v -2.405708 0.721207 -1.093477
v -2.403927 0.721734 -1.093436
v -2.405384 0.724840 -1.083259
v -2.402609 0.725847 -1.083292
v -2.407572 0.724312 -1.083329
v -2.400100 0.727380 -1.083560
v -2.398338 0.728751 -1.083856
v -2.399582 0.722166 -1.096948
v -2.398483 0.723017 -1.097152
v -2.401153 0.721218 -1.096773
v -2.400781 0.720152 -1.099250
v -2.399727 0.720851 -1.099395
v -2.399035 0.721755 -1.098907
v -2.402881 0.720580 -1.096759
v -2.404245 0.720247 -1.096823
v -2.403082 0.719809 -1.098676
v -2.401993 0.719761 -1.099266
v -2.398169 0.723366 -1.097252
v -2.399010 0.721585 -1.099604
v -2.397562 0.725324 -1.094023
v -2.399035 0.721755 -1.098907
v -2.401726 0.719565 -1.100136
v -2.403029 0.719653 -1.099375
v -2.400695 0.719870 -1.100110
v -2.403082 0.719809 -1.098676
v -2.407639 0.725509 -1.077818
v -2.406420 0.725927 -1.075823
v -2.408258 0.724965 -1.080241
v -2.406106 0.725850 -1.075964
v -2.400894 0.728056 -1.074188
v -2.399618 0.729198 -1.076211
v -2.402542 0.726910 -1.073148
v -2.399765 0.728898 -1.076326
v -2.398719 0.729797 -1.078327
v -2.398136 0.729831 -1.080819
v -2.399821 0.720481 -1.100245
v -2.404721 0.720216 -1.096879
v -2.406324 0.721112 -1.093523
v -2.404552 0.726298 -1.073980
v -2.408322 0.724221 -1.083372
v -2.407975 0.723292 -1.086817
v -2.397806 0.729277 -1.083972
v -2.397617 0.728272 -1.087408
v -2.397457 0.726957 -1.090750
v -2.407359 0.722197 -1.090185
vn -0.230200 0.969800 -0.079800
vn -0.435000 0.899100 -0.049000
vn -0.435700 0.893500 -0.108700
vn -0.253200 0.957400 -0.138600
vn -0.261900 0.951200 -0.163200
vn -0.238100 0.967900 -0.079900
vn -0.220900 0.975100 -0.020500
vn -0.266000 0.963800 0.014300
vn -0.430800 0.901400 0.044300
vn -0.620000 0.782400 -0.057600
vn -0.613700 0.787400 -0.058400
vn -0.593600 0.791700 -0.144200
vn -0.601600 0.789900 -0.118700
vn -0.584400 0.810800 0.032500
vn -0.624400 0.781100 0.002600
vn -0.516800 0.782600 -0.347000
vn -0.484000 0.798500 -0.357900
vn -0.477400 0.788300 -0.388000
vn -0.519600 0.766700 -0.377100
vn -0.416200 0.819000 -0.394900
vn -0.421400 0.834300 -0.355400
vn -0.429300 0.860500 -0.274300
vn -0.535300 0.799100 -0.273600
vn -0.510800 0.808400 -0.292500
vn -0.321100 0.876700 -0.358100
vn -0.309700 0.867500 -0.389000
vn -0.353700 0.847800 -0.395000
vn -0.354800 0.860600 -0.365300
vn -0.340000 0.890500 -0.302200
vn -0.315700 0.904700 -0.286100
vn -0.290300 0.935000 -0.203700
vn -0.434400 0.882000 -0.182500
vn -0.305200 0.924300 -0.229200
vn -0.567000 0.801900 -0.188000
vn -0.551900 0.805700 -0.215200
vn -0.539400 0.747600 -0.387500
vn -0.494400 0.769700 -0.403800
vn -0.519200 0.746500 -0.416100
vn -0.549400 0.712500 -0.436400
vn -0.405100 0.787700 -0.464000
vn -0.413600 0.811300 -0.413200
vn -0.283500 0.870500 -0.402100
vn -0.254600 0.854300 -0.453100
vn -0.298000 0.852900 -0.428700
vn -0.330300 0.848600 -0.413100
vn 0.203200 -0.973600 0.104200
vn 0.435400 -0.897800 0.065500
vn 0.435600 -0.890800 0.128800
vn 0.119600 -0.977600 0.173200
vn 0.001100 -0.979400 0.201700
vn 0.026000 -0.981100 0.191800
vn 0.096700 -0.976500 0.192500
vn 0.238300 -0.960900 0.140600
vn 0.435700 -0.893500 0.108600
vn 0.641900 -0.762700 0.079200
vn 0.765800 -0.625400 0.149600
vn 0.780800 -0.604700 0.157200
vn 0.703200 -0.697100 0.139800
vn 0.613700 -0.780400 0.119200
vn 0.718600 -0.677500 0.157000
vn 0.530600 -0.774500 0.344300
vn 0.622900 -0.712900 0.322200
vn 0.636800 -0.722000 0.270400
vn 0.547900 -0.791100 0.271900
vn 0.429300 -0.860400 0.274500
vn 0.421300 -0.834300 0.355600
vn 0.416200 -0.818900 0.395000
vn 0.535900 -0.757900 0.372000
vn 0.641700 -0.696600 0.320800
vn 0.305900 -0.882500 0.357100
vn 0.301500 -0.909500 0.286000
vn 0.192500 -0.935700 0.295700
vn 0.198700 -0.916800 0.346400
vn 0.174100 -0.921400 0.347500
vn 0.292300 -0.875000 0.385900
vn 0.276300 -0.939100 0.204200
vn 0.434400 -0.882000 0.182500
vn 0.156300 -0.959900 0.232700
vn 0.579000 -0.793600 0.186900
vn 0.672300 -0.711800 0.203300
vn 0.563100 -0.740700 0.366300
vn 0.685700 -0.672100 0.279300
vn 0.415200 -0.816000 0.402100
vn 0.421700 -0.835300 0.352600
vn 0.628700 -0.721400 0.290200
vn 0.710900 -0.658000 0.248200
vn 0.261600 -0.885700 0.383500
vn 0.124000 -0.942200 0.311300
vn 0.094500 -0.954300 0.283300
vn 0.198800 -0.928100 0.314700
vn 0.779000 0.419300 -0.466100
vn 0.598500 0.210400 -0.772900
vn 0.824200 0.464900 -0.323200
vn 0.710900 -0.658000 0.248200
vn -0.101200 -0.440400 -0.892000
vn -0.606600 -0.368800 -0.704200
vn 0.179800 -0.476000 -0.860800
vn 0.094500 -0.954300 0.283300
vn -0.941300 -0.059900 0.332000
vn -0.791600 0.003700 0.611000
vn -0.980000 -0.140400 0.141000
vn 0.001100 -0.979400 0.201700
vn 0.427000 0.348100 0.834600
vn 0.544600 0.646000 0.534900
vn 0.055200 0.004400 0.998400
vn 0.780800 -0.604700 0.157200
vn 0.661200 0.710500 0.240600
vn 0.730200 0.681800 0.043400
vn 0.323600 -0.236200 -0.916200
vn -0.852900 -0.365100 -0.373100
vn -0.903100 -0.365600 -0.225000
vn -0.458600 -0.077500 0.885200
vn -0.975800 -0.218100 0.015000
vn -0.960500 -0.273700 -0.050200
vn 0.776400 0.624500 -0.084700
vn 0.804200 0.574800 -0.151000
vn 0.826000 0.521200 -0.214700
vn -0.938100 -0.327000 -0.114200
vt 0.839504 0.118056
vt 0.856743 0.205307
vt 0.741230 0.205307
vt 0.734555 0.106726
vt 0.724541 0.032791
vt 0.813647 0.052618
vt 0.868992 0.081539
vt 0.913398 0.129584
vt 0.940923 0.205307
vt 0.839504 0.292557
vt 0.813647 0.357995
vt 0.724541 0.377822
vt 0.734555 0.303887
vt 0.913398 0.281029
vt 0.868992 0.329074
vt 0.369475 0.299954
vt 0.368286 0.370940
vt 0.245840 0.351447
vt 0.246397 0.288815
vt 0.246768 0.205307
vt 0.370268 0.205307
vt 0.494283 0.205307
vt 0.492822 0.304944
vt 0.490632 0.379672
vt 0.369475 0.110659
vt 0.246397 0.121798
vt 0.245841 0.059166
vt 0.368286 0.039673
vt 0.490632 0.030941
vt 0.492822 0.105669
vt 0.616755 0.103478
vt 0.619174 0.205307
vt 0.613127 0.027106
vt 0.616755 0.307135
vt 0.613126 0.383507
vt 0.123273 0.268175
vt 0.123047 0.315326
vt 0.054743 0.283353
vt 0.030912 0.249131
vt 0.030973 0.205306
vt 0.123423 0.205306
vt 0.123273 0.142438
vt 0.030912 0.161481
vt 0.054744 0.127260
vt 0.123047 0.095287
vt 0.839504 0.118056
vt 0.856743 0.205307
vt 0.968983 0.205307
vt 0.938030 0.133427
vt 0.876123 0.061548
vt 0.805028 0.030806
vt 0.721203 0.008146
vt 0.734555 0.106726
vt 0.741230 0.205307
vt 0.839504 0.292557
vt 0.805028 0.379807
vt 0.876123 0.349065
vt 0.938030 0.277186
vt 0.734555 0.303887
vt 0.721203 0.402467
vt 0.369475 0.299954
vt 0.367890 0.394602
vt 0.489902 0.404581
vt 0.492822 0.304944
vt 0.494283 0.205307
vt 0.370268 0.205307
vt 0.246768 0.205307
vt 0.246397 0.288815
vt 0.245655 0.372324
vt 0.369475 0.110659
vt 0.492822 0.105669
vt 0.489902 0.006032
vt 0.367890 0.016011
vt 0.245655 0.038289
vt 0.246397 0.121798
vt 0.616755 0.103478
vt 0.619174 0.205307
vt 0.611917 0.001649
vt 0.616755 0.307135
vt 0.611917 0.408964
vt 0.123273 0.268175
vt 0.122972 0.331043
vt 0.123423 0.205306
vt 0.000156 0.205306
vt 0.000125 0.242784
vt 0.000064 0.280261
vt 0.123273 0.142438
vt 0.122972 0.079570
vt 0.000064 0.130352
vt 0.000125 0.167829
vt 0.122972 0.331043
vt 0.030806 0.283587
vt 0.245655 0.372324
vt 0.030806 0.283587
vt 0.000125 0.167829
vt 0.030806 0.127026
vt 0.000156 0.205306
vt 0.030806 0.127026
vt 0.805028 0.030806
vt 0.873826 0.071832
vt 0.721203 0.008146
vt 0.873826 0.071832
vt 0.938030 0.277186
vt 0.873826 0.338781
vt 0.968983 0.205307
vt 0.873826 0.338781
vt 0.805028 0.379807
vt 0.721203 0.402467
vt 0.000125 0.242784
vt 0.122972 0.079570
vt 0.245655 0.038289
vt 0.938030 0.133427
vt 0.611917 0.001649
vt 0.489902 0.006032
vt 0.611917 0.408964
vt 0.489902 0.404581
vt 0.367890 0.394602
vt 0.367890 0.016011
f 1/1/1 2/2/2 3/3/3
f 1/1/1 3/3/3 4/4/4
f 1/1/1 4/4/4 5/5/5
f 1/1/1 5/5/5 6/6/6
f 1/1/1 6/6/6 7/7/7
f 1/1/1 7/7/7 8/8/8
f 1/1/1 8/8/8 9/9/9
f 1/1/1 9/9/9 2/2/2
f 10/10/10 11/11/11 12/12/12
f 10/10/10 12/12/12 13/13/13
f 10/10/10 13/13/13 3/3/3
f 10/10/10 3/3/3 2/2/2
f 10/10/10 2/2/2 9/9/9
f 10/10/10 9/9/9 14/14/14
f 10/10/10 14/14/14 15/15/15
f 10/10/10 15/15/15 11/11/11
f 16/16/16 17/17/17 18/18/18
f 16/16/16 18/18/18 19/19/19
f 16/16/16 19/19/19 20/20/20
f 16/16/16 20/20/20 21/21/21
f 16/16/16 21/21/21 22/22/22
f 16/16/16 22/22/22 23/23/23
f 16/16/16 23/23/23 24/24/24
f 16/16/16 24/24/24 17/17/17
f 25/25/25 21/21/21 20/20/20
f 25/25/25 20/20/20 26/26/26
f 25/25/25 26/26/26 27/27/27
f 25/25/25 27/27/27 28/28/28
f 25/25/25 28/28/28 29/29/29
f 25/25/25 29/29/29 30/30/30
f 25/25/25 30/30/30 22/22/22
f 25/25/25 22/22/22 21/21/21
f 31/31/31 32/32/32 22/22/22
f 31/31/31 22/22/22 30/30/30
f 31/31/31 30/30/30 29/29/29
f 31/31/31 29/29/29 33/33/33
f 31/31/31 33/33/33 5/5/5
f 31/31/31 5/5/5 4/4/4
f 31/31/31 4/4/4 3/3/3
f 31/31/31 3/3/3 32/32/32
f 34/34/34 35/35/35 24/24/24
f 34/34/34 24/24/24 23/23/23
f 34/34/34 23/23/23 22/22/22
f 34/34/34 22/22/22 32/32/32
f 34/34/34 32/32/32 3/3/3
f 34/34/34 3/3/3 13/13/13
f 34/34/34 13/13/13 12/12/12
f 34/34/34 12/12/12 35/35/35
f 36/36/36 37/37/37 38/38/38
f 36/36/36 38/38/38 39/39/39
f 36/36/36 39/39/39 40/40/40
f 36/36/36 40/40/40 41/41/41
f 36/36/36 41/41/41 20/20/20
f 36/36/36 20/20/20 19/19/19
f 36/36/36 19/19/19 18/18/18
f 36/36/36 18/18/18 37/37/37
f 42/42/42 41/41/41 40/40/40
f 42/42/42 40/40/40 43/43/43
f 42/42/42 43/43/43 44/44/44
f 42/42/42 44/44/44 45/45/45
f 42/42/42 45/45/45 27/27/27
f 42/42/42 27/27/27 26/26/26
f 42/42/42 26/26/26 20/20/20
f 42/42/42 20/20/20 41/41/41
f 46/46/46 47/47/47 48/48/48
f 46/46/46 48/48/48 49/49/49
f 46/46/46 49/49/49 50/50/50
f 46/46/46 50/50/50 51/51/51
f 46/46/46 51/51/51 52/52/52
f 46/46/46 52/52/52 53/53/53
f 46/46/46 53/53/53 54/54/54
f 46/46/46 54/54/54 47/47/47
f 55/55/55 56/56/56 57/57/57
f 55/55/55 57/57/57 58/58/58
f 55/55/55 58/58/58 48/48/48
f 55/55/55 48/48/48 47/47/47
f 55/55/55 47/47/47 54/54/54
f 55/55/55 54/54/54 59/59/59
f 55/55/55 59/59/59 60/60/60
f 55/55/55 60/60/60 56/56/56
f 61/61/61 62/62/62 63/63/63
f 61/61/61 63/63/63 64/64/64
f 61/61/61 64/64/64 65/65/65
f 61/61/61 65/65/65 66/66/66
f 61/61/61 66/66/66 67/67/67
f 61/61/61 67/67/67 68/68/68
f 61/61/61 68/68/68 69/69/69
f 61/61/61 69/69/69 62/62/62
f 70/70/70 66/66/66 65/65/65
f 70/70/70 65/65/65 71/71/71
f 70/70/70 71/71/71 72/72/72
f 70/70/70 72/72/72 73/73/73
f 70/70/70 73/73/73 74/74/74
f 70/70/70 74/74/74 75/75/75
f 70/70/70 75/75/75 67/67/67
f 70/70/70 67/67/67 66/66/66
f 76/76/76 77/77/77 54/54/54
f 76/76/76 54/54/54 53/53/53
f 76/76/76 53/53/53 52/52/52
f 76/76/76 52/52/52 78/78/78
f 76/76/76 78/78/78 72/72/72
f 76/76/76 72/72/72 71/71/71
f 76/76/76 71/71/71 65/65/65
f 76/76/76 65/65/65 77/77/77
f 79/79/79 80/80/80 60/60/60
f 79/79/79 60/60/60 59/59/59
f 79/79/79 59/59/59 54/54/54
f 79/79/79 54/54/54 77/77/77
f 79/79/79 77/77/77 65/65/65
f 79/79/79 65/65/65 64/64/64
f 79/79/79 64/64/64 63/63/63
f 79/79/79 63/63/63 80/80/80
f 81/81/81 82/82/82 69/69/69
f 81/81/81 69/69/69 68/68/68
f 81/81/81 68/68/68 67/67/67
f 81/81/81 67/67/67 83/83/83
f 81/81/81 83/83/83 84/84/84
f 81/81/81 84/84/84 85/85/85
f 81/81/81 85/85/85 86/86/86
f 81/81/81 86/86/86 82/82/82
f 87/87/87 83/83/83 67/67/67
f 87/87/87 67/67/67 75/75/75
f 87/87/87 75/75/75 74/74/74
f 87/87/87 74/74/74 88/88/88
f 87/87/87 88/88/88 89/89/89
f 87/87/87 89/89/89 90/90/90
f 87/87/87 90/90/90 84/84/84
f 87/87/87 84/84/84 83/83/83
f 91/91/91 92/92/92 38/38/38
f 91/91/91 38/38/38 37/37/37
f 91/91/91 37/37/37 18/18/18
f 91/91/91 18/18/18 93/93/93
f 91/91/91 93/93/93 69/69/69
f 91/91/91 69/69/69 82/82/82
f 91/91/91 82/82/82 94/94/94
f 91/91/91 94/94/94 92/92/92
f 95/95/95 96/96/96 44/44/44
f 95/95/95 44/44/44 43/43/43
f 95/95/95 43/43/43 40/40/40
f 95/95/95 40/40/40 97/97/97
f 95/95/95 97/97/97 84/84/84
f 95/95/95 84/84/84 90/90/90
f 95/95/95 90/90/90 98/98/98
f 95/95/95 98/98/98 96/96/96
f 99/99/99 100/100/100 7/7/7
f 99/99/99 7/7/7 6/6/6
f 99/99/99 6/6/6 5/5/5
f 99/99/99 5/5/5 101/101/101
f 99/99/99 101/101/101 52/52/52
f 99/99/99 52/52/52 51/51/51
f 99/99/99 51/51/51 102/102/102
f 99/99/99 102/102/102 100/100/100
f 103/103/103 104/104/104 15/15/15
f 103/103/103 15/15/15 14/14/14
f 103/103/103 14/14/14 9/9/9
f 103/103/103 9/9/9 105/105/105
f 103/103/103 105/105/105 48/48/48
f 103/103/103 48/48/48 58/58/58
f 103/103/103 58/58/58 106/106/106
f 103/103/103 106/106/106 104/104/104
f 107/107/107 108/108/108 12/12/12
f 107/107/107 12/12/12 11/11/11
f 107/107/107 11/11/11 15/15/15
f 107/107/107 15/15/15 104/104/104
f 107/107/107 104/104/104 106/106/106
f 107/107/107 106/106/106 56/56/56
f 107/107/107 56/56/56 60/60/60
f 107/107/107 60/60/60 108/108/108
f 109/109/109 97/97/97 40/40/40
f 109/109/109 40/40/40 39/39/39
f 109/109/109 39/39/39 38/38/38
f 109/109/109 38/38/38 92/92/92
f 109/109/109 92/92/92 94/94/94
f 109/109/109 94/94/94 85/85/85
f 109/109/109 85/85/85 84/84/84
f 109/109/109 84/84/84 97/97/97
f 110/110/110 111/111/111 27/27/27
f 110/110/110 27/27/27 45/45/45
f 110/110/110 45/45/45 44/44/44
f 110/110/110 44/44/44 96/96/96
f 110/110/110 96/96/96 98/98/98
f 110/110/110 98/98/98 88/88/88
f 110/110/110 88/88/88 74/74/74
f 110/110/110 74/74/74 111/111/111
f 112/112/112 105/105/105 9/9/9
f 112/112/112 9/9/9 8/8/8
f 112/112/112 8/8/8 7/7/7
f 112/112/112 7/7/7 100/100/100
f 112/112/112 100/100/100 102/102/102
f 112/112/112 102/102/102 49/49/49
f 112/112/112 49/49/49 48/48/48
f 112/112/112 48/48/48 105/105/105
f 113/113/113 101/101/101 5/5/5
f 113/113/113 5/5/5 33/33/33
f 113/113/113 33/33/33 29/29/29
f 113/113/113 29/29/29 114/114/114
f 113/113/113 114/114/114 72/72/72
f 113/113/113 72/72/72 78/78/78
f 113/113/113 78/78/78 52/52/52
f 113/113/113 52/52/52 101/101/101
f 115/115/115 116/116/116 24/24/24
f 115/115/115 24/24/24 35/35/35
f 115/115/115 35/35/35 12/12/12
f 115/115/115 12/12/12 108/108/108
f 115/115/115 108/108/108 60/60/60
f 115/115/115 60/60/60 80/80/80
f 115/115/115 80/80/80 63/63/63
f 115/115/115 63/63/63 116/116/116
f 117/117/117 93/93/93 18/18/18
f 117/117/117 18/18/18 17/17/17
f 117/117/117 17/17/17 24/24/24
f 117/117/117 24/24/24 116/116/116
f 117/117/117 116/116/116 63/63/63
f 117/117/117 63/63/63 62/62/62
f 117/117/117 62/62/62 69/69/69
f 117/117/117 69/69/69 93/93/93
f 118/118/118 114/114/114 29/29/29
f 118/118/118 29/29/29 28/28/28
f 118/118/118 28/28/28 27/27/27
f 118/118/118 27/27/27 111/111/111
f 118/118/118 111/111/111 74/74/74
f 118/118/118 74/74/74 73/73/73
f 118/118/118 73/73/73 72/72/72
f 118/118/118 72/72/72 114/114/114
