v -2.386891 0.736189 -1.185198
v -2.385755 0.736006 -1.187989
v -2.389383 0.734345 -1.188471
v -2.390239 0.734659 -1.185240
v -2.391170 0.735080 -1.182848
v -2.388284 0.736414 -1.183167
v -2.386274 0.736950 -1.183881
v -2.384439 0.737126 -1.185267
v -2.383040 0.737096 -1.187628
v -2.386105 0.736150 -1.190984
v -2.386906 0.736347 -1.193316
v -2.389605 0.735004 -1.194376
v -2.389346 0.734616 -1.191817
v -2.383759 0.737093 -1.190276
v -2.385159 0.736896 -1.192099
v -2.399637 0.727486 -1.193099
v -2.399537 0.727700 -1.195555
v -2.402692 0.724741 -1.195300
v -2.402765 0.724541 -1.193125
v -2.402990 0.724397 -1.190252
v -2.399904 0.727335 -1.189853
v -2.396638 0.730037 -1.189427
v -2.396375 0.730221 -1.192826
v -2.396298 0.730481 -1.195399
v -2.400511 0.727529 -1.186655
v -2.403539 0.724578 -1.187426
v -2.404048 0.724807 -1.185313
v -2.401069 0.727774 -1.184264
v -2.397902 0.730559 -1.183588
v -2.397290 0.730265 -1.186085
v -2.393785 0.732663 -1.185574
v -2.393071 0.732365 -1.188959
v -2.394489 0.733061 -1.183052
v -2.392857 0.732618 -1.192414
v -2.392862 0.732982 -1.195038
v -2.405885 0.721508 -1.192792
v -2.405881 0.721706 -1.194425
v -2.407611 0.719917 -1.193521
v -2.408194 0.719172 -1.192409
v -2.408232 0.719024 -1.190929
v -2.406013 0.721363 -1.190643
v -2.406462 0.721536 -1.188539
v -2.408589 0.719191 -1.189494
v -2.408323 0.719951 -1.188277
v -2.406893 0.721755 -1.186967
v -2.386758 0.735909 -1.185134
v -2.385616 0.735723 -1.187968
v -2.382940 0.736883 -1.187613
v -2.384344 0.736915 -1.185218
v -2.386204 0.736795 -1.183835
v -2.388188 0.736208 -1.183098
v -2.391064 0.734877 -1.182783
v -2.390094 0.734385 -1.185179
v -2.389233 0.734068 -1.188449
v -2.385961 0.735871 -1.191007
v -2.386796 0.736141 -1.193354
v -2.385079 0.736741 -1.192123
v -2.383655 0.736881 -1.190296
v -2.389191 0.734341 -1.191833
v -2.389486 0.734801 -1.194408
v -2.399433 0.727243 -1.193098
v -2.399383 0.727518 -1.195569
v -2.396155 0.730291 -1.195416
v -2.396185 0.729967 -1.192828
v -2.396452 0.729783 -1.189400
v -2.399704 0.727091 -1.189824
v -2.402779 0.724161 -1.190222
v -2.402552 0.724306 -1.193123
v -2.402531 0.724565 -1.195313
v -2.400315 0.727286 -1.186599
v -2.397108 0.730012 -1.186028
v -2.397768 0.730370 -1.183531
v -2.400925 0.727593 -1.184208
v -2.403896 0.724632 -1.185256
v -2.403333 0.724343 -1.187368
v -2.393623 0.732398 -1.185516
v -2.392903 0.732098 -1.188934
v -2.394370 0.732865 -1.182991
v -2.392685 0.732353 -1.192423
v -2.392731 0.732785 -1.195062
v -2.405668 0.721276 -1.192792
v -2.405717 0.721533 -1.194440
v -2.405800 0.721131 -1.190612
v -2.408071 0.718850 -1.190906
v -2.408031 0.718998 -1.192410
v -2.407490 0.719789 -1.193528
v -2.406253 0.721304 -1.188479
v -2.406740 0.721583 -1.186907
v -2.408208 0.719824 -1.188236
v -2.408432 0.719018 -1.189448
v -2.405807 0.721695 -1.194979
v -2.408195 0.719315 -1.193601
v -2.402596 0.724730 -1.196034
v -2.407490 0.719789 -1.193528
v -2.409229 0.718333 -1.189792
v -2.408908 0.719350 -1.188347
v -2.408900 0.718166 -1.191014
v -2.408208 0.719824 -1.188236
v -2.388707 0.736399 -1.182455
v -2.386189 0.737080 -1.183527
v -2.391434 0.735131 -1.182017
v -2.386204 0.736795 -1.183835
v -2.382932 0.737313 -1.190049
v -2.384982 0.737021 -1.192419
v -2.382092 0.737364 -1.187501
v -2.385079 0.736741 -1.192123
v -2.387124 0.736322 -1.194115
v -2.389638 0.735044 -1.195247
v -2.408891 0.718316 -1.192281
v -2.406969 0.721752 -1.186413
v -2.404151 0.724805 -1.184580
v -2.383581 0.737344 -1.185268
v -2.394671 0.733107 -1.182180
v -2.398047 0.730573 -1.182727
v -2.392805 0.733016 -1.195927
v -2.396209 0.730484 -1.196267
v -2.399435 0.727690 -1.196383
v -2.401192 0.727776 -1.183439
vn -0.372700 0.886300 -0.274900
vn -0.392200 0.917900 -0.059300
vn -0.446000 0.892500 -0.066400
vn -0.431100 0.864200 -0.259500
vn -0.455000 0.853700 -0.253300
vn -0.374800 0.887700 -0.267300
vn -0.316400 0.907900 -0.275100
vn -0.295900 0.928400 -0.224700
vn -0.305500 0.951000 -0.047700
vn -0.431000 0.889100 0.154100
vn -0.431000 0.890400 0.146200
vn -0.504600 0.856100 0.111800
vn -0.483100 0.866700 0.124000
vn -0.343500 0.930700 0.125600
vn -0.376700 0.910800 0.169000
vn -0.664800 0.746900 0.014500
vn -0.668300 0.743500 -0.023300
vn -0.691500 0.721800 -0.029200
vn -0.689600 0.723900 0.019300
vn -0.685800 0.721200 -0.097800
vn -0.654700 0.750100 -0.093800
vn -0.588600 0.803900 -0.085200
vn -0.606900 0.793900 0.035400
vn -0.618700 0.785500 0.006500
vn -0.635500 0.745400 -0.200900
vn -0.658300 0.722300 -0.211800
vn -0.673000 0.720800 -0.165500
vn -0.648900 0.742600 -0.165400
vn -0.593200 0.784300 -0.181300
vn -0.574100 0.792300 -0.206200
vn -0.497500 0.836900 -0.228200
vn -0.510800 0.856400 -0.075000
vn -0.523100 0.824800 -0.214700
vn -0.538800 0.838900 0.076400
vn -0.559900 0.826600 0.056900
vn -0.701000 0.711800 0.043500
vn -0.706900 0.707200 -0.008600
vn -0.720700 0.692900 0.021700
vn -0.740900 0.668900 0.060300
vn -0.738600 0.665900 -0.104600
vn -0.700000 0.707100 -0.099700
vn -0.662700 0.710000 -0.238100
vn -0.696800 0.666700 -0.264300
vn -0.687600 0.691300 -0.221900
vn -0.682500 0.706000 -0.189200
vn 0.387500 -0.870200 0.304300
vn 0.407200 -0.911300 0.061300
vn 0.463900 -0.883200 0.068800
vn 0.425600 -0.816300 0.390400
vn 0.415100 -0.761100 0.498500
vn 0.414100 -0.775800 0.476000
vn 0.435900 -0.799600 0.413000
vn 0.429100 -0.860600 0.274400
vn 0.445900 -0.892600 0.066400
vn 0.453100 -0.873300 -0.178700
vn 0.524800 -0.781100 -0.338400
vn 0.531600 -0.766700 -0.359900
vn 0.512800 -0.820600 -0.252100
vn 0.485200 -0.863300 -0.138900
vn 0.528900 -0.804100 -0.271600
vn 0.664800 -0.746400 -0.030800
vn 0.659000 -0.738300 -0.143400
vn 0.617800 -0.769800 -0.160100
vn 0.607500 -0.792700 -0.050400
vn 0.588800 -0.803800 0.085200
vn 0.654800 -0.749900 0.093800
vn 0.685900 -0.721100 0.097900
vn 0.688000 -0.724600 -0.038400
vn 0.659900 -0.732400 -0.167800
vn 0.631200 -0.744800 0.216500
vn 0.570700 -0.790900 0.220800
vn 0.551500 -0.766500 0.329000
vn 0.595600 -0.735200 0.323500
vn 0.590000 -0.728900 0.347100
vn 0.651600 -0.722900 0.229800
vn 0.494400 -0.834700 0.242300
vn 0.510800 -0.856400 0.075000
vn 0.487800 -0.794900 0.360700
vn 0.539700 -0.836900 -0.090900
vn 0.564900 -0.798700 -0.207300
vn 0.687300 -0.722900 -0.071000
vn 0.629800 -0.743600 -0.224500
vn 0.691400 -0.715700 0.098600
vn 0.652400 -0.752000 0.093500
vn 0.633400 -0.759100 -0.150100
vn 0.605800 -0.752500 -0.258300
vn 0.642300 -0.720700 0.261000
vn 0.545900 -0.739500 0.393900
vn 0.513700 -0.748000 0.420200
vn 0.569200 -0.756000 0.323300
vn -0.282100 -0.115400 -0.952400
vn -0.572300 -0.329300 -0.751000
vn -0.147300 -0.044900 -0.988100
vn 0.605800 -0.752500 -0.258300
vn -0.749400 -0.647000 0.140600
vn -0.752400 -0.320600 0.575400
vn -0.624000 -0.777300 -0.079500
vn 0.513700 -0.748000 0.420200
vn 0.023600 0.437800 0.898800
vn 0.312600 0.530500 0.787900
vn -0.145700 0.317500 0.936900
vn 0.415100 -0.761100 0.498500
vn 0.820700 0.419500 -0.387800
vn 0.512200 0.520800 -0.682900
vn 0.934900 0.332200 0.124500
vn 0.531600 -0.766700 -0.359900
vn 0.263000 0.426200 -0.865500
vn 0.109800 0.305300 -0.945900
vn -0.686000 -0.650000 -0.326900
vn -0.525800 -0.103600 0.844300
vn -0.405400 -0.032200 0.913500
vn 0.688400 0.426100 0.586900
vn -0.241900 0.206000 0.948100
vn -0.283900 0.129800 0.950000
vn 0.019700 0.193300 -0.980900
vn -0.020700 0.116700 -0.992900
vn -0.059900 0.040200 -0.997400
vn -0.323500 0.053100 0.944700
vt 0.839504 0.118056
vt 0.856743 0.205307
vt 0.741230 0.205307
vt 0.734555 0.106726
vt 0.724541 0.032791
vt 0.813647 0.052618
vt 0.868992 0.081539
vt 0.913398 0.129584
vt 0.940923 0.205307
vt 0.839504 0.292557
vt 0.813647 0.357995
vt 0.724541 0.377822
vt 0.734555 0.303887
vt 0.913398 0.281029
vt 0.868992 0.329074
vt 0.369475 0.299954
vt 0.368286 0.370940
vt 0.245840 0.351447
vt 0.246397 0.288815
vt 0.246768 0.205307
vt 0.370268 0.205307
vt 0.494283 0.205307
vt 0.492822 0.304944
vt 0.490632 0.379672
vt 0.369475 0.110659
vt 0.246397 0.121798
vt 0.245841 0.059166
vt 0.368286 0.039673
vt 0.490632 0.030941
vt 0.492822 0.105669
vt 0.616755 0.103478
vt 0.619174 0.205307
vt 0.613127 0.027106
vt 0.616755 0.307135
vt 0.613126 0.383507
vt 0.123273 0.268175
vt 0.123047 0.315326
vt 0.054743 0.283353
vt 0.030912 0.249131
vt 0.030973 0.205306
vt 0.123423 0.205306
vt 0.123273 0.142438
vt 0.030912 0.161481
vt 0.054744 0.127260
vt 0.123047 0.095287
vt 0.839504 0.118056
vt 0.856743 0.205307
vt 0.968983 0.205307
vt 0.938030 0.133427
vt 0.876123 0.061548
vt 0.805028 0.030806
vt 0.721203 0.008146
vt 0.734555 0.106726
vt 0.741230 0.205307
vt 0.839504 0.292557
vt 0.805028 0.379807
vt 0.876123 0.349065
vt 0.938030 0.277186
vt 0.734555 0.303887
vt 0.721203 0.402467
vt 0.369475 0.299954
vt 0.367890 0.394602
vt 0.489902 0.404581
vt 0.492822 0.304944
vt 0.494283 0.205307
vt 0.370268 0.205307
vt 0.246768 0.205307
vt 0.246397 0.288815
vt 0.245655 0.372324
vt 0.369475 0.110659
vt 0.492822 0.105669
vt 0.489902 0.006032
vt 0.367890 0.016011
vt 0.245655 0.038289
vt 0.246397 0.121798
vt 0.616755 0.103478
vt 0.619174 0.205307
vt 0.611917 0.001649
vt 0.616755 0.307135
vt 0.611917 0.408964
vt 0.123273 0.268175
vt 0.122972 0.331043
vt 0.123423 0.205306
vt 0.000156 0.205306
vt 0.000125 0.242784
vt 0.000064 0.280261
vt 0.123273 0.142438
vt 0.122972 0.079570
vt 0.000064 0.130352
vt 0.000125 0.167829
vt 0.122972 0.331043
vt 0.030806 0.283587
vt 0.245655 0.372324
vt 0.030806 0.283587
vt 0.000125 0.167829
vt 0.030806 0.127026
vt 0.000156 0.205306
vt 0.030806 0.127026
vt 0.805028 0.030806
vt 0.873826 0.071832
vt 0.721203 0.008146
vt 0.873826 0.071832
vt 0.938030 0.277186
vt 0.873826 0.338781
vt 0.968983 0.205307
vt 0.873826 0.338781
vt 0.805028 0.379807
vt 0.721203 0.402467
vt 0.000125 0.242784
vt 0.122972 0.079570
vt 0.245655 0.038289
vt 0.938030 0.133427
vt 0.611917 0.001649
vt 0.489902 0.006032
vt 0.611917 0.408964
vt 0.489902 0.404581
vt 0.367890 0.394602
vt 0.367890 0.016011
f 1/1/1 2/2/2 3/3/3
f 1/1/1 3/3/3 4/4/4
f 1/1/1 4/4/4 5/5/5
f 1/1/1 5/5/5 6/6/6
f 1/1/1 6/6/6 7/7/7
f 1/1/1 7/7/7 8/8/8
f 1/1/1 8/8/8 9/9/9
f 1/1/1 9/9/9 2/2/2
f 10/10/10 11/11/11 12/12/12
f 10/10/10 12/12/12 13/13/13
f 10/10/10 13/13/13 3/3/3
f 10/10/10 3/3/3 2/2/2
f 10/10/10 2/2/2 9/9/9
f 10/10/10 9/9/9 14/14/14
f 10/10/10 14/14/14 15/15/15
f 10/10/10 15/15/15 11/11/11
f 16/16/16 17/17/17 18/18/18
f 16/16/16 18/18/18 19/19/19
f 16/16/16 19/19/19 20/20/20
f 16/16/16 20/20/20 21/21/21
f 16/16/16 21/21/21 22/22/22
f 16/16/16 22/22/22 23/23/23
f 16/16/16 23/23/23 24/24/24
f 16/16/16 24/24/24 17/17/17
f 25/25/25 21/21/21 20/20/20
f 25/25/25 20/20/20 26/26/26
f 25/25/25 26/26/26 27/27/27
f 25/25/25 27/27/27 28/28/28
f 25/25/25 28/28/28 29/29/29
f 25/25/25 29/29/29 30/30/30
f 25/25/25 30/30/30 22/22/22
f 25/25/25 22/22/22 21/21/21
f 31/31/31 32/32/32 22/22/22
f 31/31/31 22/22/22 30/30/30
f 31/31/31 30/30/30 29/29/29
f 31/31/31 29/29/29 33/33/33
f 31/31/31 33/33/33 5/5/5
f 31/31/31 5/5/5 4/4/4
f 31/31/31 4/4/4 3/3/3
f 31/31/31 3/3/3 32/32/32
f 34/34/34 35/35/35 24/24/24
f 34/34/34 24/24/24 23/23/23
f 34/34/34 23/23/23 22/22/22
f 34/34/34 22/22/22 32/32/32
f 34/34/34 32/32/32 3/3/3
f 34/34/34 3/3/3 13/13/13
f 34/34/34 13/13/13 12/12/12
f 34/34/34 12/12/12 35/35/35
f 36/36/36 37/37/37 38/38/38
f 36/36/36 38/38/38 39/39/39
f 36/36/36 39/39/39 40/40/40
f 36/36/36 40/40/40 41/41/41
f 36/36/36 41/41/41 20/20/20
f 36/36/36 20/20/20 19/19/19
f 36/36/36 19/19/19 18/18/18
f 36/36/36 18/18/18 37/37/37
f 42/42/42 41/41/41 40/40/40
f 42/42/42 40/40/40 43/43/43
f 42/42/42 43/43/43 44/44/44
f 42/42/42 44/44/44 45/45/45
f 42/42/42 45/45/45 27/27/27
f 42/42/42 27/27/27 26/26/26
f 42/42/42 26/26/26 20/20/20
f 42/42/42 20/20/20 41/41/41
f 46/46/46 47/47/47 48/48/48
f 46/46/46 48/48/48 49/49/49
f 46/46/46 49/49/49 50/50/50
f 46/46/46 50/50/50 51/51/51
f 46/46/46 51/51/51 52/52/52
f 46/46/46 52/52/52 53/53/53
f 46/46/46 53/53/53 54/54/54
f 46/46/46 54/54/54 47/47/47
f 55/55/55 56/56/56 57/57/57
f 55/55/55 57/57/57 58/58/58
f 55/55/55 58/58/58 48/48/48
f 55/55/55 48/48/48 47/47/47
f 55/55/55 47/47/47 54/54/54
f 55/55/55 54/54/54 59/59/59
f 55/55/55 59/59/59 60/60/60
f 55/55/55 60/60/60 56/56/56
f 61/61/61 62/62/62 63/63/63
f 61/61/61 63/63/63 64/64/64
f 61/61/61 64/64/64 65/65/65
f 61/61/61 65/65/65 66/66/66
f 61/61/61 66/66/66 67/67/67
f 61/61/61 67/67/67 68/68/68
f 61/61/61 68/68/68 69/69/69
f 61/61/61 69/69/69 62/62/62
f 70/70/70 66/66/66 65/65/65
f 70/70/70 65/65/65 71/71/71
f 70/70/70 71/71/71 72/72/72
f 70/70/70 72/72/72 73/73/73
f 70/70/70 73/73/73 74/74/74
f 70/70/70 74/74/74 75/75/75
f 70/70/70 75/75/75 67/67/67
f 70/70/70 67/67/67 66/66/66
f 76/76/76 77/77/77 54/54/54
f 76/76/76 54/54/54 53/53/53
f 76/76/76 53/53/53 52/52/52
f 76/76/76 52/52/52 78/78/78
f 76/76/76 78/78/78 72/72/72
f 76/76/76 72/72/72 71/71/71
f 76/76/76 71/71/71 65/65/65
f 76/76/76 65/65/65 77/77/77
f 79/79/79 80/80/80 60/60/60
f 79/79/79 60/60/60 59/59/59
f 79/79/79 59/59/59 54/54/54
f 79/79/79 54/54/54 77/77/77
f 79/79/79 77/77/77 65/65/65
f 79/79/79 65/65/65 64/64/64
f 79/79/79 64/64/64 63/63/63
f 79/79/79 63/63/63 80/80/80
f 81/81/81 82/82/82 69/69/69
f 81/81/81 69/69/69 68/68/68
f 81/81/81 68/68/68 67/67/67
f 81/81/81 67/67/67 83/83/83
f 81/81/81 83/83/83 84/84/84
f 81/81/81 84/84/84 85/85/85
f 81/81/81 85/85/85 86/86/86
f 81/81/81 86/86/86 82/82/82
f 87/87/87 83/83/83 67/67/67
f 87/87/87 67/67/67 75/75/75
f 87/87/87 75/75/75 74/74/74
f 87/87/87 74/74/74 88/88/88
f 87/87/87 88/88/88 89/89/89
f 87/87/87 89/89/89 90/90/90
f 87/87/87 90/90/90 84/84/84
f 87/87/87 84/84/84 83/83/83
f 91/91/91 92/92/92 38/38/38
f 91/91/91 38/38/38 37/37/37
f 91/91/91 37/37/37 18/18/18
f 91/91/91 18/18/18 93/93/93
f 91/91/91 93/93/93 69/69/69
f 91/91/91 69/69/69 82/82/82
f 91/91/91 82/82/82 94/94/94
f 91/91/91 94/94/94 92/92/92
f 95/95/95 96/96/96 44/44/44
f 95/95/95 44/44/44 43/43/43
f 95/95/95 43/43/43 40/40/40
f 95/95/95 40/40/40 97/97/97
f 95/95/95 97/97/97 84/84/84
f 95/95/95 84/84/84 90/90/90
f 95/95/95 90/90/90 98/98/98
f 95/95/95 98/98/98 96/96/96
f 99/99/99 100/100/100 7/7/7
f 99/99/99 7/7/7 6/6/6
f 99/99/99 6/6/6 5/5/5
f 99/99/99 5/5/5 101/101/101
f 99/99/99 101/101/101 52/52/52
f 99/99/99 52/52/52 51/51/51
f 99/99/99 51/51/51 102/102/102
f 99/99/99 102/102/102 100/100/100
f 103/103/103 104/104/104 15/15/15
f 103/103/103 15/15/15 14/14/14
f 103/103/103 14/14/14 9/9/9
f 103/103/103 9/9/9 105/105/105
f 103/103/103 105/105/105 48/48/48
f 103/103/103 48/48/48 58/58/58
f 103/103/103 58/58/58 106/106/106
f 103/103/103 106/106/106 104/104/104
f 107/107/107 108/108/108 12/12/12
f 107/107/107 12/12/12 11/11/11
f 107/107/107 11/11/11 15/15/15
f 107/107/107 15/15/15 104/104/104
f 107/107/107 104/104/104 106/106/106
f 107/107/107 106/106/106 56/56/56
f 107/107/107 56/56/56 60/60/60
f 107/107/107 60/60/60 108/108/108
f 109/109/109 97/97/97 40/40/40
f 109/109/109 40/40/40 39/39/39
f 109/109/109 39/39/39 38/38/38
f 109/109/109 38/38/38 92/92/92
f 109/109/109 92/92/92 94/94/94
f 109/109/109 94/94/94 85/85/85
f 109/109/109 85/85/85 84/84/84
f 109/109/109 84/84/84 97/97/97
f 110/110/110 111/111/111 27/27/27
f 110/110/110 27/27/27 45/45/45
f 110/110/110 45/45/45 44/44/44
f 110/110/110 44/44/44 96/96/96
f 110/110/110 96/96/96 98/98/98
f 110/110/110 98/98/98 88/88/88
f 110/110/110 88/88/88 74/74/74
f 110/110/110 74/74/74 111/111/111
f 112/112/112 105/105/105 9/9/9
f 112/112/112 9/9/9 8/8/8
f 112/112/112 8/8/8 7/7/7
f 112/112/112 7/7/7 100/100/100
f 112/112/112 100/100/100 102/102/102
f 112/112/112 102/102/102 49/49/49
f 112/112/112 49/49/49 48/48/48
f 112/112/112 48/48/48 105/105/105
f 113/113/113 101/101/101 5/5/5
f 113/113/113 5/5/5 33/33/33
f 113/113/113 33/33/33 29/29/29
f 113/113/113 29/29/29 114/114/114
f 113/113/113 114/114/114 72/72/72
f 113/113/113 72/72/72 78/78/78
f 113/113/113 78/78/78 52/52/52
f 113/113/113 52/52/52 101/101/101
f 115/115/115 116/116/116 24/24/24
f 115/115/115 24/24/24 35/35/35
f 115/115/115 35/35/35 12/12/12
f 115/115/115 12/12/12 108/108/108
f 115/115/115 108/108/108 60/60/60
f 115/115/115 60/60/60 80/80/80
f 115/115/115 80/80/80 63/63/63
f 115/115/115 63/63/63 116/116/116
f 117/117/117 93/93/93 18/18/18
f 117/117/117 18/18/18 17/17/17
f 117/117/117 17/17/17 24/24/24
f 117/117/117 24/24/24 116/116/116
f 117/117/117 116/116/116 63/63/63
f 117/117/117 63/63/63 62/62/62
f 117/117/117 62/62/62 69/69/69
f 117/117/117 69/69/69 93/93/93
f 118/118/118 114/114/114 29/29/29
f 118/118/118 29/29/29 28/28/28
f 118/118/118 28/28/28 27/27/27
f 118/118/118 27/27/27 111/111/111
f 118/118/118 111/111/111 74/74/74
f 118/118/118 74/74/74 73/73/73
f 118/118/118 73/73/73 72/72/72
f 118/118/118 72/72/72 114/114/114
