v -2.389197 0.730998 -1.203751
v -2.390250 0.730816 -1.206234
v -2.393059 0.729902 -1.204177
v -2.391538 0.730136 -1.201595
v -2.390572 0.730520 -1.199510
v -2.388774 0.731295 -1.201598
v -2.387883 0.731512 -1.203340
v -2.387571 0.731473 -1.205382
v -2.388169 0.731365 -1.207762
v -2.392317 0.731149 -1.207945
v -2.394246 0.731559 -1.208953
v -2.396787 0.730820 -1.207866
v -2.395084 0.730308 -1.206362
v -2.390272 0.731603 -1.209012
v -2.392314 0.731726 -1.209297
v -2.403336 0.725578 -1.200319
v -2.404775 0.725878 -1.201968
v -2.407009 0.723712 -1.199649
v -2.405727 0.723434 -1.198197
v -2.404097 0.723192 -1.196208
v -2.401502 0.725315 -1.198062
v -2.398810 0.727204 -1.199997
v -2.400737 0.727502 -1.202350
v -2.402257 0.727853 -1.204064
v -2.399862 0.725410 -1.195648
v -2.402654 0.723286 -1.194067
v -2.401624 0.723452 -1.192411
v -2.398687 0.725584 -1.193784
v -2.395889 0.727546 -1.195502
v -2.397102 0.727327 -1.197464
v -2.394250 0.728908 -1.199473
v -2.395954 0.728715 -1.202067
v -2.393063 0.729231 -1.197445
v -2.397938 0.729086 -1.204431
v -2.399526 0.729543 -1.206133
v -2.407901 0.721194 -1.195846
v -2.408888 0.721452 -1.196908
v -2.409660 0.720078 -1.195136
v -2.409436 0.719448 -1.194012
v -2.408558 0.719247 -1.193030
v -2.406662 0.720975 -1.194379
v -2.405607 0.721083 -1.192763
v -2.407865 0.719372 -1.191900
v -2.406832 0.719942 -1.191335
v -2.404867 0.721258 -1.191502
v -2.389113 0.730729 -1.203774
v -2.390189 0.730545 -1.206289
v -2.388127 0.731162 -1.207801
v -2.387510 0.731270 -1.205395
v -2.387832 0.731363 -1.203344
v -2.388699 0.731095 -1.201599
v -2.390493 0.730322 -1.199521
v -2.391447 0.729871 -1.201629
v -2.392989 0.729635 -1.204239
v -2.392280 0.730882 -1.208031
v -2.394229 0.731362 -1.209033
v -2.392301 0.731579 -1.209351
v -2.390248 0.731403 -1.209076
v -2.395035 0.730044 -1.206452
v -2.396761 0.730625 -1.207947
v -2.403242 0.725334 -1.200429
v -2.404712 0.725696 -1.202061
v -2.402204 0.727666 -1.204151
v -2.400655 0.727251 -1.202453
v -2.398711 0.726951 -1.200079
v -2.401392 0.725070 -1.198152
v -2.403979 0.722952 -1.196304
v -2.405625 0.723196 -1.198313
v -2.406940 0.723535 -1.199746
v -2.399737 0.725164 -1.195718
v -2.396989 0.727074 -1.197525
v -2.395796 0.727357 -1.195537
v -2.398587 0.725400 -1.193826
v -2.401518 0.723273 -1.192457
v -2.402522 0.723046 -1.194142
v -2.394149 0.728647 -1.199520
v -2.395870 0.728454 -1.202138
v -2.392978 0.729037 -1.197468
v -2.397873 0.728827 -1.204527
v -2.399487 0.729351 -1.206217
v -2.407796 0.720958 -1.195966
v -2.408819 0.721277 -1.197008
v -2.406541 0.720737 -1.194478
v -2.408468 0.719069 -1.193105
v -2.409359 0.719272 -1.194103
v -2.409606 0.719948 -1.195207
v -2.405471 0.720846 -1.192840
v -2.404757 0.721081 -1.191548
v -2.406753 0.719810 -1.191372
v -2.407762 0.719195 -1.191956
v -2.409189 0.721461 -1.197308
v -2.410161 0.719636 -1.194785
v -2.407408 0.723726 -1.200179
v -2.409606 0.719948 -1.195207
v -2.408571 0.718723 -1.191637
v -2.407328 0.719500 -1.190977
v -2.409150 0.718592 -1.192614
v -2.406753 0.719810 -1.191372
v -2.388597 0.731305 -1.200877
v -2.387590 0.731596 -1.203175
v -2.390212 0.730560 -1.198817
v -2.387832 0.731363 -1.203344
v -2.389580 0.731665 -1.209396
v -2.392385 0.731828 -1.209620
v -2.387457 0.731458 -1.208289
v -2.392301 0.731579 -1.209351
v -2.394884 0.731609 -1.209328
v -2.397346 0.730905 -1.208407
v -2.409914 0.718788 -1.193441
v -2.404570 0.721238 -1.191100
v -2.401232 0.723428 -1.191877
v -2.387002 0.731541 -1.205930
v -2.392628 0.729253 -1.196776
v -2.395441 0.727535 -1.194861
v -2.400040 0.729611 -1.206740
v -2.402742 0.727888 -1.204676
v -2.405229 0.725897 -1.202562
v -2.398249 0.725560 -1.193179
vn -0.314400 0.949300 -0.002000
vn -0.173000 0.971200 0.163600
vn -0.219600 0.955400 0.197700
vn -0.348000 0.936100 0.051200
vn -0.362000 0.929300 0.073000
vn -0.310300 0.950600 0.004900
vn -0.271700 0.961400 -0.042800
vn -0.219000 0.975400 -0.022400
vn -0.099000 0.989100 0.109200
vn -0.056000 0.936800 0.345300
vn -0.061300 0.938600 0.339500
vn -0.142200 0.918600 0.368500
vn -0.117100 0.924900 0.361700
vn -0.008100 0.965300 0.261100
vn -0.004300 0.948500 0.316600
vn -0.339200 0.842600 0.418100
vn -0.368500 0.842100 0.393800
vn -0.392300 0.824700 0.407200
vn -0.356900 0.823700 0.440500
vn -0.436200 0.827200 0.354200
vn -0.407100 0.850300 0.333400
vn -0.346500 0.892100 0.289800
vn -0.276800 0.878400 0.389500
vn -0.306500 0.873700 0.377600
vn -0.468900 0.848900 0.243800
vn -0.496000 0.830400 0.253500
vn -0.474300 0.828700 0.297000
vn -0.454100 0.846200 0.278800
vn -0.419700 0.879200 0.225600
vn -0.422300 0.885400 0.193900
vn -0.376900 0.918200 0.121700
vn -0.276600 0.930700 0.239200
vn -0.387400 0.909600 0.150000
vn -0.193500 0.909300 0.368300
vn -0.223900 0.901700 0.369900
vn -0.349900 0.812300 0.466700
vn -0.391100 0.811700 0.433800
vn -0.381800 0.798100 0.466000
vn -0.372900 0.775400 0.509500
vn -0.486600 0.781700 0.390100
vn -0.449700 0.815700 0.363800
vn -0.519500 0.820500 0.238700
vn -0.568300 0.785000 0.246700
vn -0.528500 0.805200 0.268900
vn -0.499800 0.816900 0.287600
vn 0.347700 -0.937500 0.011500
vn 0.185900 -0.967200 -0.173000
vn 0.235300 -0.949200 -0.209100
vn 0.442500 -0.895700 0.042700
vn 0.519100 -0.845800 0.123400
vn 0.500700 -0.858700 0.109100
vn 0.468400 -0.882100 0.050600
vn 0.357500 -0.933100 -0.039400
vn 0.219500 -0.955400 -0.197600
vn 0.056900 -0.923500 -0.379400
vn 0.010300 -0.835000 -0.550000
vn 0.002400 -0.820700 -0.571300
vn 0.055900 -0.876900 -0.477300
vn 0.108700 -0.921000 -0.374000
vn 0.056200 -0.862200 -0.503400
vn 0.328000 -0.841200 -0.429900
vn 0.246800 -0.825800 -0.507000
vn 0.201500 -0.849200 -0.488100
vn 0.266900 -0.876400 -0.400700
vn 0.346600 -0.892100 -0.289900
vn 0.407200 -0.850200 -0.333500
vn 0.436300 -0.827100 -0.354300
vn 0.342400 -0.823100 -0.453000
vn 0.231400 -0.818700 -0.525500
vn 0.476900 -0.848400 -0.229600
vn 0.430300 -0.884300 -0.181200
vn 0.495900 -0.863400 -0.092200
vn 0.527900 -0.839400 -0.129200
vn 0.541400 -0.833700 -0.108800
vn 0.503900 -0.830900 -0.235900
vn 0.385000 -0.916300 -0.109600
vn 0.276600 -0.930700 -0.239200
vn 0.469000 -0.882900 -0.023200
vn 0.184300 -0.906700 -0.379400
vn 0.127000 -0.866400 -0.483000
vn 0.319500 -0.819400 -0.475900
vn 0.169100 -0.821600 -0.544400
vn 0.441500 -0.822700 -0.358000
vn 0.405000 -0.851900 -0.331900
vn 0.221000 -0.841800 -0.492500
vn 0.127300 -0.824500 -0.551300
vn 0.519300 -0.829000 -0.207300
vn 0.541400 -0.839600 -0.043800
vn 0.535800 -0.844300 -0.002000
vn 0.506100 -0.855500 -0.109300
vn -0.878600 -0.013000 -0.477400
vn -0.975200 -0.188400 -0.116000
vn -0.798100 0.036600 -0.601400
vn 0.127300 -0.824500 -0.551300
vn -0.527600 -0.523900 0.668700
vn -0.176100 -0.226600 0.957900
vn -0.613800 -0.660100 0.433100
vn 0.535800 -0.844300 -0.002000
vn 0.710700 0.375800 0.594600
vn 0.850300 0.426500 0.308300
vn 0.600000 0.282700 0.748300
vn 0.519100 -0.845800 0.123400
vn 0.370500 0.302700 -0.878100
vn -0.035200 0.469400 -0.882300
vn 0.793700 0.168700 -0.584400
vn 0.002400 -0.820700 -0.571300
vn -0.351900 0.426900 -0.833000
vn -0.534000 0.337300 -0.775300
vn -0.809600 -0.510500 0.289600
vn 0.203400 -0.065300 0.976900
vn 0.347000 -0.018700 0.937700
vn 0.957500 0.274300 -0.089100
vn 0.522600 0.187500 0.831700
vn 0.482300 0.119100 0.867900
vn -0.638800 0.243700 -0.729800
vn -0.687500 0.175500 -0.704600
vn -0.730200 0.106700 -0.674800
vn 0.439300 0.050200 0.896900
vt 0.839504 0.118056
vt 0.856743 0.205307
vt 0.741230 0.205307
vt 0.734555 0.106726
vt 0.724541 0.032791
vt 0.813647 0.052618
vt 0.868992 0.081539
vt 0.913398 0.129584
vt 0.940923 0.205307
vt 0.839504 0.292557
vt 0.813647 0.357995
vt 0.724541 0.377822
vt 0.734555 0.303887
vt 0.913398 0.281029
vt 0.868992 0.329074
vt 0.369475 0.299954
vt 0.368286 0.370940
vt 0.245840 0.351447
vt 0.246397 0.288815
vt 0.246768 0.205307
vt 0.370268 0.205307
vt 0.494283 0.205307
vt 0.492822 0.304944
vt 0.490632 0.379672
vt 0.369475 0.110659
vt 0.246397 0.121798
vt 0.245841 0.059166
vt 0.368286 0.039673
vt 0.490632 0.030941
vt 0.492822 0.105669
vt 0.616755 0.103478
vt 0.619174 0.205307
vt 0.613127 0.027106
vt 0.616755 0.307135
vt 0.613126 0.383507
vt 0.123273 0.268175
vt 0.123047 0.315326
vt 0.054743 0.283353
vt 0.030912 0.249131
vt 0.030973 0.205306
vt 0.123423 0.205306
vt 0.123273 0.142438
vt 0.030912 0.161481
vt 0.054744 0.127260
vt 0.123047 0.095287
vt 0.839504 0.118056
vt 0.856743 0.205307
vt 0.968983 0.205307
vt 0.938030 0.133427
vt 0.876123 0.061548
vt 0.805028 0.030806
vt 0.721203 0.008146
vt 0.734555 0.106726
vt 0.741230 0.205307
vt 0.839504 0.292557
vt 0.805028 0.379807
vt 0.876123 0.349065
vt 0.938030 0.277186
vt 0.734555 0.303887
vt 0.721203 0.402467
vt 0.369475 0.299954
vt 0.367890 0.394602
vt 0.489902 0.404581
vt 0.492822 0.304944
vt 0.494283 0.205307
vt 0.370268 0.205307
vt 0.246768 0.205307
vt 0.246397 0.288815
vt 0.245655 0.372324
vt 0.369475 0.110659
vt 0.492822 0.105669
vt 0.489902 0.006032
vt 0.367890 0.016011
vt 0.245655 0.038289
vt 0.246397 0.121798
vt 0.616755 0.103478
vt 0.619174 0.205307
vt 0.611917 0.001649
vt 0.616755 0.307135
vt 0.611917 0.408964
vt 0.123273 0.268175
vt 0.122972 0.331043
vt 0.123423 0.205306
vt 0.000156 0.205306
vt 0.000125 0.242784
vt 0.000064 0.280261
vt 0.123273 0.142438
vt 0.122972 0.079570
vt 0.000064 0.130352
vt 0.000125 0.167829
vt 0.122972 0.331043
vt 0.030806 0.283587
vt 0.245655 0.372324
vt 0.030806 0.283587
vt 0.000125 0.167829
vt 0.030806 0.127026
vt 0.000156 0.205306
vt 0.030806 0.127026
vt 0.805028 0.030806
vt 0.873826 0.071832
vt 0.721203 0.008146
vt 0.873826 0.071832
vt 0.938030 0.277186
vt 0.873826 0.338781
vt 0.968983 0.205307
vt 0.873826 0.338781
vt 0.805028 0.379807
vt 0.721203 0.402467
vt 0.000125 0.242784
vt 0.122972 0.079570
vt 0.245655 0.038289
vt 0.938030 0.133427
vt 0.611917 0.001649
vt 0.489902 0.006032
vt 0.611917 0.408964
vt 0.489902 0.404581
vt 0.367890 0.394602
vt 0.367890 0.016011
f 1/1/1 2/2/2 3/3/3
f 1/1/1 3/3/3 4/4/4
f 1/1/1 4/4/4 5/5/5
f 1/1/1 5/5/5 6/6/6
f 1/1/1 6/6/6 7/7/7
f 1/1/1 7/7/7 8/8/8
f 1/1/1 8/8/8 9/9/9
f 1/1/1 9/9/9 2/2/2
f 10/10/10 11/11/11 12/12/12
f 10/10/10 12/12/12 13/13/13
f 10/10/10 13/13/13 3/3/3
f 10/10/10 3/3/3 2/2/2
f 10/10/10 2/2/2 9/9/9
f 10/10/10 9/9/9 14/14/14
f 10/10/10 14/14/14 15/15/15
f 10/10/10 15/15/15 11/11/11
f 16/16/16 17/17/17 18/18/18
f 16/16/16 18/18/18 19/19/19
f 16/16/16 19/19/19 20/20/20
f 16/16/16 20/20/20 21/21/21
f 16/16/16 21/21/21 22/22/22
f 16/16/16 22/22/22 23/23/23
f 16/16/16 23/23/23 24/24/24
f 16/16/16 24/24/24 17/17/17
f 25/25/25 21/21/21 20/20/20
f 25/25/25 20/20/20 26/26/26
f 25/25/25 26/26/26 27/27/27
f 25/25/25 27/27/27 28/28/28
f 25/25/25 28/28/28 29/29/29
f 25/25/25 29/29/29 30/30/30
f 25/25/25 30/30/30 22/22/22
f 25/25/25 22/22/22 21/21/21
f 31/31/31 32/32/32 22/22/22
f 31/31/31 22/22/22 30/30/30
f 31/31/31 30/30/30 29/29/29
f 31/31/31 29/29/29 33/33/33
f 31/31/31 33/33/33 5/5/5
f 31/31/31 5/5/5 4/4/4
f 31/31/31 4/4/4 3/3/3
f 31/31/31 3/3/3 32/32/32
f 34/34/34 35/35/35 24/24/24
f 34/34/34 24/24/24 23/23/23
f 34/34/34 23/23/23 22/22/22
f 34/34/34 22/22/22 32/32/32
f 34/34/34 32/32/32 3/3/3
f 34/34/34 3/3/3 13/13/13
f 34/34/34 13/13/13 12/12/12
f 34/34/34 12/12/12 35/35/35
f 36/36/36 37/37/37 38/38/38
f 36/36/36 38/38/38 39/39/39
f 36/36/36 39/39/39 40/40/40
f 36/36/36 40/40/40 41/41/41
f 36/36/36 41/41/41 20/20/20
f 36/36/36 20/20/20 19/19/19
f 36/36/36 19/19/19 18/18/18
f 36/36/36 18/18/18 37/37/37
f 42/42/42 41/41/41 40/40/40
f 42/42/42 40/40/40 43/43/43
f 42/42/42 43/43/43 44/44/44
f 42/42/42 44/44/44 45/45/45
f 42/42/42 45/45/45 27/27/27
f 42/42/42 27/27/27 26/26/26
f 42/42/42 26/26/26 20/20/20
f 42/42/42 20/20/20 41/41/41
f 46/46/46 47/47/47 48/48/48
f 46/46/46 48/48/48 49/49/49
f 46/46/46 49/49/49 50/50/50
f 46/46/46 50/50/50 51/51/51
f 46/46/46 51/51/51 52/52/52
f 46/46/46 52/52/52 53/53/53
f 46/46/46 53/53/53 54/54/54
f 46/46/46 54/54/54 47/47/47
f 55/55/55 56/56/56 57/57/57
f 55/55/55 57/57/57 58/58/58
f 55/55/55 58/58/58 48/48/48
f 55/55/55 48/48/48 47/47/47
f 55/55/55 47/47/47 54/54/54
f 55/55/55 54/54/54 59/59/59
f 55/55/55 59/59/59 60/60/60
f 55/55/55 60/60/60 56/56/56
f 61/61/61 62/62/62 63/63/63
f 61/61/61 63/63/63 64/64/64
f 61/61/61 64/64/64 65/65/65
f 61/61/61 65/65/65 66/66/66
f 61/61/61 66/66/66 67/67/67
f 61/61/61 67/67/67 68/68/68
f 61/61/61 68/68/68 69/69/69
f 61/61/61 69/69/69 62/62/62
f 70/70/70 66/66/66 65/65/65
f 70/70/70 65/65/65 71/71/71
f 70/70/70 71/71/71 72/72/72
f 70/70/70 72/72/72 73/73/73
f 70/70/70 73/73/73 74/74/74
f 70/70/70 74/74/74 75/75/75
f 70/70/70 75/75/75 67/67/67
f 70/70/70 67/67/67 66/66/66
f 76/76/76 77/77/77 54/54/54
f 76/76/76 54/54/54 53/53/53
f 76/76/76 53/53/53 52/52/52
f 76/76/76 52/52/52 78/78/78
f 76/76/76 78/78/78 72/72/72
f 76/76/76 72/72/72 71/71/71
f 76/76/76 71/71/71 65/65/65
f 76/76/76 65/65/65 77/77/77
f 79/79/79 80/80/80 60/60/60
f 79/79/79 60/60/60 59/59/59
f 79/79/79 59/59/59 54/54/54
f 79/79/79 54/54/54 77/77/77
f 79/79/79 77/77/77 65/65/65
f 79/79/79 65/65/65 64/64/64
f 79/79/79 64/64/64 63/63/63
f 79/79/79 63/63/63 80/80/80
f 81/81/81 82/82/82 69/69/69
f 81/81/81 69/69/69 68/68/68
f 81/81/81 68/68/68 67/67/67
f 81/81/81 67/67/67 83/83/83
f 81/81/81 83/83/83 84/84/84
f 81/81/81 84/84/84 85/85/85
f 81/81/81 85/85/85 86/86/86
f 81/81/81 86/86/86 82/82/82
f 87/87/87 83/83/83 67/67/67
f 87/87/87 67/67/67 75/75/75
f 87/87/87 75/75/75 74/74/74
f 87/87/87 74/74/74 88/88/88
f 87/87/87 88/88/88 89/89/89
f 87/87/87 89/89/89 90/90/90
f 87/87/87 90/90/90 84/84/84
f 87/87/87 84/84/84 83/83/83
f 91/91/91 92/92/92 38/38/38
f 91/91/91 38/38/38 37/37/37
f 91/91/91 37/37/37 18/18/18
f 91/91/91 18/18/18 93/93/93
f 91/91/91 93/93/93 69/69/69
f 91/91/91 69/69/69 82/82/82
f 91/91/91 82/82/82 94/94/94
f 91/91/91 94/94/94 92/92/92
f 95/95/95 96/96/96 44/44/44
f 95/95/95 44/44/44 43/43/43
f 95/95/95 43/43/43 40/40/40
f 95/95/95 40/40/40 97/97/97
f 95/95/95 97/97/97 84/84/84
f 95/95/95 84/84/84 90/90/90
f 95/95/95 90/90/90 98/98/98
f 95/95/95 98/98/98 96/96/96
f 99/99/99 100/100/100 7/7/7
f 99/99/99 7/7/7 6/6/6
f 99/99/99 6/6/6 5/5/5
f 99/99/99 5/5/5 101/101/101
f 99/99/99 101/101/101 52/52/52
f 99/99/99 52/52/52 51/51/51
f 99/99/99 51/51/51 102/102/102
f 99/99/99 102/102/102 100/100/100
f 103/103/103 104/104/104 15/15/15
f 103/103/103 15/15/15 14/14/14
f 103/103/103 14/14/14 9/9/9
f 103/103/103 9/9/9 105/105/105
f 103/103/103 105/105/105 48/48/48
f 103/103/103 48/48/48 58/58/58
f 103/103/103 58/58/58 106/106/106
f 103/103/103 106/106/106 104/104/104
f 107/107/107 108/108/108 12/12/12
f 107/107/107 12/12/12 11/11/11
f 107/107/107 11/11/11 15/15/15
f 107/107/107 15/15/15 104/104/104
f 107/107/107 104/104/104 106/106/106
f 107/107/107 106/106/106 56/56/56
f 107/107/107 56/56/56 60/60/60
f 107/107/107 60/60/60 108/108/108
f 109/109/109 97/97/97 40/40/40
f 109/109/109 40/40/40 39/39/39
f 109/109/109 39/39/39 38/38/38
f 109/109/109 38/38/38 92/92/92
f 109/109/109 92/92/92 94/94/94
f 109/109/109 94/94/94 85/85/85
f 109/109/109 85/85/85 84/84/84
f 109/109/109 84/84/84 97/97/97
f 110/110/110 111/111/111 27/27/27
f 110/110/110 27/27/27 45/45/45
f 110/110/110 45/45/45 44/44/44
f 110/110/110 44/44/44 96/96/96
f 110/110/110 96/96/96 98/98/98
f 110/110/110 98/98/98 88/88/88
f 110/110/110 88/88/88 74/74/74
f 110/110/110 74/74/74 111/111/111
f 112/112/112 105/105/105 9/9/9
f 112/112/112 9/9/9 8/8/8
f 112/112/112 8/8/8 7/7/7
f 112/112/112 7/7/7 100/100/100
f 112/112/112 100/100/100 102/102/102
f 112/112/112 102/102/102 49/49/49
f 112/112/112 49/49/49 48/48/48
f 112/112/112 48/48/48 105/105/105
f 113/113/113 101/101/101 5/5/5
f 113/113/113 5/5/5 33/33/33
f 113/113/113 33/33/33 29/29/29
f 113/113/113 29/29/29 114/114/114
f 113/113/113 114/114/114 72/72/72
f 113/113/113 72/72/72 78/78/78
f 113/113/113 78/78/78 52/52/52
f 113/113/113 52/52/52 101/101/101
f 115/115/115 116/116/116 24/24/24
f 115/115/115 24/24/24 35/35/35
f 115/115/115 35/35/35 12/12/12
f 115/115/115 12/12/12 108/108/108
f 115/115/115 108/108/108 60/60/60
f 115/115/115 60/60/60 80/80/80
f 115/115/115 80/80/80 63/63/63
f 115/115/115 63/63/63 116/116/116
f 117/117/117 93/93/93 18/18/18
f 117/117/117 18/18/18 17/17/17
f 117/117/117 17/17/17 24/24/24
f 117/117/117 24/24/24 116/116/116
f 117/117/117 116/116/116 63/63/63
f 117/117/117 63/63/63 62/62/62
f 117/117/117 62/62/62 69/69/69
f 117/117/117 69/69/69 93/93/93
f 118/118/118 114/114/114 29/29/29
f 118/118/118 29/29/29 28/28/28
f 118/118/118 28/28/28 27/27/27
f 118/118/118 27/27/27 111/111/111
f 118/118/118 111/111/111 74/74/74
f 118/118/118 74/74/74 73/73/73
f 118/118/118 73/73/73 72/72/72
f 118/118/118 72/72/72 114/114/114
