v -2.410874 0.660785 -1.068400
v -2.408792 0.661371 -1.067932
v -2.408695 0.661105 -1.070865
v -2.411048 0.660412 -1.071067
v -2.412899 0.660071 -1.071377
v -2.412521 0.660517 -1.069108
v -2.411829 0.660736 -1.067670
v -2.410630 0.660975 -1.066500
v -2.408822 0.661473 -1.065773
v -2.406947 0.662489 -1.068426
v -2.405634 0.663506 -1.069153
v -2.405075 0.663466 -1.071427
v -2.406585 0.662349 -1.071096
v -2.407231 0.662450 -1.066522
v -2.406251 0.663157 -1.067706
v -2.405690 0.660032 -1.079981
v -2.404131 0.660942 -1.080098
v -2.404063 0.659532 -1.082944
v -2.405438 0.658716 -1.082832
v -2.407311 0.657738 -1.082745
v -2.407812 0.658936 -1.079889
v -2.408231 0.659945 -1.076963
v -2.406019 0.661110 -1.077065
v -2.404402 0.662092 -1.077198
v -2.410064 0.658134 -1.079953
v -2.409306 0.657038 -1.082808
v -2.410841 0.656590 -1.082900
v -2.411794 0.657616 -1.080048
v -2.412418 0.658613 -1.077146
v -2.410594 0.659125 -1.077035
v -2.410939 0.659872 -1.074010
v -2.408517 0.660648 -1.073915
v -2.412825 0.659434 -1.074156
v -2.406296 0.661886 -1.074040
v -2.404690 0.662964 -1.074208
v -2.405393 0.657228 -1.085664
v -2.404384 0.657879 -1.085771
v -2.404799 0.656754 -1.087297
v -2.405424 0.656024 -1.087768
v -2.406354 0.655459 -1.087687
v -2.406777 0.656466 -1.085580
v -2.408280 0.655975 -1.085645
v -2.407402 0.655165 -1.087755
v -2.408357 0.655209 -1.087274
v -2.409446 0.655683 -1.085738
v -2.410813 0.660564 -1.068370
v -2.408700 0.661161 -1.067901
v -2.408754 0.661315 -1.065754
v -2.410586 0.660808 -1.066481
v -2.411803 0.660611 -1.067654
v -2.412491 0.660347 -1.069085
v -2.412865 0.659903 -1.071346
v -2.410984 0.660193 -1.071027
v -2.408604 0.660896 -1.070825
v -2.406827 0.662294 -1.068395
v -2.405530 0.663368 -1.069130
v -2.406178 0.663052 -1.067690
v -2.407140 0.662304 -1.066503
v -2.406468 0.662153 -1.071056
v -2.404975 0.663326 -1.071397
v -2.405584 0.659842 -1.079899
v -2.404043 0.660804 -1.080037
v -2.404311 0.661952 -1.077146
v -2.405911 0.660917 -1.076995
v -2.408143 0.659742 -1.076893
v -2.407725 0.658737 -1.079807
v -2.407225 0.657542 -1.082653
v -2.405334 0.658529 -1.082742
v -2.403976 0.659396 -1.082876
v -2.409996 0.657928 -1.079870
v -2.410526 0.658914 -1.076966
v -2.412377 0.658452 -1.077094
v -2.411753 0.657458 -1.079987
v -2.410801 0.656434 -1.082832
v -2.409239 0.656834 -1.082716
v -2.410872 0.659656 -1.073955
v -2.408427 0.660442 -1.073861
v -2.412787 0.659269 -1.074115
v -2.406184 0.661690 -1.073985
v -2.404595 0.662823 -1.074168
v -2.405288 0.657043 -1.085570
v -2.404296 0.657746 -1.085701
v -2.406692 0.656271 -1.085485
v -2.406290 0.655313 -1.087616
v -2.405345 0.655886 -1.087697
v -2.404736 0.656653 -1.087245
v -2.408215 0.655772 -1.085551
v -2.409408 0.655527 -1.085668
v -2.408327 0.655095 -1.087222
v -2.407355 0.655013 -1.087684
v -2.404007 0.658038 -1.085775
v -2.404688 0.656499 -1.087849
v -2.403564 0.659744 -1.082951
v -2.404736 0.656653 -1.087245
v -2.407089 0.654828 -1.088426
v -2.408253 0.654952 -1.087826
v -2.406185 0.655059 -1.088357
v -2.408327 0.655095 -1.087222
v -2.413060 0.660351 -1.069334
v -2.412079 0.660690 -1.067546
v -2.413503 0.659881 -1.071466
v -2.411803 0.660611 -1.067654
v -2.407285 0.662372 -1.065880
v -2.406045 0.663308 -1.067585
v -2.408802 0.661437 -1.065046
v -2.406178 0.663052 -1.067690
v -2.405147 0.663785 -1.069385
v -2.404524 0.663778 -1.071524
v -2.405399 0.655561 -1.088437
v -2.409820 0.655515 -1.085738
v -2.411338 0.656371 -1.082901
v -2.410530 0.660964 -1.065859
v -2.413440 0.659214 -1.074186
v -2.413010 0.658370 -1.077160
v -2.404110 0.663262 -1.074247
v -2.403820 0.662358 -1.077219
v -2.403570 0.661185 -1.080109
v -2.412355 0.657373 -1.080053
vn -0.188600 0.977100 -0.098000
vn -0.397300 0.914400 -0.077800
vn -0.395000 0.908300 -0.137300
vn -0.208800 0.965100 -0.157800
vn -0.216600 0.959000 -0.182800
vn -0.196500 0.975500 -0.098500
vn -0.182300 0.982500 -0.038200
vn -0.229600 0.973200 -0.005800
vn -0.397900 0.917300 0.015700
vn -0.585900 0.804700 -0.095400
vn -0.579400 0.809400 -0.096100
vn -0.554500 0.812300 -0.180600
vn -0.563900 0.811000 -0.155600
vn -0.554000 0.832500 -0.003700
vn -0.593500 0.804000 -0.035600
vn -0.467500 0.798600 -0.378900
vn -0.433500 0.813200 -0.388200
vn -0.425900 0.802500 -0.417900
vn -0.469300 0.782600 -0.409000
vn -0.363200 0.830800 -0.421600
vn -0.369800 0.846600 -0.382600
vn -0.381100 0.873700 -0.302200
vn -0.489200 0.816400 -0.306700
vn -0.463300 0.824700 -0.324300
vn -0.268000 0.885200 -0.380200
vn -0.255400 0.875400 -0.410400
vn -0.299800 0.857200 -0.418700
vn -0.302000 0.870300 -0.389000
vn -0.289300 0.900200 -0.325400
vn -0.265500 0.913500 -0.308100
vn -0.243300 0.943500 -0.224700
vn -0.390200 0.896200 -0.210900
vn -0.257200 0.933200 -0.250900
vn -0.525300 0.821100 -0.222900
vn -0.508600 0.824100 -0.249300
vn -0.489200 0.764100 -0.420400
vn -0.442600 0.784500 -0.434300
vn -0.467600 0.762100 -0.447700
vn -0.498100 0.729000 -0.469500
vn -0.349700 0.798600 -0.489900
vn -0.359900 0.822800 -0.439800
vn -0.228500 0.877300 -0.422000
vn -0.197500 0.859500 -0.471400
vn -0.242100 0.859900 -0.449400
vn -0.275400 0.857000 -0.435500
vn 0.160200 -0.979600 0.120900
vn 0.396800 -0.913100 0.094200
vn 0.394000 -0.905500 0.157400
vn 0.073000 -0.979900 0.185300
vn -0.046800 -0.977100 0.207500
vn -0.021500 -0.979700 0.199000
vn 0.049100 -0.977800 0.203400
vn 0.193700 -0.968000 0.159100
vn 0.395000 -0.908400 0.137200
vn 0.607300 -0.785600 0.118100
vn 0.732500 -0.652400 0.194200
vn 0.747900 -0.632200 0.202400
vn 0.667800 -0.721800 0.181500
vn 0.576400 -0.802000 0.156700
vn 0.682800 -0.702800 0.199300
vn 0.481800 -0.791100 0.376900
vn 0.577300 -0.733200 0.359400
vn 0.593600 -0.743300 0.308400
vn 0.502200 -0.808900 0.305700
vn 0.381100 -0.873700 0.302300
vn 0.369800 -0.846600 0.382800
vn 0.363200 -0.830700 0.421800
vn 0.486200 -0.774400 0.404700
vn 0.596900 -0.717500 0.359000
vn 0.252800 -0.890500 0.378400
vn 0.251000 -0.917900 0.307300
vn 0.140800 -0.939800 0.311400
vn 0.145000 -0.920700 0.362200
vn 0.120200 -0.924300 0.362000
vn 0.237900 -0.882200 0.406400
vn 0.229100 -0.947100 0.224500
vn 0.390200 -0.896200 0.210900
vn 0.107100 -0.963100 0.246700
vn 0.537700 -0.813300 0.222500
vn 0.633000 -0.734900 0.243300
vn 0.514300 -0.758400 0.400400
vn 0.644000 -0.695000 0.319700
vn 0.361900 -0.827700 0.428800
vn 0.370300 -0.847700 0.379800
vn 0.584600 -0.742100 0.327700
vn 0.671300 -0.682100 0.289900
vn 0.206900 -0.891800 0.402400
vn 0.071300 -0.943500 0.323400
vn 0.043000 -0.954800 0.294000
vn 0.146300 -0.932300 0.330600
vn 0.818000 0.386200 -0.426200
vn 0.646100 0.181500 -0.741300
vn 0.857300 0.430600 -0.282100
vn 0.671300 -0.682100 0.289900
vn -0.070700 -0.443800 -0.893300
vn -0.581700 -0.351600 -0.733400
vn 0.206400 -0.489800 -0.847000
vn 0.043000 -0.954800 0.294000
vn -0.959300 -0.021800 0.281600
vn -0.822100 0.038500 0.568000
vn -0.990800 -0.102400 0.088900
vn -0.046800 -0.977100 0.207500
vn 0.395000 0.338700 0.853900
vn 0.539600 0.629600 0.558900
vn 0.002400 0.010400 0.999900
vn 0.747900 -0.632200 0.202400
vn 0.674100 0.687100 0.271200
vn 0.752400 0.654100 0.078000
vn 0.362000 -0.256000 -0.896300
vn -0.845100 -0.335900 -0.415700
vn -0.903200 -0.333200 -0.270400
vn -0.507300 -0.052900 0.860100
vn -0.982800 -0.181000 -0.035800
vn -0.966200 -0.237700 -0.099800
vn 0.803000 0.594000 -0.047100
vn 0.832500 0.542700 -0.111300
vn 0.855500 0.487700 -0.173700
vn -0.942500 -0.292400 -0.161900
vt 0.839504 0.118056
vt 0.856743 0.205307
vt 0.741230 0.205307
vt 0.734555 0.106726
vt 0.724541 0.032791
vt 0.813647 0.052618
vt 0.868992 0.081539
vt 0.913398 0.129584
vt 0.940923 0.205307
vt 0.839504 0.292557
vt 0.813647 0.357995
vt 0.724541 0.377822
vt 0.734555 0.303887
vt 0.913398 0.281029
vt 0.868992 0.329074
vt 0.369475 0.299954
vt 0.368286 0.370940
vt 0.245840 0.351447
vt 0.246397 0.288815
vt 0.246768 0.205307
vt 0.370268 0.205307
vt 0.494283 0.205307
vt 0.492822 0.304944
vt 0.490632 0.379672
vt 0.369475 0.110659
vt 0.246397 0.121798
vt 0.245841 0.059166
vt 0.368286 0.039673
vt 0.490632 0.030941
vt 0.492822 0.105669
vt 0.616755 0.103478
vt 0.619174 0.205307
vt 0.613127 0.027106
vt 0.616755 0.307135
vt 0.613126 0.383507
vt 0.123273 0.268175
vt 0.123047 0.315326
vt 0.054743 0.283353
vt 0.030912 0.249131
vt 0.030973 0.205306
vt 0.123423 0.205306
vt 0.123273 0.142438
vt 0.030912 0.161481
vt 0.054744 0.127260
vt 0.123047 0.095287
vt 0.839504 0.118056
vt 0.856743 0.205307
vt 0.968983 0.205307
vt 0.938030 0.133427
vt 0.876123 0.061548
vt 0.805028 0.030806
vt 0.721203 0.008146
vt 0.734555 0.106726
vt 0.741230 0.205307
vt 0.839504 0.292557
vt 0.805028 0.379807
vt 0.876123 0.349065
vt 0.938030 0.277186
vt 0.734555 0.303887
vt 0.721203 0.402467
vt 0.369475 0.299954
vt 0.367890 0.394602
vt 0.489902 0.404581
vt 0.492822 0.304944
vt 0.494283 0.205307
vt 0.370268 0.205307
vt 0.246768 0.205307
vt 0.246397 0.288815
vt 0.245655 0.372324
vt 0.369475 0.110659
vt 0.492822 0.105669
vt 0.489902 0.006032
vt 0.367890 0.016011
vt 0.245655 0.038289
vt 0.246397 0.121798
vt 0.616755 0.103478
vt 0.619174 0.205307
vt 0.611917 0.001649
vt 0.616755 0.307135
vt 0.611917 0.408964
vt 0.123273 0.268175
vt 0.122972 0.331043
vt 0.123423 0.205306
vt 0.000156 0.205306
vt 0.000125 0.242784
vt 0.000064 0.280261
vt 0.123273 0.142438
vt 0.122972 0.079570
vt 0.000064 0.130352
vt 0.000125 0.167829
vt 0.122972 0.331043
vt 0.030806 0.283587
vt 0.245655 0.372324
vt 0.030806 0.283587
vt 0.000125 0.167829
vt 0.030806 0.127026
vt 0.000156 0.205306
vt 0.030806 0.127026
vt 0.805028 0.030806
vt 0.873826 0.071832
vt 0.721203 0.008146
vt 0.873826 0.071832
vt 0.938030 0.277186
vt 0.873826 0.338781
vt 0.968983 0.205307
vt 0.873826 0.338781
vt 0.805028 0.379807
vt 0.721203 0.402467
vt 0.000125 0.242784
vt 0.122972 0.079570
vt 0.245655 0.038289
vt 0.938030 0.133427
vt 0.611917 0.001649
vt 0.489902 0.006032
vt 0.611917 0.408964
vt 0.489902 0.404581
vt 0.367890 0.394602
vt 0.367890 0.016011
f 1/1/1 2/2/2 3/3/3
f 1/1/1 3/3/3 4/4/4
f 1/1/1 4/4/4 5/5/5
f 1/1/1 5/5/5 6/6/6
f 1/1/1 6/6/6 7/7/7
f 1/1/1 7/7/7 8/8/8
f 1/1/1 8/8/8 9/9/9
f 1/1/1 9/9/9 2/2/2
f 10/10/10 11/11/11 12/12/12
f 10/10/10 12/12/12 13/13/13
f 10/10/10 13/13/13 3/3/3
f 10/10/10 3/3/3 2/2/2
f 10/10/10 2/2/2 9/9/9
f 10/10/10 9/9/9 14/14/14
f 10/10/10 14/14/14 15/15/15
f 10/10/10 15/15/15 11/11/11
f 16/16/16 17/17/17 18/18/18
f 16/16/16 18/18/18 19/19/19
f 16/16/16 19/19/19 20/20/20
f 16/16/16 20/20/20 21/21/21
f 16/16/16 21/21/21 22/22/22
f 16/16/16 22/22/22 23/23/23
f 16/16/16 23/23/23 24/24/24
f 16/16/16 24/24/24 17/17/17
f 25/25/25 21/21/21 20/20/20
f 25/25/25 20/20/20 26/26/26
f 25/25/25 26/26/26 27/27/27
f 25/25/25 27/27/27 28/28/28
f 25/25/25 28/28/28 29/29/29
f 25/25/25 29/29/29 30/30/30
f 25/25/25 30/30/30 22/22/22
f 25/25/25 22/22/22 21/21/21
f 31/31/31 32/32/32 22/22/22
f 31/31/31 22/22/22 30/30/30
f 31/31/31 30/30/30 29/29/29
f 31/31/31 29/29/29 33/33/33
f 31/31/31 33/33/33 5/5/5
f 31/31/31 5/5/5 4/4/4
f 31/31/31 4/4/4 3/3/3
f 31/31/31 3/3/3 32/32/32
f 34/34/34 35/35/35 24/24/24
f 34/34/34 24/24/24 23/23/23
f 34/34/34 23/23/23 22/22/22
f 34/34/34 22/22/22 32/32/32
f 34/34/34 32/32/32 3/3/3
f 34/34/34 3/3/3 13/13/13
f 34/34/34 13/13/13 12/12/12
f 34/34/34 12/12/12 35/35/35
f 36/36/36 37/37/37 38/38/38
f 36/36/36 38/38/38 39/39/39
f 36/36/36 39/39/39 40/40/40
f 36/36/36 40/40/40 41/41/41
f 36/36/36 41/41/41 20/20/20
f 36/36/36 20/20/20 19/19/19
f 36/36/36 19/19/19 18/18/18
f 36/36/36 18/18/18 37/37/37
f 42/42/42 41/41/41 40/40/40
f 42/42/42 40/40/40 43/43/43
f 42/42/42 43/43/43 44/44/44
f 42/42/42 44/44/44 45/45/45
f 42/42/42 45/45/45 27/27/27
f 42/42/42 27/27/27 26/26/26
f 42/42/42 26/26/26 20/20/20
f 42/42/42 20/20/20 41/41/41
f 46/46/46 47/47/47 48/48/48
f 46/46/46 48/48/48 49/49/49
f 46/46/46 49/49/49 50/50/50
f 46/46/46 50/50/50 51/51/51
f 46/46/46 51/51/51 52/52/52
f 46/46/46 52/52/52 53/53/53
f 46/46/46 53/53/53 54/54/54
f 46/46/46 54/54/54 47/47/47
f 55/55/55 56/56/56 57/57/57
f 55/55/55 57/57/57 58/58/58
f 55/55/55 58/58/58 48/48/48
f 55/55/55 48/48/48 47/47/47
f 55/55/55 47/47/47 54/54/54
f 55/55/55 54/54/54 59/59/59
f 55/55/55 59/59/59 60/60/60
f 55/55/55 60/60/60 56/56/56
f 61/61/61 62/62/62 63/63/63
f 61/61/61 63/63/63 64/64/64
f 61/61/61 64/64/64 65/65/65
f 61/61/61 65/65/65 66/66/66
f 61/61/61 66/66/66 67/67/67
f 61/61/61 67/67/67 68/68/68
f 61/61/61 68/68/68 69/69/69
f 61/61/61 69/69/69 62/62/62
f 70/70/70 66/66/66 65/65/65
f 70/70/70 65/65/65 71/71/71
f 70/70/70 71/71/71 72/72/72
f 70/70/70 72/72/72 73/73/73
f 70/70/70 73/73/73 74/74/74
f 70/70/70 74/74/74 75/75/75
f 70/70/70 75/75/75 67/67/67
f 70/70/70 67/67/67 66/66/66
f 76/76/76 77/77/77 54/54/54
f 76/76/76 54/54/54 53/53/53
f 76/76/76 53/53/53 52/52/52
f 76/76/76 52/52/52 78/78/78
f 76/76/76 78/78/78 72/72/72
f 76/76/76 72/72/72 71/71/71
f 76/76/76 71/71/71 65/65/65
f 76/76/76 65/65/65 77/77/77
f 79/79/79 80/80/80 60/60/60
f 79/79/79 60/60/60 59/59/59
f 79/79/79 59/59/59 54/54/54
f 79/79/79 54/54/54 77/77/77
f 79/79/79 77/77/77 65/65/65
f 79/79/79 65/65/65 64/64/64
f 79/79/79 64/64/64 63/63/63
f 79/79/79 63/63/63 80/80/80
f 81/81/81 82/82/82 69/69/69
f 81/81/81 69/69/69 68/68/68
f 81/81/81 68/68/68 67/67/67
f 81/81/81 67/67/67 83/83/83
f 81/81/81 83/83/83 84/84/84
f 81/81/81 84/84/84 85/85/85
f 81/81/81 85/85/85 86/86/86
f 81/81/81 86/86/86 82/82/82
f 87/87/87 83/83/83 67/67/67
f 87/87/87 67/67/67 75/75/75
f 87/87/87 75/75/75 74/74/74
f 87/87/87 74/74/74 88/88/88
f 87/87/87 88/88/88 89/89/89
f 87/87/87 89/89/89 90/90/90
f 87/87/87 90/90/90 84/84/84
f 87/87/87 84/84/84 83/83/83
f 91/91/91 92/92/92 38/38/38
f 91/91/91 38/38/38 37/37/37
f 91/91/91 37/37/37 18/18/18
f 91/91/91 18/18/18 93/93/93
f 91/91/91 93/93/93 69/69/69
f 91/91/91 69/69/69 82/82/82
f 91/91/91 82/82/82 94/94/94
f 91/91/91 94/94/94 92/92/92
f 95/95/95 96/96/96 44/44/44
f 95/95/95 44/44/44 43/43/43
f 95/95/95 43/43/43 40/40/40
f 95/95/95 40/40/40 97/97/97
f 95/95/95 97/97/97 84/84/84
f 95/95/95 84/84/84 90/90/90
f 95/95/95 90/90/90 98/98/98
f 95/95/95 98/98/98 96/96/96
f 99/99/99 100/100/100 7/7/7
f 99/99/99 7/7/7 6/6/6
f 99/99/99 6/6/6 5/5/5
f 99/99/99 5/5/5 101/101/101
f 99/99/99 101/101/101 52/52/52
f 99/99/99 52/52/52 51/51/51
f 99/99/99 51/51/51 102/102/102
f 99/99/99 102/102/102 100/100/100
f 103/103/103 104/104/104 15/15/15
f 103/103/103 15/15/15 14/14/14
f 103/103/103 14/14/14 9/9/9
f 103/103/103 9/9/9 105/105/105
f 103/103/103 105/105/105 48/48/48
f 103/103/103 48/48/48 58/58/58
f 103/103/103 58/58/58 106/106/106
f 103/103/103 106/106/106 104/104/104
f 107/107/107 108/108/108 12/12/12
f 107/107/107 12/12/12 11/11/11
f 107/107/107 11/11/11 15/15/15
f 107/107/107 15/15/15 104/104/104
f 107/107/107 104/104/104 106/106/106
f 107/107/107 106/106/106 56/56/56
f 107/107/107 56/56/56 60/60/60
f 107/107/107 60/60/60 108/108/108
f 109/109/109 97/97/97 40/40/40
f 109/109/109 40/40/40 39/39/39
f 109/109/109 39/39/39 38/38/38
f 109/109/109 38/38/38 92/92/92
f 109/109/109 92/92/92 94/94/94
f 109/109/109 94/94/94 85/85/85
f 109/109/109 85/85/85 84/84/84
f 109/109/109 84/84/84 97/97/97
f 110/110/110 111/111/111 27/27/27
f 110/110/110 27/27/27 45/45/45
f 110/110/110 45/45/45 44/44/44
f 110/110/110 44/44/44 96/96/96
f 110/110/110 96/96/96 98/98/98
f 110/110/110 98/98/98 88/88/88
f 110/110/110 88/88/88 74/74/74
f 110/110/110 74/74/74 111/111/111
f 112/112/112 105/105/105 9/9/9
f 112/112/112 9/9/9 8/8/8
f 112/112/112 8/8/8 7/7/7
f 112/112/112 7/7/7 100/100/100
f 112/112/112 100/100/100 102/102/102
f 112/112/112 102/102/102 49/49/49
f 112/112/112 49/49/49 48/48/48
f 112/112/112 48/48/48 105/105/105
f 113/113/113 101/101/101 5/5/5
f 113/113/113 5/5/5 33/33/33
f 113/113/113 33/33/33 29/29/29
f 113/113/113 29/29/29 114/114/114
f 113/113/113 114/114/114 72/72/72
f 113/113/113 72/72/72 78/78/78
f 113/113/113 78/78/78 52/52/52
f 113/113/113 52/52/52 101/101/101
f 115/115/115 116/116/116 24/24/24
f 115/115/115 24/24/24 35/35/35
f 115/115/115 35/35/35 12/12/12
f 115/115/115 12/12/12 108/108/108
f 115/115/115 108/108/108 60/60/60
f 115/115/115 60/60/60 80/80/80
f 115/115/115 80/80/80 63/63/63
f 115/115/115 63/63/63 116/116/116
f 117/117/117 93/93/93 18/18/18
f 117/117/117 18/18/18 17/17/17
f 117/117/117 17/17/17 24/24/24
f 117/117/117 24/24/24 116/116/116
f 117/117/117 116/116/116 63/63/63
f 117/117/117 63/63/63 62/62/62
f 117/117/117 62/62/62 69/69/69
f 117/117/117 69/69/69 93/93/93
f 118/118/118 114/114/114 29/29/29
f 118/118/118 29/29/29 28/28/28
f 118/118/118 28/28/28 27/27/27
f 118/118/118 27/27/27 111/111/111
f 118/118/118 111/111/111 74/74/74
f 118/118/118 74/74/74 73/73/73
f 118/118/118 73/73/73 72/72/72
f 118/118/118 72/72/72 114/114/114
