v -2.379216 0.718548 -1.108944
v -2.380230 0.718400 -1.107102
v -2.378003 0.716749 -1.106662
v -2.377129 0.717052 -1.108816
v -2.376255 0.717365 -1.110378
v -2.378079 0.718643 -1.110241
v -2.379438 0.719233 -1.109836
v -2.380775 0.719513 -1.108982
v -2.381916 0.719532 -1.107443
v -2.380205 0.718264 -1.104998
v -2.379814 0.718144 -1.103320
v -2.378226 0.716798 -1.102516
v -2.378254 0.716729 -1.104331
v -2.381631 0.719267 -1.105566
v -2.380843 0.718829 -1.104231
v -2.372238 0.710400 -1.103328
v -2.372470 0.710405 -1.101620
v -2.370673 0.707978 -1.101820
v -2.370480 0.707968 -1.103334
v -2.370123 0.708021 -1.105316
v -2.371823 0.710465 -1.105566
v -2.373675 0.712775 -1.105864
v -2.374095 0.712722 -1.103518
v -2.374314 0.712747 -1.101724
v -2.371136 0.710717 -1.107723
v -2.369506 0.708248 -1.107220
v -2.368966 0.708469 -1.108630
v -2.370539 0.710960 -1.109320
v -2.372294 0.713328 -1.109779
v -2.372942 0.713053 -1.108115
v -2.374989 0.715192 -1.108510
v -2.375777 0.714872 -1.106239
v -2.374263 0.715528 -1.110178
v -2.376159 0.714856 -1.103845
v -2.376312 0.714939 -1.102003
v -2.368712 0.705500 -1.103595
v -2.368816 0.705533 -1.102451
v -2.367793 0.704137 -1.103102
v -2.367404 0.703620 -1.103890
v -2.367282 0.703607 -1.104922
v -2.368475 0.705520 -1.105083
v -2.367984 0.705709 -1.106495
v -2.366905 0.703763 -1.105877
v -2.366896 0.704395 -1.106678
v -2.367540 0.705900 -1.107537
v -2.379337 0.718380 -1.109018
v -2.380360 0.718228 -1.107147
v -2.382010 0.719401 -1.107476
v -2.380862 0.719385 -1.109039
v -2.379501 0.719140 -1.109884
v -2.378165 0.718520 -1.110311
v -2.376348 0.717245 -1.110445
v -2.377258 0.716888 -1.108889
v -2.378139 0.716582 -1.106709
v -2.380341 0.718091 -1.105013
v -2.379919 0.718015 -1.103316
v -2.380919 0.718733 -1.104232
v -2.381731 0.719135 -1.105575
v -2.378396 0.716561 -1.104351
v -2.378335 0.716673 -1.102517
v -2.372408 0.710262 -1.103360
v -2.372599 0.710301 -1.101635
v -2.374437 0.712636 -1.101736
v -2.374257 0.712574 -1.103547
v -2.373832 0.712628 -1.105914
v -2.371989 0.710327 -1.105617
v -2.370294 0.707890 -1.105368
v -2.370656 0.707836 -1.103367
v -2.370806 0.707879 -1.101835
v -2.371297 0.710581 -1.107793
v -2.373094 0.712908 -1.108185
v -2.372405 0.713221 -1.109841
v -2.370656 0.710859 -1.109382
v -2.369087 0.708373 -1.108693
v -2.369671 0.708119 -1.107291
v -2.375129 0.715037 -1.108581
v -2.375923 0.714714 -1.106287
v -2.374364 0.715414 -1.110242
v -2.376310 0.714698 -1.103870
v -2.376429 0.714820 -1.102010
v -2.368889 0.705371 -1.103627
v -2.368951 0.705436 -1.102465
v -2.368649 0.705392 -1.105136
v -2.367412 0.703511 -1.104961
v -2.367537 0.703524 -1.103913
v -2.367892 0.704065 -1.103115
v -2.368152 0.705583 -1.106568
v -2.367662 0.705807 -1.107602
v -2.366987 0.704325 -1.106723
v -2.367030 0.703669 -1.105933
v -2.368911 0.705501 -1.102074
v -2.367477 0.703642 -1.103055
v -2.370797 0.707937 -1.101320
v -2.367892 0.704065 -1.103115
v -2.366601 0.703073 -1.105696
v -2.366578 0.703901 -1.106637
v -2.366941 0.702927 -1.104885
v -2.366987 0.704325 -1.106723
v -2.377738 0.718620 -1.110707
v -2.379452 0.719356 -1.110076
v -2.376004 0.717417 -1.110931
v -2.379501 0.719140 -1.109884
v -2.382150 0.719542 -1.105759
v -2.380972 0.718918 -1.104012
v -2.382519 0.719850 -1.107571
v -2.380919 0.718733 -1.104232
v -2.379731 0.718047 -1.102755
v -2.378266 0.716766 -1.101908
v -2.367027 0.702950 -1.103998
v -2.367446 0.705922 -1.107916
v -2.368839 0.708500 -1.109131
v -2.381333 0.719777 -1.109020
v -2.374065 0.715590 -1.110765
v -2.372126 0.713373 -1.110364
v -2.376416 0.714914 -1.101390
v -2.374442 0.712707 -1.101129
v -2.372605 0.710360 -1.101055
v -2.370391 0.710997 -1.109883
vn 0.494900 0.769600 0.403400
vn 0.543700 0.816200 0.195200
vn 0.590900 0.780400 0.204400
vn 0.549700 0.738100 0.391100
vn 0.571900 0.723900 0.385900
vn 0.498200 0.771300 0.396100
vn 0.443800 0.801500 0.400600
vn 0.433200 0.830000 0.351200
vn 0.466300 0.866200 0.179400
vn 0.600000 0.799800 -0.015600
vn 0.599300 0.800500 -0.007500
vn 0.661200 0.749600 0.029500
vn 0.643600 0.765100 0.016500
vn 0.519000 0.854700 0.009000
vn 0.552500 0.832800 -0.032900
vn 0.787100 0.603300 0.128500
vn 0.785700 0.596000 0.165900
vn 0.803800 0.569600 0.171600
vn 0.807700 0.576400 0.123600
vn 0.790500 0.564000 0.238900
vn 0.765800 0.598600 0.235100
vn 0.712000 0.664600 0.226400
vn 0.741400 0.662300 0.107600
vn 0.748300 0.649200 0.136400
vn 0.734400 0.588100 0.338800
vn 0.751200 0.560200 0.349200
vn 0.770400 0.560100 0.304600
vn 0.750800 0.585900 0.304700
vn 0.702200 0.636000 0.320000
vn 0.682300 0.645300 0.343600
vn 0.613100 0.701600 0.363200
vn 0.646700 0.731800 0.214900
vn 0.637300 0.686000 0.350900
vn 0.687600 0.723000 0.065700
vn 0.703900 0.705100 0.085700
vn 0.819300 0.564700 0.099300
vn 0.818600 0.554200 0.150900
vn 0.832700 0.540400 0.120600
vn 0.852400 0.516500 0.081700
vn 0.831200 0.499300 0.244400
vn 0.801600 0.547300 0.240500
vn 0.750400 0.544800 0.374300
vn 0.772800 0.493700 0.398700
vn 0.772900 0.523400 0.358600
vn 0.774200 0.541600 0.327400
vn -0.503300 -0.748300 -0.432000
vn -0.556900 -0.806600 -0.197800
vn -0.606600 -0.767500 -0.207400
vn -0.521100 -0.680700 -0.514800
vn -0.488700 -0.618900 -0.614800
vn -0.493000 -0.635500 -0.594200
vn -0.525600 -0.660300 -0.536300
vn -0.545400 -0.733700 -0.405200
vn -0.590800 -0.780500 -0.204400
vn -0.621400 -0.782400 0.039600
vn -0.692300 -0.693000 0.201100
vn -0.698900 -0.679400 0.223400
vn -0.678700 -0.725700 0.112600
vn -0.646700 -0.762700 -0.001600
vn -0.693200 -0.708500 0.132100
vn -0.788800 -0.604300 -0.112400
vn -0.794200 -0.607600 0.000500
vn -0.761600 -0.647800 0.017400
vn -0.743500 -0.662300 -0.092700
vn -0.712100 -0.664500 -0.226500
vn -0.765900 -0.598300 -0.235200
vn -0.790500 -0.563900 -0.238900
vn -0.808400 -0.579200 -0.104600
vn -0.796700 -0.603800 0.025200
vn -0.728200 -0.586800 -0.353900
vn -0.677000 -0.643200 -0.357600
vn -0.641800 -0.613400 -0.460200
vn -0.679900 -0.574800 -0.455400
vn -0.670600 -0.567600 -0.477600
vn -0.742800 -0.560300 -0.366500
vn -0.608100 -0.698800 -0.376700
vn -0.646700 -0.731800 -0.214900
vn -0.581300 -0.650500 -0.488800
vn -0.689700 -0.722200 -0.051200
vn -0.720300 -0.690500 0.065900
vn -0.811000 -0.580500 -0.072100
vn -0.775700 -0.625600 0.083000
vn -0.794900 -0.557500 -0.239500
vn -0.764000 -0.600900 -0.234900
vn -0.773700 -0.633500 0.007200
vn -0.757600 -0.642000 0.117700
vn -0.729700 -0.557200 -0.396200
vn -0.624200 -0.582100 -0.521100
vn -0.591300 -0.594300 -0.545100
vn -0.657800 -0.600100 -0.455100
vn 0.148900 -0.252800 0.956000
vn 0.416000 -0.499700 0.759800
vn 0.025800 -0.160800 0.986600
vn -0.757600 -0.642000 0.117700
vn 0.630000 -0.763500 -0.141500
vn 0.740700 -0.406000 -0.535300
vn 0.459400 -0.886800 0.050700
vn -0.591300 -0.594300 -0.545100
vn 0.156400 0.513300 -0.843800
vn -0.121100 0.649500 -0.750600
vn 0.304200 0.366600 -0.879200
vn -0.488700 -0.618900 -0.614800
vn -0.768400 0.533400 0.353500
vn -0.481400 0.545900 0.685700
vn -0.839000 0.515900 -0.173000
vn -0.698900 -0.679400 0.223400
vn -0.275700 0.388800 0.879100
vn -0.156900 0.234100 0.959400
vn 0.515600 -0.796600 0.315500
vn 0.588400 -0.125600 -0.798700
vn 0.491600 -0.027000 -0.870400
vn -0.529700 0.601600 -0.597800
vn 0.379200 0.240100 -0.893600
vn 0.406700 0.157800 -0.899800
vn -0.092900 0.104200 0.990200
vn -0.068600 0.020600 0.997400
vn -0.045100 -0.061900 0.997000
vn 0.430700 0.074800 -0.899400
vt 0.839504 0.118056
vt 0.856743 0.205307
vt 0.741230 0.205307
vt 0.734555 0.106726
vt 0.724541 0.032791
vt 0.813647 0.052618
vt 0.868992 0.081539
vt 0.913398 0.129584
vt 0.940923 0.205307
vt 0.839504 0.292557
vt 0.813647 0.357995
vt 0.724541 0.377822
vt 0.734555 0.303887
vt 0.913398 0.281029
vt 0.868992 0.329074
vt 0.369475 0.299954
vt 0.368286 0.370940
vt 0.245840 0.351447
vt 0.246397 0.288815
vt 0.246768 0.205307
vt 0.370268 0.205307
vt 0.494283 0.205307
vt 0.492822 0.304944
vt 0.490632 0.379672
vt 0.369475 0.110659
vt 0.246397 0.121798
vt 0.245841 0.059166
vt 0.368286 0.039673
vt 0.490632 0.030941
vt 0.492822 0.105669
vt 0.616755 0.103478
vt 0.619174 0.205307
vt 0.613127 0.027106
vt 0.616755 0.307135
vt 0.613126 0.383507
vt 0.123273 0.268175
vt 0.123047 0.315326
vt 0.054743 0.283353
vt 0.030912 0.249131
vt 0.030973 0.205306
vt 0.123423 0.205306
vt 0.123273 0.142438
vt 0.030912 0.161481
vt 0.054744 0.127260
vt 0.123047 0.095287
vt 0.839504 0.118056
vt 0.856743 0.205307
vt 0.968983 0.205307
vt 0.938030 0.133427
vt 0.876123 0.061548
vt 0.805028 0.030806
vt 0.721203 0.008146
vt 0.734555 0.106726
vt 0.741230 0.205307
vt 0.839504 0.292557
vt 0.805028 0.379807
vt 0.876123 0.349065
vt 0.938030 0.277186
vt 0.734555 0.303887
vt 0.721203 0.402467
vt 0.369475 0.299954
vt 0.367890 0.394602
vt 0.489902 0.404581
vt 0.492822 0.304944
vt 0.494283 0.205307
vt 0.370268 0.205307
vt 0.246768 0.205307
vt 0.246397 0.288815
vt 0.245655 0.372324
vt 0.369475 0.110659
vt 0.492822 0.105669
vt 0.489902 0.006032
vt 0.367890 0.016011
vt 0.245655 0.038289
vt 0.246397 0.121798
vt 0.616755 0.103478
vt 0.619174 0.205307
vt 0.611917 0.001649
vt 0.616755 0.307135
vt 0.611917 0.408964
vt 0.123273 0.268175
vt 0.122972 0.331043
vt 0.123423 0.205306
vt 0.000156 0.205306
vt 0.000125 0.242784
vt 0.000064 0.280261
vt 0.123273 0.142438
vt 0.122972 0.079570
vt 0.000064 0.130352
vt 0.000125 0.167829
vt 0.122972 0.331043
vt 0.030806 0.283587
vt 0.245655 0.372324
vt 0.030806 0.283587
vt 0.000125 0.167829
vt 0.030806 0.127026
vt 0.000156 0.205306
vt 0.030806 0.127026
vt 0.805028 0.030806
vt 0.873826 0.071832
vt 0.721203 0.008146
vt 0.873826 0.071832
vt 0.938030 0.277186
vt 0.873826 0.338781
vt 0.968983 0.205307
vt 0.873826 0.338781
vt 0.805028 0.379807
vt 0.721203 0.402467
vt 0.000125 0.242784
vt 0.122972 0.079570
vt 0.245655 0.038289
vt 0.938030 0.133427
vt 0.611917 0.001649
vt 0.489902 0.006032
vt 0.611917 0.408964
vt 0.489902 0.404581
vt 0.367890 0.394602
vt 0.367890 0.016011
f 1/1/1 2/2/2 3/3/3
f 1/1/1 3/3/3 4/4/4
f 1/1/1 4/4/4 5/5/5
f 1/1/1 5/5/5 6/6/6
f 1/1/1 6/6/6 7/7/7
f 1/1/1 7/7/7 8/8/8
f 1/1/1 8/8/8 9/9/9
f 1/1/1 9/9/9 2/2/2
f 10/10/10 11/11/11 12/12/12
f 10/10/10 12/12/12 13/13/13
f 10/10/10 13/13/13 3/3/3
f 10/10/10 3/3/3 2/2/2
f 10/10/10 2/2/2 9/9/9
f 10/10/10 9/9/9 14/14/14
f 10/10/10 14/14/14 15/15/15
f 10/10/10 15/15/15 11/11/11
f 16/16/16 17/17/17 18/18/18
f 16/16/16 18/18/18 19/19/19
f 16/16/16 19/19/19 20/20/20
f 16/16/16 20/20/20 21/21/21
f 16/16/16 21/21/21 22/22/22
f 16/16/16 22/22/22 23/23/23
f 16/16/16 23/23/23 24/24/24
f 16/16/16 24/24/24 17/17/17
f 25/25/25 21/21/21 20/20/20
f 25/25/25 20/20/20 26/26/26
f 25/25/25 26/26/26 27/27/27
f 25/25/25 27/27/27 28/28/28
f 25/25/25 28/28/28 29/29/29
f 25/25/25 29/29/29 30/30/30
f 25/25/25 30/30/30 22/22/22
f 25/25/25 22/22/22 21/21/21
f 31/31/31 32/32/32 22/22/22
f 31/31/31 22/22/22 30/30/30
f 31/31/31 30/30/30 29/29/29
f 31/31/31 29/29/29 33/33/33
f 31/31/31 33/33/33 5/5/5
f 31/31/31 5/5/5 4/4/4
f 31/31/31 4/4/4 3/3/3
f 31/31/31 3/3/3 32/32/32
f 34/34/34 35/35/35 24/24/24
f 34/34/34 24/24/24 23/23/23
f 34/34/34 23/23/23 22/22/22
f 34/34/34 22/22/22 32/32/32
f 34/34/34 32/32/32 3/3/3
f 34/34/34 3/3/3 13/13/13
f 34/34/34 13/13/13 12/12/12
f 34/34/34 12/12/12 35/35/35
f 36/36/36 37/37/37 38/38/38
f 36/36/36 38/38/38 39/39/39
f 36/36/36 39/39/39 40/40/40
f 36/36/36 40/40/40 41/41/41
f 36/36/36 41/41/41 20/20/20
f 36/36/36 20/20/20 19/19/19
f 36/36/36 19/19/19 18/18/18
f 36/36/36 18/18/18 37/37/37
f 42/42/42 41/41/41 40/40/40
f 42/42/42 40/40/40 43/43/43
f 42/42/42 43/43/43 44/44/44
f 42/42/42 44/44/44 45/45/45
f 42/42/42 45/45/45 27/27/27
f 42/42/42 27/27/27 26/26/26
f 42/42/42 26/26/26 20/20/20
f 42/42/42 20/20/20 41/41/41
f 46/46/46 47/47/47 48/48/48
f 46/46/46 48/48/48 49/49/49
f 46/46/46 49/49/49 50/50/50
f 46/46/46 50/50/50 51/51/51
f 46/46/46 51/51/51 52/52/52
f 46/46/46 52/52/52 53/53/53
f 46/46/46 53/53/53 54/54/54
f 46/46/46 54/54/54 47/47/47
f 55/55/55 56/56/56 57/57/57
f 55/55/55 57/57/57 58/58/58
f 55/55/55 58/58/58 48/48/48
f 55/55/55 48/48/48 47/47/47
f 55/55/55 47/47/47 54/54/54
f 55/55/55 54/54/54 59/59/59
f 55/55/55 59/59/59 60/60/60
f 55/55/55 60/60/60 56/56/56
f 61/61/61 62/62/62 63/63/63
f 61/61/61 63/63/63 64/64/64
f 61/61/61 64/64/64 65/65/65
f 61/61/61 65/65/65 66/66/66
f 61/61/61 66/66/66 67/67/67
f 61/61/61 67/67/67 68/68/68
f 61/61/61 68/68/68 69/69/69
f 61/61/61 69/69/69 62/62/62
f 70/70/70 66/66/66 65/65/65
f 70/70/70 65/65/65 71/71/71
f 70/70/70 71/71/71 72/72/72
f 70/70/70 72/72/72 73/73/73
f 70/70/70 73/73/73 74/74/74
f 70/70/70 74/74/74 75/75/75
f 70/70/70 75/75/75 67/67/67
f 70/70/70 67/67/67 66/66/66
f 76/76/76 77/77/77 54/54/54
f 76/76/76 54/54/54 53/53/53
f 76/76/76 53/53/53 52/52/52
f 76/76/76 52/52/52 78/78/78
f 76/76/76 78/78/78 72/72/72
f 76/76/76 72/72/72 71/71/71
f 76/76/76 71/71/71 65/65/65
f 76/76/76 65/65/65 77/77/77
f 79/79/79 80/80/80 60/60/60
f 79/79/79 60/60/60 59/59/59
f 79/79/79 59/59/59 54/54/54
f 79/79/79 54/54/54 77/77/77
f 79/79/79 77/77/77 65/65/65
f 79/79/79 65/65/65 64/64/64
f 79/79/79 64/64/64 63/63/63
f 79/79/79 63/63/63 80/80/80
f 81/81/81 82/82/82 69/69/69
f 81/81/81 69/69/69 68/68/68
f 81/81/81 68/68/68 67/67/67
f 81/81/81 67/67/67 83/83/83
f 81/81/81 83/83/83 84/84/84
f 81/81/81 84/84/84 85/85/85
f 81/81/81 85/85/85 86/86/86
f 81/81/81 86/86/86 82/82/82
f 87/87/87 83/83/83 67/67/67
f 87/87/87 67/67/67 75/75/75
f 87/87/87 75/75/75 74/74/74
f 87/87/87 74/74/74 88/88/88
f 87/87/87 88/88/88 89/89/89
f 87/87/87 89/89/89 90/90/90
f 87/87/87 90/90/90 84/84/84
f 87/87/87 84/84/84 83/83/83
f 91/91/91 92/92/92 38/38/38
f 91/91/91 38/38/38 37/37/37
f 91/91/91 37/37/37 18/18/18
f 91/91/91 18/18/18 93/93/93
f 91/91/91 93/93/93 69/69/69
f 91/91/91 69/69/69 82/82/82
f 91/91/91 82/82/82 94/94/94
f 91/91/91 94/94/94 92/92/92
f 95/95/95 96/96/96 44/44/44
f 95/95/95 44/44/44 43/43/43
f 95/95/95 43/43/43 40/40/40
f 95/95/95 40/40/40 97/97/97
f 95/95/95 97/97/97 84/84/84
f 95/95/95 84/84/84 90/90/90
f 95/95/95 90/90/90 98/98/98
f 95/95/95 98/98/98 96/96/96
f 99/99/99 100/100/100 7/7/7
f 99/99/99 7/7/7 6/6/6
f 99/99/99 6/6/6 5/5/5
f 99/99/99 5/5/5 101/101/101
f 99/99/99 101/101/101 52/52/52
f 99/99/99 52/52/52 51/51/51
f 99/99/99 51/51/51 102/102/102
f 99/99/99 102/102/102 100/100/100
f 103/103/103 104/104/104 15/15/15
f 103/103/103 15/15/15 14/14/14
f 103/103/103 14/14/14 9/9/9
f 103/103/103 9/9/9 105/105/105
f 103/103/103 105/105/105 48/48/48
f 103/103/103 48/48/48 58/58/58
f 103/103/103 58/58/58 106/106/106
f 103/103/103 106/106/106 104/104/104
f 107/107/107 108/108/108 12/12/12
f 107/107/107 12/12/12 11/11/11
f 107/107/107 11/11/11 15/15/15
f 107/107/107 15/15/15 104/104/104
f 107/107/107 104/104/104 106/106/106
f 107/107/107 106/106/106 56/56/56
f 107/107/107 56/56/56 60/60/60
f 107/107/107 60/60/60 108/108/108
f 109/109/109 97/97/97 40/40/40
f 109/109/109 40/40/40 39/39/39
f 109/109/109 39/39/39 38/38/38
f 109/109/109 38/38/38 92/92/92
f 109/109/109 92/92/92 94/94/94
f 109/109/109 94/94/94 85/85/85
f 109/109/109 85/85/85 84/84/84
f 109/109/109 84/84/84 97/97/97
f 110/110/110 111/111/111 27/27/27
f 110/110/110 27/27/27 45/45/45
f 110/110/110 45/45/45 44/44/44
f 110/110/110 44/44/44 96/96/96
f 110/110/110 96/96/96 98/98/98
f 110/110/110 98/98/98 88/88/88
f 110/110/110 88/88/88 74/74/74
f 110/110/110 74/74/74 111/111/111
f 112/112/112 105/105/105 9/9/9
f 112/112/112 9/9/9 8/8/8
f 112/112/112 8/8/8 7/7/7
f 112/112/112 7/7/7 100/100/100
f 112/112/112 100/100/100 102/102/102
f 112/112/112 102/102/102 49/49/49
f 112/112/112 49/49/49 48/48/48
f 112/112/112 48/48/48 105/105/105
f 113/113/113 101/101/101 5/5/5
f 113/113/113 5/5/5 33/33/33
f 113/113/113 33/33/33 29/29/29
f 113/113/113 29/29/29 114/114/114
f 113/113/113 114/114/114 72/72/72
f 113/113/113 72/72/72 78/78/78
f 113/113/113 78/78/78 52/52/52
f 113/113/113 52/52/52 101/101/101
f 115/115/115 116/116/116 24/24/24
f 115/115/115 24/24/24 35/35/35
f 115/115/115 35/35/35 12/12/12
f 115/115/115 12/12/12 108/108/108
f 115/115/115 108/108/108 60/60/60
f 115/115/115 60/60/60 80/80/80
f 115/115/115 80/80/80 63/63/63
f 115/115/115 63/63/63 116/116/116
f 117/117/117 93/93/93 18/18/18
f 117/117/117 18/18/18 17/17/17
f 117/117/117 17/17/17 24/24/24
f 117/117/117 24/24/24 116/116/116
f 117/117/117 116/116/116 63/63/63
f 117/117/117 63/63/63 62/62/62
f 117/117/117 62/62/62 69/69/69
f 117/117/117 69/69/69 93/93/93
f 118/118/118 114/114/114 29/29/29
f 118/118/118 29/29/29 28/28/28
f 118/118/118 28/28/28 27/27/27
f 118/118/118 27/27/27 111/111/111
f 118/118/118 111/111/111 74/74/74
f 118/118/118 74/74/74 73/73/73
f 118/118/118 73/73/73 72/72/72
f 118/118/118 72/72/72 114/114/114
