v -2.360033 0.711523 -1.080638
v -2.357431 0.712152 -1.081236
v -2.358697 0.711057 -1.084482
v -2.361483 0.710394 -1.083433
v -2.363747 0.710079 -1.082832
v -2.362252 0.711173 -1.080596
v -2.360784 0.711746 -1.079369
v -2.358862 0.712224 -1.078681
v -2.356452 0.712841 -1.078840
v -2.355559 0.713197 -1.082948
v -2.354405 0.714109 -1.084646
v -2.354833 0.713414 -1.087433
v -2.356398 0.712296 -1.086058
v -2.354989 0.713673 -1.080680
v -2.354429 0.714124 -1.082649
v -2.359527 0.707097 -1.095749
v -2.357803 0.708015 -1.096850
v -2.359050 0.705564 -1.099667
v -2.360566 0.704740 -1.098684
v -2.362663 0.703762 -1.097452
v -2.361907 0.706001 -1.094365
v -2.361021 0.708022 -1.091184
v -2.358544 0.709191 -1.092640
v -2.356761 0.710186 -1.093806
v -2.364510 0.705233 -1.093177
v -2.364972 0.703092 -1.096409
v -2.366772 0.702675 -1.095681
v -2.366534 0.704749 -1.092343
v -2.365894 0.706769 -1.089091
v -2.363756 0.707241 -1.089949
v -2.362736 0.708964 -1.086619
v -2.359922 0.709694 -1.087844
v -2.364963 0.708579 -1.085792
v -2.357447 0.710943 -1.089349
v -2.355695 0.712046 -1.090576
v -2.361831 0.702200 -1.101453
v -2.360731 0.702862 -1.102218
v -2.361913 0.701145 -1.103419
v -2.362844 0.700201 -1.103454
v -2.363867 0.699630 -1.102779
v -2.363371 0.701435 -1.100511
v -2.365120 0.700970 -1.099755
v -2.365098 0.699358 -1.102291
v -2.365967 0.699628 -1.101326
v -2.366498 0.700705 -1.099241
v -2.359946 0.711258 -1.080570
v -2.357309 0.711897 -1.081186
v -2.356362 0.712649 -1.078806
v -2.358800 0.712024 -1.078633
v -2.360745 0.711597 -1.079328
v -2.362205 0.710971 -1.080536
v -2.363692 0.709881 -1.082766
v -2.361388 0.710134 -1.083356
v -2.358572 0.710806 -1.084421
v -2.355405 0.712957 -1.082915
v -2.354274 0.713938 -1.084630
v -2.354336 0.713994 -1.082636
v -2.354873 0.713493 -1.080660
v -2.356243 0.712059 -1.086012
v -2.354703 0.713244 -1.087407
v -2.359365 0.706878 -1.095653
v -2.357672 0.707856 -1.096783
v -2.356632 0.710022 -1.093751
v -2.358386 0.708965 -1.092558
v -2.360884 0.707787 -1.091090
v -2.361766 0.705774 -1.094257
v -2.362519 0.703540 -1.097335
v -2.360402 0.704528 -1.098579
v -2.358917 0.705410 -1.099594
v -2.364391 0.704998 -1.093058
v -2.363643 0.706998 -1.089844
v -2.365821 0.706584 -1.089007
v -2.366456 0.704570 -1.092249
v -2.366693 0.702501 -1.095580
v -2.364851 0.702863 -1.096282
v -2.362632 0.708712 -1.086529
v -2.359791 0.709450 -1.087767
v -2.364899 0.708387 -1.085718
v -2.357291 0.710710 -1.089286
v -2.355566 0.711878 -1.090536
v -2.361665 0.701991 -1.101345
v -2.360595 0.702711 -1.102143
v -2.363227 0.701216 -1.100390
v -2.363759 0.699466 -1.102688
v -2.362718 0.700045 -1.103373
v -2.361815 0.701031 -1.103362
v -2.364999 0.700744 -1.099624
v -2.366420 0.700532 -1.099137
v -2.365906 0.699501 -1.101250
v -2.365008 0.699188 -1.102191
v -2.360302 0.703017 -1.102441
v -2.362043 0.700683 -1.104016
v -2.358483 0.705771 -1.099964
v -2.361815 0.701031 -1.103362
v -2.365051 0.698745 -1.103092
v -2.366105 0.699164 -1.101919
v -2.363984 0.698955 -1.103495
v -2.365906 0.699501 -1.101250
v -2.362975 0.710966 -1.080554
v -2.361012 0.711747 -1.079102
v -2.364481 0.709886 -1.082600
v -2.360745 0.711597 -1.079328
v -2.354748 0.713751 -1.079916
v -2.354137 0.714319 -1.082651
v -2.356086 0.712985 -1.078027
v -2.354336 0.713994 -1.082636
v -2.353959 0.714339 -1.085208
v -2.354251 0.713713 -1.087881
v -2.363126 0.699465 -1.104085
v -2.366925 0.700539 -1.099022
v -2.367339 0.702458 -1.095392
v -2.358445 0.712368 -1.078008
v -2.365680 0.708364 -1.085482
v -2.366577 0.706529 -1.088766
v -2.355051 0.712341 -1.090969
v -2.356107 0.710446 -1.094171
v -2.357168 0.708252 -1.097188
v -2.367177 0.704508 -1.092022
vn -0.219600 0.946300 -0.237100
vn -0.404500 0.905600 -0.127300
vn -0.424900 0.887000 -0.180400
vn -0.260900 0.923600 -0.280800
vn -0.277400 0.913000 -0.299000
vn -0.227100 0.945300 -0.234200
vn -0.191100 0.963600 -0.186800
vn -0.222500 0.965100 -0.138000
vn -0.369700 0.928100 -0.043500
vn -0.584800 0.809700 -0.048600
vn -0.578900 0.813600 -0.052600
vn -0.588200 0.796700 -0.138700
vn -0.587400 0.801500 -0.112300
vn -0.520900 0.853500 0.016000
vn -0.569100 0.822200 0.008300
vn -0.582800 0.735000 -0.346600
vn -0.555100 0.744600 -0.370800
vn -0.559100 0.727300 -0.398000
vn -0.595800 0.713100 -0.369400
vn -0.502800 0.749200 -0.431000
vn -0.494200 0.773400 -0.397000
vn -0.474300 0.817600 -0.326400
vn -0.575600 0.769200 -0.277500
vn -0.558400 0.771500 -0.304800
vn -0.399500 0.803600 -0.441200
vn -0.399100 0.786700 -0.471000
vn -0.443100 0.770700 -0.457800
vn -0.434000 0.789900 -0.433200
vn -0.398500 0.831400 -0.387300
vn -0.369900 0.846100 -0.383600
vn -0.318000 0.891200 -0.323400
vn -0.448300 0.859400 -0.245800
vn -0.340700 0.876700 -0.339500
vn -0.577300 0.794200 -0.189600
vn -0.571900 0.790200 -0.220200
vn -0.618300 0.694300 -0.368100
vn -0.580700 0.707600 -0.402600
vn -0.608700 0.684900 -0.400400
vn -0.644800 0.650500 -0.401300
vn -0.515900 0.702400 -0.490300
vn -0.506500 0.737400 -0.446800
vn -0.378600 0.784000 -0.491900
vn -0.368500 0.753900 -0.543900
vn -0.401300 0.762500 -0.507400
vn -0.426900 0.765200 -0.481900
vn 0.202000 -0.941700 0.268900
vn 0.410300 -0.900800 0.141900
vn 0.431600 -0.880000 0.198300
vn 0.145800 -0.921700 0.359400
vn 0.043300 -0.904900 0.423300
vn 0.063400 -0.911300 0.406800
vn 0.130500 -0.914000 0.384000
vn 0.247500 -0.925000 0.288200
vn 0.424900 -0.887100 0.180300
vn 0.613100 -0.788000 0.056700
vn 0.756500 -0.652100 0.049000
vn 0.773800 -0.631700 0.046100
vn 0.692700 -0.717100 0.077100
vn 0.599200 -0.793400 0.106600
vn 0.713100 -0.696100 0.083300
vn 0.595200 -0.729100 0.337800
vn 0.676400 -0.683800 0.273600
vn 0.672200 -0.705700 0.223900
vn 0.587200 -0.763100 0.270000
vn 0.474400 -0.817500 0.326500
vn 0.494300 -0.773300 0.397100
vn 0.502800 -0.749200 0.431100
vn 0.609700 -0.707400 0.357500
vn 0.694300 -0.670100 0.262400
vn 0.384700 -0.807900 0.446500
vn 0.356300 -0.849500 0.389200
vn 0.256000 -0.861400 0.438700
vn 0.279100 -0.832500 0.478700
vn 0.256100 -0.834100 0.488500
vn 0.381500 -0.792800 0.475300
vn 0.304800 -0.893700 0.329200
vn 0.448300 -0.859400 0.245700
vn 0.200500 -0.895100 0.398200
vn 0.588500 -0.787500 0.182900
vn 0.683800 -0.714300 0.148700
vn 0.633900 -0.694900 0.339600
vn 0.722700 -0.660200 0.204500
vn 0.504300 -0.744600 0.437300
vn 0.493600 -0.775000 0.394500
vn 0.671200 -0.699800 0.244500
vn 0.736500 -0.656000 0.164600
vn 0.351400 -0.800500 0.485400
vn 0.196400 -0.857100 0.476100
vn 0.159100 -0.872200 0.462600
vn 0.268400 -0.850500 0.452300
vn 0.592000 0.223200 -0.774400
vn 0.315200 -0.029100 -0.948500
vn 0.682600 0.294100 -0.669000
vn 0.736500 -0.656000 0.164600
vn -0.400900 -0.614700 -0.679200
vn -0.813700 -0.451600 -0.366000
vn -0.126100 -0.671300 -0.730400
vn 0.159100 -0.872200 0.462600
vn -0.780400 0.112600 0.615100
vn -0.545400 0.220900 0.808500
vn -0.881700 -0.003700 0.471700
vn 0.043300 -0.904900 0.423300
vn 0.686400 0.479000 0.547200
vn 0.706300 0.689000 0.162400
vn 0.381200 0.220100 0.897900
vn 0.773800 -0.631700 0.046100
vn 0.720900 0.674300 -0.160100
vn 0.720200 0.595400 -0.356000
vn -0.002600 -0.465900 -0.884800
vn -0.937000 -0.348900 0.014900
vn -0.935600 -0.311300 0.166400
vn -0.142900 0.168500 0.975200
vn -0.921300 -0.107500 0.373600
vn -0.929900 -0.177600 0.322100
vn 0.720200 0.506300 -0.474300
vn 0.723400 0.440500 -0.531600
vn 0.721600 0.372400 -0.583600
vn -0.931100 -0.245700 0.269500
vt 0.839504 0.118056
vt 0.856743 0.205307
vt 0.741230 0.205307
vt 0.734555 0.106726
vt 0.724541 0.032791
vt 0.813647 0.052618
vt 0.868992 0.081539
vt 0.913398 0.129584
vt 0.940923 0.205307
vt 0.839504 0.292557
vt 0.813647 0.357995
vt 0.724541 0.377822
vt 0.734555 0.303887
vt 0.913398 0.281029
vt 0.868992 0.329074
vt 0.369475 0.299954
vt 0.368286 0.370940
vt 0.245840 0.351447
vt 0.246397 0.288815
vt 0.246768 0.205307
vt 0.370268 0.205307
vt 0.494283 0.205307
vt 0.492822 0.304944
vt 0.490632 0.379672
vt 0.369475 0.110659
vt 0.246397 0.121798
vt 0.245841 0.059166
vt 0.368286 0.039673
vt 0.490632 0.030941
vt 0.492822 0.105669
vt 0.616755 0.103478
vt 0.619174 0.205307
vt 0.613127 0.027106
vt 0.616755 0.307135
vt 0.613126 0.383507
vt 0.123273 0.268175
vt 0.123047 0.315326
vt 0.054743 0.283353
vt 0.030912 0.249131
vt 0.030973 0.205306
vt 0.123423 0.205306
vt 0.123273 0.142438
vt 0.030912 0.161481
vt 0.054744 0.127260
vt 0.123047 0.095287
vt 0.839504 0.118056
vt 0.856743 0.205307
vt 0.968983 0.205307
vt 0.938030 0.133427
vt 0.876123 0.061548
vt 0.805028 0.030806
vt 0.721203 0.008146
vt 0.734555 0.106726
vt 0.741230 0.205307
vt 0.839504 0.292557
vt 0.805028 0.379807
vt 0.876123 0.349065
vt 0.938030 0.277186
vt 0.734555 0.303887
vt 0.721203 0.402467
vt 0.369475 0.299954
vt 0.367890 0.394602
vt 0.489902 0.404581
vt 0.492822 0.304944
vt 0.494283 0.205307
vt 0.370268 0.205307
vt 0.246768 0.205307
vt 0.246397 0.288815
vt 0.245655 0.372324
vt 0.369475 0.110659
vt 0.492822 0.105669
vt 0.489902 0.006032
vt 0.367890 0.016011
vt 0.245655 0.038289
vt 0.246397 0.121798
vt 0.616755 0.103478
vt 0.619174 0.205307
vt 0.611917 0.001649
vt 0.616755 0.307135
vt 0.611917 0.408964
vt 0.123273 0.268175
vt 0.122972 0.331043
vt 0.123423 0.205306
vt 0.000156 0.205306
vt 0.000125 0.242784
vt 0.000064 0.280261
vt 0.123273 0.142438
vt 0.122972 0.079570
vt 0.000064 0.130352
vt 0.000125 0.167829
vt 0.122972 0.331043
vt 0.030806 0.283587
vt 0.245655 0.372324
vt 0.030806 0.283587
vt 0.000125 0.167829
vt 0.030806 0.127026
vt 0.000156 0.205306
vt 0.030806 0.127026
vt 0.805028 0.030806
vt 0.873826 0.071832
vt 0.721203 0.008146
vt 0.873826 0.071832
vt 0.938030 0.277186
vt 0.873826 0.338781
vt 0.968983 0.205307
vt 0.873826 0.338781
vt 0.805028 0.379807
vt 0.721203 0.402467
vt 0.000125 0.242784
vt 0.122972 0.079570
vt 0.245655 0.038289
vt 0.938030 0.133427
vt 0.611917 0.001649
vt 0.489902 0.006032
vt 0.611917 0.408964
vt 0.489902 0.404581
vt 0.367890 0.394602
vt 0.367890 0.016011
f 1/1/1 2/2/2 3/3/3
f 1/1/1 3/3/3 4/4/4
f 1/1/1 4/4/4 5/5/5
f 1/1/1 5/5/5 6/6/6
f 1/1/1 6/6/6 7/7/7
f 1/1/1 7/7/7 8/8/8
f 1/1/1 8/8/8 9/9/9
f 1/1/1 9/9/9 2/2/2
f 10/10/10 11/11/11 12/12/12
f 10/10/10 12/12/12 13/13/13
f 10/10/10 13/13/13 3/3/3
f 10/10/10 3/3/3 2/2/2
f 10/10/10 2/2/2 9/9/9
f 10/10/10 9/9/9 14/14/14
f 10/10/10 14/14/14 15/15/15
f 10/10/10 15/15/15 11/11/11
f 16/16/16 17/17/17 18/18/18
f 16/16/16 18/18/18 19/19/19
f 16/16/16 19/19/19 20/20/20
f 16/16/16 20/20/20 21/21/21
f 16/16/16 21/21/21 22/22/22
f 16/16/16 22/22/22 23/23/23
f 16/16/16 23/23/23 24/24/24
f 16/16/16 24/24/24 17/17/17
f 25/25/25 21/21/21 20/20/20
f 25/25/25 20/20/20 26/26/26
f 25/25/25 26/26/26 27/27/27
f 25/25/25 27/27/27 28/28/28
f 25/25/25 28/28/28 29/29/29
f 25/25/25 29/29/29 30/30/30
f 25/25/25 30/30/30 22/22/22
f 25/25/25 22/22/22 21/21/21
f 31/31/31 32/32/32 22/22/22
f 31/31/31 22/22/22 30/30/30
f 31/31/31 30/30/30 29/29/29
f 31/31/31 29/29/29 33/33/33
f 31/31/31 33/33/33 5/5/5
f 31/31/31 5/5/5 4/4/4
f 31/31/31 4/4/4 3/3/3
f 31/31/31 3/3/3 32/32/32
f 34/34/34 35/35/35 24/24/24
f 34/34/34 24/24/24 23/23/23
f 34/34/34 23/23/23 22/22/22
f 34/34/34 22/22/22 32/32/32
f 34/34/34 32/32/32 3/3/3
f 34/34/34 3/3/3 13/13/13
f 34/34/34 13/13/13 12/12/12
f 34/34/34 12/12/12 35/35/35
f 36/36/36 37/37/37 38/38/38
f 36/36/36 38/38/38 39/39/39
f 36/36/36 39/39/39 40/40/40
f 36/36/36 40/40/40 41/41/41
f 36/36/36 41/41/41 20/20/20
f 36/36/36 20/20/20 19/19/19
f 36/36/36 19/19/19 18/18/18
f 36/36/36 18/18/18 37/37/37
f 42/42/42 41/41/41 40/40/40
f 42/42/42 40/40/40 43/43/43
f 42/42/42 43/43/43 44/44/44
f 42/42/42 44/44/44 45/45/45
f 42/42/42 45/45/45 27/27/27
f 42/42/42 27/27/27 26/26/26
f 42/42/42 26/26/26 20/20/20
f 42/42/42 20/20/20 41/41/41
f 46/46/46 47/47/47 48/48/48
f 46/46/46 48/48/48 49/49/49
f 46/46/46 49/49/49 50/50/50
f 46/46/46 50/50/50 51/51/51
f 46/46/46 51/51/51 52/52/52
f 46/46/46 52/52/52 53/53/53
f 46/46/46 53/53/53 54/54/54
f 46/46/46 54/54/54 47/47/47
f 55/55/55 56/56/56 57/57/57
f 55/55/55 57/57/57 58/58/58
f 55/55/55 58/58/58 48/48/48
f 55/55/55 48/48/48 47/47/47
f 55/55/55 47/47/47 54/54/54
f 55/55/55 54/54/54 59/59/59
f 55/55/55 59/59/59 60/60/60
f 55/55/55 60/60/60 56/56/56
f 61/61/61 62/62/62 63/63/63
f 61/61/61 63/63/63 64/64/64
f 61/61/61 64/64/64 65/65/65
f 61/61/61 65/65/65 66/66/66
f 61/61/61 66/66/66 67/67/67
f 61/61/61 67/67/67 68/68/68
f 61/61/61 68/68/68 69/69/69
f 61/61/61 69/69/69 62/62/62
f 70/70/70 66/66/66 65/65/65
f 70/70/70 65/65/65 71/71/71
f 70/70/70 71/71/71 72/72/72
f 70/70/70 72/72/72 73/73/73
f 70/70/70 73/73/73 74/74/74
f 70/70/70 74/74/74 75/75/75
f 70/70/70 75/75/75 67/67/67
f 70/70/70 67/67/67 66/66/66
f 76/76/76 77/77/77 54/54/54
f 76/76/76 54/54/54 53/53/53
f 76/76/76 53/53/53 52/52/52
f 76/76/76 52/52/52 78/78/78
f 76/76/76 78/78/78 72/72/72
f 76/76/76 72/72/72 71/71/71
f 76/76/76 71/71/71 65/65/65
f 76/76/76 65/65/65 77/77/77
f 79/79/79 80/80/80 60/60/60
f 79/79/79 60/60/60 59/59/59
f 79/79/79 59/59/59 54/54/54
f 79/79/79 54/54/54 77/77/77
f 79/79/79 77/77/77 65/65/65
f 79/79/79 65/65/65 64/64/64
f 79/79/79 64/64/64 63/63/63
f 79/79/79 63/63/63 80/80/80
f 81/81/81 82/82/82 69/69/69
f 81/81/81 69/69/69 68/68/68
f 81/81/81 68/68/68 67/67/67
f 81/81/81 67/67/67 83/83/83
f 81/81/81 83/83/83 84/84/84
f 81/81/81 84/84/84 85/85/85
f 81/81/81 85/85/85 86/86/86
f 81/81/81 86/86/86 82/82/82
f 87/87/87 83/83/83 67/67/67
f 87/87/87 67/67/67 75/75/75
f 87/87/87 75/75/75 74/74/74
f 87/87/87 74/74/74 88/88/88
f 87/87/87 88/88/88 89/89/89
f 87/87/87 89/89/89 90/90/90
f 87/87/87 90/90/90 84/84/84
f 87/87/87 84/84/84 83/83/83
f 91/91/91 92/92/92 38/38/38
f 91/91/91 38/38/38 37/37/37
f 91/91/91 37/37/37 18/18/18
f 91/91/91 18/18/18 93/93/93
f 91/91/91 93/93/93 69/69/69
f 91/91/91 69/69/69 82/82/82
f 91/91/91 82/82/82 94/94/94
f 91/91/91 94/94/94 92/92/92
f 95/95/95 96/96/96 44/44/44
f 95/95/95 44/44/44 43/43/43
f 95/95/95 43/43/43 40/40/40
f 95/95/95 40/40/40 97/97/97
f 95/95/95 97/97/97 84/84/84
f 95/95/95 84/84/84 90/90/90
f 95/95/95 90/90/90 98/98/98
f 95/95/95 98/98/98 96/96/96
f 99/99/99 100/100/100 7/7/7
f 99/99/99 7/7/7 6/6/6
f 99/99/99 6/6/6 5/5/5
f 99/99/99 5/5/5 101/101/101
f 99/99/99 101/101/101 52/52/52
f 99/99/99 52/52/52 51/51/51
f 99/99/99 51/51/51 102/102/102
f 99/99/99 102/102/102 100/100/100
f 103/103/103 104/104/104 15/15/15
f 103/103/103 15/15/15 14/14/14
f 103/103/103 14/14/14 9/9/9
f 103/103/103 9/9/9 105/105/105
f 103/103/103 105/105/105 48/48/48
f 103/103/103 48/48/48 58/58/58
f 103/103/103 58/58/58 106/106/106
f 103/103/103 106/106/106 104/104/104
f 107/107/107 108/108/108 12/12/12
f 107/107/107 12/12/12 11/11/11
f 107/107/107 11/11/11 15/15/15
f 107/107/107 15/15/15 104/104/104
f 107/107/107 104/104/104 106/106/106
f 107/107/107 106/106/106 56/56/56
f 107/107/107 56/56/56 60/60/60
f 107/107/107 60/60/60 108/108/108
f 109/109/109 97/97/97 40/40/40
f 109/109/109 40/40/40 39/39/39
f 109/109/109 39/39/39 38/38/38
f 109/109/109 38/38/38 92/92/92
f 109/109/109 92/92/92 94/94/94
f 109/109/109 94/94/94 85/85/85
f 109/109/109 85/85/85 84/84/84
f 109/109/109 84/84/84 97/97/97
f 110/110/110 111/111/111 27/27/27
f 110/110/110 27/27/27 45/45/45
f 110/110/110 45/45/45 44/44/44
f 110/110/110 44/44/44 96/96/96
f 110/110/110 96/96/96 98/98/98
f 110/110/110 98/98/98 88/88/88
f 110/110/110 88/88/88 74/74/74
f 110/110/110 74/74/74 111/111/111
f 112/112/112 105/105/105 9/9/9
f 112/112/112 9/9/9 8/8/8
f 112/112/112 8/8/8 7/7/7
f 112/112/112 7/7/7 100/100/100
f 112/112/112 100/100/100 102/102/102
f 112/112/112 102/102/102 49/49/49
f 112/112/112 49/49/49 48/48/48
f 112/112/112 48/48/48 105/105/105
f 113/113/113 101/101/101 5/5/5
f 113/113/113 5/5/5 33/33/33
f 113/113/113 33/33/33 29/29/29
f 113/113/113 29/29/29 114/114/114
f 113/113/113 114/114/114 72/72/72
f 113/113/113 72/72/72 78/78/78
f 113/113/113 78/78/78 52/52/52
f 113/113/113 52/52/52 101/101/101
f 115/115/115 116/116/116 24/24/24
f 115/115/115 24/24/24 35/35/35
f 115/115/115 35/35/35 12/12/12
f 115/115/115 12/12/12 108/108/108
f 115/115/115 108/108/108 60/60/60
f 115/115/115 60/60/60 80/80/80
f 115/115/115 80/80/80 63/63/63
f 115/115/115 63/63/63 116/116/116
f 117/117/117 93/93/93 18/18/18
f 117/117/117 18/18/18 17/17/17
f 117/117/117 17/17/17 24/24/24
f 117/117/117 24/24/24 116/116/116
f 117/117/117 116/116/116 63/63/63
f 117/117/117 63/63/63 62/62/62
f 117/117/117 62/62/62 69/69/69
f 117/117/117 69/69/69 93/93/93
f 118/118/118 114/114/114 29/29/29
f 118/118/118 29/29/29 28/28/28
f 118/118/118 28/28/28 27/27/27
f 118/118/118 27/27/27 111/111/111
f 118/118/118 111/111/111 74/74/74
f 118/118/118 74/74/74 73/73/73
f 118/118/118 73/73/73 72/72/72
f 118/118/118 72/72/72 114/114/114
