v -2.379617 0.735735 -1.070636
v -2.381717 0.735887 -1.069641
v -2.380563 0.733346 -1.068292
v -2.378336 0.733416 -1.069613
v -2.376492 0.733477 -1.070402
v -2.377782 0.735465 -1.071081
v -2.379038 0.736559 -1.071403
v -2.380653 0.737306 -1.071385
v -2.382618 0.737688 -1.070698
v -2.383101 0.735667 -1.067781
v -2.383893 0.735347 -1.066076
v -2.383434 0.733343 -1.064716
v -2.382297 0.733339 -1.066369
v -2.383669 0.737247 -1.068915
v -2.383987 0.736463 -1.067349
v -2.379571 0.724531 -1.063331
v -2.380877 0.724564 -1.061947
v -2.379885 0.721389 -1.061612
v -2.378739 0.721358 -1.062849
v -2.377132 0.721349 -1.064389
v -2.377745 0.724521 -1.065061
v -2.378492 0.727610 -1.065900
v -2.380389 0.727630 -1.064074
v -2.381734 0.727678 -1.062600
v -2.375690 0.724607 -1.066510
v -2.375307 0.721425 -1.065660
v -2.373871 0.721506 -1.066539
v -2.374077 0.724696 -1.067516
v -2.374621 0.727816 -1.068426
v -2.376330 0.727709 -1.067399
v -2.377226 0.730693 -1.068484
v -2.379460 0.730569 -1.067011
v -2.375432 0.730835 -1.069452
v -2.381345 0.730613 -1.065110
v -2.382651 0.730695 -1.063540
v -2.377742 0.718153 -1.062596
v -2.378565 0.718188 -1.061631
v -2.377656 0.716383 -1.061924
v -2.376954 0.715729 -1.062514
v -2.376183 0.715705 -1.063364
v -2.376569 0.718137 -1.063777
v -2.375181 0.718203 -1.064694
v -2.375199 0.715763 -1.063951
v -2.374498 0.716444 -1.064510
v -2.374074 0.718275 -1.065310
v -2.379718 0.735605 -1.070815
v -2.381845 0.735755 -1.069801
v -2.382713 0.737586 -1.070817
v -2.380725 0.737206 -1.071519
v -2.379086 0.736486 -1.071507
v -2.377843 0.735370 -1.071225
v -2.376560 0.733388 -1.070547
v -2.378444 0.733294 -1.069794
v -2.380694 0.733222 -1.068456
v -2.383254 0.735536 -1.067918
v -2.384020 0.735250 -1.066166
v -2.384077 0.736389 -1.067419
v -2.383784 0.737146 -1.069014
v -2.382451 0.733216 -1.066512
v -2.383561 0.733252 -1.064813
v -2.379732 0.724449 -1.063496
v -2.381005 0.724502 -1.062063
v -2.381861 0.727607 -1.062712
v -2.380548 0.727535 -1.064234
v -2.378634 0.727515 -1.066076
v -2.377890 0.724439 -1.065240
v -2.377280 0.721276 -1.064570
v -2.378902 0.721286 -1.063016
v -2.380015 0.721335 -1.061730
v -2.375818 0.724525 -1.066702
v -2.376453 0.727614 -1.067588
v -2.374704 0.727746 -1.068574
v -2.374164 0.724635 -1.067666
v -2.373959 0.721452 -1.066691
v -2.375437 0.721353 -1.065854
v -2.377342 0.730584 -1.068669
v -2.379596 0.730459 -1.067181
v -2.375508 0.730755 -1.069599
v -2.381501 0.730503 -1.065262
v -2.382777 0.730614 -1.063645
v -2.377908 0.718084 -1.062763
v -2.378697 0.718136 -1.061748
v -2.376717 0.718067 -1.063959
v -2.376294 0.715653 -1.063500
v -2.377079 0.715677 -1.062638
v -2.377751 0.716345 -1.062012
v -2.375311 0.718134 -1.064890
v -2.374162 0.718224 -1.065463
v -2.374565 0.716406 -1.064622
v -2.375295 0.715712 -1.064099
v -2.378900 0.718177 -1.061360
v -2.377553 0.715751 -1.061807
v -2.380326 0.721375 -1.061251
v -2.377751 0.716345 -1.062012
v -2.375247 0.714927 -1.063769
v -2.374389 0.715813 -1.064399
v -2.376104 0.714871 -1.063287
v -2.374565 0.716406 -1.064622
v -2.377194 0.735333 -1.071296
v -2.378860 0.736700 -1.071597
v -2.375905 0.733458 -1.070731
v -2.379086 0.736486 -1.071507
v -2.383909 0.737728 -1.069336
v -2.384215 0.736596 -1.067211
v -2.382960 0.738242 -1.071103
v -2.384077 0.736389 -1.067419
v -2.384216 0.735197 -1.065545
v -2.383872 0.733304 -1.064205
v -2.376747 0.714898 -1.062541
v -2.373742 0.718277 -1.065585
v -2.373429 0.721509 -1.066900
v -2.381030 0.737784 -1.071694
v -2.374866 0.730847 -1.069842
v -2.374087 0.727820 -1.068836
v -2.383144 0.730686 -1.063061
v -2.382241 0.727662 -1.062157
v -2.381371 0.724548 -1.061535
v -2.373576 0.724699 -1.067920
vn 0.334300 0.553100 0.763000
vn 0.505900 0.587400 0.631600
vn 0.527900 0.537900 0.657200
vn 0.375800 0.505900 0.776400
vn 0.392400 0.485400 0.781300
vn 0.341300 0.553900 0.759400
vn 0.304500 0.600100 0.739700
vn 0.332500 0.632000 0.700000
vn 0.468100 0.660400 0.587100
vn 0.669300 0.559700 0.488600
vn 0.664300 0.560100 0.494900
vn 0.677400 0.490900 0.547800
vn 0.675300 0.511700 0.531100
vn 0.606100 0.637300 0.475900
vn 0.651300 0.606800 0.455600
vn 0.679600 0.308600 0.665500
vn 0.654700 0.301100 0.693300
vn 0.658800 0.270100 0.702100
vn 0.691700 0.276700 0.667000
vn 0.607500 0.267200 0.748000
vn 0.599300 0.308000 0.738900
vn 0.579400 0.388300 0.716600
vn 0.671400 0.379900 0.636200
vn 0.656500 0.364500 0.660500
vn 0.511400 0.305400 0.803200
vn 0.511300 0.273200 0.814800
vn 0.552400 0.268000 0.789300
vn 0.543800 0.298900 0.784200
vn 0.509800 0.361600 0.780600
vn 0.482800 0.376200 0.790800
vn 0.432000 0.451500 0.780700
vn 0.552600 0.473500 0.685800
vn 0.454000 0.429200 0.780800
vn 0.669800 0.456100 0.585900
vn 0.666100 0.433300 0.607100
vn 0.712100 0.262500 0.651200
vn 0.678400 0.251400 0.690300
vn 0.703700 0.234600 0.670600
vn 0.735900 0.206700 0.644700
vn 0.619500 0.192500 0.760900
vn 0.611000 0.247800 0.751800
vn 0.492200 0.258200 0.831300
vn 0.482400 0.201900 0.852300
vn 0.513400 0.231000 0.826500
vn 0.537300 0.248700 0.805900
vn -0.318600 -0.529600 -0.786200
vn -0.512200 -0.574000 -0.638900
vn -0.534900 -0.520600 -0.665400
vn -0.266800 -0.457400 -0.848300
vn -0.167700 -0.406700 -0.898000
vn -0.187300 -0.421500 -0.887200
vn -0.252600 -0.436000 -0.863800
vn -0.363200 -0.502700 -0.784400
vn -0.527800 -0.538000 -0.657200
vn -0.695600 -0.536900 -0.477300
vn -0.823200 -0.433600 -0.366500
vn -0.837800 -0.419700 -0.349100
vn -0.768300 -0.467300 -0.437400
vn -0.685800 -0.508900 -0.520200
vn -0.786900 -0.446300 -0.426000
vn -0.690700 -0.309500 -0.653600
vn -0.762100 -0.314200 -0.566000
vn -0.756900 -0.363400 -0.543100
vn -0.681800 -0.379700 -0.625300
vn -0.579500 -0.388100 -0.716600
vn -0.599300 -0.307800 -0.738900
vn -0.607600 -0.267000 -0.748000
vn -0.704100 -0.279700 -0.652600
vn -0.777600 -0.310600 -0.546700
vn -0.497600 -0.305700 -0.811700
vn -0.470000 -0.375600 -0.798800
vn -0.375100 -0.355900 -0.855900
vn -0.397600 -0.307100 -0.864600
vn -0.375700 -0.302800 -0.875900
vn -0.494800 -0.275600 -0.824200
vn -0.419500 -0.450000 -0.788300
vn -0.552600 -0.473500 -0.685900
vn -0.320900 -0.409900 -0.853800
vn -0.679700 -0.455100 -0.575200
vn -0.764200 -0.418500 -0.490600
vn -0.725600 -0.281000 -0.628100
vn -0.800800 -0.339700 -0.493200
vn -0.608900 -0.259600 -0.749500
vn -0.598600 -0.310900 -0.738200
vn -0.756700 -0.345500 -0.554900
vn -0.811400 -0.362100 -0.458700
vn -0.466400 -0.275900 -0.840400
vn -0.318000 -0.330400 -0.888600
vn -0.281600 -0.351900 -0.892600
vn -0.387100 -0.338400 -0.857700
vn -0.511000 -0.315600 0.799500
vn -0.251300 -0.630100 0.734700
vn -0.600700 -0.189700 0.776600
vn -0.811400 -0.362100 -0.458700
vn 0.378500 -0.923100 0.067500
vn 0.784200 -0.610000 -0.113400
vn 0.103300 -0.989300 0.102800
vn -0.281600 -0.351900 -0.892600
vn 0.744200 0.458800 -0.485500
vn 0.509500 0.675400 -0.533100
vn 0.842400 0.272800 -0.464600
vn -0.167700 -0.406700 -0.898000
vn -0.667400 0.744300 -0.021000
vn -0.638400 0.653100 0.407200
vn -0.415700 0.766700 -0.489200
vn -0.837800 -0.419700 -0.349100
vn -0.632700 0.431800 0.642800
vn -0.627200 0.244200 0.739500
vn 0.012800 -0.930200 0.366700
vn 0.891500 -0.288500 -0.349100
vn 0.883800 -0.161200 -0.439100
vn 0.093600 0.759100 -0.644200
vn 0.877300 0.128900 -0.462200
vn 0.881700 0.041800 -0.469800
vn -0.628700 0.099900 0.771200
vn -0.634900 0.012800 0.772400
vn -0.636800 -0.073100 0.767600
vn 0.879300 -0.044100 -0.474100
vt 0.839504 0.118056
vt 0.856743 0.205307
vt 0.741230 0.205307
vt 0.734555 0.106726
vt 0.724541 0.032791
vt 0.813647 0.052618
vt 0.868992 0.081539
vt 0.913398 0.129584
vt 0.940923 0.205307
vt 0.839504 0.292557
vt 0.813647 0.357995
vt 0.724541 0.377822
vt 0.734555 0.303887
vt 0.913398 0.281029
vt 0.868992 0.329074
vt 0.369475 0.299954
vt 0.368286 0.370940
vt 0.245840 0.351447
vt 0.246397 0.288815
vt 0.246768 0.205307
vt 0.370268 0.205307
vt 0.494283 0.205307
vt 0.492822 0.304944
vt 0.490632 0.379672
vt 0.369475 0.110659
vt 0.246397 0.121798
vt 0.245841 0.059166
vt 0.368286 0.039673
vt 0.490632 0.030941
vt 0.492822 0.105669
vt 0.616755 0.103478
vt 0.619174 0.205307
vt 0.613127 0.027106
vt 0.616755 0.307135
vt 0.613126 0.383507
vt 0.123273 0.268175
vt 0.123047 0.315326
vt 0.054743 0.283353
vt 0.030912 0.249131
vt 0.030973 0.205306
vt 0.123423 0.205306
vt 0.123273 0.142438
vt 0.030912 0.161481
vt 0.054744 0.127260
vt 0.123047 0.095287
vt 0.839504 0.118056
vt 0.856743 0.205307
vt 0.968983 0.205307
vt 0.938030 0.133427
vt 0.876123 0.061548
vt 0.805028 0.030806
vt 0.721203 0.008146
vt 0.734555 0.106726
vt 0.741230 0.205307
vt 0.839504 0.292557
vt 0.805028 0.379807
vt 0.876123 0.349065
vt 0.938030 0.277186
vt 0.734555 0.303887
vt 0.721203 0.402467
vt 0.369475 0.299954
vt 0.367890 0.394602
vt 0.489902 0.404581
vt 0.492822 0.304944
vt 0.494283 0.205307
vt 0.370268 0.205307
vt 0.246768 0.205307
vt 0.246397 0.288815
vt 0.245655 0.372324
vt 0.369475 0.110659
vt 0.492822 0.105669
vt 0.489902 0.006032
vt 0.367890 0.016011
vt 0.245655 0.038289
vt 0.246397 0.121798
vt 0.616755 0.103478
vt 0.619174 0.205307
vt 0.611917 0.001649
vt 0.616755 0.307135
vt 0.611917 0.408964
vt 0.123273 0.268175
vt 0.122972 0.331043
vt 0.123423 0.205306
vt 0.000156 0.205306
vt 0.000125 0.242784
vt 0.000064 0.280261
vt 0.123273 0.142438
vt 0.122972 0.079570
vt 0.000064 0.130352
vt 0.000125 0.167829
vt 0.122972 0.331043
vt 0.030806 0.283587
vt 0.245655 0.372324
vt 0.030806 0.283587
vt 0.000125 0.167829
vt 0.030806 0.127026
vt 0.000156 0.205306
vt 0.030806 0.127026
vt 0.805028 0.030806
vt 0.873826 0.071832
vt 0.721203 0.008146
vt 0.873826 0.071832
vt 0.938030 0.277186
vt 0.873826 0.338781
vt 0.968983 0.205307
vt 0.873826 0.338781
vt 0.805028 0.379807
vt 0.721203 0.402467
vt 0.000125 0.242784
vt 0.122972 0.079570
vt 0.245655 0.038289
vt 0.938030 0.133427
vt 0.611917 0.001649
vt 0.489902 0.006032
vt 0.611917 0.408964
vt 0.489902 0.404581
vt 0.367890 0.394602
vt 0.367890 0.016011
f 1/1/1 2/2/2 3/3/3
f 1/1/1 3/3/3 4/4/4
f 1/1/1 4/4/4 5/5/5
f 1/1/1 5/5/5 6/6/6
f 1/1/1 6/6/6 7/7/7
f 1/1/1 7/7/7 8/8/8
f 1/1/1 8/8/8 9/9/9
f 1/1/1 9/9/9 2/2/2
f 10/10/10 11/11/11 12/12/12
f 10/10/10 12/12/12 13/13/13
f 10/10/10 13/13/13 3/3/3
f 10/10/10 3/3/3 2/2/2
f 10/10/10 2/2/2 9/9/9
f 10/10/10 9/9/9 14/14/14
f 10/10/10 14/14/14 15/15/15
f 10/10/10 15/15/15 11/11/11
f 16/16/16 17/17/17 18/18/18
f 16/16/16 18/18/18 19/19/19
f 16/16/16 19/19/19 20/20/20
f 16/16/16 20/20/20 21/21/21
f 16/16/16 21/21/21 22/22/22
f 16/16/16 22/22/22 23/23/23
f 16/16/16 23/23/23 24/24/24
f 16/16/16 24/24/24 17/17/17
f 25/25/25 21/21/21 20/20/20
f 25/25/25 20/20/20 26/26/26
f 25/25/25 26/26/26 27/27/27
f 25/25/25 27/27/27 28/28/28
f 25/25/25 28/28/28 29/29/29
f 25/25/25 29/29/29 30/30/30
f 25/25/25 30/30/30 22/22/22
f 25/25/25 22/22/22 21/21/21
f 31/31/31 32/32/32 22/22/22
f 31/31/31 22/22/22 30/30/30
f 31/31/31 30/30/30 29/29/29
f 31/31/31 29/29/29 33/33/33
f 31/31/31 33/33/33 5/5/5
f 31/31/31 5/5/5 4/4/4
f 31/31/31 4/4/4 3/3/3
f 31/31/31 3/3/3 32/32/32
f 34/34/34 35/35/35 24/24/24
f 34/34/34 24/24/24 23/23/23
f 34/34/34 23/23/23 22/22/22
f 34/34/34 22/22/22 32/32/32
f 34/34/34 32/32/32 3/3/3
f 34/34/34 3/3/3 13/13/13
f 34/34/34 13/13/13 12/12/12
f 34/34/34 12/12/12 35/35/35
f 36/36/36 37/37/37 38/38/38
f 36/36/36 38/38/38 39/39/39
f 36/36/36 39/39/39 40/40/40
f 36/36/36 40/40/40 41/41/41
f 36/36/36 41/41/41 20/20/20
f 36/36/36 20/20/20 19/19/19
f 36/36/36 19/19/19 18/18/18
f 36/36/36 18/18/18 37/37/37
f 42/42/42 41/41/41 40/40/40
f 42/42/42 40/40/40 43/43/43
f 42/42/42 43/43/43 44/44/44
f 42/42/42 44/44/44 45/45/45
f 42/42/42 45/45/45 27/27/27
f 42/42/42 27/27/27 26/26/26
f 42/42/42 26/26/26 20/20/20
f 42/42/42 20/20/20 41/41/41
f 46/46/46 47/47/47 48/48/48
f 46/46/46 48/48/48 49/49/49
f 46/46/46 49/49/49 50/50/50
f 46/46/46 50/50/50 51/51/51
f 46/46/46 51/51/51 52/52/52
f 46/46/46 52/52/52 53/53/53
f 46/46/46 53/53/53 54/54/54
f 46/46/46 54/54/54 47/47/47
f 55/55/55 56/56/56 57/57/57
f 55/55/55 57/57/57 58/58/58
f 55/55/55 58/58/58 48/48/48
f 55/55/55 48/48/48 47/47/47
f 55/55/55 47/47/47 54/54/54
f 55/55/55 54/54/54 59/59/59
f 55/55/55 59/59/59 60/60/60
f 55/55/55 60/60/60 56/56/56
f 61/61/61 62/62/62 63/63/63
f 61/61/61 63/63/63 64/64/64
f 61/61/61 64/64/64 65/65/65
f 61/61/61 65/65/65 66/66/66
f 61/61/61 66/66/66 67/67/67
f 61/61/61 67/67/67 68/68/68
f 61/61/61 68/68/68 69/69/69
f 61/61/61 69/69/69 62/62/62
f 70/70/70 66/66/66 65/65/65
f 70/70/70 65/65/65 71/71/71
f 70/70/70 71/71/71 72/72/72
f 70/70/70 72/72/72 73/73/73
f 70/70/70 73/73/73 74/74/74
f 70/70/70 74/74/74 75/75/75
f 70/70/70 75/75/75 67/67/67
f 70/70/70 67/67/67 66/66/66
f 76/76/76 77/77/77 54/54/54
f 76/76/76 54/54/54 53/53/53
f 76/76/76 53/53/53 52/52/52
f 76/76/76 52/52/52 78/78/78
f 76/76/76 78/78/78 72/72/72
f 76/76/76 72/72/72 71/71/71
f 76/76/76 71/71/71 65/65/65
f 76/76/76 65/65/65 77/77/77
f 79/79/79 80/80/80 60/60/60
f 79/79/79 60/60/60 59/59/59
f 79/79/79 59/59/59 54/54/54
f 79/79/79 54/54/54 77/77/77
f 79/79/79 77/77/77 65/65/65
f 79/79/79 65/65/65 64/64/64
f 79/79/79 64/64/64 63/63/63
f 79/79/79 63/63/63 80/80/80
f 81/81/81 82/82/82 69/69/69
f 81/81/81 69/69/69 68/68/68
f 81/81/81 68/68/68 67/67/67
f 81/81/81 67/67/67 83/83/83
f 81/81/81 83/83/83 84/84/84
f 81/81/81 84/84/84 85/85/85
f 81/81/81 85/85/85 86/86/86
f 81/81/81 86/86/86 82/82/82
f 87/87/87 83/83/83 67/67/67
f 87/87/87 67/67/67 75/75/75
f 87/87/87 75/75/75 74/74/74
f 87/87/87 74/74/74 88/88/88
f 87/87/87 88/88/88 89/89/89
f 87/87/87 89/89/89 90/90/90
f 87/87/87 90/90/90 84/84/84
f 87/87/87 84/84/84 83/83/83
f 91/91/91 92/92/92 38/38/38
f 91/91/91 38/38/38 37/37/37
f 91/91/91 37/37/37 18/18/18
f 91/91/91 18/18/18 93/93/93
f 91/91/91 93/93/93 69/69/69
f 91/91/91 69/69/69 82/82/82
f 91/91/91 82/82/82 94/94/94
f 91/91/91 94/94/94 92/92/92
f 95/95/95 96/96/96 44/44/44
f 95/95/95 44/44/44 43/43/43
f 95/95/95 43/43/43 40/40/40
f 95/95/95 40/40/40 97/97/97
f 95/95/95 97/97/97 84/84/84
f 95/95/95 84/84/84 90/90/90
f 95/95/95 90/90/90 98/98/98
f 95/95/95 98/98/98 96/96/96
f 99/99/99 100/100/100 7/7/7
f 99/99/99 7/7/7 6/6/6
f 99/99/99 6/6/6 5/5/5
f 99/99/99 5/5/5 101/101/101
f 99/99/99 101/101/101 52/52/52
f 99/99/99 52/52/52 51/51/51
f 99/99/99 51/51/51 102/102/102
f 99/99/99 102/102/102 100/100/100
f 103/103/103 104/104/104 15/15/15
f 103/103/103 15/15/15 14/14/14
f 103/103/103 14/14/14 9/9/9
f 103/103/103 9/9/9 105/105/105
f 103/103/103 105/105/105 48/48/48
f 103/103/103 48/48/48 58/58/58
f 103/103/103 58/58/58 106/106/106
f 103/103/103 106/106/106 104/104/104
f 107/107/107 108/108/108 12/12/12
f 107/107/107 12/12/12 11/11/11
f 107/107/107 11/11/11 15/15/15
f 107/107/107 15/15/15 104/104/104
f 107/107/107 104/104/104 106/106/106
f 107/107/107 106/106/106 56/56/56
f 107/107/107 56/56/56 60/60/60
f 107/107/107 60/60/60 108/108/108
f 109/109/109 97/97/97 40/40/40
f 109/109/109 40/40/40 39/39/39
f 109/109/109 39/39/39 38/38/38
f 109/109/109 38/38/38 92/92/92
f 109/109/109 92/92/92 94/94/94
f 109/109/109 94/94/94 85/85/85
f 109/109/109 85/85/85 84/84/84
f 109/109/109 84/84/84 97/97/97
f 110/110/110 111/111/111 27/27/27
f 110/110/110 27/27/27 45/45/45
f 110/110/110 45/45/45 44/44/44
f 110/110/110 44/44/44 96/96/96
f 110/110/110 96/96/96 98/98/98
f 110/110/110 98/98/98 88/88/88
f 110/110/110 88/88/88 74/74/74
f 110/110/110 74/74/74 111/111/111
f 112/112/112 105/105/105 9/9/9
f 112/112/112 9/9/9 8/8/8
f 112/112/112 8/8/8 7/7/7
f 112/112/112 7/7/7 100/100/100
f 112/112/112 100/100/100 102/102/102
f 112/112/112 102/102/102 49/49/49
f 112/112/112 49/49/49 48/48/48
f 112/112/112 48/48/48 105/105/105
f 113/113/113 101/101/101 5/5/5
f 113/113/113 5/5/5 33/33/33
f 113/113/113 33/33/33 29/29/29
f 113/113/113 29/29/29 114/114/114
f 113/113/113 114/114/114 72/72/72
f 113/113/113 72/72/72 78/78/78
f 113/113/113 78/78/78 52/52/52
f 113/113/113 52/52/52 101/101/101
f 115/115/115 116/116/116 24/24/24
f 115/115/115 24/24/24 35/35/35
f 115/115/115 35/35/35 12/12/12
f 115/115/115 12/12/12 108/108/108
f 115/115/115 108/108/108 60/60/60
f 115/115/115 60/60/60 80/80/80
f 115/115/115 80/80/80 63/63/63
f 115/115/115 63/63/63 116/116/116
f 117/117/117 93/93/93 18/18/18
f 117/117/117 18/18/18 17/17/17
f 117/117/117 17/17/17 24/24/24
f 117/117/117 24/24/24 116/116/116
f 117/117/117 116/116/116 63/63/63
f 117/117/117 63/63/63 62/62/62
f 117/117/117 62/62/62 69/69/69
f 117/117/117 69/69/69 93/93/93
f 118/118/118 114/114/114 29/29/29
f 118/118/118 29/29/29 28/28/28
f 118/118/118 28/28/28 27/27/27
f 118/118/118 27/27/27 111/111/111
f 118/118/118 111/111/111 74/74/74
f 118/118/118 74/74/74 73/73/73
f 118/118/118 73/73/73 72/72/72
f 118/118/118 72/72/72 114/114/114
