v -2.368519 0.791505 -1.180604
v -2.369991 0.791927 -1.179155
v -2.368097 0.790504 -1.177649
v -2.366666 0.790133 -1.179468
v -2.365389 0.789954 -1.180748
v -2.367077 0.791202 -1.181505
v -2.368443 0.791881 -1.181685
v -2.369931 0.792402 -1.181355
v -2.371432 0.792889 -1.180267
v -2.370532 0.792445 -1.177184
v -2.370608 0.792851 -1.175507
v -2.369399 0.791827 -1.173935
v -2.368953 0.791201 -1.175581
v -2.371674 0.793216 -1.178395
v -2.371302 0.793216 -1.176827
v -2.363938 0.785525 -1.171125
v -2.364610 0.786054 -1.169629
v -2.363023 0.783694 -1.168594
v -2.362440 0.783219 -1.169922
v -2.361570 0.782660 -1.171651
v -2.362944 0.784899 -1.173076
v -2.364462 0.786994 -1.174545
v -2.365488 0.787664 -1.172500
v -2.366168 0.788240 -1.170928
v -2.361696 0.784478 -1.174933
v -2.360457 0.782293 -1.173290
v -2.359549 0.782071 -1.174497
v -2.360682 0.784220 -1.176302
v -2.362060 0.786321 -1.177909
v -2.363143 0.786569 -1.176484
v -2.364837 0.788471 -1.178046
v -2.366217 0.788861 -1.176091
v -2.363673 0.788280 -1.179471
v -2.367216 0.789582 -1.174003
v -2.367842 0.790228 -1.172386
v -2.360867 0.780801 -1.168939
v -2.361265 0.781184 -1.167933
v -2.360222 0.779661 -1.167830
v -2.359681 0.778929 -1.168289
v -2.359293 0.778599 -1.169195
v -2.360246 0.780362 -1.170241
v -2.359387 0.780110 -1.171453
v -2.358667 0.778455 -1.170012
v -2.358398 0.778809 -1.170929
v -2.358671 0.779973 -1.172340
v -2.368629 0.791321 -1.180655
v -2.370117 0.791748 -1.179180
v -2.371525 0.792753 -1.180285
v -2.370011 0.792262 -1.181393
v -2.368499 0.791777 -1.181718
v -2.367151 0.791062 -1.181556
v -2.365470 0.789819 -1.180800
v -2.366784 0.789954 -1.179521
v -2.368229 0.790330 -1.177679
v -2.370672 0.792276 -1.177184
v -2.370719 0.792729 -1.175494
v -2.371382 0.793124 -1.176820
v -2.371777 0.793088 -1.178391
v -2.369098 0.791035 -1.175588
v -2.369514 0.791708 -1.173929
v -2.364104 0.785382 -1.171160
v -2.364738 0.785950 -1.169646
v -2.366293 0.788130 -1.170940
v -2.365648 0.787513 -1.172528
v -2.364612 0.786838 -1.174590
v -2.363101 0.784751 -1.173127
v -2.361731 0.782519 -1.171707
v -2.362610 0.783083 -1.169961
v -2.363155 0.783595 -1.168615
v -2.361843 0.784326 -1.175001
v -2.363282 0.786408 -1.176547
v -2.362158 0.786199 -1.177965
v -2.360786 0.784104 -1.176361
v -2.359657 0.781961 -1.174559
v -2.360608 0.782148 -1.173363
v -2.364965 0.788301 -1.178103
v -2.366358 0.788695 -1.176128
v -2.363763 0.788151 -1.179523
v -2.367368 0.789423 -1.174020
v -2.367961 0.790112 -1.172389
v -2.361039 0.780668 -1.168979
v -2.361399 0.781087 -1.167953
v -2.360409 0.780223 -1.170298
v -2.359416 0.778495 -1.169238
v -2.359811 0.778829 -1.168319
v -2.360320 0.779589 -1.167848
v -2.359539 0.779967 -1.171528
v -2.358779 0.779864 -1.172405
v -2.358479 0.778729 -1.170975
v -2.358781 0.778348 -1.170069
v -2.361459 0.781270 -1.167604
v -2.359970 0.779207 -1.167553
v -2.363277 0.783809 -1.168159
v -2.360320 0.779589 -1.167848
v -2.358478 0.777856 -1.169557
v -2.358142 0.778354 -1.170658
v -2.359030 0.777965 -1.168866
v -2.358479 0.778729 -1.170975
v -2.366628 0.791039 -1.181831
v -2.368384 0.791923 -1.181944
v -2.364998 0.789834 -1.181201
v -2.368499 0.791777 -1.181718
v -2.372100 0.793416 -1.178796
v -2.371477 0.793368 -1.176689
v -2.371953 0.793149 -1.180645
v -2.371382 0.793124 -1.176820
v -2.370684 0.792933 -1.174940
v -2.369600 0.791984 -1.173381
v -2.359344 0.778261 -1.168086
v -2.358479 0.779878 -1.172667
v -2.359293 0.781948 -1.174928
v -2.370437 0.792639 -1.181622
v -2.363323 0.788159 -1.179971
v -2.361741 0.786184 -1.178411
v -2.368105 0.790392 -1.171846
v -2.366452 0.788384 -1.170408
v -2.364892 0.786185 -1.169136
v -2.360389 0.784082 -1.176786
vn 0.431000 0.859200 0.275600
vn 0.536300 0.839700 0.084800
vn 0.576400 0.808700 0.116900
vn 0.484300 0.825900 0.288800
vn 0.505800 0.810800 0.294400
vn 0.436100 0.858600 0.269300
vn 0.385100 0.888500 0.249600
vn 0.390100 0.900300 0.192900
vn 0.470100 0.881900 0.034200
vn 0.644700 0.759400 -0.087500
vn 0.642000 0.762400 -0.080600
vn 0.687600 0.725900 -0.014500
vn 0.675400 0.736600 -0.035800
vn 0.564400 0.818900 -0.103500
vn 0.606200 0.785200 -0.126200
vn 0.770900 0.617900 0.154200
vn 0.759200 0.622500 0.190100
vn 0.772900 0.599300 0.208100
vn 0.789900 0.591100 0.163400
vn 0.742000 0.614600 0.267700
vn 0.721900 0.646200 0.247300
vn 0.677800 0.706100 0.204800
vn 0.737200 0.667400 0.105000
vn 0.735200 0.663800 0.137200
vn 0.663600 0.668100 0.336500
vn 0.674800 0.644800 0.358900
vn 0.705000 0.631100 0.323500
vn 0.688300 0.655600 0.310400
vn 0.641600 0.707600 0.296100
vn 0.616900 0.723600 0.309500
vn 0.549600 0.782800 0.291600
vn 0.623400 0.766100 0.156300
vn 0.575000 0.764400 0.291700
vn 0.701400 0.711900 0.033800
vn 0.710300 0.701100 0.061900
vn 0.806500 0.572400 0.147900
vn 0.791300 0.578500 0.197900
vn 0.811800 0.556100 0.178300
vn 0.839100 0.521400 0.155100
vn 0.774600 0.555000 0.303300
vn 0.750900 0.599400 0.277200
vn 0.666200 0.637900 0.386200
vn 0.677500 0.596800 0.429900
vn 0.690500 0.612600 0.384600
vn 0.701300 0.620500 0.350900
vn -0.429700 -0.847900 -0.310400
vn -0.547600 -0.831500 -0.093700
vn -0.589500 -0.797600 -0.127700
vn -0.419700 -0.809100 -0.411200
vn -0.357300 -0.781100 -0.512100
vn -0.368100 -0.790600 -0.489400
vn -0.416800 -0.796400 -0.438100
vn -0.476100 -0.825900 -0.301900
vn -0.576300 -0.808800 -0.116900
vn -0.670200 -0.735600 0.098300
vn -0.773900 -0.600900 0.199900
vn -0.784900 -0.581300 0.214400
vn -0.739700 -0.659700 0.132600
vn -0.682000 -0.729800 0.047900
vn -0.757700 -0.637100 0.141200
vn -0.776900 -0.613900 -0.139600
vn -0.812100 -0.582300 -0.036900
vn -0.788400 -0.615200 -0.000600
vn -0.743100 -0.662800 -0.091900
vn -0.677900 -0.706000 -0.204900
vn -0.722100 -0.646000 -0.247400
vn -0.742100 -0.614500 -0.267800
vn -0.795800 -0.587800 -0.145400
vn -0.820700 -0.571100 -0.016100
vn -0.653600 -0.671500 -0.348900
vn -0.608000 -0.725900 -0.321500
vn -0.544700 -0.729000 -0.414500
vn -0.579500 -0.691000 -0.432100
vn -0.564200 -0.690900 -0.451900
vn -0.662200 -0.650300 -0.372300
vn -0.541100 -0.784300 -0.303400
vn -0.623400 -0.766100 -0.156300
vn -0.482000 -0.772700 -0.412900
vn -0.707200 -0.706700 -0.021400
vn -0.764900 -0.640600 0.067700
vn -0.806900 -0.579100 -0.116000
vn -0.817300 -0.574100 0.049000
vn -0.745500 -0.608600 -0.271500
vn -0.720500 -0.648500 -0.245800
vn -0.796200 -0.604800 -0.017500
vn -0.810400 -0.578800 0.090600
vn -0.641600 -0.656300 -0.396900
vn -0.509300 -0.717900 -0.474500
vn -0.472500 -0.736700 -0.483800
vn -0.560500 -0.714800 -0.418200
vn -0.128600 0.055100 0.990100
vn 0.159800 -0.238100 0.958000
vn -0.247500 0.151200 0.957000
vn -0.810400 -0.578800 0.090600
vn 0.581900 -0.766400 0.271900
vn 0.820400 -0.547500 -0.164600
vn 0.357700 -0.825100 0.437200
vn -0.472500 -0.736700 -0.483800
vn 0.413500 0.228800 -0.881300
vn 0.132800 0.385800 -0.913000
vn 0.552900 0.079600 -0.829400
vn -0.357300 -0.781100 -0.512100
vn -0.789600 0.611800 -0.046500
vn -0.600000 0.728000 0.331700
vn -0.719800 0.432200 -0.543200
vn -0.784900 -0.581300 0.214400
vn -0.465500 0.639600 0.611700
vn -0.384900 0.517800 0.764000
vn 0.349300 -0.657600 0.667500
vn 0.766000 -0.362800 -0.530500
vn 0.699500 -0.290900 -0.652700
vn -0.304000 0.385100 -0.871400
vn 0.618600 -0.044700 -0.784400
vn 0.640400 -0.124900 -0.757800
vn -0.341900 0.403800 0.848500
vn -0.327200 0.326900 0.886600
vn -0.310800 0.248400 0.917400
vn 0.656700 -0.203400 -0.726200
vt 0.839504 0.118056
vt 0.856743 0.205307
vt 0.741230 0.205307
vt 0.734555 0.106726
vt 0.724541 0.032791
vt 0.813647 0.052618
vt 0.868992 0.081539
vt 0.913398 0.129584
vt 0.940923 0.205307
vt 0.839504 0.292557
vt 0.813647 0.357995
vt 0.724541 0.377822
vt 0.734555 0.303887
vt 0.913398 0.281029
vt 0.868992 0.329074
vt 0.369475 0.299954
vt 0.368286 0.370940
vt 0.245840 0.351447
vt 0.246397 0.288815
vt 0.246768 0.205307
vt 0.370268 0.205307
vt 0.494283 0.205307
vt 0.492822 0.304944
vt 0.490632 0.379672
vt 0.369475 0.110659
vt 0.246397 0.121798
vt 0.245841 0.059166
vt 0.368286 0.039673
vt 0.490632 0.030941
vt 0.492822 0.105669
vt 0.616755 0.103478
vt 0.619174 0.205307
vt 0.613127 0.027106
vt 0.616755 0.307135
vt 0.613126 0.383507
vt 0.123273 0.268175
vt 0.123047 0.315326
vt 0.054743 0.283353
vt 0.030912 0.249131
vt 0.030973 0.205306
vt 0.123423 0.205306
vt 0.123273 0.142438
vt 0.030912 0.161481
vt 0.054744 0.127260
vt 0.123047 0.095287
vt 0.839504 0.118056
vt 0.856743 0.205307
vt 0.968983 0.205307
vt 0.938030 0.133427
vt 0.876123 0.061548
vt 0.805028 0.030806
vt 0.721203 0.008146
vt 0.734555 0.106726
vt 0.741230 0.205307
vt 0.839504 0.292557
vt 0.805028 0.379807
vt 0.876123 0.349065
vt 0.938030 0.277186
vt 0.734555 0.303887
vt 0.721203 0.402467
vt 0.369475 0.299954
vt 0.367890 0.394602
vt 0.489902 0.404581
vt 0.492822 0.304944
vt 0.494283 0.205307
vt 0.370268 0.205307
vt 0.246768 0.205307
vt 0.246397 0.288815
vt 0.245655 0.372324
vt 0.369475 0.110659
vt 0.492822 0.105669
vt 0.489902 0.006032
vt 0.367890 0.016011
vt 0.245655 0.038289
vt 0.246397 0.121798
vt 0.616755 0.103478
vt 0.619174 0.205307
vt 0.611917 0.001649
vt 0.616755 0.307135
vt 0.611917 0.408964
vt 0.123273 0.268175
vt 0.122972 0.331043
vt 0.123423 0.205306
vt 0.000156 0.205306
vt 0.000125 0.242784
vt 0.000064 0.280261
vt 0.123273 0.142438
vt 0.122972 0.079570
vt 0.000064 0.130352
vt 0.000125 0.167829
vt 0.122972 0.331043
vt 0.030806 0.283587
vt 0.245655 0.372324
vt 0.030806 0.283587
vt 0.000125 0.167829
vt 0.030806 0.127026
vt 0.000156 0.205306
vt 0.030806 0.127026
vt 0.805028 0.030806
vt 0.873826 0.071832
vt 0.721203 0.008146
vt 0.873826 0.071832
vt 0.938030 0.277186
vt 0.873826 0.338781
vt 0.968983 0.205307
vt 0.873826 0.338781
vt 0.805028 0.379807
vt 0.721203 0.402467
vt 0.000125 0.242784
vt 0.122972 0.079570
vt 0.245655 0.038289
vt 0.938030 0.133427
vt 0.611917 0.001649
vt 0.489902 0.006032
vt 0.611917 0.408964
vt 0.489902 0.404581
vt 0.367890 0.394602
vt 0.367890 0.016011
f 1/1/1 2/2/2 3/3/3
f 1/1/1 3/3/3 4/4/4
f 1/1/1 4/4/4 5/5/5
f 1/1/1 5/5/5 6/6/6
f 1/1/1 6/6/6 7/7/7
f 1/1/1 7/7/7 8/8/8
f 1/1/1 8/8/8 9/9/9
f 1/1/1 9/9/9 2/2/2
f 10/10/10 11/11/11 12/12/12
f 10/10/10 12/12/12 13/13/13
f 10/10/10 13/13/13 3/3/3
f 10/10/10 3/3/3 2/2/2
f 10/10/10 2/2/2 9/9/9
f 10/10/10 9/9/9 14/14/14
f 10/10/10 14/14/14 15/15/15
f 10/10/10 15/15/15 11/11/11
f 16/16/16 17/17/17 18/18/18
f 16/16/16 18/18/18 19/19/19
f 16/16/16 19/19/19 20/20/20
f 16/16/16 20/20/20 21/21/21
f 16/16/16 21/21/21 22/22/22
f 16/16/16 22/22/22 23/23/23
f 16/16/16 23/23/23 24/24/24
f 16/16/16 24/24/24 17/17/17
f 25/25/25 21/21/21 20/20/20
f 25/25/25 20/20/20 26/26/26
f 25/25/25 26/26/26 27/27/27
f 25/25/25 27/27/27 28/28/28
f 25/25/25 28/28/28 29/29/29
f 25/25/25 29/29/29 30/30/30
f 25/25/25 30/30/30 22/22/22
f 25/25/25 22/22/22 21/21/21
f 31/31/31 32/32/32 22/22/22
f 31/31/31 22/22/22 30/30/30
f 31/31/31 30/30/30 29/29/29
f 31/31/31 29/29/29 33/33/33
f 31/31/31 33/33/33 5/5/5
f 31/31/31 5/5/5 4/4/4
f 31/31/31 4/4/4 3/3/3
f 31/31/31 3/3/3 32/32/32
f 34/34/34 35/35/35 24/24/24
f 34/34/34 24/24/24 23/23/23
f 34/34/34 23/23/23 22/22/22
f 34/34/34 22/22/22 32/32/32
f 34/34/34 32/32/32 3/3/3
f 34/34/34 3/3/3 13/13/13
f 34/34/34 13/13/13 12/12/12
f 34/34/34 12/12/12 35/35/35
f 36/36/36 37/37/37 38/38/38
f 36/36/36 38/38/38 39/39/39
f 36/36/36 39/39/39 40/40/40
f 36/36/36 40/40/40 41/41/41
f 36/36/36 41/41/41 20/20/20
f 36/36/36 20/20/20 19/19/19
f 36/36/36 19/19/19 18/18/18
f 36/36/36 18/18/18 37/37/37
f 42/42/42 41/41/41 40/40/40
f 42/42/42 40/40/40 43/43/43
f 42/42/42 43/43/43 44/44/44
f 42/42/42 44/44/44 45/45/45
f 42/42/42 45/45/45 27/27/27
f 42/42/42 27/27/27 26/26/26
f 42/42/42 26/26/26 20/20/20
f 42/42/42 20/20/20 41/41/41
f 46/46/46 47/47/47 48/48/48
f 46/46/46 48/48/48 49/49/49
f 46/46/46 49/49/49 50/50/50
f 46/46/46 50/50/50 51/51/51
f 46/46/46 51/51/51 52/52/52
f 46/46/46 52/52/52 53/53/53
f 46/46/46 53/53/53 54/54/54
f 46/46/46 54/54/54 47/47/47
f 55/55/55 56/56/56 57/57/57
f 55/55/55 57/57/57 58/58/58
f 55/55/55 58/58/58 48/48/48
f 55/55/55 48/48/48 47/47/47
f 55/55/55 47/47/47 54/54/54
f 55/55/55 54/54/54 59/59/59
f 55/55/55 59/59/59 60/60/60
f 55/55/55 60/60/60 56/56/56
f 61/61/61 62/62/62 63/63/63
f 61/61/61 63/63/63 64/64/64
f 61/61/61 64/64/64 65/65/65
f 61/61/61 65/65/65 66/66/66
f 61/61/61 66/66/66 67/67/67
f 61/61/61 67/67/67 68/68/68
f 61/61/61 68/68/68 69/69/69
f 61/61/61 69/69/69 62/62/62
f 70/70/70 66/66/66 65/65/65
f 70/70/70 65/65/65 71/71/71
f 70/70/70 71/71/71 72/72/72
f 70/70/70 72/72/72 73/73/73
f 70/70/70 73/73/73 74/74/74
f 70/70/70 74/74/74 75/75/75
f 70/70/70 75/75/75 67/67/67
f 70/70/70 67/67/67 66/66/66
f 76/76/76 77/77/77 54/54/54
f 76/76/76 54/54/54 53/53/53
f 76/76/76 53/53/53 52/52/52
f 76/76/76 52/52/52 78/78/78
f 76/76/76 78/78/78 72/72/72
f 76/76/76 72/72/72 71/71/71
f 76/76/76 71/71/71 65/65/65
f 76/76/76 65/65/65 77/77/77
f 79/79/79 80/80/80 60/60/60
f 79/79/79 60/60/60 59/59/59
f 79/79/79 59/59/59 54/54/54
f 79/79/79 54/54/54 77/77/77
f 79/79/79 77/77/77 65/65/65
f 79/79/79 65/65/65 64/64/64
f 79/79/79 64/64/64 63/63/63
f 79/79/79 63/63/63 80/80/80
f 81/81/81 82/82/82 69/69/69
f 81/81/81 69/69/69 68/68/68
f 81/81/81 68/68/68 67/67/67
f 81/81/81 67/67/67 83/83/83
f 81/81/81 83/83/83 84/84/84
f 81/81/81 84/84/84 85/85/85
f 81/81/81 85/85/85 86/86/86
f 81/81/81 86/86/86 82/82/82
f 87/87/87 83/83/83 67/67/67
f 87/87/87 67/67/67 75/75/75
f 87/87/87 75/75/75 74/74/74
f 87/87/87 74/74/74 88/88/88
f 87/87/87 88/88/88 89/89/89
f 87/87/87 89/89/89 90/90/90
f 87/87/87 90/90/90 84/84/84
f 87/87/87 84/84/84 83/83/83
f 91/91/91 92/92/92 38/38/38
f 91/91/91 38/38/38 37/37/37
f 91/91/91 37/37/37 18/18/18
f 91/91/91 18/18/18 93/93/93
f 91/91/91 93/93/93 69/69/69
f 91/91/91 69/69/69 82/82/82
f 91/91/91 82/82/82 94/94/94
f 91/91/91 94/94/94 92/92/92
f 95/95/95 96/96/96 44/44/44
f 95/95/95 44/44/44 43/43/43
f 95/95/95 43/43/43 40/40/40
f 95/95/95 40/40/40 97/97/97
f 95/95/95 97/97/97 84/84/84
f 95/95/95 84/84/84 90/90/90
f 95/95/95 90/90/90 98/98/98
f 95/95/95 98/98/98 96/96/96
f 99/99/99 100/100/100 7/7/7
f 99/99/99 7/7/7 6/6/6
f 99/99/99 6/6/6 5/5/5
f 99/99/99 5/5/5 101/101/101
f 99/99/99 101/101/101 52/52/52
f 99/99/99 52/52/52 51/51/51
f 99/99/99 51/51/51 102/102/102
f 99/99/99 102/102/102 100/100/100
f 103/103/103 104/104/104 15/15/15
f 103/103/103 15/15/15 14/14/14
f 103/103/103 14/14/14 9/9/9
f 103/103/103 9/9/9 105/105/105
f 103/103/103 105/105/105 48/48/48
f 103/103/103 48/48/48 58/58/58
f 103/103/103 58/58/58 106/106/106
f 103/103/103 106/106/106 104/104/104
f 107/107/107 108/108/108 12/12/12
f 107/107/107 12/12/12 11/11/11
f 107/107/107 11/11/11 15/15/15
f 107/107/107 15/15/15 104/104/104
f 107/107/107 104/104/104 106/106/106
f 107/107/107 106/106/106 56/56/56
f 107/107/107 56/56/56 60/60/60
f 107/107/107 60/60/60 108/108/108
f 109/109/109 97/97/97 40/40/40
f 109/109/109 40/40/40 39/39/39
f 109/109/109 39/39/39 38/38/38
f 109/109/109 38/38/38 92/92/92
f 109/109/109 92/92/92 94/94/94
f 109/109/109 94/94/94 85/85/85
f 109/109/109 85/85/85 84/84/84
f 109/109/109 84/84/84 97/97/97
f 110/110/110 111/111/111 27/27/27
f 110/110/110 27/27/27 45/45/45
f 110/110/110 45/45/45 44/44/44
f 110/110/110 44/44/44 96/96/96
f 110/110/110 96/96/96 98/98/98
f 110/110/110 98/98/98 88/88/88
f 110/110/110 88/88/88 74/74/74
f 110/110/110 74/74/74 111/111/111
f 112/112/112 105/105/105 9/9/9
f 112/112/112 9/9/9 8/8/8
f 112/112/112 8/8/8 7/7/7
f 112/112/112 7/7/7 100/100/100
f 112/112/112 100/100/100 102/102/102
f 112/112/112 102/102/102 49/49/49
f 112/112/112 49/49/49 48/48/48
f 112/112/112 48/48/48 105/105/105
f 113/113/113 101/101/101 5/5/5
f 113/113/113 5/5/5 33/33/33
f 113/113/113 33/33/33 29/29/29
f 113/113/113 29/29/29 114/114/114
f 113/113/113 114/114/114 72/72/72
f 113/113/113 72/72/72 78/78/78
f 113/113/113 78/78/78 52/52/52
f 113/113/113 52/52/52 101/101/101
f 115/115/115 116/116/116 24/24/24
f 115/115/115 24/24/24 35/35/35
f 115/115/115 35/35/35 12/12/12
f 115/115/115 12/12/12 108/108/108
f 115/115/115 108/108/108 60/60/60
f 115/115/115 60/60/60 80/80/80
f 115/115/115 80/80/80 63/63/63
f 115/115/115 63/63/63 116/116/116
f 117/117/117 93/93/93 18/18/18
f 117/117/117 18/18/18 17/17/17
f 117/117/117 17/17/17 24/24/24
f 117/117/117 24/24/24 116/116/116
f 117/117/117 116/116/116 63/63/63
f 117/117/117 63/63/63 62/62/62
f 117/117/117 62/62/62 69/69/69
f 117/117/117 69/69/69 93/93/93
f 118/118/118 114/114/114 29/29/29
f 118/118/118 29/29/29 28/28/28
f 118/118/118 28/28/28 27/27/27
f 118/118/118 27/27/27 111/111/111
f 118/118/118 111/111/111 74/74/74
f 118/118/118 74/74/74 73/73/73
f 118/118/118 73/73/73 72/72/72
f 118/118/118 72/72/72 114/114/114
