v -2.448942 0.736746 -1.075305
v -2.448198 0.736637 -1.073218
v -2.445693 0.736400 -1.074763
v -2.446816 0.736489 -1.076957
v -2.447541 0.736754 -1.078705
v -2.449213 0.737023 -1.077080
v -2.450054 0.736990 -1.075701
v -2.450407 0.736819 -1.074053
v -2.450035 0.736709 -1.072075
v -2.446673 0.737125 -1.071684
v -2.445233 0.737688 -1.070729
v -2.443020 0.737509 -1.071491
v -2.444237 0.736919 -1.072841
v -2.448443 0.737147 -1.070918
v -2.446831 0.737528 -1.070558
v -2.436576 0.734575 -1.077454
v -2.435549 0.734949 -1.076008
v -2.433308 0.733632 -1.077847
v -2.434223 0.733289 -1.079121
v -2.435395 0.732950 -1.080854
v -2.437896 0.734203 -1.079419
v -2.440444 0.735247 -1.077931
v -2.439060 0.735658 -1.075881
v -2.437978 0.736082 -1.074377
v -2.439103 0.734153 -1.081487
v -2.436458 0.732916 -1.082688
v -2.437224 0.732978 -1.084097
v -2.439976 0.734209 -1.083075
v -2.442609 0.735308 -1.081768
v -2.441703 0.735217 -1.080100
v -2.444339 0.735987 -1.078572
v -2.443075 0.735958 -1.076357
v -2.445235 0.736170 -1.080290
v -2.441657 0.736435 -1.074292
v -2.440535 0.736954 -1.072789
v -2.432019 0.731905 -1.080993
v -2.431318 0.732207 -1.080056
v -2.430401 0.731292 -1.081508
v -2.430429 0.730804 -1.082462
v -2.431054 0.730560 -1.083324
v -2.432907 0.731617 -1.082274
v -2.433687 0.731627 -1.083654
v -2.431571 0.730613 -1.084286
v -2.432457 0.730949 -1.084789
v -2.434242 0.731719 -1.084723
v -2.448971 0.736516 -1.075301
v -2.448210 0.736408 -1.073187
v -2.450042 0.736537 -1.072052
v -2.450427 0.736647 -1.074053
v -2.450073 0.736862 -1.075706
v -2.449243 0.736852 -1.077090
v -2.447575 0.736583 -1.078708
v -2.446852 0.736260 -1.076945
v -2.445713 0.736172 -1.074727
v -2.446668 0.736901 -1.071625
v -2.445221 0.737523 -1.070671
v -2.446824 0.737405 -1.070520
v -2.448436 0.736979 -1.070875
v -2.444242 0.736695 -1.072780
v -2.443017 0.737344 -1.071433
v -2.436622 0.734359 -1.077379
v -2.435577 0.734789 -1.075943
v -2.437998 0.735919 -1.074315
v -2.439094 0.735439 -1.075811
v -2.440490 0.735025 -1.077879
v -2.437953 0.733984 -1.079360
v -2.435460 0.732735 -1.080791
v -2.434277 0.733077 -1.079041
v -2.433343 0.733474 -1.077779
v -2.439171 0.733934 -1.081446
v -2.441761 0.734994 -1.080066
v -2.442658 0.735141 -1.081753
v -2.440032 0.734045 -1.083053
v -2.437286 0.732816 -1.084072
v -2.436533 0.732700 -1.082643
v -2.444385 0.735761 -1.078549
v -2.443108 0.735733 -1.076313
v -2.445276 0.736000 -1.080283
v -2.441676 0.736213 -1.074227
v -2.440543 0.736790 -1.072729
v -2.432075 0.731694 -1.080910
v -2.431353 0.732051 -1.079985
v -2.432975 0.731403 -1.082209
v -2.431105 0.730400 -1.083276
v -2.430470 0.730646 -1.082399
v -2.430429 0.731176 -1.081457
v -2.433766 0.731412 -1.083609
v -2.434307 0.731558 -1.084699
v -2.432503 0.730830 -1.084768
v -2.431631 0.730452 -1.084252
v -2.431098 0.732239 -1.079710
v -2.429914 0.731024 -1.081780
v -2.433017 0.733676 -1.077390
v -2.430429 0.731176 -1.081457
v -2.430893 0.730204 -1.084482
v -2.431974 0.730680 -1.085068
v -2.430459 0.730136 -1.083653
v -2.432503 0.730830 -1.084768
v -2.449318 0.737040 -1.077679
v -2.450293 0.737023 -1.075851
v -2.447799 0.736767 -1.079292
v -2.450073 0.736862 -1.075706
v -2.449029 0.737080 -1.070644
v -2.446806 0.737605 -1.070286
v -2.450650 0.736657 -1.071684
v -2.446824 0.737405 -1.070520
v -2.444746 0.737803 -1.070382
v -2.442611 0.737633 -1.071012
v -2.429917 0.730367 -1.082923
v -2.434457 0.731678 -1.085071
v -2.437508 0.732927 -1.084558
v -2.450904 0.736767 -1.073636
v -2.445554 0.736155 -1.080862
v -2.442934 0.735264 -1.082319
v -2.440163 0.737055 -1.072259
v -2.437625 0.736151 -1.073846
v -2.435218 0.735003 -1.075496
v -2.440293 0.734155 -1.083596
vn 0.138200 0.988200 0.066600
vn 0.006100 0.994100 -0.107800
vn 0.056900 0.988600 -0.139000
vn 0.177000 0.984100 0.015400
vn 0.193400 0.981100 -0.005600
vn 0.134400 0.989100 0.059500
vn 0.091400 0.990300 0.104600
vn 0.038600 0.995900 0.081100
vn -0.073200 0.995600 -0.058300
vn -0.090800 0.949900 -0.298900
vn -0.086300 0.952300 -0.292600
vn -0.001500 0.948600 -0.316500
vn -0.027700 0.949900 -0.311300
vn -0.148400 0.964700 -0.217400
vn -0.145600 0.950700 -0.273600
vn 0.208700 0.911300 -0.354900
vn 0.235900 0.914500 -0.328500
vn 0.263400 0.902400 -0.340900
vn 0.230900 0.897100 -0.376700
vn 0.302600 0.909600 -0.284800
vn 0.268500 0.926100 -0.265100
vn 0.198700 0.954000 -0.224300
vn 0.139200 0.933900 -0.329400
vn 0.168500 0.933800 -0.315600
vn 0.323700 0.930500 -0.171400
vn 0.354300 0.917700 -0.179900
vn 0.336100 0.914600 -0.224800
vn 0.311800 0.927200 -0.207400
vn 0.268700 0.950600 -0.155500
vn 0.268200 0.955400 -0.123500
vn 0.213100 0.975600 -0.053500
vn 0.119900 0.976800 -0.177300
vn 0.226800 0.970500 -0.081300
vn 0.050500 0.948400 -0.313000
vn 0.081800 0.946300 -0.312600
vn 0.227800 0.886000 -0.403800
vn 0.266200 0.890900 -0.368000
vn 0.261500 0.877700 -0.401400
vn 0.259600 0.856300 -0.446300
vn 0.362500 0.875800 -0.318700
vn 0.318500 0.901200 -0.293800
vn 0.378100 0.911100 -0.163900
vn 0.432900 0.885300 -0.169800
vn 0.391800 0.899400 -0.193900
vn 0.362700 0.906900 -0.214100
vn -0.172400 -0.981900 -0.078000
vn -0.020100 -0.993000 0.116500
vn -0.074100 -0.985900 0.149600
vn -0.271100 -0.955700 -0.114200
vn -0.350000 -0.915600 -0.198000
vn -0.330400 -0.925900 -0.183000
vn -0.298200 -0.946500 -0.123400
vn -0.186100 -0.982100 -0.027700
vn -0.056800 -0.988600 0.139000
vn 0.085400 -0.938900 0.333400
vn 0.104300 -0.853300 0.510800
vn 0.108100 -0.839100 0.533100
vn 0.071700 -0.898500 0.433000
vn 0.034500 -0.945300 0.324300
vn 0.067200 -0.885500 0.459800
vn -0.198700 -0.908600 0.367400
vn -0.126700 -0.883500 0.450900
vn -0.076800 -0.897400 0.434400
vn -0.130600 -0.930800 0.341400
vn -0.198800 -0.954000 0.224400
vn -0.268700 -0.926000 0.265200
vn -0.302700 -0.909500 0.284800
vn -0.217600 -0.894600 0.390200
vn -0.114100 -0.874800 0.470800
vn -0.330700 -0.930600 0.156700
vn -0.275400 -0.955000 0.110300
vn -0.337800 -0.941000 0.017800
vn -0.375900 -0.925100 0.053200
vn -0.388900 -0.920700 0.032100
vn -0.360700 -0.918500 0.161800
vn -0.220600 -0.974500 0.040900
vn -0.119900 -0.976800 0.177300
vn -0.303400 -0.951500 -0.049800
vn -0.042700 -0.944800 0.324800
vn -0.000300 -0.900900 0.434000
vn -0.197200 -0.888200 0.414900
vn -0.053500 -0.867800 0.494000
vn -0.308800 -0.906300 0.288300
vn -0.266100 -0.927200 0.263700
vn -0.097600 -0.893800 0.437600
vn -0.012400 -0.863800 0.503700
vn -0.374400 -0.917800 0.132200
vn -0.383700 -0.922900 -0.032800
vn -0.374600 -0.924200 -0.074200
vn -0.350200 -0.936000 0.034500
vn 0.834200 0.114800 0.539300
vn 0.983700 -0.019900 0.178800
vn 0.738100 0.142700 0.659400
vn -0.012400 -0.863800 0.503700
vn 0.655500 -0.384700 -0.649800
vn 0.275800 -0.138400 -0.951200
vn 0.749100 -0.516300 -0.415100
vn -0.374600 -0.924200 -0.074200
vn -0.726500 0.277600 -0.628600
vn -0.891400 0.287000 -0.350800
vn -0.591000 0.214100 -0.777700
vn -0.350000 -0.915600 -0.198000
vn -0.474600 0.183100 0.860900
vn -0.106500 0.417900 0.902200
vn -0.847100 -0.006500 0.531400
vn 0.108100 -0.839100 0.533100
vn 0.215100 0.434800 0.874400
vn 0.413800 0.381900 0.826300
vn 0.905200 -0.342700 -0.251300
vn -0.124500 -0.045300 -0.991200
vn -0.276700 -0.026700 -0.960600
vn -0.994900 0.096300 0.030500
vn -0.493100 0.138900 -0.858800
vn -0.439200 0.080900 -0.894700
vn 0.536500 0.310900 0.784500
vn 0.598200 0.253900 0.760000
vn 0.654300 0.195500 0.730500
vn -0.382700 0.022600 -0.923600
vt 0.839504 0.118056
vt 0.856743 0.205307
vt 0.741230 0.205307
vt 0.734555 0.106726
vt 0.724541 0.032791
vt 0.813647 0.052618
vt 0.868992 0.081539
vt 0.913398 0.129584
vt 0.940923 0.205307
vt 0.839504 0.292557
vt 0.813647 0.357995
vt 0.724541 0.377822
vt 0.734555 0.303887
vt 0.913398 0.281029
vt 0.868992 0.329074
vt 0.369475 0.299954
vt 0.368286 0.370940
vt 0.245840 0.351447
vt 0.246397 0.288815
vt 0.246768 0.205307
vt 0.370268 0.205307
vt 0.494283 0.205307
vt 0.492822 0.304944
vt 0.490632 0.379672
vt 0.369475 0.110659
vt 0.246397 0.121798
vt 0.245841 0.059166
vt 0.368286 0.039673
vt 0.490632 0.030941
vt 0.492822 0.105669
vt 0.616755 0.103478
vt 0.619174 0.205307
vt 0.613127 0.027106
vt 0.616755 0.307135
vt 0.613126 0.383507
vt 0.123273 0.268175
vt 0.123047 0.315326
vt 0.054743 0.283353
vt 0.030912 0.249131
vt 0.030973 0.205306
vt 0.123423 0.205306
vt 0.123273 0.142438
vt 0.030912 0.161481
vt 0.054744 0.127260
vt 0.123047 0.095287
vt 0.839504 0.118056
vt 0.856743 0.205307
vt 0.968983 0.205307
vt 0.938030 0.133427
vt 0.876123 0.061548
vt 0.805028 0.030806
vt 0.721203 0.008146
vt 0.734555 0.106726
vt 0.741230 0.205307
vt 0.839504 0.292557
vt 0.805028 0.379807
vt 0.876123 0.349065
vt 0.938030 0.277186
vt 0.734555 0.303887
vt 0.721203 0.402467
vt 0.369475 0.299954
vt 0.367890 0.394602
vt 0.489902 0.404581
vt 0.492822 0.304944
vt 0.494283 0.205307
vt 0.370268 0.205307
vt 0.246768 0.205307
vt 0.246397 0.288815
vt 0.245655 0.372324
vt 0.369475 0.110659
vt 0.492822 0.105669
vt 0.489902 0.006032
vt 0.367890 0.016011
vt 0.245655 0.038289
vt 0.246397 0.121798
vt 0.616755 0.103478
vt 0.619174 0.205307
vt 0.611917 0.001649
vt 0.616755 0.307135
vt 0.611917 0.408964
vt 0.123273 0.268175
vt 0.122972 0.331043
vt 0.123423 0.205306
vt 0.000156 0.205306
vt 0.000125 0.242784
vt 0.000064 0.280261
vt 0.123273 0.142438
vt 0.122972 0.079570
vt 0.000064 0.130352
vt 0.000125 0.167829
vt 0.122972 0.331043
vt 0.030806 0.283587
vt 0.245655 0.372324
vt 0.030806 0.283587
vt 0.000125 0.167829
vt 0.030806 0.127026
vt 0.000156 0.205306
vt 0.030806 0.127026
vt 0.805028 0.030806
vt 0.873826 0.071832
vt 0.721203 0.008146
vt 0.873826 0.071832
vt 0.938030 0.277186
vt 0.873826 0.338781
vt 0.968983 0.205307
vt 0.873826 0.338781
vt 0.805028 0.379807
vt 0.721203 0.402467
vt 0.000125 0.242784
vt 0.122972 0.079570
vt 0.245655 0.038289
vt 0.938030 0.133427
vt 0.611917 0.001649
vt 0.489902 0.006032
vt 0.611917 0.408964
vt 0.489902 0.404581
vt 0.367890 0.394602
vt 0.367890 0.016011
f 1/1/1 2/2/2 3/3/3
f 1/1/1 3/3/3 4/4/4
f 1/1/1 4/4/4 5/5/5
f 1/1/1 5/5/5 6/6/6
f 1/1/1 6/6/6 7/7/7
f 1/1/1 7/7/7 8/8/8
f 1/1/1 8/8/8 9/9/9
f 1/1/1 9/9/9 2/2/2
f 10/10/10 11/11/11 12/12/12
f 10/10/10 12/12/12 13/13/13
f 10/10/10 13/13/13 3/3/3
f 10/10/10 3/3/3 2/2/2
f 10/10/10 2/2/2 9/9/9
f 10/10/10 9/9/9 14/14/14
f 10/10/10 14/14/14 15/15/15
f 10/10/10 15/15/15 11/11/11
f 16/16/16 17/17/17 18/18/18
f 16/16/16 18/18/18 19/19/19
f 16/16/16 19/19/19 20/20/20
f 16/16/16 20/20/20 21/21/21
f 16/16/16 21/21/21 22/22/22
f 16/16/16 22/22/22 23/23/23
f 16/16/16 23/23/23 24/24/24
f 16/16/16 24/24/24 17/17/17
f 25/25/25 21/21/21 20/20/20
f 25/25/25 20/20/20 26/26/26
f 25/25/25 26/26/26 27/27/27
f 25/25/25 27/27/27 28/28/28
f 25/25/25 28/28/28 29/29/29
f 25/25/25 29/29/29 30/30/30
f 25/25/25 30/30/30 22/22/22
f 25/25/25 22/22/22 21/21/21
f 31/31/31 32/32/32 22/22/22
f 31/31/31 22/22/22 30/30/30
f 31/31/31 30/30/30 29/29/29
f 31/31/31 29/29/29 33/33/33
f 31/31/31 33/33/33 5/5/5
f 31/31/31 5/5/5 4/4/4
f 31/31/31 4/4/4 3/3/3
f 31/31/31 3/3/3 32/32/32
f 34/34/34 35/35/35 24/24/24
f 34/34/34 24/24/24 23/23/23
f 34/34/34 23/23/23 22/22/22
f 34/34/34 22/22/22 32/32/32
f 34/34/34 32/32/32 3/3/3
f 34/34/34 3/3/3 13/13/13
f 34/34/34 13/13/13 12/12/12
f 34/34/34 12/12/12 35/35/35
f 36/36/36 37/37/37 38/38/38
f 36/36/36 38/38/38 39/39/39
f 36/36/36 39/39/39 40/40/40
f 36/36/36 40/40/40 41/41/41
f 36/36/36 41/41/41 20/20/20
f 36/36/36 20/20/20 19/19/19
f 36/36/36 19/19/19 18/18/18
f 36/36/36 18/18/18 37/37/37
f 42/42/42 41/41/41 40/40/40
f 42/42/42 40/40/40 43/43/43
f 42/42/42 43/43/43 44/44/44
f 42/42/42 44/44/44 45/45/45
f 42/42/42 45/45/45 27/27/27
f 42/42/42 27/27/27 26/26/26
f 42/42/42 26/26/26 20/20/20
f 42/42/42 20/20/20 41/41/41
f 46/46/46 47/47/47 48/48/48
f 46/46/46 48/48/48 49/49/49
f 46/46/46 49/49/49 50/50/50
f 46/46/46 50/50/50 51/51/51
f 46/46/46 51/51/51 52/52/52
f 46/46/46 52/52/52 53/53/53
f 46/46/46 53/53/53 54/54/54
f 46/46/46 54/54/54 47/47/47
f 55/55/55 56/56/56 57/57/57
f 55/55/55 57/57/57 58/58/58
f 55/55/55 58/58/58 48/48/48
f 55/55/55 48/48/48 47/47/47
f 55/55/55 47/47/47 54/54/54
f 55/55/55 54/54/54 59/59/59
f 55/55/55 59/59/59 60/60/60
f 55/55/55 60/60/60 56/56/56
f 61/61/61 62/62/62 63/63/63
f 61/61/61 63/63/63 64/64/64
f 61/61/61 64/64/64 65/65/65
f 61/61/61 65/65/65 66/66/66
f 61/61/61 66/66/66 67/67/67
f 61/61/61 67/67/67 68/68/68
f 61/61/61 68/68/68 69/69/69
f 61/61/61 69/69/69 62/62/62
f 70/70/70 66/66/66 65/65/65
f 70/70/70 65/65/65 71/71/71
f 70/70/70 71/71/71 72/72/72
f 70/70/70 72/72/72 73/73/73
f 70/70/70 73/73/73 74/74/74
f 70/70/70 74/74/74 75/75/75
f 70/70/70 75/75/75 67/67/67
f 70/70/70 67/67/67 66/66/66
f 76/76/76 77/77/77 54/54/54
f 76/76/76 54/54/54 53/53/53
f 76/76/76 53/53/53 52/52/52
f 76/76/76 52/52/52 78/78/78
f 76/76/76 78/78/78 72/72/72
f 76/76/76 72/72/72 71/71/71
f 76/76/76 71/71/71 65/65/65
f 76/76/76 65/65/65 77/77/77
f 79/79/79 80/80/80 60/60/60
f 79/79/79 60/60/60 59/59/59
f 79/79/79 59/59/59 54/54/54
f 79/79/79 54/54/54 77/77/77
f 79/79/79 77/77/77 65/65/65
f 79/79/79 65/65/65 64/64/64
f 79/79/79 64/64/64 63/63/63
f 79/79/79 63/63/63 80/80/80
f 81/81/81 82/82/82 69/69/69
f 81/81/81 69/69/69 68/68/68
f 81/81/81 68/68/68 67/67/67
f 81/81/81 67/67/67 83/83/83
f 81/81/81 83/83/83 84/84/84
f 81/81/81 84/84/84 85/85/85
f 81/81/81 85/85/85 86/86/86
f 81/81/81 86/86/86 82/82/82
f 87/87/87 83/83/83 67/67/67
f 87/87/87 67/67/67 75/75/75
f 87/87/87 75/75/75 74/74/74
f 87/87/87 74/74/74 88/88/88
f 87/87/87 88/88/88 89/89/89
f 87/87/87 89/89/89 90/90/90
f 87/87/87 90/90/90 84/84/84
f 87/87/87 84/84/84 83/83/83
f 91/91/91 92/92/92 38/38/38
f 91/91/91 38/38/38 37/37/37
f 91/91/91 37/37/37 18/18/18
f 91/91/91 18/18/18 93/93/93
f 91/91/91 93/93/93 69/69/69
f 91/91/91 69/69/69 82/82/82
f 91/91/91 82/82/82 94/94/94
f 91/91/91 94/94/94 92/92/92
f 95/95/95 96/96/96 44/44/44
f 95/95/95 44/44/44 43/43/43
f 95/95/95 43/43/43 40/40/40
f 95/95/95 40/40/40 97/97/97
f 95/95/95 97/97/97 84/84/84
f 95/95/95 84/84/84 90/90/90
f 95/95/95 90/90/90 98/98/98
f 95/95/95 98/98/98 96/96/96
f 99/99/99 100/100/100 7/7/7
f 99/99/99 7/7/7 6/6/6
f 99/99/99 6/6/6 5/5/5
f 99/99/99 5/5/5 101/101/101
f 99/99/99 101/101/101 52/52/52
f 99/99/99 52/52/52 51/51/51
f 99/99/99 51/51/51 102/102/102
f 99/99/99 102/102/102 100/100/100
f 103/103/103 104/104/104 15/15/15
f 103/103/103 15/15/15 14/14/14
f 103/103/103 14/14/14 9/9/9
f 103/103/103 9/9/9 105/105/105
f 103/103/103 105/105/105 48/48/48
f 103/103/103 48/48/48 58/58/58
f 103/103/103 58/58/58 106/106/106
f 103/103/103 106/106/106 104/104/104
f 107/107/107 108/108/108 12/12/12
f 107/107/107 12/12/12 11/11/11
f 107/107/107 11/11/11 15/15/15
f 107/107/107 15/15/15 104/104/104
f 107/107/107 104/104/104 106/106/106
f 107/107/107 106/106/106 56/56/56
f 107/107/107 56/56/56 60/60/60
f 107/107/107 60/60/60 108/108/108
f 109/109/109 97/97/97 40/40/40
f 109/109/109 40/40/40 39/39/39
f 109/109/109 39/39/39 38/38/38
f 109/109/109 38/38/38 92/92/92
f 109/109/109 92/92/92 94/94/94
f 109/109/109 94/94/94 85/85/85
f 109/109/109 85/85/85 84/84/84
f 109/109/109 84/84/84 97/97/97
f 110/110/110 111/111/111 27/27/27
f 110/110/110 27/27/27 45/45/45
f 110/110/110 45/45/45 44/44/44
f 110/110/110 44/44/44 96/96/96
f 110/110/110 96/96/96 98/98/98
f 110/110/110 98/98/98 88/88/88
f 110/110/110 88/88/88 74/74/74
f 110/110/110 74/74/74 111/111/111
f 112/112/112 105/105/105 9/9/9
f 112/112/112 9/9/9 8/8/8
f 112/112/112 8/8/8 7/7/7
f 112/112/112 7/7/7 100/100/100
f 112/112/112 100/100/100 102/102/102
f 112/112/112 102/102/102 49/49/49
f 112/112/112 49/49/49 48/48/48
f 112/112/112 48/48/48 105/105/105
f 113/113/113 101/101/101 5/5/5
f 113/113/113 5/5/5 33/33/33
f 113/113/113 33/33/33 29/29/29
f 113/113/113 29/29/29 114/114/114
f 113/113/113 114/114/114 72/72/72
f 113/113/113 72/72/72 78/78/78
f 113/113/113 78/78/78 52/52/52
f 113/113/113 52/52/52 101/101/101
f 115/115/115 116/116/116 24/24/24
f 115/115/115 24/24/24 35/35/35
f 115/115/115 35/35/35 12/12/12
f 115/115/115 12/12/12 108/108/108
f 115/115/115 108/108/108 60/60/60
f 115/115/115 60/60/60 80/80/80
f 115/115/115 80/80/80 63/63/63
f 115/115/115 63/63/63 116/116/116
f 117/117/117 93/93/93 18/18/18
f 117/117/117 18/18/18 17/17/17
f 117/117/117 17/17/17 24/24/24
f 117/117/117 24/24/24 116/116/116
f 117/117/117 116/116/116 63/63/63
f 117/117/117 63/63/63 62/62/62
f 117/117/117 62/62/62 69/69/69
f 117/117/117 69/69/69 93/93/93
f 118/118/118 114/114/114 29/29/29
f 118/118/118 29/29/29 28/28/28
f 118/118/118 28/28/28 27/27/27
f 118/118/118 27/27/27 111/111/111
f 118/118/118 111/111/111 74/74/74
f 118/118/118 74/74/74 73/73/73
f 118/118/118 73/73/73 72/72/72
f 118/118/118 72/72/72 114/114/114
