v -2.308484 0.772244 -1.220437
v -2.306559 0.772088 -1.220935
v -2.307698 0.770404 -1.222643
v -2.309746 0.770725 -1.221856
v -2.311388 0.771034 -1.221456
v -2.310114 0.772324 -1.220375
v -2.308956 0.772933 -1.219746
v -2.307501 0.773232 -1.219405
v -2.305702 0.773251 -1.219629
v -2.305133 0.771882 -1.222314
v -2.304238 0.771689 -1.223666
v -2.304713 0.770312 -1.225194
v -2.305938 0.770313 -1.223989
v -2.304600 0.772919 -1.221029
v -2.304197 0.772419 -1.222411
v -2.309124 0.764010 -1.228372
v -2.307803 0.763964 -1.229326
v -2.309093 0.761593 -1.230278
v -2.310256 0.761628 -1.229423
v -2.311847 0.761732 -1.228380
v -2.310929 0.764131 -1.227202
v -2.309943 0.766413 -1.225882
v -2.308061 0.766299 -1.227119
v -2.306690 0.766269 -1.228139
v -2.312856 0.764413 -1.226282
v -2.313556 0.761985 -1.227575
v -2.314876 0.762217 -1.227039
v -2.314342 0.764671 -1.225665
v -2.313530 0.767008 -1.224309
v -2.311965 0.766720 -1.224933
v -2.310917 0.768854 -1.223406
v -2.308846 0.768508 -1.224327
v -2.312536 0.769196 -1.222837
v -2.306956 0.768426 -1.225624
v -2.305595 0.768446 -1.226723
v -2.311569 0.759222 -1.230313
v -2.310718 0.759217 -1.230989
v -2.311820 0.757872 -1.231180
v -2.312610 0.757394 -1.230902
v -2.313396 0.757412 -1.230312
v -2.312743 0.759282 -1.229507
v -2.314032 0.759488 -1.228934
v -2.314297 0.757576 -1.229957
v -2.314857 0.758200 -1.229480
v -2.315037 0.759684 -1.228570
v -2.308455 0.772093 -1.220296
v -2.306504 0.771933 -1.220807
v -2.305662 0.773132 -1.219535
v -2.307482 0.773117 -1.219301
v -2.308946 0.772850 -1.219666
v -2.310105 0.772214 -1.220263
v -2.311373 0.770927 -1.221341
v -2.309710 0.770579 -1.221711
v -2.307639 0.770255 -1.222510
v -2.305053 0.771726 -1.222201
v -2.304166 0.771573 -1.223589
v -2.304147 0.772332 -1.222353
v -2.304541 0.772800 -1.220947
v -2.305857 0.770163 -1.223869
v -2.304641 0.770200 -1.225111
v -2.309034 0.763889 -1.228227
v -2.307728 0.763873 -1.229222
v -2.306617 0.766171 -1.228041
v -2.307975 0.766168 -1.226980
v -2.309873 0.766283 -1.225733
v -2.310855 0.764011 -1.227047
v -2.311770 0.761619 -1.228221
v -2.310163 0.761514 -1.229274
v -2.309016 0.761506 -1.230171
v -2.312798 0.764295 -1.226119
v -2.311913 0.766593 -1.224775
v -2.313500 0.766915 -1.224187
v -2.314307 0.764584 -1.225538
v -2.314839 0.762135 -1.226910
v -2.313496 0.761874 -1.227408
v -2.310873 0.768717 -1.223255
v -2.308782 0.768368 -1.224186
v -2.312513 0.769095 -1.222718
v -2.306873 0.768285 -1.225495
v -2.305523 0.768340 -1.226632
v -2.311474 0.759110 -1.230163
v -2.310639 0.759133 -1.230882
v -2.312665 0.759172 -1.229346
v -2.313338 0.757330 -1.230192
v -2.312538 0.757310 -1.230790
v -2.311764 0.757810 -1.231099
v -2.313972 0.759380 -1.228765
v -2.315001 0.759604 -1.228439
v -2.314828 0.758141 -1.229384
v -2.314253 0.757495 -1.229829
v -2.310397 0.759178 -1.231168
v -2.311990 0.757389 -1.231397
v -2.308669 0.761542 -1.230516
v -2.311764 0.757810 -1.231099
v -2.314367 0.756903 -1.230241
v -2.315032 0.757717 -1.229693
v -2.313588 0.756753 -1.230528
v -2.314828 0.758141 -1.229384
v -2.310657 0.772303 -1.220304
v -2.309112 0.773058 -1.219587
v -2.311931 0.771090 -1.221270
v -2.308946 0.772850 -1.219666
v -2.304396 0.773211 -1.220565
v -2.303963 0.772502 -1.222471
v -2.305399 0.773585 -1.219152
v -2.304147 0.772332 -1.222353
v -2.303905 0.771573 -1.224085
v -2.304270 0.770262 -1.225560
v -2.312925 0.756747 -1.231048
v -2.315358 0.759714 -1.228390
v -2.315302 0.762259 -1.226802
v -2.307165 0.773510 -1.219015
v -2.313068 0.769265 -1.222593
v -2.314040 0.767063 -1.224046
v -2.305107 0.768405 -1.227051
v -2.306199 0.766216 -1.228437
v -2.307328 0.763908 -1.229599
v -2.314824 0.764718 -1.225402
vn -0.055400 0.727100 -0.684300
vn -0.240200 0.779000 -0.579100
vn -0.265700 0.740500 -0.617300
vn -0.101700 0.693300 -0.713400
vn -0.120500 0.678200 -0.724900
vn -0.062800 0.728900 -0.681700
vn -0.022300 0.761700 -0.647600
vn -0.051000 0.792600 -0.607600
vn -0.198600 0.833500 -0.515500
vn -0.431600 0.767700 -0.473600
vn -0.425200 0.768100 -0.478700
vn -0.440600 0.712800 -0.545600
vn -0.438000 0.729600 -0.525100
vn -0.358200 0.825800 -0.435600
vn -0.411600 0.803700 -0.429500
vn -0.454500 0.556400 -0.695500
vn -0.426500 0.547800 -0.719700
vn -0.434500 0.520400 -0.735000
vn -0.472100 0.528800 -0.705300
vn -0.376600 0.512900 -0.771400
vn -0.362500 0.548800 -0.753300
vn -0.332300 0.617800 -0.712600
vn -0.438600 0.618500 -0.651900
vn -0.422400 0.604000 -0.675800
vn -0.265600 0.536100 -0.801300
vn -0.269500 0.506900 -0.818800
vn -0.315200 0.507400 -0.801900
vn -0.301800 0.534300 -0.789500
vn -0.257600 0.586200 -0.768100
vn -0.226800 0.595600 -0.770600
vn -0.165300 0.654700 -0.737600
vn -0.296100 0.688700 -0.661800
vn -0.190800 0.638300 -0.745800
vn -0.432400 0.683500 -0.588000
vn -0.428900 0.664100 -0.612300
vn -0.497600 0.517400 -0.696200
vn -0.459500 0.505000 -0.730600
vn -0.491200 0.491500 -0.719100
vn -0.532700 0.468300 -0.704900
vn -0.400100 0.446000 -0.800600
vn -0.382900 0.495700 -0.779500
vn -0.250600 0.490600 -0.834500
vn -0.248000 0.437500 -0.864300
vn -0.277400 0.468700 -0.838600
vn -0.301100 0.488000 -0.819200
vn 0.040200 -0.704400 0.708600
vn 0.247300 -0.768700 0.589900
vn 0.274100 -0.726900 0.629700
vn -0.008000 -0.632800 0.774300
vn -0.103200 -0.569000 0.815800
vn -0.085300 -0.586100 0.805700
vn -0.020700 -0.611300 0.791100
vn 0.088600 -0.688600 0.719700
vn 0.265600 -0.740600 0.617200
vn 0.463600 -0.750100 0.471500
vn 0.628800 -0.663200 0.405900
vn 0.649200 -0.650300 0.394400
vn 0.555200 -0.693700 0.458800
vn 0.450900 -0.727700 0.516900
vn 0.579400 -0.676200 0.455000
vn 0.467400 -0.558000 0.685700
vn 0.552900 -0.565300 0.612000
vn 0.543000 -0.607700 0.579500
vn 0.450800 -0.619000 0.643100
vn 0.332300 -0.617700 0.712700
vn 0.362600 -0.548600 0.753300
vn 0.376600 -0.512800 0.771500
vn 0.486300 -0.532300 0.692900
vn 0.572400 -0.562400 0.596700
vn 0.250500 -0.534600 0.807100
vn 0.213000 -0.593300 0.776200
vn 0.114100 -0.561400 0.819600
vn 0.143600 -0.521100 0.841300
vn 0.121200 -0.513500 0.849500
vn 0.251200 -0.506900 0.824600
vn 0.152100 -0.651600 0.743200
vn 0.296100 -0.688700 0.661700
vn 0.052000 -0.600400 0.798000
vn 0.444300 -0.683100 0.579500
vn 0.549900 -0.654300 0.519100
vn 0.511600 -0.534700 0.672500
vn 0.599900 -0.587400 0.543100
vn 0.379100 -0.506100 0.774700
vn 0.361500 -0.551300 0.751900
vn 0.543800 -0.592400 0.594400
vn 0.612800 -0.606000 0.507200
vn 0.220700 -0.503200 0.835500
vn 0.057700 -0.528900 0.846700
vn 0.017800 -0.541800 0.840300
vn 0.128800 -0.547600 0.826700
vn 0.591900 -0.296500 -0.749500
vn 0.267600 -0.549000 -0.791800
vn 0.697900 -0.199500 -0.687800
vn 0.612800 -0.606000 0.507200
vn -0.530000 -0.789400 -0.309700
vn -0.895100 -0.423100 -0.140700
vn -0.272000 -0.910600 -0.311000
vn 0.017800 -0.541800 0.840300
vn -0.723100 0.536300 0.435300
vn -0.465200 0.683000 0.563000
vn -0.849200 0.384000 0.362300
vn -0.103200 -0.569000 0.815800
vn 0.782100 0.558100 0.277300
vn 0.824100 0.543800 -0.158600
vn 0.448900 0.564500 0.692600
vn 0.649200 -0.650300 0.394400
vn 0.823600 0.369600 -0.430200
vn 0.801200 0.205600 -0.561900
vn -0.120000 -0.833600 -0.539200
vn -0.983100 -0.125900 0.132600
vn -0.969100 -0.019700 0.245700
vn -0.072700 0.650500 0.756000
vn -0.910500 0.254200 0.326200
vn -0.933300 0.170800 0.315700
vn 0.780600 0.071400 -0.620900
vn 0.769800 -0.013400 -0.638100
vn 0.753500 -0.097300 -0.650200
vn -0.948900 0.086700 0.303400
vt 0.839504 0.118056
vt 0.856743 0.205307
vt 0.741230 0.205307
vt 0.734555 0.106726
vt 0.724541 0.032791
vt 0.813647 0.052618
vt 0.868992 0.081539
vt 0.913398 0.129584
vt 0.940923 0.205307
vt 0.839504 0.292557
vt 0.813647 0.357995
vt 0.724541 0.377822
vt 0.734555 0.303887
vt 0.913398 0.281029
vt 0.868992 0.329074
vt 0.369475 0.299954
vt 0.368286 0.370940
vt 0.245840 0.351447
vt 0.246397 0.288815
vt 0.246768 0.205307
vt 0.370268 0.205307
vt 0.494283 0.205307
vt 0.492822 0.304944
vt 0.490632 0.379672
vt 0.369475 0.110659
vt 0.246397 0.121798
vt 0.245841 0.059166
vt 0.368286 0.039673
vt 0.490632 0.030941
vt 0.492822 0.105669
vt 0.616755 0.103478
vt 0.619174 0.205307
vt 0.613127 0.027106
vt 0.616755 0.307135
vt 0.613126 0.383507
vt 0.123273 0.268175
vt 0.123047 0.315326
vt 0.054743 0.283353
vt 0.030912 0.249131
vt 0.030973 0.205306
vt 0.123423 0.205306
vt 0.123273 0.142438
vt 0.030912 0.161481
vt 0.054744 0.127260
vt 0.123047 0.095287
vt 0.839504 0.118056
vt 0.856743 0.205307
vt 0.968983 0.205307
vt 0.938030 0.133427
vt 0.876123 0.061548
vt 0.805028 0.030806
vt 0.721203 0.008146
vt 0.734555 0.106726
vt 0.741230 0.205307
vt 0.839504 0.292557
vt 0.805028 0.379807
vt 0.876123 0.349065
vt 0.938030 0.277186
vt 0.734555 0.303887
vt 0.721203 0.402467
vt 0.369475 0.299954
vt 0.367890 0.394602
vt 0.489902 0.404581
vt 0.492822 0.304944
vt 0.494283 0.205307
vt 0.370268 0.205307
vt 0.246768 0.205307
vt 0.246397 0.288815
vt 0.245655 0.372324
vt 0.369475 0.110659
vt 0.492822 0.105669
vt 0.489902 0.006032
vt 0.367890 0.016011
vt 0.245655 0.038289
vt 0.246397 0.121798
vt 0.616755 0.103478
vt 0.619174 0.205307
vt 0.611917 0.001649
vt 0.616755 0.307135
vt 0.611917 0.408964
vt 0.123273 0.268175
vt 0.122972 0.331043
vt 0.123423 0.205306
vt 0.000156 0.205306
vt 0.000125 0.242784
vt 0.000064 0.280261
vt 0.123273 0.142438
vt 0.122972 0.079570
vt 0.000064 0.130352
vt 0.000125 0.167829
vt 0.122972 0.331043
vt 0.030806 0.283587
vt 0.245655 0.372324
vt 0.030806 0.283587
vt 0.000125 0.167829
vt 0.030806 0.127026
vt 0.000156 0.205306
vt 0.030806 0.127026
vt 0.805028 0.030806
vt 0.873826 0.071832
vt 0.721203 0.008146
vt 0.873826 0.071832
vt 0.938030 0.277186
vt 0.873826 0.338781
vt 0.968983 0.205307
vt 0.873826 0.338781
vt 0.805028 0.379807
vt 0.721203 0.402467
vt 0.000125 0.242784
vt 0.122972 0.079570
vt 0.245655 0.038289
vt 0.938030 0.133427
vt 0.611917 0.001649
vt 0.489902 0.006032
vt 0.611917 0.408964
vt 0.489902 0.404581
vt 0.367890 0.394602
vt 0.367890 0.016011
f 1/1/1 2/2/2 3/3/3
f 1/1/1 3/3/3 4/4/4
f 1/1/1 4/4/4 5/5/5
f 1/1/1 5/5/5 6/6/6
f 1/1/1 6/6/6 7/7/7
f 1/1/1 7/7/7 8/8/8
f 1/1/1 8/8/8 9/9/9
f 1/1/1 9/9/9 2/2/2
f 10/10/10 11/11/11 12/12/12
f 10/10/10 12/12/12 13/13/13
f 10/10/10 13/13/13 3/3/3
f 10/10/10 3/3/3 2/2/2
f 10/10/10 2/2/2 9/9/9
f 10/10/10 9/9/9 14/14/14
f 10/10/10 14/14/14 15/15/15
f 10/10/10 15/15/15 11/11/11
f 16/16/16 17/17/17 18/18/18
f 16/16/16 18/18/18 19/19/19
f 16/16/16 19/19/19 20/20/20
f 16/16/16 20/20/20 21/21/21
f 16/16/16 21/21/21 22/22/22
f 16/16/16 22/22/22 23/23/23
f 16/16/16 23/23/23 24/24/24
f 16/16/16 24/24/24 17/17/17
f 25/25/25 21/21/21 20/20/20
f 25/25/25 20/20/20 26/26/26
f 25/25/25 26/26/26 27/27/27
f 25/25/25 27/27/27 28/28/28
f 25/25/25 28/28/28 29/29/29
f 25/25/25 29/29/29 30/30/30
f 25/25/25 30/30/30 22/22/22
f 25/25/25 22/22/22 21/21/21
f 31/31/31 32/32/32 22/22/22
f 31/31/31 22/22/22 30/30/30
f 31/31/31 30/30/30 29/29/29
f 31/31/31 29/29/29 33/33/33
f 31/31/31 33/33/33 5/5/5
f 31/31/31 5/5/5 4/4/4
f 31/31/31 4/4/4 3/3/3
f 31/31/31 3/3/3 32/32/32
f 34/34/34 35/35/35 24/24/24
f 34/34/34 24/24/24 23/23/23
f 34/34/34 23/23/23 22/22/22
f 34/34/34 22/22/22 32/32/32
f 34/34/34 32/32/32 3/3/3
f 34/34/34 3/3/3 13/13/13
f 34/34/34 13/13/13 12/12/12
f 34/34/34 12/12/12 35/35/35
f 36/36/36 37/37/37 38/38/38
f 36/36/36 38/38/38 39/39/39
f 36/36/36 39/39/39 40/40/40
f 36/36/36 40/40/40 41/41/41
f 36/36/36 41/41/41 20/20/20
f 36/36/36 20/20/20 19/19/19
f 36/36/36 19/19/19 18/18/18
f 36/36/36 18/18/18 37/37/37
f 42/42/42 41/41/41 40/40/40
f 42/42/42 40/40/40 43/43/43
f 42/42/42 43/43/43 44/44/44
f 42/42/42 44/44/44 45/45/45
f 42/42/42 45/45/45 27/27/27
f 42/42/42 27/27/27 26/26/26
f 42/42/42 26/26/26 20/20/20
f 42/42/42 20/20/20 41/41/41
f 46/46/46 47/47/47 48/48/48
f 46/46/46 48/48/48 49/49/49
f 46/46/46 49/49/49 50/50/50
f 46/46/46 50/50/50 51/51/51
f 46/46/46 51/51/51 52/52/52
f 46/46/46 52/52/52 53/53/53
f 46/46/46 53/53/53 54/54/54
f 46/46/46 54/54/54 47/47/47
f 55/55/55 56/56/56 57/57/57
f 55/55/55 57/57/57 58/58/58
f 55/55/55 58/58/58 48/48/48
f 55/55/55 48/48/48 47/47/47
f 55/55/55 47/47/47 54/54/54
f 55/55/55 54/54/54 59/59/59
f 55/55/55 59/59/59 60/60/60
f 55/55/55 60/60/60 56/56/56
f 61/61/61 62/62/62 63/63/63
f 61/61/61 63/63/63 64/64/64
f 61/61/61 64/64/64 65/65/65
f 61/61/61 65/65/65 66/66/66
f 61/61/61 66/66/66 67/67/67
f 61/61/61 67/67/67 68/68/68
f 61/61/61 68/68/68 69/69/69
f 61/61/61 69/69/69 62/62/62
f 70/70/70 66/66/66 65/65/65
f 70/70/70 65/65/65 71/71/71
f 70/70/70 71/71/71 72/72/72
f 70/70/70 72/72/72 73/73/73
f 70/70/70 73/73/73 74/74/74
f 70/70/70 74/74/74 75/75/75
f 70/70/70 75/75/75 67/67/67
f 70/70/70 67/67/67 66/66/66
f 76/76/76 77/77/77 54/54/54
f 76/76/76 54/54/54 53/53/53
f 76/76/76 53/53/53 52/52/52
f 76/76/76 52/52/52 78/78/78
f 76/76/76 78/78/78 72/72/72
f 76/76/76 72/72/72 71/71/71
f 76/76/76 71/71/71 65/65/65
f 76/76/76 65/65/65 77/77/77
f 79/79/79 80/80/80 60/60/60
f 79/79/79 60/60/60 59/59/59
f 79/79/79 59/59/59 54/54/54
f 79/79/79 54/54/54 77/77/77
f 79/79/79 77/77/77 65/65/65
f 79/79/79 65/65/65 64/64/64
f 79/79/79 64/64/64 63/63/63
f 79/79/79 63/63/63 80/80/80
f 81/81/81 82/82/82 69/69/69
f 81/81/81 69/69/69 68/68/68
f 81/81/81 68/68/68 67/67/67
f 81/81/81 67/67/67 83/83/83
f 81/81/81 83/83/83 84/84/84
f 81/81/81 84/84/84 85/85/85
f 81/81/81 85/85/85 86/86/86
f 81/81/81 86/86/86 82/82/82
f 87/87/87 83/83/83 67/67/67
f 87/87/87 67/67/67 75/75/75
f 87/87/87 75/75/75 74/74/74
f 87/87/87 74/74/74 88/88/88
f 87/87/87 88/88/88 89/89/89
f 87/87/87 89/89/89 90/90/90
f 87/87/87 90/90/90 84/84/84
f 87/87/87 84/84/84 83/83/83
f 91/91/91 92/92/92 38/38/38
f 91/91/91 38/38/38 37/37/37
f 91/91/91 37/37/37 18/18/18
f 91/91/91 18/18/18 93/93/93
f 91/91/91 93/93/93 69/69/69
f 91/91/91 69/69/69 82/82/82
f 91/91/91 82/82/82 94/94/94
f 91/91/91 94/94/94 92/92/92
f 95/95/95 96/96/96 44/44/44
f 95/95/95 44/44/44 43/43/43
f 95/95/95 43/43/43 40/40/40
f 95/95/95 40/40/40 97/97/97
f 95/95/95 97/97/97 84/84/84
f 95/95/95 84/84/84 90/90/90
f 95/95/95 90/90/90 98/98/98
f 95/95/95 98/98/98 96/96/96
f 99/99/99 100/100/100 7/7/7
f 99/99/99 7/7/7 6/6/6
f 99/99/99 6/6/6 5/5/5
f 99/99/99 5/5/5 101/101/101
f 99/99/99 101/101/101 52/52/52
f 99/99/99 52/52/52 51/51/51
f 99/99/99 51/51/51 102/102/102
f 99/99/99 102/102/102 100/100/100
f 103/103/103 104/104/104 15/15/15
f 103/103/103 15/15/15 14/14/14
f 103/103/103 14/14/14 9/9/9
f 103/103/103 9/9/9 105/105/105
f 103/103/103 105/105/105 48/48/48
f 103/103/103 48/48/48 58/58/58
f 103/103/103 58/58/58 106/106/106
f 103/103/103 106/106/106 104/104/104
f 107/107/107 108/108/108 12/12/12
f 107/107/107 12/12/12 11/11/11
f 107/107/107 11/11/11 15/15/15
f 107/107/107 15/15/15 104/104/104
f 107/107/107 104/104/104 106/106/106
f 107/107/107 106/106/106 56/56/56
f 107/107/107 56/56/56 60/60/60
f 107/107/107 60/60/60 108/108/108
f 109/109/109 97/97/97 40/40/40
f 109/109/109 40/40/40 39/39/39
f 109/109/109 39/39/39 38/38/38
f 109/109/109 38/38/38 92/92/92
f 109/109/109 92/92/92 94/94/94
f 109/109/109 94/94/94 85/85/85
f 109/109/109 85/85/85 84/84/84
f 109/109/109 84/84/84 97/97/97
f 110/110/110 111/111/111 27/27/27
f 110/110/110 27/27/27 45/45/45
f 110/110/110 45/45/45 44/44/44
f 110/110/110 44/44/44 96/96/96
f 110/110/110 96/96/96 98/98/98
f 110/110/110 98/98/98 88/88/88
f 110/110/110 88/88/88 74/74/74
f 110/110/110 74/74/74 111/111/111
f 112/112/112 105/105/105 9/9/9
f 112/112/112 9/9/9 8/8/8
f 112/112/112 8/8/8 7/7/7
f 112/112/112 7/7/7 100/100/100
f 112/112/112 100/100/100 102/102/102
f 112/112/112 102/102/102 49/49/49
f 112/112/112 49/49/49 48/48/48
f 112/112/112 48/48/48 105/105/105
f 113/113/113 101/101/101 5/5/5
f 113/113/113 5/5/5 33/33/33
f 113/113/113 33/33/33 29/29/29
f 113/113/113 29/29/29 114/114/114
f 113/113/113 114/114/114 72/72/72
f 113/113/113 72/72/72 78/78/78
f 113/113/113 78/78/78 52/52/52
f 113/113/113 52/52/52 101/101/101
f 115/115/115 116/116/116 24/24/24
f 115/115/115 24/24/24 35/35/35
f 115/115/115 35/35/35 12/12/12
f 115/115/115 12/12/12 108/108/108
f 115/115/115 108/108/108 60/60/60
f 115/115/115 60/60/60 80/80/80
f 115/115/115 80/80/80 63/63/63
f 115/115/115 63/63/63 116/116/116
f 117/117/117 93/93/93 18/18/18
f 117/117/117 18/18/18 17/17/17
f 117/117/117 17/17/17 24/24/24
f 117/117/117 24/24/24 116/116/116
f 117/117/117 116/116/116 63/63/63
f 117/117/117 63/63/63 62/62/62
f 117/117/117 62/62/62 69/69/69
f 117/117/117 69/69/69 93/93/93
f 118/118/118 114/114/114 29/29/29
f 118/118/118 29/29/29 28/28/28
f 118/118/118 28/28/28 27/27/27
f 118/118/118 27/27/27 111/111/111
f 118/118/118 111/111/111 74/74/74
f 118/118/118 74/74/74 73/73/73
f 118/118/118 73/73/73 72/72/72
f 118/118/118 72/72/72 114/114/114
