v -2.411627 0.679901 -1.097323
v -2.413883 0.679754 -1.096869
v -2.412801 0.677240 -1.095481
v -2.410374 0.677648 -1.096201
v -2.408436 0.677961 -1.096505
v -2.409739 0.679854 -1.097325
v -2.410990 0.680838 -1.097858
v -2.412624 0.681416 -1.098179
v -2.414705 0.681537 -1.097970
v -2.415612 0.679225 -1.095440
v -2.416729 0.678669 -1.094022
v -2.416376 0.676615 -1.092753
v -2.414904 0.676881 -1.094061
v -2.416073 0.680831 -1.096548
v -2.416651 0.679879 -1.095183
v -2.411990 0.668206 -1.091127
v -2.413563 0.667979 -1.090115
v -2.412327 0.664928 -1.089784
v -2.410941 0.665127 -1.090692
v -2.409047 0.665420 -1.091777
v -2.409842 0.668539 -1.092341
v -2.410717 0.671578 -1.093103
v -2.412956 0.671239 -1.091813
v -2.414590 0.671015 -1.090724
v -2.407552 0.668959 -1.093224
v -2.407016 0.665792 -1.092546
v -2.405449 0.666094 -1.093034
v -2.405787 0.669297 -1.093790
v -2.406455 0.672394 -1.094568
v -2.408314 0.672026 -1.094007
v -2.409262 0.674973 -1.095047
v -2.411724 0.674496 -1.094188
v -2.407340 0.675378 -1.095530
v -2.413973 0.674175 -1.092821
v -2.415595 0.673978 -1.091629
v -2.409678 0.662054 -1.090439
v -2.410692 0.661916 -1.089712
v -2.409547 0.660261 -1.089902
v -2.408664 0.659744 -1.090344
v -2.407727 0.659876 -1.090972
v -2.408280 0.662265 -1.091286
v -2.406749 0.662551 -1.091823
v -2.406657 0.660084 -1.091292
v -2.405935 0.660873 -1.091608
v -2.405556 0.662787 -1.092139
v -2.411667 0.679781 -1.097529
v -2.413953 0.679628 -1.097062
v -2.414756 0.681440 -1.098113
v -2.412650 0.681324 -1.098332
v -2.411004 0.680773 -1.097974
v -2.409754 0.679768 -1.097484
v -2.408457 0.677880 -1.096667
v -2.410421 0.677536 -1.096409
v -2.412874 0.677122 -1.095678
v -2.415712 0.679096 -1.095617
v -2.416818 0.678571 -1.094146
v -2.416712 0.679805 -1.095277
v -2.416148 0.680731 -1.096679
v -2.415003 0.676760 -1.094244
v -2.416464 0.676523 -1.092883
v -2.412096 0.668127 -1.091329
v -2.413652 0.667918 -1.090262
v -2.414677 0.670944 -1.090867
v -2.413060 0.671147 -1.092011
v -2.410800 0.671489 -1.093312
v -2.409929 0.668462 -1.092554
v -2.409137 0.665353 -1.091992
v -2.411050 0.665056 -1.090896
v -2.412418 0.664873 -1.089932
v -2.407619 0.668885 -1.093445
v -2.408377 0.671941 -1.094224
v -2.406492 0.672332 -1.094735
v -2.405828 0.669244 -1.093959
v -2.405492 0.666047 -1.093205
v -2.407087 0.665728 -1.092769
v -2.409317 0.674874 -1.095260
v -2.411803 0.674392 -1.094391
v -2.407369 0.675306 -1.095694
v -2.414074 0.674067 -1.093012
v -2.415682 0.673897 -1.091766
v -2.409789 0.661987 -1.090644
v -2.410785 0.661864 -1.089860
v -2.408370 0.662200 -1.091501
v -2.407795 0.659828 -1.091134
v -2.408748 0.659693 -1.090497
v -2.409613 0.660223 -1.090013
v -2.406818 0.662490 -1.092048
v -2.405598 0.662744 -1.092311
v -2.405969 0.660841 -1.091735
v -2.406708 0.660039 -1.091461
v -2.411074 0.661847 -1.089534
v -2.409403 0.659640 -1.089811
v -2.412831 0.664837 -1.089545
v -2.409613 0.660223 -1.090013
v -2.406648 0.659242 -1.091190
v -2.405785 0.660254 -1.091521
v -2.407573 0.659059 -1.090940
v -2.405969 0.660841 -1.091735
v -2.409113 0.679801 -1.097398
v -2.410792 0.681012 -1.097991
v -2.407796 0.678030 -1.096680
v -2.411004 0.680773 -1.097974
v -2.416260 0.681321 -1.096975
v -2.416916 0.679974 -1.095097
v -2.415001 0.682088 -1.098400
v -2.416712 0.679805 -1.095277
v -2.417144 0.678440 -1.093603
v -2.416909 0.676485 -1.092374
v -2.408363 0.658951 -1.090380
v -2.405175 0.662847 -1.092322
v -2.404943 0.666174 -1.093273
v -2.412967 0.681879 -1.098531
v -2.406709 0.675481 -1.095765
v -2.405850 0.672489 -1.094831
v -2.416177 0.673876 -1.091291
v -2.415175 0.670908 -1.090423
v -2.414129 0.667876 -1.089842
v -2.405215 0.669387 -1.094055
vn 0.078500 0.504700 0.859700
vn 0.271000 0.567900 0.777200
vn 0.291900 0.518500 0.803700
vn 0.120900 0.460500 0.879400
vn 0.138100 0.441200 0.886700
vn 0.086100 0.506500 0.857900
vn 0.049700 0.550600 0.833200
vn 0.082300 0.588800 0.804100
vn 0.236400 0.641000 0.730200
vn 0.465400 0.570200 0.676900
vn 0.459100 0.569700 0.681700
vn 0.467400 0.497100 0.731000
vn 0.466900 0.519200 0.715800
vn 0.398400 0.642400 0.654700
vn 0.450300 0.618500 0.644000
vn 0.463100 0.305100 0.832100
vn 0.433500 0.292600 0.852400
vn 0.438900 0.261400 0.859700
vn 0.478200 0.274500 0.834200
vn 0.378900 0.249000 0.891300
vn 0.368400 0.289600 0.883400
vn 0.345100 0.369300 0.862800
vn 0.453800 0.377800 0.807000
vn 0.435400 0.358700 0.825600
vn 0.268800 0.272200 0.923900
vn 0.269800 0.239200 0.932700
vn 0.316000 0.240600 0.917700
vn 0.305200 0.270800 0.912900
vn 0.266000 0.329900 0.905700
vn 0.235800 0.340900 0.910000
vn 0.180400 0.411600 0.893300
vn 0.316500 0.454200 0.832700
vn 0.204300 0.391600 0.897200
vn 0.455200 0.458100 0.763500
vn 0.449200 0.433100 0.781400
vn 0.503200 0.263900 0.822900
vn 0.462800 0.245900 0.851600
vn 0.493800 0.233600 0.837600
vn 0.534200 0.211700 0.818400
vn 0.396300 0.175000 0.901300
vn 0.383700 0.229800 0.894400
vn 0.249100 0.220900 0.942900
vn 0.241400 0.162100 0.956800
vn 0.274100 0.196300 0.941400
vn 0.299900 0.218200 0.928600
vn -0.060500 -0.477500 -0.876500
vn -0.276800 -0.554600 -0.784700
vn -0.298700 -0.501300 -0.812000
vn -0.004400 -0.395000 -0.918700
vn 0.097000 -0.330400 -0.938800
vn 0.077400 -0.347900 -0.934300
vn 0.010500 -0.370800 -0.928600
vn -0.107200 -0.455300 -0.883800
vn -0.291800 -0.518600 -0.803600
vn -0.496200 -0.551400 -0.670600
vn -0.657200 -0.472500 -0.587100
vn -0.677100 -0.461600 -0.573000
vn -0.583800 -0.493100 -0.644900
vn -0.479900 -0.518500 -0.707700
vn -0.606900 -0.475500 -0.636800
vn -0.476500 -0.308200 -0.823400
vn -0.565500 -0.328400 -0.756500
vn -0.560100 -0.378800 -0.736700
vn -0.466400 -0.379700 -0.798900
vn -0.345100 -0.369200 -0.862800
vn -0.368400 -0.289400 -0.883400
vn -0.379000 -0.248900 -0.891300
vn -0.493100 -0.280000 -0.823600
vn -0.585400 -0.328200 -0.741300
vn -0.253400 -0.270400 -0.928800
vn -0.221700 -0.338300 -0.914500
vn -0.119000 -0.304000 -0.945200
vn -0.144300 -0.257000 -0.955600
vn -0.121000 -0.249500 -0.960800
vn -0.251300 -0.239100 -0.937900
vn -0.166800 -0.408200 -0.897500
vn -0.316500 -0.454200 -0.832700
vn -0.060900 -0.352500 -0.933800
vn -0.467400 -0.459100 -0.755500
vn -0.573200 -0.439300 -0.691700
vn -0.519500 -0.285800 -0.805200
vn -0.617000 -0.364600 -0.697400
vn -0.380800 -0.241500 -0.892500
vn -0.367600 -0.292500 -0.882800
vn -0.559200 -0.360000 -0.746800
vn -0.632700 -0.391200 -0.668400
vn -0.220100 -0.235100 -0.946700
vn -0.059300 -0.270000 -0.961000
vn -0.020800 -0.287400 -0.957600
vn -0.132300 -0.287600 -0.948500
vn -0.644200 -0.440500 0.625200
vn -0.341900 -0.720600 0.603200
vn -0.740000 -0.322200 0.590300
vn -0.632700 -0.391200 -0.668400
vn 0.457000 -0.884800 0.090700
vn 0.854500 -0.518100 0.037500
vn 0.191000 -0.980100 0.052800
vn -0.020800 -0.287400 -0.957600
vn 0.778800 0.573500 -0.253900
vn 0.538400 0.770200 -0.341700
vn 0.890300 0.396900 -0.223200
vn 0.097000 -0.330400 -0.938800
vn -0.725900 0.675500 -0.129500
vn -0.788100 0.545600 0.284800
vn -0.375500 0.767800 -0.519100
vn -0.677100 -0.461600 -0.573000
vn -0.812300 0.303400 0.498100
vn -0.807700 0.108600 0.579400
vn 0.035000 -0.956300 0.290200
vn 0.976000 -0.165800 -0.140700
vn 0.974900 -0.031500 -0.220100
vn 0.153200 0.824400 -0.544800
vn 0.940200 0.257400 -0.223000
vn 0.956400 0.172600 -0.235600
vn -0.799600 -0.037300 0.599300
vn -0.796000 -0.124100 0.592500
vn -0.786500 -0.209200 0.581100
vn 0.965100 0.087600 -0.246600
vt 0.839504 0.118056
vt 0.856743 0.205307
vt 0.741230 0.205307
vt 0.734555 0.106726
vt 0.724541 0.032791
vt 0.813647 0.052618
vt 0.868992 0.081539
vt 0.913398 0.129584
vt 0.940923 0.205307
vt 0.839504 0.292557
vt 0.813647 0.357995
vt 0.724541 0.377822
vt 0.734555 0.303887
vt 0.913398 0.281029
vt 0.868992 0.329074
vt 0.369475 0.299954
vt 0.368286 0.370940
vt 0.245840 0.351447
vt 0.246397 0.288815
vt 0.246768 0.205307
vt 0.370268 0.205307
vt 0.494283 0.205307
vt 0.492822 0.304944
vt 0.490632 0.379672
vt 0.369475 0.110659
vt 0.246397 0.121798
vt 0.245841 0.059166
vt 0.368286 0.039673
vt 0.490632 0.030941
vt 0.492822 0.105669
vt 0.616755 0.103478
vt 0.619174 0.205307
vt 0.613127 0.027106
vt 0.616755 0.307135
vt 0.613126 0.383507
vt 0.123273 0.268175
vt 0.123047 0.315326
vt 0.054743 0.283353
vt 0.030912 0.249131
vt 0.030973 0.205306
vt 0.123423 0.205306
vt 0.123273 0.142438
vt 0.030912 0.161481
vt 0.054744 0.127260
vt 0.123047 0.095287
vt 0.839504 0.118056
vt 0.856743 0.205307
vt 0.968983 0.205307
vt 0.938030 0.133427
vt 0.876123 0.061548
vt 0.805028 0.030806
vt 0.721203 0.008146
vt 0.734555 0.106726
vt 0.741230 0.205307
vt 0.839504 0.292557
vt 0.805028 0.379807
vt 0.876123 0.349065
vt 0.938030 0.277186
vt 0.734555 0.303887
vt 0.721203 0.402467
vt 0.369475 0.299954
vt 0.367890 0.394602
vt 0.489902 0.404581
vt 0.492822 0.304944
vt 0.494283 0.205307
vt 0.370268 0.205307
vt 0.246768 0.205307
vt 0.246397 0.288815
vt 0.245655 0.372324
vt 0.369475 0.110659
vt 0.492822 0.105669
vt 0.489902 0.006032
vt 0.367890 0.016011
vt 0.245655 0.038289
vt 0.246397 0.121798
vt 0.616755 0.103478
vt 0.619174 0.205307
vt 0.611917 0.001649
vt 0.616755 0.307135
vt 0.611917 0.408964
vt 0.123273 0.268175
vt 0.122972 0.331043
vt 0.123423 0.205306
vt 0.000156 0.205306
vt 0.000125 0.242784
vt 0.000064 0.280261
vt 0.123273 0.142438
vt 0.122972 0.079570
vt 0.000064 0.130352
vt 0.000125 0.167829
vt 0.122972 0.331043
vt 0.030806 0.283587
vt 0.245655 0.372324
vt 0.030806 0.283587
vt 0.000125 0.167829
vt 0.030806 0.127026
vt 0.000156 0.205306
vt 0.030806 0.127026
vt 0.805028 0.030806
vt 0.873826 0.071832
vt 0.721203 0.008146
vt 0.873826 0.071832
vt 0.938030 0.277186
vt 0.873826 0.338781
vt 0.968983 0.205307
vt 0.873826 0.338781
vt 0.805028 0.379807
vt 0.721203 0.402467
vt 0.000125 0.242784
vt 0.122972 0.079570
vt 0.245655 0.038289
vt 0.938030 0.133427
vt 0.611917 0.001649
vt 0.489902 0.006032
vt 0.611917 0.408964
vt 0.489902 0.404581
vt 0.367890 0.394602
vt 0.367890 0.016011
f 1/1/1 2/2/2 3/3/3
f 1/1/1 3/3/3 4/4/4
f 1/1/1 4/4/4 5/5/5
f 1/1/1 5/5/5 6/6/6
f 1/1/1 6/6/6 7/7/7
f 1/1/1 7/7/7 8/8/8
f 1/1/1 8/8/8 9/9/9
f 1/1/1 9/9/9 2/2/2
f 10/10/10 11/11/11 12/12/12
f 10/10/10 12/12/12 13/13/13
f 10/10/10 13/13/13 3/3/3
f 10/10/10 3/3/3 2/2/2
f 10/10/10 2/2/2 9/9/9
f 10/10/10 9/9/9 14/14/14
f 10/10/10 14/14/14 15/15/15
f 10/10/10 15/15/15 11/11/11
f 16/16/16 17/17/17 18/18/18
f 16/16/16 18/18/18 19/19/19
f 16/16/16 19/19/19 20/20/20
f 16/16/16 20/20/20 21/21/21
f 16/16/16 21/21/21 22/22/22
f 16/16/16 22/22/22 23/23/23
f 16/16/16 23/23/23 24/24/24
f 16/16/16 24/24/24 17/17/17
f 25/25/25 21/21/21 20/20/20
f 25/25/25 20/20/20 26/26/26
f 25/25/25 26/26/26 27/27/27
f 25/25/25 27/27/27 28/28/28
f 25/25/25 28/28/28 29/29/29
f 25/25/25 29/29/29 30/30/30
f 25/25/25 30/30/30 22/22/22
f 25/25/25 22/22/22 21/21/21
f 31/31/31 32/32/32 22/22/22
f 31/31/31 22/22/22 30/30/30
f 31/31/31 30/30/30 29/29/29
f 31/31/31 29/29/29 33/33/33
f 31/31/31 33/33/33 5/5/5
f 31/31/31 5/5/5 4/4/4
f 31/31/31 4/4/4 3/3/3
f 31/31/31 3/3/3 32/32/32
f 34/34/34 35/35/35 24/24/24
f 34/34/34 24/24/24 23/23/23
f 34/34/34 23/23/23 22/22/22
f 34/34/34 22/22/22 32/32/32
f 34/34/34 32/32/32 3/3/3
f 34/34/34 3/3/3 13/13/13
f 34/34/34 13/13/13 12/12/12
f 34/34/34 12/12/12 35/35/35
f 36/36/36 37/37/37 38/38/38
f 36/36/36 38/38/38 39/39/39
f 36/36/36 39/39/39 40/40/40
f 36/36/36 40/40/40 41/41/41
f 36/36/36 41/41/41 20/20/20
f 36/36/36 20/20/20 19/19/19
f 36/36/36 19/19/19 18/18/18
f 36/36/36 18/18/18 37/37/37
f 42/42/42 41/41/41 40/40/40
f 42/42/42 40/40/40 43/43/43
f 42/42/42 43/43/43 44/44/44
f 42/42/42 44/44/44 45/45/45
f 42/42/42 45/45/45 27/27/27
f 42/42/42 27/27/27 26/26/26
f 42/42/42 26/26/26 20/20/20
f 42/42/42 20/20/20 41/41/41
f 46/46/46 47/47/47 48/48/48
f 46/46/46 48/48/48 49/49/49
f 46/46/46 49/49/49 50/50/50
f 46/46/46 50/50/50 51/51/51
f 46/46/46 51/51/51 52/52/52
f 46/46/46 52/52/52 53/53/53
f 46/46/46 53/53/53 54/54/54
f 46/46/46 54/54/54 47/47/47
f 55/55/55 56/56/56 57/57/57
f 55/55/55 57/57/57 58/58/58
f 55/55/55 58/58/58 48/48/48
f 55/55/55 48/48/48 47/47/47
f 55/55/55 47/47/47 54/54/54
f 55/55/55 54/54/54 59/59/59
f 55/55/55 59/59/59 60/60/60
f 55/55/55 60/60/60 56/56/56
f 61/61/61 62/62/62 63/63/63
f 61/61/61 63/63/63 64/64/64
f 61/61/61 64/64/64 65/65/65
f 61/61/61 65/65/65 66/66/66
f 61/61/61 66/66/66 67/67/67
f 61/61/61 67/67/67 68/68/68
f 61/61/61 68/68/68 69/69/69
f 61/61/61 69/69/69 62/62/62
f 70/70/70 66/66/66 65/65/65
f 70/70/70 65/65/65 71/71/71
f 70/70/70 71/71/71 72/72/72
f 70/70/70 72/72/72 73/73/73
f 70/70/70 73/73/73 74/74/74
f 70/70/70 74/74/74 75/75/75
f 70/70/70 75/75/75 67/67/67
f 70/70/70 67/67/67 66/66/66
f 76/76/76 77/77/77 54/54/54
f 76/76/76 54/54/54 53/53/53
f 76/76/76 53/53/53 52/52/52
f 76/76/76 52/52/52 78/78/78
f 76/76/76 78/78/78 72/72/72
f 76/76/76 72/72/72 71/71/71
f 76/76/76 71/71/71 65/65/65
f 76/76/76 65/65/65 77/77/77
f 79/79/79 80/80/80 60/60/60
f 79/79/79 60/60/60 59/59/59
f 79/79/79 59/59/59 54/54/54
f 79/79/79 54/54/54 77/77/77
f 79/79/79 77/77/77 65/65/65
f 79/79/79 65/65/65 64/64/64
f 79/79/79 64/64/64 63/63/63
f 79/79/79 63/63/63 80/80/80
f 81/81/81 82/82/82 69/69/69
f 81/81/81 69/69/69 68/68/68
f 81/81/81 68/68/68 67/67/67
f 81/81/81 67/67/67 83/83/83
f 81/81/81 83/83/83 84/84/84
f 81/81/81 84/84/84 85/85/85
f 81/81/81 85/85/85 86/86/86
f 81/81/81 86/86/86 82/82/82
f 87/87/87 83/83/83 67/67/67
f 87/87/87 67/67/67 75/75/75
f 87/87/87 75/75/75 74/74/74
f 87/87/87 74/74/74 88/88/88
f 87/87/87 88/88/88 89/89/89
f 87/87/87 89/89/89 90/90/90
f 87/87/87 90/90/90 84/84/84
f 87/87/87 84/84/84 83/83/83
f 91/91/91 92/92/92 38/38/38
f 91/91/91 38/38/38 37/37/37
f 91/91/91 37/37/37 18/18/18
f 91/91/91 18/18/18 93/93/93
f 91/91/91 93/93/93 69/69/69
f 91/91/91 69/69/69 82/82/82
f 91/91/91 82/82/82 94/94/94
f 91/91/91 94/94/94 92/92/92
f 95/95/95 96/96/96 44/44/44
f 95/95/95 44/44/44 43/43/43
f 95/95/95 43/43/43 40/40/40
f 95/95/95 40/40/40 97/97/97
f 95/95/95 97/97/97 84/84/84
f 95/95/95 84/84/84 90/90/90
f 95/95/95 90/90/90 98/98/98
f 95/95/95 98/98/98 96/96/96
f 99/99/99 100/100/100 7/7/7
f 99/99/99 7/7/7 6/6/6
f 99/99/99 6/6/6 5/5/5
f 99/99/99 5/5/5 101/101/101
f 99/99/99 101/101/101 52/52/52
f 99/99/99 52/52/52 51/51/51
f 99/99/99 51/51/51 102/102/102
f 99/99/99 102/102/102 100/100/100
f 103/103/103 104/104/104 15/15/15
f 103/103/103 15/15/15 14/14/14
f 103/103/103 14/14/14 9/9/9
f 103/103/103 9/9/9 105/105/105
f 103/103/103 105/105/105 48/48/48
f 103/103/103 48/48/48 58/58/58
f 103/103/103 58/58/58 106/106/106
f 103/103/103 106/106/106 104/104/104
f 107/107/107 108/108/108 12/12/12
f 107/107/107 12/12/12 11/11/11
f 107/107/107 11/11/11 15/15/15
f 107/107/107 15/15/15 104/104/104
f 107/107/107 104/104/104 106/106/106
f 107/107/107 106/106/106 56/56/56
f 107/107/107 56/56/56 60/60/60
f 107/107/107 60/60/60 108/108/108
f 109/109/109 97/97/97 40/40/40
f 109/109/109 40/40/40 39/39/39
f 109/109/109 39/39/39 38/38/38
f 109/109/109 38/38/38 92/92/92
f 109/109/109 92/92/92 94/94/94
f 109/109/109 94/94/94 85/85/85
f 109/109/109 85/85/85 84/84/84
f 109/109/109 84/84/84 97/97/97
f 110/110/110 111/111/111 27/27/27
f 110/110/110 27/27/27 45/45/45
f 110/110/110 45/45/45 44/44/44
f 110/110/110 44/44/44 96/96/96
f 110/110/110 96/96/96 98/98/98
f 110/110/110 98/98/98 88/88/88
f 110/110/110 88/88/88 74/74/74
f 110/110/110 74/74/74 111/111/111
f 112/112/112 105/105/105 9/9/9
f 112/112/112 9/9/9 8/8/8
f 112/112/112 8/8/8 7/7/7
f 112/112/112 7/7/7 100/100/100
f 112/112/112 100/100/100 102/102/102
f 112/112/112 102/102/102 49/49/49
f 112/112/112 49/49/49 48/48/48
f 112/112/112 48/48/48 105/105/105
f 113/113/113 101/101/101 5/5/5
f 113/113/113 5/5/5 33/33/33
f 113/113/113 33/33/33 29/29/29
f 113/113/113 29/29/29 114/114/114
f 113/113/113 114/114/114 72/72/72
f 113/113/113 72/72/72 78/78/78
f 113/113/113 78/78/78 52/52/52
f 113/113/113 52/52/52 101/101/101
f 115/115/115 116/116/116 24/24/24
f 115/115/115 24/24/24 35/35/35
f 115/115/115 35/35/35 12/12/12
f 115/115/115 12/12/12 108/108/108
f 115/115/115 108/108/108 60/60/60
f 115/115/115 60/60/60 80/80/80
f 115/115/115 80/80/80 63/63/63
f 115/115/115 63/63/63 116/116/116
f 117/117/117 93/93/93 18/18/18
f 117/117/117 18/18/18 17/17/17
f 117/117/117 17/17/17 24/24/24
f 117/117/117 24/24/24 116/116/116
f 117/117/117 116/116/116 63/63/63
f 117/117/117 63/63/63 62/62/62
f 117/117/117 62/62/62 69/69/69
f 117/117/117 69/69/69 93/93/93
f 118/118/118 114/114/114 29/29/29
f 118/118/118 29/29/29 28/28/28
f 118/118/118 28/28/28 27/27/27
f 118/118/118 27/27/27 111/111/111
f 118/118/118 111/111/111 74/74/74
f 118/118/118 74/74/74 73/73/73
f 118/118/118 73/73/73 72/72/72
f 118/118/118 72/72/72 114/114/114
