v -2.419595 0.806496 -1.163481
v -2.419650 0.806756 -1.162052
v -2.418008 0.805745 -1.162206
v -2.418147 0.805527 -1.163801
v -2.418107 0.805431 -1.165049
v -2.419296 0.806306 -1.164617
v -2.420059 0.806777 -1.164055
v -2.420647 0.807129 -1.163181
v -2.420885 0.807441 -1.161921
v -2.418989 0.807072 -1.160798
v -2.418234 0.807316 -1.159911
v -2.416900 0.806578 -1.159703
v -2.417458 0.806182 -1.160751
v -2.420122 0.807627 -1.160859
v -2.419199 0.807595 -1.160244
v -2.412916 0.802180 -1.160952
v -2.412545 0.802513 -1.159874
v -2.411292 0.800866 -1.160136
v -2.411629 0.800567 -1.161086
v -2.412011 0.800219 -1.162374
v -2.413341 0.801790 -1.162411
v -2.414767 0.803263 -1.162405
v -2.414314 0.803682 -1.160883
v -2.413910 0.804046 -1.159763
v -2.413591 0.801539 -1.163940
v -2.412225 0.800000 -1.163729
v -2.412338 0.799873 -1.164767
v -2.413727 0.801390 -1.165110
v -2.415147 0.802871 -1.165240
v -2.415020 0.803011 -1.164009
v -2.416580 0.804353 -1.163970
v -2.416352 0.804581 -1.162331
v -2.416666 0.804252 -1.165238
v -2.415864 0.805034 -1.160798
v -2.415411 0.805445 -1.159680
v -2.410408 0.798882 -1.161368
v -2.410131 0.799125 -1.160667
v -2.409578 0.798074 -1.161130
v -2.409532 0.797579 -1.161627
v -2.409767 0.797371 -1.162270
v -2.410714 0.798607 -1.162322
v -2.410854 0.798459 -1.163340
v -2.409837 0.797289 -1.162978
v -2.410127 0.797552 -1.163561
v -2.410912 0.798383 -1.164126
v -2.419677 0.806370 -1.163458
v -2.419728 0.806633 -1.162008
v -2.420942 0.807348 -1.161888
v -2.420707 0.807033 -1.163165
v -2.420105 0.806706 -1.164047
v -2.419359 0.806211 -1.164610
v -2.418174 0.805339 -1.165038
v -2.418233 0.805405 -1.163775
v -2.418091 0.805625 -1.162162
v -2.419062 0.806954 -1.160734
v -2.418285 0.807232 -1.159854
v -2.419237 0.807531 -1.160204
v -2.420175 0.807539 -1.160810
v -2.417537 0.806067 -1.160689
v -2.416957 0.806496 -1.159648
v -2.413018 0.802083 -1.160894
v -2.412619 0.802442 -1.159825
v -2.413980 0.803970 -1.159712
v -2.414409 0.803578 -1.160824
v -2.414866 0.803156 -1.162360
v -2.413447 0.801689 -1.162366
v -2.412121 0.800122 -1.162329
v -2.411735 0.800474 -1.161028
v -2.411370 0.800798 -1.160086
v -2.413699 0.801436 -1.163908
v -2.415121 0.802902 -1.163978
v -2.415224 0.802788 -1.165223
v -2.413809 0.801312 -1.165093
v -2.412423 0.799798 -1.164749
v -2.412338 0.799902 -1.163696
v -2.416674 0.804237 -1.163941
v -2.416442 0.804467 -1.162286
v -2.416738 0.804164 -1.165224
v -2.415951 0.804924 -1.160738
v -2.415474 0.805365 -1.159627
v -2.410516 0.798791 -1.161309
v -2.410209 0.799058 -1.160616
v -2.410825 0.798512 -1.162276
v -2.409850 0.797300 -1.162236
v -2.409612 0.797511 -1.161582
v -2.409637 0.798024 -1.161094
v -2.410968 0.798361 -1.163309
v -2.410998 0.798309 -1.164109
v -2.410191 0.797497 -1.163547
v -2.409923 0.797216 -1.162955
v -2.410073 0.799176 -1.160410
v -2.409327 0.797755 -1.161116
v -2.411214 0.800936 -1.159795
v -2.409637 0.798024 -1.161094
v -2.409536 0.796867 -1.162847
v -2.409877 0.797233 -1.163552
v -2.409488 0.796927 -1.162238
v -2.410191 0.797497 -1.163547
v -2.419225 0.806200 -1.164995
v -2.420151 0.806812 -1.164213
v -2.418124 0.805358 -1.165462
v -2.420105 0.806706 -1.164047
v -2.420523 0.807773 -1.160858
v -2.419220 0.807696 -1.160090
v -2.421322 0.807628 -1.161862
v -2.419237 0.807531 -1.160204
v -2.418004 0.807361 -1.159588
v -2.416739 0.806674 -1.159327
v -2.409276 0.797114 -1.161693
v -2.410969 0.798324 -1.164382
v -2.412413 0.799797 -1.165106
v -2.421023 0.807297 -1.163075
v -2.416726 0.804179 -1.165656
v -2.415224 0.802787 -1.165644
v -2.415287 0.805547 -1.159282
v -2.413806 0.804134 -1.159365
v -2.412453 0.802593 -1.159492
v -2.413809 0.801305 -1.165494
vn 0.520600 0.850600 -0.073200
vn 0.467200 0.836900 -0.285100
vn 0.517700 0.805000 -0.289600
vn 0.567900 0.816900 -0.100700
vn 0.587100 0.801700 -0.111700
vn 0.519900 0.850300 -0.081400
vn 0.469900 0.880600 -0.060400
vn 0.435300 0.894200 -0.104900
vn 0.385000 0.880700 -0.275900
vn 0.427200 0.761900 -0.486700
vn 0.430000 0.764800 -0.479800
vn 0.507600 0.726300 -0.463400
vn 0.484400 0.737600 -0.470400
vn 0.358900 0.821800 -0.442500
vn 0.373200 0.788800 -0.488300
vn 0.681500 0.613300 -0.399300
vn 0.697400 0.616700 -0.364900
vn 0.719300 0.593100 -0.361700
vn 0.701100 0.586100 -0.406100
vn 0.737600 0.606500 -0.296700
vn 0.709600 0.638700 -0.297300
vn 0.649700 0.699800 -0.296800
vn 0.624300 0.664100 -0.411200
vn 0.644600 0.659700 -0.386300
vn 0.728300 0.657900 -0.191700
vn 0.751300 0.633800 -0.183500
vn 0.749000 0.621300 -0.230200
vn 0.728400 0.646200 -0.227900
vn 0.685500 0.698500 -0.205300
vn 0.676800 0.714200 -0.178400
vn 0.616700 0.773900 -0.144300
vn 0.578000 0.761300 -0.293800
vn 0.634900 0.755400 -0.161900
vn 0.550400 0.710800 -0.437800
vn 0.575900 0.699200 -0.423600
vn 0.702200 0.568000 -0.429200
vn 0.725300 0.572600 -0.382200
vn 0.726300 0.550800 -0.411100
vn 0.729900 0.516900 -0.447300
vn 0.784400 0.545900 -0.294300
vn 0.750300 0.591000 -0.296200
vn 0.763500 0.626200 -0.157800
vn 0.800600 0.583900 -0.134400
vn 0.779400 0.601300 -0.175900
vn 0.764600 0.610000 -0.207800
vn -0.543100 -0.838300 0.047200
vn -0.481200 -0.828500 0.286400
vn -0.534300 -0.793600 0.290900
vn -0.603600 -0.796600 -0.032300
vn -0.626200 -0.765500 -0.147900
vn -0.619000 -0.775500 -0.124200
vn -0.619600 -0.783000 -0.053900
vn -0.570800 -0.816600 0.085700
vn -0.517500 -0.805100 0.289600
vn -0.438000 -0.738500 0.512600
vn -0.441800 -0.607200 0.660400
vn -0.439600 -0.588000 0.679000
vn -0.464000 -0.663700 0.586700
vn -0.480900 -0.731100 0.483900
vn -0.470700 -0.641500 0.605700
vn -0.675800 -0.609700 0.414100
vn -0.630800 -0.581200 0.514000
vn -0.589300 -0.615200 0.523600
vn -0.619500 -0.660000 0.424800
vn -0.649800 -0.699700 0.296900
vn -0.709800 -0.638500 0.297300
vn -0.737700 -0.606400 0.296700
vn -0.693000 -0.583500 0.423400
vn -0.622700 -0.570700 0.535200
vn -0.729600 -0.660800 0.175800
vn -0.678500 -0.716100 0.163500
vn -0.695800 -0.716300 0.052300
vn -0.732400 -0.677800 0.064000
vn -0.734700 -0.677300 0.038900
vn -0.751300 -0.638900 0.165000
vn -0.618500 -0.775000 0.129800
vn -0.578000 -0.761300 0.293900
vn -0.649700 -0.760100 0.009500
vn -0.546000 -0.706000 0.450900
vn -0.526100 -0.642700 0.556900
vn -0.681000 -0.575600 0.452700
vn -0.575900 -0.575600 0.580500
vn -0.742600 -0.600400 0.296500
vn -0.707700 -0.640900 0.297300
vn -0.606400 -0.604300 0.516700
vn -0.542500 -0.581700 0.606000
vn -0.753100 -0.644200 0.132900
vn -0.710400 -0.703600 -0.015800
vn -0.690100 -0.722100 -0.048200
vn -0.709500 -0.702100 0.060700
vn 0.582300 0.025000 0.812600
vn 0.765200 -0.266900 0.585900
vn 0.474600 0.122100 0.871700
vn -0.542500 -0.581700 0.606000
vn 0.595300 -0.774100 -0.215500
vn 0.477000 -0.541500 -0.692300
vn 0.542800 -0.837900 0.056900
vn -0.690100 -0.722100 -0.048200
vn -0.293600 0.255400 -0.921100
vn -0.517600 0.413100 -0.749300
vn -0.158900 0.104500 -0.981700
vn -0.626200 -0.765500 -0.147900
vn -0.596600 0.612600 0.518300
vn -0.197900 0.717400 0.667900
vn -0.887700 0.448400 0.104400
vn -0.439600 -0.588000 0.679000
vn 0.089800 0.620400 0.779000
vn 0.250500 0.493900 0.832600
vn 0.697100 -0.677400 0.234700
vn 0.191500 -0.345900 -0.918500
vn 0.061100 -0.271000 -0.960600
vn -0.808600 0.411000 -0.420900
vn -0.082800 -0.020900 -0.996300
vn -0.050500 -0.102000 -0.993500
vn 0.337000 0.377600 0.862400
vn 0.372000 0.299600 0.878500
vn 0.403500 0.220400 0.888000
vn -0.018500 -0.181500 -0.983200
vt 0.839504 0.118056
vt 0.856743 0.205307
vt 0.741230 0.205307
vt 0.734555 0.106726
vt 0.724541 0.032791
vt 0.813647 0.052618
vt 0.868992 0.081539
vt 0.913398 0.129584
vt 0.940923 0.205307
vt 0.839504 0.292557
vt 0.813647 0.357995
vt 0.724541 0.377822
vt 0.734555 0.303887
vt 0.913398 0.281029
vt 0.868992 0.329074
vt 0.369475 0.299954
vt 0.368286 0.370940
vt 0.245840 0.351447
vt 0.246397 0.288815
vt 0.246768 0.205307
vt 0.370268 0.205307
vt 0.494283 0.205307
vt 0.492822 0.304944
vt 0.490632 0.379672
vt 0.369475 0.110659
vt 0.246397 0.121798
vt 0.245841 0.059166
vt 0.368286 0.039673
vt 0.490632 0.030941
vt 0.492822 0.105669
vt 0.616755 0.103478
vt 0.619174 0.205307
vt 0.613127 0.027106
vt 0.616755 0.307135
vt 0.613126 0.383507
vt 0.123273 0.268175
vt 0.123047 0.315326
vt 0.054743 0.283353
vt 0.030912 0.249131
vt 0.030973 0.205306
vt 0.123423 0.205306
vt 0.123273 0.142438
vt 0.030912 0.161481
vt 0.054744 0.127260
vt 0.123047 0.095287
vt 0.839504 0.118056
vt 0.856743 0.205307
vt 0.968983 0.205307
vt 0.938030 0.133427
vt 0.876123 0.061548
vt 0.805028 0.030806
vt 0.721203 0.008146
vt 0.734555 0.106726
vt 0.741230 0.205307
vt 0.839504 0.292557
vt 0.805028 0.379807
vt 0.876123 0.349065
vt 0.938030 0.277186
vt 0.734555 0.303887
vt 0.721203 0.402467
vt 0.369475 0.299954
vt 0.367890 0.394602
vt 0.489902 0.404581
vt 0.492822 0.304944
vt 0.494283 0.205307
vt 0.370268 0.205307
vt 0.246768 0.205307
vt 0.246397 0.288815
vt 0.245655 0.372324
vt 0.369475 0.110659
vt 0.492822 0.105669
vt 0.489902 0.006032
vt 0.367890 0.016011
vt 0.245655 0.038289
vt 0.246397 0.121798
vt 0.616755 0.103478
vt 0.619174 0.205307
vt 0.611917 0.001649
vt 0.616755 0.307135
vt 0.611917 0.408964
vt 0.123273 0.268175
vt 0.122972 0.331043
vt 0.123423 0.205306
vt 0.000156 0.205306
vt 0.000125 0.242784
vt 0.000064 0.280261
vt 0.123273 0.142438
vt 0.122972 0.079570
vt 0.000064 0.130352
vt 0.000125 0.167829
vt 0.122972 0.331043
vt 0.030806 0.283587
vt 0.245655 0.372324
vt 0.030806 0.283587
vt 0.000125 0.167829
vt 0.030806 0.127026
vt 0.000156 0.205306
vt 0.030806 0.127026
vt 0.805028 0.030806
vt 0.873826 0.071832
vt 0.721203 0.008146
vt 0.873826 0.071832
vt 0.938030 0.277186
vt 0.873826 0.338781
vt 0.968983 0.205307
vt 0.873826 0.338781
vt 0.805028 0.379807
vt 0.721203 0.402467
vt 0.000125 0.242784
vt 0.122972 0.079570
vt 0.245655 0.038289
vt 0.938030 0.133427
vt 0.611917 0.001649
vt 0.489902 0.006032
vt 0.611917 0.408964
vt 0.489902 0.404581
vt 0.367890 0.394602
vt 0.367890 0.016011
f 1/1/1 2/2/2 3/3/3
f 1/1/1 3/3/3 4/4/4
f 1/1/1 4/4/4 5/5/5
f 1/1/1 5/5/5 6/6/6
f 1/1/1 6/6/6 7/7/7
f 1/1/1 7/7/7 8/8/8
f 1/1/1 8/8/8 9/9/9
f 1/1/1 9/9/9 2/2/2
f 10/10/10 11/11/11 12/12/12
f 10/10/10 12/12/12 13/13/13
f 10/10/10 13/13/13 3/3/3
f 10/10/10 3/3/3 2/2/2
f 10/10/10 2/2/2 9/9/9
f 10/10/10 9/9/9 14/14/14
f 10/10/10 14/14/14 15/15/15
f 10/10/10 15/15/15 11/11/11
f 16/16/16 17/17/17 18/18/18
f 16/16/16 18/18/18 19/19/19
f 16/16/16 19/19/19 20/20/20
f 16/16/16 20/20/20 21/21/21
f 16/16/16 21/21/21 22/22/22
f 16/16/16 22/22/22 23/23/23
f 16/16/16 23/23/23 24/24/24
f 16/16/16 24/24/24 17/17/17
f 25/25/25 21/21/21 20/20/20
f 25/25/25 20/20/20 26/26/26
f 25/25/25 26/26/26 27/27/27
f 25/25/25 27/27/27 28/28/28
f 25/25/25 28/28/28 29/29/29
f 25/25/25 29/29/29 30/30/30
f 25/25/25 30/30/30 22/22/22
f 25/25/25 22/22/22 21/21/21
f 31/31/31 32/32/32 22/22/22
f 31/31/31 22/22/22 30/30/30
f 31/31/31 30/30/30 29/29/29
f 31/31/31 29/29/29 33/33/33
f 31/31/31 33/33/33 5/5/5
f 31/31/31 5/5/5 4/4/4
f 31/31/31 4/4/4 3/3/3
f 31/31/31 3/3/3 32/32/32
f 34/34/34 35/35/35 24/24/24
f 34/34/34 24/24/24 23/23/23
f 34/34/34 23/23/23 22/22/22
f 34/34/34 22/22/22 32/32/32
f 34/34/34 32/32/32 3/3/3
f 34/34/34 3/3/3 13/13/13
f 34/34/34 13/13/13 12/12/12
f 34/34/34 12/12/12 35/35/35
f 36/36/36 37/37/37 38/38/38
f 36/36/36 38/38/38 39/39/39
f 36/36/36 39/39/39 40/40/40
f 36/36/36 40/40/40 41/41/41
f 36/36/36 41/41/41 20/20/20
f 36/36/36 20/20/20 19/19/19
f 36/36/36 19/19/19 18/18/18
f 36/36/36 18/18/18 37/37/37
f 42/42/42 41/41/41 40/40/40
f 42/42/42 40/40/40 43/43/43
f 42/42/42 43/43/43 44/44/44
f 42/42/42 44/44/44 45/45/45
f 42/42/42 45/45/45 27/27/27
f 42/42/42 27/27/27 26/26/26
f 42/42/42 26/26/26 20/20/20
f 42/42/42 20/20/20 41/41/41
f 46/46/46 47/47/47 48/48/48
f 46/46/46 48/48/48 49/49/49
f 46/46/46 49/49/49 50/50/50
f 46/46/46 50/50/50 51/51/51
f 46/46/46 51/51/51 52/52/52
f 46/46/46 52/52/52 53/53/53
f 46/46/46 53/53/53 54/54/54
f 46/46/46 54/54/54 47/47/47
f 55/55/55 56/56/56 57/57/57
f 55/55/55 57/57/57 58/58/58
f 55/55/55 58/58/58 48/48/48
f 55/55/55 48/48/48 47/47/47
f 55/55/55 47/47/47 54/54/54
f 55/55/55 54/54/54 59/59/59
f 55/55/55 59/59/59 60/60/60
f 55/55/55 60/60/60 56/56/56
f 61/61/61 62/62/62 63/63/63
f 61/61/61 63/63/63 64/64/64
f 61/61/61 64/64/64 65/65/65
f 61/61/61 65/65/65 66/66/66
f 61/61/61 66/66/66 67/67/67
f 61/61/61 67/67/67 68/68/68
f 61/61/61 68/68/68 69/69/69
f 61/61/61 69/69/69 62/62/62
f 70/70/70 66/66/66 65/65/65
f 70/70/70 65/65/65 71/71/71
f 70/70/70 71/71/71 72/72/72
f 70/70/70 72/72/72 73/73/73
f 70/70/70 73/73/73 74/74/74
f 70/70/70 74/74/74 75/75/75
f 70/70/70 75/75/75 67/67/67
f 70/70/70 67/67/67 66/66/66
f 76/76/76 77/77/77 54/54/54
f 76/76/76 54/54/54 53/53/53
f 76/76/76 53/53/53 52/52/52
f 76/76/76 52/52/52 78/78/78
f 76/76/76 78/78/78 72/72/72
f 76/76/76 72/72/72 71/71/71
f 76/76/76 71/71/71 65/65/65
f 76/76/76 65/65/65 77/77/77
f 79/79/79 80/80/80 60/60/60
f 79/79/79 60/60/60 59/59/59
f 79/79/79 59/59/59 54/54/54
f 79/79/79 54/54/54 77/77/77
f 79/79/79 77/77/77 65/65/65
f 79/79/79 65/65/65 64/64/64
f 79/79/79 64/64/64 63/63/63
f 79/79/79 63/63/63 80/80/80
f 81/81/81 82/82/82 69/69/69
f 81/81/81 69/69/69 68/68/68
f 81/81/81 68/68/68 67/67/67
f 81/81/81 67/67/67 83/83/83
f 81/81/81 83/83/83 84/84/84
f 81/81/81 84/84/84 85/85/85
f 81/81/81 85/85/85 86/86/86
f 81/81/81 86/86/86 82/82/82
f 87/87/87 83/83/83 67/67/67
f 87/87/87 67/67/67 75/75/75
f 87/87/87 75/75/75 74/74/74
f 87/87/87 74/74/74 88/88/88
f 87/87/87 88/88/88 89/89/89
f 87/87/87 89/89/89 90/90/90
f 87/87/87 90/90/90 84/84/84
f 87/87/87 84/84/84 83/83/83
f 91/91/91 92/92/92 38/38/38
f 91/91/91 38/38/38 37/37/37
f 91/91/91 37/37/37 18/18/18
f 91/91/91 18/18/18 93/93/93
f 91/91/91 93/93/93 69/69/69
f 91/91/91 69/69/69 82/82/82
f 91/91/91 82/82/82 94/94/94
f 91/91/91 94/94/94 92/92/92
f 95/95/95 96/96/96 44/44/44
f 95/95/95 44/44/44 43/43/43
f 95/95/95 43/43/43 40/40/40
f 95/95/95 40/40/40 97/97/97
f 95/95/95 97/97/97 84/84/84
f 95/95/95 84/84/84 90/90/90
f 95/95/95 90/90/90 98/98/98
f 95/95/95 98/98/98 96/96/96
f 99/99/99 100/100/100 7/7/7
f 99/99/99 7/7/7 6/6/6
f 99/99/99 6/6/6 5/5/5
f 99/99/99 5/5/5 101/101/101
f 99/99/99 101/101/101 52/52/52
f 99/99/99 52/52/52 51/51/51
f 99/99/99 51/51/51 102/102/102
f 99/99/99 102/102/102 100/100/100
f 103/103/103 104/104/104 15/15/15
f 103/103/103 15/15/15 14/14/14
f 103/103/103 14/14/14 9/9/9
f 103/103/103 9/9/9 105/105/105
f 103/103/103 105/105/105 48/48/48
f 103/103/103 48/48/48 58/58/58
f 103/103/103 58/58/58 106/106/106
f 103/103/103 106/106/106 104/104/104
f 107/107/107 108/108/108 12/12/12
f 107/107/107 12/12/12 11/11/11
f 107/107/107 11/11/11 15/15/15
f 107/107/107 15/15/15 104/104/104
f 107/107/107 104/104/104 106/106/106
f 107/107/107 106/106/106 56/56/56
f 107/107/107 56/56/56 60/60/60
f 107/107/107 60/60/60 108/108/108
f 109/109/109 97/97/97 40/40/40
f 109/109/109 40/40/40 39/39/39
f 109/109/109 39/39/39 38/38/38
f 109/109/109 38/38/38 92/92/92
f 109/109/109 92/92/92 94/94/94
f 109/109/109 94/94/94 85/85/85
f 109/109/109 85/85/85 84/84/84
f 109/109/109 84/84/84 97/97/97
f 110/110/110 111/111/111 27/27/27
f 110/110/110 27/27/27 45/45/45
f 110/110/110 45/45/45 44/44/44
f 110/110/110 44/44/44 96/96/96
f 110/110/110 96/96/96 98/98/98
f 110/110/110 98/98/98 88/88/88
f 110/110/110 88/88/88 74/74/74
f 110/110/110 74/74/74 111/111/111
f 112/112/112 105/105/105 9/9/9
f 112/112/112 9/9/9 8/8/8
f 112/112/112 8/8/8 7/7/7
f 112/112/112 7/7/7 100/100/100
f 112/112/112 100/100/100 102/102/102
f 112/112/112 102/102/102 49/49/49
f 112/112/112 49/49/49 48/48/48
f 112/112/112 48/48/48 105/105/105
f 113/113/113 101/101/101 5/5/5
f 113/113/113 5/5/5 33/33/33
f 113/113/113 33/33/33 29/29/29
f 113/113/113 29/29/29 114/114/114
f 113/113/113 114/114/114 72/72/72
f 113/113/113 72/72/72 78/78/78
f 113/113/113 78/78/78 52/52/52
f 113/113/113 52/52/52 101/101/101
f 115/115/115 116/116/116 24/24/24
f 115/115/115 24/24/24 35/35/35
f 115/115/115 35/35/35 12/12/12
f 115/115/115 12/12/12 108/108/108
f 115/115/115 108/108/108 60/60/60
f 115/115/115 60/60/60 80/80/80
f 115/115/115 80/80/80 63/63/63
f 115/115/115 63/63/63 116/116/116
f 117/117/117 93/93/93 18/18/18
f 117/117/117 18/18/18 17/17/17
f 117/117/117 17/17/17 24/24/24
f 117/117/117 24/24/24 116/116/116
f 117/117/117 116/116/116 63/63/63
f 117/117/117 63/63/63 62/62/62
f 117/117/117 62/62/62 69/69/69
f 117/117/117 69/69/69 93/93/93
f 118/118/118 114/114/114 29/29/29
f 118/118/118 29/29/29 28/28/28
f 118/118/118 28/28/28 27/27/27
f 118/118/118 27/27/27 111/111/111
f 118/118/118 111/111/111 74/74/74
f 118/118/118 74/74/74 73/73/73
f 118/118/118 73/73/73 72/72/72
f 118/118/118 72/72/72 114/114/114
