v -2.391343 0.807300 -1.159270
v -2.390440 0.807132 -1.161510
v -2.392983 0.805159 -1.161678
v -2.393688 0.805514 -1.159104
v -2.394477 0.805871 -1.157206
v -2.392460 0.807394 -1.157634
v -2.390989 0.808107 -1.158293
v -2.389594 0.808457 -1.159456
v -2.388509 0.808490 -1.161371
v -2.390757 0.806940 -1.163902
v -2.391433 0.806763 -1.165758
v -2.393310 0.805155 -1.166435
v -2.393023 0.805106 -1.164369
v -2.389087 0.808145 -1.163466
v -2.390157 0.807597 -1.164872
v -2.399806 0.797636 -1.164593
v -2.399781 0.797621 -1.166571
v -2.401719 0.794782 -1.166062
v -2.401727 0.794789 -1.164310
v -2.401859 0.794870 -1.162001
v -2.399968 0.797734 -1.161985
v -2.397894 0.800448 -1.161933
v -2.397741 0.800362 -1.164665
v -2.397743 0.800370 -1.166740
v -2.400458 0.798037 -1.159434
v -2.402304 0.795143 -1.159748
v -2.402730 0.795402 -1.158067
v -2.400923 0.798322 -1.157532
v -2.398939 0.801104 -1.157284
v -2.398423 0.800781 -1.159268
v -2.396108 0.803308 -1.159131
v -2.395517 0.802927 -1.161825
v -2.396713 0.803697 -1.157133
v -2.395415 0.802882 -1.164607
v -2.395500 0.802952 -1.166728
v -2.403623 0.791905 -1.163734
v -2.403666 0.791928 -1.165052
v -2.404694 0.790303 -1.164151
v -2.405010 0.789710 -1.163192
v -2.405004 0.789708 -1.161998
v -2.403685 0.791944 -1.162005
v -2.404054 0.792169 -1.160329
v -2.405305 0.789892 -1.160859
v -2.405224 0.790629 -1.159953
v -2.404420 0.792391 -1.159082
v -2.391189 0.807111 -1.159200
v -2.390280 0.806939 -1.161474
v -2.388393 0.808342 -1.161345
v -2.389482 0.808313 -1.159403
v -2.390906 0.808003 -1.158246
v -2.392348 0.807256 -1.157564
v -2.394358 0.805738 -1.157141
v -2.393526 0.805332 -1.159038
v -2.392816 0.804972 -1.161642
v -2.390595 0.806746 -1.163902
v -2.391310 0.806618 -1.165776
v -2.390067 0.807488 -1.164881
v -2.388968 0.807998 -1.163468
v -2.392852 0.804918 -1.164365
v -2.393181 0.805015 -1.166448
v -2.399603 0.797483 -1.164578
v -2.399628 0.797506 -1.166572
v -2.397598 0.800246 -1.166742
v -2.397548 0.800198 -1.164652
v -2.397703 0.800285 -1.161896
v -2.399768 0.797582 -1.161948
v -2.401652 0.794727 -1.161964
v -2.401518 0.794644 -1.164295
v -2.401562 0.794673 -1.166063
v -2.400261 0.797887 -1.159375
v -2.398236 0.800620 -1.159208
v -2.398801 0.800985 -1.157227
v -2.400778 0.798212 -1.157477
v -2.402580 0.795298 -1.158012
v -2.402101 0.795002 -1.159688
v -2.395933 0.803135 -1.159068
v -2.395338 0.802752 -1.161789
v -2.396585 0.803570 -1.157072
v -2.395234 0.802706 -1.164598
v -2.395363 0.802820 -1.166735
v -2.403412 0.791763 -1.163721
v -2.403507 0.791821 -1.165055
v -2.403476 0.791803 -1.161968
v -2.404847 0.789603 -1.161970
v -2.404851 0.789604 -1.163183
v -2.404576 0.790224 -1.164149
v -2.403849 0.792031 -1.160268
v -2.404269 0.792289 -1.159024
v -2.405112 0.790553 -1.159913
v -2.405151 0.789788 -1.160812
v -2.403609 0.791888 -1.165495
v -2.405044 0.789725 -1.164154
v -2.401646 0.794731 -1.166649
v -2.404576 0.790224 -1.164149
v -2.405653 0.789087 -1.161014
v -2.405576 0.790051 -1.159948
v -2.405374 0.788916 -1.161984
v -2.405112 0.790553 -1.159913
v -2.392783 0.807364 -1.157054
v -2.390943 0.808252 -1.158023
v -2.394687 0.805932 -1.156541
v -2.390906 0.808003 -1.158246
v -2.388478 0.808481 -1.163322
v -2.390043 0.807700 -1.165141
v -2.387815 0.808876 -1.161313
v -2.390067 0.807488 -1.164881
v -2.391603 0.806640 -1.166389
v -2.393348 0.805110 -1.167133
v -2.405401 0.788932 -1.163007
v -2.404476 0.792420 -1.158638
v -2.402805 0.795442 -1.157480
v -2.388961 0.808778 -1.159494
v -2.396858 0.803771 -1.156436
v -2.399050 0.801159 -1.156595
v -2.395467 0.802917 -1.167442
v -2.397679 0.800317 -1.167435
v -2.399704 0.797564 -1.167234
v -2.401014 0.798369 -1.156871
vn -0.562500 0.749900 -0.348200
vn -0.586900 0.798100 -0.136100
vn -0.633700 0.760900 -0.139200
vn -0.614300 0.717200 -0.329000
vn -0.635300 0.702400 -0.321000
vn -0.564800 0.751600 -0.340700
vn -0.512400 0.783200 -0.352200
vn -0.496500 0.812800 -0.304600
vn -0.509500 0.850500 -0.130400
vn -0.616600 0.783200 0.080100
vn -0.616900 0.783700 0.072000
vn -0.681300 0.730700 0.043300
vn -0.662800 0.746800 0.053900
vn -0.540900 0.839800 0.045100
vn -0.568500 0.817600 0.091100
vn -0.814100 0.579500 -0.038000
vn -0.816900 0.571700 -0.075100
vn -0.834800 0.544900 -0.078300
vn -0.833100 0.552200 -0.030300
vn -0.829700 0.538600 -0.146700
vn -0.805700 0.573900 -0.146400
vn -0.753200 0.641600 -0.145000
vn -0.767900 0.640100 -0.023500
vn -0.777800 0.626400 -0.051100
vn -0.786900 0.562900 -0.253000
vn -0.804000 0.534300 -0.261000
vn -0.817600 0.534300 -0.214300
vn -0.799000 0.560700 -0.217000
vn -0.754100 0.611800 -0.238700
vn -0.737400 0.621400 -0.264700
vn -0.672700 0.679300 -0.293200
vn -0.689000 0.710700 -0.142200
vn -0.694900 0.663200 -0.277900
vn -0.711200 0.702900 0.010900
vn -0.729200 0.684300 -0.006800
vn -0.841300 0.540500 -0.004600
vn -0.846600 0.529300 -0.056000
vn -0.856600 0.515400 -0.024200
vn -0.870600 0.491700 0.017300
vn -0.868900 0.472800 -0.146500
vn -0.840400 0.521600 -0.146700
vn -0.805800 0.518600 -0.285800
vn -0.829600 0.466600 -0.306700
vn -0.825700 0.496700 -0.267300
vn -0.823700 0.515400 -0.236300
vn 0.573500 -0.728000 0.375400
vn 0.600000 -0.788100 0.137000
vn 0.649100 -0.747700 0.140000
vn 0.599400 -0.658700 0.454700
vn 0.577600 -0.596500 0.557200
vn 0.579900 -0.613300 0.536300
vn 0.605900 -0.638000 0.475300
vn 0.611700 -0.712600 0.343500
vn 0.633600 -0.761000 0.139200
vn 0.634500 -0.765500 -0.106700
vn 0.682500 -0.676500 -0.276600
vn 0.686000 -0.663000 -0.299600
vn 0.680600 -0.708500 -0.186700
vn 0.663900 -0.744600 -0.069100
vn 0.692300 -0.691000 -0.208000
vn 0.813800 -0.580700 0.021800
vn 0.805500 -0.585600 -0.090900
vn 0.772300 -0.626800 -0.103200
vn 0.768100 -0.640200 0.008400
vn 0.753300 -0.641400 0.145000
vn 0.805800 -0.573700 0.146400
vn 0.829700 -0.538500 0.146700
vn 0.831600 -0.555300 0.011400
vn 0.804900 -0.582000 -0.115600
vn 0.782600 -0.561500 0.268700
vn 0.733800 -0.619200 0.279200
vn 0.710500 -0.588900 0.385100
vn 0.746600 -0.549400 0.375200
vn 0.739900 -0.542200 0.398200
vn 0.797700 -0.534500 0.279200
vn 0.669500 -0.676400 0.307100
vn 0.689000 -0.710700 0.142200
vn 0.655000 -0.627200 0.421300
vn 0.711500 -0.702200 -0.025500
vn 0.726700 -0.671200 -0.145700
vn 0.830200 -0.557000 -0.021100
vn 0.777600 -0.605200 -0.170100
vn 0.833900 -0.532000 0.146700
vn 0.803900 -0.576400 0.146400
vn 0.785200 -0.611900 -0.094700
vn 0.755900 -0.622600 -0.202200
vn 0.788400 -0.531200 0.310200
vn 0.699500 -0.557400 0.447200
vn 0.670300 -0.570000 0.475100
vn 0.725400 -0.575300 0.377800
vn -0.256500 -0.270500 -0.927900
vn -0.490200 -0.521400 -0.698400
vn -0.141100 -0.175700 -0.974300
vn 0.755900 -0.622600 -0.202200
vn -0.586000 -0.778300 0.225300
vn -0.657900 -0.418700 0.625900
vn -0.436400 -0.899600 0.014900
vn 0.670300 -0.570000 0.475100
vn -0.067500 0.520600 0.851100
vn 0.193000 0.663300 0.723000
vn -0.205800 0.370400 0.905800
vn 0.577600 -0.596500 0.557200
vn 0.703900 0.548900 -0.450700
vn 0.378200 0.549100 -0.745300
vn 0.838600 0.541000 0.064100
vn 0.686000 -0.663000 -0.299600
vn 0.155300 0.383900 -0.910200
vn 0.032500 0.225000 -0.973800
vn -0.526800 -0.814800 -0.242000
vn -0.483400 -0.131300 0.865500
vn -0.381300 -0.028600 0.924000
vn 0.581000 0.624300 0.522100
vn -0.274800 0.242000 0.930500
vn -0.298900 0.159000 0.940900
vn -0.030800 0.093000 -0.995200
vn -0.053600 0.008500 -0.998500
vn -0.075100 -0.075000 -0.994300
vn -0.320100 0.075600 0.944300
vt 0.839504 0.118056
vt 0.856743 0.205307
vt 0.741230 0.205307
vt 0.734555 0.106726
vt 0.724541 0.032791
vt 0.813647 0.052618
vt 0.868992 0.081539
vt 0.913398 0.129584
vt 0.940923 0.205307
vt 0.839504 0.292557
vt 0.813647 0.357995
vt 0.724541 0.377822
vt 0.734555 0.303887
vt 0.913398 0.281029
vt 0.868992 0.329074
vt 0.369475 0.299954
vt 0.368286 0.370940
vt 0.245840 0.351447
vt 0.246397 0.288815
vt 0.246768 0.205307
vt 0.370268 0.205307
vt 0.494283 0.205307
vt 0.492822 0.304944
vt 0.490632 0.379672
vt 0.369475 0.110659
vt 0.246397 0.121798
vt 0.245841 0.059166
vt 0.368286 0.039673
vt 0.490632 0.030941
vt 0.492822 0.105669
vt 0.616755 0.103478
vt 0.619174 0.205307
vt 0.613127 0.027106
vt 0.616755 0.307135
vt 0.613126 0.383507
vt 0.123273 0.268175
vt 0.123047 0.315326
vt 0.054743 0.283353
vt 0.030912 0.249131
vt 0.030973 0.205306
vt 0.123423 0.205306
vt 0.123273 0.142438
vt 0.030912 0.161481
vt 0.054744 0.127260
vt 0.123047 0.095287
vt 0.839504 0.118056
vt 0.856743 0.205307
vt 0.968983 0.205307
vt 0.938030 0.133427
vt 0.876123 0.061548
vt 0.805028 0.030806
vt 0.721203 0.008146
vt 0.734555 0.106726
vt 0.741230 0.205307
vt 0.839504 0.292557
vt 0.805028 0.379807
vt 0.876123 0.349065
vt 0.938030 0.277186
vt 0.734555 0.303887
vt 0.721203 0.402467
vt 0.369475 0.299954
vt 0.367890 0.394602
vt 0.489902 0.404581
vt 0.492822 0.304944
vt 0.494283 0.205307
vt 0.370268 0.205307
vt 0.246768 0.205307
vt 0.246397 0.288815
vt 0.245655 0.372324
vt 0.369475 0.110659
vt 0.492822 0.105669
vt 0.489902 0.006032
vt 0.367890 0.016011
vt 0.245655 0.038289
vt 0.246397 0.121798
vt 0.616755 0.103478
vt 0.619174 0.205307
vt 0.611917 0.001649
vt 0.616755 0.307135
vt 0.611917 0.408964
vt 0.123273 0.268175
vt 0.122972 0.331043
vt 0.123423 0.205306
vt 0.000156 0.205306
vt 0.000125 0.242784
vt 0.000064 0.280261
vt 0.123273 0.142438
vt 0.122972 0.079570
vt 0.000064 0.130352
vt 0.000125 0.167829
vt 0.122972 0.331043
vt 0.030806 0.283587
vt 0.245655 0.372324
vt 0.030806 0.283587
vt 0.000125 0.167829
vt 0.030806 0.127026
vt 0.000156 0.205306
vt 0.030806 0.127026
vt 0.805028 0.030806
vt 0.873826 0.071832
vt 0.721203 0.008146
vt 0.873826 0.071832
vt 0.938030 0.277186
vt 0.873826 0.338781
vt 0.968983 0.205307
vt 0.873826 0.338781
vt 0.805028 0.379807
vt 0.721203 0.402467
vt 0.000125 0.242784
vt 0.122972 0.079570
vt 0.245655 0.038289
vt 0.938030 0.133427
vt 0.611917 0.001649
vt 0.489902 0.006032
vt 0.611917 0.408964
vt 0.489902 0.404581
vt 0.367890 0.394602
vt 0.367890 0.016011
f 1/1/1 2/2/2 3/3/3
f 1/1/1 3/3/3 4/4/4
f 1/1/1 4/4/4 5/5/5
f 1/1/1 5/5/5 6/6/6
f 1/1/1 6/6/6 7/7/7
f 1/1/1 7/7/7 8/8/8
f 1/1/1 8/8/8 9/9/9
f 1/1/1 9/9/9 2/2/2
f 10/10/10 11/11/11 12/12/12
f 10/10/10 12/12/12 13/13/13
f 10/10/10 13/13/13 3/3/3
f 10/10/10 3/3/3 2/2/2
f 10/10/10 2/2/2 9/9/9
f 10/10/10 9/9/9 14/14/14
f 10/10/10 14/14/14 15/15/15
f 10/10/10 15/15/15 11/11/11
f 16/16/16 17/17/17 18/18/18
f 16/16/16 18/18/18 19/19/19
f 16/16/16 19/19/19 20/20/20
f 16/16/16 20/20/20 21/21/21
f 16/16/16 21/21/21 22/22/22
f 16/16/16 22/22/22 23/23/23
f 16/16/16 23/23/23 24/24/24
f 16/16/16 24/24/24 17/17/17
f 25/25/25 21/21/21 20/20/20
f 25/25/25 20/20/20 26/26/26
f 25/25/25 26/26/26 27/27/27
f 25/25/25 27/27/27 28/28/28
f 25/25/25 28/28/28 29/29/29
f 25/25/25 29/29/29 30/30/30
f 25/25/25 30/30/30 22/22/22
f 25/25/25 22/22/22 21/21/21
f 31/31/31 32/32/32 22/22/22
f 31/31/31 22/22/22 30/30/30
f 31/31/31 30/30/30 29/29/29
f 31/31/31 29/29/29 33/33/33
f 31/31/31 33/33/33 5/5/5
f 31/31/31 5/5/5 4/4/4
f 31/31/31 4/4/4 3/3/3
f 31/31/31 3/3/3 32/32/32
f 34/34/34 35/35/35 24/24/24
f 34/34/34 24/24/24 23/23/23
f 34/34/34 23/23/23 22/22/22
f 34/34/34 22/22/22 32/32/32
f 34/34/34 32/32/32 3/3/3
f 34/34/34 3/3/3 13/13/13
f 34/34/34 13/13/13 12/12/12
f 34/34/34 12/12/12 35/35/35
f 36/36/36 37/37/37 38/38/38
f 36/36/36 38/38/38 39/39/39
f 36/36/36 39/39/39 40/40/40
f 36/36/36 40/40/40 41/41/41
f 36/36/36 41/41/41 20/20/20
f 36/36/36 20/20/20 19/19/19
f 36/36/36 19/19/19 18/18/18
f 36/36/36 18/18/18 37/37/37
f 42/42/42 41/41/41 40/40/40
f 42/42/42 40/40/40 43/43/43
f 42/42/42 43/43/43 44/44/44
f 42/42/42 44/44/44 45/45/45
f 42/42/42 45/45/45 27/27/27
f 42/42/42 27/27/27 26/26/26
f 42/42/42 26/26/26 20/20/20
f 42/42/42 20/20/20 41/41/41
f 46/46/46 47/47/47 48/48/48
f 46/46/46 48/48/48 49/49/49
f 46/46/46 49/49/49 50/50/50
f 46/46/46 50/50/50 51/51/51
f 46/46/46 51/51/51 52/52/52
f 46/46/46 52/52/52 53/53/53
f 46/46/46 53/53/53 54/54/54
f 46/46/46 54/54/54 47/47/47
f 55/55/55 56/56/56 57/57/57
f 55/55/55 57/57/57 58/58/58
f 55/55/55 58/58/58 48/48/48
f 55/55/55 48/48/48 47/47/47
f 55/55/55 47/47/47 54/54/54
f 55/55/55 54/54/54 59/59/59
f 55/55/55 59/59/59 60/60/60
f 55/55/55 60/60/60 56/56/56
f 61/61/61 62/62/62 63/63/63
f 61/61/61 63/63/63 64/64/64
f 61/61/61 64/64/64 65/65/65
f 61/61/61 65/65/65 66/66/66
f 61/61/61 66/66/66 67/67/67
f 61/61/61 67/67/67 68/68/68
f 61/61/61 68/68/68 69/69/69
f 61/61/61 69/69/69 62/62/62
f 70/70/70 66/66/66 65/65/65
f 70/70/70 65/65/65 71/71/71
f 70/70/70 71/71/71 72/72/72
f 70/70/70 72/72/72 73/73/73
f 70/70/70 73/73/73 74/74/74
f 70/70/70 74/74/74 75/75/75
f 70/70/70 75/75/75 67/67/67
f 70/70/70 67/67/67 66/66/66
f 76/76/76 77/77/77 54/54/54
f 76/76/76 54/54/54 53/53/53
f 76/76/76 53/53/53 52/52/52
f 76/76/76 52/52/52 78/78/78
f 76/76/76 78/78/78 72/72/72
f 76/76/76 72/72/72 71/71/71
f 76/76/76 71/71/71 65/65/65
f 76/76/76 65/65/65 77/77/77
f 79/79/79 80/80/80 60/60/60
f 79/79/79 60/60/60 59/59/59
f 79/79/79 59/59/59 54/54/54
f 79/79/79 54/54/54 77/77/77
f 79/79/79 77/77/77 65/65/65
f 79/79/79 65/65/65 64/64/64
f 79/79/79 64/64/64 63/63/63
f 79/79/79 63/63/63 80/80/80
f 81/81/81 82/82/82 69/69/69
f 81/81/81 69/69/69 68/68/68
f 81/81/81 68/68/68 67/67/67
f 81/81/81 67/67/67 83/83/83
f 81/81/81 83/83/83 84/84/84
f 81/81/81 84/84/84 85/85/85
f 81/81/81 85/85/85 86/86/86
f 81/81/81 86/86/86 82/82/82
f 87/87/87 83/83/83 67/67/67
f 87/87/87 67/67/67 75/75/75
f 87/87/87 75/75/75 74/74/74
f 87/87/87 74/74/74 88/88/88
f 87/87/87 88/88/88 89/89/89
f 87/87/87 89/89/89 90/90/90
f 87/87/87 90/90/90 84/84/84
f 87/87/87 84/84/84 83/83/83
f 91/91/91 92/92/92 38/38/38
f 91/91/91 38/38/38 37/37/37
f 91/91/91 37/37/37 18/18/18
f 91/91/91 18/18/18 93/93/93
f 91/91/91 93/93/93 69/69/69
f 91/91/91 69/69/69 82/82/82
f 91/91/91 82/82/82 94/94/94
f 91/91/91 94/94/94 92/92/92
f 95/95/95 96/96/96 44/44/44
f 95/95/95 44/44/44 43/43/43
f 95/95/95 43/43/43 40/40/40
f 95/95/95 40/40/40 97/97/97
f 95/95/95 97/97/97 84/84/84
f 95/95/95 84/84/84 90/90/90
f 95/95/95 90/90/90 98/98/98
f 95/95/95 98/98/98 96/96/96
f 99/99/99 100/100/100 7/7/7
f 99/99/99 7/7/7 6/6/6
f 99/99/99 6/6/6 5/5/5
f 99/99/99 5/5/5 101/101/101
f 99/99/99 101/101/101 52/52/52
f 99/99/99 52/52/52 51/51/51
f 99/99/99 51/51/51 102/102/102
f 99/99/99 102/102/102 100/100/100
f 103/103/103 104/104/104 15/15/15
f 103/103/103 15/15/15 14/14/14
f 103/103/103 14/14/14 9/9/9
f 103/103/103 9/9/9 105/105/105
f 103/103/103 105/105/105 48/48/48
f 103/103/103 48/48/48 58/58/58
f 103/103/103 58/58/58 106/106/106
f 103/103/103 106/106/106 104/104/104
f 107/107/107 108/108/108 12/12/12
f 107/107/107 12/12/12 11/11/11
f 107/107/107 11/11/11 15/15/15
f 107/107/107 15/15/15 104/104/104
f 107/107/107 104/104/104 106/106/106
f 107/107/107 106/106/106 56/56/56
f 107/107/107 56/56/56 60/60/60
f 107/107/107 60/60/60 108/108/108
f 109/109/109 97/97/97 40/40/40
f 109/109/109 40/40/40 39/39/39
f 109/109/109 39/39/39 38/38/38
f 109/109/109 38/38/38 92/92/92
f 109/109/109 92/92/92 94/94/94
f 109/109/109 94/94/94 85/85/85
f 109/109/109 85/85/85 84/84/84
f 109/109/109 84/84/84 97/97/97
f 110/110/110 111/111/111 27/27/27
f 110/110/110 27/27/27 45/45/45
f 110/110/110 45/45/45 44/44/44
f 110/110/110 44/44/44 96/96/96
f 110/110/110 96/96/96 98/98/98
f 110/110/110 98/98/98 88/88/88
f 110/110/110 88/88/88 74/74/74
f 110/110/110 74/74/74 111/111/111
f 112/112/112 105/105/105 9/9/9
f 112/112/112 9/9/9 8/8/8
f 112/112/112 8/8/8 7/7/7
f 112/112/112 7/7/7 100/100/100
f 112/112/112 100/100/100 102/102/102
f 112/112/112 102/102/102 49/49/49
f 112/112/112 49/49/49 48/48/48
f 112/112/112 48/48/48 105/105/105
f 113/113/113 101/101/101 5/5/5
f 113/113/113 5/5/5 33/33/33
f 113/113/113 33/33/33 29/29/29
f 113/113/113 29/29/29 114/114/114
f 113/113/113 114/114/114 72/72/72
f 113/113/113 72/72/72 78/78/78
f 113/113/113 78/78/78 52/52/52
f 113/113/113 52/52/52 101/101/101
f 115/115/115 116/116/116 24/24/24
f 115/115/115 24/24/24 35/35/35
f 115/115/115 35/35/35 12/12/12
f 115/115/115 12/12/12 108/108/108
f 115/115/115 108/108/108 60/60/60
f 115/115/115 60/60/60 80/80/80
f 115/115/115 80/80/80 63/63/63
f 115/115/115 63/63/63 116/116/116
f 117/117/117 93/93/93 18/18/18
f 117/117/117 18/18/18 17/17/17
f 117/117/117 17/17/17 24/24/24
f 117/117/117 24/24/24 116/116/116
f 117/117/117 116/116/116 63/63/63
f 117/117/117 63/63/63 62/62/62
f 117/117/117 62/62/62 69/69/69
f 117/117/117 69/69/69 93/93/93
f 118/118/118 114/114/114 29/29/29
f 118/118/118 29/29/29 28/28/28
f 118/118/118 28/28/28 27/27/27
f 118/118/118 27/27/27 111/111/111
f 118/118/118 111/111/111 74/74/74
f 118/118/118 74/74/74 73/73/73
f 118/118/118 73/73/73 72/72/72
f 118/118/118 72/72/72 114/114/114
