v -2.321662 0.778282 -1.237380
v -2.321132 0.779079 -1.235601
v -2.319704 0.776801 -1.235628
v -2.320503 0.776122 -1.237613
v -2.320905 0.775589 -1.239221
v -2.321758 0.777511 -1.238840
v -2.322265 0.778726 -1.238183
v -2.322520 0.779787 -1.237093
v -2.322242 0.780708 -1.235529
v -2.319741 0.779449 -1.234184
v -2.318391 0.779558 -1.233236
v -2.317079 0.777914 -1.232854
v -2.318321 0.777448 -1.233981
v -2.320858 0.780797 -1.234326
v -2.319537 0.780383 -1.233644
v -2.314960 0.769764 -1.233250
v -2.313974 0.770277 -1.232029
v -2.313410 0.767438 -1.231869
v -2.314294 0.766985 -1.232943
v -2.315368 0.766393 -1.234433
v -2.316164 0.769095 -1.234941
v -2.317119 0.771752 -1.235337
v -2.315843 0.772457 -1.233580
v -2.314787 0.773001 -1.232320
v -2.317098 0.768465 -1.236809
v -2.316185 0.765835 -1.236090
v -2.316724 0.765424 -1.237385
v -2.317721 0.768000 -1.238265
v -2.318707 0.770619 -1.238843
v -2.318080 0.771098 -1.237302
v -2.319262 0.773689 -1.237579
v -2.318333 0.774339 -1.235553
v -2.319828 0.773220 -1.239192
v -2.316992 0.775068 -1.233802
v -2.315850 0.775637 -1.232572
v -2.313798 0.764112 -1.232788
v -2.313098 0.764455 -1.232011
v -2.313138 0.762702 -1.232261
v -2.313510 0.761920 -1.232713
v -2.314120 0.761611 -1.233436
v -2.314630 0.763668 -1.233881
v -2.315209 0.763255 -1.235137
v -2.314477 0.761332 -1.234323
v -2.314878 0.761644 -1.235157
v -2.315573 0.762951 -1.236130
v -2.321825 0.778188 -1.237284
v -2.321282 0.778993 -1.235480
v -2.322353 0.780640 -1.235438
v -2.322641 0.779714 -1.237022
v -2.322357 0.778671 -1.238136
v -2.321886 0.777438 -1.238781
v -2.321035 0.775522 -1.239158
v -2.320669 0.776036 -1.237514
v -2.319858 0.776723 -1.235506
v -2.319875 0.779373 -1.234040
v -2.318483 0.779506 -1.233117
v -2.319607 0.780343 -1.233559
v -2.320956 0.780738 -1.234217
v -2.318461 0.777378 -1.233840
v -2.317177 0.777866 -1.232738
v -2.315121 0.769728 -1.233117
v -2.314089 0.770252 -1.231922
v -2.314898 0.772968 -1.232211
v -2.315999 0.772410 -1.233444
v -2.317285 0.771698 -1.235218
v -2.316335 0.769053 -1.234823
v -2.315542 0.766359 -1.234316
v -2.314457 0.766956 -1.232811
v -2.313528 0.767419 -1.231763
v -2.317278 0.768417 -1.236706
v -2.318256 0.771038 -1.237200
v -2.318843 0.770571 -1.238775
v -2.317859 0.767961 -1.238196
v -2.316865 0.765391 -1.237317
v -2.316367 0.765795 -1.235989
v -2.319433 0.773616 -1.237478
v -2.318493 0.774273 -1.235432
v -2.319961 0.773162 -1.239126
v -2.317141 0.775009 -1.233663
v -2.315955 0.775597 -1.232460
v -2.313962 0.764087 -1.232656
v -2.313215 0.764439 -1.231904
v -2.314805 0.763636 -1.233765
v -2.314251 0.761588 -1.233349
v -2.313632 0.761902 -1.232613
v -2.313226 0.762689 -1.232184
v -2.315393 0.763217 -1.235038
v -2.315715 0.762920 -1.236064
v -2.314982 0.761622 -1.235106
v -2.314615 0.761304 -1.234249
v -2.312915 0.764563 -1.231703
v -2.312997 0.762168 -1.232146
v -2.313167 0.767581 -1.231463
v -2.313226 0.762689 -1.232184
v -2.314295 0.760679 -1.234019
v -2.314741 0.761108 -1.235048
v -2.314008 0.760915 -1.233249
v -2.314982 0.761622 -1.235106
v -2.321849 0.777221 -1.239304
v -2.322409 0.778774 -1.238392
v -2.321098 0.775381 -1.239731
v -2.322357 0.778671 -1.238136
v -2.321274 0.781220 -1.234325
v -2.319459 0.780567 -1.233481
v -2.322661 0.781220 -1.235464
v -2.319607 0.780343 -1.233559
v -2.317979 0.779573 -1.232864
v -2.316707 0.778049 -1.232424
v -2.313468 0.761181 -1.232643
v -2.315758 0.762835 -1.236434
v -2.316967 0.765271 -1.237788
v -2.322860 0.780256 -1.236966
v -2.320076 0.773037 -1.239702
v -2.318977 0.770437 -1.239328
v -2.315515 0.775810 -1.232110
v -2.314483 0.773168 -1.231850
v -2.313695 0.770437 -1.231573
v -2.317991 0.767827 -1.238722
vn 0.781900 0.490700 -0.384400
vn 0.680300 0.454600 -0.574800
vn 0.711700 0.403500 -0.575000
vn 0.804400 0.434300 -0.405300
vn 0.813000 0.410300 -0.413100
vn 0.779400 0.488900 -0.391700
vn 0.751700 0.542100 -0.375700
vn 0.715800 0.559200 -0.418200
vn 0.626500 0.531100 -0.570400
vn 0.569000 0.361500 -0.738600
vn 0.574200 0.364200 -0.733200
vn 0.631800 0.300200 -0.714600
vn 0.614100 0.318700 -0.722000
vn 0.541900 0.453600 -0.707500
vn 0.531300 0.408300 -0.742300
vn 0.756700 0.139800 -0.638600
vn 0.780200 0.143500 -0.608800
vn 0.791100 0.113900 -0.601000
vn 0.761800 0.105900 -0.639000
vn 0.827500 0.132200 -0.545500
vn 0.815200 0.172500 -0.552800
vn 0.786000 0.252100 -0.564400
vn 0.723200 0.206500 -0.659000
vn 0.745200 0.199300 -0.636400
vn 0.863600 0.204700 -0.460800
vn 0.876500 0.175600 -0.448300
vn 0.858600 0.155000 -0.488500
vn 0.850700 0.186400 -0.491500
vn 0.838400 0.255900 -0.481200
vn 0.843100 0.279400 -0.459500
vn 0.820900 0.365500 -0.438800
vn 0.747200 0.337800 -0.572400
vn 0.825800 0.337500 -0.451800
vn 0.669700 0.273700 -0.690300
vn 0.691000 0.255600 -0.676100
vn 0.750400 0.084500 -0.655500
vn 0.783600 0.088700 -0.614800
vn 0.769400 0.062700 -0.635700
vn 0.750800 0.023700 -0.660100
vn 0.845900 0.059500 -0.530000
vn 0.832900 0.113300 -0.541700
vn 0.890100 0.169300 -0.423000
vn 0.911800 0.121400 -0.392100
vn 0.890300 0.136000 -0.434500
vn 0.873300 0.143000 -0.465700
vn -0.803100 -0.476000 0.358400
vn -0.689200 -0.440700 0.575100
vn -0.721800 -0.385800 0.574600
vn -0.858800 -0.430900 0.277100
vn -0.893100 -0.420100 0.160600
vn -0.885100 -0.426900 0.185300
vn -0.872500 -0.417100 0.254300
vn -0.810300 -0.436200 0.391300
vn -0.711600 -0.403600 0.575000
vn -0.563400 -0.330400 0.757200
vn -0.481000 -0.181300 0.857700
vn -0.467200 -0.161300 0.869300
vn -0.540000 -0.237200 0.807500
vn -0.605300 -0.311600 0.732400
vn -0.532900 -0.210700 0.819500
vn -0.746800 -0.135800 0.651000
vn -0.672800 -0.108400 0.731800
vn -0.647100 -0.154000 0.746700
vn -0.714100 -0.201900 0.670200
vn -0.786100 -0.252000 0.564400
vn -0.815300 -0.172200 0.552800
vn -0.827600 -0.132100 0.545500
vn -0.749700 -0.103300 0.653600
vn -0.656500 -0.098000 0.747900
vn -0.869600 -0.210400 0.446700
vn -0.848700 -0.283800 0.446200
vn -0.889700 -0.301400 0.342900
vn -0.904400 -0.249100 0.346400
vn -0.911900 -0.253200 0.322900
vn -0.882700 -0.184100 0.432200
vn -0.826300 -0.368900 0.425600
vn -0.747200 -0.337800 0.572300
vn -0.875700 -0.369600 0.310700
vn -0.660900 -0.268400 0.700800
vn -0.594000 -0.198200 0.779700
vn -0.729100 -0.095200 0.677700
vn -0.606300 -0.112600 0.787200
vn -0.829600 -0.124800 0.544100
vn -0.814300 -0.175300 0.553300
vn -0.659400 -0.138500 0.738900
vn -0.573200 -0.126800 0.809500
vn -0.893800 -0.195200 0.403600
vn -0.913300 -0.298900 0.276600
vn -0.910000 -0.331200 0.249300
vn -0.894300 -0.281300 0.348100
vn 0.714300 -0.051900 0.697900
vn 0.709600 -0.438800 0.551200
vn 0.670300 0.093100 0.736200
vn -0.573200 -0.126800 0.809500
vn 0.174900 -0.983900 -0.034900
vn 0.051800 -0.838100 -0.543000
vn 0.165800 -0.954300 0.248500
vn -0.910000 -0.331200 0.249300
vn -0.371900 0.143200 -0.917100
vn -0.469300 0.417700 -0.777900
vn -0.325500 -0.061000 -0.943500
vn -0.893100 -0.420100 0.160600
vn -0.170600 0.913100 0.370200
vn 0.260600 0.861200 0.436400
vn -0.589200 0.805700 0.060000
vn -0.467200 -0.161300 0.869300
vn 0.503200 0.675300 0.539200
vn 0.608300 0.506900 0.610700
vn 0.407100 -0.842900 0.351600
vn -0.177100 -0.593700 -0.784900
vn -0.273000 -0.480000 -0.833700
vn -0.653900 0.619600 -0.434100
vn -0.310400 -0.207500 -0.927700
vn -0.313100 -0.291100 -0.904000
vn 0.646300 0.374500 0.664800
vn 0.650600 0.294500 0.700000
vn 0.649500 0.213400 0.729800
vn -0.314000 -0.371300 -0.873800
vt 0.839504 0.118056
vt 0.856743 0.205307
vt 0.741230 0.205307
vt 0.734555 0.106726
vt 0.724541 0.032791
vt 0.813647 0.052618
vt 0.868992 0.081539
vt 0.913398 0.129584
vt 0.940923 0.205307
vt 0.839504 0.292557
vt 0.813647 0.357995
vt 0.724541 0.377822
vt 0.734555 0.303887
vt 0.913398 0.281029
vt 0.868992 0.329074
vt 0.369475 0.299954
vt 0.368286 0.370940
vt 0.245840 0.351447
vt 0.246397 0.288815
vt 0.246768 0.205307
vt 0.370268 0.205307
vt 0.494283 0.205307
vt 0.492822 0.304944
vt 0.490632 0.379672
vt 0.369475 0.110659
vt 0.246397 0.121798
vt 0.245841 0.059166
vt 0.368286 0.039673
vt 0.490632 0.030941
vt 0.492822 0.105669
vt 0.616755 0.103478
vt 0.619174 0.205307
vt 0.613127 0.027106
vt 0.616755 0.307135
vt 0.613126 0.383507
vt 0.123273 0.268175
vt 0.123047 0.315326
vt 0.054743 0.283353
vt 0.030912 0.249131
vt 0.030973 0.205306
vt 0.123423 0.205306
vt 0.123273 0.142438
vt 0.030912 0.161481
vt 0.054744 0.127260
vt 0.123047 0.095287
vt 0.839504 0.118056
vt 0.856743 0.205307
vt 0.968983 0.205307
vt 0.938030 0.133427
vt 0.876123 0.061548
vt 0.805028 0.030806
vt 0.721203 0.008146
vt 0.734555 0.106726
vt 0.741230 0.205307
vt 0.839504 0.292557
vt 0.805028 0.379807
vt 0.876123 0.349065
vt 0.938030 0.277186
vt 0.734555 0.303887
vt 0.721203 0.402467
vt 0.369475 0.299954
vt 0.367890 0.394602
vt 0.489902 0.404581
vt 0.492822 0.304944
vt 0.494283 0.205307
vt 0.370268 0.205307
vt 0.246768 0.205307
vt 0.246397 0.288815
vt 0.245655 0.372324
vt 0.369475 0.110659
vt 0.492822 0.105669
vt 0.489902 0.006032
vt 0.367890 0.016011
vt 0.245655 0.038289
vt 0.246397 0.121798
vt 0.616755 0.103478
vt 0.619174 0.205307
vt 0.611917 0.001649
vt 0.616755 0.307135
vt 0.611917 0.408964
vt 0.123273 0.268175
vt 0.122972 0.331043
vt 0.123423 0.205306
vt 0.000156 0.205306
vt 0.000125 0.242784
vt 0.000064 0.280261
vt 0.123273 0.142438
vt 0.122972 0.079570
vt 0.000064 0.130352
vt 0.000125 0.167829
vt 0.122972 0.331043
vt 0.030806 0.283587
vt 0.245655 0.372324
vt 0.030806 0.283587
vt 0.000125 0.167829
vt 0.030806 0.127026
vt 0.000156 0.205306
vt 0.030806 0.127026
vt 0.805028 0.030806
vt 0.873826 0.071832
vt 0.721203 0.008146
vt 0.873826 0.071832
vt 0.938030 0.277186
vt 0.873826 0.338781
vt 0.968983 0.205307
vt 0.873826 0.338781
vt 0.805028 0.379807
vt 0.721203 0.402467
vt 0.000125 0.242784
vt 0.122972 0.079570
vt 0.245655 0.038289
vt 0.938030 0.133427
vt 0.611917 0.001649
vt 0.489902 0.006032
vt 0.611917 0.408964
vt 0.489902 0.404581
vt 0.367890 0.394602
vt 0.367890 0.016011
f 1/1/1 2/2/2 3/3/3
f 1/1/1 3/3/3 4/4/4
f 1/1/1 4/4/4 5/5/5
f 1/1/1 5/5/5 6/6/6
f 1/1/1 6/6/6 7/7/7
f 1/1/1 7/7/7 8/8/8
f 1/1/1 8/8/8 9/9/9
f 1/1/1 9/9/9 2/2/2
f 10/10/10 11/11/11 12/12/12
f 10/10/10 12/12/12 13/13/13
f 10/10/10 13/13/13 3/3/3
f 10/10/10 3/3/3 2/2/2
f 10/10/10 2/2/2 9/9/9
f 10/10/10 9/9/9 14/14/14
f 10/10/10 14/14/14 15/15/15
f 10/10/10 15/15/15 11/11/11
f 16/16/16 17/17/17 18/18/18
f 16/16/16 18/18/18 19/19/19
f 16/16/16 19/19/19 20/20/20
f 16/16/16 20/20/20 21/21/21
f 16/16/16 21/21/21 22/22/22
f 16/16/16 22/22/22 23/23/23
f 16/16/16 23/23/23 24/24/24
f 16/16/16 24/24/24 17/17/17
f 25/25/25 21/21/21 20/20/20
f 25/25/25 20/20/20 26/26/26
f 25/25/25 26/26/26 27/27/27
f 25/25/25 27/27/27 28/28/28
f 25/25/25 28/28/28 29/29/29
f 25/25/25 29/29/29 30/30/30
f 25/25/25 30/30/30 22/22/22
f 25/25/25 22/22/22 21/21/21
f 31/31/31 32/32/32 22/22/22
f 31/31/31 22/22/22 30/30/30
f 31/31/31 30/30/30 29/29/29
f 31/31/31 29/29/29 33/33/33
f 31/31/31 33/33/33 5/5/5
f 31/31/31 5/5/5 4/4/4
f 31/31/31 4/4/4 3/3/3
f 31/31/31 3/3/3 32/32/32
f 34/34/34 35/35/35 24/24/24
f 34/34/34 24/24/24 23/23/23
f 34/34/34 23/23/23 22/22/22
f 34/34/34 22/22/22 32/32/32
f 34/34/34 32/32/32 3/3/3
f 34/34/34 3/3/3 13/13/13
f 34/34/34 13/13/13 12/12/12
f 34/34/34 12/12/12 35/35/35
f 36/36/36 37/37/37 38/38/38
f 36/36/36 38/38/38 39/39/39
f 36/36/36 39/39/39 40/40/40
f 36/36/36 40/40/40 41/41/41
f 36/36/36 41/41/41 20/20/20
f 36/36/36 20/20/20 19/19/19
f 36/36/36 19/19/19 18/18/18
f 36/36/36 18/18/18 37/37/37
f 42/42/42 41/41/41 40/40/40
f 42/42/42 40/40/40 43/43/43
f 42/42/42 43/43/43 44/44/44
f 42/42/42 44/44/44 45/45/45
f 42/42/42 45/45/45 27/27/27
f 42/42/42 27/27/27 26/26/26
f 42/42/42 26/26/26 20/20/20
f 42/42/42 20/20/20 41/41/41
f 46/46/46 47/47/47 48/48/48
f 46/46/46 48/48/48 49/49/49
f 46/46/46 49/49/49 50/50/50
f 46/46/46 50/50/50 51/51/51
f 46/46/46 51/51/51 52/52/52
f 46/46/46 52/52/52 53/53/53
f 46/46/46 53/53/53 54/54/54
f 46/46/46 54/54/54 47/47/47
f 55/55/55 56/56/56 57/57/57
f 55/55/55 57/57/57 58/58/58
f 55/55/55 58/58/58 48/48/48
f 55/55/55 48/48/48 47/47/47
f 55/55/55 47/47/47 54/54/54
f 55/55/55 54/54/54 59/59/59
f 55/55/55 59/59/59 60/60/60
f 55/55/55 60/60/60 56/56/56
f 61/61/61 62/62/62 63/63/63
f 61/61/61 63/63/63 64/64/64
f 61/61/61 64/64/64 65/65/65
f 61/61/61 65/65/65 66/66/66
f 61/61/61 66/66/66 67/67/67
f 61/61/61 67/67/67 68/68/68
f 61/61/61 68/68/68 69/69/69
f 61/61/61 69/69/69 62/62/62
f 70/70/70 66/66/66 65/65/65
f 70/70/70 65/65/65 71/71/71
f 70/70/70 71/71/71 72/72/72
f 70/70/70 72/72/72 73/73/73
f 70/70/70 73/73/73 74/74/74
f 70/70/70 74/74/74 75/75/75
f 70/70/70 75/75/75 67/67/67
f 70/70/70 67/67/67 66/66/66
f 76/76/76 77/77/77 54/54/54
f 76/76/76 54/54/54 53/53/53
f 76/76/76 53/53/53 52/52/52
f 76/76/76 52/52/52 78/78/78
f 76/76/76 78/78/78 72/72/72
f 76/76/76 72/72/72 71/71/71
f 76/76/76 71/71/71 65/65/65
f 76/76/76 65/65/65 77/77/77
f 79/79/79 80/80/80 60/60/60
f 79/79/79 60/60/60 59/59/59
f 79/79/79 59/59/59 54/54/54
f 79/79/79 54/54/54 77/77/77
f 79/79/79 77/77/77 65/65/65
f 79/79/79 65/65/65 64/64/64
f 79/79/79 64/64/64 63/63/63
f 79/79/79 63/63/63 80/80/80
f 81/81/81 82/82/82 69/69/69
f 81/81/81 69/69/69 68/68/68
f 81/81/81 68/68/68 67/67/67
f 81/81/81 67/67/67 83/83/83
f 81/81/81 83/83/83 84/84/84
f 81/81/81 84/84/84 85/85/85
f 81/81/81 85/85/85 86/86/86
f 81/81/81 86/86/86 82/82/82
f 87/87/87 83/83/83 67/67/67
f 87/87/87 67/67/67 75/75/75
f 87/87/87 75/75/75 74/74/74
f 87/87/87 74/74/74 88/88/88
f 87/87/87 88/88/88 89/89/89
f 87/87/87 89/89/89 90/90/90
f 87/87/87 90/90/90 84/84/84
f 87/87/87 84/84/84 83/83/83
f 91/91/91 92/92/92 38/38/38
f 91/91/91 38/38/38 37/37/37
f 91/91/91 37/37/37 18/18/18
f 91/91/91 18/18/18 93/93/93
f 91/91/91 93/93/93 69/69/69
f 91/91/91 69/69/69 82/82/82
f 91/91/91 82/82/82 94/94/94
f 91/91/91 94/94/94 92/92/92
f 95/95/95 96/96/96 44/44/44
f 95/95/95 44/44/44 43/43/43
f 95/95/95 43/43/43 40/40/40
f 95/95/95 40/40/40 97/97/97
f 95/95/95 97/97/97 84/84/84
f 95/95/95 84/84/84 90/90/90
f 95/95/95 90/90/90 98/98/98
f 95/95/95 98/98/98 96/96/96
f 99/99/99 100/100/100 7/7/7
f 99/99/99 7/7/7 6/6/6
f 99/99/99 6/6/6 5/5/5
f 99/99/99 5/5/5 101/101/101
f 99/99/99 101/101/101 52/52/52
f 99/99/99 52/52/52 51/51/51
f 99/99/99 51/51/51 102/102/102
f 99/99/99 102/102/102 100/100/100
f 103/103/103 104/104/104 15/15/15
f 103/103/103 15/15/15 14/14/14
f 103/103/103 14/14/14 9/9/9
f 103/103/103 9/9/9 105/105/105
f 103/103/103 105/105/105 48/48/48
f 103/103/103 48/48/48 58/58/58
f 103/103/103 58/58/58 106/106/106
f 103/103/103 106/106/106 104/104/104
f 107/107/107 108/108/108 12/12/12
f 107/107/107 12/12/12 11/11/11
f 107/107/107 11/11/11 15/15/15
f 107/107/107 15/15/15 104/104/104
f 107/107/107 104/104/104 106/106/106
f 107/107/107 106/106/106 56/56/56
f 107/107/107 56/56/56 60/60/60
f 107/107/107 60/60/60 108/108/108
f 109/109/109 97/97/97 40/40/40
f 109/109/109 40/40/40 39/39/39
f 109/109/109 39/39/39 38/38/38
f 109/109/109 38/38/38 92/92/92
f 109/109/109 92/92/92 94/94/94
f 109/109/109 94/94/94 85/85/85
f 109/109/109 85/85/85 84/84/84
f 109/109/109 84/84/84 97/97/97
f 110/110/110 111/111/111 27/27/27
f 110/110/110 27/27/27 45/45/45
f 110/110/110 45/45/45 44/44/44
f 110/110/110 44/44/44 96/96/96
f 110/110/110 96/96/96 98/98/98
f 110/110/110 98/98/98 88/88/88
f 110/110/110 88/88/88 74/74/74
f 110/110/110 74/74/74 111/111/111
f 112/112/112 105/105/105 9/9/9
f 112/112/112 9/9/9 8/8/8
f 112/112/112 8/8/8 7/7/7
f 112/112/112 7/7/7 100/100/100
f 112/112/112 100/100/100 102/102/102
f 112/112/112 102/102/102 49/49/49
f 112/112/112 49/49/49 48/48/48
f 112/112/112 48/48/48 105/105/105
f 113/113/113 101/101/101 5/5/5
f 113/113/113 5/5/5 33/33/33
f 113/113/113 33/33/33 29/29/29
f 113/113/113 29/29/29 114/114/114
f 113/113/113 114/114/114 72/72/72
f 113/113/113 72/72/72 78/78/78
f 113/113/113 78/78/78 52/52/52
f 113/113/113 52/52/52 101/101/101
f 115/115/115 116/116/116 24/24/24
f 115/115/115 24/24/24 35/35/35
f 115/115/115 35/35/35 12/12/12
f 115/115/115 12/12/12 108/108/108
f 115/115/115 108/108/108 60/60/60
f 115/115/115 60/60/60 80/80/80
f 115/115/115 80/80/80 63/63/63
f 115/115/115 63/63/63 116/116/116
f 117/117/117 93/93/93 18/18/18
f 117/117/117 18/18/18 17/17/17
f 117/117/117 17/17/17 24/24/24
f 117/117/117 24/24/24 116/116/116
f 117/117/117 116/116/116 63/63/63
f 117/117/117 63/63/63 62/62/62
f 117/117/117 62/62/62 69/69/69
f 117/117/117 69/69/69 93/93/93
f 118/118/118 114/114/114 29/29/29
f 118/118/118 29/29/29 28/28/28
f 118/118/118 28/28/28 27/27/27
f 118/118/118 27/27/27 111/111/111
f 118/118/118 111/111/111 74/74/74
f 118/118/118 74/74/74 73/73/73
f 118/118/118 73/73/73 72/72/72
f 118/118/118 72/72/72 114/114/114
