v -2.434495 0.753598 -1.143326
v -2.433352 0.754071 -1.144225
v -2.433728 0.752216 -1.144974
v -2.434953 0.751868 -1.143848
v -2.436005 0.751572 -1.143112
v -2.435518 0.753087 -1.142815
v -2.434920 0.754024 -1.142753
v -2.434074 0.754804 -1.142957
v -2.433022 0.755404 -1.143638
v -2.432680 0.754148 -1.145596
v -2.432335 0.754051 -1.146796
v -2.432389 0.752667 -1.147634
v -2.432890 0.752492 -1.146428
v -2.432503 0.755280 -1.144922
v -2.432343 0.754805 -1.145977
v -2.433213 0.746358 -1.148127
v -2.432582 0.746591 -1.149180
v -2.432612 0.744400 -1.149301
v -2.433163 0.744195 -1.148363
v -2.433965 0.743922 -1.147173
v -2.434127 0.746049 -1.146787
v -2.434169 0.748153 -1.146311
v -2.433225 0.748480 -1.147722
v -2.432584 0.748727 -1.148838
v -2.435234 0.745746 -1.145599
v -2.434950 0.743654 -1.146128
v -2.435745 0.743452 -1.145383
v -2.436123 0.745519 -1.144751
v -2.436288 0.747606 -1.144205
v -2.435339 0.747839 -1.145078
v -2.435240 0.749914 -1.144463
v -2.434018 0.750226 -1.145688
v -2.436255 0.749684 -1.143617
v -2.433095 0.750564 -1.147146
v -2.432496 0.750823 -1.148318
v -2.433181 0.741986 -1.148431
v -2.432797 0.742140 -1.149154
v -2.432970 0.740841 -1.148869
v -2.433203 0.740312 -1.148408
v -2.433570 0.740172 -1.147765
v -2.433758 0.741783 -1.147525
v -2.434515 0.741582 -1.146762
v -2.434117 0.740035 -1.147265
v -2.434614 0.740342 -1.146812
v -2.435136 0.741431 -1.146229
v -2.434386 0.753541 -1.143224
v -2.433228 0.754018 -1.144139
v -2.432930 0.755362 -1.143575
v -2.433994 0.754759 -1.142880
v -2.434864 0.753991 -1.142693
v -2.435444 0.753043 -1.142731
v -2.435928 0.751533 -1.143028
v -2.434841 0.751817 -1.143746
v -2.433603 0.752169 -1.144886
v -2.432544 0.754099 -1.145528
v -2.432227 0.754017 -1.146754
v -2.432264 0.754778 -1.145944
v -2.432401 0.755242 -1.144872
v -2.432754 0.752449 -1.146356
v -2.432282 0.752638 -1.147588
v -2.433078 0.746343 -1.148041
v -2.432477 0.746581 -1.149122
v -2.432478 0.748711 -1.148782
v -2.433089 0.748455 -1.147639
v -2.434042 0.748125 -1.146217
v -2.434000 0.746030 -1.146690
v -2.433839 0.743910 -1.147074
v -2.433028 0.744186 -1.148276
v -2.432508 0.744395 -1.149242
v -2.435116 0.745725 -1.145492
v -2.435222 0.747810 -1.144972
v -2.436205 0.747582 -1.144120
v -2.436040 0.745502 -1.144666
v -2.435661 0.743439 -1.145297
v -2.434833 0.743639 -1.146019
v -2.435125 0.749874 -1.144359
v -2.433892 0.750188 -1.145597
v -2.436175 0.749653 -1.143532
v -2.432959 0.750530 -1.147068
v -2.432389 0.750799 -1.148267
v -2.433046 0.741979 -1.148344
v -2.432692 0.742136 -1.149095
v -2.433632 0.741773 -1.147426
v -2.433475 0.740165 -1.147691
v -2.433101 0.740307 -1.148343
v -2.432893 0.740838 -1.148824
v -2.434398 0.741570 -1.146652
v -2.435054 0.741421 -1.146141
v -2.434552 0.740335 -1.146748
v -2.434030 0.740026 -1.147182
v -2.432622 0.742189 -1.149370
v -2.432923 0.740422 -1.148937
v -2.432381 0.744467 -1.149588
v -2.432893 0.740838 -1.148824
v -2.433946 0.739515 -1.147395
v -2.434571 0.739923 -1.146876
v -2.433466 0.739632 -1.147812
v -2.434552 0.740335 -1.146748
v -2.435828 0.752897 -1.142606
v -2.435033 0.754084 -1.142605
v -2.436323 0.751456 -1.142828
v -2.434864 0.753991 -1.142693
v -2.432399 0.755640 -1.144675
v -2.432245 0.754928 -1.146093
v -2.432871 0.755829 -1.143415
v -2.432264 0.754778 -1.145944
v -2.432171 0.754004 -1.147180
v -2.432173 0.752713 -1.148017
v -2.433165 0.739752 -1.148372
v -2.435308 0.741376 -1.146010
v -2.435973 0.743379 -1.145096
v -2.433898 0.755186 -1.142800
v -2.436559 0.749593 -1.143296
v -2.436568 0.747517 -1.143875
v -2.432248 0.750899 -1.148688
v -2.432322 0.748803 -1.149186
v -2.432324 0.746665 -1.149507
v -2.436383 0.745436 -1.144429
vn -0.617200 0.396600 -0.679500
vn -0.764200 0.384400 -0.517900
vn -0.774700 0.329500 -0.539600
vn -0.644500 0.338600 -0.685500
vn -0.654700 0.313900 -0.687600
vn -0.623500 0.395300 -0.674500
vn -0.599100 0.451100 -0.661500
vn -0.627400 0.475100 -0.617000
vn -0.742300 0.467100 -0.480400
vn -0.882900 0.316000 -0.347200
vn -0.879500 0.317500 -0.354300
vn -0.880800 0.245400 -0.404800
vn -0.882000 0.266800 -0.388400
vn -0.844700 0.408800 -0.345500
vn -0.874200 0.367200 -0.317600
vn -0.850200 0.065600 -0.522300
vn -0.829700 0.064600 -0.554400
vn -0.825900 0.033400 -0.562800
vn -0.852400 0.031600 -0.521900
vn -0.785400 0.043700 -0.617400
vn -0.788200 0.085500 -0.609500
vn -0.789400 0.168900 -0.590200
vn -0.858400 0.137300 -0.494200
vn -0.844200 0.126100 -0.521000
vn -0.716900 0.106100 -0.689000
vn -0.709300 0.074900 -0.700900
vn -0.741700 0.059200 -0.668100
vn -0.741800 0.091300 -0.664400
vn -0.727900 0.161200 -0.666400
vn -0.708800 0.182700 -0.681300
vn -0.681700 0.270000 -0.680000
vn -0.784000 0.259500 -0.563900
vn -0.695800 0.242100 -0.676200
vn -0.870300 0.212800 -0.444000
vn -0.863900 0.191300 -0.465900
vn -0.864300 0.012600 -0.502800
vn -0.836700 0.010300 -0.547600
vn -0.851800 -0.012400 -0.523700
vn -0.868900 -0.047400 -0.492700
vn -0.776900 -0.031600 -0.628800
vn -0.783600 0.023900 -0.620700
vn -0.689900 0.065600 -0.720900
vn -0.667900 0.013800 -0.744100
vn -0.701000 0.033500 -0.712300
vn -0.724900 0.044300 -0.687400
vn 0.599600 -0.377700 0.705600
vn 0.767300 -0.369500 0.524100
vn 0.777700 -0.310600 0.546600
vn 0.541000 -0.321200 0.777300
vn 0.442100 -0.299900 0.845300
vn 0.462800 -0.308800 0.830900
vn 0.524100 -0.304400 0.795400
vn 0.633100 -0.338900 0.695900
vn 0.774700 -0.329800 0.539600
vn 0.898700 -0.287200 0.331400
vn 0.967300 -0.155900 0.199900
vn 0.973800 -0.138500 0.180400
vn 0.939000 -0.200400 0.279600
vn 0.889000 -0.261500 0.375800
vn 0.948000 -0.176100 0.265200
vn 0.858700 -0.063800 0.508400
vn 0.911000 -0.051100 0.409100
vn 0.916600 -0.100400 0.386900
vn 0.866100 -0.134600 0.481400
vn 0.789400 -0.168800 0.590300
vn 0.788200 -0.085300 0.609500
vn 0.785400 -0.043600 0.617400
vn 0.862300 -0.031300 0.505400
vn 0.920900 -0.043800 0.387200
vn 0.705500 -0.110100 0.700100
vn 0.698000 -0.185500 0.691600
vn 0.613800 -0.192200 0.765600
vn 0.622000 -0.138600 0.770700
vn 0.602200 -0.140400 0.785900
vn 0.696200 -0.081600 0.713200
vn 0.671000 -0.271900 0.689800
vn 0.783900 -0.259500 0.564000
vn 0.578600 -0.259800 0.773100
vn 0.877400 -0.209400 0.431700
vn 0.930300 -0.153200 0.333200
vn 0.878300 -0.027300 0.477300
vn 0.941600 -0.067200 0.330000
vn 0.784800 -0.035900 0.618700
vn 0.788400 -0.088600 0.608800
vn 0.913200 -0.082700 0.398900
vn 0.951800 -0.086900 0.294000
vn 0.672700 -0.089600 0.734400
vn 0.558800 -0.183100 0.808800
vn 0.531800 -0.214300 0.819300
vn 0.620100 -0.172100 0.765400
vn 0.426600 -0.186000 -0.885100
vn 0.288800 -0.559900 -0.776600
vn 0.477500 -0.038500 -0.877800
vn 0.951800 -0.086900 0.294000
vn -0.092900 -0.995600 -0.007500
vn -0.532700 -0.808500 0.250100
vn 0.178300 -0.979400 -0.094900
vn 0.531800 -0.214300 0.819300
vn -0.745200 0.239800 0.622200
vn -0.581300 0.517300 0.628100
vn -0.785900 0.032300 0.617500
vn 0.442100 -0.299900 0.845300
vn 0.407500 0.908200 -0.094700
vn 0.329100 0.793700 -0.511500
vn 0.250900 0.875500 0.412900
vn 0.973800 -0.138500 0.180400
vn 0.347100 0.569500 -0.745100
vn 0.380100 0.385100 -0.840900
vn 0.197400 -0.907800 -0.370000
vn -0.685800 -0.522400 0.506700
vn -0.700300 -0.394100 0.595200
vn -0.195600 0.725300 0.660000
vn -0.776100 -0.115200 0.620000
vn -0.752900 -0.199000 0.627300
vn 0.418500 0.247100 -0.874000
vn 0.450000 0.165900 -0.877400
vn 0.478300 0.084200 -0.874100
vn -0.724400 -0.279800 0.630100
vt 0.839504 0.118056
vt 0.856743 0.205307
vt 0.741230 0.205307
vt 0.734555 0.106726
vt 0.724541 0.032791
vt 0.813647 0.052618
vt 0.868992 0.081539
vt 0.913398 0.129584
vt 0.940923 0.205307
vt 0.839504 0.292557
vt 0.813647 0.357995
vt 0.724541 0.377822
vt 0.734555 0.303887
vt 0.913398 0.281029
vt 0.868992 0.329074
vt 0.369475 0.299954
vt 0.368286 0.370940
vt 0.245840 0.351447
vt 0.246397 0.288815
vt 0.246768 0.205307
vt 0.370268 0.205307
vt 0.494283 0.205307
vt 0.492822 0.304944
vt 0.490632 0.379672
vt 0.369475 0.110659
vt 0.246397 0.121798
vt 0.245841 0.059166
vt 0.368286 0.039673
vt 0.490632 0.030941
vt 0.492822 0.105669
vt 0.616755 0.103478
vt 0.619174 0.205307
vt 0.613127 0.027106
vt 0.616755 0.307135
vt 0.613126 0.383507
vt 0.123273 0.268175
vt 0.123047 0.315326
vt 0.054743 0.283353
vt 0.030912 0.249131
vt 0.030973 0.205306
vt 0.123423 0.205306
vt 0.123273 0.142438
vt 0.030912 0.161481
vt 0.054744 0.127260
vt 0.123047 0.095287
vt 0.839504 0.118056
vt 0.856743 0.205307
vt 0.968983 0.205307
vt 0.938030 0.133427
vt 0.876123 0.061548
vt 0.805028 0.030806
vt 0.721203 0.008146
vt 0.734555 0.106726
vt 0.741230 0.205307
vt 0.839504 0.292557
vt 0.805028 0.379807
vt 0.876123 0.349065
vt 0.938030 0.277186
vt 0.734555 0.303887
vt 0.721203 0.402467
vt 0.369475 0.299954
vt 0.367890 0.394602
vt 0.489902 0.404581
vt 0.492822 0.304944
vt 0.494283 0.205307
vt 0.370268 0.205307
vt 0.246768 0.205307
vt 0.246397 0.288815
vt 0.245655 0.372324
vt 0.369475 0.110659
vt 0.492822 0.105669
vt 0.489902 0.006032
vt 0.367890 0.016011
vt 0.245655 0.038289
vt 0.246397 0.121798
vt 0.616755 0.103478
vt 0.619174 0.205307
vt 0.611917 0.001649
vt 0.616755 0.307135
vt 0.611917 0.408964
vt 0.123273 0.268175
vt 0.122972 0.331043
vt 0.123423 0.205306
vt 0.000156 0.205306
vt 0.000125 0.242784
vt 0.000064 0.280261
vt 0.123273 0.142438
vt 0.122972 0.079570
vt 0.000064 0.130352
vt 0.000125 0.167829
vt 0.122972 0.331043
vt 0.030806 0.283587
vt 0.245655 0.372324
vt 0.030806 0.283587
vt 0.000125 0.167829
vt 0.030806 0.127026
vt 0.000156 0.205306
vt 0.030806 0.127026
vt 0.805028 0.030806
vt 0.873826 0.071832
vt 0.721203 0.008146
vt 0.873826 0.071832
vt 0.938030 0.277186
vt 0.873826 0.338781
vt 0.968983 0.205307
vt 0.873826 0.338781
vt 0.805028 0.379807
vt 0.721203 0.402467
vt 0.000125 0.242784
vt 0.122972 0.079570
vt 0.245655 0.038289
vt 0.938030 0.133427
vt 0.611917 0.001649
vt 0.489902 0.006032
vt 0.611917 0.408964
vt 0.489902 0.404581
vt 0.367890 0.394602
vt 0.367890 0.016011
f 1/1/1 2/2/2 3/3/3
f 1/1/1 3/3/3 4/4/4
f 1/1/1 4/4/4 5/5/5
f 1/1/1 5/5/5 6/6/6
f 1/1/1 6/6/6 7/7/7
f 1/1/1 7/7/7 8/8/8
f 1/1/1 8/8/8 9/9/9
f 1/1/1 9/9/9 2/2/2
f 10/10/10 11/11/11 12/12/12
f 10/10/10 12/12/12 13/13/13
f 10/10/10 13/13/13 3/3/3
f 10/10/10 3/3/3 2/2/2
f 10/10/10 2/2/2 9/9/9
f 10/10/10 9/9/9 14/14/14
f 10/10/10 14/14/14 15/15/15
f 10/10/10 15/15/15 11/11/11
f 16/16/16 17/17/17 18/18/18
f 16/16/16 18/18/18 19/19/19
f 16/16/16 19/19/19 20/20/20
f 16/16/16 20/20/20 21/21/21
f 16/16/16 21/21/21 22/22/22
f 16/16/16 22/22/22 23/23/23
f 16/16/16 23/23/23 24/24/24
f 16/16/16 24/24/24 17/17/17
f 25/25/25 21/21/21 20/20/20
f 25/25/25 20/20/20 26/26/26
f 25/25/25 26/26/26 27/27/27
f 25/25/25 27/27/27 28/28/28
f 25/25/25 28/28/28 29/29/29
f 25/25/25 29/29/29 30/30/30
f 25/25/25 30/30/30 22/22/22
f 25/25/25 22/22/22 21/21/21
f 31/31/31 32/32/32 22/22/22
f 31/31/31 22/22/22 30/30/30
f 31/31/31 30/30/30 29/29/29
f 31/31/31 29/29/29 33/33/33
f 31/31/31 33/33/33 5/5/5
f 31/31/31 5/5/5 4/4/4
f 31/31/31 4/4/4 3/3/3
f 31/31/31 3/3/3 32/32/32
f 34/34/34 35/35/35 24/24/24
f 34/34/34 24/24/24 23/23/23
f 34/34/34 23/23/23 22/22/22
f 34/34/34 22/22/22 32/32/32
f 34/34/34 32/32/32 3/3/3
f 34/34/34 3/3/3 13/13/13
f 34/34/34 13/13/13 12/12/12
f 34/34/34 12/12/12 35/35/35
f 36/36/36 37/37/37 38/38/38
f 36/36/36 38/38/38 39/39/39
f 36/36/36 39/39/39 40/40/40
f 36/36/36 40/40/40 41/41/41
f 36/36/36 41/41/41 20/20/20
f 36/36/36 20/20/20 19/19/19
f 36/36/36 19/19/19 18/18/18
f 36/36/36 18/18/18 37/37/37
f 42/42/42 41/41/41 40/40/40
f 42/42/42 40/40/40 43/43/43
f 42/42/42 43/43/43 44/44/44
f 42/42/42 44/44/44 45/45/45
f 42/42/42 45/45/45 27/27/27
f 42/42/42 27/27/27 26/26/26
f 42/42/42 26/26/26 20/20/20
f 42/42/42 20/20/20 41/41/41
f 46/46/46 47/47/47 48/48/48
f 46/46/46 48/48/48 49/49/49
f 46/46/46 49/49/49 50/50/50
f 46/46/46 50/50/50 51/51/51
f 46/46/46 51/51/51 52/52/52
f 46/46/46 52/52/52 53/53/53
f 46/46/46 53/53/53 54/54/54
f 46/46/46 54/54/54 47/47/47
f 55/55/55 56/56/56 57/57/57
f 55/55/55 57/57/57 58/58/58
f 55/55/55 58/58/58 48/48/48
f 55/55/55 48/48/48 47/47/47
f 55/55/55 47/47/47 54/54/54
f 55/55/55 54/54/54 59/59/59
f 55/55/55 59/59/59 60/60/60
f 55/55/55 60/60/60 56/56/56
f 61/61/61 62/62/62 63/63/63
f 61/61/61 63/63/63 64/64/64
f 61/61/61 64/64/64 65/65/65
f 61/61/61 65/65/65 66/66/66
f 61/61/61 66/66/66 67/67/67
f 61/61/61 67/67/67 68/68/68
f 61/61/61 68/68/68 69/69/69
f 61/61/61 69/69/69 62/62/62
f 70/70/70 66/66/66 65/65/65
f 70/70/70 65/65/65 71/71/71
f 70/70/70 71/71/71 72/72/72
f 70/70/70 72/72/72 73/73/73
f 70/70/70 73/73/73 74/74/74
f 70/70/70 74/74/74 75/75/75
f 70/70/70 75/75/75 67/67/67
f 70/70/70 67/67/67 66/66/66
f 76/76/76 77/77/77 54/54/54
f 76/76/76 54/54/54 53/53/53
f 76/76/76 53/53/53 52/52/52
f 76/76/76 52/52/52 78/78/78
f 76/76/76 78/78/78 72/72/72
f 76/76/76 72/72/72 71/71/71
f 76/76/76 71/71/71 65/65/65
f 76/76/76 65/65/65 77/77/77
f 79/79/79 80/80/80 60/60/60
f 79/79/79 60/60/60 59/59/59
f 79/79/79 59/59/59 54/54/54
f 79/79/79 54/54/54 77/77/77
f 79/79/79 77/77/77 65/65/65
f 79/79/79 65/65/65 64/64/64
f 79/79/79 64/64/64 63/63/63
f 79/79/79 63/63/63 80/80/80
f 81/81/81 82/82/82 69/69/69
f 81/81/81 69/69/69 68/68/68
f 81/81/81 68/68/68 67/67/67
f 81/81/81 67/67/67 83/83/83
f 81/81/81 83/83/83 84/84/84
f 81/81/81 84/84/84 85/85/85
f 81/81/81 85/85/85 86/86/86
f 81/81/81 86/86/86 82/82/82
f 87/87/87 83/83/83 67/67/67
f 87/87/87 67/67/67 75/75/75
f 87/87/87 75/75/75 74/74/74
f 87/87/87 74/74/74 88/88/88
f 87/87/87 88/88/88 89/89/89
f 87/87/87 89/89/89 90/90/90
f 87/87/87 90/90/90 84/84/84
f 87/87/87 84/84/84 83/83/83
f 91/91/91 92/92/92 38/38/38
f 91/91/91 38/38/38 37/37/37
f 91/91/91 37/37/37 18/18/18
f 91/91/91 18/18/18 93/93/93
f 91/91/91 93/93/93 69/69/69
f 91/91/91 69/69/69 82/82/82
f 91/91/91 82/82/82 94/94/94
f 91/91/91 94/94/94 92/92/92
f 95/95/95 96/96/96 44/44/44
f 95/95/95 44/44/44 43/43/43
f 95/95/95 43/43/43 40/40/40
f 95/95/95 40/40/40 97/97/97
f 95/95/95 97/97/97 84/84/84
f 95/95/95 84/84/84 90/90/90
f 95/95/95 90/90/90 98/98/98
f 95/95/95 98/98/98 96/96/96
f 99/99/99 100/100/100 7/7/7
f 99/99/99 7/7/7 6/6/6
f 99/99/99 6/6/6 5/5/5
f 99/99/99 5/5/5 101/101/101
f 99/99/99 101/101/101 52/52/52
f 99/99/99 52/52/52 51/51/51
f 99/99/99 51/51/51 102/102/102
f 99/99/99 102/102/102 100/100/100
f 103/103/103 104/104/104 15/15/15
f 103/103/103 15/15/15 14/14/14
f 103/103/103 14/14/14 9/9/9
f 103/103/103 9/9/9 105/105/105
f 103/103/103 105/105/105 48/48/48
f 103/103/103 48/48/48 58/58/58
f 103/103/103 58/58/58 106/106/106
f 103/103/103 106/106/106 104/104/104
f 107/107/107 108/108/108 12/12/12
f 107/107/107 12/12/12 11/11/11
f 107/107/107 11/11/11 15/15/15
f 107/107/107 15/15/15 104/104/104
f 107/107/107 104/104/104 106/106/106
f 107/107/107 106/106/106 56/56/56
f 107/107/107 56/56/56 60/60/60
f 107/107/107 60/60/60 108/108/108
f 109/109/109 97/97/97 40/40/40
f 109/109/109 40/40/40 39/39/39
f 109/109/109 39/39/39 38/38/38
f 109/109/109 38/38/38 92/92/92
f 109/109/109 92/92/92 94/94/94
f 109/109/109 94/94/94 85/85/85
f 109/109/109 85/85/85 84/84/84
f 109/109/109 84/84/84 97/97/97
f 110/110/110 111/111/111 27/27/27
f 110/110/110 27/27/27 45/45/45
f 110/110/110 45/45/45 44/44/44
f 110/110/110 44/44/44 96/96/96
f 110/110/110 96/96/96 98/98/98
f 110/110/110 98/98/98 88/88/88
f 110/110/110 88/88/88 74/74/74
f 110/110/110 74/74/74 111/111/111
f 112/112/112 105/105/105 9/9/9
f 112/112/112 9/9/9 8/8/8
f 112/112/112 8/8/8 7/7/7
f 112/112/112 7/7/7 100/100/100
f 112/112/112 100/100/100 102/102/102
f 112/112/112 102/102/102 49/49/49
f 112/112/112 49/49/49 48/48/48
f 112/112/112 48/48/48 105/105/105
f 113/113/113 101/101/101 5/5/5
f 113/113/113 5/5/5 33/33/33
f 113/113/113 33/33/33 29/29/29
f 113/113/113 29/29/29 114/114/114
f 113/113/113 114/114/114 72/72/72
f 113/113/113 72/72/72 78/78/78
f 113/113/113 78/78/78 52/52/52
f 113/113/113 52/52/52 101/101/101
f 115/115/115 116/116/116 24/24/24
f 115/115/115 24/24/24 35/35/35
f 115/115/115 35/35/35 12/12/12
f 115/115/115 12/12/12 108/108/108
f 115/115/115 108/108/108 60/60/60
f 115/115/115 60/60/60 80/80/80
f 115/115/115 80/80/80 63/63/63
f 115/115/115 63/63/63 116/116/116
f 117/117/117 93/93/93 18/18/18
f 117/117/117 18/18/18 17/17/17
f 117/117/117 17/17/17 24/24/24
f 117/117/117 24/24/24 116/116/116
f 117/117/117 116/116/116 63/63/63
f 117/117/117 63/63/63 62/62/62
f 117/117/117 62/62/62 69/69/69
f 117/117/117 69/69/69 93/93/93
f 118/118/118 114/114/114 29/29/29
f 118/118/118 29/29/29 28/28/28
f 118/118/118 28/28/28 27/27/27
f 118/118/118 27/27/27 111/111/111
f 118/118/118 111/111/111 74/74/74
f 118/118/118 74/74/74 73/73/73
f 118/118/118 73/73/73 72/72/72
f 118/118/118 72/72/72 114/114/114
