v -2.398057 0.745532 -1.111838
v -2.399936 0.745637 -1.112634
v -2.400256 0.743746 -1.110706
v -2.398080 0.743794 -1.110054
v -2.396474 0.743882 -1.109338
v -2.396695 0.745386 -1.110877
v -2.397175 0.746175 -1.112043
v -2.398105 0.746687 -1.113188
v -2.399693 0.746956 -1.114112
v -2.401967 0.745610 -1.112411
v -2.403552 0.745522 -1.111882
v -2.404263 0.744036 -1.110480
v -2.402524 0.743882 -1.110705
v -2.401489 0.746755 -1.113684
v -2.402728 0.746285 -1.112857
v -2.403337 0.736977 -1.105786
v -2.405001 0.737103 -1.105828
v -2.404799 0.734501 -1.104488
v -2.403324 0.734386 -1.104463
v -2.401380 0.734282 -1.104321
v -2.401139 0.736862 -1.105614
v -2.400876 0.739334 -1.107074
v -2.403177 0.739466 -1.107238
v -2.404922 0.739615 -1.107256
v -2.398982 0.736890 -1.105147
v -2.399474 0.734310 -1.103899
v -2.398051 0.734368 -1.103499
v -2.397372 0.736951 -1.104710
v -2.396941 0.739456 -1.106086
v -2.398622 0.739376 -1.106571
v -2.398295 0.741709 -1.108252
v -2.400576 0.741637 -1.108812
v -2.396599 0.741836 -1.107685
v -2.402916 0.741801 -1.108929
v -2.404698 0.741997 -1.108872
v -2.403068 0.731747 -1.103163
v -2.404176 0.731852 -1.103138
v -2.403545 0.730330 -1.102433
v -2.402784 0.729738 -1.102219
v -2.401781 0.729654 -1.102212
v -2.401612 0.731655 -1.103090
v -2.400194 0.731690 -1.102741
v -2.400815 0.729698 -1.101931
v -2.400002 0.730260 -1.101914
v -2.399137 0.731753 -1.102399
v -2.398008 0.745386 -1.111985
v -2.399917 0.745490 -1.112787
v -2.399679 0.746843 -1.114224
v -2.398067 0.746575 -1.113296
v -2.397141 0.746094 -1.112122
v -2.396644 0.745277 -1.110984
v -2.396426 0.743778 -1.109451
v -2.398034 0.743653 -1.110208
v -2.400236 0.743604 -1.110865
v -2.401977 0.745464 -1.112567
v -2.403574 0.745414 -1.112000
v -2.402741 0.746205 -1.112943
v -2.401499 0.746643 -1.113798
v -2.402530 0.743742 -1.110867
v -2.404281 0.743933 -1.110602
v -2.403331 0.736868 -1.105971
v -2.405006 0.737022 -1.105967
v -2.404929 0.739527 -1.107391
v -2.403173 0.739347 -1.107417
v -2.400852 0.739215 -1.107251
v -2.401114 0.736753 -1.105797
v -2.401354 0.734180 -1.104509
v -2.403318 0.734285 -1.104653
v -2.404804 0.734426 -1.104631
v -2.398939 0.736781 -1.105327
v -2.398578 0.739256 -1.106743
v -2.396898 0.739367 -1.106214
v -2.397330 0.736870 -1.104842
v -2.398008 0.734291 -1.103635
v -2.399430 0.734208 -1.104083
v -2.398250 0.741578 -1.108415
v -2.400554 0.741505 -1.108980
v -2.396554 0.741739 -1.107805
v -2.402917 0.741671 -1.109099
v -2.404710 0.741901 -1.109001
v -2.403063 0.731649 -1.103354
v -2.404182 0.731780 -1.103282
v -2.401587 0.731556 -1.103279
v -2.401761 0.729580 -1.102354
v -2.402781 0.729664 -1.102363
v -2.403547 0.730276 -1.102540
v -2.400149 0.731591 -1.102926
v -2.399093 0.731679 -1.102536
v -2.399972 0.730205 -1.102016
v -2.400780 0.729625 -1.102069
v -2.404550 0.731855 -1.103194
v -2.403593 0.729812 -1.102199
v -2.405294 0.734506 -1.104560
v -2.403547 0.730276 -1.102540
v -2.401006 0.729002 -1.101722
v -2.400043 0.729742 -1.101678
v -2.401828 0.728955 -1.101983
v -2.399972 0.730205 -1.102016
v -2.396215 0.745289 -1.110603
v -2.396937 0.746282 -1.112064
v -2.395915 0.743865 -1.109149
v -2.397141 0.746094 -1.112122
v -2.401335 0.747086 -1.114159
v -2.402945 0.746401 -1.112945
v -2.399606 0.747345 -1.114654
v -2.402741 0.746205 -1.112943
v -2.404094 0.745445 -1.111758
v -2.404854 0.744043 -1.110459
v -2.402688 0.729035 -1.101969
v -2.398762 0.731741 -1.102345
v -2.397556 0.734353 -1.103426
v -2.398104 0.747022 -1.113685
v -2.396011 0.741835 -1.107549
v -2.396359 0.739444 -1.105981
v -2.405299 0.742020 -1.108910
v -2.405509 0.739625 -1.107322
v -2.405560 0.737109 -1.105904
v -2.396814 0.736935 -1.104622
vn -0.299400 0.703400 0.644700
vn -0.084700 0.730800 0.677300
vn -0.091700 0.688600 0.719300
vn -0.284000 0.663200 0.692500
vn -0.277700 0.645400 0.711600
vn -0.291800 0.704200 0.647200
vn -0.299600 0.742600 0.598900
vn -0.249600 0.769700 0.587500
vn -0.073200 0.791300 0.607000
vn 0.128900 0.694800 0.707500
vn 0.121000 0.695900 0.707900
vn 0.086800 0.638200 0.764900
vn 0.098900 0.655500 0.748600
vn 0.100300 0.762700 0.638800
vn 0.143800 0.733700 0.664100
vn -0.009200 0.479400 0.877500
vn -0.046900 0.474400 0.879100
vn -0.052600 0.445900 0.893500
vn -0.004200 0.449500 0.893200
vn -0.121100 0.445900 0.886800
vn -0.117500 0.483600 0.867300
vn -0.109600 0.556700 0.823400
vn 0.011000 0.543600 0.839300
vn -0.017700 0.531200 0.847000
vn -0.224300 0.483700 0.846000
vn -0.234800 0.454100 0.859400
vn -0.188600 0.448700 0.873600
vn -0.188800 0.477200 0.858200
vn -0.205300 0.534900 0.819600
vn -0.230200 0.548400 0.803900
vn -0.252600 0.615800 0.746300
vn -0.100000 0.632600 0.768000
vn -0.239100 0.595900 0.766600
vn 0.051500 0.609700 0.790900
vn 0.032200 0.590600 0.806300
vn 0.020400 0.434800 0.900300
vn -0.031600 0.427300 0.903500
vn -0.001100 0.409800 0.912100
vn 0.037700 0.381200 0.923700
vn -0.127100 0.376000 0.917800
vn -0.122800 0.427800 0.895400
vn -0.260800 0.440400 0.859100
vn -0.286300 0.387700 0.876200
vn -0.244400 0.414700 0.876500
vn -0.212100 0.430900 0.877100
vn 0.328500 -0.682600 -0.652800
vn 0.086700 -0.719400 -0.689100
vn 0.094000 -0.673800 -0.732900
vn 0.413600 -0.617400 -0.669100
vn 0.520200 -0.566800 -0.638800
vn 0.498100 -0.581400 -0.643300
vn 0.436000 -0.597700 -0.672700
vn 0.298700 -0.660100 -0.689200
vn 0.091700 -0.688700 -0.719100
vn -0.153700 -0.673100 -0.723400
vn -0.315000 -0.565100 -0.762500
vn -0.336700 -0.549700 -0.764500
vn -0.227900 -0.604700 -0.763100
vn -0.113900 -0.651900 -0.749600
vn -0.247500 -0.584100 -0.773000
vn -0.007000 -0.479300 -0.877600
vn -0.119900 -0.475900 -0.871300
vn -0.136300 -0.519700 -0.843400
vn -0.026100 -0.542600 -0.839600
vn 0.109700 -0.556600 -0.823500
vn 0.117600 -0.483500 -0.867400
vn 0.121200 -0.445800 -0.886900
vn -0.015000 -0.451200 -0.892300
vn -0.144400 -0.470500 -0.870500
vn 0.239900 -0.484200 -0.841400
vn 0.244800 -0.547900 -0.799900
vn 0.352100 -0.529400 -0.771800
vn 0.346100 -0.485100 -0.803000
vn 0.369500 -0.480700 -0.795200
vn 0.252800 -0.456400 -0.853100
vn 0.266700 -0.614400 -0.742500
vn 0.100000 -0.632600 -0.768000
vn 0.384000 -0.576900 -0.720900
vn -0.066100 -0.607900 -0.791300
vn -0.183200 -0.565600 -0.804100
vn -0.047500 -0.450300 -0.891600
vn -0.201200 -0.492200 -0.846900
vn 0.121800 -0.438800 -0.890300
vn 0.117300 -0.486300 -0.865800
vn -0.126100 -0.504200 -0.854300
vn -0.234900 -0.509300 -0.827900
vn 0.283800 -0.456900 -0.843000
vn 0.416300 -0.504400 -0.756400
vn 0.442600 -0.522700 -0.728600
vn 0.346300 -0.513500 -0.785100
vn -0.951700 -0.222600 0.211500
vn -0.747600 -0.517800 0.415800
vn -0.987900 -0.111600 0.107700
vn -0.234900 -0.509300 -0.827900
vn 0.149900 -0.858600 0.490200
vn 0.576600 -0.543700 0.609800
vn -0.066200 -0.943400 0.324800
vn 0.442600 -0.522700 -0.728600
vn 0.888100 0.438000 0.139400
vn 0.777400 0.620400 -0.103200
vn 0.927800 0.267900 0.259700
vn 0.520200 -0.566800 -0.638800
vn -0.390600 0.663900 -0.637700
vn -0.690700 0.649500 -0.317900
vn 0.124800 0.630100 -0.766400
vn -0.336700 -0.549700 -0.764500
vn -0.872900 0.473300 -0.118700
vn -0.951800 0.306300 -0.016500
vn -0.317200 -0.849400 0.421700
vn 0.841800 -0.258200 0.474000
vn 0.910500 -0.149100 0.385700
vn 0.582700 0.644600 -0.494900
vn 0.940700 0.130600 0.312900
vn 0.944000 0.045000 0.326700
vn -0.985000 0.170000 0.030000
vn -0.995500 0.084000 0.042300
vn -0.998500 -0.002100 0.053800
vn 0.940300 -0.040400 0.337700
vt 0.839504 0.118056
vt 0.856743 0.205307
vt 0.741230 0.205307
vt 0.734555 0.106726
vt 0.724541 0.032791
vt 0.813647 0.052618
vt 0.868992 0.081539
vt 0.913398 0.129584
vt 0.940923 0.205307
vt 0.839504 0.292557
vt 0.813647 0.357995
vt 0.724541 0.377822
vt 0.734555 0.303887
vt 0.913398 0.281029
vt 0.868992 0.329074
vt 0.369475 0.299954
vt 0.368286 0.370940
vt 0.245840 0.351447
vt 0.246397 0.288815
vt 0.246768 0.205307
vt 0.370268 0.205307
vt 0.494283 0.205307
vt 0.492822 0.304944
vt 0.490632 0.379672
vt 0.369475 0.110659
vt 0.246397 0.121798
vt 0.245841 0.059166
vt 0.368286 0.039673
vt 0.490632 0.030941
vt 0.492822 0.105669
vt 0.616755 0.103478
vt 0.619174 0.205307
vt 0.613127 0.027106
vt 0.616755 0.307135
vt 0.613126 0.383507
vt 0.123273 0.268175
vt 0.123047 0.315326
vt 0.054743 0.283353
vt 0.030912 0.249131
vt 0.030973 0.205306
vt 0.123423 0.205306
vt 0.123273 0.142438
vt 0.030912 0.161481
vt 0.054744 0.127260
vt 0.123047 0.095287
vt 0.839504 0.118056
vt 0.856743 0.205307
vt 0.968983 0.205307
vt 0.938030 0.133427
vt 0.876123 0.061548
vt 0.805028 0.030806
vt 0.721203 0.008146
vt 0.734555 0.106726
vt 0.741230 0.205307
vt 0.839504 0.292557
vt 0.805028 0.379807
vt 0.876123 0.349065
vt 0.938030 0.277186
vt 0.734555 0.303887
vt 0.721203 0.402467
vt 0.369475 0.299954
vt 0.367890 0.394602
vt 0.489902 0.404581
vt 0.492822 0.304944
vt 0.494283 0.205307
vt 0.370268 0.205307
vt 0.246768 0.205307
vt 0.246397 0.288815
vt 0.245655 0.372324
vt 0.369475 0.110659
vt 0.492822 0.105669
vt 0.489902 0.006032
vt 0.367890 0.016011
vt 0.245655 0.038289
vt 0.246397 0.121798
vt 0.616755 0.103478
vt 0.619174 0.205307
vt 0.611917 0.001649
vt 0.616755 0.307135
vt 0.611917 0.408964
vt 0.123273 0.268175
vt 0.122972 0.331043
vt 0.123423 0.205306
vt 0.000156 0.205306
vt 0.000125 0.242784
vt 0.000064 0.280261
vt 0.123273 0.142438
vt 0.122972 0.079570
vt 0.000064 0.130352
vt 0.000125 0.167829
vt 0.122972 0.331043
vt 0.030806 0.283587
vt 0.245655 0.372324
vt 0.030806 0.283587
vt 0.000125 0.167829
vt 0.030806 0.127026
vt 0.000156 0.205306
vt 0.030806 0.127026
vt 0.805028 0.030806
vt 0.873826 0.071832
vt 0.721203 0.008146
vt 0.873826 0.071832
vt 0.938030 0.277186
vt 0.873826 0.338781
vt 0.968983 0.205307
vt 0.873826 0.338781
vt 0.805028 0.379807
vt 0.721203 0.402467
vt 0.000125 0.242784
vt 0.122972 0.079570
vt 0.245655 0.038289
vt 0.938030 0.133427
vt 0.611917 0.001649
vt 0.489902 0.006032
vt 0.611917 0.408964
vt 0.489902 0.404581
vt 0.367890 0.394602
vt 0.367890 0.016011
f 1/1/1 2/2/2 3/3/3
f 1/1/1 3/3/3 4/4/4
f 1/1/1 4/4/4 5/5/5
f 1/1/1 5/5/5 6/6/6
f 1/1/1 6/6/6 7/7/7
f 1/1/1 7/7/7 8/8/8
f 1/1/1 8/8/8 9/9/9
f 1/1/1 9/9/9 2/2/2
f 10/10/10 11/11/11 12/12/12
f 10/10/10 12/12/12 13/13/13
f 10/10/10 13/13/13 3/3/3
f 10/10/10 3/3/3 2/2/2
f 10/10/10 2/2/2 9/9/9
f 10/10/10 9/9/9 14/14/14
f 10/10/10 14/14/14 15/15/15
f 10/10/10 15/15/15 11/11/11
f 16/16/16 17/17/17 18/18/18
f 16/16/16 18/18/18 19/19/19
f 16/16/16 19/19/19 20/20/20
f 16/16/16 20/20/20 21/21/21
f 16/16/16 21/21/21 22/22/22
f 16/16/16 22/22/22 23/23/23
f 16/16/16 23/23/23 24/24/24
f 16/16/16 24/24/24 17/17/17
f 25/25/25 21/21/21 20/20/20
f 25/25/25 20/20/20 26/26/26
f 25/25/25 26/26/26 27/27/27
f 25/25/25 27/27/27 28/28/28
f 25/25/25 28/28/28 29/29/29
f 25/25/25 29/29/29 30/30/30
f 25/25/25 30/30/30 22/22/22
f 25/25/25 22/22/22 21/21/21
f 31/31/31 32/32/32 22/22/22
f 31/31/31 22/22/22 30/30/30
f 31/31/31 30/30/30 29/29/29
f 31/31/31 29/29/29 33/33/33
f 31/31/31 33/33/33 5/5/5
f 31/31/31 5/5/5 4/4/4
f 31/31/31 4/4/4 3/3/3
f 31/31/31 3/3/3 32/32/32
f 34/34/34 35/35/35 24/24/24
f 34/34/34 24/24/24 23/23/23
f 34/34/34 23/23/23 22/22/22
f 34/34/34 22/22/22 32/32/32
f 34/34/34 32/32/32 3/3/3
f 34/34/34 3/3/3 13/13/13
f 34/34/34 13/13/13 12/12/12
f 34/34/34 12/12/12 35/35/35
f 36/36/36 37/37/37 38/38/38
f 36/36/36 38/38/38 39/39/39
f 36/36/36 39/39/39 40/40/40
f 36/36/36 40/40/40 41/41/41
f 36/36/36 41/41/41 20/20/20
f 36/36/36 20/20/20 19/19/19
f 36/36/36 19/19/19 18/18/18
f 36/36/36 18/18/18 37/37/37
f 42/42/42 41/41/41 40/40/40
f 42/42/42 40/40/40 43/43/43
f 42/42/42 43/43/43 44/44/44
f 42/42/42 44/44/44 45/45/45
f 42/42/42 45/45/45 27/27/27
f 42/42/42 27/27/27 26/26/26
f 42/42/42 26/26/26 20/20/20
f 42/42/42 20/20/20 41/41/41
f 46/46/46 47/47/47 48/48/48
f 46/46/46 48/48/48 49/49/49
f 46/46/46 49/49/49 50/50/50
f 46/46/46 50/50/50 51/51/51
f 46/46/46 51/51/51 52/52/52
f 46/46/46 52/52/52 53/53/53
f 46/46/46 53/53/53 54/54/54
f 46/46/46 54/54/54 47/47/47
f 55/55/55 56/56/56 57/57/57
f 55/55/55 57/57/57 58/58/58
f 55/55/55 58/58/58 48/48/48
f 55/55/55 48/48/48 47/47/47
f 55/55/55 47/47/47 54/54/54
f 55/55/55 54/54/54 59/59/59
f 55/55/55 59/59/59 60/60/60
f 55/55/55 60/60/60 56/56/56
f 61/61/61 62/62/62 63/63/63
f 61/61/61 63/63/63 64/64/64
f 61/61/61 64/64/64 65/65/65
f 61/61/61 65/65/65 66/66/66
f 61/61/61 66/66/66 67/67/67
f 61/61/61 67/67/67 68/68/68
f 61/61/61 68/68/68 69/69/69
f 61/61/61 69/69/69 62/62/62
f 70/70/70 66/66/66 65/65/65
f 70/70/70 65/65/65 71/71/71
f 70/70/70 71/71/71 72/72/72
f 70/70/70 72/72/72 73/73/73
f 70/70/70 73/73/73 74/74/74
f 70/70/70 74/74/74 75/75/75
f 70/70/70 75/75/75 67/67/67
f 70/70/70 67/67/67 66/66/66
f 76/76/76 77/77/77 54/54/54
f 76/76/76 54/54/54 53/53/53
f 76/76/76 53/53/53 52/52/52
f 76/76/76 52/52/52 78/78/78
f 76/76/76 78/78/78 72/72/72
f 76/76/76 72/72/72 71/71/71
f 76/76/76 71/71/71 65/65/65
f 76/76/76 65/65/65 77/77/77
f 79/79/79 80/80/80 60/60/60
f 79/79/79 60/60/60 59/59/59
f 79/79/79 59/59/59 54/54/54
f 79/79/79 54/54/54 77/77/77
f 79/79/79 77/77/77 65/65/65
f 79/79/79 65/65/65 64/64/64
f 79/79/79 64/64/64 63/63/63
f 79/79/79 63/63/63 80/80/80
f 81/81/81 82/82/82 69/69/69
f 81/81/81 69/69/69 68/68/68
f 81/81/81 68/68/68 67/67/67
f 81/81/81 67/67/67 83/83/83
f 81/81/81 83/83/83 84/84/84
f 81/81/81 84/84/84 85/85/85
f 81/81/81 85/85/85 86/86/86
f 81/81/81 86/86/86 82/82/82
f 87/87/87 83/83/83 67/67/67
f 87/87/87 67/67/67 75/75/75
f 87/87/87 75/75/75 74/74/74
f 87/87/87 74/74/74 88/88/88
f 87/87/87 88/88/88 89/89/89
f 87/87/87 89/89/89 90/90/90
f 87/87/87 90/90/90 84/84/84
f 87/87/87 84/84/84 83/83/83
f 91/91/91 92/92/92 38/38/38
f 91/91/91 38/38/38 37/37/37
f 91/91/91 37/37/37 18/18/18
f 91/91/91 18/18/18 93/93/93
f 91/91/91 93/93/93 69/69/69
f 91/91/91 69/69/69 82/82/82
f 91/91/91 82/82/82 94/94/94
f 91/91/91 94/94/94 92/92/92
f 95/95/95 96/96/96 44/44/44
f 95/95/95 44/44/44 43/43/43
f 95/95/95 43/43/43 40/40/40
f 95/95/95 40/40/40 97/97/97
f 95/95/95 97/97/97 84/84/84
f 95/95/95 84/84/84 90/90/90
f 95/95/95 90/90/90 98/98/98
f 95/95/95 98/98/98 96/96/96
f 99/99/99 100/100/100 7/7/7
f 99/99/99 7/7/7 6/6/6
f 99/99/99 6/6/6 5/5/5
f 99/99/99 5/5/5 101/101/101
f 99/99/99 101/101/101 52/52/52
f 99/99/99 52/52/52 51/51/51
f 99/99/99 51/51/51 102/102/102
f 99/99/99 102/102/102 100/100/100
f 103/103/103 104/104/104 15/15/15
f 103/103/103 15/15/15 14/14/14
f 103/103/103 14/14/14 9/9/9
f 103/103/103 9/9/9 105/105/105
f 103/103/103 105/105/105 48/48/48
f 103/103/103 48/48/48 58/58/58
f 103/103/103 58/58/58 106/106/106
f 103/103/103 106/106/106 104/104/104
f 107/107/107 108/108/108 12/12/12
f 107/107/107 12/12/12 11/11/11
f 107/107/107 11/11/11 15/15/15
f 107/107/107 15/15/15 104/104/104
f 107/107/107 104/104/104 106/106/106
f 107/107/107 106/106/106 56/56/56
f 107/107/107 56/56/56 60/60/60
f 107/107/107 60/60/60 108/108/108
f 109/109/109 97/97/97 40/40/40
f 109/109/109 40/40/40 39/39/39
f 109/109/109 39/39/39 38/38/38
f 109/109/109 38/38/38 92/92/92
f 109/109/109 92/92/92 94/94/94
f 109/109/109 94/94/94 85/85/85
f 109/109/109 85/85/85 84/84/84
f 109/109/109 84/84/84 97/97/97
f 110/110/110 111/111/111 27/27/27
f 110/110/110 27/27/27 45/45/45
f 110/110/110 45/45/45 44/44/44
f 110/110/110 44/44/44 96/96/96
f 110/110/110 96/96/96 98/98/98
f 110/110/110 98/98/98 88/88/88
f 110/110/110 88/88/88 74/74/74
f 110/110/110 74/74/74 111/111/111
f 112/112/112 105/105/105 9/9/9
f 112/112/112 9/9/9 8/8/8
f 112/112/112 8/8/8 7/7/7
f 112/112/112 7/7/7 100/100/100
f 112/112/112 100/100/100 102/102/102
f 112/112/112 102/102/102 49/49/49
f 112/112/112 49/49/49 48/48/48
f 112/112/112 48/48/48 105/105/105
f 113/113/113 101/101/101 5/5/5
f 113/113/113 5/5/5 33/33/33
f 113/113/113 33/33/33 29/29/29
f 113/113/113 29/29/29 114/114/114
f 113/113/113 114/114/114 72/72/72
f 113/113/113 72/72/72 78/78/78
f 113/113/113 78/78/78 52/52/52
f 113/113/113 52/52/52 101/101/101
f 115/115/115 116/116/116 24/24/24
f 115/115/115 24/24/24 35/35/35
f 115/115/115 35/35/35 12/12/12
f 115/115/115 12/12/12 108/108/108
f 115/115/115 108/108/108 60/60/60
f 115/115/115 60/60/60 80/80/80
f 115/115/115 80/80/80 63/63/63
f 115/115/115 63/63/63 116/116/116
f 117/117/117 93/93/93 18/18/18
f 117/117/117 18/18/18 17/17/17
f 117/117/117 17/17/17 24/24/24
f 117/117/117 24/24/24 116/116/116
f 117/117/117 116/116/116 63/63/63
f 117/117/117 63/63/63 62/62/62
f 117/117/117 62/62/62 69/69/69
f 117/117/117 69/69/69 93/93/93
f 118/118/118 114/114/114 29/29/29
f 118/118/118 29/29/29 28/28/28
f 118/118/118 28/28/28 27/27/27
f 118/118/118 27/27/27 111/111/111
f 118/118/118 111/111/111 74/74/74
f 118/118/118 74/74/74 73/73/73
f 118/118/118 73/73/73 72/72/72
f 118/118/118 72/72/72 114/114/114
