v -2.383304 0.706105 -1.190799
v -2.381513 0.706448 -1.190004
v -2.381038 0.704320 -1.191508
v -2.383131 0.704133 -1.192199
v -2.384670 0.704004 -1.192943
v -2.384585 0.705723 -1.191730
v -2.384200 0.706708 -1.190740
v -2.383364 0.707448 -1.189709
v -2.381867 0.707953 -1.188829
v -2.379530 0.706494 -1.190158
v -2.377967 0.706405 -1.190606
v -2.377151 0.704779 -1.191667
v -2.378842 0.704575 -1.191471
v -2.380097 0.707785 -1.189155
v -2.378841 0.707260 -1.189830
v -2.377533 0.697159 -1.194940
v -2.375924 0.697378 -1.194877
v -2.375944 0.694647 -1.195706
v -2.377369 0.694451 -1.195750
v -2.379248 0.694220 -1.195920
v -2.379656 0.696899 -1.195144
v -2.380087 0.699503 -1.194189
v -2.377864 0.699784 -1.193993
v -2.376177 0.700025 -1.193955
v -2.381736 0.696726 -1.195654
v -2.381086 0.694068 -1.196381
v -2.382457 0.693975 -1.196812
v -2.383288 0.696620 -1.196127
v -2.383880 0.699231 -1.195263
v -2.382260 0.699331 -1.194739
v -2.382754 0.701838 -1.193551
v -2.380555 0.701991 -1.192940
v -2.384387 0.701767 -1.194161
v -2.378293 0.702297 -1.192793
v -2.376570 0.702572 -1.192834
v -2.377441 0.691687 -1.196536
v -2.376369 0.691844 -1.196549
v -2.376881 0.690231 -1.196972
v -2.377584 0.689585 -1.197093
v -2.378554 0.689449 -1.197112
v -2.378848 0.691506 -1.196629
v -2.380215 0.691401 -1.197007
v -2.379484 0.689389 -1.197416
v -2.380301 0.689879 -1.197552
v -2.381233 0.691343 -1.197374
v -2.383349 0.705988 -1.190633
v -2.381530 0.706332 -1.189833
v -2.381880 0.707864 -1.188702
v -2.383399 0.707358 -1.189587
v -2.384232 0.706641 -1.190650
v -2.384633 0.705635 -1.191610
v -2.384715 0.703922 -1.192819
v -2.383175 0.704023 -1.192029
v -2.381057 0.704211 -1.191331
v -2.379519 0.706383 -1.189983
v -2.377944 0.706324 -1.190474
v -2.378827 0.707198 -1.189733
v -2.380087 0.707699 -1.189025
v -2.378835 0.704470 -1.191292
v -2.377134 0.704703 -1.191531
v -2.377540 0.697088 -1.194744
v -2.375920 0.697326 -1.194729
v -2.376170 0.699965 -1.193810
v -2.377868 0.699702 -1.193801
v -2.380110 0.699418 -1.194000
v -2.379681 0.696825 -1.194951
v -2.379275 0.694154 -1.195723
v -2.377378 0.694387 -1.195551
v -2.375941 0.694600 -1.195556
v -2.381779 0.696651 -1.195464
v -2.382303 0.699245 -1.194554
v -2.383921 0.699166 -1.195126
v -2.383329 0.696562 -1.195987
v -2.382499 0.693924 -1.196670
v -2.381131 0.694000 -1.196188
v -2.382797 0.701739 -1.193372
v -2.380576 0.701894 -1.192757
v -2.384430 0.701692 -1.194030
v -2.378292 0.702203 -1.192608
v -2.376559 0.702504 -1.192694
v -2.377449 0.691626 -1.196337
v -2.376365 0.691800 -1.196398
v -2.378875 0.691443 -1.196432
v -2.378575 0.689402 -1.196964
v -2.377589 0.689540 -1.196943
v -2.376881 0.690198 -1.196860
v -2.380261 0.691336 -1.196814
v -2.381277 0.691294 -1.197232
v -2.380332 0.689842 -1.197446
v -2.379520 0.689341 -1.197271
v -2.376008 0.691877 -1.196486
v -2.376801 0.689698 -1.197104
v -2.375465 0.694691 -1.195625
v -2.376881 0.690198 -1.196860
v -2.379257 0.688697 -1.197487
v -2.380227 0.689345 -1.197685
v -2.378465 0.688743 -1.197207
v -2.380332 0.689842 -1.197446
v -2.385036 0.705556 -1.191988
v -2.384437 0.706800 -1.190745
v -2.385206 0.703925 -1.193137
v -2.384232 0.706641 -1.190650
v -2.380281 0.708176 -1.188763
v -2.378639 0.707398 -1.189760
v -2.381991 0.708415 -1.188382
v -2.378827 0.707198 -1.189733
v -2.377432 0.706340 -1.190697
v -2.376577 0.704814 -1.191672
v -2.377633 0.688865 -1.197212
v -2.381594 0.691301 -1.197434
v -2.382935 0.693921 -1.196893
v -2.383399 0.707855 -1.189292
v -2.384953 0.701710 -1.194307
v -2.384440 0.699169 -1.195377
v -2.375988 0.702634 -1.192785
v -2.375609 0.700079 -1.193878
v -2.375383 0.697428 -1.194790
v -2.383825 0.696558 -1.196223
vn 0.287500 0.592100 -0.752800
vn 0.073200 0.601200 -0.795700
vn 0.083800 0.552600 -0.829200
vn 0.276000 0.543200 -0.792900
vn 0.271200 0.522000 -0.808600
vn 0.279900 0.592000 -0.755700
vn 0.284000 0.639000 -0.714900
vn 0.232300 0.665000 -0.709800
vn 0.055900 0.672500 -0.737900
vn -0.137200 0.548300 -0.824900
vn -0.129200 0.549900 -0.825200
vn -0.090100 0.484700 -0.870000
vn -0.103700 0.504100 -0.857400
vn -0.114600 0.629100 -0.768800
vn -0.155600 0.593600 -0.789500
vn 0.017900 0.314100 -0.949200
vn 0.055800 0.311000 -0.948800
vn 0.063500 0.280800 -0.957600
vn 0.015000 0.281600 -0.959400
vn 0.131700 0.285900 -0.949200
vn 0.125400 0.326200 -0.936900
vn 0.112200 0.405400 -0.907200
vn -0.006900 0.382900 -0.923700
vn 0.022700 0.370900 -0.928400
vn 0.231200 0.336100 -0.913000
vn 0.243800 0.305200 -0.920600
vn 0.198400 0.294700 -0.934800
vn 0.196600 0.325500 -0.924800
vn 0.208700 0.390100 -0.896800
vn 0.232200 0.407500 -0.883100
vn 0.249000 0.485300 -0.838100
vn 0.096700 0.489300 -0.866700
vn 0.237300 0.461500 -0.854800
vn -0.052500 0.454200 -0.889300
vn -0.031600 0.433700 -0.900500
vn -0.008500 0.264500 -0.964300
vn 0.044100 0.259600 -0.964700
vn 0.014800 0.239200 -0.970800
vn -0.022200 0.206900 -0.978100
vn 0.142300 0.212000 -0.966800
vn 0.134500 0.266700 -0.954300
vn 0.270400 0.293300 -0.917000
vn 0.299100 0.239900 -0.923600
vn 0.255900 0.264000 -0.929900
vn 0.222800 0.278000 -0.934400
vn -0.317900 -0.571900 0.756100
vn -0.076100 -0.588100 0.805200
vn -0.087300 -0.535700 0.839900
vn -0.406800 -0.509800 0.758000
vn -0.514600 -0.471500 0.716100
vn -0.491900 -0.483800 0.723800
vn -0.430200 -0.491000 0.757500
vn -0.290700 -0.541700 0.788700
vn -0.083800 -0.552700 0.829100
vn 0.160200 -0.522700 0.837300
vn 0.314100 -0.400700 0.860700
vn 0.335100 -0.384000 0.860400
vn 0.229300 -0.444300 0.866000
vn 0.118400 -0.499600 0.858100
vn 0.247400 -0.421200 0.872600
vn -0.001700 -0.313100 0.949700
vn 0.111100 -0.304400 0.946000
vn 0.130500 -0.351500 0.927000
vn 0.021900 -0.381000 0.924300
vn -0.112200 -0.405300 0.907300
vn -0.125500 -0.326000 0.937000
vn -0.131700 -0.285700 0.949200
vn 0.004200 -0.282300 0.959300
vn 0.135100 -0.297900 0.945000
vn -0.246600 -0.338300 0.908100
vn -0.246700 -0.408600 0.878700
vn -0.353600 -0.401500 0.844800
vn -0.351200 -0.352100 0.867500
vn -0.374500 -0.350400 0.858500
vn -0.261200 -0.309700 0.914200
vn -0.263000 -0.485500 0.833700
vn -0.096700 -0.489300 0.866700
vn -0.381100 -0.459100 0.802500
vn 0.066900 -0.451500 0.889800
vn 0.181100 -0.401000 0.897900
vn 0.036700 -0.279800 0.959300
vn 0.193700 -0.320300 0.927300
vn -0.132800 -0.278300 0.951200
vn -0.125000 -0.329100 0.936000
vn 0.119400 -0.335000 0.934600
vn 0.229000 -0.338700 0.912600
vn -0.291800 -0.313700 0.903600
vn -0.418400 -0.383300 0.823300
vn -0.442600 -0.407900 0.798500
vn -0.349100 -0.383300 0.855100
vn 0.969100 -0.202700 -0.140700
vn 0.788100 -0.540600 -0.294200
vn 0.995600 -0.072800 -0.058000
vn 0.229000 -0.338700 0.912600
vn -0.088100 -0.939600 -0.330700
vn -0.524800 -0.676100 -0.517100
vn 0.125800 -0.981100 -0.146900
vn -0.442600 -0.407900 0.798500
vn -0.903300 0.354800 -0.241200
vn -0.811100 0.584000 -0.032400
vn -0.929700 0.164800 -0.329300
vn -0.514600 -0.471500 0.716100
vn 0.332300 0.788400 0.517700
vn 0.644600 0.733800 0.214500
vn -0.185100 0.749300 0.635800
vn 0.335100 -0.384000 0.860400
vn 0.843100 0.534800 0.055200
vn 0.934100 0.356800 -0.013100
vn 0.375900 -0.891700 -0.251900
vn -0.809500 -0.385600 -0.442600
vn -0.886800 -0.266600 -0.377500
vn -0.632300 0.689100 0.354000
vn -0.933800 0.019400 -0.357200
vn -0.932200 -0.067800 -0.355600
vn 0.975700 0.216500 -0.033100
vn 0.991000 0.130600 -0.029200
vn 0.998700 0.044700 -0.024900
vn -0.923700 -0.153200 -0.351000
vt 0.839504 0.118056
vt 0.856743 0.205307
vt 0.741230 0.205307
vt 0.734555 0.106726
vt 0.724541 0.032791
vt 0.813647 0.052618
vt 0.868992 0.081539
vt 0.913398 0.129584
vt 0.940923 0.205307
vt 0.839504 0.292557
vt 0.813647 0.357995
vt 0.724541 0.377822
vt 0.734555 0.303887
vt 0.913398 0.281029
vt 0.868992 0.329074
vt 0.369475 0.299954
vt 0.368286 0.370940
vt 0.245840 0.351447
vt 0.246397 0.288815
vt 0.246768 0.205307
vt 0.370268 0.205307
vt 0.494283 0.205307
vt 0.492822 0.304944
vt 0.490632 0.379672
vt 0.369475 0.110659
vt 0.246397 0.121798
vt 0.245841 0.059166
vt 0.368286 0.039673
vt 0.490632 0.030941
vt 0.492822 0.105669
vt 0.616755 0.103478
vt 0.619174 0.205307
vt 0.613127 0.027106
vt 0.616755 0.307135
vt 0.613126 0.383507
vt 0.123273 0.268175
vt 0.123047 0.315326
vt 0.054743 0.283353
vt 0.030912 0.249131
vt 0.030973 0.205306
vt 0.123423 0.205306
vt 0.123273 0.142438
vt 0.030912 0.161481
vt 0.054744 0.127260
vt 0.123047 0.095287
vt 0.839504 0.118056
vt 0.856743 0.205307
vt 0.968983 0.205307
vt 0.938030 0.133427
vt 0.876123 0.061548
vt 0.805028 0.030806
vt 0.721203 0.008146
vt 0.734555 0.106726
vt 0.741230 0.205307
vt 0.839504 0.292557
vt 0.805028 0.379807
vt 0.876123 0.349065
vt 0.938030 0.277186
vt 0.734555 0.303887
vt 0.721203 0.402467
vt 0.369475 0.299954
vt 0.367890 0.394602
vt 0.489902 0.404581
vt 0.492822 0.304944
vt 0.494283 0.205307
vt 0.370268 0.205307
vt 0.246768 0.205307
vt 0.246397 0.288815
vt 0.245655 0.372324
vt 0.369475 0.110659
vt 0.492822 0.105669
vt 0.489902 0.006032
vt 0.367890 0.016011
vt 0.245655 0.038289
vt 0.246397 0.121798
vt 0.616755 0.103478
vt 0.619174 0.205307
vt 0.611917 0.001649
vt 0.616755 0.307135
vt 0.611917 0.408964
vt 0.123273 0.268175
vt 0.122972 0.331043
vt 0.123423 0.205306
vt 0.000156 0.205306
vt 0.000125 0.242784
vt 0.000064 0.280261
vt 0.123273 0.142438
vt 0.122972 0.079570
vt 0.000064 0.130352
vt 0.000125 0.167829
vt 0.122972 0.331043
vt 0.030806 0.283587
vt 0.245655 0.372324
vt 0.030806 0.283587
vt 0.000125 0.167829
vt 0.030806 0.127026
vt 0.000156 0.205306
vt 0.030806 0.127026
vt 0.805028 0.030806
vt 0.873826 0.071832
vt 0.721203 0.008146
vt 0.873826 0.071832
vt 0.938030 0.277186
vt 0.873826 0.338781
vt 0.968983 0.205307
vt 0.873826 0.338781
vt 0.805028 0.379807
vt 0.721203 0.402467
vt 0.000125 0.242784
vt 0.122972 0.079570
vt 0.245655 0.038289
vt 0.938030 0.133427
vt 0.611917 0.001649
vt 0.489902 0.006032
vt 0.611917 0.408964
vt 0.489902 0.404581
vt 0.367890 0.394602
vt 0.367890 0.016011
f 1/1/1 2/2/2 3/3/3
f 1/1/1 3/3/3 4/4/4
f 1/1/1 4/4/4 5/5/5
f 1/1/1 5/5/5 6/6/6
f 1/1/1 6/6/6 7/7/7
f 1/1/1 7/7/7 8/8/8
f 1/1/1 8/8/8 9/9/9
f 1/1/1 9/9/9 2/2/2
f 10/10/10 11/11/11 12/12/12
f 10/10/10 12/12/12 13/13/13
f 10/10/10 13/13/13 3/3/3
f 10/10/10 3/3/3 2/2/2
f 10/10/10 2/2/2 9/9/9
f 10/10/10 9/9/9 14/14/14
f 10/10/10 14/14/14 15/15/15
f 10/10/10 15/15/15 11/11/11
f 16/16/16 17/17/17 18/18/18
f 16/16/16 18/18/18 19/19/19
f 16/16/16 19/19/19 20/20/20
f 16/16/16 20/20/20 21/21/21
f 16/16/16 21/21/21 22/22/22
f 16/16/16 22/22/22 23/23/23
f 16/16/16 23/23/23 24/24/24
f 16/16/16 24/24/24 17/17/17
f 25/25/25 21/21/21 20/20/20
f 25/25/25 20/20/20 26/26/26
f 25/25/25 26/26/26 27/27/27
f 25/25/25 27/27/27 28/28/28
f 25/25/25 28/28/28 29/29/29
f 25/25/25 29/29/29 30/30/30
f 25/25/25 30/30/30 22/22/22
f 25/25/25 22/22/22 21/21/21
f 31/31/31 32/32/32 22/22/22
f 31/31/31 22/22/22 30/30/30
f 31/31/31 30/30/30 29/29/29
f 31/31/31 29/29/29 33/33/33
f 31/31/31 33/33/33 5/5/5
f 31/31/31 5/5/5 4/4/4
f 31/31/31 4/4/4 3/3/3
f 31/31/31 3/3/3 32/32/32
f 34/34/34 35/35/35 24/24/24
f 34/34/34 24/24/24 23/23/23
f 34/34/34 23/23/23 22/22/22
f 34/34/34 22/22/22 32/32/32
f 34/34/34 32/32/32 3/3/3
f 34/34/34 3/3/3 13/13/13
f 34/34/34 13/13/13 12/12/12
f 34/34/34 12/12/12 35/35/35
f 36/36/36 37/37/37 38/38/38
f 36/36/36 38/38/38 39/39/39
f 36/36/36 39/39/39 40/40/40
f 36/36/36 40/40/40 41/41/41
f 36/36/36 41/41/41 20/20/20
f 36/36/36 20/20/20 19/19/19
f 36/36/36 19/19/19 18/18/18
f 36/36/36 18/18/18 37/37/37
f 42/42/42 41/41/41 40/40/40
f 42/42/42 40/40/40 43/43/43
f 42/42/42 43/43/43 44/44/44
f 42/42/42 44/44/44 45/45/45
f 42/42/42 45/45/45 27/27/27
f 42/42/42 27/27/27 26/26/26
f 42/42/42 26/26/26 20/20/20
f 42/42/42 20/20/20 41/41/41
f 46/46/46 47/47/47 48/48/48
f 46/46/46 48/48/48 49/49/49
f 46/46/46 49/49/49 50/50/50
f 46/46/46 50/50/50 51/51/51
f 46/46/46 51/51/51 52/52/52
f 46/46/46 52/52/52 53/53/53
f 46/46/46 53/53/53 54/54/54
f 46/46/46 54/54/54 47/47/47
f 55/55/55 56/56/56 57/57/57
f 55/55/55 57/57/57 58/58/58
f 55/55/55 58/58/58 48/48/48
f 55/55/55 48/48/48 47/47/47
f 55/55/55 47/47/47 54/54/54
f 55/55/55 54/54/54 59/59/59
f 55/55/55 59/59/59 60/60/60
f 55/55/55 60/60/60 56/56/56
f 61/61/61 62/62/62 63/63/63
f 61/61/61 63/63/63 64/64/64
f 61/61/61 64/64/64 65/65/65
f 61/61/61 65/65/65 66/66/66
f 61/61/61 66/66/66 67/67/67
f 61/61/61 67/67/67 68/68/68
f 61/61/61 68/68/68 69/69/69
f 61/61/61 69/69/69 62/62/62
f 70/70/70 66/66/66 65/65/65
f 70/70/70 65/65/65 71/71/71
f 70/70/70 71/71/71 72/72/72
f 70/70/70 72/72/72 73/73/73
f 70/70/70 73/73/73 74/74/74
f 70/70/70 74/74/74 75/75/75
f 70/70/70 75/75/75 67/67/67
f 70/70/70 67/67/67 66/66/66
f 76/76/76 77/77/77 54/54/54
f 76/76/76 54/54/54 53/53/53
f 76/76/76 53/53/53 52/52/52
f 76/76/76 52/52/52 78/78/78
f 76/76/76 78/78/78 72/72/72
f 76/76/76 72/72/72 71/71/71
f 76/76/76 71/71/71 65/65/65
f 76/76/76 65/65/65 77/77/77
f 79/79/79 80/80/80 60/60/60
f 79/79/79 60/60/60 59/59/59
f 79/79/79 59/59/59 54/54/54
f 79/79/79 54/54/54 77/77/77
f 79/79/79 77/77/77 65/65/65
f 79/79/79 65/65/65 64/64/64
f 79/79/79 64/64/64 63/63/63
f 79/79/79 63/63/63 80/80/80
f 81/81/81 82/82/82 69/69/69
f 81/81/81 69/69/69 68/68/68
f 81/81/81 68/68/68 67/67/67
f 81/81/81 67/67/67 83/83/83
f 81/81/81 83/83/83 84/84/84
f 81/81/81 84/84/84 85/85/85
f 81/81/81 85/85/85 86/86/86
f 81/81/81 86/86/86 82/82/82
f 87/87/87 83/83/83 67/67/67
f 87/87/87 67/67/67 75/75/75
f 87/87/87 75/75/75 74/74/74
f 87/87/87 74/74/74 88/88/88
f 87/87/87 88/88/88 89/89/89
f 87/87/87 89/89/89 90/90/90
f 87/87/87 90/90/90 84/84/84
f 87/87/87 84/84/84 83/83/83
f 91/91/91 92/92/92 38/38/38
f 91/91/91 38/38/38 37/37/37
f 91/91/91 37/37/37 18/18/18
f 91/91/91 18/18/18 93/93/93
f 91/91/91 93/93/93 69/69/69
f 91/91/91 69/69/69 82/82/82
f 91/91/91 82/82/82 94/94/94
f 91/91/91 94/94/94 92/92/92
f 95/95/95 96/96/96 44/44/44
f 95/95/95 44/44/44 43/43/43
f 95/95/95 43/43/43 40/40/40
f 95/95/95 40/40/40 97/97/97
f 95/95/95 97/97/97 84/84/84
f 95/95/95 84/84/84 90/90/90
f 95/95/95 90/90/90 98/98/98
f 95/95/95 98/98/98 96/96/96
f 99/99/99 100/100/100 7/7/7
f 99/99/99 7/7/7 6/6/6
f 99/99/99 6/6/6 5/5/5
f 99/99/99 5/5/5 101/101/101
f 99/99/99 101/101/101 52/52/52
f 99/99/99 52/52/52 51/51/51
f 99/99/99 51/51/51 102/102/102
f 99/99/99 102/102/102 100/100/100
f 103/103/103 104/104/104 15/15/15
f 103/103/103 15/15/15 14/14/14
f 103/103/103 14/14/14 9/9/9
f 103/103/103 9/9/9 105/105/105
f 103/103/103 105/105/105 48/48/48
f 103/103/103 48/48/48 58/58/58
f 103/103/103 58/58/58 106/106/106
f 103/103/103 106/106/106 104/104/104
f 107/107/107 108/108/108 12/12/12
f 107/107/107 12/12/12 11/11/11
f 107/107/107 11/11/11 15/15/15
f 107/107/107 15/15/15 104/104/104
f 107/107/107 104/104/104 106/106/106
f 107/107/107 106/106/106 56/56/56
f 107/107/107 56/56/56 60/60/60
f 107/107/107 60/60/60 108/108/108
f 109/109/109 97/97/97 40/40/40
f 109/109/109 40/40/40 39/39/39
f 109/109/109 39/39/39 38/38/38
f 109/109/109 38/38/38 92/92/92
f 109/109/109 92/92/92 94/94/94
f 109/109/109 94/94/94 85/85/85
f 109/109/109 85/85/85 84/84/84
f 109/109/109 84/84/84 97/97/97
f 110/110/110 111/111/111 27/27/27
f 110/110/110 27/27/27 45/45/45
f 110/110/110 45/45/45 44/44/44
f 110/110/110 44/44/44 96/96/96
f 110/110/110 96/96/96 98/98/98
f 110/110/110 98/98/98 88/88/88
f 110/110/110 88/88/88 74/74/74
f 110/110/110 74/74/74 111/111/111
f 112/112/112 105/105/105 9/9/9
f 112/112/112 9/9/9 8/8/8
f 112/112/112 8/8/8 7/7/7
f 112/112/112 7/7/7 100/100/100
f 112/112/112 100/100/100 102/102/102
f 112/112/112 102/102/102 49/49/49
f 112/112/112 49/49/49 48/48/48
f 112/112/112 48/48/48 105/105/105
f 113/113/113 101/101/101 5/5/5
f 113/113/113 5/5/5 33/33/33
f 113/113/113 33/33/33 29/29/29
f 113/113/113 29/29/29 114/114/114
f 113/113/113 114/114/114 72/72/72
f 113/113/113 72/72/72 78/78/78
f 113/113/113 78/78/78 52/52/52
f 113/113/113 52/52/52 101/101/101
f 115/115/115 116/116/116 24/24/24
f 115/115/115 24/24/24 35/35/35
f 115/115/115 35/35/35 12/12/12
f 115/115/115 12/12/12 108/108/108
f 115/115/115 108/108/108 60/60/60
f 115/115/115 60/60/60 80/80/80
f 115/115/115 80/80/80 63/63/63
f 115/115/115 63/63/63 116/116/116
f 117/117/117 93/93/93 18/18/18
f 117/117/117 18/18/18 17/17/17
f 117/117/117 17/17/17 24/24/24
f 117/117/117 24/24/24 116/116/116
f 117/117/117 116/116/116 63/63/63
f 117/117/117 63/63/63 62/62/62
f 117/117/117 62/62/62 69/69/69
f 117/117/117 69/69/69 93/93/93
f 118/118/118 114/114/114 29/29/29
f 118/118/118 29/29/29 28/28/28
f 118/118/118 28/28/28 27/27/27
f 118/118/118 27/27/27 111/111/111
f 118/118/118 111/111/111 74/74/74
f 118/118/118 74/74/74 73/73/73
f 118/118/118 73/73/73 72/72/72
f 118/118/118 72/72/72 114/114/114
