v -2.379258 0.719030 -1.100224
v -2.379192 0.718793 -1.098198
v -2.377075 0.717290 -1.099000
v -2.377415 0.717678 -1.101210
v -2.377464 0.718061 -1.102926
v -2.378952 0.719207 -1.101858
v -2.379900 0.719704 -1.100827
v -2.380602 0.719890 -1.099447
v -2.380795 0.719816 -1.097603
v -2.378132 0.718609 -1.096463
v -2.376977 0.718470 -1.095262
v -2.375221 0.717223 -1.095433
v -2.376136 0.717200 -1.096935
v -2.379628 0.719526 -1.096192
v -2.378302 0.719107 -1.095486
v -2.370455 0.711341 -1.099338
v -2.369807 0.711291 -1.097802
v -2.368341 0.709035 -1.098960
v -2.368925 0.709072 -1.100317
v -2.369604 0.709190 -1.102141
v -2.371212 0.711479 -1.101404
v -2.372965 0.713632 -1.100639
v -2.372159 0.713502 -1.098480
v -2.371459 0.713472 -1.096877
v -2.371708 0.711809 -1.103527
v -2.370034 0.709486 -1.104020
v -2.370284 0.709760 -1.105451
v -2.372004 0.712112 -1.105140
v -2.373757 0.714330 -1.104554
v -2.373471 0.713992 -1.102861
v -2.375429 0.715973 -1.102089
v -2.374959 0.715570 -1.099825
v -2.375654 0.716374 -1.103820
v -2.374099 0.715477 -1.097643
v -2.373323 0.715503 -1.096030
v -2.367512 0.706776 -1.101514
v -2.367037 0.706775 -1.100509
v -2.366466 0.705489 -1.101616
v -2.366515 0.705028 -1.102487
v -2.366921 0.705047 -1.103408
v -2.368048 0.706844 -1.102869
v -2.368339 0.707085 -1.104278
v -2.367082 0.705240 -1.104381
v -2.367486 0.705870 -1.105024
v -2.368487 0.707317 -1.105356
v -2.379390 0.718863 -1.100234
v -2.379317 0.718621 -1.098180
v -2.380887 0.719686 -1.097591
v -2.380699 0.719763 -1.099457
v -2.379974 0.719612 -1.100840
v -2.379054 0.719085 -1.101880
v -2.377571 0.717942 -1.102942
v -2.377553 0.717516 -1.101214
v -2.377206 0.717124 -1.098979
v -2.378247 0.718436 -1.096417
v -2.377059 0.718340 -1.095214
v -2.378362 0.719010 -1.095454
v -2.379711 0.719394 -1.096156
v -2.376259 0.717032 -1.096889
v -2.375309 0.717097 -1.095386
v -2.370608 0.711200 -1.099288
v -2.369919 0.711185 -1.097755
v -2.371565 0.713359 -1.096832
v -2.372304 0.713352 -1.098432
v -2.373117 0.713484 -1.100610
v -2.371371 0.711339 -1.101372
v -2.369769 0.709057 -1.102107
v -2.369084 0.708938 -1.100264
v -2.368457 0.708933 -1.098912
v -2.371872 0.711672 -1.103513
v -2.373627 0.713846 -1.102852
v -2.373877 0.714223 -1.104556
v -2.372129 0.712010 -1.105139
v -2.370413 0.709664 -1.105448
v -2.370203 0.709356 -1.104004
v -2.375577 0.715819 -1.102086
v -2.375101 0.715411 -1.099800
v -2.375768 0.716260 -1.103829
v -2.374233 0.715317 -1.097597
v -2.373420 0.715383 -1.095984
v -2.367672 0.706644 -1.101460
v -2.367153 0.706675 -1.100458
v -2.368215 0.706713 -1.102834
v -2.367046 0.704949 -1.103381
v -2.366635 0.704929 -1.102446
v -2.366553 0.705416 -1.101581
v -2.368511 0.706958 -1.104263
v -2.368618 0.707223 -1.105354
v -2.367582 0.705800 -1.105020
v -2.367211 0.705144 -1.104370
v -2.366929 0.706730 -1.100149
v -2.366166 0.705025 -1.101754
v -2.368197 0.708977 -1.098484
v -2.366553 0.705416 -1.101581
v -2.366720 0.704582 -1.104411
v -2.367188 0.705407 -1.105169
v -2.366601 0.704405 -1.103575
v -2.367582 0.705800 -1.105020
v -2.378896 0.719213 -1.102415
v -2.380034 0.719827 -1.101015
v -2.377528 0.718136 -1.103508
v -2.379974 0.719612 -1.100840
v -2.380163 0.719773 -1.096085
v -2.378304 0.719181 -1.095236
v -2.381370 0.720099 -1.097400
v -2.378362 0.719010 -1.095454
v -2.376627 0.718366 -1.094837
v -2.374954 0.717175 -1.094909
v -2.366236 0.704401 -1.102793
v -2.368595 0.707352 -1.105716
v -2.370425 0.709809 -1.105928
v -2.381093 0.720120 -1.099193
v -2.375781 0.716458 -1.104403
v -2.373906 0.714395 -1.105121
v -2.373106 0.715459 -1.095469
v -2.371272 0.713412 -1.096321
v -2.369640 0.711228 -1.097267
v -2.372158 0.712168 -1.105680
vn 0.609000 0.782000 0.132400
vn 0.543900 0.836300 -0.069300
vn 0.590100 0.802600 -0.086900
vn 0.650800 0.753600 0.092600
vn 0.667700 0.740500 0.076300
vn 0.608200 0.783900 0.124700
vn 0.562900 0.811300 0.157600
vn 0.527700 0.840600 0.121700
vn 0.467800 0.882900 -0.041300
vn 0.485600 0.828100 -0.280100
vn 0.489100 0.828500 -0.272800
vn 0.562600 0.779800 -0.274600
vn 0.540400 0.794800 -0.276100
vn 0.426800 0.878400 -0.215200
vn 0.434900 0.859200 -0.269400
vn 0.725500 0.637200 -0.260000
vn 0.743400 0.628900 -0.227500
vn 0.762700 0.603300 -0.233000
vn 0.741500 0.611600 -0.275900
vn 0.785600 0.595300 -0.168600
vn 0.761500 0.628700 -0.157600
vn 0.708900 0.692300 -0.134800
vn 0.673900 0.694400 -0.252100
vn 0.694800 0.681000 -0.231400
vn 0.787500 0.614000 -0.052900
vn 0.808000 0.586700 -0.053800
vn 0.801800 0.588700 -0.102100
vn 0.784300 0.613600 -0.090900
vn 0.748900 0.660800 -0.050700
vn 0.743400 0.668500 -0.019800
vn 0.692200 0.720800 0.034800
vn 0.644900 0.756500 -0.108400
vn 0.707300 0.706700 0.011100
vn 0.604500 0.753600 -0.258100
vn 0.629100 0.736000 -0.249900
vn 0.739400 0.601000 -0.303300
vn 0.765300 0.589300 -0.258900
vn 0.762400 0.577000 -0.292800
vn 0.760300 0.555000 -0.337400
vn 0.825300 0.532600 -0.187500
vn 0.796500 0.579200 -0.173700
vn 0.820500 0.570700 -0.032600
vn 0.853600 0.520300 -0.025400
vn 0.832500 0.550800 -0.058500
vn 0.817300 0.569800 -0.085200
vn -0.631300 -0.760500 -0.151900
vn -0.556800 -0.827300 0.074200
vn -0.605300 -0.790500 0.092800
vn -0.690700 -0.691700 -0.210900
vn -0.715400 -0.625800 -0.310500
vn -0.708200 -0.643000 -0.291400
vn -0.706100 -0.670900 -0.226200
vn -0.654400 -0.748500 -0.106700
vn -0.590000 -0.802700 0.086900
vn -0.492400 -0.812400 0.312400
vn -0.473800 -0.730600 0.491600
vn -0.468400 -0.718100 0.514600
vn -0.505900 -0.760700 0.406700
vn -0.535500 -0.792900 0.290600
vn -0.509200 -0.744400 0.431900
vn -0.718700 -0.638700 0.274800
vn -0.665900 -0.645200 0.374500
vn -0.628100 -0.684200 0.370600
vn -0.668000 -0.695000 0.266000
vn -0.709000 -0.692100 0.134800
vn -0.761600 -0.628600 0.157700
vn -0.785700 -0.595200 0.168600
vn -0.732400 -0.614800 0.292500
vn -0.655600 -0.642200 0.397200
vn -0.789800 -0.612100 0.037000
vn -0.746100 -0.665800 0.005200
vn -0.768800 -0.631600 -0.099500
vn -0.800200 -0.595100 -0.074300
vn -0.803700 -0.586900 -0.097800
vn -0.809500 -0.586000 0.034700
vn -0.694900 -0.717400 -0.048800
vn -0.644900 -0.756600 0.108400
vn -0.730200 -0.665000 -0.156600
vn -0.599000 -0.753300 0.271600
vn -0.566700 -0.726100 0.389400
vn -0.718000 -0.617100 0.321800
vn -0.607500 -0.664500 0.435100
vn -0.789900 -0.589000 0.170600
vn -0.759700 -0.631000 0.156900
vn -0.644200 -0.670200 0.368600
vn -0.573800 -0.681000 0.455000
vn -0.813600 -0.581500 0.002700
vn -0.785400 -0.598100 -0.159400
vn -0.769000 -0.608000 -0.197300
vn -0.780300 -0.619400 -0.086400
vn 0.621300 -0.269900 0.735600
vn 0.758400 -0.498200 0.420100
vn 0.528600 -0.184900 0.828500
vn -0.573800 -0.681000 0.455000
vn 0.492300 -0.728100 -0.476900
vn 0.376800 -0.355200 -0.855500
vn 0.446800 -0.864500 -0.230300
vn -0.769000 -0.608000 -0.197300
vn -0.308800 0.541800 -0.781700
vn -0.504300 0.662200 -0.554200
vn -0.195300 0.403300 -0.893900
vn -0.715400 -0.625800 -0.310500
vn -0.496500 0.485700 0.719400
vn -0.081300 0.504000 0.859800
vn -0.824900 0.478700 0.300500
vn -0.468400 -0.718100 0.514600
vn 0.198400 0.352500 0.914500
vn 0.346000 0.201500 0.916300
vn 0.627000 -0.778500 -0.026700
vn 0.104200 -0.076700 -0.991600
vn -0.018600 0.019200 -0.999600
vn -0.777200 0.590400 -0.217600
vn -0.134600 0.281000 -0.950200
vn -0.112100 0.200700 -0.973200
vn 0.420100 0.074200 0.904400
vn 0.446900 -0.008300 0.894500
vn 0.469900 -0.089600 0.878100
vn -0.089000 0.119000 -0.988900
vt 0.839504 0.118056
vt 0.856743 0.205307
vt 0.741230 0.205307
vt 0.734555 0.106726
vt 0.724541 0.032791
vt 0.813647 0.052618
vt 0.868992 0.081539
vt 0.913398 0.129584
vt 0.940923 0.205307
vt 0.839504 0.292557
vt 0.813647 0.357995
vt 0.724541 0.377822
vt 0.734555 0.303887
vt 0.913398 0.281029
vt 0.868992 0.329074
vt 0.369475 0.299954
vt 0.368286 0.370940
vt 0.245840 0.351447
vt 0.246397 0.288815
vt 0.246768 0.205307
vt 0.370268 0.205307
vt 0.494283 0.205307
vt 0.492822 0.304944
vt 0.490632 0.379672
vt 0.369475 0.110659
vt 0.246397 0.121798
vt 0.245841 0.059166
vt 0.368286 0.039673
vt 0.490632 0.030941
vt 0.492822 0.105669
vt 0.616755 0.103478
vt 0.619174 0.205307
vt 0.613127 0.027106
vt 0.616755 0.307135
vt 0.613126 0.383507
vt 0.123273 0.268175
vt 0.123047 0.315326
vt 0.054743 0.283353
vt 0.030912 0.249131
vt 0.030973 0.205306
vt 0.123423 0.205306
vt 0.123273 0.142438
vt 0.030912 0.161481
vt 0.054744 0.127260
vt 0.123047 0.095287
vt 0.839504 0.118056
vt 0.856743 0.205307
vt 0.968983 0.205307
vt 0.938030 0.133427
vt 0.876123 0.061548
vt 0.805028 0.030806
vt 0.721203 0.008146
vt 0.734555 0.106726
vt 0.741230 0.205307
vt 0.839504 0.292557
vt 0.805028 0.379807
vt 0.876123 0.349065
vt 0.938030 0.277186
vt 0.734555 0.303887
vt 0.721203 0.402467
vt 0.369475 0.299954
vt 0.367890 0.394602
vt 0.489902 0.404581
vt 0.492822 0.304944
vt 0.494283 0.205307
vt 0.370268 0.205307
vt 0.246768 0.205307
vt 0.246397 0.288815
vt 0.245655 0.372324
vt 0.369475 0.110659
vt 0.492822 0.105669
vt 0.489902 0.006032
vt 0.367890 0.016011
vt 0.245655 0.038289
vt 0.246397 0.121798
vt 0.616755 0.103478
vt 0.619174 0.205307
vt 0.611917 0.001649
vt 0.616755 0.307135
vt 0.611917 0.408964
vt 0.123273 0.268175
vt 0.122972 0.331043
vt 0.123423 0.205306
vt 0.000156 0.205306
vt 0.000125 0.242784
vt 0.000064 0.280261
vt 0.123273 0.142438
vt 0.122972 0.079570
vt 0.000064 0.130352
vt 0.000125 0.167829
vt 0.122972 0.331043
vt 0.030806 0.283587
vt 0.245655 0.372324
vt 0.030806 0.283587
vt 0.000125 0.167829
vt 0.030806 0.127026
vt 0.000156 0.205306
vt 0.030806 0.127026
vt 0.805028 0.030806
vt 0.873826 0.071832
vt 0.721203 0.008146
vt 0.873826 0.071832
vt 0.938030 0.277186
vt 0.873826 0.338781
vt 0.968983 0.205307
vt 0.873826 0.338781
vt 0.805028 0.379807
vt 0.721203 0.402467
vt 0.000125 0.242784
vt 0.122972 0.079570
vt 0.245655 0.038289
vt 0.938030 0.133427
vt 0.611917 0.001649
vt 0.489902 0.006032
vt 0.611917 0.408964
vt 0.489902 0.404581
vt 0.367890 0.394602
vt 0.367890 0.016011
f 1/1/1 2/2/2 3/3/3
f 1/1/1 3/3/3 4/4/4
f 1/1/1 4/4/4 5/5/5
f 1/1/1 5/5/5 6/6/6
f 1/1/1 6/6/6 7/7/7
f 1/1/1 7/7/7 8/8/8
f 1/1/1 8/8/8 9/9/9
f 1/1/1 9/9/9 2/2/2
f 10/10/10 11/11/11 12/12/12
f 10/10/10 12/12/12 13/13/13
f 10/10/10 13/13/13 3/3/3
f 10/10/10 3/3/3 2/2/2
f 10/10/10 2/2/2 9/9/9
f 10/10/10 9/9/9 14/14/14
f 10/10/10 14/14/14 15/15/15
f 10/10/10 15/15/15 11/11/11
f 16/16/16 17/17/17 18/18/18
f 16/16/16 18/18/18 19/19/19
f 16/16/16 19/19/19 20/20/20
f 16/16/16 20/20/20 21/21/21
f 16/16/16 21/21/21 22/22/22
f 16/16/16 22/22/22 23/23/23
f 16/16/16 23/23/23 24/24/24
f 16/16/16 24/24/24 17/17/17
f 25/25/25 21/21/21 20/20/20
f 25/25/25 20/20/20 26/26/26
f 25/25/25 26/26/26 27/27/27
f 25/25/25 27/27/27 28/28/28
f 25/25/25 28/28/28 29/29/29
f 25/25/25 29/29/29 30/30/30
f 25/25/25 30/30/30 22/22/22
f 25/25/25 22/22/22 21/21/21
f 31/31/31 32/32/32 22/22/22
f 31/31/31 22/22/22 30/30/30
f 31/31/31 30/30/30 29/29/29
f 31/31/31 29/29/29 33/33/33
f 31/31/31 33/33/33 5/5/5
f 31/31/31 5/5/5 4/4/4
f 31/31/31 4/4/4 3/3/3
f 31/31/31 3/3/3 32/32/32
f 34/34/34 35/35/35 24/24/24
f 34/34/34 24/24/24 23/23/23
f 34/34/34 23/23/23 22/22/22
f 34/34/34 22/22/22 32/32/32
f 34/34/34 32/32/32 3/3/3
f 34/34/34 3/3/3 13/13/13
f 34/34/34 13/13/13 12/12/12
f 34/34/34 12/12/12 35/35/35
f 36/36/36 37/37/37 38/38/38
f 36/36/36 38/38/38 39/39/39
f 36/36/36 39/39/39 40/40/40
f 36/36/36 40/40/40 41/41/41
f 36/36/36 41/41/41 20/20/20
f 36/36/36 20/20/20 19/19/19
f 36/36/36 19/19/19 18/18/18
f 36/36/36 18/18/18 37/37/37
f 42/42/42 41/41/41 40/40/40
f 42/42/42 40/40/40 43/43/43
f 42/42/42 43/43/43 44/44/44
f 42/42/42 44/44/44 45/45/45
f 42/42/42 45/45/45 27/27/27
f 42/42/42 27/27/27 26/26/26
f 42/42/42 26/26/26 20/20/20
f 42/42/42 20/20/20 41/41/41
f 46/46/46 47/47/47 48/48/48
f 46/46/46 48/48/48 49/49/49
f 46/46/46 49/49/49 50/50/50
f 46/46/46 50/50/50 51/51/51
f 46/46/46 51/51/51 52/52/52
f 46/46/46 52/52/52 53/53/53
f 46/46/46 53/53/53 54/54/54
f 46/46/46 54/54/54 47/47/47
f 55/55/55 56/56/56 57/57/57
f 55/55/55 57/57/57 58/58/58
f 55/55/55 58/58/58 48/48/48
f 55/55/55 48/48/48 47/47/47
f 55/55/55 47/47/47 54/54/54
f 55/55/55 54/54/54 59/59/59
f 55/55/55 59/59/59 60/60/60
f 55/55/55 60/60/60 56/56/56
f 61/61/61 62/62/62 63/63/63
f 61/61/61 63/63/63 64/64/64
f 61/61/61 64/64/64 65/65/65
f 61/61/61 65/65/65 66/66/66
f 61/61/61 66/66/66 67/67/67
f 61/61/61 67/67/67 68/68/68
f 61/61/61 68/68/68 69/69/69
f 61/61/61 69/69/69 62/62/62
f 70/70/70 66/66/66 65/65/65
f 70/70/70 65/65/65 71/71/71
f 70/70/70 71/71/71 72/72/72
f 70/70/70 72/72/72 73/73/73
f 70/70/70 73/73/73 74/74/74
f 70/70/70 74/74/74 75/75/75
f 70/70/70 75/75/75 67/67/67
f 70/70/70 67/67/67 66/66/66
f 76/76/76 77/77/77 54/54/54
f 76/76/76 54/54/54 53/53/53
f 76/76/76 53/53/53 52/52/52
f 76/76/76 52/52/52 78/78/78
f 76/76/76 78/78/78 72/72/72
f 76/76/76 72/72/72 71/71/71
f 76/76/76 71/71/71 65/65/65
f 76/76/76 65/65/65 77/77/77
f 79/79/79 80/80/80 60/60/60
f 79/79/79 60/60/60 59/59/59
f 79/79/79 59/59/59 54/54/54
f 79/79/79 54/54/54 77/77/77
f 79/79/79 77/77/77 65/65/65
f 79/79/79 65/65/65 64/64/64
f 79/79/79 64/64/64 63/63/63
f 79/79/79 63/63/63 80/80/80
f 81/81/81 82/82/82 69/69/69
f 81/81/81 69/69/69 68/68/68
f 81/81/81 68/68/68 67/67/67
f 81/81/81 67/67/67 83/83/83
f 81/81/81 83/83/83 84/84/84
f 81/81/81 84/84/84 85/85/85
f 81/81/81 85/85/85 86/86/86
f 81/81/81 86/86/86 82/82/82
f 87/87/87 83/83/83 67/67/67
f 87/87/87 67/67/67 75/75/75
f 87/87/87 75/75/75 74/74/74
f 87/87/87 74/74/74 88/88/88
f 87/87/87 88/88/88 89/89/89
f 87/87/87 89/89/89 90/90/90
f 87/87/87 90/90/90 84/84/84
f 87/87/87 84/84/84 83/83/83
f 91/91/91 92/92/92 38/38/38
f 91/91/91 38/38/38 37/37/37
f 91/91/91 37/37/37 18/18/18
f 91/91/91 18/18/18 93/93/93
f 91/91/91 93/93/93 69/69/69
f 91/91/91 69/69/69 82/82/82
f 91/91/91 82/82/82 94/94/94
f 91/91/91 94/94/94 92/92/92
f 95/95/95 96/96/96 44/44/44
f 95/95/95 44/44/44 43/43/43
f 95/95/95 43/43/43 40/40/40
f 95/95/95 40/40/40 97/97/97
f 95/95/95 97/97/97 84/84/84
f 95/95/95 84/84/84 90/90/90
f 95/95/95 90/90/90 98/98/98
f 95/95/95 98/98/98 96/96/96
f 99/99/99 100/100/100 7/7/7
f 99/99/99 7/7/7 6/6/6
f 99/99/99 6/6/6 5/5/5
f 99/99/99 5/5/5 101/101/101
f 99/99/99 101/101/101 52/52/52
f 99/99/99 52/52/52 51/51/51
f 99/99/99 51/51/51 102/102/102
f 99/99/99 102/102/102 100/100/100
f 103/103/103 104/104/104 15/15/15
f 103/103/103 15/15/15 14/14/14
f 103/103/103 14/14/14 9/9/9
f 103/103/103 9/9/9 105/105/105
f 103/103/103 105/105/105 48/48/48
f 103/103/103 48/48/48 58/58/58
f 103/103/103 58/58/58 106/106/106
f 103/103/103 106/106/106 104/104/104
f 107/107/107 108/108/108 12/12/12
f 107/107/107 12/12/12 11/11/11
f 107/107/107 11/11/11 15/15/15
f 107/107/107 15/15/15 104/104/104
f 107/107/107 104/104/104 106/106/106
f 107/107/107 106/106/106 56/56/56
f 107/107/107 56/56/56 60/60/60
f 107/107/107 60/60/60 108/108/108
f 109/109/109 97/97/97 40/40/40
f 109/109/109 40/40/40 39/39/39
f 109/109/109 39/39/39 38/38/38
f 109/109/109 38/38/38 92/92/92
f 109/109/109 92/92/92 94/94/94
f 109/109/109 94/94/94 85/85/85
f 109/109/109 85/85/85 84/84/84
f 109/109/109 84/84/84 97/97/97
f 110/110/110 111/111/111 27/27/27
f 110/110/110 27/27/27 45/45/45
f 110/110/110 45/45/45 44/44/44
f 110/110/110 44/44/44 96/96/96
f 110/110/110 96/96/96 98/98/98
f 110/110/110 98/98/98 88/88/88
f 110/110/110 88/88/88 74/74/74
f 110/110/110 74/74/74 111/111/111
f 112/112/112 105/105/105 9/9/9
f 112/112/112 9/9/9 8/8/8
f 112/112/112 8/8/8 7/7/7
f 112/112/112 7/7/7 100/100/100
f 112/112/112 100/100/100 102/102/102
f 112/112/112 102/102/102 49/49/49
f 112/112/112 49/49/49 48/48/48
f 112/112/112 48/48/48 105/105/105
f 113/113/113 101/101/101 5/5/5
f 113/113/113 5/5/5 33/33/33
f 113/113/113 33/33/33 29/29/29
f 113/113/113 29/29/29 114/114/114
f 113/113/113 114/114/114 72/72/72
f 113/113/113 72/72/72 78/78/78
f 113/113/113 78/78/78 52/52/52
f 113/113/113 52/52/52 101/101/101
f 115/115/115 116/116/116 24/24/24
f 115/115/115 24/24/24 35/35/35
f 115/115/115 35/35/35 12/12/12
f 115/115/115 12/12/12 108/108/108
f 115/115/115 108/108/108 60/60/60
f 115/115/115 60/60/60 80/80/80
f 115/115/115 80/80/80 63/63/63
f 115/115/115 63/63/63 116/116/116
f 117/117/117 93/93/93 18/18/18
f 117/117/117 18/18/18 17/17/17
f 117/117/117 17/17/17 24/24/24
f 117/117/117 24/24/24 116/116/116
f 117/117/117 116/116/116 63/63/63
f 117/117/117 63/63/63 62/62/62
f 117/117/117 62/62/62 69/69/69
f 117/117/117 69/69/69 93/93/93
f 118/118/118 114/114/114 29/29/29
f 118/118/118 29/29/29 28/28/28
f 118/118/118 28/28/28 27/27/27
f 118/118/118 27/27/27 111/111/111
f 118/118/118 111/111/111 74/74/74
f 118/118/118 74/74/74 73/73/73
f 118/118/118 73/73/73 72/72/72
f 118/118/118 72/72/72 114/114/114
