v -2.386835 0.735713 -1.066695
v -2.388311 0.735566 -1.064818
v -2.386200 0.733272 -1.064166
v -2.384799 0.733646 -1.066395
v -2.383501 0.733978 -1.067962
v -2.385330 0.735728 -1.067950
v -2.386807 0.736600 -1.067646
v -2.388393 0.737080 -1.066874
v -2.389927 0.737171 -1.065336
v -2.388679 0.735215 -1.062481
v -2.388564 0.734855 -1.060558
v -2.387173 0.732986 -1.059565
v -2.386894 0.733081 -1.061605
v -2.389989 0.736649 -1.063226
v -2.389426 0.735893 -1.061660
v -2.381475 0.724818 -1.060269
v -2.382034 0.724709 -1.058398
v -2.380417 0.721688 -1.058621
v -2.379937 0.721781 -1.060282
v -2.379181 0.721955 -1.062431
v -2.380608 0.725020 -1.062694
v -2.382217 0.727966 -1.063050
v -2.383107 0.727768 -1.060504
v -2.383663 0.727672 -1.058533
v -2.379422 0.725372 -1.064962
v -2.378121 0.722271 -1.064432
v -2.377235 0.722547 -1.065894
v -2.378436 0.725680 -1.066622
v -2.379900 0.728688 -1.067135
v -2.380959 0.728348 -1.065413
v -2.382796 0.731149 -1.065930
v -2.384125 0.730728 -1.063558
v -2.381639 0.731543 -1.067636
v -2.384975 0.730560 -1.060948
v -2.385458 0.730512 -1.058906
v -2.378347 0.718725 -1.060582
v -2.378660 0.718676 -1.059317
v -2.377647 0.716989 -1.060045
v -2.377163 0.716413 -1.060924
v -2.376848 0.716471 -1.062059
v -2.377819 0.718840 -1.062204
v -2.376992 0.719091 -1.063679
v -2.376235 0.716664 -1.063047
v -2.375976 0.717440 -1.063865
v -2.376284 0.719317 -1.064749
v -2.386985 0.735554 -1.066818
v -2.388475 0.735401 -1.064910
v -2.390048 0.737045 -1.065403
v -2.388502 0.736959 -1.066966
v -2.386885 0.736512 -1.067721
v -2.385434 0.735612 -1.068056
v -2.383611 0.733867 -1.068066
v -2.384956 0.733494 -1.066516
v -2.386371 0.733115 -1.064259
v -2.388856 0.735048 -1.062540
v -2.388702 0.734730 -1.060586
v -2.389526 0.735799 -1.061684
v -2.390120 0.736522 -1.063268
v -2.387076 0.732922 -1.061670
v -2.387316 0.732867 -1.059599
v -2.381681 0.724698 -1.060349
v -2.382192 0.724618 -1.058448
v -2.383816 0.727572 -1.058579
v -2.383306 0.727636 -1.060580
v -2.382407 0.727835 -1.063148
v -2.380805 0.724901 -1.062794
v -2.379383 0.721846 -1.062533
v -2.380147 0.721669 -1.060362
v -2.380579 0.721603 -1.058670
v -2.379610 0.725257 -1.065083
v -2.381139 0.728220 -1.065533
v -2.380029 0.728595 -1.067235
v -2.378572 0.725595 -1.066722
v -2.377375 0.722468 -1.065995
v -2.378314 0.722164 -1.064554
v -2.382965 0.731008 -1.066050
v -2.384305 0.730583 -1.063654
v -2.381759 0.731440 -1.067738
v -2.385165 0.730414 -1.061019
v -2.385605 0.730402 -1.058946
v -2.378560 0.718617 -1.060661
v -2.378823 0.718594 -1.059366
v -2.378023 0.718734 -1.062305
v -2.377001 0.716392 -1.062135
v -2.377323 0.716332 -1.060983
v -2.377767 0.716929 -1.060084
v -2.377186 0.718988 -1.063802
v -2.376423 0.719242 -1.064852
v -2.376081 0.717384 -1.063938
v -2.376379 0.716587 -1.063140
v -2.378837 0.718623 -1.058915
v -2.377389 0.716375 -1.060001
v -2.380650 0.721619 -1.058087
v -2.377767 0.716929 -1.060084
v -2.376046 0.715821 -1.062878
v -2.375715 0.716827 -1.063827
v -2.376592 0.715646 -1.062044
v -2.376081 0.717384 -1.063938
v -2.384873 0.735682 -1.068419
v -2.386760 0.736761 -1.067901
v -2.383116 0.734040 -1.068533
v -2.386885 0.736512 -1.067721
v -2.390483 0.737070 -1.063492
v -2.389593 0.735996 -1.061425
v -2.390519 0.737649 -1.065538
v -2.389526 0.735799 -1.061684
v -2.388588 0.734679 -1.059926
v -2.387331 0.732902 -1.058897
v -2.376840 0.715606 -1.061064
v -2.376108 0.719360 -1.065154
v -2.377001 0.722604 -1.066429
v -2.388960 0.737481 -1.066975
v -2.381305 0.731629 -1.068253
v -2.379603 0.728760 -1.067756
v -2.385685 0.730447 -1.058240
v -2.383917 0.727596 -1.057894
v -2.382291 0.724632 -1.057794
v -2.378167 0.725745 -1.067222
vn 0.534700 0.643500 0.547600
vn 0.621800 0.698300 0.354500
vn 0.661100 0.654700 0.366500
vn 0.585400 0.604700 0.540000
vn 0.605700 0.587500 0.536600
vn 0.539300 0.645300 0.541100
vn 0.490000 0.683400 0.541100
vn 0.491600 0.717200 0.493900
vn 0.556200 0.761300 0.333200
vn 0.707300 0.690100 0.153200
vn 0.705400 0.690200 0.161100
vn 0.752500 0.627100 0.201100
vn 0.739600 0.646400 0.187400
vn 0.632400 0.755300 0.171700
vn 0.668500 0.731700 0.132800
vn 0.838200 0.454700 0.301000
vn 0.829900 0.444700 0.336800
vn 0.842700 0.415400 0.342300
vn 0.855100 0.425400 0.296300
vn 0.818400 0.406600 0.406000
vn 0.800000 0.444900 0.402500
vn 0.758700 0.519300 0.393200
vn 0.805700 0.521900 0.280200
vn 0.805800 0.505600 0.308100
vn 0.751600 0.431300 0.499000
vn 0.762200 0.400300 0.508700
vn 0.788000 0.400600 0.467400
vn 0.772700 0.429300 0.467500
vn 0.730300 0.485200 0.480900
vn 0.708500 0.495700 0.502300
vn 0.646200 0.560700 0.517700
vn 0.706700 0.597000 0.379600
vn 0.669500 0.542400 0.507400
vn 0.768700 0.593800 0.237600
vn 0.778700 0.571900 0.257800
vn 0.868500 0.413900 0.272800
vn 0.858100 0.399500 0.322500
vn 0.874600 0.386100 0.293300
vn 0.896300 0.362600 0.255100
vn 0.847700 0.335900 0.410500
vn 0.826500 0.388300 0.407400
vn 0.755200 0.383400 0.531600
vn 0.765800 0.327400 0.553500
vn 0.776600 0.359800 0.517200
vn 0.785400 0.380000 0.488500
vn -0.535200 -0.619000 -0.574800
vn -0.632800 -0.686600 -0.357900
vn -0.673800 -0.639400 -0.370300
vn -0.529700 -0.542700 -0.651800
vn -0.473200 -0.479200 -0.739200
vn -0.483000 -0.496600 -0.721200
vn -0.527500 -0.520300 -0.671500
vn -0.578400 -0.599800 -0.552800
vn -0.661000 -0.654800 -0.366500
vn -0.729400 -0.671400 -0.130800
vn -0.810600 -0.585000 0.027400
vn -0.818400 -0.572500 0.049800
vn -0.788000 -0.612700 -0.061200
vn -0.744600 -0.644700 -0.172900
vn -0.802900 -0.594600 -0.042200
vn -0.842500 -0.456700 -0.285400
vn -0.866000 -0.468300 -0.175500
vn -0.842700 -0.514500 -0.158400
vn -0.809900 -0.522800 -0.265800
vn -0.758800 -0.519200 -0.393200
vn -0.800100 -0.444700 -0.402500
vn -0.818400 -0.406500 -0.406000
vn -0.859200 -0.429500 -0.278000
vn -0.871700 -0.466200 -0.151100
vn -0.743000 -0.429900 -0.512900
vn -0.700900 -0.493300 -0.515200
vn -0.646000 -0.461400 -0.608000
vn -0.678200 -0.417600 -0.604600
vn -0.664700 -0.410300 -0.624400
vn -0.751300 -0.400500 -0.524500
vn -0.638900 -0.557600 -0.530000
vn -0.706700 -0.597000 -0.379700
vn -0.587900 -0.505400 -0.631500
vn -0.772900 -0.593800 -0.223600
vn -0.816300 -0.567100 -0.109400
vn -0.866900 -0.433100 -0.246500
vn -0.863400 -0.495700 -0.093600
vn -0.821600 -0.399500 -0.406600
vn -0.798700 -0.447600 -0.402200
vn -0.850900 -0.497500 -0.168700
vn -0.853600 -0.517600 -0.058700
vn -0.733500 -0.397100 -0.551600
vn -0.614700 -0.428600 -0.662100
vn -0.580700 -0.444000 -0.682400
vn -0.660500 -0.446200 -0.603800
vn -0.041600 -0.350400 0.935600
vn 0.212600 -0.620300 0.755000
vn -0.152600 -0.242700 0.958000
vn -0.853600 -0.517600 -0.058700
vn 0.523600 -0.842000 -0.129500
vn 0.746300 -0.476900 -0.464300
vn 0.308600 -0.950900 0.022800
vn -0.580700 -0.444000 -0.682400
vn 0.361000 0.547600 -0.754800
vn 0.095600 0.719300 -0.688100
vn 0.489100 0.382200 -0.784000
vn -0.473200 -0.479200 -0.739200
vn -0.726400 0.620400 0.295700
vn -0.496300 0.559600 0.663700
vn -0.715500 0.657700 -0.235400
vn -0.818400 -0.572500 0.049800
vn -0.348600 0.356000 0.867000
vn -0.268100 0.177700 0.946800
vn 0.335400 -0.892800 0.300700
vn 0.680700 -0.155200 -0.716000
vn 0.611900 -0.036300 -0.790100
vn -0.334300 0.726300 -0.600500
vn 0.545800 0.246600 -0.800800
vn 0.561200 0.161800 -0.811700
vn -0.230000 0.037300 0.972400
vn -0.220000 -0.049200 0.974200
vn -0.208800 -0.134300 0.968700
vn 0.572100 0.076600 -0.816600
vt 0.839504 0.118056
vt 0.856743 0.205307
vt 0.741230 0.205307
vt 0.734555 0.106726
vt 0.724541 0.032791
vt 0.813647 0.052618
vt 0.868992 0.081539
vt 0.913398 0.129584
vt 0.940923 0.205307
vt 0.839504 0.292557
vt 0.813647 0.357995
vt 0.724541 0.377822
vt 0.734555 0.303887
vt 0.913398 0.281029
vt 0.868992 0.329074
vt 0.369475 0.299954
vt 0.368286 0.370940
vt 0.245840 0.351447
vt 0.246397 0.288815
vt 0.246768 0.205307
vt 0.370268 0.205307
vt 0.494283 0.205307
vt 0.492822 0.304944
vt 0.490632 0.379672
vt 0.369475 0.110659
vt 0.246397 0.121798
vt 0.245841 0.059166
vt 0.368286 0.039673
vt 0.490632 0.030941
vt 0.492822 0.105669
vt 0.616755 0.103478
vt 0.619174 0.205307
vt 0.613127 0.027106
vt 0.616755 0.307135
vt 0.613126 0.383507
vt 0.123273 0.268175
vt 0.123047 0.315326
vt 0.054743 0.283353
vt 0.030912 0.249131
vt 0.030973 0.205306
vt 0.123423 0.205306
vt 0.123273 0.142438
vt 0.030912 0.161481
vt 0.054744 0.127260
vt 0.123047 0.095287
vt 0.839504 0.118056
vt 0.856743 0.205307
vt 0.968983 0.205307
vt 0.938030 0.133427
vt 0.876123 0.061548
vt 0.805028 0.030806
vt 0.721203 0.008146
vt 0.734555 0.106726
vt 0.741230 0.205307
vt 0.839504 0.292557
vt 0.805028 0.379807
vt 0.876123 0.349065
vt 0.938030 0.277186
vt 0.734555 0.303887
vt 0.721203 0.402467
vt 0.369475 0.299954
vt 0.367890 0.394602
vt 0.489902 0.404581
vt 0.492822 0.304944
vt 0.494283 0.205307
vt 0.370268 0.205307
vt 0.246768 0.205307
vt 0.246397 0.288815
vt 0.245655 0.372324
vt 0.369475 0.110659
vt 0.492822 0.105669
vt 0.489902 0.006032
vt 0.367890 0.016011
vt 0.245655 0.038289
vt 0.246397 0.121798
vt 0.616755 0.103478
vt 0.619174 0.205307
vt 0.611917 0.001649
vt 0.616755 0.307135
vt 0.611917 0.408964
vt 0.123273 0.268175
vt 0.122972 0.331043
vt 0.123423 0.205306
vt 0.000156 0.205306
vt 0.000125 0.242784
vt 0.000064 0.280261
vt 0.123273 0.142438
vt 0.122972 0.079570
vt 0.000064 0.130352
vt 0.000125 0.167829
vt 0.122972 0.331043
vt 0.030806 0.283587
vt 0.245655 0.372324
vt 0.030806 0.283587
vt 0.000125 0.167829
vt 0.030806 0.127026
vt 0.000156 0.205306
vt 0.030806 0.127026
vt 0.805028 0.030806
vt 0.873826 0.071832
vt 0.721203 0.008146
vt 0.873826 0.071832
vt 0.938030 0.277186
vt 0.873826 0.338781
vt 0.968983 0.205307
vt 0.873826 0.338781
vt 0.805028 0.379807
vt 0.721203 0.402467
vt 0.000125 0.242784
vt 0.122972 0.079570
vt 0.245655 0.038289
vt 0.938030 0.133427
vt 0.611917 0.001649
vt 0.489902 0.006032
vt 0.611917 0.408964
vt 0.489902 0.404581
vt 0.367890 0.394602
vt 0.367890 0.016011
f 1/1/1 2/2/2 3/3/3
f 1/1/1 3/3/3 4/4/4
f 1/1/1 4/4/4 5/5/5
f 1/1/1 5/5/5 6/6/6
f 1/1/1 6/6/6 7/7/7
f 1/1/1 7/7/7 8/8/8
f 1/1/1 8/8/8 9/9/9
f 1/1/1 9/9/9 2/2/2
f 10/10/10 11/11/11 12/12/12
f 10/10/10 12/12/12 13/13/13
f 10/10/10 13/13/13 3/3/3
f 10/10/10 3/3/3 2/2/2
f 10/10/10 2/2/2 9/9/9
f 10/10/10 9/9/9 14/14/14
f 10/10/10 14/14/14 15/15/15
f 10/10/10 15/15/15 11/11/11
f 16/16/16 17/17/17 18/18/18
f 16/16/16 18/18/18 19/19/19
f 16/16/16 19/19/19 20/20/20
f 16/16/16 20/20/20 21/21/21
f 16/16/16 21/21/21 22/22/22
f 16/16/16 22/22/22 23/23/23
f 16/16/16 23/23/23 24/24/24
f 16/16/16 24/24/24 17/17/17
f 25/25/25 21/21/21 20/20/20
f 25/25/25 20/20/20 26/26/26
f 25/25/25 26/26/26 27/27/27
f 25/25/25 27/27/27 28/28/28
f 25/25/25 28/28/28 29/29/29
f 25/25/25 29/29/29 30/30/30
f 25/25/25 30/30/30 22/22/22
f 25/25/25 22/22/22 21/21/21
f 31/31/31 32/32/32 22/22/22
f 31/31/31 22/22/22 30/30/30
f 31/31/31 30/30/30 29/29/29
f 31/31/31 29/29/29 33/33/33
f 31/31/31 33/33/33 5/5/5
f 31/31/31 5/5/5 4/4/4
f 31/31/31 4/4/4 3/3/3
f 31/31/31 3/3/3 32/32/32
f 34/34/34 35/35/35 24/24/24
f 34/34/34 24/24/24 23/23/23
f 34/34/34 23/23/23 22/22/22
f 34/34/34 22/22/22 32/32/32
f 34/34/34 32/32/32 3/3/3
f 34/34/34 3/3/3 13/13/13
f 34/34/34 13/13/13 12/12/12
f 34/34/34 12/12/12 35/35/35
f 36/36/36 37/37/37 38/38/38
f 36/36/36 38/38/38 39/39/39
f 36/36/36 39/39/39 40/40/40
f 36/36/36 40/40/40 41/41/41
f 36/36/36 41/41/41 20/20/20
f 36/36/36 20/20/20 19/19/19
f 36/36/36 19/19/19 18/18/18
f 36/36/36 18/18/18 37/37/37
f 42/42/42 41/41/41 40/40/40
f 42/42/42 40/40/40 43/43/43
f 42/42/42 43/43/43 44/44/44
f 42/42/42 44/44/44 45/45/45
f 42/42/42 45/45/45 27/27/27
f 42/42/42 27/27/27 26/26/26
f 42/42/42 26/26/26 20/20/20
f 42/42/42 20/20/20 41/41/41
f 46/46/46 47/47/47 48/48/48
f 46/46/46 48/48/48 49/49/49
f 46/46/46 49/49/49 50/50/50
f 46/46/46 50/50/50 51/51/51
f 46/46/46 51/51/51 52/52/52
f 46/46/46 52/52/52 53/53/53
f 46/46/46 53/53/53 54/54/54
f 46/46/46 54/54/54 47/47/47
f 55/55/55 56/56/56 57/57/57
f 55/55/55 57/57/57 58/58/58
f 55/55/55 58/58/58 48/48/48
f 55/55/55 48/48/48 47/47/47
f 55/55/55 47/47/47 54/54/54
f 55/55/55 54/54/54 59/59/59
f 55/55/55 59/59/59 60/60/60
f 55/55/55 60/60/60 56/56/56
f 61/61/61 62/62/62 63/63/63
f 61/61/61 63/63/63 64/64/64
f 61/61/61 64/64/64 65/65/65
f 61/61/61 65/65/65 66/66/66
f 61/61/61 66/66/66 67/67/67
f 61/61/61 67/67/67 68/68/68
f 61/61/61 68/68/68 69/69/69
f 61/61/61 69/69/69 62/62/62
f 70/70/70 66/66/66 65/65/65
f 70/70/70 65/65/65 71/71/71
f 70/70/70 71/71/71 72/72/72
f 70/70/70 72/72/72 73/73/73
f 70/70/70 73/73/73 74/74/74
f 70/70/70 74/74/74 75/75/75
f 70/70/70 75/75/75 67/67/67
f 70/70/70 67/67/67 66/66/66
f 76/76/76 77/77/77 54/54/54
f 76/76/76 54/54/54 53/53/53
f 76/76/76 53/53/53 52/52/52
f 76/76/76 52/52/52 78/78/78
f 76/76/76 78/78/78 72/72/72
f 76/76/76 72/72/72 71/71/71
f 76/76/76 71/71/71 65/65/65
f 76/76/76 65/65/65 77/77/77
f 79/79/79 80/80/80 60/60/60
f 79/79/79 60/60/60 59/59/59
f 79/79/79 59/59/59 54/54/54
f 79/79/79 54/54/54 77/77/77
f 79/79/79 77/77/77 65/65/65
f 79/79/79 65/65/65 64/64/64
f 79/79/79 64/64/64 63/63/63
f 79/79/79 63/63/63 80/80/80
f 81/81/81 82/82/82 69/69/69
f 81/81/81 69/69/69 68/68/68
f 81/81/81 68/68/68 67/67/67
f 81/81/81 67/67/67 83/83/83
f 81/81/81 83/83/83 84/84/84
f 81/81/81 84/84/84 85/85/85
f 81/81/81 85/85/85 86/86/86
f 81/81/81 86/86/86 82/82/82
f 87/87/87 83/83/83 67/67/67
f 87/87/87 67/67/67 75/75/75
f 87/87/87 75/75/75 74/74/74
f 87/87/87 74/74/74 88/88/88
f 87/87/87 88/88/88 89/89/89
f 87/87/87 89/89/89 90/90/90
f 87/87/87 90/90/90 84/84/84
f 87/87/87 84/84/84 83/83/83
f 91/91/91 92/92/92 38/38/38
f 91/91/91 38/38/38 37/37/37
f 91/91/91 37/37/37 18/18/18
f 91/91/91 18/18/18 93/93/93
f 91/91/91 93/93/93 69/69/69
f 91/91/91 69/69/69 82/82/82
f 91/91/91 82/82/82 94/94/94
f 91/91/91 94/94/94 92/92/92
f 95/95/95 96/96/96 44/44/44
f 95/95/95 44/44/44 43/43/43
f 95/95/95 43/43/43 40/40/40
f 95/95/95 40/40/40 97/97/97
f 95/95/95 97/97/97 84/84/84
f 95/95/95 84/84/84 90/90/90
f 95/95/95 90/90/90 98/98/98
f 95/95/95 98/98/98 96/96/96
f 99/99/99 100/100/100 7/7/7
f 99/99/99 7/7/7 6/6/6
f 99/99/99 6/6/6 5/5/5
f 99/99/99 5/5/5 101/101/101
f 99/99/99 101/101/101 52/52/52
f 99/99/99 52/52/52 51/51/51
f 99/99/99 51/51/51 102/102/102
f 99/99/99 102/102/102 100/100/100
f 103/103/103 104/104/104 15/15/15
f 103/103/103 15/15/15 14/14/14
f 103/103/103 14/14/14 9/9/9
f 103/103/103 9/9/9 105/105/105
f 103/103/103 105/105/105 48/48/48
f 103/103/103 48/48/48 58/58/58
f 103/103/103 58/58/58 106/106/106
f 103/103/103 106/106/106 104/104/104
f 107/107/107 108/108/108 12/12/12
f 107/107/107 12/12/12 11/11/11
f 107/107/107 11/11/11 15/15/15
f 107/107/107 15/15/15 104/104/104
f 107/107/107 104/104/104 106/106/106
f 107/107/107 106/106/106 56/56/56
f 107/107/107 56/56/56 60/60/60
f 107/107/107 60/60/60 108/108/108
f 109/109/109 97/97/97 40/40/40
f 109/109/109 40/40/40 39/39/39
f 109/109/109 39/39/39 38/38/38
f 109/109/109 38/38/38 92/92/92
f 109/109/109 92/92/92 94/94/94
f 109/109/109 94/94/94 85/85/85
f 109/109/109 85/85/85 84/84/84
f 109/109/109 84/84/84 97/97/97
f 110/110/110 111/111/111 27/27/27
f 110/110/110 27/27/27 45/45/45
f 110/110/110 45/45/45 44/44/44
f 110/110/110 44/44/44 96/96/96
f 110/110/110 96/96/96 98/98/98
f 110/110/110 98/98/98 88/88/88
f 110/110/110 88/88/88 74/74/74
f 110/110/110 74/74/74 111/111/111
f 112/112/112 105/105/105 9/9/9
f 112/112/112 9/9/9 8/8/8
f 112/112/112 8/8/8 7/7/7
f 112/112/112 7/7/7 100/100/100
f 112/112/112 100/100/100 102/102/102
f 112/112/112 102/102/102 49/49/49
f 112/112/112 49/49/49 48/48/48
f 112/112/112 48/48/48 105/105/105
f 113/113/113 101/101/101 5/5/5
f 113/113/113 5/5/5 33/33/33
f 113/113/113 33/33/33 29/29/29
f 113/113/113 29/29/29 114/114/114
f 113/113/113 114/114/114 72/72/72
f 113/113/113 72/72/72 78/78/78
f 113/113/113 78/78/78 52/52/52
f 113/113/113 52/52/52 101/101/101
f 115/115/115 116/116/116 24/24/24
f 115/115/115 24/24/24 35/35/35
f 115/115/115 35/35/35 12/12/12
f 115/115/115 12/12/12 108/108/108
f 115/115/115 108/108/108 60/60/60
f 115/115/115 60/60/60 80/80/80
f 115/115/115 80/80/80 63/63/63
f 115/115/115 63/63/63 116/116/116
f 117/117/117 93/93/93 18/18/18
f 117/117/117 18/18/18 17/17/17
f 117/117/117 17/17/17 24/24/24
f 117/117/117 24/24/24 116/116/116
f 117/117/117 116/116/116 63/63/63
f 117/117/117 63/63/63 62/62/62
f 117/117/117 62/62/62 69/69/69
f 117/117/117 69/69/69 93/93/93
f 118/118/118 114/114/114 29/29/29
f 118/118/118 29/29/29 28/28/28
f 118/118/118 28/28/28 27/27/27
f 118/118/118 27/27/27 111/111/111
f 118/118/118 111/111/111 74/74/74
f 118/118/118 74/74/74 73/73/73
f 118/118/118 73/73/73 72/72/72
f 118/118/118 72/72/72 114/114/114
