v -2.352127 0.705479 -1.156696
v -2.353765 0.706004 -1.158097
v -2.355149 0.704218 -1.156195
v -2.353128 0.703772 -1.154853
v -2.351692 0.703513 -1.153618
v -2.351072 0.705051 -1.155281
v -2.351008 0.705924 -1.156638
v -2.351478 0.706618 -1.158112
v -2.352742 0.707234 -1.159556
v -2.355894 0.706494 -1.158483
v -2.357678 0.706831 -1.158413
v -2.359197 0.705536 -1.157176
v -2.357409 0.704925 -1.156883
v -2.354738 0.707497 -1.159658
v -2.356358 0.707366 -1.159175
v -2.361469 0.698176 -1.152039
v -2.363109 0.698720 -1.152589
v -2.363971 0.696016 -1.151145
v -2.362516 0.695530 -1.150671
v -2.360617 0.694946 -1.149932
v -2.359325 0.697520 -1.151192
v -2.357989 0.699964 -1.152622
v -2.360235 0.700664 -1.153492
v -2.361957 0.701253 -1.154040
v -2.357274 0.697045 -1.150050
v -2.358806 0.694530 -1.148912
v -2.357470 0.694264 -1.148062
v -2.355758 0.696739 -1.149104
v -2.354268 0.699181 -1.150394
v -2.355847 0.699481 -1.151411
v -2.354416 0.701748 -1.153051
v -2.356577 0.702200 -1.154330
v -2.352835 0.701498 -1.151944
v -2.358869 0.702948 -1.155163
v -2.360638 0.703601 -1.155644
v -2.363322 0.692770 -1.149251
v -2.364424 0.693158 -1.149562
v -2.364386 0.691444 -1.148644
v -2.363832 0.690644 -1.148192
v -2.362840 0.690307 -1.147880
v -2.361894 0.692316 -1.148733
v -2.360553 0.692024 -1.147939
v -2.361935 0.690132 -1.147293
v -2.360972 0.690524 -1.147025
v -2.359568 0.691850 -1.147260
v -2.352072 0.705302 -1.156836
v -2.353739 0.705832 -1.158251
v -2.352723 0.707104 -1.159670
v -2.351437 0.706484 -1.158213
v -2.350971 0.705824 -1.156711
v -2.351016 0.704916 -1.155378
v -2.351637 0.703384 -1.153721
v -2.353071 0.703601 -1.155000
v -2.355117 0.704052 -1.156355
v -2.355896 0.706333 -1.158649
v -2.357694 0.706716 -1.158544
v -2.356366 0.707278 -1.159269
v -2.354743 0.707375 -1.159781
v -2.357403 0.704769 -1.157054
v -2.359205 0.705423 -1.157310
v -2.361436 0.698048 -1.152231
v -2.363093 0.698626 -1.152736
v -2.361948 0.701153 -1.154183
v -2.360209 0.700526 -1.153677
v -2.357944 0.699820 -1.152799
v -2.359274 0.697387 -1.151376
v -2.360562 0.694819 -1.150120
v -2.362479 0.695409 -1.150867
v -2.363953 0.695928 -1.151295
v -2.357204 0.696907 -1.150225
v -2.355782 0.699333 -1.151578
v -2.354210 0.699068 -1.150515
v -2.355697 0.696633 -1.149230
v -2.357406 0.694164 -1.148191
v -2.358733 0.694399 -1.149091
v -2.354356 0.701588 -1.153209
v -2.356539 0.702045 -1.154498
v -2.352779 0.701376 -1.152056
v -2.358853 0.702799 -1.155341
v -2.360637 0.703494 -1.155782
v -2.363285 0.692653 -1.149449
v -2.364406 0.693073 -1.149714
v -2.361837 0.692192 -1.148923
v -2.362797 0.690215 -1.148023
v -2.363805 0.690556 -1.148341
v -2.364370 0.691380 -1.148755
v -2.360477 0.691896 -1.148118
v -2.359502 0.691752 -1.147389
v -2.360925 0.690452 -1.147122
v -2.361877 0.690036 -1.147427
v -2.364785 0.693251 -1.149734
v -2.364637 0.690925 -1.148417
v -2.364450 0.696140 -1.151371
v -2.364370 0.691380 -1.148755
v -2.362369 0.689459 -1.147137
v -2.361217 0.690004 -1.146795
v -2.363136 0.689596 -1.147659
v -2.360925 0.690452 -1.147122
v -2.350692 0.704848 -1.154850
v -2.350734 0.705977 -1.156587
v -2.351186 0.703369 -1.153251
v -2.350971 0.705824 -1.156711
v -2.354356 0.707777 -1.160103
v -2.356522 0.707536 -1.159332
v -2.352393 0.707586 -1.160092
v -2.356366 0.707278 -1.159269
v -2.358283 0.706893 -1.158449
v -2.359799 0.705691 -1.157335
v -2.363990 0.689896 -1.147905
v -2.359209 0.691748 -1.147090
v -2.356994 0.694130 -1.147835
v -2.351243 0.706938 -1.158628
v -2.352281 0.701360 -1.151624
v -2.353714 0.699030 -1.150108
v -2.361230 0.703772 -1.155867
v -2.362530 0.701406 -1.154287
v -2.363651 0.698860 -1.152838
v -2.355224 0.696589 -1.148843
vn -0.288500 0.791800 0.538300
vn -0.090800 0.771300 0.629900
vn -0.118700 0.734600 0.668000
vn -0.296800 0.752100 0.588400
vn -0.300200 0.734700 0.608300
vn -0.281800 0.791100 0.542900
vn -0.266800 0.827100 0.494600
vn -0.210700 0.841300 0.497800
vn -0.046500 0.823100 0.565900
vn 0.091600 0.689300 0.718600
vn 0.084400 0.692200 0.716700
vn 0.023200 0.647500 0.761700
vn 0.043100 0.660600 0.749500
vn 0.099900 0.757700 0.644900
vn 0.126600 0.721000 0.681200
vn -0.134700 0.522200 0.842100
vn -0.171500 0.526100 0.832900
vn -0.187500 0.500600 0.845100
vn -0.141400 0.493000 0.858500
vn -0.249500 0.515900 0.819500
vn -0.231900 0.550500 0.801900
vn -0.195200 0.617000 0.762400
vn -0.090100 0.577600 0.811300
vn -0.122100 0.572600 0.810700
vn -0.325500 0.573700 0.751600
vn -0.346100 0.548100 0.761400
vn -0.308200 0.533100 0.787900
vn -0.297400 0.560000 0.773200
vn -0.288500 0.617500 0.731700
vn -0.304200 0.635300 0.709800
vn -0.293400 0.702300 0.648600
vn -0.153100 0.685000 0.712200
vn -0.291000 0.681200 0.671700
vn -0.023400 0.629500 0.776600
vn -0.050400 0.616400 0.785800
vn -0.123900 0.473500 0.872000
vn -0.175100 0.478500 0.860400
vn -0.153100 0.455100 0.877100
vn -0.126800 0.419000 0.899000
vn -0.280000 0.451300 0.847200
vn -0.257700 0.499300 0.827200
vn -0.373500 0.540800 0.753700
vn -0.414300 0.496500 0.762700
vn -0.369100 0.513200 0.774800
vn -0.335300 0.521600 0.784500
vn 0.322800 -0.778800 -0.537800
vn 0.098500 -0.761500 -0.640600
vn 0.128200 -0.721500 -0.680500
vn 0.422000 -0.735900 -0.529400
vn 0.525100 -0.709300 -0.470200
vn 0.502300 -0.718700 -0.480700
vn 0.448600 -0.722100 -0.526600
vn 0.310300 -0.752400 -0.581000
vn 0.118700 -0.734700 -0.667900
vn -0.105100 -0.663500 -0.740700
vn -0.219200 -0.524300 -0.822800
vn -0.235300 -0.504400 -0.830800
vn -0.147300 -0.582500 -0.799400
vn -0.055900 -0.653700 -0.754700
vn -0.158000 -0.558700 -0.814200
vn 0.119600 -0.518400 -0.846700
vn 0.013500 -0.488900 -0.872200
vn -0.019700 -0.526000 -0.850200
vn 0.076400 -0.573100 -0.815900
vn 0.195200 -0.616900 -0.762400
vn 0.231900 -0.550300 -0.802100
vn 0.249500 -0.515800 -0.819500
vn 0.122900 -0.490100 -0.862900
vn -0.008200 -0.477900 -0.878400
vn 0.338700 -0.577500 -0.742800
vn 0.316800 -0.638000 -0.701900
vn 0.413600 -0.642800 -0.644800
vn 0.427200 -0.600300 -0.676100
vn 0.448000 -0.600800 -0.662000
vn 0.360500 -0.554200 -0.750200
vn 0.305800 -0.704000 -0.641000
vn 0.153000 -0.685100 -0.712200
vn 0.418200 -0.693000 -0.587200
vn 0.010400 -0.624400 -0.781000
vn -0.085100 -0.557400 -0.825900
vn 0.092400 -0.481900 -0.871300
vn -0.072700 -0.484600 -0.871700
vn 0.252800 -0.509400 -0.822500
vn 0.230600 -0.552900 -0.800700
vn -0.003800 -0.513800 -0.857900
vn -0.113500 -0.492400 -0.862900
vn 0.386600 -0.561100 -0.731900
vn 0.475100 -0.632300 -0.611900
vn 0.487600 -0.654400 -0.577900
vn 0.415600 -0.626800 -0.659000
vn -0.997800 0.014900 -0.065000
vn -0.933400 -0.305900 0.187100
vn -0.976700 0.124800 -0.174200
vn -0.113500 -0.492400 -0.862900
vn -0.197300 -0.838000 0.508700
vn 0.241500 -0.622600 0.744300
vn -0.374100 -0.881300 0.288700
vn 0.487600 -0.654400 -0.577900
vn 0.893700 0.231000 0.384500
vn 0.900100 0.418100 0.122000
vn 0.857900 0.064900 0.509700
vn 0.525100 -0.709300 -0.470200
vn -0.032400 0.694800 -0.718400
vn -0.403100 0.769300 -0.495600
vn 0.475200 0.536100 -0.697600
vn -0.235300 -0.504400 -0.830800
vn -0.669800 0.651700 -0.355900
vn -0.810400 0.514100 -0.280900
vn -0.613000 -0.726000 0.311700
vn 0.593900 -0.414200 0.689700
vn 0.707900 -0.329400 0.624800
vn 0.831100 0.462200 -0.309000
vn 0.822700 -0.068600 0.564200
vn 0.801400 -0.152300 0.578400
vn -0.886500 0.391900 -0.246100
vn -0.920100 0.311400 -0.237600
vn -0.946000 0.230100 -0.228300
vn 0.774600 -0.233600 0.587700
vt 0.839504 0.118056
vt 0.856743 0.205307
vt 0.741230 0.205307
vt 0.734555 0.106726
vt 0.724541 0.032791
vt 0.813647 0.052618
vt 0.868992 0.081539
vt 0.913398 0.129584
vt 0.940923 0.205307
vt 0.839504 0.292557
vt 0.813647 0.357995
vt 0.724541 0.377822
vt 0.734555 0.303887
vt 0.913398 0.281029
vt 0.868992 0.329074
vt 0.369475 0.299954
vt 0.368286 0.370940
vt 0.245840 0.351447
vt 0.246397 0.288815
vt 0.246768 0.205307
vt 0.370268 0.205307
vt 0.494283 0.205307
vt 0.492822 0.304944
vt 0.490632 0.379672
vt 0.369475 0.110659
vt 0.246397 0.121798
vt 0.245841 0.059166
vt 0.368286 0.039673
vt 0.490632 0.030941
vt 0.492822 0.105669
vt 0.616755 0.103478
vt 0.619174 0.205307
vt 0.613127 0.027106
vt 0.616755 0.307135
vt 0.613126 0.383507
vt 0.123273 0.268175
vt 0.123047 0.315326
vt 0.054743 0.283353
vt 0.030912 0.249131
vt 0.030973 0.205306
vt 0.123423 0.205306
vt 0.123273 0.142438
vt 0.030912 0.161481
vt 0.054744 0.127260
vt 0.123047 0.095287
vt 0.839504 0.118056
vt 0.856743 0.205307
vt 0.968983 0.205307
vt 0.938030 0.133427
vt 0.876123 0.061548
vt 0.805028 0.030806
vt 0.721203 0.008146
vt 0.734555 0.106726
vt 0.741230 0.205307
vt 0.839504 0.292557
vt 0.805028 0.379807
vt 0.876123 0.349065
vt 0.938030 0.277186
vt 0.734555 0.303887
vt 0.721203 0.402467
vt 0.369475 0.299954
vt 0.367890 0.394602
vt 0.489902 0.404581
vt 0.492822 0.304944
vt 0.494283 0.205307
vt 0.370268 0.205307
vt 0.246768 0.205307
vt 0.246397 0.288815
vt 0.245655 0.372324
vt 0.369475 0.110659
vt 0.492822 0.105669
vt 0.489902 0.006032
vt 0.367890 0.016011
vt 0.245655 0.038289
vt 0.246397 0.121798
vt 0.616755 0.103478
vt 0.619174 0.205307
vt 0.611917 0.001649
vt 0.616755 0.307135
vt 0.611917 0.408964
vt 0.123273 0.268175
vt 0.122972 0.331043
vt 0.123423 0.205306
vt 0.000156 0.205306
vt 0.000125 0.242784
vt 0.000064 0.280261
vt 0.123273 0.142438
vt 0.122972 0.079570
vt 0.000064 0.130352
vt 0.000125 0.167829
vt 0.122972 0.331043
vt 0.030806 0.283587
vt 0.245655 0.372324
vt 0.030806 0.283587
vt 0.000125 0.167829
vt 0.030806 0.127026
vt 0.000156 0.205306
vt 0.030806 0.127026
vt 0.805028 0.030806
vt 0.873826 0.071832
vt 0.721203 0.008146
vt 0.873826 0.071832
vt 0.938030 0.277186
vt 0.873826 0.338781
vt 0.968983 0.205307
vt 0.873826 0.338781
vt 0.805028 0.379807
vt 0.721203 0.402467
vt 0.000125 0.242784
vt 0.122972 0.079570
vt 0.245655 0.038289
vt 0.938030 0.133427
vt 0.611917 0.001649
vt 0.489902 0.006032
vt 0.611917 0.408964
vt 0.489902 0.404581
vt 0.367890 0.394602
vt 0.367890 0.016011
f 1/1/1 2/2/2 3/3/3
f 1/1/1 3/3/3 4/4/4
f 1/1/1 4/4/4 5/5/5
f 1/1/1 5/5/5 6/6/6
f 1/1/1 6/6/6 7/7/7
f 1/1/1 7/7/7 8/8/8
f 1/1/1 8/8/8 9/9/9
f 1/1/1 9/9/9 2/2/2
f 10/10/10 11/11/11 12/12/12
f 10/10/10 12/12/12 13/13/13
f 10/10/10 13/13/13 3/3/3
f 10/10/10 3/3/3 2/2/2
f 10/10/10 2/2/2 9/9/9
f 10/10/10 9/9/9 14/14/14
f 10/10/10 14/14/14 15/15/15
f 10/10/10 15/15/15 11/11/11
f 16/16/16 17/17/17 18/18/18
f 16/16/16 18/18/18 19/19/19
f 16/16/16 19/19/19 20/20/20
f 16/16/16 20/20/20 21/21/21
f 16/16/16 21/21/21 22/22/22
f 16/16/16 22/22/22 23/23/23
f 16/16/16 23/23/23 24/24/24
f 16/16/16 24/24/24 17/17/17
f 25/25/25 21/21/21 20/20/20
f 25/25/25 20/20/20 26/26/26
f 25/25/25 26/26/26 27/27/27
f 25/25/25 27/27/27 28/28/28
f 25/25/25 28/28/28 29/29/29
f 25/25/25 29/29/29 30/30/30
f 25/25/25 30/30/30 22/22/22
f 25/25/25 22/22/22 21/21/21
f 31/31/31 32/32/32 22/22/22
f 31/31/31 22/22/22 30/30/30
f 31/31/31 30/30/30 29/29/29
f 31/31/31 29/29/29 33/33/33
f 31/31/31 33/33/33 5/5/5
f 31/31/31 5/5/5 4/4/4
f 31/31/31 4/4/4 3/3/3
f 31/31/31 3/3/3 32/32/32
f 34/34/34 35/35/35 24/24/24
f 34/34/34 24/24/24 23/23/23
f 34/34/34 23/23/23 22/22/22
f 34/34/34 22/22/22 32/32/32
f 34/34/34 32/32/32 3/3/3
f 34/34/34 3/3/3 13/13/13
f 34/34/34 13/13/13 12/12/12
f 34/34/34 12/12/12 35/35/35
f 36/36/36 37/37/37 38/38/38
f 36/36/36 38/38/38 39/39/39
f 36/36/36 39/39/39 40/40/40
f 36/36/36 40/40/40 41/41/41
f 36/36/36 41/41/41 20/20/20
f 36/36/36 20/20/20 19/19/19
f 36/36/36 19/19/19 18/18/18
f 36/36/36 18/18/18 37/37/37
f 42/42/42 41/41/41 40/40/40
f 42/42/42 40/40/40 43/43/43
f 42/42/42 43/43/43 44/44/44
f 42/42/42 44/44/44 45/45/45
f 42/42/42 45/45/45 27/27/27
f 42/42/42 27/27/27 26/26/26
f 42/42/42 26/26/26 20/20/20
f 42/42/42 20/20/20 41/41/41
f 46/46/46 47/47/47 48/48/48
f 46/46/46 48/48/48 49/49/49
f 46/46/46 49/49/49 50/50/50
f 46/46/46 50/50/50 51/51/51
f 46/46/46 51/51/51 52/52/52
f 46/46/46 52/52/52 53/53/53
f 46/46/46 53/53/53 54/54/54
f 46/46/46 54/54/54 47/47/47
f 55/55/55 56/56/56 57/57/57
f 55/55/55 57/57/57 58/58/58
f 55/55/55 58/58/58 48/48/48
f 55/55/55 48/48/48 47/47/47
f 55/55/55 47/47/47 54/54/54
f 55/55/55 54/54/54 59/59/59
f 55/55/55 59/59/59 60/60/60
f 55/55/55 60/60/60 56/56/56
f 61/61/61 62/62/62 63/63/63
f 61/61/61 63/63/63 64/64/64
f 61/61/61 64/64/64 65/65/65
f 61/61/61 65/65/65 66/66/66
f 61/61/61 66/66/66 67/67/67
f 61/61/61 67/67/67 68/68/68
f 61/61/61 68/68/68 69/69/69
f 61/61/61 69/69/69 62/62/62
f 70/70/70 66/66/66 65/65/65
f 70/70/70 65/65/65 71/71/71
f 70/70/70 71/71/71 72/72/72
f 70/70/70 72/72/72 73/73/73
f 70/70/70 73/73/73 74/74/74
f 70/70/70 74/74/74 75/75/75
f 70/70/70 75/75/75 67/67/67
f 70/70/70 67/67/67 66/66/66
f 76/76/76 77/77/77 54/54/54
f 76/76/76 54/54/54 53/53/53
f 76/76/76 53/53/53 52/52/52
f 76/76/76 52/52/52 78/78/78
f 76/76/76 78/78/78 72/72/72
f 76/76/76 72/72/72 71/71/71
f 76/76/76 71/71/71 65/65/65
f 76/76/76 65/65/65 77/77/77
f 79/79/79 80/80/80 60/60/60
f 79/79/79 60/60/60 59/59/59
f 79/79/79 59/59/59 54/54/54
f 79/79/79 54/54/54 77/77/77
f 79/79/79 77/77/77 65/65/65
f 79/79/79 65/65/65 64/64/64
f 79/79/79 64/64/64 63/63/63
f 79/79/79 63/63/63 80/80/80
f 81/81/81 82/82/82 69/69/69
f 81/81/81 69/69/69 68/68/68
f 81/81/81 68/68/68 67/67/67
f 81/81/81 67/67/67 83/83/83
f 81/81/81 83/83/83 84/84/84
f 81/81/81 84/84/84 85/85/85
f 81/81/81 85/85/85 86/86/86
f 81/81/81 86/86/86 82/82/82
f 87/87/87 83/83/83 67/67/67
f 87/87/87 67/67/67 75/75/75
f 87/87/87 75/75/75 74/74/74
f 87/87/87 74/74/74 88/88/88
f 87/87/87 88/88/88 89/89/89
f 87/87/87 89/89/89 90/90/90
f 87/87/87 90/90/90 84/84/84
f 87/87/87 84/84/84 83/83/83
f 91/91/91 92/92/92 38/38/38
f 91/91/91 38/38/38 37/37/37
f 91/91/91 37/37/37 18/18/18
f 91/91/91 18/18/18 93/93/93
f 91/91/91 93/93/93 69/69/69
f 91/91/91 69/69/69 82/82/82
f 91/91/91 82/82/82 94/94/94
f 91/91/91 94/94/94 92/92/92
f 95/95/95 96/96/96 44/44/44
f 95/95/95 44/44/44 43/43/43
f 95/95/95 43/43/43 40/40/40
f 95/95/95 40/40/40 97/97/97
f 95/95/95 97/97/97 84/84/84
f 95/95/95 84/84/84 90/90/90
f 95/95/95 90/90/90 98/98/98
f 95/95/95 98/98/98 96/96/96
f 99/99/99 100/100/100 7/7/7
f 99/99/99 7/7/7 6/6/6
f 99/99/99 6/6/6 5/5/5
f 99/99/99 5/5/5 101/101/101
f 99/99/99 101/101/101 52/52/52
f 99/99/99 52/52/52 51/51/51
f 99/99/99 51/51/51 102/102/102
f 99/99/99 102/102/102 100/100/100
f 103/103/103 104/104/104 15/15/15
f 103/103/103 15/15/15 14/14/14
f 103/103/103 14/14/14 9/9/9
f 103/103/103 9/9/9 105/105/105
f 103/103/103 105/105/105 48/48/48
f 103/103/103 48/48/48 58/58/58
f 103/103/103 58/58/58 106/106/106
f 103/103/103 106/106/106 104/104/104
f 107/107/107 108/108/108 12/12/12
f 107/107/107 12/12/12 11/11/11
f 107/107/107 11/11/11 15/15/15
f 107/107/107 15/15/15 104/104/104
f 107/107/107 104/104/104 106/106/106
f 107/107/107 106/106/106 56/56/56
f 107/107/107 56/56/56 60/60/60
f 107/107/107 60/60/60 108/108/108
f 109/109/109 97/97/97 40/40/40
f 109/109/109 40/40/40 39/39/39
f 109/109/109 39/39/39 38/38/38
f 109/109/109 38/38/38 92/92/92
f 109/109/109 92/92/92 94/94/94
f 109/109/109 94/94/94 85/85/85
f 109/109/109 85/85/85 84/84/84
f 109/109/109 84/84/84 97/97/97
f 110/110/110 111/111/111 27/27/27
f 110/110/110 27/27/27 45/45/45
f 110/110/110 45/45/45 44/44/44
f 110/110/110 44/44/44 96/96/96
f 110/110/110 96/96/96 98/98/98
f 110/110/110 98/98/98 88/88/88
f 110/110/110 88/88/88 74/74/74
f 110/110/110 74/74/74 111/111/111
f 112/112/112 105/105/105 9/9/9
f 112/112/112 9/9/9 8/8/8
f 112/112/112 8/8/8 7/7/7
f 112/112/112 7/7/7 100/100/100
f 112/112/112 100/100/100 102/102/102
f 112/112/112 102/102/102 49/49/49
f 112/112/112 49/49/49 48/48/48
f 112/112/112 48/48/48 105/105/105
f 113/113/113 101/101/101 5/5/5
f 113/113/113 5/5/5 33/33/33
f 113/113/113 33/33/33 29/29/29
f 113/113/113 29/29/29 114/114/114
f 113/113/113 114/114/114 72/72/72
f 113/113/113 72/72/72 78/78/78
f 113/113/113 78/78/78 52/52/52
f 113/113/113 52/52/52 101/101/101
f 115/115/115 116/116/116 24/24/24
f 115/115/115 24/24/24 35/35/35
f 115/115/115 35/35/35 12/12/12
f 115/115/115 12/12/12 108/108/108
f 115/115/115 108/108/108 60/60/60
f 115/115/115 60/60/60 80/80/80
f 115/115/115 80/80/80 63/63/63
f 115/115/115 63/63/63 116/116/116
f 117/117/117 93/93/93 18/18/18
f 117/117/117 18/18/18 17/17/17
f 117/117/117 17/17/17 24/24/24
f 117/117/117 24/24/24 116/116/116
f 117/117/117 116/116/116 63/63/63
f 117/117/117 63/63/63 62/62/62
f 117/117/117 62/62/62 69/69/69
f 117/117/117 69/69/69 93/93/93
f 118/118/118 114/114/114 29/29/29
f 118/118/118 29/29/29 28/28/28
f 118/118/118 28/28/28 27/27/27
f 118/118/118 27/27/27 111/111/111
f 118/118/118 111/111/111 74/74/74
f 118/118/118 74/74/74 73/73/73
f 118/118/118 73/73/73 72/72/72
f 118/118/118 72/72/72 114/114/114
