v -2.458597 0.759523 -1.109885
v -2.459515 0.759577 -1.108115
v -2.457098 0.758709 -1.107444
v -2.456341 0.758691 -1.109528
v -2.455592 0.758816 -1.111070
v -2.457562 0.759572 -1.111147
v -2.458948 0.759882 -1.110846
v -2.460249 0.760020 -1.110064
v -2.461318 0.760126 -1.108604
v -2.459485 0.759935 -1.106153
v -2.459118 0.760295 -1.104603
v -2.457361 0.759637 -1.103637
v -2.457349 0.759160 -1.105287
v -2.461018 0.760377 -1.106835
v -2.460209 0.760467 -1.105546
v -2.450386 0.755112 -1.103230
v -2.450619 0.755448 -1.101652
v -2.448410 0.753649 -1.101377
v -2.448214 0.753343 -1.102774
v -2.447875 0.753024 -1.104622
v -2.449994 0.754759 -1.105318
v -2.452221 0.756330 -1.106021
v -2.452621 0.756716 -1.103836
v -2.452849 0.757094 -1.102185
v -2.449398 0.754653 -1.107385
v -2.447339 0.752937 -1.106449
v -2.446878 0.752938 -1.107817
v -2.448887 0.754644 -1.108933
v -2.451037 0.756253 -1.109801
v -2.451587 0.756236 -1.108183
v -2.453953 0.757589 -1.108929
v -2.454628 0.757637 -1.106738
v -2.453345 0.757676 -1.110567
v -2.455002 0.758076 -1.104519
v -2.455183 0.758530 -1.102838
v -2.446020 0.751487 -1.102546
v -2.446136 0.751750 -1.101498
v -2.444869 0.750592 -1.101832
v -2.444384 0.750042 -1.102458
v -2.444257 0.749825 -1.103409
v -2.445791 0.751222 -1.103928
v -2.445368 0.751184 -1.105288
v -2.443937 0.749834 -1.104338
v -2.444065 0.750218 -1.105213
v -2.444992 0.751219 -1.106307
v -2.458669 0.759329 -1.109910
v -2.459594 0.759384 -1.108112
v -2.461374 0.759981 -1.108602
v -2.460299 0.759874 -1.110084
v -2.458985 0.759774 -1.110866
v -2.457611 0.759427 -1.111180
v -2.455649 0.758673 -1.111101
v -2.456420 0.758500 -1.109553
v -2.457183 0.758519 -1.107443
v -2.459570 0.759747 -1.106123
v -2.459185 0.760157 -1.104566
v -2.460256 0.760364 -1.105522
v -2.461078 0.760235 -1.106809
v -2.457441 0.758974 -1.105262
v -2.457432 0.759501 -1.103605
v -2.450510 0.754943 -1.103221
v -2.450714 0.755323 -1.101637
v -2.452936 0.756964 -1.102166
v -2.452735 0.756541 -1.103824
v -2.452331 0.756152 -1.106028
v -2.450114 0.754588 -1.105328
v -2.448001 0.752857 -1.104634
v -2.448344 0.753178 -1.102768
v -2.448509 0.753527 -1.101363
v -2.449513 0.754480 -1.107412
v -2.451692 0.756057 -1.108208
v -2.451113 0.756118 -1.109830
v -2.448971 0.754514 -1.108962
v -2.446967 0.752811 -1.107848
v -2.447461 0.752769 -1.106479
v -2.454045 0.757403 -1.108954
v -2.454725 0.757452 -1.106741
v -2.453411 0.757537 -1.110597
v -2.455104 0.757895 -1.104500
v -2.455262 0.758396 -1.102813
v -2.446153 0.751325 -1.102539
v -2.446238 0.751630 -1.101483
v -2.445920 0.751057 -1.103940
v -2.444354 0.749702 -1.103418
v -2.444484 0.749921 -1.102452
v -2.444944 0.750503 -1.101823
v -2.445491 0.751018 -1.105320
v -2.445082 0.751094 -1.106340
v -2.444132 0.750126 -1.105235
v -2.444030 0.749710 -1.104362
v -2.446220 0.751785 -1.101140
v -2.444466 0.750234 -1.101693
v -2.448520 0.753697 -1.100903
v -2.444944 0.750503 -1.101823
v -2.443501 0.749329 -1.104032
v -2.443660 0.749860 -1.105081
v -2.443789 0.749305 -1.103240
v -2.444132 0.750126 -1.105235
v -2.457237 0.759524 -1.111585
v -2.458987 0.759933 -1.111093
v -2.455368 0.758794 -1.111601
v -2.458985 0.759774 -1.110866
v -2.461555 0.760461 -1.107050
v -2.460351 0.760566 -1.105359
v -2.461943 0.760244 -1.108766
v -2.460256 0.760364 -1.105522
v -2.459026 0.760354 -1.104066
v -2.457397 0.759736 -1.103069
v -2.443883 0.749507 -1.102426
v -2.444906 0.751175 -1.106664
v -2.446763 0.752882 -1.108289
v -2.460821 0.760121 -1.110133
v -2.453171 0.757644 -1.111129
v -2.450886 0.756198 -1.110355
v -2.455279 0.758622 -1.102265
v -2.452964 0.757162 -1.101624
v -2.450739 0.755505 -1.101117
v -2.448754 0.754584 -1.109464
vn 0.287900 0.938900 0.188700
vn 0.326400 0.944800 -0.026600
vn 0.380700 0.924600 -0.011500
vn 0.348800 0.919400 0.181500
vn 0.373800 0.910100 0.178900
vn 0.290700 0.939500 0.181200
vn 0.230600 0.956100 0.181000
vn 0.213900 0.968600 0.126700
vn 0.239300 0.969600 -0.050100
vn 0.387500 0.892600 -0.230200
vn 0.386700 0.894900 -0.222500
vn 0.458500 0.870800 -0.177500
vn 0.437800 0.878100 -0.192900
vn 0.295400 0.930800 -0.215400
vn 0.333800 0.908100 -0.252600
vn 0.615000 0.786700 -0.052900
vn 0.615000 0.788400 -0.014900
vn 0.638900 0.769300 -0.004000
vn 0.641600 0.765200 -0.052400
vn 0.626500 0.776800 0.063300
vn 0.594200 0.802500 0.052700
vn 0.526100 0.849800 0.031300
vn 0.556700 0.826300 -0.084900
vn 0.566100 0.822500 -0.054200
vn 0.565000 0.809900 0.157400
vn 0.587900 0.790100 0.173200
vn 0.607200 0.784000 0.129000
vn 0.582000 0.803700 0.123900
vn 0.522500 0.842800 0.129200
vn 0.500500 0.852400 0.151000
vn 0.419400 0.893500 0.160100
vn 0.446500 0.894700 0.007400
vn 0.446900 0.881800 0.150600
vn 0.490200 0.860700 -0.137300
vn 0.510100 0.852500 -0.114500
vn 0.656100 0.751100 -0.073800
vn 0.657200 0.753400 -0.021000
vn 0.674700 0.736500 -0.047800
vn 0.700100 0.709400 -0.081100
vn 0.681800 0.727000 0.081900
vn 0.641300 0.764200 0.068200
vn 0.590700 0.781400 0.201200
vn 0.624700 0.744400 0.235700
vn 0.618200 0.762700 0.189900
vn 0.615300 0.772900 0.155200
vn -0.300800 -0.927700 -0.221000
vn -0.341500 -0.939600 0.022500
vn -0.398800 -0.917000 0.006300
vn -0.333500 -0.888000 -0.316400
vn -0.315900 -0.846000 -0.429500
vn -0.316300 -0.857600 -0.405600
vn -0.342600 -0.875000 -0.342100
vn -0.345600 -0.917600 -0.196500
vn -0.380600 -0.924600 0.011500
vn -0.412900 -0.875600 0.250400
vn -0.505500 -0.769800 0.389600
vn -0.515300 -0.753300 0.408500
vn -0.482800 -0.818700 0.310800
vn -0.441500 -0.873000 0.206900
vn -0.501500 -0.801200 0.326200
vn -0.616600 -0.784200 0.068900
vn -0.622400 -0.761700 0.179600
vn -0.581300 -0.787700 0.203800
vn -0.558800 -0.823300 0.099500
vn -0.526300 -0.849700 -0.031300
vn -0.594400 -0.802400 -0.052800
vn -0.626600 -0.776700 -0.063300
vn -0.641800 -0.763500 0.071500
vn -0.626100 -0.752900 0.202800
vn -0.559200 -0.810900 -0.172600
vn -0.495800 -0.852500 -0.165300
vn -0.467700 -0.840400 -0.273600
vn -0.514100 -0.812000 -0.276200
vn -0.506500 -0.808400 -0.299800
vn -0.579600 -0.792400 -0.190300
vn -0.415200 -0.892900 -0.174000
vn -0.446500 -0.894700 -0.007400
vn -0.399500 -0.867700 -0.295600
vn -0.492600 -0.857000 0.151200
vn -0.531500 -0.806500 0.258900
vn -0.644400 -0.757600 0.103500
vn -0.601100 -0.754600 0.262900
vn -0.632400 -0.771900 -0.065200
vn -0.591900 -0.804300 -0.052000
vn -0.596500 -0.779500 0.191100
vn -0.580100 -0.757400 0.299600
vn -0.567400 -0.793300 -0.220500
vn -0.457500 -0.821300 -0.340800
vn -0.422500 -0.830600 -0.362700
vn -0.486500 -0.830600 -0.270900
vn 0.194000 0.025300 0.980700
vn 0.515100 -0.189500 0.835900
vn 0.052500 0.089600 0.994600
vn -0.580100 -0.757400 0.299600
vn 0.798600 -0.601700 0.012400
vn 0.823600 -0.332900 -0.459200
vn 0.660700 -0.712700 0.235600
vn -0.422500 -0.830600 -0.362700
vn 0.037300 0.319700 -0.946800
vn -0.266300 0.403700 -0.875300
vn 0.216300 0.208700 -0.953800
vn -0.315900 -0.846000 -0.429500
vn -0.879300 0.402300 0.254800
vn -0.608000 0.562300 0.560400
vn -0.937200 0.243500 -0.249700
vn -0.515300 -0.753300 0.408500
vn -0.372400 0.509700 0.775500
vn -0.220700 0.411400 0.884300
vn 0.689800 -0.551300 0.469200
vn 0.611200 -0.168300 -0.773400
vn 0.493800 -0.115200 -0.861900
vn -0.653100 0.297200 -0.696500
vn 0.320100 0.103900 -0.941600
vn 0.367200 0.031200 -0.929600
vn -0.127900 0.311900 0.941500
vn -0.084100 0.240800 0.966900
vn -0.040600 0.168600 0.984800
vn 0.410200 -0.040700 -0.911100
vt 0.839504 0.118056
vt 0.856743 0.205307
vt 0.741230 0.205307
vt 0.734555 0.106726
vt 0.724541 0.032791
vt 0.813647 0.052618
vt 0.868992 0.081539
vt 0.913398 0.129584
vt 0.940923 0.205307
vt 0.839504 0.292557
vt 0.813647 0.357995
vt 0.724541 0.377822
vt 0.734555 0.303887
vt 0.913398 0.281029
vt 0.868992 0.329074
vt 0.369475 0.299954
vt 0.368286 0.370940
vt 0.245840 0.351447
vt 0.246397 0.288815
vt 0.246768 0.205307
vt 0.370268 0.205307
vt 0.494283 0.205307
vt 0.492822 0.304944
vt 0.490632 0.379672
vt 0.369475 0.110659
vt 0.246397 0.121798
vt 0.245841 0.059166
vt 0.368286 0.039673
vt 0.490632 0.030941
vt 0.492822 0.105669
vt 0.616755 0.103478
vt 0.619174 0.205307
vt 0.613127 0.027106
vt 0.616755 0.307135
vt 0.613126 0.383507
vt 0.123273 0.268175
vt 0.123047 0.315326
vt 0.054743 0.283353
vt 0.030912 0.249131
vt 0.030973 0.205306
vt 0.123423 0.205306
vt 0.123273 0.142438
vt 0.030912 0.161481
vt 0.054744 0.127260
vt 0.123047 0.095287
vt 0.839504 0.118056
vt 0.856743 0.205307
vt 0.968983 0.205307
vt 0.938030 0.133427
vt 0.876123 0.061548
vt 0.805028 0.030806
vt 0.721203 0.008146
vt 0.734555 0.106726
vt 0.741230 0.205307
vt 0.839504 0.292557
vt 0.805028 0.379807
vt 0.876123 0.349065
vt 0.938030 0.277186
vt 0.734555 0.303887
vt 0.721203 0.402467
vt 0.369475 0.299954
vt 0.367890 0.394602
vt 0.489902 0.404581
vt 0.492822 0.304944
vt 0.494283 0.205307
vt 0.370268 0.205307
vt 0.246768 0.205307
vt 0.246397 0.288815
vt 0.245655 0.372324
vt 0.369475 0.110659
vt 0.492822 0.105669
vt 0.489902 0.006032
vt 0.367890 0.016011
vt 0.245655 0.038289
vt 0.246397 0.121798
vt 0.616755 0.103478
vt 0.619174 0.205307
vt 0.611917 0.001649
vt 0.616755 0.307135
vt 0.611917 0.408964
vt 0.123273 0.268175
vt 0.122972 0.331043
vt 0.123423 0.205306
vt 0.000156 0.205306
vt 0.000125 0.242784
vt 0.000064 0.280261
vt 0.123273 0.142438
vt 0.122972 0.079570
vt 0.000064 0.130352
vt 0.000125 0.167829
vt 0.122972 0.331043
vt 0.030806 0.283587
vt 0.245655 0.372324
vt 0.030806 0.283587
vt 0.000125 0.167829
vt 0.030806 0.127026
vt 0.000156 0.205306
vt 0.030806 0.127026
vt 0.805028 0.030806
vt 0.873826 0.071832
vt 0.721203 0.008146
vt 0.873826 0.071832
vt 0.938030 0.277186
vt 0.873826 0.338781
vt 0.968983 0.205307
vt 0.873826 0.338781
vt 0.805028 0.379807
vt 0.721203 0.402467
vt 0.000125 0.242784
vt 0.122972 0.079570
vt 0.245655 0.038289
vt 0.938030 0.133427
vt 0.611917 0.001649
vt 0.489902 0.006032
vt 0.611917 0.408964
vt 0.489902 0.404581
vt 0.367890 0.394602
vt 0.367890 0.016011
f 1/1/1 2/2/2 3/3/3
f 1/1/1 3/3/3 4/4/4
f 1/1/1 4/4/4 5/5/5
f 1/1/1 5/5/5 6/6/6
f 1/1/1 6/6/6 7/7/7
f 1/1/1 7/7/7 8/8/8
f 1/1/1 8/8/8 9/9/9
f 1/1/1 9/9/9 2/2/2
f 10/10/10 11/11/11 12/12/12
f 10/10/10 12/12/12 13/13/13
f 10/10/10 13/13/13 3/3/3
f 10/10/10 3/3/3 2/2/2
f 10/10/10 2/2/2 9/9/9
f 10/10/10 9/9/9 14/14/14
f 10/10/10 14/14/14 15/15/15
f 10/10/10 15/15/15 11/11/11
f 16/16/16 17/17/17 18/18/18
f 16/16/16 18/18/18 19/19/19
f 16/16/16 19/19/19 20/20/20
f 16/16/16 20/20/20 21/21/21
f 16/16/16 21/21/21 22/22/22
f 16/16/16 22/22/22 23/23/23
f 16/16/16 23/23/23 24/24/24
f 16/16/16 24/24/24 17/17/17
f 25/25/25 21/21/21 20/20/20
f 25/25/25 20/20/20 26/26/26
f 25/25/25 26/26/26 27/27/27
f 25/25/25 27/27/27 28/28/28
f 25/25/25 28/28/28 29/29/29
f 25/25/25 29/29/29 30/30/30
f 25/25/25 30/30/30 22/22/22
f 25/25/25 22/22/22 21/21/21
f 31/31/31 32/32/32 22/22/22
f 31/31/31 22/22/22 30/30/30
f 31/31/31 30/30/30 29/29/29
f 31/31/31 29/29/29 33/33/33
f 31/31/31 33/33/33 5/5/5
f 31/31/31 5/5/5 4/4/4
f 31/31/31 4/4/4 3/3/3
f 31/31/31 3/3/3 32/32/32
f 34/34/34 35/35/35 24/24/24
f 34/34/34 24/24/24 23/23/23
f 34/34/34 23/23/23 22/22/22
f 34/34/34 22/22/22 32/32/32
f 34/34/34 32/32/32 3/3/3
f 34/34/34 3/3/3 13/13/13
f 34/34/34 13/13/13 12/12/12
f 34/34/34 12/12/12 35/35/35
f 36/36/36 37/37/37 38/38/38
f 36/36/36 38/38/38 39/39/39
f 36/36/36 39/39/39 40/40/40
f 36/36/36 40/40/40 41/41/41
f 36/36/36 41/41/41 20/20/20
f 36/36/36 20/20/20 19/19/19
f 36/36/36 19/19/19 18/18/18
f 36/36/36 18/18/18 37/37/37
f 42/42/42 41/41/41 40/40/40
f 42/42/42 40/40/40 43/43/43
f 42/42/42 43/43/43 44/44/44
f 42/42/42 44/44/44 45/45/45
f 42/42/42 45/45/45 27/27/27
f 42/42/42 27/27/27 26/26/26
f 42/42/42 26/26/26 20/20/20
f 42/42/42 20/20/20 41/41/41
f 46/46/46 47/47/47 48/48/48
f 46/46/46 48/48/48 49/49/49
f 46/46/46 49/49/49 50/50/50
f 46/46/46 50/50/50 51/51/51
f 46/46/46 51/51/51 52/52/52
f 46/46/46 52/52/52 53/53/53
f 46/46/46 53/53/53 54/54/54
f 46/46/46 54/54/54 47/47/47
f 55/55/55 56/56/56 57/57/57
f 55/55/55 57/57/57 58/58/58
f 55/55/55 58/58/58 48/48/48
f 55/55/55 48/48/48 47/47/47
f 55/55/55 47/47/47 54/54/54
f 55/55/55 54/54/54 59/59/59
f 55/55/55 59/59/59 60/60/60
f 55/55/55 60/60/60 56/56/56
f 61/61/61 62/62/62 63/63/63
f 61/61/61 63/63/63 64/64/64
f 61/61/61 64/64/64 65/65/65
f 61/61/61 65/65/65 66/66/66
f 61/61/61 66/66/66 67/67/67
f 61/61/61 67/67/67 68/68/68
f 61/61/61 68/68/68 69/69/69
f 61/61/61 69/69/69 62/62/62
f 70/70/70 66/66/66 65/65/65
f 70/70/70 65/65/65 71/71/71
f 70/70/70 71/71/71 72/72/72
f 70/70/70 72/72/72 73/73/73
f 70/70/70 73/73/73 74/74/74
f 70/70/70 74/74/74 75/75/75
f 70/70/70 75/75/75 67/67/67
f 70/70/70 67/67/67 66/66/66
f 76/76/76 77/77/77 54/54/54
f 76/76/76 54/54/54 53/53/53
f 76/76/76 53/53/53 52/52/52
f 76/76/76 52/52/52 78/78/78
f 76/76/76 78/78/78 72/72/72
f 76/76/76 72/72/72 71/71/71
f 76/76/76 71/71/71 65/65/65
f 76/76/76 65/65/65 77/77/77
f 79/79/79 80/80/80 60/60/60
f 79/79/79 60/60/60 59/59/59
f 79/79/79 59/59/59 54/54/54
f 79/79/79 54/54/54 77/77/77
f 79/79/79 77/77/77 65/65/65
f 79/79/79 65/65/65 64/64/64
f 79/79/79 64/64/64 63/63/63
f 79/79/79 63/63/63 80/80/80
f 81/81/81 82/82/82 69/69/69
f 81/81/81 69/69/69 68/68/68
f 81/81/81 68/68/68 67/67/67
f 81/81/81 67/67/67 83/83/83
f 81/81/81 83/83/83 84/84/84
f 81/81/81 84/84/84 85/85/85
f 81/81/81 85/85/85 86/86/86
f 81/81/81 86/86/86 82/82/82
f 87/87/87 83/83/83 67/67/67
f 87/87/87 67/67/67 75/75/75
f 87/87/87 75/75/75 74/74/74
f 87/87/87 74/74/74 88/88/88
f 87/87/87 88/88/88 89/89/89
f 87/87/87 89/89/89 90/90/90
f 87/87/87 90/90/90 84/84/84
f 87/87/87 84/84/84 83/83/83
f 91/91/91 92/92/92 38/38/38
f 91/91/91 38/38/38 37/37/37
f 91/91/91 37/37/37 18/18/18
f 91/91/91 18/18/18 93/93/93
f 91/91/91 93/93/93 69/69/69
f 91/91/91 69/69/69 82/82/82
f 91/91/91 82/82/82 94/94/94
f 91/91/91 94/94/94 92/92/92
f 95/95/95 96/96/96 44/44/44
f 95/95/95 44/44/44 43/43/43
f 95/95/95 43/43/43 40/40/40
f 95/95/95 40/40/40 97/97/97
f 95/95/95 97/97/97 84/84/84
f 95/95/95 84/84/84 90/90/90
f 95/95/95 90/90/90 98/98/98
f 95/95/95 98/98/98 96/96/96
f 99/99/99 100/100/100 7/7/7
f 99/99/99 7/7/7 6/6/6
f 99/99/99 6/6/6 5/5/5
f 99/99/99 5/5/5 101/101/101
f 99/99/99 101/101/101 52/52/52
f 99/99/99 52/52/52 51/51/51
f 99/99/99 51/51/51 102/102/102
f 99/99/99 102/102/102 100/100/100
f 103/103/103 104/104/104 15/15/15
f 103/103/103 15/15/15 14/14/14
f 103/103/103 14/14/14 9/9/9
f 103/103/103 9/9/9 105/105/105
f 103/103/103 105/105/105 48/48/48
f 103/103/103 48/48/48 58/58/58
f 103/103/103 58/58/58 106/106/106
f 103/103/103 106/106/106 104/104/104
f 107/107/107 108/108/108 12/12/12
f 107/107/107 12/12/12 11/11/11
f 107/107/107 11/11/11 15/15/15
f 107/107/107 15/15/15 104/104/104
f 107/107/107 104/104/104 106/106/106
f 107/107/107 106/106/106 56/56/56
f 107/107/107 56/56/56 60/60/60
f 107/107/107 60/60/60 108/108/108
f 109/109/109 97/97/97 40/40/40
f 109/109/109 40/40/40 39/39/39
f 109/109/109 39/39/39 38/38/38
f 109/109/109 38/38/38 92/92/92
f 109/109/109 92/92/92 94/94/94
f 109/109/109 94/94/94 85/85/85
f 109/109/109 85/85/85 84/84/84
f 109/109/109 84/84/84 97/97/97
f 110/110/110 111/111/111 27/27/27
f 110/110/110 27/27/27 45/45/45
f 110/110/110 45/45/45 44/44/44
f 110/110/110 44/44/44 96/96/96
f 110/110/110 96/96/96 98/98/98
f 110/110/110 98/98/98 88/88/88
f 110/110/110 88/88/88 74/74/74
f 110/110/110 74/74/74 111/111/111
f 112/112/112 105/105/105 9/9/9
f 112/112/112 9/9/9 8/8/8
f 112/112/112 8/8/8 7/7/7
f 112/112/112 7/7/7 100/100/100
f 112/112/112 100/100/100 102/102/102
f 112/112/112 102/102/102 49/49/49
f 112/112/112 49/49/49 48/48/48
f 112/112/112 48/48/48 105/105/105
f 113/113/113 101/101/101 5/5/5
f 113/113/113 5/5/5 33/33/33
f 113/113/113 33/33/33 29/29/29
f 113/113/113 29/29/29 114/114/114
f 113/113/113 114/114/114 72/72/72
f 113/113/113 72/72/72 78/78/78
f 113/113/113 78/78/78 52/52/52
f 113/113/113 52/52/52 101/101/101
f 115/115/115 116/116/116 24/24/24
f 115/115/115 24/24/24 35/35/35
f 115/115/115 35/35/35 12/12/12
f 115/115/115 12/12/12 108/108/108
f 115/115/115 108/108/108 60/60/60
f 115/115/115 60/60/60 80/80/80
f 115/115/115 80/80/80 63/63/63
f 115/115/115 63/63/63 116/116/116
f 117/117/117 93/93/93 18/18/18
f 117/117/117 18/18/18 17/17/17
f 117/117/117 17/17/17 24/24/24
f 117/117/117 24/24/24 116/116/116
f 117/117/117 116/116/116 63/63/63
f 117/117/117 63/63/63 62/62/62
f 117/117/117 62/62/62 69/69/69
f 117/117/117 69/69/69 93/93/93
f 118/118/118 114/114/114 29/29/29
f 118/118/118 29/29/29 28/28/28
f 118/118/118 28/28/28 27/27/27
f 118/118/118 27/27/27 111/111/111
f 118/118/118 111/111/111 74/74/74
f 118/118/118 74/74/74 73/73/73
f 118/118/118 73/73/73 72/72/72
f 118/118/118 72/72/72 114/114/114
