v -2.356382 0.720489 -1.089116
v -2.354949 0.721197 -1.090315
v -2.356499 0.719889 -1.092037
v -2.357922 0.719185 -1.090482
v -2.359184 0.718742 -1.089398
v -2.357764 0.719963 -1.088415
v -2.356557 0.720696 -1.088064
v -2.355188 0.721358 -1.088201
v -2.353757 0.722083 -1.089051
v -2.354370 0.721979 -1.092060
v -2.354235 0.722577 -1.093577
v -2.355175 0.721712 -1.095263
v -2.355634 0.720879 -1.093828
v -2.353446 0.722648 -1.090749
v -2.353699 0.722813 -1.092245
v -2.359522 0.715690 -1.099055
v -2.358850 0.716433 -1.100344
v -2.360048 0.714217 -1.101714
v -2.360632 0.713553 -1.100569
v -2.361502 0.712734 -1.099080
v -2.360516 0.714769 -1.097375
v -2.359384 0.716677 -1.095635
v -2.358358 0.717653 -1.097395
v -2.357677 0.718451 -1.098749
v -2.361764 0.714030 -1.095777
v -2.362614 0.712085 -1.097670
v -2.363521 0.711644 -1.096633
v -2.362777 0.713525 -1.094600
v -2.361785 0.715409 -1.092740
v -2.360703 0.715917 -1.093966
v -2.359392 0.717648 -1.092150
v -2.358011 0.718383 -1.093833
v -2.360556 0.717186 -1.090923
v -2.357013 0.719410 -1.095630
v -2.356387 0.720274 -1.097021
v -2.361815 0.711277 -1.101896
v -2.361415 0.711798 -1.102764
v -2.362242 0.710294 -1.103120
v -2.362707 0.709503 -1.102817
v -2.363096 0.709046 -1.102036
v -2.362436 0.710647 -1.100775
v -2.363294 0.710181 -1.099733
v -2.363721 0.708752 -1.101335
v -2.364066 0.708943 -1.100452
v -2.364009 0.709877 -1.098970
v -2.356264 0.720320 -1.089082
v -2.354815 0.721038 -1.090304
v -2.353657 0.721963 -1.089044
v -2.355102 0.721229 -1.088176
v -2.356497 0.720600 -1.088041
v -2.357684 0.719833 -1.088378
v -2.359098 0.718616 -1.089360
v -2.357796 0.719021 -1.090445
v -2.356359 0.719734 -1.092020
v -2.354221 0.721833 -1.092070
v -2.354117 0.722475 -1.093596
v -2.353614 0.722735 -1.092257
v -2.353336 0.722537 -1.090760
v -2.355482 0.720735 -1.093831
v -2.355054 0.721611 -1.095275
v -2.359355 0.715567 -1.099027
v -2.358720 0.716345 -1.100331
v -2.357551 0.718358 -1.098742
v -2.358195 0.717523 -1.097376
v -2.359230 0.716538 -1.095600
v -2.360358 0.714639 -1.097333
v -2.361341 0.712609 -1.099032
v -2.360461 0.713436 -1.100536
v -2.359915 0.714133 -1.101696
v -2.361615 0.713892 -1.095721
v -2.360560 0.715771 -1.093916
v -2.361684 0.715297 -1.092696
v -2.362671 0.713419 -1.094551
v -2.363413 0.711542 -1.096580
v -2.362463 0.711953 -1.097609
v -2.359258 0.717493 -1.092107
v -2.357864 0.718236 -1.093807
v -2.360462 0.717067 -1.090883
v -2.356855 0.719272 -1.095621
v -2.356264 0.720176 -1.097023
v -2.361642 0.711162 -1.101862
v -2.361281 0.711716 -1.102747
v -2.362273 0.710524 -1.100726
v -2.362973 0.708954 -1.101999
v -2.362577 0.709418 -1.102792
v -2.362144 0.710233 -1.103105
v -2.363142 0.710051 -1.099668
v -2.363901 0.709776 -1.098915
v -2.363984 0.708870 -1.100413
v -2.363607 0.708655 -1.101285
v -2.361222 0.711936 -1.103048
v -2.362417 0.709882 -1.103453
v -2.359793 0.714401 -1.102089
v -2.362144 0.710233 -1.103105
v -2.363812 0.708233 -1.101847
v -2.364245 0.708529 -1.100780
v -2.363261 0.708471 -1.102440
v -2.363984 0.708870 -1.100413
v -2.358191 0.719729 -1.088162
v -2.356633 0.720698 -1.087820
v -2.359568 0.718538 -1.089018
v -2.356497 0.720600 -1.088041
v -2.353089 0.722822 -1.090317
v -2.353540 0.722988 -1.092344
v -2.353316 0.722325 -1.088627
v -2.353614 0.722735 -1.092257
v -2.354136 0.722733 -1.094094
v -2.354967 0.721946 -1.095749
v -2.362947 0.708874 -1.103113
v -2.364201 0.709730 -1.098690
v -2.363777 0.711451 -1.096262
v -2.354752 0.721590 -1.087885
v -2.360904 0.716979 -1.090494
v -2.362103 0.715189 -1.092310
v -2.356123 0.720519 -1.097488
v -2.357393 0.718677 -1.099199
v -2.358567 0.716643 -1.100769
v -2.363069 0.713309 -1.094184
vn -0.498400 0.844100 -0.197600
vn -0.613400 0.789500 -0.019600
vn -0.647800 0.759500 -0.058400
vn -0.547000 0.807900 -0.219000
vn -0.566400 0.791900 -0.228200
vn -0.503700 0.842300 -0.191800
vn -0.457500 0.873800 -0.164500
vn -0.467500 0.877400 -0.107500
vn -0.555200 0.830700 0.040900
vn -0.723800 0.677200 0.132200
vn -0.721000 0.681400 0.125900
vn -0.758200 0.649800 0.052500
vn -0.748600 0.658700 0.075800
vn -0.651500 0.741100 0.161900
vn -0.690800 0.701100 0.176800
vn -0.818800 0.558000 -0.134500
vn -0.805300 0.568400 -0.168600
vn -0.815400 0.546700 -0.190500
vn -0.834300 0.530900 -0.148400
vn -0.782400 0.572600 -0.244900
vn -0.767100 0.602900 -0.219200
vn -0.732200 0.660500 -0.166200
vn -0.793700 0.603400 -0.077000
vn -0.789200 0.604300 -0.109000
vn -0.705600 0.641900 -0.300100
vn -0.712900 0.620800 -0.326100
vn -0.743700 0.599700 -0.295100
vn -0.730500 0.623800 -0.277800
vn -0.690400 0.677500 -0.253500
vn -0.666700 0.697400 -0.262800
vn -0.607300 0.759800 -0.232300
vn -0.687500 0.718300 -0.106400
vn -0.630500 0.739200 -0.236700
vn -0.767300 0.641200 0.001900
vn -0.773200 0.633500 -0.027900
vn -0.849900 0.508900 -0.136800
vn -0.832200 0.522900 -0.184500
vn -0.851500 0.496100 -0.169400
vn -0.876400 0.456600 -0.153000
vn -0.806100 0.515600 -0.290200
vn -0.789100 0.558000 -0.257000
vn -0.701800 0.618500 -0.353300
vn -0.705900 0.582800 -0.402500
vn -0.723500 0.591000 -0.356800
vn -0.737200 0.593200 -0.323300
vn 0.493600 -0.837800 0.233300
vn 0.623100 -0.781500 0.030300
vn 0.659000 -0.748700 0.071500
vn 0.473300 -0.813900 0.337000
vn 0.401800 -0.805500 0.435400
vn 0.415000 -0.810800 0.412800
vn 0.467100 -0.805200 0.365200
vn 0.538000 -0.810500 0.231300
vn 0.647800 -0.759600 0.058300
vn 0.747500 -0.649700 -0.138000
vn 0.842900 -0.494000 -0.213200
vn 0.852800 -0.471500 -0.224300
vn 0.810800 -0.563900 -0.156800
vn 0.755200 -0.649700 -0.086400
vn 0.826800 -0.538900 -0.161100
vn 0.825300 -0.551500 0.121100
vn 0.863700 -0.503300 0.026200
vn 0.845900 -0.533100 -0.015700
vn 0.799900 -0.596600 0.065100
vn 0.732300 -0.660300 0.166300
vn 0.767200 -0.602700 0.219300
vn 0.782400 -0.572500 0.245000
vn 0.841000 -0.524800 0.131600
vn 0.872300 -0.488800 0.007800
vn 0.695300 -0.647800 0.311200
vn 0.657300 -0.702100 0.273600
vn 0.588900 -0.723400 0.360300
vn 0.618300 -0.685100 0.385200
vn 0.601800 -0.689200 0.403600
vn 0.700000 -0.629200 0.337700
vn 0.598200 -0.763600 0.243100
vn 0.687500 -0.718300 0.106400
vn 0.531100 -0.772400 0.348300
vn 0.773300 -0.633900 -0.013000
vn 0.829600 -0.551300 -0.088400
vn 0.853100 -0.511200 0.104500
vn 0.873600 -0.483200 -0.057000
vn 0.785000 -0.566900 0.249600
vn 0.766000 -0.605000 0.217400
vn 0.851400 -0.524400 0.003000
vn 0.869900 -0.483100 -0.099300
vn 0.678600 -0.640400 0.359600
vn 0.548600 -0.723900 0.418300
vn 0.513400 -0.747000 0.422300
vn 0.602800 -0.708500 0.366900
vn 0.186700 0.198300 -0.962200
vn -0.071800 -0.122500 -0.989900
vn 0.292500 0.299800 -0.908000
vn 0.869900 -0.483100 -0.099300
vn -0.481000 -0.774400 -0.410900
vn -0.768700 -0.638800 0.030200
vn -0.241300 -0.789100 -0.564800
vn 0.513400 -0.747000 0.422300
vn -0.491300 0.069600 0.868200
vn -0.230800 0.246300 0.941300
vn -0.611100 -0.083900 0.787100
vn 0.401800 -0.805500 0.435400
vn 0.717700 0.671300 0.184900
vn 0.542300 0.818600 -0.189200
vn 0.634900 0.421700 0.647300
vn 0.852800 -0.471500 -0.224300
vn 0.435900 0.756100 -0.488200
vn 0.378200 0.648700 -0.660300
vn -0.235100 -0.592100 -0.770800
vn -0.757500 -0.500900 0.418700
vn -0.706900 -0.440000 0.553800
vn 0.205800 0.292300 0.933900
vn -0.660600 -0.206800 0.721700
vn -0.671900 -0.284100 0.684000
vn 0.352700 0.543600 -0.761600
vn 0.348600 0.471400 -0.810100
vn 0.342500 0.396600 -0.851700
vn -0.677900 -0.358800 0.641600
vt 0.839504 0.118056
vt 0.856743 0.205307
vt 0.741230 0.205307
vt 0.734555 0.106726
vt 0.724541 0.032791
vt 0.813647 0.052618
vt 0.868992 0.081539
vt 0.913398 0.129584
vt 0.940923 0.205307
vt 0.839504 0.292557
vt 0.813647 0.357995
vt 0.724541 0.377822
vt 0.734555 0.303887
vt 0.913398 0.281029
vt 0.868992 0.329074
vt 0.369475 0.299954
vt 0.368286 0.370940
vt 0.245840 0.351447
vt 0.246397 0.288815
vt 0.246768 0.205307
vt 0.370268 0.205307
vt 0.494283 0.205307
vt 0.492822 0.304944
vt 0.490632 0.379672
vt 0.369475 0.110659
vt 0.246397 0.121798
vt 0.245841 0.059166
vt 0.368286 0.039673
vt 0.490632 0.030941
vt 0.492822 0.105669
vt 0.616755 0.103478
vt 0.619174 0.205307
vt 0.613127 0.027106
vt 0.616755 0.307135
vt 0.613126 0.383507
vt 0.123273 0.268175
vt 0.123047 0.315326
vt 0.054743 0.283353
vt 0.030912 0.249131
vt 0.030973 0.205306
vt 0.123423 0.205306
vt 0.123273 0.142438
vt 0.030912 0.161481
vt 0.054744 0.127260
vt 0.123047 0.095287
vt 0.839504 0.118056
vt 0.856743 0.205307
vt 0.968983 0.205307
vt 0.938030 0.133427
vt 0.876123 0.061548
vt 0.805028 0.030806
vt 0.721203 0.008146
vt 0.734555 0.106726
vt 0.741230 0.205307
vt 0.839504 0.292557
vt 0.805028 0.379807
vt 0.876123 0.349065
vt 0.938030 0.277186
vt 0.734555 0.303887
vt 0.721203 0.402467
vt 0.369475 0.299954
vt 0.367890 0.394602
vt 0.489902 0.404581
vt 0.492822 0.304944
vt 0.494283 0.205307
vt 0.370268 0.205307
vt 0.246768 0.205307
vt 0.246397 0.288815
vt 0.245655 0.372324
vt 0.369475 0.110659
vt 0.492822 0.105669
vt 0.489902 0.006032
vt 0.367890 0.016011
vt 0.245655 0.038289
vt 0.246397 0.121798
vt 0.616755 0.103478
vt 0.619174 0.205307
vt 0.611917 0.001649
vt 0.616755 0.307135
vt 0.611917 0.408964
vt 0.123273 0.268175
vt 0.122972 0.331043
vt 0.123423 0.205306
vt 0.000156 0.205306
vt 0.000125 0.242784
vt 0.000064 0.280261
vt 0.123273 0.142438
vt 0.122972 0.079570
vt 0.000064 0.130352
vt 0.000125 0.167829
vt 0.122972 0.331043
vt 0.030806 0.283587
vt 0.245655 0.372324
vt 0.030806 0.283587
vt 0.000125 0.167829
vt 0.030806 0.127026
vt 0.000156 0.205306
vt 0.030806 0.127026
vt 0.805028 0.030806
vt 0.873826 0.071832
vt 0.721203 0.008146
vt 0.873826 0.071832
vt 0.938030 0.277186
vt 0.873826 0.338781
vt 0.968983 0.205307
vt 0.873826 0.338781
vt 0.805028 0.379807
vt 0.721203 0.402467
vt 0.000125 0.242784
vt 0.122972 0.079570
vt 0.245655 0.038289
vt 0.938030 0.133427
vt 0.611917 0.001649
vt 0.489902 0.006032
vt 0.611917 0.408964
vt 0.489902 0.404581
vt 0.367890 0.394602
vt 0.367890 0.016011
f 1/1/1 2/2/2 3/3/3
f 1/1/1 3/3/3 4/4/4
f 1/1/1 4/4/4 5/5/5
f 1/1/1 5/5/5 6/6/6
f 1/1/1 6/6/6 7/7/7
f 1/1/1 7/7/7 8/8/8
f 1/1/1 8/8/8 9/9/9
f 1/1/1 9/9/9 2/2/2
f 10/10/10 11/11/11 12/12/12
f 10/10/10 12/12/12 13/13/13
f 10/10/10 13/13/13 3/3/3
f 10/10/10 3/3/3 2/2/2
f 10/10/10 2/2/2 9/9/9
f 10/10/10 9/9/9 14/14/14
f 10/10/10 14/14/14 15/15/15
f 10/10/10 15/15/15 11/11/11
f 16/16/16 17/17/17 18/18/18
f 16/16/16 18/18/18 19/19/19
f 16/16/16 19/19/19 20/20/20
f 16/16/16 20/20/20 21/21/21
f 16/16/16 21/21/21 22/22/22
f 16/16/16 22/22/22 23/23/23
f 16/16/16 23/23/23 24/24/24
f 16/16/16 24/24/24 17/17/17
f 25/25/25 21/21/21 20/20/20
f 25/25/25 20/20/20 26/26/26
f 25/25/25 26/26/26 27/27/27
f 25/25/25 27/27/27 28/28/28
f 25/25/25 28/28/28 29/29/29
f 25/25/25 29/29/29 30/30/30
f 25/25/25 30/30/30 22/22/22
f 25/25/25 22/22/22 21/21/21
f 31/31/31 32/32/32 22/22/22
f 31/31/31 22/22/22 30/30/30
f 31/31/31 30/30/30 29/29/29
f 31/31/31 29/29/29 33/33/33
f 31/31/31 33/33/33 5/5/5
f 31/31/31 5/5/5 4/4/4
f 31/31/31 4/4/4 3/3/3
f 31/31/31 3/3/3 32/32/32
f 34/34/34 35/35/35 24/24/24
f 34/34/34 24/24/24 23/23/23
f 34/34/34 23/23/23 22/22/22
f 34/34/34 22/22/22 32/32/32
f 34/34/34 32/32/32 3/3/3
f 34/34/34 3/3/3 13/13/13
f 34/34/34 13/13/13 12/12/12
f 34/34/34 12/12/12 35/35/35
f 36/36/36 37/37/37 38/38/38
f 36/36/36 38/38/38 39/39/39
f 36/36/36 39/39/39 40/40/40
f 36/36/36 40/40/40 41/41/41
f 36/36/36 41/41/41 20/20/20
f 36/36/36 20/20/20 19/19/19
f 36/36/36 19/19/19 18/18/18
f 36/36/36 18/18/18 37/37/37
f 42/42/42 41/41/41 40/40/40
f 42/42/42 40/40/40 43/43/43
f 42/42/42 43/43/43 44/44/44
f 42/42/42 44/44/44 45/45/45
f 42/42/42 45/45/45 27/27/27
f 42/42/42 27/27/27 26/26/26
f 42/42/42 26/26/26 20/20/20
f 42/42/42 20/20/20 41/41/41
f 46/46/46 47/47/47 48/48/48
f 46/46/46 48/48/48 49/49/49
f 46/46/46 49/49/49 50/50/50
f 46/46/46 50/50/50 51/51/51
f 46/46/46 51/51/51 52/52/52
f 46/46/46 52/52/52 53/53/53
f 46/46/46 53/53/53 54/54/54
f 46/46/46 54/54/54 47/47/47
f 55/55/55 56/56/56 57/57/57
f 55/55/55 57/57/57 58/58/58
f 55/55/55 58/58/58 48/48/48
f 55/55/55 48/48/48 47/47/47
f 55/55/55 47/47/47 54/54/54
f 55/55/55 54/54/54 59/59/59
f 55/55/55 59/59/59 60/60/60
f 55/55/55 60/60/60 56/56/56
f 61/61/61 62/62/62 63/63/63
f 61/61/61 63/63/63 64/64/64
f 61/61/61 64/64/64 65/65/65
f 61/61/61 65/65/65 66/66/66
f 61/61/61 66/66/66 67/67/67
f 61/61/61 67/67/67 68/68/68
f 61/61/61 68/68/68 69/69/69
f 61/61/61 69/69/69 62/62/62
f 70/70/70 66/66/66 65/65/65
f 70/70/70 65/65/65 71/71/71
f 70/70/70 71/71/71 72/72/72
f 70/70/70 72/72/72 73/73/73
f 70/70/70 73/73/73 74/74/74
f 70/70/70 74/74/74 75/75/75
f 70/70/70 75/75/75 67/67/67
f 70/70/70 67/67/67 66/66/66
f 76/76/76 77/77/77 54/54/54
f 76/76/76 54/54/54 53/53/53
f 76/76/76 53/53/53 52/52/52
f 76/76/76 52/52/52 78/78/78
f 76/76/76 78/78/78 72/72/72
f 76/76/76 72/72/72 71/71/71
f 76/76/76 71/71/71 65/65/65
f 76/76/76 65/65/65 77/77/77
f 79/79/79 80/80/80 60/60/60
f 79/79/79 60/60/60 59/59/59
f 79/79/79 59/59/59 54/54/54
f 79/79/79 54/54/54 77/77/77
f 79/79/79 77/77/77 65/65/65
f 79/79/79 65/65/65 64/64/64
f 79/79/79 64/64/64 63/63/63
f 79/79/79 63/63/63 80/80/80
f 81/81/81 82/82/82 69/69/69
f 81/81/81 69/69/69 68/68/68
f 81/81/81 68/68/68 67/67/67
f 81/81/81 67/67/67 83/83/83
f 81/81/81 83/83/83 84/84/84
f 81/81/81 84/84/84 85/85/85
f 81/81/81 85/85/85 86/86/86
f 81/81/81 86/86/86 82/82/82
f 87/87/87 83/83/83 67/67/67
f 87/87/87 67/67/67 75/75/75
f 87/87/87 75/75/75 74/74/74
f 87/87/87 74/74/74 88/88/88
f 87/87/87 88/88/88 89/89/89
f 87/87/87 89/89/89 90/90/90
f 87/87/87 90/90/90 84/84/84
f 87/87/87 84/84/84 83/83/83
f 91/91/91 92/92/92 38/38/38
f 91/91/91 38/38/38 37/37/37
f 91/91/91 37/37/37 18/18/18
f 91/91/91 18/18/18 93/93/93
f 91/91/91 93/93/93 69/69/69
f 91/91/91 69/69/69 82/82/82
f 91/91/91 82/82/82 94/94/94
f 91/91/91 94/94/94 92/92/92
f 95/95/95 96/96/96 44/44/44
f 95/95/95 44/44/44 43/43/43
f 95/95/95 43/43/43 40/40/40
f 95/95/95 40/40/40 97/97/97
f 95/95/95 97/97/97 84/84/84
f 95/95/95 84/84/84 90/90/90
f 95/95/95 90/90/90 98/98/98
f 95/95/95 98/98/98 96/96/96
f 99/99/99 100/100/100 7/7/7
f 99/99/99 7/7/7 6/6/6
f 99/99/99 6/6/6 5/5/5
f 99/99/99 5/5/5 101/101/101
f 99/99/99 101/101/101 52/52/52
f 99/99/99 52/52/52 51/51/51
f 99/99/99 51/51/51 102/102/102
f 99/99/99 102/102/102 100/100/100
f 103/103/103 104/104/104 15/15/15
f 103/103/103 15/15/15 14/14/14
f 103/103/103 14/14/14 9/9/9
f 103/103/103 9/9/9 105/105/105
f 103/103/103 105/105/105 48/48/48
f 103/103/103 48/48/48 58/58/58
f 103/103/103 58/58/58 106/106/106
f 103/103/103 106/106/106 104/104/104
f 107/107/107 108/108/108 12/12/12
f 107/107/107 12/12/12 11/11/11
f 107/107/107 11/11/11 15/15/15
f 107/107/107 15/15/15 104/104/104
f 107/107/107 104/104/104 106/106/106
f 107/107/107 106/106/106 56/56/56
f 107/107/107 56/56/56 60/60/60
f 107/107/107 60/60/60 108/108/108
f 109/109/109 97/97/97 40/40/40
f 109/109/109 40/40/40 39/39/39
f 109/109/109 39/39/39 38/38/38
f 109/109/109 38/38/38 92/92/92
f 109/109/109 92/92/92 94/94/94
f 109/109/109 94/94/94 85/85/85
f 109/109/109 85/85/85 84/84/84
f 109/109/109 84/84/84 97/97/97
f 110/110/110 111/111/111 27/27/27
f 110/110/110 27/27/27 45/45/45
f 110/110/110 45/45/45 44/44/44
f 110/110/110 44/44/44 96/96/96
f 110/110/110 96/96/96 98/98/98
f 110/110/110 98/98/98 88/88/88
f 110/110/110 88/88/88 74/74/74
f 110/110/110 74/74/74 111/111/111
f 112/112/112 105/105/105 9/9/9
f 112/112/112 9/9/9 8/8/8
f 112/112/112 8/8/8 7/7/7
f 112/112/112 7/7/7 100/100/100
f 112/112/112 100/100/100 102/102/102
f 112/112/112 102/102/102 49/49/49
f 112/112/112 49/49/49 48/48/48
f 112/112/112 48/48/48 105/105/105
f 113/113/113 101/101/101 5/5/5
f 113/113/113 5/5/5 33/33/33
f 113/113/113 33/33/33 29/29/29
f 113/113/113 29/29/29 114/114/114
f 113/113/113 114/114/114 72/72/72
f 113/113/113 72/72/72 78/78/78
f 113/113/113 78/78/78 52/52/52
f 113/113/113 52/52/52 101/101/101
f 115/115/115 116/116/116 24/24/24
f 115/115/115 24/24/24 35/35/35
f 115/115/115 35/35/35 12/12/12
f 115/115/115 12/12/12 108/108/108
f 115/115/115 108/108/108 60/60/60
f 115/115/115 60/60/60 80/80/80
f 115/115/115 80/80/80 63/63/63
f 115/115/115 63/63/63 116/116/116
f 117/117/117 93/93/93 18/18/18
f 117/117/117 18/18/18 17/17/17
f 117/117/117 17/17/17 24/24/24
f 117/117/117 24/24/24 116/116/116
f 117/117/117 116/116/116 63/63/63
f 117/117/117 63/63/63 62/62/62
f 117/117/117 62/62/62 69/69/69
f 117/117/117 69/69/69 93/93/93
f 118/118/118 114/114/114 29/29/29
f 118/118/118 29/29/29 28/28/28
f 118/118/118 28/28/28 27/27/27
f 118/118/118 27/27/27 111/111/111
f 118/118/118 111/111/111 74/74/74
f 118/118/118 74/74/74 73/73/73
f 118/118/118 73/73/73 72/72/72
f 118/118/118 72/72/72 114/114/114
