v -2.434489 0.744505 -1.129799
v -2.432253 0.745572 -1.130163
v -2.432428 0.743466 -1.132740
v -2.434910 0.742439 -1.132007
v -2.436922 0.741725 -1.131694
v -2.436336 0.743626 -1.129943
v -2.435451 0.744822 -1.128889
v -2.434040 0.745918 -1.128204
v -2.432060 0.747040 -1.128217
v -2.430502 0.746495 -1.131696
v -2.429344 0.747117 -1.133270
v -2.428979 0.745690 -1.135473
v -2.430379 0.744701 -1.134163
v -2.430589 0.747641 -1.129846
v -2.429788 0.747649 -1.131584
v -2.429929 0.736983 -1.141174
v -2.428407 0.737922 -1.142169
v -2.428366 0.734806 -1.143959
v -2.429704 0.733971 -1.143066
v -2.431563 0.732916 -1.141990
v -2.432038 0.735794 -1.139969
v -2.432374 0.738551 -1.137784
v -2.430182 0.739808 -1.139060
v -2.428612 0.740809 -1.140126
v -2.434369 0.734766 -1.139061
v -2.433630 0.732010 -1.141198
v -2.435247 0.731370 -1.140685
v -2.436186 0.734038 -1.138467
v -2.436750 0.736746 -1.136254
v -2.434827 0.737489 -1.136850
v -2.435015 0.740073 -1.134428
v -2.432487 0.741117 -1.135328
v -2.437027 0.739370 -1.133897
v -2.430302 0.742426 -1.136670
v -2.428768 0.743493 -1.137827
v -2.429671 0.730789 -1.144790
v -2.428703 0.731435 -1.145501
v -2.429102 0.729372 -1.146140
v -2.429697 0.728327 -1.145997
v -2.430599 0.727754 -1.145380
v -2.431034 0.729985 -1.143953
v -2.432601 0.729326 -1.143395
v -2.431705 0.727324 -1.145042
v -2.432715 0.727568 -1.144421
v -2.433841 0.728869 -1.143056
v -2.434372 0.744326 -1.129648
v -2.432105 0.745406 -1.130025
v -2.431949 0.746913 -1.128117
v -2.433954 0.745781 -1.128093
v -2.435394 0.744719 -1.128803
v -2.436265 0.743486 -1.129824
v -2.436845 0.741592 -1.131570
v -2.434789 0.742268 -1.131849
v -2.432280 0.743307 -1.132595
v -2.430325 0.746346 -1.131573
v -2.429198 0.747015 -1.133186
v -2.429683 0.747570 -1.131521
v -2.430455 0.747528 -1.129758
v -2.430204 0.744557 -1.134031
v -2.428836 0.745591 -1.135381
v -2.429763 0.736870 -1.141003
v -2.428273 0.737842 -1.142046
v -2.428476 0.740722 -1.140012
v -2.430014 0.739684 -1.138900
v -2.432226 0.738417 -1.137614
v -2.431891 0.735672 -1.139789
v -2.431417 0.732802 -1.141803
v -2.429539 0.733866 -1.142889
v -2.428233 0.734733 -1.143832
v -2.434241 0.734634 -1.138872
v -2.434699 0.737345 -1.136670
v -2.436665 0.736634 -1.136115
v -2.436101 0.733934 -1.138322
v -2.435162 0.731273 -1.140535
v -2.433504 0.731887 -1.141002
v -2.434890 0.739916 -1.134260
v -2.432338 0.740969 -1.135170
v -2.436946 0.739247 -1.133766
v -2.430131 0.742292 -1.136524
v -2.428630 0.743399 -1.137723
v -2.429506 0.730689 -1.144611
v -2.428569 0.731365 -1.145373
v -2.430888 0.729874 -1.143764
v -2.430490 0.727671 -1.145238
v -2.429572 0.728252 -1.145864
v -2.429006 0.729319 -1.146044
v -2.432477 0.729205 -1.143197
v -2.433759 0.728774 -1.142904
v -2.432652 0.727499 -1.144309
v -2.431613 0.727234 -1.144893
v -2.428318 0.731620 -1.145683
v -2.428991 0.728796 -1.146520
v -2.427859 0.735053 -1.144201
v -2.429006 0.729319 -1.146044
v -2.431365 0.726617 -1.145524
v -2.432610 0.726989 -1.144797
v -2.430405 0.726973 -1.145793
v -2.432652 0.727499 -1.144309
v -2.436924 0.743270 -1.129937
v -2.435704 0.744830 -1.128693
v -2.437562 0.741426 -1.131533
v -2.435394 0.744719 -1.128803
v -2.430559 0.747972 -1.129191
v -2.429578 0.747889 -1.131608
v -2.431946 0.747472 -1.127525
v -2.429683 0.747570 -1.131521
v -2.428890 0.747281 -1.133760
v -2.428446 0.745978 -1.135871
v -2.429650 0.727473 -1.146341
v -2.434220 0.728674 -1.142874
v -2.435750 0.731113 -1.140446
v -2.433853 0.746328 -1.127624
v -2.437665 0.739080 -1.133660
v -2.437356 0.736447 -1.135992
v -2.428193 0.743808 -1.138167
v -2.428026 0.741105 -1.140432
v -2.427838 0.738201 -1.142447
v -2.436756 0.733748 -1.138203
vn -0.373900 0.728500 -0.574000
vn -0.564300 0.668500 -0.484500
vn -0.567000 0.630200 -0.530400
vn -0.397400 0.683000 -0.612800
vn -0.406400 0.663200 -0.628500
vn -0.381300 0.726200 -0.572000
vn -0.362600 0.767100 -0.529100
vn -0.403900 0.773300 -0.488700
vn -0.555900 0.723400 -0.409300
vn -0.730300 0.550500 -0.404400
vn -0.724900 0.554600 -0.408600
vn -0.709600 0.511800 -0.484200
vn -0.716100 0.523900 -0.461100
vn -0.694800 0.628200 -0.350100
vn -0.731500 0.583000 -0.353500
vn -0.642300 0.397100 -0.655600
vn -0.612700 0.407000 -0.677400
vn -0.606300 0.382300 -0.697300
vn -0.644100 0.366700 -0.671200
vn -0.550600 0.409300 -0.727500
vn -0.556000 0.443700 -0.702800
vn -0.563800 0.510200 -0.649500
vn -0.659400 0.450300 -0.602000
vn -0.637400 0.449600 -0.625700
vn -0.463300 0.486500 -0.740700
vn -0.452200 0.462600 -0.762600
vn -0.493100 0.438800 -0.751200
vn -0.494600 0.466000 -0.733600
vn -0.481300 0.527600 -0.700000
vn -0.458600 0.550500 -0.697500
vn -0.434000 0.624300 -0.649500
vn -0.567600 0.579200 -0.585100
vn -0.448300 0.599700 -0.662800
vn -0.687100 0.497900 -0.529100
vn -0.674000 0.487000 -0.555400
vn -0.661400 0.343300 -0.666800
vn -0.621000 0.356600 -0.698000
vn -0.642700 0.328200 -0.692200
vn -0.668500 0.286100 -0.686500
vn -0.538300 0.345800 -0.768500
vn -0.547600 0.393000 -0.738700
vn -0.427400 0.460100 -0.778200
vn -0.398800 0.420800 -0.814800
vn -0.440100 0.429400 -0.788600
vn -0.470800 0.431600 -0.769400
vn 0.348900 -0.720300 0.599500
vn 0.565200 -0.658100 0.497300
vn 0.567500 -0.616700 0.545500
vn 0.270200 -0.692600 0.668800
vn 0.154800 -0.689200 0.707800
vn 0.179100 -0.693800 0.697500
vn 0.248200 -0.683100 0.686800
vn 0.383400 -0.686100 0.618200
vn 0.567000 -0.630200 0.530400
vn 0.750100 -0.520000 0.408600
vn 0.855700 -0.355900 0.375500
vn 0.867800 -0.333400 0.368400
vn 0.803900 -0.426400 0.414700
vn 0.726800 -0.514700 0.454800
vn 0.816900 -0.399200 0.416300
vn 0.654600 -0.390600 0.647200
vn 0.735600 -0.343900 0.583600
vn 0.748200 -0.379300 0.544300
vn 0.670600 -0.443400 0.594600
vn 0.563800 -0.510100 0.649600
vn 0.556000 -0.443500 0.703000
vn 0.550600 -0.409300 0.727600
vn 0.658700 -0.360900 0.660200
vn 0.751800 -0.329400 0.571100
vn 0.449100 -0.493200 0.745000
vn 0.445300 -0.556000 0.701800
vn 0.341900 -0.582200 0.737600
vn 0.347800 -0.537500 0.768200
vn 0.324100 -0.542900 0.774700
vn 0.435900 -0.472200 0.766200
vn 0.420800 -0.628800 0.653900
vn 0.567600 -0.579200 0.585100
vn 0.306700 -0.641000 0.703600
vn 0.697700 -0.490500 0.522100
vn 0.778500 -0.405500 0.479000
vn 0.682800 -0.347500 0.642700
vn 0.789700 -0.328600 0.518100
vn 0.549500 -0.403000 0.731900
vn 0.556400 -0.446100 0.701000
vn 0.741100 -0.368400 0.561300
vn 0.810900 -0.332300 0.481600
vn 0.407000 -0.485200 0.773900
vn 0.275800 -0.585200 0.762500
vn 0.247200 -0.613700 0.749800
vn 0.347900 -0.564700 0.748400
vn 0.685600 0.155000 -0.711200
vn 0.523100 -0.207400 -0.826600
vn 0.730300 0.276300 -0.624700
vn 0.810900 -0.332300 0.481600
vn -0.078200 -0.874300 -0.479000
vn -0.579100 -0.757200 -0.302100
vn 0.206400 -0.859200 -0.468200
vn 0.247200 -0.613700 0.749800
vn -0.905200 0.049500 0.422100
vn -0.753000 0.273300 0.598500
vn -0.940800 -0.128200 0.313700
vn 0.154800 -0.689200 0.707800
vn 0.410700 0.796700 0.443300
vn 0.468800 0.883100 0.016900
vn 0.101700 0.572100 0.813800
vn 0.867800 -0.333400 0.368400
vn 0.560500 0.781000 -0.275300
vn 0.623500 0.652400 -0.430700
vn 0.310600 -0.680100 -0.664100
vn -0.807200 -0.590200 -0.000800
vn -0.849300 -0.512200 0.127400
vn -0.398900 0.392700 0.828600
vn -0.931300 -0.262300 0.252600
vn -0.911100 -0.343700 0.227500
vn 0.671300 0.537100 -0.510600
vn 0.702900 0.462100 -0.540700
vn 0.729200 0.384000 -0.566300
vn -0.884100 -0.421700 0.201400
vt 0.839504 0.118056
vt 0.856743 0.205307
vt 0.741230 0.205307
vt 0.734555 0.106726
vt 0.724541 0.032791
vt 0.813647 0.052618
vt 0.868992 0.081539
vt 0.913398 0.129584
vt 0.940923 0.205307
vt 0.839504 0.292557
vt 0.813647 0.357995
vt 0.724541 0.377822
vt 0.734555 0.303887
vt 0.913398 0.281029
vt 0.868992 0.329074
vt 0.369475 0.299954
vt 0.368286 0.370940
vt 0.245840 0.351447
vt 0.246397 0.288815
vt 0.246768 0.205307
vt 0.370268 0.205307
vt 0.494283 0.205307
vt 0.492822 0.304944
vt 0.490632 0.379672
vt 0.369475 0.110659
vt 0.246397 0.121798
vt 0.245841 0.059166
vt 0.368286 0.039673
vt 0.490632 0.030941
vt 0.492822 0.105669
vt 0.616755 0.103478
vt 0.619174 0.205307
vt 0.613127 0.027106
vt 0.616755 0.307135
vt 0.613126 0.383507
vt 0.123273 0.268175
vt 0.123047 0.315326
vt 0.054743 0.283353
vt 0.030912 0.249131
vt 0.030973 0.205306
vt 0.123423 0.205306
vt 0.123273 0.142438
vt 0.030912 0.161481
vt 0.054744 0.127260
vt 0.123047 0.095287
vt 0.839504 0.118056
vt 0.856743 0.205307
vt 0.968983 0.205307
vt 0.938030 0.133427
vt 0.876123 0.061548
vt 0.805028 0.030806
vt 0.721203 0.008146
vt 0.734555 0.106726
vt 0.741230 0.205307
vt 0.839504 0.292557
vt 0.805028 0.379807
vt 0.876123 0.349065
vt 0.938030 0.277186
vt 0.734555 0.303887
vt 0.721203 0.402467
vt 0.369475 0.299954
vt 0.367890 0.394602
vt 0.489902 0.404581
vt 0.492822 0.304944
vt 0.494283 0.205307
vt 0.370268 0.205307
vt 0.246768 0.205307
vt 0.246397 0.288815
vt 0.245655 0.372324
vt 0.369475 0.110659
vt 0.492822 0.105669
vt 0.489902 0.006032
vt 0.367890 0.016011
vt 0.245655 0.038289
vt 0.246397 0.121798
vt 0.616755 0.103478
vt 0.619174 0.205307
vt 0.611917 0.001649
vt 0.616755 0.307135
vt 0.611917 0.408964
vt 0.123273 0.268175
vt 0.122972 0.331043
vt 0.123423 0.205306
vt 0.000156 0.205306
vt 0.000125 0.242784
vt 0.000064 0.280261
vt 0.123273 0.142438
vt 0.122972 0.079570
vt 0.000064 0.130352
vt 0.000125 0.167829
vt 0.122972 0.331043
vt 0.030806 0.283587
vt 0.245655 0.372324
vt 0.030806 0.283587
vt 0.000125 0.167829
vt 0.030806 0.127026
vt 0.000156 0.205306
vt 0.030806 0.127026
vt 0.805028 0.030806
vt 0.873826 0.071832
vt 0.721203 0.008146
vt 0.873826 0.071832
vt 0.938030 0.277186
vt 0.873826 0.338781
vt 0.968983 0.205307
vt 0.873826 0.338781
vt 0.805028 0.379807
vt 0.721203 0.402467
vt 0.000125 0.242784
vt 0.122972 0.079570
vt 0.245655 0.038289
vt 0.938030 0.133427
vt 0.611917 0.001649
vt 0.489902 0.006032
vt 0.611917 0.408964
vt 0.489902 0.404581
vt 0.367890 0.394602
vt 0.367890 0.016011
f 1/1/1 2/2/2 3/3/3
f 1/1/1 3/3/3 4/4/4
f 1/1/1 4/4/4 5/5/5
f 1/1/1 5/5/5 6/6/6
f 1/1/1 6/6/6 7/7/7
f 1/1/1 7/7/7 8/8/8
f 1/1/1 8/8/8 9/9/9
f 1/1/1 9/9/9 2/2/2
f 10/10/10 11/11/11 12/12/12
f 10/10/10 12/12/12 13/13/13
f 10/10/10 13/13/13 3/3/3
f 10/10/10 3/3/3 2/2/2
f 10/10/10 2/2/2 9/9/9
f 10/10/10 9/9/9 14/14/14
f 10/10/10 14/14/14 15/15/15
f 10/10/10 15/15/15 11/11/11
f 16/16/16 17/17/17 18/18/18
f 16/16/16 18/18/18 19/19/19
f 16/16/16 19/19/19 20/20/20
f 16/16/16 20/20/20 21/21/21
f 16/16/16 21/21/21 22/22/22
f 16/16/16 22/22/22 23/23/23
f 16/16/16 23/23/23 24/24/24
f 16/16/16 24/24/24 17/17/17
f 25/25/25 21/21/21 20/20/20
f 25/25/25 20/20/20 26/26/26
f 25/25/25 26/26/26 27/27/27
f 25/25/25 27/27/27 28/28/28
f 25/25/25 28/28/28 29/29/29
f 25/25/25 29/29/29 30/30/30
f 25/25/25 30/30/30 22/22/22
f 25/25/25 22/22/22 21/21/21
f 31/31/31 32/32/32 22/22/22
f 31/31/31 22/22/22 30/30/30
f 31/31/31 30/30/30 29/29/29
f 31/31/31 29/29/29 33/33/33
f 31/31/31 33/33/33 5/5/5
f 31/31/31 5/5/5 4/4/4
f 31/31/31 4/4/4 3/3/3
f 31/31/31 3/3/3 32/32/32
f 34/34/34 35/35/35 24/24/24
f 34/34/34 24/24/24 23/23/23
f 34/34/34 23/23/23 22/22/22
f 34/34/34 22/22/22 32/32/32
f 34/34/34 32/32/32 3/3/3
f 34/34/34 3/3/3 13/13/13
f 34/34/34 13/13/13 12/12/12
f 34/34/34 12/12/12 35/35/35
f 36/36/36 37/37/37 38/38/38
f 36/36/36 38/38/38 39/39/39
f 36/36/36 39/39/39 40/40/40
f 36/36/36 40/40/40 41/41/41
f 36/36/36 41/41/41 20/20/20
f 36/36/36 20/20/20 19/19/19
f 36/36/36 19/19/19 18/18/18
f 36/36/36 18/18/18 37/37/37
f 42/42/42 41/41/41 40/40/40
f 42/42/42 40/40/40 43/43/43
f 42/42/42 43/43/43 44/44/44
f 42/42/42 44/44/44 45/45/45
f 42/42/42 45/45/45 27/27/27
f 42/42/42 27/27/27 26/26/26
f 42/42/42 26/26/26 20/20/20
f 42/42/42 20/20/20 41/41/41
f 46/46/46 47/47/47 48/48/48
f 46/46/46 48/48/48 49/49/49
f 46/46/46 49/49/49 50/50/50
f 46/46/46 50/50/50 51/51/51
f 46/46/46 51/51/51 52/52/52
f 46/46/46 52/52/52 53/53/53
f 46/46/46 53/53/53 54/54/54
f 46/46/46 54/54/54 47/47/47
f 55/55/55 56/56/56 57/57/57
f 55/55/55 57/57/57 58/58/58
f 55/55/55 58/58/58 48/48/48
f 55/55/55 48/48/48 47/47/47
f 55/55/55 47/47/47 54/54/54
f 55/55/55 54/54/54 59/59/59
f 55/55/55 59/59/59 60/60/60
f 55/55/55 60/60/60 56/56/56
f 61/61/61 62/62/62 63/63/63
f 61/61/61 63/63/63 64/64/64
f 61/61/61 64/64/64 65/65/65
f 61/61/61 65/65/65 66/66/66
f 61/61/61 66/66/66 67/67/67
f 61/61/61 67/67/67 68/68/68
f 61/61/61 68/68/68 69/69/69
f 61/61/61 69/69/69 62/62/62
f 70/70/70 66/66/66 65/65/65
f 70/70/70 65/65/65 71/71/71
f 70/70/70 71/71/71 72/72/72
f 70/70/70 72/72/72 73/73/73
f 70/70/70 73/73/73 74/74/74
f 70/70/70 74/74/74 75/75/75
f 70/70/70 75/75/75 67/67/67
f 70/70/70 67/67/67 66/66/66
f 76/76/76 77/77/77 54/54/54
f 76/76/76 54/54/54 53/53/53
f 76/76/76 53/53/53 52/52/52
f 76/76/76 52/52/52 78/78/78
f 76/76/76 78/78/78 72/72/72
f 76/76/76 72/72/72 71/71/71
f 76/76/76 71/71/71 65/65/65
f 76/76/76 65/65/65 77/77/77
f 79/79/79 80/80/80 60/60/60
f 79/79/79 60/60/60 59/59/59
f 79/79/79 59/59/59 54/54/54
f 79/79/79 54/54/54 77/77/77
f 79/79/79 77/77/77 65/65/65
f 79/79/79 65/65/65 64/64/64
f 79/79/79 64/64/64 63/63/63
f 79/79/79 63/63/63 80/80/80
f 81/81/81 82/82/82 69/69/69
f 81/81/81 69/69/69 68/68/68
f 81/81/81 68/68/68 67/67/67
f 81/81/81 67/67/67 83/83/83
f 81/81/81 83/83/83 84/84/84
f 81/81/81 84/84/84 85/85/85
f 81/81/81 85/85/85 86/86/86
f 81/81/81 86/86/86 82/82/82
f 87/87/87 83/83/83 67/67/67
f 87/87/87 67/67/67 75/75/75
f 87/87/87 75/75/75 74/74/74
f 87/87/87 74/74/74 88/88/88
f 87/87/87 88/88/88 89/89/89
f 87/87/87 89/89/89 90/90/90
f 87/87/87 90/90/90 84/84/84
f 87/87/87 84/84/84 83/83/83
f 91/91/91 92/92/92 38/38/38
f 91/91/91 38/38/38 37/37/37
f 91/91/91 37/37/37 18/18/18
f 91/91/91 18/18/18 93/93/93
f 91/91/91 93/93/93 69/69/69
f 91/91/91 69/69/69 82/82/82
f 91/91/91 82/82/82 94/94/94
f 91/91/91 94/94/94 92/92/92
f 95/95/95 96/96/96 44/44/44
f 95/95/95 44/44/44 43/43/43
f 95/95/95 43/43/43 40/40/40
f 95/95/95 40/40/40 97/97/97
f 95/95/95 97/97/97 84/84/84
f 95/95/95 84/84/84 90/90/90
f 95/95/95 90/90/90 98/98/98
f 95/95/95 98/98/98 96/96/96
f 99/99/99 100/100/100 7/7/7
f 99/99/99 7/7/7 6/6/6
f 99/99/99 6/6/6 5/5/5
f 99/99/99 5/5/5 101/101/101
f 99/99/99 101/101/101 52/52/52
f 99/99/99 52/52/52 51/51/51
f 99/99/99 51/51/51 102/102/102
f 99/99/99 102/102/102 100/100/100
f 103/103/103 104/104/104 15/15/15
f 103/103/103 15/15/15 14/14/14
f 103/103/103 14/14/14 9/9/9
f 103/103/103 9/9/9 105/105/105
f 103/103/103 105/105/105 48/48/48
f 103/103/103 48/48/48 58/58/58
f 103/103/103 58/58/58 106/106/106
f 103/103/103 106/106/106 104/104/104
f 107/107/107 108/108/108 12/12/12
f 107/107/107 12/12/12 11/11/11
f 107/107/107 11/11/11 15/15/15
f 107/107/107 15/15/15 104/104/104
f 107/107/107 104/104/104 106/106/106
f 107/107/107 106/106/106 56/56/56
f 107/107/107 56/56/56 60/60/60
f 107/107/107 60/60/60 108/108/108
f 109/109/109 97/97/97 40/40/40
f 109/109/109 40/40/40 39/39/39
f 109/109/109 39/39/39 38/38/38
f 109/109/109 38/38/38 92/92/92
f 109/109/109 92/92/92 94/94/94
f 109/109/109 94/94/94 85/85/85
f 109/109/109 85/85/85 84/84/84
f 109/109/109 84/84/84 97/97/97
f 110/110/110 111/111/111 27/27/27
f 110/110/110 27/27/27 45/45/45
f 110/110/110 45/45/45 44/44/44
f 110/110/110 44/44/44 96/96/96
f 110/110/110 96/96/96 98/98/98
f 110/110/110 98/98/98 88/88/88
f 110/110/110 88/88/88 74/74/74
f 110/110/110 74/74/74 111/111/111
f 112/112/112 105/105/105 9/9/9
f 112/112/112 9/9/9 8/8/8
f 112/112/112 8/8/8 7/7/7
f 112/112/112 7/7/7 100/100/100
f 112/112/112 100/100/100 102/102/102
f 112/112/112 102/102/102 49/49/49
f 112/112/112 49/49/49 48/48/48
f 112/112/112 48/48/48 105/105/105
f 113/113/113 101/101/101 5/5/5
f 113/113/113 5/5/5 33/33/33
f 113/113/113 33/33/33 29/29/29
f 113/113/113 29/29/29 114/114/114
f 113/113/113 114/114/114 72/72/72
f 113/113/113 72/72/72 78/78/78
f 113/113/113 78/78/78 52/52/52
f 113/113/113 52/52/52 101/101/101
f 115/115/115 116/116/116 24/24/24
f 115/115/115 24/24/24 35/35/35
f 115/115/115 35/35/35 12/12/12
f 115/115/115 12/12/12 108/108/108
f 115/115/115 108/108/108 60/60/60
f 115/115/115 60/60/60 80/80/80
f 115/115/115 80/80/80 63/63/63
f 115/115/115 63/63/63 116/116/116
f 117/117/117 93/93/93 18/18/18
f 117/117/117 18/18/18 17/17/17
f 117/117/117 17/17/17 24/24/24
f 117/117/117 24/24/24 116/116/116
f 117/117/117 116/116/116 63/63/63
f 117/117/117 63/63/63 62/62/62
f 117/117/117 62/62/62 69/69/69
f 117/117/117 69/69/69 93/93/93
f 118/118/118 114/114/114 29/29/29
f 118/118/118 29/29/29 28/28/28
f 118/118/118 28/28/28 27/27/27
f 118/118/118 27/27/27 111/111/111
f 118/118/118 111/111/111 74/74/74
f 118/118/118 74/74/74 73/73/73
f 118/118/118 73/73/73 72/72/72
f 118/118/118 72/72/72 114/114/114
