v -2.318622 0.777686 -1.222824
v -2.316466 0.777962 -1.222004
v -2.316150 0.775444 -1.223773
v -2.318641 0.775371 -1.224457
v -2.320486 0.775327 -1.225235
v -2.320196 0.777328 -1.223834
v -2.319621 0.778452 -1.222706
v -2.318534 0.779259 -1.221557
v -2.316705 0.779745 -1.220621
v -2.314162 0.777876 -1.222299
v -2.312374 0.777661 -1.222913
v -2.311600 0.775706 -1.224189
v -2.313572 0.775587 -1.223860
v -2.314673 0.779423 -1.221103
v -2.313286 0.778721 -1.221961
v -2.312771 0.766839 -1.227941
v -2.310877 0.766982 -1.227963
v -2.311140 0.763795 -1.228913
v -2.312817 0.763667 -1.228880
v -2.315031 0.763529 -1.228967
v -2.315273 0.766684 -1.228054
v -2.315536 0.769754 -1.226929
v -2.312917 0.769925 -1.226832
v -2.310932 0.770088 -1.226888
v -2.317738 0.766628 -1.228526
v -2.317209 0.763480 -1.229397
v -2.318837 0.763468 -1.229820
v -2.319580 0.766611 -1.228987
v -2.320036 0.769700 -1.227959
v -2.318112 0.769704 -1.227444
v -2.318442 0.772664 -1.226042
v -2.315835 0.772691 -1.225459
v -2.320385 0.772695 -1.226659
v -2.313170 0.772889 -1.225422
v -2.311146 0.773089 -1.225572
v -2.313140 0.760447 -1.229777
v -2.311881 0.760555 -1.229855
v -2.312616 0.758709 -1.230310
v -2.313486 0.758005 -1.230406
v -2.314627 0.757915 -1.230371
v -2.314797 0.760334 -1.229803
v -2.316418 0.760308 -1.230163
v -2.315732 0.757909 -1.230671
v -2.316657 0.758537 -1.230785
v -2.317629 0.760310 -1.230532
v -2.318674 0.777553 -1.222628
v -2.316484 0.777829 -1.221802
v -2.316718 0.779642 -1.220471
v -2.318574 0.779156 -1.221413
v -2.319657 0.778377 -1.222600
v -2.320251 0.777229 -1.223690
v -2.320537 0.775234 -1.225086
v -2.318690 0.775246 -1.224254
v -2.316169 0.775319 -1.223566
v -2.314147 0.777746 -1.222095
v -2.312345 0.777566 -1.222759
v -2.313269 0.778649 -1.221848
v -2.314660 0.779323 -1.220952
v -2.313561 0.775464 -1.223651
v -2.311577 0.775616 -1.224031
v -2.312773 0.766756 -1.227712
v -2.310868 0.766920 -1.227790
v -2.310920 0.770018 -1.226719
v -2.312916 0.769830 -1.226608
v -2.315558 0.769657 -1.226707
v -2.315296 0.766600 -1.227826
v -2.315055 0.763455 -1.228736
v -2.312819 0.763594 -1.228647
v -2.311131 0.763741 -1.228738
v -2.317782 0.766543 -1.228302
v -2.318157 0.769607 -1.227225
v -2.320081 0.769628 -1.227797
v -2.319624 0.766548 -1.228821
v -2.318882 0.763411 -1.229651
v -2.317255 0.763405 -1.229169
v -2.318488 0.772552 -1.225831
v -2.315855 0.772579 -1.225244
v -2.320433 0.772612 -1.226504
v -2.313165 0.772779 -1.225205
v -2.311129 0.773008 -1.225408
v -2.313141 0.760377 -1.229543
v -2.311870 0.760504 -1.229679
v -2.314821 0.760263 -1.229570
v -2.314645 0.757862 -1.230197
v -2.313486 0.757953 -1.230231
v -2.312611 0.758671 -1.230180
v -2.316465 0.760236 -1.229935
v -2.317676 0.760256 -1.230363
v -2.316689 0.758497 -1.230660
v -2.315769 0.757856 -1.230499
v -2.311454 0.760568 -1.229803
v -2.312567 0.758081 -1.230465
v -2.310575 0.763814 -1.228847
v -2.312611 0.758671 -1.230180
v -2.315520 0.757086 -1.230764
v -2.316616 0.757909 -1.230942
v -2.314579 0.757085 -1.230483
v -2.316689 0.758497 -1.230660
v -2.320748 0.777165 -1.224107
v -2.319890 0.778577 -1.222699
v -2.321127 0.775272 -1.225428
v -2.319657 0.778377 -1.222600
v -2.314837 0.779893 -1.220637
v -2.313037 0.778868 -1.221892
v -2.316790 0.780293 -1.220094
v -2.313269 0.778649 -1.221848
v -2.311761 0.777547 -1.223049
v -2.310929 0.775706 -1.224228
v -2.313601 0.757168 -1.230538
v -2.318056 0.760287 -1.230580
v -2.319402 0.763438 -1.229886
v -2.318523 0.779737 -1.221071
v -2.321057 0.772669 -1.226796
v -2.320700 0.769667 -1.228060
v -2.310461 0.773120 -1.225549
v -2.310263 0.770111 -1.226831
v -2.310239 0.767002 -1.227893
v -2.320216 0.766577 -1.229068
vn 0.284400 0.572300 -0.769100
vn 0.069000 0.594100 -0.801400
vn 0.075100 0.545000 -0.835000
vn 0.267900 0.524100 -0.808400
vn 0.261200 0.503100 -0.823800
vn 0.276800 0.572500 -0.771700
vn 0.285600 0.619300 -0.731300
vn 0.235800 0.648400 -0.723800
vn 0.059100 0.666600 -0.743100
vn -0.145300 0.554000 -0.819700
vn -0.137300 0.555000 -0.820400
vn -0.104400 0.487600 -0.866800
vn -0.116200 0.507700 -0.853600
vn -0.115100 0.633400 -0.765200
vn -0.159200 0.600400 -0.783700
vn -0.010900 0.310600 -0.950500
vn 0.026700 0.305200 -0.951900
vn 0.032100 0.274600 -0.961000
vn -0.016300 0.278300 -0.960300
vn 0.100800 0.275600 -0.956000
vn 0.097600 0.316300 -0.943600
vn 0.090700 0.396100 -0.913700
vn -0.030300 0.380800 -0.924100
vn -0.001700 0.367000 -0.930200
vn 0.204800 0.319800 -0.925100
vn 0.215100 0.288200 -0.933100
vn 0.168500 0.280400 -0.945000
vn 0.169100 0.311300 -0.935100
vn 0.186500 0.375100 -0.908000
vn 0.211600 0.391100 -0.895700
vn 0.235300 0.467800 -0.851900
vn 0.082300 0.480900 -0.872900
vn 0.221400 0.444600 -0.867900
vn -0.069700 0.454800 -0.887800
vn -0.050700 0.433100 -0.899900
vn -0.040900 0.262700 -0.964000
vn 0.011200 0.254600 -0.966900
vn -0.019500 0.236000 -0.971500
vn -0.058800 0.205800 -0.976800
vn 0.106100 0.201200 -0.973800
vn 0.102200 0.256200 -0.961200
vn 0.241100 0.274700 -0.930800
vn 0.266200 0.219700 -0.938500
vn 0.224500 0.246300 -0.942800
vn 0.192100 0.262300 -0.945700
vn -0.313200 -0.550300 0.773900
vn -0.070700 -0.580800 0.810900
vn -0.077100 -0.527900 0.845800
vn -0.397900 -0.483100 0.779900
vn -0.505300 -0.438400 0.743200
vn -0.483300 -0.451900 0.749800
vn -0.420300 -0.462800 0.780400
vn -0.282700 -0.521700 0.804900
vn -0.075100 -0.545100 0.835000
vn 0.170300 -0.529700 0.830900
vn 0.332300 -0.417300 0.845800
vn 0.354200 -0.401700 0.844400
vn 0.245400 -0.455500 0.855700
vn 0.131100 -0.504100 0.853600
vn 0.265100 -0.433700 0.861100
vn 0.027200 -0.310500 0.950200
vn 0.139800 -0.308700 0.940800
vn 0.155400 -0.356900 0.921100
vn 0.045400 -0.379800 0.923900
vn -0.090700 -0.396000 0.913700
vn -0.097600 -0.316100 0.943700
vn -0.100800 -0.275400 0.956000
vn 0.035300 -0.280200 0.959300
vn 0.164300 -0.303600 0.938500
vn -0.220500 -0.321100 0.921000
vn -0.226300 -0.391300 0.892000
vn -0.334300 -0.377800 0.863400
vn -0.327600 -0.328700 0.885800
vn -0.351300 -0.325500 0.877800
vn -0.233200 -0.291600 0.927700
vn -0.249400 -0.467100 0.848200
vn -0.082300 -0.480900 0.872900
vn -0.367300 -0.433700 0.822800
vn 0.084300 -0.452900 0.887500
vn 0.201500 -0.409500 0.889700
vn 0.067900 -0.279600 0.957700
vn 0.220400 -0.329600 0.918000
vn -0.101400 -0.268000 0.958100
vn -0.097400 -0.319100 0.942700
vn 0.145800 -0.339700 0.929200
vn 0.253800 -0.350000 0.901700
vn -0.264400 -0.293800 0.918500
vn -0.398900 -0.355900 0.845100
vn -0.425700 -0.378900 0.821700
vn -0.328300 -0.359900 0.873300
vn 0.946900 -0.260800 -0.187900
vn 0.738400 -0.587700 -0.330600
vn 0.985300 -0.132700 -0.107300
vn 0.253800 -0.350000 0.901700
vn -0.161100 -0.933100 -0.321400
vn -0.589900 -0.644000 -0.487000
vn 0.059500 -0.987200 -0.148000
vn -0.425700 -0.378900 0.821700
vn -0.891200 0.408300 -0.197600
vn -0.775500 0.631200 0.004700
vn -0.933500 0.219700 -0.283400
vn -0.505300 -0.438400 0.743200
vn 0.404600 0.767900 0.496500
vn 0.697500 0.694100 0.178200
vn -0.108000 0.760200 0.640600
vn 0.354200 -0.401700 0.844400
vn 0.875400 0.483300 0.010400
vn 0.952000 0.299900 -0.061300
vn 0.308700 -0.913200 -0.266000
vn -0.852300 -0.337200 -0.399700
vn -0.918900 -0.213700 -0.331400
vn -0.571600 0.726400 0.381700
vn -0.947600 0.074800 -0.310500
vn -0.951200 -0.011800 -0.308200
vn 0.984000 0.157400 -0.082800
vn 0.994300 0.071100 -0.079000
vn 0.997100 -0.015300 -0.074700
vn -0.947800 -0.098000 -0.303600
vt 0.839504 0.118056
vt 0.856743 0.205307
vt 0.741230 0.205307
vt 0.734555 0.106726
vt 0.724541 0.032791
vt 0.813647 0.052618
vt 0.868992 0.081539
vt 0.913398 0.129584
vt 0.940923 0.205307
vt 0.839504 0.292557
vt 0.813647 0.357995
vt 0.724541 0.377822
vt 0.734555 0.303887
vt 0.913398 0.281029
vt 0.868992 0.329074
vt 0.369475 0.299954
vt 0.368286 0.370940
vt 0.245840 0.351447
vt 0.246397 0.288815
vt 0.246768 0.205307
vt 0.370268 0.205307
vt 0.494283 0.205307
vt 0.492822 0.304944
vt 0.490632 0.379672
vt 0.369475 0.110659
vt 0.246397 0.121798
vt 0.245841 0.059166
vt 0.368286 0.039673
vt 0.490632 0.030941
vt 0.492822 0.105669
vt 0.616755 0.103478
vt 0.619174 0.205307
vt 0.613127 0.027106
vt 0.616755 0.307135
vt 0.613126 0.383507
vt 0.123273 0.268175
vt 0.123047 0.315326
vt 0.054743 0.283353
vt 0.030912 0.249131
vt 0.030973 0.205306
vt 0.123423 0.205306
vt 0.123273 0.142438
vt 0.030912 0.161481
vt 0.054744 0.127260
vt 0.123047 0.095287
vt 0.839504 0.118056
vt 0.856743 0.205307
vt 0.968983 0.205307
vt 0.938030 0.133427
vt 0.876123 0.061548
vt 0.805028 0.030806
vt 0.721203 0.008146
vt 0.734555 0.106726
vt 0.741230 0.205307
vt 0.839504 0.292557
vt 0.805028 0.379807
vt 0.876123 0.349065
vt 0.938030 0.277186
vt 0.734555 0.303887
vt 0.721203 0.402467
vt 0.369475 0.299954
vt 0.367890 0.394602
vt 0.489902 0.404581
vt 0.492822 0.304944
vt 0.494283 0.205307
vt 0.370268 0.205307
vt 0.246768 0.205307
vt 0.246397 0.288815
vt 0.245655 0.372324
vt 0.369475 0.110659
vt 0.492822 0.105669
vt 0.489902 0.006032
vt 0.367890 0.016011
vt 0.245655 0.038289
vt 0.246397 0.121798
vt 0.616755 0.103478
vt 0.619174 0.205307
vt 0.611917 0.001649
vt 0.616755 0.307135
vt 0.611917 0.408964
vt 0.123273 0.268175
vt 0.122972 0.331043
vt 0.123423 0.205306
vt 0.000156 0.205306
vt 0.000125 0.242784
vt 0.000064 0.280261
vt 0.123273 0.142438
vt 0.122972 0.079570
vt 0.000064 0.130352
vt 0.000125 0.167829
vt 0.122972 0.331043
vt 0.030806 0.283587
vt 0.245655 0.372324
vt 0.030806 0.283587
vt 0.000125 0.167829
vt 0.030806 0.127026
vt 0.000156 0.205306
vt 0.030806 0.127026
vt 0.805028 0.030806
vt 0.873826 0.071832
vt 0.721203 0.008146
vt 0.873826 0.071832
vt 0.938030 0.277186
vt 0.873826 0.338781
vt 0.968983 0.205307
vt 0.873826 0.338781
vt 0.805028 0.379807
vt 0.721203 0.402467
vt 0.000125 0.242784
vt 0.122972 0.079570
vt 0.245655 0.038289
vt 0.938030 0.133427
vt 0.611917 0.001649
vt 0.489902 0.006032
vt 0.611917 0.408964
vt 0.489902 0.404581
vt 0.367890 0.394602
vt 0.367890 0.016011
f 1/1/1 2/2/2 3/3/3
f 1/1/1 3/3/3 4/4/4
f 1/1/1 4/4/4 5/5/5
f 1/1/1 5/5/5 6/6/6
f 1/1/1 6/6/6 7/7/7
f 1/1/1 7/7/7 8/8/8
f 1/1/1 8/8/8 9/9/9
f 1/1/1 9/9/9 2/2/2
f 10/10/10 11/11/11 12/12/12
f 10/10/10 12/12/12 13/13/13
f 10/10/10 13/13/13 3/3/3
f 10/10/10 3/3/3 2/2/2
f 10/10/10 2/2/2 9/9/9
f 10/10/10 9/9/9 14/14/14
f 10/10/10 14/14/14 15/15/15
f 10/10/10 15/15/15 11/11/11
f 16/16/16 17/17/17 18/18/18
f 16/16/16 18/18/18 19/19/19
f 16/16/16 19/19/19 20/20/20
f 16/16/16 20/20/20 21/21/21
f 16/16/16 21/21/21 22/22/22
f 16/16/16 22/22/22 23/23/23
f 16/16/16 23/23/23 24/24/24
f 16/16/16 24/24/24 17/17/17
f 25/25/25 21/21/21 20/20/20
f 25/25/25 20/20/20 26/26/26
f 25/25/25 26/26/26 27/27/27
f 25/25/25 27/27/27 28/28/28
f 25/25/25 28/28/28 29/29/29
f 25/25/25 29/29/29 30/30/30
f 25/25/25 30/30/30 22/22/22
f 25/25/25 22/22/22 21/21/21
f 31/31/31 32/32/32 22/22/22
f 31/31/31 22/22/22 30/30/30
f 31/31/31 30/30/30 29/29/29
f 31/31/31 29/29/29 33/33/33
f 31/31/31 33/33/33 5/5/5
f 31/31/31 5/5/5 4/4/4
f 31/31/31 4/4/4 3/3/3
f 31/31/31 3/3/3 32/32/32
f 34/34/34 35/35/35 24/24/24
f 34/34/34 24/24/24 23/23/23
f 34/34/34 23/23/23 22/22/22
f 34/34/34 22/22/22 32/32/32
f 34/34/34 32/32/32 3/3/3
f 34/34/34 3/3/3 13/13/13
f 34/34/34 13/13/13 12/12/12
f 34/34/34 12/12/12 35/35/35
f 36/36/36 37/37/37 38/38/38
f 36/36/36 38/38/38 39/39/39
f 36/36/36 39/39/39 40/40/40
f 36/36/36 40/40/40 41/41/41
f 36/36/36 41/41/41 20/20/20
f 36/36/36 20/20/20 19/19/19
f 36/36/36 19/19/19 18/18/18
f 36/36/36 18/18/18 37/37/37
f 42/42/42 41/41/41 40/40/40
f 42/42/42 40/40/40 43/43/43
f 42/42/42 43/43/43 44/44/44
f 42/42/42 44/44/44 45/45/45
f 42/42/42 45/45/45 27/27/27
f 42/42/42 27/27/27 26/26/26
f 42/42/42 26/26/26 20/20/20
f 42/42/42 20/20/20 41/41/41
f 46/46/46 47/47/47 48/48/48
f 46/46/46 48/48/48 49/49/49
f 46/46/46 49/49/49 50/50/50
f 46/46/46 50/50/50 51/51/51
f 46/46/46 51/51/51 52/52/52
f 46/46/46 52/52/52 53/53/53
f 46/46/46 53/53/53 54/54/54
f 46/46/46 54/54/54 47/47/47
f 55/55/55 56/56/56 57/57/57
f 55/55/55 57/57/57 58/58/58
f 55/55/55 58/58/58 48/48/48
f 55/55/55 48/48/48 47/47/47
f 55/55/55 47/47/47 54/54/54
f 55/55/55 54/54/54 59/59/59
f 55/55/55 59/59/59 60/60/60
f 55/55/55 60/60/60 56/56/56
f 61/61/61 62/62/62 63/63/63
f 61/61/61 63/63/63 64/64/64
f 61/61/61 64/64/64 65/65/65
f 61/61/61 65/65/65 66/66/66
f 61/61/61 66/66/66 67/67/67
f 61/61/61 67/67/67 68/68/68
f 61/61/61 68/68/68 69/69/69
f 61/61/61 69/69/69 62/62/62
f 70/70/70 66/66/66 65/65/65
f 70/70/70 65/65/65 71/71/71
f 70/70/70 71/71/71 72/72/72
f 70/70/70 72/72/72 73/73/73
f 70/70/70 73/73/73 74/74/74
f 70/70/70 74/74/74 75/75/75
f 70/70/70 75/75/75 67/67/67
f 70/70/70 67/67/67 66/66/66
f 76/76/76 77/77/77 54/54/54
f 76/76/76 54/54/54 53/53/53
f 76/76/76 53/53/53 52/52/52
f 76/76/76 52/52/52 78/78/78
f 76/76/76 78/78/78 72/72/72
f 76/76/76 72/72/72 71/71/71
f 76/76/76 71/71/71 65/65/65
f 76/76/76 65/65/65 77/77/77
f 79/79/79 80/80/80 60/60/60
f 79/79/79 60/60/60 59/59/59
f 79/79/79 59/59/59 54/54/54
f 79/79/79 54/54/54 77/77/77
f 79/79/79 77/77/77 65/65/65
f 79/79/79 65/65/65 64/64/64
f 79/79/79 64/64/64 63/63/63
f 79/79/79 63/63/63 80/80/80
f 81/81/81 82/82/82 69/69/69
f 81/81/81 69/69/69 68/68/68
f 81/81/81 68/68/68 67/67/67
f 81/81/81 67/67/67 83/83/83
f 81/81/81 83/83/83 84/84/84
f 81/81/81 84/84/84 85/85/85
f 81/81/81 85/85/85 86/86/86
f 81/81/81 86/86/86 82/82/82
f 87/87/87 83/83/83 67/67/67
f 87/87/87 67/67/67 75/75/75
f 87/87/87 75/75/75 74/74/74
f 87/87/87 74/74/74 88/88/88
f 87/87/87 88/88/88 89/89/89
f 87/87/87 89/89/89 90/90/90
f 87/87/87 90/90/90 84/84/84
f 87/87/87 84/84/84 83/83/83
f 91/91/91 92/92/92 38/38/38
f 91/91/91 38/38/38 37/37/37
f 91/91/91 37/37/37 18/18/18
f 91/91/91 18/18/18 93/93/93
f 91/91/91 93/93/93 69/69/69
f 91/91/91 69/69/69 82/82/82
f 91/91/91 82/82/82 94/94/94
f 91/91/91 94/94/94 92/92/92
f 95/95/95 96/96/96 44/44/44
f 95/95/95 44/44/44 43/43/43
f 95/95/95 43/43/43 40/40/40
f 95/95/95 40/40/40 97/97/97
f 95/95/95 97/97/97 84/84/84
f 95/95/95 84/84/84 90/90/90
f 95/95/95 90/90/90 98/98/98
f 95/95/95 98/98/98 96/96/96
f 99/99/99 100/100/100 7/7/7
f 99/99/99 7/7/7 6/6/6
f 99/99/99 6/6/6 5/5/5
f 99/99/99 5/5/5 101/101/101
f 99/99/99 101/101/101 52/52/52
f 99/99/99 52/52/52 51/51/51
f 99/99/99 51/51/51 102/102/102
f 99/99/99 102/102/102 100/100/100
f 103/103/103 104/104/104 15/15/15
f 103/103/103 15/15/15 14/14/14
f 103/103/103 14/14/14 9/9/9
f 103/103/103 9/9/9 105/105/105
f 103/103/103 105/105/105 48/48/48
f 103/103/103 48/48/48 58/58/58
f 103/103/103 58/58/58 106/106/106
f 103/103/103 106/106/106 104/104/104
f 107/107/107 108/108/108 12/12/12
f 107/107/107 12/12/12 11/11/11
f 107/107/107 11/11/11 15/15/15
f 107/107/107 15/15/15 104/104/104
f 107/107/107 104/104/104 106/106/106
f 107/107/107 106/106/106 56/56/56
f 107/107/107 56/56/56 60/60/60
f 107/107/107 60/60/60 108/108/108
f 109/109/109 97/97/97 40/40/40
f 109/109/109 40/40/40 39/39/39
f 109/109/109 39/39/39 38/38/38
f 109/109/109 38/38/38 92/92/92
f 109/109/109 92/92/92 94/94/94
f 109/109/109 94/94/94 85/85/85
f 109/109/109 85/85/85 84/84/84
f 109/109/109 84/84/84 97/97/97
f 110/110/110 111/111/111 27/27/27
f 110/110/110 27/27/27 45/45/45
f 110/110/110 45/45/45 44/44/44
f 110/110/110 44/44/44 96/96/96
f 110/110/110 96/96/96 98/98/98
f 110/110/110 98/98/98 88/88/88
f 110/110/110 88/88/88 74/74/74
f 110/110/110 74/74/74 111/111/111
f 112/112/112 105/105/105 9/9/9
f 112/112/112 9/9/9 8/8/8
f 112/112/112 8/8/8 7/7/7
f 112/112/112 7/7/7 100/100/100
f 112/112/112 100/100/100 102/102/102
f 112/112/112 102/102/102 49/49/49
f 112/112/112 49/49/49 48/48/48
f 112/112/112 48/48/48 105/105/105
f 113/113/113 101/101/101 5/5/5
f 113/113/113 5/5/5 33/33/33
f 113/113/113 33/33/33 29/29/29
f 113/113/113 29/29/29 114/114/114
f 113/113/113 114/114/114 72/72/72
f 113/113/113 72/72/72 78/78/78
f 113/113/113 78/78/78 52/52/52
f 113/113/113 52/52/52 101/101/101
f 115/115/115 116/116/116 24/24/24
f 115/115/115 24/24/24 35/35/35
f 115/115/115 35/35/35 12/12/12
f 115/115/115 12/12/12 108/108/108
f 115/115/115 108/108/108 60/60/60
f 115/115/115 60/60/60 80/80/80
f 115/115/115 80/80/80 63/63/63
f 115/115/115 63/63/63 116/116/116
f 117/117/117 93/93/93 18/18/18
f 117/117/117 18/18/18 17/17/17
f 117/117/117 17/17/17 24/24/24
f 117/117/117 24/24/24 116/116/116
f 117/117/117 116/116/116 63/63/63
f 117/117/117 63/63/63 62/62/62
f 117/117/117 62/62/62 69/69/69
f 117/117/117 69/69/69 93/93/93
f 118/118/118 114/114/114 29/29/29
f 118/118/118 29/29/29 28/28/28
f 118/118/118 28/28/28 27/27/27
f 118/118/118 27/27/27 111/111/111
f 118/118/118 111/111/111 74/74/74
f 118/118/118 74/74/74 73/73/73
f 118/118/118 73/73/73 72/72/72
f 118/118/118 72/72/72 114/114/114
