v -2.457846 0.765703 -1.102643
v -2.458182 0.765590 -1.100788
v -2.455957 0.764436 -1.100977
v -2.455845 0.764645 -1.103063
v -2.455575 0.764908 -1.104645
v -2.457253 0.765826 -1.104065
v -2.458369 0.766213 -1.103364
v -2.459304 0.766363 -1.102275
v -2.459852 0.766359 -1.100649
v -2.457574 0.765635 -1.099002
v -2.456774 0.765705 -1.097679
v -2.455031 0.764771 -1.097391
v -2.455535 0.764567 -1.098924
v -2.459068 0.766303 -1.099123
v -2.457983 0.766116 -1.098192
v -2.449314 0.759785 -1.099522
v -2.449048 0.759892 -1.098005
v -2.447250 0.757950 -1.098590
v -2.447495 0.757849 -1.099930
v -2.447737 0.757786 -1.101717
v -2.449578 0.759720 -1.101543
v -2.451541 0.761513 -1.101362
v -2.451253 0.761595 -1.099249
v -2.450956 0.761729 -1.097663
v -2.449617 0.759861 -1.103577
v -2.447763 0.757916 -1.103516
v -2.447720 0.758068 -1.104874
v -2.449580 0.760025 -1.105111
v -2.451513 0.761869 -1.105096
v -2.451571 0.761675 -1.103490
v -2.453700 0.763286 -1.103332
v -2.453705 0.763081 -1.101171
v -2.453586 0.763543 -1.104965
v -2.453378 0.763205 -1.099028
v -2.453022 0.763401 -1.097422
v -2.445731 0.755863 -1.100557
v -2.445514 0.755968 -1.099557
v -2.444633 0.754808 -1.100346
v -2.444446 0.754338 -1.101106
v -2.444621 0.754262 -1.102017
v -2.445937 0.755795 -1.101889
v -2.445931 0.755913 -1.103233
v -2.444584 0.754373 -1.102940
v -2.444880 0.754870 -1.103645
v -2.445866 0.756056 -1.104250
v -2.457944 0.765534 -1.102666
v -2.458279 0.765419 -1.100784
v -2.459922 0.766229 -1.100646
v -2.459375 0.766234 -1.102294
v -2.458423 0.766119 -1.103383
v -2.457326 0.765701 -1.104097
v -2.455654 0.764785 -1.104672
v -2.455950 0.764479 -1.103082
v -2.456061 0.764268 -1.100972
v -2.457668 0.765464 -1.098970
v -2.456843 0.765579 -1.097642
v -2.458033 0.766021 -1.098168
v -2.459136 0.766174 -1.099099
v -2.455637 0.764400 -1.098895
v -2.455106 0.764648 -1.097357
v -2.449446 0.759639 -1.099497
v -2.449146 0.759783 -1.097978
v -2.451048 0.761615 -1.097635
v -2.451377 0.761442 -1.099223
v -2.451666 0.761360 -1.101356
v -2.449712 0.759574 -1.101536
v -2.447877 0.757646 -1.101709
v -2.447633 0.757708 -1.099905
v -2.447352 0.757845 -1.098562
v -2.449752 0.759716 -1.103587
v -2.451697 0.761523 -1.103503
v -2.451608 0.761756 -1.105114
v -2.449681 0.759917 -1.105127
v -2.447826 0.757964 -1.104890
v -2.447904 0.757777 -1.103526
v -2.453816 0.763126 -1.103348
v -2.453820 0.762920 -1.101165
v -2.453673 0.763425 -1.104987
v -2.453490 0.763044 -1.099001
v -2.453104 0.763282 -1.097391
v -2.445871 0.755725 -1.100531
v -2.445618 0.755865 -1.099528
v -2.446079 0.755656 -1.101881
v -2.444727 0.754158 -1.102010
v -2.444551 0.754235 -1.101085
v -2.444711 0.754732 -1.100326
v -2.446074 0.755776 -1.103244
v -2.445973 0.755954 -1.104268
v -2.444960 0.754794 -1.103656
v -2.444691 0.754270 -1.102949
v -2.445488 0.755957 -1.099209
v -2.444286 0.754413 -1.100376
v -2.447213 0.757937 -1.098128
v -2.444711 0.754732 -1.100326
v -2.444182 0.753813 -1.102846
v -2.444533 0.754476 -1.103682
v -2.444229 0.753705 -1.102056
v -2.444960 0.754794 -1.103656
v -2.457088 0.765811 -1.104557
v -2.458464 0.766301 -1.103568
v -2.455520 0.764942 -1.105187
v -2.458423 0.766119 -1.103383
v -2.459596 0.766469 -1.099153
v -2.458045 0.766196 -1.097973
v -2.460439 0.766557 -1.100601
v -2.458033 0.766021 -1.098168
v -2.456538 0.765673 -1.097219
v -2.454896 0.764785 -1.096862
v -2.444065 0.753784 -1.101279
v -2.445891 0.756058 -1.104599
v -2.447753 0.758073 -1.105335
v -2.459821 0.766525 -1.102161
v -2.453587 0.763576 -1.105521
v -2.451535 0.761884 -1.105641
v -2.452939 0.763413 -1.096871
v -2.450898 0.761723 -1.097121
v -2.449003 0.759879 -1.097486
v -2.449612 0.760032 -1.105631
vn 0.467200 0.861600 0.198400
vn 0.443000 0.896400 -0.016300
vn 0.495700 0.868200 -0.020800
vn 0.519900 0.836900 0.170900
vn 0.541300 0.825400 0.159800
vn 0.467700 0.863100 0.190600
vn 0.413300 0.886000 0.210400
vn 0.383800 0.908400 0.165600
vn 0.357600 0.933800 -0.009200
vn 0.434900 0.869700 -0.233300
vn 0.436600 0.870900 -0.225500
vn 0.513800 0.832400 -0.207500
vn 0.491000 0.844200 -0.215000
vn 0.357600 0.914900 -0.186900
vn 0.380000 0.894300 -0.236300
vn 0.685000 0.713600 -0.146900
vn 0.696000 0.709400 -0.110700
vn 0.718900 0.686400 -0.109900
vn 0.707100 0.689500 -0.156900
vn 0.727600 0.684700 -0.041600
vn 0.697800 0.715200 -0.038800
vn 0.634400 0.772300 -0.032900
vn 0.626500 0.763800 -0.154800
vn 0.643700 0.754300 -0.129100
vn 0.701200 0.709500 0.069900
vn 0.724400 0.685100 0.075600
vn 0.729100 0.683800 0.027300
vn 0.706700 0.706700 0.032400
vn 0.657800 0.750700 0.060000
vn 0.644800 0.759200 0.088300
vn 0.576800 0.807100 0.126200
vn 0.558900 0.828800 -0.026200
vn 0.598300 0.794000 0.107600
vn 0.553800 0.812900 -0.180300
vn 0.577900 0.799100 -0.165700
vn 0.712500 0.677300 -0.183100
vn 0.728900 0.671500 -0.133300
vn 0.735200 0.657200 -0.165900
vn 0.745800 0.632800 -0.208200
vn 0.777700 0.626900 -0.046400
vn 0.741100 0.670000 -0.042900
vn 0.733700 0.672000 0.100300
vn 0.770000 0.626900 0.118400
vn 0.753600 0.652500 0.079100
vn 0.742600 0.668000 0.048400
vn -0.487000 -0.844200 -0.223900
vn -0.457700 -0.888900 0.017500
vn -0.513200 -0.857900 0.022200
vn -0.539200 -0.787100 -0.299400
vn -0.548500 -0.730400 -0.406900
vn -0.543800 -0.745400 -0.385400
vn -0.553100 -0.769300 -0.319500
vn -0.520800 -0.833200 -0.185900
vn -0.495600 -0.868300 0.020800
vn -0.450500 -0.853400 0.262200
vn -0.482500 -0.760900 0.433900
vn -0.484000 -0.746500 0.456600
vn -0.491000 -0.799100 0.346900
vn -0.489700 -0.841000 0.230000
vn -0.501600 -0.782300 0.369200
vn -0.681500 -0.713400 0.162800
vn -0.652000 -0.707800 0.271800
vn -0.610000 -0.741500 0.279300
vn -0.623900 -0.762800 0.169600
vn -0.634500 -0.772200 0.032900
vn -0.698000 -0.715000 0.038800
vn -0.727700 -0.684700 0.041600
vn -0.701600 -0.690700 0.175200
vn -0.647500 -0.702300 0.295900
vn -0.700200 -0.708700 -0.086100
vn -0.644300 -0.757700 -0.103300
vn -0.646900 -0.732200 -0.212900
vn -0.687200 -0.699000 -0.198100
vn -0.686300 -0.692500 -0.222300
vn -0.721800 -0.685600 -0.094600
vn -0.576600 -0.804700 -0.140700
vn -0.558900 -0.828800 0.026200
vn -0.592800 -0.763100 -0.257500
vn -0.551500 -0.811100 0.194700
vn -0.550000 -0.773900 0.314100
vn -0.694000 -0.689600 0.206900
vn -0.606900 -0.716000 0.345000
vn -0.732900 -0.679000 0.042100
vn -0.695600 -0.717300 0.038500
vn -0.626800 -0.729900 0.272700
vn -0.576900 -0.726700 0.372900
vn -0.719000 -0.683300 -0.127000
vn -0.653600 -0.704200 -0.277400
vn -0.628100 -0.713800 -0.309900
vn -0.662300 -0.721000 -0.203500
vn 0.467800 -0.147000 0.871500
vn 0.698100 -0.370800 0.612400
vn 0.347500 -0.070700 0.935000
vn -0.576900 -0.726700 0.372900
vn 0.669200 -0.680000 -0.299500
vn 0.598000 -0.345200 -0.723300
vn 0.585900 -0.808200 -0.058900
vn -0.628100 -0.713800 -0.309900
vn -0.187600 0.455400 -0.870300
vn -0.442200 0.559900 -0.700600
vn -0.036100 0.327600 -0.944100
vn -0.548500 -0.730400 -0.406900
vn -0.699100 0.452000 0.554000
vn -0.330900 0.532200 0.779300
vn -0.921900 0.379900 0.076100
vn -0.484000 -0.746500 0.456600
vn -0.054800 0.422000 0.904900
vn 0.105400 0.292200 0.950500
vn 0.704300 -0.689000 0.170800
vn 0.332200 -0.112900 -0.936400
vn 0.204300 -0.034900 -0.978300
vn -0.772600 0.470100 -0.426600
vn 0.049800 0.211700 -0.976000
vn 0.086400 0.133900 -0.987200
vn 0.194900 0.175400 0.965000
vn 0.232600 0.097100 0.967700
vn 0.268300 0.018500 0.963100
vn 0.122300 0.055100 -0.990900
vt 0.839504 0.118056
vt 0.856743 0.205307
vt 0.741230 0.205307
vt 0.734555 0.106726
vt 0.724541 0.032791
vt 0.813647 0.052618
vt 0.868992 0.081539
vt 0.913398 0.129584
vt 0.940923 0.205307
vt 0.839504 0.292557
vt 0.813647 0.357995
vt 0.724541 0.377822
vt 0.734555 0.303887
vt 0.913398 0.281029
vt 0.868992 0.329074
vt 0.369475 0.299954
vt 0.368286 0.370940
vt 0.245840 0.351447
vt 0.246397 0.288815
vt 0.246768 0.205307
vt 0.370268 0.205307
vt 0.494283 0.205307
vt 0.492822 0.304944
vt 0.490632 0.379672
vt 0.369475 0.110659
vt 0.246397 0.121798
vt 0.245841 0.059166
vt 0.368286 0.039673
vt 0.490632 0.030941
vt 0.492822 0.105669
vt 0.616755 0.103478
vt 0.619174 0.205307
vt 0.613127 0.027106
vt 0.616755 0.307135
vt 0.613126 0.383507
vt 0.123273 0.268175
vt 0.123047 0.315326
vt 0.054743 0.283353
vt 0.030912 0.249131
vt 0.030973 0.205306
vt 0.123423 0.205306
vt 0.123273 0.142438
vt 0.030912 0.161481
vt 0.054744 0.127260
vt 0.123047 0.095287
vt 0.839504 0.118056
vt 0.856743 0.205307
vt 0.968983 0.205307
vt 0.938030 0.133427
vt 0.876123 0.061548
vt 0.805028 0.030806
vt 0.721203 0.008146
vt 0.734555 0.106726
vt 0.741230 0.205307
vt 0.839504 0.292557
vt 0.805028 0.379807
vt 0.876123 0.349065
vt 0.938030 0.277186
vt 0.734555 0.303887
vt 0.721203 0.402467
vt 0.369475 0.299954
vt 0.367890 0.394602
vt 0.489902 0.404581
vt 0.492822 0.304944
vt 0.494283 0.205307
vt 0.370268 0.205307
vt 0.246768 0.205307
vt 0.246397 0.288815
vt 0.245655 0.372324
vt 0.369475 0.110659
vt 0.492822 0.105669
vt 0.489902 0.006032
vt 0.367890 0.016011
vt 0.245655 0.038289
vt 0.246397 0.121798
vt 0.616755 0.103478
vt 0.619174 0.205307
vt 0.611917 0.001649
vt 0.616755 0.307135
vt 0.611917 0.408964
vt 0.123273 0.268175
vt 0.122972 0.331043
vt 0.123423 0.205306
vt 0.000156 0.205306
vt 0.000125 0.242784
vt 0.000064 0.280261
vt 0.123273 0.142438
vt 0.122972 0.079570
vt 0.000064 0.130352
vt 0.000125 0.167829
vt 0.122972 0.331043
vt 0.030806 0.283587
vt 0.245655 0.372324
vt 0.030806 0.283587
vt 0.000125 0.167829
vt 0.030806 0.127026
vt 0.000156 0.205306
vt 0.030806 0.127026
vt 0.805028 0.030806
vt 0.873826 0.071832
vt 0.721203 0.008146
vt 0.873826 0.071832
vt 0.938030 0.277186
vt 0.873826 0.338781
vt 0.968983 0.205307
vt 0.873826 0.338781
vt 0.805028 0.379807
vt 0.721203 0.402467
vt 0.000125 0.242784
vt 0.122972 0.079570
vt 0.245655 0.038289
vt 0.938030 0.133427
vt 0.611917 0.001649
vt 0.489902 0.006032
vt 0.611917 0.408964
vt 0.489902 0.404581
vt 0.367890 0.394602
vt 0.367890 0.016011
f 1/1/1 2/2/2 3/3/3
f 1/1/1 3/3/3 4/4/4
f 1/1/1 4/4/4 5/5/5
f 1/1/1 5/5/5 6/6/6
f 1/1/1 6/6/6 7/7/7
f 1/1/1 7/7/7 8/8/8
f 1/1/1 8/8/8 9/9/9
f 1/1/1 9/9/9 2/2/2
f 10/10/10 11/11/11 12/12/12
f 10/10/10 12/12/12 13/13/13
f 10/10/10 13/13/13 3/3/3
f 10/10/10 3/3/3 2/2/2
f 10/10/10 2/2/2 9/9/9
f 10/10/10 9/9/9 14/14/14
f 10/10/10 14/14/14 15/15/15
f 10/10/10 15/15/15 11/11/11
f 16/16/16 17/17/17 18/18/18
f 16/16/16 18/18/18 19/19/19
f 16/16/16 19/19/19 20/20/20
f 16/16/16 20/20/20 21/21/21
f 16/16/16 21/21/21 22/22/22
f 16/16/16 22/22/22 23/23/23
f 16/16/16 23/23/23 24/24/24
f 16/16/16 24/24/24 17/17/17
f 25/25/25 21/21/21 20/20/20
f 25/25/25 20/20/20 26/26/26
f 25/25/25 26/26/26 27/27/27
f 25/25/25 27/27/27 28/28/28
f 25/25/25 28/28/28 29/29/29
f 25/25/25 29/29/29 30/30/30
f 25/25/25 30/30/30 22/22/22
f 25/25/25 22/22/22 21/21/21
f 31/31/31 32/32/32 22/22/22
f 31/31/31 22/22/22 30/30/30
f 31/31/31 30/30/30 29/29/29
f 31/31/31 29/29/29 33/33/33
f 31/31/31 33/33/33 5/5/5
f 31/31/31 5/5/5 4/4/4
f 31/31/31 4/4/4 3/3/3
f 31/31/31 3/3/3 32/32/32
f 34/34/34 35/35/35 24/24/24
f 34/34/34 24/24/24 23/23/23
f 34/34/34 23/23/23 22/22/22
f 34/34/34 22/22/22 32/32/32
f 34/34/34 32/32/32 3/3/3
f 34/34/34 3/3/3 13/13/13
f 34/34/34 13/13/13 12/12/12
f 34/34/34 12/12/12 35/35/35
f 36/36/36 37/37/37 38/38/38
f 36/36/36 38/38/38 39/39/39
f 36/36/36 39/39/39 40/40/40
f 36/36/36 40/40/40 41/41/41
f 36/36/36 41/41/41 20/20/20
f 36/36/36 20/20/20 19/19/19
f 36/36/36 19/19/19 18/18/18
f 36/36/36 18/18/18 37/37/37
f 42/42/42 41/41/41 40/40/40
f 42/42/42 40/40/40 43/43/43
f 42/42/42 43/43/43 44/44/44
f 42/42/42 44/44/44 45/45/45
f 42/42/42 45/45/45 27/27/27
f 42/42/42 27/27/27 26/26/26
f 42/42/42 26/26/26 20/20/20
f 42/42/42 20/20/20 41/41/41
f 46/46/46 47/47/47 48/48/48
f 46/46/46 48/48/48 49/49/49
f 46/46/46 49/49/49 50/50/50
f 46/46/46 50/50/50 51/51/51
f 46/46/46 51/51/51 52/52/52
f 46/46/46 52/52/52 53/53/53
f 46/46/46 53/53/53 54/54/54
f 46/46/46 54/54/54 47/47/47
f 55/55/55 56/56/56 57/57/57
f 55/55/55 57/57/57 58/58/58
f 55/55/55 58/58/58 48/48/48
f 55/55/55 48/48/48 47/47/47
f 55/55/55 47/47/47 54/54/54
f 55/55/55 54/54/54 59/59/59
f 55/55/55 59/59/59 60/60/60
f 55/55/55 60/60/60 56/56/56
f 61/61/61 62/62/62 63/63/63
f 61/61/61 63/63/63 64/64/64
f 61/61/61 64/64/64 65/65/65
f 61/61/61 65/65/65 66/66/66
f 61/61/61 66/66/66 67/67/67
f 61/61/61 67/67/67 68/68/68
f 61/61/61 68/68/68 69/69/69
f 61/61/61 69/69/69 62/62/62
f 70/70/70 66/66/66 65/65/65
f 70/70/70 65/65/65 71/71/71
f 70/70/70 71/71/71 72/72/72
f 70/70/70 72/72/72 73/73/73
f 70/70/70 73/73/73 74/74/74
f 70/70/70 74/74/74 75/75/75
f 70/70/70 75/75/75 67/67/67
f 70/70/70 67/67/67 66/66/66
f 76/76/76 77/77/77 54/54/54
f 76/76/76 54/54/54 53/53/53
f 76/76/76 53/53/53 52/52/52
f 76/76/76 52/52/52 78/78/78
f 76/76/76 78/78/78 72/72/72
f 76/76/76 72/72/72 71/71/71
f 76/76/76 71/71/71 65/65/65
f 76/76/76 65/65/65 77/77/77
f 79/79/79 80/80/80 60/60/60
f 79/79/79 60/60/60 59/59/59
f 79/79/79 59/59/59 54/54/54
f 79/79/79 54/54/54 77/77/77
f 79/79/79 77/77/77 65/65/65
f 79/79/79 65/65/65 64/64/64
f 79/79/79 64/64/64 63/63/63
f 79/79/79 63/63/63 80/80/80
f 81/81/81 82/82/82 69/69/69
f 81/81/81 69/69/69 68/68/68
f 81/81/81 68/68/68 67/67/67
f 81/81/81 67/67/67 83/83/83
f 81/81/81 83/83/83 84/84/84
f 81/81/81 84/84/84 85/85/85
f 81/81/81 85/85/85 86/86/86
f 81/81/81 86/86/86 82/82/82
f 87/87/87 83/83/83 67/67/67
f 87/87/87 67/67/67 75/75/75
f 87/87/87 75/75/75 74/74/74
f 87/87/87 74/74/74 88/88/88
f 87/87/87 88/88/88 89/89/89
f 87/87/87 89/89/89 90/90/90
f 87/87/87 90/90/90 84/84/84
f 87/87/87 84/84/84 83/83/83
f 91/91/91 92/92/92 38/38/38
f 91/91/91 38/38/38 37/37/37
f 91/91/91 37/37/37 18/18/18
f 91/91/91 18/18/18 93/93/93
f 91/91/91 93/93/93 69/69/69
f 91/91/91 69/69/69 82/82/82
f 91/91/91 82/82/82 94/94/94
f 91/91/91 94/94/94 92/92/92
f 95/95/95 96/96/96 44/44/44
f 95/95/95 44/44/44 43/43/43
f 95/95/95 43/43/43 40/40/40
f 95/95/95 40/40/40 97/97/97
f 95/95/95 97/97/97 84/84/84
f 95/95/95 84/84/84 90/90/90
f 95/95/95 90/90/90 98/98/98
f 95/95/95 98/98/98 96/96/96
f 99/99/99 100/100/100 7/7/7
f 99/99/99 7/7/7 6/6/6
f 99/99/99 6/6/6 5/5/5
f 99/99/99 5/5/5 101/101/101
f 99/99/99 101/101/101 52/52/52
f 99/99/99 52/52/52 51/51/51
f 99/99/99 51/51/51 102/102/102
f 99/99/99 102/102/102 100/100/100
f 103/103/103 104/104/104 15/15/15
f 103/103/103 15/15/15 14/14/14
f 103/103/103 14/14/14 9/9/9
f 103/103/103 9/9/9 105/105/105
f 103/103/103 105/105/105 48/48/48
f 103/103/103 48/48/48 58/58/58
f 103/103/103 58/58/58 106/106/106
f 103/103/103 106/106/106 104/104/104
f 107/107/107 108/108/108 12/12/12
f 107/107/107 12/12/12 11/11/11
f 107/107/107 11/11/11 15/15/15
f 107/107/107 15/15/15 104/104/104
f 107/107/107 104/104/104 106/106/106
f 107/107/107 106/106/106 56/56/56
f 107/107/107 56/56/56 60/60/60
f 107/107/107 60/60/60 108/108/108
f 109/109/109 97/97/97 40/40/40
f 109/109/109 40/40/40 39/39/39
f 109/109/109 39/39/39 38/38/38
f 109/109/109 38/38/38 92/92/92
f 109/109/109 92/92/92 94/94/94
f 109/109/109 94/94/94 85/85/85
f 109/109/109 85/85/85 84/84/84
f 109/109/109 84/84/84 97/97/97
f 110/110/110 111/111/111 27/27/27
f 110/110/110 27/27/27 45/45/45
f 110/110/110 45/45/45 44/44/44
f 110/110/110 44/44/44 96/96/96
f 110/110/110 96/96/96 98/98/98
f 110/110/110 98/98/98 88/88/88
f 110/110/110 88/88/88 74/74/74
f 110/110/110 74/74/74 111/111/111
f 112/112/112 105/105/105 9/9/9
f 112/112/112 9/9/9 8/8/8
f 112/112/112 8/8/8 7/7/7
f 112/112/112 7/7/7 100/100/100
f 112/112/112 100/100/100 102/102/102
f 112/112/112 102/102/102 49/49/49
f 112/112/112 49/49/49 48/48/48
f 112/112/112 48/48/48 105/105/105
f 113/113/113 101/101/101 5/5/5
f 113/113/113 5/5/5 33/33/33
f 113/113/113 33/33/33 29/29/29
f 113/113/113 29/29/29 114/114/114
f 113/113/113 114/114/114 72/72/72
f 113/113/113 72/72/72 78/78/78
f 113/113/113 78/78/78 52/52/52
f 113/113/113 52/52/52 101/101/101
f 115/115/115 116/116/116 24/24/24
f 115/115/115 24/24/24 35/35/35
f 115/115/115 35/35/35 12/12/12
f 115/115/115 12/12/12 108/108/108
f 115/115/115 108/108/108 60/60/60
f 115/115/115 60/60/60 80/80/80
f 115/115/115 80/80/80 63/63/63
f 115/115/115 63/63/63 116/116/116
f 117/117/117 93/93/93 18/18/18
f 117/117/117 18/18/18 17/17/17
f 117/117/117 17/17/17 24/24/24
f 117/117/117 24/24/24 116/116/116
f 117/117/117 116/116/116 63/63/63
f 117/117/117 63/63/63 62/62/62
f 117/117/117 62/62/62 69/69/69
f 117/117/117 69/69/69 93/93/93
f 118/118/118 114/114/114 29/29/29
f 118/118/118 29/29/29 28/28/28
f 118/118/118 28/28/28 27/27/27
f 118/118/118 27/27/27 111/111/111
f 118/118/118 111/111/111 74/74/74
f 118/118/118 74/74/74 73/73/73
f 118/118/118 73/73/73 72/72/72
f 118/118/118 72/72/72 114/114/114
