v -2.314789 0.768368 -1.216406
v -2.312517 0.768403 -1.216459
v -2.313147 0.766242 -1.218481
v -2.315649 0.766396 -1.218154
v -2.317600 0.766564 -1.218152
v -2.316615 0.768256 -1.216755
v -2.315565 0.769134 -1.215823
v -2.314079 0.769678 -1.215107
v -2.312037 0.769913 -1.214905
v -2.310561 0.768260 -1.217608
v -2.309200 0.768067 -1.218863
v -2.309177 0.766348 -1.220547
v -2.310844 0.766273 -1.219520
v -2.310420 0.769585 -1.216148
v -2.309560 0.768980 -1.217531
v -2.312538 0.758451 -1.224591
v -2.310826 0.758504 -1.225312
v -2.311745 0.755595 -1.226470
v -2.313256 0.755545 -1.225819
v -2.315296 0.755529 -1.225073
v -2.314848 0.758436 -1.223760
v -2.314351 0.761229 -1.222262
v -2.311939 0.761257 -1.223149
v -2.310156 0.761330 -1.223932
v -2.317246 0.758571 -1.223252
v -2.317420 0.755651 -1.224635
v -2.319042 0.755782 -1.224395
v -2.319076 0.758715 -1.222966
v -2.318786 0.761551 -1.221478
v -2.316864 0.761383 -1.221748
v -2.316336 0.764030 -1.219992
v -2.313771 0.763841 -1.220459
v -2.318309 0.764248 -1.219800
v -2.311338 0.763902 -1.221413
v -2.309551 0.764024 -1.222290
v -2.314213 0.752598 -1.226911
v -2.313097 0.752656 -1.227445
v -2.314118 0.750983 -1.227809
v -2.315011 0.750360 -1.227655
v -2.316034 0.750320 -1.227201
v -2.315725 0.752570 -1.226318
v -2.317320 0.752677 -1.226027
v -2.317140 0.750414 -1.227049
v -2.317949 0.751080 -1.226719
v -2.318546 0.752795 -1.225895
v -2.314777 0.768211 -1.216228
v -2.312473 0.768243 -1.216289
v -2.312004 0.769791 -1.214779
v -2.314072 0.769558 -1.214976
v -2.315566 0.769046 -1.215724
v -2.316622 0.768140 -1.216619
v -2.317601 0.766453 -1.218011
v -2.315631 0.766246 -1.217971
v -2.313101 0.766089 -1.218305
v -2.310486 0.768101 -1.217449
v -2.309128 0.767949 -1.218750
v -2.309511 0.768892 -1.217446
v -2.310362 0.769463 -1.216031
v -2.310769 0.766122 -1.219353
v -2.309108 0.766236 -1.220427
v -2.312464 0.758335 -1.224396
v -2.310760 0.758417 -1.225169
v -2.310091 0.761235 -1.223795
v -2.311865 0.761129 -1.222961
v -2.314299 0.761101 -1.222067
v -2.314794 0.758320 -1.223559
v -2.315240 0.755421 -1.224867
v -2.313180 0.755437 -1.225620
v -2.311678 0.755515 -1.226324
v -2.317212 0.758456 -1.223046
v -2.316834 0.761256 -1.221549
v -2.318774 0.761457 -1.221325
v -2.319061 0.758629 -1.222809
v -2.319026 0.755702 -1.224234
v -2.317384 0.755544 -1.224424
v -2.316312 0.763890 -1.219800
v -2.313722 0.763700 -1.220274
v -2.318303 0.764145 -1.219653
v -2.311265 0.763761 -1.221236
v -2.309484 0.763919 -1.222161
v -2.314135 0.752493 -1.226711
v -2.313028 0.752578 -1.227299
v -2.315669 0.752466 -1.226111
v -2.315992 0.750242 -1.227046
v -2.314951 0.750282 -1.227505
v -2.314070 0.750925 -1.227700
v -2.317286 0.752574 -1.225815
v -2.318532 0.752718 -1.225734
v -2.317936 0.751023 -1.226600
v -2.317115 0.750337 -1.226889
v -2.312692 0.752640 -1.227559
v -2.314197 0.750400 -1.228047
v -2.311210 0.755576 -1.226623
v -2.314070 0.750925 -1.227700
v -2.317069 0.749625 -1.227319
v -2.318035 0.750498 -1.226955
v -2.316118 0.749535 -1.227426
v -2.317936 0.751023 -1.226600
v -2.317230 0.768168 -1.216810
v -2.315792 0.769265 -1.215698
v -2.318255 0.766570 -1.218088
v -2.315566 0.769046 -1.215724
v -2.310346 0.769972 -1.215610
v -2.309295 0.769099 -1.217546
v -2.311862 0.770361 -1.214332
v -2.309511 0.768892 -1.217446
v -2.308711 0.767950 -1.219233
v -2.308588 0.766323 -1.220837
v -2.315250 0.749579 -1.227836
v -2.318951 0.752800 -1.225779
v -2.319578 0.755790 -1.224243
v -2.313840 0.770061 -1.214617
v -2.318967 0.764275 -1.219670
v -2.319424 0.761565 -1.221319
v -2.308923 0.764018 -1.222526
v -2.309530 0.761312 -1.224133
v -2.310224 0.758483 -1.225489
v -2.319682 0.758724 -1.222800
vn 0.032900 0.675400 -0.736700
vn -0.175000 0.712400 -0.679500
vn -0.187400 0.669200 -0.719000
vn -0.002100 0.635100 -0.772400
vn -0.016400 0.617300 -0.786500
vn 0.024800 0.676500 -0.736000
vn 0.053200 0.715600 -0.696500
vn 0.013400 0.745400 -0.666500
vn -0.154500 0.774800 -0.612900
vn -0.383500 0.686100 -0.618200
vn -0.376200 0.686900 -0.621800
vn -0.370600 0.626400 -0.685800
vn -0.374400 0.644600 -0.666600
vn -0.326600 0.754100 -0.569800
vn -0.377600 0.726700 -0.573900
vn -0.334900 0.461000 -0.821700
vn -0.301300 0.454200 -0.838400
vn -0.303100 0.425200 -0.852800
vn -0.347100 0.431100 -0.832900
vn -0.238000 0.422100 -0.874800
vn -0.231900 0.460300 -0.856900
vn -0.218500 0.534600 -0.816400
vn -0.335400 0.526900 -0.780900
vn -0.312800 0.512900 -0.799400
vn -0.125900 0.455700 -0.881200
vn -0.122900 0.425400 -0.896600
vn -0.171000 0.421900 -0.890400
vn -0.163400 0.450700 -0.877600
vn -0.130400 0.508200 -0.851300
vn -0.100900 0.520900 -0.847600
vn -0.054500 0.588200 -0.806800
vn -0.201800 0.611900 -0.764800
vn -0.075700 0.568700 -0.819000
vn -0.350200 0.595800 -0.722800
vn -0.339400 0.575400 -0.744100
vn -0.372800 0.417400 -0.828700
vn -0.327000 0.407500 -0.852700
vn -0.358900 0.391300 -0.847300
vn -0.400200 0.364400 -0.840800
vn -0.247700 0.351500 -0.902800
vn -0.240700 0.403800 -0.882600
vn -0.099500 0.410400 -0.906400
vn -0.085200 0.356300 -0.930400
vn -0.122300 0.385200 -0.914700
vn -0.151500 0.402900 -0.902600
vn -0.055400 -0.653200 0.755100
vn 0.178500 -0.700800 0.690700
vn 0.191400 -0.654000 0.731900
vn -0.123800 -0.583800 0.802400
vn -0.231700 -0.528800 0.816500
vn -0.210300 -0.544300 0.812100
vn -0.142000 -0.563000 0.814100
vn -0.012500 -0.631400 0.775300
vn 0.187300 -0.669300 0.719000
vn 0.413300 -0.665200 0.621800
vn 0.580000 -0.564400 0.587400
vn 0.601200 -0.550100 0.579600
vn 0.499500 -0.599800 0.625000
vn 0.388500 -0.641700 0.661200
vn 0.522100 -0.580000 0.625200
vn 0.349800 -0.461700 0.815100
vn 0.450100 -0.463700 0.763100
vn 0.451900 -0.508800 0.732700
vn 0.349300 -0.526500 0.775000
vn 0.218500 -0.534400 0.816500
vn 0.231900 -0.460200 0.857000
vn 0.238000 -0.422000 0.874800
vn 0.364100 -0.433700 0.824200
vn 0.472300 -0.459500 0.752100
vn 0.109700 -0.455500 0.883400
vn 0.086000 -0.519800 0.849900
vn -0.022700 -0.496700 0.867600
vn -0.002900 -0.452200 0.891900
vn -0.027300 -0.446800 0.894200
vn 0.103800 -0.427000 0.898300
vn 0.040200 -0.586300 0.809100
vn 0.201800 -0.611900 0.764700
vn -0.074200 -0.543600 0.836000
vn 0.363600 -0.594600 0.717100
vn 0.476900 -0.557700 0.679300
vn 0.393500 -0.434400 0.810200
vn 0.513600 -0.484400 0.708200
vn 0.239000 -0.414900 0.877900
vn 0.231500 -0.462900 0.855600
vn 0.448000 -0.492600 0.746000
vn 0.536000 -0.503500 0.677600
vn 0.071400 -0.426200 0.901800
vn -0.086600 -0.469100 0.878900
vn -0.122400 -0.486700 0.864900
vn -0.011300 -0.480900 0.876700
vn 0.772800 -0.271300 -0.573700
vn 0.492400 -0.560500 -0.665800
vn 0.852100 -0.160100 -0.498200
vn 0.536000 -0.503500 0.677600
vn -0.368200 -0.860000 -0.353300
vn -0.794600 -0.528000 -0.299700
vn -0.105900 -0.951800 -0.287700
vn -0.122400 -0.486700 0.864900
vn -0.851300 0.476400 0.219700
vn -0.644400 0.658300 0.389000
vn -0.942200 0.307200 0.133500
vn -0.231700 -0.528800 0.816500
vn 0.641200 0.656800 0.396600
vn 0.782800 0.622000 -0.016700
vn 0.223300 0.650300 0.726000
vn 0.601200 -0.550100 0.579600
vn 0.861000 0.432900 -0.267000
vn 0.884900 0.260200 -0.386300
vn 0.086700 -0.871500 -0.482700
vn -0.970700 -0.227100 -0.077900
vn -0.993200 -0.113200 0.026500
vn -0.304600 0.681100 0.665800
vn -0.980900 0.169500 0.095100
vn -0.992700 0.083300 0.086600
vn 0.891100 0.121500 -0.437100
vn 0.892700 0.035000 -0.449300
vn 0.887700 -0.050700 -0.457500
vn -0.996900 -0.002300 0.078200
vt 0.839504 0.118056
vt 0.856743 0.205307
vt 0.741230 0.205307
vt 0.734555 0.106726
vt 0.724541 0.032791
vt 0.813647 0.052618
vt 0.868992 0.081539
vt 0.913398 0.129584
vt 0.940923 0.205307
vt 0.839504 0.292557
vt 0.813647 0.357995
vt 0.724541 0.377822
vt 0.734555 0.303887
vt 0.913398 0.281029
vt 0.868992 0.329074
vt 0.369475 0.299954
vt 0.368286 0.370940
vt 0.245840 0.351447
vt 0.246397 0.288815
vt 0.246768 0.205307
vt 0.370268 0.205307
vt 0.494283 0.205307
vt 0.492822 0.304944
vt 0.490632 0.379672
vt 0.369475 0.110659
vt 0.246397 0.121798
vt 0.245841 0.059166
vt 0.368286 0.039673
vt 0.490632 0.030941
vt 0.492822 0.105669
vt 0.616755 0.103478
vt 0.619174 0.205307
vt 0.613127 0.027106
vt 0.616755 0.307135
vt 0.613126 0.383507
vt 0.123273 0.268175
vt 0.123047 0.315326
vt 0.054743 0.283353
vt 0.030912 0.249131
vt 0.030973 0.205306
vt 0.123423 0.205306
vt 0.123273 0.142438
vt 0.030912 0.161481
vt 0.054744 0.127260
vt 0.123047 0.095287
vt 0.839504 0.118056
vt 0.856743 0.205307
vt 0.968983 0.205307
vt 0.938030 0.133427
vt 0.876123 0.061548
vt 0.805028 0.030806
vt 0.721203 0.008146
vt 0.734555 0.106726
vt 0.741230 0.205307
vt 0.839504 0.292557
vt 0.805028 0.379807
vt 0.876123 0.349065
vt 0.938030 0.277186
vt 0.734555 0.303887
vt 0.721203 0.402467
vt 0.369475 0.299954
vt 0.367890 0.394602
vt 0.489902 0.404581
vt 0.492822 0.304944
vt 0.494283 0.205307
vt 0.370268 0.205307
vt 0.246768 0.205307
vt 0.246397 0.288815
vt 0.245655 0.372324
vt 0.369475 0.110659
vt 0.492822 0.105669
vt 0.489902 0.006032
vt 0.367890 0.016011
vt 0.245655 0.038289
vt 0.246397 0.121798
vt 0.616755 0.103478
vt 0.619174 0.205307
vt 0.611917 0.001649
vt 0.616755 0.307135
vt 0.611917 0.408964
vt 0.123273 0.268175
vt 0.122972 0.331043
vt 0.123423 0.205306
vt 0.000156 0.205306
vt 0.000125 0.242784
vt 0.000064 0.280261
vt 0.123273 0.142438
vt 0.122972 0.079570
vt 0.000064 0.130352
vt 0.000125 0.167829
vt 0.122972 0.331043
vt 0.030806 0.283587
vt 0.245655 0.372324
vt 0.030806 0.283587
vt 0.000125 0.167829
vt 0.030806 0.127026
vt 0.000156 0.205306
vt 0.030806 0.127026
vt 0.805028 0.030806
vt 0.873826 0.071832
vt 0.721203 0.008146
vt 0.873826 0.071832
vt 0.938030 0.277186
vt 0.873826 0.338781
vt 0.968983 0.205307
vt 0.873826 0.338781
vt 0.805028 0.379807
vt 0.721203 0.402467
vt 0.000125 0.242784
vt 0.122972 0.079570
vt 0.245655 0.038289
vt 0.938030 0.133427
vt 0.611917 0.001649
vt 0.489902 0.006032
vt 0.611917 0.408964
vt 0.489902 0.404581
vt 0.367890 0.394602
vt 0.367890 0.016011
f 1/1/1 2/2/2 3/3/3
f 1/1/1 3/3/3 4/4/4
f 1/1/1 4/4/4 5/5/5
f 1/1/1 5/5/5 6/6/6
f 1/1/1 6/6/6 7/7/7
f 1/1/1 7/7/7 8/8/8
f 1/1/1 8/8/8 9/9/9
f 1/1/1 9/9/9 2/2/2
f 10/10/10 11/11/11 12/12/12
f 10/10/10 12/12/12 13/13/13
f 10/10/10 13/13/13 3/3/3
f 10/10/10 3/3/3 2/2/2
f 10/10/10 2/2/2 9/9/9
f 10/10/10 9/9/9 14/14/14
f 10/10/10 14/14/14 15/15/15
f 10/10/10 15/15/15 11/11/11
f 16/16/16 17/17/17 18/18/18
f 16/16/16 18/18/18 19/19/19
f 16/16/16 19/19/19 20/20/20
f 16/16/16 20/20/20 21/21/21
f 16/16/16 21/21/21 22/22/22
f 16/16/16 22/22/22 23/23/23
f 16/16/16 23/23/23 24/24/24
f 16/16/16 24/24/24 17/17/17
f 25/25/25 21/21/21 20/20/20
f 25/25/25 20/20/20 26/26/26
f 25/25/25 26/26/26 27/27/27
f 25/25/25 27/27/27 28/28/28
f 25/25/25 28/28/28 29/29/29
f 25/25/25 29/29/29 30/30/30
f 25/25/25 30/30/30 22/22/22
f 25/25/25 22/22/22 21/21/21
f 31/31/31 32/32/32 22/22/22
f 31/31/31 22/22/22 30/30/30
f 31/31/31 30/30/30 29/29/29
f 31/31/31 29/29/29 33/33/33
f 31/31/31 33/33/33 5/5/5
f 31/31/31 5/5/5 4/4/4
f 31/31/31 4/4/4 3/3/3
f 31/31/31 3/3/3 32/32/32
f 34/34/34 35/35/35 24/24/24
f 34/34/34 24/24/24 23/23/23
f 34/34/34 23/23/23 22/22/22
f 34/34/34 22/22/22 32/32/32
f 34/34/34 32/32/32 3/3/3
f 34/34/34 3/3/3 13/13/13
f 34/34/34 13/13/13 12/12/12
f 34/34/34 12/12/12 35/35/35
f 36/36/36 37/37/37 38/38/38
f 36/36/36 38/38/38 39/39/39
f 36/36/36 39/39/39 40/40/40
f 36/36/36 40/40/40 41/41/41
f 36/36/36 41/41/41 20/20/20
f 36/36/36 20/20/20 19/19/19
f 36/36/36 19/19/19 18/18/18
f 36/36/36 18/18/18 37/37/37
f 42/42/42 41/41/41 40/40/40
f 42/42/42 40/40/40 43/43/43
f 42/42/42 43/43/43 44/44/44
f 42/42/42 44/44/44 45/45/45
f 42/42/42 45/45/45 27/27/27
f 42/42/42 27/27/27 26/26/26
f 42/42/42 26/26/26 20/20/20
f 42/42/42 20/20/20 41/41/41
f 46/46/46 47/47/47 48/48/48
f 46/46/46 48/48/48 49/49/49
f 46/46/46 49/49/49 50/50/50
f 46/46/46 50/50/50 51/51/51
f 46/46/46 51/51/51 52/52/52
f 46/46/46 52/52/52 53/53/53
f 46/46/46 53/53/53 54/54/54
f 46/46/46 54/54/54 47/47/47
f 55/55/55 56/56/56 57/57/57
f 55/55/55 57/57/57 58/58/58
f 55/55/55 58/58/58 48/48/48
f 55/55/55 48/48/48 47/47/47
f 55/55/55 47/47/47 54/54/54
f 55/55/55 54/54/54 59/59/59
f 55/55/55 59/59/59 60/60/60
f 55/55/55 60/60/60 56/56/56
f 61/61/61 62/62/62 63/63/63
f 61/61/61 63/63/63 64/64/64
f 61/61/61 64/64/64 65/65/65
f 61/61/61 65/65/65 66/66/66
f 61/61/61 66/66/66 67/67/67
f 61/61/61 67/67/67 68/68/68
f 61/61/61 68/68/68 69/69/69
f 61/61/61 69/69/69 62/62/62
f 70/70/70 66/66/66 65/65/65
f 70/70/70 65/65/65 71/71/71
f 70/70/70 71/71/71 72/72/72
f 70/70/70 72/72/72 73/73/73
f 70/70/70 73/73/73 74/74/74
f 70/70/70 74/74/74 75/75/75
f 70/70/70 75/75/75 67/67/67
f 70/70/70 67/67/67 66/66/66
f 76/76/76 77/77/77 54/54/54
f 76/76/76 54/54/54 53/53/53
f 76/76/76 53/53/53 52/52/52
f 76/76/76 52/52/52 78/78/78
f 76/76/76 78/78/78 72/72/72
f 76/76/76 72/72/72 71/71/71
f 76/76/76 71/71/71 65/65/65
f 76/76/76 65/65/65 77/77/77
f 79/79/79 80/80/80 60/60/60
f 79/79/79 60/60/60 59/59/59
f 79/79/79 59/59/59 54/54/54
f 79/79/79 54/54/54 77/77/77
f 79/79/79 77/77/77 65/65/65
f 79/79/79 65/65/65 64/64/64
f 79/79/79 64/64/64 63/63/63
f 79/79/79 63/63/63 80/80/80
f 81/81/81 82/82/82 69/69/69
f 81/81/81 69/69/69 68/68/68
f 81/81/81 68/68/68 67/67/67
f 81/81/81 67/67/67 83/83/83
f 81/81/81 83/83/83 84/84/84
f 81/81/81 84/84/84 85/85/85
f 81/81/81 85/85/85 86/86/86
f 81/81/81 86/86/86 82/82/82
f 87/87/87 83/83/83 67/67/67
f 87/87/87 67/67/67 75/75/75
f 87/87/87 75/75/75 74/74/74
f 87/87/87 74/74/74 88/88/88
f 87/87/87 88/88/88 89/89/89
f 87/87/87 89/89/89 90/90/90
f 87/87/87 90/90/90 84/84/84
f 87/87/87 84/84/84 83/83/83
f 91/91/91 92/92/92 38/38/38
f 91/91/91 38/38/38 37/37/37
f 91/91/91 37/37/37 18/18/18
f 91/91/91 18/18/18 93/93/93
f 91/91/91 93/93/93 69/69/69
f 91/91/91 69/69/69 82/82/82
f 91/91/91 82/82/82 94/94/94
f 91/91/91 94/94/94 92/92/92
f 95/95/95 96/96/96 44/44/44
f 95/95/95 44/44/44 43/43/43
f 95/95/95 43/43/43 40/40/40
f 95/95/95 40/40/40 97/97/97
f 95/95/95 97/97/97 84/84/84
f 95/95/95 84/84/84 90/90/90
f 95/95/95 90/90/90 98/98/98
f 95/95/95 98/98/98 96/96/96
f 99/99/99 100/100/100 7/7/7
f 99/99/99 7/7/7 6/6/6
f 99/99/99 6/6/6 5/5/5
f 99/99/99 5/5/5 101/101/101
f 99/99/99 101/101/101 52/52/52
f 99/99/99 52/52/52 51/51/51
f 99/99/99 51/51/51 102/102/102
f 99/99/99 102/102/102 100/100/100
f 103/103/103 104/104/104 15/15/15
f 103/103/103 15/15/15 14/14/14
f 103/103/103 14/14/14 9/9/9
f 103/103/103 9/9/9 105/105/105
f 103/103/103 105/105/105 48/48/48
f 103/103/103 48/48/48 58/58/58
f 103/103/103 58/58/58 106/106/106
f 103/103/103 106/106/106 104/104/104
f 107/107/107 108/108/108 12/12/12
f 107/107/107 12/12/12 11/11/11
f 107/107/107 11/11/11 15/15/15
f 107/107/107 15/15/15 104/104/104
f 107/107/107 104/104/104 106/106/106
f 107/107/107 106/106/106 56/56/56
f 107/107/107 56/56/56 60/60/60
f 107/107/107 60/60/60 108/108/108
f 109/109/109 97/97/97 40/40/40
f 109/109/109 40/40/40 39/39/39
f 109/109/109 39/39/39 38/38/38
f 109/109/109 38/38/38 92/92/92
f 109/109/109 92/92/92 94/94/94
f 109/109/109 94/94/94 85/85/85
f 109/109/109 85/85/85 84/84/84
f 109/109/109 84/84/84 97/97/97
f 110/110/110 111/111/111 27/27/27
f 110/110/110 27/27/27 45/45/45
f 110/110/110 45/45/45 44/44/44
f 110/110/110 44/44/44 96/96/96
f 110/110/110 96/96/96 98/98/98
f 110/110/110 98/98/98 88/88/88
f 110/110/110 88/88/88 74/74/74
f 110/110/110 74/74/74 111/111/111
f 112/112/112 105/105/105 9/9/9
f 112/112/112 9/9/9 8/8/8
f 112/112/112 8/8/8 7/7/7
f 112/112/112 7/7/7 100/100/100
f 112/112/112 100/100/100 102/102/102
f 112/112/112 102/102/102 49/49/49
f 112/112/112 49/49/49 48/48/48
f 112/112/112 48/48/48 105/105/105
f 113/113/113 101/101/101 5/5/5
f 113/113/113 5/5/5 33/33/33
f 113/113/113 33/33/33 29/29/29
f 113/113/113 29/29/29 114/114/114
f 113/113/113 114/114/114 72/72/72
f 113/113/113 72/72/72 78/78/78
f 113/113/113 78/78/78 52/52/52
f 113/113/113 52/52/52 101/101/101
f 115/115/115 116/116/116 24/24/24
f 115/115/115 24/24/24 35/35/35
f 115/115/115 35/35/35 12/12/12
f 115/115/115 12/12/12 108/108/108
f 115/115/115 108/108/108 60/60/60
f 115/115/115 60/60/60 80/80/80
f 115/115/115 80/80/80 63/63/63
f 115/115/115 63/63/63 116/116/116
f 117/117/117 93/93/93 18/18/18
f 117/117/117 18/18/18 17/17/17
f 117/117/117 17/17/17 24/24/24
f 117/117/117 24/24/24 116/116/116
f 117/117/117 116/116/116 63/63/63
f 117/117/117 63/63/63 62/62/62
f 117/117/117 62/62/62 69/69/69
f 117/117/117 69/69/69 93/93/93
f 118/118/118 114/114/114 29/29/29
f 118/118/118 29/29/29 28/28/28
f 118/118/118 28/28/28 27/27/27
f 118/118/118 27/27/27 111/111/111
f 118/118/118 111/111/111 74/74/74
f 118/118/118 74/74/74 73/73/73
f 118/118/118 73/73/73 72/72/72
f 118/118/118 72/72/72 114/114/114
