v -2.412924 0.807174 -1.151284
v -2.411316 0.807374 -1.150605
v -2.410912 0.805877 -1.152356
v -2.412784 0.805777 -1.152902
v -2.414173 0.805761 -1.153504
v -2.414088 0.806988 -1.152110
v -2.413728 0.807643 -1.151072
v -2.412961 0.808099 -1.150069
v -2.411614 0.808409 -1.149271
v -2.409578 0.807522 -1.150808
v -2.408219 0.807598 -1.151275
v -2.407507 0.806454 -1.152556
v -2.408981 0.806173 -1.152361
v -2.410065 0.808400 -1.149657
v -2.408976 0.808138 -1.150396
v -2.407789 0.800577 -1.156930
v -2.406374 0.800815 -1.156896
v -2.406355 0.798641 -1.158173
v -2.407608 0.798427 -1.158193
v -2.409265 0.798191 -1.158310
v -2.409662 0.800314 -1.157072
v -2.410069 0.802334 -1.155694
v -2.408108 0.802621 -1.155559
v -2.406626 0.802885 -1.155545
v -2.411515 0.800190 -1.157460
v -2.410903 0.798084 -1.158662
v -2.412129 0.798041 -1.158995
v -2.412903 0.800135 -1.157825
v -2.413456 0.802175 -1.156516
v -2.412006 0.802215 -1.156113
v -2.412453 0.804101 -1.154553
v -2.410490 0.804192 -1.154087
v -2.413921 0.804103 -1.155024
v -2.408499 0.804513 -1.153990
v -2.406990 0.804824 -1.154039
v -2.407632 0.796215 -1.159439
v -2.406692 0.796394 -1.159461
v -2.407119 0.795078 -1.160138
v -2.407725 0.794522 -1.160347
v -2.408578 0.794371 -1.160352
v -2.408871 0.796024 -1.159499
v -2.410091 0.795960 -1.159789
v -2.409410 0.794346 -1.160587
v -2.410151 0.794763 -1.160569
v -2.411004 0.795946 -1.160074
v -2.412953 0.807037 -1.151165
v -2.411320 0.807238 -1.150481
v -2.411616 0.808306 -1.149180
v -2.412983 0.807995 -1.149982
v -2.413750 0.807567 -1.151008
v -2.414122 0.806885 -1.152023
v -2.414205 0.805662 -1.153412
v -2.412812 0.805646 -1.152777
v -2.410917 0.805746 -1.152226
v -2.409556 0.807391 -1.150682
v -2.408190 0.807502 -1.151179
v -2.408957 0.808065 -1.150326
v -2.410047 0.808300 -1.149564
v -2.408964 0.806046 -1.152229
v -2.407482 0.806361 -1.152456
v -2.407784 0.800475 -1.156776
v -2.406361 0.800739 -1.156780
v -2.406611 0.802804 -1.155434
v -2.408100 0.802510 -1.155411
v -2.410077 0.802221 -1.155549
v -2.409673 0.800209 -1.156920
v -2.409277 0.798093 -1.158154
v -2.407604 0.798331 -1.158036
v -2.406343 0.798570 -1.158055
v -2.411542 0.800084 -1.157311
v -2.412032 0.802101 -1.155971
v -2.413484 0.802089 -1.156411
v -2.412931 0.800056 -1.157714
v -2.412158 0.797965 -1.158882
v -2.410931 0.797985 -1.158509
v -2.412480 0.803978 -1.154419
v -2.410497 0.804070 -1.153950
v -2.413950 0.804011 -1.154926
v -2.408486 0.804393 -1.153851
v -2.406971 0.804736 -1.153933
v -2.407627 0.796122 -1.159280
v -2.406679 0.796325 -1.159341
v -2.408883 0.795929 -1.159341
v -2.408587 0.794300 -1.160234
v -2.407721 0.794452 -1.160228
v -2.407112 0.795027 -1.160049
v -2.410120 0.795862 -1.159635
v -2.411035 0.795872 -1.159960
v -2.410171 0.794709 -1.160484
v -2.409434 0.794274 -1.160471
v -2.406371 0.796424 -1.159414
v -2.407039 0.794651 -1.160365
v -2.405930 0.798681 -1.158114
v -2.407112 0.795027 -1.160049
v -2.409194 0.793776 -1.160801
v -2.410077 0.794335 -1.160797
v -2.408484 0.793788 -1.160584
v -2.410171 0.794709 -1.160484
v -2.414493 0.806880 -1.152347
v -2.413940 0.807715 -1.151047
v -2.414652 0.805711 -1.153664
v -2.413750 0.807567 -1.151008
v -2.410219 0.808648 -1.149232
v -2.408798 0.808250 -1.150316
v -2.411714 0.808708 -1.148786
v -2.408957 0.808065 -1.150326
v -2.407751 0.807581 -1.151388
v -2.407002 0.806507 -1.152576
v -2.407754 0.793926 -1.160596
v -2.411324 0.795909 -1.160119
v -2.412553 0.797993 -1.159056
v -2.412984 0.808360 -1.149626
v -2.414425 0.804062 -1.155138
v -2.413954 0.802123 -1.156605
v -2.406476 0.804889 -1.154008
v -2.406124 0.802937 -1.155491
v -2.405895 0.800860 -1.156833
v -2.413379 0.800082 -1.157897
vn 0.226400 0.763500 -0.604800
vn 0.009900 0.772900 -0.634400
vn 0.020200 0.734000 -0.678800
vn 0.214300 0.724800 -0.654700
vn 0.209400 0.707800 -0.674700
vn 0.218800 0.763800 -0.607200
vn 0.223500 0.800000 -0.556800
vn 0.171400 0.821700 -0.543500
vn -0.006300 0.828000 -0.560700
vn -0.199900 0.719200 -0.665400
vn -0.192100 0.721000 -0.665700
vn -0.153400 0.670000 -0.726300
vn -0.166900 0.685200 -0.708900
vn -0.176900 0.785400 -0.593200
vn -0.217800 0.754000 -0.619600
vn -0.044500 0.527500 -0.848400
vn -0.006500 0.525900 -0.850500
vn 0.001600 0.498900 -0.866600
vn -0.047000 0.498200 -0.865800
vn 0.069900 0.505000 -0.860300
vn 0.063000 0.541100 -0.838600
vn 0.049000 0.610500 -0.790500
vn -0.070200 0.587200 -0.806400
vn -0.040400 0.577900 -0.815100
vn 0.169600 0.549700 -0.817900
vn 0.182600 0.522000 -0.833200
vn 0.136800 0.513100 -0.847300
vn 0.134600 0.540600 -0.830400
vn 0.146300 0.597300 -0.788500
vn 0.170000 0.612200 -0.772200
vn 0.186700 0.677900 -0.711000
vn 0.033000 0.681800 -0.730700
vn 0.174800 0.658300 -0.732200
vn -0.116100 0.646500 -0.754100
vn -0.095000 0.630100 -0.770700
vn -0.070100 0.481600 -0.873500
vn -0.017700 0.479200 -0.877500
vn -0.046600 0.459600 -0.886800
vn -0.082900 0.428200 -0.899800
vn 0.081800 0.437800 -0.895300
vn 0.073000 0.487700 -0.869900
vn 0.209800 0.510800 -0.833700
vn 0.239800 0.461800 -0.853900
vn 0.195800 0.484700 -0.852400
vn 0.162000 0.497800 -0.852000
vn -0.257200 -0.746000 0.614200
vn -0.012700 -0.762500 0.646900
vn -0.023700 -0.720200 0.693300
vn -0.347700 -0.690000 0.634800
vn -0.458900 -0.647800 0.608100
vn -0.435600 -0.660600 0.611400
vn -0.371800 -0.672700 0.639700
vn -0.229300 -0.723000 0.651700
vn -0.020200 -0.734100 0.678700
vn 0.222800 -0.696100 0.682500
vn 0.373900 -0.576300 0.726700
vn 0.394100 -0.559100 0.729400
vn 0.290800 -0.623600 0.725600
vn 0.181500 -0.680300 0.710100
vn 0.308600 -0.601900 0.736500
vn 0.060700 -0.525800 0.848400
vn 0.172700 -0.511600 0.841600
vn 0.192700 -0.552100 0.811200
vn 0.085100 -0.584800 0.806700
vn -0.049000 -0.610400 0.790600
vn -0.063000 -0.540900 0.838700
vn -0.069900 -0.504800 0.860300
vn 0.066200 -0.497900 0.864700
vn 0.196600 -0.504000 0.841000
vn -0.185100 -0.551400 0.813400
vn -0.184500 -0.612800 0.768300
vn -0.293400 -0.602700 0.742000
vn -0.291300 -0.559900 0.775700
vn -0.315000 -0.557200 0.768300
vn -0.200300 -0.525600 0.826800
vn -0.200900 -0.677700 0.707400
vn -0.033000 -0.681900 0.730700
vn -0.321400 -0.650000 0.688600
vn 0.130300 -0.643200 0.754400
vn 0.243200 -0.591200 0.769000
vn 0.098600 -0.494100 0.863800
vn 0.254800 -0.519200 0.815800
vn -0.071100 -0.498200 0.864100
vn -0.062400 -0.543600 0.837000
vn 0.181500 -0.538300 0.823000
vn 0.289800 -0.532000 0.795600
vn -0.231300 -0.528300 0.816900
vn -0.359800 -0.582900 0.728500
vn -0.384500 -0.601900 0.699800
vn -0.289000 -0.587200 0.756100
vn 0.965600 -0.121800 -0.229400
vn 0.787000 -0.422300 -0.449700
vn 0.992700 -0.014000 -0.119700
vn 0.289800 -0.532000 0.795600
vn -0.075700 -0.839400 -0.538100
vn -0.531200 -0.558700 -0.636900
vn 0.149500 -0.913200 -0.379100
vn -0.384500 -0.601900 0.699800
vn -0.926000 0.361300 -0.109000
vn -0.830100 0.538900 0.143000
vn -0.951300 0.196200 -0.237800
vn -0.458900 -0.647800 0.608100
vn 0.335200 0.659600 0.672700
vn 0.631900 0.691100 0.350700
vn -0.173500 0.571400 0.802100
vn 0.394100 -0.559100 0.729400
vn 0.827400 0.543700 0.140400
vn 0.920100 0.390700 0.028300
vn 0.389600 -0.790900 -0.471800
vn -0.819800 -0.307400 -0.483100
vn -0.897200 -0.210400 -0.388300
vn -0.633900 0.558800 0.534600
vn -0.952300 0.061200 -0.299000
vn -0.947700 -0.023900 -0.318200
vn 0.965100 0.260700 -0.026400
vn 0.983200 0.177200 -0.043500
vn 0.993900 0.092900 -0.059800
vn -0.936300 -0.107900 -0.334200
vt 0.839504 0.118056
vt 0.856743 0.205307
vt 0.741230 0.205307
vt 0.734555 0.106726
vt 0.724541 0.032791
vt 0.813647 0.052618
vt 0.868992 0.081539
vt 0.913398 0.129584
vt 0.940923 0.205307
vt 0.839504 0.292557
vt 0.813647 0.357995
vt 0.724541 0.377822
vt 0.734555 0.303887
vt 0.913398 0.281029
vt 0.868992 0.329074
vt 0.369475 0.299954
vt 0.368286 0.370940
vt 0.245840 0.351447
vt 0.246397 0.288815
vt 0.246768 0.205307
vt 0.370268 0.205307
vt 0.494283 0.205307
vt 0.492822 0.304944
vt 0.490632 0.379672
vt 0.369475 0.110659
vt 0.246397 0.121798
vt 0.245841 0.059166
vt 0.368286 0.039673
vt 0.490632 0.030941
vt 0.492822 0.105669
vt 0.616755 0.103478
vt 0.619174 0.205307
vt 0.613127 0.027106
vt 0.616755 0.307135
vt 0.613126 0.383507
vt 0.123273 0.268175
vt 0.123047 0.315326
vt 0.054743 0.283353
vt 0.030912 0.249131
vt 0.030973 0.205306
vt 0.123423 0.205306
vt 0.123273 0.142438
vt 0.030912 0.161481
vt 0.054744 0.127260
vt 0.123047 0.095287
vt 0.839504 0.118056
vt 0.856743 0.205307
vt 0.968983 0.205307
vt 0.938030 0.133427
vt 0.876123 0.061548
vt 0.805028 0.030806
vt 0.721203 0.008146
vt 0.734555 0.106726
vt 0.741230 0.205307
vt 0.839504 0.292557
vt 0.805028 0.379807
vt 0.876123 0.349065
vt 0.938030 0.277186
vt 0.734555 0.303887
vt 0.721203 0.402467
vt 0.369475 0.299954
vt 0.367890 0.394602
vt 0.489902 0.404581
vt 0.492822 0.304944
vt 0.494283 0.205307
vt 0.370268 0.205307
vt 0.246768 0.205307
vt 0.246397 0.288815
vt 0.245655 0.372324
vt 0.369475 0.110659
vt 0.492822 0.105669
vt 0.489902 0.006032
vt 0.367890 0.016011
vt 0.245655 0.038289
vt 0.246397 0.121798
vt 0.616755 0.103478
vt 0.619174 0.205307
vt 0.611917 0.001649
vt 0.616755 0.307135
vt 0.611917 0.408964
vt 0.123273 0.268175
vt 0.122972 0.331043
vt 0.123423 0.205306
vt 0.000156 0.205306
vt 0.000125 0.242784
vt 0.000064 0.280261
vt 0.123273 0.142438
vt 0.122972 0.079570
vt 0.000064 0.130352
vt 0.000125 0.167829
vt 0.122972 0.331043
vt 0.030806 0.283587
vt 0.245655 0.372324
vt 0.030806 0.283587
vt 0.000125 0.167829
vt 0.030806 0.127026
vt 0.000156 0.205306
vt 0.030806 0.127026
vt 0.805028 0.030806
vt 0.873826 0.071832
vt 0.721203 0.008146
vt 0.873826 0.071832
vt 0.938030 0.277186
vt 0.873826 0.338781
vt 0.968983 0.205307
vt 0.873826 0.338781
vt 0.805028 0.379807
vt 0.721203 0.402467
vt 0.000125 0.242784
vt 0.122972 0.079570
vt 0.245655 0.038289
vt 0.938030 0.133427
vt 0.611917 0.001649
vt 0.489902 0.006032
vt 0.611917 0.408964
vt 0.489902 0.404581
vt 0.367890 0.394602
vt 0.367890 0.016011
f 1/1/1 2/2/2 3/3/3
f 1/1/1 3/3/3 4/4/4
f 1/1/1 4/4/4 5/5/5
f 1/1/1 5/5/5 6/6/6
f 1/1/1 6/6/6 7/7/7
f 1/1/1 7/7/7 8/8/8
f 1/1/1 8/8/8 9/9/9
f 1/1/1 9/9/9 2/2/2
f 10/10/10 11/11/11 12/12/12
f 10/10/10 12/12/12 13/13/13
f 10/10/10 13/13/13 3/3/3
f 10/10/10 3/3/3 2/2/2
f 10/10/10 2/2/2 9/9/9
f 10/10/10 9/9/9 14/14/14
f 10/10/10 14/14/14 15/15/15
f 10/10/10 15/15/15 11/11/11
f 16/16/16 17/17/17 18/18/18
f 16/16/16 18/18/18 19/19/19
f 16/16/16 19/19/19 20/20/20
f 16/16/16 20/20/20 21/21/21
f 16/16/16 21/21/21 22/22/22
f 16/16/16 22/22/22 23/23/23
f 16/16/16 23/23/23 24/24/24
f 16/16/16 24/24/24 17/17/17
f 25/25/25 21/21/21 20/20/20
f 25/25/25 20/20/20 26/26/26
f 25/25/25 26/26/26 27/27/27
f 25/25/25 27/27/27 28/28/28
f 25/25/25 28/28/28 29/29/29
f 25/25/25 29/29/29 30/30/30
f 25/25/25 30/30/30 22/22/22
f 25/25/25 22/22/22 21/21/21
f 31/31/31 32/32/32 22/22/22
f 31/31/31 22/22/22 30/30/30
f 31/31/31 30/30/30 29/29/29
f 31/31/31 29/29/29 33/33/33
f 31/31/31 33/33/33 5/5/5
f 31/31/31 5/5/5 4/4/4
f 31/31/31 4/4/4 3/3/3
f 31/31/31 3/3/3 32/32/32
f 34/34/34 35/35/35 24/24/24
f 34/34/34 24/24/24 23/23/23
f 34/34/34 23/23/23 22/22/22
f 34/34/34 22/22/22 32/32/32
f 34/34/34 32/32/32 3/3/3
f 34/34/34 3/3/3 13/13/13
f 34/34/34 13/13/13 12/12/12
f 34/34/34 12/12/12 35/35/35
f 36/36/36 37/37/37 38/38/38
f 36/36/36 38/38/38 39/39/39
f 36/36/36 39/39/39 40/40/40
f 36/36/36 40/40/40 41/41/41
f 36/36/36 41/41/41 20/20/20
f 36/36/36 20/20/20 19/19/19
f 36/36/36 19/19/19 18/18/18
f 36/36/36 18/18/18 37/37/37
f 42/42/42 41/41/41 40/40/40
f 42/42/42 40/40/40 43/43/43
f 42/42/42 43/43/43 44/44/44
f 42/42/42 44/44/44 45/45/45
f 42/42/42 45/45/45 27/27/27
f 42/42/42 27/27/27 26/26/26
f 42/42/42 26/26/26 20/20/20
f 42/42/42 20/20/20 41/41/41
f 46/46/46 47/47/47 48/48/48
f 46/46/46 48/48/48 49/49/49
f 46/46/46 49/49/49 50/50/50
f 46/46/46 50/50/50 51/51/51
f 46/46/46 51/51/51 52/52/52
f 46/46/46 52/52/52 53/53/53
f 46/46/46 53/53/53 54/54/54
f 46/46/46 54/54/54 47/47/47
f 55/55/55 56/56/56 57/57/57
f 55/55/55 57/57/57 58/58/58
f 55/55/55 58/58/58 48/48/48
f 55/55/55 48/48/48 47/47/47
f 55/55/55 47/47/47 54/54/54
f 55/55/55 54/54/54 59/59/59
f 55/55/55 59/59/59 60/60/60
f 55/55/55 60/60/60 56/56/56
f 61/61/61 62/62/62 63/63/63
f 61/61/61 63/63/63 64/64/64
f 61/61/61 64/64/64 65/65/65
f 61/61/61 65/65/65 66/66/66
f 61/61/61 66/66/66 67/67/67
f 61/61/61 67/67/67 68/68/68
f 61/61/61 68/68/68 69/69/69
f 61/61/61 69/69/69 62/62/62
f 70/70/70 66/66/66 65/65/65
f 70/70/70 65/65/65 71/71/71
f 70/70/70 71/71/71 72/72/72
f 70/70/70 72/72/72 73/73/73
f 70/70/70 73/73/73 74/74/74
f 70/70/70 74/74/74 75/75/75
f 70/70/70 75/75/75 67/67/67
f 70/70/70 67/67/67 66/66/66
f 76/76/76 77/77/77 54/54/54
f 76/76/76 54/54/54 53/53/53
f 76/76/76 53/53/53 52/52/52
f 76/76/76 52/52/52 78/78/78
f 76/76/76 78/78/78 72/72/72
f 76/76/76 72/72/72 71/71/71
f 76/76/76 71/71/71 65/65/65
f 76/76/76 65/65/65 77/77/77
f 79/79/79 80/80/80 60/60/60
f 79/79/79 60/60/60 59/59/59
f 79/79/79 59/59/59 54/54/54
f 79/79/79 54/54/54 77/77/77
f 79/79/79 77/77/77 65/65/65
f 79/79/79 65/65/65 64/64/64
f 79/79/79 64/64/64 63/63/63
f 79/79/79 63/63/63 80/80/80
f 81/81/81 82/82/82 69/69/69
f 81/81/81 69/69/69 68/68/68
f 81/81/81 68/68/68 67/67/67
f 81/81/81 67/67/67 83/83/83
f 81/81/81 83/83/83 84/84/84
f 81/81/81 84/84/84 85/85/85
f 81/81/81 85/85/85 86/86/86
f 81/81/81 86/86/86 82/82/82
f 87/87/87 83/83/83 67/67/67
f 87/87/87 67/67/67 75/75/75
f 87/87/87 75/75/75 74/74/74
f 87/87/87 74/74/74 88/88/88
f 87/87/87 88/88/88 89/89/89
f 87/87/87 89/89/89 90/90/90
f 87/87/87 90/90/90 84/84/84
f 87/87/87 84/84/84 83/83/83
f 91/91/91 92/92/92 38/38/38
f 91/91/91 38/38/38 37/37/37
f 91/91/91 37/37/37 18/18/18
f 91/91/91 18/18/18 93/93/93
f 91/91/91 93/93/93 69/69/69
f 91/91/91 69/69/69 82/82/82
f 91/91/91 82/82/82 94/94/94
f 91/91/91 94/94/94 92/92/92
f 95/95/95 96/96/96 44/44/44
f 95/95/95 44/44/44 43/43/43
f 95/95/95 43/43/43 40/40/40
f 95/95/95 40/40/40 97/97/97
f 95/95/95 97/97/97 84/84/84
f 95/95/95 84/84/84 90/90/90
f 95/95/95 90/90/90 98/98/98
f 95/95/95 98/98/98 96/96/96
f 99/99/99 100/100/100 7/7/7
f 99/99/99 7/7/7 6/6/6
f 99/99/99 6/6/6 5/5/5
f 99/99/99 5/5/5 101/101/101
f 99/99/99 101/101/101 52/52/52
f 99/99/99 52/52/52 51/51/51
f 99/99/99 51/51/51 102/102/102
f 99/99/99 102/102/102 100/100/100
f 103/103/103 104/104/104 15/15/15
f 103/103/103 15/15/15 14/14/14
f 103/103/103 14/14/14 9/9/9
f 103/103/103 9/9/9 105/105/105
f 103/103/103 105/105/105 48/48/48
f 103/103/103 48/48/48 58/58/58
f 103/103/103 58/58/58 106/106/106
f 103/103/103 106/106/106 104/104/104
f 107/107/107 108/108/108 12/12/12
f 107/107/107 12/12/12 11/11/11
f 107/107/107 11/11/11 15/15/15
f 107/107/107 15/15/15 104/104/104
f 107/107/107 104/104/104 106/106/106
f 107/107/107 106/106/106 56/56/56
f 107/107/107 56/56/56 60/60/60
f 107/107/107 60/60/60 108/108/108
f 109/109/109 97/97/97 40/40/40
f 109/109/109 40/40/40 39/39/39
f 109/109/109 39/39/39 38/38/38
f 109/109/109 38/38/38 92/92/92
f 109/109/109 92/92/92 94/94/94
f 109/109/109 94/94/94 85/85/85
f 109/109/109 85/85/85 84/84/84
f 109/109/109 84/84/84 97/97/97
f 110/110/110 111/111/111 27/27/27
f 110/110/110 27/27/27 45/45/45
f 110/110/110 45/45/45 44/44/44
f 110/110/110 44/44/44 96/96/96
f 110/110/110 96/96/96 98/98/98
f 110/110/110 98/98/98 88/88/88
f 110/110/110 88/88/88 74/74/74
f 110/110/110 74/74/74 111/111/111
f 112/112/112 105/105/105 9/9/9
f 112/112/112 9/9/9 8/8/8
f 112/112/112 8/8/8 7/7/7
f 112/112/112 7/7/7 100/100/100
f 112/112/112 100/100/100 102/102/102
f 112/112/112 102/102/102 49/49/49
f 112/112/112 49/49/49 48/48/48
f 112/112/112 48/48/48 105/105/105
f 113/113/113 101/101/101 5/5/5
f 113/113/113 5/5/5 33/33/33
f 113/113/113 33/33/33 29/29/29
f 113/113/113 29/29/29 114/114/114
f 113/113/113 114/114/114 72/72/72
f 113/113/113 72/72/72 78/78/78
f 113/113/113 78/78/78 52/52/52
f 113/113/113 52/52/52 101/101/101
f 115/115/115 116/116/116 24/24/24
f 115/115/115 24/24/24 35/35/35
f 115/115/115 35/35/35 12/12/12
f 115/115/115 12/12/12 108/108/108
f 115/115/115 108/108/108 60/60/60
f 115/115/115 60/60/60 80/80/80
f 115/115/115 80/80/80 63/63/63
f 115/115/115 63/63/63 116/116/116
f 117/117/117 93/93/93 18/18/18
f 117/117/117 18/18/18 17/17/17
f 117/117/117 17/17/17 24/24/24
f 117/117/117 24/24/24 116/116/116
f 117/117/117 116/116/116 63/63/63
f 117/117/117 63/63/63 62/62/62
f 117/117/117 62/62/62 69/69/69
f 117/117/117 69/69/69 93/93/93
f 118/118/118 114/114/114 29/29/29
f 118/118/118 29/29/29 28/28/28
f 118/118/118 28/28/28 27/27/27
f 118/118/118 27/27/27 111/111/111
f 118/118/118 111/111/111 74/74/74
f 118/118/118 74/74/74 73/73/73
f 118/118/118 73/73/73 72/72/72
f 118/118/118 72/72/72 114/114/114
