v -2.393705 0.702091 -1.199566
v -2.392970 0.703262 -1.198223
v -2.390971 0.701737 -1.198738
v -2.392039 0.700544 -1.200163
v -2.392711 0.699676 -1.201410
v -2.393992 0.701140 -1.200794
v -2.394632 0.702145 -1.200052
v -2.394866 0.703171 -1.199021
v -2.394453 0.704331 -1.197774
v -2.391500 0.704288 -1.197513
v -2.390124 0.704994 -1.197194
v -2.388318 0.704054 -1.197320
v -2.389532 0.703042 -1.197830
v -2.392956 0.705073 -1.197244
v -2.391500 0.705266 -1.197136
v -2.383690 0.697544 -1.198299
v -2.382668 0.698527 -1.197612
v -2.381097 0.696249 -1.197626
v -2.382007 0.695378 -1.198224
v -2.383163 0.694251 -1.199113
v -2.384990 0.696273 -1.199314
v -2.386891 0.698219 -1.199355
v -2.385524 0.699557 -1.198310
v -2.384444 0.700597 -1.197616
v -2.386146 0.695097 -1.200585
v -2.384179 0.693214 -1.200246
v -2.384902 0.692457 -1.201169
v -2.386971 0.694239 -1.201618
v -2.388945 0.696112 -1.201806
v -2.388093 0.696998 -1.200702
v -2.390113 0.698830 -1.200552
v -2.388914 0.700048 -1.199139
v -2.390944 0.697962 -1.201742
v -2.387506 0.701427 -1.198125
v -2.386376 0.702514 -1.197490
v -2.380480 0.693047 -1.198217
v -2.379777 0.693712 -1.197807
v -2.379239 0.692117 -1.197975
v -2.379402 0.691231 -1.198215
v -2.380026 0.690636 -1.198613
v -2.381359 0.692197 -1.198852
v -2.382101 0.691432 -1.199726
v -2.380513 0.690125 -1.199249
v -2.381238 0.690126 -1.199835
v -2.382619 0.690880 -1.200453
v -2.393769 0.701969 -1.199418
v -2.393017 0.703156 -1.198058
v -2.394486 0.704250 -1.197651
v -2.394912 0.703078 -1.198912
v -2.394671 0.702074 -1.199974
v -2.394048 0.701042 -1.200692
v -2.392770 0.699584 -1.201305
v -2.392107 0.700430 -1.200012
v -2.391025 0.701636 -1.198572
v -2.391531 0.704200 -1.197334
v -2.390139 0.704937 -1.197054
v -2.391512 0.705221 -1.197034
v -2.392977 0.705006 -1.197110
v -2.389571 0.702957 -1.197652
v -2.388340 0.703998 -1.197181
v -2.383762 0.697480 -1.198121
v -2.382716 0.698484 -1.197474
v -2.384485 0.700549 -1.197478
v -2.385587 0.699486 -1.198132
v -2.386965 0.698136 -1.199187
v -2.385073 0.696198 -1.199145
v -2.383251 0.694182 -1.198944
v -2.382084 0.695319 -1.198046
v -2.381149 0.696211 -1.197488
v -2.386239 0.695012 -1.200427
v -2.388178 0.696904 -1.200544
v -2.389014 0.696036 -1.201694
v -2.387046 0.694170 -1.201504
v -2.384981 0.692392 -1.201056
v -2.384278 0.693134 -1.200088
v -2.390189 0.698725 -1.200397
v -2.388978 0.699956 -1.198972
v -2.391007 0.697878 -1.201633
v -2.387557 0.701348 -1.197946
v -2.386407 0.702461 -1.197351
v -2.380558 0.692992 -1.198039
v -2.379830 0.693676 -1.197669
v -2.381449 0.692130 -1.198683
v -2.380094 0.690586 -1.198486
v -2.379461 0.691191 -1.198081
v -2.379280 0.692090 -1.197874
v -2.382202 0.691354 -1.199569
v -2.382700 0.690816 -1.200341
v -2.381296 0.690080 -1.199751
v -2.380589 0.690066 -1.199131
v -2.379565 0.693918 -1.197608
v -2.378887 0.691715 -1.197917
v -2.380815 0.696524 -1.197365
v -2.379280 0.692090 -1.197874
v -2.380018 0.689663 -1.199038
v -2.380889 0.689720 -1.199780
v -2.379612 0.690093 -1.198477
v -2.381296 0.690080 -1.199751
v -2.394114 0.700778 -1.201160
v -2.394839 0.702105 -1.200181
v -2.392963 0.699344 -1.201780
v -2.394671 0.702074 -1.199974
v -2.393450 0.705305 -1.197095
v -2.391450 0.705481 -1.197026
v -2.394961 0.704651 -1.197570
v -2.391512 0.705221 -1.197034
v -2.389670 0.705206 -1.197024
v -2.387921 0.704368 -1.197087
v -2.379069 0.690608 -1.198154
v -2.382829 0.690666 -1.200647
v -2.385180 0.692175 -1.201428
v -2.395272 0.703490 -1.198791
v -2.391250 0.697634 -1.202092
v -2.389261 0.695782 -1.202126
v -2.386011 0.702854 -1.197215
v -2.384101 0.700924 -1.197322
v -2.382348 0.698837 -1.197321
v -2.387281 0.693921 -1.201913
vn 0.334300 0.660200 -0.672600
vn 0.194700 0.558100 -0.806600
vn 0.241200 0.522200 -0.818000
vn 0.368100 0.612500 -0.699500
vn 0.382200 0.592000 -0.709600
vn 0.330400 0.656200 -0.678300
vn 0.291800 0.698200 -0.653700
vn 0.239600 0.693900 -0.679000
vn 0.120700 0.610200 -0.782900
vn 0.078300 0.405000 -0.910900
vn 0.083600 0.410400 -0.908000
vn 0.164300 0.374900 -0.912400
vn 0.139200 0.384400 -0.912600
vn 0.030400 0.485500 -0.873700
vn 0.026600 0.434200 -0.900400
vn 0.360000 0.284400 -0.888500
vn 0.389000 0.301200 -0.870600
vn 0.412600 0.279200 -0.867000
vn 0.377400 0.255000 -0.890200
vn 0.456200 0.318500 -0.830900
vn 0.427400 0.349900 -0.833600
vn 0.367300 0.410900 -0.834400
vn 0.298100 0.330500 -0.895500
vn 0.327600 0.335400 -0.883200
vn 0.488500 0.412500 -0.768900
vn 0.515300 0.392400 -0.761800
vn 0.493900 0.360200 -0.791300
vn 0.473800 0.385700 -0.791600
vn 0.439800 0.447200 -0.778800
vn 0.442300 0.474100 -0.761300
vn 0.397100 0.549200 -0.735300
vn 0.298000 0.474700 -0.828200
vn 0.407600 0.522900 -0.748600
vn 0.215300 0.368000 -0.904500
vn 0.245500 0.361300 -0.899500
vn 0.370300 0.228300 -0.900400
vn 0.411300 0.251000 -0.876200
vn 0.401900 0.218500 -0.889200
vn 0.392800 0.171800 -0.903400
vn 0.505800 0.260700 -0.822300
vn 0.469400 0.303500 -0.829100
vn 0.538400 0.395800 -0.743900
vn 0.586500 0.364900 -0.723100
vn 0.547400 0.363400 -0.753800
vn 0.519200 0.358500 -0.775800
vn -0.367400 -0.658400 0.656800
vn -0.207500 -0.548400 0.810000
vn -0.256800 -0.509500 0.821200
vn -0.461300 -0.650700 0.603200
vn -0.536100 -0.672900 0.509600
vn -0.518000 -0.672000 0.529200
vn -0.486600 -0.646700 0.587300
vn -0.377500 -0.618700 0.689000
vn -0.241100 -0.522200 0.818000
vn -0.079100 -0.371300 0.925100
vn -0.031900 -0.187700 0.981700
vn -0.023700 -0.162500 0.986400
vn -0.077800 -0.268600 0.960100
vn -0.130800 -0.372900 0.918600
vn -0.078000 -0.239600 0.967700
vn -0.348800 -0.275100 0.895900
vn -0.267800 -0.209800 0.940300
vn -0.222800 -0.240200 0.944800
vn -0.288300 -0.321100 0.902100
vn -0.367400 -0.410700 0.834400
vn -0.427500 -0.349700 0.833600
vn -0.456300 -0.318400 0.830900
vn -0.363000 -0.245800 0.898800
vn -0.252400 -0.191800 0.948400
vn -0.496400 -0.422200 0.758500
vn -0.450200 -0.482400 0.751400
vn -0.514700 -0.531000 0.673100
vn -0.546500 -0.487500 0.680900
vn -0.559700 -0.497900 0.662400
vn -0.523000 -0.405200 0.749800
vn -0.405100 -0.556500 0.725400
vn -0.297900 -0.474700 0.828200
vn -0.487700 -0.594300 0.639400
vn -0.206200 -0.358300 0.910500
vn -0.148700 -0.256500 0.955000
vn -0.340100 -0.226900 0.912600
vn -0.190300 -0.180900 0.964900
vn -0.461400 -0.312600 0.830300
vn -0.425300 -0.352100 0.833700
vn -0.242300 -0.231700 0.942100
vn -0.148700 -0.178400 0.972600
vn -0.538300 -0.424300 0.728100
vn -0.559300 -0.548600 0.621400
vn -0.553600 -0.581900 0.595700
vn -0.524800 -0.513300 0.679100
vn 0.874800 0.324300 0.359800
vn 0.970200 -0.058200 0.235400
vn 0.794400 0.448900 0.409100
vn -0.148700 -0.178400 0.972600
vn 0.521400 -0.849500 -0.080200
vn 0.178400 -0.846400 -0.501700
vn 0.602800 -0.776500 0.183400
vn -0.553600 -0.581900 0.595700
vn -0.698100 -0.157600 -0.698400
vn -0.838700 0.084700 -0.537900
vn -0.588300 -0.333800 -0.736500
vn -0.536100 -0.672900 0.509600
vn -0.370500 0.844100 0.387600
vn 0.039000 0.959400 0.279400
vn -0.794200 0.544100 0.270500
vn -0.023700 -0.162500 0.986400
vn 0.354800 0.891400 0.281900
vn 0.535600 0.785600 0.309600
vn 0.800600 -0.571500 0.180100
vn -0.197400 -0.744100 -0.638200
vn -0.340900 -0.681700 -0.647400
vn -0.952000 0.264700 -0.153600
vn -0.512700 -0.460200 -0.724700
vn -0.473600 -0.534200 -0.700100
vn 0.638700 0.686800 0.347000
vn 0.685700 0.621200 0.379300
vn 0.727200 0.551500 0.408700
vn -0.432000 -0.603400 -0.670300
vt 0.839504 0.118056
vt 0.856743 0.205307
vt 0.741230 0.205307
vt 0.734555 0.106726
vt 0.724541 0.032791
vt 0.813647 0.052618
vt 0.868992 0.081539
vt 0.913398 0.129584
vt 0.940923 0.205307
vt 0.839504 0.292557
vt 0.813647 0.357995
vt 0.724541 0.377822
vt 0.734555 0.303887
vt 0.913398 0.281029
vt 0.868992 0.329074
vt 0.369475 0.299954
vt 0.368286 0.370940
vt 0.245840 0.351447
vt 0.246397 0.288815
vt 0.246768 0.205307
vt 0.370268 0.205307
vt 0.494283 0.205307
vt 0.492822 0.304944
vt 0.490632 0.379672
vt 0.369475 0.110659
vt 0.246397 0.121798
vt 0.245841 0.059166
vt 0.368286 0.039673
vt 0.490632 0.030941
vt 0.492822 0.105669
vt 0.616755 0.103478
vt 0.619174 0.205307
vt 0.613127 0.027106
vt 0.616755 0.307135
vt 0.613126 0.383507
vt 0.123273 0.268175
vt 0.123047 0.315326
vt 0.054743 0.283353
vt 0.030912 0.249131
vt 0.030973 0.205306
vt 0.123423 0.205306
vt 0.123273 0.142438
vt 0.030912 0.161481
vt 0.054744 0.127260
vt 0.123047 0.095287
vt 0.839504 0.118056
vt 0.856743 0.205307
vt 0.968983 0.205307
vt 0.938030 0.133427
vt 0.876123 0.061548
vt 0.805028 0.030806
vt 0.721203 0.008146
vt 0.734555 0.106726
vt 0.741230 0.205307
vt 0.839504 0.292557
vt 0.805028 0.379807
vt 0.876123 0.349065
vt 0.938030 0.277186
vt 0.734555 0.303887
vt 0.721203 0.402467
vt 0.369475 0.299954
vt 0.367890 0.394602
vt 0.489902 0.404581
vt 0.492822 0.304944
vt 0.494283 0.205307
vt 0.370268 0.205307
vt 0.246768 0.205307
vt 0.246397 0.288815
vt 0.245655 0.372324
vt 0.369475 0.110659
vt 0.492822 0.105669
vt 0.489902 0.006032
vt 0.367890 0.016011
vt 0.245655 0.038289
vt 0.246397 0.121798
vt 0.616755 0.103478
vt 0.619174 0.205307
vt 0.611917 0.001649
vt 0.616755 0.307135
vt 0.611917 0.408964
vt 0.123273 0.268175
vt 0.122972 0.331043
vt 0.123423 0.205306
vt 0.000156 0.205306
vt 0.000125 0.242784
vt 0.000064 0.280261
vt 0.123273 0.142438
vt 0.122972 0.079570
vt 0.000064 0.130352
vt 0.000125 0.167829
vt 0.122972 0.331043
vt 0.030806 0.283587
vt 0.245655 0.372324
vt 0.030806 0.283587
vt 0.000125 0.167829
vt 0.030806 0.127026
vt 0.000156 0.205306
vt 0.030806 0.127026
vt 0.805028 0.030806
vt 0.873826 0.071832
vt 0.721203 0.008146
vt 0.873826 0.071832
vt 0.938030 0.277186
vt 0.873826 0.338781
vt 0.968983 0.205307
vt 0.873826 0.338781
vt 0.805028 0.379807
vt 0.721203 0.402467
vt 0.000125 0.242784
vt 0.122972 0.079570
vt 0.245655 0.038289
vt 0.938030 0.133427
vt 0.611917 0.001649
vt 0.489902 0.006032
vt 0.611917 0.408964
vt 0.489902 0.404581
vt 0.367890 0.394602
vt 0.367890 0.016011
f 1/1/1 2/2/2 3/3/3
f 1/1/1 3/3/3 4/4/4
f 1/1/1 4/4/4 5/5/5
f 1/1/1 5/5/5 6/6/6
f 1/1/1 6/6/6 7/7/7
f 1/1/1 7/7/7 8/8/8
f 1/1/1 8/8/8 9/9/9
f 1/1/1 9/9/9 2/2/2
f 10/10/10 11/11/11 12/12/12
f 10/10/10 12/12/12 13/13/13
f 10/10/10 13/13/13 3/3/3
f 10/10/10 3/3/3 2/2/2
f 10/10/10 2/2/2 9/9/9
f 10/10/10 9/9/9 14/14/14
f 10/10/10 14/14/14 15/15/15
f 10/10/10 15/15/15 11/11/11
f 16/16/16 17/17/17 18/18/18
f 16/16/16 18/18/18 19/19/19
f 16/16/16 19/19/19 20/20/20
f 16/16/16 20/20/20 21/21/21
f 16/16/16 21/21/21 22/22/22
f 16/16/16 22/22/22 23/23/23
f 16/16/16 23/23/23 24/24/24
f 16/16/16 24/24/24 17/17/17
f 25/25/25 21/21/21 20/20/20
f 25/25/25 20/20/20 26/26/26
f 25/25/25 26/26/26 27/27/27
f 25/25/25 27/27/27 28/28/28
f 25/25/25 28/28/28 29/29/29
f 25/25/25 29/29/29 30/30/30
f 25/25/25 30/30/30 22/22/22
f 25/25/25 22/22/22 21/21/21
f 31/31/31 32/32/32 22/22/22
f 31/31/31 22/22/22 30/30/30
f 31/31/31 30/30/30 29/29/29
f 31/31/31 29/29/29 33/33/33
f 31/31/31 33/33/33 5/5/5
f 31/31/31 5/5/5 4/4/4
f 31/31/31 4/4/4 3/3/3
f 31/31/31 3/3/3 32/32/32
f 34/34/34 35/35/35 24/24/24
f 34/34/34 24/24/24 23/23/23
f 34/34/34 23/23/23 22/22/22
f 34/34/34 22/22/22 32/32/32
f 34/34/34 32/32/32 3/3/3
f 34/34/34 3/3/3 13/13/13
f 34/34/34 13/13/13 12/12/12
f 34/34/34 12/12/12 35/35/35
f 36/36/36 37/37/37 38/38/38
f 36/36/36 38/38/38 39/39/39
f 36/36/36 39/39/39 40/40/40
f 36/36/36 40/40/40 41/41/41
f 36/36/36 41/41/41 20/20/20
f 36/36/36 20/20/20 19/19/19
f 36/36/36 19/19/19 18/18/18
f 36/36/36 18/18/18 37/37/37
f 42/42/42 41/41/41 40/40/40
f 42/42/42 40/40/40 43/43/43
f 42/42/42 43/43/43 44/44/44
f 42/42/42 44/44/44 45/45/45
f 42/42/42 45/45/45 27/27/27
f 42/42/42 27/27/27 26/26/26
f 42/42/42 26/26/26 20/20/20
f 42/42/42 20/20/20 41/41/41
f 46/46/46 47/47/47 48/48/48
f 46/46/46 48/48/48 49/49/49
f 46/46/46 49/49/49 50/50/50
f 46/46/46 50/50/50 51/51/51
f 46/46/46 51/51/51 52/52/52
f 46/46/46 52/52/52 53/53/53
f 46/46/46 53/53/53 54/54/54
f 46/46/46 54/54/54 47/47/47
f 55/55/55 56/56/56 57/57/57
f 55/55/55 57/57/57 58/58/58
f 55/55/55 58/58/58 48/48/48
f 55/55/55 48/48/48 47/47/47
f 55/55/55 47/47/47 54/54/54
f 55/55/55 54/54/54 59/59/59
f 55/55/55 59/59/59 60/60/60
f 55/55/55 60/60/60 56/56/56
f 61/61/61 62/62/62 63/63/63
f 61/61/61 63/63/63 64/64/64
f 61/61/61 64/64/64 65/65/65
f 61/61/61 65/65/65 66/66/66
f 61/61/61 66/66/66 67/67/67
f 61/61/61 67/67/67 68/68/68
f 61/61/61 68/68/68 69/69/69
f 61/61/61 69/69/69 62/62/62
f 70/70/70 66/66/66 65/65/65
f 70/70/70 65/65/65 71/71/71
f 70/70/70 71/71/71 72/72/72
f 70/70/70 72/72/72 73/73/73
f 70/70/70 73/73/73 74/74/74
f 70/70/70 74/74/74 75/75/75
f 70/70/70 75/75/75 67/67/67
f 70/70/70 67/67/67 66/66/66
f 76/76/76 77/77/77 54/54/54
f 76/76/76 54/54/54 53/53/53
f 76/76/76 53/53/53 52/52/52
f 76/76/76 52/52/52 78/78/78
f 76/76/76 78/78/78 72/72/72
f 76/76/76 72/72/72 71/71/71
f 76/76/76 71/71/71 65/65/65
f 76/76/76 65/65/65 77/77/77
f 79/79/79 80/80/80 60/60/60
f 79/79/79 60/60/60 59/59/59
f 79/79/79 59/59/59 54/54/54
f 79/79/79 54/54/54 77/77/77
f 79/79/79 77/77/77 65/65/65
f 79/79/79 65/65/65 64/64/64
f 79/79/79 64/64/64 63/63/63
f 79/79/79 63/63/63 80/80/80
f 81/81/81 82/82/82 69/69/69
f 81/81/81 69/69/69 68/68/68
f 81/81/81 68/68/68 67/67/67
f 81/81/81 67/67/67 83/83/83
f 81/81/81 83/83/83 84/84/84
f 81/81/81 84/84/84 85/85/85
f 81/81/81 85/85/85 86/86/86
f 81/81/81 86/86/86 82/82/82
f 87/87/87 83/83/83 67/67/67
f 87/87/87 67/67/67 75/75/75
f 87/87/87 75/75/75 74/74/74
f 87/87/87 74/74/74 88/88/88
f 87/87/87 88/88/88 89/89/89
f 87/87/87 89/89/89 90/90/90
f 87/87/87 90/90/90 84/84/84
f 87/87/87 84/84/84 83/83/83
f 91/91/91 92/92/92 38/38/38
f 91/91/91 38/38/38 37/37/37
f 91/91/91 37/37/37 18/18/18
f 91/91/91 18/18/18 93/93/93
f 91/91/91 93/93/93 69/69/69
f 91/91/91 69/69/69 82/82/82
f 91/91/91 82/82/82 94/94/94
f 91/91/91 94/94/94 92/92/92
f 95/95/95 96/96/96 44/44/44
f 95/95/95 44/44/44 43/43/43
f 95/95/95 43/43/43 40/40/40
f 95/95/95 40/40/40 97/97/97
f 95/95/95 97/97/97 84/84/84
f 95/95/95 84/84/84 90/90/90
f 95/95/95 90/90/90 98/98/98
f 95/95/95 98/98/98 96/96/96
f 99/99/99 100/100/100 7/7/7
f 99/99/99 7/7/7 6/6/6
f 99/99/99 6/6/6 5/5/5
f 99/99/99 5/5/5 101/101/101
f 99/99/99 101/101/101 52/52/52
f 99/99/99 52/52/52 51/51/51
f 99/99/99 51/51/51 102/102/102
f 99/99/99 102/102/102 100/100/100
f 103/103/103 104/104/104 15/15/15
f 103/103/103 15/15/15 14/14/14
f 103/103/103 14/14/14 9/9/9
f 103/103/103 9/9/9 105/105/105
f 103/103/103 105/105/105 48/48/48
f 103/103/103 48/48/48 58/58/58
f 103/103/103 58/58/58 106/106/106
f 103/103/103 106/106/106 104/104/104
f 107/107/107 108/108/108 12/12/12
f 107/107/107 12/12/12 11/11/11
f 107/107/107 11/11/11 15/15/15
f 107/107/107 15/15/15 104/104/104
f 107/107/107 104/104/104 106/106/106
f 107/107/107 106/106/106 56/56/56
f 107/107/107 56/56/56 60/60/60
f 107/107/107 60/60/60 108/108/108
f 109/109/109 97/97/97 40/40/40
f 109/109/109 40/40/40 39/39/39
f 109/109/109 39/39/39 38/38/38
f 109/109/109 38/38/38 92/92/92
f 109/109/109 92/92/92 94/94/94
f 109/109/109 94/94/94 85/85/85
f 109/109/109 85/85/85 84/84/84
f 109/109/109 84/84/84 97/97/97
f 110/110/110 111/111/111 27/27/27
f 110/110/110 27/27/27 45/45/45
f 110/110/110 45/45/45 44/44/44
f 110/110/110 44/44/44 96/96/96
f 110/110/110 96/96/96 98/98/98
f 110/110/110 98/98/98 88/88/88
f 110/110/110 88/88/88 74/74/74
f 110/110/110 74/74/74 111/111/111
f 112/112/112 105/105/105 9/9/9
f 112/112/112 9/9/9 8/8/8
f 112/112/112 8/8/8 7/7/7
f 112/112/112 7/7/7 100/100/100
f 112/112/112 100/100/100 102/102/102
f 112/112/112 102/102/102 49/49/49
f 112/112/112 49/49/49 48/48/48
f 112/112/112 48/48/48 105/105/105
f 113/113/113 101/101/101 5/5/5
f 113/113/113 5/5/5 33/33/33
f 113/113/113 33/33/33 29/29/29
f 113/113/113 29/29/29 114/114/114
f 113/113/113 114/114/114 72/72/72
f 113/113/113 72/72/72 78/78/78
f 113/113/113 78/78/78 52/52/52
f 113/113/113 52/52/52 101/101/101
f 115/115/115 116/116/116 24/24/24
f 115/115/115 24/24/24 35/35/35
f 115/115/115 35/35/35 12/12/12
f 115/115/115 12/12/12 108/108/108
f 115/115/115 108/108/108 60/60/60
f 115/115/115 60/60/60 80/80/80
f 115/115/115 80/80/80 63/63/63
f 115/115/115 63/63/63 116/116/116
f 117/117/117 93/93/93 18/18/18
f 117/117/117 18/18/18 17/17/17
f 117/117/117 17/17/17 24/24/24
f 117/117/117 24/24/24 116/116/116
f 117/117/117 116/116/116 63/63/63
f 117/117/117 63/63/63 62/62/62
f 117/117/117 62/62/62 69/69/69
f 117/117/117 69/69/69 93/93/93
f 118/118/118 114/114/114 29/29/29
f 118/118/118 29/29/29 28/28/28
f 118/118/118 28/28/28 27/27/27
f 118/118/118 27/27/27 111/111/111
f 118/118/118 111/111/111 74/74/74
f 118/118/118 74/74/74 73/73/73
f 118/118/118 73/73/73 72/72/72
f 118/118/118 72/72/72 114/114/114
