v -2.371243 0.725871 -1.098619
v -2.371004 0.725660 -1.097057
v -2.369819 0.724109 -1.097889
v -2.370255 0.724491 -1.099564
v -2.370415 0.724806 -1.100892
v -2.371171 0.725959 -1.099919
v -2.371659 0.726514 -1.099024
v -2.371983 0.726782 -1.097882
v -2.371926 0.726748 -1.096434
v -2.370047 0.725292 -1.095837
v -2.369073 0.724944 -1.095040
v -2.368032 0.723653 -1.095349
v -2.368895 0.723833 -1.096403
v -2.370948 0.726281 -1.095474
v -2.369960 0.725692 -1.095073
v -2.366110 0.718294 -1.098791
v -2.365457 0.718113 -1.097679
v -2.364950 0.716127 -1.098695
v -2.365537 0.716285 -1.099676
v -2.366234 0.716527 -1.101008
v -2.366889 0.718570 -1.100302
v -2.367677 0.720539 -1.099553
v -2.366849 0.720259 -1.097977
v -2.366145 0.720081 -1.096820
v -2.367442 0.718939 -1.101890
v -2.366715 0.716855 -1.102416
v -2.367014 0.717125 -1.103497
v -2.367791 0.719242 -1.103108
v -2.368587 0.721262 -1.102499
v -2.368243 0.720933 -1.101218
v -2.369217 0.722814 -1.100437
v -2.368682 0.722394 -1.098735
v -2.369508 0.723178 -1.101756
v -2.367803 0.722130 -1.097149
v -2.367030 0.721979 -1.095993
v -2.365082 0.714280 -1.100716
v -2.364610 0.714174 -1.099994
v -2.364571 0.713100 -1.100888
v -2.364802 0.712770 -1.101545
v -2.365208 0.712874 -1.102209
v -2.365627 0.714451 -1.101701
v -2.365961 0.714706 -1.102760
v -2.365404 0.713062 -1.102947
v -2.365654 0.713625 -1.103409
v -2.366151 0.714920 -1.103580
v -2.371377 0.725772 -1.098608
v -2.371130 0.725555 -1.097025
v -2.372019 0.726668 -1.096411
v -2.372082 0.726706 -1.097875
v -2.371734 0.726460 -1.099024
v -2.371274 0.725888 -1.099922
v -2.370521 0.724737 -1.100889
v -2.370391 0.724396 -1.099548
v -2.369948 0.724009 -1.097855
v -2.370163 0.725184 -1.095784
v -2.369154 0.724862 -1.094991
v -2.370021 0.725631 -1.095039
v -2.371032 0.726198 -1.095434
v -2.369015 0.723730 -1.096349
v -2.368118 0.723575 -1.095300
v -2.366247 0.718218 -1.098732
v -2.365556 0.718054 -1.097628
v -2.366241 0.720016 -1.096771
v -2.366982 0.720175 -1.097920
v -2.367816 0.720457 -1.099510
v -2.367032 0.718496 -1.100255
v -2.366379 0.716459 -1.100960
v -2.365676 0.716215 -1.099614
v -2.365051 0.716073 -1.098642
v -2.367590 0.718868 -1.101857
v -2.368387 0.720855 -1.101190
v -2.368698 0.721205 -1.102484
v -2.367904 0.719191 -1.103090
v -2.367130 0.717079 -1.103477
v -2.366866 0.716790 -1.102381
v -2.369358 0.722727 -1.100415
v -2.368816 0.722302 -1.098696
v -2.369616 0.723115 -1.101747
v -2.367930 0.722036 -1.097094
v -2.367121 0.721908 -1.095944
v -2.365221 0.714212 -1.100652
v -2.364711 0.714122 -1.099940
v -2.365773 0.714386 -1.101652
v -2.365318 0.712826 -1.102172
v -2.364906 0.712719 -1.101497
v -2.364646 0.713062 -1.100850
v -2.366112 0.714643 -1.102726
v -2.366268 0.714875 -1.103561
v -2.365740 0.713591 -1.103394
v -2.365518 0.713015 -1.102921
v -2.364496 0.714115 -1.099728
v -2.364456 0.712691 -1.101020
v -2.364798 0.716050 -1.098343
v -2.364646 0.713062 -1.100850
v -2.365269 0.712493 -1.102997
v -2.365542 0.713216 -1.103546
v -2.365118 0.712327 -1.102362
v -2.365740 0.713591 -1.103394
v -2.371194 0.725957 -1.100356
v -2.371756 0.726636 -1.099156
v -2.370517 0.724881 -1.101335
v -2.371734 0.726460 -1.099024
v -2.371285 0.726574 -1.095335
v -2.369918 0.725747 -1.094881
v -2.372275 0.727075 -1.096217
v -2.370021 0.725631 -1.095039
v -2.368783 0.724791 -1.094751
v -2.367782 0.723558 -1.094974
v -2.364754 0.712244 -1.101800
v -2.366267 0.714972 -1.103846
v -2.367166 0.717195 -1.103850
v -2.372274 0.727052 -1.097633
v -2.369653 0.723272 -1.102193
v -2.368752 0.721347 -1.102921
v -2.366812 0.721897 -1.095584
v -2.365952 0.719992 -1.096411
v -2.365283 0.718026 -1.097284
v -2.367958 0.719320 -1.103507
vn 0.801600 0.597600 0.019700
vn 0.722800 0.669400 -0.171600
vn 0.755800 0.625000 -0.194900
vn 0.828200 0.559900 -0.025100
vn 0.838500 0.543200 -0.043400
vn 0.799800 0.600100 0.012100
vn 0.768600 0.637700 0.050600
vn 0.737200 0.675400 0.019500
vn 0.666400 0.733500 -0.133900
vn 0.633500 0.678900 -0.371100
vn 0.638000 0.678400 -0.364300
vn 0.695500 0.612400 -0.375900
vn 0.677900 0.632600 -0.374400
vn 0.600000 0.741800 -0.299500
vn 0.594800 0.721900 -0.353700
vn 0.816800 0.432500 -0.381700
vn 0.836700 0.419500 -0.351900
vn 0.847700 0.390000 -0.359500
vn 0.823100 0.403900 -0.399100
vn 0.877200 0.375500 -0.299100
vn 0.864400 0.413800 -0.285600
vn 0.833900 0.488500 -0.256900
vn 0.783400 0.501100 -0.367700
vn 0.803000 0.482400 -0.350000
vn 0.901100 0.391800 -0.185500
vn 0.913600 0.360100 -0.188700
vn 0.901000 0.364100 -0.235500
vn 0.892400 0.392600 -0.222500
vn 0.876600 0.446700 -0.178800
vn 0.878000 0.455300 -0.147700
vn 0.850600 0.518400 -0.087600
vn 0.793100 0.566700 -0.223100
vn 0.857900 0.501200 -0.112600
vn 0.731300 0.576100 -0.364900
vn 0.751500 0.552700 -0.360100
vn 0.814400 0.394500 -0.425600
vn 0.842900 0.375800 -0.385200
vn 0.831900 0.365000 -0.417900
vn 0.817400 0.345300 -0.461100
vn 0.896300 0.304800 -0.321900
vn 0.882700 0.357200 -0.305200
vn 0.924600 0.341100 -0.169100
vn 0.944600 0.283300 -0.165700
vn 0.927200 0.318800 -0.196300
vn 0.913500 0.341700 -0.220800
vn -0.820200 -0.570900 -0.036200
vn -0.732200 -0.657400 0.178100
vn -0.766400 -0.609500 0.202700
vn -0.868400 -0.488100 -0.087600
vn -0.890000 -0.417200 -0.184100
vn -0.884400 -0.436200 -0.165800
vn -0.879900 -0.464300 -0.101000
vn -0.832500 -0.553900 0.011500
vn -0.755700 -0.625200 0.194900
vn -0.631100 -0.662400 0.403700
vn -0.565600 -0.590400 0.575800
vn -0.553800 -0.579800 0.597500
vn -0.616600 -0.610100 0.497500
vn -0.670600 -0.632300 0.387900
vn -0.611800 -0.594000 0.522400
vn -0.808500 -0.436000 0.395200
vn -0.744700 -0.457100 0.486200
vn -0.719300 -0.504300 0.477800
vn -0.775800 -0.503200 0.380600
vn -0.833900 -0.488400 0.257000
vn -0.864400 -0.413700 0.285600
vn -0.877300 -0.375400 0.299100
vn -0.812700 -0.409600 0.414200
vn -0.730700 -0.457100 0.507000
vn -0.905400 -0.389100 0.170000
vn -0.882000 -0.451800 0.133500
vn -0.910800 -0.411600 0.032300
vn -0.927600 -0.368500 0.061100
vn -0.932300 -0.359500 0.038300
vn -0.917800 -0.358800 0.170000
vn -0.854400 -0.514200 0.074000
vn -0.793100 -0.566800 0.223100
vn -0.890900 -0.453200 -0.028800
vn -0.723900 -0.577300 0.377500
vn -0.668500 -0.560800 0.488400
vn -0.795300 -0.415800 0.441100
vn -0.684800 -0.491300 0.538200
vn -0.879400 -0.368400 0.301500
vn -0.863400 -0.416600 0.284600
vn -0.731200 -0.486800 0.477800
vn -0.653800 -0.516000 0.553400
vn -0.925300 -0.352900 0.138800
vn -0.927000 -0.374200 -0.025100
vn -0.919600 -0.387600 -0.064700
vn -0.916600 -0.397100 0.046800
vn 0.634600 -0.429200 0.642700
vn 0.660000 -0.681400 0.316200
vn 0.581700 -0.324400 0.745900
vn -0.653800 -0.516000 0.553400
vn 0.212300 -0.824600 -0.524300
vn 0.141100 -0.431800 -0.890800
vn 0.171100 -0.947400 -0.270300
vn -0.919600 -0.387600 -0.064700
vn -0.273800 0.612100 -0.741800
vn -0.396000 0.776400 -0.490200
vn -0.217700 0.451000 -0.865500
vn -0.890000 -0.417200 -0.184100
vn -0.241800 0.588000 0.771800
vn 0.179800 0.497600 0.848500
vn -0.620100 0.671000 0.406400
vn -0.553800 -0.579800 0.597500
vn 0.417100 0.278200 0.865200
vn 0.519800 0.094400 0.849100
vn 0.396100 -0.912900 -0.098100
vn -0.069000 -0.089300 -0.993600
vn -0.163200 0.035600 -0.985900
vn -0.623400 0.773200 -0.116000
vn -0.199500 0.318400 -0.926700
vn -0.201400 0.234300 -0.951000
vn 0.556000 -0.047200 0.829800
vn 0.559000 -0.133700 0.818300
vn 0.557600 -0.218200 0.800900
vn -0.202800 0.149700 -0.967700
vt 0.839504 0.118056
vt 0.856743 0.205307
vt 0.741230 0.205307
vt 0.734555 0.106726
vt 0.724541 0.032791
vt 0.813647 0.052618
vt 0.868992 0.081539
vt 0.913398 0.129584
vt 0.940923 0.205307
vt 0.839504 0.292557
vt 0.813647 0.357995
vt 0.724541 0.377822
vt 0.734555 0.303887
vt 0.913398 0.281029
vt 0.868992 0.329074
vt 0.369475 0.299954
vt 0.368286 0.370940
vt 0.245840 0.351447
vt 0.246397 0.288815
vt 0.246768 0.205307
vt 0.370268 0.205307
vt 0.494283 0.205307
vt 0.492822 0.304944
vt 0.490632 0.379672
vt 0.369475 0.110659
vt 0.246397 0.121798
vt 0.245841 0.059166
vt 0.368286 0.039673
vt 0.490632 0.030941
vt 0.492822 0.105669
vt 0.616755 0.103478
vt 0.619174 0.205307
vt 0.613127 0.027106
vt 0.616755 0.307135
vt 0.613126 0.383507
vt 0.123273 0.268175
vt 0.123047 0.315326
vt 0.054743 0.283353
vt 0.030912 0.249131
vt 0.030973 0.205306
vt 0.123423 0.205306
vt 0.123273 0.142438
vt 0.030912 0.161481
vt 0.054744 0.127260
vt 0.123047 0.095287
vt 0.839504 0.118056
vt 0.856743 0.205307
vt 0.968983 0.205307
vt 0.938030 0.133427
vt 0.876123 0.061548
vt 0.805028 0.030806
vt 0.721203 0.008146
vt 0.734555 0.106726
vt 0.741230 0.205307
vt 0.839504 0.292557
vt 0.805028 0.379807
vt 0.876123 0.349065
vt 0.938030 0.277186
vt 0.734555 0.303887
vt 0.721203 0.402467
vt 0.369475 0.299954
vt 0.367890 0.394602
vt 0.489902 0.404581
vt 0.492822 0.304944
vt 0.494283 0.205307
vt 0.370268 0.205307
vt 0.246768 0.205307
vt 0.246397 0.288815
vt 0.245655 0.372324
vt 0.369475 0.110659
vt 0.492822 0.105669
vt 0.489902 0.006032
vt 0.367890 0.016011
vt 0.245655 0.038289
vt 0.246397 0.121798
vt 0.616755 0.103478
vt 0.619174 0.205307
vt 0.611917 0.001649
vt 0.616755 0.307135
vt 0.611917 0.408964
vt 0.123273 0.268175
vt 0.122972 0.331043
vt 0.123423 0.205306
vt 0.000156 0.205306
vt 0.000125 0.242784
vt 0.000064 0.280261
vt 0.123273 0.142438
vt 0.122972 0.079570
vt 0.000064 0.130352
vt 0.000125 0.167829
vt 0.122972 0.331043
vt 0.030806 0.283587
vt 0.245655 0.372324
vt 0.030806 0.283587
vt 0.000125 0.167829
vt 0.030806 0.127026
vt 0.000156 0.205306
vt 0.030806 0.127026
vt 0.805028 0.030806
vt 0.873826 0.071832
vt 0.721203 0.008146
vt 0.873826 0.071832
vt 0.938030 0.277186
vt 0.873826 0.338781
vt 0.968983 0.205307
vt 0.873826 0.338781
vt 0.805028 0.379807
vt 0.721203 0.402467
vt 0.000125 0.242784
vt 0.122972 0.079570
vt 0.245655 0.038289
vt 0.938030 0.133427
vt 0.611917 0.001649
vt 0.489902 0.006032
vt 0.611917 0.408964
vt 0.489902 0.404581
vt 0.367890 0.394602
vt 0.367890 0.016011
f 1/1/1 2/2/2 3/3/3
f 1/1/1 3/3/3 4/4/4
f 1/1/1 4/4/4 5/5/5
f 1/1/1 5/5/5 6/6/6
f 1/1/1 6/6/6 7/7/7
f 1/1/1 7/7/7 8/8/8
f 1/1/1 8/8/8 9/9/9
f 1/1/1 9/9/9 2/2/2
f 10/10/10 11/11/11 12/12/12
f 10/10/10 12/12/12 13/13/13
f 10/10/10 13/13/13 3/3/3
f 10/10/10 3/3/3 2/2/2
f 10/10/10 2/2/2 9/9/9
f 10/10/10 9/9/9 14/14/14
f 10/10/10 14/14/14 15/15/15
f 10/10/10 15/15/15 11/11/11
f 16/16/16 17/17/17 18/18/18
f 16/16/16 18/18/18 19/19/19
f 16/16/16 19/19/19 20/20/20
f 16/16/16 20/20/20 21/21/21
f 16/16/16 21/21/21 22/22/22
f 16/16/16 22/22/22 23/23/23
f 16/16/16 23/23/23 24/24/24
f 16/16/16 24/24/24 17/17/17
f 25/25/25 21/21/21 20/20/20
f 25/25/25 20/20/20 26/26/26
f 25/25/25 26/26/26 27/27/27
f 25/25/25 27/27/27 28/28/28
f 25/25/25 28/28/28 29/29/29
f 25/25/25 29/29/29 30/30/30
f 25/25/25 30/30/30 22/22/22
f 25/25/25 22/22/22 21/21/21
f 31/31/31 32/32/32 22/22/22
f 31/31/31 22/22/22 30/30/30
f 31/31/31 30/30/30 29/29/29
f 31/31/31 29/29/29 33/33/33
f 31/31/31 33/33/33 5/5/5
f 31/31/31 5/5/5 4/4/4
f 31/31/31 4/4/4 3/3/3
f 31/31/31 3/3/3 32/32/32
f 34/34/34 35/35/35 24/24/24
f 34/34/34 24/24/24 23/23/23
f 34/34/34 23/23/23 22/22/22
f 34/34/34 22/22/22 32/32/32
f 34/34/34 32/32/32 3/3/3
f 34/34/34 3/3/3 13/13/13
f 34/34/34 13/13/13 12/12/12
f 34/34/34 12/12/12 35/35/35
f 36/36/36 37/37/37 38/38/38
f 36/36/36 38/38/38 39/39/39
f 36/36/36 39/39/39 40/40/40
f 36/36/36 40/40/40 41/41/41
f 36/36/36 41/41/41 20/20/20
f 36/36/36 20/20/20 19/19/19
f 36/36/36 19/19/19 18/18/18
f 36/36/36 18/18/18 37/37/37
f 42/42/42 41/41/41 40/40/40
f 42/42/42 40/40/40 43/43/43
f 42/42/42 43/43/43 44/44/44
f 42/42/42 44/44/44 45/45/45
f 42/42/42 45/45/45 27/27/27
f 42/42/42 27/27/27 26/26/26
f 42/42/42 26/26/26 20/20/20
f 42/42/42 20/20/20 41/41/41
f 46/46/46 47/47/47 48/48/48
f 46/46/46 48/48/48 49/49/49
f 46/46/46 49/49/49 50/50/50
f 46/46/46 50/50/50 51/51/51
f 46/46/46 51/51/51 52/52/52
f 46/46/46 52/52/52 53/53/53
f 46/46/46 53/53/53 54/54/54
f 46/46/46 54/54/54 47/47/47
f 55/55/55 56/56/56 57/57/57
f 55/55/55 57/57/57 58/58/58
f 55/55/55 58/58/58 48/48/48
f 55/55/55 48/48/48 47/47/47
f 55/55/55 47/47/47 54/54/54
f 55/55/55 54/54/54 59/59/59
f 55/55/55 59/59/59 60/60/60
f 55/55/55 60/60/60 56/56/56
f 61/61/61 62/62/62 63/63/63
f 61/61/61 63/63/63 64/64/64
f 61/61/61 64/64/64 65/65/65
f 61/61/61 65/65/65 66/66/66
f 61/61/61 66/66/66 67/67/67
f 61/61/61 67/67/67 68/68/68
f 61/61/61 68/68/68 69/69/69
f 61/61/61 69/69/69 62/62/62
f 70/70/70 66/66/66 65/65/65
f 70/70/70 65/65/65 71/71/71
f 70/70/70 71/71/71 72/72/72
f 70/70/70 72/72/72 73/73/73
f 70/70/70 73/73/73 74/74/74
f 70/70/70 74/74/74 75/75/75
f 70/70/70 75/75/75 67/67/67
f 70/70/70 67/67/67 66/66/66
f 76/76/76 77/77/77 54/54/54
f 76/76/76 54/54/54 53/53/53
f 76/76/76 53/53/53 52/52/52
f 76/76/76 52/52/52 78/78/78
f 76/76/76 78/78/78 72/72/72
f 76/76/76 72/72/72 71/71/71
f 76/76/76 71/71/71 65/65/65
f 76/76/76 65/65/65 77/77/77
f 79/79/79 80/80/80 60/60/60
f 79/79/79 60/60/60 59/59/59
f 79/79/79 59/59/59 54/54/54
f 79/79/79 54/54/54 77/77/77
f 79/79/79 77/77/77 65/65/65
f 79/79/79 65/65/65 64/64/64
f 79/79/79 64/64/64 63/63/63
f 79/79/79 63/63/63 80/80/80
f 81/81/81 82/82/82 69/69/69
f 81/81/81 69/69/69 68/68/68
f 81/81/81 68/68/68 67/67/67
f 81/81/81 67/67/67 83/83/83
f 81/81/81 83/83/83 84/84/84
f 81/81/81 84/84/84 85/85/85
f 81/81/81 85/85/85 86/86/86
f 81/81/81 86/86/86 82/82/82
f 87/87/87 83/83/83 67/67/67
f 87/87/87 67/67/67 75/75/75
f 87/87/87 75/75/75 74/74/74
f 87/87/87 74/74/74 88/88/88
f 87/87/87 88/88/88 89/89/89
f 87/87/87 89/89/89 90/90/90
f 87/87/87 90/90/90 84/84/84
f 87/87/87 84/84/84 83/83/83
f 91/91/91 92/92/92 38/38/38
f 91/91/91 38/38/38 37/37/37
f 91/91/91 37/37/37 18/18/18
f 91/91/91 18/18/18 93/93/93
f 91/91/91 93/93/93 69/69/69
f 91/91/91 69/69/69 82/82/82
f 91/91/91 82/82/82 94/94/94
f 91/91/91 94/94/94 92/92/92
f 95/95/95 96/96/96 44/44/44
f 95/95/95 44/44/44 43/43/43
f 95/95/95 43/43/43 40/40/40
f 95/95/95 40/40/40 97/97/97
f 95/95/95 97/97/97 84/84/84
f 95/95/95 84/84/84 90/90/90
f 95/95/95 90/90/90 98/98/98
f 95/95/95 98/98/98 96/96/96
f 99/99/99 100/100/100 7/7/7
f 99/99/99 7/7/7 6/6/6
f 99/99/99 6/6/6 5/5/5
f 99/99/99 5/5/5 101/101/101
f 99/99/99 101/101/101 52/52/52
f 99/99/99 52/52/52 51/51/51
f 99/99/99 51/51/51 102/102/102
f 99/99/99 102/102/102 100/100/100
f 103/103/103 104/104/104 15/15/15
f 103/103/103 15/15/15 14/14/14
f 103/103/103 14/14/14 9/9/9
f 103/103/103 9/9/9 105/105/105
f 103/103/103 105/105/105 48/48/48
f 103/103/103 48/48/48 58/58/58
f 103/103/103 58/58/58 106/106/106
f 103/103/103 106/106/106 104/104/104
f 107/107/107 108/108/108 12/12/12
f 107/107/107 12/12/12 11/11/11
f 107/107/107 11/11/11 15/15/15
f 107/107/107 15/15/15 104/104/104
f 107/107/107 104/104/104 106/106/106
f 107/107/107 106/106/106 56/56/56
f 107/107/107 56/56/56 60/60/60
f 107/107/107 60/60/60 108/108/108
f 109/109/109 97/97/97 40/40/40
f 109/109/109 40/40/40 39/39/39
f 109/109/109 39/39/39 38/38/38
f 109/109/109 38/38/38 92/92/92
f 109/109/109 92/92/92 94/94/94
f 109/109/109 94/94/94 85/85/85
f 109/109/109 85/85/85 84/84/84
f 109/109/109 84/84/84 97/97/97
f 110/110/110 111/111/111 27/27/27
f 110/110/110 27/27/27 45/45/45
f 110/110/110 45/45/45 44/44/44
f 110/110/110 44/44/44 96/96/96
f 110/110/110 96/96/96 98/98/98
f 110/110/110 98/98/98 88/88/88
f 110/110/110 88/88/88 74/74/74
f 110/110/110 74/74/74 111/111/111
f 112/112/112 105/105/105 9/9/9
f 112/112/112 9/9/9 8/8/8
f 112/112/112 8/8/8 7/7/7
f 112/112/112 7/7/7 100/100/100
f 112/112/112 100/100/100 102/102/102
f 112/112/112 102/102/102 49/49/49
f 112/112/112 49/49/49 48/48/48
f 112/112/112 48/48/48 105/105/105
f 113/113/113 101/101/101 5/5/5
f 113/113/113 5/5/5 33/33/33
f 113/113/113 33/33/33 29/29/29
f 113/113/113 29/29/29 114/114/114
f 113/113/113 114/114/114 72/72/72
f 113/113/113 72/72/72 78/78/78
f 113/113/113 78/78/78 52/52/52
f 113/113/113 52/52/52 101/101/101
f 115/115/115 116/116/116 24/24/24
f 115/115/115 24/24/24 35/35/35
f 115/115/115 35/35/35 12/12/12
f 115/115/115 12/12/12 108/108/108
f 115/115/115 108/108/108 60/60/60
f 115/115/115 60/60/60 80/80/80
f 115/115/115 80/80/80 63/63/63
f 115/115/115 63/63/63 116/116/116
f 117/117/117 93/93/93 18/18/18
f 117/117/117 18/18/18 17/17/17
f 117/117/117 17/17/17 24/24/24
f 117/117/117 24/24/24 116/116/116
f 117/117/117 116/116/116 63/63/63
f 117/117/117 63/63/63 62/62/62
f 117/117/117 62/62/62 69/69/69
f 117/117/117 69/69/69 93/93/93
f 118/118/118 114/114/114 29/29/29
f 118/118/118 29/29/29 28/28/28
f 118/118/118 28/28/28 27/27/27
f 118/118/118 27/27/27 111/111/111
f 118/118/118 111/111/111 74/74/74
f 118/118/118 74/74/74 73/73/73
f 118/118/118 73/73/73 72/72/72
f 118/118/118 72/72/72 114/114/114
