v -2.367457 0.709121 -1.191207
v -2.365929 0.709248 -1.192954
v -2.367882 0.707080 -1.193982
v -2.369361 0.707129 -1.191864
v -2.370707 0.707222 -1.190384
v -2.368979 0.708945 -1.190078
v -2.367555 0.709854 -1.190183
v -2.365992 0.710446 -1.190781
v -2.364430 0.710760 -1.192168
v -2.365446 0.709216 -1.195226
v -2.365453 0.709111 -1.197127
v -2.366701 0.707411 -1.198391
v -2.367076 0.707236 -1.196432
v -2.364251 0.710528 -1.194260
v -2.364699 0.709988 -1.195891
v -2.372043 0.699342 -1.199045
v -2.371406 0.699486 -1.200829
v -2.372904 0.696517 -1.201081
v -2.373455 0.696385 -1.199497
v -2.374300 0.696264 -1.197447
v -2.373011 0.699210 -1.196733
v -2.371547 0.702033 -1.195934
v -2.370552 0.702185 -1.198361
v -2.369912 0.702355 -1.200240
v -2.374283 0.699237 -1.194569
v -2.375435 0.696291 -1.195539
v -2.376374 0.696353 -1.194145
v -2.375329 0.699301 -1.192986
v -2.374017 0.702162 -1.192036
v -2.372894 0.702075 -1.193679
v -2.371214 0.704743 -1.192733
v -2.369796 0.704666 -1.194996
v -2.372431 0.704882 -1.191103
v -2.368837 0.704855 -1.197483
v -2.368266 0.705078 -1.199428
v -2.374929 0.693372 -1.199678
v -2.374562 0.693492 -1.200883
v -2.375535 0.691755 -1.200449
v -2.376032 0.691079 -1.199702
v -2.376396 0.690984 -1.198621
v -2.375525 0.693266 -1.198131
v -2.376407 0.693303 -1.196724
v -2.377045 0.691031 -1.197678
v -2.377357 0.691669 -1.196807
v -2.377153 0.693370 -1.195704
v -2.367314 0.708955 -1.191102
v -2.365769 0.709081 -1.192878
v -2.364313 0.710633 -1.192113
v -2.365888 0.710320 -1.190702
v -2.367481 0.709761 -1.190118
v -2.368881 0.708823 -1.189985
v -2.370602 0.707105 -1.190292
v -2.369210 0.706970 -1.191759
v -2.367716 0.706921 -1.193903
v -2.365273 0.709051 -1.195181
v -2.365317 0.708991 -1.197109
v -2.364601 0.709897 -1.195874
v -2.364123 0.710403 -1.194229
v -2.366899 0.707079 -1.196380
v -2.366562 0.707295 -1.198366
v -2.371845 0.699220 -1.198973
v -2.371253 0.699395 -1.200784
v -2.369764 0.702256 -1.200199
v -2.370359 0.702052 -1.198293
v -2.371364 0.701899 -1.195846
v -2.372821 0.699087 -1.196641
v -2.374105 0.696150 -1.197353
v -2.373251 0.696271 -1.199423
v -2.372747 0.696432 -1.201035
v -2.374103 0.699114 -1.194458
v -2.372722 0.701941 -1.193570
v -2.373893 0.702062 -1.191945
v -2.375201 0.699210 -1.192894
v -2.376242 0.696268 -1.194050
v -2.375251 0.696177 -1.195426
v -2.371052 0.704596 -1.192626
v -2.369622 0.704518 -1.194913
v -2.372317 0.704772 -1.191012
v -2.368652 0.704709 -1.197423
v -2.368122 0.704970 -1.199395
v -2.374724 0.693262 -1.199604
v -2.374404 0.693411 -1.200839
v -2.375329 0.693155 -1.198036
v -2.376250 0.690901 -1.198549
v -2.375878 0.690997 -1.199648
v -2.375419 0.691694 -1.200413
v -2.376222 0.693192 -1.196608
v -2.377021 0.693287 -1.195607
v -2.377258 0.691608 -1.196738
v -2.376907 0.690948 -1.197591
v -2.374368 0.693496 -1.201268
v -2.375767 0.691164 -1.200584
v -2.372649 0.696523 -1.201591
v -2.375419 0.691694 -1.200413
v -2.377197 0.690237 -1.197957
v -2.377593 0.691078 -1.196935
v -2.376622 0.690186 -1.198752
v -2.377258 0.691608 -1.196738
v -2.369445 0.708833 -1.189657
v -2.367618 0.709975 -1.189919
v -2.371111 0.707201 -1.189847
v -2.367481 0.709761 -1.190118
v -2.363796 0.710909 -1.193925
v -2.364528 0.710121 -1.196095
v -2.363879 0.711207 -1.191882
v -2.364601 0.709897 -1.195874
v -2.365393 0.709024 -1.197756
v -2.366513 0.707418 -1.199036
v -2.376332 0.690278 -1.199686
v -2.377345 0.693356 -1.195318
v -2.376629 0.696336 -1.193636
v -2.365458 0.710831 -1.190604
v -2.372787 0.704879 -1.190516
v -2.374337 0.702147 -1.191446
v -2.368011 0.705104 -1.200064
v -2.369632 0.702368 -1.200850
v -2.371125 0.699494 -1.201406
v -2.375622 0.699282 -1.192415
vn -0.523600 0.698600 -0.487700
vn -0.621900 0.725700 -0.294000
vn -0.659300 0.683300 -0.313700
vn -0.573500 0.658000 -0.487900
vn -0.593400 0.640200 -0.487900
vn -0.528500 0.699400 -0.481200
vn -0.480400 0.738200 -0.473500
vn -0.485300 0.765500 -0.422400
vn -0.559200 0.786800 -0.261200
vn -0.717300 0.689400 -0.100500
vn -0.715100 0.690600 -0.108200
vn -0.758300 0.632300 -0.158400
vn -0.746700 0.649900 -0.141800
vn -0.643200 0.758200 -0.106300
vn -0.680700 0.728900 -0.072800
vn -0.833900 0.472800 -0.284500
vn -0.823600 0.467800 -0.320800
vn -0.835300 0.439200 -0.330600
vn -0.850200 0.442800 -0.284500
vn -0.807500 0.439300 -0.393600
vn -0.790300 0.477200 -0.384200
vn -0.751600 0.550600 -0.363000
vn -0.804400 0.537300 -0.253400
vn -0.802700 0.524800 -0.283200
vn -0.736700 0.477400 -0.478900
vn -0.745900 0.447700 -0.493000
vn -0.773700 0.442200 -0.453600
vn -0.759400 0.470800 -0.449000
vn -0.717900 0.528800 -0.452700
vn -0.695300 0.542500 -0.471400
vn -0.634100 0.610200 -0.474800
vn -0.702600 0.626900 -0.336700
vn -0.657400 0.590300 -0.468300
vn -0.771700 0.603800 -0.199900
vn -0.780100 0.584600 -0.223200
vn -0.864500 0.428100 -0.263400
vn -0.851200 0.420600 -0.313900
vn -0.868700 0.403100 -0.287600
vn -0.891800 0.374300 -0.254100
vn -0.834600 0.369200 -0.408800
vn -0.815000 0.421200 -0.397800
vn -0.737400 0.433900 -0.517600
vn -0.745200 0.381300 -0.547000
vn -0.758800 0.408200 -0.507500
vn -0.769600 0.424400 -0.477000
vn 0.522000 -0.677800 0.517800
vn 0.632400 -0.714300 0.299600
vn 0.671500 -0.668200 0.320200
vn 0.510400 -0.612600 0.603400
vn 0.447900 -0.562200 0.695200
vn 0.459100 -0.576700 0.675700
vn 0.506700 -0.592900 0.625900
vn 0.565700 -0.655000 0.500800
vn 0.659200 -0.683400 0.313700
vn 0.740000 -0.667600 0.081900
vn 0.826800 -0.559300 -0.059200
vn 0.835300 -0.544100 -0.079300
vn 0.800400 -0.599000 0.023800
vn 0.752300 -0.646300 0.127900
vn 0.815700 -0.578400 0.008200
vn 0.839100 -0.472700 0.269100
vn 0.868400 -0.469300 0.159900
vn 0.847400 -0.513300 0.135800
vn 0.809400 -0.536300 0.239200
vn 0.751700 -0.550500 0.363100
vn 0.790400 -0.477000 0.384200
vn 0.807500 -0.439200 0.393700
vn 0.855300 -0.444400 0.266100
vn 0.875300 -0.463800 0.136400
vn 0.727400 -0.478000 0.492300
vn 0.686900 -0.542000 0.484000
vn 0.626600 -0.523700 0.577200
vn 0.657600 -0.479200 0.581200
vn 0.642900 -0.474800 0.601000
vn 0.734300 -0.450100 0.508100
vn 0.626100 -0.608900 0.487000
vn 0.702600 -0.626900 0.336700
vn 0.568600 -0.571600 0.591600
vn 0.776600 -0.601900 0.186200
vn 0.825000 -0.559600 0.079000
vn 0.864900 -0.443600 0.234900
vn 0.870800 -0.485900 0.075100
vn 0.810400 -0.432300 0.395300
vn 0.789000 -0.479900 0.383500
vn 0.854500 -0.497700 0.148700
vn 0.863400 -0.503200 0.037100
vn 0.715000 -0.450700 0.534400
vn 0.591600 -0.498900 0.633300
vn 0.557200 -0.517400 0.649400
vn 0.640900 -0.507800 0.575700
vn 0.099000 -0.223800 -0.969600
vn -0.157400 -0.521100 -0.838800
vn 0.208100 -0.111700 -0.971700
vn 0.863400 -0.503200 0.037100
vn -0.506000 -0.862500 -0.009600
vn -0.755700 -0.548500 0.357800
vn -0.281000 -0.945800 -0.162600
vn 0.557200 -0.517400 0.649400
vn -0.413900 0.436400 0.798800
vn -0.150300 0.620600 0.769600
vn -0.538700 0.266200 0.799300
vn 0.447900 -0.562200 0.695200
vn 0.723100 0.668900 -0.172200
vn 0.514100 0.652100 -0.557100
vn 0.684200 0.636000 0.357000
vn 0.835300 -0.544100 -0.079300
vn 0.382200 0.473600 -0.793500
vn 0.310900 0.305500 -0.900000
vn -0.295300 -0.852500 -0.431300
vn -0.711900 -0.261500 0.651800
vn -0.650400 -0.152000 0.744200
vn 0.283300 0.648000 0.707000
vn -0.592400 0.128500 0.795300
vn -0.606200 0.042400 0.794200
vn 0.278300 0.169200 -0.945500
vn 0.270800 0.083700 -0.959000
vn 0.261800 -0.001700 -0.965100
vn -0.615000 -0.043300 0.787300
vt 0.839504 0.118056
vt 0.856743 0.205307
vt 0.741230 0.205307
vt 0.734555 0.106726
vt 0.724541 0.032791
vt 0.813647 0.052618
vt 0.868992 0.081539
vt 0.913398 0.129584
vt 0.940923 0.205307
vt 0.839504 0.292557
vt 0.813647 0.357995
vt 0.724541 0.377822
vt 0.734555 0.303887
vt 0.913398 0.281029
vt 0.868992 0.329074
vt 0.369475 0.299954
vt 0.368286 0.370940
vt 0.245840 0.351447
vt 0.246397 0.288815
vt 0.246768 0.205307
vt 0.370268 0.205307
vt 0.494283 0.205307
vt 0.492822 0.304944
vt 0.490632 0.379672
vt 0.369475 0.110659
vt 0.246397 0.121798
vt 0.245841 0.059166
vt 0.368286 0.039673
vt 0.490632 0.030941
vt 0.492822 0.105669
vt 0.616755 0.103478
vt 0.619174 0.205307
vt 0.613127 0.027106
vt 0.616755 0.307135
vt 0.613126 0.383507
vt 0.123273 0.268175
vt 0.123047 0.315326
vt 0.054743 0.283353
vt 0.030912 0.249131
vt 0.030973 0.205306
vt 0.123423 0.205306
vt 0.123273 0.142438
vt 0.030912 0.161481
vt 0.054744 0.127260
vt 0.123047 0.095287
vt 0.839504 0.118056
vt 0.856743 0.205307
vt 0.968983 0.205307
vt 0.938030 0.133427
vt 0.876123 0.061548
vt 0.805028 0.030806
vt 0.721203 0.008146
vt 0.734555 0.106726
vt 0.741230 0.205307
vt 0.839504 0.292557
vt 0.805028 0.379807
vt 0.876123 0.349065
vt 0.938030 0.277186
vt 0.734555 0.303887
vt 0.721203 0.402467
vt 0.369475 0.299954
vt 0.367890 0.394602
vt 0.489902 0.404581
vt 0.492822 0.304944
vt 0.494283 0.205307
vt 0.370268 0.205307
vt 0.246768 0.205307
vt 0.246397 0.288815
vt 0.245655 0.372324
vt 0.369475 0.110659
vt 0.492822 0.105669
vt 0.489902 0.006032
vt 0.367890 0.016011
vt 0.245655 0.038289
vt 0.246397 0.121798
vt 0.616755 0.103478
vt 0.619174 0.205307
vt 0.611917 0.001649
vt 0.616755 0.307135
vt 0.611917 0.408964
vt 0.123273 0.268175
vt 0.122972 0.331043
vt 0.123423 0.205306
vt 0.000156 0.205306
vt 0.000125 0.242784
vt 0.000064 0.280261
vt 0.123273 0.142438
vt 0.122972 0.079570
vt 0.000064 0.130352
vt 0.000125 0.167829
vt 0.122972 0.331043
vt 0.030806 0.283587
vt 0.245655 0.372324
vt 0.030806 0.283587
vt 0.000125 0.167829
vt 0.030806 0.127026
vt 0.000156 0.205306
vt 0.030806 0.127026
vt 0.805028 0.030806
vt 0.873826 0.071832
vt 0.721203 0.008146
vt 0.873826 0.071832
vt 0.938030 0.277186
vt 0.873826 0.338781
vt 0.968983 0.205307
vt 0.873826 0.338781
vt 0.805028 0.379807
vt 0.721203 0.402467
vt 0.000125 0.242784
vt 0.122972 0.079570
vt 0.245655 0.038289
vt 0.938030 0.133427
vt 0.611917 0.001649
vt 0.489902 0.006032
vt 0.611917 0.408964
vt 0.489902 0.404581
vt 0.367890 0.394602
vt 0.367890 0.016011
f 1/1/1 2/2/2 3/3/3
f 1/1/1 3/3/3 4/4/4
f 1/1/1 4/4/4 5/5/5
f 1/1/1 5/5/5 6/6/6
f 1/1/1 6/6/6 7/7/7
f 1/1/1 7/7/7 8/8/8
f 1/1/1 8/8/8 9/9/9
f 1/1/1 9/9/9 2/2/2
f 10/10/10 11/11/11 12/12/12
f 10/10/10 12/12/12 13/13/13
f 10/10/10 13/13/13 3/3/3
f 10/10/10 3/3/3 2/2/2
f 10/10/10 2/2/2 9/9/9
f 10/10/10 9/9/9 14/14/14
f 10/10/10 14/14/14 15/15/15
f 10/10/10 15/15/15 11/11/11
f 16/16/16 17/17/17 18/18/18
f 16/16/16 18/18/18 19/19/19
f 16/16/16 19/19/19 20/20/20
f 16/16/16 20/20/20 21/21/21
f 16/16/16 21/21/21 22/22/22
f 16/16/16 22/22/22 23/23/23
f 16/16/16 23/23/23 24/24/24
f 16/16/16 24/24/24 17/17/17
f 25/25/25 21/21/21 20/20/20
f 25/25/25 20/20/20 26/26/26
f 25/25/25 26/26/26 27/27/27
f 25/25/25 27/27/27 28/28/28
f 25/25/25 28/28/28 29/29/29
f 25/25/25 29/29/29 30/30/30
f 25/25/25 30/30/30 22/22/22
f 25/25/25 22/22/22 21/21/21
f 31/31/31 32/32/32 22/22/22
f 31/31/31 22/22/22 30/30/30
f 31/31/31 30/30/30 29/29/29
f 31/31/31 29/29/29 33/33/33
f 31/31/31 33/33/33 5/5/5
f 31/31/31 5/5/5 4/4/4
f 31/31/31 4/4/4 3/3/3
f 31/31/31 3/3/3 32/32/32
f 34/34/34 35/35/35 24/24/24
f 34/34/34 24/24/24 23/23/23
f 34/34/34 23/23/23 22/22/22
f 34/34/34 22/22/22 32/32/32
f 34/34/34 32/32/32 3/3/3
f 34/34/34 3/3/3 13/13/13
f 34/34/34 13/13/13 12/12/12
f 34/34/34 12/12/12 35/35/35
f 36/36/36 37/37/37 38/38/38
f 36/36/36 38/38/38 39/39/39
f 36/36/36 39/39/39 40/40/40
f 36/36/36 40/40/40 41/41/41
f 36/36/36 41/41/41 20/20/20
f 36/36/36 20/20/20 19/19/19
f 36/36/36 19/19/19 18/18/18
f 36/36/36 18/18/18 37/37/37
f 42/42/42 41/41/41 40/40/40
f 42/42/42 40/40/40 43/43/43
f 42/42/42 43/43/43 44/44/44
f 42/42/42 44/44/44 45/45/45
f 42/42/42 45/45/45 27/27/27
f 42/42/42 27/27/27 26/26/26
f 42/42/42 26/26/26 20/20/20
f 42/42/42 20/20/20 41/41/41
f 46/46/46 47/47/47 48/48/48
f 46/46/46 48/48/48 49/49/49
f 46/46/46 49/49/49 50/50/50
f 46/46/46 50/50/50 51/51/51
f 46/46/46 51/51/51 52/52/52
f 46/46/46 52/52/52 53/53/53
f 46/46/46 53/53/53 54/54/54
f 46/46/46 54/54/54 47/47/47
f 55/55/55 56/56/56 57/57/57
f 55/55/55 57/57/57 58/58/58
f 55/55/55 58/58/58 48/48/48
f 55/55/55 48/48/48 47/47/47
f 55/55/55 47/47/47 54/54/54
f 55/55/55 54/54/54 59/59/59
f 55/55/55 59/59/59 60/60/60
f 55/55/55 60/60/60 56/56/56
f 61/61/61 62/62/62 63/63/63
f 61/61/61 63/63/63 64/64/64
f 61/61/61 64/64/64 65/65/65
f 61/61/61 65/65/65 66/66/66
f 61/61/61 66/66/66 67/67/67
f 61/61/61 67/67/67 68/68/68
f 61/61/61 68/68/68 69/69/69
f 61/61/61 69/69/69 62/62/62
f 70/70/70 66/66/66 65/65/65
f 70/70/70 65/65/65 71/71/71
f 70/70/70 71/71/71 72/72/72
f 70/70/70 72/72/72 73/73/73
f 70/70/70 73/73/73 74/74/74
f 70/70/70 74/74/74 75/75/75
f 70/70/70 75/75/75 67/67/67
f 70/70/70 67/67/67 66/66/66
f 76/76/76 77/77/77 54/54/54
f 76/76/76 54/54/54 53/53/53
f 76/76/76 53/53/53 52/52/52
f 76/76/76 52/52/52 78/78/78
f 76/76/76 78/78/78 72/72/72
f 76/76/76 72/72/72 71/71/71
f 76/76/76 71/71/71 65/65/65
f 76/76/76 65/65/65 77/77/77
f 79/79/79 80/80/80 60/60/60
f 79/79/79 60/60/60 59/59/59
f 79/79/79 59/59/59 54/54/54
f 79/79/79 54/54/54 77/77/77
f 79/79/79 77/77/77 65/65/65
f 79/79/79 65/65/65 64/64/64
f 79/79/79 64/64/64 63/63/63
f 79/79/79 63/63/63 80/80/80
f 81/81/81 82/82/82 69/69/69
f 81/81/81 69/69/69 68/68/68
f 81/81/81 68/68/68 67/67/67
f 81/81/81 67/67/67 83/83/83
f 81/81/81 83/83/83 84/84/84
f 81/81/81 84/84/84 85/85/85
f 81/81/81 85/85/85 86/86/86
f 81/81/81 86/86/86 82/82/82
f 87/87/87 83/83/83 67/67/67
f 87/87/87 67/67/67 75/75/75
f 87/87/87 75/75/75 74/74/74
f 87/87/87 74/74/74 88/88/88
f 87/87/87 88/88/88 89/89/89
f 87/87/87 89/89/89 90/90/90
f 87/87/87 90/90/90 84/84/84
f 87/87/87 84/84/84 83/83/83
f 91/91/91 92/92/92 38/38/38
f 91/91/91 38/38/38 37/37/37
f 91/91/91 37/37/37 18/18/18
f 91/91/91 18/18/18 93/93/93
f 91/91/91 93/93/93 69/69/69
f 91/91/91 69/69/69 82/82/82
f 91/91/91 82/82/82 94/94/94
f 91/91/91 94/94/94 92/92/92
f 95/95/95 96/96/96 44/44/44
f 95/95/95 44/44/44 43/43/43
f 95/95/95 43/43/43 40/40/40
f 95/95/95 40/40/40 97/97/97
f 95/95/95 97/97/97 84/84/84
f 95/95/95 84/84/84 90/90/90
f 95/95/95 90/90/90 98/98/98
f 95/95/95 98/98/98 96/96/96
f 99/99/99 100/100/100 7/7/7
f 99/99/99 7/7/7 6/6/6
f 99/99/99 6/6/6 5/5/5
f 99/99/99 5/5/5 101/101/101
f 99/99/99 101/101/101 52/52/52
f 99/99/99 52/52/52 51/51/51
f 99/99/99 51/51/51 102/102/102
f 99/99/99 102/102/102 100/100/100
f 103/103/103 104/104/104 15/15/15
f 103/103/103 15/15/15 14/14/14
f 103/103/103 14/14/14 9/9/9
f 103/103/103 9/9/9 105/105/105
f 103/103/103 105/105/105 48/48/48
f 103/103/103 48/48/48 58/58/58
f 103/103/103 58/58/58 106/106/106
f 103/103/103 106/106/106 104/104/104
f 107/107/107 108/108/108 12/12/12
f 107/107/107 12/12/12 11/11/11
f 107/107/107 11/11/11 15/15/15
f 107/107/107 15/15/15 104/104/104
f 107/107/107 104/104/104 106/106/106
f 107/107/107 106/106/106 56/56/56
f 107/107/107 56/56/56 60/60/60
f 107/107/107 60/60/60 108/108/108
f 109/109/109 97/97/97 40/40/40
f 109/109/109 40/40/40 39/39/39
f 109/109/109 39/39/39 38/38/38
f 109/109/109 38/38/38 92/92/92
f 109/109/109 92/92/92 94/94/94
f 109/109/109 94/94/94 85/85/85
f 109/109/109 85/85/85 84/84/84
f 109/109/109 84/84/84 97/97/97
f 110/110/110 111/111/111 27/27/27
f 110/110/110 27/27/27 45/45/45
f 110/110/110 45/45/45 44/44/44
f 110/110/110 44/44/44 96/96/96
f 110/110/110 96/96/96 98/98/98
f 110/110/110 98/98/98 88/88/88
f 110/110/110 88/88/88 74/74/74
f 110/110/110 74/74/74 111/111/111
f 112/112/112 105/105/105 9/9/9
f 112/112/112 9/9/9 8/8/8
f 112/112/112 8/8/8 7/7/7
f 112/112/112 7/7/7 100/100/100
f 112/112/112 100/100/100 102/102/102
f 112/112/112 102/102/102 49/49/49
f 112/112/112 49/49/49 48/48/48
f 112/112/112 48/48/48 105/105/105
f 113/113/113 101/101/101 5/5/5
f 113/113/113 5/5/5 33/33/33
f 113/113/113 33/33/33 29/29/29
f 113/113/113 29/29/29 114/114/114
f 113/113/113 114/114/114 72/72/72
f 113/113/113 72/72/72 78/78/78
f 113/113/113 78/78/78 52/52/52
f 113/113/113 52/52/52 101/101/101
f 115/115/115 116/116/116 24/24/24
f 115/115/115 24/24/24 35/35/35
f 115/115/115 35/35/35 12/12/12
f 115/115/115 12/12/12 108/108/108
f 115/115/115 108/108/108 60/60/60
f 115/115/115 60/60/60 80/80/80
f 115/115/115 80/80/80 63/63/63
f 115/115/115 63/63/63 116/116/116
f 117/117/117 93/93/93 18/18/18
f 117/117/117 18/18/18 17/17/17
f 117/117/117 17/17/17 24/24/24
f 117/117/117 24/24/24 116/116/116
f 117/117/117 116/116/116 63/63/63
f 117/117/117 63/63/63 62/62/62
f 117/117/117 62/62/62 69/69/69
f 117/117/117 69/69/69 93/93/93
f 118/118/118 114/114/114 29/29/29
f 118/118/118 29/29/29 28/28/28
f 118/118/118 28/28/28 27/27/27
f 118/118/118 27/27/27 111/111/111
f 118/118/118 111/111/111 74/74/74
f 118/118/118 74/74/74 73/73/73
f 118/118/118 73/73/73 72/72/72
f 118/118/118 72/72/72 114/114/114
