v -2.400616 0.679912 -1.097339
v -2.402777 0.680476 -1.097962
v -2.403240 0.677867 -1.096378
v -2.400737 0.677481 -1.095900
v -2.398863 0.677182 -1.095277
v -2.399029 0.679309 -1.096488
v -2.399554 0.680576 -1.097474
v -2.400621 0.681583 -1.098466
v -2.402443 0.682332 -1.099214
v -2.405045 0.680602 -1.097497
v -2.406795 0.680521 -1.096765
v -2.407685 0.678558 -1.095591
v -2.405770 0.678266 -1.096080
v -2.404454 0.682181 -1.098603
v -2.405843 0.681557 -1.097698
v -2.407230 0.669351 -1.092648
v -2.409087 0.669685 -1.092468
v -2.409107 0.666426 -1.091793
v -2.407464 0.666130 -1.091967
v -2.405282 0.665759 -1.092064
v -2.404763 0.668931 -1.092744
v -2.404248 0.672035 -1.093642
v -2.406827 0.672482 -1.093521
v -2.408769 0.672842 -1.093298
v -2.402299 0.668582 -1.092472
v -2.403103 0.665450 -1.091812
v -2.401465 0.665234 -1.091521
v -2.400446 0.668337 -1.092160
v -2.399730 0.671432 -1.092976
v -2.401669 0.671678 -1.093337
v -2.401118 0.674690 -1.094523
v -2.403735 0.675034 -1.094896
v -2.399149 0.674469 -1.094060
v -2.406352 0.675507 -1.094709
v -2.408322 0.675899 -1.094387
v -2.407433 0.662837 -1.091352
v -2.408661 0.663066 -1.091168
v -2.408103 0.661127 -1.090918
v -2.407312 0.660333 -1.090945
v -2.406196 0.660129 -1.091076
v -2.405804 0.662553 -1.091465
v -2.404178 0.662329 -1.091236
v -2.405082 0.659985 -1.090865
v -2.404091 0.660501 -1.090775
v -2.402954 0.662176 -1.090965
v -2.400594 0.679791 -1.097548
v -2.402788 0.680359 -1.098175
v -2.402452 0.682241 -1.099372
v -2.400603 0.681490 -1.098621
v -2.399533 0.680507 -1.097588
v -2.398995 0.679218 -1.096643
v -2.398832 0.677098 -1.095436
v -2.400716 0.677370 -1.096115
v -2.403250 0.677759 -1.096595
v -2.405088 0.680492 -1.097708
v -2.406844 0.680442 -1.096923
v -2.405875 0.681496 -1.097814
v -2.404489 0.682096 -1.098760
v -2.405808 0.678164 -1.096296
v -2.407728 0.678485 -1.095753
v -2.407254 0.669289 -1.092883
v -2.409115 0.669640 -1.092643
v -2.408800 0.672788 -1.093470
v -2.406854 0.672407 -1.093750
v -2.404252 0.671956 -1.093872
v -2.404765 0.668866 -1.092978
v -2.405283 0.665702 -1.092301
v -2.407486 0.666077 -1.092204
v -2.409134 0.666388 -1.091970
v -2.402280 0.668513 -1.092705
v -2.401650 0.671595 -1.093565
v -2.399705 0.671370 -1.093146
v -2.400421 0.668284 -1.092333
v -2.401438 0.665188 -1.091696
v -2.403082 0.665390 -1.092047
v -2.401099 0.674593 -1.094744
v -2.403742 0.674939 -1.095119
v -2.399122 0.674394 -1.094225
v -2.406384 0.675417 -1.094933
v -2.408359 0.675835 -1.094554
v -2.407455 0.662787 -1.091590
v -2.408689 0.663031 -1.091346
v -2.405804 0.662500 -1.091703
v -2.406195 0.660090 -1.091254
v -2.407330 0.660297 -1.091123
v -2.408122 0.661101 -1.091050
v -2.404155 0.662273 -1.091472
v -2.402925 0.662132 -1.091140
v -2.404072 0.660469 -1.090905
v -2.405064 0.659943 -1.091042
v -2.409086 0.663128 -1.091186
v -2.408209 0.660498 -1.090809
v -2.409669 0.666508 -1.091814
v -2.408122 0.661101 -1.091050
v -2.405375 0.659185 -1.090820
v -2.404189 0.659871 -1.090665
v -2.406326 0.659304 -1.091025
v -2.404072 0.660469 -1.090905
v -2.398481 0.679068 -1.096273
v -2.399274 0.680672 -1.097493
v -2.398221 0.677045 -1.095139
v -2.399533 0.680507 -1.097588
v -2.404273 0.682669 -1.099041
v -2.406078 0.681733 -1.097735
v -2.402335 0.682910 -1.099701
v -2.405875 0.681496 -1.097814
v -2.407404 0.680459 -1.096591
v -2.408346 0.678624 -1.095500
v -2.407280 0.659482 -1.090888
v -2.402531 0.662105 -1.090952
v -2.400904 0.665141 -1.091501
v -2.400614 0.682098 -1.098910
v -2.398478 0.674362 -1.093979
v -2.399070 0.671323 -1.092931
v -2.408998 0.676002 -1.094354
v -2.409432 0.672939 -1.093300
v -2.409720 0.669776 -1.092486
v -2.399815 0.668232 -1.092133
vn -0.166100 0.530600 0.831100
vn 0.052000 0.527300 0.848000
vn 0.043000 0.476400 0.878200
vn -0.152300 0.477800 0.865100
vn -0.146900 0.455000 0.878300
vn -0.158300 0.529800 0.833200
vn -0.164800 0.580600 0.797300
vn -0.112800 0.605000 0.788200
vn 0.065700 0.603100 0.794900
vn 0.261400 0.463900 0.846400
vn 0.253700 0.465600 0.847800
vn 0.216800 0.398300 0.891200
vn 0.229900 0.418200 0.878800
vn 0.236400 0.550300 0.800700
vn 0.277800 0.511400 0.813200
vn 0.110700 0.225400 0.967900
vn 0.072800 0.223800 0.971900
vn 0.064800 0.193200 0.979000
vn 0.113300 0.192000 0.974800
vn -0.003400 0.201700 0.979400
vn 0.003200 0.242700 0.970100
vn 0.016800 0.323800 0.946000
vn 0.135800 0.295200 0.945700
vn 0.106400 0.283900 0.952900
vn -0.103900 0.258900 0.960300
vn -0.117000 0.227900 0.966600
vn -0.070900 0.214300 0.974200
vn -0.068800 0.245900 0.966800
vn -0.080900 0.313200 0.946200
vn -0.105000 0.332700 0.937100
vn -0.123100 0.414900 0.901500
vn 0.031500 0.410400 0.911300
vn -0.110700 0.389200 0.914500
vn 0.180500 0.367600 0.912300
vn 0.159900 0.346900 0.924100
vn 0.136300 0.173600 0.975300
vn 0.083800 0.170800 0.981700
vn 0.112500 0.148700 0.982400
vn 0.148600 0.114400 0.982200
vn -0.015500 0.127000 0.991800
vn -0.006600 0.182200 0.983200
vn -0.144400 0.217400 0.965300
vn -0.174800 0.164900 0.970700
vn -0.130200 0.186600 0.973800
vn -0.096200 0.198800 0.975300
vn 0.196900 -0.511400 -0.836500
vn -0.049500 -0.513500 -0.856700
vn -0.039900 -0.458700 -0.887700
vn 0.287800 -0.452900 -0.843800
vn 0.401700 -0.422800 -0.812300
vn 0.377800 -0.433400 -0.818200
vn 0.312100 -0.435100 -0.844500
vn 0.167500 -0.477200 -0.862600
vn -0.043000 -0.476500 -0.878100
vn -0.284400 -0.436400 -0.853600
vn -0.433800 -0.306900 -0.847100
vn -0.453700 -0.289500 -0.842800
vn -0.352500 -0.353000 -0.866700
vn -0.244300 -0.413000 -0.877300
vn -0.370100 -0.328800 -0.868800
vn -0.126800 -0.223700 -0.966400
vn -0.237700 -0.211000 -0.948100
vn -0.257100 -0.258900 -0.931000
vn -0.150600 -0.292600 -0.944300
vn -0.016700 -0.323600 -0.946000
vn -0.003200 -0.242600 -0.970100
vn 0.003400 -0.201500 -0.979500
vn -0.132300 -0.192000 -0.972400
vn -0.261200 -0.203700 -0.943500
vn 0.119700 -0.262100 -0.957600
vn 0.119700 -0.334800 -0.934600
vn 0.230300 -0.335000 -0.913600
vn 0.227600 -0.283600 -0.931500
vn 0.251800 -0.283700 -0.925300
vn 0.134900 -0.233600 -0.962900
vn 0.137500 -0.416000 -0.898900
vn -0.031500 -0.410400 -0.911300
vn 0.259600 -0.397200 -0.880200
vn -0.194600 -0.364200 -0.910700
vn -0.306300 -0.309000 -0.900400
vn -0.164400 -0.188200 -0.968300
vn -0.318400 -0.225400 -0.920700
vn 0.004700 -0.194100 -0.981000
vn -0.003600 -0.245600 -0.969300
vn -0.246100 -0.242100 -0.938500
vn -0.352600 -0.243600 -0.903500
vn 0.166300 -0.239800 -0.956500
vn 0.298000 -0.321400 -0.898800
vn 0.323700 -0.349000 -0.879400
vn 0.225500 -0.315700 -0.921600
vn -0.954300 -0.177000 0.240600
vn -0.773700 -0.534300 0.340600
vn -0.984100 -0.039400 0.173300
vn -0.352600 -0.243600 -0.903500
vn 0.079600 -0.968900 0.234200
vn 0.548300 -0.740800 0.387900
vn -0.155900 -0.984900 0.074900
vn 0.323700 -0.349000 -0.879400
vn 0.942100 0.295400 0.158700
vn 0.837400 0.546300 -0.016500
vn 0.969300 0.097200 0.225700
vn 0.401700 -0.422800 -0.812300
vn -0.351800 0.845200 -0.402300
vn -0.628400 0.774900 -0.068600
vn 0.145600 0.797100 -0.586000
vn -0.453700 -0.289500 -0.842800
vn -0.816200 0.569700 0.095900
vn -0.907100 0.389800 0.158800
vn -0.386500 -0.896200 0.217600
vn 0.836100 -0.456200 0.304500
vn 0.910900 -0.334800 0.240900
vn 0.619500 0.693500 -0.367700
vn 0.969500 -0.050100 0.240000
vn 0.963300 -0.136500 0.231100
vn -0.953000 0.249700 0.171600
vn -0.972800 0.165500 0.162100
vn -0.985200 0.081000 0.151000
vn 0.950200 -0.220600 0.220000
vt 0.839504 0.118056
vt 0.856743 0.205307
vt 0.741230 0.205307
vt 0.734555 0.106726
vt 0.724541 0.032791
vt 0.813647 0.052618
vt 0.868992 0.081539
vt 0.913398 0.129584
vt 0.940923 0.205307
vt 0.839504 0.292557
vt 0.813647 0.357995
vt 0.724541 0.377822
vt 0.734555 0.303887
vt 0.913398 0.281029
vt 0.868992 0.329074
vt 0.369475 0.299954
vt 0.368286 0.370940
vt 0.245840 0.351447
vt 0.246397 0.288815
vt 0.246768 0.205307
vt 0.370268 0.205307
vt 0.494283 0.205307
vt 0.492822 0.304944
vt 0.490632 0.379672
vt 0.369475 0.110659
vt 0.246397 0.121798
vt 0.245841 0.059166
vt 0.368286 0.039673
vt 0.490632 0.030941
vt 0.492822 0.105669
vt 0.616755 0.103478
vt 0.619174 0.205307
vt 0.613127 0.027106
vt 0.616755 0.307135
vt 0.613126 0.383507
vt 0.123273 0.268175
vt 0.123047 0.315326
vt 0.054743 0.283353
vt 0.030912 0.249131
vt 0.030973 0.205306
vt 0.123423 0.205306
vt 0.123273 0.142438
vt 0.030912 0.161481
vt 0.054744 0.127260
vt 0.123047 0.095287
vt 0.839504 0.118056
vt 0.856743 0.205307
vt 0.968983 0.205307
vt 0.938030 0.133427
vt 0.876123 0.061548
vt 0.805028 0.030806
vt 0.721203 0.008146
vt 0.734555 0.106726
vt 0.741230 0.205307
vt 0.839504 0.292557
vt 0.805028 0.379807
vt 0.876123 0.349065
vt 0.938030 0.277186
vt 0.734555 0.303887
vt 0.721203 0.402467
vt 0.369475 0.299954
vt 0.367890 0.394602
vt 0.489902 0.404581
vt 0.492822 0.304944
vt 0.494283 0.205307
vt 0.370268 0.205307
vt 0.246768 0.205307
vt 0.246397 0.288815
vt 0.245655 0.372324
vt 0.369475 0.110659
vt 0.492822 0.105669
vt 0.489902 0.006032
vt 0.367890 0.016011
vt 0.245655 0.038289
vt 0.246397 0.121798
vt 0.616755 0.103478
vt 0.619174 0.205307
vt 0.611917 0.001649
vt 0.616755 0.307135
vt 0.611917 0.408964
vt 0.123273 0.268175
vt 0.122972 0.331043
vt 0.123423 0.205306
vt 0.000156 0.205306
vt 0.000125 0.242784
vt 0.000064 0.280261
vt 0.123273 0.142438
vt 0.122972 0.079570
vt 0.000064 0.130352
vt 0.000125 0.167829
vt 0.122972 0.331043
vt 0.030806 0.283587
vt 0.245655 0.372324
vt 0.030806 0.283587
vt 0.000125 0.167829
vt 0.030806 0.127026
vt 0.000156 0.205306
vt 0.030806 0.127026
vt 0.805028 0.030806
vt 0.873826 0.071832
vt 0.721203 0.008146
vt 0.873826 0.071832
vt 0.938030 0.277186
vt 0.873826 0.338781
vt 0.968983 0.205307
vt 0.873826 0.338781
vt 0.805028 0.379807
vt 0.721203 0.402467
vt 0.000125 0.242784
vt 0.122972 0.079570
vt 0.245655 0.038289
vt 0.938030 0.133427
vt 0.611917 0.001649
vt 0.489902 0.006032
vt 0.611917 0.408964
vt 0.489902 0.404581
vt 0.367890 0.394602
vt 0.367890 0.016011
f 1/1/1 2/2/2 3/3/3
f 1/1/1 3/3/3 4/4/4
f 1/1/1 4/4/4 5/5/5
f 1/1/1 5/5/5 6/6/6
f 1/1/1 6/6/6 7/7/7
f 1/1/1 7/7/7 8/8/8
f 1/1/1 8/8/8 9/9/9
f 1/1/1 9/9/9 2/2/2
f 10/10/10 11/11/11 12/12/12
f 10/10/10 12/12/12 13/13/13
f 10/10/10 13/13/13 3/3/3
f 10/10/10 3/3/3 2/2/2
f 10/10/10 2/2/2 9/9/9
f 10/10/10 9/9/9 14/14/14
f 10/10/10 14/14/14 15/15/15
f 10/10/10 15/15/15 11/11/11
f 16/16/16 17/17/17 18/18/18
f 16/16/16 18/18/18 19/19/19
f 16/16/16 19/19/19 20/20/20
f 16/16/16 20/20/20 21/21/21
f 16/16/16 21/21/21 22/22/22
f 16/16/16 22/22/22 23/23/23
f 16/16/16 23/23/23 24/24/24
f 16/16/16 24/24/24 17/17/17
f 25/25/25 21/21/21 20/20/20
f 25/25/25 20/20/20 26/26/26
f 25/25/25 26/26/26 27/27/27
f 25/25/25 27/27/27 28/28/28
f 25/25/25 28/28/28 29/29/29
f 25/25/25 29/29/29 30/30/30
f 25/25/25 30/30/30 22/22/22
f 25/25/25 22/22/22 21/21/21
f 31/31/31 32/32/32 22/22/22
f 31/31/31 22/22/22 30/30/30
f 31/31/31 30/30/30 29/29/29
f 31/31/31 29/29/29 33/33/33
f 31/31/31 33/33/33 5/5/5
f 31/31/31 5/5/5 4/4/4
f 31/31/31 4/4/4 3/3/3
f 31/31/31 3/3/3 32/32/32
f 34/34/34 35/35/35 24/24/24
f 34/34/34 24/24/24 23/23/23
f 34/34/34 23/23/23 22/22/22
f 34/34/34 22/22/22 32/32/32
f 34/34/34 32/32/32 3/3/3
f 34/34/34 3/3/3 13/13/13
f 34/34/34 13/13/13 12/12/12
f 34/34/34 12/12/12 35/35/35
f 36/36/36 37/37/37 38/38/38
f 36/36/36 38/38/38 39/39/39
f 36/36/36 39/39/39 40/40/40
f 36/36/36 40/40/40 41/41/41
f 36/36/36 41/41/41 20/20/20
f 36/36/36 20/20/20 19/19/19
f 36/36/36 19/19/19 18/18/18
f 36/36/36 18/18/18 37/37/37
f 42/42/42 41/41/41 40/40/40
f 42/42/42 40/40/40 43/43/43
f 42/42/42 43/43/43 44/44/44
f 42/42/42 44/44/44 45/45/45
f 42/42/42 45/45/45 27/27/27
f 42/42/42 27/27/27 26/26/26
f 42/42/42 26/26/26 20/20/20
f 42/42/42 20/20/20 41/41/41
f 46/46/46 47/47/47 48/48/48
f 46/46/46 48/48/48 49/49/49
f 46/46/46 49/49/49 50/50/50
f 46/46/46 50/50/50 51/51/51
f 46/46/46 51/51/51 52/52/52
f 46/46/46 52/52/52 53/53/53
f 46/46/46 53/53/53 54/54/54
f 46/46/46 54/54/54 47/47/47
f 55/55/55 56/56/56 57/57/57
f 55/55/55 57/57/57 58/58/58
f 55/55/55 58/58/58 48/48/48
f 55/55/55 48/48/48 47/47/47
f 55/55/55 47/47/47 54/54/54
f 55/55/55 54/54/54 59/59/59
f 55/55/55 59/59/59 60/60/60
f 55/55/55 60/60/60 56/56/56
f 61/61/61 62/62/62 63/63/63
f 61/61/61 63/63/63 64/64/64
f 61/61/61 64/64/64 65/65/65
f 61/61/61 65/65/65 66/66/66
f 61/61/61 66/66/66 67/67/67
f 61/61/61 67/67/67 68/68/68
f 61/61/61 68/68/68 69/69/69
f 61/61/61 69/69/69 62/62/62
f 70/70/70 66/66/66 65/65/65
f 70/70/70 65/65/65 71/71/71
f 70/70/70 71/71/71 72/72/72
f 70/70/70 72/72/72 73/73/73
f 70/70/70 73/73/73 74/74/74
f 70/70/70 74/74/74 75/75/75
f 70/70/70 75/75/75 67/67/67
f 70/70/70 67/67/67 66/66/66
f 76/76/76 77/77/77 54/54/54
f 76/76/76 54/54/54 53/53/53
f 76/76/76 53/53/53 52/52/52
f 76/76/76 52/52/52 78/78/78
f 76/76/76 78/78/78 72/72/72
f 76/76/76 72/72/72 71/71/71
f 76/76/76 71/71/71 65/65/65
f 76/76/76 65/65/65 77/77/77
f 79/79/79 80/80/80 60/60/60
f 79/79/79 60/60/60 59/59/59
f 79/79/79 59/59/59 54/54/54
f 79/79/79 54/54/54 77/77/77
f 79/79/79 77/77/77 65/65/65
f 79/79/79 65/65/65 64/64/64
f 79/79/79 64/64/64 63/63/63
f 79/79/79 63/63/63 80/80/80
f 81/81/81 82/82/82 69/69/69
f 81/81/81 69/69/69 68/68/68
f 81/81/81 68/68/68 67/67/67
f 81/81/81 67/67/67 83/83/83
f 81/81/81 83/83/83 84/84/84
f 81/81/81 84/84/84 85/85/85
f 81/81/81 85/85/85 86/86/86
f 81/81/81 86/86/86 82/82/82
f 87/87/87 83/83/83 67/67/67
f 87/87/87 67/67/67 75/75/75
f 87/87/87 75/75/75 74/74/74
f 87/87/87 74/74/74 88/88/88
f 87/87/87 88/88/88 89/89/89
f 87/87/87 89/89/89 90/90/90
f 87/87/87 90/90/90 84/84/84
f 87/87/87 84/84/84 83/83/83
f 91/91/91 92/92/92 38/38/38
f 91/91/91 38/38/38 37/37/37
f 91/91/91 37/37/37 18/18/18
f 91/91/91 18/18/18 93/93/93
f 91/91/91 93/93/93 69/69/69
f 91/91/91 69/69/69 82/82/82
f 91/91/91 82/82/82 94/94/94
f 91/91/91 94/94/94 92/92/92
f 95/95/95 96/96/96 44/44/44
f 95/95/95 44/44/44 43/43/43
f 95/95/95 43/43/43 40/40/40
f 95/95/95 40/40/40 97/97/97
f 95/95/95 97/97/97 84/84/84
f 95/95/95 84/84/84 90/90/90
f 95/95/95 90/90/90 98/98/98
f 95/95/95 98/98/98 96/96/96
f 99/99/99 100/100/100 7/7/7
f 99/99/99 7/7/7 6/6/6
f 99/99/99 6/6/6 5/5/5
f 99/99/99 5/5/5 101/101/101
f 99/99/99 101/101/101 52/52/52
f 99/99/99 52/52/52 51/51/51
f 99/99/99 51/51/51 102/102/102
f 99/99/99 102/102/102 100/100/100
f 103/103/103 104/104/104 15/15/15
f 103/103/103 15/15/15 14/14/14
f 103/103/103 14/14/14 9/9/9
f 103/103/103 9/9/9 105/105/105
f 103/103/103 105/105/105 48/48/48
f 103/103/103 48/48/48 58/58/58
f 103/103/103 58/58/58 106/106/106
f 103/103/103 106/106/106 104/104/104
f 107/107/107 108/108/108 12/12/12
f 107/107/107 12/12/12 11/11/11
f 107/107/107 11/11/11 15/15/15
f 107/107/107 15/15/15 104/104/104
f 107/107/107 104/104/104 106/106/106
f 107/107/107 106/106/106 56/56/56
f 107/107/107 56/56/56 60/60/60
f 107/107/107 60/60/60 108/108/108
f 109/109/109 97/97/97 40/40/40
f 109/109/109 40/40/40 39/39/39
f 109/109/109 39/39/39 38/38/38
f 109/109/109 38/38/38 92/92/92
f 109/109/109 92/92/92 94/94/94
f 109/109/109 94/94/94 85/85/85
f 109/109/109 85/85/85 84/84/84
f 109/109/109 84/84/84 97/97/97
f 110/110/110 111/111/111 27/27/27
f 110/110/110 27/27/27 45/45/45
f 110/110/110 45/45/45 44/44/44
f 110/110/110 44/44/44 96/96/96
f 110/110/110 96/96/96 98/98/98
f 110/110/110 98/98/98 88/88/88
f 110/110/110 88/88/88 74/74/74
f 110/110/110 74/74/74 111/111/111
f 112/112/112 105/105/105 9/9/9
f 112/112/112 9/9/9 8/8/8
f 112/112/112 8/8/8 7/7/7
f 112/112/112 7/7/7 100/100/100
f 112/112/112 100/100/100 102/102/102
f 112/112/112 102/102/102 49/49/49
f 112/112/112 49/49/49 48/48/48
f 112/112/112 48/48/48 105/105/105
f 113/113/113 101/101/101 5/5/5
f 113/113/113 5/5/5 33/33/33
f 113/113/113 33/33/33 29/29/29
f 113/113/113 29/29/29 114/114/114
f 113/113/113 114/114/114 72/72/72
f 113/113/113 72/72/72 78/78/78
f 113/113/113 78/78/78 52/52/52
f 113/113/113 52/52/52 101/101/101
f 115/115/115 116/116/116 24/24/24
f 115/115/115 24/24/24 35/35/35
f 115/115/115 35/35/35 12/12/12
f 115/115/115 12/12/12 108/108/108
f 115/115/115 108/108/108 60/60/60
f 115/115/115 60/60/60 80/80/80
f 115/115/115 80/80/80 63/63/63
f 115/115/115 63/63/63 116/116/116
f 117/117/117 93/93/93 18/18/18
f 117/117/117 18/18/18 17/17/17
f 117/117/117 17/17/17 24/24/24
f 117/117/117 24/24/24 116/116/116
f 117/117/117 116/116/116 63/63/63
f 117/117/117 63/63/63 62/62/62
f 117/117/117 62/62/62 69/69/69
f 117/117/117 69/69/69 93/93/93
f 118/118/118 114/114/114 29/29/29
f 118/118/118 29/29/29 28/28/28
f 118/118/118 28/28/28 27/27/27
f 118/118/118 27/27/27 111/111/111
f 118/118/118 111/111/111 74/74/74
f 118/118/118 74/74/74 73/73/73
f 118/118/118 73/73/73 72/72/72
f 118/118/118 72/72/72 114/114/114
