v -2.367297 0.719281 -1.087811
v -2.365367 0.719355 -1.087367
v -2.365334 0.718127 -1.089702
v -2.367527 0.718130 -1.089923
v -2.369191 0.718242 -1.090286
v -2.368764 0.719262 -1.088504
v -2.368127 0.719740 -1.087301
v -2.367053 0.720009 -1.086268
v -2.365383 0.720173 -1.085613
v -2.363477 0.719584 -1.087917
v -2.362065 0.719793 -1.088690
v -2.361582 0.718846 -1.090497
v -2.363185 0.718475 -1.090043
v -2.363747 0.720271 -1.086360
v -2.362702 0.720170 -1.087451
v -2.363008 0.713412 -1.096568
v -2.361424 0.713679 -1.096772
v -2.361745 0.711589 -1.098675
v -2.363146 0.711346 -1.098483
v -2.365016 0.711097 -1.098318
v -2.365124 0.713137 -1.096390
v -2.365217 0.715030 -1.094334
v -2.363006 0.715333 -1.094532
v -2.361351 0.715636 -1.094766
v -2.367262 0.713074 -1.096450
v -2.366907 0.711047 -1.098379
v -2.368337 0.711066 -1.098492
v -2.368878 0.713088 -1.096565
v -2.369148 0.715017 -1.094549
v -2.367455 0.714980 -1.094408
v -2.367562 0.716681 -1.092177
v -2.365286 0.716690 -1.092064
v -2.369286 0.716781 -1.092379
v -2.363047 0.717039 -1.092303
v -2.361374 0.717409 -1.092598
v -2.363508 0.709205 -1.100352
v -2.362465 0.709417 -1.100530
v -2.363125 0.708124 -1.101486
v -2.363860 0.707555 -1.101717
v -2.364811 0.707382 -1.101578
v -2.364901 0.708997 -1.100201
v -2.366316 0.708983 -1.100274
v -2.365784 0.707402 -1.101663
v -2.366586 0.707849 -1.101390
v -2.367388 0.709027 -1.100394
v -2.367308 0.719101 -1.087708
v -2.365350 0.719175 -1.087264
v -2.365370 0.720038 -1.085539
v -2.367063 0.719873 -1.086193
v -2.368141 0.719640 -1.087245
v -2.368788 0.719128 -1.088427
v -2.369211 0.718111 -1.090204
v -2.367535 0.717955 -1.089813
v -2.365317 0.717952 -1.089592
v -2.363431 0.719409 -1.087815
v -2.362017 0.719665 -1.088615
v -2.362670 0.720074 -1.087397
v -2.363711 0.720139 -1.086286
v -2.363143 0.718303 -1.089934
v -2.361537 0.718720 -1.090417
v -2.362974 0.713262 -1.096427
v -2.361390 0.713568 -1.096667
v -2.361315 0.715520 -1.094668
v -2.362970 0.715176 -1.094400
v -2.365201 0.714871 -1.094201
v -2.365108 0.712985 -1.096248
v -2.365000 0.710951 -1.098170
v -2.363111 0.711202 -1.098336
v -2.361710 0.711483 -1.098566
v -2.367265 0.712922 -1.096308
v -2.367459 0.714820 -1.094275
v -2.369160 0.714897 -1.094450
v -2.368889 0.712973 -1.096459
v -2.368349 0.710956 -1.098381
v -2.366910 0.710901 -1.098231
v -2.367567 0.716513 -1.092056
v -2.365269 0.716522 -1.091943
v -2.369301 0.716655 -1.092288
v -2.363008 0.716874 -1.092183
v -2.361333 0.717287 -1.092509
v -2.363473 0.709064 -1.100203
v -2.362429 0.709313 -1.100420
v -2.364886 0.708853 -1.100051
v -2.364799 0.707274 -1.101466
v -2.363833 0.707449 -1.101605
v -2.363100 0.708046 -1.101403
v -2.366320 0.708838 -1.100124
v -2.367401 0.708918 -1.100282
v -2.366593 0.707769 -1.101307
v -2.365788 0.707294 -1.101551
v -2.362099 0.709442 -1.100541
v -2.363098 0.707708 -1.101850
v -2.361261 0.711624 -1.098690
v -2.363100 0.708046 -1.101403
v -2.365608 0.706827 -1.102076
v -2.366566 0.707433 -1.101754
v -2.364776 0.706796 -1.101987
v -2.366593 0.707769 -1.101307
v -2.369267 0.719196 -1.088701
v -2.368354 0.719811 -1.087213
v -2.369758 0.718221 -1.090371
v -2.368141 0.719640 -1.087245
v -2.363821 0.720441 -1.085809
v -2.362485 0.720276 -1.087375
v -2.365383 0.720385 -1.084996
v -2.362670 0.720074 -1.087397
v -2.361570 0.719807 -1.088915
v -2.361024 0.718914 -1.090613
v -2.363965 0.706958 -1.102122
v -2.367753 0.708993 -1.100384
v -2.368821 0.711024 -1.098481
v -2.366977 0.720191 -1.085721
v -2.369870 0.716759 -1.092406
v -2.369720 0.714976 -1.094552
v -2.360795 0.717479 -1.092657
v -2.360781 0.715686 -1.094800
v -2.360879 0.713719 -1.096794
v -2.369423 0.713042 -1.096557
vn 0.134900 0.876400 -0.462200
vn -0.083000 0.890000 -0.448300
vn -0.082200 0.861500 -0.501000
vn 0.112600 0.849100 -0.515900
vn 0.103500 0.836600 -0.537900
vn 0.127000 0.877100 -0.463100
vn 0.142100 0.901800 -0.408000
vn 0.093900 0.919800 -0.380800
vn -0.083700 0.928000 -0.362900
vn -0.296600 0.842200 -0.450200
vn -0.288900 0.844200 -0.451500
vn -0.263500 0.807600 -0.527600
vn -0.273200 0.818500 -0.505300
vn -0.258600 0.891800 -0.371100
vn -0.304700 0.866400 -0.395600
vn -0.183500 0.695100 -0.695100
vn -0.146600 0.694400 -0.704400
vn -0.142400 0.671700 -0.727000
vn -0.190000 0.670100 -0.717500
vn -0.074000 0.676700 -0.732500
vn -0.075600 0.707300 -0.702800
vn -0.078400 0.764800 -0.639500
vn -0.199100 0.744300 -0.637400
vn -0.171800 0.737300 -0.653300
vn 0.033100 0.712200 -0.701100
vn 0.042300 0.688500 -0.724000
vn -0.005500 0.682500 -0.730800
vn -0.003700 0.705700 -0.708500
vn 0.017200 0.752400 -0.658500
vn 0.043900 0.763600 -0.644100
vn 0.073600 0.815000 -0.574700
vn -0.080800 0.821700 -0.564100
vn 0.057500 0.800100 -0.597000
vn -0.232700 0.790700 -0.566200
vn -0.215600 0.778400 -0.589500
vn -0.214600 0.655400 -0.724100
vn -0.164000 0.654500 -0.738000
vn -0.194800 0.637000 -0.745800
vn -0.233700 0.608700 -0.758100
vn -0.070700 0.618600 -0.782500
vn -0.073200 0.661900 -0.746000
vn 0.068500 0.677900 -0.732000
vn 0.092700 0.634600 -0.767200
vn 0.050400 0.656300 -0.752800
vn 0.017700 0.668800 -0.743200
vn -0.162900 -0.861600 0.480700
vn 0.082900 -0.882500 0.463000
vn 0.082000 -0.851200 0.518400
vn -0.246300 -0.812000 0.529100
vn -0.359200 -0.766000 0.533100
vn -0.336000 -0.779000 0.529300
vn -0.268400 -0.796400 0.541900
vn -0.127800 -0.846900 0.516200
vn 0.082200 -0.861600 0.500800
vn 0.322800 -0.823100 0.467100
vn 0.483300 -0.713900 0.506700
vn 0.504300 -0.697400 0.509200
vn 0.399900 -0.760700 0.511200
vn 0.287900 -0.813900 0.504700
vn 0.420000 -0.741800 0.522800
vn 0.199400 -0.693400 0.692400
vn 0.308700 -0.677100 0.668000
vn 0.321400 -0.710000 0.626600
vn 0.213800 -0.741900 0.635500
vn 0.078400 -0.764700 0.639600
vn 0.075600 -0.707100 0.703000
vn 0.074000 -0.676600 0.732600
vn 0.208700 -0.669500 0.712900
vn 0.332200 -0.669300 0.664600
vn -0.049300 -0.713100 0.699300
vn -0.058900 -0.763600 0.643000
vn -0.170400 -0.749000 0.640300
vn -0.160800 -0.714300 0.681100
vn -0.185500 -0.710300 0.678900
vn -0.061000 -0.690900 0.720300
vn -0.088300 -0.814100 0.573900
vn 0.080800 -0.821700 0.564100
vn -0.209200 -0.784100 0.584200
vn 0.246900 -0.787500 0.564600
vn 0.362000 -0.738800 0.568400
vn 0.240500 -0.665200 0.706800
vn 0.384400 -0.678100 0.626400
vn 0.073700 -0.670900 0.737900
vn 0.075700 -0.709400 0.700700
vn 0.313100 -0.699000 0.642900
vn 0.414700 -0.686000 0.597800
vn -0.093300 -0.691800 0.716000
vn -0.237500 -0.727600 0.643600
vn -0.267700 -0.740300 0.616700
vn -0.163100 -0.736800 0.656100
vn 0.902800 -0.061400 -0.425600
vn 0.678100 -0.309500 -0.666600
vn 0.952800 0.020900 -0.302800
vn 0.414700 -0.686000 0.597800
vn -0.199600 -0.706700 -0.678700
vn -0.656500 -0.415500 -0.629600
vn 0.048400 -0.810600 -0.583500
vn -0.267700 -0.740300 0.616700
vn -0.918600 0.368000 0.143900
vn -0.772200 0.489200 0.405300
vn -0.972300 0.233600 -0.009800
vn -0.359200 -0.766000 0.533100
vn 0.473500 0.504900 0.721700
vn 0.706400 0.606800 0.364500
vn -0.004900 0.386300 0.922300
vn 0.504300 -0.697400 0.509200
vn 0.855500 0.509000 0.095200
vn 0.921300 0.383900 -0.062100
vn 0.271200 -0.669200 -0.691700
vn -0.903900 -0.204900 -0.375500
vn -0.959600 -0.130400 -0.249100
vn -0.506800 0.426900 0.748900
vn -0.988600 0.114900 -0.096600
vn -0.990400 0.036000 -0.133600
vn 0.951400 0.268900 -0.150300
vn 0.963400 0.190800 -0.187900
vn 0.968300 0.112300 -0.223100
vn -0.984800 -0.042300 -0.168600
vt 0.839504 0.118056
vt 0.856743 0.205307
vt 0.741230 0.205307
vt 0.734555 0.106726
vt 0.724541 0.032791
vt 0.813647 0.052618
vt 0.868992 0.081539
vt 0.913398 0.129584
vt 0.940923 0.205307
vt 0.839504 0.292557
vt 0.813647 0.357995
vt 0.724541 0.377822
vt 0.734555 0.303887
vt 0.913398 0.281029
vt 0.868992 0.329074
vt 0.369475 0.299954
vt 0.368286 0.370940
vt 0.245840 0.351447
vt 0.246397 0.288815
vt 0.246768 0.205307
vt 0.370268 0.205307
vt 0.494283 0.205307
vt 0.492822 0.304944
vt 0.490632 0.379672
vt 0.369475 0.110659
vt 0.246397 0.121798
vt 0.245841 0.059166
vt 0.368286 0.039673
vt 0.490632 0.030941
vt 0.492822 0.105669
vt 0.616755 0.103478
vt 0.619174 0.205307
vt 0.613127 0.027106
vt 0.616755 0.307135
vt 0.613126 0.383507
vt 0.123273 0.268175
vt 0.123047 0.315326
vt 0.054743 0.283353
vt 0.030912 0.249131
vt 0.030973 0.205306
vt 0.123423 0.205306
vt 0.123273 0.142438
vt 0.030912 0.161481
vt 0.054744 0.127260
vt 0.123047 0.095287
vt 0.839504 0.118056
vt 0.856743 0.205307
vt 0.968983 0.205307
vt 0.938030 0.133427
vt 0.876123 0.061548
vt 0.805028 0.030806
vt 0.721203 0.008146
vt 0.734555 0.106726
vt 0.741230 0.205307
vt 0.839504 0.292557
vt 0.805028 0.379807
vt 0.876123 0.349065
vt 0.938030 0.277186
vt 0.734555 0.303887
vt 0.721203 0.402467
vt 0.369475 0.299954
vt 0.367890 0.394602
vt 0.489902 0.404581
vt 0.492822 0.304944
vt 0.494283 0.205307
vt 0.370268 0.205307
vt 0.246768 0.205307
vt 0.246397 0.288815
vt 0.245655 0.372324
vt 0.369475 0.110659
vt 0.492822 0.105669
vt 0.489902 0.006032
vt 0.367890 0.016011
vt 0.245655 0.038289
vt 0.246397 0.121798
vt 0.616755 0.103478
vt 0.619174 0.205307
vt 0.611917 0.001649
vt 0.616755 0.307135
vt 0.611917 0.408964
vt 0.123273 0.268175
vt 0.122972 0.331043
vt 0.123423 0.205306
vt 0.000156 0.205306
vt 0.000125 0.242784
vt 0.000064 0.280261
vt 0.123273 0.142438
vt 0.122972 0.079570
vt 0.000064 0.130352
vt 0.000125 0.167829
vt 0.122972 0.331043
vt 0.030806 0.283587
vt 0.245655 0.372324
vt 0.030806 0.283587
vt 0.000125 0.167829
vt 0.030806 0.127026
vt 0.000156 0.205306
vt 0.030806 0.127026
vt 0.805028 0.030806
vt 0.873826 0.071832
vt 0.721203 0.008146
vt 0.873826 0.071832
vt 0.938030 0.277186
vt 0.873826 0.338781
vt 0.968983 0.205307
vt 0.873826 0.338781
vt 0.805028 0.379807
vt 0.721203 0.402467
vt 0.000125 0.242784
vt 0.122972 0.079570
vt 0.245655 0.038289
vt 0.938030 0.133427
vt 0.611917 0.001649
vt 0.489902 0.006032
vt 0.611917 0.408964
vt 0.489902 0.404581
vt 0.367890 0.394602
vt 0.367890 0.016011
f 1/1/1 2/2/2 3/3/3
f 1/1/1 3/3/3 4/4/4
f 1/1/1 4/4/4 5/5/5
f 1/1/1 5/5/5 6/6/6
f 1/1/1 6/6/6 7/7/7
f 1/1/1 7/7/7 8/8/8
f 1/1/1 8/8/8 9/9/9
f 1/1/1 9/9/9 2/2/2
f 10/10/10 11/11/11 12/12/12
f 10/10/10 12/12/12 13/13/13
f 10/10/10 13/13/13 3/3/3
f 10/10/10 3/3/3 2/2/2
f 10/10/10 2/2/2 9/9/9
f 10/10/10 9/9/9 14/14/14
f 10/10/10 14/14/14 15/15/15
f 10/10/10 15/15/15 11/11/11
f 16/16/16 17/17/17 18/18/18
f 16/16/16 18/18/18 19/19/19
f 16/16/16 19/19/19 20/20/20
f 16/16/16 20/20/20 21/21/21
f 16/16/16 21/21/21 22/22/22
f 16/16/16 22/22/22 23/23/23
f 16/16/16 23/23/23 24/24/24
f 16/16/16 24/24/24 17/17/17
f 25/25/25 21/21/21 20/20/20
f 25/25/25 20/20/20 26/26/26
f 25/25/25 26/26/26 27/27/27
f 25/25/25 27/27/27 28/28/28
f 25/25/25 28/28/28 29/29/29
f 25/25/25 29/29/29 30/30/30
f 25/25/25 30/30/30 22/22/22
f 25/25/25 22/22/22 21/21/21
f 31/31/31 32/32/32 22/22/22
f 31/31/31 22/22/22 30/30/30
f 31/31/31 30/30/30 29/29/29
f 31/31/31 29/29/29 33/33/33
f 31/31/31 33/33/33 5/5/5
f 31/31/31 5/5/5 4/4/4
f 31/31/31 4/4/4 3/3/3
f 31/31/31 3/3/3 32/32/32
f 34/34/34 35/35/35 24/24/24
f 34/34/34 24/24/24 23/23/23
f 34/34/34 23/23/23 22/22/22
f 34/34/34 22/22/22 32/32/32
f 34/34/34 32/32/32 3/3/3
f 34/34/34 3/3/3 13/13/13
f 34/34/34 13/13/13 12/12/12
f 34/34/34 12/12/12 35/35/35
f 36/36/36 37/37/37 38/38/38
f 36/36/36 38/38/38 39/39/39
f 36/36/36 39/39/39 40/40/40
f 36/36/36 40/40/40 41/41/41
f 36/36/36 41/41/41 20/20/20
f 36/36/36 20/20/20 19/19/19
f 36/36/36 19/19/19 18/18/18
f 36/36/36 18/18/18 37/37/37
f 42/42/42 41/41/41 40/40/40
f 42/42/42 40/40/40 43/43/43
f 42/42/42 43/43/43 44/44/44
f 42/42/42 44/44/44 45/45/45
f 42/42/42 45/45/45 27/27/27
f 42/42/42 27/27/27 26/26/26
f 42/42/42 26/26/26 20/20/20
f 42/42/42 20/20/20 41/41/41
f 46/46/46 47/47/47 48/48/48
f 46/46/46 48/48/48 49/49/49
f 46/46/46 49/49/49 50/50/50
f 46/46/46 50/50/50 51/51/51
f 46/46/46 51/51/51 52/52/52
f 46/46/46 52/52/52 53/53/53
f 46/46/46 53/53/53 54/54/54
f 46/46/46 54/54/54 47/47/47
f 55/55/55 56/56/56 57/57/57
f 55/55/55 57/57/57 58/58/58
f 55/55/55 58/58/58 48/48/48
f 55/55/55 48/48/48 47/47/47
f 55/55/55 47/47/47 54/54/54
f 55/55/55 54/54/54 59/59/59
f 55/55/55 59/59/59 60/60/60
f 55/55/55 60/60/60 56/56/56
f 61/61/61 62/62/62 63/63/63
f 61/61/61 63/63/63 64/64/64
f 61/61/61 64/64/64 65/65/65
f 61/61/61 65/65/65 66/66/66
f 61/61/61 66/66/66 67/67/67
f 61/61/61 67/67/67 68/68/68
f 61/61/61 68/68/68 69/69/69
f 61/61/61 69/69/69 62/62/62
f 70/70/70 66/66/66 65/65/65
f 70/70/70 65/65/65 71/71/71
f 70/70/70 71/71/71 72/72/72
f 70/70/70 72/72/72 73/73/73
f 70/70/70 73/73/73 74/74/74
f 70/70/70 74/74/74 75/75/75
f 70/70/70 75/75/75 67/67/67
f 70/70/70 67/67/67 66/66/66
f 76/76/76 77/77/77 54/54/54
f 76/76/76 54/54/54 53/53/53
f 76/76/76 53/53/53 52/52/52
f 76/76/76 52/52/52 78/78/78
f 76/76/76 78/78/78 72/72/72
f 76/76/76 72/72/72 71/71/71
f 76/76/76 71/71/71 65/65/65
f 76/76/76 65/65/65 77/77/77
f 79/79/79 80/80/80 60/60/60
f 79/79/79 60/60/60 59/59/59
f 79/79/79 59/59/59 54/54/54
f 79/79/79 54/54/54 77/77/77
f 79/79/79 77/77/77 65/65/65
f 79/79/79 65/65/65 64/64/64
f 79/79/79 64/64/64 63/63/63
f 79/79/79 63/63/63 80/80/80
f 81/81/81 82/82/82 69/69/69
f 81/81/81 69/69/69 68/68/68
f 81/81/81 68/68/68 67/67/67
f 81/81/81 67/67/67 83/83/83
f 81/81/81 83/83/83 84/84/84
f 81/81/81 84/84/84 85/85/85
f 81/81/81 85/85/85 86/86/86
f 81/81/81 86/86/86 82/82/82
f 87/87/87 83/83/83 67/67/67
f 87/87/87 67/67/67 75/75/75
f 87/87/87 75/75/75 74/74/74
f 87/87/87 74/74/74 88/88/88
f 87/87/87 88/88/88 89/89/89
f 87/87/87 89/89/89 90/90/90
f 87/87/87 90/90/90 84/84/84
f 87/87/87 84/84/84 83/83/83
f 91/91/91 92/92/92 38/38/38
f 91/91/91 38/38/38 37/37/37
f 91/91/91 37/37/37 18/18/18
f 91/91/91 18/18/18 93/93/93
f 91/91/91 93/93/93 69/69/69
f 91/91/91 69/69/69 82/82/82
f 91/91/91 82/82/82 94/94/94
f 91/91/91 94/94/94 92/92/92
f 95/95/95 96/96/96 44/44/44
f 95/95/95 44/44/44 43/43/43
f 95/95/95 43/43/43 40/40/40
f 95/95/95 40/40/40 97/97/97
f 95/95/95 97/97/97 84/84/84
f 95/95/95 84/84/84 90/90/90
f 95/95/95 90/90/90 98/98/98
f 95/95/95 98/98/98 96/96/96
f 99/99/99 100/100/100 7/7/7
f 99/99/99 7/7/7 6/6/6
f 99/99/99 6/6/6 5/5/5
f 99/99/99 5/5/5 101/101/101
f 99/99/99 101/101/101 52/52/52
f 99/99/99 52/52/52 51/51/51
f 99/99/99 51/51/51 102/102/102
f 99/99/99 102/102/102 100/100/100
f 103/103/103 104/104/104 15/15/15
f 103/103/103 15/15/15 14/14/14
f 103/103/103 14/14/14 9/9/9
f 103/103/103 9/9/9 105/105/105
f 103/103/103 105/105/105 48/48/48
f 103/103/103 48/48/48 58/58/58
f 103/103/103 58/58/58 106/106/106
f 103/103/103 106/106/106 104/104/104
f 107/107/107 108/108/108 12/12/12
f 107/107/107 12/12/12 11/11/11
f 107/107/107 11/11/11 15/15/15
f 107/107/107 15/15/15 104/104/104
f 107/107/107 104/104/104 106/106/106
f 107/107/107 106/106/106 56/56/56
f 107/107/107 56/56/56 60/60/60
f 107/107/107 60/60/60 108/108/108
f 109/109/109 97/97/97 40/40/40
f 109/109/109 40/40/40 39/39/39
f 109/109/109 39/39/39 38/38/38
f 109/109/109 38/38/38 92/92/92
f 109/109/109 92/92/92 94/94/94
f 109/109/109 94/94/94 85/85/85
f 109/109/109 85/85/85 84/84/84
f 109/109/109 84/84/84 97/97/97
f 110/110/110 111/111/111 27/27/27
f 110/110/110 27/27/27 45/45/45
f 110/110/110 45/45/45 44/44/44
f 110/110/110 44/44/44 96/96/96
f 110/110/110 96/96/96 98/98/98
f 110/110/110 98/98/98 88/88/88
f 110/110/110 88/88/88 74/74/74
f 110/110/110 74/74/74 111/111/111
f 112/112/112 105/105/105 9/9/9
f 112/112/112 9/9/9 8/8/8
f 112/112/112 8/8/8 7/7/7
f 112/112/112 7/7/7 100/100/100
f 112/112/112 100/100/100 102/102/102
f 112/112/112 102/102/102 49/49/49
f 112/112/112 49/49/49 48/48/48
f 112/112/112 48/48/48 105/105/105
f 113/113/113 101/101/101 5/5/5
f 113/113/113 5/5/5 33/33/33
f 113/113/113 33/33/33 29/29/29
f 113/113/113 29/29/29 114/114/114
f 113/113/113 114/114/114 72/72/72
f 113/113/113 72/72/72 78/78/78
f 113/113/113 78/78/78 52/52/52
f 113/113/113 52/52/52 101/101/101
f 115/115/115 116/116/116 24/24/24
f 115/115/115 24/24/24 35/35/35
f 115/115/115 35/35/35 12/12/12
f 115/115/115 12/12/12 108/108/108
f 115/115/115 108/108/108 60/60/60
f 115/115/115 60/60/60 80/80/80
f 115/115/115 80/80/80 63/63/63
f 115/115/115 63/63/63 116/116/116
f 117/117/117 93/93/93 18/18/18
f 117/117/117 18/18/18 17/17/17
f 117/117/117 17/17/17 24/24/24
f 117/117/117 24/24/24 116/116/116
f 117/117/117 116/116/116 63/63/63
f 117/117/117 63/63/63 62/62/62
f 117/117/117 62/62/62 69/69/69
f 117/117/117 69/69/69 93/93/93
f 118/118/118 114/114/114 29/29/29
f 118/118/118 29/29/29 28/28/28
f 118/118/118 28/28/28 27/27/27
f 118/118/118 27/27/27 111/111/111
f 118/118/118 111/111/111 74/74/74
f 118/118/118 74/74/74 73/73/73
f 118/118/118 73/73/73 72/72/72
f 118/118/118 72/72/72 114/114/114
