v -2.422780 0.663855 -1.071419
v -2.421173 0.663768 -1.069652
v -2.419315 0.663591 -1.072228
v -2.421343 0.663642 -1.073944
v -2.422796 0.663899 -1.075381
v -2.423793 0.664139 -1.073069
v -2.424058 0.664079 -1.071350
v -2.423721 0.663889 -1.069566
v -2.422529 0.663789 -1.067753
v -2.419037 0.664349 -1.068753
v -2.417228 0.665005 -1.068393
v -2.415338 0.664883 -1.070069
v -2.417089 0.664203 -1.070914
v -2.420481 0.664316 -1.067258
v -2.418741 0.664781 -1.067563
v -2.411309 0.661916 -1.078697
v -2.409700 0.662357 -1.077681
v -2.408193 0.661007 -1.080450
v -2.409619 0.660604 -1.081342
v -2.411491 0.660195 -1.082584
v -2.413422 0.661466 -1.080108
v -2.415372 0.662512 -1.077564
v -2.413161 0.663006 -1.076093
v -2.411475 0.663503 -1.075041
v -2.415478 0.661366 -1.081666
v -2.413306 0.660118 -1.083968
v -2.414653 0.660155 -1.085052
v -2.417005 0.661394 -1.082883
v -2.419116 0.662494 -1.080483
v -2.417521 0.662431 -1.079199
v -2.419533 0.663178 -1.076582
v -2.417359 0.663196 -1.074901
v -2.421141 0.663340 -1.077917
v -2.415108 0.663762 -1.073430
v -2.413387 0.664363 -1.072394
v -2.408159 0.659180 -1.084129
v -2.407084 0.659532 -1.083485
v -2.406744 0.658572 -1.085317
v -2.407151 0.658042 -1.086260
v -2.408123 0.657756 -1.086861
v -2.409564 0.658837 -1.085039
v -2.410910 0.658817 -1.086089
v -2.409037 0.657793 -1.087603
v -2.410136 0.658124 -1.087734
v -2.411908 0.658895 -1.086921
v -2.422801 0.663606 -1.071404
v -2.421165 0.663521 -1.069618
v -2.422520 0.663604 -1.067730
v -2.423735 0.663702 -1.069559
v -2.424075 0.663941 -1.071349
v -2.423823 0.663953 -1.073068
v -2.422826 0.663713 -1.075371
v -2.421366 0.663394 -1.073920
v -2.419313 0.663344 -1.072186
v -2.419001 0.664107 -1.068698
v -2.417188 0.664828 -1.068342
v -2.418714 0.664649 -1.067530
v -2.420450 0.664136 -1.067219
v -2.417062 0.663962 -1.070854
v -2.415306 0.664706 -1.070015
v -2.411316 0.661683 -1.078605
v -2.409697 0.662184 -1.077605
v -2.411464 0.663327 -1.074973
v -2.413159 0.662769 -1.076011
v -2.415390 0.662271 -1.077495
v -2.413448 0.661229 -1.080028
v -2.411523 0.659962 -1.082496
v -2.409632 0.660374 -1.081242
v -2.408194 0.660837 -1.080369
v -2.415521 0.661128 -1.081600
v -2.417557 0.662189 -1.079145
v -2.419153 0.662313 -1.080449
v -2.417046 0.661215 -1.082840
v -2.414699 0.659978 -1.085003
v -2.413355 0.659883 -1.083894
v -2.419562 0.662933 -1.076542
v -2.417366 0.662952 -1.074846
v -2.421174 0.663156 -1.077895
v -2.415094 0.663523 -1.073360
v -2.413366 0.664187 -1.072334
v -2.408173 0.658952 -1.084026
v -2.407084 0.659363 -1.083401
v -2.409597 0.658605 -1.084949
v -2.408148 0.657582 -1.086793
v -2.407161 0.657871 -1.086181
v -2.406747 0.658446 -1.085257
v -2.410963 0.658584 -1.086013
v -2.411957 0.658720 -1.086872
v -2.410170 0.657995 -1.087695
v -2.409077 0.657618 -1.087546
v -2.406723 0.659574 -1.083232
v -2.406364 0.658299 -1.085793
v -2.407716 0.661066 -1.080115
v -2.406747 0.658446 -1.085257
v -2.408431 0.657374 -1.088082
v -2.409763 0.657850 -1.088214
v -2.407654 0.657319 -1.087438
v -2.410170 0.657995 -1.087695
v -2.424147 0.664151 -1.073621
v -2.424359 0.664106 -1.071399
v -2.423296 0.663902 -1.075857
v -2.424075 0.663941 -1.071349
v -2.420948 0.664226 -1.066743
v -2.418607 0.664865 -1.067303
v -2.422976 0.663714 -1.067111
v -2.418714 0.664649 -1.067530
v -2.416604 0.665146 -1.068249
v -2.414737 0.665031 -1.069761
v -2.406820 0.657587 -1.086935
v -2.412265 0.658843 -1.087179
v -2.415125 0.660089 -1.085393
v -2.424041 0.663817 -1.068946
v -2.421695 0.663312 -1.078354
v -2.419666 0.662435 -1.080897
v -2.412802 0.664486 -1.072020
v -2.410906 0.663591 -1.074658
v -2.409161 0.662428 -1.077307
v -2.417534 0.661323 -1.083271
vn 0.124100 0.992100 0.017300
vn -0.064900 0.993500 -0.092900
vn -0.029900 0.989500 -0.141300
vn 0.140400 0.989100 -0.044800
vn 0.147500 0.986500 -0.070500
vn 0.117900 0.993000 0.012200
vn 0.095500 0.992900 0.070400
vn 0.037600 0.996900 0.069100
vn -0.119100 0.992700 -0.016700
vn -0.226600 0.945800 -0.232500
vn -0.220000 0.948400 -0.228400
vn -0.150800 0.947100 -0.283000
vn -0.173100 0.947700 -0.268100
vn -0.248800 0.959100 -0.135100
vn -0.267400 0.945000 -0.188200
vn 0.029500 0.916200 -0.399600
vn 0.064700 0.920300 -0.385700
vn 0.085600 0.909100 -0.407700
vn 0.042000 0.902600 -0.428400
vn 0.143100 0.917500 -0.370900
vn 0.118700 0.933000 -0.339500
vn 0.069200 0.959000 -0.274800
vn -0.025500 0.936700 -0.349100
vn 0.006800 0.937600 -0.347600
vn 0.205500 0.939400 -0.274200
vn 0.230900 0.927500 -0.293900
vn 0.196900 0.923700 -0.328400
vn 0.180900 0.935700 -0.302900
vn 0.160400 0.957900 -0.238200
vn 0.172000 0.962800 -0.208400
vn 0.147500 0.981400 -0.122400
vn 0.013900 0.979500 -0.201000
vn 0.149600 0.976800 -0.153400
vn -0.101500 0.948600 -0.299800
vn -0.072400 0.947500 -0.311400
vn 0.029000 0.891400 -0.452300
vn 0.078100 0.897500 -0.433900
vn 0.061300 0.884200 -0.463100
vn 0.042900 0.862600 -0.504100
vn 0.186300 0.885500 -0.425600
vn 0.154500 0.909700 -0.385500
vn 0.259200 0.921800 -0.288300
vn 0.308200 0.897600 -0.315100
vn 0.260600 0.910400 -0.321300
vn 0.225800 0.917000 -0.328800
vn -0.160300 -0.986900 -0.014600
vn 0.055300 -0.992800 0.106200
vn 0.018000 -0.987300 0.157600
vn -0.266100 -0.963900 -0.009900
vn -0.372300 -0.926400 -0.056600
vn -0.348000 -0.936100 -0.050300
vn -0.294700 -0.955500 -0.007800
vn -0.153600 -0.987400 0.037000
vn 0.030000 -0.989500 0.141200
vn 0.234500 -0.934800 0.266500
vn 0.317500 -0.848300 0.423700
vn 0.329300 -0.833800 0.443100
vn 0.259000 -0.894600 0.364200
vn 0.184200 -0.942800 0.277600
vn 0.264600 -0.881700 0.390600
vn -0.015500 -0.913100 0.407300
vn 0.082300 -0.885600 0.457000
vn 0.122400 -0.898100 0.422400
vn 0.038000 -0.933300 0.356900
vn -0.069200 -0.959000 0.274900
vn -0.118800 -0.933000 0.339700
vn -0.143200 -0.917500 0.371000
vn -0.024600 -0.899700 0.435700
vn 0.101300 -0.876600 0.470500
vn -0.217700 -0.939800 0.263300
vn -0.183700 -0.962600 0.199000
vn -0.277400 -0.950800 0.137700
vn -0.299300 -0.936000 0.185200
vn -0.319400 -0.932100 0.170900
vn -0.243800 -0.928600 0.279600
vn -0.159200 -0.980700 0.113700
vn -0.013900 -0.979500 0.201000
vn -0.271300 -0.960500 0.061900
vn 0.113100 -0.944700 0.307700
vn 0.192900 -0.899200 0.392600
vn 0.003500 -0.892600 0.450800
vn 0.165800 -0.867500 0.468800
vn -0.147600 -0.914500 0.376600
vn -0.117000 -0.934100 0.337300
vn 0.104300 -0.895100 0.433400
vn 0.207400 -0.862200 0.462100
vn -0.267800 -0.928400 0.257600
vn -0.339600 -0.934200 0.108900
vn -0.347200 -0.935400 0.067200
vn -0.282500 -0.946200 0.157900
vn 0.973600 0.141900 0.178600
vn 0.976800 0.010300 -0.213700
vn 0.930300 0.167100 0.326500
vn 0.207400 -0.862200 0.462100
vn 0.366000 -0.366300 -0.855500
vn -0.107300 -0.132500 -0.985400
vn 0.546900 -0.494300 -0.675600
vn -0.347200 -0.935400 0.067200
vn -0.920100 0.253400 -0.298500
vn -0.965700 0.258600 0.021400
vn -0.850600 0.193700 -0.488800
vn -0.372300 -0.926400 -0.056600
vn -0.112500 0.171100 0.978800
vn 0.236300 0.417300 0.877500
vn -0.577100 -0.031000 0.816100
vn 0.329300 -0.833800 0.443100
vn 0.521900 0.443700 0.728500
vn 0.688300 0.396800 0.607300
vn 0.748700 -0.315600 -0.582900
vn -0.494900 -0.051900 -0.867400
vn -0.623900 -0.038100 -0.780600
vn -0.909000 0.065900 0.411500
vn -0.789100 0.121300 -0.602100
vn -0.751300 0.064800 -0.656800
vn 0.787400 0.329400 0.521000
vn 0.836500 0.274400 0.474300
vn 0.878500 0.217700 0.425200
vn -0.708500 0.008100 -0.705600
vt 0.839504 0.118056
vt 0.856743 0.205307
vt 0.741230 0.205307
vt 0.734555 0.106726
vt 0.724541 0.032791
vt 0.813647 0.052618
vt 0.868992 0.081539
vt 0.913398 0.129584
vt 0.940923 0.205307
vt 0.839504 0.292557
vt 0.813647 0.357995
vt 0.724541 0.377822
vt 0.734555 0.303887
vt 0.913398 0.281029
vt 0.868992 0.329074
vt 0.369475 0.299954
vt 0.368286 0.370940
vt 0.245840 0.351447
vt 0.246397 0.288815
vt 0.246768 0.205307
vt 0.370268 0.205307
vt 0.494283 0.205307
vt 0.492822 0.304944
vt 0.490632 0.379672
vt 0.369475 0.110659
vt 0.246397 0.121798
vt 0.245841 0.059166
vt 0.368286 0.039673
vt 0.490632 0.030941
vt 0.492822 0.105669
vt 0.616755 0.103478
vt 0.619174 0.205307
vt 0.613127 0.027106
vt 0.616755 0.307135
vt 0.613126 0.383507
vt 0.123273 0.268175
vt 0.123047 0.315326
vt 0.054743 0.283353
vt 0.030912 0.249131
vt 0.030973 0.205306
vt 0.123423 0.205306
vt 0.123273 0.142438
vt 0.030912 0.161481
vt 0.054744 0.127260
vt 0.123047 0.095287
vt 0.839504 0.118056
vt 0.856743 0.205307
vt 0.968983 0.205307
vt 0.938030 0.133427
vt 0.876123 0.061548
vt 0.805028 0.030806
vt 0.721203 0.008146
vt 0.734555 0.106726
vt 0.741230 0.205307
vt 0.839504 0.292557
vt 0.805028 0.379807
vt 0.876123 0.349065
vt 0.938030 0.277186
vt 0.734555 0.303887
vt 0.721203 0.402467
vt 0.369475 0.299954
vt 0.367890 0.394602
vt 0.489902 0.404581
vt 0.492822 0.304944
vt 0.494283 0.205307
vt 0.370268 0.205307
vt 0.246768 0.205307
vt 0.246397 0.288815
vt 0.245655 0.372324
vt 0.369475 0.110659
vt 0.492822 0.105669
vt 0.489902 0.006032
vt 0.367890 0.016011
vt 0.245655 0.038289
vt 0.246397 0.121798
vt 0.616755 0.103478
vt 0.619174 0.205307
vt 0.611917 0.001649
vt 0.616755 0.307135
vt 0.611917 0.408964
vt 0.123273 0.268175
vt 0.122972 0.331043
vt 0.123423 0.205306
vt 0.000156 0.205306
vt 0.000125 0.242784
vt 0.000064 0.280261
vt 0.123273 0.142438
vt 0.122972 0.079570
vt 0.000064 0.130352
vt 0.000125 0.167829
vt 0.122972 0.331043
vt 0.030806 0.283587
vt 0.245655 0.372324
vt 0.030806 0.283587
vt 0.000125 0.167829
vt 0.030806 0.127026
vt 0.000156 0.205306
vt 0.030806 0.127026
vt 0.805028 0.030806
vt 0.873826 0.071832
vt 0.721203 0.008146
vt 0.873826 0.071832
vt 0.938030 0.277186
vt 0.873826 0.338781
vt 0.968983 0.205307
vt 0.873826 0.338781
vt 0.805028 0.379807
vt 0.721203 0.402467
vt 0.000125 0.242784
vt 0.122972 0.079570
vt 0.245655 0.038289
vt 0.938030 0.133427
vt 0.611917 0.001649
vt 0.489902 0.006032
vt 0.611917 0.408964
vt 0.489902 0.404581
vt 0.367890 0.394602
vt 0.367890 0.016011
f 1/1/1 2/2/2 3/3/3
f 1/1/1 3/3/3 4/4/4
f 1/1/1 4/4/4 5/5/5
f 1/1/1 5/5/5 6/6/6
f 1/1/1 6/6/6 7/7/7
f 1/1/1 7/7/7 8/8/8
f 1/1/1 8/8/8 9/9/9
f 1/1/1 9/9/9 2/2/2
f 10/10/10 11/11/11 12/12/12
f 10/10/10 12/12/12 13/13/13
f 10/10/10 13/13/13 3/3/3
f 10/10/10 3/3/3 2/2/2
f 10/10/10 2/2/2 9/9/9
f 10/10/10 9/9/9 14/14/14
f 10/10/10 14/14/14 15/15/15
f 10/10/10 15/15/15 11/11/11
f 16/16/16 17/17/17 18/18/18
f 16/16/16 18/18/18 19/19/19
f 16/16/16 19/19/19 20/20/20
f 16/16/16 20/20/20 21/21/21
f 16/16/16 21/21/21 22/22/22
f 16/16/16 22/22/22 23/23/23
f 16/16/16 23/23/23 24/24/24
f 16/16/16 24/24/24 17/17/17
f 25/25/25 21/21/21 20/20/20
f 25/25/25 20/20/20 26/26/26
f 25/25/25 26/26/26 27/27/27
f 25/25/25 27/27/27 28/28/28
f 25/25/25 28/28/28 29/29/29
f 25/25/25 29/29/29 30/30/30
f 25/25/25 30/30/30 22/22/22
f 25/25/25 22/22/22 21/21/21
f 31/31/31 32/32/32 22/22/22
f 31/31/31 22/22/22 30/30/30
f 31/31/31 30/30/30 29/29/29
f 31/31/31 29/29/29 33/33/33
f 31/31/31 33/33/33 5/5/5
f 31/31/31 5/5/5 4/4/4
f 31/31/31 4/4/4 3/3/3
f 31/31/31 3/3/3 32/32/32
f 34/34/34 35/35/35 24/24/24
f 34/34/34 24/24/24 23/23/23
f 34/34/34 23/23/23 22/22/22
f 34/34/34 22/22/22 32/32/32
f 34/34/34 32/32/32 3/3/3
f 34/34/34 3/3/3 13/13/13
f 34/34/34 13/13/13 12/12/12
f 34/34/34 12/12/12 35/35/35
f 36/36/36 37/37/37 38/38/38
f 36/36/36 38/38/38 39/39/39
f 36/36/36 39/39/39 40/40/40
f 36/36/36 40/40/40 41/41/41
f 36/36/36 41/41/41 20/20/20
f 36/36/36 20/20/20 19/19/19
f 36/36/36 19/19/19 18/18/18
f 36/36/36 18/18/18 37/37/37
f 42/42/42 41/41/41 40/40/40
f 42/42/42 40/40/40 43/43/43
f 42/42/42 43/43/43 44/44/44
f 42/42/42 44/44/44 45/45/45
f 42/42/42 45/45/45 27/27/27
f 42/42/42 27/27/27 26/26/26
f 42/42/42 26/26/26 20/20/20
f 42/42/42 20/20/20 41/41/41
f 46/46/46 47/47/47 48/48/48
f 46/46/46 48/48/48 49/49/49
f 46/46/46 49/49/49 50/50/50
f 46/46/46 50/50/50 51/51/51
f 46/46/46 51/51/51 52/52/52
f 46/46/46 52/52/52 53/53/53
f 46/46/46 53/53/53 54/54/54
f 46/46/46 54/54/54 47/47/47
f 55/55/55 56/56/56 57/57/57
f 55/55/55 57/57/57 58/58/58
f 55/55/55 58/58/58 48/48/48
f 55/55/55 48/48/48 47/47/47
f 55/55/55 47/47/47 54/54/54
f 55/55/55 54/54/54 59/59/59
f 55/55/55 59/59/59 60/60/60
f 55/55/55 60/60/60 56/56/56
f 61/61/61 62/62/62 63/63/63
f 61/61/61 63/63/63 64/64/64
f 61/61/61 64/64/64 65/65/65
f 61/61/61 65/65/65 66/66/66
f 61/61/61 66/66/66 67/67/67
f 61/61/61 67/67/67 68/68/68
f 61/61/61 68/68/68 69/69/69
f 61/61/61 69/69/69 62/62/62
f 70/70/70 66/66/66 65/65/65
f 70/70/70 65/65/65 71/71/71
f 70/70/70 71/71/71 72/72/72
f 70/70/70 72/72/72 73/73/73
f 70/70/70 73/73/73 74/74/74
f 70/70/70 74/74/74 75/75/75
f 70/70/70 75/75/75 67/67/67
f 70/70/70 67/67/67 66/66/66
f 76/76/76 77/77/77 54/54/54
f 76/76/76 54/54/54 53/53/53
f 76/76/76 53/53/53 52/52/52
f 76/76/76 52/52/52 78/78/78
f 76/76/76 78/78/78 72/72/72
f 76/76/76 72/72/72 71/71/71
f 76/76/76 71/71/71 65/65/65
f 76/76/76 65/65/65 77/77/77
f 79/79/79 80/80/80 60/60/60
f 79/79/79 60/60/60 59/59/59
f 79/79/79 59/59/59 54/54/54
f 79/79/79 54/54/54 77/77/77
f 79/79/79 77/77/77 65/65/65
f 79/79/79 65/65/65 64/64/64
f 79/79/79 64/64/64 63/63/63
f 79/79/79 63/63/63 80/80/80
f 81/81/81 82/82/82 69/69/69
f 81/81/81 69/69/69 68/68/68
f 81/81/81 68/68/68 67/67/67
f 81/81/81 67/67/67 83/83/83
f 81/81/81 83/83/83 84/84/84
f 81/81/81 84/84/84 85/85/85
f 81/81/81 85/85/85 86/86/86
f 81/81/81 86/86/86 82/82/82
f 87/87/87 83/83/83 67/67/67
f 87/87/87 67/67/67 75/75/75
f 87/87/87 75/75/75 74/74/74
f 87/87/87 74/74/74 88/88/88
f 87/87/87 88/88/88 89/89/89
f 87/87/87 89/89/89 90/90/90
f 87/87/87 90/90/90 84/84/84
f 87/87/87 84/84/84 83/83/83
f 91/91/91 92/92/92 38/38/38
f 91/91/91 38/38/38 37/37/37
f 91/91/91 37/37/37 18/18/18
f 91/91/91 18/18/18 93/93/93
f 91/91/91 93/93/93 69/69/69
f 91/91/91 69/69/69 82/82/82
f 91/91/91 82/82/82 94/94/94
f 91/91/91 94/94/94 92/92/92
f 95/95/95 96/96/96 44/44/44
f 95/95/95 44/44/44 43/43/43
f 95/95/95 43/43/43 40/40/40
f 95/95/95 40/40/40 97/97/97
f 95/95/95 97/97/97 84/84/84
f 95/95/95 84/84/84 90/90/90
f 95/95/95 90/90/90 98/98/98
f 95/95/95 98/98/98 96/96/96
f 99/99/99 100/100/100 7/7/7
f 99/99/99 7/7/7 6/6/6
f 99/99/99 6/6/6 5/5/5
f 99/99/99 5/5/5 101/101/101
f 99/99/99 101/101/101 52/52/52
f 99/99/99 52/52/52 51/51/51
f 99/99/99 51/51/51 102/102/102
f 99/99/99 102/102/102 100/100/100
f 103/103/103 104/104/104 15/15/15
f 103/103/103 15/15/15 14/14/14
f 103/103/103 14/14/14 9/9/9
f 103/103/103 9/9/9 105/105/105
f 103/103/103 105/105/105 48/48/48
f 103/103/103 48/48/48 58/58/58
f 103/103/103 58/58/58 106/106/106
f 103/103/103 106/106/106 104/104/104
f 107/107/107 108/108/108 12/12/12
f 107/107/107 12/12/12 11/11/11
f 107/107/107 11/11/11 15/15/15
f 107/107/107 15/15/15 104/104/104
f 107/107/107 104/104/104 106/106/106
f 107/107/107 106/106/106 56/56/56
f 107/107/107 56/56/56 60/60/60
f 107/107/107 60/60/60 108/108/108
f 109/109/109 97/97/97 40/40/40
f 109/109/109 40/40/40 39/39/39
f 109/109/109 39/39/39 38/38/38
f 109/109/109 38/38/38 92/92/92
f 109/109/109 92/92/92 94/94/94
f 109/109/109 94/94/94 85/85/85
f 109/109/109 85/85/85 84/84/84
f 109/109/109 84/84/84 97/97/97
f 110/110/110 111/111/111 27/27/27
f 110/110/110 27/27/27 45/45/45
f 110/110/110 45/45/45 44/44/44
f 110/110/110 44/44/44 96/96/96
f 110/110/110 96/96/96 98/98/98
f 110/110/110 98/98/98 88/88/88
f 110/110/110 88/88/88 74/74/74
f 110/110/110 74/74/74 111/111/111
f 112/112/112 105/105/105 9/9/9
f 112/112/112 9/9/9 8/8/8
f 112/112/112 8/8/8 7/7/7
f 112/112/112 7/7/7 100/100/100
f 112/112/112 100/100/100 102/102/102
f 112/112/112 102/102/102 49/49/49
f 112/112/112 49/49/49 48/48/48
f 112/112/112 48/48/48 105/105/105
f 113/113/113 101/101/101 5/5/5
f 113/113/113 5/5/5 33/33/33
f 113/113/113 33/33/33 29/29/29
f 113/113/113 29/29/29 114/114/114
f 113/113/113 114/114/114 72/72/72
f 113/113/113 72/72/72 78/78/78
f 113/113/113 78/78/78 52/52/52
f 113/113/113 52/52/52 101/101/101
f 115/115/115 116/116/116 24/24/24
f 115/115/115 24/24/24 35/35/35
f 115/115/115 35/35/35 12/12/12
f 115/115/115 12/12/12 108/108/108
f 115/115/115 108/108/108 60/60/60
f 115/115/115 60/60/60 80/80/80
f 115/115/115 80/80/80 63/63/63
f 115/115/115 63/63/63 116/116/116
f 117/117/117 93/93/93 18/18/18
f 117/117/117 18/18/18 17/17/17
f 117/117/117 17/17/17 24/24/24
f 117/117/117 24/24/24 116/116/116
f 117/117/117 116/116/116 63/63/63
f 117/117/117 63/63/63 62/62/62
f 117/117/117 62/62/62 69/69/69
f 117/117/117 69/69/69 93/93/93
f 118/118/118 114/114/114 29/29/29
f 118/118/118 29/29/29 28/28/28
f 118/118/118 28/28/28 27/27/27
f 118/118/118 27/27/27 111/111/111
f 118/118/118 111/111/111 74/74/74
f 118/118/118 74/74/74 73/73/73
f 118/118/118 73/73/73 72/72/72
f 118/118/118 72/72/72 114/114/114
