v -2.375234 0.687352 -1.221312
v -2.377660 0.687779 -1.221619
v -2.377444 0.687457 -1.218337
v -2.374732 0.686941 -1.218355
v -2.372606 0.686762 -1.218198
v -2.373302 0.687231 -1.220689
v -2.374240 0.687406 -1.222224
v -2.375716 0.687547 -1.223408
v -2.377855 0.687908 -1.224033
v -2.379784 0.688823 -1.220868
v -2.381282 0.689809 -1.219909
v -2.381671 0.689691 -1.217313
v -2.379904 0.688612 -1.217850
v -2.379655 0.688819 -1.223023
v -2.380703 0.689495 -1.221593
v -2.379753 0.685882 -1.207868
v -2.381574 0.686726 -1.207569
v -2.381209 0.685129 -1.204404
v -2.379603 0.684371 -1.204677
v -2.377422 0.683485 -1.204976
v -2.377282 0.684892 -1.208198
v -2.377220 0.686079 -1.211494
v -2.379797 0.687137 -1.211143
v -2.381690 0.688054 -1.210819
v -2.374685 0.684245 -1.208363
v -2.375121 0.682923 -1.205114
v -2.373356 0.682592 -1.205171
v -2.372694 0.683857 -1.208436
v -2.372402 0.685053 -1.211726
v -2.374496 0.685424 -1.211661
v -2.374499 0.686311 -1.215065
v -2.377286 0.686912 -1.214918
v -2.372339 0.686029 -1.215096
v -2.379877 0.688049 -1.214539
v -2.381765 0.689074 -1.214175
v -2.379205 0.682690 -1.201531
v -2.380388 0.683305 -1.201301
v -2.379651 0.682087 -1.199654
v -2.378828 0.681338 -1.199201
v -2.377741 0.680811 -1.199393
v -2.377592 0.681992 -1.201774
v -2.375861 0.681609 -1.201858
v -2.376536 0.680598 -1.199425
v -2.375527 0.680754 -1.200057
v -2.374523 0.681411 -1.201874
v -2.375281 0.687099 -1.221344
v -2.377742 0.687535 -1.221648
v -2.377916 0.687724 -1.224050
v -2.375750 0.687356 -1.223428
v -2.374258 0.687264 -1.222241
v -2.373319 0.687038 -1.220714
v -2.372628 0.686571 -1.218232
v -2.374783 0.686690 -1.218397
v -2.377526 0.687213 -1.218375
v -2.379900 0.688591 -1.220893
v -2.381385 0.689644 -1.219926
v -2.380775 0.689370 -1.221604
v -2.379743 0.688647 -1.223038
v -2.380016 0.688381 -1.217886
v -2.381770 0.689525 -1.217339
v -2.379857 0.685659 -1.207952
v -2.381663 0.686562 -1.207631
v -2.381781 0.687888 -1.210870
v -2.379903 0.686910 -1.211213
v -2.377304 0.685843 -1.211567
v -2.377365 0.684661 -1.208285
v -2.377505 0.683257 -1.205072
v -2.379707 0.684151 -1.204771
v -2.381298 0.684969 -1.204473
v -2.374746 0.684007 -1.208452
v -2.374556 0.685182 -1.211735
v -2.372434 0.684868 -1.211783
v -2.372729 0.683676 -1.208503
v -2.373390 0.682414 -1.205245
v -2.375182 0.682689 -1.205213
v -2.374555 0.686064 -1.215122
v -2.377369 0.686672 -1.214973
v -2.372367 0.685841 -1.215140
v -2.379986 0.687819 -1.214592
v -2.381859 0.688908 -1.214213
v -2.379311 0.682472 -1.201629
v -2.380478 0.683147 -1.201373
v -2.377675 0.681765 -1.201874
v -2.377803 0.680641 -1.199468
v -2.378908 0.681176 -1.199275
v -2.379715 0.681968 -1.199708
v -2.375920 0.681376 -1.201960
v -2.374555 0.681233 -1.201952
v -2.375554 0.680624 -1.200114
v -2.376579 0.680423 -1.199502
v -2.380825 0.683441 -1.201256
v -2.379691 0.681788 -1.199030
v -2.381786 0.685312 -1.204343
v -2.379715 0.681968 -1.199708
v -2.376780 0.680183 -1.198649
v -2.375559 0.680453 -1.199434
v -2.377818 0.680342 -1.198632
v -2.375554 0.680624 -1.200114
v -2.372662 0.687104 -1.220493
v -2.373969 0.687383 -1.222388
v -2.371903 0.686617 -1.218161
v -2.374258 0.687264 -1.222241
v -2.379652 0.688742 -1.223747
v -2.380961 0.689642 -1.221705
v -2.377946 0.687869 -1.224844
v -2.380775 0.689370 -1.221604
v -2.381831 0.690066 -1.219597
v -2.382308 0.689979 -1.217145
v -2.378738 0.680816 -1.198457
v -2.374089 0.681265 -1.201914
v -2.372780 0.682402 -1.205223
v -2.375891 0.687527 -1.224115
v -2.371628 0.685851 -1.215126
v -2.371715 0.684847 -1.211774
v -2.382438 0.689344 -1.214070
v -2.382364 0.688287 -1.210733
v -2.382223 0.686935 -1.207496
v -2.372044 0.683646 -1.208491
vn 0.100700 0.990500 0.093800
vn 0.311800 0.948600 0.054400
vn 0.315500 0.942000 0.113800
vn 0.127200 0.980200 0.151500
vn 0.137700 0.974800 0.175600
vn 0.108700 0.989600 0.093700
vn 0.088500 0.995500 0.035000
vn 0.133400 0.991100 -0.001600
vn 0.303800 0.951900 -0.038700
vn 0.511000 0.857900 0.053800
vn 0.504100 0.861800 0.055100
vn 0.486800 0.861900 0.141500
vn 0.494000 0.861700 0.115700
vn 0.468600 0.882700 -0.034300
vn 0.513300 0.858200 -0.006400
vn 0.419600 0.838900 0.346500
vn 0.385400 0.850000 0.359000
vn 0.381500 0.838500 0.389000
vn 0.425700 0.823000 0.376100
vn 0.317000 0.860500 0.398800
vn 0.318500 0.877100 0.359500
vn 0.319800 0.905500 0.278800
vn 0.432900 0.859100 0.272900
vn 0.408100 0.864700 0.292900
vn 0.213700 0.905500 0.366600
vn 0.204700 0.894300 0.397700
vn 0.251200 0.880600 0.401700
vn 0.249500 0.893900 0.372300
vn 0.228300 0.922800 0.310400
vn 0.201800 0.933700 0.295500
vn 0.169500 0.961800 0.214800
vn 0.318500 0.929200 0.187300
vn 0.186500 0.952800 0.239400
vn 0.460800 0.867700 0.186300
vn 0.446300 0.868800 0.214100
vn 0.448300 0.806500 0.385400
vn 0.401400 0.822100 0.403800
vn 0.429500 0.802200 0.414700
vn 0.464800 0.772300 0.433100
vn 0.312800 0.826800 0.467500
vn 0.316000 0.852200 0.417000
vn 0.178900 0.893600 0.411800
vn 0.154300 0.872600 0.463400
vn 0.196500 0.877400 0.437600
vn 0.228600 0.877900 0.420800
vn -0.074300 -0.990100 -0.119300
vn -0.312900 -0.947100 -0.070700
vn -0.316500 -0.939100 -0.133900
vn 0.006300 -0.981500 -0.191100
vn 0.122900 -0.966800 -0.223900
vn 0.098800 -0.972000 -0.213100
vn 0.028200 -0.977000 -0.211200
vn -0.112100 -0.981700 -0.154100
vn -0.315500 -0.942100 -0.113700
vn -0.536100 -0.840800 -0.074100
vn -0.680000 -0.720300 -0.137100
vn -0.698000 -0.701500 -0.143700
vn -0.608100 -0.782900 -0.131200
vn -0.507300 -0.854000 -0.115500
vn -0.626400 -0.765500 -0.147300
vn -0.434300 -0.832800 -0.343200
vn -0.533000 -0.784700 -0.316400
vn -0.543700 -0.796500 -0.264400
vn -0.446500 -0.852900 -0.270600
vn -0.319800 -0.905500 -0.278900
vn -0.318500 -0.877000 -0.359700
vn -0.317000 -0.860500 -0.398900
vn -0.442800 -0.816600 -0.370300
vn -0.553900 -0.771000 -0.314100
vn -0.197800 -0.909200 -0.366300
vn -0.187100 -0.936700 -0.296000
vn -0.076000 -0.947600 -0.310100
vn -0.086600 -0.928900 -0.360100
vn -0.061700 -0.930100 -0.362200
vn -0.186400 -0.899400 -0.395300
vn -0.155000 -0.964000 -0.215800
vn -0.318500 -0.929200 -0.187300
vn -0.034500 -0.967900 -0.248900
vn -0.473800 -0.861000 -0.184700
vn -0.577700 -0.792400 -0.195900
vn -0.471800 -0.803300 -0.363300
vn -0.599200 -0.753500 -0.270500
vn -0.316600 -0.857300 -0.405900
vn -0.318600 -0.878200 -0.356700
vn -0.536600 -0.794400 -0.284600
vn -0.624700 -0.743600 -0.238300
vn -0.154400 -0.905900 -0.394200
vn -0.007800 -0.944500 -0.328400
vn 0.024000 -0.953100 -0.301700
vn -0.084000 -0.940700 -0.328700
vn -0.810100 0.301700 0.502700
vn -0.591600 0.113500 0.798200
vn -0.866400 0.343100 0.362800
vn -0.624700 -0.743600 -0.238300
vn 0.193400 -0.438800 0.877500
vn 0.676700 -0.296100 0.674100
vn -0.081500 -0.511400 0.855500
vn 0.024000 -0.953100 -0.301700
vn 0.927600 0.073800 -0.366000
vn 0.760300 0.121600 -0.638000
vn 0.984000 -0.004200 -0.178200
vn 0.122900 -0.966800 -0.223900
vn -0.500900 0.302300 -0.811000
vn -0.646000 0.576200 -0.500600
vn -0.092800 0.014700 -0.995600
vn -0.698000 -0.701500 -0.143700
vn -0.759200 0.619000 -0.201000
vn -0.816300 0.577600 -0.002100
vn -0.254300 -0.294000 0.921300
vn 0.907700 -0.253200 0.334600
vn 0.951900 -0.244200 0.184900
vn 0.431200 0.001000 -0.902200
vn 0.995000 -0.083800 -0.054000
vn 0.989800 -0.142200 0.010500
vn -0.849500 0.512100 0.126400
vn -0.867900 0.457900 0.192300
vn -0.879900 0.400600 0.255500
vn 0.977100 -0.199300 0.073800
vt 0.839504 0.118056
vt 0.856743 0.205307
vt 0.741230 0.205307
vt 0.734555 0.106726
vt 0.724541 0.032791
vt 0.813647 0.052618
vt 0.868992 0.081539
vt 0.913398 0.129584
vt 0.940923 0.205307
vt 0.839504 0.292557
vt 0.813647 0.357995
vt 0.724541 0.377822
vt 0.734555 0.303887
vt 0.913398 0.281029
vt 0.868992 0.329074
vt 0.369475 0.299954
vt 0.368286 0.370940
vt 0.245840 0.351447
vt 0.246397 0.288815
vt 0.246768 0.205307
vt 0.370268 0.205307
vt 0.494283 0.205307
vt 0.492822 0.304944
vt 0.490632 0.379672
vt 0.369475 0.110659
vt 0.246397 0.121798
vt 0.245841 0.059166
vt 0.368286 0.039673
vt 0.490632 0.030941
vt 0.492822 0.105669
vt 0.616755 0.103478
vt 0.619174 0.205307
vt 0.613127 0.027106
vt 0.616755 0.307135
vt 0.613126 0.383507
vt 0.123273 0.268175
vt 0.123047 0.315326
vt 0.054743 0.283353
vt 0.030912 0.249131
vt 0.030973 0.205306
vt 0.123423 0.205306
vt 0.123273 0.142438
vt 0.030912 0.161481
vt 0.054744 0.127260
vt 0.123047 0.095287
vt 0.839504 0.118056
vt 0.856743 0.205307
vt 0.968983 0.205307
vt 0.938030 0.133427
vt 0.876123 0.061548
vt 0.805028 0.030806
vt 0.721203 0.008146
vt 0.734555 0.106726
vt 0.741230 0.205307
vt 0.839504 0.292557
vt 0.805028 0.379807
vt 0.876123 0.349065
vt 0.938030 0.277186
vt 0.734555 0.303887
vt 0.721203 0.402467
vt 0.369475 0.299954
vt 0.367890 0.394602
vt 0.489902 0.404581
vt 0.492822 0.304944
vt 0.494283 0.205307
vt 0.370268 0.205307
vt 0.246768 0.205307
vt 0.246397 0.288815
vt 0.245655 0.372324
vt 0.369475 0.110659
vt 0.492822 0.105669
vt 0.489902 0.006032
vt 0.367890 0.016011
vt 0.245655 0.038289
vt 0.246397 0.121798
vt 0.616755 0.103478
vt 0.619174 0.205307
vt 0.611917 0.001649
vt 0.616755 0.307135
vt 0.611917 0.408964
vt 0.123273 0.268175
vt 0.122972 0.331043
vt 0.123423 0.205306
vt 0.000156 0.205306
vt 0.000125 0.242784
vt 0.000064 0.280261
vt 0.123273 0.142438
vt 0.122972 0.079570
vt 0.000064 0.130352
vt 0.000125 0.167829
vt 0.122972 0.331043
vt 0.030806 0.283587
vt 0.245655 0.372324
vt 0.030806 0.283587
vt 0.000125 0.167829
vt 0.030806 0.127026
vt 0.000156 0.205306
vt 0.030806 0.127026
vt 0.805028 0.030806
vt 0.873826 0.071832
vt 0.721203 0.008146
vt 0.873826 0.071832
vt 0.938030 0.277186
vt 0.873826 0.338781
vt 0.968983 0.205307
vt 0.873826 0.338781
vt 0.805028 0.379807
vt 0.721203 0.402467
vt 0.000125 0.242784
vt 0.122972 0.079570
vt 0.245655 0.038289
vt 0.938030 0.133427
vt 0.611917 0.001649
vt 0.489902 0.006032
vt 0.611917 0.408964
vt 0.489902 0.404581
vt 0.367890 0.394602
vt 0.367890 0.016011
f 1/1/1 2/2/2 3/3/3
f 1/1/1 3/3/3 4/4/4
f 1/1/1 4/4/4 5/5/5
f 1/1/1 5/5/5 6/6/6
f 1/1/1 6/6/6 7/7/7
f 1/1/1 7/7/7 8/8/8
f 1/1/1 8/8/8 9/9/9
f 1/1/1 9/9/9 2/2/2
f 10/10/10 11/11/11 12/12/12
f 10/10/10 12/12/12 13/13/13
f 10/10/10 13/13/13 3/3/3
f 10/10/10 3/3/3 2/2/2
f 10/10/10 2/2/2 9/9/9
f 10/10/10 9/9/9 14/14/14
f 10/10/10 14/14/14 15/15/15
f 10/10/10 15/15/15 11/11/11
f 16/16/16 17/17/17 18/18/18
f 16/16/16 18/18/18 19/19/19
f 16/16/16 19/19/19 20/20/20
f 16/16/16 20/20/20 21/21/21
f 16/16/16 21/21/21 22/22/22
f 16/16/16 22/22/22 23/23/23
f 16/16/16 23/23/23 24/24/24
f 16/16/16 24/24/24 17/17/17
f 25/25/25 21/21/21 20/20/20
f 25/25/25 20/20/20 26/26/26
f 25/25/25 26/26/26 27/27/27
f 25/25/25 27/27/27 28/28/28
f 25/25/25 28/28/28 29/29/29
f 25/25/25 29/29/29 30/30/30
f 25/25/25 30/30/30 22/22/22
f 25/25/25 22/22/22 21/21/21
f 31/31/31 32/32/32 22/22/22
f 31/31/31 22/22/22 30/30/30
f 31/31/31 30/30/30 29/29/29
f 31/31/31 29/29/29 33/33/33
f 31/31/31 33/33/33 5/5/5
f 31/31/31 5/5/5 4/4/4
f 31/31/31 4/4/4 3/3/3
f 31/31/31 3/3/3 32/32/32
f 34/34/34 35/35/35 24/24/24
f 34/34/34 24/24/24 23/23/23
f 34/34/34 23/23/23 22/22/22
f 34/34/34 22/22/22 32/32/32
f 34/34/34 32/32/32 3/3/3
f 34/34/34 3/3/3 13/13/13
f 34/34/34 13/13/13 12/12/12
f 34/34/34 12/12/12 35/35/35
f 36/36/36 37/37/37 38/38/38
f 36/36/36 38/38/38 39/39/39
f 36/36/36 39/39/39 40/40/40
f 36/36/36 40/40/40 41/41/41
f 36/36/36 41/41/41 20/20/20
f 36/36/36 20/20/20 19/19/19
f 36/36/36 19/19/19 18/18/18
f 36/36/36 18/18/18 37/37/37
f 42/42/42 41/41/41 40/40/40
f 42/42/42 40/40/40 43/43/43
f 42/42/42 43/43/43 44/44/44
f 42/42/42 44/44/44 45/45/45
f 42/42/42 45/45/45 27/27/27
f 42/42/42 27/27/27 26/26/26
f 42/42/42 26/26/26 20/20/20
f 42/42/42 20/20/20 41/41/41
f 46/46/46 47/47/47 48/48/48
f 46/46/46 48/48/48 49/49/49
f 46/46/46 49/49/49 50/50/50
f 46/46/46 50/50/50 51/51/51
f 46/46/46 51/51/51 52/52/52
f 46/46/46 52/52/52 53/53/53
f 46/46/46 53/53/53 54/54/54
f 46/46/46 54/54/54 47/47/47
f 55/55/55 56/56/56 57/57/57
f 55/55/55 57/57/57 58/58/58
f 55/55/55 58/58/58 48/48/48
f 55/55/55 48/48/48 47/47/47
f 55/55/55 47/47/47 54/54/54
f 55/55/55 54/54/54 59/59/59
f 55/55/55 59/59/59 60/60/60
f 55/55/55 60/60/60 56/56/56
f 61/61/61 62/62/62 63/63/63
f 61/61/61 63/63/63 64/64/64
f 61/61/61 64/64/64 65/65/65
f 61/61/61 65/65/65 66/66/66
f 61/61/61 66/66/66 67/67/67
f 61/61/61 67/67/67 68/68/68
f 61/61/61 68/68/68 69/69/69
f 61/61/61 69/69/69 62/62/62
f 70/70/70 66/66/66 65/65/65
f 70/70/70 65/65/65 71/71/71
f 70/70/70 71/71/71 72/72/72
f 70/70/70 72/72/72 73/73/73
f 70/70/70 73/73/73 74/74/74
f 70/70/70 74/74/74 75/75/75
f 70/70/70 75/75/75 67/67/67
f 70/70/70 67/67/67 66/66/66
f 76/76/76 77/77/77 54/54/54
f 76/76/76 54/54/54 53/53/53
f 76/76/76 53/53/53 52/52/52
f 76/76/76 52/52/52 78/78/78
f 76/76/76 78/78/78 72/72/72
f 76/76/76 72/72/72 71/71/71
f 76/76/76 71/71/71 65/65/65
f 76/76/76 65/65/65 77/77/77
f 79/79/79 80/80/80 60/60/60
f 79/79/79 60/60/60 59/59/59
f 79/79/79 59/59/59 54/54/54
f 79/79/79 54/54/54 77/77/77
f 79/79/79 77/77/77 65/65/65
f 79/79/79 65/65/65 64/64/64
f 79/79/79 64/64/64 63/63/63
f 79/79/79 63/63/63 80/80/80
f 81/81/81 82/82/82 69/69/69
f 81/81/81 69/69/69 68/68/68
f 81/81/81 68/68/68 67/67/67
f 81/81/81 67/67/67 83/83/83
f 81/81/81 83/83/83 84/84/84
f 81/81/81 84/84/84 85/85/85
f 81/81/81 85/85/85 86/86/86
f 81/81/81 86/86/86 82/82/82
f 87/87/87 83/83/83 67/67/67
f 87/87/87 67/67/67 75/75/75
f 87/87/87 75/75/75 74/74/74
f 87/87/87 74/74/74 88/88/88
f 87/87/87 88/88/88 89/89/89
f 87/87/87 89/89/89 90/90/90
f 87/87/87 90/90/90 84/84/84
f 87/87/87 84/84/84 83/83/83
f 91/91/91 92/92/92 38/38/38
f 91/91/91 38/38/38 37/37/37
f 91/91/91 37/37/37 18/18/18
f 91/91/91 18/18/18 93/93/93
f 91/91/91 93/93/93 69/69/69
f 91/91/91 69/69/69 82/82/82
f 91/91/91 82/82/82 94/94/94
f 91/91/91 94/94/94 92/92/92
f 95/95/95 96/96/96 44/44/44
f 95/95/95 44/44/44 43/43/43
f 95/95/95 43/43/43 40/40/40
f 95/95/95 40/40/40 97/97/97
f 95/95/95 97/97/97 84/84/84
f 95/95/95 84/84/84 90/90/90
f 95/95/95 90/90/90 98/98/98
f 95/95/95 98/98/98 96/96/96
f 99/99/99 100/100/100 7/7/7
f 99/99/99 7/7/7 6/6/6
f 99/99/99 6/6/6 5/5/5
f 99/99/99 5/5/5 101/101/101
f 99/99/99 101/101/101 52/52/52
f 99/99/99 52/52/52 51/51/51
f 99/99/99 51/51/51 102/102/102
f 99/99/99 102/102/102 100/100/100
f 103/103/103 104/104/104 15/15/15
f 103/103/103 15/15/15 14/14/14
f 103/103/103 14/14/14 9/9/9
f 103/103/103 9/9/9 105/105/105
f 103/103/103 105/105/105 48/48/48
f 103/103/103 48/48/48 58/58/58
f 103/103/103 58/58/58 106/106/106
f 103/103/103 106/106/106 104/104/104
f 107/107/107 108/108/108 12/12/12
f 107/107/107 12/12/12 11/11/11
f 107/107/107 11/11/11 15/15/15
f 107/107/107 15/15/15 104/104/104
f 107/107/107 104/104/104 106/106/106
f 107/107/107 106/106/106 56/56/56
f 107/107/107 56/56/56 60/60/60
f 107/107/107 60/60/60 108/108/108
f 109/109/109 97/97/97 40/40/40
f 109/109/109 40/40/40 39/39/39
f 109/109/109 39/39/39 38/38/38
f 109/109/109 38/38/38 92/92/92
f 109/109/109 92/92/92 94/94/94
f 109/109/109 94/94/94 85/85/85
f 109/109/109 85/85/85 84/84/84
f 109/109/109 84/84/84 97/97/97
f 110/110/110 111/111/111 27/27/27
f 110/110/110 27/27/27 45/45/45
f 110/110/110 45/45/45 44/44/44
f 110/110/110 44/44/44 96/96/96
f 110/110/110 96/96/96 98/98/98
f 110/110/110 98/98/98 88/88/88
f 110/110/110 88/88/88 74/74/74
f 110/110/110 74/74/74 111/111/111
f 112/112/112 105/105/105 9/9/9
f 112/112/112 9/9/9 8/8/8
f 112/112/112 8/8/8 7/7/7
f 112/112/112 7/7/7 100/100/100
f 112/112/112 100/100/100 102/102/102
f 112/112/112 102/102/102 49/49/49
f 112/112/112 49/49/49 48/48/48
f 112/112/112 48/48/48 105/105/105
f 113/113/113 101/101/101 5/5/5
f 113/113/113 5/5/5 33/33/33
f 113/113/113 33/33/33 29/29/29
f 113/113/113 29/29/29 114/114/114
f 113/113/113 114/114/114 72/72/72
f 113/113/113 72/72/72 78/78/78
f 113/113/113 78/78/78 52/52/52
f 113/113/113 52/52/52 101/101/101
f 115/115/115 116/116/116 24/24/24
f 115/115/115 24/24/24 35/35/35
f 115/115/115 35/35/35 12/12/12
f 115/115/115 12/12/12 108/108/108
f 115/115/115 108/108/108 60/60/60
f 115/115/115 60/60/60 80/80/80
f 115/115/115 80/80/80 63/63/63
f 115/115/115 63/63/63 116/116/116
f 117/117/117 93/93/93 18/18/18
f 117/117/117 18/18/18 17/17/17
f 117/117/117 17/17/17 24/24/24
f 117/117/117 24/24/24 116/116/116
f 117/117/117 116/116/116 63/63/63
f 117/117/117 63/63/63 62/62/62
f 117/117/117 62/62/62 69/69/69
f 117/117/117 69/69/69 93/93/93
f 118/118/118 114/114/114 29/29/29
f 118/118/118 29/29/29 28/28/28
f 118/118/118 28/28/28 27/27/27
f 118/118/118 27/27/27 111/111/111
f 118/118/118 111/111/111 74/74/74
f 118/118/118 74/74/74 73/73/73
f 118/118/118 73/73/73 72/72/72
f 118/118/118 72/72/72 114/114/114
