v -2.376179 0.721516 -1.102253
v -2.376562 0.721183 -1.100571
v -2.374776 0.719722 -1.100951
v -2.374570 0.720224 -1.102827
v -2.374223 0.720661 -1.104235
v -2.375573 0.721733 -1.103540
v -2.376528 0.722197 -1.102825
v -2.377377 0.722347 -1.101796
v -2.377922 0.722192 -1.100304
v -2.376054 0.720805 -1.098933
v -2.375354 0.720487 -1.097717
v -2.373974 0.719244 -1.097620
v -2.374428 0.719416 -1.099054
v -2.377268 0.721732 -1.098922
v -2.376350 0.721187 -1.098109
v -2.369752 0.713955 -1.100440
v -2.369534 0.713749 -1.099036
v -2.368285 0.711738 -1.099905
v -2.368489 0.711917 -1.101148
v -2.368668 0.712203 -1.102792
v -2.369945 0.714282 -1.102298
v -2.371361 0.716259 -1.101822
v -2.371146 0.715929 -1.099875
v -2.370896 0.715729 -1.098404
v -2.369891 0.714747 -1.104137
v -2.368612 0.712617 -1.104417
v -2.368501 0.712965 -1.105635
v -2.369778 0.715136 -1.105514
v -2.371152 0.717180 -1.105181
v -2.371292 0.716757 -1.103743
v -2.372896 0.718610 -1.103315
v -2.373007 0.718077 -1.101370
v -2.372692 0.719082 -1.104768
v -2.372748 0.717770 -1.099391
v -2.372432 0.717610 -1.097891
v -2.367279 0.709882 -1.102063
v -2.367091 0.709767 -1.101132
v -2.366507 0.708678 -1.102053
v -2.366412 0.708344 -1.102828
v -2.366558 0.708460 -1.103673
v -2.367440 0.710080 -1.103292
v -2.367371 0.710404 -1.104504
v -2.366475 0.708702 -1.104500
v -2.366621 0.709322 -1.105061
v -2.367252 0.710683 -1.105411
v -2.376302 0.721389 -1.102302
v -2.376685 0.721049 -1.100595
v -2.378013 0.722090 -1.100322
v -2.377467 0.722250 -1.101834
v -2.376595 0.722127 -1.102858
v -2.375665 0.721642 -1.103588
v -2.374320 0.720572 -1.104279
v -2.374699 0.720101 -1.102872
v -2.374905 0.719593 -1.100974
v -2.376175 0.720667 -1.098932
v -2.375443 0.720382 -1.097703
v -2.376415 0.721109 -1.098103
v -2.377357 0.721627 -1.098921
v -2.374555 0.719284 -1.099054
v -2.374068 0.719144 -1.097609
v -2.369903 0.713849 -1.100440
v -2.369646 0.713667 -1.099028
v -2.371003 0.715641 -1.098397
v -2.371290 0.715814 -1.099877
v -2.371507 0.716148 -1.101840
v -2.370097 0.714179 -1.102315
v -2.368824 0.712105 -1.102807
v -2.368644 0.711816 -1.101146
v -2.368400 0.711662 -1.099896
v -2.370044 0.714647 -1.104169
v -2.371438 0.716649 -1.103778
v -2.371261 0.717101 -1.105216
v -2.369892 0.715063 -1.105546
v -2.368618 0.712897 -1.105666
v -2.368768 0.712523 -1.104448
v -2.373034 0.718494 -1.103355
v -2.373144 0.717956 -1.101391
v -2.372794 0.718998 -1.104808
v -2.372884 0.717646 -1.099392
v -2.372533 0.717515 -1.097882
v -2.367435 0.709783 -1.102061
v -2.367207 0.709692 -1.101122
v -2.367598 0.709985 -1.103307
v -2.366677 0.708389 -1.103683
v -2.366529 0.708270 -1.102825
v -2.366593 0.708623 -1.102047
v -2.367529 0.710313 -1.104535
v -2.367370 0.710617 -1.105443
v -2.366708 0.709273 -1.105083
v -2.366593 0.708634 -1.104524
v -2.367079 0.709695 -1.100815
v -2.366272 0.708258 -1.102148
v -2.368268 0.711644 -1.099485
v -2.366593 0.708623 -1.102047
v -2.366228 0.708104 -1.104509
v -2.366386 0.708904 -1.105163
v -2.366317 0.707889 -1.103804
v -2.366708 0.709273 -1.105083
v -2.375412 0.721766 -1.103993
v -2.376589 0.722328 -1.102996
v -2.374151 0.720767 -1.104726
v -2.376595 0.722127 -1.102858
v -2.377712 0.721993 -1.098918
v -2.376396 0.721236 -1.097895
v -2.378416 0.722483 -1.100223
v -2.376415 0.721109 -1.098103
v -2.375160 0.720334 -1.097303
v -2.373864 0.719142 -1.097135
v -2.366174 0.707798 -1.103081
v -2.367265 0.710747 -1.105730
v -2.368516 0.713051 -1.106057
v -2.377815 0.722581 -1.101661
v -2.372669 0.719203 -1.105272
v -2.371154 0.717286 -1.105678
v -2.372371 0.717514 -1.097385
v -2.370860 0.715623 -1.097909
v -2.369511 0.713643 -1.098563
v -2.369791 0.715233 -1.105989
vn 0.639600 0.687200 0.344500
vn 0.630500 0.763500 0.139700
vn 0.675800 0.725500 0.129800
vn 0.686400 0.656500 0.312800
vn 0.705000 0.642800 0.299500
vn 0.640700 0.689700 0.337100
vn 0.592100 0.720300 0.361200
vn 0.569800 0.756300 0.321300
vn 0.555300 0.817200 0.154000
vn 0.623600 0.777800 -0.078500
vn 0.625400 0.777100 -0.070900
vn 0.691500 0.719800 -0.060400
vn 0.672100 0.737500 -0.065500
vn 0.556900 0.830200 -0.024300
vn 0.575700 0.814000 -0.076800
vn 0.830100 0.557100 -0.023300
vn 0.838800 0.544300 0.011400
vn 0.856000 0.516900 0.008000
vn 0.846600 0.530800 -0.037600
vn 0.861900 0.501400 0.074900
vn 0.839600 0.536800 0.083300
vn 0.790100 0.604800 0.099600
vn 0.784500 0.619600 -0.021700
vn 0.798300 0.602200 0.001700
vn 0.838200 0.511600 0.189100
vn 0.855300 0.482000 0.190200
vn 0.861000 0.488200 0.142300
vn 0.844100 0.514200 0.151600
vn 0.805300 0.562500 0.187000
vn 0.793500 0.568600 0.216600
vn 0.736600 0.623100 0.262900
vn 0.728900 0.674600 0.116900
vn 0.755300 0.608900 0.242100
vn 0.725300 0.687400 -0.037500
vn 0.745200 0.666300 -0.025800
vn 0.850100 0.522600 -0.065600
vn 0.863200 0.504500 -0.017900
vn 0.867200 0.495100 -0.052600
vn 0.873500 0.476700 -0.098500
vn 0.898000 0.435800 0.059500
vn 0.871900 0.484500 0.070900
vn 0.860600 0.463000 0.212100
vn 0.885500 0.408300 0.221600
vn 0.876400 0.443500 0.187500
vn 0.870000 0.466400 0.160200
vn -0.654200 -0.661700 -0.366300
vn -0.643200 -0.753300 -0.137000
vn -0.690600 -0.712100 -0.126400
vn -0.690200 -0.581700 -0.430300
vn -0.683300 -0.506400 -0.526000
vn -0.682600 -0.525800 -0.507500
vn -0.699100 -0.558200 -0.446700
vn -0.686000 -0.650100 -0.326700
vn -0.675700 -0.725600 -0.129800
vn -0.636200 -0.763600 0.109900
vn -0.652300 -0.697800 0.295900
vn -0.651300 -0.687700 0.320700
vn -0.666200 -0.717500 0.203300
vn -0.670600 -0.737400 0.080800
vn -0.673600 -0.702800 0.228400
vn -0.827200 -0.560500 0.039000
vn -0.800700 -0.580700 0.146900
vn -0.767400 -0.623800 0.148000
vn -0.782200 -0.621900 0.036500
vn -0.790200 -0.604600 -0.099600
vn -0.839700 -0.536600 -0.083200
vn -0.862000 -0.501400 -0.074800
vn -0.842100 -0.536400 0.055400
vn -0.795800 -0.580700 0.171600
vn -0.836400 -0.508300 -0.205000
vn -0.792300 -0.564600 -0.231100
vn -0.785700 -0.520500 -0.334300
vn -0.818100 -0.482200 -0.313400
vn -0.815000 -0.471900 -0.336100
vn -0.852100 -0.479800 -0.209000
vn -0.735600 -0.618300 -0.276700
vn -0.728900 -0.674600 -0.116900
vn -0.738200 -0.554300 -0.384200
vn -0.723100 -0.688700 0.051900
vn -0.717200 -0.674300 0.176000
vn -0.835500 -0.542600 0.086700
vn -0.760900 -0.611400 0.217100
vn -0.865900 -0.494800 -0.073200
vn -0.837900 -0.539300 -0.083800
vn -0.781200 -0.607500 0.143800
vn -0.734900 -0.633300 0.242400
vn -0.847900 -0.472400 -0.240500
vn -0.783900 -0.480800 -0.392700
vn -0.760100 -0.490100 -0.426600
vn -0.798500 -0.507900 -0.323000
vn 0.395600 -0.397800 0.827800
vn 0.578800 -0.619200 0.530600
vn 0.293200 -0.309000 0.904700
vn -0.734900 -0.633300 0.242400
vn 0.511700 -0.749000 -0.420800
vn 0.529700 -0.339200 -0.777300
vn 0.394300 -0.895500 -0.206300
vn -0.760100 -0.490100 -0.426600
vn -0.054800 0.631300 -0.773600
vn -0.284200 0.758400 -0.586500
vn 0.067000 0.488000 -0.870300
vn -0.683300 -0.506400 -0.526000
vn -0.599100 0.492400 0.631400
vn -0.229400 0.448000 0.864100
vn -0.817000 0.556800 0.149800
vn -0.651300 -0.687700 0.320700
vn 0.011600 0.258200 0.966000
vn 0.137200 0.090100 0.986400
vn 0.528800 -0.847700 0.040700
vn 0.328600 -0.018400 -0.944300
vn 0.222100 0.092800 -0.970600
vn -0.635400 0.698200 -0.329800
vn 0.126300 0.363000 -0.923200
vn 0.144900 0.282100 -0.948400
vn 0.198200 -0.044400 0.979200
vn 0.217900 -0.128700 0.967400
vn 0.235000 -0.210900 0.948800
vn 0.162400 0.199300 -0.966300
vt 0.839504 0.118056
vt 0.856743 0.205307
vt 0.741230 0.205307
vt 0.734555 0.106726
vt 0.724541 0.032791
vt 0.813647 0.052618
vt 0.868992 0.081539
vt 0.913398 0.129584
vt 0.940923 0.205307
vt 0.839504 0.292557
vt 0.813647 0.357995
vt 0.724541 0.377822
vt 0.734555 0.303887
vt 0.913398 0.281029
vt 0.868992 0.329074
vt 0.369475 0.299954
vt 0.368286 0.370940
vt 0.245840 0.351447
vt 0.246397 0.288815
vt 0.246768 0.205307
vt 0.370268 0.205307
vt 0.494283 0.205307
vt 0.492822 0.304944
vt 0.490632 0.379672
vt 0.369475 0.110659
vt 0.246397 0.121798
vt 0.245841 0.059166
vt 0.368286 0.039673
vt 0.490632 0.030941
vt 0.492822 0.105669
vt 0.616755 0.103478
vt 0.619174 0.205307
vt 0.613127 0.027106
vt 0.616755 0.307135
vt 0.613126 0.383507
vt 0.123273 0.268175
vt 0.123047 0.315326
vt 0.054743 0.283353
vt 0.030912 0.249131
vt 0.030973 0.205306
vt 0.123423 0.205306
vt 0.123273 0.142438
vt 0.030912 0.161481
vt 0.054744 0.127260
vt 0.123047 0.095287
vt 0.839504 0.118056
vt 0.856743 0.205307
vt 0.968983 0.205307
vt 0.938030 0.133427
vt 0.876123 0.061548
vt 0.805028 0.030806
vt 0.721203 0.008146
vt 0.734555 0.106726
vt 0.741230 0.205307
vt 0.839504 0.292557
vt 0.805028 0.379807
vt 0.876123 0.349065
vt 0.938030 0.277186
vt 0.734555 0.303887
vt 0.721203 0.402467
vt 0.369475 0.299954
vt 0.367890 0.394602
vt 0.489902 0.404581
vt 0.492822 0.304944
vt 0.494283 0.205307
vt 0.370268 0.205307
vt 0.246768 0.205307
vt 0.246397 0.288815
vt 0.245655 0.372324
vt 0.369475 0.110659
vt 0.492822 0.105669
vt 0.489902 0.006032
vt 0.367890 0.016011
vt 0.245655 0.038289
vt 0.246397 0.121798
vt 0.616755 0.103478
vt 0.619174 0.205307
vt 0.611917 0.001649
vt 0.616755 0.307135
vt 0.611917 0.408964
vt 0.123273 0.268175
vt 0.122972 0.331043
vt 0.123423 0.205306
vt 0.000156 0.205306
vt 0.000125 0.242784
vt 0.000064 0.280261
vt 0.123273 0.142438
vt 0.122972 0.079570
vt 0.000064 0.130352
vt 0.000125 0.167829
vt 0.122972 0.331043
vt 0.030806 0.283587
vt 0.245655 0.372324
vt 0.030806 0.283587
vt 0.000125 0.167829
vt 0.030806 0.127026
vt 0.000156 0.205306
vt 0.030806 0.127026
vt 0.805028 0.030806
vt 0.873826 0.071832
vt 0.721203 0.008146
vt 0.873826 0.071832
vt 0.938030 0.277186
vt 0.873826 0.338781
vt 0.968983 0.205307
vt 0.873826 0.338781
vt 0.805028 0.379807
vt 0.721203 0.402467
vt 0.000125 0.242784
vt 0.122972 0.079570
vt 0.245655 0.038289
vt 0.938030 0.133427
vt 0.611917 0.001649
vt 0.489902 0.006032
vt 0.611917 0.408964
vt 0.489902 0.404581
vt 0.367890 0.394602
vt 0.367890 0.016011
f 1/1/1 2/2/2 3/3/3
f 1/1/1 3/3/3 4/4/4
f 1/1/1 4/4/4 5/5/5
f 1/1/1 5/5/5 6/6/6
f 1/1/1 6/6/6 7/7/7
f 1/1/1 7/7/7 8/8/8
f 1/1/1 8/8/8 9/9/9
f 1/1/1 9/9/9 2/2/2
f 10/10/10 11/11/11 12/12/12
f 10/10/10 12/12/12 13/13/13
f 10/10/10 13/13/13 3/3/3
f 10/10/10 3/3/3 2/2/2
f 10/10/10 2/2/2 9/9/9
f 10/10/10 9/9/9 14/14/14
f 10/10/10 14/14/14 15/15/15
f 10/10/10 15/15/15 11/11/11
f 16/16/16 17/17/17 18/18/18
f 16/16/16 18/18/18 19/19/19
f 16/16/16 19/19/19 20/20/20
f 16/16/16 20/20/20 21/21/21
f 16/16/16 21/21/21 22/22/22
f 16/16/16 22/22/22 23/23/23
f 16/16/16 23/23/23 24/24/24
f 16/16/16 24/24/24 17/17/17
f 25/25/25 21/21/21 20/20/20
f 25/25/25 20/20/20 26/26/26
f 25/25/25 26/26/26 27/27/27
f 25/25/25 27/27/27 28/28/28
f 25/25/25 28/28/28 29/29/29
f 25/25/25 29/29/29 30/30/30
f 25/25/25 30/30/30 22/22/22
f 25/25/25 22/22/22 21/21/21
f 31/31/31 32/32/32 22/22/22
f 31/31/31 22/22/22 30/30/30
f 31/31/31 30/30/30 29/29/29
f 31/31/31 29/29/29 33/33/33
f 31/31/31 33/33/33 5/5/5
f 31/31/31 5/5/5 4/4/4
f 31/31/31 4/4/4 3/3/3
f 31/31/31 3/3/3 32/32/32
f 34/34/34 35/35/35 24/24/24
f 34/34/34 24/24/24 23/23/23
f 34/34/34 23/23/23 22/22/22
f 34/34/34 22/22/22 32/32/32
f 34/34/34 32/32/32 3/3/3
f 34/34/34 3/3/3 13/13/13
f 34/34/34 13/13/13 12/12/12
f 34/34/34 12/12/12 35/35/35
f 36/36/36 37/37/37 38/38/38
f 36/36/36 38/38/38 39/39/39
f 36/36/36 39/39/39 40/40/40
f 36/36/36 40/40/40 41/41/41
f 36/36/36 41/41/41 20/20/20
f 36/36/36 20/20/20 19/19/19
f 36/36/36 19/19/19 18/18/18
f 36/36/36 18/18/18 37/37/37
f 42/42/42 41/41/41 40/40/40
f 42/42/42 40/40/40 43/43/43
f 42/42/42 43/43/43 44/44/44
f 42/42/42 44/44/44 45/45/45
f 42/42/42 45/45/45 27/27/27
f 42/42/42 27/27/27 26/26/26
f 42/42/42 26/26/26 20/20/20
f 42/42/42 20/20/20 41/41/41
f 46/46/46 47/47/47 48/48/48
f 46/46/46 48/48/48 49/49/49
f 46/46/46 49/49/49 50/50/50
f 46/46/46 50/50/50 51/51/51
f 46/46/46 51/51/51 52/52/52
f 46/46/46 52/52/52 53/53/53
f 46/46/46 53/53/53 54/54/54
f 46/46/46 54/54/54 47/47/47
f 55/55/55 56/56/56 57/57/57
f 55/55/55 57/57/57 58/58/58
f 55/55/55 58/58/58 48/48/48
f 55/55/55 48/48/48 47/47/47
f 55/55/55 47/47/47 54/54/54
f 55/55/55 54/54/54 59/59/59
f 55/55/55 59/59/59 60/60/60
f 55/55/55 60/60/60 56/56/56
f 61/61/61 62/62/62 63/63/63
f 61/61/61 63/63/63 64/64/64
f 61/61/61 64/64/64 65/65/65
f 61/61/61 65/65/65 66/66/66
f 61/61/61 66/66/66 67/67/67
f 61/61/61 67/67/67 68/68/68
f 61/61/61 68/68/68 69/69/69
f 61/61/61 69/69/69 62/62/62
f 70/70/70 66/66/66 65/65/65
f 70/70/70 65/65/65 71/71/71
f 70/70/70 71/71/71 72/72/72
f 70/70/70 72/72/72 73/73/73
f 70/70/70 73/73/73 74/74/74
f 70/70/70 74/74/74 75/75/75
f 70/70/70 75/75/75 67/67/67
f 70/70/70 67/67/67 66/66/66
f 76/76/76 77/77/77 54/54/54
f 76/76/76 54/54/54 53/53/53
f 76/76/76 53/53/53 52/52/52
f 76/76/76 52/52/52 78/78/78
f 76/76/76 78/78/78 72/72/72
f 76/76/76 72/72/72 71/71/71
f 76/76/76 71/71/71 65/65/65
f 76/76/76 65/65/65 77/77/77
f 79/79/79 80/80/80 60/60/60
f 79/79/79 60/60/60 59/59/59
f 79/79/79 59/59/59 54/54/54
f 79/79/79 54/54/54 77/77/77
f 79/79/79 77/77/77 65/65/65
f 79/79/79 65/65/65 64/64/64
f 79/79/79 64/64/64 63/63/63
f 79/79/79 63/63/63 80/80/80
f 81/81/81 82/82/82 69/69/69
f 81/81/81 69/69/69 68/68/68
f 81/81/81 68/68/68 67/67/67
f 81/81/81 67/67/67 83/83/83
f 81/81/81 83/83/83 84/84/84
f 81/81/81 84/84/84 85/85/85
f 81/81/81 85/85/85 86/86/86
f 81/81/81 86/86/86 82/82/82
f 87/87/87 83/83/83 67/67/67
f 87/87/87 67/67/67 75/75/75
f 87/87/87 75/75/75 74/74/74
f 87/87/87 74/74/74 88/88/88
f 87/87/87 88/88/88 89/89/89
f 87/87/87 89/89/89 90/90/90
f 87/87/87 90/90/90 84/84/84
f 87/87/87 84/84/84 83/83/83
f 91/91/91 92/92/92 38/38/38
f 91/91/91 38/38/38 37/37/37
f 91/91/91 37/37/37 18/18/18
f 91/91/91 18/18/18 93/93/93
f 91/91/91 93/93/93 69/69/69
f 91/91/91 69/69/69 82/82/82
f 91/91/91 82/82/82 94/94/94
f 91/91/91 94/94/94 92/92/92
f 95/95/95 96/96/96 44/44/44
f 95/95/95 44/44/44 43/43/43
f 95/95/95 43/43/43 40/40/40
f 95/95/95 40/40/40 97/97/97
f 95/95/95 97/97/97 84/84/84
f 95/95/95 84/84/84 90/90/90
f 95/95/95 90/90/90 98/98/98
f 95/95/95 98/98/98 96/96/96
f 99/99/99 100/100/100 7/7/7
f 99/99/99 7/7/7 6/6/6
f 99/99/99 6/6/6 5/5/5
f 99/99/99 5/5/5 101/101/101
f 99/99/99 101/101/101 52/52/52
f 99/99/99 52/52/52 51/51/51
f 99/99/99 51/51/51 102/102/102
f 99/99/99 102/102/102 100/100/100
f 103/103/103 104/104/104 15/15/15
f 103/103/103 15/15/15 14/14/14
f 103/103/103 14/14/14 9/9/9
f 103/103/103 9/9/9 105/105/105
f 103/103/103 105/105/105 48/48/48
f 103/103/103 48/48/48 58/58/58
f 103/103/103 58/58/58 106/106/106
f 103/103/103 106/106/106 104/104/104
f 107/107/107 108/108/108 12/12/12
f 107/107/107 12/12/12 11/11/11
f 107/107/107 11/11/11 15/15/15
f 107/107/107 15/15/15 104/104/104
f 107/107/107 104/104/104 106/106/106
f 107/107/107 106/106/106 56/56/56
f 107/107/107 56/56/56 60/60/60
f 107/107/107 60/60/60 108/108/108
f 109/109/109 97/97/97 40/40/40
f 109/109/109 40/40/40 39/39/39
f 109/109/109 39/39/39 38/38/38
f 109/109/109 38/38/38 92/92/92
f 109/109/109 92/92/92 94/94/94
f 109/109/109 94/94/94 85/85/85
f 109/109/109 85/85/85 84/84/84
f 109/109/109 84/84/84 97/97/97
f 110/110/110 111/111/111 27/27/27
f 110/110/110 27/27/27 45/45/45
f 110/110/110 45/45/45 44/44/44
f 110/110/110 44/44/44 96/96/96
f 110/110/110 96/96/96 98/98/98
f 110/110/110 98/98/98 88/88/88
f 110/110/110 88/88/88 74/74/74
f 110/110/110 74/74/74 111/111/111
f 112/112/112 105/105/105 9/9/9
f 112/112/112 9/9/9 8/8/8
f 112/112/112 8/8/8 7/7/7
f 112/112/112 7/7/7 100/100/100
f 112/112/112 100/100/100 102/102/102
f 112/112/112 102/102/102 49/49/49
f 112/112/112 49/49/49 48/48/48
f 112/112/112 48/48/48 105/105/105
f 113/113/113 101/101/101 5/5/5
f 113/113/113 5/5/5 33/33/33
f 113/113/113 33/33/33 29/29/29
f 113/113/113 29/29/29 114/114/114
f 113/113/113 114/114/114 72/72/72
f 113/113/113 72/72/72 78/78/78
f 113/113/113 78/78/78 52/52/52
f 113/113/113 52/52/52 101/101/101
f 115/115/115 116/116/116 24/24/24
f 115/115/115 24/24/24 35/35/35
f 115/115/115 35/35/35 12/12/12
f 115/115/115 12/12/12 108/108/108
f 115/115/115 108/108/108 60/60/60
f 115/115/115 60/60/60 80/80/80
f 115/115/115 80/80/80 63/63/63
f 115/115/115 63/63/63 116/116/116
f 117/117/117 93/93/93 18/18/18
f 117/117/117 18/18/18 17/17/17
f 117/117/117 17/17/17 24/24/24
f 117/117/117 24/24/24 116/116/116
f 117/117/117 116/116/116 63/63/63
f 117/117/117 63/63/63 62/62/62
f 117/117/117 62/62/62 69/69/69
f 117/117/117 69/69/69 93/93/93
f 118/118/118 114/114/114 29/29/29
f 118/118/118 29/29/29 28/28/28
f 118/118/118 28/28/28 27/27/27
f 118/118/118 27/27/27 111/111/111
f 118/118/118 111/111/111 74/74/74
f 118/118/118 74/74/74 73/73/73
f 118/118/118 73/73/73 72/72/72
f 118/118/118 72/72/72 114/114/114
