v -2.462930 0.755727 -1.111894
v -2.464164 0.755472 -1.109587
v -2.460913 0.754470 -1.108770
v -2.459889 0.754799 -1.111488
v -2.458898 0.755240 -1.113476
v -2.461557 0.756058 -1.113519
v -2.463413 0.756294 -1.113114
v -2.465146 0.756249 -1.112100
v -2.466580 0.756091 -1.110196
v -2.464184 0.755677 -1.106967
v -2.463756 0.755971 -1.104877
v -2.461396 0.755141 -1.103660
v -2.461314 0.754743 -1.105888
v -2.466232 0.756206 -1.107835
v -2.465194 0.756223 -1.106116
v -2.451806 0.749813 -1.103578
v -2.452164 0.750017 -1.101470
v -2.449094 0.747830 -1.101302
v -2.448788 0.747638 -1.103170
v -2.448289 0.747503 -1.105628
v -2.451230 0.749671 -1.106355
v -2.454297 0.751615 -1.107115
v -2.454887 0.751786 -1.104208
v -2.455243 0.752035 -1.101997
v -2.450409 0.749868 -1.109065
v -2.447554 0.747687 -1.108023
v -2.446930 0.747916 -1.109806
v -2.449718 0.750114 -1.111084
v -2.452684 0.752137 -1.112054
v -2.453427 0.751844 -1.109948
v -2.456654 0.753496 -1.110797
v -2.457574 0.753199 -1.107933
v -2.455842 0.753890 -1.112920
v -2.458136 0.753438 -1.104973
v -2.458439 0.753786 -1.102713
v -2.445733 0.745382 -1.103071
v -2.445924 0.745573 -1.101665
v -2.444145 0.744221 -1.102229
v -2.443447 0.743632 -1.103114
v -2.443248 0.743489 -1.104386
v -2.445389 0.745244 -1.104913
v -2.444812 0.745418 -1.106692
v -2.442816 0.743657 -1.105595
v -2.443009 0.744266 -1.106694
v -2.444308 0.745638 -1.108015
v -2.463005 0.755469 -1.111955
v -2.464249 0.755212 -1.109612
v -2.466640 0.755895 -1.110213
v -2.465198 0.756056 -1.112147
v -2.463450 0.756152 -1.113156
v -2.461608 0.755868 -1.113583
v -2.458958 0.755052 -1.113537
v -2.459976 0.754545 -1.111547
v -2.461008 0.754213 -1.108797
v -2.464278 0.755419 -1.106954
v -2.463830 0.755780 -1.104849
v -2.465246 0.756081 -1.106099
v -2.466299 0.756012 -1.107823
v -2.461417 0.754488 -1.105882
v -2.461477 0.754952 -1.103638
v -2.451952 0.749579 -1.103593
v -2.452276 0.749842 -1.101469
v -2.455346 0.751855 -1.101992
v -2.455021 0.751545 -1.104217
v -2.454425 0.751373 -1.107150
v -2.451372 0.749437 -1.106393
v -2.448440 0.747274 -1.105669
v -2.448944 0.747410 -1.103187
v -2.449213 0.747660 -1.101302
v -2.450544 0.749635 -1.109127
v -2.453547 0.751604 -1.110008
v -2.452770 0.751957 -1.112112
v -2.449815 0.749940 -1.111142
v -2.447034 0.747746 -1.109866
v -2.447697 0.747459 -1.108087
v -2.456757 0.753248 -1.110856
v -2.457685 0.752949 -1.107964
v -2.455915 0.753705 -1.112978
v -2.458254 0.753189 -1.104975
v -2.458531 0.753601 -1.102700
v -2.445893 0.745157 -1.103087
v -2.446046 0.745405 -1.101664
v -2.445543 0.745018 -1.104954
v -2.443364 0.743320 -1.104417
v -2.443568 0.743463 -1.103125
v -2.444235 0.744096 -1.102232
v -2.444958 0.745194 -1.106759
v -2.444414 0.745470 -1.108078
v -2.443088 0.744142 -1.106737
v -2.442926 0.743489 -1.105647
v -2.446043 0.745563 -1.101193
v -2.443583 0.743771 -1.102086
v -2.449249 0.747819 -1.100677
v -2.444235 0.744096 -1.102232
v -2.442199 0.742995 -1.105253
v -2.442445 0.743816 -1.106560
v -2.442586 0.742829 -1.104224
v -2.443088 0.744142 -1.106737
v -2.461121 0.756085 -1.114093
v -2.463465 0.756391 -1.113431
v -2.458593 0.755305 -1.114169
v -2.463450 0.756152 -1.113156
v -2.466943 0.756296 -1.108118
v -2.465392 0.756315 -1.105860
v -2.467411 0.756209 -1.110406
v -2.465246 0.756081 -1.106099
v -2.463647 0.755984 -1.104164
v -2.461460 0.755191 -1.102904
v -2.442739 0.742973 -1.103133
v -2.444187 0.745637 -1.108486
v -2.446768 0.747917 -1.110429
v -2.465907 0.756337 -1.112190
v -2.455603 0.753939 -1.113656
v -2.452474 0.752155 -1.112785
v -2.458581 0.753821 -1.101951
v -2.455408 0.752038 -1.101255
v -2.452334 0.750007 -1.100764
v -2.449529 0.750119 -1.111786
vn 0.218200 0.932300 0.288400
vn 0.258300 0.963100 0.075400
vn 0.313800 0.945200 0.089400
vn 0.280400 0.918000 0.280300
vn 0.306000 0.910800 0.277100
vn 0.221000 0.933900 0.280900
vn 0.159900 0.946100 0.281500
vn 0.142900 0.963000 0.228600
vn 0.169900 0.984000 0.053200
vn 0.325000 0.936600 -0.131200
vn 0.323900 0.938000 -0.123400
vn 0.396900 0.914400 -0.079800
vn 0.375900 0.921800 -0.094800
vn 0.230100 0.966400 -0.114100
vn 0.270400 0.950500 -0.152800
vn 0.557700 0.829100 0.038100
vn 0.557200 0.826800 0.076100
vn 0.582300 0.808500 0.085400
vn 0.585800 0.809600 0.036900
vn 0.568800 0.808100 0.152900
vn 0.534800 0.832500 0.144500
vn 0.463700 0.876800 0.126800
vn 0.497000 0.867700 0.009400
vn 0.506400 0.861400 0.039700
vn 0.504100 0.827000 0.248800
vn 0.528300 0.807300 0.262900
vn 0.548300 0.807200 0.218600
vn 0.521800 0.825500 0.215200
vn 0.459600 0.859500 0.223500
vn 0.436900 0.865300 0.245700
vn 0.353000 0.899500 0.257500
vn 0.381400 0.918300 0.106300
vn 0.381300 0.890700 0.247400
vn 0.428800 0.902500 -0.040400
vn 0.449000 0.893300 -0.018200
vn 0.601400 0.798800 0.014400
vn 0.601800 0.795800 0.067000
vn 0.620700 0.783000 0.038900
vn 0.648300 0.761300 0.003600
vn 0.627200 0.760700 0.167200
vn 0.584400 0.796100 0.156700
vn 0.531300 0.796000 0.289900
vn 0.567500 0.758100 0.321100
vn 0.560200 0.780600 0.277200
vn 0.556900 0.794000 0.243800
vn -0.231500 -0.918800 -0.319700
vn -0.273700 -0.958500 -0.079300
vn -0.332300 -0.938500 -0.094000
vn -0.266100 -0.871900 -0.411000
vn -0.250400 -0.817300 -0.518800
vn -0.250200 -0.831400 -0.496100
vn -0.275800 -0.857000 -0.435300
vn -0.277200 -0.914400 -0.295000
vn -0.313700 -0.945300 -0.089400
vn -0.351700 -0.923600 0.152600
vn -0.453000 -0.839400 0.300300
vn -0.464100 -0.825700 0.320500
vn -0.426000 -0.878200 0.217200
vn -0.380100 -0.918500 0.109200
vn -0.446200 -0.863700 0.234200
vn -0.559700 -0.828400 -0.022000
vn -0.568200 -0.817900 0.090200
vn -0.525400 -0.843300 0.112400
vn -0.499500 -0.866300 0.005400
vn -0.463900 -0.876800 -0.126900
vn -0.535000 -0.832400 -0.144500
vn -0.568900 -0.808100 -0.152900
vn -0.586300 -0.809800 -0.017700
vn -0.572600 -0.811800 0.114100
vn -0.498100 -0.826000 -0.263900
vn -0.432000 -0.863600 -0.259900
vn -0.403700 -0.838500 -0.365900
vn -0.451900 -0.813300 -0.366400
vn -0.444500 -0.806700 -0.389400
vn -0.519600 -0.807200 -0.280000
vn -0.348600 -0.897100 -0.271300
vn -0.381400 -0.918300 -0.106300
vn -0.333600 -0.858500 -0.389300
vn -0.431600 -0.900400 0.054600
vn -0.475000 -0.864100 0.166200
vn -0.589600 -0.807500 0.014600
vn -0.548100 -0.818000 0.174400
vn -0.575000 -0.803400 -0.154400
vn -0.532400 -0.834200 -0.143900
vn -0.541000 -0.835000 0.100400
vn -0.527200 -0.823100 0.210900
vn -0.507100 -0.804200 -0.310000
vn -0.394200 -0.811900 -0.430500
vn -0.358400 -0.816400 -0.452800
vn -0.423200 -0.830300 -0.362600
vn 0.182300 -0.062200 0.981300
vn 0.519700 -0.238200 0.820400
vn 0.036200 -0.009800 0.999300
vn -0.527200 -0.823100 0.210900
vn 0.839500 -0.542100 -0.036000
vn 0.849700 -0.225200 -0.476700
vn 0.707600 -0.685000 0.173200
vn -0.358400 -0.816400 -0.452800
vn 0.023600 0.417100 -0.908500
vn -0.286000 0.471800 -0.834000
vn 0.210400 0.320200 -0.923700
vn -0.250400 -0.817300 -0.518800
vn -0.908200 0.311200 0.279600
vn -0.652200 0.457400 0.604400
vn -0.949700 0.201600 -0.239700
vn -0.464100 -0.825700 0.320500
vn -0.415600 0.399800 0.816900
vn -0.258100 0.301700 0.917800
vn 0.722800 -0.546900 0.422400
vn 0.629400 -0.044600 -0.775800
vn 0.509400 0.009000 -0.860500
vn -0.665700 0.320800 -0.673700
vn 0.321100 0.222400 -0.920500
vn 0.372800 0.152700 -0.915200
vn -0.158800 0.203500 0.966100
vn -0.110500 0.133400 0.984900
vn -0.062200 0.062900 0.996100
vn 0.421100 0.082200 -0.903300
vt 0.839504 0.118056
vt 0.856743 0.205307
vt 0.741230 0.205307
vt 0.734555 0.106726
vt 0.724541 0.032791
vt 0.813647 0.052618
vt 0.868992 0.081539
vt 0.913398 0.129584
vt 0.940923 0.205307
vt 0.839504 0.292557
vt 0.813647 0.357995
vt 0.724541 0.377822
vt 0.734555 0.303887
vt 0.913398 0.281029
vt 0.868992 0.329074
vt 0.369475 0.299954
vt 0.368286 0.370940
vt 0.245840 0.351447
vt 0.246397 0.288815
vt 0.246768 0.205307
vt 0.370268 0.205307
vt 0.494283 0.205307
vt 0.492822 0.304944
vt 0.490632 0.379672
vt 0.369475 0.110659
vt 0.246397 0.121798
vt 0.245841 0.059166
vt 0.368286 0.039673
vt 0.490632 0.030941
vt 0.492822 0.105669
vt 0.616755 0.103478
vt 0.619174 0.205307
vt 0.613127 0.027106
vt 0.616755 0.307135
vt 0.613126 0.383507
vt 0.123273 0.268175
vt 0.123047 0.315326
vt 0.054743 0.283353
vt 0.030912 0.249131
vt 0.030973 0.205306
vt 0.123423 0.205306
vt 0.123273 0.142438
vt 0.030912 0.161481
vt 0.054744 0.127260
vt 0.123047 0.095287
vt 0.839504 0.118056
vt 0.856743 0.205307
vt 0.968983 0.205307
vt 0.938030 0.133427
vt 0.876123 0.061548
vt 0.805028 0.030806
vt 0.721203 0.008146
vt 0.734555 0.106726
vt 0.741230 0.205307
vt 0.839504 0.292557
vt 0.805028 0.379807
vt 0.876123 0.349065
vt 0.938030 0.277186
vt 0.734555 0.303887
vt 0.721203 0.402467
vt 0.369475 0.299954
vt 0.367890 0.394602
vt 0.489902 0.404581
vt 0.492822 0.304944
vt 0.494283 0.205307
vt 0.370268 0.205307
vt 0.246768 0.205307
vt 0.246397 0.288815
vt 0.245655 0.372324
vt 0.369475 0.110659
vt 0.492822 0.105669
vt 0.489902 0.006032
vt 0.367890 0.016011
vt 0.245655 0.038289
vt 0.246397 0.121798
vt 0.616755 0.103478
vt 0.619174 0.205307
vt 0.611917 0.001649
vt 0.616755 0.307135
vt 0.611917 0.408964
vt 0.123273 0.268175
vt 0.122972 0.331043
vt 0.123423 0.205306
vt 0.000156 0.205306
vt 0.000125 0.242784
vt 0.000064 0.280261
vt 0.123273 0.142438
vt 0.122972 0.079570
vt 0.000064 0.130352
vt 0.000125 0.167829
vt 0.122972 0.331043
vt 0.030806 0.283587
vt 0.245655 0.372324
vt 0.030806 0.283587
vt 0.000125 0.167829
vt 0.030806 0.127026
vt 0.000156 0.205306
vt 0.030806 0.127026
vt 0.805028 0.030806
vt 0.873826 0.071832
vt 0.721203 0.008146
vt 0.873826 0.071832
vt 0.938030 0.277186
vt 0.873826 0.338781
vt 0.968983 0.205307
vt 0.873826 0.338781
vt 0.805028 0.379807
vt 0.721203 0.402467
vt 0.000125 0.242784
vt 0.122972 0.079570
vt 0.245655 0.038289
vt 0.938030 0.133427
vt 0.611917 0.001649
vt 0.489902 0.006032
vt 0.611917 0.408964
vt 0.489902 0.404581
vt 0.367890 0.394602
vt 0.367890 0.016011
f 1/1/1 2/2/2 3/3/3
f 1/1/1 3/3/3 4/4/4
f 1/1/1 4/4/4 5/5/5
f 1/1/1 5/5/5 6/6/6
f 1/1/1 6/6/6 7/7/7
f 1/1/1 7/7/7 8/8/8
f 1/1/1 8/8/8 9/9/9
f 1/1/1 9/9/9 2/2/2
f 10/10/10 11/11/11 12/12/12
f 10/10/10 12/12/12 13/13/13
f 10/10/10 13/13/13 3/3/3
f 10/10/10 3/3/3 2/2/2
f 10/10/10 2/2/2 9/9/9
f 10/10/10 9/9/9 14/14/14
f 10/10/10 14/14/14 15/15/15
f 10/10/10 15/15/15 11/11/11
f 16/16/16 17/17/17 18/18/18
f 16/16/16 18/18/18 19/19/19
f 16/16/16 19/19/19 20/20/20
f 16/16/16 20/20/20 21/21/21
f 16/16/16 21/21/21 22/22/22
f 16/16/16 22/22/22 23/23/23
f 16/16/16 23/23/23 24/24/24
f 16/16/16 24/24/24 17/17/17
f 25/25/25 21/21/21 20/20/20
f 25/25/25 20/20/20 26/26/26
f 25/25/25 26/26/26 27/27/27
f 25/25/25 27/27/27 28/28/28
f 25/25/25 28/28/28 29/29/29
f 25/25/25 29/29/29 30/30/30
f 25/25/25 30/30/30 22/22/22
f 25/25/25 22/22/22 21/21/21
f 31/31/31 32/32/32 22/22/22
f 31/31/31 22/22/22 30/30/30
f 31/31/31 30/30/30 29/29/29
f 31/31/31 29/29/29 33/33/33
f 31/31/31 33/33/33 5/5/5
f 31/31/31 5/5/5 4/4/4
f 31/31/31 4/4/4 3/3/3
f 31/31/31 3/3/3 32/32/32
f 34/34/34 35/35/35 24/24/24
f 34/34/34 24/24/24 23/23/23
f 34/34/34 23/23/23 22/22/22
f 34/34/34 22/22/22 32/32/32
f 34/34/34 32/32/32 3/3/3
f 34/34/34 3/3/3 13/13/13
f 34/34/34 13/13/13 12/12/12
f 34/34/34 12/12/12 35/35/35
f 36/36/36 37/37/37 38/38/38
f 36/36/36 38/38/38 39/39/39
f 36/36/36 39/39/39 40/40/40
f 36/36/36 40/40/40 41/41/41
f 36/36/36 41/41/41 20/20/20
f 36/36/36 20/20/20 19/19/19
f 36/36/36 19/19/19 18/18/18
f 36/36/36 18/18/18 37/37/37
f 42/42/42 41/41/41 40/40/40
f 42/42/42 40/40/40 43/43/43
f 42/42/42 43/43/43 44/44/44
f 42/42/42 44/44/44 45/45/45
f 42/42/42 45/45/45 27/27/27
f 42/42/42 27/27/27 26/26/26
f 42/42/42 26/26/26 20/20/20
f 42/42/42 20/20/20 41/41/41
f 46/46/46 47/47/47 48/48/48
f 46/46/46 48/48/48 49/49/49
f 46/46/46 49/49/49 50/50/50
f 46/46/46 50/50/50 51/51/51
f 46/46/46 51/51/51 52/52/52
f 46/46/46 52/52/52 53/53/53
f 46/46/46 53/53/53 54/54/54
f 46/46/46 54/54/54 47/47/47
f 55/55/55 56/56/56 57/57/57
f 55/55/55 57/57/57 58/58/58
f 55/55/55 58/58/58 48/48/48
f 55/55/55 48/48/48 47/47/47
f 55/55/55 47/47/47 54/54/54
f 55/55/55 54/54/54 59/59/59
f 55/55/55 59/59/59 60/60/60
f 55/55/55 60/60/60 56/56/56
f 61/61/61 62/62/62 63/63/63
f 61/61/61 63/63/63 64/64/64
f 61/61/61 64/64/64 65/65/65
f 61/61/61 65/65/65 66/66/66
f 61/61/61 66/66/66 67/67/67
f 61/61/61 67/67/67 68/68/68
f 61/61/61 68/68/68 69/69/69
f 61/61/61 69/69/69 62/62/62
f 70/70/70 66/66/66 65/65/65
f 70/70/70 65/65/65 71/71/71
f 70/70/70 71/71/71 72/72/72
f 70/70/70 72/72/72 73/73/73
f 70/70/70 73/73/73 74/74/74
f 70/70/70 74/74/74 75/75/75
f 70/70/70 75/75/75 67/67/67
f 70/70/70 67/67/67 66/66/66
f 76/76/76 77/77/77 54/54/54
f 76/76/76 54/54/54 53/53/53
f 76/76/76 53/53/53 52/52/52
f 76/76/76 52/52/52 78/78/78
f 76/76/76 78/78/78 72/72/72
f 76/76/76 72/72/72 71/71/71
f 76/76/76 71/71/71 65/65/65
f 76/76/76 65/65/65 77/77/77
f 79/79/79 80/80/80 60/60/60
f 79/79/79 60/60/60 59/59/59
f 79/79/79 59/59/59 54/54/54
f 79/79/79 54/54/54 77/77/77
f 79/79/79 77/77/77 65/65/65
f 79/79/79 65/65/65 64/64/64
f 79/79/79 64/64/64 63/63/63
f 79/79/79 63/63/63 80/80/80
f 81/81/81 82/82/82 69/69/69
f 81/81/81 69/69/69 68/68/68
f 81/81/81 68/68/68 67/67/67
f 81/81/81 67/67/67 83/83/83
f 81/81/81 83/83/83 84/84/84
f 81/81/81 84/84/84 85/85/85
f 81/81/81 85/85/85 86/86/86
f 81/81/81 86/86/86 82/82/82
f 87/87/87 83/83/83 67/67/67
f 87/87/87 67/67/67 75/75/75
f 87/87/87 75/75/75 74/74/74
f 87/87/87 74/74/74 88/88/88
f 87/87/87 88/88/88 89/89/89
f 87/87/87 89/89/89 90/90/90
f 87/87/87 90/90/90 84/84/84
f 87/87/87 84/84/84 83/83/83
f 91/91/91 92/92/92 38/38/38
f 91/91/91 38/38/38 37/37/37
f 91/91/91 37/37/37 18/18/18
f 91/91/91 18/18/18 93/93/93
f 91/91/91 93/93/93 69/69/69
f 91/91/91 69/69/69 82/82/82
f 91/91/91 82/82/82 94/94/94
f 91/91/91 94/94/94 92/92/92
f 95/95/95 96/96/96 44/44/44
f 95/95/95 44/44/44 43/43/43
f 95/95/95 43/43/43 40/40/40
f 95/95/95 40/40/40 97/97/97
f 95/95/95 97/97/97 84/84/84
f 95/95/95 84/84/84 90/90/90
f 95/95/95 90/90/90 98/98/98
f 95/95/95 98/98/98 96/96/96
f 99/99/99 100/100/100 7/7/7
f 99/99/99 7/7/7 6/6/6
f 99/99/99 6/6/6 5/5/5
f 99/99/99 5/5/5 101/101/101
f 99/99/99 101/101/101 52/52/52
f 99/99/99 52/52/52 51/51/51
f 99/99/99 51/51/51 102/102/102
f 99/99/99 102/102/102 100/100/100
f 103/103/103 104/104/104 15/15/15
f 103/103/103 15/15/15 14/14/14
f 103/103/103 14/14/14 9/9/9
f 103/103/103 9/9/9 105/105/105
f 103/103/103 105/105/105 48/48/48
f 103/103/103 48/48/48 58/58/58
f 103/103/103 58/58/58 106/106/106
f 103/103/103 106/106/106 104/104/104
f 107/107/107 108/108/108 12/12/12
f 107/107/107 12/12/12 11/11/11
f 107/107/107 11/11/11 15/15/15
f 107/107/107 15/15/15 104/104/104
f 107/107/107 104/104/104 106/106/106
f 107/107/107 106/106/106 56/56/56
f 107/107/107 56/56/56 60/60/60
f 107/107/107 60/60/60 108/108/108
f 109/109/109 97/97/97 40/40/40
f 109/109/109 40/40/40 39/39/39
f 109/109/109 39/39/39 38/38/38
f 109/109/109 38/38/38 92/92/92
f 109/109/109 92/92/92 94/94/94
f 109/109/109 94/94/94 85/85/85
f 109/109/109 85/85/85 84/84/84
f 109/109/109 84/84/84 97/97/97
f 110/110/110 111/111/111 27/27/27
f 110/110/110 27/27/27 45/45/45
f 110/110/110 45/45/45 44/44/44
f 110/110/110 44/44/44 96/96/96
f 110/110/110 96/96/96 98/98/98
f 110/110/110 98/98/98 88/88/88
f 110/110/110 88/88/88 74/74/74
f 110/110/110 74/74/74 111/111/111
f 112/112/112 105/105/105 9/9/9
f 112/112/112 9/9/9 8/8/8
f 112/112/112 8/8/8 7/7/7
f 112/112/112 7/7/7 100/100/100
f 112/112/112 100/100/100 102/102/102
f 112/112/112 102/102/102 49/49/49
f 112/112/112 49/49/49 48/48/48
f 112/112/112 48/48/48 105/105/105
f 113/113/113 101/101/101 5/5/5
f 113/113/113 5/5/5 33/33/33
f 113/113/113 33/33/33 29/29/29
f 113/113/113 29/29/29 114/114/114
f 113/113/113 114/114/114 72/72/72
f 113/113/113 72/72/72 78/78/78
f 113/113/113 78/78/78 52/52/52
f 113/113/113 52/52/52 101/101/101
f 115/115/115 116/116/116 24/24/24
f 115/115/115 24/24/24 35/35/35
f 115/115/115 35/35/35 12/12/12
f 115/115/115 12/12/12 108/108/108
f 115/115/115 108/108/108 60/60/60
f 115/115/115 60/60/60 80/80/80
f 115/115/115 80/80/80 63/63/63
f 115/115/115 63/63/63 116/116/116
f 117/117/117 93/93/93 18/18/18
f 117/117/117 18/18/18 17/17/17
f 117/117/117 17/17/17 24/24/24
f 117/117/117 24/24/24 116/116/116
f 117/117/117 116/116/116 63/63/63
f 117/117/117 63/63/63 62/62/62
f 117/117/117 62/62/62 69/69/69
f 117/117/117 69/69/69 93/93/93
f 118/118/118 114/114/114 29/29/29
f 118/118/118 29/29/29 28/28/28
f 118/118/118 28/28/28 27/27/27
f 118/118/118 27/27/27 111/111/111
f 118/118/118 111/111/111 74/74/74
f 118/118/118 74/74/74 73/73/73
f 118/118/118 73/73/73 72/72/72
f 118/118/118 72/72/72 114/114/114
