v -2.362565 0.798784 -1.158226
v -2.360821 0.799002 -1.157311
v -2.360272 0.797115 -1.159071
v -2.362321 0.797037 -1.159877
v -2.363817 0.797022 -1.160701
v -2.363795 0.798544 -1.159258
v -2.363461 0.799373 -1.158125
v -2.362679 0.799954 -1.156965
v -2.361233 0.800321 -1.155957
v -2.358840 0.799062 -1.157363
v -2.357263 0.799030 -1.157744
v -2.356397 0.797574 -1.158981
v -2.358088 0.797352 -1.158896
v -2.359455 0.800194 -1.156218
v -2.358171 0.799767 -1.156899
v -2.356604 0.790526 -1.163304
v -2.355006 0.790726 -1.163135
v -2.354979 0.788150 -1.164340
v -2.356396 0.787969 -1.164477
v -2.358257 0.787773 -1.164766
v -2.358706 0.790307 -1.163641
v -2.359186 0.792741 -1.162351
v -2.356985 0.792981 -1.162014
v -2.355308 0.793207 -1.161863
v -2.360752 0.790217 -1.164265
v -2.360064 0.787696 -1.165327
v -2.361407 0.787672 -1.165830
v -2.362273 0.790185 -1.164819
v -2.362910 0.792641 -1.163625
v -2.361323 0.792658 -1.163020
v -2.361877 0.794963 -1.161516
v -2.359718 0.795019 -1.160790
v -2.363474 0.794987 -1.162204
v -2.357475 0.795291 -1.160496
v -2.355759 0.795561 -1.160416
v -2.356423 0.785355 -1.165648
v -2.355356 0.785508 -1.165587
v -2.355841 0.783979 -1.166257
v -2.356533 0.783362 -1.166500
v -2.357498 0.783235 -1.166584
v -2.357818 0.785195 -1.165831
v -2.359160 0.785151 -1.166282
v -2.358409 0.783223 -1.166935
v -2.359216 0.783728 -1.167039
v -2.360156 0.785150 -1.166699
v -2.362617 0.798645 -1.158082
v -2.360845 0.798864 -1.157159
v -2.361251 0.800215 -1.155845
v -2.362719 0.799848 -1.156860
v -2.363497 0.799296 -1.158048
v -2.363848 0.798440 -1.159154
v -2.363868 0.796923 -1.160591
v -2.362373 0.796905 -1.159727
v -2.360299 0.796983 -1.158914
v -2.358837 0.798927 -1.157206
v -2.357246 0.798932 -1.157624
v -2.358163 0.799693 -1.156811
v -2.359451 0.800091 -1.156102
v -2.358090 0.797223 -1.158734
v -2.356386 0.797480 -1.158857
v -2.356620 0.790427 -1.163121
v -2.355009 0.790653 -1.162996
v -2.355308 0.793127 -1.161729
v -2.356997 0.792873 -1.161837
v -2.359218 0.792631 -1.162178
v -2.358740 0.790207 -1.163462
v -2.358292 0.787680 -1.164583
v -2.356413 0.787878 -1.164291
v -2.354983 0.788083 -1.164199
v -2.360804 0.790116 -1.164091
v -2.361374 0.792547 -1.162851
v -2.362957 0.792557 -1.163502
v -2.362321 0.790109 -1.164691
v -2.361456 0.787601 -1.165699
v -2.360117 0.787602 -1.165149
v -2.361928 0.794841 -1.161357
v -2.359747 0.794897 -1.160624
v -2.363522 0.794895 -1.162088
v -2.357482 0.795172 -1.160326
v -2.355753 0.795474 -1.160287
v -2.356439 0.785267 -1.165460
v -2.355359 0.785443 -1.165444
v -2.357854 0.785105 -1.165646
v -2.357525 0.783167 -1.166445
v -2.356545 0.783296 -1.166359
v -2.355846 0.783931 -1.166152
v -2.359215 0.785060 -1.166103
v -2.360207 0.785082 -1.166568
v -2.359252 0.783677 -1.166941
v -2.358451 0.783154 -1.166801
v -2.354999 0.785530 -1.165503
v -2.355754 0.783472 -1.166458
v -2.354507 0.788181 -1.164231
v -2.355846 0.783931 -1.166152
v -2.358177 0.782549 -1.167093
v -2.359135 0.783220 -1.167242
v -2.357403 0.782551 -1.166773
v -2.359252 0.783677 -1.166941
v -2.364231 0.798418 -1.159557
v -2.363697 0.799467 -1.158128
v -2.364341 0.796973 -1.160927
v -2.363497 0.799296 -1.158048
v -2.359658 0.800525 -1.155786
v -2.357974 0.799893 -1.156801
v -2.361378 0.800714 -1.155456
v -2.358163 0.799693 -1.156811
v -2.356727 0.798977 -1.157817
v -2.355826 0.797607 -1.158954
v -2.356575 0.782669 -1.166722
v -2.360512 0.785119 -1.166781
v -2.361879 0.787632 -1.165940
v -2.362735 0.800296 -1.156499
v -2.364030 0.794954 -1.162383
v -2.363462 0.792598 -1.163773
v -2.355182 0.795613 -1.160332
v -2.354747 0.793247 -1.161753
v -2.354472 0.790761 -1.163017
v -2.362803 0.790141 -1.164948
vn 0.321100 0.692000 -0.646500
vn 0.109000 0.707900 -0.697800
vn 0.121400 0.664700 -0.737200
vn 0.311700 0.649400 -0.693600
vn 0.307800 0.630600 -0.712500
vn 0.313800 0.692300 -0.649800
vn 0.315700 0.733100 -0.602400
vn 0.263700 0.758200 -0.596200
vn 0.088900 0.770500 -0.631100
vn -0.099600 0.660800 -0.743900
vn -0.091600 0.662200 -0.743600
vn -0.050200 0.603900 -0.795400
vn -0.064500 0.621400 -0.780800
vn -0.079800 0.732700 -0.675900
vn -0.119700 0.700700 -0.703400
vn 0.061900 0.445900 -0.892900
vn 0.099700 0.442600 -0.891100
vn 0.107900 0.413800 -0.903900
vn 0.059500 0.415200 -0.907700
vn 0.175500 0.417500 -0.891500
vn 0.168600 0.455700 -0.874000
vn 0.153800 0.529900 -0.834000
vn 0.035600 0.510500 -0.859100
vn 0.065500 0.499100 -0.864000
vn 0.273100 0.461600 -0.844000
vn 0.286000 0.432100 -0.855300
vn 0.241500 0.423800 -0.873000
vn 0.239200 0.453000 -0.858800
vn 0.249800 0.512800 -0.821300
vn 0.272600 0.528100 -0.804200
vn 0.287000 0.598600 -0.747900
vn 0.136200 0.607300 -0.782700
vn 0.276200 0.577400 -0.768300
vn -0.011700 0.576300 -0.817100
vn 0.009800 0.557500 -0.830100
vn 0.036300 0.399100 -0.916200
vn 0.088700 0.394000 -0.914800
vn 0.059900 0.374800 -0.925200
vn 0.023400 0.343900 -0.938700
vn 0.187200 0.346800 -0.919000
vn 0.178700 0.399200 -0.899300
vn 0.312500 0.419700 -0.852200
vn 0.341600 0.367700 -0.864900
vn 0.298800 0.392700 -0.869800
vn 0.265900 0.407200 -0.873700
vn -0.351600 -0.672500 0.651200
vn -0.112400 -0.696300 0.708900
vn -0.125400 -0.649500 0.749900
vn -0.440700 -0.610700 0.657900
vn -0.546600 -0.566500 0.616700
vn -0.524400 -0.579800 0.623600
vn -0.464100 -0.592000 0.658800
vn -0.326200 -0.647200 0.689000
vn -0.121300 -0.664700 0.737100
vn 0.121900 -0.637100 0.761000
vn 0.274200 -0.520500 0.808600
vn 0.295000 -0.504000 0.811800
vn 0.189300 -0.564000 0.803700
vn 0.079100 -0.617100 0.782900
vn 0.207100 -0.542200 0.814300
vn -0.045700 -0.445000 0.894300
vn 0.067000 -0.436400 0.897200
vn 0.087500 -0.480400 0.872600
vn -0.020700 -0.508700 0.860700
vn -0.153900 -0.529800 0.834000
vn -0.168700 -0.455500 0.874100
vn -0.175500 -0.417300 0.891600
vn -0.040300 -0.415900 0.908500
vn 0.091200 -0.429800 0.898300
vn -0.288200 -0.463100 0.838100
vn -0.286700 -0.528500 0.799000
vn -0.392100 -0.516100 0.761500
vn -0.390900 -0.470500 0.791100
vn -0.413600 -0.467500 0.781200
vn -0.303300 -0.435600 0.847500
vn -0.300700 -0.598000 0.742900
vn -0.136200 -0.607300 0.782700
vn -0.417400 -0.567000 0.710100
vn 0.026000 -0.573700 0.818600
vn 0.139600 -0.525600 0.839200
vn -0.007800 -0.413600 0.910400
vn 0.150700 -0.449700 0.880300
vn -0.176800 -0.410300 0.894700
vn -0.168200 -0.458400 0.872700
vn 0.076100 -0.465000 0.882000
vn 0.186700 -0.466000 0.864800
vn -0.333300 -0.437800 0.835000
vn -0.455800 -0.494900 0.739700
vn -0.478800 -0.515500 0.710600
vn -0.388100 -0.499600 0.774400
vn 0.975100 -0.184500 -0.122500
vn 0.802500 -0.496600 -0.330800
vn 0.997400 -0.068400 -0.021100
vn 0.186700 -0.466000 0.864800
vn -0.069800 -0.882600 -0.464900
vn -0.498500 -0.593100 -0.632300
vn 0.135300 -0.950800 -0.278700
vn -0.478800 -0.515500 0.710600
vn -0.891700 0.389400 -0.230500
vn -0.810100 0.586100 0.012700
vn -0.913500 0.213400 -0.346200
vn -0.546600 -0.566500 0.616700
vn 0.305500 0.705200 0.639900
vn 0.631800 0.693100 0.347000
vn -0.216700 0.651800 0.726800
vn 0.295000 -0.504000 0.811800
vn 0.838300 0.518000 0.170200
vn 0.932800 0.351000 0.081900
vn 0.389500 -0.848400 -0.358300
vn -0.786600 -0.315700 -0.530700
vn -0.867100 -0.207000 -0.453100
vn -0.650100 0.634300 0.418300
vn -0.915900 0.073900 -0.394600
vn -0.914200 -0.012200 -0.405100
vn 0.975700 0.214500 0.043800
vn 0.990900 0.129400 0.036300
vn 0.998600 0.043700 0.028900
vn -0.905700 -0.097900 -0.412500
vt 0.839504 0.118056
vt 0.856743 0.205307
vt 0.741230 0.205307
vt 0.734555 0.106726
vt 0.724541 0.032791
vt 0.813647 0.052618
vt 0.868992 0.081539
vt 0.913398 0.129584
vt 0.940923 0.205307
vt 0.839504 0.292557
vt 0.813647 0.357995
vt 0.724541 0.377822
vt 0.734555 0.303887
vt 0.913398 0.281029
vt 0.868992 0.329074
vt 0.369475 0.299954
vt 0.368286 0.370940
vt 0.245840 0.351447
vt 0.246397 0.288815
vt 0.246768 0.205307
vt 0.370268 0.205307
vt 0.494283 0.205307
vt 0.492822 0.304944
vt 0.490632 0.379672
vt 0.369475 0.110659
vt 0.246397 0.121798
vt 0.245841 0.059166
vt 0.368286 0.039673
vt 0.490632 0.030941
vt 0.492822 0.105669
vt 0.616755 0.103478
vt 0.619174 0.205307
vt 0.613127 0.027106
vt 0.616755 0.307135
vt 0.613126 0.383507
vt 0.123273 0.268175
vt 0.123047 0.315326
vt 0.054743 0.283353
vt 0.030912 0.249131
vt 0.030973 0.205306
vt 0.123423 0.205306
vt 0.123273 0.142438
vt 0.030912 0.161481
vt 0.054744 0.127260
vt 0.123047 0.095287
vt 0.839504 0.118056
vt 0.856743 0.205307
vt 0.968983 0.205307
vt 0.938030 0.133427
vt 0.876123 0.061548
vt 0.805028 0.030806
vt 0.721203 0.008146
vt 0.734555 0.106726
vt 0.741230 0.205307
vt 0.839504 0.292557
vt 0.805028 0.379807
vt 0.876123 0.349065
vt 0.938030 0.277186
vt 0.734555 0.303887
vt 0.721203 0.402467
vt 0.369475 0.299954
vt 0.367890 0.394602
vt 0.489902 0.404581
vt 0.492822 0.304944
vt 0.494283 0.205307
vt 0.370268 0.205307
vt 0.246768 0.205307
vt 0.246397 0.288815
vt 0.245655 0.372324
vt 0.369475 0.110659
vt 0.492822 0.105669
vt 0.489902 0.006032
vt 0.367890 0.016011
vt 0.245655 0.038289
vt 0.246397 0.121798
vt 0.616755 0.103478
vt 0.619174 0.205307
vt 0.611917 0.001649
vt 0.616755 0.307135
vt 0.611917 0.408964
vt 0.123273 0.268175
vt 0.122972 0.331043
vt 0.123423 0.205306
vt 0.000156 0.205306
vt 0.000125 0.242784
vt 0.000064 0.280261
vt 0.123273 0.142438
vt 0.122972 0.079570
vt 0.000064 0.130352
vt 0.000125 0.167829
vt 0.122972 0.331043
vt 0.030806 0.283587
vt 0.245655 0.372324
vt 0.030806 0.283587
vt 0.000125 0.167829
vt 0.030806 0.127026
vt 0.000156 0.205306
vt 0.030806 0.127026
vt 0.805028 0.030806
vt 0.873826 0.071832
vt 0.721203 0.008146
vt 0.873826 0.071832
vt 0.938030 0.277186
vt 0.873826 0.338781
vt 0.968983 0.205307
vt 0.873826 0.338781
vt 0.805028 0.379807
vt 0.721203 0.402467
vt 0.000125 0.242784
vt 0.122972 0.079570
vt 0.245655 0.038289
vt 0.938030 0.133427
vt 0.611917 0.001649
vt 0.489902 0.006032
vt 0.611917 0.408964
vt 0.489902 0.404581
vt 0.367890 0.394602
vt 0.367890 0.016011
f 1/1/1 2/2/2 3/3/3
f 1/1/1 3/3/3 4/4/4
f 1/1/1 4/4/4 5/5/5
f 1/1/1 5/5/5 6/6/6
f 1/1/1 6/6/6 7/7/7
f 1/1/1 7/7/7 8/8/8
f 1/1/1 8/8/8 9/9/9
f 1/1/1 9/9/9 2/2/2
f 10/10/10 11/11/11 12/12/12
f 10/10/10 12/12/12 13/13/13
f 10/10/10 13/13/13 3/3/3
f 10/10/10 3/3/3 2/2/2
f 10/10/10 2/2/2 9/9/9
f 10/10/10 9/9/9 14/14/14
f 10/10/10 14/14/14 15/15/15
f 10/10/10 15/15/15 11/11/11
f 16/16/16 17/17/17 18/18/18
f 16/16/16 18/18/18 19/19/19
f 16/16/16 19/19/19 20/20/20
f 16/16/16 20/20/20 21/21/21
f 16/16/16 21/21/21 22/22/22
f 16/16/16 22/22/22 23/23/23
f 16/16/16 23/23/23 24/24/24
f 16/16/16 24/24/24 17/17/17
f 25/25/25 21/21/21 20/20/20
f 25/25/25 20/20/20 26/26/26
f 25/25/25 26/26/26 27/27/27
f 25/25/25 27/27/27 28/28/28
f 25/25/25 28/28/28 29/29/29
f 25/25/25 29/29/29 30/30/30
f 25/25/25 30/30/30 22/22/22
f 25/25/25 22/22/22 21/21/21
f 31/31/31 32/32/32 22/22/22
f 31/31/31 22/22/22 30/30/30
f 31/31/31 30/30/30 29/29/29
f 31/31/31 29/29/29 33/33/33
f 31/31/31 33/33/33 5/5/5
f 31/31/31 5/5/5 4/4/4
f 31/31/31 4/4/4 3/3/3
f 31/31/31 3/3/3 32/32/32
f 34/34/34 35/35/35 24/24/24
f 34/34/34 24/24/24 23/23/23
f 34/34/34 23/23/23 22/22/22
f 34/34/34 22/22/22 32/32/32
f 34/34/34 32/32/32 3/3/3
f 34/34/34 3/3/3 13/13/13
f 34/34/34 13/13/13 12/12/12
f 34/34/34 12/12/12 35/35/35
f 36/36/36 37/37/37 38/38/38
f 36/36/36 38/38/38 39/39/39
f 36/36/36 39/39/39 40/40/40
f 36/36/36 40/40/40 41/41/41
f 36/36/36 41/41/41 20/20/20
f 36/36/36 20/20/20 19/19/19
f 36/36/36 19/19/19 18/18/18
f 36/36/36 18/18/18 37/37/37
f 42/42/42 41/41/41 40/40/40
f 42/42/42 40/40/40 43/43/43
f 42/42/42 43/43/43 44/44/44
f 42/42/42 44/44/44 45/45/45
f 42/42/42 45/45/45 27/27/27
f 42/42/42 27/27/27 26/26/26
f 42/42/42 26/26/26 20/20/20
f 42/42/42 20/20/20 41/41/41
f 46/46/46 47/47/47 48/48/48
f 46/46/46 48/48/48 49/49/49
f 46/46/46 49/49/49 50/50/50
f 46/46/46 50/50/50 51/51/51
f 46/46/46 51/51/51 52/52/52
f 46/46/46 52/52/52 53/53/53
f 46/46/46 53/53/53 54/54/54
f 46/46/46 54/54/54 47/47/47
f 55/55/55 56/56/56 57/57/57
f 55/55/55 57/57/57 58/58/58
f 55/55/55 58/58/58 48/48/48
f 55/55/55 48/48/48 47/47/47
f 55/55/55 47/47/47 54/54/54
f 55/55/55 54/54/54 59/59/59
f 55/55/55 59/59/59 60/60/60
f 55/55/55 60/60/60 56/56/56
f 61/61/61 62/62/62 63/63/63
f 61/61/61 63/63/63 64/64/64
f 61/61/61 64/64/64 65/65/65
f 61/61/61 65/65/65 66/66/66
f 61/61/61 66/66/66 67/67/67
f 61/61/61 67/67/67 68/68/68
f 61/61/61 68/68/68 69/69/69
f 61/61/61 69/69/69 62/62/62
f 70/70/70 66/66/66 65/65/65
f 70/70/70 65/65/65 71/71/71
f 70/70/70 71/71/71 72/72/72
f 70/70/70 72/72/72 73/73/73
f 70/70/70 73/73/73 74/74/74
f 70/70/70 74/74/74 75/75/75
f 70/70/70 75/75/75 67/67/67
f 70/70/70 67/67/67 66/66/66
f 76/76/76 77/77/77 54/54/54
f 76/76/76 54/54/54 53/53/53
f 76/76/76 53/53/53 52/52/52
f 76/76/76 52/52/52 78/78/78
f 76/76/76 78/78/78 72/72/72
f 76/76/76 72/72/72 71/71/71
f 76/76/76 71/71/71 65/65/65
f 76/76/76 65/65/65 77/77/77
f 79/79/79 80/80/80 60/60/60
f 79/79/79 60/60/60 59/59/59
f 79/79/79 59/59/59 54/54/54
f 79/79/79 54/54/54 77/77/77
f 79/79/79 77/77/77 65/65/65
f 79/79/79 65/65/65 64/64/64
f 79/79/79 64/64/64 63/63/63
f 79/79/79 63/63/63 80/80/80
f 81/81/81 82/82/82 69/69/69
f 81/81/81 69/69/69 68/68/68
f 81/81/81 68/68/68 67/67/67
f 81/81/81 67/67/67 83/83/83
f 81/81/81 83/83/83 84/84/84
f 81/81/81 84/84/84 85/85/85
f 81/81/81 85/85/85 86/86/86
f 81/81/81 86/86/86 82/82/82
f 87/87/87 83/83/83 67/67/67
f 87/87/87 67/67/67 75/75/75
f 87/87/87 75/75/75 74/74/74
f 87/87/87 74/74/74 88/88/88
f 87/87/87 88/88/88 89/89/89
f 87/87/87 89/89/89 90/90/90
f 87/87/87 90/90/90 84/84/84
f 87/87/87 84/84/84 83/83/83
f 91/91/91 92/92/92 38/38/38
f 91/91/91 38/38/38 37/37/37
f 91/91/91 37/37/37 18/18/18
f 91/91/91 18/18/18 93/93/93
f 91/91/91 93/93/93 69/69/69
f 91/91/91 69/69/69 82/82/82
f 91/91/91 82/82/82 94/94/94
f 91/91/91 94/94/94 92/92/92
f 95/95/95 96/96/96 44/44/44
f 95/95/95 44/44/44 43/43/43
f 95/95/95 43/43/43 40/40/40
f 95/95/95 40/40/40 97/97/97
f 95/95/95 97/97/97 84/84/84
f 95/95/95 84/84/84 90/90/90
f 95/95/95 90/90/90 98/98/98
f 95/95/95 98/98/98 96/96/96
f 99/99/99 100/100/100 7/7/7
f 99/99/99 7/7/7 6/6/6
f 99/99/99 6/6/6 5/5/5
f 99/99/99 5/5/5 101/101/101
f 99/99/99 101/101/101 52/52/52
f 99/99/99 52/52/52 51/51/51
f 99/99/99 51/51/51 102/102/102
f 99/99/99 102/102/102 100/100/100
f 103/103/103 104/104/104 15/15/15
f 103/103/103 15/15/15 14/14/14
f 103/103/103 14/14/14 9/9/9
f 103/103/103 9/9/9 105/105/105
f 103/103/103 105/105/105 48/48/48
f 103/103/103 48/48/48 58/58/58
f 103/103/103 58/58/58 106/106/106
f 103/103/103 106/106/106 104/104/104
f 107/107/107 108/108/108 12/12/12
f 107/107/107 12/12/12 11/11/11
f 107/107/107 11/11/11 15/15/15
f 107/107/107 15/15/15 104/104/104
f 107/107/107 104/104/104 106/106/106
f 107/107/107 106/106/106 56/56/56
f 107/107/107 56/56/56 60/60/60
f 107/107/107 60/60/60 108/108/108
f 109/109/109 97/97/97 40/40/40
f 109/109/109 40/40/40 39/39/39
f 109/109/109 39/39/39 38/38/38
f 109/109/109 38/38/38 92/92/92
f 109/109/109 92/92/92 94/94/94
f 109/109/109 94/94/94 85/85/85
f 109/109/109 85/85/85 84/84/84
f 109/109/109 84/84/84 97/97/97
f 110/110/110 111/111/111 27/27/27
f 110/110/110 27/27/27 45/45/45
f 110/110/110 45/45/45 44/44/44
f 110/110/110 44/44/44 96/96/96
f 110/110/110 96/96/96 98/98/98
f 110/110/110 98/98/98 88/88/88
f 110/110/110 88/88/88 74/74/74
f 110/110/110 74/74/74 111/111/111
f 112/112/112 105/105/105 9/9/9
f 112/112/112 9/9/9 8/8/8
f 112/112/112 8/8/8 7/7/7
f 112/112/112 7/7/7 100/100/100
f 112/112/112 100/100/100 102/102/102
f 112/112/112 102/102/102 49/49/49
f 112/112/112 49/49/49 48/48/48
f 112/112/112 48/48/48 105/105/105
f 113/113/113 101/101/101 5/5/5
f 113/113/113 5/5/5 33/33/33
f 113/113/113 33/33/33 29/29/29
f 113/113/113 29/29/29 114/114/114
f 113/113/113 114/114/114 72/72/72
f 113/113/113 72/72/72 78/78/78
f 113/113/113 78/78/78 52/52/52
f 113/113/113 52/52/52 101/101/101
f 115/115/115 116/116/116 24/24/24
f 115/115/115 24/24/24 35/35/35
f 115/115/115 35/35/35 12/12/12
f 115/115/115 12/12/12 108/108/108
f 115/115/115 108/108/108 60/60/60
f 115/115/115 60/60/60 80/80/80
f 115/115/115 80/80/80 63/63/63
f 115/115/115 63/63/63 116/116/116
f 117/117/117 93/93/93 18/18/18
f 117/117/117 18/18/18 17/17/17
f 117/117/117 17/17/17 24/24/24
f 117/117/117 24/24/24 116/116/116
f 117/117/117 116/116/116 63/63/63
f 117/117/117 63/63/63 62/62/62
f 117/117/117 62/62/62 69/69/69
f 117/117/117 69/69/69 93/93/93
f 118/118/118 114/114/114 29/29/29
f 118/118/118 29/29/29 28/28/28
f 118/118/118 28/28/28 27/27/27
f 118/118/118 27/27/27 111/111/111
f 118/118/118 111/111/111 74/74/74
f 118/118/118 74/74/74 73/73/73
f 118/118/118 73/73/73 72/72/72
f 118/118/118 72/72/72 114/114/114
