v -2.453755 0.740709 -1.148076
v -2.453857 0.741002 -1.145505
v -2.450712 0.739658 -1.145935
v -2.450969 0.739408 -1.148791
v -2.450929 0.739380 -1.151022
v -2.453229 0.740571 -1.150125
v -2.454669 0.741145 -1.149053
v -2.455758 0.741523 -1.147444
v -2.456203 0.741879 -1.145161
v -2.452718 0.741595 -1.143257
v -2.451410 0.742126 -1.141674
v -2.448863 0.741147 -1.141422
v -2.449791 0.740416 -1.143315
v -2.454860 0.742290 -1.143274
v -2.453197 0.742405 -1.142209
v -2.440776 0.734554 -1.144236
v -2.440159 0.735123 -1.142293
v -2.437544 0.732571 -1.142973
v -2.438102 0.732058 -1.144687
v -2.438743 0.731482 -1.147007
v -2.441489 0.733912 -1.146863
v -2.444376 0.736140 -1.146651
v -2.443618 0.736833 -1.143910
v -2.442950 0.737459 -1.141889
v -2.441931 0.733567 -1.149602
v -2.439124 0.731185 -1.149433
v -2.439334 0.731041 -1.151290
v -2.442183 0.733392 -1.151696
v -2.445068 0.735650 -1.151724
v -2.444827 0.735800 -1.149523
v -2.447916 0.737760 -1.149263
v -2.447501 0.738047 -1.146329
v -2.448096 0.737693 -1.151527
v -2.446690 0.738808 -1.143568
v -2.445948 0.739529 -1.141546
v -2.435535 0.729433 -1.145407
v -2.435077 0.729858 -1.144143
v -2.433856 0.728197 -1.145096
v -2.433670 0.727391 -1.146035
v -2.434059 0.727032 -1.147196
v -2.436044 0.728971 -1.147125
v -2.436297 0.728781 -1.148949
v -2.434192 0.726944 -1.148462
v -2.434796 0.727394 -1.149462
v -2.436414 0.728715 -1.150353
v -2.453867 0.740464 -1.148046
v -2.453961 0.740761 -1.145438
v -2.456278 0.741697 -1.145112
v -2.455838 0.741338 -1.147424
v -2.454731 0.741009 -1.149046
v -2.453316 0.740386 -1.150121
v -2.451023 0.739199 -1.151012
v -2.451090 0.739168 -1.148756
v -2.450826 0.739423 -1.145867
v -2.452814 0.741364 -1.143155
v -2.451478 0.741958 -1.141580
v -2.453246 0.742278 -1.142144
v -2.454928 0.742116 -1.143196
v -2.449898 0.740188 -1.143215
v -2.448940 0.740981 -1.141331
v -2.440929 0.734350 -1.144140
v -2.440270 0.734973 -1.142211
v -2.443052 0.737303 -1.141805
v -2.443758 0.736620 -1.143814
v -2.444522 0.735922 -1.146580
v -2.441647 0.733703 -1.146790
v -2.438910 0.731280 -1.146933
v -2.438263 0.731861 -1.144591
v -2.437661 0.732426 -1.142890
v -2.442094 0.733354 -1.149553
v -2.444977 0.735579 -1.149477
v -2.445182 0.735482 -1.151702
v -2.442306 0.733232 -1.151671
v -2.439464 0.730885 -1.151265
v -2.439295 0.730979 -1.149383
v -2.448051 0.737528 -1.149222
v -2.447631 0.737819 -1.146260
v -2.448200 0.737518 -1.151510
v -2.446813 0.738587 -1.143470
v -2.446036 0.739368 -1.141459
v -2.435699 0.729238 -1.145309
v -2.435196 0.729715 -1.144057
v -2.436214 0.728771 -1.147052
v -2.434186 0.726882 -1.147141
v -2.433793 0.727246 -1.145960
v -2.433945 0.728091 -1.145035
v -2.436472 0.728578 -1.148901
v -2.436546 0.728561 -1.150329
v -2.434893 0.727280 -1.149442
v -2.434324 0.726792 -1.148427
v -2.434977 0.729937 -1.143680
v -2.433332 0.727700 -1.145112
v -2.437409 0.732679 -1.142362
v -2.433945 0.728091 -1.145035
v -2.433549 0.726264 -1.148284
v -2.434273 0.726895 -1.149487
v -2.433454 0.726319 -1.147195
v -2.434893 0.727280 -1.149442
v -2.453093 0.740443 -1.150811
v -2.454847 0.741199 -1.149327
v -2.450958 0.739290 -1.151765
v -2.454731 0.741009 -1.149046
v -2.455603 0.742444 -1.143244
v -2.453253 0.742562 -1.141923
v -2.457018 0.742090 -1.145025
v -2.453246 0.742278 -1.142144
v -2.451003 0.742229 -1.141101
v -2.448587 0.741318 -1.140747
v -2.433103 0.726646 -1.146211
v -2.436512 0.728624 -1.150813
v -2.439462 0.730924 -1.151900
v -2.456460 0.741712 -1.147226
v -2.448203 0.737593 -1.152277
v -2.445199 0.735525 -1.152451
v -2.445739 0.739699 -1.140830
v -2.442772 0.737600 -1.141175
v -2.440002 0.735246 -1.141607
v -2.442322 0.733263 -1.152385
vn 0.392300 0.919400 -0.028500
vn 0.336300 0.910700 -0.239900
vn 0.390700 0.886700 -0.247200
vn 0.443200 0.894500 -0.058800
vn 0.464200 0.882900 -0.070900
vn 0.391500 0.919400 -0.036600
vn 0.338100 0.941000 -0.013000
vn 0.300800 0.952000 -0.056100
vn 0.249000 0.941600 -0.226800
vn 0.302600 0.842700 -0.445200
vn 0.305200 0.845500 -0.438100
vn 0.387900 0.817700 -0.425400
vn 0.363000 0.825900 -0.431300
vn 0.227500 0.889400 -0.396400
vn 0.245300 0.861700 -0.444200
vn 0.577400 0.727200 -0.371000
vn 0.593600 0.730900 -0.336800
vn 0.618700 0.710400 -0.335400
vn 0.600500 0.703600 -0.379900
vn 0.636400 0.722500 -0.269900
vn 0.604200 0.750400 -0.268100
vn 0.536100 0.802100 -0.263000
vn 0.513300 0.770000 -0.378900
vn 0.534700 0.767000 -0.354700
vn 0.622400 0.765700 -0.161900
vn 0.648800 0.744900 -0.155500
vn 0.647100 0.734800 -0.203000
vn 0.623300 0.756300 -0.198700
vn 0.574000 0.800500 -0.172200
vn 0.563900 0.813200 -0.144300
vn 0.496600 0.861500 -0.105700
vn 0.456600 0.852300 -0.255100
vn 0.516900 0.846900 -0.124600
vn 0.432900 0.807100 -0.401400
vn 0.460100 0.798400 -0.388400
vn 0.603700 0.687200 -0.404100
vn 0.627200 0.692100 -0.357200
vn 0.630700 0.672400 -0.387300
vn 0.638100 0.641700 -0.425600
vn 0.691500 0.669200 -0.272000
vn 0.651200 0.709000 -0.270600
vn 0.662600 0.737500 -0.130600
vn 0.705800 0.699700 -0.110400
vn 0.681700 0.715900 -0.150600
vn 0.665000 0.724400 -0.181600
vn -0.417000 -0.908900 0.003700
vn -0.351400 -0.904400 0.242000
vn -0.408800 -0.877800 0.249500
vn -0.484700 -0.871700 -0.072200
vn -0.514300 -0.837300 -0.185400
vn -0.505100 -0.847600 -0.162500
vn -0.503000 -0.859300 -0.092600
vn -0.446500 -0.893700 0.043800
vn -0.390600 -0.886700 0.247200
vn -0.316000 -0.822600 0.472700
vn -0.334900 -0.702100 0.628400
vn -0.334900 -0.684000 0.648100
vn -0.350500 -0.756900 0.551600
vn -0.360100 -0.819800 0.445100
vn -0.359900 -0.736900 0.572100
vn -0.572000 -0.723700 0.386000
vn -0.529100 -0.695100 0.486600
vn -0.483000 -0.723200 0.493600
vn -0.508900 -0.766000 0.392700
vn -0.536300 -0.802000 0.263000
vn -0.604300 -0.750200 0.268100
vn -0.636600 -0.722400 0.269900
vn -0.592500 -0.700800 0.397100
vn -0.522200 -0.684700 0.508400
vn -0.623700 -0.767900 0.145800
vn -0.565600 -0.814500 0.129300
vn -0.585300 -0.810600 0.018600
vn -0.626700 -0.778500 0.033300
vn -0.629700 -0.776700 0.008400
vn -0.648600 -0.748700 0.136700
vn -0.498600 -0.862000 0.091100
vn -0.456600 -0.852300 0.255100
vn -0.534500 -0.844700 -0.027400
vn -0.429000 -0.802400 0.414800
vn -0.415800 -0.743200 0.524100
vn -0.581000 -0.693000 0.426600
vn -0.474200 -0.685400 0.552600
vn -0.642300 -0.717200 0.270200
vn -0.601900 -0.752300 0.268000
vn -0.501700 -0.714400 0.487700
vn -0.439700 -0.688100 0.577100
vn -0.650400 -0.752400 0.104300
vn -0.603500 -0.795900 -0.048000
vn -0.581600 -0.809400 -0.081700
vn -0.600600 -0.799000 0.028000
vn 0.592000 0.060300 0.803700
vn 0.809300 -0.188700 0.556300
vn 0.473300 0.137100 0.870100
vn -0.439700 -0.688100 0.577100
vn 0.694000 -0.666400 -0.272400
vn 0.532000 -0.425600 -0.732000
vn 0.657700 -0.753200 -0.003100
vn -0.581600 -0.809400 -0.081700
vn -0.349300 0.264700 -0.898800
vn -0.588900 0.378200 -0.714300
vn -0.196100 0.138500 -0.970700
vn -0.514300 -0.837300 -0.185400
vn -0.665100 0.489000 0.564300
vn -0.281500 0.640900 0.714100
vn -0.939700 0.309400 0.145500
vn -0.334900 -0.684000 0.648100
vn 0.019600 0.579900 0.814400
vn 0.197500 0.474900 0.857600
vn 0.791900 -0.582800 0.182300
vn 0.216300 -0.260700 -0.940900
vn 0.075700 -0.202600 -0.976300
vn -0.868900 0.314800 -0.381900
vn -0.103100 0.026200 -0.994300
vn -0.059500 -0.049300 -0.997000
vn 0.300300 0.370700 0.878800
vn 0.346700 0.297600 0.889500
vn 0.389500 0.223000 0.893600
vn -0.016400 -0.124000 -0.992100
vt 0.839504 0.118056
vt 0.856743 0.205307
vt 0.741230 0.205307
vt 0.734555 0.106726
vt 0.724541 0.032791
vt 0.813647 0.052618
vt 0.868992 0.081539
vt 0.913398 0.129584
vt 0.940923 0.205307
vt 0.839504 0.292557
vt 0.813647 0.357995
vt 0.724541 0.377822
vt 0.734555 0.303887
vt 0.913398 0.281029
vt 0.868992 0.329074
vt 0.369475 0.299954
vt 0.368286 0.370940
vt 0.245840 0.351447
vt 0.246397 0.288815
vt 0.246768 0.205307
vt 0.370268 0.205307
vt 0.494283 0.205307
vt 0.492822 0.304944
vt 0.490632 0.379672
vt 0.369475 0.110659
vt 0.246397 0.121798
vt 0.245841 0.059166
vt 0.368286 0.039673
vt 0.490632 0.030941
vt 0.492822 0.105669
vt 0.616755 0.103478
vt 0.619174 0.205307
vt 0.613127 0.027106
vt 0.616755 0.307135
vt 0.613126 0.383507
vt 0.123273 0.268175
vt 0.123047 0.315326
vt 0.054743 0.283353
vt 0.030912 0.249131
vt 0.030973 0.205306
vt 0.123423 0.205306
vt 0.123273 0.142438
vt 0.030912 0.161481
vt 0.054744 0.127260
vt 0.123047 0.095287
vt 0.839504 0.118056
vt 0.856743 0.205307
vt 0.968983 0.205307
vt 0.938030 0.133427
vt 0.876123 0.061548
vt 0.805028 0.030806
vt 0.721203 0.008146
vt 0.734555 0.106726
vt 0.741230 0.205307
vt 0.839504 0.292557
vt 0.805028 0.379807
vt 0.876123 0.349065
vt 0.938030 0.277186
vt 0.734555 0.303887
vt 0.721203 0.402467
vt 0.369475 0.299954
vt 0.367890 0.394602
vt 0.489902 0.404581
vt 0.492822 0.304944
vt 0.494283 0.205307
vt 0.370268 0.205307
vt 0.246768 0.205307
vt 0.246397 0.288815
vt 0.245655 0.372324
vt 0.369475 0.110659
vt 0.492822 0.105669
vt 0.489902 0.006032
vt 0.367890 0.016011
vt 0.245655 0.038289
vt 0.246397 0.121798
vt 0.616755 0.103478
vt 0.619174 0.205307
vt 0.611917 0.001649
vt 0.616755 0.307135
vt 0.611917 0.408964
vt 0.123273 0.268175
vt 0.122972 0.331043
vt 0.123423 0.205306
vt 0.000156 0.205306
vt 0.000125 0.242784
vt 0.000064 0.280261
vt 0.123273 0.142438
vt 0.122972 0.079570
vt 0.000064 0.130352
vt 0.000125 0.167829
vt 0.122972 0.331043
vt 0.030806 0.283587
vt 0.245655 0.372324
vt 0.030806 0.283587
vt 0.000125 0.167829
vt 0.030806 0.127026
vt 0.000156 0.205306
vt 0.030806 0.127026
vt 0.805028 0.030806
vt 0.873826 0.071832
vt 0.721203 0.008146
vt 0.873826 0.071832
vt 0.938030 0.277186
vt 0.873826 0.338781
vt 0.968983 0.205307
vt 0.873826 0.338781
vt 0.805028 0.379807
vt 0.721203 0.402467
vt 0.000125 0.242784
vt 0.122972 0.079570
vt 0.245655 0.038289
vt 0.938030 0.133427
vt 0.611917 0.001649
vt 0.489902 0.006032
vt 0.611917 0.408964
vt 0.489902 0.404581
vt 0.367890 0.394602
vt 0.367890 0.016011
f 1/1/1 2/2/2 3/3/3
f 1/1/1 3/3/3 4/4/4
f 1/1/1 4/4/4 5/5/5
f 1/1/1 5/5/5 6/6/6
f 1/1/1 6/6/6 7/7/7
f 1/1/1 7/7/7 8/8/8
f 1/1/1 8/8/8 9/9/9
f 1/1/1 9/9/9 2/2/2
f 10/10/10 11/11/11 12/12/12
f 10/10/10 12/12/12 13/13/13
f 10/10/10 13/13/13 3/3/3
f 10/10/10 3/3/3 2/2/2
f 10/10/10 2/2/2 9/9/9
f 10/10/10 9/9/9 14/14/14
f 10/10/10 14/14/14 15/15/15
f 10/10/10 15/15/15 11/11/11
f 16/16/16 17/17/17 18/18/18
f 16/16/16 18/18/18 19/19/19
f 16/16/16 19/19/19 20/20/20
f 16/16/16 20/20/20 21/21/21
f 16/16/16 21/21/21 22/22/22
f 16/16/16 22/22/22 23/23/23
f 16/16/16 23/23/23 24/24/24
f 16/16/16 24/24/24 17/17/17
f 25/25/25 21/21/21 20/20/20
f 25/25/25 20/20/20 26/26/26
f 25/25/25 26/26/26 27/27/27
f 25/25/25 27/27/27 28/28/28
f 25/25/25 28/28/28 29/29/29
f 25/25/25 29/29/29 30/30/30
f 25/25/25 30/30/30 22/22/22
f 25/25/25 22/22/22 21/21/21
f 31/31/31 32/32/32 22/22/22
f 31/31/31 22/22/22 30/30/30
f 31/31/31 30/30/30 29/29/29
f 31/31/31 29/29/29 33/33/33
f 31/31/31 33/33/33 5/5/5
f 31/31/31 5/5/5 4/4/4
f 31/31/31 4/4/4 3/3/3
f 31/31/31 3/3/3 32/32/32
f 34/34/34 35/35/35 24/24/24
f 34/34/34 24/24/24 23/23/23
f 34/34/34 23/23/23 22/22/22
f 34/34/34 22/22/22 32/32/32
f 34/34/34 32/32/32 3/3/3
f 34/34/34 3/3/3 13/13/13
f 34/34/34 13/13/13 12/12/12
f 34/34/34 12/12/12 35/35/35
f 36/36/36 37/37/37 38/38/38
f 36/36/36 38/38/38 39/39/39
f 36/36/36 39/39/39 40/40/40
f 36/36/36 40/40/40 41/41/41
f 36/36/36 41/41/41 20/20/20
f 36/36/36 20/20/20 19/19/19
f 36/36/36 19/19/19 18/18/18
f 36/36/36 18/18/18 37/37/37
f 42/42/42 41/41/41 40/40/40
f 42/42/42 40/40/40 43/43/43
f 42/42/42 43/43/43 44/44/44
f 42/42/42 44/44/44 45/45/45
f 42/42/42 45/45/45 27/27/27
f 42/42/42 27/27/27 26/26/26
f 42/42/42 26/26/26 20/20/20
f 42/42/42 20/20/20 41/41/41
f 46/46/46 47/47/47 48/48/48
f 46/46/46 48/48/48 49/49/49
f 46/46/46 49/49/49 50/50/50
f 46/46/46 50/50/50 51/51/51
f 46/46/46 51/51/51 52/52/52
f 46/46/46 52/52/52 53/53/53
f 46/46/46 53/53/53 54/54/54
f 46/46/46 54/54/54 47/47/47
f 55/55/55 56/56/56 57/57/57
f 55/55/55 57/57/57 58/58/58
f 55/55/55 58/58/58 48/48/48
f 55/55/55 48/48/48 47/47/47
f 55/55/55 47/47/47 54/54/54
f 55/55/55 54/54/54 59/59/59
f 55/55/55 59/59/59 60/60/60
f 55/55/55 60/60/60 56/56/56
f 61/61/61 62/62/62 63/63/63
f 61/61/61 63/63/63 64/64/64
f 61/61/61 64/64/64 65/65/65
f 61/61/61 65/65/65 66/66/66
f 61/61/61 66/66/66 67/67/67
f 61/61/61 67/67/67 68/68/68
f 61/61/61 68/68/68 69/69/69
f 61/61/61 69/69/69 62/62/62
f 70/70/70 66/66/66 65/65/65
f 70/70/70 65/65/65 71/71/71
f 70/70/70 71/71/71 72/72/72
f 70/70/70 72/72/72 73/73/73
f 70/70/70 73/73/73 74/74/74
f 70/70/70 74/74/74 75/75/75
f 70/70/70 75/75/75 67/67/67
f 70/70/70 67/67/67 66/66/66
f 76/76/76 77/77/77 54/54/54
f 76/76/76 54/54/54 53/53/53
f 76/76/76 53/53/53 52/52/52
f 76/76/76 52/52/52 78/78/78
f 76/76/76 78/78/78 72/72/72
f 76/76/76 72/72/72 71/71/71
f 76/76/76 71/71/71 65/65/65
f 76/76/76 65/65/65 77/77/77
f 79/79/79 80/80/80 60/60/60
f 79/79/79 60/60/60 59/59/59
f 79/79/79 59/59/59 54/54/54
f 79/79/79 54/54/54 77/77/77
f 79/79/79 77/77/77 65/65/65
f 79/79/79 65/65/65 64/64/64
f 79/79/79 64/64/64 63/63/63
f 79/79/79 63/63/63 80/80/80
f 81/81/81 82/82/82 69/69/69
f 81/81/81 69/69/69 68/68/68
f 81/81/81 68/68/68 67/67/67
f 81/81/81 67/67/67 83/83/83
f 81/81/81 83/83/83 84/84/84
f 81/81/81 84/84/84 85/85/85
f 81/81/81 85/85/85 86/86/86
f 81/81/81 86/86/86 82/82/82
f 87/87/87 83/83/83 67/67/67
f 87/87/87 67/67/67 75/75/75
f 87/87/87 75/75/75 74/74/74
f 87/87/87 74/74/74 88/88/88
f 87/87/87 88/88/88 89/89/89
f 87/87/87 89/89/89 90/90/90
f 87/87/87 90/90/90 84/84/84
f 87/87/87 84/84/84 83/83/83
f 91/91/91 92/92/92 38/38/38
f 91/91/91 38/38/38 37/37/37
f 91/91/91 37/37/37 18/18/18
f 91/91/91 18/18/18 93/93/93
f 91/91/91 93/93/93 69/69/69
f 91/91/91 69/69/69 82/82/82
f 91/91/91 82/82/82 94/94/94
f 91/91/91 94/94/94 92/92/92
f 95/95/95 96/96/96 44/44/44
f 95/95/95 44/44/44 43/43/43
f 95/95/95 43/43/43 40/40/40
f 95/95/95 40/40/40 97/97/97
f 95/95/95 97/97/97 84/84/84
f 95/95/95 84/84/84 90/90/90
f 95/95/95 90/90/90 98/98/98
f 95/95/95 98/98/98 96/96/96
f 99/99/99 100/100/100 7/7/7
f 99/99/99 7/7/7 6/6/6
f 99/99/99 6/6/6 5/5/5
f 99/99/99 5/5/5 101/101/101
f 99/99/99 101/101/101 52/52/52
f 99/99/99 52/52/52 51/51/51
f 99/99/99 51/51/51 102/102/102
f 99/99/99 102/102/102 100/100/100
f 103/103/103 104/104/104 15/15/15
f 103/103/103 15/15/15 14/14/14
f 103/103/103 14/14/14 9/9/9
f 103/103/103 9/9/9 105/105/105
f 103/103/103 105/105/105 48/48/48
f 103/103/103 48/48/48 58/58/58
f 103/103/103 58/58/58 106/106/106
f 103/103/103 106/106/106 104/104/104
f 107/107/107 108/108/108 12/12/12
f 107/107/107 12/12/12 11/11/11
f 107/107/107 11/11/11 15/15/15
f 107/107/107 15/15/15 104/104/104
f 107/107/107 104/104/104 106/106/106
f 107/107/107 106/106/106 56/56/56
f 107/107/107 56/56/56 60/60/60
f 107/107/107 60/60/60 108/108/108
f 109/109/109 97/97/97 40/40/40
f 109/109/109 40/40/40 39/39/39
f 109/109/109 39/39/39 38/38/38
f 109/109/109 38/38/38 92/92/92
f 109/109/109 92/92/92 94/94/94
f 109/109/109 94/94/94 85/85/85
f 109/109/109 85/85/85 84/84/84
f 109/109/109 84/84/84 97/97/97
f 110/110/110 111/111/111 27/27/27
f 110/110/110 27/27/27 45/45/45
f 110/110/110 45/45/45 44/44/44
f 110/110/110 44/44/44 96/96/96
f 110/110/110 96/96/96 98/98/98
f 110/110/110 98/98/98 88/88/88
f 110/110/110 88/88/88 74/74/74
f 110/110/110 74/74/74 111/111/111
f 112/112/112 105/105/105 9/9/9
f 112/112/112 9/9/9 8/8/8
f 112/112/112 8/8/8 7/7/7
f 112/112/112 7/7/7 100/100/100
f 112/112/112 100/100/100 102/102/102
f 112/112/112 102/102/102 49/49/49
f 112/112/112 49/49/49 48/48/48
f 112/112/112 48/48/48 105/105/105
f 113/113/113 101/101/101 5/5/5
f 113/113/113 5/5/5 33/33/33
f 113/113/113 33/33/33 29/29/29
f 113/113/113 29/29/29 114/114/114
f 113/113/113 114/114/114 72/72/72
f 113/113/113 72/72/72 78/78/78
f 113/113/113 78/78/78 52/52/52
f 113/113/113 52/52/52 101/101/101
f 115/115/115 116/116/116 24/24/24
f 115/115/115 24/24/24 35/35/35
f 115/115/115 35/35/35 12/12/12
f 115/115/115 12/12/12 108/108/108
f 115/115/115 108/108/108 60/60/60
f 115/115/115 60/60/60 80/80/80
f 115/115/115 80/80/80 63/63/63
f 115/115/115 63/63/63 116/116/116
f 117/117/117 93/93/93 18/18/18
f 117/117/117 18/18/18 17/17/17
f 117/117/117 17/17/17 24/24/24
f 117/117/117 24/24/24 116/116/116
f 117/117/117 116/116/116 63/63/63
f 117/117/117 63/63/63 62/62/62
f 117/117/117 62/62/62 69/69/69
f 117/117/117 69/69/69 93/93/93
f 118/118/118 114/114/114 29/29/29
f 118/118/118 29/29/29 28/28/28
f 118/118/118 28/28/28 27/27/27
f 118/118/118 27/27/27 111/111/111
f 118/118/118 111/111/111 74/74/74
f 118/118/118 74/74/74 73/73/73
f 118/118/118 73/73/73 72/72/72
f 118/118/118 72/72/72 114/114/114
