v -2.404684 0.747954 -1.182795
v -2.402798 0.748146 -1.184188
v -2.404380 0.745824 -1.185571
v -2.406310 0.745819 -1.183806
v -2.407969 0.745857 -1.182643
v -2.406426 0.747705 -1.182009
v -2.405047 0.748705 -1.181825
v -2.403405 0.749386 -1.182089
v -2.401576 0.749774 -1.183125
v -2.401819 0.748106 -1.186325
v -2.401400 0.747971 -1.188201
v -2.402260 0.746159 -1.189676
v -2.403053 0.745991 -1.187818
v -2.400925 0.749518 -1.185145
v -2.400977 0.748920 -1.186839
v -2.406946 0.737681 -1.191269
v -2.405931 0.737836 -1.192895
v -2.407192 0.734744 -1.193390
v -2.408078 0.734602 -1.191943
v -2.409357 0.734463 -1.190100
v -2.408404 0.737526 -1.189194
v -2.407290 0.740478 -1.188163
v -2.405780 0.740652 -1.190346
v -2.404744 0.740833 -1.192065
v -2.410138 0.737512 -1.187338
v -2.410900 0.734453 -1.188466
v -2.412138 0.734482 -1.187297
v -2.411524 0.737540 -1.186006
v -2.410594 0.740523 -1.184859
v -2.409119 0.740475 -1.186233
v -2.407815 0.743285 -1.185004
v -2.405913 0.743256 -1.186926
v -2.409384 0.743379 -1.183665
v -2.404428 0.743464 -1.189177
v -2.403447 0.743693 -1.190978
v -2.409328 0.731469 -1.192360
v -2.408707 0.731593 -1.193474
v -2.409668 0.729787 -1.193210
v -2.410287 0.729086 -1.192562
v -2.410880 0.728985 -1.191572
v -2.410253 0.731350 -1.190961
v -2.411435 0.731357 -1.189765
v -2.411730 0.729010 -1.190784
v -2.412265 0.729649 -1.190011
v -2.412400 0.731398 -1.188924
v -2.404558 0.747797 -1.182655
v -2.402649 0.747988 -1.184073
v -2.401466 0.749653 -1.183041
v -2.403313 0.749266 -1.181984
v -2.404984 0.748617 -1.181742
v -2.406343 0.747588 -1.181892
v -2.407879 0.745745 -1.182525
v -2.406176 0.745669 -1.183664
v -2.404226 0.745674 -1.185452
v -2.401649 0.747951 -1.186238
v -2.401263 0.747857 -1.188150
v -2.400879 0.748834 -1.186799
v -2.400798 0.749399 -1.185083
v -2.402880 0.745843 -1.187724
v -2.402122 0.746050 -1.189618
v -2.406759 0.737571 -1.191151
v -2.405785 0.737754 -1.192815
v -2.404601 0.740742 -1.191990
v -2.405598 0.740530 -1.190233
v -2.407121 0.740354 -1.188032
v -2.408230 0.737415 -1.189058
v -2.409180 0.734360 -1.189961
v -2.407888 0.734501 -1.191821
v -2.407043 0.734668 -1.193308
v -2.409978 0.737400 -1.187185
v -2.408966 0.740352 -1.186084
v -2.410487 0.740430 -1.184739
v -2.411412 0.737456 -1.185883
v -2.412024 0.734404 -1.187172
v -2.410738 0.734350 -1.188310
v -2.407672 0.743147 -1.184859
v -2.405751 0.743118 -1.186801
v -2.409285 0.743276 -1.183547
v -2.404251 0.743329 -1.189073
v -2.403307 0.743593 -1.190911
v -2.409137 0.731371 -1.192239
v -2.408556 0.731521 -1.193392
v -2.410074 0.731251 -1.190820
v -2.410746 0.728911 -1.191466
v -2.410142 0.729013 -1.192472
v -2.409558 0.729733 -1.193147
v -2.411273 0.731258 -1.189608
v -2.412287 0.731323 -1.188797
v -2.412179 0.729594 -1.189919
v -2.411609 0.728935 -1.190665
v -2.408431 0.731603 -1.193811
v -2.409835 0.729174 -1.193377
v -2.406828 0.734757 -1.193838
v -2.409558 0.729733 -1.193147
v -2.411775 0.728194 -1.191071
v -2.412437 0.729037 -1.190172
v -2.411030 0.728164 -1.191728
v -2.412179 0.729594 -1.189919
v -2.406972 0.747570 -1.181693
v -2.405174 0.748828 -1.181582
v -2.408484 0.745820 -1.182200
v -2.404984 0.748617 -1.181742
v -2.400571 0.749935 -1.184725
v -2.400770 0.749061 -1.187007
v -2.401120 0.750263 -1.182734
v -2.400879 0.748834 -1.186799
v -2.401197 0.747876 -1.188807
v -2.401932 0.746167 -1.190272
v -2.410542 0.728260 -1.192590
v -2.412673 0.731378 -1.188585
v -2.412501 0.734457 -1.186850
v -2.402939 0.749810 -1.181808
v -2.409864 0.743365 -1.183164
v -2.411040 0.740497 -1.184346
v -2.403056 0.743725 -1.191551
v -2.404333 0.740853 -1.192607
v -2.405527 0.737852 -1.193403
v -2.411937 0.737512 -1.185505
vn -0.441200 0.659300 -0.608800
vn -0.580700 0.683600 -0.442000
vn -0.610600 0.638700 -0.468200
vn -0.487600 0.615900 -0.618800
vn -0.506200 0.596800 -0.622500
vn -0.447400 0.659800 -0.603700
vn -0.404300 0.701500 -0.586900
vn -0.421700 0.729200 -0.538900
vn -0.530000 0.748700 -0.398100
vn -0.714000 0.644700 -0.272900
vn -0.710000 0.646100 -0.279900
vn -0.738100 0.584600 -0.336700
vn -0.731500 0.602900 -0.318400
vn -0.644300 0.717600 -0.264400
vn -0.686500 0.686600 -0.239100
vn -0.775800 0.419000 -0.471700
vn -0.757600 0.413900 -0.504700
vn -0.765300 0.384600 -0.516200
vn -0.790200 0.388000 -0.474400
vn -0.724400 0.385300 -0.571500
vn -0.711800 0.424300 -0.559600
vn -0.682700 0.500100 -0.532700
vn -0.757300 0.485500 -0.436700
vn -0.748500 0.472600 -0.465100
vn -0.638900 0.426200 -0.640400
vn -0.643200 0.395800 -0.655400
vn -0.678700 0.389200 -0.622800
vn -0.667200 0.418700 -0.616000
vn -0.629100 0.478900 -0.612200
vn -0.603700 0.493600 -0.626000
vn -0.547000 0.564800 -0.617800
vn -0.644700 0.579500 -0.498400
vn -0.570100 0.543600 -0.616000
vn -0.740700 0.554600 -0.379300
vn -0.742700 0.534500 -0.403300
vn -0.807900 0.372700 -0.456500
vn -0.783400 0.365200 -0.502800
vn -0.805400 0.347100 -0.480400
vn -0.833600 0.317700 -0.451900
vn -0.743800 0.313500 -0.590400
vn -0.729900 0.366700 -0.576800
vn -0.628800 0.382200 -0.677100
vn -0.627200 0.328500 -0.706100
vn -0.650500 0.355400 -0.671200
vn -0.668600 0.371400 -0.644200
vn 0.432000 -0.638100 0.637300
vn 0.589200 -0.671500 0.449400
vn 0.620100 -0.623000 0.476700
vn 0.398500 -0.572300 0.716700
vn 0.314800 -0.524200 0.791200
vn 0.330800 -0.538400 0.775000
vn 0.389000 -0.552500 0.737200
vn 0.477000 -0.613100 0.629600
vn 0.610500 -0.638800 0.468100
vn 0.738900 -0.622000 0.259000
vn 0.848400 -0.511200 0.137200
vn 0.860300 -0.495600 0.119100
vn 0.806900 -0.550700 0.213600
vn 0.739800 -0.599200 0.306000
vn 0.824100 -0.529500 0.201100
vn 0.784300 -0.418700 0.457700
vn 0.836500 -0.415300 0.357600
vn 0.823600 -0.460800 0.330700
vn 0.765300 -0.484400 0.423900
vn 0.682800 -0.500000 0.532700
vn 0.711900 -0.424100 0.559700
vn 0.724500 -0.385200 0.571600
vn 0.799200 -0.389600 0.457600
vn 0.848000 -0.409800 0.336000
vn 0.627000 -0.427000 0.651500
vn 0.592800 -0.493500 0.636400
vn 0.512700 -0.477200 0.713700
vn 0.539700 -0.431000 0.723100
vn 0.520700 -0.427200 0.739200
vn 0.628700 -0.398600 0.667600
vn 0.536400 -0.563800 0.627900
vn 0.644700 -0.579500 0.498400
vn 0.455600 -0.528200 0.716500
vn 0.748300 -0.552600 0.366900
vn 0.816600 -0.509200 0.271700
vn 0.815200 -0.388700 0.429200
vn 0.858200 -0.432800 0.275900
vn 0.726600 -0.378000 0.573600
vn 0.710900 -0.427000 0.558800
vn 0.826800 -0.444700 0.344300
vn 0.860200 -0.451100 0.237600
vn 0.604200 -0.399900 0.689200
vn 0.465000 -0.453800 0.760100
vn 0.428800 -0.474200 0.768900
vn 0.526000 -0.460600 0.715000
vn 0.320400 -0.232500 -0.918300
vn 0.058200 -0.541200 -0.838800
vn 0.420900 -0.114400 -0.899800
vn 0.860200 -0.451100 0.237600
vn -0.444800 -0.890500 -0.095400
vn -0.784900 -0.586400 0.200000
vn -0.187400 -0.963000 -0.193500
vn 0.428800 -0.474200 0.768900
vn -0.601200 0.423700 0.677500
vn -0.347600 0.622800 0.700900
vn -0.713700 0.246300 0.655700
vn 0.314800 -0.524200 0.791200
vn 0.706600 0.707000 -0.029800
vn 0.587600 0.672300 -0.450300
vn 0.554700 0.680000 0.479500
vn 0.860300 -0.495600 0.119100
vn 0.520700 0.483500 -0.703500
vn 0.483500 0.309900 -0.818600
vn -0.147800 -0.874900 -0.461200
vn -0.821900 -0.293000 0.488500
vn -0.788000 -0.178400 0.589200
vn 0.086900 0.674300 0.733200
vn -0.757800 0.105600 0.643900
vn -0.766300 0.019000 0.642200
vn 0.468700 0.170800 -0.866700
vn 0.468800 0.084400 -0.879200
vn 0.465700 -0.001700 -0.884900
vn -0.768800 -0.066800 0.636000
vt 0.839504 0.118056
vt 0.856743 0.205307
vt 0.741230 0.205307
vt 0.734555 0.106726
vt 0.724541 0.032791
vt 0.813647 0.052618
vt 0.868992 0.081539
vt 0.913398 0.129584
vt 0.940923 0.205307
vt 0.839504 0.292557
vt 0.813647 0.357995
vt 0.724541 0.377822
vt 0.734555 0.303887
vt 0.913398 0.281029
vt 0.868992 0.329074
vt 0.369475 0.299954
vt 0.368286 0.370940
vt 0.245840 0.351447
vt 0.246397 0.288815
vt 0.246768 0.205307
vt 0.370268 0.205307
vt 0.494283 0.205307
vt 0.492822 0.304944
vt 0.490632 0.379672
vt 0.369475 0.110659
vt 0.246397 0.121798
vt 0.245841 0.059166
vt 0.368286 0.039673
vt 0.490632 0.030941
vt 0.492822 0.105669
vt 0.616755 0.103478
vt 0.619174 0.205307
vt 0.613127 0.027106
vt 0.616755 0.307135
vt 0.613126 0.383507
vt 0.123273 0.268175
vt 0.123047 0.315326
vt 0.054743 0.283353
vt 0.030912 0.249131
vt 0.030973 0.205306
vt 0.123423 0.205306
vt 0.123273 0.142438
vt 0.030912 0.161481
vt 0.054744 0.127260
vt 0.123047 0.095287
vt 0.839504 0.118056
vt 0.856743 0.205307
vt 0.968983 0.205307
vt 0.938030 0.133427
vt 0.876123 0.061548
vt 0.805028 0.030806
vt 0.721203 0.008146
vt 0.734555 0.106726
vt 0.741230 0.205307
vt 0.839504 0.292557
vt 0.805028 0.379807
vt 0.876123 0.349065
vt 0.938030 0.277186
vt 0.734555 0.303887
vt 0.721203 0.402467
vt 0.369475 0.299954
vt 0.367890 0.394602
vt 0.489902 0.404581
vt 0.492822 0.304944
vt 0.494283 0.205307
vt 0.370268 0.205307
vt 0.246768 0.205307
vt 0.246397 0.288815
vt 0.245655 0.372324
vt 0.369475 0.110659
vt 0.492822 0.105669
vt 0.489902 0.006032
vt 0.367890 0.016011
vt 0.245655 0.038289
vt 0.246397 0.121798
vt 0.616755 0.103478
vt 0.619174 0.205307
vt 0.611917 0.001649
vt 0.616755 0.307135
vt 0.611917 0.408964
vt 0.123273 0.268175
vt 0.122972 0.331043
vt 0.123423 0.205306
vt 0.000156 0.205306
vt 0.000125 0.242784
vt 0.000064 0.280261
vt 0.123273 0.142438
vt 0.122972 0.079570
vt 0.000064 0.130352
vt 0.000125 0.167829
vt 0.122972 0.331043
vt 0.030806 0.283587
vt 0.245655 0.372324
vt 0.030806 0.283587
vt 0.000125 0.167829
vt 0.030806 0.127026
vt 0.000156 0.205306
vt 0.030806 0.127026
vt 0.805028 0.030806
vt 0.873826 0.071832
vt 0.721203 0.008146
vt 0.873826 0.071832
vt 0.938030 0.277186
vt 0.873826 0.338781
vt 0.968983 0.205307
vt 0.873826 0.338781
vt 0.805028 0.379807
vt 0.721203 0.402467
vt 0.000125 0.242784
vt 0.122972 0.079570
vt 0.245655 0.038289
vt 0.938030 0.133427
vt 0.611917 0.001649
vt 0.489902 0.006032
vt 0.611917 0.408964
vt 0.489902 0.404581
vt 0.367890 0.394602
vt 0.367890 0.016011
f 1/1/1 2/2/2 3/3/3
f 1/1/1 3/3/3 4/4/4
f 1/1/1 4/4/4 5/5/5
f 1/1/1 5/5/5 6/6/6
f 1/1/1 6/6/6 7/7/7
f 1/1/1 7/7/7 8/8/8
f 1/1/1 8/8/8 9/9/9
f 1/1/1 9/9/9 2/2/2
f 10/10/10 11/11/11 12/12/12
f 10/10/10 12/12/12 13/13/13
f 10/10/10 13/13/13 3/3/3
f 10/10/10 3/3/3 2/2/2
f 10/10/10 2/2/2 9/9/9
f 10/10/10 9/9/9 14/14/14
f 10/10/10 14/14/14 15/15/15
f 10/10/10 15/15/15 11/11/11
f 16/16/16 17/17/17 18/18/18
f 16/16/16 18/18/18 19/19/19
f 16/16/16 19/19/19 20/20/20
f 16/16/16 20/20/20 21/21/21
f 16/16/16 21/21/21 22/22/22
f 16/16/16 22/22/22 23/23/23
f 16/16/16 23/23/23 24/24/24
f 16/16/16 24/24/24 17/17/17
f 25/25/25 21/21/21 20/20/20
f 25/25/25 20/20/20 26/26/26
f 25/25/25 26/26/26 27/27/27
f 25/25/25 27/27/27 28/28/28
f 25/25/25 28/28/28 29/29/29
f 25/25/25 29/29/29 30/30/30
f 25/25/25 30/30/30 22/22/22
f 25/25/25 22/22/22 21/21/21
f 31/31/31 32/32/32 22/22/22
f 31/31/31 22/22/22 30/30/30
f 31/31/31 30/30/30 29/29/29
f 31/31/31 29/29/29 33/33/33
f 31/31/31 33/33/33 5/5/5
f 31/31/31 5/5/5 4/4/4
f 31/31/31 4/4/4 3/3/3
f 31/31/31 3/3/3 32/32/32
f 34/34/34 35/35/35 24/24/24
f 34/34/34 24/24/24 23/23/23
f 34/34/34 23/23/23 22/22/22
f 34/34/34 22/22/22 32/32/32
f 34/34/34 32/32/32 3/3/3
f 34/34/34 3/3/3 13/13/13
f 34/34/34 13/13/13 12/12/12
f 34/34/34 12/12/12 35/35/35
f 36/36/36 37/37/37 38/38/38
f 36/36/36 38/38/38 39/39/39
f 36/36/36 39/39/39 40/40/40
f 36/36/36 40/40/40 41/41/41
f 36/36/36 41/41/41 20/20/20
f 36/36/36 20/20/20 19/19/19
f 36/36/36 19/19/19 18/18/18
f 36/36/36 18/18/18 37/37/37
f 42/42/42 41/41/41 40/40/40
f 42/42/42 40/40/40 43/43/43
f 42/42/42 43/43/43 44/44/44
f 42/42/42 44/44/44 45/45/45
f 42/42/42 45/45/45 27/27/27
f 42/42/42 27/27/27 26/26/26
f 42/42/42 26/26/26 20/20/20
f 42/42/42 20/20/20 41/41/41
f 46/46/46 47/47/47 48/48/48
f 46/46/46 48/48/48 49/49/49
f 46/46/46 49/49/49 50/50/50
f 46/46/46 50/50/50 51/51/51
f 46/46/46 51/51/51 52/52/52
f 46/46/46 52/52/52 53/53/53
f 46/46/46 53/53/53 54/54/54
f 46/46/46 54/54/54 47/47/47
f 55/55/55 56/56/56 57/57/57
f 55/55/55 57/57/57 58/58/58
f 55/55/55 58/58/58 48/48/48
f 55/55/55 48/48/48 47/47/47
f 55/55/55 47/47/47 54/54/54
f 55/55/55 54/54/54 59/59/59
f 55/55/55 59/59/59 60/60/60
f 55/55/55 60/60/60 56/56/56
f 61/61/61 62/62/62 63/63/63
f 61/61/61 63/63/63 64/64/64
f 61/61/61 64/64/64 65/65/65
f 61/61/61 65/65/65 66/66/66
f 61/61/61 66/66/66 67/67/67
f 61/61/61 67/67/67 68/68/68
f 61/61/61 68/68/68 69/69/69
f 61/61/61 69/69/69 62/62/62
f 70/70/70 66/66/66 65/65/65
f 70/70/70 65/65/65 71/71/71
f 70/70/70 71/71/71 72/72/72
f 70/70/70 72/72/72 73/73/73
f 70/70/70 73/73/73 74/74/74
f 70/70/70 74/74/74 75/75/75
f 70/70/70 75/75/75 67/67/67
f 70/70/70 67/67/67 66/66/66
f 76/76/76 77/77/77 54/54/54
f 76/76/76 54/54/54 53/53/53
f 76/76/76 53/53/53 52/52/52
f 76/76/76 52/52/52 78/78/78
f 76/76/76 78/78/78 72/72/72
f 76/76/76 72/72/72 71/71/71
f 76/76/76 71/71/71 65/65/65
f 76/76/76 65/65/65 77/77/77
f 79/79/79 80/80/80 60/60/60
f 79/79/79 60/60/60 59/59/59
f 79/79/79 59/59/59 54/54/54
f 79/79/79 54/54/54 77/77/77
f 79/79/79 77/77/77 65/65/65
f 79/79/79 65/65/65 64/64/64
f 79/79/79 64/64/64 63/63/63
f 79/79/79 63/63/63 80/80/80
f 81/81/81 82/82/82 69/69/69
f 81/81/81 69/69/69 68/68/68
f 81/81/81 68/68/68 67/67/67
f 81/81/81 67/67/67 83/83/83
f 81/81/81 83/83/83 84/84/84
f 81/81/81 84/84/84 85/85/85
f 81/81/81 85/85/85 86/86/86
f 81/81/81 86/86/86 82/82/82
f 87/87/87 83/83/83 67/67/67
f 87/87/87 67/67/67 75/75/75
f 87/87/87 75/75/75 74/74/74
f 87/87/87 74/74/74 88/88/88
f 87/87/87 88/88/88 89/89/89
f 87/87/87 89/89/89 90/90/90
f 87/87/87 90/90/90 84/84/84
f 87/87/87 84/84/84 83/83/83
f 91/91/91 92/92/92 38/38/38
f 91/91/91 38/38/38 37/37/37
f 91/91/91 37/37/37 18/18/18
f 91/91/91 18/18/18 93/93/93
f 91/91/91 93/93/93 69/69/69
f 91/91/91 69/69/69 82/82/82
f 91/91/91 82/82/82 94/94/94
f 91/91/91 94/94/94 92/92/92
f 95/95/95 96/96/96 44/44/44
f 95/95/95 44/44/44 43/43/43
f 95/95/95 43/43/43 40/40/40
f 95/95/95 40/40/40 97/97/97
f 95/95/95 97/97/97 84/84/84
f 95/95/95 84/84/84 90/90/90
f 95/95/95 90/90/90 98/98/98
f 95/95/95 98/98/98 96/96/96
f 99/99/99 100/100/100 7/7/7
f 99/99/99 7/7/7 6/6/6
f 99/99/99 6/6/6 5/5/5
f 99/99/99 5/5/5 101/101/101
f 99/99/99 101/101/101 52/52/52
f 99/99/99 52/52/52 51/51/51
f 99/99/99 51/51/51 102/102/102
f 99/99/99 102/102/102 100/100/100
f 103/103/103 104/104/104 15/15/15
f 103/103/103 15/15/15 14/14/14
f 103/103/103 14/14/14 9/9/9
f 103/103/103 9/9/9 105/105/105
f 103/103/103 105/105/105 48/48/48
f 103/103/103 48/48/48 58/58/58
f 103/103/103 58/58/58 106/106/106
f 103/103/103 106/106/106 104/104/104
f 107/107/107 108/108/108 12/12/12
f 107/107/107 12/12/12 11/11/11
f 107/107/107 11/11/11 15/15/15
f 107/107/107 15/15/15 104/104/104
f 107/107/107 104/104/104 106/106/106
f 107/107/107 106/106/106 56/56/56
f 107/107/107 56/56/56 60/60/60
f 107/107/107 60/60/60 108/108/108
f 109/109/109 97/97/97 40/40/40
f 109/109/109 40/40/40 39/39/39
f 109/109/109 39/39/39 38/38/38
f 109/109/109 38/38/38 92/92/92
f 109/109/109 92/92/92 94/94/94
f 109/109/109 94/94/94 85/85/85
f 109/109/109 85/85/85 84/84/84
f 109/109/109 84/84/84 97/97/97
f 110/110/110 111/111/111 27/27/27
f 110/110/110 27/27/27 45/45/45
f 110/110/110 45/45/45 44/44/44
f 110/110/110 44/44/44 96/96/96
f 110/110/110 96/96/96 98/98/98
f 110/110/110 98/98/98 88/88/88
f 110/110/110 88/88/88 74/74/74
f 110/110/110 74/74/74 111/111/111
f 112/112/112 105/105/105 9/9/9
f 112/112/112 9/9/9 8/8/8
f 112/112/112 8/8/8 7/7/7
f 112/112/112 7/7/7 100/100/100
f 112/112/112 100/100/100 102/102/102
f 112/112/112 102/102/102 49/49/49
f 112/112/112 49/49/49 48/48/48
f 112/112/112 48/48/48 105/105/105
f 113/113/113 101/101/101 5/5/5
f 113/113/113 5/5/5 33/33/33
f 113/113/113 33/33/33 29/29/29
f 113/113/113 29/29/29 114/114/114
f 113/113/113 114/114/114 72/72/72
f 113/113/113 72/72/72 78/78/78
f 113/113/113 78/78/78 52/52/52
f 113/113/113 52/52/52 101/101/101
f 115/115/115 116/116/116 24/24/24
f 115/115/115 24/24/24 35/35/35
f 115/115/115 35/35/35 12/12/12
f 115/115/115 12/12/12 108/108/108
f 115/115/115 108/108/108 60/60/60
f 115/115/115 60/60/60 80/80/80
f 115/115/115 80/80/80 63/63/63
f 115/115/115 63/63/63 116/116/116
f 117/117/117 93/93/93 18/18/18
f 117/117/117 18/18/18 17/17/17
f 117/117/117 17/17/17 24/24/24
f 117/117/117 24/24/24 116/116/116
f 117/117/117 116/116/116 63/63/63
f 117/117/117 63/63/63 62/62/62
f 117/117/117 62/62/62 69/69/69
f 117/117/117 69/69/69 93/93/93
f 118/118/118 114/114/114 29/29/29
f 118/118/118 29/29/29 28/28/28
f 118/118/118 28/28/28 27/27/27
f 118/118/118 27/27/27 111/111/111
f 118/118/118 111/111/111 74/74/74
f 118/118/118 74/74/74 73/73/73
f 118/118/118 73/73/73 72/72/72
f 118/118/118 72/72/72 114/114/114
