v -2.395324 0.676278 -1.075210
v -2.394675 0.677431 -1.076916
v -2.396636 0.675693 -1.078097
v -2.397114 0.674538 -1.076047
v -2.397715 0.673712 -1.074492
v -2.396195 0.675343 -1.073988
v -2.395056 0.676422 -1.074077
v -2.393968 0.677482 -1.074722
v -2.393165 0.678644 -1.076084
v -2.395104 0.678448 -1.078772
v -2.395809 0.679148 -1.080234
v -2.397276 0.678035 -1.081587
v -2.396864 0.677004 -1.080094
v -2.393778 0.679361 -1.077805
v -2.394743 0.679504 -1.079135
v -2.401763 0.670670 -1.084201
v -2.401886 0.671660 -1.085656
v -2.403143 0.669055 -1.086769
v -2.403021 0.668176 -1.085483
v -2.402977 0.667050 -1.083755
v -2.401726 0.669400 -1.082246
v -2.400290 0.671654 -1.080783
v -2.400347 0.672994 -1.082823
v -2.400505 0.674044 -1.084338
v -2.402008 0.668253 -1.080235
v -2.403238 0.666039 -1.081975
v -2.403523 0.665310 -1.080623
v -2.402316 0.667426 -1.078707
v -2.400954 0.669615 -1.077069
v -2.400603 0.670466 -1.078674
v -2.398923 0.672581 -1.077240
v -2.398551 0.673760 -1.079393
v -2.399361 0.671757 -1.075591
v -2.398663 0.675146 -1.081450
v -2.398905 0.676252 -1.082968
v -2.404230 0.665512 -1.086569
v -2.404368 0.666186 -1.087523
v -2.404971 0.664401 -1.087711
v -2.405092 0.663441 -1.087318
v -2.404998 0.662839 -1.086445
v -2.404161 0.664659 -1.085285
v -2.404392 0.663917 -1.083951
v -2.405203 0.662348 -1.085524
v -2.405170 0.662434 -1.084484
v -2.404652 0.663389 -1.082933
v -2.395157 0.676132 -1.075252
v -2.394504 0.677300 -1.076986
v -2.393039 0.678544 -1.076137
v -2.393846 0.677370 -1.074753
v -2.394965 0.676337 -1.074094
v -2.396072 0.675227 -1.074005
v -2.397587 0.673602 -1.074510
v -2.396940 0.674399 -1.076088
v -2.396460 0.675567 -1.078162
v -2.394933 0.678335 -1.078867
v -2.395682 0.679073 -1.080318
v -2.394650 0.679445 -1.079195
v -2.393653 0.679275 -1.077879
v -2.396687 0.676895 -1.080183
v -2.397145 0.677962 -1.081665
v -2.401563 0.670585 -1.084264
v -2.401736 0.671602 -1.085712
v -2.400359 0.673980 -1.084400
v -2.400153 0.672900 -1.082893
v -2.400096 0.671549 -1.080835
v -2.401525 0.669304 -1.082292
v -2.402772 0.666961 -1.083796
v -2.402816 0.668098 -1.085542
v -2.402990 0.669002 -1.086822
v -2.401810 0.668148 -1.080263
v -2.400412 0.670350 -1.078708
v -2.400811 0.669523 -1.077085
v -2.402168 0.667342 -1.078720
v -2.403373 0.665231 -1.080632
v -2.403035 0.665940 -1.082000
v -2.398740 0.672453 -1.077278
v -2.398366 0.673644 -1.079452
v -2.399225 0.671655 -1.075609
v -2.398477 0.675043 -1.081529
v -2.398766 0.676182 -1.083038
v -2.404023 0.665437 -1.086627
v -2.404214 0.666136 -1.087576
v -2.403955 0.664572 -1.085325
v -2.404843 0.662775 -1.086475
v -2.404938 0.663386 -1.087362
v -2.404856 0.664362 -1.087748
v -2.404187 0.663820 -1.083973
v -2.404500 0.663311 -1.082940
v -2.405058 0.662378 -1.084491
v -2.405050 0.662275 -1.085539
v -2.404346 0.666389 -1.087867
v -2.405196 0.663931 -1.088015
v -2.403116 0.669326 -1.087223
v -2.404856 0.664362 -1.087748
v -2.405406 0.661793 -1.086055
v -2.405396 0.661961 -1.084782
v -2.405208 0.662204 -1.086845
v -2.405058 0.662378 -1.084491
v -2.396431 0.674978 -1.073586
v -2.395016 0.676398 -1.073804
v -2.397859 0.673386 -1.073979
v -2.394965 0.676337 -1.074094
v -2.393281 0.679626 -1.077516
v -2.394678 0.679732 -1.079277
v -2.392606 0.679003 -1.075830
v -2.394650 0.679445 -1.079195
v -2.395988 0.679351 -1.080762
v -2.397356 0.678348 -1.082122
v -2.405311 0.662726 -1.087587
v -2.404672 0.663177 -1.082595
v -2.403552 0.665031 -1.080174
v -2.393463 0.677833 -1.074573
v -2.399447 0.671436 -1.075047
v -2.401008 0.669289 -1.076538
v -2.398924 0.676591 -1.083508
v -2.400493 0.674368 -1.084872
v -2.401861 0.671966 -1.086168
v -2.402353 0.667111 -1.078201
vn -0.702300 0.700000 0.129200
vn -0.716400 0.614600 0.330200
vn -0.756700 0.578000 0.305400
vn -0.746500 0.653500 0.125100
vn -0.764100 0.633300 0.122800
vn -0.704300 0.696600 0.136400
vn -0.658700 0.738100 0.146200
vn -0.643900 0.737800 0.202400
vn -0.648200 0.667400 0.366600
vn -0.725200 0.475000 0.498500
vn -0.726300 0.479800 0.492200
vn -0.783500 0.441800 0.436800
vn -0.766900 0.452300 0.455200
vn -0.662600 0.554100 0.504000
vn -0.682400 0.505100 0.528400
vn -0.896600 0.342400 0.280700
vn -0.901300 0.356600 0.245700
vn -0.914900 0.333500 0.227300
vn -0.910400 0.312700 0.271000
vn -0.914500 0.368200 0.167800
vn -0.896600 0.400600 0.188700
vn -0.855700 0.463700 0.229700
vn -0.859800 0.391200 0.328200
vn -0.869600 0.394100 0.297500
vn -0.885200 0.455400 0.095300
vn -0.898100 0.433900 0.072100
vn -0.907700 0.405000 0.110000
vn -0.893800 0.431200 0.123300
vn -0.859600 0.492600 0.135800
vn -0.846900 0.517900 0.120200
vn -0.794900 0.592200 0.131500
vn -0.803300 0.529300 0.272900
vn -0.812900 0.566600 0.134400
vn -0.811100 0.432500 0.393600
vn -0.827300 0.424400 0.368100
vn -0.914400 0.287200 0.285200
vn -0.922100 0.306300 0.236600
vn -0.927000 0.275300 0.254700
vn -0.933500 0.230300 0.274800
vn -0.942600 0.307900 0.129400
vn -0.922400 0.352600 0.157800
vn -0.899400 0.434900 0.042800
vn -0.916200 0.400600 -0.004600
vn -0.913900 0.403300 0.045000
vn -0.912400 0.401100 0.081100
vn 0.712000 -0.695800 -0.094100
vn 0.727700 -0.604700 -0.323500
vn 0.769700 -0.565200 -0.296700
vn 0.732900 -0.680200 0.011000
vn 0.710100 -0.691900 0.130200
vn 0.713200 -0.693200 0.103500
vn 0.737700 -0.673900 0.039900
vn 0.744400 -0.658400 -0.110600
vn 0.756700 -0.578000 -0.305400
vn 0.737700 -0.442500 -0.509800
vn 0.756500 -0.266200 -0.597300
vn 0.755800 -0.241800 -0.608500
vn 0.767100 -0.343300 -0.541900
vn 0.766400 -0.441700 -0.466300
vn 0.774100 -0.315000 -0.549100
vn 0.895200 -0.334200 -0.294700
vn 0.878400 -0.275900 -0.390100
vn 0.851300 -0.308200 -0.424600
vn 0.858700 -0.382900 -0.340700
vn 0.855700 -0.463600 -0.229600
vn 0.896700 -0.400500 -0.188600
vn 0.914500 -0.368000 -0.167700
vn 0.907800 -0.304700 -0.288300
vn 0.875100 -0.259200 -0.408500
vn 0.882000 -0.464000 -0.081800
vn 0.844200 -0.525100 -0.107200
vn 0.825300 -0.564700 -0.003700
vn 0.853600 -0.520700 0.011700
vn 0.847800 -0.529100 0.034600
vn 0.893500 -0.445300 -0.057400
vn 0.792400 -0.598400 -0.118400
vn 0.803300 -0.529300 -0.272900
vn 0.779800 -0.625900 0.002800
vn 0.810100 -0.423600 -0.405300
vn 0.810100 -0.328100 -0.485900
vn 0.904000 -0.287900 -0.316000
vn 0.847600 -0.252000 -0.467000
vn 0.917600 -0.362000 -0.163900
vn 0.895300 -0.402800 -0.190300
vn 0.862300 -0.298800 -0.408800
vn 0.826300 -0.251800 -0.503700
vn 0.886300 -0.462000 -0.030300
vn 0.814500 -0.576400 0.065200
vn 0.790000 -0.607800 0.080200
vn 0.837100 -0.547000 -0.001400
vn -0.286500 0.260500 -0.922000
vn -0.457300 -0.113800 -0.882000
vn -0.192100 0.383600 -0.903300
vn 0.826300 -0.251800 -0.503700
vn -0.432700 -0.859000 -0.273500
vn -0.528000 -0.808600 0.259400
vn -0.283500 -0.810500 -0.512400
vn 0.790000 -0.607800 0.080200
vn -0.078700 -0.074000 0.994100
vn 0.143800 0.159800 0.976600
vn -0.185800 -0.250400 0.950100
vn 0.710100 -0.691900 0.130200
vn 0.567100 0.822700 -0.040100
vn 0.222000 0.931200 -0.289200
vn 0.743700 0.549300 0.381000
vn 0.755800 -0.241800 -0.608500
vn 0.014600 0.851200 -0.524600
vn -0.086100 0.736800 -0.670600
vn -0.407800 -0.613400 -0.676300
vn -0.382300 -0.681400 0.624100
vn -0.293000 -0.613200 0.733500
vn 0.515200 0.311800 0.798300
vn -0.231100 -0.380200 0.895500
vn -0.240900 -0.457400 0.856000
vn -0.128400 0.631500 -0.764600
vn -0.137400 0.561600 -0.815900
vn -0.144800 0.488100 -0.860700
vn -0.247900 -0.530000 0.810900
vt 0.839504 0.118056
vt 0.856743 0.205307
vt 0.741230 0.205307
vt 0.734555 0.106726
vt 0.724541 0.032791
vt 0.813647 0.052618
vt 0.868992 0.081539
vt 0.913398 0.129584
vt 0.940923 0.205307
vt 0.839504 0.292557
vt 0.813647 0.357995
vt 0.724541 0.377822
vt 0.734555 0.303887
vt 0.913398 0.281029
vt 0.868992 0.329074
vt 0.369475 0.299954
vt 0.368286 0.370940
vt 0.245840 0.351447
vt 0.246397 0.288815
vt 0.246768 0.205307
vt 0.370268 0.205307
vt 0.494283 0.205307
vt 0.492822 0.304944
vt 0.490632 0.379672
vt 0.369475 0.110659
vt 0.246397 0.121798
vt 0.245841 0.059166
vt 0.368286 0.039673
vt 0.490632 0.030941
vt 0.492822 0.105669
vt 0.616755 0.103478
vt 0.619174 0.205307
vt 0.613127 0.027106
vt 0.616755 0.307135
vt 0.613126 0.383507
vt 0.123273 0.268175
vt 0.123047 0.315326
vt 0.054743 0.283353
vt 0.030912 0.249131
vt 0.030973 0.205306
vt 0.123423 0.205306
vt 0.123273 0.142438
vt 0.030912 0.161481
vt 0.054744 0.127260
vt 0.123047 0.095287
vt 0.839504 0.118056
vt 0.856743 0.205307
vt 0.968983 0.205307
vt 0.938030 0.133427
vt 0.876123 0.061548
vt 0.805028 0.030806
vt 0.721203 0.008146
vt 0.734555 0.106726
vt 0.741230 0.205307
vt 0.839504 0.292557
vt 0.805028 0.379807
vt 0.876123 0.349065
vt 0.938030 0.277186
vt 0.734555 0.303887
vt 0.721203 0.402467
vt 0.369475 0.299954
vt 0.367890 0.394602
vt 0.489902 0.404581
vt 0.492822 0.304944
vt 0.494283 0.205307
vt 0.370268 0.205307
vt 0.246768 0.205307
vt 0.246397 0.288815
vt 0.245655 0.372324
vt 0.369475 0.110659
vt 0.492822 0.105669
vt 0.489902 0.006032
vt 0.367890 0.016011
vt 0.245655 0.038289
vt 0.246397 0.121798
vt 0.616755 0.103478
vt 0.619174 0.205307
vt 0.611917 0.001649
vt 0.616755 0.307135
vt 0.611917 0.408964
vt 0.123273 0.268175
vt 0.122972 0.331043
vt 0.123423 0.205306
vt 0.000156 0.205306
vt 0.000125 0.242784
vt 0.000064 0.280261
vt 0.123273 0.142438
vt 0.122972 0.079570
vt 0.000064 0.130352
vt 0.000125 0.167829
vt 0.122972 0.331043
vt 0.030806 0.283587
vt 0.245655 0.372324
vt 0.030806 0.283587
vt 0.000125 0.167829
vt 0.030806 0.127026
vt 0.000156 0.205306
vt 0.030806 0.127026
vt 0.805028 0.030806
vt 0.873826 0.071832
vt 0.721203 0.008146
vt 0.873826 0.071832
vt 0.938030 0.277186
vt 0.873826 0.338781
vt 0.968983 0.205307
vt 0.873826 0.338781
vt 0.805028 0.379807
vt 0.721203 0.402467
vt 0.000125 0.242784
vt 0.122972 0.079570
vt 0.245655 0.038289
vt 0.938030 0.133427
vt 0.611917 0.001649
vt 0.489902 0.006032
vt 0.611917 0.408964
vt 0.489902 0.404581
vt 0.367890 0.394602
vt 0.367890 0.016011
f 1/1/1 2/2/2 3/3/3
f 1/1/1 3/3/3 4/4/4
f 1/1/1 4/4/4 5/5/5
f 1/1/1 5/5/5 6/6/6
f 1/1/1 6/6/6 7/7/7
f 1/1/1 7/7/7 8/8/8
f 1/1/1 8/8/8 9/9/9
f 1/1/1 9/9/9 2/2/2
f 10/10/10 11/11/11 12/12/12
f 10/10/10 12/12/12 13/13/13
f 10/10/10 13/13/13 3/3/3
f 10/10/10 3/3/3 2/2/2
f 10/10/10 2/2/2 9/9/9
f 10/10/10 9/9/9 14/14/14
f 10/10/10 14/14/14 15/15/15
f 10/10/10 15/15/15 11/11/11
f 16/16/16 17/17/17 18/18/18
f 16/16/16 18/18/18 19/19/19
f 16/16/16 19/19/19 20/20/20
f 16/16/16 20/20/20 21/21/21
f 16/16/16 21/21/21 22/22/22
f 16/16/16 22/22/22 23/23/23
f 16/16/16 23/23/23 24/24/24
f 16/16/16 24/24/24 17/17/17
f 25/25/25 21/21/21 20/20/20
f 25/25/25 20/20/20 26/26/26
f 25/25/25 26/26/26 27/27/27
f 25/25/25 27/27/27 28/28/28
f 25/25/25 28/28/28 29/29/29
f 25/25/25 29/29/29 30/30/30
f 25/25/25 30/30/30 22/22/22
f 25/25/25 22/22/22 21/21/21
f 31/31/31 32/32/32 22/22/22
f 31/31/31 22/22/22 30/30/30
f 31/31/31 30/30/30 29/29/29
f 31/31/31 29/29/29 33/33/33
f 31/31/31 33/33/33 5/5/5
f 31/31/31 5/5/5 4/4/4
f 31/31/31 4/4/4 3/3/3
f 31/31/31 3/3/3 32/32/32
f 34/34/34 35/35/35 24/24/24
f 34/34/34 24/24/24 23/23/23
f 34/34/34 23/23/23 22/22/22
f 34/34/34 22/22/22 32/32/32
f 34/34/34 32/32/32 3/3/3
f 34/34/34 3/3/3 13/13/13
f 34/34/34 13/13/13 12/12/12
f 34/34/34 12/12/12 35/35/35
f 36/36/36 37/37/37 38/38/38
f 36/36/36 38/38/38 39/39/39
f 36/36/36 39/39/39 40/40/40
f 36/36/36 40/40/40 41/41/41
f 36/36/36 41/41/41 20/20/20
f 36/36/36 20/20/20 19/19/19
f 36/36/36 19/19/19 18/18/18
f 36/36/36 18/18/18 37/37/37
f 42/42/42 41/41/41 40/40/40
f 42/42/42 40/40/40 43/43/43
f 42/42/42 43/43/43 44/44/44
f 42/42/42 44/44/44 45/45/45
f 42/42/42 45/45/45 27/27/27
f 42/42/42 27/27/27 26/26/26
f 42/42/42 26/26/26 20/20/20
f 42/42/42 20/20/20 41/41/41
f 46/46/46 47/47/47 48/48/48
f 46/46/46 48/48/48 49/49/49
f 46/46/46 49/49/49 50/50/50
f 46/46/46 50/50/50 51/51/51
f 46/46/46 51/51/51 52/52/52
f 46/46/46 52/52/52 53/53/53
f 46/46/46 53/53/53 54/54/54
f 46/46/46 54/54/54 47/47/47
f 55/55/55 56/56/56 57/57/57
f 55/55/55 57/57/57 58/58/58
f 55/55/55 58/58/58 48/48/48
f 55/55/55 48/48/48 47/47/47
f 55/55/55 47/47/47 54/54/54
f 55/55/55 54/54/54 59/59/59
f 55/55/55 59/59/59 60/60/60
f 55/55/55 60/60/60 56/56/56
f 61/61/61 62/62/62 63/63/63
f 61/61/61 63/63/63 64/64/64
f 61/61/61 64/64/64 65/65/65
f 61/61/61 65/65/65 66/66/66
f 61/61/61 66/66/66 67/67/67
f 61/61/61 67/67/67 68/68/68
f 61/61/61 68/68/68 69/69/69
f 61/61/61 69/69/69 62/62/62
f 70/70/70 66/66/66 65/65/65
f 70/70/70 65/65/65 71/71/71
f 70/70/70 71/71/71 72/72/72
f 70/70/70 72/72/72 73/73/73
f 70/70/70 73/73/73 74/74/74
f 70/70/70 74/74/74 75/75/75
f 70/70/70 75/75/75 67/67/67
f 70/70/70 67/67/67 66/66/66
f 76/76/76 77/77/77 54/54/54
f 76/76/76 54/54/54 53/53/53
f 76/76/76 53/53/53 52/52/52
f 76/76/76 52/52/52 78/78/78
f 76/76/76 78/78/78 72/72/72
f 76/76/76 72/72/72 71/71/71
f 76/76/76 71/71/71 65/65/65
f 76/76/76 65/65/65 77/77/77
f 79/79/79 80/80/80 60/60/60
f 79/79/79 60/60/60 59/59/59
f 79/79/79 59/59/59 54/54/54
f 79/79/79 54/54/54 77/77/77
f 79/79/79 77/77/77 65/65/65
f 79/79/79 65/65/65 64/64/64
f 79/79/79 64/64/64 63/63/63
f 79/79/79 63/63/63 80/80/80
f 81/81/81 82/82/82 69/69/69
f 81/81/81 69/69/69 68/68/68
f 81/81/81 68/68/68 67/67/67
f 81/81/81 67/67/67 83/83/83
f 81/81/81 83/83/83 84/84/84
f 81/81/81 84/84/84 85/85/85
f 81/81/81 85/85/85 86/86/86
f 81/81/81 86/86/86 82/82/82
f 87/87/87 83/83/83 67/67/67
f 87/87/87 67/67/67 75/75/75
f 87/87/87 75/75/75 74/74/74
f 87/87/87 74/74/74 88/88/88
f 87/87/87 88/88/88 89/89/89
f 87/87/87 89/89/89 90/90/90
f 87/87/87 90/90/90 84/84/84
f 87/87/87 84/84/84 83/83/83
f 91/91/91 92/92/92 38/38/38
f 91/91/91 38/38/38 37/37/37
f 91/91/91 37/37/37 18/18/18
f 91/91/91 18/18/18 93/93/93
f 91/91/91 93/93/93 69/69/69
f 91/91/91 69/69/69 82/82/82
f 91/91/91 82/82/82 94/94/94
f 91/91/91 94/94/94 92/92/92
f 95/95/95 96/96/96 44/44/44
f 95/95/95 44/44/44 43/43/43
f 95/95/95 43/43/43 40/40/40
f 95/95/95 40/40/40 97/97/97
f 95/95/95 97/97/97 84/84/84
f 95/95/95 84/84/84 90/90/90
f 95/95/95 90/90/90 98/98/98
f 95/95/95 98/98/98 96/96/96
f 99/99/99 100/100/100 7/7/7
f 99/99/99 7/7/7 6/6/6
f 99/99/99 6/6/6 5/5/5
f 99/99/99 5/5/5 101/101/101
f 99/99/99 101/101/101 52/52/52
f 99/99/99 52/52/52 51/51/51
f 99/99/99 51/51/51 102/102/102
f 99/99/99 102/102/102 100/100/100
f 103/103/103 104/104/104 15/15/15
f 103/103/103 15/15/15 14/14/14
f 103/103/103 14/14/14 9/9/9
f 103/103/103 9/9/9 105/105/105
f 103/103/103 105/105/105 48/48/48
f 103/103/103 48/48/48 58/58/58
f 103/103/103 58/58/58 106/106/106
f 103/103/103 106/106/106 104/104/104
f 107/107/107 108/108/108 12/12/12
f 107/107/107 12/12/12 11/11/11
f 107/107/107 11/11/11 15/15/15
f 107/107/107 15/15/15 104/104/104
f 107/107/107 104/104/104 106/106/106
f 107/107/107 106/106/106 56/56/56
f 107/107/107 56/56/56 60/60/60
f 107/107/107 60/60/60 108/108/108
f 109/109/109 97/97/97 40/40/40
f 109/109/109 40/40/40 39/39/39
f 109/109/109 39/39/39 38/38/38
f 109/109/109 38/38/38 92/92/92
f 109/109/109 92/92/92 94/94/94
f 109/109/109 94/94/94 85/85/85
f 109/109/109 85/85/85 84/84/84
f 109/109/109 84/84/84 97/97/97
f 110/110/110 111/111/111 27/27/27
f 110/110/110 27/27/27 45/45/45
f 110/110/110 45/45/45 44/44/44
f 110/110/110 44/44/44 96/96/96
f 110/110/110 96/96/96 98/98/98
f 110/110/110 98/98/98 88/88/88
f 110/110/110 88/88/88 74/74/74
f 110/110/110 74/74/74 111/111/111
f 112/112/112 105/105/105 9/9/9
f 112/112/112 9/9/9 8/8/8
f 112/112/112 8/8/8 7/7/7
f 112/112/112 7/7/7 100/100/100
f 112/112/112 100/100/100 102/102/102
f 112/112/112 102/102/102 49/49/49
f 112/112/112 49/49/49 48/48/48
f 112/112/112 48/48/48 105/105/105
f 113/113/113 101/101/101 5/5/5
f 113/113/113 5/5/5 33/33/33
f 113/113/113 33/33/33 29/29/29
f 113/113/113 29/29/29 114/114/114
f 113/113/113 114/114/114 72/72/72
f 113/113/113 72/72/72 78/78/78
f 113/113/113 78/78/78 52/52/52
f 113/113/113 52/52/52 101/101/101
f 115/115/115 116/116/116 24/24/24
f 115/115/115 24/24/24 35/35/35
f 115/115/115 35/35/35 12/12/12
f 115/115/115 12/12/12 108/108/108
f 115/115/115 108/108/108 60/60/60
f 115/115/115 60/60/60 80/80/80
f 115/115/115 80/80/80 63/63/63
f 115/115/115 63/63/63 116/116/116
f 117/117/117 93/93/93 18/18/18
f 117/117/117 18/18/18 17/17/17
f 117/117/117 17/17/17 24/24/24
f 117/117/117 24/24/24 116/116/116
f 117/117/117 116/116/116 63/63/63
f 117/117/117 63/63/63 62/62/62
f 117/117/117 62/62/62 69/69/69
f 117/117/117 69/69/69 93/93/93
f 118/118/118 114/114/114 29/29/29
f 118/118/118 29/29/29 28/28/28
f 118/118/118 28/28/28 27/27/27
f 118/118/118 27/27/27 111/111/111
f 118/118/118 111/111/111 74/74/74
f 118/118/118 74/74/74 73/73/73
f 118/118/118 73/73/73 72/72/72
f 118/118/118 72/72/72 114/114/114
