v -2.358634 0.727484 -1.062259
v -2.359288 0.728537 -1.063965
v -2.361473 0.726849 -1.063462
v -2.360469 0.725802 -1.061620
v -2.359880 0.725062 -1.060069
v -2.358458 0.726633 -1.060767
v -2.357697 0.727657 -1.061622
v -2.357338 0.728643 -1.062844
v -2.357655 0.729712 -1.064402
v -2.360820 0.729478 -1.065066
v -2.362293 0.730129 -1.065690
v -2.364236 0.729033 -1.065661
v -2.362954 0.728067 -1.064811
v -2.359231 0.730369 -1.065273
v -2.360802 0.730488 -1.065608
v -2.369162 0.721867 -1.064311
v -2.370210 0.722787 -1.065322
v -2.371837 0.720238 -1.065197
v -2.370901 0.719420 -1.064312
v -2.369730 0.718378 -1.063046
v -2.367847 0.720691 -1.062870
v -2.365859 0.722906 -1.062846
v -2.367245 0.724146 -1.064337
v -2.368357 0.725124 -1.065372
v -2.366727 0.719647 -1.061185
v -2.368748 0.717457 -1.061548
v -2.368063 0.716798 -1.060353
v -2.365944 0.718897 -1.059845
v -2.363894 0.721055 -1.059643
v -2.364698 0.721824 -1.061068
v -2.362551 0.723895 -1.061218
v -2.363699 0.724965 -1.063066
v -2.361783 0.723156 -1.059706
v -2.365135 0.726251 -1.064536
v -2.366312 0.727286 -1.065520
v -2.372475 0.716814 -1.064197
v -2.373204 0.717443 -1.064823
v -2.373755 0.715709 -1.064492
v -2.373580 0.714789 -1.064089
v -2.372937 0.714228 -1.063495
v -2.371579 0.716022 -1.063279
v -2.370868 0.715349 -1.062134
v -2.372479 0.713785 -1.062675
v -2.371774 0.713902 -1.061948
v -2.370386 0.714874 -1.061206
v -2.358539 0.727337 -1.062393
v -2.359210 0.728403 -1.064121
v -2.357599 0.729610 -1.064519
v -2.357269 0.728530 -1.062942
v -2.357642 0.727571 -1.061690
v -2.358380 0.726516 -1.060855
v -2.359799 0.724951 -1.060162
v -2.360369 0.725661 -1.061758
v -2.361388 0.726720 -1.063620
v -2.360759 0.729360 -1.065242
v -2.362255 0.730050 -1.065831
v -2.360773 0.730426 -1.065710
v -2.359188 0.730280 -1.065405
v -2.362884 0.727953 -1.064986
v -2.364191 0.728956 -1.065801
v -2.369058 0.721777 -1.064484
v -2.370137 0.722725 -1.065459
v -2.368292 0.725056 -1.065509
v -2.367150 0.724048 -1.064511
v -2.365753 0.722797 -1.063006
v -2.367731 0.720592 -1.063031
v -2.369609 0.718285 -1.063207
v -2.370791 0.719337 -1.064485
v -2.371760 0.720181 -1.065334
v -2.366602 0.719538 -1.061332
v -2.364580 0.721705 -1.061213
v -2.363801 0.720962 -1.059744
v -2.365845 0.718811 -1.059948
v -2.367960 0.716717 -1.060455
v -2.368616 0.717355 -1.061694
v -2.362443 0.723765 -1.061360
v -2.363604 0.724845 -1.063225
v -2.361696 0.723054 -1.059803
v -2.365053 0.726144 -1.064710
v -2.366257 0.727212 -1.065658
v -2.372364 0.716734 -1.064371
v -2.373127 0.717388 -1.064960
v -2.371456 0.715932 -1.063439
v -2.372845 0.714161 -1.063615
v -2.373497 0.714730 -1.064220
v -2.373696 0.715667 -1.064591
v -2.370734 0.715248 -1.062279
v -2.370281 0.714793 -1.061306
v -2.371697 0.713844 -1.062025
v -2.372378 0.713709 -1.062783
v -2.373414 0.717630 -1.065094
v -2.374115 0.715246 -1.064545
v -2.372116 0.720487 -1.065554
v -2.373696 0.715667 -1.064591
v -2.372971 0.713230 -1.062903
v -2.372130 0.713436 -1.061997
v -2.373349 0.713600 -1.063621
v -2.371697 0.713844 -1.062025
v -2.358363 0.726296 -1.060306
v -2.357489 0.727641 -1.061450
v -2.359647 0.724764 -1.059591
v -2.357642 0.727571 -1.061690
v -2.358683 0.730626 -1.065401
v -2.360849 0.730704 -1.065763
v -2.357086 0.730058 -1.064599
v -2.360773 0.730426 -1.065710
v -2.362769 0.730313 -1.065962
v -2.364645 0.729322 -1.066008
v -2.373912 0.714088 -1.064111
v -2.370178 0.714679 -1.060939
v -2.367789 0.716541 -1.059999
v -2.356876 0.728979 -1.063082
v -2.361487 0.722863 -1.059243
v -2.363584 0.720757 -1.059211
v -2.366681 0.727599 -1.065911
v -2.368700 0.725422 -1.065779
v -2.370528 0.723068 -1.065722
v -2.365638 0.718608 -1.059443
vn -0.437000 0.720900 0.537800
vn -0.312100 0.642800 0.699600
vn -0.358500 0.606300 0.709800
vn -0.472400 0.675300 0.566400
vn -0.486900 0.655500 0.577200
vn -0.433800 0.717800 0.544500
vn -0.393600 0.758300 0.519500
vn -0.344900 0.759700 0.551300
vn -0.237500 0.695000 0.678600
vn -0.204900 0.509200 0.835900
vn -0.210000 0.513900 0.831800
vn -0.289400 0.475500 0.830700
vn -0.264800 0.486100 0.832800
vn -0.155300 0.586800 0.794600
vn -0.153200 0.539300 0.828000
vn -0.477600 0.373500 0.795200
vn -0.504600 0.386600 0.771900
vn -0.526900 0.363300 0.768400
vn -0.494100 0.343800 0.798500
vn -0.566800 0.395800 0.722600
vn -0.539600 0.428500 0.724700
vn -0.482100 0.492000 0.724900
vn -0.418500 0.423000 0.803600
vn -0.446500 0.425000 0.787400
vn -0.594100 0.479800 0.645600
vn -0.619100 0.457800 0.638000
vn -0.600600 0.430500 0.673800
vn -0.581500 0.456800 0.673100
vn -0.548100 0.517700 0.656900
vn -0.549300 0.542200 0.635800
vn -0.503600 0.615600 0.606100
vn -0.414600 0.557700 0.719000
vn -0.514900 0.590600 0.621400
vn -0.338800 0.465300 0.817700
vn -0.367900 0.456600 0.810000
vn -0.487400 0.319000 0.812800
vn -0.525800 0.336600 0.781200
vn -0.517100 0.306400 0.799200
vn -0.508300 0.262300 0.820200
vn -0.613000 0.335100 0.715500
vn -0.579200 0.380100 0.721100
vn -0.639900 0.457900 0.617100
vn -0.683900 0.422400 0.594800
vn -0.649000 0.426700 0.629800
vn -0.623600 0.425700 0.655600
vn 0.467800 -0.715800 -0.518500
vn 0.325000 -0.632900 -0.702700
vn 0.374000 -0.593300 -0.712800
vn 0.553900 -0.697000 -0.455300
vn 0.617100 -0.704100 -0.351300
vn 0.601600 -0.706300 -0.373100
vn 0.576800 -0.689900 -0.437400
vn 0.480500 -0.679800 -0.554000
vn 0.358400 -0.606300 -0.709800
vn 0.206400 -0.477400 -0.854000
vn 0.160700 -0.304600 -0.938800
vn 0.152600 -0.280700 -0.947600
vn 0.206200 -0.380100 -0.901600
vn 0.256900 -0.475900 -0.841100
vn 0.206400 -0.352200 -0.912800
vn 0.467100 -0.365800 -0.805000
vn 0.390300 -0.310400 -0.866800
vn 0.347200 -0.343100 -0.872700
vn 0.409300 -0.415000 -0.812500
vn 0.482200 -0.491800 -0.724900
vn 0.539700 -0.428400 -0.724700
vn 0.566800 -0.395700 -0.722600
vn 0.480600 -0.336400 -0.809800
vn 0.375400 -0.294200 -0.878900
vn 0.600900 -0.487800 -0.633200
vn 0.556100 -0.548800 -0.624100
vn 0.611800 -0.584400 -0.533000
vn 0.642900 -0.540700 -0.542500
vn 0.654000 -0.548100 -0.521300
vn 0.625600 -0.468700 -0.623600
vn 0.510500 -0.621200 -0.594500
vn 0.414500 -0.557800 -0.719000
vn 0.582800 -0.644300 -0.495100
vn 0.330100 -0.456800 -0.826000
vn 0.275600 -0.364100 -0.889600
vn 0.459100 -0.320500 -0.828500
vn 0.315600 -0.288300 -0.904000
vn 0.571700 -0.389600 -0.722000
vn 0.537600 -0.430900 -0.724800
vn 0.365800 -0.333500 -0.868900
vn 0.275200 -0.288800 -0.917000
vn 0.638700 -0.484200 -0.598000
vn 0.650200 -0.593300 -0.474500
vn 0.642400 -0.623400 -0.445700
vn 0.622000 -0.566900 -0.540100
vn -0.832600 0.236000 -0.501000
vn -0.930600 -0.131600 -0.341400
vn -0.750800 0.357200 -0.555600
vn 0.275200 -0.288800 -0.917000
vn -0.500100 -0.857100 0.123800
vn -0.212600 -0.786200 0.580200
vn -0.550200 -0.820500 -0.154700
vn 0.642400 -0.623400 -0.445700
vn 0.609600 -0.037700 0.791700
vn 0.761400 0.189600 0.619900
vn 0.501500 -0.213000 0.838500
vn 0.617100 -0.704100 -0.351300
vn 0.389100 0.806800 -0.444400
vn -0.034200 0.915000 -0.401800
vn 0.804000 0.544000 -0.239800
vn 0.152600 -0.280700 -0.947600
vn -0.345200 0.832300 -0.433700
vn -0.517300 0.715600 -0.469300
vn -0.753400 -0.625900 -0.201300
vn 0.139700 -0.650100 0.746900
vn 0.278100 -0.580900 0.765000
vn 0.916200 0.326200 0.232500
vn 0.431900 -0.343600 0.833900
vn 0.398800 -0.421700 0.814300
vn -0.611700 0.608000 -0.506100
vn -0.652400 0.536700 -0.535100
vn -0.687400 0.462200 -0.560200
vn 0.363200 -0.496000 0.788700
vt 0.839504 0.118056
vt 0.856743 0.205307
vt 0.741230 0.205307
vt 0.734555 0.106726
vt 0.724541 0.032791
vt 0.813647 0.052618
vt 0.868992 0.081539
vt 0.913398 0.129584
vt 0.940923 0.205307
vt 0.839504 0.292557
vt 0.813647 0.357995
vt 0.724541 0.377822
vt 0.734555 0.303887
vt 0.913398 0.281029
vt 0.868992 0.329074
vt 0.369475 0.299954
vt 0.368286 0.370940
vt 0.245840 0.351447
vt 0.246397 0.288815
vt 0.246768 0.205307
vt 0.370268 0.205307
vt 0.494283 0.205307
vt 0.492822 0.304944
vt 0.490632 0.379672
vt 0.369475 0.110659
vt 0.246397 0.121798
vt 0.245841 0.059166
vt 0.368286 0.039673
vt 0.490632 0.030941
vt 0.492822 0.105669
vt 0.616755 0.103478
vt 0.619174 0.205307
vt 0.613127 0.027106
vt 0.616755 0.307135
vt 0.613126 0.383507
vt 0.123273 0.268175
vt 0.123047 0.315326
vt 0.054743 0.283353
vt 0.030912 0.249131
vt 0.030973 0.205306
vt 0.123423 0.205306
vt 0.123273 0.142438
vt 0.030912 0.161481
vt 0.054744 0.127260
vt 0.123047 0.095287
vt 0.839504 0.118056
vt 0.856743 0.205307
vt 0.968983 0.205307
vt 0.938030 0.133427
vt 0.876123 0.061548
vt 0.805028 0.030806
vt 0.721203 0.008146
vt 0.734555 0.106726
vt 0.741230 0.205307
vt 0.839504 0.292557
vt 0.805028 0.379807
vt 0.876123 0.349065
vt 0.938030 0.277186
vt 0.734555 0.303887
vt 0.721203 0.402467
vt 0.369475 0.299954
vt 0.367890 0.394602
vt 0.489902 0.404581
vt 0.492822 0.304944
vt 0.494283 0.205307
vt 0.370268 0.205307
vt 0.246768 0.205307
vt 0.246397 0.288815
vt 0.245655 0.372324
vt 0.369475 0.110659
vt 0.492822 0.105669
vt 0.489902 0.006032
vt 0.367890 0.016011
vt 0.245655 0.038289
vt 0.246397 0.121798
vt 0.616755 0.103478
vt 0.619174 0.205307
vt 0.611917 0.001649
vt 0.616755 0.307135
vt 0.611917 0.408964
vt 0.123273 0.268175
vt 0.122972 0.331043
vt 0.123423 0.205306
vt 0.000156 0.205306
vt 0.000125 0.242784
vt 0.000064 0.280261
vt 0.123273 0.142438
vt 0.122972 0.079570
vt 0.000064 0.130352
vt 0.000125 0.167829
vt 0.122972 0.331043
vt 0.030806 0.283587
vt 0.245655 0.372324
vt 0.030806 0.283587
vt 0.000125 0.167829
vt 0.030806 0.127026
vt 0.000156 0.205306
vt 0.030806 0.127026
vt 0.805028 0.030806
vt 0.873826 0.071832
vt 0.721203 0.008146
vt 0.873826 0.071832
vt 0.938030 0.277186
vt 0.873826 0.338781
vt 0.968983 0.205307
vt 0.873826 0.338781
vt 0.805028 0.379807
vt 0.721203 0.402467
vt 0.000125 0.242784
vt 0.122972 0.079570
vt 0.245655 0.038289
vt 0.938030 0.133427
vt 0.611917 0.001649
vt 0.489902 0.006032
vt 0.611917 0.408964
vt 0.489902 0.404581
vt 0.367890 0.394602
vt 0.367890 0.016011
f 1/1/1 2/2/2 3/3/3
f 1/1/1 3/3/3 4/4/4
f 1/1/1 4/4/4 5/5/5
f 1/1/1 5/5/5 6/6/6
f 1/1/1 6/6/6 7/7/7
f 1/1/1 7/7/7 8/8/8
f 1/1/1 8/8/8 9/9/9
f 1/1/1 9/9/9 2/2/2
f 10/10/10 11/11/11 12/12/12
f 10/10/10 12/12/12 13/13/13
f 10/10/10 13/13/13 3/3/3
f 10/10/10 3/3/3 2/2/2
f 10/10/10 2/2/2 9/9/9
f 10/10/10 9/9/9 14/14/14
f 10/10/10 14/14/14 15/15/15
f 10/10/10 15/15/15 11/11/11
f 16/16/16 17/17/17 18/18/18
f 16/16/16 18/18/18 19/19/19
f 16/16/16 19/19/19 20/20/20
f 16/16/16 20/20/20 21/21/21
f 16/16/16 21/21/21 22/22/22
f 16/16/16 22/22/22 23/23/23
f 16/16/16 23/23/23 24/24/24
f 16/16/16 24/24/24 17/17/17
f 25/25/25 21/21/21 20/20/20
f 25/25/25 20/20/20 26/26/26
f 25/25/25 26/26/26 27/27/27
f 25/25/25 27/27/27 28/28/28
f 25/25/25 28/28/28 29/29/29
f 25/25/25 29/29/29 30/30/30
f 25/25/25 30/30/30 22/22/22
f 25/25/25 22/22/22 21/21/21
f 31/31/31 32/32/32 22/22/22
f 31/31/31 22/22/22 30/30/30
f 31/31/31 30/30/30 29/29/29
f 31/31/31 29/29/29 33/33/33
f 31/31/31 33/33/33 5/5/5
f 31/31/31 5/5/5 4/4/4
f 31/31/31 4/4/4 3/3/3
f 31/31/31 3/3/3 32/32/32
f 34/34/34 35/35/35 24/24/24
f 34/34/34 24/24/24 23/23/23
f 34/34/34 23/23/23 22/22/22
f 34/34/34 22/22/22 32/32/32
f 34/34/34 32/32/32 3/3/3
f 34/34/34 3/3/3 13/13/13
f 34/34/34 13/13/13 12/12/12
f 34/34/34 12/12/12 35/35/35
f 36/36/36 37/37/37 38/38/38
f 36/36/36 38/38/38 39/39/39
f 36/36/36 39/39/39 40/40/40
f 36/36/36 40/40/40 41/41/41
f 36/36/36 41/41/41 20/20/20
f 36/36/36 20/20/20 19/19/19
f 36/36/36 19/19/19 18/18/18
f 36/36/36 18/18/18 37/37/37
f 42/42/42 41/41/41 40/40/40
f 42/42/42 40/40/40 43/43/43
f 42/42/42 43/43/43 44/44/44
f 42/42/42 44/44/44 45/45/45
f 42/42/42 45/45/45 27/27/27
f 42/42/42 27/27/27 26/26/26
f 42/42/42 26/26/26 20/20/20
f 42/42/42 20/20/20 41/41/41
f 46/46/46 47/47/47 48/48/48
f 46/46/46 48/48/48 49/49/49
f 46/46/46 49/49/49 50/50/50
f 46/46/46 50/50/50 51/51/51
f 46/46/46 51/51/51 52/52/52
f 46/46/46 52/52/52 53/53/53
f 46/46/46 53/53/53 54/54/54
f 46/46/46 54/54/54 47/47/47
f 55/55/55 56/56/56 57/57/57
f 55/55/55 57/57/57 58/58/58
f 55/55/55 58/58/58 48/48/48
f 55/55/55 48/48/48 47/47/47
f 55/55/55 47/47/47 54/54/54
f 55/55/55 54/54/54 59/59/59
f 55/55/55 59/59/59 60/60/60
f 55/55/55 60/60/60 56/56/56
f 61/61/61 62/62/62 63/63/63
f 61/61/61 63/63/63 64/64/64
f 61/61/61 64/64/64 65/65/65
f 61/61/61 65/65/65 66/66/66
f 61/61/61 66/66/66 67/67/67
f 61/61/61 67/67/67 68/68/68
f 61/61/61 68/68/68 69/69/69
f 61/61/61 69/69/69 62/62/62
f 70/70/70 66/66/66 65/65/65
f 70/70/70 65/65/65 71/71/71
f 70/70/70 71/71/71 72/72/72
f 70/70/70 72/72/72 73/73/73
f 70/70/70 73/73/73 74/74/74
f 70/70/70 74/74/74 75/75/75
f 70/70/70 75/75/75 67/67/67
f 70/70/70 67/67/67 66/66/66
f 76/76/76 77/77/77 54/54/54
f 76/76/76 54/54/54 53/53/53
f 76/76/76 53/53/53 52/52/52
f 76/76/76 52/52/52 78/78/78
f 76/76/76 78/78/78 72/72/72
f 76/76/76 72/72/72 71/71/71
f 76/76/76 71/71/71 65/65/65
f 76/76/76 65/65/65 77/77/77
f 79/79/79 80/80/80 60/60/60
f 79/79/79 60/60/60 59/59/59
f 79/79/79 59/59/59 54/54/54
f 79/79/79 54/54/54 77/77/77
f 79/79/79 77/77/77 65/65/65
f 79/79/79 65/65/65 64/64/64
f 79/79/79 64/64/64 63/63/63
f 79/79/79 63/63/63 80/80/80
f 81/81/81 82/82/82 69/69/69
f 81/81/81 69/69/69 68/68/68
f 81/81/81 68/68/68 67/67/67
f 81/81/81 67/67/67 83/83/83
f 81/81/81 83/83/83 84/84/84
f 81/81/81 84/84/84 85/85/85
f 81/81/81 85/85/85 86/86/86
f 81/81/81 86/86/86 82/82/82
f 87/87/87 83/83/83 67/67/67
f 87/87/87 67/67/67 75/75/75
f 87/87/87 75/75/75 74/74/74
f 87/87/87 74/74/74 88/88/88
f 87/87/87 88/88/88 89/89/89
f 87/87/87 89/89/89 90/90/90
f 87/87/87 90/90/90 84/84/84
f 87/87/87 84/84/84 83/83/83
f 91/91/91 92/92/92 38/38/38
f 91/91/91 38/38/38 37/37/37
f 91/91/91 37/37/37 18/18/18
f 91/91/91 18/18/18 93/93/93
f 91/91/91 93/93/93 69/69/69
f 91/91/91 69/69/69 82/82/82
f 91/91/91 82/82/82 94/94/94
f 91/91/91 94/94/94 92/92/92
f 95/95/95 96/96/96 44/44/44
f 95/95/95 44/44/44 43/43/43
f 95/95/95 43/43/43 40/40/40
f 95/95/95 40/40/40 97/97/97
f 95/95/95 97/97/97 84/84/84
f 95/95/95 84/84/84 90/90/90
f 95/95/95 90/90/90 98/98/98
f 95/95/95 98/98/98 96/96/96
f 99/99/99 100/100/100 7/7/7
f 99/99/99 7/7/7 6/6/6
f 99/99/99 6/6/6 5/5/5
f 99/99/99 5/5/5 101/101/101
f 99/99/99 101/101/101 52/52/52
f 99/99/99 52/52/52 51/51/51
f 99/99/99 51/51/51 102/102/102
f 99/99/99 102/102/102 100/100/100
f 103/103/103 104/104/104 15/15/15
f 103/103/103 15/15/15 14/14/14
f 103/103/103 14/14/14 9/9/9
f 103/103/103 9/9/9 105/105/105
f 103/103/103 105/105/105 48/48/48
f 103/103/103 48/48/48 58/58/58
f 103/103/103 58/58/58 106/106/106
f 103/103/103 106/106/106 104/104/104
f 107/107/107 108/108/108 12/12/12
f 107/107/107 12/12/12 11/11/11
f 107/107/107 11/11/11 15/15/15
f 107/107/107 15/15/15 104/104/104
f 107/107/107 104/104/104 106/106/106
f 107/107/107 106/106/106 56/56/56
f 107/107/107 56/56/56 60/60/60
f 107/107/107 60/60/60 108/108/108
f 109/109/109 97/97/97 40/40/40
f 109/109/109 40/40/40 39/39/39
f 109/109/109 39/39/39 38/38/38
f 109/109/109 38/38/38 92/92/92
f 109/109/109 92/92/92 94/94/94
f 109/109/109 94/94/94 85/85/85
f 109/109/109 85/85/85 84/84/84
f 109/109/109 84/84/84 97/97/97
f 110/110/110 111/111/111 27/27/27
f 110/110/110 27/27/27 45/45/45
f 110/110/110 45/45/45 44/44/44
f 110/110/110 44/44/44 96/96/96
f 110/110/110 96/96/96 98/98/98
f 110/110/110 98/98/98 88/88/88
f 110/110/110 88/88/88 74/74/74
f 110/110/110 74/74/74 111/111/111
f 112/112/112 105/105/105 9/9/9
f 112/112/112 9/9/9 8/8/8
f 112/112/112 8/8/8 7/7/7
f 112/112/112 7/7/7 100/100/100
f 112/112/112 100/100/100 102/102/102
f 112/112/112 102/102/102 49/49/49
f 112/112/112 49/49/49 48/48/48
f 112/112/112 48/48/48 105/105/105
f 113/113/113 101/101/101 5/5/5
f 113/113/113 5/5/5 33/33/33
f 113/113/113 33/33/33 29/29/29
f 113/113/113 29/29/29 114/114/114
f 113/113/113 114/114/114 72/72/72
f 113/113/113 72/72/72 78/78/78
f 113/113/113 78/78/78 52/52/52
f 113/113/113 52/52/52 101/101/101
f 115/115/115 116/116/116 24/24/24
f 115/115/115 24/24/24 35/35/35
f 115/115/115 35/35/35 12/12/12
f 115/115/115 12/12/12 108/108/108
f 115/115/115 108/108/108 60/60/60
f 115/115/115 60/60/60 80/80/80
f 115/115/115 80/80/80 63/63/63
f 115/115/115 63/63/63 116/116/116
f 117/117/117 93/93/93 18/18/18
f 117/117/117 18/18/18 17/17/17
f 117/117/117 17/17/17 24/24/24
f 117/117/117 24/24/24 116/116/116
f 117/117/117 116/116/116 63/63/63
f 117/117/117 63/63/63 62/62/62
f 117/117/117 62/62/62 69/69/69
f 117/117/117 69/69/69 93/93/93
f 118/118/118 114/114/114 29/29/29
f 118/118/118 29/29/29 28/28/28
f 118/118/118 28/28/28 27/27/27
f 118/118/118 27/27/27 111/111/111
f 118/118/118 111/111/111 74/74/74
f 118/118/118 74/74/74 73/73/73
f 118/118/118 73/73/73 72/72/72
f 118/118/118 72/72/72 114/114/114
