v -2.444123 0.743150 -1.164426
v -2.446084 0.743294 -1.163177
v -2.444094 0.742142 -1.161097
v -2.442108 0.742046 -1.162757
v -2.440441 0.742124 -1.163872
v -2.442336 0.743126 -1.165091
v -2.443891 0.743577 -1.165595
v -2.445652 0.743829 -1.165568
v -2.447580 0.744039 -1.164719
v -2.447184 0.743736 -1.161173
v -2.447703 0.744154 -1.159386
v -2.446539 0.743292 -1.157391
v -2.445586 0.742712 -1.159060
v -2.448301 0.744337 -1.162752
v -2.448238 0.744409 -1.160975
v -2.440022 0.737592 -1.152973
v -2.441162 0.738020 -1.151511
v -2.439206 0.735790 -1.149971
v -2.438206 0.735401 -1.151272
v -2.436799 0.734983 -1.152944
v -2.438422 0.737128 -1.154858
v -2.440158 0.739087 -1.156845
v -2.441821 0.739592 -1.154867
v -2.442997 0.740069 -1.153326
v -2.436613 0.736939 -1.156596
v -2.435192 0.734824 -1.154475
v -2.433924 0.734778 -1.155586
v -2.435190 0.736876 -1.157859
v -2.436750 0.738872 -1.159966
v -2.438256 0.738909 -1.158656
v -2.440120 0.740622 -1.160772
v -2.442084 0.740749 -1.158956
v -2.438540 0.740664 -1.162067
v -2.443738 0.741315 -1.156927
v -2.444880 0.741878 -1.155329
v -2.436241 0.733105 -1.149789
v -2.436958 0.733434 -1.148795
v -2.435555 0.732000 -1.148410
v -2.434731 0.731321 -1.148768
v -2.434058 0.731048 -1.149657
v -2.435215 0.732763 -1.151054
v -2.433992 0.732674 -1.152180
v -2.433190 0.731026 -1.150406
v -2.432781 0.731469 -1.151358
v -2.433013 0.732678 -1.152987
v -2.444192 0.742927 -1.164497
v -2.446176 0.743073 -1.163224
v -2.447647 0.743872 -1.164752
v -2.445700 0.743661 -1.165620
v -2.443922 0.743453 -1.165640
v -2.442375 0.742959 -1.165156
v -2.440489 0.741960 -1.163940
v -2.442186 0.741828 -1.162832
v -2.444192 0.741926 -1.161151
v -2.447298 0.743523 -1.161195
v -2.447800 0.743999 -1.159390
v -2.448305 0.744292 -1.160980
v -2.448386 0.744176 -1.162765
v -2.445705 0.742502 -1.159092
v -2.446637 0.743138 -1.157404
v -2.440161 0.737403 -1.153040
v -2.441274 0.737880 -1.151553
v -2.443104 0.739924 -1.153360
v -2.441954 0.739395 -1.154924
v -2.440276 0.738886 -1.156919
v -2.438547 0.736935 -1.154941
v -2.436929 0.734796 -1.153033
v -2.438351 0.735218 -1.151345
v -2.439321 0.735654 -1.150018
v -2.436723 0.736744 -1.156694
v -2.438358 0.738706 -1.158747
v -2.436818 0.738719 -1.160042
v -2.435265 0.736729 -1.157940
v -2.434002 0.734635 -1.155672
v -2.435307 0.734635 -1.154580
v -2.440210 0.740410 -1.160854
v -2.442191 0.740540 -1.159019
v -2.438598 0.740505 -1.162138
v -2.443863 0.741110 -1.156971
v -2.444982 0.741728 -1.155352
v -2.436389 0.732924 -1.149863
v -2.437076 0.733301 -1.148842
v -2.435347 0.732579 -1.151146
v -2.434158 0.730909 -1.149726
v -2.434842 0.731186 -1.148823
v -2.435640 0.731901 -1.148447
v -2.434108 0.732487 -1.152288
v -2.433092 0.732537 -1.153076
v -2.432842 0.731365 -1.151422
v -2.433276 0.730886 -1.150488
v -2.437251 0.733485 -1.148482
v -2.435251 0.731560 -1.148040
v -2.439592 0.735859 -1.149557
v -2.435640 0.731901 -1.148447
v -2.432960 0.730414 -1.149852
v -2.432473 0.731028 -1.150993
v -2.433717 0.730414 -1.149222
v -2.432842 0.731365 -1.151422
v -2.441754 0.743044 -1.165344
v -2.443782 0.743636 -1.165866
v -2.439905 0.742077 -1.164276
v -2.443922 0.743453 -1.165640
v -2.448711 0.744465 -1.163283
v -2.448484 0.744537 -1.160867
v -2.448108 0.744213 -1.165247
v -2.448305 0.744292 -1.160980
v -2.447921 0.744226 -1.158789
v -2.446902 0.743418 -1.156838
v -2.434277 0.730666 -1.148452
v -2.432720 0.732617 -1.153298
v -2.433534 0.734699 -1.155996
v -2.446182 0.743981 -1.165971
v -2.438037 0.740607 -1.162533
v -2.436276 0.738792 -1.160438
v -2.445308 0.742000 -1.154804
v -2.443438 0.740164 -1.152826
v -2.441594 0.738101 -1.151040
v -2.434748 0.736790 -1.158317
vn 0.201900 0.924500 0.323100
vn 0.343700 0.925900 0.156500
vn 0.381900 0.903000 0.196500
vn 0.257000 0.901800 0.347300
vn 0.279500 0.891200 0.357300
vn 0.208100 0.925000 0.318000
vn 0.157200 0.944600 0.288000
vn 0.170800 0.957400 0.232900
vn 0.281700 0.955000 0.092900
vn 0.496100 0.868200 0.010400
vn 0.491700 0.870600 0.016600
vn 0.529700 0.843300 0.091300
vn 0.520000 0.851400 0.067700
vn 0.411000 0.911300 -0.022400
vn 0.461700 0.886300 -0.035700
vn 0.597800 0.752500 0.276300
vn 0.578700 0.754600 0.309100
vn 0.592900 0.734400 0.330200
vn 0.619400 0.729600 0.289700
vn 0.548800 0.743400 0.382300
vn 0.527500 0.770700 0.357400
vn 0.482000 0.821200 0.305400
vn 0.565600 0.794800 0.219900
vn 0.558000 0.790900 0.251200
vn 0.450100 0.780800 0.433300
vn 0.461000 0.760000 0.458100
vn 0.499400 0.752400 0.429500
vn 0.481200 0.773300 0.412800
vn 0.429300 0.815500 0.388200
vn 0.399900 0.826500 0.396100
vn 0.327500 0.872000 0.363800
vn 0.427600 0.870000 0.245500
vn 0.355400 0.858600 0.369300
vn 0.536400 0.832000 0.141800
vn 0.541500 0.823000 0.171300
vn 0.641900 0.714500 0.278300
vn 0.616400 0.717500 0.324400
vn 0.644200 0.699400 0.309700
vn 0.681400 0.670600 0.293300
vn 0.584500 0.690900 0.425400
vn 0.558500 0.730000 0.393800
vn 0.448700 0.751500 0.483500
vn 0.458800 0.713200 0.529900
vn 0.477200 0.731200 0.487400
vn 0.492700 0.741100 0.456100
vn -0.196100 -0.913100 -0.357400
vn -0.354400 -0.919900 -0.167500
vn -0.394600 -0.894500 -0.210000
vn -0.174400 -0.872800 -0.455800
vn -0.100200 -0.833100 -0.543900
vn -0.113300 -0.844500 -0.523400
vn -0.168700 -0.859700 -0.482100
vn -0.246700 -0.900300 -0.358600
vn -0.381800 -0.903100 -0.196400
vn -0.527300 -0.849700 -0.005400
vn -0.671700 -0.737500 0.070100
vn -0.688700 -0.720400 0.081600
vn -0.614900 -0.788400 0.012500
vn -0.530000 -0.846000 -0.057300
vn -0.638000 -0.769800 0.016800
vn -0.607100 -0.749700 -0.263200
vn -0.666600 -0.725700 -0.170100
vn -0.644600 -0.753600 -0.128800
vn -0.574600 -0.791500 -0.208300
vn -0.482100 -0.821100 -0.305500
vn -0.527600 -0.770600 -0.357500
vn -0.548900 -0.743300 -0.382400
vn -0.629100 -0.727700 -0.273300
vn -0.680900 -0.716400 -0.151800
vn -0.437500 -0.782200 -0.443500
vn -0.388600 -0.827100 -0.406000
vn -0.309300 -0.817800 -0.485300
vn -0.346400 -0.787000 -0.510400
vn -0.327900 -0.784000 -0.527000
vn -0.445200 -0.762900 -0.468700
vn -0.316800 -0.871700 -0.373800
vn -0.427600 -0.870000 -0.245500
vn -0.240900 -0.848900 -0.470500
vn -0.545300 -0.828000 -0.130900
vn -0.630200 -0.774300 -0.056500
vn -0.647100 -0.721300 -0.246800
vn -0.689700 -0.718800 -0.087200
vn -0.552700 -0.738200 -0.386900
vn -0.526000 -0.772500 -0.355600
vn -0.650800 -0.744800 -0.147300
vn -0.690100 -0.722300 -0.044900
vn -0.419500 -0.764900 -0.488800
vn -0.265600 -0.800000 -0.537900
vn -0.224800 -0.811400 -0.539400
vn -0.326300 -0.806900 -0.492300
vn -0.324400 0.026600 0.945600
vn 0.015100 -0.206900 0.978200
vn -0.450400 0.098600 0.887300
vn -0.690100 -0.722300 -0.044900
vn 0.652000 -0.642800 0.402100
vn 0.924300 -0.381500 0.011900
vn 0.414900 -0.743600 0.524200
vn -0.224800 -0.811400 -0.539400
vn 0.524500 0.306000 -0.794500
vn 0.230600 0.406800 -0.883900
vn 0.677000 0.185500 -0.712100
vn -0.100200 -0.833100 -0.543900
vn -0.866200 0.451100 -0.215100
vn -0.777600 0.600000 0.188000
vn -0.670500 0.289800 -0.683000
vn -0.688700 -0.720400 0.081600
vn -0.685200 0.537800 0.491100
vn -0.614100 0.432900 0.659800
vn 0.331100 -0.581400 0.743100
vn 0.907600 -0.209200 -0.364000
vn 0.853500 -0.150900 -0.498700
vn -0.197900 0.323100 -0.925400
vn 0.755000 0.075700 -0.651300
vn 0.785900 0.000800 -0.618400
vn -0.567700 0.329100 0.754500
vn -0.546400 0.256200 0.797300
vn -0.521800 0.182200 0.833400
vn 0.810100 -0.073100 -0.581700
vt 0.839504 0.118056
vt 0.856743 0.205307
vt 0.741230 0.205307
vt 0.734555 0.106726
vt 0.724541 0.032791
vt 0.813647 0.052618
vt 0.868992 0.081539
vt 0.913398 0.129584
vt 0.940923 0.205307
vt 0.839504 0.292557
vt 0.813647 0.357995
vt 0.724541 0.377822
vt 0.734555 0.303887
vt 0.913398 0.281029
vt 0.868992 0.329074
vt 0.369475 0.299954
vt 0.368286 0.370940
vt 0.245840 0.351447
vt 0.246397 0.288815
vt 0.246768 0.205307
vt 0.370268 0.205307
vt 0.494283 0.205307
vt 0.492822 0.304944
vt 0.490632 0.379672
vt 0.369475 0.110659
vt 0.246397 0.121798
vt 0.245841 0.059166
vt 0.368286 0.039673
vt 0.490632 0.030941
vt 0.492822 0.105669
vt 0.616755 0.103478
vt 0.619174 0.205307
vt 0.613127 0.027106
vt 0.616755 0.307135
vt 0.613126 0.383507
vt 0.123273 0.268175
vt 0.123047 0.315326
vt 0.054743 0.283353
vt 0.030912 0.249131
vt 0.030973 0.205306
vt 0.123423 0.205306
vt 0.123273 0.142438
vt 0.030912 0.161481
vt 0.054744 0.127260
vt 0.123047 0.095287
vt 0.839504 0.118056
vt 0.856743 0.205307
vt 0.968983 0.205307
vt 0.938030 0.133427
vt 0.876123 0.061548
vt 0.805028 0.030806
vt 0.721203 0.008146
vt 0.734555 0.106726
vt 0.741230 0.205307
vt 0.839504 0.292557
vt 0.805028 0.379807
vt 0.876123 0.349065
vt 0.938030 0.277186
vt 0.734555 0.303887
vt 0.721203 0.402467
vt 0.369475 0.299954
vt 0.367890 0.394602
vt 0.489902 0.404581
vt 0.492822 0.304944
vt 0.494283 0.205307
vt 0.370268 0.205307
vt 0.246768 0.205307
vt 0.246397 0.288815
vt 0.245655 0.372324
vt 0.369475 0.110659
vt 0.492822 0.105669
vt 0.489902 0.006032
vt 0.367890 0.016011
vt 0.245655 0.038289
vt 0.246397 0.121798
vt 0.616755 0.103478
vt 0.619174 0.205307
vt 0.611917 0.001649
vt 0.616755 0.307135
vt 0.611917 0.408964
vt 0.123273 0.268175
vt 0.122972 0.331043
vt 0.123423 0.205306
vt 0.000156 0.205306
vt 0.000125 0.242784
vt 0.000064 0.280261
vt 0.123273 0.142438
vt 0.122972 0.079570
vt 0.000064 0.130352
vt 0.000125 0.167829
vt 0.122972 0.331043
vt 0.030806 0.283587
vt 0.245655 0.372324
vt 0.030806 0.283587
vt 0.000125 0.167829
vt 0.030806 0.127026
vt 0.000156 0.205306
vt 0.030806 0.127026
vt 0.805028 0.030806
vt 0.873826 0.071832
vt 0.721203 0.008146
vt 0.873826 0.071832
vt 0.938030 0.277186
vt 0.873826 0.338781
vt 0.968983 0.205307
vt 0.873826 0.338781
vt 0.805028 0.379807
vt 0.721203 0.402467
vt 0.000125 0.242784
vt 0.122972 0.079570
vt 0.245655 0.038289
vt 0.938030 0.133427
vt 0.611917 0.001649
vt 0.489902 0.006032
vt 0.611917 0.408964
vt 0.489902 0.404581
vt 0.367890 0.394602
vt 0.367890 0.016011
f 1/1/1 2/2/2 3/3/3
f 1/1/1 3/3/3 4/4/4
f 1/1/1 4/4/4 5/5/5
f 1/1/1 5/5/5 6/6/6
f 1/1/1 6/6/6 7/7/7
f 1/1/1 7/7/7 8/8/8
f 1/1/1 8/8/8 9/9/9
f 1/1/1 9/9/9 2/2/2
f 10/10/10 11/11/11 12/12/12
f 10/10/10 12/12/12 13/13/13
f 10/10/10 13/13/13 3/3/3
f 10/10/10 3/3/3 2/2/2
f 10/10/10 2/2/2 9/9/9
f 10/10/10 9/9/9 14/14/14
f 10/10/10 14/14/14 15/15/15
f 10/10/10 15/15/15 11/11/11
f 16/16/16 17/17/17 18/18/18
f 16/16/16 18/18/18 19/19/19
f 16/16/16 19/19/19 20/20/20
f 16/16/16 20/20/20 21/21/21
f 16/16/16 21/21/21 22/22/22
f 16/16/16 22/22/22 23/23/23
f 16/16/16 23/23/23 24/24/24
f 16/16/16 24/24/24 17/17/17
f 25/25/25 21/21/21 20/20/20
f 25/25/25 20/20/20 26/26/26
f 25/25/25 26/26/26 27/27/27
f 25/25/25 27/27/27 28/28/28
f 25/25/25 28/28/28 29/29/29
f 25/25/25 29/29/29 30/30/30
f 25/25/25 30/30/30 22/22/22
f 25/25/25 22/22/22 21/21/21
f 31/31/31 32/32/32 22/22/22
f 31/31/31 22/22/22 30/30/30
f 31/31/31 30/30/30 29/29/29
f 31/31/31 29/29/29 33/33/33
f 31/31/31 33/33/33 5/5/5
f 31/31/31 5/5/5 4/4/4
f 31/31/31 4/4/4 3/3/3
f 31/31/31 3/3/3 32/32/32
f 34/34/34 35/35/35 24/24/24
f 34/34/34 24/24/24 23/23/23
f 34/34/34 23/23/23 22/22/22
f 34/34/34 22/22/22 32/32/32
f 34/34/34 32/32/32 3/3/3
f 34/34/34 3/3/3 13/13/13
f 34/34/34 13/13/13 12/12/12
f 34/34/34 12/12/12 35/35/35
f 36/36/36 37/37/37 38/38/38
f 36/36/36 38/38/38 39/39/39
f 36/36/36 39/39/39 40/40/40
f 36/36/36 40/40/40 41/41/41
f 36/36/36 41/41/41 20/20/20
f 36/36/36 20/20/20 19/19/19
f 36/36/36 19/19/19 18/18/18
f 36/36/36 18/18/18 37/37/37
f 42/42/42 41/41/41 40/40/40
f 42/42/42 40/40/40 43/43/43
f 42/42/42 43/43/43 44/44/44
f 42/42/42 44/44/44 45/45/45
f 42/42/42 45/45/45 27/27/27
f 42/42/42 27/27/27 26/26/26
f 42/42/42 26/26/26 20/20/20
f 42/42/42 20/20/20 41/41/41
f 46/46/46 47/47/47 48/48/48
f 46/46/46 48/48/48 49/49/49
f 46/46/46 49/49/49 50/50/50
f 46/46/46 50/50/50 51/51/51
f 46/46/46 51/51/51 52/52/52
f 46/46/46 52/52/52 53/53/53
f 46/46/46 53/53/53 54/54/54
f 46/46/46 54/54/54 47/47/47
f 55/55/55 56/56/56 57/57/57
f 55/55/55 57/57/57 58/58/58
f 55/55/55 58/58/58 48/48/48
f 55/55/55 48/48/48 47/47/47
f 55/55/55 47/47/47 54/54/54
f 55/55/55 54/54/54 59/59/59
f 55/55/55 59/59/59 60/60/60
f 55/55/55 60/60/60 56/56/56
f 61/61/61 62/62/62 63/63/63
f 61/61/61 63/63/63 64/64/64
f 61/61/61 64/64/64 65/65/65
f 61/61/61 65/65/65 66/66/66
f 61/61/61 66/66/66 67/67/67
f 61/61/61 67/67/67 68/68/68
f 61/61/61 68/68/68 69/69/69
f 61/61/61 69/69/69 62/62/62
f 70/70/70 66/66/66 65/65/65
f 70/70/70 65/65/65 71/71/71
f 70/70/70 71/71/71 72/72/72
f 70/70/70 72/72/72 73/73/73
f 70/70/70 73/73/73 74/74/74
f 70/70/70 74/74/74 75/75/75
f 70/70/70 75/75/75 67/67/67
f 70/70/70 67/67/67 66/66/66
f 76/76/76 77/77/77 54/54/54
f 76/76/76 54/54/54 53/53/53
f 76/76/76 53/53/53 52/52/52
f 76/76/76 52/52/52 78/78/78
f 76/76/76 78/78/78 72/72/72
f 76/76/76 72/72/72 71/71/71
f 76/76/76 71/71/71 65/65/65
f 76/76/76 65/65/65 77/77/77
f 79/79/79 80/80/80 60/60/60
f 79/79/79 60/60/60 59/59/59
f 79/79/79 59/59/59 54/54/54
f 79/79/79 54/54/54 77/77/77
f 79/79/79 77/77/77 65/65/65
f 79/79/79 65/65/65 64/64/64
f 79/79/79 64/64/64 63/63/63
f 79/79/79 63/63/63 80/80/80
f 81/81/81 82/82/82 69/69/69
f 81/81/81 69/69/69 68/68/68
f 81/81/81 68/68/68 67/67/67
f 81/81/81 67/67/67 83/83/83
f 81/81/81 83/83/83 84/84/84
f 81/81/81 84/84/84 85/85/85
f 81/81/81 85/85/85 86/86/86
f 81/81/81 86/86/86 82/82/82
f 87/87/87 83/83/83 67/67/67
f 87/87/87 67/67/67 75/75/75
f 87/87/87 75/75/75 74/74/74
f 87/87/87 74/74/74 88/88/88
f 87/87/87 88/88/88 89/89/89
f 87/87/87 89/89/89 90/90/90
f 87/87/87 90/90/90 84/84/84
f 87/87/87 84/84/84 83/83/83
f 91/91/91 92/92/92 38/38/38
f 91/91/91 38/38/38 37/37/37
f 91/91/91 37/37/37 18/18/18
f 91/91/91 18/18/18 93/93/93
f 91/91/91 93/93/93 69/69/69
f 91/91/91 69/69/69 82/82/82
f 91/91/91 82/82/82 94/94/94
f 91/91/91 94/94/94 92/92/92
f 95/95/95 96/96/96 44/44/44
f 95/95/95 44/44/44 43/43/43
f 95/95/95 43/43/43 40/40/40
f 95/95/95 40/40/40 97/97/97
f 95/95/95 97/97/97 84/84/84
f 95/95/95 84/84/84 90/90/90
f 95/95/95 90/90/90 98/98/98
f 95/95/95 98/98/98 96/96/96
f 99/99/99 100/100/100 7/7/7
f 99/99/99 7/7/7 6/6/6
f 99/99/99 6/6/6 5/5/5
f 99/99/99 5/5/5 101/101/101
f 99/99/99 101/101/101 52/52/52
f 99/99/99 52/52/52 51/51/51
f 99/99/99 51/51/51 102/102/102
f 99/99/99 102/102/102 100/100/100
f 103/103/103 104/104/104 15/15/15
f 103/103/103 15/15/15 14/14/14
f 103/103/103 14/14/14 9/9/9
f 103/103/103 9/9/9 105/105/105
f 103/103/103 105/105/105 48/48/48
f 103/103/103 48/48/48 58/58/58
f 103/103/103 58/58/58 106/106/106
f 103/103/103 106/106/106 104/104/104
f 107/107/107 108/108/108 12/12/12
f 107/107/107 12/12/12 11/11/11
f 107/107/107 11/11/11 15/15/15
f 107/107/107 15/15/15 104/104/104
f 107/107/107 104/104/104 106/106/106
f 107/107/107 106/106/106 56/56/56
f 107/107/107 56/56/56 60/60/60
f 107/107/107 60/60/60 108/108/108
f 109/109/109 97/97/97 40/40/40
f 109/109/109 40/40/40 39/39/39
f 109/109/109 39/39/39 38/38/38
f 109/109/109 38/38/38 92/92/92
f 109/109/109 92/92/92 94/94/94
f 109/109/109 94/94/94 85/85/85
f 109/109/109 85/85/85 84/84/84
f 109/109/109 84/84/84 97/97/97
f 110/110/110 111/111/111 27/27/27
f 110/110/110 27/27/27 45/45/45
f 110/110/110 45/45/45 44/44/44
f 110/110/110 44/44/44 96/96/96
f 110/110/110 96/96/96 98/98/98
f 110/110/110 98/98/98 88/88/88
f 110/110/110 88/88/88 74/74/74
f 110/110/110 74/74/74 111/111/111
f 112/112/112 105/105/105 9/9/9
f 112/112/112 9/9/9 8/8/8
f 112/112/112 8/8/8 7/7/7
f 112/112/112 7/7/7 100/100/100
f 112/112/112 100/100/100 102/102/102
f 112/112/112 102/102/102 49/49/49
f 112/112/112 49/49/49 48/48/48
f 112/112/112 48/48/48 105/105/105
f 113/113/113 101/101/101 5/5/5
f 113/113/113 5/5/5 33/33/33
f 113/113/113 33/33/33 29/29/29
f 113/113/113 29/29/29 114/114/114
f 113/113/113 114/114/114 72/72/72
f 113/113/113 72/72/72 78/78/78
f 113/113/113 78/78/78 52/52/52
f 113/113/113 52/52/52 101/101/101
f 115/115/115 116/116/116 24/24/24
f 115/115/115 24/24/24 35/35/35
f 115/115/115 35/35/35 12/12/12
f 115/115/115 12/12/12 108/108/108
f 115/115/115 108/108/108 60/60/60
f 115/115/115 60/60/60 80/80/80
f 115/115/115 80/80/80 63/63/63
f 115/115/115 63/63/63 116/116/116
f 117/117/117 93/93/93 18/18/18
f 117/117/117 18/18/18 17/17/17
f 117/117/117 17/17/17 24/24/24
f 117/117/117 24/24/24 116/116/116
f 117/117/117 116/116/116 63/63/63
f 117/117/117 63/63/63 62/62/62
f 117/117/117 62/62/62 69/69/69
f 117/117/117 69/69/69 93/93/93
f 118/118/118 114/114/114 29/29/29
f 118/118/118 29/29/29 28/28/28
f 118/118/118 28/28/28 27/27/27
f 118/118/118 27/27/27 111/111/111
f 118/118/118 111/111/111 74/74/74
f 118/118/118 74/74/74 73/73/73
f 118/118/118 73/73/73 72/72/72
f 118/118/118 72/72/72 114/114/114
