v -2.348013 0.717600 -1.111605
v -2.349456 0.718667 -1.113351
v -2.351593 0.716561 -1.111899
v -2.349707 0.715534 -1.110127
v -2.348422 0.714820 -1.108549
v -2.347206 0.716721 -1.109938
v -2.346743 0.717917 -1.111234
v -2.346863 0.719013 -1.112797
v -2.347874 0.720135 -1.114500
v -2.351664 0.719590 -1.114090
v -2.353607 0.720212 -1.114294
v -2.355694 0.718785 -1.113498
v -2.353856 0.717796 -1.112951
v -2.350023 0.720736 -1.114948
v -2.351927 0.720744 -1.114762
v -2.360135 0.710078 -1.109801
v -2.361762 0.711017 -1.110612
v -2.363328 0.707901 -1.109744
v -2.361882 0.707066 -1.109039
v -2.360015 0.706011 -1.107978
v -2.358030 0.708889 -1.108588
v -2.355974 0.711646 -1.109400
v -2.358182 0.712903 -1.110649
v -2.359895 0.713904 -1.111466
v -2.356070 0.707861 -1.107034
v -2.358287 0.705105 -1.106593
v -2.357028 0.704465 -1.105456
v -2.354640 0.707133 -1.105765
v -2.352445 0.709841 -1.106396
v -2.353930 0.710584 -1.107755
v -2.351744 0.713168 -1.108815
v -2.353797 0.714212 -1.110543
v -2.350270 0.712465 -1.107346
v -2.356059 0.715521 -1.111751
v -2.357831 0.716588 -1.112492
v -2.363387 0.703884 -1.108198
v -2.364490 0.704530 -1.108675
v -2.364839 0.702467 -1.108007
v -2.364416 0.701422 -1.107566
v -2.363428 0.700849 -1.107099
v -2.361976 0.703080 -1.107444
v -2.360704 0.702421 -1.106372
v -2.362578 0.700419 -1.106315
v -2.361532 0.700663 -1.105756
v -2.359785 0.701964 -1.105473
v -2.347942 0.717421 -1.111783
v -2.349412 0.718501 -1.113549
v -2.347843 0.720008 -1.114647
v -2.346811 0.718876 -1.112927
v -2.346698 0.717814 -1.111326
v -2.347139 0.716581 -1.110059
v -2.348353 0.714687 -1.108677
v -2.349632 0.715363 -1.110311
v -2.351542 0.716402 -1.112101
v -2.351647 0.719441 -1.114304
v -2.353608 0.720110 -1.114463
v -2.351926 0.720665 -1.114884
v -2.350014 0.720623 -1.115108
v -2.353829 0.717652 -1.113168
v -2.355686 0.718686 -1.113668
v -2.360071 0.709965 -1.110030
v -2.361724 0.710937 -1.110789
v -2.359865 0.713817 -1.111641
v -2.358129 0.712779 -1.110874
v -2.355902 0.711512 -1.109614
v -2.357949 0.708767 -1.108806
v -2.359927 0.705897 -1.108199
v -2.361812 0.706961 -1.109271
v -2.363285 0.707828 -1.109923
v -2.355972 0.707729 -1.107239
v -2.353839 0.710440 -1.107955
v -2.352368 0.709729 -1.106539
v -2.354557 0.707029 -1.105912
v -2.356941 0.704368 -1.105605
v -2.358182 0.704982 -1.106800
v -2.351662 0.713011 -1.109007
v -2.353736 0.714064 -1.110751
v -2.350198 0.712342 -1.107482
v -2.356019 0.715387 -1.111973
v -2.357812 0.716494 -1.112664
v -2.363316 0.703784 -1.108431
v -2.364447 0.704460 -1.108855
v -2.361887 0.702969 -1.107665
v -2.363361 0.700766 -1.107265
v -2.364364 0.701347 -1.107741
v -2.364805 0.702414 -1.108139
v -2.360596 0.702300 -1.106579
v -2.359695 0.701869 -1.105621
v -2.361467 0.700594 -1.105868
v -2.362496 0.700329 -1.106470
v -2.364840 0.704715 -1.108915
v -2.365224 0.701891 -1.107912
v -2.363793 0.708148 -1.110059
v -2.364805 0.702414 -1.108139
v -2.363166 0.699712 -1.106364
v -2.361910 0.700084 -1.105657
v -2.363882 0.700068 -1.107058
v -2.361467 0.700594 -1.105868
v -2.346904 0.716365 -1.109433
v -2.346446 0.717925 -1.111115
v -2.347960 0.714521 -1.108077
v -2.346698 0.717814 -1.111326
v -2.349473 0.721067 -1.115305
v -2.352055 0.720984 -1.114932
v -2.347334 0.720567 -1.114948
v -2.351926 0.720665 -1.114884
v -2.354259 0.720376 -1.114439
v -2.356305 0.719073 -1.113757
v -2.364736 0.700568 -1.107433
v -2.359437 0.701769 -1.105238
v -2.356568 0.704208 -1.105142
v -2.346457 0.719423 -1.113252
v -2.349744 0.712175 -1.106915
v -2.351913 0.709542 -1.106004
v -2.358416 0.716903 -1.112816
v -2.360455 0.714200 -1.111818
v -2.362289 0.711296 -1.110963
v -2.354124 0.706843 -1.105406
vn -0.306800 0.728500 0.612400
vn -0.133400 0.668400 0.731700
vn -0.171700 0.630100 0.757200
vn -0.328400 0.683000 0.652400
vn -0.337400 0.663200 0.668100
vn -0.301400 0.726200 0.617900
vn -0.273800 0.767200 0.580000
vn -0.218100 0.773400 0.595200
vn -0.072700 0.723400 0.686500
vn 0.019500 0.550600 0.834500
vn 0.013000 0.554600 0.832000
vn -0.059800 0.511700 0.857100
vn -0.036700 0.523900 0.851000
vn 0.048500 0.628000 0.776700
vn 0.064000 0.583000 0.809900
vn -0.241700 0.397100 0.885300
vn -0.275500 0.407000 0.870800
vn -0.296000 0.382300 0.875300
vn -0.254300 0.366700 0.894900
vn -0.350100 0.409400 0.842500
vn -0.326100 0.443700 0.834700
vn -0.276100 0.510200 0.814500
vn -0.186800 0.450300 0.873100
vn -0.218400 0.449600 0.866100
vn -0.405600 0.486400 0.773800
vn -0.430100 0.462600 0.775200
vn -0.399600 0.438800 0.804800
vn -0.383600 0.466000 0.797200
vn -0.361400 0.527600 0.768800
vn -0.370600 0.550500 0.748000
vn -0.341600 0.624300 0.702500
vn -0.218600 0.579200 0.785300
vn -0.345900 0.599700 0.721500
vn -0.109900 0.497900 0.860200
vn -0.139300 0.487000 0.862200
vn -0.241800 0.343300 0.907500
vn -0.289200 0.356600 0.888400
vn -0.273300 0.328200 0.904200
vn -0.255200 0.286000 0.923600
vn -0.391700 0.345800 0.852600
vn -0.361200 0.392900 0.845600
vn -0.456100 0.460100 0.761700
vn -0.502100 0.420700 0.755500
vn -0.458500 0.429300 0.778100
vn -0.426600 0.431500 0.794900
vn 0.341400 -0.720400 -0.603700
vn 0.144000 -0.658100 -0.739000
vn 0.184600 -0.616600 -0.765300
vn 0.441000 -0.692600 -0.570800
vn 0.532900 -0.689300 -0.490800
vn 0.511800 -0.693800 -0.506600
vn 0.467700 -0.683000 -0.561000
vn 0.340200 -0.686100 -0.643000
vn 0.171600 -0.630200 -0.757200
vn -0.025900 -0.520000 -0.853800
vn -0.107600 -0.356000 -0.928300
vn -0.119900 -0.333300 -0.935100
vn -0.047700 -0.426200 -0.903300
vn 0.025800 -0.514700 -0.857000
vn -0.053000 -0.399100 -0.915400
vn 0.228300 -0.390600 -0.891800
vn 0.132500 -0.343900 -0.929600
vn 0.092200 -0.379300 -0.920600
vn 0.174800 -0.443500 -0.879100
vn 0.276200 -0.510100 -0.814500
vn 0.326200 -0.443600 -0.834700
vn 0.350200 -0.409200 -0.842500
vn 0.237400 -0.360900 -0.901900
vn 0.113500 -0.329400 -0.937300
vn 0.416400 -0.493200 -0.763700
vn 0.381100 -0.556000 -0.738600
vn 0.464200 -0.582200 -0.667400
vn 0.487600 -0.537600 -0.687900
vn 0.505100 -0.543000 -0.670800
vn 0.441400 -0.472100 -0.763000
vn 0.352100 -0.628800 -0.693300
vn 0.218600 -0.579200 -0.785300
vn 0.452600 -0.641000 -0.619800
vn 0.098600 -0.490500 -0.865800
vn 0.020500 -0.405400 -0.913900
vn 0.210200 -0.347500 -0.913800
vn 0.048500 -0.328600 -0.943200
vn 0.354500 -0.402900 -0.843700
vn 0.324400 -0.446100 -0.834100
vn 0.110400 -0.368300 -0.923100
vn 0.006300 -0.332200 -0.943200
vn 0.462700 -0.485200 -0.742000
vn 0.519000 -0.585100 -0.623000
vn 0.522400 -0.613700 -0.591900
vn 0.470400 -0.564700 -0.678100
vn -0.960200 0.154400 -0.232700
vn -0.977700 -0.207200 -0.034500
vn -0.907800 0.276300 -0.315300
vn 0.006300 -0.332200 -0.943200
vn -0.374100 -0.874300 0.309300
vn 0.031200 -0.757400 0.652200
vn -0.508200 -0.859200 0.058200
vn 0.522400 -0.613700 -0.591900
vn 0.821300 0.049500 0.568300
vn 0.896700 0.273300 0.348200
vn 0.745700 -0.128300 0.653800
vn 0.532900 -0.689300 -0.490800
vn 0.175300 0.796800 -0.578100
vn -0.221800 0.883200 -0.413200
vn 0.651300 0.572200 -0.498400
vn -0.119900 -0.333300 -0.935100
vn -0.520900 0.780900 -0.344700
vn -0.686600 0.652400 -0.320600
vn -0.729900 -0.680300 0.067100
vn 0.406500 -0.590500 0.697200
vn 0.538700 -0.512200 0.668900
vn 0.916700 0.392600 -0.073500
vn 0.687800 -0.262600 0.676700
vn 0.656100 -0.343800 0.671800
vn -0.779400 0.537600 -0.321800
vn -0.821600 0.462100 -0.333800
vn -0.857000 0.384000 -0.343600
vn 0.620200 -0.421500 0.661600
vt 0.839504 0.118056
vt 0.856743 0.205307
vt 0.741230 0.205307
vt 0.734555 0.106726
vt 0.724541 0.032791
vt 0.813647 0.052618
vt 0.868992 0.081539
vt 0.913398 0.129584
vt 0.940923 0.205307
vt 0.839504 0.292557
vt 0.813647 0.357995
vt 0.724541 0.377822
vt 0.734555 0.303887
vt 0.913398 0.281029
vt 0.868992 0.329074
vt 0.369475 0.299954
vt 0.368286 0.370940
vt 0.245840 0.351447
vt 0.246397 0.288815
vt 0.246768 0.205307
vt 0.370268 0.205307
vt 0.494283 0.205307
vt 0.492822 0.304944
vt 0.490632 0.379672
vt 0.369475 0.110659
vt 0.246397 0.121798
vt 0.245841 0.059166
vt 0.368286 0.039673
vt 0.490632 0.030941
vt 0.492822 0.105669
vt 0.616755 0.103478
vt 0.619174 0.205307
vt 0.613127 0.027106
vt 0.616755 0.307135
vt 0.613126 0.383507
vt 0.123273 0.268175
vt 0.123047 0.315326
vt 0.054743 0.283353
vt 0.030912 0.249131
vt 0.030973 0.205306
vt 0.123423 0.205306
vt 0.123273 0.142438
vt 0.030912 0.161481
vt 0.054744 0.127260
vt 0.123047 0.095287
vt 0.839504 0.118056
vt 0.856743 0.205307
vt 0.968983 0.205307
vt 0.938030 0.133427
vt 0.876123 0.061548
vt 0.805028 0.030806
vt 0.721203 0.008146
vt 0.734555 0.106726
vt 0.741230 0.205307
vt 0.839504 0.292557
vt 0.805028 0.379807
vt 0.876123 0.349065
vt 0.938030 0.277186
vt 0.734555 0.303887
vt 0.721203 0.402467
vt 0.369475 0.299954
vt 0.367890 0.394602
vt 0.489902 0.404581
vt 0.492822 0.304944
vt 0.494283 0.205307
vt 0.370268 0.205307
vt 0.246768 0.205307
vt 0.246397 0.288815
vt 0.245655 0.372324
vt 0.369475 0.110659
vt 0.492822 0.105669
vt 0.489902 0.006032
vt 0.367890 0.016011
vt 0.245655 0.038289
vt 0.246397 0.121798
vt 0.616755 0.103478
vt 0.619174 0.205307
vt 0.611917 0.001649
vt 0.616755 0.307135
vt 0.611917 0.408964
vt 0.123273 0.268175
vt 0.122972 0.331043
vt 0.123423 0.205306
vt 0.000156 0.205306
vt 0.000125 0.242784
vt 0.000064 0.280261
vt 0.123273 0.142438
vt 0.122972 0.079570
vt 0.000064 0.130352
vt 0.000125 0.167829
vt 0.122972 0.331043
vt 0.030806 0.283587
vt 0.245655 0.372324
vt 0.030806 0.283587
vt 0.000125 0.167829
vt 0.030806 0.127026
vt 0.000156 0.205306
vt 0.030806 0.127026
vt 0.805028 0.030806
vt 0.873826 0.071832
vt 0.721203 0.008146
vt 0.873826 0.071832
vt 0.938030 0.277186
vt 0.873826 0.338781
vt 0.968983 0.205307
vt 0.873826 0.338781
vt 0.805028 0.379807
vt 0.721203 0.402467
vt 0.000125 0.242784
vt 0.122972 0.079570
vt 0.245655 0.038289
vt 0.938030 0.133427
vt 0.611917 0.001649
vt 0.489902 0.006032
vt 0.611917 0.408964
vt 0.489902 0.404581
vt 0.367890 0.394602
vt 0.367890 0.016011
f 1/1/1 2/2/2 3/3/3
f 1/1/1 3/3/3 4/4/4
f 1/1/1 4/4/4 5/5/5
f 1/1/1 5/5/5 6/6/6
f 1/1/1 6/6/6 7/7/7
f 1/1/1 7/7/7 8/8/8
f 1/1/1 8/8/8 9/9/9
f 1/1/1 9/9/9 2/2/2
f 10/10/10 11/11/11 12/12/12
f 10/10/10 12/12/12 13/13/13
f 10/10/10 13/13/13 3/3/3
f 10/10/10 3/3/3 2/2/2
f 10/10/10 2/2/2 9/9/9
f 10/10/10 9/9/9 14/14/14
f 10/10/10 14/14/14 15/15/15
f 10/10/10 15/15/15 11/11/11
f 16/16/16 17/17/17 18/18/18
f 16/16/16 18/18/18 19/19/19
f 16/16/16 19/19/19 20/20/20
f 16/16/16 20/20/20 21/21/21
f 16/16/16 21/21/21 22/22/22
f 16/16/16 22/22/22 23/23/23
f 16/16/16 23/23/23 24/24/24
f 16/16/16 24/24/24 17/17/17
f 25/25/25 21/21/21 20/20/20
f 25/25/25 20/20/20 26/26/26
f 25/25/25 26/26/26 27/27/27
f 25/25/25 27/27/27 28/28/28
f 25/25/25 28/28/28 29/29/29
f 25/25/25 29/29/29 30/30/30
f 25/25/25 30/30/30 22/22/22
f 25/25/25 22/22/22 21/21/21
f 31/31/31 32/32/32 22/22/22
f 31/31/31 22/22/22 30/30/30
f 31/31/31 30/30/30 29/29/29
f 31/31/31 29/29/29 33/33/33
f 31/31/31 33/33/33 5/5/5
f 31/31/31 5/5/5 4/4/4
f 31/31/31 4/4/4 3/3/3
f 31/31/31 3/3/3 32/32/32
f 34/34/34 35/35/35 24/24/24
f 34/34/34 24/24/24 23/23/23
f 34/34/34 23/23/23 22/22/22
f 34/34/34 22/22/22 32/32/32
f 34/34/34 32/32/32 3/3/3
f 34/34/34 3/3/3 13/13/13
f 34/34/34 13/13/13 12/12/12
f 34/34/34 12/12/12 35/35/35
f 36/36/36 37/37/37 38/38/38
f 36/36/36 38/38/38 39/39/39
f 36/36/36 39/39/39 40/40/40
f 36/36/36 40/40/40 41/41/41
f 36/36/36 41/41/41 20/20/20
f 36/36/36 20/20/20 19/19/19
f 36/36/36 19/19/19 18/18/18
f 36/36/36 18/18/18 37/37/37
f 42/42/42 41/41/41 40/40/40
f 42/42/42 40/40/40 43/43/43
f 42/42/42 43/43/43 44/44/44
f 42/42/42 44/44/44 45/45/45
f 42/42/42 45/45/45 27/27/27
f 42/42/42 27/27/27 26/26/26
f 42/42/42 26/26/26 20/20/20
f 42/42/42 20/20/20 41/41/41
f 46/46/46 47/47/47 48/48/48
f 46/46/46 48/48/48 49/49/49
f 46/46/46 49/49/49 50/50/50
f 46/46/46 50/50/50 51/51/51
f 46/46/46 51/51/51 52/52/52
f 46/46/46 52/52/52 53/53/53
f 46/46/46 53/53/53 54/54/54
f 46/46/46 54/54/54 47/47/47
f 55/55/55 56/56/56 57/57/57
f 55/55/55 57/57/57 58/58/58
f 55/55/55 58/58/58 48/48/48
f 55/55/55 48/48/48 47/47/47
f 55/55/55 47/47/47 54/54/54
f 55/55/55 54/54/54 59/59/59
f 55/55/55 59/59/59 60/60/60
f 55/55/55 60/60/60 56/56/56
f 61/61/61 62/62/62 63/63/63
f 61/61/61 63/63/63 64/64/64
f 61/61/61 64/64/64 65/65/65
f 61/61/61 65/65/65 66/66/66
f 61/61/61 66/66/66 67/67/67
f 61/61/61 67/67/67 68/68/68
f 61/61/61 68/68/68 69/69/69
f 61/61/61 69/69/69 62/62/62
f 70/70/70 66/66/66 65/65/65
f 70/70/70 65/65/65 71/71/71
f 70/70/70 71/71/71 72/72/72
f 70/70/70 72/72/72 73/73/73
f 70/70/70 73/73/73 74/74/74
f 70/70/70 74/74/74 75/75/75
f 70/70/70 75/75/75 67/67/67
f 70/70/70 67/67/67 66/66/66
f 76/76/76 77/77/77 54/54/54
f 76/76/76 54/54/54 53/53/53
f 76/76/76 53/53/53 52/52/52
f 76/76/76 52/52/52 78/78/78
f 76/76/76 78/78/78 72/72/72
f 76/76/76 72/72/72 71/71/71
f 76/76/76 71/71/71 65/65/65
f 76/76/76 65/65/65 77/77/77
f 79/79/79 80/80/80 60/60/60
f 79/79/79 60/60/60 59/59/59
f 79/79/79 59/59/59 54/54/54
f 79/79/79 54/54/54 77/77/77
f 79/79/79 77/77/77 65/65/65
f 79/79/79 65/65/65 64/64/64
f 79/79/79 64/64/64 63/63/63
f 79/79/79 63/63/63 80/80/80
f 81/81/81 82/82/82 69/69/69
f 81/81/81 69/69/69 68/68/68
f 81/81/81 68/68/68 67/67/67
f 81/81/81 67/67/67 83/83/83
f 81/81/81 83/83/83 84/84/84
f 81/81/81 84/84/84 85/85/85
f 81/81/81 85/85/85 86/86/86
f 81/81/81 86/86/86 82/82/82
f 87/87/87 83/83/83 67/67/67
f 87/87/87 67/67/67 75/75/75
f 87/87/87 75/75/75 74/74/74
f 87/87/87 74/74/74 88/88/88
f 87/87/87 88/88/88 89/89/89
f 87/87/87 89/89/89 90/90/90
f 87/87/87 90/90/90 84/84/84
f 87/87/87 84/84/84 83/83/83
f 91/91/91 92/92/92 38/38/38
f 91/91/91 38/38/38 37/37/37
f 91/91/91 37/37/37 18/18/18
f 91/91/91 18/18/18 93/93/93
f 91/91/91 93/93/93 69/69/69
f 91/91/91 69/69/69 82/82/82
f 91/91/91 82/82/82 94/94/94
f 91/91/91 94/94/94 92/92/92
f 95/95/95 96/96/96 44/44/44
f 95/95/95 44/44/44 43/43/43
f 95/95/95 43/43/43 40/40/40
f 95/95/95 40/40/40 97/97/97
f 95/95/95 97/97/97 84/84/84
f 95/95/95 84/84/84 90/90/90
f 95/95/95 90/90/90 98/98/98
f 95/95/95 98/98/98 96/96/96
f 99/99/99 100/100/100 7/7/7
f 99/99/99 7/7/7 6/6/6
f 99/99/99 6/6/6 5/5/5
f 99/99/99 5/5/5 101/101/101
f 99/99/99 101/101/101 52/52/52
f 99/99/99 52/52/52 51/51/51
f 99/99/99 51/51/51 102/102/102
f 99/99/99 102/102/102 100/100/100
f 103/103/103 104/104/104 15/15/15
f 103/103/103 15/15/15 14/14/14
f 103/103/103 14/14/14 9/9/9
f 103/103/103 9/9/9 105/105/105
f 103/103/103 105/105/105 48/48/48
f 103/103/103 48/48/48 58/58/58
f 103/103/103 58/58/58 106/106/106
f 103/103/103 106/106/106 104/104/104
f 107/107/107 108/108/108 12/12/12
f 107/107/107 12/12/12 11/11/11
f 107/107/107 11/11/11 15/15/15
f 107/107/107 15/15/15 104/104/104
f 107/107/107 104/104/104 106/106/106
f 107/107/107 106/106/106 56/56/56
f 107/107/107 56/56/56 60/60/60
f 107/107/107 60/60/60 108/108/108
f 109/109/109 97/97/97 40/40/40
f 109/109/109 40/40/40 39/39/39
f 109/109/109 39/39/39 38/38/38
f 109/109/109 38/38/38 92/92/92
f 109/109/109 92/92/92 94/94/94
f 109/109/109 94/94/94 85/85/85
f 109/109/109 85/85/85 84/84/84
f 109/109/109 84/84/84 97/97/97
f 110/110/110 111/111/111 27/27/27
f 110/110/110 27/27/27 45/45/45
f 110/110/110 45/45/45 44/44/44
f 110/110/110 44/44/44 96/96/96
f 110/110/110 96/96/96 98/98/98
f 110/110/110 98/98/98 88/88/88
f 110/110/110 88/88/88 74/74/74
f 110/110/110 74/74/74 111/111/111
f 112/112/112 105/105/105 9/9/9
f 112/112/112 9/9/9 8/8/8
f 112/112/112 8/8/8 7/7/7
f 112/112/112 7/7/7 100/100/100
f 112/112/112 100/100/100 102/102/102
f 112/112/112 102/102/102 49/49/49
f 112/112/112 49/49/49 48/48/48
f 112/112/112 48/48/48 105/105/105
f 113/113/113 101/101/101 5/5/5
f 113/113/113 5/5/5 33/33/33
f 113/113/113 33/33/33 29/29/29
f 113/113/113 29/29/29 114/114/114
f 113/113/113 114/114/114 72/72/72
f 113/113/113 72/72/72 78/78/78
f 113/113/113 78/78/78 52/52/52
f 113/113/113 52/52/52 101/101/101
f 115/115/115 116/116/116 24/24/24
f 115/115/115 24/24/24 35/35/35
f 115/115/115 35/35/35 12/12/12
f 115/115/115 12/12/12 108/108/108
f 115/115/115 108/108/108 60/60/60
f 115/115/115 60/60/60 80/80/80
f 115/115/115 80/80/80 63/63/63
f 115/115/115 63/63/63 116/116/116
f 117/117/117 93/93/93 18/18/18
f 117/117/117 18/18/18 17/17/17
f 117/117/117 17/17/17 24/24/24
f 117/117/117 24/24/24 116/116/116
f 117/117/117 116/116/116 63/63/63
f 117/117/117 63/63/63 62/62/62
f 117/117/117 62/62/62 69/69/69
f 117/117/117 69/69/69 93/93/93
f 118/118/118 114/114/114 29/29/29
f 118/118/118 29/29/29 28/28/28
f 118/118/118 28/28/28 27/27/27
f 118/118/118 27/27/27 111/111/111
f 118/118/118 111/111/111 74/74/74
f 118/118/118 74/74/74 73/73/73
f 118/118/118 73/73/73 72/72/72
f 118/118/118 72/72/72 114/114/114
