v -2.381615 0.698556 -1.216655
v -2.383425 0.698986 -1.216235
v -2.382562 0.698140 -1.214002
v -2.380622 0.697697 -1.214735
v -2.379046 0.697487 -1.215151
v -2.380073 0.698307 -1.216683
v -2.381087 0.698740 -1.217528
v -2.382418 0.699095 -1.218002
v -2.384093 0.699527 -1.217887
v -2.384731 0.699675 -1.215028
v -2.385538 0.700269 -1.213830
v -2.385254 0.699716 -1.211909
v -2.384164 0.698969 -1.212886
v -2.385115 0.700063 -1.216594
v -2.385512 0.700329 -1.215217
v -2.382046 0.695106 -1.206269
v -2.383247 0.695722 -1.205489
v -2.382400 0.693944 -1.203587
v -2.381344 0.693392 -1.204284
v -2.379884 0.692737 -1.205155
v -2.380389 0.694372 -1.207247
v -2.380985 0.695858 -1.209411
v -2.382710 0.696641 -1.208381
v -2.383952 0.697309 -1.207554
v -2.378576 0.693859 -1.208081
v -2.378275 0.692290 -1.205886
v -2.377022 0.692013 -1.206395
v -2.377167 0.693538 -1.208663
v -2.377591 0.695025 -1.210875
v -2.379080 0.695337 -1.210276
v -2.379770 0.696621 -1.212552
v -2.381729 0.697106 -1.211694
v -2.378218 0.696367 -1.213126
v -2.383453 0.697943 -1.210629
v -2.384673 0.698685 -1.209756
v -2.380484 0.691554 -1.202418
v -2.381250 0.691999 -1.201874
v -2.380439 0.690772 -1.201077
v -2.379794 0.690112 -1.201073
v -2.379082 0.689729 -1.201551
v -2.379411 0.691041 -1.203085
v -2.378193 0.690732 -1.203613
v -2.378225 0.689549 -1.201892
v -2.377615 0.689758 -1.202552
v -2.377234 0.690557 -1.203971
v -2.381675 0.698374 -1.216709
v -2.383509 0.698810 -1.216277
v -2.384156 0.699394 -1.217916
v -2.382461 0.698957 -1.218041
v -2.381114 0.698638 -1.217560
v -2.380106 0.698168 -1.216730
v -2.379085 0.697351 -1.215201
v -2.380688 0.697519 -1.214795
v -2.382650 0.697968 -1.214051
v -2.384838 0.699510 -1.215058
v -2.385629 0.700152 -1.213846
v -2.385577 0.700240 -1.215230
v -2.385196 0.699939 -1.216613
v -2.384272 0.698806 -1.212924
v -2.385345 0.699599 -1.211933
v -2.382159 0.694957 -1.206342
v -2.383338 0.695613 -1.205539
v -2.384042 0.697196 -1.207597
v -2.382820 0.696487 -1.208444
v -2.381080 0.695697 -1.209482
v -2.380487 0.694217 -1.207328
v -2.379983 0.692586 -1.205242
v -2.381458 0.693247 -1.204363
v -2.382493 0.693839 -1.203642
v -2.378659 0.693700 -1.208169
v -2.379158 0.695172 -1.210356
v -2.377642 0.694898 -1.210938
v -2.377220 0.693416 -1.208733
v -2.377077 0.691895 -1.206469
v -2.378359 0.692135 -1.205981
v -2.379842 0.696448 -1.212621
v -2.381820 0.696939 -1.211754
v -2.378263 0.696235 -1.213183
v -2.383562 0.697784 -1.210679
v -2.384763 0.698569 -1.209789
v -2.380599 0.691412 -1.202499
v -2.381345 0.691896 -1.201931
v -2.379512 0.690893 -1.203174
v -2.379157 0.689618 -1.201619
v -2.379882 0.690006 -1.201133
v -2.380507 0.690695 -1.201120
v -2.378277 0.690578 -1.203711
v -2.377288 0.690439 -1.204048
v -2.377657 0.689672 -1.202608
v -2.378287 0.689434 -1.201966
v -2.381549 0.692102 -1.201717
v -2.380352 0.690436 -1.200674
v -2.382794 0.694083 -1.203378
v -2.380507 0.690695 -1.201120
v -2.378263 0.689103 -1.201351
v -2.377523 0.689420 -1.202151
v -2.379006 0.689242 -1.201070
v -2.377657 0.689672 -1.202608
v -2.379571 0.698162 -1.216715
v -2.380926 0.698746 -1.217712
v -2.378536 0.697356 -1.215313
v -2.381114 0.698638 -1.217560
v -2.385279 0.700138 -1.217124
v -2.385715 0.700466 -1.215212
v -2.384343 0.699648 -1.218450
v -2.385577 0.700240 -1.215230
v -2.385850 0.700417 -1.213436
v -2.385660 0.699914 -1.211593
v -2.379603 0.689585 -1.200651
v -2.376936 0.690445 -1.204126
v -2.376627 0.691868 -1.206598
v -2.382705 0.699213 -1.218468
v -2.377719 0.696223 -1.213344
v -2.377115 0.694864 -1.211104
v -2.385122 0.698882 -1.209478
v -2.384408 0.697482 -1.207296
v -2.383689 0.695879 -1.205250
v -2.376719 0.693376 -1.208889
vn 0.222000 0.936200 0.272200
vn 0.407400 0.898700 0.162200
vn 0.427500 0.878100 0.214700
vn 0.262900 0.911800 0.315300
vn 0.279300 0.900400 0.333400
vn 0.229500 0.935200 0.269400
vn 0.193900 0.955400 0.222500
vn 0.225600 0.958600 0.173900
vn 0.373200 0.924400 0.079000
vn 0.587700 0.804900 0.081200
vn 0.581900 0.808700 0.085300
vn 0.590600 0.788700 0.170900
vn 0.589900 0.794400 0.144600
vn 0.524400 0.851300 0.017900
vn 0.572400 0.819500 0.024700
vn 0.583500 0.719600 0.376300
vn 0.555700 0.728400 0.400700
vn 0.559400 0.710200 0.427400
vn 0.596300 0.696900 0.398400
vn 0.503100 0.731100 0.460700
vn 0.494900 0.756500 0.427500
vn 0.475600 0.803300 0.358400
vn 0.577000 0.756200 0.308400
vn 0.559700 0.757600 0.335800
vn 0.400000 0.785500 0.472200
vn 0.399400 0.767500 0.501300
vn 0.443300 0.751900 0.487900
vn 0.434500 0.772000 0.464000
vn 0.399400 0.815200 0.419400
vn 0.371000 0.830200 0.416000
vn 0.319600 0.877600 0.357200
vn 0.450300 0.848100 0.279200
vn 0.342100 0.862500 0.372900
vn 0.579300 0.784400 0.221500
vn 0.573700 0.779300 0.252000
vn 0.618800 0.678000 0.396600
vn 0.580900 0.690200 0.431400
vn 0.608900 0.667400 0.428600
vn 0.644900 0.632900 0.428400
vn 0.515600 0.682200 0.518400
vn 0.506700 0.718700 0.476100
vn 0.378700 0.764200 0.522100
vn 0.368200 0.732300 0.572800
vn 0.401200 0.742000 0.537000
vn 0.426900 0.745600 0.511700
vn -0.204200 -0.930600 -0.303700
vn -0.413000 -0.893400 -0.176700
vn -0.433900 -0.870400 -0.232400
vn -0.147300 -0.907600 -0.393200
vn -0.044300 -0.889000 -0.455700
vn -0.064500 -0.895900 -0.439600
vn -0.131800 -0.899100 -0.417400
vn -0.249400 -0.913000 -0.322700
vn -0.427400 -0.878200 -0.214600
vn -0.616000 -0.782700 -0.088700
vn -0.759000 -0.646500 -0.077000
vn -0.776100 -0.626300 -0.073600
vn -0.694800 -0.711100 -0.107100
vn -0.601800 -0.786500 -0.138700
vn -0.715400 -0.689600 -0.112600
vn -0.596000 -0.714000 -0.367400
vn -0.677500 -0.670600 -0.302100
vn -0.673700 -0.694200 -0.253300
vn -0.588600 -0.750300 -0.300900
vn -0.475700 -0.803200 -0.358600
vn -0.494900 -0.756400 -0.427700
vn -0.503100 -0.731000 -0.460900
vn -0.610200 -0.691500 -0.386400
vn -0.695300 -0.657300 -0.290500
vn -0.385100 -0.789700 -0.477500
vn -0.357300 -0.833400 -0.421600
vn -0.256700 -0.844000 -0.470900
vn -0.279400 -0.813600 -0.509800
vn -0.256400 -0.815000 -0.519600
vn -0.381600 -0.773600 -0.505800
vn -0.306400 -0.880000 -0.363000
vn -0.450300 -0.848100 -0.279200
vn -0.201600 -0.879400 -0.431300
vn -0.590600 -0.777900 -0.214700
vn -0.685800 -0.705500 -0.178500
vn -0.634500 -0.679500 -0.368300
vn -0.724100 -0.649300 -0.232500
vn -0.504600 -0.726200 -0.466800
vn -0.494200 -0.758200 -0.425100
vn -0.672500 -0.687600 -0.273600
vn -0.738200 -0.646500 -0.192600
vn -0.351500 -0.781200 -0.515900
vn -0.196800 -0.838700 -0.507700
vn -0.159700 -0.854300 -0.494500
vn -0.269000 -0.832600 -0.484200
vn -0.595900 0.197700 0.778300
vn -0.321000 -0.062200 0.945000
vn -0.685800 0.272900 0.674600
vn -0.738200 -0.646500 -0.192600
vn 0.394200 -0.640400 0.659100
vn 0.809200 -0.468100 0.354900
vn 0.118500 -0.697400 0.706800
vn -0.159700 -0.854300 -0.494500
vn 0.785000 0.131000 -0.605400
vn 0.551800 0.247300 -0.796400
vn 0.884800 0.009300 -0.465900
vn -0.044300 -0.889000 -0.455700
vn -0.681000 0.500700 -0.534300
vn -0.702400 0.697400 -0.142100
vn -0.374200 0.253600 -0.892000
vn -0.776100 -0.626300 -0.073600
vn -0.719100 0.671200 0.180000
vn -0.720100 0.585300 0.372700
vn -0.005100 -0.497200 0.867600
vn 0.935600 -0.352200 -0.021300
vn 0.935300 -0.309500 -0.171300
vn 0.149400 0.202900 -0.967700
vn 0.923200 -0.097900 -0.371500
vn 0.931200 -0.169900 -0.322600
vn -0.721200 0.492400 0.487300
vn -0.725000 0.424500 0.542300
vn -0.723800 0.354500 0.591900
vn 0.931800 -0.240000 -0.272300
vt 0.839504 0.118056
vt 0.856743 0.205307
vt 0.741230 0.205307
vt 0.734555 0.106726
vt 0.724541 0.032791
vt 0.813647 0.052618
vt 0.868992 0.081539
vt 0.913398 0.129584
vt 0.940923 0.205307
vt 0.839504 0.292557
vt 0.813647 0.357995
vt 0.724541 0.377822
vt 0.734555 0.303887
vt 0.913398 0.281029
vt 0.868992 0.329074
vt 0.369475 0.299954
vt 0.368286 0.370940
vt 0.245840 0.351447
vt 0.246397 0.288815
vt 0.246768 0.205307
vt 0.370268 0.205307
vt 0.494283 0.205307
vt 0.492822 0.304944
vt 0.490632 0.379672
vt 0.369475 0.110659
vt 0.246397 0.121798
vt 0.245841 0.059166
vt 0.368286 0.039673
vt 0.490632 0.030941
vt 0.492822 0.105669
vt 0.616755 0.103478
vt 0.619174 0.205307
vt 0.613127 0.027106
vt 0.616755 0.307135
vt 0.613126 0.383507
vt 0.123273 0.268175
vt 0.123047 0.315326
vt 0.054743 0.283353
vt 0.030912 0.249131
vt 0.030973 0.205306
vt 0.123423 0.205306
vt 0.123273 0.142438
vt 0.030912 0.161481
vt 0.054744 0.127260
vt 0.123047 0.095287
vt 0.839504 0.118056
vt 0.856743 0.205307
vt 0.968983 0.205307
vt 0.938030 0.133427
vt 0.876123 0.061548
vt 0.805028 0.030806
vt 0.721203 0.008146
vt 0.734555 0.106726
vt 0.741230 0.205307
vt 0.839504 0.292557
vt 0.805028 0.379807
vt 0.876123 0.349065
vt 0.938030 0.277186
vt 0.734555 0.303887
vt 0.721203 0.402467
vt 0.369475 0.299954
vt 0.367890 0.394602
vt 0.489902 0.404581
vt 0.492822 0.304944
vt 0.494283 0.205307
vt 0.370268 0.205307
vt 0.246768 0.205307
vt 0.246397 0.288815
vt 0.245655 0.372324
vt 0.369475 0.110659
vt 0.492822 0.105669
vt 0.489902 0.006032
vt 0.367890 0.016011
vt 0.245655 0.038289
vt 0.246397 0.121798
vt 0.616755 0.103478
vt 0.619174 0.205307
vt 0.611917 0.001649
vt 0.616755 0.307135
vt 0.611917 0.408964
vt 0.123273 0.268175
vt 0.122972 0.331043
vt 0.123423 0.205306
vt 0.000156 0.205306
vt 0.000125 0.242784
vt 0.000064 0.280261
vt 0.123273 0.142438
vt 0.122972 0.079570
vt 0.000064 0.130352
vt 0.000125 0.167829
vt 0.122972 0.331043
vt 0.030806 0.283587
vt 0.245655 0.372324
vt 0.030806 0.283587
vt 0.000125 0.167829
vt 0.030806 0.127026
vt 0.000156 0.205306
vt 0.030806 0.127026
vt 0.805028 0.030806
vt 0.873826 0.071832
vt 0.721203 0.008146
vt 0.873826 0.071832
vt 0.938030 0.277186
vt 0.873826 0.338781
vt 0.968983 0.205307
vt 0.873826 0.338781
vt 0.805028 0.379807
vt 0.721203 0.402467
vt 0.000125 0.242784
vt 0.122972 0.079570
vt 0.245655 0.038289
vt 0.938030 0.133427
vt 0.611917 0.001649
vt 0.489902 0.006032
vt 0.611917 0.408964
vt 0.489902 0.404581
vt 0.367890 0.394602
vt 0.367890 0.016011
f 1/1/1 2/2/2 3/3/3
f 1/1/1 3/3/3 4/4/4
f 1/1/1 4/4/4 5/5/5
f 1/1/1 5/5/5 6/6/6
f 1/1/1 6/6/6 7/7/7
f 1/1/1 7/7/7 8/8/8
f 1/1/1 8/8/8 9/9/9
f 1/1/1 9/9/9 2/2/2
f 10/10/10 11/11/11 12/12/12
f 10/10/10 12/12/12 13/13/13
f 10/10/10 13/13/13 3/3/3
f 10/10/10 3/3/3 2/2/2
f 10/10/10 2/2/2 9/9/9
f 10/10/10 9/9/9 14/14/14
f 10/10/10 14/14/14 15/15/15
f 10/10/10 15/15/15 11/11/11
f 16/16/16 17/17/17 18/18/18
f 16/16/16 18/18/18 19/19/19
f 16/16/16 19/19/19 20/20/20
f 16/16/16 20/20/20 21/21/21
f 16/16/16 21/21/21 22/22/22
f 16/16/16 22/22/22 23/23/23
f 16/16/16 23/23/23 24/24/24
f 16/16/16 24/24/24 17/17/17
f 25/25/25 21/21/21 20/20/20
f 25/25/25 20/20/20 26/26/26
f 25/25/25 26/26/26 27/27/27
f 25/25/25 27/27/27 28/28/28
f 25/25/25 28/28/28 29/29/29
f 25/25/25 29/29/29 30/30/30
f 25/25/25 30/30/30 22/22/22
f 25/25/25 22/22/22 21/21/21
f 31/31/31 32/32/32 22/22/22
f 31/31/31 22/22/22 30/30/30
f 31/31/31 30/30/30 29/29/29
f 31/31/31 29/29/29 33/33/33
f 31/31/31 33/33/33 5/5/5
f 31/31/31 5/5/5 4/4/4
f 31/31/31 4/4/4 3/3/3
f 31/31/31 3/3/3 32/32/32
f 34/34/34 35/35/35 24/24/24
f 34/34/34 24/24/24 23/23/23
f 34/34/34 23/23/23 22/22/22
f 34/34/34 22/22/22 32/32/32
f 34/34/34 32/32/32 3/3/3
f 34/34/34 3/3/3 13/13/13
f 34/34/34 13/13/13 12/12/12
f 34/34/34 12/12/12 35/35/35
f 36/36/36 37/37/37 38/38/38
f 36/36/36 38/38/38 39/39/39
f 36/36/36 39/39/39 40/40/40
f 36/36/36 40/40/40 41/41/41
f 36/36/36 41/41/41 20/20/20
f 36/36/36 20/20/20 19/19/19
f 36/36/36 19/19/19 18/18/18
f 36/36/36 18/18/18 37/37/37
f 42/42/42 41/41/41 40/40/40
f 42/42/42 40/40/40 43/43/43
f 42/42/42 43/43/43 44/44/44
f 42/42/42 44/44/44 45/45/45
f 42/42/42 45/45/45 27/27/27
f 42/42/42 27/27/27 26/26/26
f 42/42/42 26/26/26 20/20/20
f 42/42/42 20/20/20 41/41/41
f 46/46/46 47/47/47 48/48/48
f 46/46/46 48/48/48 49/49/49
f 46/46/46 49/49/49 50/50/50
f 46/46/46 50/50/50 51/51/51
f 46/46/46 51/51/51 52/52/52
f 46/46/46 52/52/52 53/53/53
f 46/46/46 53/53/53 54/54/54
f 46/46/46 54/54/54 47/47/47
f 55/55/55 56/56/56 57/57/57
f 55/55/55 57/57/57 58/58/58
f 55/55/55 58/58/58 48/48/48
f 55/55/55 48/48/48 47/47/47
f 55/55/55 47/47/47 54/54/54
f 55/55/55 54/54/54 59/59/59
f 55/55/55 59/59/59 60/60/60
f 55/55/55 60/60/60 56/56/56
f 61/61/61 62/62/62 63/63/63
f 61/61/61 63/63/63 64/64/64
f 61/61/61 64/64/64 65/65/65
f 61/61/61 65/65/65 66/66/66
f 61/61/61 66/66/66 67/67/67
f 61/61/61 67/67/67 68/68/68
f 61/61/61 68/68/68 69/69/69
f 61/61/61 69/69/69 62/62/62
f 70/70/70 66/66/66 65/65/65
f 70/70/70 65/65/65 71/71/71
f 70/70/70 71/71/71 72/72/72
f 70/70/70 72/72/72 73/73/73
f 70/70/70 73/73/73 74/74/74
f 70/70/70 74/74/74 75/75/75
f 70/70/70 75/75/75 67/67/67
f 70/70/70 67/67/67 66/66/66
f 76/76/76 77/77/77 54/54/54
f 76/76/76 54/54/54 53/53/53
f 76/76/76 53/53/53 52/52/52
f 76/76/76 52/52/52 78/78/78
f 76/76/76 78/78/78 72/72/72
f 76/76/76 72/72/72 71/71/71
f 76/76/76 71/71/71 65/65/65
f 76/76/76 65/65/65 77/77/77
f 79/79/79 80/80/80 60/60/60
f 79/79/79 60/60/60 59/59/59
f 79/79/79 59/59/59 54/54/54
f 79/79/79 54/54/54 77/77/77
f 79/79/79 77/77/77 65/65/65
f 79/79/79 65/65/65 64/64/64
f 79/79/79 64/64/64 63/63/63
f 79/79/79 63/63/63 80/80/80
f 81/81/81 82/82/82 69/69/69
f 81/81/81 69/69/69 68/68/68
f 81/81/81 68/68/68 67/67/67
f 81/81/81 67/67/67 83/83/83
f 81/81/81 83/83/83 84/84/84
f 81/81/81 84/84/84 85/85/85
f 81/81/81 85/85/85 86/86/86
f 81/81/81 86/86/86 82/82/82
f 87/87/87 83/83/83 67/67/67
f 87/87/87 67/67/67 75/75/75
f 87/87/87 75/75/75 74/74/74
f 87/87/87 74/74/74 88/88/88
f 87/87/87 88/88/88 89/89/89
f 87/87/87 89/89/89 90/90/90
f 87/87/87 90/90/90 84/84/84
f 87/87/87 84/84/84 83/83/83
f 91/91/91 92/92/92 38/38/38
f 91/91/91 38/38/38 37/37/37
f 91/91/91 37/37/37 18/18/18
f 91/91/91 18/18/18 93/93/93
f 91/91/91 93/93/93 69/69/69
f 91/91/91 69/69/69 82/82/82
f 91/91/91 82/82/82 94/94/94
f 91/91/91 94/94/94 92/92/92
f 95/95/95 96/96/96 44/44/44
f 95/95/95 44/44/44 43/43/43
f 95/95/95 43/43/43 40/40/40
f 95/95/95 40/40/40 97/97/97
f 95/95/95 97/97/97 84/84/84
f 95/95/95 84/84/84 90/90/90
f 95/95/95 90/90/90 98/98/98
f 95/95/95 98/98/98 96/96/96
f 99/99/99 100/100/100 7/7/7
f 99/99/99 7/7/7 6/6/6
f 99/99/99 6/6/6 5/5/5
f 99/99/99 5/5/5 101/101/101
f 99/99/99 101/101/101 52/52/52
f 99/99/99 52/52/52 51/51/51
f 99/99/99 51/51/51 102/102/102
f 99/99/99 102/102/102 100/100/100
f 103/103/103 104/104/104 15/15/15
f 103/103/103 15/15/15 14/14/14
f 103/103/103 14/14/14 9/9/9
f 103/103/103 9/9/9 105/105/105
f 103/103/103 105/105/105 48/48/48
f 103/103/103 48/48/48 58/58/58
f 103/103/103 58/58/58 106/106/106
f 103/103/103 106/106/106 104/104/104
f 107/107/107 108/108/108 12/12/12
f 107/107/107 12/12/12 11/11/11
f 107/107/107 11/11/11 15/15/15
f 107/107/107 15/15/15 104/104/104
f 107/107/107 104/104/104 106/106/106
f 107/107/107 106/106/106 56/56/56
f 107/107/107 56/56/56 60/60/60
f 107/107/107 60/60/60 108/108/108
f 109/109/109 97/97/97 40/40/40
f 109/109/109 40/40/40 39/39/39
f 109/109/109 39/39/39 38/38/38
f 109/109/109 38/38/38 92/92/92
f 109/109/109 92/92/92 94/94/94
f 109/109/109 94/94/94 85/85/85
f 109/109/109 85/85/85 84/84/84
f 109/109/109 84/84/84 97/97/97
f 110/110/110 111/111/111 27/27/27
f 110/110/110 27/27/27 45/45/45
f 110/110/110 45/45/45 44/44/44
f 110/110/110 44/44/44 96/96/96
f 110/110/110 96/96/96 98/98/98
f 110/110/110 98/98/98 88/88/88
f 110/110/110 88/88/88 74/74/74
f 110/110/110 74/74/74 111/111/111
f 112/112/112 105/105/105 9/9/9
f 112/112/112 9/9/9 8/8/8
f 112/112/112 8/8/8 7/7/7
f 112/112/112 7/7/7 100/100/100
f 112/112/112 100/100/100 102/102/102
f 112/112/112 102/102/102 49/49/49
f 112/112/112 49/49/49 48/48/48
f 112/112/112 48/48/48 105/105/105
f 113/113/113 101/101/101 5/5/5
f 113/113/113 5/5/5 33/33/33
f 113/113/113 33/33/33 29/29/29
f 113/113/113 29/29/29 114/114/114
f 113/113/113 114/114/114 72/72/72
f 113/113/113 72/72/72 78/78/78
f 113/113/113 78/78/78 52/52/52
f 113/113/113 52/52/52 101/101/101
f 115/115/115 116/116/116 24/24/24
f 115/115/115 24/24/24 35/35/35
f 115/115/115 35/35/35 12/12/12
f 115/115/115 12/12/12 108/108/108
f 115/115/115 108/108/108 60/60/60
f 115/115/115 60/60/60 80/80/80
f 115/115/115 80/80/80 63/63/63
f 115/115/115 63/63/63 116/116/116
f 117/117/117 93/93/93 18/18/18
f 117/117/117 18/18/18 17/17/17
f 117/117/117 17/17/17 24/24/24
f 117/117/117 24/24/24 116/116/116
f 117/117/117 116/116/116 63/63/63
f 117/117/117 63/63/63 62/62/62
f 117/117/117 62/62/62 69/69/69
f 117/117/117 69/69/69 93/93/93
f 118/118/118 114/114/114 29/29/29
f 118/118/118 29/29/29 28/28/28
f 118/118/118 28/28/28 27/27/27
f 118/118/118 27/27/27 111/111/111
f 118/118/118 111/111/111 74/74/74
f 118/118/118 74/74/74 73/73/73
f 118/118/118 73/73/73 72/72/72
f 118/118/118 72/72/72 114/114/114
