v -2.376894 0.711450 -1.085637
v -2.374856 0.711378 -1.084083
v -2.373518 0.710310 -1.087036
v -2.375988 0.710442 -1.088454
v -2.377766 0.710723 -1.089734
v -2.378259 0.711627 -1.087223
v -2.378169 0.711957 -1.085387
v -2.377461 0.712040 -1.083562
v -2.375845 0.712048 -1.081884
v -2.372348 0.711718 -1.083674
v -2.370286 0.712099 -1.083781
v -2.368709 0.711258 -1.085823
v -2.370821 0.710747 -1.086223
v -2.373526 0.712272 -1.081863
v -2.371712 0.712338 -1.082599
v -2.366892 0.705676 -1.094771
v -2.364929 0.706003 -1.094113
v -2.364189 0.703756 -1.096932
v -2.365930 0.703456 -1.097503
v -2.368210 0.703171 -1.098352
v -2.369467 0.705365 -1.095742
v -2.370765 0.707344 -1.093006
v -2.368068 0.707692 -1.092001
v -2.366009 0.708068 -1.091333
v -2.371955 0.705377 -1.096957
v -2.370407 0.703191 -1.099436
v -2.372036 0.703292 -1.100320
v -2.373801 0.705479 -1.097944
v -2.375289 0.707519 -1.095340
v -2.373365 0.707379 -1.094288
v -2.374760 0.709076 -1.091395
v -2.372135 0.708979 -1.090057
v -2.376693 0.709310 -1.092521
v -2.369386 0.709394 -1.089075
v -2.367276 0.709867 -1.088455
v -2.365255 0.701138 -1.100314
v -2.363941 0.701408 -1.099925
v -2.364144 0.699987 -1.101655
v -2.364859 0.699337 -1.102432
v -2.366045 0.699122 -1.102812
v -2.366966 0.700891 -1.100920
v -2.368596 0.700941 -1.101757
v -2.367149 0.699202 -1.103421
v -2.368264 0.699744 -1.103434
v -2.369800 0.701062 -1.102455
v -2.376953 0.711199 -1.085561
v -2.374880 0.711127 -1.083992
v -2.375862 0.711859 -1.081819
v -2.377505 0.711851 -1.083510
v -2.378209 0.711818 -1.085351
v -2.378320 0.711441 -1.087174
v -2.377826 0.710539 -1.089676
v -2.376047 0.710195 -1.088367
v -2.373546 0.710063 -1.086936
v -2.372338 0.711472 -1.083569
v -2.370261 0.711918 -1.083695
v -2.371697 0.712203 -1.082539
v -2.373515 0.712087 -1.081787
v -2.370819 0.710504 -1.086110
v -2.368692 0.711079 -1.085732
v -2.366918 0.705454 -1.094620
v -2.364938 0.705838 -1.093997
v -2.366011 0.707897 -1.091224
v -2.368087 0.707462 -1.091862
v -2.370807 0.707112 -1.092876
v -2.369514 0.705141 -1.095601
v -2.368262 0.702953 -1.098202
v -2.365959 0.703240 -1.097344
v -2.364200 0.703595 -1.096809
v -2.372025 0.705153 -1.096825
v -2.373430 0.707147 -1.094169
v -2.375349 0.707345 -1.095256
v -2.373864 0.705311 -1.097851
v -2.372102 0.703129 -1.100221
v -2.370481 0.702972 -1.099296
v -2.374822 0.708836 -1.091293
v -2.372170 0.708739 -1.089943
v -2.376753 0.709131 -1.092450
v -2.369395 0.709156 -1.088950
v -2.367269 0.709691 -1.088356
v -2.365284 0.700925 -1.100152
v -2.363951 0.701250 -1.099799
v -2.367020 0.700676 -1.100768
v -2.366085 0.698960 -1.102697
v -2.364881 0.699178 -1.102310
v -2.364155 0.699869 -1.101563
v -2.368673 0.700725 -1.101615
v -2.369869 0.700900 -1.102354
v -2.368312 0.699624 -1.103358
v -2.367208 0.699040 -1.103315
v -2.363505 0.701428 -1.099738
v -2.363899 0.699533 -1.102152
v -2.363611 0.703785 -1.096686
v -2.364155 0.699869 -1.101563
v -2.366693 0.698551 -1.103929
v -2.368026 0.699290 -1.103934
v -2.365756 0.698460 -1.103391
v -2.368312 0.699624 -1.103358
v -2.378744 0.711604 -1.087732
v -2.378487 0.712036 -1.085391
v -2.378389 0.710735 -1.090136
v -2.378209 0.711818 -1.085351
v -2.373913 0.712375 -1.081227
v -2.371501 0.712449 -1.082374
v -2.376182 0.712187 -1.081122
v -2.371697 0.712203 -1.082539
v -2.369583 0.712146 -1.083776
v -2.367994 0.711350 -1.085648
v -2.364737 0.698666 -1.103084
v -2.370235 0.701030 -1.102644
v -2.372610 0.703253 -1.100572
v -2.377670 0.712153 -1.082849
v -2.377367 0.709309 -1.092867
v -2.375960 0.707489 -1.095654
v -2.366567 0.709947 -1.088203
v -2.365321 0.708117 -1.091061
v -2.364276 0.706039 -1.093841
v -2.374446 0.705438 -1.098233
vn 0.274800 0.936600 -0.217600
vn 0.069800 0.953800 -0.292200
vn 0.093200 0.934400 -0.343700
vn 0.277500 0.919200 -0.279500
vn 0.278800 0.910700 -0.304800
vn 0.267900 0.937600 -0.221600
vn 0.258100 0.952500 -0.161900
vn 0.202400 0.967000 -0.154300
vn 0.032700 0.977200 -0.209500
vn -0.122200 0.913100 -0.389000
vn -0.114600 0.915000 -0.386700
vn -0.058900 0.890700 -0.450700
vn -0.077400 0.898200 -0.432700
vn -0.121800 0.947900 -0.294300
vn -0.152800 0.928200 -0.339300
vn 0.087100 0.805300 -0.586500
vn 0.124600 0.805100 -0.579900
vn 0.138600 0.786200 -0.602200
vn 0.091300 0.784500 -0.613300
vn 0.203000 0.790200 -0.578300
vn 0.188100 0.815500 -0.547300
vn 0.157300 0.861800 -0.482200
vn 0.047200 0.844700 -0.533100
vn 0.079000 0.839700 -0.537200
vn 0.286300 0.817000 -0.500400
vn 0.305000 0.797100 -0.521000
vn 0.264600 0.793600 -0.547800
vn 0.256100 0.812900 -0.523100
vn 0.252800 0.850000 -0.462100
vn 0.270800 0.858000 -0.436500
vn 0.267400 0.896300 -0.353600
vn 0.122000 0.905500 -0.406400
vn 0.262500 0.885800 -0.382800
vn -0.014400 0.879600 -0.475400
vn 0.011200 0.870900 -0.491300
vn 0.072100 0.771800 -0.631700
vn 0.124300 0.771700 -0.623700
vn 0.100200 0.756600 -0.646100
vn 0.070700 0.731900 -0.677700
vn 0.228700 0.741100 -0.631200
vn 0.209800 0.777800 -0.592500
vn 0.332700 0.787300 -0.519200
vn 0.371000 0.749700 -0.548000
vn 0.325500 0.769900 -0.548800
vn 0.291400 0.781500 -0.551600
vn -0.308400 -0.924200 0.225100
vn -0.076200 -0.948800 0.306400
vn -0.101100 -0.927100 0.361000
vn -0.406300 -0.880900 0.242500
vn -0.512800 -0.833100 0.207300
vn -0.489700 -0.845900 0.211400
vn -0.432400 -0.867000 0.247500
vn -0.291500 -0.916500 0.273800
vn -0.093100 -0.934400 0.343600
vn 0.138400 -0.897800 0.418100
vn 0.263900 -0.801400 0.536700
vn 0.281400 -0.786200 0.550200
vn 0.188100 -0.845800 0.499200
vn 0.090800 -0.893900 0.438900
vn 0.200900 -0.829500 0.521000
vn -0.071400 -0.803600 0.590900
vn 0.037300 -0.786600 0.616300
vn 0.067200 -0.812600 0.579000
vn -0.033100 -0.842500 0.537700
vn -0.157400 -0.861700 0.482300
vn -0.188200 -0.815400 0.547500
vn -0.203000 -0.790100 0.578400
vn -0.072400 -0.783700 0.616900
vn 0.059900 -0.779000 0.624200
vn -0.300300 -0.817100 0.492000
vn -0.284100 -0.857300 0.429400
vn -0.385200 -0.839300 0.383600
vn -0.394600 -0.812100 0.429800
vn -0.416400 -0.807100 0.418500
vn -0.320500 -0.798400 0.509800
vn -0.280500 -0.894900 0.347100
vn -0.122000 -0.905500 0.406300
vn -0.396200 -0.863600 0.311800
vn 0.027900 -0.876700 0.480200
vn 0.129200 -0.832500 0.538700
vn -0.041100 -0.779400 0.625100
vn 0.123400 -0.782800 0.609800
vn -0.205700 -0.785300 0.583800
vn -0.187100 -0.817200 0.545100
vn 0.052500 -0.804200 0.592100
vn 0.163100 -0.786700 0.595300
vn -0.348200 -0.797600 0.492500
vn -0.448700 -0.816700 0.362700
vn -0.464600 -0.824000 0.324200
vn -0.385400 -0.830100 0.402900
vn 0.999600 -0.015700 -0.022200
vn 0.903600 -0.214300 -0.371000
vn 0.991600 0.043500 0.121600
vn 0.163100 -0.786700 0.595300
vn 0.124100 -0.578900 -0.805900
vn -0.323600 -0.287500 -0.901400
vn 0.315700 -0.704300 -0.635800
vn -0.464600 -0.824000 0.324200
vn -0.911900 0.365200 -0.187000
vn -0.890300 0.437300 0.127300
vn -0.892500 0.259600 -0.368900
vn -0.512800 -0.833100 0.207300
vn 0.115900 0.364900 0.923800
vn 0.470400 0.517600 0.714700
vn -0.397300 0.228800 0.888700
vn 0.281400 -0.786200 0.550200
vn 0.720300 0.461600 0.517800
vn 0.849400 0.362700 0.383300
vn 0.557700 -0.553300 -0.618600
vn -0.662300 -0.114500 -0.740400
vn -0.767600 -0.060500 -0.638000
vn -0.785500 0.311700 0.534600
vn -0.866900 0.157300 -0.472900
vn -0.850100 0.085600 -0.519600
vn 0.917600 0.263000 0.298000
vn 0.947100 0.192000 0.256900
vn 0.969300 0.120000 0.214300
vn -0.827500 0.014100 -0.561300
vt 0.839504 0.118056
vt 0.856743 0.205307
vt 0.741230 0.205307
vt 0.734555 0.106726
vt 0.724541 0.032791
vt 0.813647 0.052618
vt 0.868992 0.081539
vt 0.913398 0.129584
vt 0.940923 0.205307
vt 0.839504 0.292557
vt 0.813647 0.357995
vt 0.724541 0.377822
vt 0.734555 0.303887
vt 0.913398 0.281029
vt 0.868992 0.329074
vt 0.369475 0.299954
vt 0.368286 0.370940
vt 0.245840 0.351447
vt 0.246397 0.288815
vt 0.246768 0.205307
vt 0.370268 0.205307
vt 0.494283 0.205307
vt 0.492822 0.304944
vt 0.490632 0.379672
vt 0.369475 0.110659
vt 0.246397 0.121798
vt 0.245841 0.059166
vt 0.368286 0.039673
vt 0.490632 0.030941
vt 0.492822 0.105669
vt 0.616755 0.103478
vt 0.619174 0.205307
vt 0.613127 0.027106
vt 0.616755 0.307135
vt 0.613126 0.383507
vt 0.123273 0.268175
vt 0.123047 0.315326
vt 0.054743 0.283353
vt 0.030912 0.249131
vt 0.030973 0.205306
vt 0.123423 0.205306
vt 0.123273 0.142438
vt 0.030912 0.161481
vt 0.054744 0.127260
vt 0.123047 0.095287
vt 0.839504 0.118056
vt 0.856743 0.205307
vt 0.968983 0.205307
vt 0.938030 0.133427
vt 0.876123 0.061548
vt 0.805028 0.030806
vt 0.721203 0.008146
vt 0.734555 0.106726
vt 0.741230 0.205307
vt 0.839504 0.292557
vt 0.805028 0.379807
vt 0.876123 0.349065
vt 0.938030 0.277186
vt 0.734555 0.303887
vt 0.721203 0.402467
vt 0.369475 0.299954
vt 0.367890 0.394602
vt 0.489902 0.404581
vt 0.492822 0.304944
vt 0.494283 0.205307
vt 0.370268 0.205307
vt 0.246768 0.205307
vt 0.246397 0.288815
vt 0.245655 0.372324
vt 0.369475 0.110659
vt 0.492822 0.105669
vt 0.489902 0.006032
vt 0.367890 0.016011
vt 0.245655 0.038289
vt 0.246397 0.121798
vt 0.616755 0.103478
vt 0.619174 0.205307
vt 0.611917 0.001649
vt 0.616755 0.307135
vt 0.611917 0.408964
vt 0.123273 0.268175
vt 0.122972 0.331043
vt 0.123423 0.205306
vt 0.000156 0.205306
vt 0.000125 0.242784
vt 0.000064 0.280261
vt 0.123273 0.142438
vt 0.122972 0.079570
vt 0.000064 0.130352
vt 0.000125 0.167829
vt 0.122972 0.331043
vt 0.030806 0.283587
vt 0.245655 0.372324
vt 0.030806 0.283587
vt 0.000125 0.167829
vt 0.030806 0.127026
vt 0.000156 0.205306
vt 0.030806 0.127026
vt 0.805028 0.030806
vt 0.873826 0.071832
vt 0.721203 0.008146
vt 0.873826 0.071832
vt 0.938030 0.277186
vt 0.873826 0.338781
vt 0.968983 0.205307
vt 0.873826 0.338781
vt 0.805028 0.379807
vt 0.721203 0.402467
vt 0.000125 0.242784
vt 0.122972 0.079570
vt 0.245655 0.038289
vt 0.938030 0.133427
vt 0.611917 0.001649
vt 0.489902 0.006032
vt 0.611917 0.408964
vt 0.489902 0.404581
vt 0.367890 0.394602
vt 0.367890 0.016011
f 1/1/1 2/2/2 3/3/3
f 1/1/1 3/3/3 4/4/4
f 1/1/1 4/4/4 5/5/5
f 1/1/1 5/5/5 6/6/6
f 1/1/1 6/6/6 7/7/7
f 1/1/1 7/7/7 8/8/8
f 1/1/1 8/8/8 9/9/9
f 1/1/1 9/9/9 2/2/2
f 10/10/10 11/11/11 12/12/12
f 10/10/10 12/12/12 13/13/13
f 10/10/10 13/13/13 3/3/3
f 10/10/10 3/3/3 2/2/2
f 10/10/10 2/2/2 9/9/9
f 10/10/10 9/9/9 14/14/14
f 10/10/10 14/14/14 15/15/15
f 10/10/10 15/15/15 11/11/11
f 16/16/16 17/17/17 18/18/18
f 16/16/16 18/18/18 19/19/19
f 16/16/16 19/19/19 20/20/20
f 16/16/16 20/20/20 21/21/21
f 16/16/16 21/21/21 22/22/22
f 16/16/16 22/22/22 23/23/23
f 16/16/16 23/23/23 24/24/24
f 16/16/16 24/24/24 17/17/17
f 25/25/25 21/21/21 20/20/20
f 25/25/25 20/20/20 26/26/26
f 25/25/25 26/26/26 27/27/27
f 25/25/25 27/27/27 28/28/28
f 25/25/25 28/28/28 29/29/29
f 25/25/25 29/29/29 30/30/30
f 25/25/25 30/30/30 22/22/22
f 25/25/25 22/22/22 21/21/21
f 31/31/31 32/32/32 22/22/22
f 31/31/31 22/22/22 30/30/30
f 31/31/31 30/30/30 29/29/29
f 31/31/31 29/29/29 33/33/33
f 31/31/31 33/33/33 5/5/5
f 31/31/31 5/5/5 4/4/4
f 31/31/31 4/4/4 3/3/3
f 31/31/31 3/3/3 32/32/32
f 34/34/34 35/35/35 24/24/24
f 34/34/34 24/24/24 23/23/23
f 34/34/34 23/23/23 22/22/22
f 34/34/34 22/22/22 32/32/32
f 34/34/34 32/32/32 3/3/3
f 34/34/34 3/3/3 13/13/13
f 34/34/34 13/13/13 12/12/12
f 34/34/34 12/12/12 35/35/35
f 36/36/36 37/37/37 38/38/38
f 36/36/36 38/38/38 39/39/39
f 36/36/36 39/39/39 40/40/40
f 36/36/36 40/40/40 41/41/41
f 36/36/36 41/41/41 20/20/20
f 36/36/36 20/20/20 19/19/19
f 36/36/36 19/19/19 18/18/18
f 36/36/36 18/18/18 37/37/37
f 42/42/42 41/41/41 40/40/40
f 42/42/42 40/40/40 43/43/43
f 42/42/42 43/43/43 44/44/44
f 42/42/42 44/44/44 45/45/45
f 42/42/42 45/45/45 27/27/27
f 42/42/42 27/27/27 26/26/26
f 42/42/42 26/26/26 20/20/20
f 42/42/42 20/20/20 41/41/41
f 46/46/46 47/47/47 48/48/48
f 46/46/46 48/48/48 49/49/49
f 46/46/46 49/49/49 50/50/50
f 46/46/46 50/50/50 51/51/51
f 46/46/46 51/51/51 52/52/52
f 46/46/46 52/52/52 53/53/53
f 46/46/46 53/53/53 54/54/54
f 46/46/46 54/54/54 47/47/47
f 55/55/55 56/56/56 57/57/57
f 55/55/55 57/57/57 58/58/58
f 55/55/55 58/58/58 48/48/48
f 55/55/55 48/48/48 47/47/47
f 55/55/55 47/47/47 54/54/54
f 55/55/55 54/54/54 59/59/59
f 55/55/55 59/59/59 60/60/60
f 55/55/55 60/60/60 56/56/56
f 61/61/61 62/62/62 63/63/63
f 61/61/61 63/63/63 64/64/64
f 61/61/61 64/64/64 65/65/65
f 61/61/61 65/65/65 66/66/66
f 61/61/61 66/66/66 67/67/67
f 61/61/61 67/67/67 68/68/68
f 61/61/61 68/68/68 69/69/69
f 61/61/61 69/69/69 62/62/62
f 70/70/70 66/66/66 65/65/65
f 70/70/70 65/65/65 71/71/71
f 70/70/70 71/71/71 72/72/72
f 70/70/70 72/72/72 73/73/73
f 70/70/70 73/73/73 74/74/74
f 70/70/70 74/74/74 75/75/75
f 70/70/70 75/75/75 67/67/67
f 70/70/70 67/67/67 66/66/66
f 76/76/76 77/77/77 54/54/54
f 76/76/76 54/54/54 53/53/53
f 76/76/76 53/53/53 52/52/52
f 76/76/76 52/52/52 78/78/78
f 76/76/76 78/78/78 72/72/72
f 76/76/76 72/72/72 71/71/71
f 76/76/76 71/71/71 65/65/65
f 76/76/76 65/65/65 77/77/77
f 79/79/79 80/80/80 60/60/60
f 79/79/79 60/60/60 59/59/59
f 79/79/79 59/59/59 54/54/54
f 79/79/79 54/54/54 77/77/77
f 79/79/79 77/77/77 65/65/65
f 79/79/79 65/65/65 64/64/64
f 79/79/79 64/64/64 63/63/63
f 79/79/79 63/63/63 80/80/80
f 81/81/81 82/82/82 69/69/69
f 81/81/81 69/69/69 68/68/68
f 81/81/81 68/68/68 67/67/67
f 81/81/81 67/67/67 83/83/83
f 81/81/81 83/83/83 84/84/84
f 81/81/81 84/84/84 85/85/85
f 81/81/81 85/85/85 86/86/86
f 81/81/81 86/86/86 82/82/82
f 87/87/87 83/83/83 67/67/67
f 87/87/87 67/67/67 75/75/75
f 87/87/87 75/75/75 74/74/74
f 87/87/87 74/74/74 88/88/88
f 87/87/87 88/88/88 89/89/89
f 87/87/87 89/89/89 90/90/90
f 87/87/87 90/90/90 84/84/84
f 87/87/87 84/84/84 83/83/83
f 91/91/91 92/92/92 38/38/38
f 91/91/91 38/38/38 37/37/37
f 91/91/91 37/37/37 18/18/18
f 91/91/91 18/18/18 93/93/93
f 91/91/91 93/93/93 69/69/69
f 91/91/91 69/69/69 82/82/82
f 91/91/91 82/82/82 94/94/94
f 91/91/91 94/94/94 92/92/92
f 95/95/95 96/96/96 44/44/44
f 95/95/95 44/44/44 43/43/43
f 95/95/95 43/43/43 40/40/40
f 95/95/95 40/40/40 97/97/97
f 95/95/95 97/97/97 84/84/84
f 95/95/95 84/84/84 90/90/90
f 95/95/95 90/90/90 98/98/98
f 95/95/95 98/98/98 96/96/96
f 99/99/99 100/100/100 7/7/7
f 99/99/99 7/7/7 6/6/6
f 99/99/99 6/6/6 5/5/5
f 99/99/99 5/5/5 101/101/101
f 99/99/99 101/101/101 52/52/52
f 99/99/99 52/52/52 51/51/51
f 99/99/99 51/51/51 102/102/102
f 99/99/99 102/102/102 100/100/100
f 103/103/103 104/104/104 15/15/15
f 103/103/103 15/15/15 14/14/14
f 103/103/103 14/14/14 9/9/9
f 103/103/103 9/9/9 105/105/105
f 103/103/103 105/105/105 48/48/48
f 103/103/103 48/48/48 58/58/58
f 103/103/103 58/58/58 106/106/106
f 103/103/103 106/106/106 104/104/104
f 107/107/107 108/108/108 12/12/12
f 107/107/107 12/12/12 11/11/11
f 107/107/107 11/11/11 15/15/15
f 107/107/107 15/15/15 104/104/104
f 107/107/107 104/104/104 106/106/106
f 107/107/107 106/106/106 56/56/56
f 107/107/107 56/56/56 60/60/60
f 107/107/107 60/60/60 108/108/108
f 109/109/109 97/97/97 40/40/40
f 109/109/109 40/40/40 39/39/39
f 109/109/109 39/39/39 38/38/38
f 109/109/109 38/38/38 92/92/92
f 109/109/109 92/92/92 94/94/94
f 109/109/109 94/94/94 85/85/85
f 109/109/109 85/85/85 84/84/84
f 109/109/109 84/84/84 97/97/97
f 110/110/110 111/111/111 27/27/27
f 110/110/110 27/27/27 45/45/45
f 110/110/110 45/45/45 44/44/44
f 110/110/110 44/44/44 96/96/96
f 110/110/110 96/96/96 98/98/98
f 110/110/110 98/98/98 88/88/88
f 110/110/110 88/88/88 74/74/74
f 110/110/110 74/74/74 111/111/111
f 112/112/112 105/105/105 9/9/9
f 112/112/112 9/9/9 8/8/8
f 112/112/112 8/8/8 7/7/7
f 112/112/112 7/7/7 100/100/100
f 112/112/112 100/100/100 102/102/102
f 112/112/112 102/102/102 49/49/49
f 112/112/112 49/49/49 48/48/48
f 112/112/112 48/48/48 105/105/105
f 113/113/113 101/101/101 5/5/5
f 113/113/113 5/5/5 33/33/33
f 113/113/113 33/33/33 29/29/29
f 113/113/113 29/29/29 114/114/114
f 113/113/113 114/114/114 72/72/72
f 113/113/113 72/72/72 78/78/78
f 113/113/113 78/78/78 52/52/52
f 113/113/113 52/52/52 101/101/101
f 115/115/115 116/116/116 24/24/24
f 115/115/115 24/24/24 35/35/35
f 115/115/115 35/35/35 12/12/12
f 115/115/115 12/12/12 108/108/108
f 115/115/115 108/108/108 60/60/60
f 115/115/115 60/60/60 80/80/80
f 115/115/115 80/80/80 63/63/63
f 115/115/115 63/63/63 116/116/116
f 117/117/117 93/93/93 18/18/18
f 117/117/117 18/18/18 17/17/17
f 117/117/117 17/17/17 24/24/24
f 117/117/117 24/24/24 116/116/116
f 117/117/117 116/116/116 63/63/63
f 117/117/117 63/63/63 62/62/62
f 117/117/117 62/62/62 69/69/69
f 117/117/117 69/69/69 93/93/93
f 118/118/118 114/114/114 29/29/29
f 118/118/118 29/29/29 28/28/28
f 118/118/118 28/28/28 27/27/27
f 118/118/118 27/27/27 111/111/111
f 118/118/118 111/111/111 74/74/74
f 118/118/118 74/74/74 73/73/73
f 118/118/118 73/73/73 72/72/72
f 118/118/118 72/72/72 114/114/114
