v -2.340375 0.707396 -1.093224
v -2.339075 0.708177 -1.095868
v -2.342808 0.707124 -1.097061
v -2.343844 0.706276 -1.093948
v -2.344898 0.705849 -1.091580
v -2.341885 0.706964 -1.091283
v -2.339784 0.707557 -1.091684
v -2.337842 0.708083 -1.092857
v -2.336293 0.708822 -1.095031
v -2.339234 0.709469 -1.098624
v -2.339882 0.710599 -1.100753
v -2.342623 0.709980 -1.102338
v -2.342546 0.708632 -1.100085
v -2.336853 0.709878 -1.097531
v -2.338162 0.710501 -1.099353
v -2.353305 0.703357 -1.104311
v -2.353039 0.704472 -1.106523
v -2.356431 0.701889 -1.107506
v -2.356652 0.700891 -1.105551
v -2.357063 0.699695 -1.102927
v -2.353784 0.702018 -1.101342
v -2.350340 0.704095 -1.099816
v -2.349854 0.705522 -1.102916
v -2.349602 0.706726 -1.105220
v -2.354576 0.701049 -1.098297
v -2.357776 0.698849 -1.100233
v -2.358402 0.698311 -1.098187
v -2.355267 0.700426 -1.095986
v -2.351932 0.702494 -1.094198
v -2.351184 0.703107 -1.096625
v -2.347527 0.704847 -1.095128
v -2.346622 0.705780 -1.098383
v -2.348361 0.704331 -1.092640
v -2.346177 0.707298 -1.101511
v -2.345996 0.708625 -1.103826
v -2.360018 0.698207 -1.106489
v -2.359900 0.699006 -1.107940
v -2.361818 0.697147 -1.107828
v -2.362523 0.696084 -1.107089
v -2.362662 0.695392 -1.105763
v -2.360289 0.697275 -1.104538
v -2.360857 0.696683 -1.102520
v -2.363098 0.695040 -1.104370
v -2.362852 0.695268 -1.102934
v -2.361371 0.696334 -1.100981
v -2.340265 0.707100 -1.093266
v -2.338956 0.707894 -1.095951
v -2.336208 0.708609 -1.095095
v -2.337764 0.707860 -1.092887
v -2.339727 0.707390 -1.091698
v -2.341807 0.706737 -1.091293
v -2.344810 0.705627 -1.091593
v -2.343721 0.705984 -1.093990
v -2.342677 0.706844 -1.097141
v -2.339106 0.709204 -1.098747
v -2.339783 0.710412 -1.100864
v -2.338092 0.710359 -1.099432
v -2.336762 0.709679 -1.097626
v -2.342408 0.708368 -1.100200
v -2.342516 0.709792 -1.102441
v -2.353117 0.703113 -1.104396
v -2.352896 0.704294 -1.106600
v -2.349469 0.706543 -1.105303
v -2.349681 0.705270 -1.103009
v -2.350172 0.703831 -1.099882
v -2.353601 0.701762 -1.101402
v -2.356870 0.699446 -1.102982
v -2.356454 0.700652 -1.105632
v -2.356281 0.701717 -1.107580
v -2.354399 0.700784 -1.098331
v -2.351023 0.702833 -1.096663
v -2.351815 0.702285 -1.094212
v -2.355138 0.700224 -1.095998
v -2.358265 0.698113 -1.098195
v -2.357589 0.698590 -1.100262
v -2.347385 0.704565 -1.095170
v -2.346473 0.705508 -1.098457
v -2.348259 0.704114 -1.092655
v -2.346022 0.707039 -1.101615
v -2.345877 0.708439 -1.103919
v -2.359815 0.697972 -1.106570
v -2.359746 0.698836 -1.108014
v -2.360091 0.697028 -1.104592
v -2.362514 0.695208 -1.105803
v -2.362371 0.695909 -1.107151
v -2.361704 0.697020 -1.107879
v -2.360666 0.696427 -1.102545
v -2.361233 0.696137 -1.100985
v -2.362748 0.695124 -1.102941
v -2.362956 0.694848 -1.104387
v -2.359792 0.699198 -1.108460
v -2.362442 0.696666 -1.108150
v -2.356290 0.702147 -1.108194
v -2.361704 0.697020 -1.107879
v -2.363782 0.694407 -1.104994
v -2.363478 0.694784 -1.103247
v -2.363388 0.694683 -1.106189
v -2.362748 0.695124 -1.102941
v -2.342355 0.706718 -1.090636
v -2.339711 0.707538 -1.091301
v -2.345211 0.705607 -1.090792
v -2.339727 0.707390 -1.091698
v -2.336020 0.709926 -1.097210
v -2.337956 0.710723 -1.099599
v -2.335328 0.708942 -1.094781
v -2.338092 0.710359 -1.099432
v -2.340054 0.710895 -1.101516
v -2.342600 0.710348 -1.103139
v -2.363291 0.695299 -1.107317
v -2.361482 0.696129 -1.100466
v -2.358550 0.698043 -1.097505
v -2.336964 0.708213 -1.092748
v -2.348595 0.704062 -1.091814
v -2.352130 0.702196 -1.093392
v -2.345882 0.708987 -1.104642
v -2.349458 0.707048 -1.106028
v -2.352887 0.704765 -1.107298
v -2.355441 0.700128 -1.095218
vn -0.294000 0.953400 0.067400
vn -0.324400 0.904000 0.278500
vn -0.379200 0.887800 0.260700
vn -0.354600 0.932200 0.071600
vn -0.379500 0.922300 0.072700
vn -0.296500 0.952100 0.075100
vn -0.236500 0.968600 0.077200
vn -0.217700 0.967000 0.132100
vn -0.236500 0.922800 0.304300
vn -0.377800 0.801100 0.464100
vn -0.377300 0.805300 0.457300
vn -0.450800 0.792800 0.410100
vn -0.429500 0.796100 0.426200
vn -0.286200 0.842700 0.456000
vn -0.323300 0.811000 0.487700
vn -0.611900 0.741900 0.274100
vn -0.613300 0.753200 0.237700
vn -0.637600 0.737300 0.223200
vn -0.638500 0.721000 0.269100
vn -0.627800 0.761800 0.159700
vn -0.595100 0.784300 0.175300
vn -0.526200 0.825100 0.205500
vn -0.552400 0.772600 0.312900
vn -0.563000 0.776600 0.282700
vn -0.569800 0.818300 0.075000
vn -0.593400 0.803000 0.055500
vn -0.611000 0.785600 0.097400
vn -0.585500 0.803600 0.106400
vn -0.526200 0.843300 0.108900
vn -0.505200 0.858300 0.089600
vn -0.424400 0.901100 0.088400
vn -0.445700 0.863200 0.237100
vn -0.451600 0.887100 0.095400
vn -0.484000 0.793000 0.369900
vn -0.504700 0.790700 0.346500
vn -0.652200 0.701700 0.286700
vn -0.655200 0.717500 0.236400
vn -0.671700 0.694200 0.258700
vn -0.695700 0.659400 0.284900
vn -0.683600 0.717900 0.131000
vn -0.642800 0.750700 0.152300
vn -0.597100 0.801700 0.026400
vn -0.632300 0.774500 -0.015200
vn -0.624100 0.780600 0.033500
vn -0.620000 0.781500 0.069400
vn 0.308100 -0.950700 -0.033800
vn 0.339600 -0.899800 -0.273700
vn 0.397400 -0.881600 -0.254400
vn 0.344400 -0.936400 0.067300
vn 0.331100 -0.924600 0.187900
vn 0.330600 -0.929800 0.161500
vn 0.354500 -0.930200 0.094900
vn 0.351900 -0.934300 -0.056600
vn 0.379100 -0.887800 -0.260700
vn 0.402400 -0.779400 -0.480200
vn 0.489700 -0.640800 -0.591100
vn 0.498900 -0.620000 -0.605500
vn 0.470000 -0.708400 -0.526500
vn 0.432700 -0.787600 -0.438600
vn 0.488200 -0.687300 -0.537700
vn 0.612900 -0.735400 -0.289000
vn 0.614600 -0.685400 -0.390400
vn 0.572500 -0.704700 -0.419000
vn 0.553900 -0.765900 -0.326400
vn 0.526300 -0.825100 -0.205500
vn 0.595200 -0.784200 -0.175200
vn 0.627900 -0.761700 -0.159700
vn 0.638000 -0.714400 -0.287100
vn 0.617400 -0.670900 -0.410600
vn 0.564600 -0.823100 -0.060300
vn 0.500900 -0.862200 -0.075600
vn 0.476900 -0.878300 0.033100
vn 0.523400 -0.851100 0.041100
vn 0.516700 -0.853600 0.065200
vn 0.585700 -0.809600 -0.039200
vn 0.420700 -0.904100 -0.074500
vn 0.445700 -0.863200 -0.237100
vn 0.409600 -0.910900 0.049800
vn 0.485900 -0.785800 -0.382600
vn 0.520600 -0.709300 -0.475100
vn 0.639500 -0.700600 -0.316600
vn 0.590100 -0.657600 -0.468300
vn 0.633700 -0.757500 -0.156800
vn 0.592700 -0.785900 -0.176300
vn 0.588000 -0.700000 -0.405200
vn 0.567600 -0.651100 -0.503800
vn 0.574600 -0.818400 -0.009800
vn 0.469200 -0.877000 0.103300
vn 0.435000 -0.891900 0.123400
vn 0.495500 -0.868000 0.032300
vn -0.230800 0.272400 -0.934000
vn -0.546800 0.024900 -0.836900
vn -0.089500 0.339500 -0.936300
vn 0.567600 -0.651100 -0.503800
vn -0.799100 -0.585600 -0.135800
vn -0.806100 -0.445800 0.389200
vn -0.669900 -0.634700 -0.385200
vn 0.435000 -0.891900 0.123400
vn -0.001200 0.067400 0.997700
vn 0.299500 0.169600 0.938900
vn -0.180300 -0.043200 0.982600
vn 0.331100 -0.924600 0.187900
vn 0.869400 0.461600 -0.176000
vn 0.587100 0.691700 -0.420600
vn 0.946100 0.179900 0.269400
vn 0.498900 -0.620000 -0.605500
vn 0.343600 0.693600 -0.633100
vn 0.187700 0.625000 -0.757700
vn -0.707700 -0.419600 -0.568400
vn -0.582100 -0.365100 0.726600
vn -0.461300 -0.335400 0.821400
vn 0.678700 0.115600 0.725200
vn -0.284400 -0.142100 0.948100
vn -0.331800 -0.209600 0.919700
vn 0.092600 0.542400 -0.835000
vn 0.047700 0.479700 -0.876100
vn 0.003800 0.414100 -0.910200
vn -0.375800 -0.275000 0.884900
vt 0.839504 0.118056
vt 0.856743 0.205307
vt 0.741230 0.205307
vt 0.734555 0.106726
vt 0.724541 0.032791
vt 0.813647 0.052618
vt 0.868992 0.081539
vt 0.913398 0.129584
vt 0.940923 0.205307
vt 0.839504 0.292557
vt 0.813647 0.357995
vt 0.724541 0.377822
vt 0.734555 0.303887
vt 0.913398 0.281029
vt 0.868992 0.329074
vt 0.369475 0.299954
vt 0.368286 0.370940
vt 0.245840 0.351447
vt 0.246397 0.288815
vt 0.246768 0.205307
vt 0.370268 0.205307
vt 0.494283 0.205307
vt 0.492822 0.304944
vt 0.490632 0.379672
vt 0.369475 0.110659
vt 0.246397 0.121798
vt 0.245841 0.059166
vt 0.368286 0.039673
vt 0.490632 0.030941
vt 0.492822 0.105669
vt 0.616755 0.103478
vt 0.619174 0.205307
vt 0.613127 0.027106
vt 0.616755 0.307135
vt 0.613126 0.383507
vt 0.123273 0.268175
vt 0.123047 0.315326
vt 0.054743 0.283353
vt 0.030912 0.249131
vt 0.030973 0.205306
vt 0.123423 0.205306
vt 0.123273 0.142438
vt 0.030912 0.161481
vt 0.054744 0.127260
vt 0.123047 0.095287
vt 0.839504 0.118056
vt 0.856743 0.205307
vt 0.968983 0.205307
vt 0.938030 0.133427
vt 0.876123 0.061548
vt 0.805028 0.030806
vt 0.721203 0.008146
vt 0.734555 0.106726
vt 0.741230 0.205307
vt 0.839504 0.292557
vt 0.805028 0.379807
vt 0.876123 0.349065
vt 0.938030 0.277186
vt 0.734555 0.303887
vt 0.721203 0.402467
vt 0.369475 0.299954
vt 0.367890 0.394602
vt 0.489902 0.404581
vt 0.492822 0.304944
vt 0.494283 0.205307
vt 0.370268 0.205307
vt 0.246768 0.205307
vt 0.246397 0.288815
vt 0.245655 0.372324
vt 0.369475 0.110659
vt 0.492822 0.105669
vt 0.489902 0.006032
vt 0.367890 0.016011
vt 0.245655 0.038289
vt 0.246397 0.121798
vt 0.616755 0.103478
vt 0.619174 0.205307
vt 0.611917 0.001649
vt 0.616755 0.307135
vt 0.611917 0.408964
vt 0.123273 0.268175
vt 0.122972 0.331043
vt 0.123423 0.205306
vt 0.000156 0.205306
vt 0.000125 0.242784
vt 0.000064 0.280261
vt 0.123273 0.142438
vt 0.122972 0.079570
vt 0.000064 0.130352
vt 0.000125 0.167829
vt 0.122972 0.331043
vt 0.030806 0.283587
vt 0.245655 0.372324
vt 0.030806 0.283587
vt 0.000125 0.167829
vt 0.030806 0.127026
vt 0.000156 0.205306
vt 0.030806 0.127026
vt 0.805028 0.030806
vt 0.873826 0.071832
vt 0.721203 0.008146
vt 0.873826 0.071832
vt 0.938030 0.277186
vt 0.873826 0.338781
vt 0.968983 0.205307
vt 0.873826 0.338781
vt 0.805028 0.379807
vt 0.721203 0.402467
vt 0.000125 0.242784
vt 0.122972 0.079570
vt 0.245655 0.038289
vt 0.938030 0.133427
vt 0.611917 0.001649
vt 0.489902 0.006032
vt 0.611917 0.408964
vt 0.489902 0.404581
vt 0.367890 0.394602
vt 0.367890 0.016011
f 1/1/1 2/2/2 3/3/3
f 1/1/1 3/3/3 4/4/4
f 1/1/1 4/4/4 5/5/5
f 1/1/1 5/5/5 6/6/6
f 1/1/1 6/6/6 7/7/7
f 1/1/1 7/7/7 8/8/8
f 1/1/1 8/8/8 9/9/9
f 1/1/1 9/9/9 2/2/2
f 10/10/10 11/11/11 12/12/12
f 10/10/10 12/12/12 13/13/13
f 10/10/10 13/13/13 3/3/3
f 10/10/10 3/3/3 2/2/2
f 10/10/10 2/2/2 9/9/9
f 10/10/10 9/9/9 14/14/14
f 10/10/10 14/14/14 15/15/15
f 10/10/10 15/15/15 11/11/11
f 16/16/16 17/17/17 18/18/18
f 16/16/16 18/18/18 19/19/19
f 16/16/16 19/19/19 20/20/20
f 16/16/16 20/20/20 21/21/21
f 16/16/16 21/21/21 22/22/22
f 16/16/16 22/22/22 23/23/23
f 16/16/16 23/23/23 24/24/24
f 16/16/16 24/24/24 17/17/17
f 25/25/25 21/21/21 20/20/20
f 25/25/25 20/20/20 26/26/26
f 25/25/25 26/26/26 27/27/27
f 25/25/25 27/27/27 28/28/28
f 25/25/25 28/28/28 29/29/29
f 25/25/25 29/29/29 30/30/30
f 25/25/25 30/30/30 22/22/22
f 25/25/25 22/22/22 21/21/21
f 31/31/31 32/32/32 22/22/22
f 31/31/31 22/22/22 30/30/30
f 31/31/31 30/30/30 29/29/29
f 31/31/31 29/29/29 33/33/33
f 31/31/31 33/33/33 5/5/5
f 31/31/31 5/5/5 4/4/4
f 31/31/31 4/4/4 3/3/3
f 31/31/31 3/3/3 32/32/32
f 34/34/34 35/35/35 24/24/24
f 34/34/34 24/24/24 23/23/23
f 34/34/34 23/23/23 22/22/22
f 34/34/34 22/22/22 32/32/32
f 34/34/34 32/32/32 3/3/3
f 34/34/34 3/3/3 13/13/13
f 34/34/34 13/13/13 12/12/12
f 34/34/34 12/12/12 35/35/35
f 36/36/36 37/37/37 38/38/38
f 36/36/36 38/38/38 39/39/39
f 36/36/36 39/39/39 40/40/40
f 36/36/36 40/40/40 41/41/41
f 36/36/36 41/41/41 20/20/20
f 36/36/36 20/20/20 19/19/19
f 36/36/36 19/19/19 18/18/18
f 36/36/36 18/18/18 37/37/37
f 42/42/42 41/41/41 40/40/40
f 42/42/42 40/40/40 43/43/43
f 42/42/42 43/43/43 44/44/44
f 42/42/42 44/44/44 45/45/45
f 42/42/42 45/45/45 27/27/27
f 42/42/42 27/27/27 26/26/26
f 42/42/42 26/26/26 20/20/20
f 42/42/42 20/20/20 41/41/41
f 46/46/46 47/47/47 48/48/48
f 46/46/46 48/48/48 49/49/49
f 46/46/46 49/49/49 50/50/50
f 46/46/46 50/50/50 51/51/51
f 46/46/46 51/51/51 52/52/52
f 46/46/46 52/52/52 53/53/53
f 46/46/46 53/53/53 54/54/54
f 46/46/46 54/54/54 47/47/47
f 55/55/55 56/56/56 57/57/57
f 55/55/55 57/57/57 58/58/58
f 55/55/55 58/58/58 48/48/48
f 55/55/55 48/48/48 47/47/47
f 55/55/55 47/47/47 54/54/54
f 55/55/55 54/54/54 59/59/59
f 55/55/55 59/59/59 60/60/60
f 55/55/55 60/60/60 56/56/56
f 61/61/61 62/62/62 63/63/63
f 61/61/61 63/63/63 64/64/64
f 61/61/61 64/64/64 65/65/65
f 61/61/61 65/65/65 66/66/66
f 61/61/61 66/66/66 67/67/67
f 61/61/61 67/67/67 68/68/68
f 61/61/61 68/68/68 69/69/69
f 61/61/61 69/69/69 62/62/62
f 70/70/70 66/66/66 65/65/65
f 70/70/70 65/65/65 71/71/71
f 70/70/70 71/71/71 72/72/72
f 70/70/70 72/72/72 73/73/73
f 70/70/70 73/73/73 74/74/74
f 70/70/70 74/74/74 75/75/75
f 70/70/70 75/75/75 67/67/67
f 70/70/70 67/67/67 66/66/66
f 76/76/76 77/77/77 54/54/54
f 76/76/76 54/54/54 53/53/53
f 76/76/76 53/53/53 52/52/52
f 76/76/76 52/52/52 78/78/78
f 76/76/76 78/78/78 72/72/72
f 76/76/76 72/72/72 71/71/71
f 76/76/76 71/71/71 65/65/65
f 76/76/76 65/65/65 77/77/77
f 79/79/79 80/80/80 60/60/60
f 79/79/79 60/60/60 59/59/59
f 79/79/79 59/59/59 54/54/54
f 79/79/79 54/54/54 77/77/77
f 79/79/79 77/77/77 65/65/65
f 79/79/79 65/65/65 64/64/64
f 79/79/79 64/64/64 63/63/63
f 79/79/79 63/63/63 80/80/80
f 81/81/81 82/82/82 69/69/69
f 81/81/81 69/69/69 68/68/68
f 81/81/81 68/68/68 67/67/67
f 81/81/81 67/67/67 83/83/83
f 81/81/81 83/83/83 84/84/84
f 81/81/81 84/84/84 85/85/85
f 81/81/81 85/85/85 86/86/86
f 81/81/81 86/86/86 82/82/82
f 87/87/87 83/83/83 67/67/67
f 87/87/87 67/67/67 75/75/75
f 87/87/87 75/75/75 74/74/74
f 87/87/87 74/74/74 88/88/88
f 87/87/87 88/88/88 89/89/89
f 87/87/87 89/89/89 90/90/90
f 87/87/87 90/90/90 84/84/84
f 87/87/87 84/84/84 83/83/83
f 91/91/91 92/92/92 38/38/38
f 91/91/91 38/38/38 37/37/37
f 91/91/91 37/37/37 18/18/18
f 91/91/91 18/18/18 93/93/93
f 91/91/91 93/93/93 69/69/69
f 91/91/91 69/69/69 82/82/82
f 91/91/91 82/82/82 94/94/94
f 91/91/91 94/94/94 92/92/92
f 95/95/95 96/96/96 44/44/44
f 95/95/95 44/44/44 43/43/43
f 95/95/95 43/43/43 40/40/40
f 95/95/95 40/40/40 97/97/97
f 95/95/95 97/97/97 84/84/84
f 95/95/95 84/84/84 90/90/90
f 95/95/95 90/90/90 98/98/98
f 95/95/95 98/98/98 96/96/96
f 99/99/99 100/100/100 7/7/7
f 99/99/99 7/7/7 6/6/6
f 99/99/99 6/6/6 5/5/5
f 99/99/99 5/5/5 101/101/101
f 99/99/99 101/101/101 52/52/52
f 99/99/99 52/52/52 51/51/51
f 99/99/99 51/51/51 102/102/102
f 99/99/99 102/102/102 100/100/100
f 103/103/103 104/104/104 15/15/15
f 103/103/103 15/15/15 14/14/14
f 103/103/103 14/14/14 9/9/9
f 103/103/103 9/9/9 105/105/105
f 103/103/103 105/105/105 48/48/48
f 103/103/103 48/48/48 58/58/58
f 103/103/103 58/58/58 106/106/106
f 103/103/103 106/106/106 104/104/104
f 107/107/107 108/108/108 12/12/12
f 107/107/107 12/12/12 11/11/11
f 107/107/107 11/11/11 15/15/15
f 107/107/107 15/15/15 104/104/104
f 107/107/107 104/104/104 106/106/106
f 107/107/107 106/106/106 56/56/56
f 107/107/107 56/56/56 60/60/60
f 107/107/107 60/60/60 108/108/108
f 109/109/109 97/97/97 40/40/40
f 109/109/109 40/40/40 39/39/39
f 109/109/109 39/39/39 38/38/38
f 109/109/109 38/38/38 92/92/92
f 109/109/109 92/92/92 94/94/94
f 109/109/109 94/94/94 85/85/85
f 109/109/109 85/85/85 84/84/84
f 109/109/109 84/84/84 97/97/97
f 110/110/110 111/111/111 27/27/27
f 110/110/110 27/27/27 45/45/45
f 110/110/110 45/45/45 44/44/44
f 110/110/110 44/44/44 96/96/96
f 110/110/110 96/96/96 98/98/98
f 110/110/110 98/98/98 88/88/88
f 110/110/110 88/88/88 74/74/74
f 110/110/110 74/74/74 111/111/111
f 112/112/112 105/105/105 9/9/9
f 112/112/112 9/9/9 8/8/8
f 112/112/112 8/8/8 7/7/7
f 112/112/112 7/7/7 100/100/100
f 112/112/112 100/100/100 102/102/102
f 112/112/112 102/102/102 49/49/49
f 112/112/112 49/49/49 48/48/48
f 112/112/112 48/48/48 105/105/105
f 113/113/113 101/101/101 5/5/5
f 113/113/113 5/5/5 33/33/33
f 113/113/113 33/33/33 29/29/29
f 113/113/113 29/29/29 114/114/114
f 113/113/113 114/114/114 72/72/72
f 113/113/113 72/72/72 78/78/78
f 113/113/113 78/78/78 52/52/52
f 113/113/113 52/52/52 101/101/101
f 115/115/115 116/116/116 24/24/24
f 115/115/115 24/24/24 35/35/35
f 115/115/115 35/35/35 12/12/12
f 115/115/115 12/12/12 108/108/108
f 115/115/115 108/108/108 60/60/60
f 115/115/115 60/60/60 80/80/80
f 115/115/115 80/80/80 63/63/63
f 115/115/115 63/63/63 116/116/116
f 117/117/117 93/93/93 18/18/18
f 117/117/117 18/18/18 17/17/17
f 117/117/117 17/17/17 24/24/24
f 117/117/117 24/24/24 116/116/116
f 117/117/117 116/116/116 63/63/63
f 117/117/117 63/63/63 62/62/62
f 117/117/117 62/62/62 69/69/69
f 117/117/117 69/69/69 93/93/93
f 118/118/118 114/114/114 29/29/29
f 118/118/118 29/29/29 28/28/28
f 118/118/118 28/28/28 27/27/27
f 118/118/118 27/27/27 111/111/111
f 118/118/118 111/111/111 74/74/74
f 118/118/118 74/74/74 73/73/73
f 118/118/118 73/73/73 72/72/72
f 118/118/118 72/72/72 114/114/114
