v -2.345771 0.700195 -1.149911
v -2.346254 0.700566 -1.152202
v -2.348838 0.699030 -1.151240
v -2.347979 0.698721 -1.148767
v -2.347536 0.698609 -1.146776
v -2.345788 0.699944 -1.147985
v -2.344788 0.700643 -1.149207
v -2.344198 0.701149 -1.150844
v -2.344321 0.701599 -1.152947
v -2.347794 0.701081 -1.153930
v -2.349336 0.701498 -1.155034
v -2.351566 0.700375 -1.154783
v -2.350278 0.699728 -1.153335
v -2.345949 0.701916 -1.154323
v -2.347661 0.701902 -1.154916
v -2.357584 0.693506 -1.150971
v -2.358593 0.694037 -1.152538
v -2.360554 0.691442 -1.151533
v -2.359649 0.690965 -1.150155
v -2.358538 0.690415 -1.148259
v -2.356337 0.692892 -1.148820
v -2.354008 0.695201 -1.149483
v -2.355324 0.695861 -1.151723
v -2.356400 0.696443 -1.153346
v -2.355331 0.692519 -1.146495
v -2.357657 0.690092 -1.146196
v -2.357062 0.689912 -1.144597
v -2.354646 0.692307 -1.144694
v -2.352271 0.694633 -1.145142
v -2.352968 0.694829 -1.147041
v -2.350447 0.696914 -1.147804
v -2.351466 0.697244 -1.150312
v -2.349799 0.696787 -1.145832
v -2.352839 0.697962 -1.152555
v -2.353989 0.698623 -1.154158
v -2.361552 0.688305 -1.149130
v -2.362264 0.688695 -1.150135
v -2.363004 0.687034 -1.149128
v -2.362901 0.686247 -1.148300
v -2.362278 0.685914 -1.147369
v -2.360695 0.687870 -1.147734
v -2.360065 0.687654 -1.146176
v -2.361882 0.685801 -1.146275
v -2.361171 0.686230 -1.145485
v -2.359657 0.687553 -1.144955
v -2.345658 0.699984 -1.149975
v -2.346156 0.700359 -1.152297
v -2.344250 0.701442 -1.153018
v -2.344116 0.700989 -1.150889
v -2.344723 0.700524 -1.149234
v -2.345696 0.699784 -1.148017
v -2.347440 0.698454 -1.146815
v -2.347859 0.698515 -1.148838
v -2.348732 0.698828 -1.151338
v -2.347711 0.700884 -1.154055
v -2.349282 0.701356 -1.155142
v -2.347621 0.701794 -1.154991
v -2.345891 0.701766 -1.154416
v -2.350186 0.699535 -1.153460
v -2.351504 0.700235 -1.154890
v -2.357452 0.693338 -1.151100
v -2.358500 0.693914 -1.152643
v -2.356315 0.696313 -1.153451
v -2.355203 0.695684 -1.151850
v -2.353876 0.695019 -1.149589
v -2.356195 0.692719 -1.148930
v -2.358389 0.690250 -1.148370
v -2.359511 0.690804 -1.150285
v -2.360455 0.691324 -1.151641
v -2.355180 0.692343 -1.146585
v -2.352826 0.694643 -1.147126
v -2.352160 0.694492 -1.145195
v -2.354528 0.692173 -1.144752
v -2.356939 0.689783 -1.144655
v -2.357499 0.689922 -1.146288
v -2.350317 0.696718 -1.147883
v -2.351347 0.697052 -1.150414
v -2.349696 0.696638 -1.145878
v -2.352732 0.697776 -1.152681
v -2.353915 0.698487 -1.154263
v -2.361412 0.688148 -1.149262
v -2.362164 0.688580 -1.150244
v -2.360544 0.687707 -1.147846
v -2.362164 0.685793 -1.147453
v -2.362796 0.686129 -1.148400
v -2.362929 0.686948 -1.149206
v -2.359904 0.687487 -1.146267
v -2.359531 0.687426 -1.145012
v -2.361079 0.686137 -1.145530
v -2.361760 0.685676 -1.146343
v -2.362458 0.688775 -1.150520
v -2.363423 0.686530 -1.149032
v -2.360812 0.691549 -1.152043
v -2.362929 0.686948 -1.149206
v -2.362433 0.685127 -1.146338
v -2.361587 0.685726 -1.145383
v -2.362755 0.685208 -1.147284
v -2.361079 0.686137 -1.145530
v -2.345752 0.699789 -1.147354
v -2.344577 0.700699 -1.148996
v -2.347344 0.698503 -1.146126
v -2.344723 0.700524 -1.149234
v -2.345309 0.702127 -1.154495
v -2.347685 0.702061 -1.155173
v -2.343646 0.701873 -1.153227
v -2.347621 0.701794 -1.154991
v -2.349828 0.701575 -1.155453
v -2.351969 0.700530 -1.155316
v -2.363304 0.685509 -1.148068
v -2.359464 0.687463 -1.144571
v -2.356808 0.689795 -1.144087
v -2.343638 0.701395 -1.151174
v -2.349536 0.696678 -1.145192
v -2.351989 0.694505 -1.144530
v -2.354342 0.698784 -1.154741
v -2.356722 0.696580 -1.153936
v -2.358890 0.694159 -1.153109
v -2.354365 0.692176 -1.144118
vn -0.457000 0.872000 0.175200
vn -0.352700 0.860600 0.367400
vn -0.401500 0.830900 0.385300
vn -0.497000 0.840700 0.214700
vn -0.513400 0.826600 0.230500
vn -0.454500 0.871800 0.183000
vn -0.410200 0.899700 0.149100
vn -0.365000 0.912800 0.183200
vn -0.274100 0.900800 0.336600
vn -0.266000 0.788300 0.554800
vn -0.270500 0.791100 0.548600
vn -0.350900 0.755400 0.553400
vn -0.326200 0.765900 0.554000
vn -0.209000 0.844400 0.493300
vn -0.212500 0.813000 0.542000
vn -0.538800 0.648100 0.538100
vn -0.562800 0.651400 0.508700
vn -0.585600 0.628600 0.511700
vn -0.556900 0.621800 0.550500
vn -0.619100 0.641400 0.453000
vn -0.590900 0.672400 0.445700
vn -0.530900 0.731100 0.428400
vn -0.478900 0.696900 0.533800
vn -0.504900 0.692600 0.515100
vn -0.634800 0.690100 0.347600
vn -0.659800 0.666900 0.346100
vn -0.646300 0.655100 0.391300
vn -0.626100 0.679100 0.383100
vn -0.588500 0.729300 0.348900
vn -0.586400 0.744000 0.320100
vn -0.534800 0.800600 0.270300
vn -0.460300 0.789600 0.405800
vn -0.548600 0.783200 0.292500
vn -0.399200 0.741100 0.539800
vn -0.427700 0.730300 0.532700
vn -0.552900 0.604300 0.573700
vn -0.587100 0.608600 0.533700
vn -0.581700 0.587500 0.562600
vn -0.577000 0.554600 0.599500
vn -0.667100 0.582600 0.464200
vn -0.632000 0.626300 0.456300
vn -0.678300 0.659200 0.324600
vn -0.721500 0.617900 0.312500
vn -0.690100 0.635000 0.347100
vn -0.667500 0.643900 0.373900
vn 0.485800 -0.860000 -0.156100
vn 0.366300 -0.852700 -0.372400
vn 0.417700 -0.820000 -0.391100
vn 0.565700 -0.819100 -0.095400
vn 0.617600 -0.786400 0.009900
vn 0.604300 -0.796700 -0.010900
vn 0.587000 -0.805700 -0.079000
vn 0.503700 -0.840200 -0.200800
vn 0.401400 -0.830900 -0.385300
vn 0.270800 -0.765800 -0.583300
vn 0.241800 -0.637800 -0.731300
vn 0.235600 -0.618900 -0.749300
vn 0.279700 -0.693700 -0.663700
vn 0.319700 -0.759600 -0.566400
vn 0.282400 -0.672100 -0.684400
vn 0.529800 -0.644600 -0.551200
vn 0.462200 -0.616500 -0.637400
vn 0.418500 -0.648900 -0.635400
vn 0.471000 -0.692900 -0.546000
vn 0.531000 -0.731000 -0.428500
vn 0.591000 -0.672300 -0.445700
vn 0.619200 -0.641300 -0.453100
vn 0.545000 -0.619200 -0.565300
vn 0.449400 -0.606100 -0.656200
vn 0.639900 -0.692800 -0.332400
vn 0.591700 -0.745800 -0.306100
vn 0.636300 -0.744300 -0.202700
vn 0.670100 -0.707500 -0.224400
vn 0.678600 -0.706500 -0.200900
vn 0.664400 -0.671500 -0.328100
vn 0.540200 -0.801400 -0.256700
vn 0.460200 -0.789600 -0.405800
vn 0.601000 -0.785300 -0.148500
vn 0.391800 -0.736400 -0.551500
vn 0.348100 -0.674500 -0.651000
vn 0.526200 -0.611500 -0.590900
vn 0.392800 -0.609900 -0.688300
vn 0.624200 -0.635500 -0.454300
vn 0.588800 -0.674600 -0.445200
vn 0.437100 -0.638600 -0.633400
vn 0.354000 -0.615000 -0.704600
vn 0.674000 -0.676300 -0.297300
vn 0.668000 -0.730600 -0.141200
vn 0.656000 -0.747500 -0.104300
vn 0.647800 -0.730900 -0.214700
vn -0.766000 0.031000 -0.642000
vn -0.896000 -0.249000 -0.367600
vn -0.673600 0.122400 -0.728900
vn 0.354000 -0.615000 -0.704600
vn -0.547600 -0.745000 0.380700
vn -0.305500 -0.507600 0.805500
vn -0.567600 -0.816500 0.105000
vn 0.656000 -0.747500 -0.104300
vn 0.523500 0.262900 0.810400
vn 0.702300 0.408000 0.583400
vn 0.403600 0.118800 0.907100
vn 0.617600 -0.786400 0.009900
vn 0.467500 0.577600 -0.669100
vn 0.047500 0.695000 -0.717400
vn 0.847600 0.410600 -0.336100
vn 0.235600 -0.618900 -0.749300
vn -0.261800 0.607200 -0.750200
vn -0.434200 0.486200 -0.758300
vn -0.756200 -0.653400 -0.033800
vn 0.033600 -0.319500 0.947000
vn 0.172700 -0.248600 0.953000
vn 0.901500 0.387400 0.192600
vn 0.329400 -0.003200 0.944200
vn 0.294900 -0.082900 0.951900
vn -0.529300 0.373000 -0.762000
vn -0.570200 0.295800 -0.766400
vn -0.605700 0.217400 -0.765400
vn 0.258900 -0.161300 0.952300
vt 0.839504 0.118056
vt 0.856743 0.205307
vt 0.741230 0.205307
vt 0.734555 0.106726
vt 0.724541 0.032791
vt 0.813647 0.052618
vt 0.868992 0.081539
vt 0.913398 0.129584
vt 0.940923 0.205307
vt 0.839504 0.292557
vt 0.813647 0.357995
vt 0.724541 0.377822
vt 0.734555 0.303887
vt 0.913398 0.281029
vt 0.868992 0.329074
vt 0.369475 0.299954
vt 0.368286 0.370940
vt 0.245840 0.351447
vt 0.246397 0.288815
vt 0.246768 0.205307
vt 0.370268 0.205307
vt 0.494283 0.205307
vt 0.492822 0.304944
vt 0.490632 0.379672
vt 0.369475 0.110659
vt 0.246397 0.121798
vt 0.245841 0.059166
vt 0.368286 0.039673
vt 0.490632 0.030941
vt 0.492822 0.105669
vt 0.616755 0.103478
vt 0.619174 0.205307
vt 0.613127 0.027106
vt 0.616755 0.307135
vt 0.613126 0.383507
vt 0.123273 0.268175
vt 0.123047 0.315326
vt 0.054743 0.283353
vt 0.030912 0.249131
vt 0.030973 0.205306
vt 0.123423 0.205306
vt 0.123273 0.142438
vt 0.030912 0.161481
vt 0.054744 0.127260
vt 0.123047 0.095287
vt 0.839504 0.118056
vt 0.856743 0.205307
vt 0.968983 0.205307
vt 0.938030 0.133427
vt 0.876123 0.061548
vt 0.805028 0.030806
vt 0.721203 0.008146
vt 0.734555 0.106726
vt 0.741230 0.205307
vt 0.839504 0.292557
vt 0.805028 0.379807
vt 0.876123 0.349065
vt 0.938030 0.277186
vt 0.734555 0.303887
vt 0.721203 0.402467
vt 0.369475 0.299954
vt 0.367890 0.394602
vt 0.489902 0.404581
vt 0.492822 0.304944
vt 0.494283 0.205307
vt 0.370268 0.205307
vt 0.246768 0.205307
vt 0.246397 0.288815
vt 0.245655 0.372324
vt 0.369475 0.110659
vt 0.492822 0.105669
vt 0.489902 0.006032
vt 0.367890 0.016011
vt 0.245655 0.038289
vt 0.246397 0.121798
vt 0.616755 0.103478
vt 0.619174 0.205307
vt 0.611917 0.001649
vt 0.616755 0.307135
vt 0.611917 0.408964
vt 0.123273 0.268175
vt 0.122972 0.331043
vt 0.123423 0.205306
vt 0.000156 0.205306
vt 0.000125 0.242784
vt 0.000064 0.280261
vt 0.123273 0.142438
vt 0.122972 0.079570
vt 0.000064 0.130352
vt 0.000125 0.167829
vt 0.122972 0.331043
vt 0.030806 0.283587
vt 0.245655 0.372324
vt 0.030806 0.283587
vt 0.000125 0.167829
vt 0.030806 0.127026
vt 0.000156 0.205306
vt 0.030806 0.127026
vt 0.805028 0.030806
vt 0.873826 0.071832
vt 0.721203 0.008146
vt 0.873826 0.071832
vt 0.938030 0.277186
vt 0.873826 0.338781
vt 0.968983 0.205307
vt 0.873826 0.338781
vt 0.805028 0.379807
vt 0.721203 0.402467
vt 0.000125 0.242784
vt 0.122972 0.079570
vt 0.245655 0.038289
vt 0.938030 0.133427
vt 0.611917 0.001649
vt 0.489902 0.006032
vt 0.611917 0.408964
vt 0.489902 0.404581
vt 0.367890 0.394602
vt 0.367890 0.016011
f 1/1/1 2/2/2 3/3/3
f 1/1/1 3/3/3 4/4/4
f 1/1/1 4/4/4 5/5/5
f 1/1/1 5/5/5 6/6/6
f 1/1/1 6/6/6 7/7/7
f 1/1/1 7/7/7 8/8/8
f 1/1/1 8/8/8 9/9/9
f 1/1/1 9/9/9 2/2/2
f 10/10/10 11/11/11 12/12/12
f 10/10/10 12/12/12 13/13/13
f 10/10/10 13/13/13 3/3/3
f 10/10/10 3/3/3 2/2/2
f 10/10/10 2/2/2 9/9/9
f 10/10/10 9/9/9 14/14/14
f 10/10/10 14/14/14 15/15/15
f 10/10/10 15/15/15 11/11/11
f 16/16/16 17/17/17 18/18/18
f 16/16/16 18/18/18 19/19/19
f 16/16/16 19/19/19 20/20/20
f 16/16/16 20/20/20 21/21/21
f 16/16/16 21/21/21 22/22/22
f 16/16/16 22/22/22 23/23/23
f 16/16/16 23/23/23 24/24/24
f 16/16/16 24/24/24 17/17/17
f 25/25/25 21/21/21 20/20/20
f 25/25/25 20/20/20 26/26/26
f 25/25/25 26/26/26 27/27/27
f 25/25/25 27/27/27 28/28/28
f 25/25/25 28/28/28 29/29/29
f 25/25/25 29/29/29 30/30/30
f 25/25/25 30/30/30 22/22/22
f 25/25/25 22/22/22 21/21/21
f 31/31/31 32/32/32 22/22/22
f 31/31/31 22/22/22 30/30/30
f 31/31/31 30/30/30 29/29/29
f 31/31/31 29/29/29 33/33/33
f 31/31/31 33/33/33 5/5/5
f 31/31/31 5/5/5 4/4/4
f 31/31/31 4/4/4 3/3/3
f 31/31/31 3/3/3 32/32/32
f 34/34/34 35/35/35 24/24/24
f 34/34/34 24/24/24 23/23/23
f 34/34/34 23/23/23 22/22/22
f 34/34/34 22/22/22 32/32/32
f 34/34/34 32/32/32 3/3/3
f 34/34/34 3/3/3 13/13/13
f 34/34/34 13/13/13 12/12/12
f 34/34/34 12/12/12 35/35/35
f 36/36/36 37/37/37 38/38/38
f 36/36/36 38/38/38 39/39/39
f 36/36/36 39/39/39 40/40/40
f 36/36/36 40/40/40 41/41/41
f 36/36/36 41/41/41 20/20/20
f 36/36/36 20/20/20 19/19/19
f 36/36/36 19/19/19 18/18/18
f 36/36/36 18/18/18 37/37/37
f 42/42/42 41/41/41 40/40/40
f 42/42/42 40/40/40 43/43/43
f 42/42/42 43/43/43 44/44/44
f 42/42/42 44/44/44 45/45/45
f 42/42/42 45/45/45 27/27/27
f 42/42/42 27/27/27 26/26/26
f 42/42/42 26/26/26 20/20/20
f 42/42/42 20/20/20 41/41/41
f 46/46/46 47/47/47 48/48/48
f 46/46/46 48/48/48 49/49/49
f 46/46/46 49/49/49 50/50/50
f 46/46/46 50/50/50 51/51/51
f 46/46/46 51/51/51 52/52/52
f 46/46/46 52/52/52 53/53/53
f 46/46/46 53/53/53 54/54/54
f 46/46/46 54/54/54 47/47/47
f 55/55/55 56/56/56 57/57/57
f 55/55/55 57/57/57 58/58/58
f 55/55/55 58/58/58 48/48/48
f 55/55/55 48/48/48 47/47/47
f 55/55/55 47/47/47 54/54/54
f 55/55/55 54/54/54 59/59/59
f 55/55/55 59/59/59 60/60/60
f 55/55/55 60/60/60 56/56/56
f 61/61/61 62/62/62 63/63/63
f 61/61/61 63/63/63 64/64/64
f 61/61/61 64/64/64 65/65/65
f 61/61/61 65/65/65 66/66/66
f 61/61/61 66/66/66 67/67/67
f 61/61/61 67/67/67 68/68/68
f 61/61/61 68/68/68 69/69/69
f 61/61/61 69/69/69 62/62/62
f 70/70/70 66/66/66 65/65/65
f 70/70/70 65/65/65 71/71/71
f 70/70/70 71/71/71 72/72/72
f 70/70/70 72/72/72 73/73/73
f 70/70/70 73/73/73 74/74/74
f 70/70/70 74/74/74 75/75/75
f 70/70/70 75/75/75 67/67/67
f 70/70/70 67/67/67 66/66/66
f 76/76/76 77/77/77 54/54/54
f 76/76/76 54/54/54 53/53/53
f 76/76/76 53/53/53 52/52/52
f 76/76/76 52/52/52 78/78/78
f 76/76/76 78/78/78 72/72/72
f 76/76/76 72/72/72 71/71/71
f 76/76/76 71/71/71 65/65/65
f 76/76/76 65/65/65 77/77/77
f 79/79/79 80/80/80 60/60/60
f 79/79/79 60/60/60 59/59/59
f 79/79/79 59/59/59 54/54/54
f 79/79/79 54/54/54 77/77/77
f 79/79/79 77/77/77 65/65/65
f 79/79/79 65/65/65 64/64/64
f 79/79/79 64/64/64 63/63/63
f 79/79/79 63/63/63 80/80/80
f 81/81/81 82/82/82 69/69/69
f 81/81/81 69/69/69 68/68/68
f 81/81/81 68/68/68 67/67/67
f 81/81/81 67/67/67 83/83/83
f 81/81/81 83/83/83 84/84/84
f 81/81/81 84/84/84 85/85/85
f 81/81/81 85/85/85 86/86/86
f 81/81/81 86/86/86 82/82/82
f 87/87/87 83/83/83 67/67/67
f 87/87/87 67/67/67 75/75/75
f 87/87/87 75/75/75 74/74/74
f 87/87/87 74/74/74 88/88/88
f 87/87/87 88/88/88 89/89/89
f 87/87/87 89/89/89 90/90/90
f 87/87/87 90/90/90 84/84/84
f 87/87/87 84/84/84 83/83/83
f 91/91/91 92/92/92 38/38/38
f 91/91/91 38/38/38 37/37/37
f 91/91/91 37/37/37 18/18/18
f 91/91/91 18/18/18 93/93/93
f 91/91/91 93/93/93 69/69/69
f 91/91/91 69/69/69 82/82/82
f 91/91/91 82/82/82 94/94/94
f 91/91/91 94/94/94 92/92/92
f 95/95/95 96/96/96 44/44/44
f 95/95/95 44/44/44 43/43/43
f 95/95/95 43/43/43 40/40/40
f 95/95/95 40/40/40 97/97/97
f 95/95/95 97/97/97 84/84/84
f 95/95/95 84/84/84 90/90/90
f 95/95/95 90/90/90 98/98/98
f 95/95/95 98/98/98 96/96/96
f 99/99/99 100/100/100 7/7/7
f 99/99/99 7/7/7 6/6/6
f 99/99/99 6/6/6 5/5/5
f 99/99/99 5/5/5 101/101/101
f 99/99/99 101/101/101 52/52/52
f 99/99/99 52/52/52 51/51/51
f 99/99/99 51/51/51 102/102/102
f 99/99/99 102/102/102 100/100/100
f 103/103/103 104/104/104 15/15/15
f 103/103/103 15/15/15 14/14/14
f 103/103/103 14/14/14 9/9/9
f 103/103/103 9/9/9 105/105/105
f 103/103/103 105/105/105 48/48/48
f 103/103/103 48/48/48 58/58/58
f 103/103/103 58/58/58 106/106/106
f 103/103/103 106/106/106 104/104/104
f 107/107/107 108/108/108 12/12/12
f 107/107/107 12/12/12 11/11/11
f 107/107/107 11/11/11 15/15/15
f 107/107/107 15/15/15 104/104/104
f 107/107/107 104/104/104 106/106/106
f 107/107/107 106/106/106 56/56/56
f 107/107/107 56/56/56 60/60/60
f 107/107/107 60/60/60 108/108/108
f 109/109/109 97/97/97 40/40/40
f 109/109/109 40/40/40 39/39/39
f 109/109/109 39/39/39 38/38/38
f 109/109/109 38/38/38 92/92/92
f 109/109/109 92/92/92 94/94/94
f 109/109/109 94/94/94 85/85/85
f 109/109/109 85/85/85 84/84/84
f 109/109/109 84/84/84 97/97/97
f 110/110/110 111/111/111 27/27/27
f 110/110/110 27/27/27 45/45/45
f 110/110/110 45/45/45 44/44/44
f 110/110/110 44/44/44 96/96/96
f 110/110/110 96/96/96 98/98/98
f 110/110/110 98/98/98 88/88/88
f 110/110/110 88/88/88 74/74/74
f 110/110/110 74/74/74 111/111/111
f 112/112/112 105/105/105 9/9/9
f 112/112/112 9/9/9 8/8/8
f 112/112/112 8/8/8 7/7/7
f 112/112/112 7/7/7 100/100/100
f 112/112/112 100/100/100 102/102/102
f 112/112/112 102/102/102 49/49/49
f 112/112/112 49/49/49 48/48/48
f 112/112/112 48/48/48 105/105/105
f 113/113/113 101/101/101 5/5/5
f 113/113/113 5/5/5 33/33/33
f 113/113/113 33/33/33 29/29/29
f 113/113/113 29/29/29 114/114/114
f 113/113/113 114/114/114 72/72/72
f 113/113/113 72/72/72 78/78/78
f 113/113/113 78/78/78 52/52/52
f 113/113/113 52/52/52 101/101/101
f 115/115/115 116/116/116 24/24/24
f 115/115/115 24/24/24 35/35/35
f 115/115/115 35/35/35 12/12/12
f 115/115/115 12/12/12 108/108/108
f 115/115/115 108/108/108 60/60/60
f 115/115/115 60/60/60 80/80/80
f 115/115/115 80/80/80 63/63/63
f 115/115/115 63/63/63 116/116/116
f 117/117/117 93/93/93 18/18/18
f 117/117/117 18/18/18 17/17/17
f 117/117/117 17/17/17 24/24/24
f 117/117/117 24/24/24 116/116/116
f 117/117/117 116/116/116 63/63/63
f 117/117/117 63/63/63 62/62/62
f 117/117/117 62/62/62 69/69/69
f 117/117/117 69/69/69 93/93/93
f 118/118/118 114/114/114 29/29/29
f 118/118/118 29/29/29 28/28/28
f 118/118/118 28/28/28 27/27/27
f 118/118/118 27/27/27 111/111/111
f 118/118/118 111/111/111 74/74/74
f 118/118/118 74/74/74 73/73/73
f 118/118/118 73/73/73 72/72/72
f 118/118/118 72/72/72 114/114/114
