v -2.433975 0.752776 -1.156407
v -2.435444 0.752565 -1.156989
v -2.435323 0.751014 -1.155546
v -2.433658 0.751396 -1.155076
v -2.432431 0.751711 -1.154545
v -2.432889 0.752864 -1.155688
v -2.433415 0.753419 -1.156561
v -2.434238 0.753687 -1.157418
v -2.435516 0.753653 -1.158099
v -2.436980 0.752197 -1.156779
v -2.438159 0.751849 -1.156340
v -2.438418 0.750558 -1.155285
v -2.437073 0.750738 -1.155499
v -2.436840 0.753186 -1.157740
v -2.437684 0.752597 -1.157089
v -2.436417 0.745199 -1.151888
v -2.437707 0.745018 -1.151886
v -2.437086 0.743032 -1.150936
v -2.435943 0.743190 -1.150947
v -2.434441 0.743432 -1.150876
v -2.434720 0.745475 -1.151799
v -2.434968 0.747444 -1.152857
v -2.436747 0.747164 -1.152938
v -2.438101 0.746986 -1.152914
v -2.433070 0.745844 -1.151475
v -2.432983 0.743760 -1.150582
v -2.431899 0.744030 -1.150294
v -2.431843 0.746147 -1.151161
v -2.431967 0.748167 -1.152156
v -2.433246 0.747838 -1.152505
v -2.433428 0.749719 -1.153740
v -2.435167 0.749299 -1.154137
v -2.432143 0.750083 -1.153326
v -2.436981 0.749035 -1.154179
v -2.438369 0.748884 -1.154095
v -2.435275 0.741185 -1.150030
v -2.436136 0.741079 -1.149986
v -2.435384 0.740005 -1.149501
v -2.434700 0.739675 -1.149369
v -2.433922 0.739779 -1.149385
v -2.434149 0.741356 -1.150003
v -2.433066 0.741611 -1.149757
v -2.433187 0.739967 -1.149182
v -2.432660 0.740530 -1.149165
v -2.432262 0.741825 -1.149508
v -2.433917 0.752677 -1.156528
v -2.435408 0.752460 -1.157114
v -2.435489 0.753573 -1.158191
v -2.434194 0.753611 -1.157507
v -2.433378 0.753365 -1.156626
v -2.432835 0.752793 -1.155777
v -2.432380 0.751642 -1.154638
v -2.433603 0.751301 -1.155202
v -2.435288 0.750914 -1.155675
v -2.436968 0.752089 -1.156905
v -2.438162 0.751767 -1.156435
v -2.437682 0.752536 -1.157158
v -2.436831 0.753103 -1.157833
v -2.437059 0.750635 -1.155629
v -2.438418 0.750480 -1.155384
v -2.436399 0.745123 -1.152037
v -2.437701 0.744959 -1.151998
v -2.438096 0.746921 -1.153022
v -2.436729 0.747080 -1.153081
v -2.434935 0.747362 -1.152999
v -2.434688 0.745401 -1.151946
v -2.434409 0.743364 -1.151026
v -2.435926 0.743120 -1.151099
v -2.437080 0.742978 -1.151049
v -2.433023 0.745773 -1.151619
v -2.433197 0.747760 -1.152644
v -2.431923 0.748110 -1.152259
v -2.431801 0.746096 -1.151268
v -2.431857 0.743984 -1.150404
v -2.432937 0.743695 -1.150729
v -2.433377 0.749632 -1.153873
v -2.435133 0.749207 -1.154273
v -2.432096 0.750020 -1.153424
v -2.436964 0.748941 -1.154316
v -2.438365 0.748813 -1.154198
v -2.435259 0.741117 -1.150182
v -2.436132 0.741027 -1.150101
v -2.434118 0.741291 -1.150154
v -2.433898 0.739731 -1.149498
v -2.434689 0.739624 -1.149483
v -2.435379 0.739967 -1.149586
v -2.433019 0.741548 -1.149905
v -2.432220 0.741780 -1.149617
v -2.432631 0.740496 -1.149246
v -2.433151 0.739920 -1.149293
v -2.436423 0.741020 -1.150023
v -2.435328 0.739596 -1.149336
v -2.437466 0.742955 -1.150982
v -2.435379 0.739967 -1.149586
v -2.433211 0.739398 -1.149040
v -2.432600 0.740121 -1.148998
v -2.433836 0.739232 -1.149230
v -2.432631 0.740496 -1.149246
v -2.432500 0.752862 -1.155487
v -2.433253 0.753541 -1.156578
v -2.431997 0.751786 -1.154409
v -2.433378 0.753365 -1.156626
v -2.436789 0.753479 -1.158101
v -2.437871 0.752652 -1.157149
v -2.435528 0.753980 -1.158510
v -2.437682 0.752536 -1.157158
v -2.438556 0.751696 -1.156236
v -2.438869 0.750463 -1.155258
v -2.434504 0.739149 -1.149200
v -2.431974 0.741877 -1.149473
v -2.431517 0.744100 -1.150247
v -2.434306 0.753957 -1.157794
v -2.431692 0.750177 -1.153231
v -2.431519 0.748252 -1.152085
v -2.438832 0.748802 -1.154113
v -2.438552 0.746897 -1.152954
v -2.438136 0.744931 -1.151935
v -2.431413 0.746225 -1.151104
vn -0.421400 0.597700 0.682000
vn -0.216700 0.669300 0.710700
vn -0.213200 0.625000 0.750900
vn -0.396300 0.559900 0.727600
vn -0.385700 0.543200 0.745700
vn -0.414100 0.600000 0.684400
vn -0.431600 0.637600 0.638100
vn -0.388900 0.675300 0.626700
vn -0.220700 0.733600 0.642700
vn 0.000600 0.678900 0.734200
vn -0.007300 0.678300 0.734800
vn -0.026600 0.612300 0.790100
vn -0.018900 0.632600 0.774200
vn -0.044100 0.741800 0.669200
vn 0.005500 0.721700 0.692100
vn -0.082700 0.432600 0.897800
vn -0.118500 0.419500 0.900000
vn -0.117500 0.390000 0.913300
vn -0.070900 0.403900 0.912000
vn -0.184600 0.375500 0.908200
vn -0.189700 0.413900 0.890300
vn -0.199000 0.488500 0.849500
vn -0.077900 0.501000 0.861900
vn -0.103200 0.482400 0.869800
vn -0.294700 0.391800 0.871600
vn -0.298300 0.360100 0.883900
vn -0.251400 0.364100 0.896800
vn -0.258200 0.392600 0.882700
vn -0.288000 0.446800 0.847000
vn -0.315700 0.455300 0.832500
vn -0.353700 0.518400 0.778500
vn -0.207700 0.566700 0.797300
vn -0.335700 0.501200 0.797500
vn -0.054000 0.576100 0.815600
vn -0.068500 0.552600 0.830600
vn -0.043600 0.394500 0.917800
vn -0.092900 0.376000 0.921900
vn -0.059100 0.365100 0.929100
vn -0.014400 0.345200 0.938400
vn -0.174500 0.304900 0.936200
vn -0.182000 0.357200 0.916100
vn -0.320700 0.341200 0.883600
vn -0.333700 0.283600 0.899000
vn -0.298900 0.318900 0.899400
vn -0.270800 0.341700 0.899900
vn 0.445200 -0.570800 -0.689800
vn 0.215800 -0.657300 -0.722000
vn 0.211800 -0.609600 -0.763800
vn 0.513700 -0.488500 -0.705200
vn 0.608000 -0.417400 -0.675300
vn 0.589500 -0.436200 -0.679800
vn 0.531300 -0.464200 -0.708600
vn 0.410100 -0.554000 -0.724500
vn 0.213200 -0.625100 -0.750800
vn -0.029900 -0.662400 -0.748600
vn -0.211700 -0.590300 -0.778900
vn -0.236400 -0.579800 -0.779700
vn -0.118300 -0.610000 -0.783500
vn 0.003600 -0.632200 -0.774800
vn -0.142200 -0.593900 -0.791800
vn 0.066800 -0.436000 -0.897500
vn -0.043800 -0.457100 -0.888300
vn -0.049500 -0.504300 -0.862100
vn 0.063000 -0.503200 -0.861800
vn 0.199000 -0.488400 -0.849600
vn 0.189700 -0.413700 -0.890400
vn 0.184600 -0.375400 -0.908300
vn 0.052600 -0.409600 -0.910700
vn -0.068800 -0.457100 -0.886700
vn 0.310200 -0.389100 -0.867400
vn 0.329900 -0.451900 -0.828800
vn 0.431700 -0.411700 -0.802600
vn 0.415300 -0.368600 -0.831600
vn 0.437500 -0.359500 -0.824200
vn 0.316400 -0.358800 -0.878100
vn 0.367400 -0.514200 -0.775000
vn 0.207700 -0.566700 -0.797300
vn 0.474500 -0.453200 -0.754500
vn 0.039400 -0.577300 -0.815500
vn -0.084300 -0.560800 -0.823600
vn 0.020600 -0.415800 -0.909200
vn -0.118900 -0.491300 -0.862800
vn 0.183500 -0.368400 -0.911300
vn 0.190200 -0.416600 -0.889000
vn -0.043500 -0.486700 -0.872400
vn -0.147600 -0.516000 -0.843700
vn 0.347200 -0.353000 -0.868800
vn 0.489600 -0.374200 -0.787600
vn 0.520000 -0.387500 -0.761200
vn 0.422200 -0.397000 -0.814900
vn -0.875100 -0.429300 0.223500
vn -0.606200 -0.681300 0.410200
vn -0.937200 -0.325300 0.126000
vn -0.147600 -0.516000 -0.843700
vn 0.346200 -0.824100 0.448300
vn 0.698600 -0.430600 0.571400
vn 0.147400 -0.947300 0.284400
vn 0.520000 -0.387500 -0.761200
vn 0.778400 0.612400 0.137800
vn 0.623700 0.776000 -0.093600
vn 0.856900 0.451500 0.248700
vn 0.608000 -0.417400 -0.675300
vn -0.544000 0.588200 -0.598400
vn -0.823200 0.497800 -0.272700
vn -0.037700 0.670800 -0.740700
vn -0.236400 -0.579800 -0.779700
vn -0.957500 0.278200 -0.076400
vn -0.995400 0.093600 0.020600
vn -0.115200 -0.913000 0.391300
vn 0.892500 -0.088900 0.442200
vn 0.933500 0.035500 0.356800
vn 0.415400 0.772800 -0.479800
vn 0.900800 0.318200 0.295600
vn 0.922800 0.234300 0.305900
vn -0.996900 -0.047800 0.061400
vn -0.988600 -0.133200 0.069300
vn -0.972700 -0.218600 0.077200
vn 0.937800 0.149600 0.313100
vt 0.839504 0.118056
vt 0.856743 0.205307
vt 0.741230 0.205307
vt 0.734555 0.106726
vt 0.724541 0.032791
vt 0.813647 0.052618
vt 0.868992 0.081539
vt 0.913398 0.129584
vt 0.940923 0.205307
vt 0.839504 0.292557
vt 0.813647 0.357995
vt 0.724541 0.377822
vt 0.734555 0.303887
vt 0.913398 0.281029
vt 0.868992 0.329074
vt 0.369475 0.299954
vt 0.368286 0.370940
vt 0.245840 0.351447
vt 0.246397 0.288815
vt 0.246768 0.205307
vt 0.370268 0.205307
vt 0.494283 0.205307
vt 0.492822 0.304944
vt 0.490632 0.379672
vt 0.369475 0.110659
vt 0.246397 0.121798
vt 0.245841 0.059166
vt 0.368286 0.039673
vt 0.490632 0.030941
vt 0.492822 0.105669
vt 0.616755 0.103478
vt 0.619174 0.205307
vt 0.613127 0.027106
vt 0.616755 0.307135
vt 0.613126 0.383507
vt 0.123273 0.268175
vt 0.123047 0.315326
vt 0.054743 0.283353
vt 0.030912 0.249131
vt 0.030973 0.205306
vt 0.123423 0.205306
vt 0.123273 0.142438
vt 0.030912 0.161481
vt 0.054744 0.127260
vt 0.123047 0.095287
vt 0.839504 0.118056
vt 0.856743 0.205307
vt 0.968983 0.205307
vt 0.938030 0.133427
vt 0.876123 0.061548
vt 0.805028 0.030806
vt 0.721203 0.008146
vt 0.734555 0.106726
vt 0.741230 0.205307
vt 0.839504 0.292557
vt 0.805028 0.379807
vt 0.876123 0.349065
vt 0.938030 0.277186
vt 0.734555 0.303887
vt 0.721203 0.402467
vt 0.369475 0.299954
vt 0.367890 0.394602
vt 0.489902 0.404581
vt 0.492822 0.304944
vt 0.494283 0.205307
vt 0.370268 0.205307
vt 0.246768 0.205307
vt 0.246397 0.288815
vt 0.245655 0.372324
vt 0.369475 0.110659
vt 0.492822 0.105669
vt 0.489902 0.006032
vt 0.367890 0.016011
vt 0.245655 0.038289
vt 0.246397 0.121798
vt 0.616755 0.103478
vt 0.619174 0.205307
vt 0.611917 0.001649
vt 0.616755 0.307135
vt 0.611917 0.408964
vt 0.123273 0.268175
vt 0.122972 0.331043
vt 0.123423 0.205306
vt 0.000156 0.205306
vt 0.000125 0.242784
vt 0.000064 0.280261
vt 0.123273 0.142438
vt 0.122972 0.079570
vt 0.000064 0.130352
vt 0.000125 0.167829
vt 0.122972 0.331043
vt 0.030806 0.283587
vt 0.245655 0.372324
vt 0.030806 0.283587
vt 0.000125 0.167829
vt 0.030806 0.127026
vt 0.000156 0.205306
vt 0.030806 0.127026
vt 0.805028 0.030806
vt 0.873826 0.071832
vt 0.721203 0.008146
vt 0.873826 0.071832
vt 0.938030 0.277186
vt 0.873826 0.338781
vt 0.968983 0.205307
vt 0.873826 0.338781
vt 0.805028 0.379807
vt 0.721203 0.402467
vt 0.000125 0.242784
vt 0.122972 0.079570
vt 0.245655 0.038289
vt 0.938030 0.133427
vt 0.611917 0.001649
vt 0.489902 0.006032
vt 0.611917 0.408964
vt 0.489902 0.404581
vt 0.367890 0.394602
vt 0.367890 0.016011
f 1/1/1 2/2/2 3/3/3
f 1/1/1 3/3/3 4/4/4
f 1/1/1 4/4/4 5/5/5
f 1/1/1 5/5/5 6/6/6
f 1/1/1 6/6/6 7/7/7
f 1/1/1 7/7/7 8/8/8
f 1/1/1 8/8/8 9/9/9
f 1/1/1 9/9/9 2/2/2
f 10/10/10 11/11/11 12/12/12
f 10/10/10 12/12/12 13/13/13
f 10/10/10 13/13/13 3/3/3
f 10/10/10 3/3/3 2/2/2
f 10/10/10 2/2/2 9/9/9
f 10/10/10 9/9/9 14/14/14
f 10/10/10 14/14/14 15/15/15
f 10/10/10 15/15/15 11/11/11
f 16/16/16 17/17/17 18/18/18
f 16/16/16 18/18/18 19/19/19
f 16/16/16 19/19/19 20/20/20
f 16/16/16 20/20/20 21/21/21
f 16/16/16 21/21/21 22/22/22
f 16/16/16 22/22/22 23/23/23
f 16/16/16 23/23/23 24/24/24
f 16/16/16 24/24/24 17/17/17
f 25/25/25 21/21/21 20/20/20
f 25/25/25 20/20/20 26/26/26
f 25/25/25 26/26/26 27/27/27
f 25/25/25 27/27/27 28/28/28
f 25/25/25 28/28/28 29/29/29
f 25/25/25 29/29/29 30/30/30
f 25/25/25 30/30/30 22/22/22
f 25/25/25 22/22/22 21/21/21
f 31/31/31 32/32/32 22/22/22
f 31/31/31 22/22/22 30/30/30
f 31/31/31 30/30/30 29/29/29
f 31/31/31 29/29/29 33/33/33
f 31/31/31 33/33/33 5/5/5
f 31/31/31 5/5/5 4/4/4
f 31/31/31 4/4/4 3/3/3
f 31/31/31 3/3/3 32/32/32
f 34/34/34 35/35/35 24/24/24
f 34/34/34 24/24/24 23/23/23
f 34/34/34 23/23/23 22/22/22
f 34/34/34 22/22/22 32/32/32
f 34/34/34 32/32/32 3/3/3
f 34/34/34 3/3/3 13/13/13
f 34/34/34 13/13/13 12/12/12
f 34/34/34 12/12/12 35/35/35
f 36/36/36 37/37/37 38/38/38
f 36/36/36 38/38/38 39/39/39
f 36/36/36 39/39/39 40/40/40
f 36/36/36 40/40/40 41/41/41
f 36/36/36 41/41/41 20/20/20
f 36/36/36 20/20/20 19/19/19
f 36/36/36 19/19/19 18/18/18
f 36/36/36 18/18/18 37/37/37
f 42/42/42 41/41/41 40/40/40
f 42/42/42 40/40/40 43/43/43
f 42/42/42 43/43/43 44/44/44
f 42/42/42 44/44/44 45/45/45
f 42/42/42 45/45/45 27/27/27
f 42/42/42 27/27/27 26/26/26
f 42/42/42 26/26/26 20/20/20
f 42/42/42 20/20/20 41/41/41
f 46/46/46 47/47/47 48/48/48
f 46/46/46 48/48/48 49/49/49
f 46/46/46 49/49/49 50/50/50
f 46/46/46 50/50/50 51/51/51
f 46/46/46 51/51/51 52/52/52
f 46/46/46 52/52/52 53/53/53
f 46/46/46 53/53/53 54/54/54
f 46/46/46 54/54/54 47/47/47
f 55/55/55 56/56/56 57/57/57
f 55/55/55 57/57/57 58/58/58
f 55/55/55 58/58/58 48/48/48
f 55/55/55 48/48/48 47/47/47
f 55/55/55 47/47/47 54/54/54
f 55/55/55 54/54/54 59/59/59
f 55/55/55 59/59/59 60/60/60
f 55/55/55 60/60/60 56/56/56
f 61/61/61 62/62/62 63/63/63
f 61/61/61 63/63/63 64/64/64
f 61/61/61 64/64/64 65/65/65
f 61/61/61 65/65/65 66/66/66
f 61/61/61 66/66/66 67/67/67
f 61/61/61 67/67/67 68/68/68
f 61/61/61 68/68/68 69/69/69
f 61/61/61 69/69/69 62/62/62
f 70/70/70 66/66/66 65/65/65
f 70/70/70 65/65/65 71/71/71
f 70/70/70 71/71/71 72/72/72
f 70/70/70 72/72/72 73/73/73
f 70/70/70 73/73/73 74/74/74
f 70/70/70 74/74/74 75/75/75
f 70/70/70 75/75/75 67/67/67
f 70/70/70 67/67/67 66/66/66
f 76/76/76 77/77/77 54/54/54
f 76/76/76 54/54/54 53/53/53
f 76/76/76 53/53/53 52/52/52
f 76/76/76 52/52/52 78/78/78
f 76/76/76 78/78/78 72/72/72
f 76/76/76 72/72/72 71/71/71
f 76/76/76 71/71/71 65/65/65
f 76/76/76 65/65/65 77/77/77
f 79/79/79 80/80/80 60/60/60
f 79/79/79 60/60/60 59/59/59
f 79/79/79 59/59/59 54/54/54
f 79/79/79 54/54/54 77/77/77
f 79/79/79 77/77/77 65/65/65
f 79/79/79 65/65/65 64/64/64
f 79/79/79 64/64/64 63/63/63
f 79/79/79 63/63/63 80/80/80
f 81/81/81 82/82/82 69/69/69
f 81/81/81 69/69/69 68/68/68
f 81/81/81 68/68/68 67/67/67
f 81/81/81 67/67/67 83/83/83
f 81/81/81 83/83/83 84/84/84
f 81/81/81 84/84/84 85/85/85
f 81/81/81 85/85/85 86/86/86
f 81/81/81 86/86/86 82/82/82
f 87/87/87 83/83/83 67/67/67
f 87/87/87 67/67/67 75/75/75
f 87/87/87 75/75/75 74/74/74
f 87/87/87 74/74/74 88/88/88
f 87/87/87 88/88/88 89/89/89
f 87/87/87 89/89/89 90/90/90
f 87/87/87 90/90/90 84/84/84
f 87/87/87 84/84/84 83/83/83
f 91/91/91 92/92/92 38/38/38
f 91/91/91 38/38/38 37/37/37
f 91/91/91 37/37/37 18/18/18
f 91/91/91 18/18/18 93/93/93
f 91/91/91 93/93/93 69/69/69
f 91/91/91 69/69/69 82/82/82
f 91/91/91 82/82/82 94/94/94
f 91/91/91 94/94/94 92/92/92
f 95/95/95 96/96/96 44/44/44
f 95/95/95 44/44/44 43/43/43
f 95/95/95 43/43/43 40/40/40
f 95/95/95 40/40/40 97/97/97
f 95/95/95 97/97/97 84/84/84
f 95/95/95 84/84/84 90/90/90
f 95/95/95 90/90/90 98/98/98
f 95/95/95 98/98/98 96/96/96
f 99/99/99 100/100/100 7/7/7
f 99/99/99 7/7/7 6/6/6
f 99/99/99 6/6/6 5/5/5
f 99/99/99 5/5/5 101/101/101
f 99/99/99 101/101/101 52/52/52
f 99/99/99 52/52/52 51/51/51
f 99/99/99 51/51/51 102/102/102
f 99/99/99 102/102/102 100/100/100
f 103/103/103 104/104/104 15/15/15
f 103/103/103 15/15/15 14/14/14
f 103/103/103 14/14/14 9/9/9
f 103/103/103 9/9/9 105/105/105
f 103/103/103 105/105/105 48/48/48
f 103/103/103 48/48/48 58/58/58
f 103/103/103 58/58/58 106/106/106
f 103/103/103 106/106/106 104/104/104
f 107/107/107 108/108/108 12/12/12
f 107/107/107 12/12/12 11/11/11
f 107/107/107 11/11/11 15/15/15
f 107/107/107 15/15/15 104/104/104
f 107/107/107 104/104/104 106/106/106
f 107/107/107 106/106/106 56/56/56
f 107/107/107 56/56/56 60/60/60
f 107/107/107 60/60/60 108/108/108
f 109/109/109 97/97/97 40/40/40
f 109/109/109 40/40/40 39/39/39
f 109/109/109 39/39/39 38/38/38
f 109/109/109 38/38/38 92/92/92
f 109/109/109 92/92/92 94/94/94
f 109/109/109 94/94/94 85/85/85
f 109/109/109 85/85/85 84/84/84
f 109/109/109 84/84/84 97/97/97
f 110/110/110 111/111/111 27/27/27
f 110/110/110 27/27/27 45/45/45
f 110/110/110 45/45/45 44/44/44
f 110/110/110 44/44/44 96/96/96
f 110/110/110 96/96/96 98/98/98
f 110/110/110 98/98/98 88/88/88
f 110/110/110 88/88/88 74/74/74
f 110/110/110 74/74/74 111/111/111
f 112/112/112 105/105/105 9/9/9
f 112/112/112 9/9/9 8/8/8
f 112/112/112 8/8/8 7/7/7
f 112/112/112 7/7/7 100/100/100
f 112/112/112 100/100/100 102/102/102
f 112/112/112 102/102/102 49/49/49
f 112/112/112 49/49/49 48/48/48
f 112/112/112 48/48/48 105/105/105
f 113/113/113 101/101/101 5/5/5
f 113/113/113 5/5/5 33/33/33
f 113/113/113 33/33/33 29/29/29
f 113/113/113 29/29/29 114/114/114
f 113/113/113 114/114/114 72/72/72
f 113/113/113 72/72/72 78/78/78
f 113/113/113 78/78/78 52/52/52
f 113/113/113 52/52/52 101/101/101
f 115/115/115 116/116/116 24/24/24
f 115/115/115 24/24/24 35/35/35
f 115/115/115 35/35/35 12/12/12
f 115/115/115 12/12/12 108/108/108
f 115/115/115 108/108/108 60/60/60
f 115/115/115 60/60/60 80/80/80
f 115/115/115 80/80/80 63/63/63
f 115/115/115 63/63/63 116/116/116
f 117/117/117 93/93/93 18/18/18
f 117/117/117 18/18/18 17/17/17
f 117/117/117 17/17/17 24/24/24
f 117/117/117 24/24/24 116/116/116
f 117/117/117 116/116/116 63/63/63
f 117/117/117 63/63/63 62/62/62
f 117/117/117 62/62/62 69/69/69
f 117/117/117 69/69/69 93/93/93
f 118/118/118 114/114/114 29/29/29
f 118/118/118 29/29/29 28/28/28
f 118/118/118 28/28/28 27/27/27
f 118/118/118 27/27/27 111/111/111
f 118/118/118 111/111/111 74/74/74
f 118/118/118 74/74/74 73/73/73
f 118/118/118 73/73/73 72/72/72
f 118/118/118 72/72/72 114/114/114
