v -2.426887 0.667913 -1.082547
v -2.426917 0.666849 -1.080342
v -2.424012 0.665918 -1.081489
v -2.424325 0.667170 -1.083886
v -2.424335 0.668276 -1.085683
v -2.426439 0.668828 -1.084274
v -2.427753 0.668779 -1.083070
v -2.428731 0.668292 -1.081552
v -2.429090 0.667431 -1.079531
v -2.425770 0.666158 -1.078292
v -2.424480 0.665749 -1.076813
v -2.422110 0.664778 -1.077207
v -2.423056 0.665175 -1.079051
v -2.427765 0.666772 -1.077870
v -2.426167 0.666285 -1.077028
v -2.414805 0.660745 -1.083106
v -2.414157 0.660201 -1.081292
v -2.411808 0.658445 -1.083228
v -2.412392 0.658916 -1.084833
v -2.413070 0.659645 -1.086951
v -2.415559 0.661578 -1.085499
v -2.418190 0.663320 -1.084090
v -2.417387 0.662467 -1.081582
v -2.416689 0.661928 -1.079678
v -2.416049 0.662700 -1.087843
v -2.413492 0.660645 -1.089023
v -2.413736 0.661475 -1.090570
v -2.416337 0.663626 -1.089593
v -2.418968 0.665512 -1.088361
v -2.418689 0.664513 -1.086537
v -2.421520 0.666020 -1.085217
v -2.421055 0.664754 -1.082746
v -2.421740 0.667116 -1.087051
v -2.420200 0.663944 -1.080189
v -2.419426 0.663479 -1.078239
v -2.410092 0.657122 -1.086836
v -2.409616 0.656811 -1.085630
v -2.408551 0.655938 -1.087278
v -2.408429 0.655765 -1.088443
v -2.408835 0.656075 -1.089536
v -2.410628 0.657635 -1.088421
v -2.410913 0.658413 -1.089963
v -2.408991 0.656649 -1.090585
v -2.409563 0.657529 -1.091133
v -2.411055 0.659074 -1.091113
v -2.427002 0.667706 -1.082642
v -2.427025 0.666626 -1.080406
v -2.429167 0.667263 -1.079581
v -2.428815 0.668136 -1.081626
v -2.427817 0.668667 -1.083131
v -2.426528 0.668681 -1.084360
v -2.424431 0.668129 -1.085762
v -2.424448 0.666964 -1.083974
v -2.424128 0.665698 -1.081549
v -2.425869 0.665923 -1.078324
v -2.424549 0.665569 -1.076820
v -2.426217 0.666152 -1.077038
v -2.427835 0.666595 -1.077893
v -2.423164 0.664945 -1.079082
v -2.422187 0.664602 -1.077216
v -2.414955 0.660537 -1.083127
v -2.414267 0.660042 -1.081297
v -2.416789 0.661764 -1.079686
v -2.417526 0.662253 -1.081607
v -2.418334 0.663113 -1.084137
v -2.415716 0.661378 -1.085541
v -2.413234 0.659451 -1.086988
v -2.412551 0.658714 -1.084850
v -2.411923 0.658290 -1.083230
v -2.416210 0.662509 -1.087905
v -2.418839 0.664316 -1.086606
v -2.419083 0.665370 -1.088423
v -2.416460 0.663488 -1.089650
v -2.413864 0.661341 -1.090623
v -2.413661 0.660460 -1.089080
v -2.421656 0.665817 -1.085296
v -2.421185 0.664540 -1.082800
v -2.421844 0.666971 -1.087122
v -2.420323 0.663722 -1.080218
v -2.419515 0.663309 -1.078248
v -2.410253 0.656922 -1.086850
v -2.409732 0.656657 -1.085629
v -2.410795 0.657443 -1.088457
v -2.408961 0.655931 -1.089562
v -2.408549 0.655614 -1.088452
v -2.408638 0.655825 -1.087280
v -2.411085 0.658230 -1.090020
v -2.411186 0.658942 -1.091166
v -2.409660 0.657431 -1.091170
v -2.409121 0.656513 -1.090629
v -2.409508 0.656638 -1.085225
v -2.408077 0.655537 -1.087564
v -2.411664 0.658218 -1.082691
v -2.408638 0.655825 -1.087280
v -2.408408 0.656001 -1.090813
v -2.409091 0.657131 -1.091426
v -2.408293 0.655491 -1.089919
v -2.409660 0.657431 -1.091170
v -2.426330 0.669069 -1.084892
v -2.427924 0.668965 -1.083255
v -2.424381 0.668581 -1.086320
v -2.427817 0.668667 -1.083131
v -2.428460 0.666898 -1.077739
v -2.426208 0.666267 -1.076718
v -2.429847 0.667550 -1.079283
v -2.426217 0.666152 -1.077038
v -2.424079 0.665532 -1.076319
v -2.421828 0.664567 -1.076593
v -2.407928 0.655245 -1.088982
v -2.411161 0.659237 -1.091522
v -2.413874 0.661693 -1.091112
v -2.429383 0.668349 -1.081254
v -2.421860 0.667419 -1.087697
v -2.419113 0.665783 -1.088999
v -2.419207 0.663248 -1.077590
v -2.416500 0.661675 -1.079044
v -2.413990 0.659948 -1.080688
v -2.416488 0.663875 -1.090204
vn 0.431600 0.781600 0.450200
vn 0.370600 0.888800 0.269500
vn 0.423800 0.871100 0.248200
vn 0.480700 0.775500 0.409300
vn 0.500900 0.771600 0.391900
vn 0.430700 0.786000 0.443500
vn 0.378900 0.792900 0.477200
vn 0.341100 0.826200 0.448300
vn 0.285100 0.910100 0.300700
vn 0.329400 0.942200 0.061300
vn 0.332300 0.940700 0.068600
vn 0.414000 0.908200 0.061100
vn 0.389400 0.919000 0.061500
vn 0.257700 0.957300 0.130600
vn 0.273100 0.959100 0.074600
vn 0.600600 0.797900 0.050600
vn 0.617600 0.782300 0.080800
vn 0.641900 0.763600 0.070100
vn 0.622400 0.782100 0.029600
vn 0.661500 0.738400 0.131000
vn 0.630600 0.761700 0.148800
vn 0.565000 0.804300 0.183600
vn 0.538300 0.839900 0.069600
vn 0.559900 0.823900 0.087400
vn 0.651800 0.717400 0.245900
vn 0.677400 0.695700 0.239100
vn 0.674300 0.712600 0.193700
vn 0.651400 0.729100 0.209800
vn 0.604700 0.753600 0.257800
vn 0.595800 0.749500 0.288600
vn 0.531600 0.771300 0.349900
vn 0.487900 0.844600 0.220500
vn 0.550700 0.768700 0.325100
vn 0.459100 0.885300 0.073700
vn 0.486100 0.870300 0.079000
vn 0.624300 0.781100 0.000200
vn 0.648900 0.759700 0.041600
vn 0.650800 0.759200 0.005400
vn 0.656100 0.753400 -0.043600
vn 0.714100 0.693000 0.098500
vn 0.675600 0.727000 0.122600
vn 0.691300 0.675800 0.255600
vn 0.733300 0.632000 0.250600
vn 0.708900 0.668000 0.226500
vn 0.691900 0.692000 0.205500
vn -0.456300 -0.758800 -0.464600
vn -0.385400 -0.884200 -0.263700
vn -0.441500 -0.864300 -0.240800
vn -0.524100 -0.685100 -0.505900
vn -0.554600 -0.594800 -0.581900
vn -0.545400 -0.615900 -0.568500
vn -0.542300 -0.663200 -0.515800
vn -0.484400 -0.766700 -0.421400
vn -0.423700 -0.871100 -0.248300
vn -0.341400 -0.939500 -0.026800
vn -0.351500 -0.920600 0.169900
vn -0.350400 -0.915800 0.196200
vn -0.371200 -0.925400 0.076400
vn -0.386000 -0.921300 -0.046700
vn -0.379300 -0.919300 0.104700
vn -0.594600 -0.803200 -0.036400
vn -0.548300 -0.833900 0.062100
vn -0.503400 -0.862500 0.050900
vn -0.533300 -0.844100 -0.055900
vn -0.565100 -0.804300 -0.183500
vn -0.630700 -0.761600 -0.148700
vn -0.661600 -0.738300 -0.131000
vn -0.613900 -0.789200 -0.013900
vn -0.540400 -0.837000 0.085700
vn -0.653500 -0.710600 -0.260600
vn -0.597900 -0.742500 -0.301900
vn -0.619900 -0.679500 -0.392400
vn -0.659500 -0.659200 -0.361200
vn -0.663000 -0.644400 -0.381100
vn -0.677700 -0.688900 -0.257000
vn -0.534000 -0.763900 -0.362300
vn -0.487900 -0.844600 -0.220500
vn -0.571600 -0.685000 -0.451600
vn -0.454600 -0.888600 -0.060100
vn -0.436400 -0.897500 0.063200
vn -0.601400 -0.798800 0.014700
vn -0.491500 -0.862500 0.120500
vn -0.667100 -0.733900 -0.127700
vn -0.628300 -0.763300 -0.150000
vn -0.521700 -0.851500 0.051500
vn -0.456700 -0.878800 0.138400
vn -0.680400 -0.674600 -0.286200
vn -0.638700 -0.631000 -0.440200
vn -0.618200 -0.624900 -0.476800
vn -0.634400 -0.674500 -0.377700
vn 0.611500 -0.394200 0.686100
vn 0.812300 -0.477500 0.334900
vn 0.497800 -0.361900 0.788100
vn -0.456700 -0.878800 0.138400
vn 0.658000 -0.434600 -0.614900
vn 0.496600 0.018800 -0.867800
vn 0.623900 -0.651100 -0.432300
vn -0.618200 -0.624900 -0.476800
vn -0.357200 0.713500 -0.602800
vn -0.587500 0.716400 -0.376300
vn -0.211300 0.641400 -0.737500
vn -0.554600 -0.594800 -0.581900
vn -0.630300 0.127800 0.765700
vn -0.237400 0.166300 0.957100
vn -0.921800 0.207500 0.327400
vn -0.350400 -0.915800 0.196200
vn 0.062800 0.053400 0.996600
vn 0.236900 -0.063000 0.969500
vn 0.769200 -0.609800 -0.190600
vn 0.184100 0.278000 -0.942800
vn 0.045400 0.349400 -0.935900
vn -0.862400 0.492400 -0.117800
vn -0.123900 0.556800 -0.821300
vn -0.083800 0.493400 -0.865700
vn 0.335300 -0.164800 0.927500
vn 0.378800 -0.233600 0.895500
vn 0.418500 -0.299900 0.857200
vn -0.043700 0.426800 -0.903300
vt 0.839504 0.118056
vt 0.856743 0.205307
vt 0.741230 0.205307
vt 0.734555 0.106726
vt 0.724541 0.032791
vt 0.813647 0.052618
vt 0.868992 0.081539
vt 0.913398 0.129584
vt 0.940923 0.205307
vt 0.839504 0.292557
vt 0.813647 0.357995
vt 0.724541 0.377822
vt 0.734555 0.303887
vt 0.913398 0.281029
vt 0.868992 0.329074
vt 0.369475 0.299954
vt 0.368286 0.370940
vt 0.245840 0.351447
vt 0.246397 0.288815
vt 0.246768 0.205307
vt 0.370268 0.205307
vt 0.494283 0.205307
vt 0.492822 0.304944
vt 0.490632 0.379672
vt 0.369475 0.110659
vt 0.246397 0.121798
vt 0.245841 0.059166
vt 0.368286 0.039673
vt 0.490632 0.030941
vt 0.492822 0.105669
vt 0.616755 0.103478
vt 0.619174 0.205307
vt 0.613127 0.027106
vt 0.616755 0.307135
vt 0.613126 0.383507
vt 0.123273 0.268175
vt 0.123047 0.315326
vt 0.054743 0.283353
vt 0.030912 0.249131
vt 0.030973 0.205306
vt 0.123423 0.205306
vt 0.123273 0.142438
vt 0.030912 0.161481
vt 0.054744 0.127260
vt 0.123047 0.095287
vt 0.839504 0.118056
vt 0.856743 0.205307
vt 0.968983 0.205307
vt 0.938030 0.133427
vt 0.876123 0.061548
vt 0.805028 0.030806
vt 0.721203 0.008146
vt 0.734555 0.106726
vt 0.741230 0.205307
vt 0.839504 0.292557
vt 0.805028 0.379807
vt 0.876123 0.349065
vt 0.938030 0.277186
vt 0.734555 0.303887
vt 0.721203 0.402467
vt 0.369475 0.299954
vt 0.367890 0.394602
vt 0.489902 0.404581
vt 0.492822 0.304944
vt 0.494283 0.205307
vt 0.370268 0.205307
vt 0.246768 0.205307
vt 0.246397 0.288815
vt 0.245655 0.372324
vt 0.369475 0.110659
vt 0.492822 0.105669
vt 0.489902 0.006032
vt 0.367890 0.016011
vt 0.245655 0.038289
vt 0.246397 0.121798
vt 0.616755 0.103478
vt 0.619174 0.205307
vt 0.611917 0.001649
vt 0.616755 0.307135
vt 0.611917 0.408964
vt 0.123273 0.268175
vt 0.122972 0.331043
vt 0.123423 0.205306
vt 0.000156 0.205306
vt 0.000125 0.242784
vt 0.000064 0.280261
vt 0.123273 0.142438
vt 0.122972 0.079570
vt 0.000064 0.130352
vt 0.000125 0.167829
vt 0.122972 0.331043
vt 0.030806 0.283587
vt 0.245655 0.372324
vt 0.030806 0.283587
vt 0.000125 0.167829
vt 0.030806 0.127026
vt 0.000156 0.205306
vt 0.030806 0.127026
vt 0.805028 0.030806
vt 0.873826 0.071832
vt 0.721203 0.008146
vt 0.873826 0.071832
vt 0.938030 0.277186
vt 0.873826 0.338781
vt 0.968983 0.205307
vt 0.873826 0.338781
vt 0.805028 0.379807
vt 0.721203 0.402467
vt 0.000125 0.242784
vt 0.122972 0.079570
vt 0.245655 0.038289
vt 0.938030 0.133427
vt 0.611917 0.001649
vt 0.489902 0.006032
vt 0.611917 0.408964
vt 0.489902 0.404581
vt 0.367890 0.394602
vt 0.367890 0.016011
f 1/1/1 2/2/2 3/3/3
f 1/1/1 3/3/3 4/4/4
f 1/1/1 4/4/4 5/5/5
f 1/1/1 5/5/5 6/6/6
f 1/1/1 6/6/6 7/7/7
f 1/1/1 7/7/7 8/8/8
f 1/1/1 8/8/8 9/9/9
f 1/1/1 9/9/9 2/2/2
f 10/10/10 11/11/11 12/12/12
f 10/10/10 12/12/12 13/13/13
f 10/10/10 13/13/13 3/3/3
f 10/10/10 3/3/3 2/2/2
f 10/10/10 2/2/2 9/9/9
f 10/10/10 9/9/9 14/14/14
f 10/10/10 14/14/14 15/15/15
f 10/10/10 15/15/15 11/11/11
f 16/16/16 17/17/17 18/18/18
f 16/16/16 18/18/18 19/19/19
f 16/16/16 19/19/19 20/20/20
f 16/16/16 20/20/20 21/21/21
f 16/16/16 21/21/21 22/22/22
f 16/16/16 22/22/22 23/23/23
f 16/16/16 23/23/23 24/24/24
f 16/16/16 24/24/24 17/17/17
f 25/25/25 21/21/21 20/20/20
f 25/25/25 20/20/20 26/26/26
f 25/25/25 26/26/26 27/27/27
f 25/25/25 27/27/27 28/28/28
f 25/25/25 28/28/28 29/29/29
f 25/25/25 29/29/29 30/30/30
f 25/25/25 30/30/30 22/22/22
f 25/25/25 22/22/22 21/21/21
f 31/31/31 32/32/32 22/22/22
f 31/31/31 22/22/22 30/30/30
f 31/31/31 30/30/30 29/29/29
f 31/31/31 29/29/29 33/33/33
f 31/31/31 33/33/33 5/5/5
f 31/31/31 5/5/5 4/4/4
f 31/31/31 4/4/4 3/3/3
f 31/31/31 3/3/3 32/32/32
f 34/34/34 35/35/35 24/24/24
f 34/34/34 24/24/24 23/23/23
f 34/34/34 23/23/23 22/22/22
f 34/34/34 22/22/22 32/32/32
f 34/34/34 32/32/32 3/3/3
f 34/34/34 3/3/3 13/13/13
f 34/34/34 13/13/13 12/12/12
f 34/34/34 12/12/12 35/35/35
f 36/36/36 37/37/37 38/38/38
f 36/36/36 38/38/38 39/39/39
f 36/36/36 39/39/39 40/40/40
f 36/36/36 40/40/40 41/41/41
f 36/36/36 41/41/41 20/20/20
f 36/36/36 20/20/20 19/19/19
f 36/36/36 19/19/19 18/18/18
f 36/36/36 18/18/18 37/37/37
f 42/42/42 41/41/41 40/40/40
f 42/42/42 40/40/40 43/43/43
f 42/42/42 43/43/43 44/44/44
f 42/42/42 44/44/44 45/45/45
f 42/42/42 45/45/45 27/27/27
f 42/42/42 27/27/27 26/26/26
f 42/42/42 26/26/26 20/20/20
f 42/42/42 20/20/20 41/41/41
f 46/46/46 47/47/47 48/48/48
f 46/46/46 48/48/48 49/49/49
f 46/46/46 49/49/49 50/50/50
f 46/46/46 50/50/50 51/51/51
f 46/46/46 51/51/51 52/52/52
f 46/46/46 52/52/52 53/53/53
f 46/46/46 53/53/53 54/54/54
f 46/46/46 54/54/54 47/47/47
f 55/55/55 56/56/56 57/57/57
f 55/55/55 57/57/57 58/58/58
f 55/55/55 58/58/58 48/48/48
f 55/55/55 48/48/48 47/47/47
f 55/55/55 47/47/47 54/54/54
f 55/55/55 54/54/54 59/59/59
f 55/55/55 59/59/59 60/60/60
f 55/55/55 60/60/60 56/56/56
f 61/61/61 62/62/62 63/63/63
f 61/61/61 63/63/63 64/64/64
f 61/61/61 64/64/64 65/65/65
f 61/61/61 65/65/65 66/66/66
f 61/61/61 66/66/66 67/67/67
f 61/61/61 67/67/67 68/68/68
f 61/61/61 68/68/68 69/69/69
f 61/61/61 69/69/69 62/62/62
f 70/70/70 66/66/66 65/65/65
f 70/70/70 65/65/65 71/71/71
f 70/70/70 71/71/71 72/72/72
f 70/70/70 72/72/72 73/73/73
f 70/70/70 73/73/73 74/74/74
f 70/70/70 74/74/74 75/75/75
f 70/70/70 75/75/75 67/67/67
f 70/70/70 67/67/67 66/66/66
f 76/76/76 77/77/77 54/54/54
f 76/76/76 54/54/54 53/53/53
f 76/76/76 53/53/53 52/52/52
f 76/76/76 52/52/52 78/78/78
f 76/76/76 78/78/78 72/72/72
f 76/76/76 72/72/72 71/71/71
f 76/76/76 71/71/71 65/65/65
f 76/76/76 65/65/65 77/77/77
f 79/79/79 80/80/80 60/60/60
f 79/79/79 60/60/60 59/59/59
f 79/79/79 59/59/59 54/54/54
f 79/79/79 54/54/54 77/77/77
f 79/79/79 77/77/77 65/65/65
f 79/79/79 65/65/65 64/64/64
f 79/79/79 64/64/64 63/63/63
f 79/79/79 63/63/63 80/80/80
f 81/81/81 82/82/82 69/69/69
f 81/81/81 69/69/69 68/68/68
f 81/81/81 68/68/68 67/67/67
f 81/81/81 67/67/67 83/83/83
f 81/81/81 83/83/83 84/84/84
f 81/81/81 84/84/84 85/85/85
f 81/81/81 85/85/85 86/86/86
f 81/81/81 86/86/86 82/82/82
f 87/87/87 83/83/83 67/67/67
f 87/87/87 67/67/67 75/75/75
f 87/87/87 75/75/75 74/74/74
f 87/87/87 74/74/74 88/88/88
f 87/87/87 88/88/88 89/89/89
f 87/87/87 89/89/89 90/90/90
f 87/87/87 90/90/90 84/84/84
f 87/87/87 84/84/84 83/83/83
f 91/91/91 92/92/92 38/38/38
f 91/91/91 38/38/38 37/37/37
f 91/91/91 37/37/37 18/18/18
f 91/91/91 18/18/18 93/93/93
f 91/91/91 93/93/93 69/69/69
f 91/91/91 69/69/69 82/82/82
f 91/91/91 82/82/82 94/94/94
f 91/91/91 94/94/94 92/92/92
f 95/95/95 96/96/96 44/44/44
f 95/95/95 44/44/44 43/43/43
f 95/95/95 43/43/43 40/40/40
f 95/95/95 40/40/40 97/97/97
f 95/95/95 97/97/97 84/84/84
f 95/95/95 84/84/84 90/90/90
f 95/95/95 90/90/90 98/98/98
f 95/95/95 98/98/98 96/96/96
f 99/99/99 100/100/100 7/7/7
f 99/99/99 7/7/7 6/6/6
f 99/99/99 6/6/6 5/5/5
f 99/99/99 5/5/5 101/101/101
f 99/99/99 101/101/101 52/52/52
f 99/99/99 52/52/52 51/51/51
f 99/99/99 51/51/51 102/102/102
f 99/99/99 102/102/102 100/100/100
f 103/103/103 104/104/104 15/15/15
f 103/103/103 15/15/15 14/14/14
f 103/103/103 14/14/14 9/9/9
f 103/103/103 9/9/9 105/105/105
f 103/103/103 105/105/105 48/48/48
f 103/103/103 48/48/48 58/58/58
f 103/103/103 58/58/58 106/106/106
f 103/103/103 106/106/106 104/104/104
f 107/107/107 108/108/108 12/12/12
f 107/107/107 12/12/12 11/11/11
f 107/107/107 11/11/11 15/15/15
f 107/107/107 15/15/15 104/104/104
f 107/107/107 104/104/104 106/106/106
f 107/107/107 106/106/106 56/56/56
f 107/107/107 56/56/56 60/60/60
f 107/107/107 60/60/60 108/108/108
f 109/109/109 97/97/97 40/40/40
f 109/109/109 40/40/40 39/39/39
f 109/109/109 39/39/39 38/38/38
f 109/109/109 38/38/38 92/92/92
f 109/109/109 92/92/92 94/94/94
f 109/109/109 94/94/94 85/85/85
f 109/109/109 85/85/85 84/84/84
f 109/109/109 84/84/84 97/97/97
f 110/110/110 111/111/111 27/27/27
f 110/110/110 27/27/27 45/45/45
f 110/110/110 45/45/45 44/44/44
f 110/110/110 44/44/44 96/96/96
f 110/110/110 96/96/96 98/98/98
f 110/110/110 98/98/98 88/88/88
f 110/110/110 88/88/88 74/74/74
f 110/110/110 74/74/74 111/111/111
f 112/112/112 105/105/105 9/9/9
f 112/112/112 9/9/9 8/8/8
f 112/112/112 8/8/8 7/7/7
f 112/112/112 7/7/7 100/100/100
f 112/112/112 100/100/100 102/102/102
f 112/112/112 102/102/102 49/49/49
f 112/112/112 49/49/49 48/48/48
f 112/112/112 48/48/48 105/105/105
f 113/113/113 101/101/101 5/5/5
f 113/113/113 5/5/5 33/33/33
f 113/113/113 33/33/33 29/29/29
f 113/113/113 29/29/29 114/114/114
f 113/113/113 114/114/114 72/72/72
f 113/113/113 72/72/72 78/78/78
f 113/113/113 78/78/78 52/52/52
f 113/113/113 52/52/52 101/101/101
f 115/115/115 116/116/116 24/24/24
f 115/115/115 24/24/24 35/35/35
f 115/115/115 35/35/35 12/12/12
f 115/115/115 12/12/12 108/108/108
f 115/115/115 108/108/108 60/60/60
f 115/115/115 60/60/60 80/80/80
f 115/115/115 80/80/80 63/63/63
f 115/115/115 63/63/63 116/116/116
f 117/117/117 93/93/93 18/18/18
f 117/117/117 18/18/18 17/17/17
f 117/117/117 17/17/17 24/24/24
f 117/117/117 24/24/24 116/116/116
f 117/117/117 116/116/116 63/63/63
f 117/117/117 63/63/63 62/62/62
f 117/117/117 62/62/62 69/69/69
f 117/117/117 69/69/69 93/93/93
f 118/118/118 114/114/114 29/29/29
f 118/118/118 29/29/29 28/28/28
f 118/118/118 28/28/28 27/27/27
f 118/118/118 27/27/27 111/111/111
f 118/118/118 111/111/111 74/74/74
f 118/118/118 74/74/74 73/73/73
f 118/118/118 73/73/73 72/72/72
f 118/118/118 72/72/72 114/114/114
