v -2.303241 0.773405 -1.242051
v -2.304358 0.773634 -1.243286
v -2.305565 0.772494 -1.241785
v -2.304155 0.772321 -1.240570
v -2.303175 0.772272 -1.239504
v -2.302564 0.773247 -1.240862
v -2.302400 0.773753 -1.241965
v -2.302630 0.774109 -1.243178
v -2.303461 0.774404 -1.244426
v -2.305928 0.773945 -1.243801
v -2.307276 0.774193 -1.243933
v -2.308529 0.773348 -1.242992
v -2.307209 0.772934 -1.242560
v -2.304956 0.774576 -1.244693
v -2.306216 0.774520 -1.244452
v -2.310699 0.768377 -1.238539
v -2.311887 0.768713 -1.239142
v -2.312669 0.766839 -1.237839
v -2.311614 0.766536 -1.237313
v -2.310246 0.766192 -1.236543
v -2.309157 0.767993 -1.237660
v -2.308020 0.769677 -1.238885
v -2.309638 0.770091 -1.239794
v -2.310888 0.770462 -1.240408
v -2.307707 0.767776 -1.236589
v -2.308968 0.766004 -1.235589
v -2.308031 0.765907 -1.234817
v -2.306643 0.767660 -1.235726
v -2.305403 0.769360 -1.236835
v -2.306507 0.769463 -1.237754
v -2.305283 0.770992 -1.239110
v -2.306805 0.771177 -1.240289
v -2.304184 0.770937 -1.238128
v -2.308460 0.771630 -1.241179
v -2.309750 0.772055 -1.241755
v -2.312352 0.764617 -1.236017
v -2.313155 0.764866 -1.236381
v -2.313210 0.763682 -1.235505
v -2.312834 0.763135 -1.235035
v -2.312114 0.762923 -1.234685
v -2.311321 0.764342 -1.235464
v -2.310377 0.764220 -1.234730
v -2.311481 0.762863 -1.234154
v -2.310775 0.763192 -1.233918
v -2.309691 0.764171 -1.234125
v -2.303189 0.773258 -1.242131
v -2.304326 0.773489 -1.243380
v -2.303438 0.774293 -1.244494
v -2.302591 0.773997 -1.243235
v -2.302366 0.773670 -1.242005
v -2.302515 0.773136 -1.240915
v -2.303125 0.772164 -1.239562
v -2.304101 0.772177 -1.240656
v -2.305530 0.772353 -1.241883
v -2.305917 0.773806 -1.243908
v -2.307278 0.774092 -1.244018
v -2.306216 0.774444 -1.244513
v -2.304950 0.774471 -1.244772
v -2.307191 0.772798 -1.242670
v -2.308524 0.773249 -1.243080
v -2.310660 0.768260 -1.238665
v -2.311864 0.768627 -1.239240
v -2.310869 0.770371 -1.240503
v -2.309604 0.769968 -1.239915
v -2.307972 0.769550 -1.238998
v -2.309104 0.767873 -1.237778
v -2.310190 0.766077 -1.236665
v -2.311571 0.766424 -1.237443
v -2.312644 0.766756 -1.237940
v -2.307641 0.767654 -1.236698
v -2.306446 0.769333 -1.237858
v -2.305350 0.769262 -1.236907
v -2.306588 0.767567 -1.235803
v -2.307973 0.765818 -1.234897
v -2.308898 0.765887 -1.235701
v -2.305226 0.770855 -1.239205
v -2.306763 0.771042 -1.240394
v -2.304133 0.770834 -1.238193
v -2.308434 0.771500 -1.241295
v -2.309739 0.771960 -1.241845
v -2.312309 0.764507 -1.236149
v -2.313129 0.764786 -1.236484
v -2.311263 0.764229 -1.235587
v -2.312071 0.762839 -1.234777
v -2.312802 0.763053 -1.235134
v -2.313190 0.763622 -1.235580
v -2.310306 0.764105 -1.234844
v -2.309631 0.764083 -1.234205
v -2.310733 0.763128 -1.233979
v -2.311427 0.762777 -1.234238
v -2.313413 0.764914 -1.236549
v -2.313421 0.763316 -1.235299
v -2.313011 0.766904 -1.238060
v -2.313190 0.763622 -1.235580
v -2.311824 0.762372 -1.233999
v -2.310982 0.762826 -1.233710
v -2.312359 0.762413 -1.234466
v -2.310733 0.763128 -1.233979
v -2.302314 0.773144 -1.240488
v -2.302197 0.773800 -1.241910
v -2.302824 0.772208 -1.239173
v -2.302366 0.773670 -1.242005
v -2.304630 0.774739 -1.245025
v -2.306326 0.774629 -1.244601
v -2.303152 0.774611 -1.244836
v -2.306216 0.774444 -1.244513
v -2.307729 0.774232 -1.244016
v -2.308969 0.773442 -1.243176
v -2.312981 0.762605 -1.234752
v -2.309434 0.764115 -1.233958
v -2.307692 0.765835 -1.234594
v -2.302409 0.774293 -1.243579
v -2.303793 0.770873 -1.237828
v -2.305009 0.769282 -1.236559
v -2.310177 0.772155 -1.241988
v -2.311298 0.770545 -1.240656
v -2.312274 0.768788 -1.239388
v -2.306263 0.767580 -1.235471
vn -0.339400 0.858900 0.383600
vn -0.152900 0.853700 0.497800
vn -0.185100 0.822600 0.537700
vn -0.353300 0.826800 0.437600
vn -0.359100 0.812400 0.459400
vn -0.333500 0.858800 0.389000
vn -0.312900 0.887700 0.337700
vn -0.257200 0.902700 0.344700
vn -0.101600 0.896000 0.432300
vn 0.018300 0.787000 0.616700
vn 0.011400 0.789500 0.613600
vn -0.054600 0.751200 0.657800
vn -0.033400 0.762600 0.646000
vn 0.034900 0.844000 0.535200
vn 0.057400 0.813300 0.579000
vn -0.221200 0.637600 0.737900
vn -0.256600 0.639700 0.724500
vn -0.274000 0.616200 0.738400
vn -0.229700 0.610900 0.757600
vn -0.332900 0.627000 0.704300
vn -0.313200 0.658800 0.683900
vn -0.272000 0.719200 0.639300
vn -0.173100 0.688300 0.704500
vn -0.204900 0.682900 0.701100
vn -0.400700 0.673600 0.621000
vn -0.422400 0.649700 0.632000
vn -0.387600 0.638900 0.664400
vn -0.375200 0.663500 0.647200
vn -0.361600 0.714400 0.599000
vn -0.374600 0.728800 0.573200
vn -0.356800 0.786200 0.504500
vn -0.224300 0.779700 0.584600
vn -0.357100 0.768800 0.530500
vn -0.102700 0.735200 0.669900
vn -0.130600 0.723300 0.678000
vn -0.214000 0.593800 0.775600
vn -0.263600 0.596600 0.757900
vn -0.243800 0.576200 0.780100
vn -0.220000 0.543900 0.809700
vn -0.366700 0.566900 0.737600
vn -0.342000 0.611600 0.713400
vn -0.448800 0.641000 0.622600
vn -0.490900 0.598000 0.633500
vn -0.446900 0.616600 0.648100
vn -0.414300 0.626700 0.660000
vn 0.373500 -0.845600 -0.381300
vn 0.161800 -0.845400 -0.509000
vn 0.195900 -0.811300 -0.550800
vn 0.471400 -0.801200 -0.368400
vn 0.567800 -0.765300 -0.303000
vn 0.546300 -0.776300 -0.314400
vn 0.497700 -0.786900 -0.364800
vn 0.365900 -0.825900 -0.428900
vn 0.185000 -0.822700 -0.537600
vn -0.029200 -0.764700 -0.643700
vn -0.132800 -0.639900 -0.756800
vn -0.147900 -0.621600 -0.769200
vn -0.064200 -0.693600 -0.717400
vn 0.021300 -0.756700 -0.653400
vn -0.073100 -0.672200 -0.736700
vn 0.206600 -0.634500 -0.744700
vn 0.104000 -0.610000 -0.785500
vn 0.068500 -0.643800 -0.762100
vn 0.160000 -0.684600 -0.711100
vn 0.272100 -0.719100 -0.639400
vn 0.313300 -0.658700 -0.684000
vn 0.333000 -0.626900 -0.704300
vn 0.211900 -0.608900 -0.764400
vn 0.083300 -0.600200 -0.795500
vn 0.412900 -0.676000 -0.610300
vn 0.386300 -0.730100 -0.563700
vn 0.476400 -0.725600 -0.496400
vn 0.493400 -0.688200 -0.531900
vn 0.512400 -0.686500 -0.515900
vn 0.435600 -0.653800 -0.618600
vn 0.368300 -0.786700 -0.495400
vn 0.224300 -0.779700 -0.584600
vn 0.474200 -0.767100 -0.432000
vn 0.090400 -0.730900 -0.676500
vn 0.000600 -0.672000 -0.740600
vn 0.182600 -0.602200 -0.777100
vn 0.018400 -0.606500 -0.794900
vn 0.336500 -0.621000 -0.707900
vn 0.311800 -0.661100 -0.682400
vn 0.085200 -0.632800 -0.769600
vn -0.023200 -0.613300 -0.789500
vn 0.459500 -0.657800 -0.596800
vn 0.534000 -0.710000 -0.459000
vn 0.542600 -0.726900 -0.421000
vn 0.479900 -0.712000 -0.512500
vn -0.984700 -0.003100 -0.174000
vn -0.950500 -0.283100 0.127700
vn -0.951400 0.089700 -0.294700
vn -0.023200 -0.613300 -0.789500
vn -0.257800 -0.757300 0.600000
vn 0.154900 -0.506600 0.848100
vn -0.409300 -0.833400 0.371300
vn 0.542600 -0.726900 -0.421000
vn 0.848400 0.291900 0.441600
vn 0.884600 0.439200 0.156700
vn 0.798000 0.145200 0.584900
vn 0.567800 -0.765300 -0.303000
vn 0.050400 0.583000 -0.810900
vn -0.342100 0.685600 -0.642500
vn 0.551500 0.433500 -0.712700
vn -0.147900 -0.621600 -0.769200
vn -0.622500 0.587500 -0.516900
vn -0.771800 0.460800 -0.438100
vn -0.647600 -0.678800 0.346200
vn 0.513000 -0.305100 0.802400
vn 0.633800 -0.229800 0.738500
vn 0.862900 0.419800 -0.281300
vn 0.756600 0.021100 0.653500
vn 0.733500 -0.059200 0.677100
vn -0.852100 0.344100 -0.394200
vn -0.886800 0.265700 -0.378200
vn -0.914300 0.186100 -0.359600
vn 0.705000 -0.139300 0.695400
vt 0.839504 0.118056
vt 0.856743 0.205307
vt 0.741230 0.205307
vt 0.734555 0.106726
vt 0.724541 0.032791
vt 0.813647 0.052618
vt 0.868992 0.081539
vt 0.913398 0.129584
vt 0.940923 0.205307
vt 0.839504 0.292557
vt 0.813647 0.357995
vt 0.724541 0.377822
vt 0.734555 0.303887
vt 0.913398 0.281029
vt 0.868992 0.329074
vt 0.369475 0.299954
vt 0.368286 0.370940
vt 0.245840 0.351447
vt 0.246397 0.288815
vt 0.246768 0.205307
vt 0.370268 0.205307
vt 0.494283 0.205307
vt 0.492822 0.304944
vt 0.490632 0.379672
vt 0.369475 0.110659
vt 0.246397 0.121798
vt 0.245841 0.059166
vt 0.368286 0.039673
vt 0.490632 0.030941
vt 0.492822 0.105669
vt 0.616755 0.103478
vt 0.619174 0.205307
vt 0.613127 0.027106
vt 0.616755 0.307135
vt 0.613126 0.383507
vt 0.123273 0.268175
vt 0.123047 0.315326
vt 0.054743 0.283353
vt 0.030912 0.249131
vt 0.030973 0.205306
vt 0.123423 0.205306
vt 0.123273 0.142438
vt 0.030912 0.161481
vt 0.054744 0.127260
vt 0.123047 0.095287
vt 0.839504 0.118056
vt 0.856743 0.205307
vt 0.968983 0.205307
vt 0.938030 0.133427
vt 0.876123 0.061548
vt 0.805028 0.030806
vt 0.721203 0.008146
vt 0.734555 0.106726
vt 0.741230 0.205307
vt 0.839504 0.292557
vt 0.805028 0.379807
vt 0.876123 0.349065
vt 0.938030 0.277186
vt 0.734555 0.303887
vt 0.721203 0.402467
vt 0.369475 0.299954
vt 0.367890 0.394602
vt 0.489902 0.404581
vt 0.492822 0.304944
vt 0.494283 0.205307
vt 0.370268 0.205307
vt 0.246768 0.205307
vt 0.246397 0.288815
vt 0.245655 0.372324
vt 0.369475 0.110659
vt 0.492822 0.105669
vt 0.489902 0.006032
vt 0.367890 0.016011
vt 0.245655 0.038289
vt 0.246397 0.121798
vt 0.616755 0.103478
vt 0.619174 0.205307
vt 0.611917 0.001649
vt 0.616755 0.307135
vt 0.611917 0.408964
vt 0.123273 0.268175
vt 0.122972 0.331043
vt 0.123423 0.205306
vt 0.000156 0.205306
vt 0.000125 0.242784
vt 0.000064 0.280261
vt 0.123273 0.142438
vt 0.122972 0.079570
vt 0.000064 0.130352
vt 0.000125 0.167829
vt 0.122972 0.331043
vt 0.030806 0.283587
vt 0.245655 0.372324
vt 0.030806 0.283587
vt 0.000125 0.167829
vt 0.030806 0.127026
vt 0.000156 0.205306
vt 0.030806 0.127026
vt 0.805028 0.030806
vt 0.873826 0.071832
vt 0.721203 0.008146
vt 0.873826 0.071832
vt 0.938030 0.277186
vt 0.873826 0.338781
vt 0.968983 0.205307
vt 0.873826 0.338781
vt 0.805028 0.379807
vt 0.721203 0.402467
vt 0.000125 0.242784
vt 0.122972 0.079570
vt 0.245655 0.038289
vt 0.938030 0.133427
vt 0.611917 0.001649
vt 0.489902 0.006032
vt 0.611917 0.408964
vt 0.489902 0.404581
vt 0.367890 0.394602
vt 0.367890 0.016011
f 1/1/1 2/2/2 3/3/3
f 1/1/1 3/3/3 4/4/4
f 1/1/1 4/4/4 5/5/5
f 1/1/1 5/5/5 6/6/6
f 1/1/1 6/6/6 7/7/7
f 1/1/1 7/7/7 8/8/8
f 1/1/1 8/8/8 9/9/9
f 1/1/1 9/9/9 2/2/2
f 10/10/10 11/11/11 12/12/12
f 10/10/10 12/12/12 13/13/13
f 10/10/10 13/13/13 3/3/3
f 10/10/10 3/3/3 2/2/2
f 10/10/10 2/2/2 9/9/9
f 10/10/10 9/9/9 14/14/14
f 10/10/10 14/14/14 15/15/15
f 10/10/10 15/15/15 11/11/11
f 16/16/16 17/17/17 18/18/18
f 16/16/16 18/18/18 19/19/19
f 16/16/16 19/19/19 20/20/20
f 16/16/16 20/20/20 21/21/21
f 16/16/16 21/21/21 22/22/22
f 16/16/16 22/22/22 23/23/23
f 16/16/16 23/23/23 24/24/24
f 16/16/16 24/24/24 17/17/17
f 25/25/25 21/21/21 20/20/20
f 25/25/25 20/20/20 26/26/26
f 25/25/25 26/26/26 27/27/27
f 25/25/25 27/27/27 28/28/28
f 25/25/25 28/28/28 29/29/29
f 25/25/25 29/29/29 30/30/30
f 25/25/25 30/30/30 22/22/22
f 25/25/25 22/22/22 21/21/21
f 31/31/31 32/32/32 22/22/22
f 31/31/31 22/22/22 30/30/30
f 31/31/31 30/30/30 29/29/29
f 31/31/31 29/29/29 33/33/33
f 31/31/31 33/33/33 5/5/5
f 31/31/31 5/5/5 4/4/4
f 31/31/31 4/4/4 3/3/3
f 31/31/31 3/3/3 32/32/32
f 34/34/34 35/35/35 24/24/24
f 34/34/34 24/24/24 23/23/23
f 34/34/34 23/23/23 22/22/22
f 34/34/34 22/22/22 32/32/32
f 34/34/34 32/32/32 3/3/3
f 34/34/34 3/3/3 13/13/13
f 34/34/34 13/13/13 12/12/12
f 34/34/34 12/12/12 35/35/35
f 36/36/36 37/37/37 38/38/38
f 36/36/36 38/38/38 39/39/39
f 36/36/36 39/39/39 40/40/40
f 36/36/36 40/40/40 41/41/41
f 36/36/36 41/41/41 20/20/20
f 36/36/36 20/20/20 19/19/19
f 36/36/36 19/19/19 18/18/18
f 36/36/36 18/18/18 37/37/37
f 42/42/42 41/41/41 40/40/40
f 42/42/42 40/40/40 43/43/43
f 42/42/42 43/43/43 44/44/44
f 42/42/42 44/44/44 45/45/45
f 42/42/42 45/45/45 27/27/27
f 42/42/42 27/27/27 26/26/26
f 42/42/42 26/26/26 20/20/20
f 42/42/42 20/20/20 41/41/41
f 46/46/46 47/47/47 48/48/48
f 46/46/46 48/48/48 49/49/49
f 46/46/46 49/49/49 50/50/50
f 46/46/46 50/50/50 51/51/51
f 46/46/46 51/51/51 52/52/52
f 46/46/46 52/52/52 53/53/53
f 46/46/46 53/53/53 54/54/54
f 46/46/46 54/54/54 47/47/47
f 55/55/55 56/56/56 57/57/57
f 55/55/55 57/57/57 58/58/58
f 55/55/55 58/58/58 48/48/48
f 55/55/55 48/48/48 47/47/47
f 55/55/55 47/47/47 54/54/54
f 55/55/55 54/54/54 59/59/59
f 55/55/55 59/59/59 60/60/60
f 55/55/55 60/60/60 56/56/56
f 61/61/61 62/62/62 63/63/63
f 61/61/61 63/63/63 64/64/64
f 61/61/61 64/64/64 65/65/65
f 61/61/61 65/65/65 66/66/66
f 61/61/61 66/66/66 67/67/67
f 61/61/61 67/67/67 68/68/68
f 61/61/61 68/68/68 69/69/69
f 61/61/61 69/69/69 62/62/62
f 70/70/70 66/66/66 65/65/65
f 70/70/70 65/65/65 71/71/71
f 70/70/70 71/71/71 72/72/72
f 70/70/70 72/72/72 73/73/73
f 70/70/70 73/73/73 74/74/74
f 70/70/70 74/74/74 75/75/75
f 70/70/70 75/75/75 67/67/67
f 70/70/70 67/67/67 66/66/66
f 76/76/76 77/77/77 54/54/54
f 76/76/76 54/54/54 53/53/53
f 76/76/76 53/53/53 52/52/52
f 76/76/76 52/52/52 78/78/78
f 76/76/76 78/78/78 72/72/72
f 76/76/76 72/72/72 71/71/71
f 76/76/76 71/71/71 65/65/65
f 76/76/76 65/65/65 77/77/77
f 79/79/79 80/80/80 60/60/60
f 79/79/79 60/60/60 59/59/59
f 79/79/79 59/59/59 54/54/54
f 79/79/79 54/54/54 77/77/77
f 79/79/79 77/77/77 65/65/65
f 79/79/79 65/65/65 64/64/64
f 79/79/79 64/64/64 63/63/63
f 79/79/79 63/63/63 80/80/80
f 81/81/81 82/82/82 69/69/69
f 81/81/81 69/69/69 68/68/68
f 81/81/81 68/68/68 67/67/67
f 81/81/81 67/67/67 83/83/83
f 81/81/81 83/83/83 84/84/84
f 81/81/81 84/84/84 85/85/85
f 81/81/81 85/85/85 86/86/86
f 81/81/81 86/86/86 82/82/82
f 87/87/87 83/83/83 67/67/67
f 87/87/87 67/67/67 75/75/75
f 87/87/87 75/75/75 74/74/74
f 87/87/87 74/74/74 88/88/88
f 87/87/87 88/88/88 89/89/89
f 87/87/87 89/89/89 90/90/90
f 87/87/87 90/90/90 84/84/84
f 87/87/87 84/84/84 83/83/83
f 91/91/91 92/92/92 38/38/38
f 91/91/91 38/38/38 37/37/37
f 91/91/91 37/37/37 18/18/18
f 91/91/91 18/18/18 93/93/93
f 91/91/91 93/93/93 69/69/69
f 91/91/91 69/69/69 82/82/82
f 91/91/91 82/82/82 94/94/94
f 91/91/91 94/94/94 92/92/92
f 95/95/95 96/96/96 44/44/44
f 95/95/95 44/44/44 43/43/43
f 95/95/95 43/43/43 40/40/40
f 95/95/95 40/40/40 97/97/97
f 95/95/95 97/97/97 84/84/84
f 95/95/95 84/84/84 90/90/90
f 95/95/95 90/90/90 98/98/98
f 95/95/95 98/98/98 96/96/96
f 99/99/99 100/100/100 7/7/7
f 99/99/99 7/7/7 6/6/6
f 99/99/99 6/6/6 5/5/5
f 99/99/99 5/5/5 101/101/101
f 99/99/99 101/101/101 52/52/52
f 99/99/99 52/52/52 51/51/51
f 99/99/99 51/51/51 102/102/102
f 99/99/99 102/102/102 100/100/100
f 103/103/103 104/104/104 15/15/15
f 103/103/103 15/15/15 14/14/14
f 103/103/103 14/14/14 9/9/9
f 103/103/103 9/9/9 105/105/105
f 103/103/103 105/105/105 48/48/48
f 103/103/103 48/48/48 58/58/58
f 103/103/103 58/58/58 106/106/106
f 103/103/103 106/106/106 104/104/104
f 107/107/107 108/108/108 12/12/12
f 107/107/107 12/12/12 11/11/11
f 107/107/107 11/11/11 15/15/15
f 107/107/107 15/15/15 104/104/104
f 107/107/107 104/104/104 106/106/106
f 107/107/107 106/106/106 56/56/56
f 107/107/107 56/56/56 60/60/60
f 107/107/107 60/60/60 108/108/108
f 109/109/109 97/97/97 40/40/40
f 109/109/109 40/40/40 39/39/39
f 109/109/109 39/39/39 38/38/38
f 109/109/109 38/38/38 92/92/92
f 109/109/109 92/92/92 94/94/94
f 109/109/109 94/94/94 85/85/85
f 109/109/109 85/85/85 84/84/84
f 109/109/109 84/84/84 97/97/97
f 110/110/110 111/111/111 27/27/27
f 110/110/110 27/27/27 45/45/45
f 110/110/110 45/45/45 44/44/44
f 110/110/110 44/44/44 96/96/96
f 110/110/110 96/96/96 98/98/98
f 110/110/110 98/98/98 88/88/88
f 110/110/110 88/88/88 74/74/74
f 110/110/110 74/74/74 111/111/111
f 112/112/112 105/105/105 9/9/9
f 112/112/112 9/9/9 8/8/8
f 112/112/112 8/8/8 7/7/7
f 112/112/112 7/7/7 100/100/100
f 112/112/112 100/100/100 102/102/102
f 112/112/112 102/102/102 49/49/49
f 112/112/112 49/49/49 48/48/48
f 112/112/112 48/48/48 105/105/105
f 113/113/113 101/101/101 5/5/5
f 113/113/113 5/5/5 33/33/33
f 113/113/113 33/33/33 29/29/29
f 113/113/113 29/29/29 114/114/114
f 113/113/113 114/114/114 72/72/72
f 113/113/113 72/72/72 78/78/78
f 113/113/113 78/78/78 52/52/52
f 113/113/113 52/52/52 101/101/101
f 115/115/115 116/116/116 24/24/24
f 115/115/115 24/24/24 35/35/35
f 115/115/115 35/35/35 12/12/12
f 115/115/115 12/12/12 108/108/108
f 115/115/115 108/108/108 60/60/60
f 115/115/115 60/60/60 80/80/80
f 115/115/115 80/80/80 63/63/63
f 115/115/115 63/63/63 116/116/116
f 117/117/117 93/93/93 18/18/18
f 117/117/117 18/18/18 17/17/17
f 117/117/117 17/17/17 24/24/24
f 117/117/117 24/24/24 116/116/116
f 117/117/117 116/116/116 63/63/63
f 117/117/117 63/63/63 62/62/62
f 117/117/117 62/62/62 69/69/69
f 117/117/117 69/69/69 93/93/93
f 118/118/118 114/114/114 29/29/29
f 118/118/118 29/29/29 28/28/28
f 118/118/118 28/28/28 27/27/27
f 118/118/118 27/27/27 111/111/111
f 118/118/118 111/111/111 74/74/74
f 118/118/118 74/74/74 73/73/73
f 118/118/118 73/73/73 72/72/72
f 118/118/118 72/72/72 114/114/114
