v -2.369845 0.694694 -1.124806
v -2.367549 0.694540 -1.123985
v -2.367214 0.693579 -1.127074
v -2.369861 0.693794 -1.127645
v -2.371836 0.694134 -1.128289
v -2.371535 0.694936 -1.125849
v -2.370915 0.695196 -1.124202
v -2.369745 0.695210 -1.122748
v -2.367795 0.695138 -1.121689
v -2.365145 0.694802 -1.124330
v -2.363292 0.695124 -1.125014
v -2.362473 0.694348 -1.127341
v -2.364519 0.693916 -1.127104
v -2.365677 0.695303 -1.122336
v -2.364240 0.695349 -1.123526
v -2.363555 0.689245 -1.136101
v -2.361575 0.689497 -1.136063
v -2.361778 0.687421 -1.138881
v -2.363531 0.687186 -1.138903
v -2.365853 0.686987 -1.139022
v -2.366181 0.689029 -1.136246
v -2.366517 0.690864 -1.133347
v -2.363770 0.691111 -1.133206
v -2.361697 0.691408 -1.133186
v -2.368790 0.689125 -1.136631
v -2.368159 0.687081 -1.139372
v -2.369889 0.687235 -1.139703
v -2.370746 0.689288 -1.136992
v -2.371290 0.691188 -1.134157
v -2.369245 0.690986 -1.133760
v -2.369631 0.692550 -1.130698
v -2.366865 0.692367 -1.130242
v -2.371704 0.692845 -1.131157
v -2.364076 0.692677 -1.130135
v -2.361969 0.693067 -1.130171
v -2.363792 0.685044 -1.141697
v -2.362480 0.685263 -1.141717
v -2.363203 0.683962 -1.143258
v -2.364094 0.683380 -1.143771
v -2.365285 0.683210 -1.143777
v -2.365527 0.684861 -1.141759
v -2.367246 0.684965 -1.142047
v -2.366461 0.683326 -1.144011
v -2.367462 0.683865 -1.143690
v -2.368537 0.685125 -1.142331
v -2.369883 0.694455 -1.124726
v -2.367552 0.694300 -1.123901
v -2.367797 0.694956 -1.121629
v -2.369776 0.695030 -1.122691
v -2.370945 0.695064 -1.124160
v -2.371581 0.694758 -1.125791
v -2.371878 0.693959 -1.128222
v -2.369896 0.693558 -1.127555
v -2.367218 0.693341 -1.126980
v -2.365112 0.694564 -1.124242
v -2.363250 0.694949 -1.124947
v -2.364214 0.695218 -1.123478
v -2.365651 0.695124 -1.122273
v -2.364492 0.693681 -1.127007
v -2.362436 0.694175 -1.127266
v -2.363542 0.689030 -1.135961
v -2.361554 0.689337 -1.135958
v -2.361673 0.691243 -1.133090
v -2.363753 0.690889 -1.133079
v -2.366524 0.690640 -1.133222
v -2.366190 0.688813 -1.136108
v -2.365863 0.686776 -1.138876
v -2.363518 0.686977 -1.138755
v -2.361757 0.687265 -1.138770
v -2.368821 0.688909 -1.136496
v -2.369276 0.690763 -1.133638
v -2.371326 0.691022 -1.134068
v -2.370781 0.689126 -1.136893
v -2.369925 0.687078 -1.139597
v -2.368192 0.686870 -1.139228
v -2.369664 0.692320 -1.130592
v -2.366871 0.692135 -1.130133
v -2.371742 0.692673 -1.131079
v -2.364054 0.692448 -1.130023
v -2.361938 0.692897 -1.130087
v -2.363778 0.684837 -1.141546
v -2.362457 0.685109 -1.141603
v -2.365538 0.684653 -1.141609
v -2.365293 0.683054 -1.143665
v -2.364082 0.683225 -1.143657
v -2.363189 0.683848 -1.143174
v -2.367281 0.684757 -1.141901
v -2.368575 0.684969 -1.142223
v -2.367487 0.683750 -1.143609
v -2.366488 0.683170 -1.143901
v -2.362029 0.685268 -1.141673
v -2.363135 0.683539 -1.143789
v -2.361182 0.687430 -1.138824
v -2.363189 0.683848 -1.143174
v -2.366211 0.682710 -1.144616
v -2.367402 0.683442 -1.144221
v -2.365208 0.682590 -1.144400
v -2.367487 0.683750 -1.143609
v -2.372123 0.694938 -1.126171
v -2.371203 0.695279 -1.124111
v -2.372517 0.694170 -1.128474
v -2.370945 0.695064 -1.124160
v -2.365843 0.695391 -1.121644
v -2.363981 0.695444 -1.123380
v -2.367878 0.695256 -1.120898
v -2.364214 0.695218 -1.123478
v -2.362652 0.695154 -1.125212
v -2.361771 0.694416 -1.127386
v -2.364189 0.682757 -1.144411
v -2.368987 0.685109 -1.142378
v -2.370485 0.687217 -1.139766
v -2.369726 0.695302 -1.122037
v -2.372415 0.692867 -1.131276
v -2.371991 0.691182 -1.134250
v -2.361250 0.693122 -1.130146
v -2.360993 0.691434 -1.133136
v -2.360903 0.689510 -1.136004
v -2.371417 0.689270 -1.137069
vn 0.223700 0.936300 -0.270600
vn 0.006300 0.960200 -0.279200
vn 0.012500 0.941800 -0.335900
vn 0.207000 0.920700 -0.330800
vn 0.200300 0.912900 -0.355500
vn 0.215900 0.937700 -0.272300
vn 0.225000 0.951000 -0.212100
vn 0.174700 0.966600 -0.187700
vn -0.003300 0.982000 -0.188800
vn -0.207000 0.926500 -0.314200
vn -0.199200 0.928200 -0.314400
vn -0.166100 0.904500 -0.392700
vn -0.178000 0.911900 -0.369800
vn -0.177100 0.958500 -0.223400
vn -0.220800 0.940800 -0.257300
vn -0.070500 0.819900 -0.568000
vn -0.032700 0.818800 -0.573100
vn -0.026600 0.800200 -0.599000
vn -0.075200 0.799900 -0.595300
vn 0.042000 0.802100 -0.595600
vn 0.037900 0.826800 -0.561100
vn 0.029500 0.871900 -0.488800
vn -0.091200 0.858700 -0.504200
vn -0.062300 0.853100 -0.518000
vn 0.145700 0.824900 -0.546200
vn 0.156700 0.805200 -0.571900
vn 0.109900 0.803400 -0.585100
vn 0.109900 0.822100 -0.558600
vn 0.126300 0.857400 -0.498800
vn 0.151400 0.864300 -0.479700
vn 0.174300 0.900200 -0.398900
vn 0.020100 0.914200 -0.404900
vn 0.160500 0.890700 -0.425300
vn -0.131400 0.893200 -0.429900
vn -0.112100 0.884400 -0.453000
vn -0.099400 0.788200 -0.607300
vn -0.047300 0.786700 -0.615400
vn -0.077500 0.772900 -0.629700
vn -0.115800 0.749700 -0.651500
vn 0.049000 0.754100 -0.654900
vn 0.043800 0.790000 -0.611500
vn 0.183300 0.794700 -0.578700
vn 0.210000 0.757100 -0.618500
vn 0.167100 0.778400 -0.605100
vn 0.134000 0.790900 -0.597100
vn -0.253100 -0.923500 0.288200
vn -0.008000 -0.955500 0.294900
vn -0.014500 -0.934800 0.354900
vn -0.339700 -0.878700 0.335300
vn -0.450400 -0.827600 0.335000
vn -0.427500 -0.841000 0.331700
vn -0.362800 -0.864300 0.348300
vn -0.222100 -0.917600 0.329700
vn -0.012500 -0.941800 0.335800
vn 0.231700 -0.912400 0.337400
vn 0.390000 -0.822200 0.414500
vn 0.411200 -0.807700 0.422400
vn 0.305200 -0.863900 0.400700
vn 0.192800 -0.908100 0.371700
vn 0.324400 -0.848600 0.417900
vn 0.086700 -0.818700 0.567600
vn 0.198600 -0.804900 0.559200
vn 0.215000 -0.830300 0.514000
vn 0.106100 -0.856900 0.504500
vn -0.029600 -0.871800 0.488900
vn -0.037900 -0.826700 0.561300
vn -0.042000 -0.802000 0.595800
vn 0.094300 -0.799600 0.593000
vn 0.222700 -0.797900 0.560000
vn -0.161600 -0.824400 0.542400
vn -0.166200 -0.863100 0.476900
vn -0.275900 -0.841500 0.464300
vn -0.270000 -0.815600 0.511700
vn -0.294000 -0.809800 0.507600
vn -0.174900 -0.805700 0.565800
vn -0.188700 -0.898400 0.396600
vn -0.020100 -0.914200 0.404800
vn -0.308800 -0.863500 0.398700
vn 0.145800 -0.890700 0.430500
vn 0.261400 -0.850500 0.456500
vn 0.126700 -0.796300 0.591500
vn 0.278600 -0.802900 0.527000
vn -0.042700 -0.797400 0.601900
vn -0.037600 -0.828500 0.558600
vn 0.205100 -0.822100 0.531100
vn 0.311800 -0.807300 0.501000
vn -0.206500 -0.803900 0.557800
vn -0.342100 -0.817000 0.464100
vn -0.369200 -0.822800 0.432000
vn -0.270000 -0.833000 0.482900
vn 0.945200 -0.037000 -0.324400
vn 0.742100 -0.223200 -0.631900
vn 0.982800 0.018400 -0.183400
vn 0.311800 -0.807300 0.501000
vn -0.142200 -0.557700 -0.817700
vn -0.589300 -0.253800 -0.767000
vn 0.088200 -0.692000 -0.716400
vn -0.369200 -0.822800 0.432000
vn -0.914700 0.390100 0.105700
vn -0.797100 0.452300 0.400100
vn -0.954200 0.289500 -0.075700
vn -0.450400 -0.827600 0.335000
vn 0.400400 0.335300 0.852700
vn 0.679300 0.486300 0.549600
vn -0.103400 0.211400 0.971900
vn 0.411200 -0.807700 0.422400
vn 0.856500 0.430500 0.284600
vn 0.935900 0.332700 0.115400
vn 0.328200 -0.547000 -0.770100
vn -0.858500 -0.077900 -0.506800
vn -0.926000 -0.025100 -0.376600
vn -0.577900 0.312800 0.753700
vn -0.964300 0.190000 -0.184300
vn -0.964500 0.119500 -0.235300
vn 0.972100 0.234100 0.011500
vn 0.985700 0.163700 -0.038200
vn 0.991900 0.092600 -0.086800
vn -0.957600 0.048300 -0.284000
vt 0.839504 0.118056
vt 0.856743 0.205307
vt 0.741230 0.205307
vt 0.734555 0.106726
vt 0.724541 0.032791
vt 0.813647 0.052618
vt 0.868992 0.081539
vt 0.913398 0.129584
vt 0.940923 0.205307
vt 0.839504 0.292557
vt 0.813647 0.357995
vt 0.724541 0.377822
vt 0.734555 0.303887
vt 0.913398 0.281029
vt 0.868992 0.329074
vt 0.369475 0.299954
vt 0.368286 0.370940
vt 0.245840 0.351447
vt 0.246397 0.288815
vt 0.246768 0.205307
vt 0.370268 0.205307
vt 0.494283 0.205307
vt 0.492822 0.304944
vt 0.490632 0.379672
vt 0.369475 0.110659
vt 0.246397 0.121798
vt 0.245841 0.059166
vt 0.368286 0.039673
vt 0.490632 0.030941
vt 0.492822 0.105669
vt 0.616755 0.103478
vt 0.619174 0.205307
vt 0.613127 0.027106
vt 0.616755 0.307135
vt 0.613126 0.383507
vt 0.123273 0.268175
vt 0.123047 0.315326
vt 0.054743 0.283353
vt 0.030912 0.249131
vt 0.030973 0.205306
vt 0.123423 0.205306
vt 0.123273 0.142438
vt 0.030912 0.161481
vt 0.054744 0.127260
vt 0.123047 0.095287
vt 0.839504 0.118056
vt 0.856743 0.205307
vt 0.968983 0.205307
vt 0.938030 0.133427
vt 0.876123 0.061548
vt 0.805028 0.030806
vt 0.721203 0.008146
vt 0.734555 0.106726
vt 0.741230 0.205307
vt 0.839504 0.292557
vt 0.805028 0.379807
vt 0.876123 0.349065
vt 0.938030 0.277186
vt 0.734555 0.303887
vt 0.721203 0.402467
vt 0.369475 0.299954
vt 0.367890 0.394602
vt 0.489902 0.404581
vt 0.492822 0.304944
vt 0.494283 0.205307
vt 0.370268 0.205307
vt 0.246768 0.205307
vt 0.246397 0.288815
vt 0.245655 0.372324
vt 0.369475 0.110659
vt 0.492822 0.105669
vt 0.489902 0.006032
vt 0.367890 0.016011
vt 0.245655 0.038289
vt 0.246397 0.121798
vt 0.616755 0.103478
vt 0.619174 0.205307
vt 0.611917 0.001649
vt 0.616755 0.307135
vt 0.611917 0.408964
vt 0.123273 0.268175
vt 0.122972 0.331043
vt 0.123423 0.205306
vt 0.000156 0.205306
vt 0.000125 0.242784
vt 0.000064 0.280261
vt 0.123273 0.142438
vt 0.122972 0.079570
vt 0.000064 0.130352
vt 0.000125 0.167829
vt 0.122972 0.331043
vt 0.030806 0.283587
vt 0.245655 0.372324
vt 0.030806 0.283587
vt 0.000125 0.167829
vt 0.030806 0.127026
vt 0.000156 0.205306
vt 0.030806 0.127026
vt 0.805028 0.030806
vt 0.873826 0.071832
vt 0.721203 0.008146
vt 0.873826 0.071832
vt 0.938030 0.277186
vt 0.873826 0.338781
vt 0.968983 0.205307
vt 0.873826 0.338781
vt 0.805028 0.379807
vt 0.721203 0.402467
vt 0.000125 0.242784
vt 0.122972 0.079570
vt 0.245655 0.038289
vt 0.938030 0.133427
vt 0.611917 0.001649
vt 0.489902 0.006032
vt 0.611917 0.408964
vt 0.489902 0.404581
vt 0.367890 0.394602
vt 0.367890 0.016011
f 1/1/1 2/2/2 3/3/3
f 1/1/1 3/3/3 4/4/4
f 1/1/1 4/4/4 5/5/5
f 1/1/1 5/5/5 6/6/6
f 1/1/1 6/6/6 7/7/7
f 1/1/1 7/7/7 8/8/8
f 1/1/1 8/8/8 9/9/9
f 1/1/1 9/9/9 2/2/2
f 10/10/10 11/11/11 12/12/12
f 10/10/10 12/12/12 13/13/13
f 10/10/10 13/13/13 3/3/3
f 10/10/10 3/3/3 2/2/2
f 10/10/10 2/2/2 9/9/9
f 10/10/10 9/9/9 14/14/14
f 10/10/10 14/14/14 15/15/15
f 10/10/10 15/15/15 11/11/11
f 16/16/16 17/17/17 18/18/18
f 16/16/16 18/18/18 19/19/19
f 16/16/16 19/19/19 20/20/20
f 16/16/16 20/20/20 21/21/21
f 16/16/16 21/21/21 22/22/22
f 16/16/16 22/22/22 23/23/23
f 16/16/16 23/23/23 24/24/24
f 16/16/16 24/24/24 17/17/17
f 25/25/25 21/21/21 20/20/20
f 25/25/25 20/20/20 26/26/26
f 25/25/25 26/26/26 27/27/27
f 25/25/25 27/27/27 28/28/28
f 25/25/25 28/28/28 29/29/29
f 25/25/25 29/29/29 30/30/30
f 25/25/25 30/30/30 22/22/22
f 25/25/25 22/22/22 21/21/21
f 31/31/31 32/32/32 22/22/22
f 31/31/31 22/22/22 30/30/30
f 31/31/31 30/30/30 29/29/29
f 31/31/31 29/29/29 33/33/33
f 31/31/31 33/33/33 5/5/5
f 31/31/31 5/5/5 4/4/4
f 31/31/31 4/4/4 3/3/3
f 31/31/31 3/3/3 32/32/32
f 34/34/34 35/35/35 24/24/24
f 34/34/34 24/24/24 23/23/23
f 34/34/34 23/23/23 22/22/22
f 34/34/34 22/22/22 32/32/32
f 34/34/34 32/32/32 3/3/3
f 34/34/34 3/3/3 13/13/13
f 34/34/34 13/13/13 12/12/12
f 34/34/34 12/12/12 35/35/35
f 36/36/36 37/37/37 38/38/38
f 36/36/36 38/38/38 39/39/39
f 36/36/36 39/39/39 40/40/40
f 36/36/36 40/40/40 41/41/41
f 36/36/36 41/41/41 20/20/20
f 36/36/36 20/20/20 19/19/19
f 36/36/36 19/19/19 18/18/18
f 36/36/36 18/18/18 37/37/37
f 42/42/42 41/41/41 40/40/40
f 42/42/42 40/40/40 43/43/43
f 42/42/42 43/43/43 44/44/44
f 42/42/42 44/44/44 45/45/45
f 42/42/42 45/45/45 27/27/27
f 42/42/42 27/27/27 26/26/26
f 42/42/42 26/26/26 20/20/20
f 42/42/42 20/20/20 41/41/41
f 46/46/46 47/47/47 48/48/48
f 46/46/46 48/48/48 49/49/49
f 46/46/46 49/49/49 50/50/50
f 46/46/46 50/50/50 51/51/51
f 46/46/46 51/51/51 52/52/52
f 46/46/46 52/52/52 53/53/53
f 46/46/46 53/53/53 54/54/54
f 46/46/46 54/54/54 47/47/47
f 55/55/55 56/56/56 57/57/57
f 55/55/55 57/57/57 58/58/58
f 55/55/55 58/58/58 48/48/48
f 55/55/55 48/48/48 47/47/47
f 55/55/55 47/47/47 54/54/54
f 55/55/55 54/54/54 59/59/59
f 55/55/55 59/59/59 60/60/60
f 55/55/55 60/60/60 56/56/56
f 61/61/61 62/62/62 63/63/63
f 61/61/61 63/63/63 64/64/64
f 61/61/61 64/64/64 65/65/65
f 61/61/61 65/65/65 66/66/66
f 61/61/61 66/66/66 67/67/67
f 61/61/61 67/67/67 68/68/68
f 61/61/61 68/68/68 69/69/69
f 61/61/61 69/69/69 62/62/62
f 70/70/70 66/66/66 65/65/65
f 70/70/70 65/65/65 71/71/71
f 70/70/70 71/71/71 72/72/72
f 70/70/70 72/72/72 73/73/73
f 70/70/70 73/73/73 74/74/74
f 70/70/70 74/74/74 75/75/75
f 70/70/70 75/75/75 67/67/67
f 70/70/70 67/67/67 66/66/66
f 76/76/76 77/77/77 54/54/54
f 76/76/76 54/54/54 53/53/53
f 76/76/76 53/53/53 52/52/52
f 76/76/76 52/52/52 78/78/78
f 76/76/76 78/78/78 72/72/72
f 76/76/76 72/72/72 71/71/71
f 76/76/76 71/71/71 65/65/65
f 76/76/76 65/65/65 77/77/77
f 79/79/79 80/80/80 60/60/60
f 79/79/79 60/60/60 59/59/59
f 79/79/79 59/59/59 54/54/54
f 79/79/79 54/54/54 77/77/77
f 79/79/79 77/77/77 65/65/65
f 79/79/79 65/65/65 64/64/64
f 79/79/79 64/64/64 63/63/63
f 79/79/79 63/63/63 80/80/80
f 81/81/81 82/82/82 69/69/69
f 81/81/81 69/69/69 68/68/68
f 81/81/81 68/68/68 67/67/67
f 81/81/81 67/67/67 83/83/83
f 81/81/81 83/83/83 84/84/84
f 81/81/81 84/84/84 85/85/85
f 81/81/81 85/85/85 86/86/86
f 81/81/81 86/86/86 82/82/82
f 87/87/87 83/83/83 67/67/67
f 87/87/87 67/67/67 75/75/75
f 87/87/87 75/75/75 74/74/74
f 87/87/87 74/74/74 88/88/88
f 87/87/87 88/88/88 89/89/89
f 87/87/87 89/89/89 90/90/90
f 87/87/87 90/90/90 84/84/84
f 87/87/87 84/84/84 83/83/83
f 91/91/91 92/92/92 38/38/38
f 91/91/91 38/38/38 37/37/37
f 91/91/91 37/37/37 18/18/18
f 91/91/91 18/18/18 93/93/93
f 91/91/91 93/93/93 69/69/69
f 91/91/91 69/69/69 82/82/82
f 91/91/91 82/82/82 94/94/94
f 91/91/91 94/94/94 92/92/92
f 95/95/95 96/96/96 44/44/44
f 95/95/95 44/44/44 43/43/43
f 95/95/95 43/43/43 40/40/40
f 95/95/95 40/40/40 97/97/97
f 95/95/95 97/97/97 84/84/84
f 95/95/95 84/84/84 90/90/90
f 95/95/95 90/90/90 98/98/98
f 95/95/95 98/98/98 96/96/96
f 99/99/99 100/100/100 7/7/7
f 99/99/99 7/7/7 6/6/6
f 99/99/99 6/6/6 5/5/5
f 99/99/99 5/5/5 101/101/101
f 99/99/99 101/101/101 52/52/52
f 99/99/99 52/52/52 51/51/51
f 99/99/99 51/51/51 102/102/102
f 99/99/99 102/102/102 100/100/100
f 103/103/103 104/104/104 15/15/15
f 103/103/103 15/15/15 14/14/14
f 103/103/103 14/14/14 9/9/9
f 103/103/103 9/9/9 105/105/105
f 103/103/103 105/105/105 48/48/48
f 103/103/103 48/48/48 58/58/58
f 103/103/103 58/58/58 106/106/106
f 103/103/103 106/106/106 104/104/104
f 107/107/107 108/108/108 12/12/12
f 107/107/107 12/12/12 11/11/11
f 107/107/107 11/11/11 15/15/15
f 107/107/107 15/15/15 104/104/104
f 107/107/107 104/104/104 106/106/106
f 107/107/107 106/106/106 56/56/56
f 107/107/107 56/56/56 60/60/60
f 107/107/107 60/60/60 108/108/108
f 109/109/109 97/97/97 40/40/40
f 109/109/109 40/40/40 39/39/39
f 109/109/109 39/39/39 38/38/38
f 109/109/109 38/38/38 92/92/92
f 109/109/109 92/92/92 94/94/94
f 109/109/109 94/94/94 85/85/85
f 109/109/109 85/85/85 84/84/84
f 109/109/109 84/84/84 97/97/97
f 110/110/110 111/111/111 27/27/27
f 110/110/110 27/27/27 45/45/45
f 110/110/110 45/45/45 44/44/44
f 110/110/110 44/44/44 96/96/96
f 110/110/110 96/96/96 98/98/98
f 110/110/110 98/98/98 88/88/88
f 110/110/110 88/88/88 74/74/74
f 110/110/110 74/74/74 111/111/111
f 112/112/112 105/105/105 9/9/9
f 112/112/112 9/9/9 8/8/8
f 112/112/112 8/8/8 7/7/7
f 112/112/112 7/7/7 100/100/100
f 112/112/112 100/100/100 102/102/102
f 112/112/112 102/102/102 49/49/49
f 112/112/112 49/49/49 48/48/48
f 112/112/112 48/48/48 105/105/105
f 113/113/113 101/101/101 5/5/5
f 113/113/113 5/5/5 33/33/33
f 113/113/113 33/33/33 29/29/29
f 113/113/113 29/29/29 114/114/114
f 113/113/113 114/114/114 72/72/72
f 113/113/113 72/72/72 78/78/78
f 113/113/113 78/78/78 52/52/52
f 113/113/113 52/52/52 101/101/101
f 115/115/115 116/116/116 24/24/24
f 115/115/115 24/24/24 35/35/35
f 115/115/115 35/35/35 12/12/12
f 115/115/115 12/12/12 108/108/108
f 115/115/115 108/108/108 60/60/60
f 115/115/115 60/60/60 80/80/80
f 115/115/115 80/80/80 63/63/63
f 115/115/115 63/63/63 116/116/116
f 117/117/117 93/93/93 18/18/18
f 117/117/117 18/18/18 17/17/17
f 117/117/117 17/17/17 24/24/24
f 117/117/117 24/24/24 116/116/116
f 117/117/117 116/116/116 63/63/63
f 117/117/117 63/63/63 62/62/62
f 117/117/117 62/62/62 69/69/69
f 117/117/117 69/69/69 93/93/93
f 118/118/118 114/114/114 29/29/29
f 118/118/118 29/29/29 28/28/28
f 118/118/118 28/28/28 27/27/27
f 118/118/118 27/27/27 111/111/111
f 118/118/118 111/111/111 74/74/74
f 118/118/118 74/74/74 73/73/73
f 118/118/118 73/73/73 72/72/72
f 118/118/118 72/72/72 114/114/114
