v -2.354067 0.713804 -1.085748
v -2.351797 0.714097 -1.086958
v -2.353755 0.712753 -1.089456
v -2.356091 0.712503 -1.087792
v -2.358037 0.712475 -1.086701
v -2.356102 0.713666 -1.085168
v -2.354449 0.714240 -1.084466
v -2.352511 0.714618 -1.084338
v -2.350316 0.714974 -1.085106
v -2.350430 0.714690 -1.089076
v -2.349725 0.715221 -1.091004
v -2.350792 0.714242 -1.093330
v -2.351958 0.713511 -1.091574
v -2.349364 0.715385 -1.087218
v -2.349285 0.715500 -1.089192
v -2.357303 0.707649 -1.098891
v -2.355938 0.708218 -1.100404
v -2.357845 0.705666 -1.102319
v -2.359043 0.705153 -1.100971
v -2.360721 0.704577 -1.099248
v -2.359211 0.707007 -1.096950
v -2.357571 0.709235 -1.094564
v -2.355587 0.709928 -1.096602
v -2.354179 0.710554 -1.098199
v -2.361353 0.706662 -1.095185
v -2.362624 0.704280 -1.097694
v -2.364120 0.704136 -1.096576
v -2.363033 0.706487 -1.093911
v -2.361602 0.708745 -1.091407
v -2.359823 0.708895 -1.092726
v -2.358039 0.710855 -1.090190
v -2.355716 0.711142 -1.092028
v -2.359903 0.710788 -1.088892
v -2.353741 0.711903 -1.094123
v -2.352371 0.712624 -1.095784
v -2.360960 0.702528 -1.102824
v -2.360099 0.702953 -1.103858
v -2.361538 0.701292 -1.104431
v -2.362443 0.700486 -1.104118
v -2.363249 0.700127 -1.103196
v -2.362186 0.702066 -1.101518
v -2.363632 0.701876 -1.100379
v -2.364274 0.700039 -1.102442
v -2.364834 0.700489 -1.101416
v -2.364786 0.701810 -1.099570
v -2.353985 0.713559 -1.085667
v -2.351686 0.713856 -1.086901
v -2.350235 0.714792 -1.085066
v -2.352453 0.714433 -1.084279
v -2.354412 0.714104 -1.084416
v -2.356055 0.713481 -1.085095
v -2.357981 0.712294 -1.086625
v -2.355999 0.712263 -1.087706
v -2.353638 0.712517 -1.089392
v -2.350294 0.714459 -1.089044
v -2.349609 0.715053 -1.090993
v -2.349203 0.715373 -1.089182
v -2.349262 0.715211 -1.087199
v -2.351818 0.713283 -1.091532
v -2.350675 0.714076 -1.093310
v -2.357144 0.707445 -1.098807
v -2.355810 0.708068 -1.100350
v -2.354056 0.710398 -1.098153
v -2.355434 0.709715 -1.096530
v -2.357436 0.709017 -1.094474
v -2.359069 0.706798 -1.096850
v -2.360574 0.704375 -1.099141
v -2.358878 0.704956 -1.100881
v -2.357713 0.705521 -1.102259
v -2.361228 0.706449 -1.095070
v -2.359707 0.708674 -1.092619
v -2.361524 0.708577 -1.091319
v -2.362949 0.706327 -1.093817
v -2.364033 0.703980 -1.096476
v -2.362495 0.704074 -1.097572
v -2.357936 0.710623 -1.090094
v -2.355590 0.710914 -1.091952
v -2.359836 0.710613 -1.088810
v -2.353595 0.711682 -1.094066
v -2.352251 0.712463 -1.095751
v -2.360792 0.702333 -1.102732
v -2.359965 0.702810 -1.103798
v -2.362037 0.701866 -1.101408
v -2.363137 0.699977 -1.103114
v -2.362317 0.700341 -1.104049
v -2.361441 0.701186 -1.104384
v -2.363503 0.701673 -1.100252
v -2.364698 0.701656 -1.099467
v -2.364766 0.700375 -1.101342
v -2.364178 0.699887 -1.102346
v -2.359751 0.703032 -1.104178
v -2.361817 0.700795 -1.104875
v -2.357385 0.705774 -1.102743
v -2.361441 0.701186 -1.104384
v -2.364445 0.699359 -1.103087
v -2.365119 0.699990 -1.101854
v -2.363553 0.699414 -1.103719
v -2.364766 0.700375 -1.101342
v -2.356762 0.713538 -1.084940
v -2.354597 0.714294 -1.084174
v -2.358663 0.712385 -1.086301
v -2.354412 0.714104 -1.084416
v -2.348963 0.715539 -1.086591
v -2.349009 0.715657 -1.089287
v -2.349787 0.715185 -1.084472
v -2.349203 0.715373 -1.089182
v -2.349435 0.715324 -1.091645
v -2.350349 0.714413 -1.093909
v -2.362881 0.699741 -1.104518
v -2.365134 0.701719 -1.099252
v -2.364583 0.704019 -1.096157
v -2.351968 0.714807 -1.083842
v -2.360497 0.710688 -1.088421
v -2.362162 0.708620 -1.090926
v -2.351858 0.712794 -1.096326
v -2.353653 0.710695 -1.098713
v -2.355424 0.708341 -1.100886
v -2.363558 0.706358 -1.093443
vn -0.222600 0.919400 -0.324100
vn -0.376900 0.910700 -0.169200
vn -0.410600 0.886700 -0.212500
vn -0.274500 0.894400 -0.352900
vn -0.295500 0.882900 -0.364800
vn -0.229300 0.919400 -0.319500
vn -0.181900 0.941000 -0.285400
vn -0.200300 0.952000 -0.231400
vn -0.321500 0.941600 -0.100400
vn -0.537000 0.842800 -0.036500
vn -0.532300 0.845500 -0.042300
vn -0.563100 0.817600 -0.120200
vn -0.555600 0.825900 -0.095700
vn -0.457000 0.889400 0.003600
vn -0.507300 0.861700 0.012400
vn -0.611700 0.727200 -0.311200
vn -0.590400 0.730900 -0.342400
vn -0.601800 0.710400 -0.364800
vn -0.631000 0.703600 -0.326700
vn -0.554300 0.722500 -0.413200
vn -0.536400 0.750400 -0.386200
vn -0.497600 0.802100 -0.330100
vn -0.586200 0.770000 -0.251900
vn -0.576100 0.767000 -0.282500
vn -0.454000 0.765700 -0.455600
vn -0.461700 0.744900 -0.481600
vn -0.502000 0.734700 -0.456200
vn -0.486200 0.756200 -0.437800
vn -0.438400 0.800500 -0.408500
vn -0.409100 0.813200 -0.414000
vn -0.341800 0.861500 -0.375400
vn -0.450700 0.852300 -0.265400
vn -0.368400 0.846900 -0.383300
vn -0.565100 0.807100 -0.171100
vn -0.567500 0.798400 -0.201100
vn -0.653600 0.687200 -0.317200
vn -0.624800 0.692200 -0.361100
vn -0.652700 0.672500 -0.348900
vn -0.689500 0.641700 -0.335900
vn -0.583800 0.669200 -0.459700
vn -0.562300 0.709000 -0.425600
vn -0.447200 0.737500 -0.506100
vn -0.451600 0.699600 -0.553700
vn -0.474000 0.716200 -0.512200
vn -0.492400 0.724600 -0.482200
vn 0.213700 -0.908900 0.358100
vn 0.386300 -0.904400 0.181200
vn 0.421800 -0.877800 0.227000
vn 0.182300 -0.871600 0.455000
vn 0.099600 -0.837200 0.537700
vn 0.114800 -0.847600 0.518100
vn 0.173900 -0.859300 0.480900
vn 0.263200 -0.893700 0.363400
vn 0.410600 -0.886700 0.212400
vn 0.567600 -0.822600 0.034200
vn 0.711600 -0.702000 -0.028000
vn 0.728700 -0.683700 -0.037900
vn 0.653300 -0.756700 0.024100
vn 0.566100 -0.819800 0.086200
vn 0.675600 -0.736900 0.022000
vn 0.621900 -0.723700 0.298900
vn 0.687200 -0.695100 0.211100
vn 0.669900 -0.723200 0.167900
vn 0.595900 -0.766000 0.241100
vn 0.497700 -0.802000 0.330200
vn 0.536500 -0.750200 0.386400
vn 0.554300 -0.722400 0.413300
vn 0.641900 -0.700800 0.311100
vn 0.702400 -0.684700 0.194100
vn 0.440700 -0.767900 0.464800
vn 0.397100 -0.814500 0.423000
vn 0.311500 -0.810600 0.495900
vn 0.345100 -0.778500 0.524300
vn 0.325100 -0.776700 0.539400
vn 0.445400 -0.748700 0.490900
vn 0.330400 -0.862000 0.384500
vn 0.450700 -0.852300 0.265400
vn 0.246100 -0.844700 0.475200
vn 0.574600 -0.802400 0.161000
vn 0.662300 -0.743200 0.094400
vn 0.661600 -0.693000 0.286200
vn 0.716400 -0.685400 0.130400
vn 0.557500 -0.717200 0.418100
vn 0.535100 -0.752300 0.384400
vn 0.674200 -0.714500 0.187000
vn 0.720200 -0.688100 0.088200
vn 0.418400 -0.752300 0.508800
vn 0.263100 -0.796000 0.545200
vn 0.222900 -0.809400 0.543300
vn 0.327300 -0.799000 0.504300
vn 0.395300 0.060600 -0.916500
vn 0.071500 -0.188800 -0.979400
vn 0.512100 0.136900 -0.847900
vn 0.720200 -0.688100 0.088200
vn -0.585200 -0.666400 -0.461900
vn -0.900300 -0.425800 -0.089900
vn -0.334600 -0.753300 -0.566100
vn 0.222900 -0.809400 0.543300
vn -0.599600 0.264700 0.755200
vn -0.319200 0.378300 0.868900
vn -0.739000 0.138500 0.659300
vn 0.099600 -0.837200 0.537700
vn 0.822800 0.489200 0.289200
vn 0.758400 0.641100 -0.117100
vn 0.599800 0.309500 0.737800
vn 0.728700 -0.683700 -0.037900
vn 0.693200 0.580100 -0.427700
vn 0.640700 0.475100 -0.603100
vn -0.242900 -0.583200 -0.775100
vn -0.921400 -0.260500 0.288200
vn -0.881100 -0.202800 0.427200
vn 0.108600 0.314900 0.942900
vn -0.806300 0.026300 0.591000
vn -0.830600 -0.049300 0.554700
vn 0.607300 0.370900 -0.702500
vn 0.593100 0.297800 -0.748000
vn 0.574600 0.222700 -0.787500
vn -0.848200 -0.124000 0.514900
vt 0.839504 0.118056
vt 0.856743 0.205307
vt 0.741230 0.205307
vt 0.734555 0.106726
vt 0.724541 0.032791
vt 0.813647 0.052618
vt 0.868992 0.081539
vt 0.913398 0.129584
vt 0.940923 0.205307
vt 0.839504 0.292557
vt 0.813647 0.357995
vt 0.724541 0.377822
vt 0.734555 0.303887
vt 0.913398 0.281029
vt 0.868992 0.329074
vt 0.369475 0.299954
vt 0.368286 0.370940
vt 0.245840 0.351447
vt 0.246397 0.288815
vt 0.246768 0.205307
vt 0.370268 0.205307
vt 0.494283 0.205307
vt 0.492822 0.304944
vt 0.490632 0.379672
vt 0.369475 0.110659
vt 0.246397 0.121798
vt 0.245841 0.059166
vt 0.368286 0.039673
vt 0.490632 0.030941
vt 0.492822 0.105669
vt 0.616755 0.103478
vt 0.619174 0.205307
vt 0.613127 0.027106
vt 0.616755 0.307135
vt 0.613126 0.383507
vt 0.123273 0.268175
vt 0.123047 0.315326
vt 0.054743 0.283353
vt 0.030912 0.249131
vt 0.030973 0.205306
vt 0.123423 0.205306
vt 0.123273 0.142438
vt 0.030912 0.161481
vt 0.054744 0.127260
vt 0.123047 0.095287
vt 0.839504 0.118056
vt 0.856743 0.205307
vt 0.968983 0.205307
vt 0.938030 0.133427
vt 0.876123 0.061548
vt 0.805028 0.030806
vt 0.721203 0.008146
vt 0.734555 0.106726
vt 0.741230 0.205307
vt 0.839504 0.292557
vt 0.805028 0.379807
vt 0.876123 0.349065
vt 0.938030 0.277186
vt 0.734555 0.303887
vt 0.721203 0.402467
vt 0.369475 0.299954
vt 0.367890 0.394602
vt 0.489902 0.404581
vt 0.492822 0.304944
vt 0.494283 0.205307
vt 0.370268 0.205307
vt 0.246768 0.205307
vt 0.246397 0.288815
vt 0.245655 0.372324
vt 0.369475 0.110659
vt 0.492822 0.105669
vt 0.489902 0.006032
vt 0.367890 0.016011
vt 0.245655 0.038289
vt 0.246397 0.121798
vt 0.616755 0.103478
vt 0.619174 0.205307
vt 0.611917 0.001649
vt 0.616755 0.307135
vt 0.611917 0.408964
vt 0.123273 0.268175
vt 0.122972 0.331043
vt 0.123423 0.205306
vt 0.000156 0.205306
vt 0.000125 0.242784
vt 0.000064 0.280261
vt 0.123273 0.142438
vt 0.122972 0.079570
vt 0.000064 0.130352
vt 0.000125 0.167829
vt 0.122972 0.331043
vt 0.030806 0.283587
vt 0.245655 0.372324
vt 0.030806 0.283587
vt 0.000125 0.167829
vt 0.030806 0.127026
vt 0.000156 0.205306
vt 0.030806 0.127026
vt 0.805028 0.030806
vt 0.873826 0.071832
vt 0.721203 0.008146
vt 0.873826 0.071832
vt 0.938030 0.277186
vt 0.873826 0.338781
vt 0.968983 0.205307
vt 0.873826 0.338781
vt 0.805028 0.379807
vt 0.721203 0.402467
vt 0.000125 0.242784
vt 0.122972 0.079570
vt 0.245655 0.038289
vt 0.938030 0.133427
vt 0.611917 0.001649
vt 0.489902 0.006032
vt 0.611917 0.408964
vt 0.489902 0.404581
vt 0.367890 0.394602
vt 0.367890 0.016011
f 1/1/1 2/2/2 3/3/3
f 1/1/1 3/3/3 4/4/4
f 1/1/1 4/4/4 5/5/5
f 1/1/1 5/5/5 6/6/6
f 1/1/1 6/6/6 7/7/7
f 1/1/1 7/7/7 8/8/8
f 1/1/1 8/8/8 9/9/9
f 1/1/1 9/9/9 2/2/2
f 10/10/10 11/11/11 12/12/12
f 10/10/10 12/12/12 13/13/13
f 10/10/10 13/13/13 3/3/3
f 10/10/10 3/3/3 2/2/2
f 10/10/10 2/2/2 9/9/9
f 10/10/10 9/9/9 14/14/14
f 10/10/10 14/14/14 15/15/15
f 10/10/10 15/15/15 11/11/11
f 16/16/16 17/17/17 18/18/18
f 16/16/16 18/18/18 19/19/19
f 16/16/16 19/19/19 20/20/20
f 16/16/16 20/20/20 21/21/21
f 16/16/16 21/21/21 22/22/22
f 16/16/16 22/22/22 23/23/23
f 16/16/16 23/23/23 24/24/24
f 16/16/16 24/24/24 17/17/17
f 25/25/25 21/21/21 20/20/20
f 25/25/25 20/20/20 26/26/26
f 25/25/25 26/26/26 27/27/27
f 25/25/25 27/27/27 28/28/28
f 25/25/25 28/28/28 29/29/29
f 25/25/25 29/29/29 30/30/30
f 25/25/25 30/30/30 22/22/22
f 25/25/25 22/22/22 21/21/21
f 31/31/31 32/32/32 22/22/22
f 31/31/31 22/22/22 30/30/30
f 31/31/31 30/30/30 29/29/29
f 31/31/31 29/29/29 33/33/33
f 31/31/31 33/33/33 5/5/5
f 31/31/31 5/5/5 4/4/4
f 31/31/31 4/4/4 3/3/3
f 31/31/31 3/3/3 32/32/32
f 34/34/34 35/35/35 24/24/24
f 34/34/34 24/24/24 23/23/23
f 34/34/34 23/23/23 22/22/22
f 34/34/34 22/22/22 32/32/32
f 34/34/34 32/32/32 3/3/3
f 34/34/34 3/3/3 13/13/13
f 34/34/34 13/13/13 12/12/12
f 34/34/34 12/12/12 35/35/35
f 36/36/36 37/37/37 38/38/38
f 36/36/36 38/38/38 39/39/39
f 36/36/36 39/39/39 40/40/40
f 36/36/36 40/40/40 41/41/41
f 36/36/36 41/41/41 20/20/20
f 36/36/36 20/20/20 19/19/19
f 36/36/36 19/19/19 18/18/18
f 36/36/36 18/18/18 37/37/37
f 42/42/42 41/41/41 40/40/40
f 42/42/42 40/40/40 43/43/43
f 42/42/42 43/43/43 44/44/44
f 42/42/42 44/44/44 45/45/45
f 42/42/42 45/45/45 27/27/27
f 42/42/42 27/27/27 26/26/26
f 42/42/42 26/26/26 20/20/20
f 42/42/42 20/20/20 41/41/41
f 46/46/46 47/47/47 48/48/48
f 46/46/46 48/48/48 49/49/49
f 46/46/46 49/49/49 50/50/50
f 46/46/46 50/50/50 51/51/51
f 46/46/46 51/51/51 52/52/52
f 46/46/46 52/52/52 53/53/53
f 46/46/46 53/53/53 54/54/54
f 46/46/46 54/54/54 47/47/47
f 55/55/55 56/56/56 57/57/57
f 55/55/55 57/57/57 58/58/58
f 55/55/55 58/58/58 48/48/48
f 55/55/55 48/48/48 47/47/47
f 55/55/55 47/47/47 54/54/54
f 55/55/55 54/54/54 59/59/59
f 55/55/55 59/59/59 60/60/60
f 55/55/55 60/60/60 56/56/56
f 61/61/61 62/62/62 63/63/63
f 61/61/61 63/63/63 64/64/64
f 61/61/61 64/64/64 65/65/65
f 61/61/61 65/65/65 66/66/66
f 61/61/61 66/66/66 67/67/67
f 61/61/61 67/67/67 68/68/68
f 61/61/61 68/68/68 69/69/69
f 61/61/61 69/69/69 62/62/62
f 70/70/70 66/66/66 65/65/65
f 70/70/70 65/65/65 71/71/71
f 70/70/70 71/71/71 72/72/72
f 70/70/70 72/72/72 73/73/73
f 70/70/70 73/73/73 74/74/74
f 70/70/70 74/74/74 75/75/75
f 70/70/70 75/75/75 67/67/67
f 70/70/70 67/67/67 66/66/66
f 76/76/76 77/77/77 54/54/54
f 76/76/76 54/54/54 53/53/53
f 76/76/76 53/53/53 52/52/52
f 76/76/76 52/52/52 78/78/78
f 76/76/76 78/78/78 72/72/72
f 76/76/76 72/72/72 71/71/71
f 76/76/76 71/71/71 65/65/65
f 76/76/76 65/65/65 77/77/77
f 79/79/79 80/80/80 60/60/60
f 79/79/79 60/60/60 59/59/59
f 79/79/79 59/59/59 54/54/54
f 79/79/79 54/54/54 77/77/77
f 79/79/79 77/77/77 65/65/65
f 79/79/79 65/65/65 64/64/64
f 79/79/79 64/64/64 63/63/63
f 79/79/79 63/63/63 80/80/80
f 81/81/81 82/82/82 69/69/69
f 81/81/81 69/69/69 68/68/68
f 81/81/81 68/68/68 67/67/67
f 81/81/81 67/67/67 83/83/83
f 81/81/81 83/83/83 84/84/84
f 81/81/81 84/84/84 85/85/85
f 81/81/81 85/85/85 86/86/86
f 81/81/81 86/86/86 82/82/82
f 87/87/87 83/83/83 67/67/67
f 87/87/87 67/67/67 75/75/75
f 87/87/87 75/75/75 74/74/74
f 87/87/87 74/74/74 88/88/88
f 87/87/87 88/88/88 89/89/89
f 87/87/87 89/89/89 90/90/90
f 87/87/87 90/90/90 84/84/84
f 87/87/87 84/84/84 83/83/83
f 91/91/91 92/92/92 38/38/38
f 91/91/91 38/38/38 37/37/37
f 91/91/91 37/37/37 18/18/18
f 91/91/91 18/18/18 93/93/93
f 91/91/91 93/93/93 69/69/69
f 91/91/91 69/69/69 82/82/82
f 91/91/91 82/82/82 94/94/94
f 91/91/91 94/94/94 92/92/92
f 95/95/95 96/96/96 44/44/44
f 95/95/95 44/44/44 43/43/43
f 95/95/95 43/43/43 40/40/40
f 95/95/95 40/40/40 97/97/97
f 95/95/95 97/97/97 84/84/84
f 95/95/95 84/84/84 90/90/90
f 95/95/95 90/90/90 98/98/98
f 95/95/95 98/98/98 96/96/96
f 99/99/99 100/100/100 7/7/7
f 99/99/99 7/7/7 6/6/6
f 99/99/99 6/6/6 5/5/5
f 99/99/99 5/5/5 101/101/101
f 99/99/99 101/101/101 52/52/52
f 99/99/99 52/52/52 51/51/51
f 99/99/99 51/51/51 102/102/102
f 99/99/99 102/102/102 100/100/100
f 103/103/103 104/104/104 15/15/15
f 103/103/103 15/15/15 14/14/14
f 103/103/103 14/14/14 9/9/9
f 103/103/103 9/9/9 105/105/105
f 103/103/103 105/105/105 48/48/48
f 103/103/103 48/48/48 58/58/58
f 103/103/103 58/58/58 106/106/106
f 103/103/103 106/106/106 104/104/104
f 107/107/107 108/108/108 12/12/12
f 107/107/107 12/12/12 11/11/11
f 107/107/107 11/11/11 15/15/15
f 107/107/107 15/15/15 104/104/104
f 107/107/107 104/104/104 106/106/106
f 107/107/107 106/106/106 56/56/56
f 107/107/107 56/56/56 60/60/60
f 107/107/107 60/60/60 108/108/108
f 109/109/109 97/97/97 40/40/40
f 109/109/109 40/40/40 39/39/39
f 109/109/109 39/39/39 38/38/38
f 109/109/109 38/38/38 92/92/92
f 109/109/109 92/92/92 94/94/94
f 109/109/109 94/94/94 85/85/85
f 109/109/109 85/85/85 84/84/84
f 109/109/109 84/84/84 97/97/97
f 110/110/110 111/111/111 27/27/27
f 110/110/110 27/27/27 45/45/45
f 110/110/110 45/45/45 44/44/44
f 110/110/110 44/44/44 96/96/96
f 110/110/110 96/96/96 98/98/98
f 110/110/110 98/98/98 88/88/88
f 110/110/110 88/88/88 74/74/74
f 110/110/110 74/74/74 111/111/111
f 112/112/112 105/105/105 9/9/9
f 112/112/112 9/9/9 8/8/8
f 112/112/112 8/8/8 7/7/7
f 112/112/112 7/7/7 100/100/100
f 112/112/112 100/100/100 102/102/102
f 112/112/112 102/102/102 49/49/49
f 112/112/112 49/49/49 48/48/48
f 112/112/112 48/48/48 105/105/105
f 113/113/113 101/101/101 5/5/5
f 113/113/113 5/5/5 33/33/33
f 113/113/113 33/33/33 29/29/29
f 113/113/113 29/29/29 114/114/114
f 113/113/113 114/114/114 72/72/72
f 113/113/113 72/72/72 78/78/78
f 113/113/113 78/78/78 52/52/52
f 113/113/113 52/52/52 101/101/101
f 115/115/115 116/116/116 24/24/24
f 115/115/115 24/24/24 35/35/35
f 115/115/115 35/35/35 12/12/12
f 115/115/115 12/12/12 108/108/108
f 115/115/115 108/108/108 60/60/60
f 115/115/115 60/60/60 80/80/80
f 115/115/115 80/80/80 63/63/63
f 115/115/115 63/63/63 116/116/116
f 117/117/117 93/93/93 18/18/18
f 117/117/117 18/18/18 17/17/17
f 117/117/117 17/17/17 24/24/24
f 117/117/117 24/24/24 116/116/116
f 117/117/117 116/116/116 63/63/63
f 117/117/117 63/63/63 62/62/62
f 117/117/117 62/62/62 69/69/69
f 117/117/117 69/69/69 93/93/93
f 118/118/118 114/114/114 29/29/29
f 118/118/118 29/29/29 28/28/28
f 118/118/118 28/28/28 27/27/27
f 118/118/118 27/27/27 111/111/111
f 118/118/118 111/111/111 74/74/74
f 118/118/118 74/74/74 73/73/73
f 118/118/118 73/73/73 72/72/72
f 118/118/118 72/72/72 114/114/114
