v -2.412722 0.677057 -1.102981
v -2.415150 0.676772 -1.102614
v -2.413895 0.674488 -1.100603
v -2.411286 0.675016 -1.101290
v -2.409221 0.675472 -1.101551
v -2.410705 0.677187 -1.102858
v -2.412079 0.678005 -1.103685
v -2.413843 0.678397 -1.104234
v -2.416089 0.678365 -1.104166
v -2.417062 0.676317 -1.101114
v -2.418316 0.675889 -1.099582
v -2.417868 0.673998 -1.097830
v -2.416218 0.674175 -1.099167
v -2.417600 0.677756 -1.102618
v -2.418243 0.676953 -1.101033
v -2.412620 0.665873 -1.094234
v -2.414357 0.665672 -1.093222
v -2.412811 0.662642 -1.092212
v -2.411279 0.662815 -1.093121
v -2.409199 0.663102 -1.094204
v -2.410262 0.666201 -1.095445
v -2.411388 0.669174 -1.096884
v -2.413848 0.668844 -1.095599
v -2.415656 0.668654 -1.094509
v -2.407786 0.666697 -1.096314
v -2.407005 0.663544 -1.094961
v -2.405321 0.663919 -1.095435
v -2.405888 0.667117 -1.096867
v -2.406797 0.670165 -1.098321
v -2.408793 0.669706 -1.097774
v -2.409968 0.672522 -1.099494
v -2.412620 0.671946 -1.098648
v -2.407914 0.673041 -1.099961
v -2.415098 0.671647 -1.097286
v -2.416904 0.671508 -1.096092
v -2.409697 0.659750 -1.092188
v -2.410824 0.659643 -1.091459
v -2.409451 0.657976 -1.091270
v -2.408432 0.657434 -1.091582
v -2.407395 0.657545 -1.092212
v -2.408158 0.659947 -1.093035
v -2.406507 0.660294 -1.093561
v -2.406246 0.657806 -1.092523
v -2.405518 0.658646 -1.092963
v -2.405231 0.660597 -1.093866
v -2.412738 0.676889 -1.103177
v -2.415199 0.676597 -1.102798
v -2.416125 0.678231 -1.104301
v -2.413852 0.678269 -1.104379
v -2.412079 0.677913 -1.103796
v -2.410700 0.677066 -1.103010
v -2.409225 0.675356 -1.101707
v -2.411310 0.674855 -1.101491
v -2.413948 0.674321 -1.100793
v -2.417143 0.676138 -1.101282
v -2.418393 0.675754 -1.099700
v -2.418295 0.676853 -1.101121
v -2.417661 0.677620 -1.102740
v -2.416300 0.674004 -1.099344
v -2.417943 0.673869 -1.097955
v -2.412710 0.665741 -1.094439
v -2.414435 0.665572 -1.093371
v -2.415732 0.668545 -1.094652
v -2.413936 0.668700 -1.095796
v -2.411454 0.669033 -1.097092
v -2.410332 0.666073 -1.095659
v -2.409273 0.662982 -1.094423
v -2.411374 0.662692 -1.093330
v -2.412892 0.662548 -1.092363
v -2.407835 0.666573 -1.096537
v -2.408836 0.669570 -1.097991
v -2.406818 0.670065 -1.098487
v -2.405915 0.667025 -1.097037
v -2.405349 0.663835 -1.095609
v -2.407058 0.663428 -1.095187
v -2.410001 0.672373 -1.099702
v -2.412679 0.671791 -1.098847
v -2.407926 0.672932 -1.100122
v -2.415182 0.671489 -1.097473
v -2.416979 0.671388 -1.096226
v -2.409794 0.659630 -1.092398
v -2.410908 0.659552 -1.091610
v -2.408233 0.659830 -1.093255
v -2.407451 0.657458 -1.092377
v -2.408505 0.657344 -1.091739
v -2.409510 0.657909 -1.091384
v -2.406559 0.660182 -1.093790
v -2.405258 0.660515 -1.094041
v -2.405541 0.658586 -1.093092
v -2.406284 0.657723 -1.092695
v -2.411239 0.659567 -1.091281
v -2.409253 0.657353 -1.091047
v -2.413360 0.662542 -1.091975
v -2.409510 0.657909 -1.091384
v -2.406175 0.656940 -1.092253
v -2.405313 0.658025 -1.092743
v -2.407165 0.656706 -1.092011
v -2.405541 0.658586 -1.093092
v -2.410027 0.677178 -1.102885
v -2.411872 0.678181 -1.103846
v -2.408531 0.675574 -1.101709
v -2.412079 0.677913 -1.103796
v -2.417807 0.678175 -1.103173
v -2.418540 0.677044 -1.100976
v -2.416418 0.678836 -1.104743
v -2.418295 0.676853 -1.101121
v -2.418772 0.675687 -1.099122
v -2.418454 0.673881 -1.097438
v -2.408043 0.656622 -1.091450
v -2.404815 0.660662 -1.094046
v -2.404770 0.664007 -1.095671
v -2.414221 0.678786 -1.104716
v -2.407232 0.673166 -1.100189
v -2.406139 0.670274 -1.098578
v -2.417542 0.671408 -1.095752
v -2.416295 0.668542 -1.094208
v -2.414973 0.665561 -1.092950
v -2.405265 0.667216 -1.097127
vn -0.023100 0.651000 0.758700
vn 0.169400 0.715800 0.677400
vn 0.192100 0.673800 0.713500
vn 0.021100 0.614900 0.788300
vn 0.039200 0.598800 0.799900
vn -0.015500 0.653100 0.757100
vn -0.053400 0.688800 0.722900
vn -0.021800 0.724100 0.689300
vn 0.132800 0.776300 0.616200
vn 0.369900 0.717900 0.589600
vn 0.363100 0.717800 0.594000
vn 0.373400 0.655800 0.656100
vn 0.372400 0.674800 0.637100
vn 0.299100 0.779000 0.551100
vn 0.353300 0.758300 0.547800
vn 0.376800 0.484700 0.789400
vn 0.346800 0.473200 0.809800
vn 0.354000 0.444400 0.822900
vn 0.394000 0.456300 0.797800
vn 0.293200 0.432400 0.852700
vn 0.280100 0.469900 0.837100
vn 0.252300 0.542500 0.801300
vn 0.363700 0.550800 0.751200
vn 0.345600 0.533600 0.771900
vn 0.179500 0.451000 0.874300
vn 0.182300 0.420300 0.888900
vn 0.229300 0.423200 0.876500
vn 0.216700 0.451000 0.865800
vn 0.173500 0.504300 0.845900
vn 0.142400 0.513000 0.846500
vn 0.083000 0.574500 0.814200
vn 0.219500 0.618000 0.754900
vn 0.108000 0.557700 0.823000
vn 0.362000 0.622100 0.694200
vn 0.356700 0.600100 0.715900
vn 0.420500 0.446200 0.790000
vn 0.379700 0.429900 0.819100
vn 0.412500 0.418200 0.809300
vn 0.455600 0.397000 0.796700
vn 0.315300 0.363100 0.876700
vn 0.299100 0.414500 0.859500
vn 0.162500 0.402200 0.901000
vn 0.158300 0.346300 0.924600
vn 0.189300 0.380000 0.905400
vn 0.214200 0.401600 0.890400
vn 0.040000 -0.625700 -0.779000
vn -0.175700 -0.704500 -0.687600
vn -0.199700 -0.659000 -0.725200
vn 0.092500 -0.547000 -0.832000
vn 0.189900 -0.478100 -0.857500
vn 0.171400 -0.496300 -0.851000
vn 0.106200 -0.523800 -0.845200
vn -0.007500 -0.609300 -0.792900
vn -0.192100 -0.673900 -0.713400
vn -0.402300 -0.701100 -0.588700
vn -0.574400 -0.623700 -0.530000
vn -0.596300 -0.612200 -0.519300
vn -0.495900 -0.647300 -0.578800
vn -0.386000 -0.673800 -0.630000
vn -0.520600 -0.630700 -0.575400
vn -0.390500 -0.487400 -0.781000
vn -0.482200 -0.503500 -0.716900
vn -0.474400 -0.549000 -0.688100
vn -0.376600 -0.552400 -0.743600
vn -0.252400 -0.542300 -0.801300
vn -0.280200 -0.469700 -0.837200
vn -0.293200 -0.432300 -0.852700
vn -0.409200 -0.461200 -0.787200
vn -0.503200 -0.502300 -0.703200
vn -0.163900 -0.448700 -0.878500
vn -0.128200 -0.510000 -0.850600
vn -0.026500 -0.472600 -0.880900
vn -0.054600 -0.430500 -0.900900
vn -0.031600 -0.422000 -0.906000
vn -0.163600 -0.419400 -0.892900
vn -0.069400 -0.570700 -0.818200
vn -0.219500 -0.618000 -0.754900
vn 0.034200 -0.513000 -0.857700
vn -0.374600 -0.622800 -0.686800
vn -0.485900 -0.601700 -0.633900
vn -0.436300 -0.466100 -0.769600
vn -0.535000 -0.533200 -0.655300
vn -0.295500 -0.425400 -0.855300
vn -0.279200 -0.472500 -0.835900
vn -0.474200 -0.532200 -0.701300
vn -0.550600 -0.555700 -0.622900
vn -0.132300 -0.414300 -0.900500
vn 0.031500 -0.436800 -0.899000
vn 0.070900 -0.449800 -0.890300
vn -0.040700 -0.458200 -0.887900
vn -0.652100 -0.380600 0.655700
vn -0.327800 -0.632700 0.701600
vn -0.754000 -0.279100 0.594600
vn -0.550600 -0.555700 -0.622900
vn 0.516500 -0.811400 0.273500
vn 0.887100 -0.425400 0.178700
vn 0.261800 -0.935300 0.238000
vn 0.070900 -0.449800 -0.890300
vn 0.748700 0.587400 -0.307200
vn 0.500500 0.744100 -0.442400
vn 0.871200 0.429000 -0.238700
vn 0.189900 -0.478100 -0.857500
vn -0.764800 0.575500 -0.289600
vn -0.846500 0.514500 0.136600
vn -0.395300 0.629700 -0.668700
vn -0.596300 -0.612200 -0.519300
vn -0.867200 0.311500 0.388300
vn -0.853600 0.135500 0.503000
vn 0.087500 -0.884500 0.458100
vn 0.993500 -0.101000 -0.051900
vn 0.987800 0.017500 -0.154600
vn 0.127800 0.727800 -0.673700
vn 0.931300 0.297000 -0.210700
vn 0.954700 0.213500 -0.207300
vn -0.835700 -0.003500 0.549100
vn -0.824600 -0.090200 0.558500
vn -0.807800 -0.174500 0.562900
vn 0.970700 0.129300 -0.202700
vt 0.839504 0.118056
vt 0.856743 0.205307
vt 0.741230 0.205307
vt 0.734555 0.106726
vt 0.724541 0.032791
vt 0.813647 0.052618
vt 0.868992 0.081539
vt 0.913398 0.129584
vt 0.940923 0.205307
vt 0.839504 0.292557
vt 0.813647 0.357995
vt 0.724541 0.377822
vt 0.734555 0.303887
vt 0.913398 0.281029
vt 0.868992 0.329074
vt 0.369475 0.299954
vt 0.368286 0.370940
vt 0.245840 0.351447
vt 0.246397 0.288815
vt 0.246768 0.205307
vt 0.370268 0.205307
vt 0.494283 0.205307
vt 0.492822 0.304944
vt 0.490632 0.379672
vt 0.369475 0.110659
vt 0.246397 0.121798
vt 0.245841 0.059166
vt 0.368286 0.039673
vt 0.490632 0.030941
vt 0.492822 0.105669
vt 0.616755 0.103478
vt 0.619174 0.205307
vt 0.613127 0.027106
vt 0.616755 0.307135
vt 0.613126 0.383507
vt 0.123273 0.268175
vt 0.123047 0.315326
vt 0.054743 0.283353
vt 0.030912 0.249131
vt 0.030973 0.205306
vt 0.123423 0.205306
vt 0.123273 0.142438
vt 0.030912 0.161481
vt 0.054744 0.127260
vt 0.123047 0.095287
vt 0.839504 0.118056
vt 0.856743 0.205307
vt 0.968983 0.205307
vt 0.938030 0.133427
vt 0.876123 0.061548
vt 0.805028 0.030806
vt 0.721203 0.008146
vt 0.734555 0.106726
vt 0.741230 0.205307
vt 0.839504 0.292557
vt 0.805028 0.379807
vt 0.876123 0.349065
vt 0.938030 0.277186
vt 0.734555 0.303887
vt 0.721203 0.402467
vt 0.369475 0.299954
vt 0.367890 0.394602
vt 0.489902 0.404581
vt 0.492822 0.304944
vt 0.494283 0.205307
vt 0.370268 0.205307
vt 0.246768 0.205307
vt 0.246397 0.288815
vt 0.245655 0.372324
vt 0.369475 0.110659
vt 0.492822 0.105669
vt 0.489902 0.006032
vt 0.367890 0.016011
vt 0.245655 0.038289
vt 0.246397 0.121798
vt 0.616755 0.103478
vt 0.619174 0.205307
vt 0.611917 0.001649
vt 0.616755 0.307135
vt 0.611917 0.408964
vt 0.123273 0.268175
vt 0.122972 0.331043
vt 0.123423 0.205306
vt 0.000156 0.205306
vt 0.000125 0.242784
vt 0.000064 0.280261
vt 0.123273 0.142438
vt 0.122972 0.079570
vt 0.000064 0.130352
vt 0.000125 0.167829
vt 0.122972 0.331043
vt 0.030806 0.283587
vt 0.245655 0.372324
vt 0.030806 0.283587
vt 0.000125 0.167829
vt 0.030806 0.127026
vt 0.000156 0.205306
vt 0.030806 0.127026
vt 0.805028 0.030806
vt 0.873826 0.071832
vt 0.721203 0.008146
vt 0.873826 0.071832
vt 0.938030 0.277186
vt 0.873826 0.338781
vt 0.968983 0.205307
vt 0.873826 0.338781
vt 0.805028 0.379807
vt 0.721203 0.402467
vt 0.000125 0.242784
vt 0.122972 0.079570
vt 0.245655 0.038289
vt 0.938030 0.133427
vt 0.611917 0.001649
vt 0.489902 0.006032
vt 0.611917 0.408964
vt 0.489902 0.404581
vt 0.367890 0.394602
vt 0.367890 0.016011
f 1/1/1 2/2/2 3/3/3
f 1/1/1 3/3/3 4/4/4
f 1/1/1 4/4/4 5/5/5
f 1/1/1 5/5/5 6/6/6
f 1/1/1 6/6/6 7/7/7
f 1/1/1 7/7/7 8/8/8
f 1/1/1 8/8/8 9/9/9
f 1/1/1 9/9/9 2/2/2
f 10/10/10 11/11/11 12/12/12
f 10/10/10 12/12/12 13/13/13
f 10/10/10 13/13/13 3/3/3
f 10/10/10 3/3/3 2/2/2
f 10/10/10 2/2/2 9/9/9
f 10/10/10 9/9/9 14/14/14
f 10/10/10 14/14/14 15/15/15
f 10/10/10 15/15/15 11/11/11
f 16/16/16 17/17/17 18/18/18
f 16/16/16 18/18/18 19/19/19
f 16/16/16 19/19/19 20/20/20
f 16/16/16 20/20/20 21/21/21
f 16/16/16 21/21/21 22/22/22
f 16/16/16 22/22/22 23/23/23
f 16/16/16 23/23/23 24/24/24
f 16/16/16 24/24/24 17/17/17
f 25/25/25 21/21/21 20/20/20
f 25/25/25 20/20/20 26/26/26
f 25/25/25 26/26/26 27/27/27
f 25/25/25 27/27/27 28/28/28
f 25/25/25 28/28/28 29/29/29
f 25/25/25 29/29/29 30/30/30
f 25/25/25 30/30/30 22/22/22
f 25/25/25 22/22/22 21/21/21
f 31/31/31 32/32/32 22/22/22
f 31/31/31 22/22/22 30/30/30
f 31/31/31 30/30/30 29/29/29
f 31/31/31 29/29/29 33/33/33
f 31/31/31 33/33/33 5/5/5
f 31/31/31 5/5/5 4/4/4
f 31/31/31 4/4/4 3/3/3
f 31/31/31 3/3/3 32/32/32
f 34/34/34 35/35/35 24/24/24
f 34/34/34 24/24/24 23/23/23
f 34/34/34 23/23/23 22/22/22
f 34/34/34 22/22/22 32/32/32
f 34/34/34 32/32/32 3/3/3
f 34/34/34 3/3/3 13/13/13
f 34/34/34 13/13/13 12/12/12
f 34/34/34 12/12/12 35/35/35
f 36/36/36 37/37/37 38/38/38
f 36/36/36 38/38/38 39/39/39
f 36/36/36 39/39/39 40/40/40
f 36/36/36 40/40/40 41/41/41
f 36/36/36 41/41/41 20/20/20
f 36/36/36 20/20/20 19/19/19
f 36/36/36 19/19/19 18/18/18
f 36/36/36 18/18/18 37/37/37
f 42/42/42 41/41/41 40/40/40
f 42/42/42 40/40/40 43/43/43
f 42/42/42 43/43/43 44/44/44
f 42/42/42 44/44/44 45/45/45
f 42/42/42 45/45/45 27/27/27
f 42/42/42 27/27/27 26/26/26
f 42/42/42 26/26/26 20/20/20
f 42/42/42 20/20/20 41/41/41
f 46/46/46 47/47/47 48/48/48
f 46/46/46 48/48/48 49/49/49
f 46/46/46 49/49/49 50/50/50
f 46/46/46 50/50/50 51/51/51
f 46/46/46 51/51/51 52/52/52
f 46/46/46 52/52/52 53/53/53
f 46/46/46 53/53/53 54/54/54
f 46/46/46 54/54/54 47/47/47
f 55/55/55 56/56/56 57/57/57
f 55/55/55 57/57/57 58/58/58
f 55/55/55 58/58/58 48/48/48
f 55/55/55 48/48/48 47/47/47
f 55/55/55 47/47/47 54/54/54
f 55/55/55 54/54/54 59/59/59
f 55/55/55 59/59/59 60/60/60
f 55/55/55 60/60/60 56/56/56
f 61/61/61 62/62/62 63/63/63
f 61/61/61 63/63/63 64/64/64
f 61/61/61 64/64/64 65/65/65
f 61/61/61 65/65/65 66/66/66
f 61/61/61 66/66/66 67/67/67
f 61/61/61 67/67/67 68/68/68
f 61/61/61 68/68/68 69/69/69
f 61/61/61 69/69/69 62/62/62
f 70/70/70 66/66/66 65/65/65
f 70/70/70 65/65/65 71/71/71
f 70/70/70 71/71/71 72/72/72
f 70/70/70 72/72/72 73/73/73
f 70/70/70 73/73/73 74/74/74
f 70/70/70 74/74/74 75/75/75
f 70/70/70 75/75/75 67/67/67
f 70/70/70 67/67/67 66/66/66
f 76/76/76 77/77/77 54/54/54
f 76/76/76 54/54/54 53/53/53
f 76/76/76 53/53/53 52/52/52
f 76/76/76 52/52/52 78/78/78
f 76/76/76 78/78/78 72/72/72
f 76/76/76 72/72/72 71/71/71
f 76/76/76 71/71/71 65/65/65
f 76/76/76 65/65/65 77/77/77
f 79/79/79 80/80/80 60/60/60
f 79/79/79 60/60/60 59/59/59
f 79/79/79 59/59/59 54/54/54
f 79/79/79 54/54/54 77/77/77
f 79/79/79 77/77/77 65/65/65
f 79/79/79 65/65/65 64/64/64
f 79/79/79 64/64/64 63/63/63
f 79/79/79 63/63/63 80/80/80
f 81/81/81 82/82/82 69/69/69
f 81/81/81 69/69/69 68/68/68
f 81/81/81 68/68/68 67/67/67
f 81/81/81 67/67/67 83/83/83
f 81/81/81 83/83/83 84/84/84
f 81/81/81 84/84/84 85/85/85
f 81/81/81 85/85/85 86/86/86
f 81/81/81 86/86/86 82/82/82
f 87/87/87 83/83/83 67/67/67
f 87/87/87 67/67/67 75/75/75
f 87/87/87 75/75/75 74/74/74
f 87/87/87 74/74/74 88/88/88
f 87/87/87 88/88/88 89/89/89
f 87/87/87 89/89/89 90/90/90
f 87/87/87 90/90/90 84/84/84
f 87/87/87 84/84/84 83/83/83
f 91/91/91 92/92/92 38/38/38
f 91/91/91 38/38/38 37/37/37
f 91/91/91 37/37/37 18/18/18
f 91/91/91 18/18/18 93/93/93
f 91/91/91 93/93/93 69/69/69
f 91/91/91 69/69/69 82/82/82
f 91/91/91 82/82/82 94/94/94
f 91/91/91 94/94/94 92/92/92
f 95/95/95 96/96/96 44/44/44
f 95/95/95 44/44/44 43/43/43
f 95/95/95 43/43/43 40/40/40
f 95/95/95 40/40/40 97/97/97
f 95/95/95 97/97/97 84/84/84
f 95/95/95 84/84/84 90/90/90
f 95/95/95 90/90/90 98/98/98
f 95/95/95 98/98/98 96/96/96
f 99/99/99 100/100/100 7/7/7
f 99/99/99 7/7/7 6/6/6
f 99/99/99 6/6/6 5/5/5
f 99/99/99 5/5/5 101/101/101
f 99/99/99 101/101/101 52/52/52
f 99/99/99 52/52/52 51/51/51
f 99/99/99 51/51/51 102/102/102
f 99/99/99 102/102/102 100/100/100
f 103/103/103 104/104/104 15/15/15
f 103/103/103 15/15/15 14/14/14
f 103/103/103 14/14/14 9/9/9
f 103/103/103 9/9/9 105/105/105
f 103/103/103 105/105/105 48/48/48
f 103/103/103 48/48/48 58/58/58
f 103/103/103 58/58/58 106/106/106
f 103/103/103 106/106/106 104/104/104
f 107/107/107 108/108/108 12/12/12
f 107/107/107 12/12/12 11/11/11
f 107/107/107 11/11/11 15/15/15
f 107/107/107 15/15/15 104/104/104
f 107/107/107 104/104/104 106/106/106
f 107/107/107 106/106/106 56/56/56
f 107/107/107 56/56/56 60/60/60
f 107/107/107 60/60/60 108/108/108
f 109/109/109 97/97/97 40/40/40
f 109/109/109 40/40/40 39/39/39
f 109/109/109 39/39/39 38/38/38
f 109/109/109 38/38/38 92/92/92
f 109/109/109 92/92/92 94/94/94
f 109/109/109 94/94/94 85/85/85
f 109/109/109 85/85/85 84/84/84
f 109/109/109 84/84/84 97/97/97
f 110/110/110 111/111/111 27/27/27
f 110/110/110 27/27/27 45/45/45
f 110/110/110 45/45/45 44/44/44
f 110/110/110 44/44/44 96/96/96
f 110/110/110 96/96/96 98/98/98
f 110/110/110 98/98/98 88/88/88
f 110/110/110 88/88/88 74/74/74
f 110/110/110 74/74/74 111/111/111
f 112/112/112 105/105/105 9/9/9
f 112/112/112 9/9/9 8/8/8
f 112/112/112 8/8/8 7/7/7
f 112/112/112 7/7/7 100/100/100
f 112/112/112 100/100/100 102/102/102
f 112/112/112 102/102/102 49/49/49
f 112/112/112 49/49/49 48/48/48
f 112/112/112 48/48/48 105/105/105
f 113/113/113 101/101/101 5/5/5
f 113/113/113 5/5/5 33/33/33
f 113/113/113 33/33/33 29/29/29
f 113/113/113 29/29/29 114/114/114
f 113/113/113 114/114/114 72/72/72
f 113/113/113 72/72/72 78/78/78
f 113/113/113 78/78/78 52/52/52
f 113/113/113 52/52/52 101/101/101
f 115/115/115 116/116/116 24/24/24
f 115/115/115 24/24/24 35/35/35
f 115/115/115 35/35/35 12/12/12
f 115/115/115 12/12/12 108/108/108
f 115/115/115 108/108/108 60/60/60
f 115/115/115 60/60/60 80/80/80
f 115/115/115 80/80/80 63/63/63
f 115/115/115 63/63/63 116/116/116
f 117/117/117 93/93/93 18/18/18
f 117/117/117 18/18/18 17/17/17
f 117/117/117 17/17/17 24/24/24
f 117/117/117 24/24/24 116/116/116
f 117/117/117 116/116/116 63/63/63
f 117/117/117 63/63/63 62/62/62
f 117/117/117 62/62/62 69/69/69
f 117/117/117 69/69/69 93/93/93
f 118/118/118 114/114/114 29/29/29
f 118/118/118 29/29/29 28/28/28
f 118/118/118 28/28/28 27/27/27
f 118/118/118 27/27/27 111/111/111
f 118/118/118 111/111/111 74/74/74
f 118/118/118 74/74/74 73/73/73
f 118/118/118 73/73/73 72/72/72
f 118/118/118 72/72/72 114/114/114
