v -2.342470 0.790823 -1.159500
v -2.341260 0.790924 -1.161294
v -2.343551 0.789432 -1.162213
v -2.344642 0.789430 -1.160066
v -2.345676 0.789535 -1.158514
v -2.343754 0.790763 -1.158276
v -2.342306 0.791360 -1.158464
v -2.340847 0.791717 -1.159160
v -2.339531 0.791932 -1.160609
v -2.341087 0.791130 -1.163444
v -2.341329 0.791302 -1.165193
v -2.342922 0.790148 -1.166373
v -2.343071 0.789780 -1.164548
v -2.339650 0.791984 -1.162574
v -2.340342 0.791797 -1.164066
v -2.349340 0.783827 -1.167159
v -2.348939 0.784099 -1.168862
v -2.350878 0.781695 -1.169227
v -2.351222 0.781448 -1.167717
v -2.351777 0.781195 -1.165739
v -2.349979 0.783547 -1.164925
v -2.348035 0.785748 -1.164072
v -2.347381 0.786057 -1.166413
v -2.346984 0.786365 -1.168200
v -2.350880 0.783484 -1.162767
v -2.352583 0.781145 -1.163833
v -2.353264 0.781164 -1.162420
v -2.351637 0.783499 -1.161166
v -2.349806 0.785737 -1.160149
v -2.348992 0.785698 -1.161818
v -2.346864 0.787701 -1.160878
v -2.345851 0.787708 -1.163154
v -2.347756 0.787805 -1.159202
v -2.345230 0.788065 -1.165540
v -2.344893 0.788442 -1.167373
v -2.353139 0.778991 -1.168025
v -2.352922 0.779206 -1.169165
v -2.354078 0.777735 -1.168833
v -2.354569 0.777102 -1.168158
v -2.354794 0.776926 -1.167129
v -2.353524 0.778779 -1.166540
v -2.354156 0.778765 -1.165126
v -2.355266 0.776947 -1.166172
v -2.355331 0.777456 -1.165258
v -2.354703 0.778810 -1.164081
v -2.342359 0.790634 -1.159442
v -2.341138 0.790735 -1.161266
v -2.339442 0.791789 -1.160589
v -2.340767 0.791574 -1.159117
v -2.342248 0.791255 -1.158426
v -2.343677 0.790622 -1.158218
v -2.345592 0.789398 -1.158458
v -2.344523 0.789246 -1.160008
v -2.343422 0.789248 -1.162182
v -2.340956 0.790946 -1.163446
v -2.341226 0.791167 -1.165210
v -2.340268 0.791696 -1.164075
v -2.339554 0.791844 -1.162578
v -2.342933 0.789600 -1.164544
v -2.342814 0.790016 -1.166383
v -2.349175 0.783673 -1.167134
v -2.348812 0.783985 -1.168853
v -2.346863 0.786245 -1.168196
v -2.347224 0.785894 -1.166393
v -2.347884 0.785583 -1.164032
v -2.349819 0.783391 -1.164881
v -2.351611 0.781045 -1.165692
v -2.351050 0.781300 -1.167690
v -2.350747 0.781586 -1.169217
v -2.350728 0.783327 -1.162704
v -2.348848 0.785532 -1.161758
v -2.349702 0.785613 -1.160094
v -2.351526 0.783381 -1.161109
v -2.353149 0.781051 -1.162362
v -2.352425 0.780994 -1.163768
v -2.346733 0.787525 -1.160820
v -2.345711 0.787533 -1.163119
v -2.347662 0.787673 -1.159147
v -2.345083 0.787893 -1.165528
v -2.344779 0.788315 -1.167375
v -2.352965 0.778847 -1.167998
v -2.352788 0.779099 -1.169155
v -2.353356 0.778633 -1.166492
v -2.354668 0.776816 -1.167094
v -2.354439 0.776994 -1.168139
v -2.353980 0.777656 -1.168823
v -2.353996 0.778617 -1.165058
v -2.354588 0.778699 -1.164021
v -2.355244 0.777374 -1.165216
v -2.355146 0.776837 -1.166120
v -2.352789 0.779231 -1.169543
v -2.354413 0.777258 -1.168991
v -2.350705 0.781730 -1.169728
v -2.353980 0.777656 -1.168823
v -2.355583 0.776292 -1.166497
v -2.355668 0.776978 -1.165410
v -2.355161 0.776260 -1.167310
v -2.355244 0.777374 -1.165216
v -2.344149 0.790681 -1.157839
v -2.342310 0.791445 -1.158200
v -2.345984 0.789509 -1.157970
v -2.342248 0.791255 -1.158426
v -2.339128 0.792206 -1.162287
v -2.340186 0.791917 -1.164261
v -2.338915 0.792204 -1.160372
v -2.340268 0.791696 -1.164075
v -2.341363 0.791300 -1.165787
v -2.342824 0.790213 -1.166988
v -2.354988 0.776424 -1.168194
v -2.354836 0.778775 -1.163704
v -2.353441 0.781121 -1.161921
v -2.340271 0.791952 -1.159028
v -2.348013 0.787781 -1.158617
v -2.350032 0.785695 -1.159567
v -2.344728 0.788512 -1.167987
v -2.346797 0.786415 -1.168796
v -2.348748 0.784139 -1.169428
v -2.351840 0.783451 -1.160605
vn -0.429200 0.846700 -0.314400
vn -0.495700 0.861900 -0.106500
vn -0.542900 0.830300 -0.125500
vn -0.485800 0.816300 -0.312200
vn -0.508800 0.802600 -0.311400
vn -0.433000 0.847300 -0.307300
vn -0.377600 0.875300 -0.302200
vn -0.370600 0.895000 -0.248000
vn -0.418400 0.905000 -0.076100
vn -0.572000 0.814900 0.093100
vn -0.570600 0.816800 0.085400
vn -0.630400 0.775400 0.035300
vn -0.613500 0.788000 0.052100
vn -0.487200 0.869100 0.084900
vn -0.525300 0.842400 0.119700
vn -0.751100 0.653000 -0.096800
vn -0.746400 0.651700 -0.134600
vn -0.764800 0.627500 -0.146100
vn -0.772900 0.626800 -0.098100
vn -0.745400 0.631900 -0.212000
vn -0.720100 0.664300 -0.200500
vn -0.665200 0.725400 -0.176500
vn -0.705700 0.705700 -0.062700
vn -0.710200 0.697700 -0.093800
vn -0.679400 0.669000 -0.301400
vn -0.696100 0.643900 -0.317600
vn -0.719500 0.637500 -0.275400
vn -0.699200 0.662200 -0.269600
vn -0.647700 0.711600 -0.272200
vn -0.625300 0.723600 -0.292300
vn -0.552700 0.778900 -0.296300
vn -0.599000 0.786800 -0.148600
vn -0.578500 0.762800 -0.288900
vn -0.654100 0.756300 -0.006900
vn -0.668900 0.742700 -0.030900
vn -0.787200 0.611800 -0.077200
vn -0.781900 0.609700 -0.129600
vn -0.799300 0.591900 -0.103400
vn -0.823400 0.563100 -0.070600
vn -0.787700 0.570900 -0.231500
vn -0.756900 0.616300 -0.217200
vn -0.693400 0.632700 -0.344700
vn -0.715100 0.587300 -0.378900
vn -0.718300 0.609800 -0.334700
vn -0.721900 0.623000 -0.301200
vn 0.435400 -0.830700 0.346800
vn 0.508800 -0.853500 0.111800
vn 0.558500 -0.818900 0.131900
vn 0.447800 -0.777900 0.440700
vn 0.408200 -0.731400 0.546300
vn 0.413800 -0.744700 0.523600
vn 0.450800 -0.761600 0.465600
vn 0.480400 -0.814000 0.326500
vn 0.542800 -0.830400 0.125500
vn 0.596200 -0.795000 -0.111900
vn 0.684800 -0.684500 -0.249900
vn 0.693900 -0.667900 -0.269000
vn 0.661500 -0.730500 -0.169500
vn 0.618000 -0.783400 -0.066100
vn 0.678600 -0.710800 -0.184600
vn 0.754300 -0.651500 0.080900
vn 0.770100 -0.637100 -0.030100
vn 0.737900 -0.672500 -0.056000
vn 0.709100 -0.703400 0.048200
vn 0.665300 -0.725400 0.176600
vn 0.720200 -0.664100 0.200600
vn 0.745500 -0.631900 0.212000
vn 0.775400 -0.626500 0.079100
vn 0.775000 -0.629600 -0.053400
vn 0.672000 -0.669800 0.315900
vn 0.618800 -0.723500 0.305900
vn 0.575100 -0.708800 0.408500
vn 0.614800 -0.671700 0.413300
vn 0.603700 -0.667700 0.435400
vn 0.686100 -0.646400 0.333800
vn 0.546600 -0.778000 0.309600
vn 0.599000 -0.786800 0.148600
vn 0.510900 -0.747000 0.425300
vn 0.657600 -0.753300 -0.007000
vn 0.700000 -0.704900 -0.114100
vn 0.781000 -0.622800 0.047100
vn 0.758800 -0.640900 -0.115600
vn 0.750000 -0.625800 0.214100
vn 0.718200 -0.666500 0.199700
vn 0.749600 -0.660500 -0.042600
vn 0.743600 -0.650700 -0.154000
vn 0.670500 -0.647400 0.362400
vn 0.553000 -0.686700 0.471800
vn 0.517700 -0.700900 0.490600
vn 0.591900 -0.695700 0.406900
vn -0.066700 -0.090400 -0.993700
vn -0.359000 -0.351800 -0.864500
vn 0.061300 -0.000900 -0.998100
vn 0.743600 -0.650700 -0.154000
vn -0.665500 -0.745300 -0.040700
vn -0.800700 -0.450000 0.395400
vn -0.481700 -0.844300 -0.234500
vn 0.517700 -0.700900 0.490600
vn -0.218100 0.379300 0.899200
vn 0.071900 0.515500 0.853800
vn -0.373000 0.236400 0.897200
vn 0.408200 -0.731400 0.546300
vn 0.815500 0.545100 -0.194100
vn 0.561600 0.624300 -0.543000
vn 0.835700 0.440900 0.327200
vn 0.693900 -0.667900 -0.269000
vn 0.369000 0.509800 -0.777100
vn 0.253500 0.375700 -0.891400
vn -0.509800 -0.710800 -0.484600
vn -0.664800 -0.223700 0.712800
vn -0.571800 -0.142100 0.807900
vn 0.491100 0.473100 0.731400
vn -0.453300 0.112800 0.884200
vn -0.484100 0.031600 0.874400
vn 0.189000 0.255700 -0.948100
vn 0.162800 0.175600 -0.970900
vn 0.136300 0.095300 -0.986100
vn -0.510500 -0.049000 0.858500
vt 0.839504 0.118056
vt 0.856743 0.205307
vt 0.741230 0.205307
vt 0.734555 0.106726
vt 0.724541 0.032791
vt 0.813647 0.052618
vt 0.868992 0.081539
vt 0.913398 0.129584
vt 0.940923 0.205307
vt 0.839504 0.292557
vt 0.813647 0.357995
vt 0.724541 0.377822
vt 0.734555 0.303887
vt 0.913398 0.281029
vt 0.868992 0.329074
vt 0.369475 0.299954
vt 0.368286 0.370940
vt 0.245840 0.351447
vt 0.246397 0.288815
vt 0.246768 0.205307
vt 0.370268 0.205307
vt 0.494283 0.205307
vt 0.492822 0.304944
vt 0.490632 0.379672
vt 0.369475 0.110659
vt 0.246397 0.121798
vt 0.245841 0.059166
vt 0.368286 0.039673
vt 0.490632 0.030941
vt 0.492822 0.105669
vt 0.616755 0.103478
vt 0.619174 0.205307
vt 0.613127 0.027106
vt 0.616755 0.307135
vt 0.613126 0.383507
vt 0.123273 0.268175
vt 0.123047 0.315326
vt 0.054743 0.283353
vt 0.030912 0.249131
vt 0.030973 0.205306
vt 0.123423 0.205306
vt 0.123273 0.142438
vt 0.030912 0.161481
vt 0.054744 0.127260
vt 0.123047 0.095287
vt 0.839504 0.118056
vt 0.856743 0.205307
vt 0.968983 0.205307
vt 0.938030 0.133427
vt 0.876123 0.061548
vt 0.805028 0.030806
vt 0.721203 0.008146
vt 0.734555 0.106726
vt 0.741230 0.205307
vt 0.839504 0.292557
vt 0.805028 0.379807
vt 0.876123 0.349065
vt 0.938030 0.277186
vt 0.734555 0.303887
vt 0.721203 0.402467
vt 0.369475 0.299954
vt 0.367890 0.394602
vt 0.489902 0.404581
vt 0.492822 0.304944
vt 0.494283 0.205307
vt 0.370268 0.205307
vt 0.246768 0.205307
vt 0.246397 0.288815
vt 0.245655 0.372324
vt 0.369475 0.110659
vt 0.492822 0.105669
vt 0.489902 0.006032
vt 0.367890 0.016011
vt 0.245655 0.038289
vt 0.246397 0.121798
vt 0.616755 0.103478
vt 0.619174 0.205307
vt 0.611917 0.001649
vt 0.616755 0.307135
vt 0.611917 0.408964
vt 0.123273 0.268175
vt 0.122972 0.331043
vt 0.123423 0.205306
vt 0.000156 0.205306
vt 0.000125 0.242784
vt 0.000064 0.280261
vt 0.123273 0.142438
vt 0.122972 0.079570
vt 0.000064 0.130352
vt 0.000125 0.167829
vt 0.122972 0.331043
vt 0.030806 0.283587
vt 0.245655 0.372324
vt 0.030806 0.283587
vt 0.000125 0.167829
vt 0.030806 0.127026
vt 0.000156 0.205306
vt 0.030806 0.127026
vt 0.805028 0.030806
vt 0.873826 0.071832
vt 0.721203 0.008146
vt 0.873826 0.071832
vt 0.938030 0.277186
vt 0.873826 0.338781
vt 0.968983 0.205307
vt 0.873826 0.338781
vt 0.805028 0.379807
vt 0.721203 0.402467
vt 0.000125 0.242784
vt 0.122972 0.079570
vt 0.245655 0.038289
vt 0.938030 0.133427
vt 0.611917 0.001649
vt 0.489902 0.006032
vt 0.611917 0.408964
vt 0.489902 0.404581
vt 0.367890 0.394602
vt 0.367890 0.016011
f 1/1/1 2/2/2 3/3/3
f 1/1/1 3/3/3 4/4/4
f 1/1/1 4/4/4 5/5/5
f 1/1/1 5/5/5 6/6/6
f 1/1/1 6/6/6 7/7/7
f 1/1/1 7/7/7 8/8/8
f 1/1/1 8/8/8 9/9/9
f 1/1/1 9/9/9 2/2/2
f 10/10/10 11/11/11 12/12/12
f 10/10/10 12/12/12 13/13/13
f 10/10/10 13/13/13 3/3/3
f 10/10/10 3/3/3 2/2/2
f 10/10/10 2/2/2 9/9/9
f 10/10/10 9/9/9 14/14/14
f 10/10/10 14/14/14 15/15/15
f 10/10/10 15/15/15 11/11/11
f 16/16/16 17/17/17 18/18/18
f 16/16/16 18/18/18 19/19/19
f 16/16/16 19/19/19 20/20/20
f 16/16/16 20/20/20 21/21/21
f 16/16/16 21/21/21 22/22/22
f 16/16/16 22/22/22 23/23/23
f 16/16/16 23/23/23 24/24/24
f 16/16/16 24/24/24 17/17/17
f 25/25/25 21/21/21 20/20/20
f 25/25/25 20/20/20 26/26/26
f 25/25/25 26/26/26 27/27/27
f 25/25/25 27/27/27 28/28/28
f 25/25/25 28/28/28 29/29/29
f 25/25/25 29/29/29 30/30/30
f 25/25/25 30/30/30 22/22/22
f 25/25/25 22/22/22 21/21/21
f 31/31/31 32/32/32 22/22/22
f 31/31/31 22/22/22 30/30/30
f 31/31/31 30/30/30 29/29/29
f 31/31/31 29/29/29 33/33/33
f 31/31/31 33/33/33 5/5/5
f 31/31/31 5/5/5 4/4/4
f 31/31/31 4/4/4 3/3/3
f 31/31/31 3/3/3 32/32/32
f 34/34/34 35/35/35 24/24/24
f 34/34/34 24/24/24 23/23/23
f 34/34/34 23/23/23 22/22/22
f 34/34/34 22/22/22 32/32/32
f 34/34/34 32/32/32 3/3/3
f 34/34/34 3/3/3 13/13/13
f 34/34/34 13/13/13 12/12/12
f 34/34/34 12/12/12 35/35/35
f 36/36/36 37/37/37 38/38/38
f 36/36/36 38/38/38 39/39/39
f 36/36/36 39/39/39 40/40/40
f 36/36/36 40/40/40 41/41/41
f 36/36/36 41/41/41 20/20/20
f 36/36/36 20/20/20 19/19/19
f 36/36/36 19/19/19 18/18/18
f 36/36/36 18/18/18 37/37/37
f 42/42/42 41/41/41 40/40/40
f 42/42/42 40/40/40 43/43/43
f 42/42/42 43/43/43 44/44/44
f 42/42/42 44/44/44 45/45/45
f 42/42/42 45/45/45 27/27/27
f 42/42/42 27/27/27 26/26/26
f 42/42/42 26/26/26 20/20/20
f 42/42/42 20/20/20 41/41/41
f 46/46/46 47/47/47 48/48/48
f 46/46/46 48/48/48 49/49/49
f 46/46/46 49/49/49 50/50/50
f 46/46/46 50/50/50 51/51/51
f 46/46/46 51/51/51 52/52/52
f 46/46/46 52/52/52 53/53/53
f 46/46/46 53/53/53 54/54/54
f 46/46/46 54/54/54 47/47/47
f 55/55/55 56/56/56 57/57/57
f 55/55/55 57/57/57 58/58/58
f 55/55/55 58/58/58 48/48/48
f 55/55/55 48/48/48 47/47/47
f 55/55/55 47/47/47 54/54/54
f 55/55/55 54/54/54 59/59/59
f 55/55/55 59/59/59 60/60/60
f 55/55/55 60/60/60 56/56/56
f 61/61/61 62/62/62 63/63/63
f 61/61/61 63/63/63 64/64/64
f 61/61/61 64/64/64 65/65/65
f 61/61/61 65/65/65 66/66/66
f 61/61/61 66/66/66 67/67/67
f 61/61/61 67/67/67 68/68/68
f 61/61/61 68/68/68 69/69/69
f 61/61/61 69/69/69 62/62/62
f 70/70/70 66/66/66 65/65/65
f 70/70/70 65/65/65 71/71/71
f 70/70/70 71/71/71 72/72/72
f 70/70/70 72/72/72 73/73/73
f 70/70/70 73/73/73 74/74/74
f 70/70/70 74/74/74 75/75/75
f 70/70/70 75/75/75 67/67/67
f 70/70/70 67/67/67 66/66/66
f 76/76/76 77/77/77 54/54/54
f 76/76/76 54/54/54 53/53/53
f 76/76/76 53/53/53 52/52/52
f 76/76/76 52/52/52 78/78/78
f 76/76/76 78/78/78 72/72/72
f 76/76/76 72/72/72 71/71/71
f 76/76/76 71/71/71 65/65/65
f 76/76/76 65/65/65 77/77/77
f 79/79/79 80/80/80 60/60/60
f 79/79/79 60/60/60 59/59/59
f 79/79/79 59/59/59 54/54/54
f 79/79/79 54/54/54 77/77/77
f 79/79/79 77/77/77 65/65/65
f 79/79/79 65/65/65 64/64/64
f 79/79/79 64/64/64 63/63/63
f 79/79/79 63/63/63 80/80/80
f 81/81/81 82/82/82 69/69/69
f 81/81/81 69/69/69 68/68/68
f 81/81/81 68/68/68 67/67/67
f 81/81/81 67/67/67 83/83/83
f 81/81/81 83/83/83 84/84/84
f 81/81/81 84/84/84 85/85/85
f 81/81/81 85/85/85 86/86/86
f 81/81/81 86/86/86 82/82/82
f 87/87/87 83/83/83 67/67/67
f 87/87/87 67/67/67 75/75/75
f 87/87/87 75/75/75 74/74/74
f 87/87/87 74/74/74 88/88/88
f 87/87/87 88/88/88 89/89/89
f 87/87/87 89/89/89 90/90/90
f 87/87/87 90/90/90 84/84/84
f 87/87/87 84/84/84 83/83/83
f 91/91/91 92/92/92 38/38/38
f 91/91/91 38/38/38 37/37/37
f 91/91/91 37/37/37 18/18/18
f 91/91/91 18/18/18 93/93/93
f 91/91/91 93/93/93 69/69/69
f 91/91/91 69/69/69 82/82/82
f 91/91/91 82/82/82 94/94/94
f 91/91/91 94/94/94 92/92/92
f 95/95/95 96/96/96 44/44/44
f 95/95/95 44/44/44 43/43/43
f 95/95/95 43/43/43 40/40/40
f 95/95/95 40/40/40 97/97/97
f 95/95/95 97/97/97 84/84/84
f 95/95/95 84/84/84 90/90/90
f 95/95/95 90/90/90 98/98/98
f 95/95/95 98/98/98 96/96/96
f 99/99/99 100/100/100 7/7/7
f 99/99/99 7/7/7 6/6/6
f 99/99/99 6/6/6 5/5/5
f 99/99/99 5/5/5 101/101/101
f 99/99/99 101/101/101 52/52/52
f 99/99/99 52/52/52 51/51/51
f 99/99/99 51/51/51 102/102/102
f 99/99/99 102/102/102 100/100/100
f 103/103/103 104/104/104 15/15/15
f 103/103/103 15/15/15 14/14/14
f 103/103/103 14/14/14 9/9/9
f 103/103/103 9/9/9 105/105/105
f 103/103/103 105/105/105 48/48/48
f 103/103/103 48/48/48 58/58/58
f 103/103/103 58/58/58 106/106/106
f 103/103/103 106/106/106 104/104/104
f 107/107/107 108/108/108 12/12/12
f 107/107/107 12/12/12 11/11/11
f 107/107/107 11/11/11 15/15/15
f 107/107/107 15/15/15 104/104/104
f 107/107/107 104/104/104 106/106/106
f 107/107/107 106/106/106 56/56/56
f 107/107/107 56/56/56 60/60/60
f 107/107/107 60/60/60 108/108/108
f 109/109/109 97/97/97 40/40/40
f 109/109/109 40/40/40 39/39/39
f 109/109/109 39/39/39 38/38/38
f 109/109/109 38/38/38 92/92/92
f 109/109/109 92/92/92 94/94/94
f 109/109/109 94/94/94 85/85/85
f 109/109/109 85/85/85 84/84/84
f 109/109/109 84/84/84 97/97/97
f 110/110/110 111/111/111 27/27/27
f 110/110/110 27/27/27 45/45/45
f 110/110/110 45/45/45 44/44/44
f 110/110/110 44/44/44 96/96/96
f 110/110/110 96/96/96 98/98/98
f 110/110/110 98/98/98 88/88/88
f 110/110/110 88/88/88 74/74/74
f 110/110/110 74/74/74 111/111/111
f 112/112/112 105/105/105 9/9/9
f 112/112/112 9/9/9 8/8/8
f 112/112/112 8/8/8 7/7/7
f 112/112/112 7/7/7 100/100/100
f 112/112/112 100/100/100 102/102/102
f 112/112/112 102/102/102 49/49/49
f 112/112/112 49/49/49 48/48/48
f 112/112/112 48/48/48 105/105/105
f 113/113/113 101/101/101 5/5/5
f 113/113/113 5/5/5 33/33/33
f 113/113/113 33/33/33 29/29/29
f 113/113/113 29/29/29 114/114/114
f 113/113/113 114/114/114 72/72/72
f 113/113/113 72/72/72 78/78/78
f 113/113/113 78/78/78 52/52/52
f 113/113/113 52/52/52 101/101/101
f 115/115/115 116/116/116 24/24/24
f 115/115/115 24/24/24 35/35/35
f 115/115/115 35/35/35 12/12/12
f 115/115/115 12/12/12 108/108/108
f 115/115/115 108/108/108 60/60/60
f 115/115/115 60/60/60 80/80/80
f 115/115/115 80/80/80 63/63/63
f 115/115/115 63/63/63 116/116/116
f 117/117/117 93/93/93 18/18/18
f 117/117/117 18/18/18 17/17/17
f 117/117/117 17/17/17 24/24/24
f 117/117/117 24/24/24 116/116/116
f 117/117/117 116/116/116 63/63/63
f 117/117/117 63/63/63 62/62/62
f 117/117/117 62/62/62 69/69/69
f 117/117/117 69/69/69 93/93/93
f 118/118/118 114/114/114 29/29/29
f 118/118/118 29/29/29 28/28/28
f 118/118/118 28/28/28 27/27/27
f 118/118/118 27/27/27 111/111/111
f 118/118/118 111/111/111 74/74/74
f 118/118/118 74/74/74 73/73/73
f 118/118/118 73/73/73 72/72/72
f 118/118/118 72/72/72 114/114/114
