v -2.460101 0.756860 -1.115588
v -2.461827 0.756468 -1.113684
v -2.458905 0.755315 -1.112235
v -2.457285 0.755820 -1.114574
v -2.455864 0.756380 -1.116212
v -2.458400 0.757271 -1.116799
v -2.460274 0.757529 -1.116820
v -2.462176 0.757460 -1.116253
v -2.463999 0.757200 -1.114773
v -2.462453 0.756465 -1.111162
v -2.462523 0.756578 -1.109038
v -2.460549 0.755592 -1.107396
v -2.459957 0.755371 -1.109544
v -2.464212 0.757118 -1.112422
v -2.463614 0.756968 -1.110534
v -2.451416 0.750039 -1.105548
v -2.452249 0.750086 -1.103594
v -2.449364 0.747824 -1.102907
v -2.448638 0.747770 -1.104642
v -2.447588 0.747814 -1.106892
v -2.450220 0.750099 -1.108086
v -2.452966 0.752168 -1.109360
v -2.454208 0.752128 -1.106698
v -2.455060 0.752211 -1.104642
v -2.448798 0.750479 -1.110476
v -2.446322 0.748160 -1.109000
v -2.445306 0.748506 -1.110545
v -2.447660 0.750857 -1.112229
v -2.450261 0.753018 -1.113675
v -2.451468 0.752588 -1.111853
v -2.454352 0.754383 -1.113274
v -2.455906 0.753895 -1.110768
v -2.453074 0.754910 -1.115087
v -2.457132 0.753915 -1.108043
v -2.457944 0.754092 -1.105920
v -2.445752 0.745446 -1.104029
v -2.446261 0.745530 -1.102711
v -2.444436 0.744187 -1.102953
v -2.443567 0.743654 -1.103688
v -2.443081 0.743607 -1.104873
v -2.444995 0.745444 -1.105725
v -2.444024 0.745736 -1.107282
v -2.442382 0.743853 -1.105917
v -2.442305 0.744545 -1.106964
v -2.443230 0.746040 -1.108414
v -2.460162 0.756614 -1.115685
v -2.461906 0.756216 -1.113749
v -2.464055 0.757010 -1.114820
v -2.462218 0.757275 -1.116326
v -2.460302 0.757394 -1.116881
v -2.458436 0.757090 -1.116888
v -2.455910 0.756201 -1.116301
v -2.457357 0.755577 -1.114672
v -2.458993 0.755068 -1.112304
v -2.462549 0.756213 -1.111193
v -2.462604 0.756390 -1.109044
v -2.463670 0.756828 -1.110542
v -2.464281 0.756928 -1.112442
v -2.460061 0.755123 -1.109583
v -2.460634 0.755407 -1.107410
v -2.451557 0.749814 -1.105615
v -2.452359 0.749918 -1.103633
v -2.455163 0.752037 -1.104675
v -2.454337 0.751895 -1.106758
v -2.453084 0.751936 -1.109443
v -2.450349 0.749875 -1.108175
v -2.447726 0.747597 -1.106984
v -2.448786 0.747552 -1.104712
v -2.449480 0.747660 -1.102949
v -2.448915 0.750258 -1.110586
v -2.451573 0.752360 -1.111958
v -2.450333 0.752849 -1.113765
v -2.447742 0.750694 -1.112322
v -2.445394 0.748347 -1.110640
v -2.446448 0.747945 -1.109113
v -2.454441 0.754146 -1.113375
v -2.456008 0.753654 -1.110844
v -2.453133 0.754736 -1.115175
v -2.457247 0.753674 -1.108093
v -2.458038 0.753911 -1.105944
v -2.445904 0.745230 -1.104100
v -2.446380 0.745369 -1.102752
v -2.445135 0.745229 -1.105819
v -2.443187 0.743446 -1.104943
v -2.443681 0.743492 -1.103740
v -2.444523 0.744067 -1.102987
v -2.444152 0.745524 -1.107398
v -2.443319 0.745883 -1.108512
v -2.442373 0.744428 -1.107033
v -2.442478 0.743695 -1.106006
v -2.446484 0.745487 -1.102287
v -2.443934 0.743715 -1.102724
v -2.449659 0.747768 -1.102345
v -2.444523 0.744067 -1.102987
v -2.441878 0.743155 -1.105502
v -2.441799 0.744074 -1.106742
v -2.442490 0.742923 -1.104620
v -2.442373 0.744428 -1.107033
v -2.457847 0.757329 -1.117246
v -2.460250 0.757652 -1.117128
v -2.455410 0.756488 -1.116801
v -2.460302 0.757394 -1.116881
v -2.464828 0.757251 -1.112850
v -2.463863 0.757045 -1.110328
v -2.464747 0.757359 -1.115157
v -2.463670 0.756828 -1.110542
v -2.462585 0.756532 -1.108328
v -2.460786 0.755584 -1.106682
v -2.442889 0.742985 -1.103598
v -2.443004 0.746072 -1.108838
v -2.445004 0.748551 -1.111104
v -2.462885 0.757577 -1.116507
v -2.452672 0.755009 -1.115733
v -2.449889 0.753086 -1.114324
v -2.458258 0.754071 -1.105220
v -2.455392 0.752162 -1.103969
v -2.452576 0.750027 -1.102958
v -2.447316 0.750911 -1.112857
vn 0.155400 0.899300 0.408800
vn 0.244800 0.945500 0.214500
vn 0.295200 0.924900 0.239400
vn 0.217600 0.883700 0.414400
vn 0.243100 0.875900 0.416600
vn 0.159900 0.901400 0.402400
vn 0.100500 0.915400 0.389800
vn 0.096700 0.936900 0.335900
vn 0.164400 0.970900 0.174000
vn 0.358000 0.933300 0.027600
vn 0.355000 0.934200 0.035100
vn 0.415400 0.904900 0.092400
vn 0.398600 0.914100 0.073500
vn 0.262000 0.964700 0.024500
vn 0.310100 0.950700 -0.004900
vn 0.543000 0.805600 0.237000
vn 0.533500 0.800300 0.273500
vn 0.555500 0.780500 0.286700
vn 0.570300 0.785400 0.240700
vn 0.526500 0.775300 0.348900
vn 0.495700 0.801300 0.334900
vn 0.431300 0.849100 0.305000
vn 0.491200 0.848100 0.198200
vn 0.493200 0.839100 0.229300
vn 0.441300 0.788500 0.428400
vn 0.461200 0.767000 0.446000
vn 0.491200 0.769700 0.407800
vn 0.466400 0.789100 0.399700
vn 0.404400 0.824300 0.396200
vn 0.377100 0.829000 0.412900
vn 0.293200 0.864700 0.407600
vn 0.356600 0.894600 0.269400
vn 0.323000 0.855900 0.403800
vn 0.437000 0.888900 0.137000
vn 0.451300 0.877400 0.162500
vn 0.590700 0.775800 0.221700
vn 0.578700 0.768700 0.272400
vn 0.603500 0.757600 0.248500
vn 0.638300 0.737900 0.219000
vn 0.579400 0.724900 0.372600
vn 0.540600 0.762500 0.355300
vn 0.457700 0.753500 0.471900
vn 0.485000 0.712200 0.507300
vn 0.488300 0.738400 0.465000
vn 0.493300 0.754400 0.433000
vn -0.160800 -0.882900 -0.441100
vn -0.258800 -0.940200 -0.221400
vn -0.312100 -0.917200 -0.247700
vn -0.172400 -0.827900 -0.533700
vn -0.131100 -0.765400 -0.630000
vn -0.136400 -0.781200 -0.609100
vn -0.175900 -0.810800 -0.558200
vn -0.210900 -0.879000 -0.427500
vn -0.295100 -0.925000 -0.239400
vn -0.388800 -0.921200 -0.012000
vn -0.520800 -0.845900 0.114400
vn -0.536300 -0.833600 0.132500
vn -0.475700 -0.878800 0.037000
vn -0.406000 -0.911800 -0.060300
vn -0.499000 -0.865100 0.049900
vn -0.548700 -0.806100 -0.221700
vn -0.583200 -0.804300 -0.114100
vn -0.547200 -0.832600 -0.084800
vn -0.497100 -0.847900 -0.184300
vn -0.431400 -0.849000 -0.305100
vn -0.495900 -0.801100 -0.335000
vn -0.526600 -0.775100 -0.349000
vn -0.575300 -0.787100 -0.222300
vn -0.593100 -0.799900 -0.091400
vn -0.431900 -0.786400 -0.441500
vn -0.369000 -0.826300 -0.425300
vn -0.316300 -0.793800 -0.519300
vn -0.362800 -0.767200 -0.528900
vn -0.350000 -0.759100 -0.548800
vn -0.448700 -0.765800 -0.460600
vn -0.285700 -0.861400 -0.419800
vn -0.356600 -0.894600 -0.269400
vn -0.242900 -0.814200 -0.527300
vn -0.443100 -0.887900 -0.123700
vn -0.511000 -0.859200 -0.022700
vn -0.586200 -0.787200 -0.191500
vn -0.583500 -0.811600 -0.027900
vn -0.532100 -0.770300 -0.351500
vn -0.493500 -0.803100 -0.333900
vn -0.559400 -0.822900 -0.099300
vn -0.571900 -0.820200 0.011900
vn -0.429500 -0.760800 -0.486400
vn -0.291500 -0.762600 -0.577500
vn -0.251400 -0.766400 -0.591000
vn -0.335900 -0.785300 -0.519900
vn -0.054400 -0.145100 0.987900
vn 0.309200 -0.318500 0.896100
vn -0.199900 -0.090000 0.975600
vn -0.571900 -0.820200 0.011900
vn 0.817600 -0.564000 0.115800
vn 0.935200 -0.213000 -0.282600
vn 0.638800 -0.718400 0.275200
vn -0.251400 -0.766400 -0.591000
vn 0.241600 0.486700 -0.839500
vn -0.076300 0.545200 -0.834800
vn 0.425600 0.385500 -0.818700
vn -0.131100 -0.765400 -0.630000
vn -0.944700 0.316600 0.084800
vn -0.770600 0.428400 0.471800
vn -0.864000 0.249800 -0.437100
vn -0.536300 -0.833600 0.132500
vn -0.591200 0.346500 0.728200
vn -0.463100 0.236000 0.854300
vn 0.596800 -0.601100 0.531500
vn 0.793700 -0.002800 -0.608300
vn 0.697600 0.060800 -0.713900
vn -0.484500 0.393900 -0.781000
vn 0.531300 0.284400 -0.798000
vn 0.579600 0.212700 -0.786600
vn -0.379100 0.131100 0.916000
vn -0.337400 0.058400 0.939500
vn -0.294000 -0.014200 0.955700
vn 0.622600 0.140000 -0.769900
vt 0.839504 0.118056
vt 0.856743 0.205307
vt 0.741230 0.205307
vt 0.734555 0.106726
vt 0.724541 0.032791
vt 0.813647 0.052618
vt 0.868992 0.081539
vt 0.913398 0.129584
vt 0.940923 0.205307
vt 0.839504 0.292557
vt 0.813647 0.357995
vt 0.724541 0.377822
vt 0.734555 0.303887
vt 0.913398 0.281029
vt 0.868992 0.329074
vt 0.369475 0.299954
vt 0.368286 0.370940
vt 0.245840 0.351447
vt 0.246397 0.288815
vt 0.246768 0.205307
vt 0.370268 0.205307
vt 0.494283 0.205307
vt 0.492822 0.304944
vt 0.490632 0.379672
vt 0.369475 0.110659
vt 0.246397 0.121798
vt 0.245841 0.059166
vt 0.368286 0.039673
vt 0.490632 0.030941
vt 0.492822 0.105669
vt 0.616755 0.103478
vt 0.619174 0.205307
vt 0.613127 0.027106
vt 0.616755 0.307135
vt 0.613126 0.383507
vt 0.123273 0.268175
vt 0.123047 0.315326
vt 0.054743 0.283353
vt 0.030912 0.249131
vt 0.030973 0.205306
vt 0.123423 0.205306
vt 0.123273 0.142438
vt 0.030912 0.161481
vt 0.054744 0.127260
vt 0.123047 0.095287
vt 0.839504 0.118056
vt 0.856743 0.205307
vt 0.968983 0.205307
vt 0.938030 0.133427
vt 0.876123 0.061548
vt 0.805028 0.030806
vt 0.721203 0.008146
vt 0.734555 0.106726
vt 0.741230 0.205307
vt 0.839504 0.292557
vt 0.805028 0.379807
vt 0.876123 0.349065
vt 0.938030 0.277186
vt 0.734555 0.303887
vt 0.721203 0.402467
vt 0.369475 0.299954
vt 0.367890 0.394602
vt 0.489902 0.404581
vt 0.492822 0.304944
vt 0.494283 0.205307
vt 0.370268 0.205307
vt 0.246768 0.205307
vt 0.246397 0.288815
vt 0.245655 0.372324
vt 0.369475 0.110659
vt 0.492822 0.105669
vt 0.489902 0.006032
vt 0.367890 0.016011
vt 0.245655 0.038289
vt 0.246397 0.121798
vt 0.616755 0.103478
vt 0.619174 0.205307
vt 0.611917 0.001649
vt 0.616755 0.307135
vt 0.611917 0.408964
vt 0.123273 0.268175
vt 0.122972 0.331043
vt 0.123423 0.205306
vt 0.000156 0.205306
vt 0.000125 0.242784
vt 0.000064 0.280261
vt 0.123273 0.142438
vt 0.122972 0.079570
vt 0.000064 0.130352
vt 0.000125 0.167829
vt 0.122972 0.331043
vt 0.030806 0.283587
vt 0.245655 0.372324
vt 0.030806 0.283587
vt 0.000125 0.167829
vt 0.030806 0.127026
vt 0.000156 0.205306
vt 0.030806 0.127026
vt 0.805028 0.030806
vt 0.873826 0.071832
vt 0.721203 0.008146
vt 0.873826 0.071832
vt 0.938030 0.277186
vt 0.873826 0.338781
vt 0.968983 0.205307
vt 0.873826 0.338781
vt 0.805028 0.379807
vt 0.721203 0.402467
vt 0.000125 0.242784
vt 0.122972 0.079570
vt 0.245655 0.038289
vt 0.938030 0.133427
vt 0.611917 0.001649
vt 0.489902 0.006032
vt 0.611917 0.408964
vt 0.489902 0.404581
vt 0.367890 0.394602
vt 0.367890 0.016011
f 1/1/1 2/2/2 3/3/3
f 1/1/1 3/3/3 4/4/4
f 1/1/1 4/4/4 5/5/5
f 1/1/1 5/5/5 6/6/6
f 1/1/1 6/6/6 7/7/7
f 1/1/1 7/7/7 8/8/8
f 1/1/1 8/8/8 9/9/9
f 1/1/1 9/9/9 2/2/2
f 10/10/10 11/11/11 12/12/12
f 10/10/10 12/12/12 13/13/13
f 10/10/10 13/13/13 3/3/3
f 10/10/10 3/3/3 2/2/2
f 10/10/10 2/2/2 9/9/9
f 10/10/10 9/9/9 14/14/14
f 10/10/10 14/14/14 15/15/15
f 10/10/10 15/15/15 11/11/11
f 16/16/16 17/17/17 18/18/18
f 16/16/16 18/18/18 19/19/19
f 16/16/16 19/19/19 20/20/20
f 16/16/16 20/20/20 21/21/21
f 16/16/16 21/21/21 22/22/22
f 16/16/16 22/22/22 23/23/23
f 16/16/16 23/23/23 24/24/24
f 16/16/16 24/24/24 17/17/17
f 25/25/25 21/21/21 20/20/20
f 25/25/25 20/20/20 26/26/26
f 25/25/25 26/26/26 27/27/27
f 25/25/25 27/27/27 28/28/28
f 25/25/25 28/28/28 29/29/29
f 25/25/25 29/29/29 30/30/30
f 25/25/25 30/30/30 22/22/22
f 25/25/25 22/22/22 21/21/21
f 31/31/31 32/32/32 22/22/22
f 31/31/31 22/22/22 30/30/30
f 31/31/31 30/30/30 29/29/29
f 31/31/31 29/29/29 33/33/33
f 31/31/31 33/33/33 5/5/5
f 31/31/31 5/5/5 4/4/4
f 31/31/31 4/4/4 3/3/3
f 31/31/31 3/3/3 32/32/32
f 34/34/34 35/35/35 24/24/24
f 34/34/34 24/24/24 23/23/23
f 34/34/34 23/23/23 22/22/22
f 34/34/34 22/22/22 32/32/32
f 34/34/34 32/32/32 3/3/3
f 34/34/34 3/3/3 13/13/13
f 34/34/34 13/13/13 12/12/12
f 34/34/34 12/12/12 35/35/35
f 36/36/36 37/37/37 38/38/38
f 36/36/36 38/38/38 39/39/39
f 36/36/36 39/39/39 40/40/40
f 36/36/36 40/40/40 41/41/41
f 36/36/36 41/41/41 20/20/20
f 36/36/36 20/20/20 19/19/19
f 36/36/36 19/19/19 18/18/18
f 36/36/36 18/18/18 37/37/37
f 42/42/42 41/41/41 40/40/40
f 42/42/42 40/40/40 43/43/43
f 42/42/42 43/43/43 44/44/44
f 42/42/42 44/44/44 45/45/45
f 42/42/42 45/45/45 27/27/27
f 42/42/42 27/27/27 26/26/26
f 42/42/42 26/26/26 20/20/20
f 42/42/42 20/20/20 41/41/41
f 46/46/46 47/47/47 48/48/48
f 46/46/46 48/48/48 49/49/49
f 46/46/46 49/49/49 50/50/50
f 46/46/46 50/50/50 51/51/51
f 46/46/46 51/51/51 52/52/52
f 46/46/46 52/52/52 53/53/53
f 46/46/46 53/53/53 54/54/54
f 46/46/46 54/54/54 47/47/47
f 55/55/55 56/56/56 57/57/57
f 55/55/55 57/57/57 58/58/58
f 55/55/55 58/58/58 48/48/48
f 55/55/55 48/48/48 47/47/47
f 55/55/55 47/47/47 54/54/54
f 55/55/55 54/54/54 59/59/59
f 55/55/55 59/59/59 60/60/60
f 55/55/55 60/60/60 56/56/56
f 61/61/61 62/62/62 63/63/63
f 61/61/61 63/63/63 64/64/64
f 61/61/61 64/64/64 65/65/65
f 61/61/61 65/65/65 66/66/66
f 61/61/61 66/66/66 67/67/67
f 61/61/61 67/67/67 68/68/68
f 61/61/61 68/68/68 69/69/69
f 61/61/61 69/69/69 62/62/62
f 70/70/70 66/66/66 65/65/65
f 70/70/70 65/65/65 71/71/71
f 70/70/70 71/71/71 72/72/72
f 70/70/70 72/72/72 73/73/73
f 70/70/70 73/73/73 74/74/74
f 70/70/70 74/74/74 75/75/75
f 70/70/70 75/75/75 67/67/67
f 70/70/70 67/67/67 66/66/66
f 76/76/76 77/77/77 54/54/54
f 76/76/76 54/54/54 53/53/53
f 76/76/76 53/53/53 52/52/52
f 76/76/76 52/52/52 78/78/78
f 76/76/76 78/78/78 72/72/72
f 76/76/76 72/72/72 71/71/71
f 76/76/76 71/71/71 65/65/65
f 76/76/76 65/65/65 77/77/77
f 79/79/79 80/80/80 60/60/60
f 79/79/79 60/60/60 59/59/59
f 79/79/79 59/59/59 54/54/54
f 79/79/79 54/54/54 77/77/77
f 79/79/79 77/77/77 65/65/65
f 79/79/79 65/65/65 64/64/64
f 79/79/79 64/64/64 63/63/63
f 79/79/79 63/63/63 80/80/80
f 81/81/81 82/82/82 69/69/69
f 81/81/81 69/69/69 68/68/68
f 81/81/81 68/68/68 67/67/67
f 81/81/81 67/67/67 83/83/83
f 81/81/81 83/83/83 84/84/84
f 81/81/81 84/84/84 85/85/85
f 81/81/81 85/85/85 86/86/86
f 81/81/81 86/86/86 82/82/82
f 87/87/87 83/83/83 67/67/67
f 87/87/87 67/67/67 75/75/75
f 87/87/87 75/75/75 74/74/74
f 87/87/87 74/74/74 88/88/88
f 87/87/87 88/88/88 89/89/89
f 87/87/87 89/89/89 90/90/90
f 87/87/87 90/90/90 84/84/84
f 87/87/87 84/84/84 83/83/83
f 91/91/91 92/92/92 38/38/38
f 91/91/91 38/38/38 37/37/37
f 91/91/91 37/37/37 18/18/18
f 91/91/91 18/18/18 93/93/93
f 91/91/91 93/93/93 69/69/69
f 91/91/91 69/69/69 82/82/82
f 91/91/91 82/82/82 94/94/94
f 91/91/91 94/94/94 92/92/92
f 95/95/95 96/96/96 44/44/44
f 95/95/95 44/44/44 43/43/43
f 95/95/95 43/43/43 40/40/40
f 95/95/95 40/40/40 97/97/97
f 95/95/95 97/97/97 84/84/84
f 95/95/95 84/84/84 90/90/90
f 95/95/95 90/90/90 98/98/98
f 95/95/95 98/98/98 96/96/96
f 99/99/99 100/100/100 7/7/7
f 99/99/99 7/7/7 6/6/6
f 99/99/99 6/6/6 5/5/5
f 99/99/99 5/5/5 101/101/101
f 99/99/99 101/101/101 52/52/52
f 99/99/99 52/52/52 51/51/51
f 99/99/99 51/51/51 102/102/102
f 99/99/99 102/102/102 100/100/100
f 103/103/103 104/104/104 15/15/15
f 103/103/103 15/15/15 14/14/14
f 103/103/103 14/14/14 9/9/9
f 103/103/103 9/9/9 105/105/105
f 103/103/103 105/105/105 48/48/48
f 103/103/103 48/48/48 58/58/58
f 103/103/103 58/58/58 106/106/106
f 103/103/103 106/106/106 104/104/104
f 107/107/107 108/108/108 12/12/12
f 107/107/107 12/12/12 11/11/11
f 107/107/107 11/11/11 15/15/15
f 107/107/107 15/15/15 104/104/104
f 107/107/107 104/104/104 106/106/106
f 107/107/107 106/106/106 56/56/56
f 107/107/107 56/56/56 60/60/60
f 107/107/107 60/60/60 108/108/108
f 109/109/109 97/97/97 40/40/40
f 109/109/109 40/40/40 39/39/39
f 109/109/109 39/39/39 38/38/38
f 109/109/109 38/38/38 92/92/92
f 109/109/109 92/92/92 94/94/94
f 109/109/109 94/94/94 85/85/85
f 109/109/109 85/85/85 84/84/84
f 109/109/109 84/84/84 97/97/97
f 110/110/110 111/111/111 27/27/27
f 110/110/110 27/27/27 45/45/45
f 110/110/110 45/45/45 44/44/44
f 110/110/110 44/44/44 96/96/96
f 110/110/110 96/96/96 98/98/98
f 110/110/110 98/98/98 88/88/88
f 110/110/110 88/88/88 74/74/74
f 110/110/110 74/74/74 111/111/111
f 112/112/112 105/105/105 9/9/9
f 112/112/112 9/9/9 8/8/8
f 112/112/112 8/8/8 7/7/7
f 112/112/112 7/7/7 100/100/100
f 112/112/112 100/100/100 102/102/102
f 112/112/112 102/102/102 49/49/49
f 112/112/112 49/49/49 48/48/48
f 112/112/112 48/48/48 105/105/105
f 113/113/113 101/101/101 5/5/5
f 113/113/113 5/5/5 33/33/33
f 113/113/113 33/33/33 29/29/29
f 113/113/113 29/29/29 114/114/114
f 113/113/113 114/114/114 72/72/72
f 113/113/113 72/72/72 78/78/78
f 113/113/113 78/78/78 52/52/52
f 113/113/113 52/52/52 101/101/101
f 115/115/115 116/116/116 24/24/24
f 115/115/115 24/24/24 35/35/35
f 115/115/115 35/35/35 12/12/12
f 115/115/115 12/12/12 108/108/108
f 115/115/115 108/108/108 60/60/60
f 115/115/115 60/60/60 80/80/80
f 115/115/115 80/80/80 63/63/63
f 115/115/115 63/63/63 116/116/116
f 117/117/117 93/93/93 18/18/18
f 117/117/117 18/18/18 17/17/17
f 117/117/117 17/17/17 24/24/24
f 117/117/117 24/24/24 116/116/116
f 117/117/117 116/116/116 63/63/63
f 117/117/117 63/63/63 62/62/62
f 117/117/117 62/62/62 69/69/69
f 117/117/117 69/69/69 93/93/93
f 118/118/118 114/114/114 29/29/29
f 118/118/118 29/29/29 28/28/28
f 118/118/118 28/28/28 27/27/27
f 118/118/118 27/27/27 111/111/111
f 118/118/118 111/111/111 74/74/74
f 118/118/118 74/74/74 73/73/73
f 118/118/118 73/73/73 72/72/72
f 118/118/118 72/72/72 114/114/114
