v -2.398941 0.741351 -1.081647
v -2.396904 0.741990 -1.082253
v -2.397848 0.740605 -1.084684
v -2.400027 0.739981 -1.083710
v -2.401818 0.739620 -1.083148
v -2.400695 0.740895 -1.081528
v -2.399556 0.741627 -1.080647
v -2.398047 0.742252 -1.080194
v -2.396162 0.742921 -1.080444
v -2.395497 0.742759 -1.083786
v -2.394656 0.743364 -1.085279
v -2.394958 0.742424 -1.087409
v -2.396114 0.741581 -1.086141
v -2.395066 0.743470 -1.082045
v -2.394665 0.743626 -1.083685
v -2.398246 0.735965 -1.093171
v -2.396944 0.736698 -1.094198
v -2.397755 0.734292 -1.096118
v -2.398899 0.733636 -1.095201
v -2.400495 0.732841 -1.094055
v -2.400059 0.735073 -1.091884
v -2.399499 0.737154 -1.089613
v -2.397615 0.738104 -1.090969
v -2.396272 0.738894 -1.092058
v -2.402081 0.734398 -1.090789
v -2.402290 0.732250 -1.093094
v -2.403698 0.731862 -1.092427
v -2.403663 0.733952 -1.090024
v -2.403300 0.736021 -1.087693
v -2.401626 0.736464 -1.088477
v -2.400932 0.738338 -1.086052
v -2.398738 0.738996 -1.087175
v -2.402686 0.737953 -1.085302
v -2.396862 0.740002 -1.088580
v -2.395553 0.740868 -1.089732
v -2.399717 0.731164 -1.097070
v -2.398893 0.731684 -1.097785
v -2.399705 0.730070 -1.098507
v -2.400374 0.729238 -1.098399
v -2.401144 0.728785 -1.097769
v -2.400886 0.730547 -1.096193
v -2.402248 0.730129 -1.095498
v -2.402108 0.728530 -1.097322
v -2.402825 0.728794 -1.096569
v -2.403331 0.729870 -1.095029
v -2.398848 0.741157 -1.081561
v -2.396785 0.741804 -1.082183
v -2.396073 0.742780 -1.080394
v -2.397980 0.742104 -1.080132
v -2.399512 0.741517 -1.080597
v -2.400640 0.740746 -1.081456
v -2.401756 0.739475 -1.083072
v -2.399929 0.739792 -1.083619
v -2.397726 0.740424 -1.084607
v -2.395353 0.742585 -1.083732
v -2.394536 0.743241 -1.085247
v -2.394580 0.743533 -1.083660
v -2.394958 0.743339 -1.082009
v -2.395969 0.741410 -1.086078
v -2.394839 0.742303 -1.087369
v -2.398097 0.735817 -1.093070
v -2.396824 0.736591 -1.094128
v -2.396153 0.738781 -1.091996
v -2.397468 0.737948 -1.090878
v -2.399369 0.736990 -1.089511
v -2.399926 0.734918 -1.091772
v -2.400361 0.732692 -1.093936
v -2.398748 0.733494 -1.095093
v -2.397635 0.734189 -1.096043
v -2.401965 0.734236 -1.090668
v -2.401514 0.736294 -1.088365
v -2.403226 0.735890 -1.087603
v -2.403584 0.733828 -1.089929
v -2.403619 0.731743 -1.092326
v -2.402172 0.732094 -1.092966
v -2.400826 0.738158 -1.085951
v -2.398612 0.738823 -1.087086
v -2.402617 0.737814 -1.085220
v -2.396716 0.739838 -1.088504
v -2.395435 0.740751 -1.089681
v -2.399565 0.731025 -1.096961
v -2.398771 0.731584 -1.097709
v -2.400750 0.730401 -1.096072
v -2.401043 0.728676 -1.097678
v -2.400259 0.729135 -1.098318
v -2.399616 0.729995 -1.098449
v -2.402131 0.729976 -1.095367
v -2.403253 0.729752 -1.094925
v -2.402765 0.728708 -1.096493
v -2.402022 0.728415 -1.097223
v -2.398562 0.731814 -1.097991
v -2.399774 0.729617 -1.098924
v -2.397319 0.734465 -1.096391
v -2.399616 0.729995 -1.098449
v -2.402024 0.727945 -1.097886
v -2.402900 0.728339 -1.096982
v -2.401186 0.728149 -1.098254
v -2.402765 0.728708 -1.096493
v -2.401258 0.740676 -1.081454
v -2.399738 0.741642 -1.080430
v -2.402390 0.739434 -1.082925
v -2.399512 0.741517 -1.080597
v -2.394875 0.743649 -1.081450
v -2.394447 0.743805 -1.083717
v -2.395875 0.743169 -1.079819
v -2.394580 0.743533 -1.083660
v -2.394320 0.743512 -1.085764
v -2.394517 0.742652 -1.087815
v -2.400542 0.728551 -1.098806
v -2.403659 0.729730 -1.094825
v -2.404134 0.731679 -1.092158
v -2.397720 0.742486 -1.079682
v -2.403242 0.737762 -1.085014
v -2.403827 0.735815 -1.087390
v -2.395062 0.741106 -1.090095
v -2.395770 0.739108 -1.092395
v -2.396455 0.736896 -1.094510
v -2.404157 0.733747 -1.089726
vn -0.319100 0.870100 -0.375500
vn -0.497900 0.828400 -0.256500
vn -0.516700 0.799700 -0.305600
vn -0.358100 0.836700 -0.414200
vn -0.373600 0.821700 -0.430200
vn -0.326500 0.868700 -0.372400
vn -0.292200 0.897800 -0.329300
vn -0.323200 0.903700 -0.280600
vn -0.465100 0.867200 -0.178000
vn -0.666600 0.728000 -0.159700
vn -0.661200 0.731900 -0.164300
vn -0.669100 0.701000 -0.246600
vn -0.668800 0.709700 -0.221300
vn -0.607100 0.787800 -0.104200
vn -0.651900 0.750800 -0.105800
vn -0.658900 0.608300 -0.442500
vn -0.632600 0.616600 -0.468600
vn -0.634800 0.595100 -0.492700
vn -0.669700 0.581900 -0.461300
vn -0.581500 0.617200 -0.530000
vn -0.575200 0.647100 -0.500300
vn -0.559600 0.703600 -0.437900
vn -0.654900 0.653400 -0.379700
vn -0.638300 0.653100 -0.407500
vn -0.484500 0.679600 -0.550900
vn -0.482600 0.658400 -0.577600
vn -0.524600 0.640200 -0.561100
vn -0.517500 0.663700 -0.540000
vn -0.486100 0.715400 -0.501900
vn -0.459200 0.733400 -0.501300
vn -0.411800 0.792400 -0.450000
vn -0.537600 0.760000 -0.365300
vn -0.433000 0.773300 -0.463100
vn -0.658600 0.691500 -0.296700
vn -0.653000 0.683300 -0.326500
vn -0.690200 0.561200 -0.456700
vn -0.654300 0.572800 -0.493700
vn -0.679900 0.547800 -0.487500
vn -0.712100 0.510300 -0.482000
vn -0.590000 0.560600 -0.581000
vn -0.584100 0.602700 -0.543700
vn -0.462100 0.654500 -0.598300
vn -0.449300 0.617800 -0.645300
vn -0.482700 0.628400 -0.609900
vn -0.508200 0.632500 -0.584600
vn 0.301400 -0.862400 0.406600
vn 0.503300 -0.820800 0.270100
vn 0.522800 -0.789300 0.322000
vn 0.244000 -0.834400 0.494200
vn 0.140700 -0.818400 0.557100
vn 0.161400 -0.825200 0.541300
vn 0.228200 -0.824500 0.517700
vn 0.345000 -0.838300 0.422100
vn 0.516700 -0.799800 0.305500
vn 0.692600 -0.702500 0.163600
vn 0.820900 -0.555600 0.131600
vn 0.836000 -0.534300 0.125300
vn 0.764400 -0.621700 0.171000
vn 0.679600 -0.701500 0.214200
vn 0.782500 -0.598000 0.173400
vn 0.670600 -0.602600 0.432600
vn 0.746100 -0.559900 0.360300
vn 0.744000 -0.589400 0.314600
vn 0.665700 -0.647400 0.371100
vn 0.559600 -0.703500 0.438000
vn 0.575300 -0.647000 0.500400
vn 0.581500 -0.617100 0.530000
vn 0.682900 -0.576700 0.448400
vn 0.762400 -0.546400 0.346700
vn 0.470300 -0.684500 0.557000
vn 0.446000 -0.737200 0.507600
vn 0.347800 -0.751400 0.560700
vn 0.368100 -0.714300 0.595100
vn 0.345500 -0.716700 0.605700
vn 0.465700 -0.665500 0.583300
vn 0.399000 -0.795200 0.456400
vn 0.537600 -0.759900 0.365300
vn 0.295900 -0.796500 0.527200
vn 0.668900 -0.684900 0.288800
vn 0.755900 -0.608500 0.241400
vn 0.705500 -0.564700 0.428200
vn 0.789100 -0.542800 0.287400
vn 0.582600 -0.611500 0.535400
vn 0.574800 -0.649200 0.498100
vn 0.742500 -0.580500 0.334100
vn 0.802200 -0.543500 0.247100
vn 0.436700 -0.674600 0.595200
vn 0.288400 -0.747400 0.598500
vn 0.252800 -0.768000 0.588400
vn 0.359100 -0.737300 0.572200
vn 0.559800 0.158200 -0.813300
vn 0.309600 -0.145300 -0.939700
vn 0.643300 0.253600 -0.722300
vn 0.802200 -0.543500 0.247100
vn -0.338600 -0.751100 -0.566700
vn -0.764700 -0.584100 -0.272200
vn -0.059300 -0.786200 -0.615100
vn 0.252800 -0.768000 0.588400
vn -0.783900 0.126600 0.607900
vn -0.560100 0.287600 0.776900
vn -0.873100 -0.020000 0.487100
vn 0.140700 -0.818400 0.557100
vn 0.636500 0.626300 0.450100
vn 0.631500 0.774500 0.037400
vn 0.362500 0.395800 0.843700
vn 0.836000 -0.534300 0.125300
vn 0.645600 0.710800 -0.279200
vn 0.651700 0.602700 -0.460500
vn 0.040500 -0.595700 -0.802100
vn -0.895100 -0.436700 0.090200
vn -0.896600 -0.375700 0.234400
vn -0.153000 0.303500 0.940500
vn -0.902300 -0.141300 0.407200
vn -0.903900 -0.219600 0.367100
vn 0.659800 0.497200 -0.563300
vn 0.669500 0.423700 -0.610000
vn 0.674400 0.347700 -0.651400
vn -0.898200 -0.294600 0.326200
vt 0.839504 0.118056
vt 0.856743 0.205307
vt 0.741230 0.205307
vt 0.734555 0.106726
vt 0.724541 0.032791
vt 0.813647 0.052618
vt 0.868992 0.081539
vt 0.913398 0.129584
vt 0.940923 0.205307
vt 0.839504 0.292557
vt 0.813647 0.357995
vt 0.724541 0.377822
vt 0.734555 0.303887
vt 0.913398 0.281029
vt 0.868992 0.329074
vt 0.369475 0.299954
vt 0.368286 0.370940
vt 0.245840 0.351447
vt 0.246397 0.288815
vt 0.246768 0.205307
vt 0.370268 0.205307
vt 0.494283 0.205307
vt 0.492822 0.304944
vt 0.490632 0.379672
vt 0.369475 0.110659
vt 0.246397 0.121798
vt 0.245841 0.059166
vt 0.368286 0.039673
vt 0.490632 0.030941
vt 0.492822 0.105669
vt 0.616755 0.103478
vt 0.619174 0.205307
vt 0.613127 0.027106
vt 0.616755 0.307135
vt 0.613126 0.383507
vt 0.123273 0.268175
vt 0.123047 0.315326
vt 0.054743 0.283353
vt 0.030912 0.249131
vt 0.030973 0.205306
vt 0.123423 0.205306
vt 0.123273 0.142438
vt 0.030912 0.161481
vt 0.054744 0.127260
vt 0.123047 0.095287
vt 0.839504 0.118056
vt 0.856743 0.205307
vt 0.968983 0.205307
vt 0.938030 0.133427
vt 0.876123 0.061548
vt 0.805028 0.030806
vt 0.721203 0.008146
vt 0.734555 0.106726
vt 0.741230 0.205307
vt 0.839504 0.292557
vt 0.805028 0.379807
vt 0.876123 0.349065
vt 0.938030 0.277186
vt 0.734555 0.303887
vt 0.721203 0.402467
vt 0.369475 0.299954
vt 0.367890 0.394602
vt 0.489902 0.404581
vt 0.492822 0.304944
vt 0.494283 0.205307
vt 0.370268 0.205307
vt 0.246768 0.205307
vt 0.246397 0.288815
vt 0.245655 0.372324
vt 0.369475 0.110659
vt 0.492822 0.105669
vt 0.489902 0.006032
vt 0.367890 0.016011
vt 0.245655 0.038289
vt 0.246397 0.121798
vt 0.616755 0.103478
vt 0.619174 0.205307
vt 0.611917 0.001649
vt 0.616755 0.307135
vt 0.611917 0.408964
vt 0.123273 0.268175
vt 0.122972 0.331043
vt 0.123423 0.205306
vt 0.000156 0.205306
vt 0.000125 0.242784
vt 0.000064 0.280261
vt 0.123273 0.142438
vt 0.122972 0.079570
vt 0.000064 0.130352
vt 0.000125 0.167829
vt 0.122972 0.331043
vt 0.030806 0.283587
vt 0.245655 0.372324
vt 0.030806 0.283587
vt 0.000125 0.167829
vt 0.030806 0.127026
vt 0.000156 0.205306
vt 0.030806 0.127026
vt 0.805028 0.030806
vt 0.873826 0.071832
vt 0.721203 0.008146
vt 0.873826 0.071832
vt 0.938030 0.277186
vt 0.873826 0.338781
vt 0.968983 0.205307
vt 0.873826 0.338781
vt 0.805028 0.379807
vt 0.721203 0.402467
vt 0.000125 0.242784
vt 0.122972 0.079570
vt 0.245655 0.038289
vt 0.938030 0.133427
vt 0.611917 0.001649
vt 0.489902 0.006032
vt 0.611917 0.408964
vt 0.489902 0.404581
vt 0.367890 0.394602
vt 0.367890 0.016011
f 1/1/1 2/2/2 3/3/3
f 1/1/1 3/3/3 4/4/4
f 1/1/1 4/4/4 5/5/5
f 1/1/1 5/5/5 6/6/6
f 1/1/1 6/6/6 7/7/7
f 1/1/1 7/7/7 8/8/8
f 1/1/1 8/8/8 9/9/9
f 1/1/1 9/9/9 2/2/2
f 10/10/10 11/11/11 12/12/12
f 10/10/10 12/12/12 13/13/13
f 10/10/10 13/13/13 3/3/3
f 10/10/10 3/3/3 2/2/2
f 10/10/10 2/2/2 9/9/9
f 10/10/10 9/9/9 14/14/14
f 10/10/10 14/14/14 15/15/15
f 10/10/10 15/15/15 11/11/11
f 16/16/16 17/17/17 18/18/18
f 16/16/16 18/18/18 19/19/19
f 16/16/16 19/19/19 20/20/20
f 16/16/16 20/20/20 21/21/21
f 16/16/16 21/21/21 22/22/22
f 16/16/16 22/22/22 23/23/23
f 16/16/16 23/23/23 24/24/24
f 16/16/16 24/24/24 17/17/17
f 25/25/25 21/21/21 20/20/20
f 25/25/25 20/20/20 26/26/26
f 25/25/25 26/26/26 27/27/27
f 25/25/25 27/27/27 28/28/28
f 25/25/25 28/28/28 29/29/29
f 25/25/25 29/29/29 30/30/30
f 25/25/25 30/30/30 22/22/22
f 25/25/25 22/22/22 21/21/21
f 31/31/31 32/32/32 22/22/22
f 31/31/31 22/22/22 30/30/30
f 31/31/31 30/30/30 29/29/29
f 31/31/31 29/29/29 33/33/33
f 31/31/31 33/33/33 5/5/5
f 31/31/31 5/5/5 4/4/4
f 31/31/31 4/4/4 3/3/3
f 31/31/31 3/3/3 32/32/32
f 34/34/34 35/35/35 24/24/24
f 34/34/34 24/24/24 23/23/23
f 34/34/34 23/23/23 22/22/22
f 34/34/34 22/22/22 32/32/32
f 34/34/34 32/32/32 3/3/3
f 34/34/34 3/3/3 13/13/13
f 34/34/34 13/13/13 12/12/12
f 34/34/34 12/12/12 35/35/35
f 36/36/36 37/37/37 38/38/38
f 36/36/36 38/38/38 39/39/39
f 36/36/36 39/39/39 40/40/40
f 36/36/36 40/40/40 41/41/41
f 36/36/36 41/41/41 20/20/20
f 36/36/36 20/20/20 19/19/19
f 36/36/36 19/19/19 18/18/18
f 36/36/36 18/18/18 37/37/37
f 42/42/42 41/41/41 40/40/40
f 42/42/42 40/40/40 43/43/43
f 42/42/42 43/43/43 44/44/44
f 42/42/42 44/44/44 45/45/45
f 42/42/42 45/45/45 27/27/27
f 42/42/42 27/27/27 26/26/26
f 42/42/42 26/26/26 20/20/20
f 42/42/42 20/20/20 41/41/41
f 46/46/46 47/47/47 48/48/48
f 46/46/46 48/48/48 49/49/49
f 46/46/46 49/49/49 50/50/50
f 46/46/46 50/50/50 51/51/51
f 46/46/46 51/51/51 52/52/52
f 46/46/46 52/52/52 53/53/53
f 46/46/46 53/53/53 54/54/54
f 46/46/46 54/54/54 47/47/47
f 55/55/55 56/56/56 57/57/57
f 55/55/55 57/57/57 58/58/58
f 55/55/55 58/58/58 48/48/48
f 55/55/55 48/48/48 47/47/47
f 55/55/55 47/47/47 54/54/54
f 55/55/55 54/54/54 59/59/59
f 55/55/55 59/59/59 60/60/60
f 55/55/55 60/60/60 56/56/56
f 61/61/61 62/62/62 63/63/63
f 61/61/61 63/63/63 64/64/64
f 61/61/61 64/64/64 65/65/65
f 61/61/61 65/65/65 66/66/66
f 61/61/61 66/66/66 67/67/67
f 61/61/61 67/67/67 68/68/68
f 61/61/61 68/68/68 69/69/69
f 61/61/61 69/69/69 62/62/62
f 70/70/70 66/66/66 65/65/65
f 70/70/70 65/65/65 71/71/71
f 70/70/70 71/71/71 72/72/72
f 70/70/70 72/72/72 73/73/73
f 70/70/70 73/73/73 74/74/74
f 70/70/70 74/74/74 75/75/75
f 70/70/70 75/75/75 67/67/67
f 70/70/70 67/67/67 66/66/66
f 76/76/76 77/77/77 54/54/54
f 76/76/76 54/54/54 53/53/53
f 76/76/76 53/53/53 52/52/52
f 76/76/76 52/52/52 78/78/78
f 76/76/76 78/78/78 72/72/72
f 76/76/76 72/72/72 71/71/71
f 76/76/76 71/71/71 65/65/65
f 76/76/76 65/65/65 77/77/77
f 79/79/79 80/80/80 60/60/60
f 79/79/79 60/60/60 59/59/59
f 79/79/79 59/59/59 54/54/54
f 79/79/79 54/54/54 77/77/77
f 79/79/79 77/77/77 65/65/65
f 79/79/79 65/65/65 64/64/64
f 79/79/79 64/64/64 63/63/63
f 79/79/79 63/63/63 80/80/80
f 81/81/81 82/82/82 69/69/69
f 81/81/81 69/69/69 68/68/68
f 81/81/81 68/68/68 67/67/67
f 81/81/81 67/67/67 83/83/83
f 81/81/81 83/83/83 84/84/84
f 81/81/81 84/84/84 85/85/85
f 81/81/81 85/85/85 86/86/86
f 81/81/81 86/86/86 82/82/82
f 87/87/87 83/83/83 67/67/67
f 87/87/87 67/67/67 75/75/75
f 87/87/87 75/75/75 74/74/74
f 87/87/87 74/74/74 88/88/88
f 87/87/87 88/88/88 89/89/89
f 87/87/87 89/89/89 90/90/90
f 87/87/87 90/90/90 84/84/84
f 87/87/87 84/84/84 83/83/83
f 91/91/91 92/92/92 38/38/38
f 91/91/91 38/38/38 37/37/37
f 91/91/91 37/37/37 18/18/18
f 91/91/91 18/18/18 93/93/93
f 91/91/91 93/93/93 69/69/69
f 91/91/91 69/69/69 82/82/82
f 91/91/91 82/82/82 94/94/94
f 91/91/91 94/94/94 92/92/92
f 95/95/95 96/96/96 44/44/44
f 95/95/95 44/44/44 43/43/43
f 95/95/95 43/43/43 40/40/40
f 95/95/95 40/40/40 97/97/97
f 95/95/95 97/97/97 84/84/84
f 95/95/95 84/84/84 90/90/90
f 95/95/95 90/90/90 98/98/98
f 95/95/95 98/98/98 96/96/96
f 99/99/99 100/100/100 7/7/7
f 99/99/99 7/7/7 6/6/6
f 99/99/99 6/6/6 5/5/5
f 99/99/99 5/5/5 101/101/101
f 99/99/99 101/101/101 52/52/52
f 99/99/99 52/52/52 51/51/51
f 99/99/99 51/51/51 102/102/102
f 99/99/99 102/102/102 100/100/100
f 103/103/103 104/104/104 15/15/15
f 103/103/103 15/15/15 14/14/14
f 103/103/103 14/14/14 9/9/9
f 103/103/103 9/9/9 105/105/105
f 103/103/103 105/105/105 48/48/48
f 103/103/103 48/48/48 58/58/58
f 103/103/103 58/58/58 106/106/106
f 103/103/103 106/106/106 104/104/104
f 107/107/107 108/108/108 12/12/12
f 107/107/107 12/12/12 11/11/11
f 107/107/107 11/11/11 15/15/15
f 107/107/107 15/15/15 104/104/104
f 107/107/107 104/104/104 106/106/106
f 107/107/107 106/106/106 56/56/56
f 107/107/107 56/56/56 60/60/60
f 107/107/107 60/60/60 108/108/108
f 109/109/109 97/97/97 40/40/40
f 109/109/109 40/40/40 39/39/39
f 109/109/109 39/39/39 38/38/38
f 109/109/109 38/38/38 92/92/92
f 109/109/109 92/92/92 94/94/94
f 109/109/109 94/94/94 85/85/85
f 109/109/109 85/85/85 84/84/84
f 109/109/109 84/84/84 97/97/97
f 110/110/110 111/111/111 27/27/27
f 110/110/110 27/27/27 45/45/45
f 110/110/110 45/45/45 44/44/44
f 110/110/110 44/44/44 96/96/96
f 110/110/110 96/96/96 98/98/98
f 110/110/110 98/98/98 88/88/88
f 110/110/110 88/88/88 74/74/74
f 110/110/110 74/74/74 111/111/111
f 112/112/112 105/105/105 9/9/9
f 112/112/112 9/9/9 8/8/8
f 112/112/112 8/8/8 7/7/7
f 112/112/112 7/7/7 100/100/100
f 112/112/112 100/100/100 102/102/102
f 112/112/112 102/102/102 49/49/49
f 112/112/112 49/49/49 48/48/48
f 112/112/112 48/48/48 105/105/105
f 113/113/113 101/101/101 5/5/5
f 113/113/113 5/5/5 33/33/33
f 113/113/113 33/33/33 29/29/29
f 113/113/113 29/29/29 114/114/114
f 113/113/113 114/114/114 72/72/72
f 113/113/113 72/72/72 78/78/78
f 113/113/113 78/78/78 52/52/52
f 113/113/113 52/52/52 101/101/101
f 115/115/115 116/116/116 24/24/24
f 115/115/115 24/24/24 35/35/35
f 115/115/115 35/35/35 12/12/12
f 115/115/115 12/12/12 108/108/108
f 115/115/115 108/108/108 60/60/60
f 115/115/115 60/60/60 80/80/80
f 115/115/115 80/80/80 63/63/63
f 115/115/115 63/63/63 116/116/116
f 117/117/117 93/93/93 18/18/18
f 117/117/117 18/18/18 17/17/17
f 117/117/117 17/17/17 24/24/24
f 117/117/117 24/24/24 116/116/116
f 117/117/117 116/116/116 63/63/63
f 117/117/117 63/63/63 62/62/62
f 117/117/117 62/62/62 69/69/69
f 117/117/117 69/69/69 93/93/93
f 118/118/118 114/114/114 29/29/29
f 118/118/118 29/29/29 28/28/28
f 118/118/118 28/28/28 27/27/27
f 118/118/118 27/27/27 111/111/111
f 118/118/118 111/111/111 74/74/74
f 118/118/118 74/74/74 73/73/73
f 118/118/118 73/73/73 72/72/72
f 118/118/118 72/72/72 114/114/114
