v -2.344381 0.703246 -1.148125
v -2.344820 0.703843 -1.150363
v -2.347496 0.702423 -1.149543
v -2.346681 0.701847 -1.147120
v -2.346262 0.701535 -1.145157
v -2.344428 0.702835 -1.146240
v -2.343380 0.703560 -1.147389
v -2.342749 0.704158 -1.148966
v -2.342826 0.704791 -1.151012
v -2.346299 0.704607 -1.152031
v -2.347792 0.705221 -1.153089
v -2.350084 0.704247 -1.152938
v -2.348861 0.703393 -1.151559
v -2.344409 0.705336 -1.152347
v -2.346104 0.705493 -1.152936
v -2.356555 0.697555 -1.149754
v -2.357509 0.698284 -1.151260
v -2.359640 0.695772 -1.150489
v -2.358785 0.695119 -1.149164
v -2.357734 0.694337 -1.147333
v -2.355375 0.696678 -1.147676
v -2.352901 0.698853 -1.148133
v -2.354145 0.699788 -1.150296
v -2.355161 0.700577 -1.151854
v -2.354418 0.696040 -1.145404
v -2.356896 0.693779 -1.145318
v -2.356329 0.693423 -1.143749
v -2.353766 0.695628 -1.143639
v -2.351245 0.697799 -1.143881
v -2.351910 0.698203 -1.145746
v -2.349261 0.700152 -1.146322
v -2.350232 0.700764 -1.148778
v -2.348639 0.699812 -1.144379
v -2.351528 0.701761 -1.150939
v -2.352613 0.702631 -1.152470
v -2.360864 0.692538 -1.148378
v -2.361536 0.693059 -1.149340
v -2.362393 0.691383 -1.148486
v -2.362350 0.690527 -1.147733
v -2.361762 0.690076 -1.146839
v -2.360054 0.691928 -1.147033
v -2.359454 0.691537 -1.145507
v -2.361384 0.689842 -1.145766
v -2.360654 0.690149 -1.144946
v -2.359064 0.691305 -1.144306
v -2.344283 0.703035 -1.148207
v -2.344736 0.703640 -1.150475
v -2.342766 0.704638 -1.151095
v -2.342678 0.703998 -1.149025
v -2.343324 0.703440 -1.147426
v -2.344348 0.702674 -1.146285
v -2.346178 0.701379 -1.145209
v -2.346576 0.701641 -1.147207
v -2.347404 0.702225 -1.149657
v -2.346230 0.704417 -1.152171
v -2.347748 0.705086 -1.153208
v -2.346071 0.705390 -1.153021
v -2.344362 0.705192 -1.152453
v -2.348782 0.703206 -1.151699
v -2.350031 0.704113 -1.153055
v -2.356435 0.697391 -1.149896
v -2.357424 0.698165 -1.151376
v -2.355085 0.700452 -1.151969
v -2.354036 0.699616 -1.150436
v -2.352782 0.698673 -1.148254
v -2.355245 0.696506 -1.147799
v -2.357597 0.694172 -1.147458
v -2.358658 0.694962 -1.149307
v -2.359549 0.695658 -1.150606
v -2.354280 0.695863 -1.145508
v -2.351782 0.698017 -1.145847
v -2.351145 0.697657 -1.143946
v -2.353658 0.695493 -1.143707
v -2.356216 0.693293 -1.143818
v -2.356750 0.693608 -1.145423
v -2.349145 0.699956 -1.146417
v -2.350127 0.700574 -1.148896
v -2.348547 0.699662 -1.144438
v -2.351435 0.701580 -1.151079
v -2.352549 0.702501 -1.152585
v -2.360735 0.692383 -1.148523
v -2.361445 0.692947 -1.149458
v -2.359914 0.691766 -1.147158
v -2.361657 0.689955 -1.146933
v -2.362254 0.690413 -1.147842
v -2.362324 0.691299 -1.148570
v -2.359305 0.691369 -1.145612
v -2.358948 0.691176 -1.144374
v -2.360569 0.690055 -1.144999
v -2.361272 0.689716 -1.145843
v -2.361721 0.693184 -1.149716
v -2.362844 0.690907 -1.148434
v -2.359885 0.695940 -1.150985
v -2.362324 0.691299 -1.148570
v -2.361978 0.689221 -1.145886
v -2.361103 0.689671 -1.144888
v -2.362285 0.689404 -1.146816
v -2.360569 0.690055 -1.144999
v -2.344407 0.702625 -1.145628
v -2.343168 0.703582 -1.147176
v -2.346084 0.701361 -1.144523
v -2.343324 0.703440 -1.147426
v -2.343759 0.705515 -1.152500
v -2.346115 0.705673 -1.153178
v -2.342135 0.705039 -1.151265
v -2.346071 0.705390 -1.153021
v -2.348272 0.705368 -1.153498
v -2.350469 0.704473 -1.153453
v -2.362803 0.689807 -1.147567
v -2.358881 0.691169 -1.143934
v -2.356089 0.693246 -1.143254
v -2.342174 0.704391 -1.149272
v -2.348390 0.699632 -1.143755
v -2.350978 0.697600 -1.143287
v -2.352947 0.702865 -1.153034
v -2.355467 0.700785 -1.152426
v -2.357790 0.698475 -1.151816
v -2.353499 0.695431 -1.143079
vn -0.395900 0.883700 0.249600
vn -0.293900 0.848500 0.440000
vn -0.344800 0.820900 0.455300
vn -0.438200 0.852000 0.286100
vn -0.455700 0.837800 0.300700
vn -0.393400 0.882600 0.257300
vn -0.347100 0.910200 0.226000
vn -0.301400 0.917100 0.261100
vn -0.212400 0.885600 0.412900
vn -0.213700 0.754400 0.620600
vn -0.217900 0.758100 0.614700
vn -0.300700 0.727800 0.616300
vn -0.275400 0.736500 0.617800
vn -0.152500 0.811500 0.564000
vn -0.158500 0.776400 0.609900
vn -0.495600 0.635700 0.591800
vn -0.519000 0.643300 0.562800
vn -0.543400 0.621900 0.563900
vn -0.515600 0.609900 0.601800
vn -0.575600 0.642000 0.506400
vn -0.545200 0.671600 0.501700
vn -0.481200 0.727100 0.489700
vn -0.432300 0.680400 0.591700
vn -0.458400 0.679600 0.572600
vn -0.587100 0.700600 0.405500
vn -0.613700 0.679500 0.402100
vn -0.601300 0.662900 0.446100
vn -0.579400 0.686100 0.439900
vn -0.538200 0.736300 0.410200
vn -0.534900 0.753200 0.382800
vn -0.479100 0.810000 0.338100
vn -0.406400 0.782200 0.472200
vn -0.494200 0.791900 0.358700
vn -0.349700 0.718300 0.601500
vn -0.378900 0.710000 0.593500
vn -0.513000 0.590000 0.623400
vn -0.546300 0.600300 0.584100
vn -0.542600 0.576400 0.611000
vn -0.540600 0.540200 0.644900
vn -0.627600 0.586000 0.512400
vn -0.589600 0.627700 0.508300
vn -0.632500 0.674900 0.379900
vn -0.678400 0.638000 0.364300
vn -0.646000 0.649900 0.400300
vn -0.623100 0.654800 0.427800
vn 0.425200 -0.875500 -0.229400
vn 0.308000 -0.841200 -0.444400
vn 0.361800 -0.810700 -0.460200
vn 0.507700 -0.845500 -0.165300
vn 0.561000 -0.825800 -0.057600
vn 0.547100 -0.833300 -0.079300
vn 0.529600 -0.835200 -0.148000
vn 0.444800 -0.853200 -0.272300
vn 0.344700 -0.820900 -0.455300
vn 0.220200 -0.730000 -0.647000
vn 0.201200 -0.588000 -0.783400
vn 0.196400 -0.567200 -0.799800
vn 0.234700 -0.652000 -0.721000
vn 0.269300 -0.728700 -0.629600
vn 0.239000 -0.629000 -0.739700
vn 0.486800 -0.630500 -0.604500
vn 0.422000 -0.590400 -0.688000
vn 0.376200 -0.619700 -0.688800
vn 0.424800 -0.674700 -0.603500
vn 0.481300 -0.727000 -0.489700
vn 0.545300 -0.671400 -0.501800
vn 0.575700 -0.641900 -0.506400
vn 0.503900 -0.605100 -0.616300
vn 0.410000 -0.577500 -0.705900
vn 0.591900 -0.705000 -0.390600
vn 0.540000 -0.756500 -0.369000
vn 0.583800 -0.767100 -0.265900
vn 0.620200 -0.731100 -0.284300
vn 0.628700 -0.732600 -0.260800
vn 0.617800 -0.685900 -0.384400
vn 0.484400 -0.812400 -0.324600
vn 0.406400 -0.782200 -0.472200
vn 0.545400 -0.810000 -0.215500
vn 0.342800 -0.712000 -0.612800
vn 0.304200 -0.638900 -0.706500
vn 0.485900 -0.594000 -0.641100
vn 0.353300 -0.574700 -0.738200
vn 0.581100 -0.636400 -0.507200
vn 0.543000 -0.673600 -0.501400
vn 0.395400 -0.610900 -0.685900
vn 0.314300 -0.575800 -0.754800
vn 0.626900 -0.694000 -0.354100
vn 0.616100 -0.760900 -0.203500
vn 0.602600 -0.780100 -0.168100
vn 0.596400 -0.753500 -0.276600
vn -0.758000 0.139800 -0.637000
vn -0.908800 -0.152900 -0.388100
vn -0.658600 0.231800 -0.715800
vn 0.314300 -0.575800 -0.754800
vn -0.600900 -0.734600 0.315000
vn -0.345300 -0.552100 0.758900
vn -0.623900 -0.780800 0.034600
vn 0.602600 -0.780100 -0.168100
vn 0.535700 0.154900 0.830100
vn 0.725300 0.306100 0.616700
vn 0.405100 0.011600 0.914200
vn 0.561000 -0.825800 -0.057600
vn 0.511300 0.598600 -0.616600
vn 0.100800 0.749000 -0.654900
vn 0.876400 0.377200 -0.299100
vn 0.196400 -0.567200 -0.799800
vn -0.213700 0.686300 -0.695200
vn -0.394300 0.578900 -0.713700
vn -0.799800 -0.593500 -0.089800
vn 0.005200 -0.401200 0.916000
vn 0.148600 -0.341300 0.928100
vn 0.925100 0.305200 0.225700
vn 0.322200 -0.107700 0.940500
vn 0.282100 -0.185000 0.941300
vn -0.496800 0.473500 -0.727300
vn -0.543000 0.400000 -0.738300
vn -0.583900 0.324700 -0.744000
vn 0.240500 -0.260500 0.935000
vt 0.839504 0.118056
vt 0.856743 0.205307
vt 0.741230 0.205307
vt 0.734555 0.106726
vt 0.724541 0.032791
vt 0.813647 0.052618
vt 0.868992 0.081539
vt 0.913398 0.129584
vt 0.940923 0.205307
vt 0.839504 0.292557
vt 0.813647 0.357995
vt 0.724541 0.377822
vt 0.734555 0.303887
vt 0.913398 0.281029
vt 0.868992 0.329074
vt 0.369475 0.299954
vt 0.368286 0.370940
vt 0.245840 0.351447
vt 0.246397 0.288815
vt 0.246768 0.205307
vt 0.370268 0.205307
vt 0.494283 0.205307
vt 0.492822 0.304944
vt 0.490632 0.379672
vt 0.369475 0.110659
vt 0.246397 0.121798
vt 0.245841 0.059166
vt 0.368286 0.039673
vt 0.490632 0.030941
vt 0.492822 0.105669
vt 0.616755 0.103478
vt 0.619174 0.205307
vt 0.613127 0.027106
vt 0.616755 0.307135
vt 0.613126 0.383507
vt 0.123273 0.268175
vt 0.123047 0.315326
vt 0.054743 0.283353
vt 0.030912 0.249131
vt 0.030973 0.205306
vt 0.123423 0.205306
vt 0.123273 0.142438
vt 0.030912 0.161481
vt 0.054744 0.127260
vt 0.123047 0.095287
vt 0.839504 0.118056
vt 0.856743 0.205307
vt 0.968983 0.205307
vt 0.938030 0.133427
vt 0.876123 0.061548
vt 0.805028 0.030806
vt 0.721203 0.008146
vt 0.734555 0.106726
vt 0.741230 0.205307
vt 0.839504 0.292557
vt 0.805028 0.379807
vt 0.876123 0.349065
vt 0.938030 0.277186
vt 0.734555 0.303887
vt 0.721203 0.402467
vt 0.369475 0.299954
vt 0.367890 0.394602
vt 0.489902 0.404581
vt 0.492822 0.304944
vt 0.494283 0.205307
vt 0.370268 0.205307
vt 0.246768 0.205307
vt 0.246397 0.288815
vt 0.245655 0.372324
vt 0.369475 0.110659
vt 0.492822 0.105669
vt 0.489902 0.006032
vt 0.367890 0.016011
vt 0.245655 0.038289
vt 0.246397 0.121798
vt 0.616755 0.103478
vt 0.619174 0.205307
vt 0.611917 0.001649
vt 0.616755 0.307135
vt 0.611917 0.408964
vt 0.123273 0.268175
vt 0.122972 0.331043
vt 0.123423 0.205306
vt 0.000156 0.205306
vt 0.000125 0.242784
vt 0.000064 0.280261
vt 0.123273 0.142438
vt 0.122972 0.079570
vt 0.000064 0.130352
vt 0.000125 0.167829
vt 0.122972 0.331043
vt 0.030806 0.283587
vt 0.245655 0.372324
vt 0.030806 0.283587
vt 0.000125 0.167829
vt 0.030806 0.127026
vt 0.000156 0.205306
vt 0.030806 0.127026
vt 0.805028 0.030806
vt 0.873826 0.071832
vt 0.721203 0.008146
vt 0.873826 0.071832
vt 0.938030 0.277186
vt 0.873826 0.338781
vt 0.968983 0.205307
vt 0.873826 0.338781
vt 0.805028 0.379807
vt 0.721203 0.402467
vt 0.000125 0.242784
vt 0.122972 0.079570
vt 0.245655 0.038289
vt 0.938030 0.133427
vt 0.611917 0.001649
vt 0.489902 0.006032
vt 0.611917 0.408964
vt 0.489902 0.404581
vt 0.367890 0.394602
vt 0.367890 0.016011
f 1/1/1 2/2/2 3/3/3
f 1/1/1 3/3/3 4/4/4
f 1/1/1 4/4/4 5/5/5
f 1/1/1 5/5/5 6/6/6
f 1/1/1 6/6/6 7/7/7
f 1/1/1 7/7/7 8/8/8
f 1/1/1 8/8/8 9/9/9
f 1/1/1 9/9/9 2/2/2
f 10/10/10 11/11/11 12/12/12
f 10/10/10 12/12/12 13/13/13
f 10/10/10 13/13/13 3/3/3
f 10/10/10 3/3/3 2/2/2
f 10/10/10 2/2/2 9/9/9
f 10/10/10 9/9/9 14/14/14
f 10/10/10 14/14/14 15/15/15
f 10/10/10 15/15/15 11/11/11
f 16/16/16 17/17/17 18/18/18
f 16/16/16 18/18/18 19/19/19
f 16/16/16 19/19/19 20/20/20
f 16/16/16 20/20/20 21/21/21
f 16/16/16 21/21/21 22/22/22
f 16/16/16 22/22/22 23/23/23
f 16/16/16 23/23/23 24/24/24
f 16/16/16 24/24/24 17/17/17
f 25/25/25 21/21/21 20/20/20
f 25/25/25 20/20/20 26/26/26
f 25/25/25 26/26/26 27/27/27
f 25/25/25 27/27/27 28/28/28
f 25/25/25 28/28/28 29/29/29
f 25/25/25 29/29/29 30/30/30
f 25/25/25 30/30/30 22/22/22
f 25/25/25 22/22/22 21/21/21
f 31/31/31 32/32/32 22/22/22
f 31/31/31 22/22/22 30/30/30
f 31/31/31 30/30/30 29/29/29
f 31/31/31 29/29/29 33/33/33
f 31/31/31 33/33/33 5/5/5
f 31/31/31 5/5/5 4/4/4
f 31/31/31 4/4/4 3/3/3
f 31/31/31 3/3/3 32/32/32
f 34/34/34 35/35/35 24/24/24
f 34/34/34 24/24/24 23/23/23
f 34/34/34 23/23/23 22/22/22
f 34/34/34 22/22/22 32/32/32
f 34/34/34 32/32/32 3/3/3
f 34/34/34 3/3/3 13/13/13
f 34/34/34 13/13/13 12/12/12
f 34/34/34 12/12/12 35/35/35
f 36/36/36 37/37/37 38/38/38
f 36/36/36 38/38/38 39/39/39
f 36/36/36 39/39/39 40/40/40
f 36/36/36 40/40/40 41/41/41
f 36/36/36 41/41/41 20/20/20
f 36/36/36 20/20/20 19/19/19
f 36/36/36 19/19/19 18/18/18
f 36/36/36 18/18/18 37/37/37
f 42/42/42 41/41/41 40/40/40
f 42/42/42 40/40/40 43/43/43
f 42/42/42 43/43/43 44/44/44
f 42/42/42 44/44/44 45/45/45
f 42/42/42 45/45/45 27/27/27
f 42/42/42 27/27/27 26/26/26
f 42/42/42 26/26/26 20/20/20
f 42/42/42 20/20/20 41/41/41
f 46/46/46 47/47/47 48/48/48
f 46/46/46 48/48/48 49/49/49
f 46/46/46 49/49/49 50/50/50
f 46/46/46 50/50/50 51/51/51
f 46/46/46 51/51/51 52/52/52
f 46/46/46 52/52/52 53/53/53
f 46/46/46 53/53/53 54/54/54
f 46/46/46 54/54/54 47/47/47
f 55/55/55 56/56/56 57/57/57
f 55/55/55 57/57/57 58/58/58
f 55/55/55 58/58/58 48/48/48
f 55/55/55 48/48/48 47/47/47
f 55/55/55 47/47/47 54/54/54
f 55/55/55 54/54/54 59/59/59
f 55/55/55 59/59/59 60/60/60
f 55/55/55 60/60/60 56/56/56
f 61/61/61 62/62/62 63/63/63
f 61/61/61 63/63/63 64/64/64
f 61/61/61 64/64/64 65/65/65
f 61/61/61 65/65/65 66/66/66
f 61/61/61 66/66/66 67/67/67
f 61/61/61 67/67/67 68/68/68
f 61/61/61 68/68/68 69/69/69
f 61/61/61 69/69/69 62/62/62
f 70/70/70 66/66/66 65/65/65
f 70/70/70 65/65/65 71/71/71
f 70/70/70 71/71/71 72/72/72
f 70/70/70 72/72/72 73/73/73
f 70/70/70 73/73/73 74/74/74
f 70/70/70 74/74/74 75/75/75
f 70/70/70 75/75/75 67/67/67
f 70/70/70 67/67/67 66/66/66
f 76/76/76 77/77/77 54/54/54
f 76/76/76 54/54/54 53/53/53
f 76/76/76 53/53/53 52/52/52
f 76/76/76 52/52/52 78/78/78
f 76/76/76 78/78/78 72/72/72
f 76/76/76 72/72/72 71/71/71
f 76/76/76 71/71/71 65/65/65
f 76/76/76 65/65/65 77/77/77
f 79/79/79 80/80/80 60/60/60
f 79/79/79 60/60/60 59/59/59
f 79/79/79 59/59/59 54/54/54
f 79/79/79 54/54/54 77/77/77
f 79/79/79 77/77/77 65/65/65
f 79/79/79 65/65/65 64/64/64
f 79/79/79 64/64/64 63/63/63
f 79/79/79 63/63/63 80/80/80
f 81/81/81 82/82/82 69/69/69
f 81/81/81 69/69/69 68/68/68
f 81/81/81 68/68/68 67/67/67
f 81/81/81 67/67/67 83/83/83
f 81/81/81 83/83/83 84/84/84
f 81/81/81 84/84/84 85/85/85
f 81/81/81 85/85/85 86/86/86
f 81/81/81 86/86/86 82/82/82
f 87/87/87 83/83/83 67/67/67
f 87/87/87 67/67/67 75/75/75
f 87/87/87 75/75/75 74/74/74
f 87/87/87 74/74/74 88/88/88
f 87/87/87 88/88/88 89/89/89
f 87/87/87 89/89/89 90/90/90
f 87/87/87 90/90/90 84/84/84
f 87/87/87 84/84/84 83/83/83
f 91/91/91 92/92/92 38/38/38
f 91/91/91 38/38/38 37/37/37
f 91/91/91 37/37/37 18/18/18
f 91/91/91 18/18/18 93/93/93
f 91/91/91 93/93/93 69/69/69
f 91/91/91 69/69/69 82/82/82
f 91/91/91 82/82/82 94/94/94
f 91/91/91 94/94/94 92/92/92
f 95/95/95 96/96/96 44/44/44
f 95/95/95 44/44/44 43/43/43
f 95/95/95 43/43/43 40/40/40
f 95/95/95 40/40/40 97/97/97
f 95/95/95 97/97/97 84/84/84
f 95/95/95 84/84/84 90/90/90
f 95/95/95 90/90/90 98/98/98
f 95/95/95 98/98/98 96/96/96
f 99/99/99 100/100/100 7/7/7
f 99/99/99 7/7/7 6/6/6
f 99/99/99 6/6/6 5/5/5
f 99/99/99 5/5/5 101/101/101
f 99/99/99 101/101/101 52/52/52
f 99/99/99 52/52/52 51/51/51
f 99/99/99 51/51/51 102/102/102
f 99/99/99 102/102/102 100/100/100
f 103/103/103 104/104/104 15/15/15
f 103/103/103 15/15/15 14/14/14
f 103/103/103 14/14/14 9/9/9
f 103/103/103 9/9/9 105/105/105
f 103/103/103 105/105/105 48/48/48
f 103/103/103 48/48/48 58/58/58
f 103/103/103 58/58/58 106/106/106
f 103/103/103 106/106/106 104/104/104
f 107/107/107 108/108/108 12/12/12
f 107/107/107 12/12/12 11/11/11
f 107/107/107 11/11/11 15/15/15
f 107/107/107 15/15/15 104/104/104
f 107/107/107 104/104/104 106/106/106
f 107/107/107 106/106/106 56/56/56
f 107/107/107 56/56/56 60/60/60
f 107/107/107 60/60/60 108/108/108
f 109/109/109 97/97/97 40/40/40
f 109/109/109 40/40/40 39/39/39
f 109/109/109 39/39/39 38/38/38
f 109/109/109 38/38/38 92/92/92
f 109/109/109 92/92/92 94/94/94
f 109/109/109 94/94/94 85/85/85
f 109/109/109 85/85/85 84/84/84
f 109/109/109 84/84/84 97/97/97
f 110/110/110 111/111/111 27/27/27
f 110/110/110 27/27/27 45/45/45
f 110/110/110 45/45/45 44/44/44
f 110/110/110 44/44/44 96/96/96
f 110/110/110 96/96/96 98/98/98
f 110/110/110 98/98/98 88/88/88
f 110/110/110 88/88/88 74/74/74
f 110/110/110 74/74/74 111/111/111
f 112/112/112 105/105/105 9/9/9
f 112/112/112 9/9/9 8/8/8
f 112/112/112 8/8/8 7/7/7
f 112/112/112 7/7/7 100/100/100
f 112/112/112 100/100/100 102/102/102
f 112/112/112 102/102/102 49/49/49
f 112/112/112 49/49/49 48/48/48
f 112/112/112 48/48/48 105/105/105
f 113/113/113 101/101/101 5/5/5
f 113/113/113 5/5/5 33/33/33
f 113/113/113 33/33/33 29/29/29
f 113/113/113 29/29/29 114/114/114
f 113/113/113 114/114/114 72/72/72
f 113/113/113 72/72/72 78/78/78
f 113/113/113 78/78/78 52/52/52
f 113/113/113 52/52/52 101/101/101
f 115/115/115 116/116/116 24/24/24
f 115/115/115 24/24/24 35/35/35
f 115/115/115 35/35/35 12/12/12
f 115/115/115 12/12/12 108/108/108
f 115/115/115 108/108/108 60/60/60
f 115/115/115 60/60/60 80/80/80
f 115/115/115 80/80/80 63/63/63
f 115/115/115 63/63/63 116/116/116
f 117/117/117 93/93/93 18/18/18
f 117/117/117 18/18/18 17/17/17
f 117/117/117 17/17/17 24/24/24
f 117/117/117 24/24/24 116/116/116
f 117/117/117 116/116/116 63/63/63
f 117/117/117 63/63/63 62/62/62
f 117/117/117 62/62/62 69/69/69
f 117/117/117 69/69/69 93/93/93
f 118/118/118 114/114/114 29/29/29
f 118/118/118 29/29/29 28/28/28
f 118/118/118 28/28/28 27/27/27
f 118/118/118 27/27/27 111/111/111
f 118/118/118 111/111/111 74/74/74
f 118/118/118 74/74/74 73/73/73
f 118/118/118 73/73/73 72/72/72
f 118/118/118 72/72/72 114/114/114
