v -2.392317 0.725320 -1.059007
v -2.392292 0.724942 -1.056813
v -2.389835 0.723537 -1.057695
v -2.390165 0.724068 -1.060091
v -2.390194 0.724587 -1.061938
v -2.391945 0.725640 -1.060764
v -2.393053 0.726036 -1.059648
v -2.393878 0.726093 -1.058161
v -2.394143 0.725882 -1.056165
v -2.391182 0.724723 -1.054895
v -2.389954 0.724593 -1.053552
v -2.387932 0.723397 -1.053746
v -2.388875 0.723389 -1.055417
v -2.392895 0.725576 -1.054601
v -2.391441 0.725188 -1.053807
v -2.382117 0.717650 -1.058168
v -2.381460 0.717555 -1.056473
v -2.379634 0.715299 -1.057814
v -2.380228 0.715375 -1.059311
v -2.380915 0.715560 -1.061316
v -2.382884 0.717866 -1.060438
v -2.385000 0.720010 -1.059542
v -2.384184 0.719801 -1.057169
v -2.383473 0.719727 -1.055399
v -2.383381 0.718315 -1.062748
v -2.381346 0.715964 -1.063361
v -2.381593 0.716330 -1.064911
v -2.383675 0.718720 -1.064498
v -2.385791 0.720946 -1.063793
v -2.385506 0.720497 -1.061960
v -2.387831 0.722437 -1.061075
v -2.387361 0.721897 -1.058616
v -2.388053 0.722962 -1.062944
v -2.386489 0.721731 -1.056214
v -2.385701 0.721724 -1.054426
v -2.378455 0.713075 -1.060698
v -2.377971 0.713050 -1.059586
v -2.377204 0.711771 -1.060846
v -2.377189 0.711320 -1.061824
v -2.377601 0.711364 -1.062840
v -2.378999 0.713188 -1.062190
v -2.379289 0.713514 -1.063721
v -2.377761 0.711621 -1.063895
v -2.378232 0.712312 -1.064573
v -2.379434 0.713820 -1.064885
v -2.392446 0.725128 -1.059033
v -2.392414 0.724744 -1.056808
v -2.394232 0.725732 -1.056162
v -2.393972 0.725948 -1.058183
v -2.393126 0.725931 -1.059670
v -2.392045 0.725501 -1.060799
v -2.390300 0.724450 -1.061967
v -2.390301 0.723880 -1.060111
v -2.389965 0.723344 -1.057687
v -2.391294 0.724522 -1.054859
v -2.390033 0.724442 -1.053510
v -2.391500 0.725076 -1.053780
v -2.392976 0.725424 -1.054574
v -2.388996 0.723193 -1.055382
v -2.388019 0.723250 -1.053705
v -2.382273 0.717481 -1.058128
v -2.381574 0.717427 -1.056433
v -2.383580 0.719593 -1.055361
v -2.384331 0.719623 -1.057132
v -2.385153 0.719834 -1.059525
v -2.383046 0.717699 -1.060417
v -2.381084 0.715399 -1.061293
v -2.380390 0.715213 -1.059268
v -2.379753 0.715176 -1.057772
v -2.383548 0.718152 -1.062747
v -2.385664 0.720325 -1.061964
v -2.385911 0.720820 -1.063807
v -2.383802 0.718600 -1.064507
v -2.381726 0.716214 -1.064919
v -2.381519 0.715807 -1.063357
v -2.387978 0.722257 -1.061087
v -2.387502 0.721712 -1.058604
v -2.388166 0.722830 -1.062965
v -2.386623 0.721544 -1.056178
v -2.385798 0.721583 -1.054387
v -2.378619 0.712915 -1.060653
v -2.378091 0.712929 -1.059541
v -2.379170 0.713030 -1.062165
v -2.377730 0.711246 -1.062822
v -2.377312 0.711200 -1.061789
v -2.377294 0.711681 -1.060816
v -2.379465 0.713360 -1.063718
v -2.379569 0.713707 -1.064894
v -2.378332 0.712228 -1.064577
v -2.377893 0.711506 -1.063894
v -2.377862 0.712988 -1.059193
v -2.376833 0.711300 -1.061013
v -2.379488 0.715218 -1.057294
v -2.377294 0.711681 -1.060816
v -2.377310 0.710939 -1.063953
v -2.377864 0.711843 -1.064747
v -2.377193 0.710704 -1.063049
v -2.378332 0.712228 -1.064577
v -2.391866 0.725686 -1.061368
v -2.393203 0.726171 -1.059850
v -2.390251 0.724700 -1.062570
v -2.393126 0.725931 -1.059670
v -2.393502 0.725793 -1.054491
v -2.391459 0.725253 -1.053531
v -2.394799 0.726128 -1.055948
v -2.391500 0.725076 -1.053780
v -2.389579 0.724483 -1.053082
v -2.387656 0.723334 -1.053167
v -2.376822 0.710682 -1.062184
v -2.379543 0.713872 -1.065280
v -2.381736 0.716401 -1.065433
v -2.394440 0.726286 -1.057889
v -2.388178 0.723078 -1.063579
v -2.385940 0.721040 -1.064413
v -2.385481 0.721659 -1.053810
v -2.383283 0.719642 -1.054790
v -2.381291 0.717466 -1.055889
v -2.383830 0.718802 -1.065088
vn 0.541500 0.817500 0.196100
vn 0.478400 0.878100 -0.004500
vn 0.527700 0.849100 -0.022300
vn 0.586600 0.794600 0.156300
vn 0.604900 0.783900 0.139900
vn 0.540600 0.819900 0.188400
vn 0.492400 0.841800 0.221100
vn 0.456200 0.870300 0.185700
vn 0.398100 0.917100 0.023300
vn 0.427400 0.877600 -0.217300
vn 0.430700 0.877700 -0.209800
vn 0.507800 0.835000 -0.211800
vn 0.484500 0.848400 -0.213300
vn 0.362900 0.919400 -0.151700
vn 0.374200 0.904000 -0.206600
vn 0.680800 0.704800 -0.199400
vn 0.698400 0.696000 -0.166800
vn 0.719700 0.672400 -0.173000
vn 0.699200 0.681400 -0.216200
vn 0.741200 0.662400 -0.108300
vn 0.714200 0.693200 -0.096400
vn 0.656200 0.751200 -0.072000
vn 0.624700 0.757300 -0.190200
vn 0.646000 0.744300 -0.169500
vn 0.738100 0.674600 0.008100
vn 0.760700 0.649000 0.006400
vn 0.755900 0.653300 -0.041800
vn 0.736200 0.676100 -0.029800
vn 0.695900 0.718000 0.011500
vn 0.689000 0.723500 0.042600
vn 0.632100 0.768600 0.098200
vn 0.586500 0.808700 -0.044400
vn 0.649000 0.757100 0.074300
vn 0.551100 0.811200 -0.195300
vn 0.576800 0.795100 -0.187300
vn 0.698900 0.672200 -0.244100
vn 0.724300 0.660000 -0.199600
vn 0.723500 0.649400 -0.234200
vn 0.724300 0.630000 -0.280000
vn 0.786400 0.604000 -0.129300
vn 0.753500 0.647500 -0.113900
vn 0.773800 0.632800 0.027200
vn 0.810600 0.584600 0.032800
vn 0.788300 0.615200 0.000600
vn 0.772400 0.634600 -0.025500
vn -0.564800 -0.796700 -0.215100
vn -0.492200 -0.870400 0.009400
vn -0.544000 -0.838600 0.028400
vn -0.627700 -0.729300 -0.272300
vn -0.654400 -0.660000 -0.368900
vn -0.646400 -0.677800 -0.350500
vn -0.644100 -0.709000 -0.287000
vn -0.590200 -0.789100 -0.170200
vn -0.527600 -0.849200 0.022300
vn -0.436400 -0.864300 0.250200
vn -0.429800 -0.791700 0.434200
vn -0.426100 -0.780100 0.458100
vn -0.456800 -0.819200 0.346700
vn -0.480200 -0.847000 0.228000
vn -0.462100 -0.804800 0.372500
vn -0.674400 -0.706600 0.214300
vn -0.624200 -0.714800 0.315300
vn -0.583400 -0.750400 0.310600
vn -0.619200 -0.758200 0.204200
vn -0.656200 -0.751100 0.072100
vn -0.714300 -0.693100 0.096500
vn -0.741300 -0.662300 0.108400
vn -0.690400 -0.684900 0.232900
vn -0.614900 -0.712300 0.338500
vn -0.740200 -0.672000 -0.024000
vn -0.691300 -0.720200 -0.057200
vn -0.713500 -0.681900 -0.160600
vn -0.748400 -0.649400 -0.134500
vn -0.751900 -0.640200 -0.157500
vn -0.761700 -0.647400 -0.025500
vn -0.634700 -0.764600 -0.112100
vn -0.586500 -0.808700 0.044400
vn -0.670600 -0.709000 -0.218000
vn -0.546000 -0.811200 0.209100
vn -0.519600 -0.788500 0.329100
vn -0.676800 -0.687800 0.262400
vn -0.566400 -0.732900 0.376800
vn -0.746100 -0.656600 0.110500
vn -0.712300 -0.695300 0.095600
vn -0.600400 -0.737600 0.308800
vn -0.532200 -0.747700 0.397000
vn -0.765100 -0.641300 -0.057400
vn -0.730900 -0.646300 -0.219100
vn -0.712700 -0.652800 -0.256800
vn -0.726400 -0.671300 -0.147200
vn 0.617900 -0.263200 0.740800
vn 0.782200 -0.462000 0.418000
vn 0.516300 -0.191400 0.834700
vn -0.532200 -0.747700 0.397000
vn 0.562200 -0.659600 -0.498800
vn 0.429500 -0.276500 -0.859600
vn 0.520000 -0.813100 -0.261700
vn -0.712700 -0.652800 -0.256800
vn -0.326700 0.560500 -0.760900
vn -0.537800 0.652100 -0.534300
vn -0.199500 0.438000 -0.876500
vn -0.654400 -0.660000 -0.368900
vn -0.554800 0.404300 0.727100
vn -0.146600 0.446200 0.882800
vn -0.868800 0.395900 0.297300
vn -0.426100 -0.780100 0.458100
vn 0.142600 0.313500 0.938800
vn 0.301200 0.174500 0.937400
vn 0.686700 -0.725400 -0.047400
vn 0.140000 -0.011800 -0.990100
vn 0.010200 0.074800 -0.997100
vn -0.814100 0.540700 -0.212100
vn -0.127300 0.323700 -0.937500
vn -0.097500 0.246500 -0.964200
vn 0.385500 0.054000 0.921100
vn 0.419300 -0.025500 0.907500
vn 0.449000 -0.104000 0.887400
vn -0.067900 0.168200 -0.983400
vt 0.839504 0.118056
vt 0.856743 0.205307
vt 0.741230 0.205307
vt 0.734555 0.106726
vt 0.724541 0.032791
vt 0.813647 0.052618
vt 0.868992 0.081539
vt 0.913398 0.129584
vt 0.940923 0.205307
vt 0.839504 0.292557
vt 0.813647 0.357995
vt 0.724541 0.377822
vt 0.734555 0.303887
vt 0.913398 0.281029
vt 0.868992 0.329074
vt 0.369475 0.299954
vt 0.368286 0.370940
vt 0.245840 0.351447
vt 0.246397 0.288815
vt 0.246768 0.205307
vt 0.370268 0.205307
vt 0.494283 0.205307
vt 0.492822 0.304944
vt 0.490632 0.379672
vt 0.369475 0.110659
vt 0.246397 0.121798
vt 0.245841 0.059166
vt 0.368286 0.039673
vt 0.490632 0.030941
vt 0.492822 0.105669
vt 0.616755 0.103478
vt 0.619174 0.205307
vt 0.613127 0.027106
vt 0.616755 0.307135
vt 0.613126 0.383507
vt 0.123273 0.268175
vt 0.123047 0.315326
vt 0.054743 0.283353
vt 0.030912 0.249131
vt 0.030973 0.205306
vt 0.123423 0.205306
vt 0.123273 0.142438
vt 0.030912 0.161481
vt 0.054744 0.127260
vt 0.123047 0.095287
vt 0.839504 0.118056
vt 0.856743 0.205307
vt 0.968983 0.205307
vt 0.938030 0.133427
vt 0.876123 0.061548
vt 0.805028 0.030806
vt 0.721203 0.008146
vt 0.734555 0.106726
vt 0.741230 0.205307
vt 0.839504 0.292557
vt 0.805028 0.379807
vt 0.876123 0.349065
vt 0.938030 0.277186
vt 0.734555 0.303887
vt 0.721203 0.402467
vt 0.369475 0.299954
vt 0.367890 0.394602
vt 0.489902 0.404581
vt 0.492822 0.304944
vt 0.494283 0.205307
vt 0.370268 0.205307
vt 0.246768 0.205307
vt 0.246397 0.288815
vt 0.245655 0.372324
vt 0.369475 0.110659
vt 0.492822 0.105669
vt 0.489902 0.006032
vt 0.367890 0.016011
vt 0.245655 0.038289
vt 0.246397 0.121798
vt 0.616755 0.103478
vt 0.619174 0.205307
vt 0.611917 0.001649
vt 0.616755 0.307135
vt 0.611917 0.408964
vt 0.123273 0.268175
vt 0.122972 0.331043
vt 0.123423 0.205306
vt 0.000156 0.205306
vt 0.000125 0.242784
vt 0.000064 0.280261
vt 0.123273 0.142438
vt 0.122972 0.079570
vt 0.000064 0.130352
vt 0.000125 0.167829
vt 0.122972 0.331043
vt 0.030806 0.283587
vt 0.245655 0.372324
vt 0.030806 0.283587
vt 0.000125 0.167829
vt 0.030806 0.127026
vt 0.000156 0.205306
vt 0.030806 0.127026
vt 0.805028 0.030806
vt 0.873826 0.071832
vt 0.721203 0.008146
vt 0.873826 0.071832
vt 0.938030 0.277186
vt 0.873826 0.338781
vt 0.968983 0.205307
vt 0.873826 0.338781
vt 0.805028 0.379807
vt 0.721203 0.402467
vt 0.000125 0.242784
vt 0.122972 0.079570
vt 0.245655 0.038289
vt 0.938030 0.133427
vt 0.611917 0.001649
vt 0.489902 0.006032
vt 0.611917 0.408964
vt 0.489902 0.404581
vt 0.367890 0.394602
vt 0.367890 0.016011
f 1/1/1 2/2/2 3/3/3
f 1/1/1 3/3/3 4/4/4
f 1/1/1 4/4/4 5/5/5
f 1/1/1 5/5/5 6/6/6
f 1/1/1 6/6/6 7/7/7
f 1/1/1 7/7/7 8/8/8
f 1/1/1 8/8/8 9/9/9
f 1/1/1 9/9/9 2/2/2
f 10/10/10 11/11/11 12/12/12
f 10/10/10 12/12/12 13/13/13
f 10/10/10 13/13/13 3/3/3
f 10/10/10 3/3/3 2/2/2
f 10/10/10 2/2/2 9/9/9
f 10/10/10 9/9/9 14/14/14
f 10/10/10 14/14/14 15/15/15
f 10/10/10 15/15/15 11/11/11
f 16/16/16 17/17/17 18/18/18
f 16/16/16 18/18/18 19/19/19
f 16/16/16 19/19/19 20/20/20
f 16/16/16 20/20/20 21/21/21
f 16/16/16 21/21/21 22/22/22
f 16/16/16 22/22/22 23/23/23
f 16/16/16 23/23/23 24/24/24
f 16/16/16 24/24/24 17/17/17
f 25/25/25 21/21/21 20/20/20
f 25/25/25 20/20/20 26/26/26
f 25/25/25 26/26/26 27/27/27
f 25/25/25 27/27/27 28/28/28
f 25/25/25 28/28/28 29/29/29
f 25/25/25 29/29/29 30/30/30
f 25/25/25 30/30/30 22/22/22
f 25/25/25 22/22/22 21/21/21
f 31/31/31 32/32/32 22/22/22
f 31/31/31 22/22/22 30/30/30
f 31/31/31 30/30/30 29/29/29
f 31/31/31 29/29/29 33/33/33
f 31/31/31 33/33/33 5/5/5
f 31/31/31 5/5/5 4/4/4
f 31/31/31 4/4/4 3/3/3
f 31/31/31 3/3/3 32/32/32
f 34/34/34 35/35/35 24/24/24
f 34/34/34 24/24/24 23/23/23
f 34/34/34 23/23/23 22/22/22
f 34/34/34 22/22/22 32/32/32
f 34/34/34 32/32/32 3/3/3
f 34/34/34 3/3/3 13/13/13
f 34/34/34 13/13/13 12/12/12
f 34/34/34 12/12/12 35/35/35
f 36/36/36 37/37/37 38/38/38
f 36/36/36 38/38/38 39/39/39
f 36/36/36 39/39/39 40/40/40
f 36/36/36 40/40/40 41/41/41
f 36/36/36 41/41/41 20/20/20
f 36/36/36 20/20/20 19/19/19
f 36/36/36 19/19/19 18/18/18
f 36/36/36 18/18/18 37/37/37
f 42/42/42 41/41/41 40/40/40
f 42/42/42 40/40/40 43/43/43
f 42/42/42 43/43/43 44/44/44
f 42/42/42 44/44/44 45/45/45
f 42/42/42 45/45/45 27/27/27
f 42/42/42 27/27/27 26/26/26
f 42/42/42 26/26/26 20/20/20
f 42/42/42 20/20/20 41/41/41
f 46/46/46 47/47/47 48/48/48
f 46/46/46 48/48/48 49/49/49
f 46/46/46 49/49/49 50/50/50
f 46/46/46 50/50/50 51/51/51
f 46/46/46 51/51/51 52/52/52
f 46/46/46 52/52/52 53/53/53
f 46/46/46 53/53/53 54/54/54
f 46/46/46 54/54/54 47/47/47
f 55/55/55 56/56/56 57/57/57
f 55/55/55 57/57/57 58/58/58
f 55/55/55 58/58/58 48/48/48
f 55/55/55 48/48/48 47/47/47
f 55/55/55 47/47/47 54/54/54
f 55/55/55 54/54/54 59/59/59
f 55/55/55 59/59/59 60/60/60
f 55/55/55 60/60/60 56/56/56
f 61/61/61 62/62/62 63/63/63
f 61/61/61 63/63/63 64/64/64
f 61/61/61 64/64/64 65/65/65
f 61/61/61 65/65/65 66/66/66
f 61/61/61 66/66/66 67/67/67
f 61/61/61 67/67/67 68/68/68
f 61/61/61 68/68/68 69/69/69
f 61/61/61 69/69/69 62/62/62
f 70/70/70 66/66/66 65/65/65
f 70/70/70 65/65/65 71/71/71
f 70/70/70 71/71/71 72/72/72
f 70/70/70 72/72/72 73/73/73
f 70/70/70 73/73/73 74/74/74
f 70/70/70 74/74/74 75/75/75
f 70/70/70 75/75/75 67/67/67
f 70/70/70 67/67/67 66/66/66
f 76/76/76 77/77/77 54/54/54
f 76/76/76 54/54/54 53/53/53
f 76/76/76 53/53/53 52/52/52
f 76/76/76 52/52/52 78/78/78
f 76/76/76 78/78/78 72/72/72
f 76/76/76 72/72/72 71/71/71
f 76/76/76 71/71/71 65/65/65
f 76/76/76 65/65/65 77/77/77
f 79/79/79 80/80/80 60/60/60
f 79/79/79 60/60/60 59/59/59
f 79/79/79 59/59/59 54/54/54
f 79/79/79 54/54/54 77/77/77
f 79/79/79 77/77/77 65/65/65
f 79/79/79 65/65/65 64/64/64
f 79/79/79 64/64/64 63/63/63
f 79/79/79 63/63/63 80/80/80
f 81/81/81 82/82/82 69/69/69
f 81/81/81 69/69/69 68/68/68
f 81/81/81 68/68/68 67/67/67
f 81/81/81 67/67/67 83/83/83
f 81/81/81 83/83/83 84/84/84
f 81/81/81 84/84/84 85/85/85
f 81/81/81 85/85/85 86/86/86
f 81/81/81 86/86/86 82/82/82
f 87/87/87 83/83/83 67/67/67
f 87/87/87 67/67/67 75/75/75
f 87/87/87 75/75/75 74/74/74
f 87/87/87 74/74/74 88/88/88
f 87/87/87 88/88/88 89/89/89
f 87/87/87 89/89/89 90/90/90
f 87/87/87 90/90/90 84/84/84
f 87/87/87 84/84/84 83/83/83
f 91/91/91 92/92/92 38/38/38
f 91/91/91 38/38/38 37/37/37
f 91/91/91 37/37/37 18/18/18
f 91/91/91 18/18/18 93/93/93
f 91/91/91 93/93/93 69/69/69
f 91/91/91 69/69/69 82/82/82
f 91/91/91 82/82/82 94/94/94
f 91/91/91 94/94/94 92/92/92
f 95/95/95 96/96/96 44/44/44
f 95/95/95 44/44/44 43/43/43
f 95/95/95 43/43/43 40/40/40
f 95/95/95 40/40/40 97/97/97
f 95/95/95 97/97/97 84/84/84
f 95/95/95 84/84/84 90/90/90
f 95/95/95 90/90/90 98/98/98
f 95/95/95 98/98/98 96/96/96
f 99/99/99 100/100/100 7/7/7
f 99/99/99 7/7/7 6/6/6
f 99/99/99 6/6/6 5/5/5
f 99/99/99 5/5/5 101/101/101
f 99/99/99 101/101/101 52/52/52
f 99/99/99 52/52/52 51/51/51
f 99/99/99 51/51/51 102/102/102
f 99/99/99 102/102/102 100/100/100
f 103/103/103 104/104/104 15/15/15
f 103/103/103 15/15/15 14/14/14
f 103/103/103 14/14/14 9/9/9
f 103/103/103 9/9/9 105/105/105
f 103/103/103 105/105/105 48/48/48
f 103/103/103 48/48/48 58/58/58
f 103/103/103 58/58/58 106/106/106
f 103/103/103 106/106/106 104/104/104
f 107/107/107 108/108/108 12/12/12
f 107/107/107 12/12/12 11/11/11
f 107/107/107 11/11/11 15/15/15
f 107/107/107 15/15/15 104/104/104
f 107/107/107 104/104/104 106/106/106
f 107/107/107 106/106/106 56/56/56
f 107/107/107 56/56/56 60/60/60
f 107/107/107 60/60/60 108/108/108
f 109/109/109 97/97/97 40/40/40
f 109/109/109 40/40/40 39/39/39
f 109/109/109 39/39/39 38/38/38
f 109/109/109 38/38/38 92/92/92
f 109/109/109 92/92/92 94/94/94
f 109/109/109 94/94/94 85/85/85
f 109/109/109 85/85/85 84/84/84
f 109/109/109 84/84/84 97/97/97
f 110/110/110 111/111/111 27/27/27
f 110/110/110 27/27/27 45/45/45
f 110/110/110 45/45/45 44/44/44
f 110/110/110 44/44/44 96/96/96
f 110/110/110 96/96/96 98/98/98
f 110/110/110 98/98/98 88/88/88
f 110/110/110 88/88/88 74/74/74
f 110/110/110 74/74/74 111/111/111
f 112/112/112 105/105/105 9/9/9
f 112/112/112 9/9/9 8/8/8
f 112/112/112 8/8/8 7/7/7
f 112/112/112 7/7/7 100/100/100
f 112/112/112 100/100/100 102/102/102
f 112/112/112 102/102/102 49/49/49
f 112/112/112 49/49/49 48/48/48
f 112/112/112 48/48/48 105/105/105
f 113/113/113 101/101/101 5/5/5
f 113/113/113 5/5/5 33/33/33
f 113/113/113 33/33/33 29/29/29
f 113/113/113 29/29/29 114/114/114
f 113/113/113 114/114/114 72/72/72
f 113/113/113 72/72/72 78/78/78
f 113/113/113 78/78/78 52/52/52
f 113/113/113 52/52/52 101/101/101
f 115/115/115 116/116/116 24/24/24
f 115/115/115 24/24/24 35/35/35
f 115/115/115 35/35/35 12/12/12
f 115/115/115 12/12/12 108/108/108
f 115/115/115 108/108/108 60/60/60
f 115/115/115 60/60/60 80/80/80
f 115/115/115 80/80/80 63/63/63
f 115/115/115 63/63/63 116/116/116
f 117/117/117 93/93/93 18/18/18
f 117/117/117 18/18/18 17/17/17
f 117/117/117 17/17/17 24/24/24
f 117/117/117 24/24/24 116/116/116
f 117/117/117 116/116/116 63/63/63
f 117/117/117 63/63/63 62/62/62
f 117/117/117 62/62/62 69/69/69
f 117/117/117 69/69/69 93/93/93
f 118/118/118 114/114/114 29/29/29
f 118/118/118 29/29/29 28/28/28
f 118/118/118 28/28/28 27/27/27
f 118/118/118 27/27/27 111/111/111
f 118/118/118 111/111/111 74/74/74
f 118/118/118 74/74/74 73/73/73
f 118/118/118 73/73/73 72/72/72
f 118/118/118 72/72/72 114/114/114
