v -2.357273 0.700692 -1.199884
v -2.356965 0.700296 -1.202465
v -2.359987 0.698644 -1.201846
v -2.359968 0.699212 -1.198979
v -2.360217 0.699782 -1.196801
v -2.357978 0.701034 -1.197879
v -2.356505 0.701514 -1.199003
v -2.355309 0.701607 -1.200615
v -2.354692 0.701400 -1.202913
v -2.357969 0.700092 -1.204885
v -2.359198 0.699983 -1.206649
v -2.361603 0.698588 -1.206764
v -2.360759 0.698531 -1.204663
v -2.355912 0.701088 -1.204943
v -2.357493 0.700663 -1.206106
v -2.369136 0.691768 -1.202628
v -2.369643 0.691701 -1.204715
v -2.372004 0.689028 -1.203483
v -2.371541 0.689078 -1.201638
v -2.371046 0.689243 -1.199181
v -2.368589 0.691963 -1.199849
v -2.365958 0.694491 -1.200518
v -2.366547 0.694308 -1.203425
v -2.367104 0.694268 -1.205608
v -2.368361 0.692436 -1.197059
v -2.370856 0.689668 -1.196713
v -2.370803 0.690062 -1.194852
v -2.368286 0.692871 -1.194956
v -2.365684 0.695491 -1.195400
v -2.365736 0.695006 -1.197599
v -2.362864 0.697291 -1.198229
v -2.363038 0.696714 -1.201190
v -2.362890 0.697865 -1.195995
v -2.363686 0.696582 -1.204140
v -2.364331 0.696623 -1.206354
v -2.373848 0.686351 -1.200344
v -2.374242 0.686352 -1.201721
v -2.375345 0.684822 -1.200396
v -2.375517 0.684268 -1.199265
v -2.375191 0.684292 -1.198011
v -2.373442 0.686444 -1.198512
v -2.373337 0.686791 -1.196669
v -2.375166 0.684569 -1.196746
v -2.374714 0.685365 -1.195864
v -2.373345 0.687124 -1.195276
v -2.357127 0.700463 -1.199839
v -2.356823 0.700060 -1.202456
v -2.354589 0.701222 -1.202906
v -2.355203 0.701434 -1.200578
v -2.356425 0.701389 -1.198969
v -2.357867 0.700867 -1.197826
v -2.360099 0.699619 -1.196755
v -2.359813 0.698989 -1.198939
v -2.359836 0.698414 -1.201840
v -2.357833 0.699855 -1.204915
v -2.359100 0.699805 -1.206690
v -2.357421 0.700531 -1.206131
v -2.355814 0.700908 -1.204966
v -2.360613 0.698299 -1.204690
v -2.361496 0.698415 -1.206802
v -2.368948 0.691568 -1.202655
v -2.369505 0.691550 -1.204747
v -2.366975 0.694109 -1.205640
v -2.366370 0.694097 -1.203451
v -2.365778 0.694283 -1.200518
v -2.368397 0.691765 -1.199852
v -2.370846 0.689052 -1.199186
v -2.371346 0.688885 -1.201667
v -2.371860 0.688883 -1.203517
v -2.368167 0.692241 -1.197038
v -2.365553 0.694801 -1.197574
v -2.365546 0.695340 -1.195368
v -2.368139 0.692727 -1.194928
v -2.370651 0.689924 -1.194826
v -2.370654 0.689481 -1.196694
v -2.362695 0.697076 -1.198196
v -2.362873 0.696494 -1.201187
v -2.362762 0.697707 -1.195956
v -2.363526 0.696360 -1.204166
v -2.364213 0.696457 -1.206388
v -2.373650 0.686161 -1.200376
v -2.374096 0.686209 -1.201758
v -2.373239 0.686257 -1.198518
v -2.375039 0.684152 -1.198016
v -2.375368 0.684126 -1.199290
v -2.375236 0.684716 -1.200419
v -2.373131 0.686608 -1.196649
v -2.373190 0.686989 -1.195248
v -2.374599 0.685264 -1.195846
v -2.375012 0.684432 -1.196730
v -2.374308 0.686289 -1.202199
v -2.375808 0.684267 -1.200269
v -2.372095 0.688946 -1.204116
v -2.375236 0.684716 -1.200419
v -2.375708 0.683768 -1.196764
v -2.375176 0.684811 -1.195729
v -2.375707 0.683513 -1.197846
v -2.374599 0.685264 -1.195846
v -2.358163 0.701075 -1.197183
v -2.356361 0.701667 -1.198741
v -2.360247 0.699900 -1.196051
v -2.356425 0.701389 -1.198969
v -2.355183 0.701339 -1.204973
v -2.357430 0.700746 -1.206426
v -2.353889 0.701688 -1.203059
v -2.357421 0.700531 -1.206131
v -2.359565 0.699867 -1.207260
v -2.361838 0.698530 -1.207485
v -2.376007 0.683510 -1.198916
v -2.373279 0.687176 -1.194797
v -2.370718 0.690133 -1.194217
v -2.354609 0.701835 -1.200841
v -2.362842 0.697986 -1.195230
v -2.365605 0.695586 -1.194650
v -2.364494 0.696563 -1.207110
v -2.367233 0.694184 -1.206352
v -2.369751 0.691611 -1.205427
v -2.368195 0.692952 -1.194240
vn -0.505800 0.826000 -0.248700
vn -0.469200 0.882100 -0.040400
vn -0.520600 0.853200 -0.029800
vn -0.555900 0.802800 -0.215600
vn -0.576200 0.791900 -0.202100
vn -0.506000 0.828200 -0.241000
vn -0.453700 0.850300 -0.266600
vn -0.422200 0.877800 -0.226200
vn -0.385600 0.920900 -0.056700
vn -0.446500 0.877000 0.177100
vn -0.448800 0.877400 0.169300
vn -0.525800 0.835400 0.160300
vn -0.502900 0.848400 0.165100
vn -0.373800 0.919500 0.121600
vn -0.392300 0.903200 0.174100
vn -0.696600 0.706900 0.122700
vn -0.709800 0.698900 0.087900
vn -0.731900 0.675300 0.090700
vn -0.717200 0.683400 0.136400
vn -0.744800 0.666900 0.023700
vn -0.716200 0.697600 0.016000
vn -0.655100 0.755500 0.000600
vn -0.639400 0.759100 0.121900
vn -0.657800 0.746700 0.098500
vn -0.726300 0.681300 -0.091100
vn -0.749100 0.655900 -0.092900
vn -0.750700 0.659200 -0.044400
vn -0.729400 0.682000 -0.053100
vn -0.683700 0.724400 -0.088000
vn -0.672700 0.730400 -0.117900
vn -0.608800 0.776000 -0.164600
vn -0.582000 0.813000 -0.016400
vn -0.628700 0.764200 -0.143400
vn -0.566700 0.812300 0.137800
vn -0.591200 0.796600 0.126100
vn -0.720600 0.673700 0.164000
vn -0.740000 0.662400 0.116200
vn -0.743900 0.651200 0.150300
vn -0.750700 0.631100 0.195300
vn -0.792600 0.608600 0.037300
vn -0.757700 0.652000 0.027300
vn -0.759400 0.640200 -0.115600
vn -0.795600 0.592400 -0.126800
vn -0.777400 0.622300 -0.091400
vn -0.764900 0.641000 -0.063100
vn 0.526500 -0.805700 0.271100
vn 0.483500 -0.874500 0.037500
vn 0.537700 -0.842700 0.026200
vn 0.581700 -0.740100 0.337300
vn 0.596000 -0.672900 0.438100
vn 0.590500 -0.690100 0.418500
vn 0.596300 -0.720200 0.354600
vn 0.557600 -0.797500 0.230000
vn 0.520500 -0.853300 0.029800
vn 0.459900 -0.863200 -0.208300
vn 0.477900 -0.787000 -0.390000
vn 0.477500 -0.775000 -0.413900
vn 0.493100 -0.816500 -0.300300
vn 0.500500 -0.846700 -0.180200
vn 0.501800 -0.801600 -0.324900
vn 0.692100 -0.708400 -0.138300
vn 0.655700 -0.714100 -0.245200
vn 0.614300 -0.749500 -0.246600
vn 0.635800 -0.759700 -0.136600
vn 0.655200 -0.755400 -0.000600
vn 0.716400 -0.697500 -0.016100
vn 0.744900 -0.666800 -0.023700
vn 0.710600 -0.686500 -0.154100
vn 0.649500 -0.711100 -0.269200
vn 0.726300 -0.678900 0.107200
vn 0.673200 -0.727400 0.132700
vn 0.681800 -0.691300 0.238900
vn 0.720100 -0.658700 0.218200
vn 0.720500 -0.649900 0.241800
vn 0.747600 -0.654600 0.112000
vn 0.609500 -0.772300 0.178700
vn 0.582000 -0.813000 0.016400
vn 0.631600 -0.719100 0.289700
vn 0.563500 -0.812000 -0.152100
vn 0.553200 -0.786600 -0.274100
vn 0.701000 -0.688700 -0.185300
vn 0.606300 -0.730600 -0.314000
vn 0.749900 -0.661000 -0.025100
vn 0.714200 -0.699700 -0.015500
vn 0.631100 -0.736800 -0.242300
vn 0.575000 -0.744700 -0.338800
vn 0.746800 -0.649200 0.144200
vn 0.691600 -0.657000 0.299800
vn 0.668600 -0.664100 0.334700
vn 0.696400 -0.680600 0.227500
vn -0.516800 -0.243400 -0.820700
vn -0.723300 -0.446700 -0.526500
vn -0.403200 -0.170500 -0.899100
vn 0.575000 -0.744700 -0.338800
vn -0.627100 -0.664500 0.406400
vn -0.540300 -0.288900 0.790300
vn -0.555100 -0.813300 0.174400
vn 0.668600 -0.664100 0.334700
vn 0.227500 0.542900 0.808400
vn 0.467100 0.636900 0.613300
vn 0.085300 0.419100 0.903900
vn 0.596000 -0.672900 0.438100
vn 0.648200 0.413300 -0.639500
vn 0.264100 0.461800 -0.846700
vn 0.902700 0.394000 -0.172700
vn 0.477500 -0.775000 -0.413900
vn -0.016100 0.332800 -0.942800
vn -0.174800 0.195000 -0.965100
vn -0.691700 -0.719900 -0.057700
vn -0.269000 -0.029700 0.962700
vn -0.140700 0.055700 0.988500
vn 0.782800 0.529100 0.327600
vn 0.005400 0.304700 0.952400
vn -0.028000 0.227100 0.973400
vn -0.260900 0.075300 -0.962400
vn -0.296200 -0.003700 -0.955100
vn -0.328900 -0.082300 -0.940800
vn -0.060800 0.148400 0.987000
vt 0.839504 0.118056
vt 0.856743 0.205307
vt 0.741230 0.205307
vt 0.734555 0.106726
vt 0.724541 0.032791
vt 0.813647 0.052618
vt 0.868992 0.081539
vt 0.913398 0.129584
vt 0.940923 0.205307
vt 0.839504 0.292557
vt 0.813647 0.357995
vt 0.724541 0.377822
vt 0.734555 0.303887
vt 0.913398 0.281029
vt 0.868992 0.329074
vt 0.369475 0.299954
vt 0.368286 0.370940
vt 0.245840 0.351447
vt 0.246397 0.288815
vt 0.246768 0.205307
vt 0.370268 0.205307
vt 0.494283 0.205307
vt 0.492822 0.304944
vt 0.490632 0.379672
vt 0.369475 0.110659
vt 0.246397 0.121798
vt 0.245841 0.059166
vt 0.368286 0.039673
vt 0.490632 0.030941
vt 0.492822 0.105669
vt 0.616755 0.103478
vt 0.619174 0.205307
vt 0.613127 0.027106
vt 0.616755 0.307135
vt 0.613126 0.383507
vt 0.123273 0.268175
vt 0.123047 0.315326
vt 0.054743 0.283353
vt 0.030912 0.249131
vt 0.030973 0.205306
vt 0.123423 0.205306
vt 0.123273 0.142438
vt 0.030912 0.161481
vt 0.054744 0.127260
vt 0.123047 0.095287
vt 0.839504 0.118056
vt 0.856743 0.205307
vt 0.968983 0.205307
vt 0.938030 0.133427
vt 0.876123 0.061548
vt 0.805028 0.030806
vt 0.721203 0.008146
vt 0.734555 0.106726
vt 0.741230 0.205307
vt 0.839504 0.292557
vt 0.805028 0.379807
vt 0.876123 0.349065
vt 0.938030 0.277186
vt 0.734555 0.303887
vt 0.721203 0.402467
vt 0.369475 0.299954
vt 0.367890 0.394602
vt 0.489902 0.404581
vt 0.492822 0.304944
vt 0.494283 0.205307
vt 0.370268 0.205307
vt 0.246768 0.205307
vt 0.246397 0.288815
vt 0.245655 0.372324
vt 0.369475 0.110659
vt 0.492822 0.105669
vt 0.489902 0.006032
vt 0.367890 0.016011
vt 0.245655 0.038289
vt 0.246397 0.121798
vt 0.616755 0.103478
vt 0.619174 0.205307
vt 0.611917 0.001649
vt 0.616755 0.307135
vt 0.611917 0.408964
vt 0.123273 0.268175
vt 0.122972 0.331043
vt 0.123423 0.205306
vt 0.000156 0.205306
vt 0.000125 0.242784
vt 0.000064 0.280261
vt 0.123273 0.142438
vt 0.122972 0.079570
vt 0.000064 0.130352
vt 0.000125 0.167829
vt 0.122972 0.331043
vt 0.030806 0.283587
vt 0.245655 0.372324
vt 0.030806 0.283587
vt 0.000125 0.167829
vt 0.030806 0.127026
vt 0.000156 0.205306
vt 0.030806 0.127026
vt 0.805028 0.030806
vt 0.873826 0.071832
vt 0.721203 0.008146
vt 0.873826 0.071832
vt 0.938030 0.277186
vt 0.873826 0.338781
vt 0.968983 0.205307
vt 0.873826 0.338781
vt 0.805028 0.379807
vt 0.721203 0.402467
vt 0.000125 0.242784
vt 0.122972 0.079570
vt 0.245655 0.038289
vt 0.938030 0.133427
vt 0.611917 0.001649
vt 0.489902 0.006032
vt 0.611917 0.408964
vt 0.489902 0.404581
vt 0.367890 0.394602
vt 0.367890 0.016011
f 1/1/1 2/2/2 3/3/3
f 1/1/1 3/3/3 4/4/4
f 1/1/1 4/4/4 5/5/5
f 1/1/1 5/5/5 6/6/6
f 1/1/1 6/6/6 7/7/7
f 1/1/1 7/7/7 8/8/8
f 1/1/1 8/8/8 9/9/9
f 1/1/1 9/9/9 2/2/2
f 10/10/10 11/11/11 12/12/12
f 10/10/10 12/12/12 13/13/13
f 10/10/10 13/13/13 3/3/3
f 10/10/10 3/3/3 2/2/2
f 10/10/10 2/2/2 9/9/9
f 10/10/10 9/9/9 14/14/14
f 10/10/10 14/14/14 15/15/15
f 10/10/10 15/15/15 11/11/11
f 16/16/16 17/17/17 18/18/18
f 16/16/16 18/18/18 19/19/19
f 16/16/16 19/19/19 20/20/20
f 16/16/16 20/20/20 21/21/21
f 16/16/16 21/21/21 22/22/22
f 16/16/16 22/22/22 23/23/23
f 16/16/16 23/23/23 24/24/24
f 16/16/16 24/24/24 17/17/17
f 25/25/25 21/21/21 20/20/20
f 25/25/25 20/20/20 26/26/26
f 25/25/25 26/26/26 27/27/27
f 25/25/25 27/27/27 28/28/28
f 25/25/25 28/28/28 29/29/29
f 25/25/25 29/29/29 30/30/30
f 25/25/25 30/30/30 22/22/22
f 25/25/25 22/22/22 21/21/21
f 31/31/31 32/32/32 22/22/22
f 31/31/31 22/22/22 30/30/30
f 31/31/31 30/30/30 29/29/29
f 31/31/31 29/29/29 33/33/33
f 31/31/31 33/33/33 5/5/5
f 31/31/31 5/5/5 4/4/4
f 31/31/31 4/4/4 3/3/3
f 31/31/31 3/3/3 32/32/32
f 34/34/34 35/35/35 24/24/24
f 34/34/34 24/24/24 23/23/23
f 34/34/34 23/23/23 22/22/22
f 34/34/34 22/22/22 32/32/32
f 34/34/34 32/32/32 3/3/3
f 34/34/34 3/3/3 13/13/13
f 34/34/34 13/13/13 12/12/12
f 34/34/34 12/12/12 35/35/35
f 36/36/36 37/37/37 38/38/38
f 36/36/36 38/38/38 39/39/39
f 36/36/36 39/39/39 40/40/40
f 36/36/36 40/40/40 41/41/41
f 36/36/36 41/41/41 20/20/20
f 36/36/36 20/20/20 19/19/19
f 36/36/36 19/19/19 18/18/18
f 36/36/36 18/18/18 37/37/37
f 42/42/42 41/41/41 40/40/40
f 42/42/42 40/40/40 43/43/43
f 42/42/42 43/43/43 44/44/44
f 42/42/42 44/44/44 45/45/45
f 42/42/42 45/45/45 27/27/27
f 42/42/42 27/27/27 26/26/26
f 42/42/42 26/26/26 20/20/20
f 42/42/42 20/20/20 41/41/41
f 46/46/46 47/47/47 48/48/48
f 46/46/46 48/48/48 49/49/49
f 46/46/46 49/49/49 50/50/50
f 46/46/46 50/50/50 51/51/51
f 46/46/46 51/51/51 52/52/52
f 46/46/46 52/52/52 53/53/53
f 46/46/46 53/53/53 54/54/54
f 46/46/46 54/54/54 47/47/47
f 55/55/55 56/56/56 57/57/57
f 55/55/55 57/57/57 58/58/58
f 55/55/55 58/58/58 48/48/48
f 55/55/55 48/48/48 47/47/47
f 55/55/55 47/47/47 54/54/54
f 55/55/55 54/54/54 59/59/59
f 55/55/55 59/59/59 60/60/60
f 55/55/55 60/60/60 56/56/56
f 61/61/61 62/62/62 63/63/63
f 61/61/61 63/63/63 64/64/64
f 61/61/61 64/64/64 65/65/65
f 61/61/61 65/65/65 66/66/66
f 61/61/61 66/66/66 67/67/67
f 61/61/61 67/67/67 68/68/68
f 61/61/61 68/68/68 69/69/69
f 61/61/61 69/69/69 62/62/62
f 70/70/70 66/66/66 65/65/65
f 70/70/70 65/65/65 71/71/71
f 70/70/70 71/71/71 72/72/72
f 70/70/70 72/72/72 73/73/73
f 70/70/70 73/73/73 74/74/74
f 70/70/70 74/74/74 75/75/75
f 70/70/70 75/75/75 67/67/67
f 70/70/70 67/67/67 66/66/66
f 76/76/76 77/77/77 54/54/54
f 76/76/76 54/54/54 53/53/53
f 76/76/76 53/53/53 52/52/52
f 76/76/76 52/52/52 78/78/78
f 76/76/76 78/78/78 72/72/72
f 76/76/76 72/72/72 71/71/71
f 76/76/76 71/71/71 65/65/65
f 76/76/76 65/65/65 77/77/77
f 79/79/79 80/80/80 60/60/60
f 79/79/79 60/60/60 59/59/59
f 79/79/79 59/59/59 54/54/54
f 79/79/79 54/54/54 77/77/77
f 79/79/79 77/77/77 65/65/65
f 79/79/79 65/65/65 64/64/64
f 79/79/79 64/64/64 63/63/63
f 79/79/79 63/63/63 80/80/80
f 81/81/81 82/82/82 69/69/69
f 81/81/81 69/69/69 68/68/68
f 81/81/81 68/68/68 67/67/67
f 81/81/81 67/67/67 83/83/83
f 81/81/81 83/83/83 84/84/84
f 81/81/81 84/84/84 85/85/85
f 81/81/81 85/85/85 86/86/86
f 81/81/81 86/86/86 82/82/82
f 87/87/87 83/83/83 67/67/67
f 87/87/87 67/67/67 75/75/75
f 87/87/87 75/75/75 74/74/74
f 87/87/87 74/74/74 88/88/88
f 87/87/87 88/88/88 89/89/89
f 87/87/87 89/89/89 90/90/90
f 87/87/87 90/90/90 84/84/84
f 87/87/87 84/84/84 83/83/83
f 91/91/91 92/92/92 38/38/38
f 91/91/91 38/38/38 37/37/37
f 91/91/91 37/37/37 18/18/18
f 91/91/91 18/18/18 93/93/93
f 91/91/91 93/93/93 69/69/69
f 91/91/91 69/69/69 82/82/82
f 91/91/91 82/82/82 94/94/94
f 91/91/91 94/94/94 92/92/92
f 95/95/95 96/96/96 44/44/44
f 95/95/95 44/44/44 43/43/43
f 95/95/95 43/43/43 40/40/40
f 95/95/95 40/40/40 97/97/97
f 95/95/95 97/97/97 84/84/84
f 95/95/95 84/84/84 90/90/90
f 95/95/95 90/90/90 98/98/98
f 95/95/95 98/98/98 96/96/96
f 99/99/99 100/100/100 7/7/7
f 99/99/99 7/7/7 6/6/6
f 99/99/99 6/6/6 5/5/5
f 99/99/99 5/5/5 101/101/101
f 99/99/99 101/101/101 52/52/52
f 99/99/99 52/52/52 51/51/51
f 99/99/99 51/51/51 102/102/102
f 99/99/99 102/102/102 100/100/100
f 103/103/103 104/104/104 15/15/15
f 103/103/103 15/15/15 14/14/14
f 103/103/103 14/14/14 9/9/9
f 103/103/103 9/9/9 105/105/105
f 103/103/103 105/105/105 48/48/48
f 103/103/103 48/48/48 58/58/58
f 103/103/103 58/58/58 106/106/106
f 103/103/103 106/106/106 104/104/104
f 107/107/107 108/108/108 12/12/12
f 107/107/107 12/12/12 11/11/11
f 107/107/107 11/11/11 15/15/15
f 107/107/107 15/15/15 104/104/104
f 107/107/107 104/104/104 106/106/106
f 107/107/107 106/106/106 56/56/56
f 107/107/107 56/56/56 60/60/60
f 107/107/107 60/60/60 108/108/108
f 109/109/109 97/97/97 40/40/40
f 109/109/109 40/40/40 39/39/39
f 109/109/109 39/39/39 38/38/38
f 109/109/109 38/38/38 92/92/92
f 109/109/109 92/92/92 94/94/94
f 109/109/109 94/94/94 85/85/85
f 109/109/109 85/85/85 84/84/84
f 109/109/109 84/84/84 97/97/97
f 110/110/110 111/111/111 27/27/27
f 110/110/110 27/27/27 45/45/45
f 110/110/110 45/45/45 44/44/44
f 110/110/110 44/44/44 96/96/96
f 110/110/110 96/96/96 98/98/98
f 110/110/110 98/98/98 88/88/88
f 110/110/110 88/88/88 74/74/74
f 110/110/110 74/74/74 111/111/111
f 112/112/112 105/105/105 9/9/9
f 112/112/112 9/9/9 8/8/8
f 112/112/112 8/8/8 7/7/7
f 112/112/112 7/7/7 100/100/100
f 112/112/112 100/100/100 102/102/102
f 112/112/112 102/102/102 49/49/49
f 112/112/112 49/49/49 48/48/48
f 112/112/112 48/48/48 105/105/105
f 113/113/113 101/101/101 5/5/5
f 113/113/113 5/5/5 33/33/33
f 113/113/113 33/33/33 29/29/29
f 113/113/113 29/29/29 114/114/114
f 113/113/113 114/114/114 72/72/72
f 113/113/113 72/72/72 78/78/78
f 113/113/113 78/78/78 52/52/52
f 113/113/113 52/52/52 101/101/101
f 115/115/115 116/116/116 24/24/24
f 115/115/115 24/24/24 35/35/35
f 115/115/115 35/35/35 12/12/12
f 115/115/115 12/12/12 108/108/108
f 115/115/115 108/108/108 60/60/60
f 115/115/115 60/60/60 80/80/80
f 115/115/115 80/80/80 63/63/63
f 115/115/115 63/63/63 116/116/116
f 117/117/117 93/93/93 18/18/18
f 117/117/117 18/18/18 17/17/17
f 117/117/117 17/17/17 24/24/24
f 117/117/117 24/24/24 116/116/116
f 117/117/117 116/116/116 63/63/63
f 117/117/117 63/63/63 62/62/62
f 117/117/117 62/62/62 69/69/69
f 117/117/117 69/69/69 93/93/93
f 118/118/118 114/114/114 29/29/29
f 118/118/118 29/29/29 28/28/28
f 118/118/118 28/28/28 27/27/27
f 118/118/118 27/27/27 111/111/111
f 118/118/118 111/111/111 74/74/74
f 118/118/118 74/74/74 73/73/73
f 118/118/118 73/73/73 72/72/72
f 118/118/118 72/72/72 114/114/114
