v -2.372337 0.517714 -1.137273
v -2.373858 0.517382 -1.137648
v -2.373190 0.517465 -1.138721
v -2.371953 0.517714 -1.138828
v -2.370908 0.517962 -1.138157
v -2.370816 0.518045 -1.136897
v -2.371484 0.517962 -1.135825
v -2.372721 0.517714 -1.135718
v -2.373766 0.517465 -1.136388
v -2.394347 0.602258 -1.143503
v -2.395015 0.602175 -1.142427
v -2.390230 0.586959 -1.142816
v -2.389562 0.587041 -1.143888
v -2.389655 0.586958 -1.145148
v -2.394439 0.602176 -1.144764
v -2.399224 0.617393 -1.144379
v -2.399131 0.617474 -1.143118
v -2.399799 0.617392 -1.142039
v -2.380189 0.552543 -1.140393
v -2.380857 0.552461 -1.139320
v -2.380281 0.552460 -1.141653
v -2.382094 0.552212 -1.139213
v -2.383139 0.551963 -1.139884
v -2.391467 0.586710 -1.142709
v -2.392512 0.586461 -1.143379
v -2.383231 0.551880 -1.141144
v -2.382563 0.551963 -1.142216
v -2.392605 0.586378 -1.144639
v -2.391937 0.586461 -1.145711
v -2.381326 0.552212 -1.142323
v -2.390700 0.586710 -1.145819
v -2.396251 0.601929 -1.142315
v -2.397296 0.601682 -1.142981
v -2.401036 0.617147 -1.141920
v -2.402080 0.616903 -1.142582
v -2.397389 0.601600 -1.144241
v -2.396721 0.601683 -1.145317
v -2.402173 0.616822 -1.143843
v -2.401505 0.616904 -1.144923
v -2.395484 0.601929 -1.145430
v -2.400268 0.617149 -1.145041
v -2.406783 0.637115 -1.142558
v -2.407451 0.637031 -1.141482
v -2.406876 0.637035 -1.143818
v -2.414527 0.656676 -1.143257
v -2.414435 0.656756 -1.141997
v -2.415103 0.656671 -1.140925
v -2.408688 0.636784 -1.141369
v -2.409733 0.636538 -1.142035
v -2.416340 0.656421 -1.140818
v -2.417385 0.656173 -1.141488
v -2.409825 0.636458 -1.143296
v -2.409157 0.636542 -1.144372
v -2.417477 0.656093 -1.142748
v -2.416809 0.656179 -1.143821
v -2.407920 0.636789 -1.144484
v -2.415572 0.656428 -1.143928
v -2.426416 0.706838 -1.146201
v -2.427084 0.706755 -1.145129
v -2.424331 0.692264 -1.144125
v -2.423662 0.692347 -1.145197
v -2.423755 0.692265 -1.146458
v -2.426508 0.706755 -1.147461
v -2.428518 0.719924 -1.148226
v -2.428425 0.720007 -1.146966
v -2.429093 0.719924 -1.145894
v -2.428321 0.706506 -1.145021
v -2.429366 0.706258 -1.145692
v -2.426613 0.691767 -1.144688
v -2.425568 0.692015 -1.144018
v -2.430330 0.719675 -1.145786
v -2.431375 0.719427 -1.146457
v -2.429459 0.706175 -1.146952
v -2.428790 0.706258 -1.148024
v -2.426037 0.691767 -1.147021
v -2.426705 0.691684 -1.145948
v -2.431468 0.719344 -1.147717
v -2.430800 0.719426 -1.148789
v -2.427553 0.706506 -1.148131
v -2.424800 0.692016 -1.147128
v -2.429563 0.719675 -1.148896
v -2.419421 0.675213 -1.143717
v -2.420089 0.675128 -1.142644
v -2.419513 0.675131 -1.144977
v -2.421326 0.674879 -1.142537
v -2.422371 0.674631 -1.143207
v -2.422463 0.674549 -1.144467
v -2.421795 0.674634 -1.145540
v -2.420558 0.674883 -1.145647
vn 0.200900 -0.978300 0.049600
vn -0.572700 -0.808300 -0.136300
vn -0.247900 -0.743100 -0.621500
vn 0.323200 -0.637400 -0.699400
vn 0.798200 -0.475900 -0.369300
vn 0.871300 -0.438600 0.220200
vn 0.529100 -0.459300 0.713500
vn -0.048900 -0.614000 0.787800
vn -0.519100 -0.726600 0.450000
vn 0.930100 0.286600 0.229700
vn 0.506800 0.137500 0.851000
vn 0.507000 0.182000 0.842500
vn 0.934300 0.282400 0.217500
vn 0.817300 0.217500 -0.533500
vn 0.808900 0.267600 -0.523500
vn 0.801900 0.294600 -0.519700
vn 0.921100 0.317100 0.225800
vn 0.510500 0.158100 0.845200
vn 0.933000 0.276800 0.230000
vn 0.485700 0.217700 0.846500
vn 0.834800 0.173900 -0.522300
vn -0.246100 0.031300 0.968700
vn -0.834800 -0.173900 0.522300
vn -0.231000 -0.031100 0.972400
vn -0.828300 -0.224600 0.513300
vn -0.933000 -0.276800 -0.230000
vn -0.485700 -0.217700 -0.846500
vn -0.928600 -0.280800 -0.242400
vn -0.484900 -0.173000 -0.857300
vn 0.246100 -0.031300 -0.968700
vn 0.233000 0.030900 -0.972000
vn -0.215200 -0.092800 0.972100
vn -0.808800 -0.267800 0.523500
vn -0.205500 -0.097900 0.973700
vn -0.796300 -0.295500 0.527800
vn -0.930200 -0.286400 -0.229600
vn -0.506900 -0.137300 -0.850900
vn -0.920000 -0.317900 -0.228900
vn -0.497900 -0.150700 -0.854000
vn 0.215400 0.092600 -0.972100
vn 0.217300 0.103200 -0.970600
vn 0.909800 0.348000 0.225800
vn 0.498900 0.170300 0.849700
vn 0.789400 0.322400 -0.522400
vn 0.816500 0.254000 -0.518400
vn 0.919200 0.310700 0.241900
vn 0.475300 0.182200 0.860700
vn -0.210700 -0.109400 0.971400
vn -0.789400 -0.322200 0.522400
vn -0.236200 -0.045700 0.970600
vn -0.812000 -0.246700 0.528900
vn -0.909800 -0.348200 -0.225900
vn -0.498800 -0.170400 -0.849800
vn -0.925500 -0.311500 -0.215200
vn -0.509400 -0.198200 -0.837400
vn 0.210500 0.109500 -0.971400
vn 0.221900 0.040400 -0.974200
vn 0.955300 0.178400 0.235700
vn 0.500300 0.140100 0.854400
vn 0.491500 0.174000 0.853300
vn 0.946000 0.225000 0.233300
vn 0.838700 0.142200 -0.525600
vn 0.845500 0.111400 -0.522100
vn 0.852500 0.100300 -0.513000
vn 0.959300 0.159900 0.232700
vn 0.517500 0.128100 0.846000
vn -0.247200 0.019400 0.968700
vn -0.849500 -0.112700 0.515300
vn -0.844600 -0.144700 0.515500
vn -0.249500 0.020700 0.968100
vn -0.234200 0.020700 0.972000
vn -0.846700 -0.098800 0.522700
vn -0.955200 -0.178700 -0.236000
vn -0.506400 -0.140800 -0.850700
vn -0.500700 -0.175200 -0.847700
vn -0.945900 -0.224900 -0.233800
vn -0.957400 -0.160000 -0.240400
vn -0.494400 -0.125400 -0.860100
vn 0.239900 -0.020600 -0.970500
vn 0.238700 -0.023400 -0.970800
vn 0.252700 -0.017600 -0.967400
vn 0.936600 0.263300 0.231200
vn 0.487600 0.202500 0.849300
vn 0.834900 0.169000 -0.523800
vn -0.246600 0.023000 0.968800
vn -0.837100 -0.170000 0.519900
vn -0.936600 -0.263100 -0.231400
vn -0.491100 -0.203100 -0.847000
vn 0.242500 -0.024400 -0.969800
vt 0.000000 0.000000
vt 0.000000 0.000000
vt 0.000000 0.000000
vt 0.000000 0.000000
vt 0.000000 0.000000
vt 0.000000 0.000000
vt 0.000000 0.000000
vt 0.000000 0.000000
vt 0.000000 0.000000
vt 0.000000 0.000000
vt 0.000000 0.000000
vt 0.000000 0.000000
vt 0.000000 0.000000
vt 0.000000 0.000000
vt 0.000000 0.000000
vt 0.000000 0.000000
vt 0.000000 0.000000
vt 0.000000 0.000000
vt 0.000000 0.000000
vt 0.000000 0.000000
vt 0.000000 0.000000
vt 0.000000 0.000000
vt 0.000000 0.000000
vt 0.000000 0.000000
vt 0.000000 0.000000
vt 0.000000 0.000000
vt 0.000000 0.000000
vt 0.000000 0.000000
vt 0.000000 0.000000
vt 0.000000 0.000000
vt 0.000000 0.000000
vt 0.000000 0.000000
vt 0.000000 0.000000
vt 0.000000 0.000000
vt 0.000000 0.000000
vt 0.000000 0.000000
vt 0.000000 0.000000
vt 0.000000 0.000000
vt 0.000000 0.000000
vt 0.000000 0.000000
vt 0.000000 0.000000
vt 0.000000 0.000000
vt 0.000000 0.000000
vt 0.000000 0.000000
vt 0.000000 0.000000
vt 0.000000 0.000000
vt 0.000000 0.000000
vt 0.000000 0.000000
vt 0.000000 0.000000
vt 0.000000 0.000000
vt 0.000000 0.000000
vt 0.000000 0.000000
vt 0.000000 0.000000
vt 0.000000 0.000000
vt 0.000000 0.000000
vt 0.000000 0.000000
vt 0.000000 0.000000
vt 0.000000 0.000000
vt 0.000000 0.000000
vt 0.000000 0.000000
vt 0.000000 0.000000
vt 0.000000 0.000000
vt 0.000000 0.000000
vt 0.000000 0.000000
vt 0.000000 0.000000
vt 0.000000 0.000000
vt 0.000000 0.000000
vt 0.000000 0.000000
vt 0.000000 0.000000
vt 0.000000 0.000000
vt 0.000000 0.000000
vt 0.000000 0.000000
vt 0.000000 0.000000
vt 0.000000 0.000000
vt 0.000000 0.000000
vt 0.000000 0.000000
vt 0.000000 0.000000
vt 0.000000 0.000000
vt 0.000000 0.000000
vt 0.000000 0.000000
vt 0.000000 0.000000
vt 0.000000 0.000000
vt 0.000000 0.000000
vt 0.000000 0.000000
vt 0.000000 0.000000
vt 0.000000 0.000000
vt 0.000000 0.000000
vt 0.000000 0.000000
vt 0.000000 0.000000
f 1/1/1 2/2/2 3/3/3
f 1/1/1 3/3/3 4/4/4
f 1/1/1 4/4/4 5/5/5
f 1/1/1 5/5/5 6/6/6
f 1/1/1 6/6/6 7/7/7
f 1/1/1 7/7/7 8/8/8
f 1/1/1 8/8/8 9/9/9
f 1/1/1 9/9/9 2/2/2
f 10/10/10 11/11/11 12/12/12
f 10/10/10 12/12/12 13/13/13
f 10/10/10 13/13/13 14/14/14
f 10/10/10 14/14/14 15/15/15
f 10/10/10 15/15/15 16/16/16
f 10/10/10 16/16/16 17/17/17
f 10/10/10 17/17/17 18/18/18
f 10/10/10 18/18/18 11/11/11
f 19/19/19 20/20/20 7/7/7
f 19/19/19 7/7/7 6/6/6
f 19/19/19 6/6/6 5/5/5
f 19/19/19 5/5/5 21/21/21
f 19/19/19 21/21/21 14/14/14
f 19/19/19 14/14/14 13/13/13
f 19/19/19 13/13/13 12/12/12
f 19/19/19 12/12/12 20/20/20
f 22/22/22 23/23/23 9/9/9
f 22/22/22 9/9/9 8/8/8
f 22/22/22 8/8/8 7/7/7
f 22/22/22 7/7/7 20/20/20
f 22/22/22 20/20/20 12/12/12
f 22/22/22 12/12/12 24/24/24
f 22/22/22 24/24/24 25/25/25
f 22/22/22 25/25/25 23/23/23
f 26/26/26 27/27/27 3/3/3
f 26/26/26 3/3/3 2/2/2
f 26/26/26 2/2/2 9/9/9
f 26/26/26 9/9/9 23/23/23
f 26/26/26 23/23/23 25/25/25
f 26/26/26 25/25/25 28/28/28
f 26/26/26 28/28/28 29/29/29
f 26/26/26 29/29/29 27/27/27
f 30/30/30 21/21/21 5/5/5
f 30/30/30 5/5/5 4/4/4
f 30/30/30 4/4/4 3/3/3
f 30/30/30 3/3/3 27/27/27
f 30/30/30 27/27/27 29/29/29
f 30/30/30 29/29/29 31/31/31
f 30/30/30 31/31/31 14/14/14
f 30/30/30 14/14/14 21/21/21
f 32/32/32 33/33/33 25/25/25
f 32/32/32 25/25/25 24/24/24
f 32/32/32 24/24/24 12/12/12
f 32/32/32 12/12/12 11/11/11
f 32/32/32 11/11/11 18/18/18
f 32/32/32 18/18/18 34/34/34
f 32/32/32 34/34/34 35/35/35
f 32/32/32 35/35/35 33/33/33
f 36/36/36 37/37/37 29/29/29
f 36/36/36 29/29/29 28/28/28
f 36/36/36 28/28/28 25/25/25
f 36/36/36 25/25/25 33/33/33
f 36/36/36 33/33/33 35/35/35
f 36/36/36 35/35/35 38/38/38
f 36/36/36 38/38/38 39/39/39
f 36/36/36 39/39/39 37/37/37
f 40/40/40 15/15/15 14/14/14
f 40/40/40 14/14/14 31/31/31
f 40/40/40 31/31/31 29/29/29
f 40/40/40 29/29/29 37/37/37
f 40/40/40 37/37/37 39/39/39
f 40/40/40 39/39/39 41/41/41
f 40/40/40 41/41/41 16/16/16
f 40/40/40 16/16/16 15/15/15
f 42/42/42 43/43/43 18/18/18
f 42/42/42 18/18/18 17/17/17
f 42/42/42 17/17/17 16/16/16
f 42/42/42 16/16/16 44/44/44
f 42/42/42 44/44/44 45/45/45
f 42/42/42 45/45/45 46/46/46
f 42/42/42 46/46/46 47/47/47
f 42/42/42 47/47/47 43/43/43
f 48/48/48 49/49/49 35/35/35
f 48/48/48 35/35/35 34/34/34
f 48/48/48 34/34/34 18/18/18
f 48/48/48 18/18/18 43/43/43
f 48/48/48 43/43/43 47/47/47
f 48/48/48 47/47/47 50/50/50
f 48/48/48 50/50/50 51/51/51
f 48/48/48 51/51/51 49/49/49
f 52/52/52 53/53/53 39/39/39
f 52/52/52 39/39/39 38/38/38
f 52/52/52 38/38/38 35/35/35
f 52/52/52 35/35/35 49/49/49
f 52/52/52 49/49/49 51/51/51
f 52/52/52 51/51/51 54/54/54
f 52/52/52 54/54/54 55/55/55
f 52/52/52 55/55/55 53/53/53
f 56/56/56 44/44/44 16/16/16
f 56/56/56 16/16/16 41/41/41
f 56/56/56 41/41/41 39/39/39
f 56/56/56 39/39/39 53/53/53
f 56/56/56 53/53/53 55/55/55
f 56/56/56 55/55/55 57/57/57
f 56/56/56 57/57/57 45/45/45
f 56/56/56 45/45/45 44/44/44
f 58/58/58 59/59/59 60/60/60
f 58/58/58 60/60/60 61/61/61
f 58/58/58 61/61/61 62/62/62
f 58/58/58 62/62/62 63/63/63
f 58/58/58 63/63/63 64/64/64
f 58/58/58 64/64/64 65/65/65
f 58/58/58 65/65/65 66/66/66
f 58/58/58 66/66/66 59/59/59
f 67/67/67 68/68/68 69/69/69
f 67/67/67 69/69/69 70/70/70
f 67/67/67 70/70/70 60/60/60
f 67/67/67 60/60/60 59/59/59
f 67/67/67 59/59/59 66/66/66
f 67/67/67 66/66/66 71/71/71
f 67/67/67 71/71/71 72/72/72
f 67/67/67 72/72/72 68/68/68
f 73/73/73 74/74/74 75/75/75
f 73/73/73 75/75/75 76/76/76
f 73/73/73 76/76/76 69/69/69
f 73/73/73 69/69/69 68/68/68
f 73/73/73 68/68/68 72/72/72
f 73/73/73 72/72/72 77/77/77
f 73/73/73 77/77/77 78/78/78
f 73/73/73 78/78/78 74/74/74
f 79/79/79 63/63/63 62/62/62
f 79/79/79 62/62/62 80/80/80
f 79/79/79 80/80/80 75/75/75
f 79/79/79 75/75/75 74/74/74
f 79/79/79 74/74/74 78/78/78
f 79/79/79 78/78/78 81/81/81
f 79/79/79 81/81/81 64/64/64
f 79/79/79 64/64/64 63/63/63
f 82/82/82 83/83/83 47/47/47
f 82/82/82 47/47/47 46/46/46
f 82/82/82 46/46/46 45/45/45
f 82/82/82 45/45/45 84/84/84
f 82/82/82 84/84/84 62/62/62
f 82/82/82 62/62/62 61/61/61
f 82/82/82 61/61/61 60/60/60
f 82/82/82 60/60/60 83/83/83
f 85/85/85 86/86/86 51/51/51
f 85/85/85 51/51/51 50/50/50
f 85/85/85 50/50/50 47/47/47
f 85/85/85 47/47/47 83/83/83
f 85/85/85 83/83/83 60/60/60
f 85/85/85 60/60/60 70/70/70
f 85/85/85 70/70/70 69/69/69
f 85/85/85 69/69/69 86/86/86
f 87/87/87 88/88/88 55/55/55
f 87/87/87 55/55/55 54/54/54
f 87/87/87 54/54/54 51/51/51
f 87/87/87 51/51/51 86/86/86
f 87/87/87 86/86/86 69/69/69
f 87/87/87 69/69/69 76/76/76
f 87/87/87 76/76/76 75/75/75
f 87/87/87 75/75/75 88/88/88
f 89/89/89 84/84/84 45/45/45
f 89/89/89 45/45/45 57/57/57
f 89/89/89 57/57/57 55/55/55
f 89/89/89 55/55/55 88/88/88
f 89/89/89 88/88/88 75/75/75
f 89/89/89 75/75/75 80/80/80
f 89/89/89 80/80/80 62/62/62
f 89/89/89 62/62/62 84/84/84
