v -2.404060 0.792625 -1.215733
v -2.402276 0.793060 -1.215574
v -2.402190 0.791155 -1.217118
v -2.404215 0.790840 -1.217089
v -2.405777 0.790620 -1.217273
v -2.405439 0.792193 -1.216170
v -2.404861 0.793114 -1.215383
v -2.403862 0.793842 -1.214709
v -2.402319 0.794404 -1.214378
v -2.400599 0.793251 -1.216313
v -2.399368 0.793291 -1.217187
v -2.398881 0.791868 -1.218429
v -2.400281 0.791552 -1.217748
v -2.400866 0.794384 -1.215211
v -2.399945 0.794004 -1.216206
v -2.399736 0.784858 -1.221478
v -2.398328 0.785177 -1.221907
v -2.398426 0.782667 -1.222736
v -2.399670 0.782382 -1.222345
v -2.401345 0.782033 -1.221928
v -2.401633 0.784464 -1.221017
v -2.401880 0.786822 -1.219946
v -2.399900 0.787241 -1.220444
v -2.398433 0.787588 -1.220917
v -2.403591 0.784160 -1.220832
v -2.403079 0.781765 -1.221774
v -2.404400 0.781586 -1.221735
v -2.405082 0.783955 -1.220775
v -2.405499 0.786309 -1.219734
v -2.403933 0.786511 -1.219768
v -2.404156 0.788770 -1.218477
v -2.402062 0.789064 -1.218611
v -2.405764 0.788595 -1.218514
v -2.400065 0.789511 -1.219163
v -2.398594 0.789892 -1.219715
v -2.399798 0.779837 -1.223122
v -2.398878 0.780062 -1.223454
v -2.399352 0.778541 -1.223732
v -2.399960 0.777895 -1.223649
v -2.400803 0.777698 -1.223374
v -2.401042 0.779568 -1.222779
v -2.402342 0.779377 -1.222695
v -2.401703 0.777579 -1.223356
v -2.402488 0.777973 -1.223206
v -2.403339 0.779254 -1.222707
v -2.404041 0.792511 -1.215579
v -2.402231 0.792949 -1.215423
v -2.402285 0.794319 -1.214267
v -2.403849 0.793754 -1.214595
v -2.404857 0.793049 -1.215298
v -2.405438 0.792106 -1.216053
v -2.405773 0.790538 -1.217154
v -2.404193 0.790732 -1.216931
v -2.402145 0.791050 -1.216963
v -2.400528 0.793146 -1.216168
v -2.399303 0.793216 -1.217082
v -2.399900 0.793946 -1.216128
v -2.400811 0.794304 -1.215104
v -2.400213 0.791452 -1.217598
v -2.398819 0.791797 -1.218319
v -2.399677 0.784788 -1.221308
v -2.398276 0.785127 -1.221781
v -2.398379 0.787530 -1.220796
v -2.399839 0.787162 -1.220279
v -2.401836 0.786738 -1.219777
v -2.401590 0.784391 -1.220843
v -2.401303 0.781967 -1.221750
v -2.399612 0.782319 -1.222171
v -2.398375 0.782621 -1.222607
v -2.403565 0.784084 -1.220656
v -2.403907 0.786426 -1.219597
v -2.405489 0.786243 -1.219604
v -2.405071 0.783897 -1.220643
v -2.404390 0.781533 -1.221599
v -2.403054 0.781696 -1.221594
v -2.404132 0.788673 -1.218313
v -2.402017 0.788969 -1.218449
v -2.405756 0.788521 -1.218389
v -2.400001 0.789420 -1.219005
v -2.398536 0.789827 -1.219599
v -2.399739 0.779777 -1.222947
v -2.398825 0.780018 -1.223325
v -2.401000 0.779504 -1.222601
v -2.400772 0.777651 -1.223240
v -2.399915 0.777850 -1.223518
v -2.399315 0.778509 -1.223636
v -2.402319 0.779310 -1.222515
v -2.403330 0.779203 -1.222570
v -2.402480 0.777936 -1.223106
v -2.401686 0.777530 -1.223221
v -2.398545 0.780118 -1.223508
v -2.399288 0.778057 -1.223893
v -2.397987 0.782742 -1.222809
v -2.399315 0.778509 -1.223636
v -2.401483 0.776958 -1.223517
v -2.402431 0.777488 -1.223367
v -2.400709 0.777054 -1.223512
v -2.402480 0.777936 -1.223106
v -2.405901 0.792010 -1.216264
v -2.405075 0.793182 -1.215311
v -2.406298 0.790510 -1.217281
v -2.404857 0.793049 -1.215298
v -2.400930 0.794726 -1.214797
v -2.399756 0.794145 -1.216202
v -2.402318 0.794814 -1.213930
v -2.399900 0.793946 -1.216128
v -2.398926 0.793272 -1.217432
v -2.398384 0.791942 -1.218607
v -2.399993 0.777228 -1.223766
v -2.403669 0.779190 -1.222650
v -2.404838 0.781502 -1.221661
v -2.403790 0.794208 -1.214317
v -2.406298 0.788503 -1.218470
v -2.406018 0.786212 -1.219664
v -2.398075 0.789991 -1.219848
v -2.397918 0.787678 -1.221022
v -2.397834 0.785262 -1.221995
v -2.405576 0.783861 -1.220697
vn -0.020900 0.626700 -0.779000
vn -0.237500 0.619400 -0.748300
vn -0.235200 0.572500 -0.785500
vn -0.041700 0.577700 -0.815100
vn -0.050000 0.556400 -0.829400
vn -0.028900 0.626000 -0.779300
vn -0.014900 0.672200 -0.740100
vn -0.063800 0.693800 -0.717300
vn -0.239300 0.688100 -0.685000
vn -0.441400 0.550600 -0.708500
vn -0.434000 0.552800 -0.711300
vn -0.407700 0.491700 -0.769400
vn -0.417600 0.509700 -0.752200
vn -0.407000 0.631800 -0.659700
vn -0.449900 0.593600 -0.667100
vn -0.320600 0.331700 -0.887200
vn -0.284600 0.331600 -0.899500
vn -0.278300 0.302200 -0.911700
vn -0.324500 0.299200 -0.897300
vn -0.211700 0.312500 -0.926000
vn -0.216300 0.352100 -0.910600
vn -0.224300 0.429400 -0.874800
vn -0.340300 0.397700 -0.852000
vn -0.313200 0.388200 -0.866700
vn -0.109600 0.369900 -0.922600
vn -0.098200 0.340200 -0.935200
vn -0.144700 0.326400 -0.934100
vn -0.145200 0.356800 -0.922800
vn -0.129000 0.421600 -0.897500
vn -0.103600 0.440600 -0.891700
vn -0.078200 0.518600 -0.851400
vn -0.231200 0.511100 -0.827800
vn -0.093200 0.494200 -0.864300
vn -0.376700 0.464600 -0.801400
vn -0.359300 0.446100 -0.819700
vn -0.347100 0.280400 -0.894900
vn -0.297300 0.279600 -0.912900
vn -0.325400 0.257100 -0.909900
vn -0.360600 0.222100 -0.905900
vn -0.202600 0.240200 -0.949300
vn -0.209400 0.293700 -0.932600
vn -0.071100 0.330400 -0.941200
vn -0.042600 0.279700 -0.959100
vn -0.086700 0.300400 -0.949900
vn -0.120300 0.311700 -0.942500
vn -0.007900 -0.609000 0.793100
vn 0.236900 -0.606600 0.758800
vn 0.234200 -0.556000 0.797400
vn -0.094900 -0.554200 0.827000
vn -0.213100 -0.523800 0.824700
vn -0.188500 -0.534400 0.823900
vn -0.118600 -0.537400 0.835000
vn 0.026400 -0.577300 0.816100
vn 0.235200 -0.572600 0.785400
vn 0.465400 -0.523400 0.713800
vn 0.609400 -0.390200 0.690100
vn 0.627900 -0.371800 0.683700
vn 0.534400 -0.440300 0.721500
vn 0.431400 -0.504000 0.748300
vn 0.552200 -0.415900 0.722500
vn 0.336000 -0.329300 0.882400
vn 0.440200 -0.311700 0.842100
vn 0.455400 -0.356700 0.815600
vn 0.354400 -0.394600 0.847700
vn 0.224300 -0.429300 0.874900
vn 0.216300 -0.351900 0.910700
vn 0.211700 -0.312400 0.926000
vn 0.342600 -0.298400 0.890800
vn 0.462000 -0.303200 0.833400
vn 0.093600 -0.373200 0.923000
vn 0.088600 -0.442800 0.892200
vn -0.023700 -0.443500 0.896000
vn -0.017300 -0.394500 0.918700
vn -0.042400 -0.394600 0.917900
vn 0.079900 -0.346000 0.934800
vn 0.063600 -0.519900 0.851900
vn 0.231200 -0.511100 0.827800
vn -0.059600 -0.502200 0.862600
vn 0.390200 -0.460700 0.797100
vn 0.496800 -0.401700 0.769300
vn 0.373100 -0.293300 0.880200
vn 0.512800 -0.320600 0.796400
vn 0.210800 -0.305200 0.928600
vn 0.216600 -0.354900 0.909500
vn 0.446300 -0.341200 0.827300
vn 0.542300 -0.335800 0.770100
vn 0.047800 -0.352100 0.934700
vn -0.093100 -0.430300 0.897800
vn -0.122400 -0.456200 0.881400
vn -0.017500 -0.425300 0.904900
vn 0.878500 -0.122500 -0.461700
vn 0.680900 -0.470500 -0.561100
vn 0.922100 0.007500 -0.386800
vn 0.542300 -0.335800 0.770100
vn -0.127800 -0.937400 -0.323800
vn -0.619100 -0.706100 -0.343600
vn 0.137400 -0.965100 -0.222700
vn -0.122400 -0.456200 0.881400
vn -0.954500 0.285400 0.085800
vn -0.814300 0.517700 0.262300
vn -0.995300 0.096200 0.003900
vn -0.213100 -0.523800 0.824700
vn 0.430400 0.802800 0.412600
vn 0.627300 0.778400 0.021100
vn -0.014000 0.720500 0.693200
vn 0.627900 -0.371800 0.683700
vn 0.774400 0.599200 -0.203200
vn 0.849500 0.430100 -0.305500
vn 0.330800 -0.854500 -0.400400
vn -0.881600 -0.441400 -0.167000
vn -0.941000 -0.330000 -0.074900
vn -0.524700 0.630000 0.572600
vn -0.998500 -0.047300 -0.026700
vn -0.990400 -0.134700 -0.030000
vn 0.891800 0.293700 -0.344200
vn 0.913300 0.209500 -0.349200
vn 0.927900 0.124500 -0.351300
vn -0.974900 -0.220300 -0.032700
vt 0.839504 0.118056
vt 0.856743 0.205307
vt 0.741230 0.205307
vt 0.734555 0.106726
vt 0.724541 0.032791
vt 0.813647 0.052618
vt 0.868992 0.081539
vt 0.913398 0.129584
vt 0.940923 0.205307
vt 0.839504 0.292557
vt 0.813647 0.357995
vt 0.724541 0.377822
vt 0.734555 0.303887
vt 0.913398 0.281029
vt 0.868992 0.329074
vt 0.369475 0.299954
vt 0.368286 0.370940
vt 0.245840 0.351447
vt 0.246397 0.288815
vt 0.246768 0.205307
vt 0.370268 0.205307
vt 0.494283 0.205307
vt 0.492822 0.304944
vt 0.490632 0.379672
vt 0.369475 0.110659
vt 0.246397 0.121798
vt 0.245841 0.059166
vt 0.368286 0.039673
vt 0.490632 0.030941
vt 0.492822 0.105669
vt 0.616755 0.103478
vt 0.619174 0.205307
vt 0.613127 0.027106
vt 0.616755 0.307135
vt 0.613126 0.383507
vt 0.123273 0.268175
vt 0.123047 0.315326
vt 0.054743 0.283353
vt 0.030912 0.249131
vt 0.030973 0.205306
vt 0.123423 0.205306
vt 0.123273 0.142438
vt 0.030912 0.161481
vt 0.054744 0.127260
vt 0.123047 0.095287
vt 0.839504 0.118056
vt 0.856743 0.205307
vt 0.968983 0.205307
vt 0.938030 0.133427
vt 0.876123 0.061548
vt 0.805028 0.030806
vt 0.721203 0.008146
vt 0.734555 0.106726
vt 0.741230 0.205307
vt 0.839504 0.292557
vt 0.805028 0.379807
vt 0.876123 0.349065
vt 0.938030 0.277186
vt 0.734555 0.303887
vt 0.721203 0.402467
vt 0.369475 0.299954
vt 0.367890 0.394602
vt 0.489902 0.404581
vt 0.492822 0.304944
vt 0.494283 0.205307
vt 0.370268 0.205307
vt 0.246768 0.205307
vt 0.246397 0.288815
vt 0.245655 0.372324
vt 0.369475 0.110659
vt 0.492822 0.105669
vt 0.489902 0.006032
vt 0.367890 0.016011
vt 0.245655 0.038289
vt 0.246397 0.121798
vt 0.616755 0.103478
vt 0.619174 0.205307
vt 0.611917 0.001649
vt 0.616755 0.307135
vt 0.611917 0.408964
vt 0.123273 0.268175
vt 0.122972 0.331043
vt 0.123423 0.205306
vt 0.000156 0.205306
vt 0.000125 0.242784
vt 0.000064 0.280261
vt 0.123273 0.142438
vt 0.122972 0.079570
vt 0.000064 0.130352
vt 0.000125 0.167829
vt 0.122972 0.331043
vt 0.030806 0.283587
vt 0.245655 0.372324
vt 0.030806 0.283587
vt 0.000125 0.167829
vt 0.030806 0.127026
vt 0.000156 0.205306
vt 0.030806 0.127026
vt 0.805028 0.030806
vt 0.873826 0.071832
vt 0.721203 0.008146
vt 0.873826 0.071832
vt 0.938030 0.277186
vt 0.873826 0.338781
vt 0.968983 0.205307
vt 0.873826 0.338781
vt 0.805028 0.379807
vt 0.721203 0.402467
vt 0.000125 0.242784
vt 0.122972 0.079570
vt 0.245655 0.038289
vt 0.938030 0.133427
vt 0.611917 0.001649
vt 0.489902 0.006032
vt 0.611917 0.408964
vt 0.489902 0.404581
vt 0.367890 0.394602
vt 0.367890 0.016011
f 1/1/1 2/2/2 3/3/3
f 1/1/1 3/3/3 4/4/4
f 1/1/1 4/4/4 5/5/5
f 1/1/1 5/5/5 6/6/6
f 1/1/1 6/6/6 7/7/7
f 1/1/1 7/7/7 8/8/8
f 1/1/1 8/8/8 9/9/9
f 1/1/1 9/9/9 2/2/2
f 10/10/10 11/11/11 12/12/12
f 10/10/10 12/12/12 13/13/13
f 10/10/10 13/13/13 3/3/3
f 10/10/10 3/3/3 2/2/2
f 10/10/10 2/2/2 9/9/9
f 10/10/10 9/9/9 14/14/14
f 10/10/10 14/14/14 15/15/15
f 10/10/10 15/15/15 11/11/11
f 16/16/16 17/17/17 18/18/18
f 16/16/16 18/18/18 19/19/19
f 16/16/16 19/19/19 20/20/20
f 16/16/16 20/20/20 21/21/21
f 16/16/16 21/21/21 22/22/22
f 16/16/16 22/22/22 23/23/23
f 16/16/16 23/23/23 24/24/24
f 16/16/16 24/24/24 17/17/17
f 25/25/25 21/21/21 20/20/20
f 25/25/25 20/20/20 26/26/26
f 25/25/25 26/26/26 27/27/27
f 25/25/25 27/27/27 28/28/28
f 25/25/25 28/28/28 29/29/29
f 25/25/25 29/29/29 30/30/30
f 25/25/25 30/30/30 22/22/22
f 25/25/25 22/22/22 21/21/21
f 31/31/31 32/32/32 22/22/22
f 31/31/31 22/22/22 30/30/30
f 31/31/31 30/30/30 29/29/29
f 31/31/31 29/29/29 33/33/33
f 31/31/31 33/33/33 5/5/5
f 31/31/31 5/5/5 4/4/4
f 31/31/31 4/4/4 3/3/3
f 31/31/31 3/3/3 32/32/32
f 34/34/34 35/35/35 24/24/24
f 34/34/34 24/24/24 23/23/23
f 34/34/34 23/23/23 22/22/22
f 34/34/34 22/22/22 32/32/32
f 34/34/34 32/32/32 3/3/3
f 34/34/34 3/3/3 13/13/13
f 34/34/34 13/13/13 12/12/12
f 34/34/34 12/12/12 35/35/35
f 36/36/36 37/37/37 38/38/38
f 36/36/36 38/38/38 39/39/39
f 36/36/36 39/39/39 40/40/40
f 36/36/36 40/40/40 41/41/41
f 36/36/36 41/41/41 20/20/20
f 36/36/36 20/20/20 19/19/19
f 36/36/36 19/19/19 18/18/18
f 36/36/36 18/18/18 37/37/37
f 42/42/42 41/41/41 40/40/40
f 42/42/42 40/40/40 43/43/43
f 42/42/42 43/43/43 44/44/44
f 42/42/42 44/44/44 45/45/45
f 42/42/42 45/45/45 27/27/27
f 42/42/42 27/27/27 26/26/26
f 42/42/42 26/26/26 20/20/20
f 42/42/42 20/20/20 41/41/41
f 46/46/46 47/47/47 48/48/48
f 46/46/46 48/48/48 49/49/49
f 46/46/46 49/49/49 50/50/50
f 46/46/46 50/50/50 51/51/51
f 46/46/46 51/51/51 52/52/52
f 46/46/46 52/52/52 53/53/53
f 46/46/46 53/53/53 54/54/54
f 46/46/46 54/54/54 47/47/47
f 55/55/55 56/56/56 57/57/57
f 55/55/55 57/57/57 58/58/58
f 55/55/55 58/58/58 48/48/48
f 55/55/55 48/48/48 47/47/47
f 55/55/55 47/47/47 54/54/54
f 55/55/55 54/54/54 59/59/59
f 55/55/55 59/59/59 60/60/60
f 55/55/55 60/60/60 56/56/56
f 61/61/61 62/62/62 63/63/63
f 61/61/61 63/63/63 64/64/64
f 61/61/61 64/64/64 65/65/65
f 61/61/61 65/65/65 66/66/66
f 61/61/61 66/66/66 67/67/67
f 61/61/61 67/67/67 68/68/68
f 61/61/61 68/68/68 69/69/69
f 61/61/61 69/69/69 62/62/62
f 70/70/70 66/66/66 65/65/65
f 70/70/70 65/65/65 71/71/71
f 70/70/70 71/71/71 72/72/72
f 70/70/70 72/72/72 73/73/73
f 70/70/70 73/73/73 74/74/74
f 70/70/70 74/74/74 75/75/75
f 70/70/70 75/75/75 67/67/67
f 70/70/70 67/67/67 66/66/66
f 76/76/76 77/77/77 54/54/54
f 76/76/76 54/54/54 53/53/53
f 76/76/76 53/53/53 52/52/52
f 76/76/76 52/52/52 78/78/78
f 76/76/76 78/78/78 72/72/72
f 76/76/76 72/72/72 71/71/71
f 76/76/76 71/71/71 65/65/65
f 76/76/76 65/65/65 77/77/77
f 79/79/79 80/80/80 60/60/60
f 79/79/79 60/60/60 59/59/59
f 79/79/79 59/59/59 54/54/54
f 79/79/79 54/54/54 77/77/77
f 79/79/79 77/77/77 65/65/65
f 79/79/79 65/65/65 64/64/64
f 79/79/79 64/64/64 63/63/63
f 79/79/79 63/63/63 80/80/80
f 81/81/81 82/82/82 69/69/69
f 81/81/81 69/69/69 68/68/68
f 81/81/81 68/68/68 67/67/67
f 81/81/81 67/67/67 83/83/83
f 81/81/81 83/83/83 84/84/84
f 81/81/81 84/84/84 85/85/85
f 81/81/81 85/85/85 86/86/86
f 81/81/81 86/86/86 82/82/82
f 87/87/87 83/83/83 67/67/67
f 87/87/87 67/67/67 75/75/75
f 87/87/87 75/75/75 74/74/74
f 87/87/87 74/74/74 88/88/88
f 87/87/87 88/88/88 89/89/89
f 87/87/87 89/89/89 90/90/90
f 87/87/87 90/90/90 84/84/84
f 87/87/87 84/84/84 83/83/83
f 91/91/91 92/92/92 38/38/38
f 91/91/91 38/38/38 37/37/37
f 91/91/91 37/37/37 18/18/18
f 91/91/91 18/18/18 93/93/93
f 91/91/91 93/93/93 69/69/69
f 91/91/91 69/69/69 82/82/82
f 91/91/91 82/82/82 94/94/94
f 91/91/91 94/94/94 92/92/92
f 95/95/95 96/96/96 44/44/44
f 95/95/95 44/44/44 43/43/43
f 95/95/95 43/43/43 40/40/40
f 95/95/95 40/40/40 97/97/97
f 95/95/95 97/97/97 84/84/84
f 95/95/95 84/84/84 90/90/90
f 95/95/95 90/90/90 98/98/98
f 95/95/95 98/98/98 96/96/96
f 99/99/99 100/100/100 7/7/7
f 99/99/99 7/7/7 6/6/6
f 99/99/99 6/6/6 5/5/5
f 99/99/99 5/5/5 101/101/101
f 99/99/99 101/101/101 52/52/52
f 99/99/99 52/52/52 51/51/51
f 99/99/99 51/51/51 102/102/102
f 99/99/99 102/102/102 100/100/100
f 103/103/103 104/104/104 15/15/15
f 103/103/103 15/15/15 14/14/14
f 103/103/103 14/14/14 9/9/9
f 103/103/103 9/9/9 105/105/105
f 103/103/103 105/105/105 48/48/48
f 103/103/103 48/48/48 58/58/58
f 103/103/103 58/58/58 106/106/106
f 103/103/103 106/106/106 104/104/104
f 107/107/107 108/108/108 12/12/12
f 107/107/107 12/12/12 11/11/11
f 107/107/107 11/11/11 15/15/15
f 107/107/107 15/15/15 104/104/104
f 107/107/107 104/104/104 106/106/106
f 107/107/107 106/106/106 56/56/56
f 107/107/107 56/56/56 60/60/60
f 107/107/107 60/60/60 108/108/108
f 109/109/109 97/97/97 40/40/40
f 109/109/109 40/40/40 39/39/39
f 109/109/109 39/39/39 38/38/38
f 109/109/109 38/38/38 92/92/92
f 109/109/109 92/92/92 94/94/94
f 109/109/109 94/94/94 85/85/85
f 109/109/109 85/85/85 84/84/84
f 109/109/109 84/84/84 97/97/97
f 110/110/110 111/111/111 27/27/27
f 110/110/110 27/27/27 45/45/45
f 110/110/110 45/45/45 44/44/44
f 110/110/110 44/44/44 96/96/96
f 110/110/110 96/96/96 98/98/98
f 110/110/110 98/98/98 88/88/88
f 110/110/110 88/88/88 74/74/74
f 110/110/110 74/74/74 111/111/111
f 112/112/112 105/105/105 9/9/9
f 112/112/112 9/9/9 8/8/8
f 112/112/112 8/8/8 7/7/7
f 112/112/112 7/7/7 100/100/100
f 112/112/112 100/100/100 102/102/102
f 112/112/112 102/102/102 49/49/49
f 112/112/112 49/49/49 48/48/48
f 112/112/112 48/48/48 105/105/105
f 113/113/113 101/101/101 5/5/5
f 113/113/113 5/5/5 33/33/33
f 113/113/113 33/33/33 29/29/29
f 113/113/113 29/29/29 114/114/114
f 113/113/113 114/114/114 72/72/72
f 113/113/113 72/72/72 78/78/78
f 113/113/113 78/78/78 52/52/52
f 113/113/113 52/52/52 101/101/101
f 115/115/115 116/116/116 24/24/24
f 115/115/115 24/24/24 35/35/35
f 115/115/115 35/35/35 12/12/12
f 115/115/115 12/12/12 108/108/108
f 115/115/115 108/108/108 60/60/60
f 115/115/115 60/60/60 80/80/80
f 115/115/115 80/80/80 63/63/63
f 115/115/115 63/63/63 116/116/116
f 117/117/117 93/93/93 18/18/18
f 117/117/117 18/18/18 17/17/17
f 117/117/117 17/17/17 24/24/24
f 117/117/117 24/24/24 116/116/116
f 117/117/117 116/116/116 63/63/63
f 117/117/117 63/63/63 62/62/62
f 117/117/117 62/62/62 69/69/69
f 117/117/117 69/69/69 93/93/93
f 118/118/118 114/114/114 29/29/29
f 118/118/118 29/29/29 28/28/28
f 118/118/118 28/28/28 27/27/27
f 118/118/118 27/27/27 111/111/111
f 118/118/118 111/111/111 74/74/74
f 118/118/118 74/74/74 73/73/73
f 118/118/118 73/73/73 72/72/72
f 118/118/118 72/72/72 114/114/114
