v -2.447159 0.740591 -1.137622
v -2.445833 0.741318 -1.136070
v -2.443987 0.739990 -1.137845
v -2.445698 0.739262 -1.139376
v -2.446899 0.738818 -1.140735
v -2.447947 0.740067 -1.139123
v -2.448306 0.740807 -1.137776
v -2.448133 0.741470 -1.136269
v -2.447185 0.742211 -1.134710
v -2.443938 0.742169 -1.135453
v -2.442298 0.742834 -1.135320
v -2.440483 0.741960 -1.136415
v -2.442038 0.741055 -1.136912
v -2.445345 0.742836 -1.134392
v -2.443732 0.743048 -1.134697
v -2.436397 0.735671 -1.141467
v -2.434993 0.736469 -1.140740
v -2.433507 0.734136 -1.142163
v -2.434753 0.733424 -1.142794
v -2.436378 0.732550 -1.143734
v -2.438230 0.734688 -1.142540
v -2.440114 0.736683 -1.141191
v -2.438195 0.737725 -1.140084
v -2.436721 0.738583 -1.139347
v -2.439983 0.733914 -1.143881
v -2.437925 0.731870 -1.144930
v -2.439066 0.731414 -1.145905
v -2.441278 0.733390 -1.144971
v -2.443295 0.735363 -1.143773
v -2.441946 0.735888 -1.142609
v -2.443906 0.737682 -1.141073
v -2.442057 0.738448 -1.139589
v -2.445259 0.737211 -1.142323
v -2.440099 0.739547 -1.138510
v -2.438587 0.740479 -1.137832
v -2.433313 0.731026 -1.144202
v -2.432369 0.731587 -1.143769
v -2.431983 0.729997 -1.144735
v -2.432312 0.729155 -1.145264
v -2.433161 0.728663 -1.145684
v -2.434535 0.730351 -1.144873
v -2.435680 0.729866 -1.145795
v -2.433934 0.728360 -1.146356
v -2.434901 0.728568 -1.146700
v -2.436520 0.729554 -1.146564
v -2.447190 0.740403 -1.137499
v -2.445839 0.741140 -1.135930
v -2.447188 0.742076 -1.134607
v -2.448155 0.741327 -1.136181
v -2.448328 0.740700 -1.137714
v -2.447982 0.739922 -1.139040
v -2.446936 0.738677 -1.140646
v -2.445733 0.739079 -1.139247
v -2.444000 0.739817 -1.137700
v -2.443921 0.742004 -1.135298
v -2.442273 0.742719 -1.135197
v -2.443715 0.742960 -1.134608
v -2.445329 0.742712 -1.134278
v -2.442029 0.740893 -1.136753
v -2.440465 0.741846 -1.136290
v -2.436421 0.735530 -1.141289
v -2.435003 0.736367 -1.140602
v -2.436724 0.738477 -1.139213
v -2.438210 0.737577 -1.139912
v -2.440146 0.736526 -1.141030
v -2.438270 0.734540 -1.142372
v -2.436424 0.732407 -1.143562
v -2.434783 0.733289 -1.142613
v -2.433522 0.734040 -1.142022
v -2.440038 0.733758 -1.143725
v -2.441994 0.735723 -1.142460
v -2.443339 0.735236 -1.143667
v -2.441327 0.733270 -1.144859
v -2.439119 0.731298 -1.145791
v -2.437986 0.731720 -1.144770
v -2.443947 0.737508 -1.140934
v -2.442079 0.738282 -1.139436
v -2.445299 0.737077 -1.142225
v -2.440102 0.739391 -1.138345
v -2.438581 0.740368 -1.137702
v -2.433343 0.730894 -1.144019
v -2.432383 0.731493 -1.143627
v -2.434582 0.730211 -1.144700
v -2.433197 0.728558 -1.145555
v -2.432334 0.729057 -1.145126
v -2.431996 0.729926 -1.144631
v -2.435744 0.729718 -1.145635
v -2.436576 0.729440 -1.146449
v -2.434941 0.728484 -1.146614
v -2.433983 0.728249 -1.146236
v -2.432059 0.731734 -1.143561
v -2.431621 0.729563 -1.144951
v -2.433096 0.734332 -1.141889
v -2.431996 0.729926 -1.144631
v -2.433374 0.727809 -1.146490
v -2.434545 0.728131 -1.146919
v -2.432719 0.728054 -1.145897
v -2.434941 0.728484 -1.146614
v -2.448228 0.739828 -1.139589
v -2.448573 0.740808 -1.137852
v -2.447318 0.738606 -1.141150
v -2.448328 0.740700 -1.137714
v -2.445806 0.743003 -1.133988
v -2.443624 0.743232 -1.134520
v -2.447637 0.742448 -1.134212
v -2.443715 0.742960 -1.134608
v -2.441738 0.743006 -1.135219
v -2.439954 0.742213 -1.136193
v -2.431988 0.728488 -1.145557
v -2.436826 0.729399 -1.146770
v -2.439471 0.731210 -1.146180
v -2.448467 0.741699 -1.135780
v -2.445729 0.736993 -1.142698
v -2.443766 0.735131 -1.144115
v -2.438078 0.740741 -1.137547
v -2.436229 0.738823 -1.139041
v -2.434528 0.736691 -1.140435
v -2.441732 0.733162 -1.145286
vn 0.174700 0.865000 -0.470400
vn -0.005100 0.812200 -0.583300
vn 0.033200 0.784100 -0.619700
vn 0.195500 0.831000 -0.520800
vn 0.204400 0.815700 -0.541100
vn 0.169000 0.863200 -0.475800
vn 0.142400 0.892600 -0.427700
vn 0.084900 0.895800 -0.436200
vn -0.064900 0.850300 -0.522300
vn -0.158000 0.701900 -0.694400
vn -0.151700 0.706200 -0.691600
vn -0.078700 0.677100 -0.731700
vn -0.102000 0.685200 -0.721200
vn -0.186800 0.762600 -0.619200
vn -0.202100 0.723900 -0.659600
vn 0.108000 0.590300 -0.799900
vn 0.142200 0.600600 -0.786800
vn 0.164000 0.579600 -0.798200
vn 0.121900 0.563900 -0.816800
vn 0.219000 0.605000 -0.765500
vn 0.193200 0.634400 -0.748500
vn 0.140300 0.689700 -0.710300
vn 0.050500 0.633800 -0.771800
vn 0.082500 0.635000 -0.768000
vn 0.275000 0.672100 -0.687500
vn 0.301100 0.651700 -0.696100
vn 0.269700 0.631200 -0.727100
vn 0.252400 0.654600 -0.712600
vn 0.228300 0.706500 -0.669900
vn 0.237900 0.725600 -0.645600
vn 0.208000 0.785200 -0.583200
vn 0.080800 0.745000 -0.662100
vn 0.212100 0.765600 -0.607200
vn -0.028200 0.669500 -0.742200
vn 0.001500 0.662400 -0.749100
vn 0.110100 0.542300 -0.832900
vn 0.158000 0.556400 -0.815700
vn 0.142900 0.530300 -0.835700
vn 0.126500 0.491200 -0.861800
vn 0.264400 0.549500 -0.792600
vn 0.231000 0.590700 -0.773000
vn 0.328600 0.649300 -0.685800
vn 0.378200 0.614600 -0.692300
vn 0.331900 0.622800 -0.708500
vn 0.298100 0.625000 -0.721400
vn -0.210600 -0.858900 0.466800
vn -0.005400 -0.804700 0.593600
vn -0.046100 -0.773900 0.631600
vn -0.315100 -0.835800 0.449600
vn -0.415400 -0.826100 0.380800
vn -0.392400 -0.831400 0.393300
vn -0.343500 -0.827300 0.444500
vn -0.207900 -0.833300 0.512100
vn -0.033100 -0.784100 0.619700
vn 0.163900 -0.675400 0.719000
vn 0.239300 -0.522000 0.818600
vn 0.250300 -0.499900 0.829100
vn 0.183100 -0.591600 0.785100
vn 0.112600 -0.676300 0.727900
vn 0.187400 -0.567200 0.801900
vn -0.094500 -0.583800 0.806300
vn 0.000600 -0.535800 0.844300
vn 0.042500 -0.564300 0.824500
vn -0.038500 -0.627100 0.778000
vn -0.140400 -0.689700 0.710400
vn -0.193300 -0.634200 0.748600
vn -0.219100 -0.604900 0.765600
vn -0.104900 -0.557800 0.823300
vn 0.019100 -0.521300 0.853200
vn -0.286300 -0.677800 0.677200
vn -0.248900 -0.730100 0.636300
vn -0.336900 -0.750100 0.569000
vn -0.361500 -0.713200 0.600500
vn -0.380300 -0.716900 0.584300
vn -0.312900 -0.659700 0.683200
vn -0.219000 -0.788800 0.574200
vn -0.080800 -0.745000 0.662100
vn -0.325500 -0.796600 0.509300
vn 0.039400 -0.662200 0.748300
vn 0.114900 -0.580800 0.805900
vn -0.077700 -0.544300 0.835200
vn 0.083900 -0.514800 0.853100
vn -0.223800 -0.599400 0.768500
vn -0.191300 -0.636400 0.747200
vn 0.023800 -0.556000 0.830800
vn 0.125900 -0.514000 0.848500
vn -0.335200 -0.670400 0.661900
vn -0.395800 -0.749900 0.530100
vn -0.400200 -0.771800 0.494100
vn -0.343200 -0.735900 0.583600
vn 0.963400 0.205100 0.172200
vn 0.989400 -0.105800 -0.098900
vn 0.910500 0.301700 0.282800
vn 0.125900 -0.514000 0.848500
vn 0.409600 -0.749800 -0.519600
vn -0.039200 -0.609700 -0.791700
vn 0.568800 -0.771700 -0.284300
vn -0.400200 -0.771800 0.494100
vn -0.880200 0.075800 -0.468400
vn -0.949500 0.241600 -0.200100
vn -0.800000 -0.072000 -0.595600
vn -0.415400 -0.826100 0.380800
vn -0.176900 0.641400 0.746500
vn 0.190900 0.800400 0.568200
vn -0.637900 0.388300 0.665000
vn 0.250300 -0.499900 0.829100
vn 0.488100 0.746000 0.453000
vn 0.660600 0.643100 0.387300
vn 0.772700 -0.572100 -0.275100
vn -0.430000 -0.477600 -0.766100
vn -0.564100 -0.421100 -0.710200
vn -0.932700 0.271000 0.237800
vn -0.734100 -0.191900 -0.651300
vn -0.695300 -0.268600 -0.666600
vn 0.762400 0.540600 0.355500
vn 0.811800 0.469200 0.347500
vn 0.854400 0.395100 0.337500
vn -0.651900 -0.342600 -0.676400
vt 0.839504 0.118056
vt 0.856743 0.205307
vt 0.741230 0.205307
vt 0.734555 0.106726
vt 0.724541 0.032791
vt 0.813647 0.052618
vt 0.868992 0.081539
vt 0.913398 0.129584
vt 0.940923 0.205307
vt 0.839504 0.292557
vt 0.813647 0.357995
vt 0.724541 0.377822
vt 0.734555 0.303887
vt 0.913398 0.281029
vt 0.868992 0.329074
vt 0.369475 0.299954
vt 0.368286 0.370940
vt 0.245840 0.351447
vt 0.246397 0.288815
vt 0.246768 0.205307
vt 0.370268 0.205307
vt 0.494283 0.205307
vt 0.492822 0.304944
vt 0.490632 0.379672
vt 0.369475 0.110659
vt 0.246397 0.121798
vt 0.245841 0.059166
vt 0.368286 0.039673
vt 0.490632 0.030941
vt 0.492822 0.105669
vt 0.616755 0.103478
vt 0.619174 0.205307
vt 0.613127 0.027106
vt 0.616755 0.307135
vt 0.613126 0.383507
vt 0.123273 0.268175
vt 0.123047 0.315326
vt 0.054743 0.283353
vt 0.030912 0.249131
vt 0.030973 0.205306
vt 0.123423 0.205306
vt 0.123273 0.142438
vt 0.030912 0.161481
vt 0.054744 0.127260
vt 0.123047 0.095287
vt 0.839504 0.118056
vt 0.856743 0.205307
vt 0.968983 0.205307
vt 0.938030 0.133427
vt 0.876123 0.061548
vt 0.805028 0.030806
vt 0.721203 0.008146
vt 0.734555 0.106726
vt 0.741230 0.205307
vt 0.839504 0.292557
vt 0.805028 0.379807
vt 0.876123 0.349065
vt 0.938030 0.277186
vt 0.734555 0.303887
vt 0.721203 0.402467
vt 0.369475 0.299954
vt 0.367890 0.394602
vt 0.489902 0.404581
vt 0.492822 0.304944
vt 0.494283 0.205307
vt 0.370268 0.205307
vt 0.246768 0.205307
vt 0.246397 0.288815
vt 0.245655 0.372324
vt 0.369475 0.110659
vt 0.492822 0.105669
vt 0.489902 0.006032
vt 0.367890 0.016011
vt 0.245655 0.038289
vt 0.246397 0.121798
vt 0.616755 0.103478
vt 0.619174 0.205307
vt 0.611917 0.001649
vt 0.616755 0.307135
vt 0.611917 0.408964
vt 0.123273 0.268175
vt 0.122972 0.331043
vt 0.123423 0.205306
vt 0.000156 0.205306
vt 0.000125 0.242784
vt 0.000064 0.280261
vt 0.123273 0.142438
vt 0.122972 0.079570
vt 0.000064 0.130352
vt 0.000125 0.167829
vt 0.122972 0.331043
vt 0.030806 0.283587
vt 0.245655 0.372324
vt 0.030806 0.283587
vt 0.000125 0.167829
vt 0.030806 0.127026
vt 0.000156 0.205306
vt 0.030806 0.127026
vt 0.805028 0.030806
vt 0.873826 0.071832
vt 0.721203 0.008146
vt 0.873826 0.071832
vt 0.938030 0.277186
vt 0.873826 0.338781
vt 0.968983 0.205307
vt 0.873826 0.338781
vt 0.805028 0.379807
vt 0.721203 0.402467
vt 0.000125 0.242784
vt 0.122972 0.079570
vt 0.245655 0.038289
vt 0.938030 0.133427
vt 0.611917 0.001649
vt 0.489902 0.006032
vt 0.611917 0.408964
vt 0.489902 0.404581
vt 0.367890 0.394602
vt 0.367890 0.016011
f 1/1/1 2/2/2 3/3/3
f 1/1/1 3/3/3 4/4/4
f 1/1/1 4/4/4 5/5/5
f 1/1/1 5/5/5 6/6/6
f 1/1/1 6/6/6 7/7/7
f 1/1/1 7/7/7 8/8/8
f 1/1/1 8/8/8 9/9/9
f 1/1/1 9/9/9 2/2/2
f 10/10/10 11/11/11 12/12/12
f 10/10/10 12/12/12 13/13/13
f 10/10/10 13/13/13 3/3/3
f 10/10/10 3/3/3 2/2/2
f 10/10/10 2/2/2 9/9/9
f 10/10/10 9/9/9 14/14/14
f 10/10/10 14/14/14 15/15/15
f 10/10/10 15/15/15 11/11/11
f 16/16/16 17/17/17 18/18/18
f 16/16/16 18/18/18 19/19/19
f 16/16/16 19/19/19 20/20/20
f 16/16/16 20/20/20 21/21/21
f 16/16/16 21/21/21 22/22/22
f 16/16/16 22/22/22 23/23/23
f 16/16/16 23/23/23 24/24/24
f 16/16/16 24/24/24 17/17/17
f 25/25/25 21/21/21 20/20/20
f 25/25/25 20/20/20 26/26/26
f 25/25/25 26/26/26 27/27/27
f 25/25/25 27/27/27 28/28/28
f 25/25/25 28/28/28 29/29/29
f 25/25/25 29/29/29 30/30/30
f 25/25/25 30/30/30 22/22/22
f 25/25/25 22/22/22 21/21/21
f 31/31/31 32/32/32 22/22/22
f 31/31/31 22/22/22 30/30/30
f 31/31/31 30/30/30 29/29/29
f 31/31/31 29/29/29 33/33/33
f 31/31/31 33/33/33 5/5/5
f 31/31/31 5/5/5 4/4/4
f 31/31/31 4/4/4 3/3/3
f 31/31/31 3/3/3 32/32/32
f 34/34/34 35/35/35 24/24/24
f 34/34/34 24/24/24 23/23/23
f 34/34/34 23/23/23 22/22/22
f 34/34/34 22/22/22 32/32/32
f 34/34/34 32/32/32 3/3/3
f 34/34/34 3/3/3 13/13/13
f 34/34/34 13/13/13 12/12/12
f 34/34/34 12/12/12 35/35/35
f 36/36/36 37/37/37 38/38/38
f 36/36/36 38/38/38 39/39/39
f 36/36/36 39/39/39 40/40/40
f 36/36/36 40/40/40 41/41/41
f 36/36/36 41/41/41 20/20/20
f 36/36/36 20/20/20 19/19/19
f 36/36/36 19/19/19 18/18/18
f 36/36/36 18/18/18 37/37/37
f 42/42/42 41/41/41 40/40/40
f 42/42/42 40/40/40 43/43/43
f 42/42/42 43/43/43 44/44/44
f 42/42/42 44/44/44 45/45/45
f 42/42/42 45/45/45 27/27/27
f 42/42/42 27/27/27 26/26/26
f 42/42/42 26/26/26 20/20/20
f 42/42/42 20/20/20 41/41/41
f 46/46/46 47/47/47 48/48/48
f 46/46/46 48/48/48 49/49/49
f 46/46/46 49/49/49 50/50/50
f 46/46/46 50/50/50 51/51/51
f 46/46/46 51/51/51 52/52/52
f 46/46/46 52/52/52 53/53/53
f 46/46/46 53/53/53 54/54/54
f 46/46/46 54/54/54 47/47/47
f 55/55/55 56/56/56 57/57/57
f 55/55/55 57/57/57 58/58/58
f 55/55/55 58/58/58 48/48/48
f 55/55/55 48/48/48 47/47/47
f 55/55/55 47/47/47 54/54/54
f 55/55/55 54/54/54 59/59/59
f 55/55/55 59/59/59 60/60/60
f 55/55/55 60/60/60 56/56/56
f 61/61/61 62/62/62 63/63/63
f 61/61/61 63/63/63 64/64/64
f 61/61/61 64/64/64 65/65/65
f 61/61/61 65/65/65 66/66/66
f 61/61/61 66/66/66 67/67/67
f 61/61/61 67/67/67 68/68/68
f 61/61/61 68/68/68 69/69/69
f 61/61/61 69/69/69 62/62/62
f 70/70/70 66/66/66 65/65/65
f 70/70/70 65/65/65 71/71/71
f 70/70/70 71/71/71 72/72/72
f 70/70/70 72/72/72 73/73/73
f 70/70/70 73/73/73 74/74/74
f 70/70/70 74/74/74 75/75/75
f 70/70/70 75/75/75 67/67/67
f 70/70/70 67/67/67 66/66/66
f 76/76/76 77/77/77 54/54/54
f 76/76/76 54/54/54 53/53/53
f 76/76/76 53/53/53 52/52/52
f 76/76/76 52/52/52 78/78/78
f 76/76/76 78/78/78 72/72/72
f 76/76/76 72/72/72 71/71/71
f 76/76/76 71/71/71 65/65/65
f 76/76/76 65/65/65 77/77/77
f 79/79/79 80/80/80 60/60/60
f 79/79/79 60/60/60 59/59/59
f 79/79/79 59/59/59 54/54/54
f 79/79/79 54/54/54 77/77/77
f 79/79/79 77/77/77 65/65/65
f 79/79/79 65/65/65 64/64/64
f 79/79/79 64/64/64 63/63/63
f 79/79/79 63/63/63 80/80/80
f 81/81/81 82/82/82 69/69/69
f 81/81/81 69/69/69 68/68/68
f 81/81/81 68/68/68 67/67/67
f 81/81/81 67/67/67 83/83/83
f 81/81/81 83/83/83 84/84/84
f 81/81/81 84/84/84 85/85/85
f 81/81/81 85/85/85 86/86/86
f 81/81/81 86/86/86 82/82/82
f 87/87/87 83/83/83 67/67/67
f 87/87/87 67/67/67 75/75/75
f 87/87/87 75/75/75 74/74/74
f 87/87/87 74/74/74 88/88/88
f 87/87/87 88/88/88 89/89/89
f 87/87/87 89/89/89 90/90/90
f 87/87/87 90/90/90 84/84/84
f 87/87/87 84/84/84 83/83/83
f 91/91/91 92/92/92 38/38/38
f 91/91/91 38/38/38 37/37/37
f 91/91/91 37/37/37 18/18/18
f 91/91/91 18/18/18 93/93/93
f 91/91/91 93/93/93 69/69/69
f 91/91/91 69/69/69 82/82/82
f 91/91/91 82/82/82 94/94/94
f 91/91/91 94/94/94 92/92/92
f 95/95/95 96/96/96 44/44/44
f 95/95/95 44/44/44 43/43/43
f 95/95/95 43/43/43 40/40/40
f 95/95/95 40/40/40 97/97/97
f 95/95/95 97/97/97 84/84/84
f 95/95/95 84/84/84 90/90/90
f 95/95/95 90/90/90 98/98/98
f 95/95/95 98/98/98 96/96/96
f 99/99/99 100/100/100 7/7/7
f 99/99/99 7/7/7 6/6/6
f 99/99/99 6/6/6 5/5/5
f 99/99/99 5/5/5 101/101/101
f 99/99/99 101/101/101 52/52/52
f 99/99/99 52/52/52 51/51/51
f 99/99/99 51/51/51 102/102/102
f 99/99/99 102/102/102 100/100/100
f 103/103/103 104/104/104 15/15/15
f 103/103/103 15/15/15 14/14/14
f 103/103/103 14/14/14 9/9/9
f 103/103/103 9/9/9 105/105/105
f 103/103/103 105/105/105 48/48/48
f 103/103/103 48/48/48 58/58/58
f 103/103/103 58/58/58 106/106/106
f 103/103/103 106/106/106 104/104/104
f 107/107/107 108/108/108 12/12/12
f 107/107/107 12/12/12 11/11/11
f 107/107/107 11/11/11 15/15/15
f 107/107/107 15/15/15 104/104/104
f 107/107/107 104/104/104 106/106/106
f 107/107/107 106/106/106 56/56/56
f 107/107/107 56/56/56 60/60/60
f 107/107/107 60/60/60 108/108/108
f 109/109/109 97/97/97 40/40/40
f 109/109/109 40/40/40 39/39/39
f 109/109/109 39/39/39 38/38/38
f 109/109/109 38/38/38 92/92/92
f 109/109/109 92/92/92 94/94/94
f 109/109/109 94/94/94 85/85/85
f 109/109/109 85/85/85 84/84/84
f 109/109/109 84/84/84 97/97/97
f 110/110/110 111/111/111 27/27/27
f 110/110/110 27/27/27 45/45/45
f 110/110/110 45/45/45 44/44/44
f 110/110/110 44/44/44 96/96/96
f 110/110/110 96/96/96 98/98/98
f 110/110/110 98/98/98 88/88/88
f 110/110/110 88/88/88 74/74/74
f 110/110/110 74/74/74 111/111/111
f 112/112/112 105/105/105 9/9/9
f 112/112/112 9/9/9 8/8/8
f 112/112/112 8/8/8 7/7/7
f 112/112/112 7/7/7 100/100/100
f 112/112/112 100/100/100 102/102/102
f 112/112/112 102/102/102 49/49/49
f 112/112/112 49/49/49 48/48/48
f 112/112/112 48/48/48 105/105/105
f 113/113/113 101/101/101 5/5/5
f 113/113/113 5/5/5 33/33/33
f 113/113/113 33/33/33 29/29/29
f 113/113/113 29/29/29 114/114/114
f 113/113/113 114/114/114 72/72/72
f 113/113/113 72/72/72 78/78/78
f 113/113/113 78/78/78 52/52/52
f 113/113/113 52/52/52 101/101/101
f 115/115/115 116/116/116 24/24/24
f 115/115/115 24/24/24 35/35/35
f 115/115/115 35/35/35 12/12/12
f 115/115/115 12/12/12 108/108/108
f 115/115/115 108/108/108 60/60/60
f 115/115/115 60/60/60 80/80/80
f 115/115/115 80/80/80 63/63/63
f 115/115/115 63/63/63 116/116/116
f 117/117/117 93/93/93 18/18/18
f 117/117/117 18/18/18 17/17/17
f 117/117/117 17/17/17 24/24/24
f 117/117/117 24/24/24 116/116/116
f 117/117/117 116/116/116 63/63/63
f 117/117/117 63/63/63 62/62/62
f 117/117/117 62/62/62 69/69/69
f 117/117/117 69/69/69 93/93/93
f 118/118/118 114/114/114 29/29/29
f 118/118/118 29/29/29 28/28/28
f 118/118/118 28/28/28 27/27/27
f 118/118/118 27/27/27 111/111/111
f 118/118/118 111/111/111 74/74/74
f 118/118/118 74/74/74 73/73/73
f 118/118/118 73/73/73 72/72/72
f 118/118/118 72/72/72 114/114/114
