v -2.451725 0.765466 -1.117339
v -2.453817 0.765393 -1.116331
v -2.452097 0.763784 -1.114326
v -2.449930 0.763988 -1.115719
v -2.448145 0.764256 -1.116585
v -2.449874 0.765537 -1.117776
v -2.451354 0.766122 -1.118353
v -2.453102 0.766407 -1.118480
v -2.455114 0.766481 -1.117842
v -2.455149 0.765432 -1.114426
v -2.455879 0.765477 -1.112669
v -2.454966 0.764189 -1.110784
v -2.453821 0.763950 -1.112409
v -2.456065 0.766377 -1.115960
v -2.456217 0.766073 -1.114217
v -2.449042 0.757538 -1.106944
v -2.450348 0.757677 -1.105572
v -2.448595 0.755130 -1.104323
v -2.447448 0.754999 -1.105546
v -2.445852 0.754907 -1.107088
v -2.447230 0.757441 -1.108678
v -2.448711 0.759812 -1.110392
v -2.450597 0.759931 -1.108566
v -2.451947 0.760103 -1.107113
v -2.445229 0.757576 -1.110187
v -2.444076 0.755032 -1.108414
v -2.442686 0.755188 -1.109349
v -2.443667 0.757744 -1.111255
v -2.444958 0.760172 -1.113057
v -2.446608 0.759971 -1.111959
v -2.448200 0.762132 -1.113864
v -2.450364 0.761925 -1.112311
v -2.446479 0.762405 -1.114923
v -2.452247 0.762092 -1.110422
v -2.453571 0.762335 -1.108891
v -2.445680 0.752399 -1.104365
v -2.446509 0.752529 -1.103418
v -2.445166 0.751015 -1.103182
v -2.444306 0.750407 -1.103576
v -2.443533 0.750310 -1.104415
v -2.444511 0.752305 -1.105541
v -2.443163 0.752424 -1.106505
v -2.442582 0.750424 -1.105042
v -2.442063 0.751045 -1.105821
v -2.442097 0.752573 -1.107171
v -2.451784 0.765265 -1.117463
v -2.453903 0.765191 -1.116434
v -2.455176 0.766328 -1.117917
v -2.453143 0.766255 -1.118572
v -2.451379 0.766011 -1.118425
v -2.449905 0.765389 -1.117880
v -2.448184 0.764112 -1.116691
v -2.449997 0.763793 -1.115847
v -2.452188 0.763586 -1.114435
v -2.455259 0.765231 -1.114507
v -2.455974 0.765329 -1.112718
v -2.456283 0.765962 -1.114255
v -2.456148 0.766225 -1.116016
v -2.453935 0.763754 -1.112499
v -2.455062 0.764044 -1.110840
v -2.449172 0.757371 -1.107065
v -2.450454 0.757553 -1.105656
v -2.452049 0.759971 -1.107189
v -2.450721 0.759755 -1.108679
v -2.448818 0.759635 -1.110520
v -2.447344 0.757273 -1.108814
v -2.445971 0.754746 -1.107229
v -2.447582 0.754839 -1.105673
v -2.448704 0.755010 -1.104410
v -2.445326 0.757409 -1.110337
v -2.446697 0.759794 -1.112101
v -2.445016 0.760041 -1.113171
v -2.443731 0.757619 -1.111373
v -2.442753 0.755069 -1.109472
v -2.444177 0.754873 -1.108569
v -2.448278 0.761946 -1.113999
v -2.450463 0.761737 -1.112429
v -2.446527 0.762267 -1.115032
v -2.452365 0.761905 -1.110523
v -2.453669 0.762196 -1.108957
v -2.445817 0.752242 -1.104492
v -2.446621 0.752412 -1.103505
v -2.444631 0.752148 -1.105684
v -2.443623 0.750192 -1.104522
v -2.444410 0.750289 -1.103671
v -2.445246 0.750928 -1.103249
v -2.443265 0.752267 -1.106663
v -2.442164 0.752456 -1.107296
v -2.442115 0.750959 -1.105912
v -2.442658 0.750307 -1.105161
v -2.446837 0.752520 -1.103139
v -2.444910 0.750500 -1.102882
v -2.449028 0.755120 -1.103953
v -2.445246 0.750928 -1.103249
v -2.442422 0.749705 -1.104608
v -2.441801 0.750531 -1.105526
v -2.443247 0.749592 -1.104087
v -2.442115 0.750959 -1.105912
v -2.449268 0.765496 -1.117970
v -2.451213 0.766233 -1.118590
v -2.447564 0.764282 -1.116923
v -2.451379 0.766011 -1.118425
v -2.456407 0.766624 -1.116495
v -2.456474 0.766181 -1.114115
v -2.455573 0.766775 -1.118379
v -2.456283 0.765962 -1.114255
v -2.456167 0.765427 -1.112103
v -2.455393 0.764204 -1.110265
v -2.443895 0.749690 -1.103355
v -2.441769 0.752571 -1.107449
v -2.442251 0.755188 -1.109717
v -2.453578 0.766652 -1.118901
v -2.445924 0.762435 -1.115326
v -2.444432 0.760181 -1.113475
v -2.454058 0.762354 -1.108408
v -2.452444 0.760101 -1.106660
v -2.450832 0.757669 -1.105151
v -2.443173 0.757745 -1.111665
vn 0.161100 0.830400 0.533200
vn 0.322000 0.863300 0.388700
vn 0.355100 0.831500 0.427200
vn 0.212900 0.801800 0.558400
vn 0.233900 0.788700 0.568600
vn 0.167900 0.831800 0.529100
vn 0.120900 0.858600 0.498100
vn 0.141100 0.882300 0.449000
vn 0.268100 0.906600 0.325800
vn 0.490900 0.833700 0.252700
vn 0.485600 0.835000 0.258700
vn 0.514600 0.791400 0.329900
vn 0.507700 0.804700 0.307600
vn 0.410300 0.885000 0.219900
vn 0.462200 0.862100 0.207700
vn 0.559800 0.662100 0.498200
vn 0.536900 0.657800 0.528200
vn 0.548400 0.633300 0.546100
vn 0.579600 0.636400 0.508900
vn 0.498300 0.632200 0.593300
vn 0.480200 0.664600 0.572400
vn 0.441300 0.726100 0.527300
vn 0.534600 0.716100 0.448700
vn 0.523400 0.705900 0.477200
vn 0.394200 0.660500 0.639000
vn 0.402000 0.634700 0.660000
vn 0.443600 0.632300 0.635100
vn 0.427600 0.656700 0.621100
vn 0.378900 0.704500 0.600100
vn 0.348800 0.714300 0.606700
vn 0.280800 0.767400 0.576400
vn 0.394500 0.787700 0.473000
vn 0.307700 0.752500 0.582300
vn 0.515000 0.769600 0.377200
vn 0.516600 0.754500 0.404700
vn 0.603300 0.623500 0.497200
vn 0.572600 0.617200 0.539600
vn 0.601900 0.602000 0.524700
vn 0.640700 0.576500 0.507100
vn 0.528600 0.570900 0.628100
vn 0.506600 0.616500 0.602700
vn 0.386700 0.621400 0.681400
vn 0.391100 0.574000 0.719400
vn 0.414300 0.600200 0.684100
vn 0.433500 0.615900 0.657800
vn -0.151200 -0.812200 -0.563400
vn -0.331200 -0.854800 -0.399400
vn -0.366000 -0.820100 -0.439900
vn -0.117800 -0.752700 -0.647700
vn -0.033400 -0.697200 -0.716100
vn -0.048800 -0.712300 -0.700200
vn -0.108900 -0.734500 -0.669800
vn -0.201200 -0.798200 -0.567800
vn -0.355000 -0.831600 -0.427100
vn -0.522500 -0.815900 -0.247700
vn -0.674900 -0.718600 -0.167600
vn -0.693100 -0.704000 -0.154800
vn -0.611500 -0.757800 -0.227500
vn -0.518900 -0.801300 -0.297600
vn -0.635200 -0.739700 -0.222300
vn -0.570600 -0.661900 -0.486000
vn -0.640900 -0.656600 -0.397600
vn -0.624000 -0.693000 -0.360900
vn -0.544900 -0.715100 -0.437800
vn -0.441300 -0.726000 -0.527400
vn -0.480300 -0.664500 -0.572500
vn -0.498400 -0.632100 -0.593300
vn -0.591200 -0.637700 -0.493700
vn -0.657400 -0.651000 -0.379500
vn -0.380500 -0.660100 -0.647700
vn -0.336400 -0.713000 -0.615100
vn -0.248100 -0.689300 -0.680700
vn -0.282000 -0.653000 -0.702900
vn -0.261500 -0.647100 -0.716100
vn -0.385100 -0.635700 -0.669000
vn -0.269000 -0.765300 -0.584800
vn -0.394500 -0.787700 -0.473000
vn -0.182000 -0.724600 -0.664700
vn -0.525200 -0.767800 -0.366800
vn -0.618600 -0.728800 -0.293400
vn -0.612300 -0.636600 -0.468800
vn -0.674000 -0.666600 -0.318300
vn -0.501600 -0.626000 -0.597000
vn -0.479000 -0.666800 -0.570800
vn -0.628000 -0.680400 -0.377700
vn -0.679500 -0.678900 -0.278100
vn -0.357200 -0.634000 -0.685900
vn -0.198400 -0.661900 -0.722800
vn -0.157700 -0.673800 -0.721900
vn -0.264100 -0.676800 -0.687100
vn -0.436200 -0.164500 0.884600
vn -0.103500 -0.408000 0.907100
vn -0.554300 -0.079200 0.828500
vn -0.679500 -0.678900 -0.278100
vn 0.598600 -0.729400 0.331100
vn 0.916500 -0.398100 0.039700
vn 0.348700 -0.847600 0.399900
vn -0.157700 -0.673800 -0.721900
vn 0.616700 0.452900 -0.643800
vn 0.335900 0.577700 -0.743900
vn 0.758200 0.314000 -0.571400
vn -0.033400 -0.697200 -0.716100
vn -0.834100 0.507800 -0.215400
vn -0.795000 0.566100 0.217700
vn -0.583200 0.443700 -0.680400
vn -0.693100 -0.704000 -0.154800
vn -0.739600 0.439200 0.509900
vn -0.689200 0.299500 0.659800
vn 0.239000 -0.732900 0.637000
vn 0.945100 -0.151200 -0.289700
vn 0.907700 -0.064600 -0.414700
vn -0.084900 0.515500 -0.852700
vn 0.828300 0.191800 -0.526400
vn 0.854900 0.111000 -0.506800
vn -0.654700 0.177200 0.734800
vn -0.638700 0.096400 0.763300
vn -0.618500 0.015500 0.785600
vn 0.874400 0.030500 -0.484200
vt 0.839504 0.118056
vt 0.856743 0.205307
vt 0.741230 0.205307
vt 0.734555 0.106726
vt 0.724541 0.032791
vt 0.813647 0.052618
vt 0.868992 0.081539
vt 0.913398 0.129584
vt 0.940923 0.205307
vt 0.839504 0.292557
vt 0.813647 0.357995
vt 0.724541 0.377822
vt 0.734555 0.303887
vt 0.913398 0.281029
vt 0.868992 0.329074
vt 0.369475 0.299954
vt 0.368286 0.370940
vt 0.245840 0.351447
vt 0.246397 0.288815
vt 0.246768 0.205307
vt 0.370268 0.205307
vt 0.494283 0.205307
vt 0.492822 0.304944
vt 0.490632 0.379672
vt 0.369475 0.110659
vt 0.246397 0.121798
vt 0.245841 0.059166
vt 0.368286 0.039673
vt 0.490632 0.030941
vt 0.492822 0.105669
vt 0.616755 0.103478
vt 0.619174 0.205307
vt 0.613127 0.027106
vt 0.616755 0.307135
vt 0.613126 0.383507
vt 0.123273 0.268175
vt 0.123047 0.315326
vt 0.054743 0.283353
vt 0.030912 0.249131
vt 0.030973 0.205306
vt 0.123423 0.205306
vt 0.123273 0.142438
vt 0.030912 0.161481
vt 0.054744 0.127260
vt 0.123047 0.095287
vt 0.839504 0.118056
vt 0.856743 0.205307
vt 0.968983 0.205307
vt 0.938030 0.133427
vt 0.876123 0.061548
vt 0.805028 0.030806
vt 0.721203 0.008146
vt 0.734555 0.106726
vt 0.741230 0.205307
vt 0.839504 0.292557
vt 0.805028 0.379807
vt 0.876123 0.349065
vt 0.938030 0.277186
vt 0.734555 0.303887
vt 0.721203 0.402467
vt 0.369475 0.299954
vt 0.367890 0.394602
vt 0.489902 0.404581
vt 0.492822 0.304944
vt 0.494283 0.205307
vt 0.370268 0.205307
vt 0.246768 0.205307
vt 0.246397 0.288815
vt 0.245655 0.372324
vt 0.369475 0.110659
vt 0.492822 0.105669
vt 0.489902 0.006032
vt 0.367890 0.016011
vt 0.245655 0.038289
vt 0.246397 0.121798
vt 0.616755 0.103478
vt 0.619174 0.205307
vt 0.611917 0.001649
vt 0.616755 0.307135
vt 0.611917 0.408964
vt 0.123273 0.268175
vt 0.122972 0.331043
vt 0.123423 0.205306
vt 0.000156 0.205306
vt 0.000125 0.242784
vt 0.000064 0.280261
vt 0.123273 0.142438
vt 0.122972 0.079570
vt 0.000064 0.130352
vt 0.000125 0.167829
vt 0.122972 0.331043
vt 0.030806 0.283587
vt 0.245655 0.372324
vt 0.030806 0.283587
vt 0.000125 0.167829
vt 0.030806 0.127026
vt 0.000156 0.205306
vt 0.030806 0.127026
vt 0.805028 0.030806
vt 0.873826 0.071832
vt 0.721203 0.008146
vt 0.873826 0.071832
vt 0.938030 0.277186
vt 0.873826 0.338781
vt 0.968983 0.205307
vt 0.873826 0.338781
vt 0.805028 0.379807
vt 0.721203 0.402467
vt 0.000125 0.242784
vt 0.122972 0.079570
vt 0.245655 0.038289
vt 0.938030 0.133427
vt 0.611917 0.001649
vt 0.489902 0.006032
vt 0.611917 0.408964
vt 0.489902 0.404581
vt 0.367890 0.394602
vt 0.367890 0.016011
f 1/1/1 2/2/2 3/3/3
f 1/1/1 3/3/3 4/4/4
f 1/1/1 4/4/4 5/5/5
f 1/1/1 5/5/5 6/6/6
f 1/1/1 6/6/6 7/7/7
f 1/1/1 7/7/7 8/8/8
f 1/1/1 8/8/8 9/9/9
f 1/1/1 9/9/9 2/2/2
f 10/10/10 11/11/11 12/12/12
f 10/10/10 12/12/12 13/13/13
f 10/10/10 13/13/13 3/3/3
f 10/10/10 3/3/3 2/2/2
f 10/10/10 2/2/2 9/9/9
f 10/10/10 9/9/9 14/14/14
f 10/10/10 14/14/14 15/15/15
f 10/10/10 15/15/15 11/11/11
f 16/16/16 17/17/17 18/18/18
f 16/16/16 18/18/18 19/19/19
f 16/16/16 19/19/19 20/20/20
f 16/16/16 20/20/20 21/21/21
f 16/16/16 21/21/21 22/22/22
f 16/16/16 22/22/22 23/23/23
f 16/16/16 23/23/23 24/24/24
f 16/16/16 24/24/24 17/17/17
f 25/25/25 21/21/21 20/20/20
f 25/25/25 20/20/20 26/26/26
f 25/25/25 26/26/26 27/27/27
f 25/25/25 27/27/27 28/28/28
f 25/25/25 28/28/28 29/29/29
f 25/25/25 29/29/29 30/30/30
f 25/25/25 30/30/30 22/22/22
f 25/25/25 22/22/22 21/21/21
f 31/31/31 32/32/32 22/22/22
f 31/31/31 22/22/22 30/30/30
f 31/31/31 30/30/30 29/29/29
f 31/31/31 29/29/29 33/33/33
f 31/31/31 33/33/33 5/5/5
f 31/31/31 5/5/5 4/4/4
f 31/31/31 4/4/4 3/3/3
f 31/31/31 3/3/3 32/32/32
f 34/34/34 35/35/35 24/24/24
f 34/34/34 24/24/24 23/23/23
f 34/34/34 23/23/23 22/22/22
f 34/34/34 22/22/22 32/32/32
f 34/34/34 32/32/32 3/3/3
f 34/34/34 3/3/3 13/13/13
f 34/34/34 13/13/13 12/12/12
f 34/34/34 12/12/12 35/35/35
f 36/36/36 37/37/37 38/38/38
f 36/36/36 38/38/38 39/39/39
f 36/36/36 39/39/39 40/40/40
f 36/36/36 40/40/40 41/41/41
f 36/36/36 41/41/41 20/20/20
f 36/36/36 20/20/20 19/19/19
f 36/36/36 19/19/19 18/18/18
f 36/36/36 18/18/18 37/37/37
f 42/42/42 41/41/41 40/40/40
f 42/42/42 40/40/40 43/43/43
f 42/42/42 43/43/43 44/44/44
f 42/42/42 44/44/44 45/45/45
f 42/42/42 45/45/45 27/27/27
f 42/42/42 27/27/27 26/26/26
f 42/42/42 26/26/26 20/20/20
f 42/42/42 20/20/20 41/41/41
f 46/46/46 47/47/47 48/48/48
f 46/46/46 48/48/48 49/49/49
f 46/46/46 49/49/49 50/50/50
f 46/46/46 50/50/50 51/51/51
f 46/46/46 51/51/51 52/52/52
f 46/46/46 52/52/52 53/53/53
f 46/46/46 53/53/53 54/54/54
f 46/46/46 54/54/54 47/47/47
f 55/55/55 56/56/56 57/57/57
f 55/55/55 57/57/57 58/58/58
f 55/55/55 58/58/58 48/48/48
f 55/55/55 48/48/48 47/47/47
f 55/55/55 47/47/47 54/54/54
f 55/55/55 54/54/54 59/59/59
f 55/55/55 59/59/59 60/60/60
f 55/55/55 60/60/60 56/56/56
f 61/61/61 62/62/62 63/63/63
f 61/61/61 63/63/63 64/64/64
f 61/61/61 64/64/64 65/65/65
f 61/61/61 65/65/65 66/66/66
f 61/61/61 66/66/66 67/67/67
f 61/61/61 67/67/67 68/68/68
f 61/61/61 68/68/68 69/69/69
f 61/61/61 69/69/69 62/62/62
f 70/70/70 66/66/66 65/65/65
f 70/70/70 65/65/65 71/71/71
f 70/70/70 71/71/71 72/72/72
f 70/70/70 72/72/72 73/73/73
f 70/70/70 73/73/73 74/74/74
f 70/70/70 74/74/74 75/75/75
f 70/70/70 75/75/75 67/67/67
f 70/70/70 67/67/67 66/66/66
f 76/76/76 77/77/77 54/54/54
f 76/76/76 54/54/54 53/53/53
f 76/76/76 53/53/53 52/52/52
f 76/76/76 52/52/52 78/78/78
f 76/76/76 78/78/78 72/72/72
f 76/76/76 72/72/72 71/71/71
f 76/76/76 71/71/71 65/65/65
f 76/76/76 65/65/65 77/77/77
f 79/79/79 80/80/80 60/60/60
f 79/79/79 60/60/60 59/59/59
f 79/79/79 59/59/59 54/54/54
f 79/79/79 54/54/54 77/77/77
f 79/79/79 77/77/77 65/65/65
f 79/79/79 65/65/65 64/64/64
f 79/79/79 64/64/64 63/63/63
f 79/79/79 63/63/63 80/80/80
f 81/81/81 82/82/82 69/69/69
f 81/81/81 69/69/69 68/68/68
f 81/81/81 68/68/68 67/67/67
f 81/81/81 67/67/67 83/83/83
f 81/81/81 83/83/83 84/84/84
f 81/81/81 84/84/84 85/85/85
f 81/81/81 85/85/85 86/86/86
f 81/81/81 86/86/86 82/82/82
f 87/87/87 83/83/83 67/67/67
f 87/87/87 67/67/67 75/75/75
f 87/87/87 75/75/75 74/74/74
f 87/87/87 74/74/74 88/88/88
f 87/87/87 88/88/88 89/89/89
f 87/87/87 89/89/89 90/90/90
f 87/87/87 90/90/90 84/84/84
f 87/87/87 84/84/84 83/83/83
f 91/91/91 92/92/92 38/38/38
f 91/91/91 38/38/38 37/37/37
f 91/91/91 37/37/37 18/18/18
f 91/91/91 18/18/18 93/93/93
f 91/91/91 93/93/93 69/69/69
f 91/91/91 69/69/69 82/82/82
f 91/91/91 82/82/82 94/94/94
f 91/91/91 94/94/94 92/92/92
f 95/95/95 96/96/96 44/44/44
f 95/95/95 44/44/44 43/43/43
f 95/95/95 43/43/43 40/40/40
f 95/95/95 40/40/40 97/97/97
f 95/95/95 97/97/97 84/84/84
f 95/95/95 84/84/84 90/90/90
f 95/95/95 90/90/90 98/98/98
f 95/95/95 98/98/98 96/96/96
f 99/99/99 100/100/100 7/7/7
f 99/99/99 7/7/7 6/6/6
f 99/99/99 6/6/6 5/5/5
f 99/99/99 5/5/5 101/101/101
f 99/99/99 101/101/101 52/52/52
f 99/99/99 52/52/52 51/51/51
f 99/99/99 51/51/51 102/102/102
f 99/99/99 102/102/102 100/100/100
f 103/103/103 104/104/104 15/15/15
f 103/103/103 15/15/15 14/14/14
f 103/103/103 14/14/14 9/9/9
f 103/103/103 9/9/9 105/105/105
f 103/103/103 105/105/105 48/48/48
f 103/103/103 48/48/48 58/58/58
f 103/103/103 58/58/58 106/106/106
f 103/103/103 106/106/106 104/104/104
f 107/107/107 108/108/108 12/12/12
f 107/107/107 12/12/12 11/11/11
f 107/107/107 11/11/11 15/15/15
f 107/107/107 15/15/15 104/104/104
f 107/107/107 104/104/104 106/106/106
f 107/107/107 106/106/106 56/56/56
f 107/107/107 56/56/56 60/60/60
f 107/107/107 60/60/60 108/108/108
f 109/109/109 97/97/97 40/40/40
f 109/109/109 40/40/40 39/39/39
f 109/109/109 39/39/39 38/38/38
f 109/109/109 38/38/38 92/92/92
f 109/109/109 92/92/92 94/94/94
f 109/109/109 94/94/94 85/85/85
f 109/109/109 85/85/85 84/84/84
f 109/109/109 84/84/84 97/97/97
f 110/110/110 111/111/111 27/27/27
f 110/110/110 27/27/27 45/45/45
f 110/110/110 45/45/45 44/44/44
f 110/110/110 44/44/44 96/96/96
f 110/110/110 96/96/96 98/98/98
f 110/110/110 98/98/98 88/88/88
f 110/110/110 88/88/88 74/74/74
f 110/110/110 74/74/74 111/111/111
f 112/112/112 105/105/105 9/9/9
f 112/112/112 9/9/9 8/8/8
f 112/112/112 8/8/8 7/7/7
f 112/112/112 7/7/7 100/100/100
f 112/112/112 100/100/100 102/102/102
f 112/112/112 102/102/102 49/49/49
f 112/112/112 49/49/49 48/48/48
f 112/112/112 48/48/48 105/105/105
f 113/113/113 101/101/101 5/5/5
f 113/113/113 5/5/5 33/33/33
f 113/113/113 33/33/33 29/29/29
f 113/113/113 29/29/29 114/114/114
f 113/113/113 114/114/114 72/72/72
f 113/113/113 72/72/72 78/78/78
f 113/113/113 78/78/78 52/52/52
f 113/113/113 52/52/52 101/101/101
f 115/115/115 116/116/116 24/24/24
f 115/115/115 24/24/24 35/35/35
f 115/115/115 35/35/35 12/12/12
f 115/115/115 12/12/12 108/108/108
f 115/115/115 108/108/108 60/60/60
f 115/115/115 60/60/60 80/80/80
f 115/115/115 80/80/80 63/63/63
f 115/115/115 63/63/63 116/116/116
f 117/117/117 93/93/93 18/18/18
f 117/117/117 18/18/18 17/17/17
f 117/117/117 17/17/17 24/24/24
f 117/117/117 24/24/24 116/116/116
f 117/117/117 116/116/116 63/63/63
f 117/117/117 63/63/63 62/62/62
f 117/117/117 62/62/62 69/69/69
f 117/117/117 69/69/69 93/93/93
f 118/118/118 114/114/114 29/29/29
f 118/118/118 29/29/29 28/28/28
f 118/118/118 28/28/28 27/27/27
f 118/118/118 27/27/27 111/111/111
f 118/118/118 111/111/111 74/74/74
f 118/118/118 74/74/74 73/73/73
f 118/118/118 73/73/73 72/72/72
f 118/118/118 72/72/72 114/114/114
