v -2.402700 0.671054 -1.066886
v -2.400720 0.671853 -1.067486
v -2.401825 0.670975 -1.070080
v -2.403921 0.670111 -1.069107
v -2.405663 0.669598 -1.068509
v -2.404437 0.670540 -1.066742
v -2.403243 0.671103 -1.065810
v -2.401711 0.671658 -1.065343
v -2.399856 0.672411 -1.065580
v -2.399436 0.672955 -1.068921
v -2.398712 0.673874 -1.070311
v -2.399159 0.673385 -1.072564
v -2.400211 0.672271 -1.071421
v -2.398885 0.673304 -1.067105
v -2.398607 0.673803 -1.068701
v -2.402797 0.668170 -1.079294
v -2.401581 0.669130 -1.080235
v -2.402507 0.667150 -1.082550
v -2.403574 0.666293 -1.081711
v -2.405075 0.665241 -1.080646
v -2.404503 0.666989 -1.078096
v -2.403799 0.668572 -1.075489
v -2.402028 0.669825 -1.076747
v -2.400776 0.670855 -1.077740
v -2.406433 0.666053 -1.077027
v -2.406789 0.664421 -1.079707
v -2.408141 0.663870 -1.079037
v -2.407950 0.665421 -1.076263
v -2.407438 0.666975 -1.073585
v -2.405830 0.667611 -1.074376
v -2.404979 0.668963 -1.071670
v -2.402879 0.669891 -1.072782
v -2.406669 0.668388 -1.070895
v -2.401120 0.671210 -1.074076
v -2.399908 0.672326 -1.075111
v -2.404504 0.664238 -1.083990
v -2.403739 0.664914 -1.084637
v -2.404586 0.663464 -1.085620
v -2.405237 0.662612 -1.085640
v -2.405955 0.662020 -1.085065
v -2.405599 0.663426 -1.083180
v -2.406903 0.662841 -1.082494
v -2.406881 0.661654 -1.084614
v -2.407544 0.661741 -1.083775
v -2.407946 0.662464 -1.082014
v -2.402599 0.670848 -1.066849
v -2.400594 0.671660 -1.067465
v -2.399762 0.672265 -1.065567
v -2.401638 0.671502 -1.065318
v -2.403194 0.670986 -1.065787
v -2.404375 0.670381 -1.066706
v -2.405594 0.669442 -1.068469
v -2.403814 0.669909 -1.069064
v -2.401696 0.670785 -1.070050
v -2.399286 0.672777 -1.068915
v -2.398589 0.673750 -1.070314
v -2.398519 0.673708 -1.068702
v -2.398774 0.673171 -1.067104
v -2.400061 0.672095 -1.071404
v -2.399036 0.673261 -1.072558
v -2.402640 0.668009 -1.079237
v -2.401455 0.669014 -1.080197
v -2.400652 0.670735 -1.077711
v -2.401873 0.669657 -1.076701
v -2.403660 0.668393 -1.075433
v -2.404361 0.666817 -1.078029
v -2.404931 0.665074 -1.080571
v -2.403415 0.666136 -1.081646
v -2.402380 0.667038 -1.082507
v -2.406307 0.665873 -1.076950
v -2.405709 0.667424 -1.074309
v -2.407356 0.666831 -1.073530
v -2.407864 0.665282 -1.076201
v -2.408053 0.663734 -1.078969
v -2.406661 0.664245 -1.079622
v -2.404864 0.668768 -1.071615
v -2.402745 0.669706 -1.072740
v -2.406594 0.668238 -1.070848
v -2.400968 0.671037 -1.074045
v -2.399785 0.672203 -1.075094
v -2.404343 0.664084 -1.083923
v -2.403610 0.664804 -1.084592
v -2.405454 0.663261 -1.083102
v -2.405846 0.661897 -1.085006
v -2.405116 0.662497 -1.085589
v -2.404492 0.663381 -1.085585
v -2.406775 0.662667 -1.082406
v -2.407859 0.662329 -1.081943
v -2.407477 0.661642 -1.083723
v -2.406787 0.661524 -1.084547
v -2.403425 0.665092 -1.084834
v -2.404681 0.663104 -1.086115
v -2.402093 0.667388 -1.082812
v -2.404492 0.663381 -1.085585
v -2.406832 0.661201 -1.085291
v -2.407644 0.661379 -1.084267
v -2.406025 0.661497 -1.085667
v -2.407477 0.661642 -1.083723
v -2.404991 0.670297 -1.066676
v -2.403409 0.671068 -1.065583
v -2.406215 0.669357 -1.068290
v -2.403194 0.670986 -1.065787
v -2.398653 0.673361 -1.066500
v -2.398393 0.673989 -1.068710
v -2.399526 0.672531 -1.064939
v -2.398519 0.673708 -1.068702
v -2.398414 0.674127 -1.070778
v -2.398752 0.673703 -1.072944
v -2.405428 0.662019 -1.086167
v -2.408257 0.662278 -1.081821
v -2.408554 0.663625 -1.078783
v -2.401350 0.671790 -1.064819
v -2.407202 0.668129 -1.070615
v -2.407940 0.666698 -1.073296
v -2.399447 0.672645 -1.075450
v -2.400301 0.671146 -1.078059
v -2.401118 0.669400 -1.080533
v -2.408420 0.665148 -1.075980
vn -0.354000 0.920700 -0.164400
vn -0.523300 0.851000 -0.044400
vn -0.545300 0.832600 -0.096900
vn -0.395400 0.895000 -0.206300
vn -0.412000 0.883200 -0.223900
vn -0.361100 0.918500 -0.161000
vn -0.324100 0.938900 -0.115400
vn -0.351500 0.933900 -0.064400
vn -0.485100 0.873600 0.037900
vn -0.683500 0.728800 0.041000
vn -0.678600 0.733500 0.036800
vn -0.692200 0.720000 -0.049200
vn -0.690000 0.723500 -0.022700
vn -0.620500 0.777300 0.103400
vn -0.665100 0.740300 0.097300
vn -0.695300 0.669900 -0.260300
vn -0.670900 0.684300 -0.285700
vn -0.674900 0.668000 -0.313600
vn -0.707200 0.647700 -0.283400
vn -0.624500 0.698600 -0.349200
vn -0.616400 0.721900 -0.314400
vn -0.596800 0.764700 -0.242900
vn -0.687100 0.701300 -0.189900
vn -0.672400 0.707200 -0.218200
vn -0.530000 0.766200 -0.363400
vn -0.529800 0.751000 -0.394000
vn -0.570300 0.728800 -0.378800
vn -0.561800 0.747700 -0.353900
vn -0.528300 0.791100 -0.308200
vn -0.501600 0.809300 -0.305600
vn -0.451200 0.857600 -0.246700
vn -0.570100 0.805400 -0.162000
vn -0.473100 0.841100 -0.262000
vn -0.685100 0.721400 -0.100800
vn -0.681600 0.719700 -0.131900
vn -0.727100 0.626100 -0.281700
vn -0.694100 0.645900 -0.317900
vn -0.718800 0.619600 -0.315000
vn -0.750300 0.581000 -0.315300
vn -0.636300 0.653400 -0.410100
vn -0.628000 0.687100 -0.365300
vn -0.510800 0.752000 -0.416500
vn -0.501100 0.726100 -0.470800
vn -0.531800 0.728500 -0.431700
vn -0.555500 0.726600 -0.404300
vn 0.338600 -0.919900 0.197500
vn 0.529600 -0.846200 0.058800
vn 0.552300 -0.825700 0.114700
vn 0.287400 -0.911900 0.292900
vn 0.188900 -0.911700 0.364700
vn 0.208400 -0.914600 0.346400
vn 0.273300 -0.907500 0.318900
vn 0.382900 -0.898500 0.214500
vn 0.545300 -0.832600 0.096800
vn 0.709300 -0.704000 -0.033700
vn 0.833900 -0.550100 -0.043500
vn 0.848000 -0.527900 -0.046300
vn 0.780600 -0.624800 -0.014700
vn 0.700200 -0.713700 0.016700
vn 0.798800 -0.601500 -0.008800
vn 0.706100 -0.662100 0.251000
vn 0.775800 -0.603500 0.183900
vn 0.770600 -0.623100 0.133500
vn 0.697200 -0.693400 0.182000
vn 0.596900 -0.764600 0.243000
vn 0.616500 -0.721700 0.314600
vn 0.624600 -0.698500 0.349300
vn 0.719300 -0.639700 0.270900
vn 0.790900 -0.587200 0.172300
vn 0.516200 -0.772700 0.369400
vn 0.489000 -0.814600 0.311900
vn 0.395000 -0.841900 0.367600
vn 0.417400 -0.812200 0.407500
vn 0.395700 -0.817300 0.418800
vn 0.513400 -0.759600 0.399200
vn 0.438900 -0.862100 0.253300
vn 0.570100 -0.805400 0.162000
vn 0.341200 -0.880500 0.329100
vn 0.694800 -0.713100 0.093700
vn 0.777200 -0.626600 0.057300
vn 0.740300 -0.623200 0.252100
vn 0.813200 -0.570800 0.113400
vn 0.625900 -0.694100 0.355500
vn 0.615900 -0.723400 0.311900
vn 0.770400 -0.618600 0.154300
vn 0.823300 -0.562900 0.072900
vn 0.485400 -0.771600 0.411000
vn 0.338500 -0.847200 0.409400
vn 0.302400 -0.866200 0.397800
vn 0.407100 -0.830100 0.381000
vn 0.497500 0.335900 -0.799700
vn 0.241300 0.058800 -0.968600
vn 0.586400 0.412400 -0.697100
vn 0.823300 -0.562900 0.072900
vn -0.372500 -0.626900 -0.684300
vn -0.776800 -0.534200 -0.333500
vn -0.097500 -0.644700 -0.758200
vn 0.302400 -0.866200 0.397800
vn -0.738200 -0.020100 0.674200
vn -0.504300 0.108000 0.856700
vn -0.835200 -0.141500 0.531400
vn 0.188900 -0.911700 0.364700
vn 0.661800 0.535400 0.524600
vn 0.624800 0.765700 0.152400
vn 0.418900 0.222200 0.880400
vn 0.848000 -0.527900 -0.046300
vn 0.616200 0.768900 -0.170300
vn 0.610300 0.700200 -0.370300
vn -0.012800 -0.417400 -0.908600
vn -0.881900 -0.467500 0.060100
vn -0.873400 -0.437600 0.213500
vn -0.087000 0.099800 0.991200
vn -0.869000 -0.244400 0.430300
vn -0.872600 -0.312400 0.375500
vn 0.612200 0.618200 -0.492800
vn 0.619400 0.557000 -0.553200
vn 0.621900 0.491400 -0.609700
vn -0.869200 -0.377300 0.319600
vt 0.839504 0.118056
vt 0.856743 0.205307
vt 0.741230 0.205307
vt 0.734555 0.106726
vt 0.724541 0.032791
vt 0.813647 0.052618
vt 0.868992 0.081539
vt 0.913398 0.129584
vt 0.940923 0.205307
vt 0.839504 0.292557
vt 0.813647 0.357995
vt 0.724541 0.377822
vt 0.734555 0.303887
vt 0.913398 0.281029
vt 0.868992 0.329074
vt 0.369475 0.299954
vt 0.368286 0.370940
vt 0.245840 0.351447
vt 0.246397 0.288815
vt 0.246768 0.205307
vt 0.370268 0.205307
vt 0.494283 0.205307
vt 0.492822 0.304944
vt 0.490632 0.379672
vt 0.369475 0.110659
vt 0.246397 0.121798
vt 0.245841 0.059166
vt 0.368286 0.039673
vt 0.490632 0.030941
vt 0.492822 0.105669
vt 0.616755 0.103478
vt 0.619174 0.205307
vt 0.613127 0.027106
vt 0.616755 0.307135
vt 0.613126 0.383507
vt 0.123273 0.268175
vt 0.123047 0.315326
vt 0.054743 0.283353
vt 0.030912 0.249131
vt 0.030973 0.205306
vt 0.123423 0.205306
vt 0.123273 0.142438
vt 0.030912 0.161481
vt 0.054744 0.127260
vt 0.123047 0.095287
vt 0.839504 0.118056
vt 0.856743 0.205307
vt 0.968983 0.205307
vt 0.938030 0.133427
vt 0.876123 0.061548
vt 0.805028 0.030806
vt 0.721203 0.008146
vt 0.734555 0.106726
vt 0.741230 0.205307
vt 0.839504 0.292557
vt 0.805028 0.379807
vt 0.876123 0.349065
vt 0.938030 0.277186
vt 0.734555 0.303887
vt 0.721203 0.402467
vt 0.369475 0.299954
vt 0.367890 0.394602
vt 0.489902 0.404581
vt 0.492822 0.304944
vt 0.494283 0.205307
vt 0.370268 0.205307
vt 0.246768 0.205307
vt 0.246397 0.288815
vt 0.245655 0.372324
vt 0.369475 0.110659
vt 0.492822 0.105669
vt 0.489902 0.006032
vt 0.367890 0.016011
vt 0.245655 0.038289
vt 0.246397 0.121798
vt 0.616755 0.103478
vt 0.619174 0.205307
vt 0.611917 0.001649
vt 0.616755 0.307135
vt 0.611917 0.408964
vt 0.123273 0.268175
vt 0.122972 0.331043
vt 0.123423 0.205306
vt 0.000156 0.205306
vt 0.000125 0.242784
vt 0.000064 0.280261
vt 0.123273 0.142438
vt 0.122972 0.079570
vt 0.000064 0.130352
vt 0.000125 0.167829
vt 0.122972 0.331043
vt 0.030806 0.283587
vt 0.245655 0.372324
vt 0.030806 0.283587
vt 0.000125 0.167829
vt 0.030806 0.127026
vt 0.000156 0.205306
vt 0.030806 0.127026
vt 0.805028 0.030806
vt 0.873826 0.071832
vt 0.721203 0.008146
vt 0.873826 0.071832
vt 0.938030 0.277186
vt 0.873826 0.338781
vt 0.968983 0.205307
vt 0.873826 0.338781
vt 0.805028 0.379807
vt 0.721203 0.402467
vt 0.000125 0.242784
vt 0.122972 0.079570
vt 0.245655 0.038289
vt 0.938030 0.133427
vt 0.611917 0.001649
vt 0.489902 0.006032
vt 0.611917 0.408964
vt 0.489902 0.404581
vt 0.367890 0.394602
vt 0.367890 0.016011
f 1/1/1 2/2/2 3/3/3
f 1/1/1 3/3/3 4/4/4
f 1/1/1 4/4/4 5/5/5
f 1/1/1 5/5/5 6/6/6
f 1/1/1 6/6/6 7/7/7
f 1/1/1 7/7/7 8/8/8
f 1/1/1 8/8/8 9/9/9
f 1/1/1 9/9/9 2/2/2
f 10/10/10 11/11/11 12/12/12
f 10/10/10 12/12/12 13/13/13
f 10/10/10 13/13/13 3/3/3
f 10/10/10 3/3/3 2/2/2
f 10/10/10 2/2/2 9/9/9
f 10/10/10 9/9/9 14/14/14
f 10/10/10 14/14/14 15/15/15
f 10/10/10 15/15/15 11/11/11
f 16/16/16 17/17/17 18/18/18
f 16/16/16 18/18/18 19/19/19
f 16/16/16 19/19/19 20/20/20
f 16/16/16 20/20/20 21/21/21
f 16/16/16 21/21/21 22/22/22
f 16/16/16 22/22/22 23/23/23
f 16/16/16 23/23/23 24/24/24
f 16/16/16 24/24/24 17/17/17
f 25/25/25 21/21/21 20/20/20
f 25/25/25 20/20/20 26/26/26
f 25/25/25 26/26/26 27/27/27
f 25/25/25 27/27/27 28/28/28
f 25/25/25 28/28/28 29/29/29
f 25/25/25 29/29/29 30/30/30
f 25/25/25 30/30/30 22/22/22
f 25/25/25 22/22/22 21/21/21
f 31/31/31 32/32/32 22/22/22
f 31/31/31 22/22/22 30/30/30
f 31/31/31 30/30/30 29/29/29
f 31/31/31 29/29/29 33/33/33
f 31/31/31 33/33/33 5/5/5
f 31/31/31 5/5/5 4/4/4
f 31/31/31 4/4/4 3/3/3
f 31/31/31 3/3/3 32/32/32
f 34/34/34 35/35/35 24/24/24
f 34/34/34 24/24/24 23/23/23
f 34/34/34 23/23/23 22/22/22
f 34/34/34 22/22/22 32/32/32
f 34/34/34 32/32/32 3/3/3
f 34/34/34 3/3/3 13/13/13
f 34/34/34 13/13/13 12/12/12
f 34/34/34 12/12/12 35/35/35
f 36/36/36 37/37/37 38/38/38
f 36/36/36 38/38/38 39/39/39
f 36/36/36 39/39/39 40/40/40
f 36/36/36 40/40/40 41/41/41
f 36/36/36 41/41/41 20/20/20
f 36/36/36 20/20/20 19/19/19
f 36/36/36 19/19/19 18/18/18
f 36/36/36 18/18/18 37/37/37
f 42/42/42 41/41/41 40/40/40
f 42/42/42 40/40/40 43/43/43
f 42/42/42 43/43/43 44/44/44
f 42/42/42 44/44/44 45/45/45
f 42/42/42 45/45/45 27/27/27
f 42/42/42 27/27/27 26/26/26
f 42/42/42 26/26/26 20/20/20
f 42/42/42 20/20/20 41/41/41
f 46/46/46 47/47/47 48/48/48
f 46/46/46 48/48/48 49/49/49
f 46/46/46 49/49/49 50/50/50
f 46/46/46 50/50/50 51/51/51
f 46/46/46 51/51/51 52/52/52
f 46/46/46 52/52/52 53/53/53
f 46/46/46 53/53/53 54/54/54
f 46/46/46 54/54/54 47/47/47
f 55/55/55 56/56/56 57/57/57
f 55/55/55 57/57/57 58/58/58
f 55/55/55 58/58/58 48/48/48
f 55/55/55 48/48/48 47/47/47
f 55/55/55 47/47/47 54/54/54
f 55/55/55 54/54/54 59/59/59
f 55/55/55 59/59/59 60/60/60
f 55/55/55 60/60/60 56/56/56
f 61/61/61 62/62/62 63/63/63
f 61/61/61 63/63/63 64/64/64
f 61/61/61 64/64/64 65/65/65
f 61/61/61 65/65/65 66/66/66
f 61/61/61 66/66/66 67/67/67
f 61/61/61 67/67/67 68/68/68
f 61/61/61 68/68/68 69/69/69
f 61/61/61 69/69/69 62/62/62
f 70/70/70 66/66/66 65/65/65
f 70/70/70 65/65/65 71/71/71
f 70/70/70 71/71/71 72/72/72
f 70/70/70 72/72/72 73/73/73
f 70/70/70 73/73/73 74/74/74
f 70/70/70 74/74/74 75/75/75
f 70/70/70 75/75/75 67/67/67
f 70/70/70 67/67/67 66/66/66
f 76/76/76 77/77/77 54/54/54
f 76/76/76 54/54/54 53/53/53
f 76/76/76 53/53/53 52/52/52
f 76/76/76 52/52/52 78/78/78
f 76/76/76 78/78/78 72/72/72
f 76/76/76 72/72/72 71/71/71
f 76/76/76 71/71/71 65/65/65
f 76/76/76 65/65/65 77/77/77
f 79/79/79 80/80/80 60/60/60
f 79/79/79 60/60/60 59/59/59
f 79/79/79 59/59/59 54/54/54
f 79/79/79 54/54/54 77/77/77
f 79/79/79 77/77/77 65/65/65
f 79/79/79 65/65/65 64/64/64
f 79/79/79 64/64/64 63/63/63
f 79/79/79 63/63/63 80/80/80
f 81/81/81 82/82/82 69/69/69
f 81/81/81 69/69/69 68/68/68
f 81/81/81 68/68/68 67/67/67
f 81/81/81 67/67/67 83/83/83
f 81/81/81 83/83/83 84/84/84
f 81/81/81 84/84/84 85/85/85
f 81/81/81 85/85/85 86/86/86
f 81/81/81 86/86/86 82/82/82
f 87/87/87 83/83/83 67/67/67
f 87/87/87 67/67/67 75/75/75
f 87/87/87 75/75/75 74/74/74
f 87/87/87 74/74/74 88/88/88
f 87/87/87 88/88/88 89/89/89
f 87/87/87 89/89/89 90/90/90
f 87/87/87 90/90/90 84/84/84
f 87/87/87 84/84/84 83/83/83
f 91/91/91 92/92/92 38/38/38
f 91/91/91 38/38/38 37/37/37
f 91/91/91 37/37/37 18/18/18
f 91/91/91 18/18/18 93/93/93
f 91/91/91 93/93/93 69/69/69
f 91/91/91 69/69/69 82/82/82
f 91/91/91 82/82/82 94/94/94
f 91/91/91 94/94/94 92/92/92
f 95/95/95 96/96/96 44/44/44
f 95/95/95 44/44/44 43/43/43
f 95/95/95 43/43/43 40/40/40
f 95/95/95 40/40/40 97/97/97
f 95/95/95 97/97/97 84/84/84
f 95/95/95 84/84/84 90/90/90
f 95/95/95 90/90/90 98/98/98
f 95/95/95 98/98/98 96/96/96
f 99/99/99 100/100/100 7/7/7
f 99/99/99 7/7/7 6/6/6
f 99/99/99 6/6/6 5/5/5
f 99/99/99 5/5/5 101/101/101
f 99/99/99 101/101/101 52/52/52
f 99/99/99 52/52/52 51/51/51
f 99/99/99 51/51/51 102/102/102
f 99/99/99 102/102/102 100/100/100
f 103/103/103 104/104/104 15/15/15
f 103/103/103 15/15/15 14/14/14
f 103/103/103 14/14/14 9/9/9
f 103/103/103 9/9/9 105/105/105
f 103/103/103 105/105/105 48/48/48
f 103/103/103 48/48/48 58/58/58
f 103/103/103 58/58/58 106/106/106
f 103/103/103 106/106/106 104/104/104
f 107/107/107 108/108/108 12/12/12
f 107/107/107 12/12/12 11/11/11
f 107/107/107 11/11/11 15/15/15
f 107/107/107 15/15/15 104/104/104
f 107/107/107 104/104/104 106/106/106
f 107/107/107 106/106/106 56/56/56
f 107/107/107 56/56/56 60/60/60
f 107/107/107 60/60/60 108/108/108
f 109/109/109 97/97/97 40/40/40
f 109/109/109 40/40/40 39/39/39
f 109/109/109 39/39/39 38/38/38
f 109/109/109 38/38/38 92/92/92
f 109/109/109 92/92/92 94/94/94
f 109/109/109 94/94/94 85/85/85
f 109/109/109 85/85/85 84/84/84
f 109/109/109 84/84/84 97/97/97
f 110/110/110 111/111/111 27/27/27
f 110/110/110 27/27/27 45/45/45
f 110/110/110 45/45/45 44/44/44
f 110/110/110 44/44/44 96/96/96
f 110/110/110 96/96/96 98/98/98
f 110/110/110 98/98/98 88/88/88
f 110/110/110 88/88/88 74/74/74
f 110/110/110 74/74/74 111/111/111
f 112/112/112 105/105/105 9/9/9
f 112/112/112 9/9/9 8/8/8
f 112/112/112 8/8/8 7/7/7
f 112/112/112 7/7/7 100/100/100
f 112/112/112 100/100/100 102/102/102
f 112/112/112 102/102/102 49/49/49
f 112/112/112 49/49/49 48/48/48
f 112/112/112 48/48/48 105/105/105
f 113/113/113 101/101/101 5/5/5
f 113/113/113 5/5/5 33/33/33
f 113/113/113 33/33/33 29/29/29
f 113/113/113 29/29/29 114/114/114
f 113/113/113 114/114/114 72/72/72
f 113/113/113 72/72/72 78/78/78
f 113/113/113 78/78/78 52/52/52
f 113/113/113 52/52/52 101/101/101
f 115/115/115 116/116/116 24/24/24
f 115/115/115 24/24/24 35/35/35
f 115/115/115 35/35/35 12/12/12
f 115/115/115 12/12/12 108/108/108
f 115/115/115 108/108/108 60/60/60
f 115/115/115 60/60/60 80/80/80
f 115/115/115 80/80/80 63/63/63
f 115/115/115 63/63/63 116/116/116
f 117/117/117 93/93/93 18/18/18
f 117/117/117 18/18/18 17/17/17
f 117/117/117 17/17/17 24/24/24
f 117/117/117 24/24/24 116/116/116
f 117/117/117 116/116/116 63/63/63
f 117/117/117 63/63/63 62/62/62
f 117/117/117 62/62/62 69/69/69
f 117/117/117 69/69/69 93/93/93
f 118/118/118 114/114/114 29/29/29
f 118/118/118 29/29/29 28/28/28
f 118/118/118 28/28/28 27/27/27
f 118/118/118 27/27/27 111/111/111
f 118/118/118 111/111/111 74/74/74
f 118/118/118 74/74/74 73/73/73
f 118/118/118 73/73/73 72/72/72
f 118/118/118 72/72/72 114/114/114
