v -2.344137 0.704912 -1.083445
v -2.341647 0.705222 -1.085553
v -2.345021 0.704598 -1.088249
v -2.347456 0.704226 -1.085563
v -2.349524 0.704218 -1.083640
v -2.346480 0.704926 -1.082134
v -2.344148 0.705157 -1.081680
v -2.341674 0.705257 -1.082053
v -2.339138 0.705534 -1.083591
v -2.340436 0.706303 -1.088400
v -2.339988 0.707365 -1.090825
v -2.342149 0.706989 -1.093512
v -2.343249 0.705806 -1.091195
v -2.338470 0.706461 -1.086342
v -2.338891 0.707132 -1.088718
v -2.353098 0.701553 -1.099653
v -2.351727 0.702437 -1.101778
v -2.355154 0.700164 -1.104062
v -2.356355 0.699366 -1.102178
v -2.358051 0.698468 -1.099703
v -2.355027 0.700553 -1.096859
v -2.351867 0.702345 -1.093996
v -2.349861 0.703421 -1.096919
v -2.348448 0.704391 -1.099145
v -2.357220 0.700004 -1.094135
v -2.360000 0.697996 -1.097298
v -2.361542 0.697763 -1.095510
v -2.358949 0.699723 -1.092109
v -2.356004 0.701552 -1.089030
v -2.354174 0.701801 -1.091147
v -2.350860 0.703198 -1.088210
v -2.348480 0.703666 -1.091094
v -2.352780 0.703072 -1.086073
v -2.346485 0.704842 -1.094067
v -2.345113 0.705953 -1.096337
v -2.359795 0.696987 -1.104402
v -2.358937 0.697648 -1.105822
v -2.361223 0.696016 -1.106436
v -2.362420 0.695095 -1.105956
v -2.363227 0.694537 -1.104673
v -2.361030 0.696268 -1.102546
v -2.362515 0.695965 -1.100760
v -2.364284 0.694394 -1.103460
v -2.364578 0.694756 -1.101945
v -2.363708 0.695855 -1.099436
v -2.344071 0.704576 -1.083429
v -2.341552 0.704894 -1.085575
v -2.339071 0.705287 -1.083611
v -2.341630 0.705005 -1.082042
v -2.344120 0.704969 -1.081663
v -2.346445 0.704672 -1.082103
v -2.349477 0.703967 -1.083607
v -2.347376 0.703893 -1.085543
v -2.344916 0.704271 -1.088262
v -2.340314 0.705988 -1.088459
v -2.339884 0.707138 -1.090887
v -2.338819 0.706961 -1.088761
v -2.338381 0.706225 -1.086391
v -2.343119 0.705492 -1.091241
v -2.342040 0.706761 -1.093562
v -2.352928 0.701254 -1.099650
v -2.351591 0.702216 -1.101787
v -2.348321 0.704167 -1.099165
v -2.349705 0.703115 -1.096929
v -2.351728 0.702030 -1.093980
v -2.354874 0.700245 -1.096831
v -2.357888 0.698166 -1.099667
v -2.356176 0.699072 -1.102166
v -2.355011 0.699948 -1.104065
v -2.357086 0.699691 -1.094084
v -2.354054 0.701481 -1.091106
v -2.355924 0.701310 -1.088987
v -2.358858 0.699486 -1.092059
v -2.361445 0.697531 -1.095453
v -2.359857 0.697689 -1.097238
v -2.350761 0.702871 -1.088181
v -2.348358 0.703345 -1.091094
v -2.352717 0.702825 -1.086036
v -2.346342 0.704531 -1.094095
v -2.344995 0.705726 -1.096373
v -2.359611 0.696696 -1.104388
v -2.358791 0.697434 -1.105825
v -2.360864 0.695968 -1.102507
v -2.363103 0.694313 -1.104643
v -2.362281 0.694877 -1.105947
v -2.361117 0.695857 -1.106434
v -2.362370 0.695659 -1.100695
v -2.363609 0.695624 -1.099375
v -2.364502 0.694585 -1.101903
v -2.364176 0.694165 -1.103410
v -2.358584 0.697774 -1.106299
v -2.361798 0.695577 -1.106996
v -2.354689 0.700335 -1.104694
v -2.361117 0.695857 -1.106434
v -2.364826 0.693769 -1.104338
v -2.365159 0.694314 -1.102497
v -2.363904 0.693860 -1.105369
v -2.364502 0.694585 -1.101903
v -2.347248 0.704817 -1.081680
v -2.344235 0.705168 -1.081270
v -2.350195 0.704103 -1.082981
v -2.344120 0.704969 -1.081663
v -2.337776 0.706409 -1.085679
v -2.338547 0.707305 -1.088884
v -2.338273 0.705528 -1.082947
v -2.338819 0.706961 -1.088761
v -2.339789 0.707620 -1.091664
v -2.341732 0.707283 -1.094310
v -2.363233 0.694368 -1.106470
v -2.364064 0.695715 -1.098964
v -2.362015 0.697582 -1.094886
v -2.340834 0.705260 -1.081585
v -2.353395 0.702920 -1.085341
v -2.356581 0.701361 -1.088303
v -2.344601 0.706224 -1.097113
v -2.347919 0.704616 -1.099898
v -2.351207 0.702634 -1.102493
v -2.359488 0.699523 -1.091409
vn -0.117500 0.989200 -0.087100
vn -0.233300 0.967500 0.097300
vn -0.279400 0.958300 0.060200
vn -0.178000 0.978300 -0.106000
vn -0.202900 0.972500 -0.114200
vn -0.122800 0.989100 -0.081100
vn -0.066100 0.996200 -0.056500
vn -0.069900 0.997500 0.001500
vn -0.159600 0.975000 0.154400
vn -0.370300 0.894200 0.251300
vn -0.366500 0.897500 0.245100
vn -0.418000 0.891700 0.173700
vn -0.404000 0.893400 0.196500
vn -0.276500 0.919900 0.277900
vn -0.327800 0.897900 0.293900
vn -0.522700 0.852400 -0.012200
vn -0.508300 0.859900 -0.046500
vn -0.527800 0.846500 -0.068700
vn -0.548800 0.835500 -0.026300
vn -0.490600 0.862400 -0.124400
vn -0.462600 0.881100 -0.098200
vn -0.403800 0.913700 -0.045200
vn -0.477500 0.877400 0.045500
vn -0.475100 0.879800 0.013400
vn -0.395800 0.900100 -0.182100
vn -0.412700 0.886600 -0.208600
vn -0.447500 0.876700 -0.176200
vn -0.424500 0.891400 -0.158700
vn -0.364300 0.921400 -0.134800
vn -0.335200 0.930900 -0.145100
vn -0.253500 0.960300 -0.116500
vn -0.335600 0.941900 0.013700
vn -0.283400 0.951500 -0.120000
vn -0.433000 0.892800 0.123800
vn -0.443400 0.891300 0.094300
vn -0.571400 0.820600 -0.014600
vn -0.552500 0.831100 -0.062700
vn -0.580100 0.813100 -0.047700
vn -0.618100 0.785400 -0.031700
vn -0.538700 0.825000 -0.170800
vn -0.503500 0.853100 -0.136600
vn -0.405400 0.882900 -0.236900
vn -0.426800 0.857300 -0.287800
vn -0.436500 0.867100 -0.240000
vn -0.446000 0.871100 -0.205300
vn 0.118200 -0.985300 0.123500
vn 0.246100 -0.965300 -0.087100
vn 0.294900 -0.954300 -0.047600
vn 0.116000 -0.966200 0.230200
vn 0.060800 -0.940000 0.335700
vn 0.069200 -0.947700 0.311500
vn 0.115800 -0.958800 0.259300
vn 0.169600 -0.978300 0.118900
vn 0.279300 -0.958300 -0.060300
vn 0.402800 -0.878300 -0.257500
vn 0.549000 -0.767500 -0.330900
vn 0.566600 -0.750000 -0.341300
vn 0.494600 -0.823900 -0.276600
vn 0.413200 -0.886800 -0.207100
vn 0.519200 -0.807300 -0.280600
vn 0.530400 -0.847700 -0.001400
vn 0.579100 -0.809500 -0.096000
vn 0.548100 -0.825000 -0.137900
vn 0.485200 -0.872500 -0.057500
vn 0.403900 -0.913700 0.045300
vn 0.462700 -0.881000 0.098400
vn 0.490700 -0.862400 0.124500
vn 0.556400 -0.830900 0.009300
vn 0.591900 -0.797800 -0.114200
vn 0.384700 -0.902500 0.193700
vn 0.325400 -0.932600 0.156400
vn 0.259800 -0.933300 0.247900
vn 0.304000 -0.912900 0.272200
vn 0.288500 -0.911900 0.291900
vn 0.398400 -0.890200 0.220800
vn 0.244400 -0.961200 0.127900
vn 0.335600 -0.941900 -0.013700
vn 0.186400 -0.953100 0.238400
vn 0.440700 -0.887400 -0.135000
vn 0.521100 -0.827300 -0.209600
vn 0.571200 -0.820600 -0.017900
vn 0.591200 -0.786500 -0.178400
vn 0.495700 -0.858800 0.129200
vn 0.460600 -0.882400 0.096300
vn 0.557900 -0.821300 -0.119300
vn 0.585200 -0.780400 -0.219900
vn 0.375700 -0.894000 0.244000
vn 0.226800 -0.923500 0.309500
vn 0.185400 -0.930700 0.315300
vn 0.278900 -0.926100 0.254000
vn 0.190400 0.205700 -0.959900
vn -0.178600 0.021400 -0.983700
vn 0.331900 0.249400 -0.909700
vn 0.585200 -0.780400 -0.219900
vn -0.782500 -0.465700 -0.413200
vn -0.960200 -0.272100 0.062800
vn -0.580500 -0.560000 -0.591100
vn 0.185400 -0.930700 0.315300
vn -0.362800 0.171100 0.916000
vn -0.048600 0.218700 0.974600
vn -0.540200 0.088500 0.836800
vn 0.060800 -0.940000 0.335700
vn 0.940700 0.300200 0.157800
vn 0.818100 0.544200 -0.185500
vn 0.791900 0.058300 0.607800
vn 0.566600 -0.750000 -0.341300
vn 0.676800 0.561600 -0.475900
vn 0.569200 0.505300 -0.648500
vn -0.506500 -0.361900 -0.782600
vn -0.868300 -0.192100 0.457300
vn -0.788800 -0.171800 0.590100
vn 0.366400 0.084300 0.926600
vn -0.640000 0.003800 0.768300
vn -0.684900 -0.058100 0.726300
vn 0.496700 0.431000 -0.753300
vn 0.460000 0.372100 -0.806200
vn 0.420600 0.310900 -0.852300
vn -0.723900 -0.119300 0.679500
vt 0.839504 0.118056
vt 0.856743 0.205307
vt 0.741230 0.205307
vt 0.734555 0.106726
vt 0.724541 0.032791
vt 0.813647 0.052618
vt 0.868992 0.081539
vt 0.913398 0.129584
vt 0.940923 0.205307
vt 0.839504 0.292557
vt 0.813647 0.357995
vt 0.724541 0.377822
vt 0.734555 0.303887
vt 0.913398 0.281029
vt 0.868992 0.329074
vt 0.369475 0.299954
vt 0.368286 0.370940
vt 0.245840 0.351447
vt 0.246397 0.288815
vt 0.246768 0.205307
vt 0.370268 0.205307
vt 0.494283 0.205307
vt 0.492822 0.304944
vt 0.490632 0.379672
vt 0.369475 0.110659
vt 0.246397 0.121798
vt 0.245841 0.059166
vt 0.368286 0.039673
vt 0.490632 0.030941
vt 0.492822 0.105669
vt 0.616755 0.103478
vt 0.619174 0.205307
vt 0.613127 0.027106
vt 0.616755 0.307135
vt 0.613126 0.383507
vt 0.123273 0.268175
vt 0.123047 0.315326
vt 0.054743 0.283353
vt 0.030912 0.249131
vt 0.030973 0.205306
vt 0.123423 0.205306
vt 0.123273 0.142438
vt 0.030912 0.161481
vt 0.054744 0.127260
vt 0.123047 0.095287
vt 0.839504 0.118056
vt 0.856743 0.205307
vt 0.968983 0.205307
vt 0.938030 0.133427
vt 0.876123 0.061548
vt 0.805028 0.030806
vt 0.721203 0.008146
vt 0.734555 0.106726
vt 0.741230 0.205307
vt 0.839504 0.292557
vt 0.805028 0.379807
vt 0.876123 0.349065
vt 0.938030 0.277186
vt 0.734555 0.303887
vt 0.721203 0.402467
vt 0.369475 0.299954
vt 0.367890 0.394602
vt 0.489902 0.404581
vt 0.492822 0.304944
vt 0.494283 0.205307
vt 0.370268 0.205307
vt 0.246768 0.205307
vt 0.246397 0.288815
vt 0.245655 0.372324
vt 0.369475 0.110659
vt 0.492822 0.105669
vt 0.489902 0.006032
vt 0.367890 0.016011
vt 0.245655 0.038289
vt 0.246397 0.121798
vt 0.616755 0.103478
vt 0.619174 0.205307
vt 0.611917 0.001649
vt 0.616755 0.307135
vt 0.611917 0.408964
vt 0.123273 0.268175
vt 0.122972 0.331043
vt 0.123423 0.205306
vt 0.000156 0.205306
vt 0.000125 0.242784
vt 0.000064 0.280261
vt 0.123273 0.142438
vt 0.122972 0.079570
vt 0.000064 0.130352
vt 0.000125 0.167829
vt 0.122972 0.331043
vt 0.030806 0.283587
vt 0.245655 0.372324
vt 0.030806 0.283587
vt 0.000125 0.167829
vt 0.030806 0.127026
vt 0.000156 0.205306
vt 0.030806 0.127026
vt 0.805028 0.030806
vt 0.873826 0.071832
vt 0.721203 0.008146
vt 0.873826 0.071832
vt 0.938030 0.277186
vt 0.873826 0.338781
vt 0.968983 0.205307
vt 0.873826 0.338781
vt 0.805028 0.379807
vt 0.721203 0.402467
vt 0.000125 0.242784
vt 0.122972 0.079570
vt 0.245655 0.038289
vt 0.938030 0.133427
vt 0.611917 0.001649
vt 0.489902 0.006032
vt 0.611917 0.408964
vt 0.489902 0.404581
vt 0.367890 0.394602
vt 0.367890 0.016011
f 1/1/1 2/2/2 3/3/3
f 1/1/1 3/3/3 4/4/4
f 1/1/1 4/4/4 5/5/5
f 1/1/1 5/5/5 6/6/6
f 1/1/1 6/6/6 7/7/7
f 1/1/1 7/7/7 8/8/8
f 1/1/1 8/8/8 9/9/9
f 1/1/1 9/9/9 2/2/2
f 10/10/10 11/11/11 12/12/12
f 10/10/10 12/12/12 13/13/13
f 10/10/10 13/13/13 3/3/3
f 10/10/10 3/3/3 2/2/2
f 10/10/10 2/2/2 9/9/9
f 10/10/10 9/9/9 14/14/14
f 10/10/10 14/14/14 15/15/15
f 10/10/10 15/15/15 11/11/11
f 16/16/16 17/17/17 18/18/18
f 16/16/16 18/18/18 19/19/19
f 16/16/16 19/19/19 20/20/20
f 16/16/16 20/20/20 21/21/21
f 16/16/16 21/21/21 22/22/22
f 16/16/16 22/22/22 23/23/23
f 16/16/16 23/23/23 24/24/24
f 16/16/16 24/24/24 17/17/17
f 25/25/25 21/21/21 20/20/20
f 25/25/25 20/20/20 26/26/26
f 25/25/25 26/26/26 27/27/27
f 25/25/25 27/27/27 28/28/28
f 25/25/25 28/28/28 29/29/29
f 25/25/25 29/29/29 30/30/30
f 25/25/25 30/30/30 22/22/22
f 25/25/25 22/22/22 21/21/21
f 31/31/31 32/32/32 22/22/22
f 31/31/31 22/22/22 30/30/30
f 31/31/31 30/30/30 29/29/29
f 31/31/31 29/29/29 33/33/33
f 31/31/31 33/33/33 5/5/5
f 31/31/31 5/5/5 4/4/4
f 31/31/31 4/4/4 3/3/3
f 31/31/31 3/3/3 32/32/32
f 34/34/34 35/35/35 24/24/24
f 34/34/34 24/24/24 23/23/23
f 34/34/34 23/23/23 22/22/22
f 34/34/34 22/22/22 32/32/32
f 34/34/34 32/32/32 3/3/3
f 34/34/34 3/3/3 13/13/13
f 34/34/34 13/13/13 12/12/12
f 34/34/34 12/12/12 35/35/35
f 36/36/36 37/37/37 38/38/38
f 36/36/36 38/38/38 39/39/39
f 36/36/36 39/39/39 40/40/40
f 36/36/36 40/40/40 41/41/41
f 36/36/36 41/41/41 20/20/20
f 36/36/36 20/20/20 19/19/19
f 36/36/36 19/19/19 18/18/18
f 36/36/36 18/18/18 37/37/37
f 42/42/42 41/41/41 40/40/40
f 42/42/42 40/40/40 43/43/43
f 42/42/42 43/43/43 44/44/44
f 42/42/42 44/44/44 45/45/45
f 42/42/42 45/45/45 27/27/27
f 42/42/42 27/27/27 26/26/26
f 42/42/42 26/26/26 20/20/20
f 42/42/42 20/20/20 41/41/41
f 46/46/46 47/47/47 48/48/48
f 46/46/46 48/48/48 49/49/49
f 46/46/46 49/49/49 50/50/50
f 46/46/46 50/50/50 51/51/51
f 46/46/46 51/51/51 52/52/52
f 46/46/46 52/52/52 53/53/53
f 46/46/46 53/53/53 54/54/54
f 46/46/46 54/54/54 47/47/47
f 55/55/55 56/56/56 57/57/57
f 55/55/55 57/57/57 58/58/58
f 55/55/55 58/58/58 48/48/48
f 55/55/55 48/48/48 47/47/47
f 55/55/55 47/47/47 54/54/54
f 55/55/55 54/54/54 59/59/59
f 55/55/55 59/59/59 60/60/60
f 55/55/55 60/60/60 56/56/56
f 61/61/61 62/62/62 63/63/63
f 61/61/61 63/63/63 64/64/64
f 61/61/61 64/64/64 65/65/65
f 61/61/61 65/65/65 66/66/66
f 61/61/61 66/66/66 67/67/67
f 61/61/61 67/67/67 68/68/68
f 61/61/61 68/68/68 69/69/69
f 61/61/61 69/69/69 62/62/62
f 70/70/70 66/66/66 65/65/65
f 70/70/70 65/65/65 71/71/71
f 70/70/70 71/71/71 72/72/72
f 70/70/70 72/72/72 73/73/73
f 70/70/70 73/73/73 74/74/74
f 70/70/70 74/74/74 75/75/75
f 70/70/70 75/75/75 67/67/67
f 70/70/70 67/67/67 66/66/66
f 76/76/76 77/77/77 54/54/54
f 76/76/76 54/54/54 53/53/53
f 76/76/76 53/53/53 52/52/52
f 76/76/76 52/52/52 78/78/78
f 76/76/76 78/78/78 72/72/72
f 76/76/76 72/72/72 71/71/71
f 76/76/76 71/71/71 65/65/65
f 76/76/76 65/65/65 77/77/77
f 79/79/79 80/80/80 60/60/60
f 79/79/79 60/60/60 59/59/59
f 79/79/79 59/59/59 54/54/54
f 79/79/79 54/54/54 77/77/77
f 79/79/79 77/77/77 65/65/65
f 79/79/79 65/65/65 64/64/64
f 79/79/79 64/64/64 63/63/63
f 79/79/79 63/63/63 80/80/80
f 81/81/81 82/82/82 69/69/69
f 81/81/81 69/69/69 68/68/68
f 81/81/81 68/68/68 67/67/67
f 81/81/81 67/67/67 83/83/83
f 81/81/81 83/83/83 84/84/84
f 81/81/81 84/84/84 85/85/85
f 81/81/81 85/85/85 86/86/86
f 81/81/81 86/86/86 82/82/82
f 87/87/87 83/83/83 67/67/67
f 87/87/87 67/67/67 75/75/75
f 87/87/87 75/75/75 74/74/74
f 87/87/87 74/74/74 88/88/88
f 87/87/87 88/88/88 89/89/89
f 87/87/87 89/89/89 90/90/90
f 87/87/87 90/90/90 84/84/84
f 87/87/87 84/84/84 83/83/83
f 91/91/91 92/92/92 38/38/38
f 91/91/91 38/38/38 37/37/37
f 91/91/91 37/37/37 18/18/18
f 91/91/91 18/18/18 93/93/93
f 91/91/91 93/93/93 69/69/69
f 91/91/91 69/69/69 82/82/82
f 91/91/91 82/82/82 94/94/94
f 91/91/91 94/94/94 92/92/92
f 95/95/95 96/96/96 44/44/44
f 95/95/95 44/44/44 43/43/43
f 95/95/95 43/43/43 40/40/40
f 95/95/95 40/40/40 97/97/97
f 95/95/95 97/97/97 84/84/84
f 95/95/95 84/84/84 90/90/90
f 95/95/95 90/90/90 98/98/98
f 95/95/95 98/98/98 96/96/96
f 99/99/99 100/100/100 7/7/7
f 99/99/99 7/7/7 6/6/6
f 99/99/99 6/6/6 5/5/5
f 99/99/99 5/5/5 101/101/101
f 99/99/99 101/101/101 52/52/52
f 99/99/99 52/52/52 51/51/51
f 99/99/99 51/51/51 102/102/102
f 99/99/99 102/102/102 100/100/100
f 103/103/103 104/104/104 15/15/15
f 103/103/103 15/15/15 14/14/14
f 103/103/103 14/14/14 9/9/9
f 103/103/103 9/9/9 105/105/105
f 103/103/103 105/105/105 48/48/48
f 103/103/103 48/48/48 58/58/58
f 103/103/103 58/58/58 106/106/106
f 103/103/103 106/106/106 104/104/104
f 107/107/107 108/108/108 12/12/12
f 107/107/107 12/12/12 11/11/11
f 107/107/107 11/11/11 15/15/15
f 107/107/107 15/15/15 104/104/104
f 107/107/107 104/104/104 106/106/106
f 107/107/107 106/106/106 56/56/56
f 107/107/107 56/56/56 60/60/60
f 107/107/107 60/60/60 108/108/108
f 109/109/109 97/97/97 40/40/40
f 109/109/109 40/40/40 39/39/39
f 109/109/109 39/39/39 38/38/38
f 109/109/109 38/38/38 92/92/92
f 109/109/109 92/92/92 94/94/94
f 109/109/109 94/94/94 85/85/85
f 109/109/109 85/85/85 84/84/84
f 109/109/109 84/84/84 97/97/97
f 110/110/110 111/111/111 27/27/27
f 110/110/110 27/27/27 45/45/45
f 110/110/110 45/45/45 44/44/44
f 110/110/110 44/44/44 96/96/96
f 110/110/110 96/96/96 98/98/98
f 110/110/110 98/98/98 88/88/88
f 110/110/110 88/88/88 74/74/74
f 110/110/110 74/74/74 111/111/111
f 112/112/112 105/105/105 9/9/9
f 112/112/112 9/9/9 8/8/8
f 112/112/112 8/8/8 7/7/7
f 112/112/112 7/7/7 100/100/100
f 112/112/112 100/100/100 102/102/102
f 112/112/112 102/102/102 49/49/49
f 112/112/112 49/49/49 48/48/48
f 112/112/112 48/48/48 105/105/105
f 113/113/113 101/101/101 5/5/5
f 113/113/113 5/5/5 33/33/33
f 113/113/113 33/33/33 29/29/29
f 113/113/113 29/29/29 114/114/114
f 113/113/113 114/114/114 72/72/72
f 113/113/113 72/72/72 78/78/78
f 113/113/113 78/78/78 52/52/52
f 113/113/113 52/52/52 101/101/101
f 115/115/115 116/116/116 24/24/24
f 115/115/115 24/24/24 35/35/35
f 115/115/115 35/35/35 12/12/12
f 115/115/115 12/12/12 108/108/108
f 115/115/115 108/108/108 60/60/60
f 115/115/115 60/60/60 80/80/80
f 115/115/115 80/80/80 63/63/63
f 115/115/115 63/63/63 116/116/116
f 117/117/117 93/93/93 18/18/18
f 117/117/117 18/18/18 17/17/17
f 117/117/117 17/17/17 24/24/24
f 117/117/117 24/24/24 116/116/116
f 117/117/117 116/116/116 63/63/63
f 117/117/117 63/63/63 62/62/62
f 117/117/117 62/62/62 69/69/69
f 117/117/117 69/69/69 93/93/93
f 118/118/118 114/114/114 29/29/29
f 118/118/118 29/29/29 28/28/28
f 118/118/118 28/28/28 27/27/27
f 118/118/118 27/27/27 111/111/111
f 118/118/118 111/111/111 74/74/74
f 118/118/118 74/74/74 73/73/73
f 118/118/118 73/73/73 72/72/72
f 118/118/118 72/72/72 114/114/114
