v -2.442330 0.738355 -1.167839
v -2.444700 0.738283 -1.166863
v -2.442826 0.737215 -1.164217
v -2.440356 0.737347 -1.165634
v -2.438353 0.737628 -1.166523
v -2.440271 0.738532 -1.168216
v -2.441902 0.738862 -1.169065
v -2.443834 0.738945 -1.169375
v -2.446099 0.738953 -1.168827
v -2.446319 0.738623 -1.164904
v -2.447268 0.739004 -1.163070
v -2.446300 0.738163 -1.160678
v -2.444889 0.737652 -1.162300
v -2.447287 0.739177 -1.166835
v -2.447568 0.739243 -1.164897
v -2.439493 0.732581 -1.154594
v -2.441051 0.732908 -1.153231
v -2.438991 0.730661 -1.151169
v -2.437620 0.730361 -1.152384
v -2.435736 0.730076 -1.153924
v -2.437355 0.732270 -1.156326
v -2.439062 0.734249 -1.158828
v -2.441290 0.734597 -1.157007
v -2.442907 0.734973 -1.155566
v -2.435050 0.732282 -1.157861
v -2.433692 0.730096 -1.155274
v -2.432106 0.730197 -1.156233
v -2.433267 0.732384 -1.158956
v -2.434764 0.734424 -1.161555
v -2.436643 0.734284 -1.160425
v -2.438436 0.735981 -1.163090
v -2.440916 0.735884 -1.161499
v -2.436488 0.736215 -1.164190
v -2.443151 0.736299 -1.159621
v -2.444752 0.736772 -1.158113
v -2.435534 0.728043 -1.150382
v -2.436533 0.728313 -1.149444
v -2.434937 0.726892 -1.148747
v -2.433905 0.726242 -1.148972
v -2.432979 0.726027 -1.149804
v -2.434147 0.727796 -1.151554
v -2.432602 0.727846 -1.152539
v -2.431895 0.726107 -1.150449
v -2.431321 0.726649 -1.151405
v -2.431392 0.727967 -1.153226
v -2.442365 0.738104 -1.167927
v -2.444766 0.738032 -1.166930
v -2.446147 0.738764 -1.168875
v -2.443857 0.738756 -1.169439
v -2.441913 0.738723 -1.169118
v -2.440283 0.738346 -1.168293
v -2.438373 0.737444 -1.166604
v -2.440401 0.737100 -1.165729
v -2.442898 0.736968 -1.164292
v -2.446415 0.738377 -1.164949
v -2.447354 0.738823 -1.163092
v -2.447627 0.739108 -1.164915
v -2.447358 0.738992 -1.166865
v -2.444988 0.737409 -1.162355
v -2.446387 0.737984 -1.160710
v -2.439610 0.732359 -1.154692
v -2.441148 0.732743 -1.153297
v -2.442999 0.734802 -1.155623
v -2.441401 0.734367 -1.157094
v -2.439152 0.734017 -1.158930
v -2.437453 0.732046 -1.156439
v -2.435839 0.729858 -1.154044
v -2.437742 0.730145 -1.152490
v -2.439092 0.730500 -1.151241
v -2.435129 0.732058 -1.157987
v -2.436713 0.734052 -1.160541
v -2.434805 0.734250 -1.161650
v -2.433316 0.732216 -1.159058
v -2.432158 0.730034 -1.156340
v -2.433775 0.729877 -1.155407
v -2.438493 0.735741 -1.163194
v -2.440997 0.735644 -1.161587
v -2.436519 0.736036 -1.164277
v -2.443255 0.736061 -1.159692
v -2.444841 0.736596 -1.158157
v -2.435659 0.727830 -1.150489
v -2.436637 0.728155 -1.149517
v -2.434252 0.727581 -1.151677
v -2.433058 0.725865 -1.149896
v -2.434000 0.726083 -1.149052
v -2.435011 0.726774 -1.148802
v -2.432686 0.727630 -1.152676
v -2.431444 0.727805 -1.153336
v -2.431363 0.726529 -1.151485
v -2.431958 0.725945 -1.150553
v -2.436915 0.728333 -1.149162
v -2.434632 0.726438 -1.148284
v -2.439495 0.730690 -1.150795
v -2.435011 0.726774 -1.148802
v -2.431688 0.725456 -1.149799
v -2.431010 0.726195 -1.150948
v -2.432625 0.725365 -1.149262
v -2.431363 0.726529 -1.151485
v -2.439587 0.738509 -1.168378
v -2.441739 0.738941 -1.169338
v -2.437691 0.737640 -1.166858
v -2.441913 0.738723 -1.169118
v -2.447642 0.739280 -1.167491
v -2.447869 0.739354 -1.164829
v -2.446586 0.739092 -1.169502
v -2.447627 0.739108 -1.164915
v -2.447626 0.739051 -1.162466
v -2.446812 0.738255 -1.160149
v -2.433404 0.725571 -1.148537
v -2.431009 0.727935 -1.153505
v -2.431599 0.730158 -1.156602
v -2.444345 0.739058 -1.169915
v -2.435850 0.736214 -1.164598
v -2.434153 0.734394 -1.161975
v -2.445327 0.736852 -1.157628
v -2.443489 0.735022 -1.155110
v -2.441616 0.732944 -1.152805
v -2.432692 0.732343 -1.159368
vn 0.049100 0.936600 0.347000
vn 0.217000 0.953800 0.207700
vn 0.249700 0.934400 0.253900
vn 0.101200 0.919200 0.380600
vn 0.122500 0.910600 0.394500
vn 0.056100 0.937600 0.343100
vn 0.009500 0.952500 0.304500
vn 0.031000 0.967100 0.252500
vn 0.164400 0.977200 0.134000
vn 0.397500 0.913100 0.090900
vn 0.391700 0.915000 0.096200
vn 0.418800 0.890700 0.176600
vn 0.412600 0.898200 0.151600
vn 0.315500 0.947900 0.043400
vn 0.369900 0.928200 0.039300
vn 0.462300 0.805300 0.371200
vn 0.437700 0.805100 0.400200
vn 0.449900 0.786200 0.423600
vn 0.483400 0.784500 0.388300
vn 0.396700 0.790200 0.467100
vn 0.377500 0.815500 0.438700
vn 0.336900 0.861800 0.379200
vn 0.436300 0.844800 0.309800
vn 0.423900 0.839700 0.339300
vn 0.287500 0.817000 0.499800
vn 0.295800 0.797100 0.526300
vn 0.339300 0.793700 0.504900
vn 0.322300 0.812900 0.485100
vn 0.271400 0.850000 0.451500
vn 0.240200 0.857900 0.454100
vn 0.170300 0.896300 0.409400
vn 0.289300 0.905500 0.310400
vn 0.197900 0.885800 0.419800
vn 0.417600 0.879700 0.227500
vn 0.418500 0.870900 0.257600
vn 0.509000 0.771800 0.381100
vn 0.475700 0.771700 0.422100
vn 0.507200 0.756600 0.412500
vn 0.549400 0.731900 0.403000
vn 0.429500 0.741100 0.516100
vn 0.405500 0.777800 0.480200
vn 0.280300 0.787300 0.549200
vn 0.285800 0.749700 0.596800
vn 0.309500 0.769900 0.558100
vn 0.329100 0.781500 0.530000
vn -0.038600 -0.924200 -0.379900
vn -0.226100 -0.948800 -0.220500
vn -0.260500 -0.927100 -0.269400
vn -0.004300 -0.880900 -0.473200
vn 0.079800 -0.833100 -0.547300
vn 0.064600 -0.845900 -0.529300
vn 0.004600 -0.867000 -0.498300
vn -0.089200 -0.916500 -0.389900
vn -0.249600 -0.934400 -0.253900
vn -0.430800 -0.897800 -0.091500
vn -0.596600 -0.801300 -0.043100
vn -0.617000 -0.786100 -0.034800
vn -0.525800 -0.845900 -0.089500
vn -0.424800 -0.893900 -0.143200
vn -0.551100 -0.829600 -0.089500
vn -0.474000 -0.803600 -0.359900
vn -0.550900 -0.786600 -0.278900
vn -0.533700 -0.812500 -0.234200
vn -0.447500 -0.842400 -0.299900
vn -0.337000 -0.861700 -0.379300
vn -0.377600 -0.815400 -0.438800
vn -0.396800 -0.790100 -0.467200
vn -0.496000 -0.783700 -0.373900
vn -0.569000 -0.779000 -0.263400
vn -0.273200 -0.817100 -0.507600
vn -0.227300 -0.857300 -0.461900
vn -0.136700 -0.839300 -0.526200
vn -0.171900 -0.812100 -0.557600
vn -0.151100 -0.807200 -0.570700
vn -0.278300 -0.798400 -0.534000
vn -0.158100 -0.894900 -0.417300
vn -0.289200 -0.905500 -0.310400
vn -0.069200 -0.863600 -0.499400
vn -0.428700 -0.876700 -0.218300
vn -0.530300 -0.832500 -0.160300
vn -0.518900 -0.779400 -0.351100
vn -0.588700 -0.782800 -0.201200
vn -0.400200 -0.785300 -0.472300
vn -0.376200 -0.817200 -0.436600
vn -0.537600 -0.804200 -0.253500
vn -0.596100 -0.786800 -0.159700
vn -0.249400 -0.797600 -0.549200
vn -0.086600 -0.816700 -0.570400
vn -0.045200 -0.824000 -0.564700
vn -0.153300 -0.830100 -0.536100
vn -0.485300 -0.015800 0.874200
vn -0.135200 -0.214600 0.967300
vn -0.605700 0.043600 0.794400
vn -0.596100 -0.786800 -0.159700
vn 0.633000 -0.579000 0.513800
vn 0.941800 -0.287100 0.175000
vn 0.389300 -0.704200 0.593600
vn -0.045200 -0.824000 -0.564700
vn 0.621700 0.365200 -0.692900
vn 0.339600 0.437100 -0.832800
vn 0.768800 0.259700 -0.584300
vn 0.079800 -0.833100 -0.547300
vn -0.856100 0.364900 -0.366000
vn -0.854400 0.517600 0.045200
vn -0.566500 0.228800 -0.791700
vn -0.617000 -0.786100 -0.034800
vn -0.810500 0.461600 0.360500
vn -0.759500 0.362500 0.540100
vn 0.252700 -0.553400 0.793600
vn 0.973500 -0.114500 -0.197900
vn 0.938200 -0.060400 -0.340600
vn -0.064800 0.311600 -0.948000
vn 0.845600 0.157500 -0.510000
vn 0.877400 0.085800 -0.471900
vn -0.720200 0.262800 0.642000
vn -0.699700 0.191800 0.688200
vn -0.674500 0.120100 0.728400
vn 0.902200 0.014100 -0.431100
vt 0.839504 0.118056
vt 0.856743 0.205307
vt 0.741230 0.205307
vt 0.734555 0.106726
vt 0.724541 0.032791
vt 0.813647 0.052618
vt 0.868992 0.081539
vt 0.913398 0.129584
vt 0.940923 0.205307
vt 0.839504 0.292557
vt 0.813647 0.357995
vt 0.724541 0.377822
vt 0.734555 0.303887
vt 0.913398 0.281029
vt 0.868992 0.329074
vt 0.369475 0.299954
vt 0.368286 0.370940
vt 0.245840 0.351447
vt 0.246397 0.288815
vt 0.246768 0.205307
vt 0.370268 0.205307
vt 0.494283 0.205307
vt 0.492822 0.304944
vt 0.490632 0.379672
vt 0.369475 0.110659
vt 0.246397 0.121798
vt 0.245841 0.059166
vt 0.368286 0.039673
vt 0.490632 0.030941
vt 0.492822 0.105669
vt 0.616755 0.103478
vt 0.619174 0.205307
vt 0.613127 0.027106
vt 0.616755 0.307135
vt 0.613126 0.383507
vt 0.123273 0.268175
vt 0.123047 0.315326
vt 0.054743 0.283353
vt 0.030912 0.249131
vt 0.030973 0.205306
vt 0.123423 0.205306
vt 0.123273 0.142438
vt 0.030912 0.161481
vt 0.054744 0.127260
vt 0.123047 0.095287
vt 0.839504 0.118056
vt 0.856743 0.205307
vt 0.968983 0.205307
vt 0.938030 0.133427
vt 0.876123 0.061548
vt 0.805028 0.030806
vt 0.721203 0.008146
vt 0.734555 0.106726
vt 0.741230 0.205307
vt 0.839504 0.292557
vt 0.805028 0.379807
vt 0.876123 0.349065
vt 0.938030 0.277186
vt 0.734555 0.303887
vt 0.721203 0.402467
vt 0.369475 0.299954
vt 0.367890 0.394602
vt 0.489902 0.404581
vt 0.492822 0.304944
vt 0.494283 0.205307
vt 0.370268 0.205307
vt 0.246768 0.205307
vt 0.246397 0.288815
vt 0.245655 0.372324
vt 0.369475 0.110659
vt 0.492822 0.105669
vt 0.489902 0.006032
vt 0.367890 0.016011
vt 0.245655 0.038289
vt 0.246397 0.121798
vt 0.616755 0.103478
vt 0.619174 0.205307
vt 0.611917 0.001649
vt 0.616755 0.307135
vt 0.611917 0.408964
vt 0.123273 0.268175
vt 0.122972 0.331043
vt 0.123423 0.205306
vt 0.000156 0.205306
vt 0.000125 0.242784
vt 0.000064 0.280261
vt 0.123273 0.142438
vt 0.122972 0.079570
vt 0.000064 0.130352
vt 0.000125 0.167829
vt 0.122972 0.331043
vt 0.030806 0.283587
vt 0.245655 0.372324
vt 0.030806 0.283587
vt 0.000125 0.167829
vt 0.030806 0.127026
vt 0.000156 0.205306
vt 0.030806 0.127026
vt 0.805028 0.030806
vt 0.873826 0.071832
vt 0.721203 0.008146
vt 0.873826 0.071832
vt 0.938030 0.277186
vt 0.873826 0.338781
vt 0.968983 0.205307
vt 0.873826 0.338781
vt 0.805028 0.379807
vt 0.721203 0.402467
vt 0.000125 0.242784
vt 0.122972 0.079570
vt 0.245655 0.038289
vt 0.938030 0.133427
vt 0.611917 0.001649
vt 0.489902 0.006032
vt 0.611917 0.408964
vt 0.489902 0.404581
vt 0.367890 0.394602
vt 0.367890 0.016011
f 1/1/1 2/2/2 3/3/3
f 1/1/1 3/3/3 4/4/4
f 1/1/1 4/4/4 5/5/5
f 1/1/1 5/5/5 6/6/6
f 1/1/1 6/6/6 7/7/7
f 1/1/1 7/7/7 8/8/8
f 1/1/1 8/8/8 9/9/9
f 1/1/1 9/9/9 2/2/2
f 10/10/10 11/11/11 12/12/12
f 10/10/10 12/12/12 13/13/13
f 10/10/10 13/13/13 3/3/3
f 10/10/10 3/3/3 2/2/2
f 10/10/10 2/2/2 9/9/9
f 10/10/10 9/9/9 14/14/14
f 10/10/10 14/14/14 15/15/15
f 10/10/10 15/15/15 11/11/11
f 16/16/16 17/17/17 18/18/18
f 16/16/16 18/18/18 19/19/19
f 16/16/16 19/19/19 20/20/20
f 16/16/16 20/20/20 21/21/21
f 16/16/16 21/21/21 22/22/22
f 16/16/16 22/22/22 23/23/23
f 16/16/16 23/23/23 24/24/24
f 16/16/16 24/24/24 17/17/17
f 25/25/25 21/21/21 20/20/20
f 25/25/25 20/20/20 26/26/26
f 25/25/25 26/26/26 27/27/27
f 25/25/25 27/27/27 28/28/28
f 25/25/25 28/28/28 29/29/29
f 25/25/25 29/29/29 30/30/30
f 25/25/25 30/30/30 22/22/22
f 25/25/25 22/22/22 21/21/21
f 31/31/31 32/32/32 22/22/22
f 31/31/31 22/22/22 30/30/30
f 31/31/31 30/30/30 29/29/29
f 31/31/31 29/29/29 33/33/33
f 31/31/31 33/33/33 5/5/5
f 31/31/31 5/5/5 4/4/4
f 31/31/31 4/4/4 3/3/3
f 31/31/31 3/3/3 32/32/32
f 34/34/34 35/35/35 24/24/24
f 34/34/34 24/24/24 23/23/23
f 34/34/34 23/23/23 22/22/22
f 34/34/34 22/22/22 32/32/32
f 34/34/34 32/32/32 3/3/3
f 34/34/34 3/3/3 13/13/13
f 34/34/34 13/13/13 12/12/12
f 34/34/34 12/12/12 35/35/35
f 36/36/36 37/37/37 38/38/38
f 36/36/36 38/38/38 39/39/39
f 36/36/36 39/39/39 40/40/40
f 36/36/36 40/40/40 41/41/41
f 36/36/36 41/41/41 20/20/20
f 36/36/36 20/20/20 19/19/19
f 36/36/36 19/19/19 18/18/18
f 36/36/36 18/18/18 37/37/37
f 42/42/42 41/41/41 40/40/40
f 42/42/42 40/40/40 43/43/43
f 42/42/42 43/43/43 44/44/44
f 42/42/42 44/44/44 45/45/45
f 42/42/42 45/45/45 27/27/27
f 42/42/42 27/27/27 26/26/26
f 42/42/42 26/26/26 20/20/20
f 42/42/42 20/20/20 41/41/41
f 46/46/46 47/47/47 48/48/48
f 46/46/46 48/48/48 49/49/49
f 46/46/46 49/49/49 50/50/50
f 46/46/46 50/50/50 51/51/51
f 46/46/46 51/51/51 52/52/52
f 46/46/46 52/52/52 53/53/53
f 46/46/46 53/53/53 54/54/54
f 46/46/46 54/54/54 47/47/47
f 55/55/55 56/56/56 57/57/57
f 55/55/55 57/57/57 58/58/58
f 55/55/55 58/58/58 48/48/48
f 55/55/55 48/48/48 47/47/47
f 55/55/55 47/47/47 54/54/54
f 55/55/55 54/54/54 59/59/59
f 55/55/55 59/59/59 60/60/60
f 55/55/55 60/60/60 56/56/56
f 61/61/61 62/62/62 63/63/63
f 61/61/61 63/63/63 64/64/64
f 61/61/61 64/64/64 65/65/65
f 61/61/61 65/65/65 66/66/66
f 61/61/61 66/66/66 67/67/67
f 61/61/61 67/67/67 68/68/68
f 61/61/61 68/68/68 69/69/69
f 61/61/61 69/69/69 62/62/62
f 70/70/70 66/66/66 65/65/65
f 70/70/70 65/65/65 71/71/71
f 70/70/70 71/71/71 72/72/72
f 70/70/70 72/72/72 73/73/73
f 70/70/70 73/73/73 74/74/74
f 70/70/70 74/74/74 75/75/75
f 70/70/70 75/75/75 67/67/67
f 70/70/70 67/67/67 66/66/66
f 76/76/76 77/77/77 54/54/54
f 76/76/76 54/54/54 53/53/53
f 76/76/76 53/53/53 52/52/52
f 76/76/76 52/52/52 78/78/78
f 76/76/76 78/78/78 72/72/72
f 76/76/76 72/72/72 71/71/71
f 76/76/76 71/71/71 65/65/65
f 76/76/76 65/65/65 77/77/77
f 79/79/79 80/80/80 60/60/60
f 79/79/79 60/60/60 59/59/59
f 79/79/79 59/59/59 54/54/54
f 79/79/79 54/54/54 77/77/77
f 79/79/79 77/77/77 65/65/65
f 79/79/79 65/65/65 64/64/64
f 79/79/79 64/64/64 63/63/63
f 79/79/79 63/63/63 80/80/80
f 81/81/81 82/82/82 69/69/69
f 81/81/81 69/69/69 68/68/68
f 81/81/81 68/68/68 67/67/67
f 81/81/81 67/67/67 83/83/83
f 81/81/81 83/83/83 84/84/84
f 81/81/81 84/84/84 85/85/85
f 81/81/81 85/85/85 86/86/86
f 81/81/81 86/86/86 82/82/82
f 87/87/87 83/83/83 67/67/67
f 87/87/87 67/67/67 75/75/75
f 87/87/87 75/75/75 74/74/74
f 87/87/87 74/74/74 88/88/88
f 87/87/87 88/88/88 89/89/89
f 87/87/87 89/89/89 90/90/90
f 87/87/87 90/90/90 84/84/84
f 87/87/87 84/84/84 83/83/83
f 91/91/91 92/92/92 38/38/38
f 91/91/91 38/38/38 37/37/37
f 91/91/91 37/37/37 18/18/18
f 91/91/91 18/18/18 93/93/93
f 91/91/91 93/93/93 69/69/69
f 91/91/91 69/69/69 82/82/82
f 91/91/91 82/82/82 94/94/94
f 91/91/91 94/94/94 92/92/92
f 95/95/95 96/96/96 44/44/44
f 95/95/95 44/44/44 43/43/43
f 95/95/95 43/43/43 40/40/40
f 95/95/95 40/40/40 97/97/97
f 95/95/95 97/97/97 84/84/84
f 95/95/95 84/84/84 90/90/90
f 95/95/95 90/90/90 98/98/98
f 95/95/95 98/98/98 96/96/96
f 99/99/99 100/100/100 7/7/7
f 99/99/99 7/7/7 6/6/6
f 99/99/99 6/6/6 5/5/5
f 99/99/99 5/5/5 101/101/101
f 99/99/99 101/101/101 52/52/52
f 99/99/99 52/52/52 51/51/51
f 99/99/99 51/51/51 102/102/102
f 99/99/99 102/102/102 100/100/100
f 103/103/103 104/104/104 15/15/15
f 103/103/103 15/15/15 14/14/14
f 103/103/103 14/14/14 9/9/9
f 103/103/103 9/9/9 105/105/105
f 103/103/103 105/105/105 48/48/48
f 103/103/103 48/48/48 58/58/58
f 103/103/103 58/58/58 106/106/106
f 103/103/103 106/106/106 104/104/104
f 107/107/107 108/108/108 12/12/12
f 107/107/107 12/12/12 11/11/11
f 107/107/107 11/11/11 15/15/15
f 107/107/107 15/15/15 104/104/104
f 107/107/107 104/104/104 106/106/106
f 107/107/107 106/106/106 56/56/56
f 107/107/107 56/56/56 60/60/60
f 107/107/107 60/60/60 108/108/108
f 109/109/109 97/97/97 40/40/40
f 109/109/109 40/40/40 39/39/39
f 109/109/109 39/39/39 38/38/38
f 109/109/109 38/38/38 92/92/92
f 109/109/109 92/92/92 94/94/94
f 109/109/109 94/94/94 85/85/85
f 109/109/109 85/85/85 84/84/84
f 109/109/109 84/84/84 97/97/97
f 110/110/110 111/111/111 27/27/27
f 110/110/110 27/27/27 45/45/45
f 110/110/110 45/45/45 44/44/44
f 110/110/110 44/44/44 96/96/96
f 110/110/110 96/96/96 98/98/98
f 110/110/110 98/98/98 88/88/88
f 110/110/110 88/88/88 74/74/74
f 110/110/110 74/74/74 111/111/111
f 112/112/112 105/105/105 9/9/9
f 112/112/112 9/9/9 8/8/8
f 112/112/112 8/8/8 7/7/7
f 112/112/112 7/7/7 100/100/100
f 112/112/112 100/100/100 102/102/102
f 112/112/112 102/102/102 49/49/49
f 112/112/112 49/49/49 48/48/48
f 112/112/112 48/48/48 105/105/105
f 113/113/113 101/101/101 5/5/5
f 113/113/113 5/5/5 33/33/33
f 113/113/113 33/33/33 29/29/29
f 113/113/113 29/29/29 114/114/114
f 113/113/113 114/114/114 72/72/72
f 113/113/113 72/72/72 78/78/78
f 113/113/113 78/78/78 52/52/52
f 113/113/113 52/52/52 101/101/101
f 115/115/115 116/116/116 24/24/24
f 115/115/115 24/24/24 35/35/35
f 115/115/115 35/35/35 12/12/12
f 115/115/115 12/12/12 108/108/108
f 115/115/115 108/108/108 60/60/60
f 115/115/115 60/60/60 80/80/80
f 115/115/115 80/80/80 63/63/63
f 115/115/115 63/63/63 116/116/116
f 117/117/117 93/93/93 18/18/18
f 117/117/117 18/18/18 17/17/17
f 117/117/117 17/17/17 24/24/24
f 117/117/117 24/24/24 116/116/116
f 117/117/117 116/116/116 63/63/63
f 117/117/117 63/63/63 62/62/62
f 117/117/117 62/62/62 69/69/69
f 117/117/117 69/69/69 93/93/93
f 118/118/118 114/114/114 29/29/29
f 118/118/118 29/29/29 28/28/28
f 118/118/118 28/28/28 27/27/27
f 118/118/118 27/27/27 111/111/111
f 118/118/118 111/111/111 74/74/74
f 118/118/118 74/74/74 73/73/73
f 118/118/118 73/73/73 72/72/72
f 118/118/118 72/72/72 114/114/114
