v -2.455862 0.733210 -1.093968
v -2.457150 0.731822 -1.091492
v -2.453111 0.731639 -1.090558
v -2.452091 0.733154 -1.093503
v -2.451144 0.734568 -1.095581
v -2.454442 0.734532 -1.095627
v -2.456620 0.734015 -1.095252
v -2.458555 0.733057 -1.094246
v -2.460104 0.731820 -1.092222
v -2.457232 0.731274 -1.088424
v -2.456844 0.731138 -1.085905
v -2.453871 0.730712 -1.084538
v -2.453647 0.730955 -1.087203
v -2.459740 0.731381 -1.089447
v -2.458565 0.731266 -1.087379
v -2.441109 0.728258 -1.085122
v -2.441576 0.727740 -1.082672
v -2.437314 0.726387 -1.082831
v -2.436910 0.726829 -1.085006
v -2.436311 0.727575 -1.087827
v -2.440424 0.729117 -1.088305
v -2.444596 0.730378 -1.088895
v -2.445309 0.729508 -1.085555
v -2.445788 0.729010 -1.082975
v -2.439584 0.730414 -1.091296
v -2.435561 0.728736 -1.090466
v -2.434951 0.729727 -1.092398
v -2.438904 0.731516 -1.093489
v -2.442993 0.732960 -1.094290
v -2.443714 0.731763 -1.092013
v -2.447962 0.732674 -1.092800
v -2.448876 0.731188 -1.089669
v -2.447200 0.734011 -1.095061
v -2.449580 0.730387 -1.086248
v -2.450037 0.730002 -1.083579
v -2.432640 0.725416 -1.085264
v -2.432918 0.725148 -1.083611
v -2.430420 0.724463 -1.084487
v -2.429424 0.724324 -1.085610
v -2.429154 0.724610 -1.087094
v -2.432212 0.725925 -1.087391
v -2.431634 0.726839 -1.089339
v -2.428734 0.725299 -1.088401
v -2.429180 0.726217 -1.089511
v -2.431153 0.727642 -1.090755
v -2.455854 0.732920 -1.094116
v -2.457151 0.731514 -1.091599
v -2.460101 0.731589 -1.092302
v -2.458543 0.732840 -1.094358
v -2.456611 0.733859 -1.095343
v -2.454431 0.734325 -1.095758
v -2.451144 0.734359 -1.095709
v -2.452096 0.732863 -1.093650
v -2.453125 0.731333 -1.090668
v -2.457243 0.730955 -1.088489
v -2.456858 0.730895 -1.085932
v -2.458572 0.731087 -1.087404
v -2.459744 0.731142 -1.089493
v -2.453671 0.730638 -1.087276
v -2.453895 0.730470 -1.084573
v -2.441190 0.727955 -1.085217
v -2.441639 0.727509 -1.082729
v -2.445838 0.728775 -1.083027
v -2.445372 0.729200 -1.085645
v -2.444652 0.730079 -1.089013
v -2.440498 0.728822 -1.088426
v -2.436398 0.727284 -1.087950
v -2.437003 0.726530 -1.085102
v -2.437387 0.726159 -1.082889
v -2.439651 0.730129 -1.091443
v -2.443763 0.731475 -1.092159
v -2.443026 0.732750 -1.094413
v -2.438951 0.731309 -1.093613
v -2.435007 0.729522 -1.092523
v -2.435641 0.728455 -1.090615
v -2.447988 0.732384 -1.092946
v -2.448910 0.730885 -1.089784
v -2.447216 0.733800 -1.095187
v -2.449623 0.730074 -1.086329
v -2.450073 0.729763 -1.083623
v -2.432738 0.725118 -1.085359
v -2.432994 0.724921 -1.083667
v -2.432303 0.725636 -1.087514
v -2.429223 0.724393 -1.087187
v -2.429498 0.724101 -1.085679
v -2.430476 0.724296 -1.084532
v -2.431718 0.726560 -1.089490
v -2.431212 0.727440 -1.090883
v -2.429224 0.726066 -1.089602
v -2.428797 0.725091 -1.088516
v -2.433045 0.724957 -1.083081
v -2.429622 0.724129 -1.084401
v -2.437482 0.726137 -1.082129
v -2.430476 0.724296 -1.084532
v -2.427796 0.724694 -1.088140
v -2.428379 0.725886 -1.089434
v -2.428166 0.724075 -1.087037
v -2.429224 0.726066 -1.089602
v -2.453963 0.734883 -1.096242
v -2.456717 0.734196 -1.095594
v -2.450827 0.734948 -1.096335
v -2.456611 0.733859 -1.095343
v -2.460577 0.731310 -1.089808
v -2.458821 0.731222 -1.087076
v -2.461087 0.731717 -1.092501
v -2.458572 0.731087 -1.087404
v -2.456722 0.730984 -1.085072
v -2.453958 0.730523 -1.083660
v -2.428385 0.723861 -1.085755
v -2.431018 0.727822 -1.091287
v -2.434772 0.729968 -1.093101
v -2.459446 0.732909 -1.094388
v -2.446953 0.734364 -1.095874
v -2.442767 0.733267 -1.095107
v -2.450206 0.729766 -1.082705
v -2.445971 0.728739 -1.082135
v -2.441760 0.727463 -1.081878
v -2.438697 0.731793 -1.094278
vn -0.077200 0.853900 0.514600
vn -0.049400 0.946700 0.318300
vn 0.008800 0.943400 0.331600
vn -0.013600 0.861300 0.507900
vn 0.013000 0.863100 0.504800
vn -0.075000 0.858100 0.508000
vn -0.136900 0.850900 0.507100
vn -0.158500 0.874400 0.458400
vn -0.140100 0.945000 0.295300
vn 0.021200 0.993000 0.116400
vn 0.019700 0.992000 0.124300
vn 0.096600 0.981400 0.166100
vn 0.074300 0.985600 0.151900
vn -0.078200 0.988000 0.133300
vn -0.035100 0.994800 0.094900
vn 0.276400 0.921800 0.271900
vn 0.276800 0.910200 0.308100
vn 0.306300 0.898400 0.314600
vn 0.309100 0.912400 0.268100
vn 0.293900 0.877500 0.378900
vn 0.254100 0.891900 0.374200
vn 0.172700 0.915800 0.362400
vn 0.206700 0.946200 0.248800
vn 0.217700 0.935800 0.277400
vn 0.227100 0.852000 0.471800
vn 0.256100 0.837600 0.482500
vn 0.275100 0.854300 0.441000
vn 0.244200 0.864100 0.440000
vn 0.174700 0.874900 0.451700
vn 0.151300 0.867900 0.473000
vn 0.061000 0.871500 0.486500
vn 0.081500 0.934500 0.346400
vn 0.090600 0.874400 0.476700
vn 0.130800 0.970200 0.203800
vn 0.152900 0.962300 0.224700
vn 0.327200 0.912700 0.244800
vn 0.328800 0.897000 0.295200
vn 0.350500 0.897900 0.266300
vn 0.383200 0.894800 0.228900
vn 0.364200 0.847600 0.385900
vn 0.312500 0.870100 0.381000
vn 0.262600 0.821400 0.506200
vn 0.308800 0.789600 0.530100
vn 0.294800 0.818900 0.492400
vn 0.287400 0.838500 0.462900
vn 0.060200 -0.837800 -0.542700
vn 0.033400 -0.946100 -0.322000
vn -0.028700 -0.941500 -0.335800
vn 0.012400 -0.782300 -0.622700
vn 0.010100 -0.700700 -0.713300
vn 0.014700 -0.719300 -0.694500
vn -0.001500 -0.765600 -0.643300
vn 0.015500 -0.853400 -0.521000
vn -0.008700 -0.943400 -0.331500
vn -0.050500 -0.994200 -0.094500
vn -0.171900 -0.983200 0.061200
vn -0.186700 -0.978900 0.083200
vn -0.134800 -0.990500 -0.026500
vn -0.079200 -0.987300 -0.137500
vn -0.158400 -0.987300 -0.008100
vn -0.278400 -0.925600 -0.256200
vn -0.289200 -0.946100 -0.145500
vn -0.240600 -0.962200 -0.127000
vn -0.209400 -0.949300 -0.234300
vn -0.172900 -0.915800 -0.362400
vn -0.254300 -0.891800 -0.374200
vn -0.294000 -0.877400 -0.379000
vn -0.309500 -0.917500 -0.249600
vn -0.295200 -0.947700 -0.121300
vn -0.221700 -0.845500 -0.485700
vn -0.147200 -0.861400 -0.486000
vn -0.128500 -0.803800 -0.580800
vn -0.182200 -0.794900 -0.578800
vn -0.177200 -0.780800 -0.599000
vn -0.248000 -0.830700 -0.498400
vn -0.057700 -0.864600 -0.499000
vn -0.081500 -0.934500 -0.346400
vn -0.055800 -0.795600 -0.603200
vn -0.134100 -0.972600 -0.189800
vn -0.185900 -0.979600 -0.076200
vn -0.313200 -0.924300 -0.217900
vn -0.269700 -0.960900 -0.062700
vn -0.301200 -0.874600 -0.379800
vn -0.251200 -0.892800 -0.373800
vn -0.258000 -0.956200 -0.137800
vn -0.248100 -0.968400 -0.027000
vn -0.237100 -0.816800 -0.525900
vn -0.128000 -0.760500 -0.636600
vn -0.092600 -0.748500 -0.656600
vn -0.149600 -0.802900 -0.577000
vn 0.197200 -0.244400 0.949400
vn 0.571500 -0.266200 0.776200
vn 0.042100 -0.244100 0.968800
vn -0.248100 -0.968400 -0.027000
vn 0.965200 -0.240600 -0.102600
vn 0.875600 0.163200 -0.454500
vn 0.884500 -0.463000 0.056800
vn -0.092600 -0.748500 -0.656600
vn -0.110000 0.615100 -0.780700
vn -0.421000 0.555000 -0.717400
vn 0.097500 0.585300 -0.804900
vn 0.010100 -0.700700 -0.713300
vn -0.958600 -0.052900 0.279500
vn -0.758300 0.078300 0.647200
vn -0.966900 -0.038700 -0.252300
vn -0.186700 -0.978900 0.083200
vn -0.514400 0.043500 0.856400
vn -0.334000 -0.024600 0.942300
vn 0.857900 -0.392300 0.331800
vn 0.608900 0.337700 -0.717700
vn 0.477900 0.372100 -0.795700
vn -0.735200 0.262900 -0.624800
vn 0.233100 0.527400 -0.817000
vn 0.304000 0.477100 -0.824500
vn -0.209100 -0.097500 0.973000
vn -0.141400 -0.152300 0.978100
vn -0.073800 -0.205600 0.975800
vn 0.371400 0.423600 -0.826200
vt 0.839504 0.118056
vt 0.856743 0.205307
vt 0.741230 0.205307
vt 0.734555 0.106726
vt 0.724541 0.032791
vt 0.813647 0.052618
vt 0.868992 0.081539
vt 0.913398 0.129584
vt 0.940923 0.205307
vt 0.839504 0.292557
vt 0.813647 0.357995
vt 0.724541 0.377822
vt 0.734555 0.303887
vt 0.913398 0.281029
vt 0.868992 0.329074
vt 0.369475 0.299954
vt 0.368286 0.370940
vt 0.245840 0.351447
vt 0.246397 0.288815
vt 0.246768 0.205307
vt 0.370268 0.205307
vt 0.494283 0.205307
vt 0.492822 0.304944
vt 0.490632 0.379672
vt 0.369475 0.110659
vt 0.246397 0.121798
vt 0.245841 0.059166
vt 0.368286 0.039673
vt 0.490632 0.030941
vt 0.492822 0.105669
vt 0.616755 0.103478
vt 0.619174 0.205307
vt 0.613127 0.027106
vt 0.616755 0.307135
vt 0.613126 0.383507
vt 0.123273 0.268175
vt 0.123047 0.315326
vt 0.054743 0.283353
vt 0.030912 0.249131
vt 0.030973 0.205306
vt 0.123423 0.205306
vt 0.123273 0.142438
vt 0.030912 0.161481
vt 0.054744 0.127260
vt 0.123047 0.095287
vt 0.839504 0.118056
vt 0.856743 0.205307
vt 0.968983 0.205307
vt 0.938030 0.133427
vt 0.876123 0.061548
vt 0.805028 0.030806
vt 0.721203 0.008146
vt 0.734555 0.106726
vt 0.741230 0.205307
vt 0.839504 0.292557
vt 0.805028 0.379807
vt 0.876123 0.349065
vt 0.938030 0.277186
vt 0.734555 0.303887
vt 0.721203 0.402467
vt 0.369475 0.299954
vt 0.367890 0.394602
vt 0.489902 0.404581
vt 0.492822 0.304944
vt 0.494283 0.205307
vt 0.370268 0.205307
vt 0.246768 0.205307
vt 0.246397 0.288815
vt 0.245655 0.372324
vt 0.369475 0.110659
vt 0.492822 0.105669
vt 0.489902 0.006032
vt 0.367890 0.016011
vt 0.245655 0.038289
vt 0.246397 0.121798
vt 0.616755 0.103478
vt 0.619174 0.205307
vt 0.611917 0.001649
vt 0.616755 0.307135
vt 0.611917 0.408964
vt 0.123273 0.268175
vt 0.122972 0.331043
vt 0.123423 0.205306
vt 0.000156 0.205306
vt 0.000125 0.242784
vt 0.000064 0.280261
vt 0.123273 0.142438
vt 0.122972 0.079570
vt 0.000064 0.130352
vt 0.000125 0.167829
vt 0.122972 0.331043
vt 0.030806 0.283587
vt 0.245655 0.372324
vt 0.030806 0.283587
vt 0.000125 0.167829
vt 0.030806 0.127026
vt 0.000156 0.205306
vt 0.030806 0.127026
vt 0.805028 0.030806
vt 0.873826 0.071832
vt 0.721203 0.008146
vt 0.873826 0.071832
vt 0.938030 0.277186
vt 0.873826 0.338781
vt 0.968983 0.205307
vt 0.873826 0.338781
vt 0.805028 0.379807
vt 0.721203 0.402467
vt 0.000125 0.242784
vt 0.122972 0.079570
vt 0.245655 0.038289
vt 0.938030 0.133427
vt 0.611917 0.001649
vt 0.489902 0.006032
vt 0.611917 0.408964
vt 0.489902 0.404581
vt 0.367890 0.394602
vt 0.367890 0.016011
f 1/1/1 2/2/2 3/3/3
f 1/1/1 3/3/3 4/4/4
f 1/1/1 4/4/4 5/5/5
f 1/1/1 5/5/5 6/6/6
f 1/1/1 6/6/6 7/7/7
f 1/1/1 7/7/7 8/8/8
f 1/1/1 8/8/8 9/9/9
f 1/1/1 9/9/9 2/2/2
f 10/10/10 11/11/11 12/12/12
f 10/10/10 12/12/12 13/13/13
f 10/10/10 13/13/13 3/3/3
f 10/10/10 3/3/3 2/2/2
f 10/10/10 2/2/2 9/9/9
f 10/10/10 9/9/9 14/14/14
f 10/10/10 14/14/14 15/15/15
f 10/10/10 15/15/15 11/11/11
f 16/16/16 17/17/17 18/18/18
f 16/16/16 18/18/18 19/19/19
f 16/16/16 19/19/19 20/20/20
f 16/16/16 20/20/20 21/21/21
f 16/16/16 21/21/21 22/22/22
f 16/16/16 22/22/22 23/23/23
f 16/16/16 23/23/23 24/24/24
f 16/16/16 24/24/24 17/17/17
f 25/25/25 21/21/21 20/20/20
f 25/25/25 20/20/20 26/26/26
f 25/25/25 26/26/26 27/27/27
f 25/25/25 27/27/27 28/28/28
f 25/25/25 28/28/28 29/29/29
f 25/25/25 29/29/29 30/30/30
f 25/25/25 30/30/30 22/22/22
f 25/25/25 22/22/22 21/21/21
f 31/31/31 32/32/32 22/22/22
f 31/31/31 22/22/22 30/30/30
f 31/31/31 30/30/30 29/29/29
f 31/31/31 29/29/29 33/33/33
f 31/31/31 33/33/33 5/5/5
f 31/31/31 5/5/5 4/4/4
f 31/31/31 4/4/4 3/3/3
f 31/31/31 3/3/3 32/32/32
f 34/34/34 35/35/35 24/24/24
f 34/34/34 24/24/24 23/23/23
f 34/34/34 23/23/23 22/22/22
f 34/34/34 22/22/22 32/32/32
f 34/34/34 32/32/32 3/3/3
f 34/34/34 3/3/3 13/13/13
f 34/34/34 13/13/13 12/12/12
f 34/34/34 12/12/12 35/35/35
f 36/36/36 37/37/37 38/38/38
f 36/36/36 38/38/38 39/39/39
f 36/36/36 39/39/39 40/40/40
f 36/36/36 40/40/40 41/41/41
f 36/36/36 41/41/41 20/20/20
f 36/36/36 20/20/20 19/19/19
f 36/36/36 19/19/19 18/18/18
f 36/36/36 18/18/18 37/37/37
f 42/42/42 41/41/41 40/40/40
f 42/42/42 40/40/40 43/43/43
f 42/42/42 43/43/43 44/44/44
f 42/42/42 44/44/44 45/45/45
f 42/42/42 45/45/45 27/27/27
f 42/42/42 27/27/27 26/26/26
f 42/42/42 26/26/26 20/20/20
f 42/42/42 20/20/20 41/41/41
f 46/46/46 47/47/47 48/48/48
f 46/46/46 48/48/48 49/49/49
f 46/46/46 49/49/49 50/50/50
f 46/46/46 50/50/50 51/51/51
f 46/46/46 51/51/51 52/52/52
f 46/46/46 52/52/52 53/53/53
f 46/46/46 53/53/53 54/54/54
f 46/46/46 54/54/54 47/47/47
f 55/55/55 56/56/56 57/57/57
f 55/55/55 57/57/57 58/58/58
f 55/55/55 58/58/58 48/48/48
f 55/55/55 48/48/48 47/47/47
f 55/55/55 47/47/47 54/54/54
f 55/55/55 54/54/54 59/59/59
f 55/55/55 59/59/59 60/60/60
f 55/55/55 60/60/60 56/56/56
f 61/61/61 62/62/62 63/63/63
f 61/61/61 63/63/63 64/64/64
f 61/61/61 64/64/64 65/65/65
f 61/61/61 65/65/65 66/66/66
f 61/61/61 66/66/66 67/67/67
f 61/61/61 67/67/67 68/68/68
f 61/61/61 68/68/68 69/69/69
f 61/61/61 69/69/69 62/62/62
f 70/70/70 66/66/66 65/65/65
f 70/70/70 65/65/65 71/71/71
f 70/70/70 71/71/71 72/72/72
f 70/70/70 72/72/72 73/73/73
f 70/70/70 73/73/73 74/74/74
f 70/70/70 74/74/74 75/75/75
f 70/70/70 75/75/75 67/67/67
f 70/70/70 67/67/67 66/66/66
f 76/76/76 77/77/77 54/54/54
f 76/76/76 54/54/54 53/53/53
f 76/76/76 53/53/53 52/52/52
f 76/76/76 52/52/52 78/78/78
f 76/76/76 78/78/78 72/72/72
f 76/76/76 72/72/72 71/71/71
f 76/76/76 71/71/71 65/65/65
f 76/76/76 65/65/65 77/77/77
f 79/79/79 80/80/80 60/60/60
f 79/79/79 60/60/60 59/59/59
f 79/79/79 59/59/59 54/54/54
f 79/79/79 54/54/54 77/77/77
f 79/79/79 77/77/77 65/65/65
f 79/79/79 65/65/65 64/64/64
f 79/79/79 64/64/64 63/63/63
f 79/79/79 63/63/63 80/80/80
f 81/81/81 82/82/82 69/69/69
f 81/81/81 69/69/69 68/68/68
f 81/81/81 68/68/68 67/67/67
f 81/81/81 67/67/67 83/83/83
f 81/81/81 83/83/83 84/84/84
f 81/81/81 84/84/84 85/85/85
f 81/81/81 85/85/85 86/86/86
f 81/81/81 86/86/86 82/82/82
f 87/87/87 83/83/83 67/67/67
f 87/87/87 67/67/67 75/75/75
f 87/87/87 75/75/75 74/74/74
f 87/87/87 74/74/74 88/88/88
f 87/87/87 88/88/88 89/89/89
f 87/87/87 89/89/89 90/90/90
f 87/87/87 90/90/90 84/84/84
f 87/87/87 84/84/84 83/83/83
f 91/91/91 92/92/92 38/38/38
f 91/91/91 38/38/38 37/37/37
f 91/91/91 37/37/37 18/18/18
f 91/91/91 18/18/18 93/93/93
f 91/91/91 93/93/93 69/69/69
f 91/91/91 69/69/69 82/82/82
f 91/91/91 82/82/82 94/94/94
f 91/91/91 94/94/94 92/92/92
f 95/95/95 96/96/96 44/44/44
f 95/95/95 44/44/44 43/43/43
f 95/95/95 43/43/43 40/40/40
f 95/95/95 40/40/40 97/97/97
f 95/95/95 97/97/97 84/84/84
f 95/95/95 84/84/84 90/90/90
f 95/95/95 90/90/90 98/98/98
f 95/95/95 98/98/98 96/96/96
f 99/99/99 100/100/100 7/7/7
f 99/99/99 7/7/7 6/6/6
f 99/99/99 6/6/6 5/5/5
f 99/99/99 5/5/5 101/101/101
f 99/99/99 101/101/101 52/52/52
f 99/99/99 52/52/52 51/51/51
f 99/99/99 51/51/51 102/102/102
f 99/99/99 102/102/102 100/100/100
f 103/103/103 104/104/104 15/15/15
f 103/103/103 15/15/15 14/14/14
f 103/103/103 14/14/14 9/9/9
f 103/103/103 9/9/9 105/105/105
f 103/103/103 105/105/105 48/48/48
f 103/103/103 48/48/48 58/58/58
f 103/103/103 58/58/58 106/106/106
f 103/103/103 106/106/106 104/104/104
f 107/107/107 108/108/108 12/12/12
f 107/107/107 12/12/12 11/11/11
f 107/107/107 11/11/11 15/15/15
f 107/107/107 15/15/15 104/104/104
f 107/107/107 104/104/104 106/106/106
f 107/107/107 106/106/106 56/56/56
f 107/107/107 56/56/56 60/60/60
f 107/107/107 60/60/60 108/108/108
f 109/109/109 97/97/97 40/40/40
f 109/109/109 40/40/40 39/39/39
f 109/109/109 39/39/39 38/38/38
f 109/109/109 38/38/38 92/92/92
f 109/109/109 92/92/92 94/94/94
f 109/109/109 94/94/94 85/85/85
f 109/109/109 85/85/85 84/84/84
f 109/109/109 84/84/84 97/97/97
f 110/110/110 111/111/111 27/27/27
f 110/110/110 27/27/27 45/45/45
f 110/110/110 45/45/45 44/44/44
f 110/110/110 44/44/44 96/96/96
f 110/110/110 96/96/96 98/98/98
f 110/110/110 98/98/98 88/88/88
f 110/110/110 88/88/88 74/74/74
f 110/110/110 74/74/74 111/111/111
f 112/112/112 105/105/105 9/9/9
f 112/112/112 9/9/9 8/8/8
f 112/112/112 8/8/8 7/7/7
f 112/112/112 7/7/7 100/100/100
f 112/112/112 100/100/100 102/102/102
f 112/112/112 102/102/102 49/49/49
f 112/112/112 49/49/49 48/48/48
f 112/112/112 48/48/48 105/105/105
f 113/113/113 101/101/101 5/5/5
f 113/113/113 5/5/5 33/33/33
f 113/113/113 33/33/33 29/29/29
f 113/113/113 29/29/29 114/114/114
f 113/113/113 114/114/114 72/72/72
f 113/113/113 72/72/72 78/78/78
f 113/113/113 78/78/78 52/52/52
f 113/113/113 52/52/52 101/101/101
f 115/115/115 116/116/116 24/24/24
f 115/115/115 24/24/24 35/35/35
f 115/115/115 35/35/35 12/12/12
f 115/115/115 12/12/12 108/108/108
f 115/115/115 108/108/108 60/60/60
f 115/115/115 60/60/60 80/80/80
f 115/115/115 80/80/80 63/63/63
f 115/115/115 63/63/63 116/116/116
f 117/117/117 93/93/93 18/18/18
f 117/117/117 18/18/18 17/17/17
f 117/117/117 17/17/17 24/24/24
f 117/117/117 24/24/24 116/116/116
f 117/117/117 116/116/116 63/63/63
f 117/117/117 63/63/63 62/62/62
f 117/117/117 62/62/62 69/69/69
f 117/117/117 69/69/69 93/93/93
f 118/118/118 114/114/114 29/29/29
f 118/118/118 29/29/29 28/28/28
f 118/118/118 28/28/28 27/27/27
f 118/118/118 27/27/27 111/111/111
f 118/118/118 111/111/111 74/74/74
f 118/118/118 74/74/74 73/73/73
f 118/118/118 73/73/73 72/72/72
f 118/118/118 72/72/72 114/114/114
