v -2.305577 0.771860 -1.219010
v -2.303232 0.771151 -1.219454
v -2.304951 0.768983 -1.221279
v -2.307419 0.769981 -1.220522
v -2.309380 0.770793 -1.220209
v -2.307563 0.772319 -1.219064
v -2.306024 0.772947 -1.218338
v -2.304182 0.773072 -1.217881
v -2.301963 0.772661 -1.218035
v -2.301483 0.770295 -1.221006
v -2.300384 0.769575 -1.222564
v -2.301225 0.767675 -1.224185
v -2.302767 0.768202 -1.222790
v -2.300639 0.771717 -1.219608
v -2.300211 0.770724 -1.221173
v -2.307943 0.760295 -1.227073
v -2.306302 0.759748 -1.228143
v -2.308383 0.756945 -1.228904
v -2.309830 0.757424 -1.227943
v -2.311794 0.758117 -1.226794
v -2.310169 0.761083 -1.225787
v -2.308493 0.763923 -1.224576
v -2.306169 0.763112 -1.225941
v -2.304460 0.762560 -1.227092
v -2.312502 0.762037 -1.224850
v -2.313861 0.758965 -1.225978
v -2.315447 0.759646 -1.225460
v -2.314289 0.762802 -1.224249
v -2.312815 0.765754 -1.223019
v -2.310937 0.764935 -1.223616
v -2.309224 0.767627 -1.222115
v -2.306729 0.766565 -1.223029
v -2.311154 0.768511 -1.221599
v -2.304386 0.765778 -1.224474
v -2.302676 0.765270 -1.225734
v -2.311950 0.754597 -1.228623
v -2.310884 0.754262 -1.229392
v -2.312531 0.752828 -1.229421
v -2.313616 0.752478 -1.229034
v -2.314595 0.752798 -1.228369
v -2.313403 0.755098 -1.227726
v -2.314958 0.755747 -1.227156
v -2.315677 0.753266 -1.228029
v -2.316240 0.754246 -1.227613
v -2.316160 0.756279 -1.226820
v -2.305578 0.771703 -1.218803
v -2.303203 0.770980 -1.219261
v -2.301943 0.772530 -1.217891
v -2.304187 0.772952 -1.217727
v -2.306034 0.772862 -1.218222
v -2.307579 0.772209 -1.218903
v -2.309388 0.770686 -1.220045
v -2.307412 0.769829 -1.220310
v -2.304916 0.768819 -1.221080
v -2.301424 0.770114 -1.220829
v -2.300324 0.769435 -1.222441
v -2.300171 0.770621 -1.221080
v -2.300595 0.771579 -1.219479
v -2.302705 0.768029 -1.222605
v -2.301165 0.767542 -1.224055
v -2.307865 0.760161 -1.226863
v -2.306233 0.759644 -1.227991
v -2.304395 0.762447 -1.226945
v -2.306097 0.762966 -1.225737
v -2.308441 0.763784 -1.224361
v -2.310110 0.760956 -1.225566
v -2.311730 0.757999 -1.226570
v -2.309747 0.757298 -1.227729
v -2.308311 0.756847 -1.228750
v -2.312463 0.761918 -1.224621
v -2.310907 0.764804 -1.223391
v -2.312802 0.765661 -1.222846
v -2.314270 0.762717 -1.224073
v -2.315424 0.759567 -1.225281
v -2.313817 0.758855 -1.225744
v -2.309206 0.767485 -1.221897
v -2.306686 0.766412 -1.222822
v -2.311152 0.768411 -1.221431
v -2.304320 0.765617 -1.224280
v -2.302614 0.765146 -1.225595
v -2.311863 0.754474 -1.228408
v -2.310809 0.754166 -1.229238
v -2.313337 0.754982 -1.227500
v -2.314546 0.752712 -1.228199
v -2.313550 0.752386 -1.228874
v -2.312478 0.752758 -1.229305
v -2.314914 0.755641 -1.226921
v -2.316137 0.756203 -1.226640
v -2.316221 0.754189 -1.227480
v -2.315645 0.753187 -1.227852
v -2.310494 0.754107 -1.229581
v -2.312840 0.752231 -1.229598
v -2.307866 0.756741 -1.229157
v -2.312478 0.752758 -1.229305
v -2.315902 0.752404 -1.228241
v -2.316556 0.753652 -1.227786
v -2.314971 0.751993 -1.228508
v -2.316221 0.754189 -1.227480
v -2.308235 0.772425 -1.219009
v -2.306193 0.773166 -1.218181
v -2.310040 0.771018 -1.220031
v -2.306034 0.772862 -1.218222
v -2.300338 0.772129 -1.219086
v -2.299903 0.770761 -1.221247
v -2.301531 0.773106 -1.217498
v -2.300171 0.770621 -1.221080
v -2.299988 0.769272 -1.223031
v -2.300681 0.767440 -1.224594
v -2.314141 0.751731 -1.229100
v -2.316553 0.756423 -1.226627
v -2.315968 0.759839 -1.225207
v -2.303720 0.773422 -1.217437
v -2.311799 0.768762 -1.221352
v -2.313437 0.765987 -1.222742
v -2.302075 0.765045 -1.226093
v -2.303859 0.762325 -1.227412
v -2.305722 0.759519 -1.228434
v -2.314878 0.763019 -1.223969
vn 0.092400 0.594300 -0.798900
vn -0.082800 0.694700 -0.714500
vn -0.113700 0.655100 -0.746900
vn 0.041500 0.564400 -0.824400
vn 0.020600 0.550900 -0.834300
vn 0.085300 0.597800 -0.797100
vn 0.130200 0.628700 -0.766700
vn 0.106400 0.670600 -0.734200
vn -0.033800 0.751600 -0.658700
vn -0.275600 0.735100 -0.619400
vn -0.269400 0.733400 -0.624100
vn -0.292600 0.670700 -0.681600
vn -0.287500 0.690300 -0.663900
vn -0.194100 0.785500 -0.587600
vn -0.250800 0.774300 -0.580900
vn -0.330300 0.495200 -0.803500
vn -0.303700 0.477800 -0.824300
vn -0.316100 0.449900 -0.835200
vn -0.352200 0.469700 -0.809500
vn -0.259500 0.426300 -0.866500
vn -0.239700 0.461900 -0.853900
vn -0.198700 0.530800 -0.823800
vn -0.304800 0.560300 -0.770200
vn -0.290800 0.539300 -0.790300
vn -0.145500 0.424600 -0.893600
vn -0.154100 0.393900 -0.906100
vn -0.199300 0.405200 -0.892200
vn -0.181700 0.431200 -0.883800
vn -0.129600 0.477600 -0.868900
vn -0.097400 0.481000 -0.871200
vn -0.027300 0.533600 -0.845300
vn -0.151800 0.602300 -0.783700
vn -0.055100 0.520600 -0.852000
vn -0.288700 0.633500 -0.717900
vn -0.288100 0.609800 -0.738300
vn -0.379600 0.464600 -0.800000
vn -0.343500 0.440000 -0.829600
vn -0.377300 0.434500 -0.817800
vn -0.422700 0.421600 -0.802200
vn -0.293800 0.360400 -0.885300
vn -0.268600 0.409300 -0.871900
vn -0.138000 0.372200 -0.917800
vn -0.144200 0.315100 -0.938000
vn -0.168300 0.354600 -0.919700
vn -0.188600 0.380800 -0.905200
vn -0.103900 -0.565400 0.818200
vn 0.091300 -0.684000 0.723700
vn 0.124200 -0.641000 0.757400
vn -0.140200 -0.476300 0.868000
vn -0.223600 -0.390900 0.892800
vn -0.208700 -0.412300 0.886800
vn -0.149400 -0.450400 0.880200
vn -0.053800 -0.556400 0.829100
vn 0.113700 -0.655100 0.746900
vn 0.310400 -0.723900 0.616100
vn 0.489900 -0.679500 0.546100
vn 0.512700 -0.672400 0.533700
vn 0.411000 -0.686900 0.599300
vn 0.300800 -0.691900 0.656300
vn 0.437900 -0.674900 0.593900
vn 0.343000 -0.500600 0.794800
vn 0.427700 -0.535300 0.728400
vn 0.411100 -0.580500 0.702800
vn 0.316900 -0.564400 0.762200
vn 0.198800 -0.530700 0.823900
vn 0.239800 -0.461800 0.853900
vn 0.259600 -0.426200 0.866500
vn 0.366000 -0.477700 0.798600
vn 0.447800 -0.538500 0.713800
vn 0.130800 -0.419500 0.898300
vn 0.084100 -0.475400 0.875700
vn -0.008400 -0.420000 0.907400
vn 0.027100 -0.382200 0.923700
vn 0.006200 -0.369600 0.929200
vn 0.135900 -0.389700 0.910800
vn 0.014700 -0.527300 0.849500
vn 0.151800 -0.602300 0.783700
vn -0.076100 -0.451100 0.889200
vn 0.300700 -0.636600 0.710100
vn 0.411100 -0.637400 0.651600
vn 0.391000 -0.488000 0.780400
vn 0.471700 -0.576900 0.666900
vn 0.263100 -0.419700 0.868700
vn 0.238300 -0.464400 0.852900
vn 0.414300 -0.563100 0.715000
vn 0.481900 -0.603400 0.635400
vn 0.106200 -0.379000 0.919200
vn -0.058700 -0.373900 0.925600
vn -0.100000 -0.380700 0.919200
vn 0.008200 -0.407900 0.913000
vn 0.548400 -0.520200 -0.654700
vn 0.185600 -0.716800 -0.672000
vn 0.668500 -0.433500 -0.604300
vn 0.481900 -0.603400 0.635400
vn -0.654100 -0.729000 -0.201600
vn -0.952200 -0.281900 -0.117100
vn -0.422400 -0.890700 -0.167800
vn -0.100000 -0.380700 0.919200
vn -0.626900 0.719900 0.297700
vn -0.350200 0.840500 0.413300
vn -0.776400 0.580900 0.244400
vn -0.223600 -0.390900 0.892800
vn 0.861500 0.456200 0.222900
vn 0.911600 0.358000 -0.202000
vn 0.524600 0.592200 0.611700
vn 0.512700 -0.672400 0.533700
vn 0.886600 0.141000 -0.440500
vn 0.838700 -0.037000 -0.543300
vn -0.253500 -0.882200 -0.396800
vn -0.992900 0.069100 0.096900
vn -0.963000 0.190100 0.191200
vn 0.025400 0.775700 0.630500
vn -0.858600 0.459400 0.227300
vn -0.895800 0.380300 0.229800
vn 0.796100 -0.173600 -0.579700
vn 0.771000 -0.256600 -0.582800
vn 0.740500 -0.337200 -0.581300
vn -0.925700 0.299500 0.231100
vt 0.839504 0.118056
vt 0.856743 0.205307
vt 0.741230 0.205307
vt 0.734555 0.106726
vt 0.724541 0.032791
vt 0.813647 0.052618
vt 0.868992 0.081539
vt 0.913398 0.129584
vt 0.940923 0.205307
vt 0.839504 0.292557
vt 0.813647 0.357995
vt 0.724541 0.377822
vt 0.734555 0.303887
vt 0.913398 0.281029
vt 0.868992 0.329074
vt 0.369475 0.299954
vt 0.368286 0.370940
vt 0.245840 0.351447
vt 0.246397 0.288815
vt 0.246768 0.205307
vt 0.370268 0.205307
vt 0.494283 0.205307
vt 0.492822 0.304944
vt 0.490632 0.379672
vt 0.369475 0.110659
vt 0.246397 0.121798
vt 0.245841 0.059166
vt 0.368286 0.039673
vt 0.490632 0.030941
vt 0.492822 0.105669
vt 0.616755 0.103478
vt 0.619174 0.205307
vt 0.613127 0.027106
vt 0.616755 0.307135
vt 0.613126 0.383507
vt 0.123273 0.268175
vt 0.123047 0.315326
vt 0.054743 0.283353
vt 0.030912 0.249131
vt 0.030973 0.205306
vt 0.123423 0.205306
vt 0.123273 0.142438
vt 0.030912 0.161481
vt 0.054744 0.127260
vt 0.123047 0.095287
vt 0.839504 0.118056
vt 0.856743 0.205307
vt 0.968983 0.205307
vt 0.938030 0.133427
vt 0.876123 0.061548
vt 0.805028 0.030806
vt 0.721203 0.008146
vt 0.734555 0.106726
vt 0.741230 0.205307
vt 0.839504 0.292557
vt 0.805028 0.379807
vt 0.876123 0.349065
vt 0.938030 0.277186
vt 0.734555 0.303887
vt 0.721203 0.402467
vt 0.369475 0.299954
vt 0.367890 0.394602
vt 0.489902 0.404581
vt 0.492822 0.304944
vt 0.494283 0.205307
vt 0.370268 0.205307
vt 0.246768 0.205307
vt 0.246397 0.288815
vt 0.245655 0.372324
vt 0.369475 0.110659
vt 0.492822 0.105669
vt 0.489902 0.006032
vt 0.367890 0.016011
vt 0.245655 0.038289
vt 0.246397 0.121798
vt 0.616755 0.103478
vt 0.619174 0.205307
vt 0.611917 0.001649
vt 0.616755 0.307135
vt 0.611917 0.408964
vt 0.123273 0.268175
vt 0.122972 0.331043
vt 0.123423 0.205306
vt 0.000156 0.205306
vt 0.000125 0.242784
vt 0.000064 0.280261
vt 0.123273 0.142438
vt 0.122972 0.079570
vt 0.000064 0.130352
vt 0.000125 0.167829
vt 0.122972 0.331043
vt 0.030806 0.283587
vt 0.245655 0.372324
vt 0.030806 0.283587
vt 0.000125 0.167829
vt 0.030806 0.127026
vt 0.000156 0.205306
vt 0.030806 0.127026
vt 0.805028 0.030806
vt 0.873826 0.071832
vt 0.721203 0.008146
vt 0.873826 0.071832
vt 0.938030 0.277186
vt 0.873826 0.338781
vt 0.968983 0.205307
vt 0.873826 0.338781
vt 0.805028 0.379807
vt 0.721203 0.402467
vt 0.000125 0.242784
vt 0.122972 0.079570
vt 0.245655 0.038289
vt 0.938030 0.133427
vt 0.611917 0.001649
vt 0.489902 0.006032
vt 0.611917 0.408964
vt 0.489902 0.404581
vt 0.367890 0.394602
vt 0.367890 0.016011
f 1/1/1 2/2/2 3/3/3
f 1/1/1 3/3/3 4/4/4
f 1/1/1 4/4/4 5/5/5
f 1/1/1 5/5/5 6/6/6
f 1/1/1 6/6/6 7/7/7
f 1/1/1 7/7/7 8/8/8
f 1/1/1 8/8/8 9/9/9
f 1/1/1 9/9/9 2/2/2
f 10/10/10 11/11/11 12/12/12
f 10/10/10 12/12/12 13/13/13
f 10/10/10 13/13/13 3/3/3
f 10/10/10 3/3/3 2/2/2
f 10/10/10 2/2/2 9/9/9
f 10/10/10 9/9/9 14/14/14
f 10/10/10 14/14/14 15/15/15
f 10/10/10 15/15/15 11/11/11
f 16/16/16 17/17/17 18/18/18
f 16/16/16 18/18/18 19/19/19
f 16/16/16 19/19/19 20/20/20
f 16/16/16 20/20/20 21/21/21
f 16/16/16 21/21/21 22/22/22
f 16/16/16 22/22/22 23/23/23
f 16/16/16 23/23/23 24/24/24
f 16/16/16 24/24/24 17/17/17
f 25/25/25 21/21/21 20/20/20
f 25/25/25 20/20/20 26/26/26
f 25/25/25 26/26/26 27/27/27
f 25/25/25 27/27/27 28/28/28
f 25/25/25 28/28/28 29/29/29
f 25/25/25 29/29/29 30/30/30
f 25/25/25 30/30/30 22/22/22
f 25/25/25 22/22/22 21/21/21
f 31/31/31 32/32/32 22/22/22
f 31/31/31 22/22/22 30/30/30
f 31/31/31 30/30/30 29/29/29
f 31/31/31 29/29/29 33/33/33
f 31/31/31 33/33/33 5/5/5
f 31/31/31 5/5/5 4/4/4
f 31/31/31 4/4/4 3/3/3
f 31/31/31 3/3/3 32/32/32
f 34/34/34 35/35/35 24/24/24
f 34/34/34 24/24/24 23/23/23
f 34/34/34 23/23/23 22/22/22
f 34/34/34 22/22/22 32/32/32
f 34/34/34 32/32/32 3/3/3
f 34/34/34 3/3/3 13/13/13
f 34/34/34 13/13/13 12/12/12
f 34/34/34 12/12/12 35/35/35
f 36/36/36 37/37/37 38/38/38
f 36/36/36 38/38/38 39/39/39
f 36/36/36 39/39/39 40/40/40
f 36/36/36 40/40/40 41/41/41
f 36/36/36 41/41/41 20/20/20
f 36/36/36 20/20/20 19/19/19
f 36/36/36 19/19/19 18/18/18
f 36/36/36 18/18/18 37/37/37
f 42/42/42 41/41/41 40/40/40
f 42/42/42 40/40/40 43/43/43
f 42/42/42 43/43/43 44/44/44
f 42/42/42 44/44/44 45/45/45
f 42/42/42 45/45/45 27/27/27
f 42/42/42 27/27/27 26/26/26
f 42/42/42 26/26/26 20/20/20
f 42/42/42 20/20/20 41/41/41
f 46/46/46 47/47/47 48/48/48
f 46/46/46 48/48/48 49/49/49
f 46/46/46 49/49/49 50/50/50
f 46/46/46 50/50/50 51/51/51
f 46/46/46 51/51/51 52/52/52
f 46/46/46 52/52/52 53/53/53
f 46/46/46 53/53/53 54/54/54
f 46/46/46 54/54/54 47/47/47
f 55/55/55 56/56/56 57/57/57
f 55/55/55 57/57/57 58/58/58
f 55/55/55 58/58/58 48/48/48
f 55/55/55 48/48/48 47/47/47
f 55/55/55 47/47/47 54/54/54
f 55/55/55 54/54/54 59/59/59
f 55/55/55 59/59/59 60/60/60
f 55/55/55 60/60/60 56/56/56
f 61/61/61 62/62/62 63/63/63
f 61/61/61 63/63/63 64/64/64
f 61/61/61 64/64/64 65/65/65
f 61/61/61 65/65/65 66/66/66
f 61/61/61 66/66/66 67/67/67
f 61/61/61 67/67/67 68/68/68
f 61/61/61 68/68/68 69/69/69
f 61/61/61 69/69/69 62/62/62
f 70/70/70 66/66/66 65/65/65
f 70/70/70 65/65/65 71/71/71
f 70/70/70 71/71/71 72/72/72
f 70/70/70 72/72/72 73/73/73
f 70/70/70 73/73/73 74/74/74
f 70/70/70 74/74/74 75/75/75
f 70/70/70 75/75/75 67/67/67
f 70/70/70 67/67/67 66/66/66
f 76/76/76 77/77/77 54/54/54
f 76/76/76 54/54/54 53/53/53
f 76/76/76 53/53/53 52/52/52
f 76/76/76 52/52/52 78/78/78
f 76/76/76 78/78/78 72/72/72
f 76/76/76 72/72/72 71/71/71
f 76/76/76 71/71/71 65/65/65
f 76/76/76 65/65/65 77/77/77
f 79/79/79 80/80/80 60/60/60
f 79/79/79 60/60/60 59/59/59
f 79/79/79 59/59/59 54/54/54
f 79/79/79 54/54/54 77/77/77
f 79/79/79 77/77/77 65/65/65
f 79/79/79 65/65/65 64/64/64
f 79/79/79 64/64/64 63/63/63
f 79/79/79 63/63/63 80/80/80
f 81/81/81 82/82/82 69/69/69
f 81/81/81 69/69/69 68/68/68
f 81/81/81 68/68/68 67/67/67
f 81/81/81 67/67/67 83/83/83
f 81/81/81 83/83/83 84/84/84
f 81/81/81 84/84/84 85/85/85
f 81/81/81 85/85/85 86/86/86
f 81/81/81 86/86/86 82/82/82
f 87/87/87 83/83/83 67/67/67
f 87/87/87 67/67/67 75/75/75
f 87/87/87 75/75/75 74/74/74
f 87/87/87 74/74/74 88/88/88
f 87/87/87 88/88/88 89/89/89
f 87/87/87 89/89/89 90/90/90
f 87/87/87 90/90/90 84/84/84
f 87/87/87 84/84/84 83/83/83
f 91/91/91 92/92/92 38/38/38
f 91/91/91 38/38/38 37/37/37
f 91/91/91 37/37/37 18/18/18
f 91/91/91 18/18/18 93/93/93
f 91/91/91 93/93/93 69/69/69
f 91/91/91 69/69/69 82/82/82
f 91/91/91 82/82/82 94/94/94
f 91/91/91 94/94/94 92/92/92
f 95/95/95 96/96/96 44/44/44
f 95/95/95 44/44/44 43/43/43
f 95/95/95 43/43/43 40/40/40
f 95/95/95 40/40/40 97/97/97
f 95/95/95 97/97/97 84/84/84
f 95/95/95 84/84/84 90/90/90
f 95/95/95 90/90/90 98/98/98
f 95/95/95 98/98/98 96/96/96
f 99/99/99 100/100/100 7/7/7
f 99/99/99 7/7/7 6/6/6
f 99/99/99 6/6/6 5/5/5
f 99/99/99 5/5/5 101/101/101
f 99/99/99 101/101/101 52/52/52
f 99/99/99 52/52/52 51/51/51
f 99/99/99 51/51/51 102/102/102
f 99/99/99 102/102/102 100/100/100
f 103/103/103 104/104/104 15/15/15
f 103/103/103 15/15/15 14/14/14
f 103/103/103 14/14/14 9/9/9
f 103/103/103 9/9/9 105/105/105
f 103/103/103 105/105/105 48/48/48
f 103/103/103 48/48/48 58/58/58
f 103/103/103 58/58/58 106/106/106
f 103/103/103 106/106/106 104/104/104
f 107/107/107 108/108/108 12/12/12
f 107/107/107 12/12/12 11/11/11
f 107/107/107 11/11/11 15/15/15
f 107/107/107 15/15/15 104/104/104
f 107/107/107 104/104/104 106/106/106
f 107/107/107 106/106/106 56/56/56
f 107/107/107 56/56/56 60/60/60
f 107/107/107 60/60/60 108/108/108
f 109/109/109 97/97/97 40/40/40
f 109/109/109 40/40/40 39/39/39
f 109/109/109 39/39/39 38/38/38
f 109/109/109 38/38/38 92/92/92
f 109/109/109 92/92/92 94/94/94
f 109/109/109 94/94/94 85/85/85
f 109/109/109 85/85/85 84/84/84
f 109/109/109 84/84/84 97/97/97
f 110/110/110 111/111/111 27/27/27
f 110/110/110 27/27/27 45/45/45
f 110/110/110 45/45/45 44/44/44
f 110/110/110 44/44/44 96/96/96
f 110/110/110 96/96/96 98/98/98
f 110/110/110 98/98/98 88/88/88
f 110/110/110 88/88/88 74/74/74
f 110/110/110 74/74/74 111/111/111
f 112/112/112 105/105/105 9/9/9
f 112/112/112 9/9/9 8/8/8
f 112/112/112 8/8/8 7/7/7
f 112/112/112 7/7/7 100/100/100
f 112/112/112 100/100/100 102/102/102
f 112/112/112 102/102/102 49/49/49
f 112/112/112 49/49/49 48/48/48
f 112/112/112 48/48/48 105/105/105
f 113/113/113 101/101/101 5/5/5
f 113/113/113 5/5/5 33/33/33
f 113/113/113 33/33/33 29/29/29
f 113/113/113 29/29/29 114/114/114
f 113/113/113 114/114/114 72/72/72
f 113/113/113 72/72/72 78/78/78
f 113/113/113 78/78/78 52/52/52
f 113/113/113 52/52/52 101/101/101
f 115/115/115 116/116/116 24/24/24
f 115/115/115 24/24/24 35/35/35
f 115/115/115 35/35/35 12/12/12
f 115/115/115 12/12/12 108/108/108
f 115/115/115 108/108/108 60/60/60
f 115/115/115 60/60/60 80/80/80
f 115/115/115 80/80/80 63/63/63
f 115/115/115 63/63/63 116/116/116
f 117/117/117 93/93/93 18/18/18
f 117/117/117 18/18/18 17/17/17
f 117/117/117 17/17/17 24/24/24
f 117/117/117 24/24/24 116/116/116
f 117/117/117 116/116/116 63/63/63
f 117/117/117 63/63/63 62/62/62
f 117/117/117 62/62/62 69/69/69
f 117/117/117 69/69/69 93/93/93
f 118/118/118 114/114/114 29/29/29
f 118/118/118 29/29/29 28/28/28
f 118/118/118 28/28/28 27/27/27
f 118/118/118 27/27/27 111/111/111
f 118/118/118 111/111/111 74/74/74
f 118/118/118 74/74/74 73/73/73
f 118/118/118 73/73/73 72/72/72
f 118/118/118 72/72/72 114/114/114
