v -2.451296 0.770572 -1.104447
v -2.452169 0.770534 -1.102962
v -2.450634 0.768859 -1.102644
v -2.449844 0.769055 -1.104379
v -2.449064 0.769235 -1.105629
v -2.450344 0.770528 -1.105487
v -2.451355 0.771189 -1.105149
v -2.452405 0.771580 -1.104457
v -2.453349 0.771706 -1.103214
v -2.452211 0.770340 -1.101250
v -2.451948 0.770121 -1.099880
v -2.450887 0.768773 -1.099260
v -2.450884 0.768791 -1.100745
v -2.453197 0.771379 -1.101690
v -2.452655 0.770859 -1.100609
v -2.447008 0.762776 -1.100113
v -2.447227 0.762749 -1.098722
v -2.446140 0.760540 -1.098962
v -2.445956 0.760562 -1.100196
v -2.445622 0.760626 -1.101807
v -2.446621 0.762852 -1.101932
v -2.447761 0.764993 -1.102102
v -2.448152 0.764923 -1.100195
v -2.448359 0.764908 -1.098733
v -2.445990 0.763034 -1.103673
v -2.445055 0.760790 -1.103345
v -2.444561 0.760941 -1.104480
v -2.445442 0.763201 -1.104960
v -2.446492 0.765382 -1.105258
v -2.447087 0.765194 -1.103919
v -2.448406 0.767231 -1.104179
v -2.449131 0.767004 -1.102348
v -2.447740 0.767456 -1.105517
v -2.449487 0.766957 -1.100400
v -2.449635 0.766976 -1.098895
v -2.444896 0.758327 -1.100489
v -2.444997 0.758325 -1.099556
v -2.444369 0.757077 -1.100132
v -2.444118 0.756634 -1.100791
v -2.444002 0.756645 -1.101633
v -2.444674 0.758364 -1.101700
v -2.444224 0.758498 -1.102839
v -2.443657 0.756751 -1.102402
v -2.443541 0.757287 -1.103029
v -2.443818 0.758624 -1.103676
v -2.451417 0.770457 -1.104516
v -2.452298 0.770416 -1.103007
v -2.453444 0.771616 -1.103248
v -2.452493 0.771492 -1.104510
v -2.451419 0.771125 -1.105193
v -2.450429 0.770444 -1.105550
v -2.449156 0.769155 -1.105690
v -2.449970 0.768945 -1.104446
v -2.450767 0.768747 -1.102690
v -2.452345 0.770222 -1.101271
v -2.452051 0.770033 -1.099884
v -2.452729 0.770793 -1.100614
v -2.453296 0.771289 -1.101704
v -2.451022 0.768678 -1.100770
v -2.450993 0.768689 -1.099268
v -2.447165 0.762691 -1.100147
v -2.447346 0.762685 -1.098739
v -2.448474 0.764838 -1.098749
v -2.448303 0.764830 -1.100227
v -2.447908 0.764901 -1.102151
v -2.446774 0.762768 -1.101981
v -2.445778 0.760549 -1.101858
v -2.446116 0.760483 -1.100231
v -2.446261 0.760481 -1.098980
v -2.446137 0.762952 -1.103738
v -2.447229 0.765102 -1.103984
v -2.446596 0.765314 -1.105315
v -2.445550 0.763140 -1.105016
v -2.444671 0.760884 -1.104537
v -2.445206 0.760714 -1.103410
v -2.448540 0.767130 -1.104244
v -2.449271 0.766901 -1.102396
v -2.447837 0.767382 -1.105576
v -2.449632 0.766853 -1.100428
v -2.449745 0.766898 -1.098907
v -2.445057 0.758251 -1.100523
v -2.445119 0.758268 -1.099573
v -2.444831 0.758289 -1.101751
v -2.444119 0.756589 -1.101670
v -2.444239 0.756577 -1.100816
v -2.444460 0.757035 -1.100146
v -2.444375 0.758424 -1.102906
v -2.443929 0.758570 -1.103734
v -2.443623 0.757247 -1.103070
v -2.443771 0.756696 -1.102452
v -2.445086 0.758299 -1.099250
v -2.444190 0.756631 -1.100110
v -2.446255 0.760507 -1.098557
v -2.444460 0.757035 -1.100146
v -2.443519 0.756144 -1.102278
v -2.443359 0.756842 -1.103012
v -2.443830 0.756047 -1.101627
v -2.443623 0.757247 -1.103070
v -2.450063 0.770477 -1.105865
v -2.451344 0.771298 -1.105340
v -2.448844 0.769260 -1.106076
v -2.451419 0.771125 -1.105193
v -2.453569 0.771685 -1.101843
v -2.452750 0.770942 -1.100428
v -2.453784 0.772057 -1.103313
v -2.452729 0.770793 -1.100614
v -2.451906 0.770009 -1.099423
v -2.450936 0.768730 -1.098766
v -2.443912 0.756045 -1.100903
v -2.443732 0.758643 -1.103983
v -2.444444 0.760966 -1.104885
v -2.452814 0.771877 -1.104484
v -2.447561 0.767499 -1.105991
v -2.446339 0.765415 -1.105731
v -2.449733 0.766948 -1.098397
v -2.448480 0.764872 -1.098250
v -2.447353 0.762711 -1.098264
v -2.445307 0.763230 -1.105415
vn 0.616600 0.646700 0.449000
vn 0.678000 0.693300 0.244300
vn 0.717600 0.649100 0.252400
vn 0.665000 0.606300 0.436000
vn 0.684200 0.588500 0.430600
vn 0.620200 0.647900 0.442200
vn 0.572300 0.687200 0.447400
vn 0.568200 0.719600 0.399200
vn 0.611300 0.757300 0.229800
vn 0.735400 0.676800 0.033800
vn 0.734600 0.677100 0.041700
vn 0.785400 0.614200 0.077200
vn 0.771200 0.633300 0.064800
vn 0.665000 0.744400 0.060000
vn 0.695100 0.718700 0.017400
vn 0.880200 0.442900 0.170700
vn 0.876600 0.434200 0.207500
vn 0.889400 0.404900 0.212300
vn 0.895700 0.413000 0.164700
vn 0.873700 0.398500 0.278900
vn 0.855800 0.437100 0.276600
vn 0.815100 0.512200 0.270400
vn 0.846500 0.510100 0.152100
vn 0.850200 0.494600 0.180200
vn 0.820500 0.427700 0.379100
vn 0.831700 0.396700 0.388300
vn 0.851700 0.395300 0.343900
vn 0.837200 0.424200 0.345000
vn 0.798100 0.481500 0.362200
vn 0.779600 0.493100 0.386000
vn 0.721300 0.560200 0.407300
vn 0.763400 0.590700 0.261200
vn 0.742600 0.541000 0.394700
vn 0.805700 0.581600 0.112400
vn 0.817900 0.560100 0.131700
vn 0.905500 0.400400 0.140000
vn 0.901600 0.387900 0.191200
vn 0.913800 0.373000 0.160500
vn 0.929700 0.348000 0.120500
vn 0.901900 0.327400 0.281700
vn 0.881600 0.380000 0.279800
vn 0.827600 0.380600 0.412600
vn 0.839800 0.325300 0.434600
vn 0.846300 0.356100 0.396100
vn 0.851600 0.375300 0.365900
vn -0.620200 -0.622900 -0.476800
vn -0.689100 -0.681300 -0.246600
vn -0.730500 -0.633500 -0.255000
vn -0.623500 -0.549400 -0.556200
vn -0.578100 -0.490000 -0.652500
vn -0.585700 -0.506400 -0.632800
vn -0.623600 -0.527500 -0.576900
vn -0.659600 -0.602000 -0.449900
vn -0.717500 -0.649200 -0.252400
vn -0.753900 -0.656800 -0.009200
vn -0.811300 -0.563500 0.155500
vn -0.815700 -0.550300 0.178200
vn -0.801300 -0.594600 0.065500
vn -0.774100 -0.631100 -0.049800
vn -0.813200 -0.575600 0.085700
vn -0.882400 -0.444300 -0.154500
vn -0.891000 -0.451900 -0.042100
vn -0.866700 -0.498100 -0.026800
vn -0.848800 -0.510500 -0.137200
vn -0.815200 -0.512100 -0.270400
vn -0.855900 -0.436900 -0.276600
vn -0.873800 -0.398400 -0.278900
vn -0.897300 -0.416500 -0.145800
vn -0.893300 -0.449000 -0.017300
vn -0.813900 -0.426900 -0.394000
vn -0.773700 -0.491400 -0.399800
vn -0.731200 -0.463800 -0.500200
vn -0.761800 -0.419100 -0.493900
vn -0.750800 -0.412800 -0.515600
vn -0.823100 -0.397700 -0.405400
vn -0.715600 -0.557700 -0.420600
vn -0.763400 -0.590700 -0.261300
vn -0.677700 -0.509900 -0.529800
vn -0.807900 -0.581100 -0.097900
vn -0.835000 -0.549800 0.020000
vn -0.900900 -0.418800 -0.113500
vn -0.878100 -0.476900 0.039500
vn -0.876900 -0.391300 -0.279200
vn -0.854500 -0.439900 -0.276400
vn -0.875700 -0.481400 -0.036400
vn -0.864200 -0.497800 0.073600
vn -0.809000 -0.395500 -0.434800
vn -0.706700 -0.433500 -0.559000
vn -0.676200 -0.450300 -0.583100
vn -0.744700 -0.448100 -0.494500
vn 0.077300 -0.320200 0.944200
vn 0.299800 -0.602000 0.740000
vn -0.027300 -0.209200 0.977500
vn -0.864200 -0.497800 0.073600
vn 0.484200 -0.858300 -0.169800
vn 0.667100 -0.509200 -0.543700
vn 0.289600 -0.957000 0.013400
vn -0.676200 -0.450300 -0.583100
vn 0.267000 0.515300 -0.814300
vn 0.017000 0.695200 -0.718600
vn 0.386600 0.346000 -0.854800
vn -0.578100 -0.490000 -0.652500
vn -0.667300 0.646900 0.368900
vn -0.391200 0.592300 0.704300
vn -0.727100 0.667600 -0.159900
vn -0.815700 -0.550300 0.178200
vn -0.221400 0.391300 0.893200
vn -0.134700 0.213500 0.967600
vn 0.354800 -0.891000 0.283100
vn 0.574800 -0.193700 -0.795000
vn 0.499000 -0.075400 -0.863200
vn -0.397400 0.715600 -0.574400
vn 0.438200 0.208100 -0.874400
vn 0.450200 0.122700 -0.884500
vn -0.096400 0.073200 0.992600
vn -0.087800 -0.013600 0.996000
vn -0.079200 -0.099600 0.991900
vn 0.458300 0.037200 -0.888000
vt 0.839504 0.118056
vt 0.856743 0.205307
vt 0.741230 0.205307
vt 0.734555 0.106726
vt 0.724541 0.032791
vt 0.813647 0.052618
vt 0.868992 0.081539
vt 0.913398 0.129584
vt 0.940923 0.205307
vt 0.839504 0.292557
vt 0.813647 0.357995
vt 0.724541 0.377822
vt 0.734555 0.303887
vt 0.913398 0.281029
vt 0.868992 0.329074
vt 0.369475 0.299954
vt 0.368286 0.370940
vt 0.245840 0.351447
vt 0.246397 0.288815
vt 0.246768 0.205307
vt 0.370268 0.205307
vt 0.494283 0.205307
vt 0.492822 0.304944
vt 0.490632 0.379672
vt 0.369475 0.110659
vt 0.246397 0.121798
vt 0.245841 0.059166
vt 0.368286 0.039673
vt 0.490632 0.030941
vt 0.492822 0.105669
vt 0.616755 0.103478
vt 0.619174 0.205307
vt 0.613127 0.027106
vt 0.616755 0.307135
vt 0.613126 0.383507
vt 0.123273 0.268175
vt 0.123047 0.315326
vt 0.054743 0.283353
vt 0.030912 0.249131
vt 0.030973 0.205306
vt 0.123423 0.205306
vt 0.123273 0.142438
vt 0.030912 0.161481
vt 0.054744 0.127260
vt 0.123047 0.095287
vt 0.839504 0.118056
vt 0.856743 0.205307
vt 0.968983 0.205307
vt 0.938030 0.133427
vt 0.876123 0.061548
vt 0.805028 0.030806
vt 0.721203 0.008146
vt 0.734555 0.106726
vt 0.741230 0.205307
vt 0.839504 0.292557
vt 0.805028 0.379807
vt 0.876123 0.349065
vt 0.938030 0.277186
vt 0.734555 0.303887
vt 0.721203 0.402467
vt 0.369475 0.299954
vt 0.367890 0.394602
vt 0.489902 0.404581
vt 0.492822 0.304944
vt 0.494283 0.205307
vt 0.370268 0.205307
vt 0.246768 0.205307
vt 0.246397 0.288815
vt 0.245655 0.372324
vt 0.369475 0.110659
vt 0.492822 0.105669
vt 0.489902 0.006032
vt 0.367890 0.016011
vt 0.245655 0.038289
vt 0.246397 0.121798
vt 0.616755 0.103478
vt 0.619174 0.205307
vt 0.611917 0.001649
vt 0.616755 0.307135
vt 0.611917 0.408964
vt 0.123273 0.268175
vt 0.122972 0.331043
vt 0.123423 0.205306
vt 0.000156 0.205306
vt 0.000125 0.242784
vt 0.000064 0.280261
vt 0.123273 0.142438
vt 0.122972 0.079570
vt 0.000064 0.130352
vt 0.000125 0.167829
vt 0.122972 0.331043
vt 0.030806 0.283587
vt 0.245655 0.372324
vt 0.030806 0.283587
vt 0.000125 0.167829
vt 0.030806 0.127026
vt 0.000156 0.205306
vt 0.030806 0.127026
vt 0.805028 0.030806
vt 0.873826 0.071832
vt 0.721203 0.008146
vt 0.873826 0.071832
vt 0.938030 0.277186
vt 0.873826 0.338781
vt 0.968983 0.205307
vt 0.873826 0.338781
vt 0.805028 0.379807
vt 0.721203 0.402467
vt 0.000125 0.242784
vt 0.122972 0.079570
vt 0.245655 0.038289
vt 0.938030 0.133427
vt 0.611917 0.001649
vt 0.489902 0.006032
vt 0.611917 0.408964
vt 0.489902 0.404581
vt 0.367890 0.394602
vt 0.367890 0.016011
f 1/1/1 2/2/2 3/3/3
f 1/1/1 3/3/3 4/4/4
f 1/1/1 4/4/4 5/5/5
f 1/1/1 5/5/5 6/6/6
f 1/1/1 6/6/6 7/7/7
f 1/1/1 7/7/7 8/8/8
f 1/1/1 8/8/8 9/9/9
f 1/1/1 9/9/9 2/2/2
f 10/10/10 11/11/11 12/12/12
f 10/10/10 12/12/12 13/13/13
f 10/10/10 13/13/13 3/3/3
f 10/10/10 3/3/3 2/2/2
f 10/10/10 2/2/2 9/9/9
f 10/10/10 9/9/9 14/14/14
f 10/10/10 14/14/14 15/15/15
f 10/10/10 15/15/15 11/11/11
f 16/16/16 17/17/17 18/18/18
f 16/16/16 18/18/18 19/19/19
f 16/16/16 19/19/19 20/20/20
f 16/16/16 20/20/20 21/21/21
f 16/16/16 21/21/21 22/22/22
f 16/16/16 22/22/22 23/23/23
f 16/16/16 23/23/23 24/24/24
f 16/16/16 24/24/24 17/17/17
f 25/25/25 21/21/21 20/20/20
f 25/25/25 20/20/20 26/26/26
f 25/25/25 26/26/26 27/27/27
f 25/25/25 27/27/27 28/28/28
f 25/25/25 28/28/28 29/29/29
f 25/25/25 29/29/29 30/30/30
f 25/25/25 30/30/30 22/22/22
f 25/25/25 22/22/22 21/21/21
f 31/31/31 32/32/32 22/22/22
f 31/31/31 22/22/22 30/30/30
f 31/31/31 30/30/30 29/29/29
f 31/31/31 29/29/29 33/33/33
f 31/31/31 33/33/33 5/5/5
f 31/31/31 5/5/5 4/4/4
f 31/31/31 4/4/4 3/3/3
f 31/31/31 3/3/3 32/32/32
f 34/34/34 35/35/35 24/24/24
f 34/34/34 24/24/24 23/23/23
f 34/34/34 23/23/23 22/22/22
f 34/34/34 22/22/22 32/32/32
f 34/34/34 32/32/32 3/3/3
f 34/34/34 3/3/3 13/13/13
f 34/34/34 13/13/13 12/12/12
f 34/34/34 12/12/12 35/35/35
f 36/36/36 37/37/37 38/38/38
f 36/36/36 38/38/38 39/39/39
f 36/36/36 39/39/39 40/40/40
f 36/36/36 40/40/40 41/41/41
f 36/36/36 41/41/41 20/20/20
f 36/36/36 20/20/20 19/19/19
f 36/36/36 19/19/19 18/18/18
f 36/36/36 18/18/18 37/37/37
f 42/42/42 41/41/41 40/40/40
f 42/42/42 40/40/40 43/43/43
f 42/42/42 43/43/43 44/44/44
f 42/42/42 44/44/44 45/45/45
f 42/42/42 45/45/45 27/27/27
f 42/42/42 27/27/27 26/26/26
f 42/42/42 26/26/26 20/20/20
f 42/42/42 20/20/20 41/41/41
f 46/46/46 47/47/47 48/48/48
f 46/46/46 48/48/48 49/49/49
f 46/46/46 49/49/49 50/50/50
f 46/46/46 50/50/50 51/51/51
f 46/46/46 51/51/51 52/52/52
f 46/46/46 52/52/52 53/53/53
f 46/46/46 53/53/53 54/54/54
f 46/46/46 54/54/54 47/47/47
f 55/55/55 56/56/56 57/57/57
f 55/55/55 57/57/57 58/58/58
f 55/55/55 58/58/58 48/48/48
f 55/55/55 48/48/48 47/47/47
f 55/55/55 47/47/47 54/54/54
f 55/55/55 54/54/54 59/59/59
f 55/55/55 59/59/59 60/60/60
f 55/55/55 60/60/60 56/56/56
f 61/61/61 62/62/62 63/63/63
f 61/61/61 63/63/63 64/64/64
f 61/61/61 64/64/64 65/65/65
f 61/61/61 65/65/65 66/66/66
f 61/61/61 66/66/66 67/67/67
f 61/61/61 67/67/67 68/68/68
f 61/61/61 68/68/68 69/69/69
f 61/61/61 69/69/69 62/62/62
f 70/70/70 66/66/66 65/65/65
f 70/70/70 65/65/65 71/71/71
f 70/70/70 71/71/71 72/72/72
f 70/70/70 72/72/72 73/73/73
f 70/70/70 73/73/73 74/74/74
f 70/70/70 74/74/74 75/75/75
f 70/70/70 75/75/75 67/67/67
f 70/70/70 67/67/67 66/66/66
f 76/76/76 77/77/77 54/54/54
f 76/76/76 54/54/54 53/53/53
f 76/76/76 53/53/53 52/52/52
f 76/76/76 52/52/52 78/78/78
f 76/76/76 78/78/78 72/72/72
f 76/76/76 72/72/72 71/71/71
f 76/76/76 71/71/71 65/65/65
f 76/76/76 65/65/65 77/77/77
f 79/79/79 80/80/80 60/60/60
f 79/79/79 60/60/60 59/59/59
f 79/79/79 59/59/59 54/54/54
f 79/79/79 54/54/54 77/77/77
f 79/79/79 77/77/77 65/65/65
f 79/79/79 65/65/65 64/64/64
f 79/79/79 64/64/64 63/63/63
f 79/79/79 63/63/63 80/80/80
f 81/81/81 82/82/82 69/69/69
f 81/81/81 69/69/69 68/68/68
f 81/81/81 68/68/68 67/67/67
f 81/81/81 67/67/67 83/83/83
f 81/81/81 83/83/83 84/84/84
f 81/81/81 84/84/84 85/85/85
f 81/81/81 85/85/85 86/86/86
f 81/81/81 86/86/86 82/82/82
f 87/87/87 83/83/83 67/67/67
f 87/87/87 67/67/67 75/75/75
f 87/87/87 75/75/75 74/74/74
f 87/87/87 74/74/74 88/88/88
f 87/87/87 88/88/88 89/89/89
f 87/87/87 89/89/89 90/90/90
f 87/87/87 90/90/90 84/84/84
f 87/87/87 84/84/84 83/83/83
f 91/91/91 92/92/92 38/38/38
f 91/91/91 38/38/38 37/37/37
f 91/91/91 37/37/37 18/18/18
f 91/91/91 18/18/18 93/93/93
f 91/91/91 93/93/93 69/69/69
f 91/91/91 69/69/69 82/82/82
f 91/91/91 82/82/82 94/94/94
f 91/91/91 94/94/94 92/92/92
f 95/95/95 96/96/96 44/44/44
f 95/95/95 44/44/44 43/43/43
f 95/95/95 43/43/43 40/40/40
f 95/95/95 40/40/40 97/97/97
f 95/95/95 97/97/97 84/84/84
f 95/95/95 84/84/84 90/90/90
f 95/95/95 90/90/90 98/98/98
f 95/95/95 98/98/98 96/96/96
f 99/99/99 100/100/100 7/7/7
f 99/99/99 7/7/7 6/6/6
f 99/99/99 6/6/6 5/5/5
f 99/99/99 5/5/5 101/101/101
f 99/99/99 101/101/101 52/52/52
f 99/99/99 52/52/52 51/51/51
f 99/99/99 51/51/51 102/102/102
f 99/99/99 102/102/102 100/100/100
f 103/103/103 104/104/104 15/15/15
f 103/103/103 15/15/15 14/14/14
f 103/103/103 14/14/14 9/9/9
f 103/103/103 9/9/9 105/105/105
f 103/103/103 105/105/105 48/48/48
f 103/103/103 48/48/48 58/58/58
f 103/103/103 58/58/58 106/106/106
f 103/103/103 106/106/106 104/104/104
f 107/107/107 108/108/108 12/12/12
f 107/107/107 12/12/12 11/11/11
f 107/107/107 11/11/11 15/15/15
f 107/107/107 15/15/15 104/104/104
f 107/107/107 104/104/104 106/106/106
f 107/107/107 106/106/106 56/56/56
f 107/107/107 56/56/56 60/60/60
f 107/107/107 60/60/60 108/108/108
f 109/109/109 97/97/97 40/40/40
f 109/109/109 40/40/40 39/39/39
f 109/109/109 39/39/39 38/38/38
f 109/109/109 38/38/38 92/92/92
f 109/109/109 92/92/92 94/94/94
f 109/109/109 94/94/94 85/85/85
f 109/109/109 85/85/85 84/84/84
f 109/109/109 84/84/84 97/97/97
f 110/110/110 111/111/111 27/27/27
f 110/110/110 27/27/27 45/45/45
f 110/110/110 45/45/45 44/44/44
f 110/110/110 44/44/44 96/96/96
f 110/110/110 96/96/96 98/98/98
f 110/110/110 98/98/98 88/88/88
f 110/110/110 88/88/88 74/74/74
f 110/110/110 74/74/74 111/111/111
f 112/112/112 105/105/105 9/9/9
f 112/112/112 9/9/9 8/8/8
f 112/112/112 8/8/8 7/7/7
f 112/112/112 7/7/7 100/100/100
f 112/112/112 100/100/100 102/102/102
f 112/112/112 102/102/102 49/49/49
f 112/112/112 49/49/49 48/48/48
f 112/112/112 48/48/48 105/105/105
f 113/113/113 101/101/101 5/5/5
f 113/113/113 5/5/5 33/33/33
f 113/113/113 33/33/33 29/29/29
f 113/113/113 29/29/29 114/114/114
f 113/113/113 114/114/114 72/72/72
f 113/113/113 72/72/72 78/78/78
f 113/113/113 78/78/78 52/52/52
f 113/113/113 52/52/52 101/101/101
f 115/115/115 116/116/116 24/24/24
f 115/115/115 24/24/24 35/35/35
f 115/115/115 35/35/35 12/12/12
f 115/115/115 12/12/12 108/108/108
f 115/115/115 108/108/108 60/60/60
f 115/115/115 60/60/60 80/80/80
f 115/115/115 80/80/80 63/63/63
f 115/115/115 63/63/63 116/116/116
f 117/117/117 93/93/93 18/18/18
f 117/117/117 18/18/18 17/17/17
f 117/117/117 17/17/17 24/24/24
f 117/117/117 24/24/24 116/116/116
f 117/117/117 116/116/116 63/63/63
f 117/117/117 63/63/63 62/62/62
f 117/117/117 62/62/62 69/69/69
f 117/117/117 69/69/69 93/93/93
f 118/118/118 114/114/114 29/29/29
f 118/118/118 29/29/29 28/28/28
f 118/118/118 28/28/28 27/27/27
f 118/118/118 27/27/27 111/111/111
f 118/118/118 111/111/111 74/74/74
f 118/118/118 74/74/74 73/73/73
f 118/118/118 73/73/73 72/72/72
f 118/118/118 72/72/72 114/114/114
