v -2.342680 0.691283 -1.155091
v -2.343647 0.692104 -1.157295
v -2.346443 0.691242 -1.155594
v -2.345037 0.690343 -1.153312
v -2.344103 0.689837 -1.151396
v -2.342262 0.690790 -1.153112
v -2.341374 0.691337 -1.154642
v -2.341066 0.691870 -1.156484
v -2.341601 0.692633 -1.158599
v -2.345448 0.693335 -1.158601
v -2.347116 0.694389 -1.159267
v -2.349617 0.693925 -1.158388
v -2.348183 0.692675 -1.157300
v -2.343461 0.693646 -1.159522
v -2.345305 0.694251 -1.159626
v -2.356824 0.688375 -1.152921
v -2.358056 0.689433 -1.154217
v -2.360590 0.687292 -1.152694
v -2.359493 0.686346 -1.151559
v -2.358078 0.685194 -1.149954
v -2.355229 0.687083 -1.151097
v -2.352339 0.688773 -1.152387
v -2.354010 0.690145 -1.154282
v -2.355306 0.691283 -1.155614
v -2.353741 0.686090 -1.149013
v -2.356767 0.684325 -1.148102
v -2.355813 0.683751 -1.146637
v -2.352656 0.685429 -1.147369
v -2.349656 0.687095 -1.148451
v -2.350786 0.687755 -1.150194
v -2.347812 0.689169 -1.151653
v -2.349375 0.690146 -1.153922
v -2.346686 0.688584 -1.149817
v -2.351084 0.691595 -1.155801
v -2.352420 0.692835 -1.157087
v -2.361987 0.684119 -1.150034
v -2.362823 0.684868 -1.150844
v -2.363842 0.683288 -1.149646
v -2.363785 0.682351 -1.148852
v -2.363036 0.681697 -1.148089
v -2.360918 0.683227 -1.148865
v -2.359952 0.682610 -1.147454
v -2.362391 0.681317 -1.147084
v -2.361334 0.681428 -1.146466
v -2.359256 0.682224 -1.146321
v -2.342658 0.691041 -1.155198
v -2.343646 0.691874 -1.157430
v -2.341604 0.692460 -1.158698
v -2.341052 0.691687 -1.156561
v -2.341358 0.691199 -1.154693
v -2.342235 0.690603 -1.153178
v -2.344072 0.689653 -1.151470
v -2.345009 0.690105 -1.153427
v -2.346434 0.691016 -1.155733
v -2.345467 0.693124 -1.158761
v -2.347141 0.694240 -1.159399
v -2.345322 0.694138 -1.159720
v -2.343481 0.693488 -1.159641
v -2.348192 0.692464 -1.157463
v -2.349632 0.693776 -1.158520
v -2.356786 0.688179 -1.153099
v -2.358035 0.689292 -1.154358
v -2.355295 0.691138 -1.155752
v -2.353986 0.689943 -1.154454
v -2.352301 0.688559 -1.152543
v -2.355178 0.686876 -1.151258
v -2.358018 0.684993 -1.150119
v -2.359447 0.686155 -1.151740
v -2.360562 0.687155 -1.152838
v -2.353677 0.685874 -1.149157
v -2.350733 0.687532 -1.150330
v -2.349610 0.686923 -1.148543
v -2.352601 0.685263 -1.147467
v -2.355752 0.683589 -1.146738
v -2.356694 0.684114 -1.148250
v -2.347772 0.688938 -1.151779
v -2.349352 0.689925 -1.154069
v -2.346648 0.688407 -1.149901
v -2.351076 0.691388 -1.155968
v -2.352422 0.692687 -1.157222
v -2.361938 0.683930 -1.150217
v -2.362794 0.684733 -1.150990
v -2.360855 0.683027 -1.149031
v -2.362989 0.681547 -1.148214
v -2.363749 0.682210 -1.148990
v -2.363819 0.683186 -1.149752
v -2.359875 0.682401 -1.147601
v -2.359191 0.682062 -1.146422
v -2.361288 0.681310 -1.146543
v -2.362332 0.681160 -1.147194
v -2.363091 0.685060 -1.151181
v -2.364399 0.682897 -1.149441
v -2.360944 0.687548 -1.153138
v -2.363819 0.683186 -1.149752
v -2.363178 0.680816 -1.147010
v -2.361886 0.681034 -1.146255
v -2.363721 0.681120 -1.147886
v -2.361288 0.681310 -1.146543
v -2.342108 0.690541 -1.152478
v -2.341091 0.691300 -1.154486
v -2.343775 0.689586 -1.150787
v -2.341358 0.691199 -1.154693
v -2.342809 0.693680 -1.159882
v -2.345344 0.694453 -1.159878
v -2.340921 0.692732 -1.159077
v -2.345322 0.694138 -1.159720
v -2.347685 0.694676 -1.159550
v -2.350103 0.694277 -1.158811
v -2.364368 0.681699 -1.148520
v -2.358994 0.682022 -1.145986
v -2.355466 0.683486 -1.146192
v -2.340522 0.691984 -1.156982
v -2.346292 0.688309 -1.149240
v -2.349258 0.686797 -1.147909
v -2.352868 0.693184 -1.157578
v -2.355734 0.691599 -1.156121
v -2.358459 0.689724 -1.154713
v -2.352268 0.685134 -1.146863
vn -0.096900 0.941300 0.323300
vn 0.043200 0.876900 0.478700
vn -0.006300 0.861000 0.508400
vn -0.133500 0.918900 0.371300
vn -0.149000 0.908400 0.390500
vn -0.092700 0.939400 0.330000
vn -0.051900 0.956700 0.286300
vn 0.002200 0.951700 0.307000
vn 0.120200 0.895400 0.428800
vn 0.146800 0.760600 0.632400
vn 0.142100 0.765300 0.627700
vn 0.058300 0.754700 0.653400
vn 0.084400 0.757300 0.647500
vn 0.201100 0.804100 0.559300
vn 0.200300 0.769700 0.606100
vn -0.151400 0.710600 0.687100
vn -0.179500 0.724300 0.665700
vn -0.206900 0.709000 0.674100
vn -0.173100 0.689600 0.703100
vn -0.248300 0.738000 0.627400
vn -0.214500 0.760000 0.613500
vn -0.145400 0.799800 0.582300
vn -0.082100 0.739600 0.668000
vn -0.111900 0.745500 0.657000
vn -0.273700 0.801300 0.532000
vn -0.304400 0.786900 0.536700
vn -0.284300 0.766400 0.576000
vn -0.260300 0.784200 0.563300
vn -0.218700 0.824600 0.521700
vn -0.219400 0.841300 0.494000
vn -0.166700 0.885400 0.433800
vn -0.068000 0.837000 0.543000
vn -0.179300 0.870500 0.458300
vn 0.006300 0.757200 0.653200
vn -0.025000 0.756100 0.653900
vn -0.169200 0.669000 0.723700
vn -0.208900 0.687900 0.695000
vn -0.203300 0.662900 0.720600
vn -0.200300 0.626100 0.753600
vn -0.308000 0.695300 0.649400
vn -0.264100 0.727300 0.633500
vn -0.329100 0.787600 0.520900
vn -0.384700 0.762700 0.519900
vn -0.341900 0.765600 0.545000
vn -0.311700 0.764100 0.564800
vn 0.131800 -0.940700 -0.312500
vn -0.029600 -0.872900 -0.487000
vn 0.023100 -0.855000 -0.518100
vn 0.233200 -0.932700 -0.275000
vn 0.317600 -0.929600 -0.187000
vn 0.296900 -0.932900 -0.203700
vn 0.261100 -0.928300 -0.264600
vn 0.143200 -0.922000 -0.359800
vn 0.006200 -0.861100 -0.508400
vn -0.142400 -0.737300 -0.660300
vn -0.165700 -0.590000 -0.790200
vn -0.169900 -0.568100 -0.805200
vn -0.131700 -0.662200 -0.737700
vn -0.091500 -0.747900 -0.657400
vn -0.127700 -0.640100 -0.757600
vn 0.140800 -0.703000 -0.697000
vn 0.066300 -0.646100 -0.760300
vn 0.016600 -0.664200 -0.747300
vn 0.073100 -0.731900 -0.677400
vn 0.145500 -0.799800 -0.582400
vn 0.214600 -0.759900 -0.613600
vn 0.248400 -0.738000 -0.627400
vn 0.159300 -0.681800 -0.713900
vn 0.053200 -0.630300 -0.774500
vn 0.281300 -0.807200 -0.518900
vn 0.227100 -0.846200 -0.482000
vn 0.294400 -0.870200 -0.395100
vn 0.331400 -0.842800 -0.424000
vn 0.345500 -0.847100 -0.403700
vn 0.311600 -0.794800 -0.520800
vn 0.174800 -0.889400 -0.422200
vn 0.068000 -0.837000 -0.543000
vn 0.262700 -0.905000 -0.334700
vn -0.014400 -0.749100 -0.662300
vn -0.059800 -0.665800 -0.743700
vn 0.138100 -0.665900 -0.733100
vn -0.008100 -0.613400 -0.789700
vn 0.254500 -0.733800 -0.629800
vn 0.212000 -0.761500 -0.612500
vn 0.037300 -0.660200 -0.750200
vn -0.049400 -0.604900 -0.794700
vn 0.326600 -0.805700 -0.494000
vn 0.343200 -0.873900 -0.344200
vn 0.336100 -0.890700 -0.306000
vn 0.306300 -0.859400 -0.409300
vn -0.852400 0.332200 -0.403800
vn -0.990800 0.073100 -0.113500
vn -0.760600 0.401700 -0.510000
vn -0.049400 -0.604900 -0.794700
vn -0.640900 -0.588600 0.492600
vn -0.237000 -0.485500 0.841500
vn -0.751500 -0.618000 0.230900
vn 0.336100 -0.890700 -0.306000
vn 0.766200 -0.001600 0.642600
vn 0.918500 0.109700 0.379900
vn 0.635400 -0.113900 0.763700
vn 0.317600 -0.929600 -0.187000
vn 0.442200 0.487500 -0.752800
vn 0.083100 0.729000 -0.679400
vn 0.820700 0.177100 -0.543100
vn -0.169900 -0.568100 -0.805200
vn -0.235500 0.741400 -0.628300
vn -0.433900 0.678900 -0.592200
vn -0.907200 -0.391100 0.155000
vn 0.168100 -0.424300 0.889800
vn 0.319400 -0.399100 0.859500
vn 0.995700 0.077000 -0.050700
vn 0.538000 -0.212100 0.815800
vn 0.483000 -0.278300 0.830200
vn -0.557500 0.600200 -0.573400
vn -0.620300 0.539800 -0.568900
vn -0.677600 0.476000 -0.560600
vn 0.425500 -0.341800 0.837900
vt 0.839504 0.118056
vt 0.856743 0.205307
vt 0.741230 0.205307
vt 0.734555 0.106726
vt 0.724541 0.032791
vt 0.813647 0.052618
vt 0.868992 0.081539
vt 0.913398 0.129584
vt 0.940923 0.205307
vt 0.839504 0.292557
vt 0.813647 0.357995
vt 0.724541 0.377822
vt 0.734555 0.303887
vt 0.913398 0.281029
vt 0.868992 0.329074
vt 0.369475 0.299954
vt 0.368286 0.370940
vt 0.245840 0.351447
vt 0.246397 0.288815
vt 0.246768 0.205307
vt 0.370268 0.205307
vt 0.494283 0.205307
vt 0.492822 0.304944
vt 0.490632 0.379672
vt 0.369475 0.110659
vt 0.246397 0.121798
vt 0.245841 0.059166
vt 0.368286 0.039673
vt 0.490632 0.030941
vt 0.492822 0.105669
vt 0.616755 0.103478
vt 0.619174 0.205307
vt 0.613127 0.027106
vt 0.616755 0.307135
vt 0.613126 0.383507
vt 0.123273 0.268175
vt 0.123047 0.315326
vt 0.054743 0.283353
vt 0.030912 0.249131
vt 0.030973 0.205306
vt 0.123423 0.205306
vt 0.123273 0.142438
vt 0.030912 0.161481
vt 0.054744 0.127260
vt 0.123047 0.095287
vt 0.839504 0.118056
vt 0.856743 0.205307
vt 0.968983 0.205307
vt 0.938030 0.133427
vt 0.876123 0.061548
vt 0.805028 0.030806
vt 0.721203 0.008146
vt 0.734555 0.106726
vt 0.741230 0.205307
vt 0.839504 0.292557
vt 0.805028 0.379807
vt 0.876123 0.349065
vt 0.938030 0.277186
vt 0.734555 0.303887
vt 0.721203 0.402467
vt 0.369475 0.299954
vt 0.367890 0.394602
vt 0.489902 0.404581
vt 0.492822 0.304944
vt 0.494283 0.205307
vt 0.370268 0.205307
vt 0.246768 0.205307
vt 0.246397 0.288815
vt 0.245655 0.372324
vt 0.369475 0.110659
vt 0.492822 0.105669
vt 0.489902 0.006032
vt 0.367890 0.016011
vt 0.245655 0.038289
vt 0.246397 0.121798
vt 0.616755 0.103478
vt 0.619174 0.205307
vt 0.611917 0.001649
vt 0.616755 0.307135
vt 0.611917 0.408964
vt 0.123273 0.268175
vt 0.122972 0.331043
vt 0.123423 0.205306
vt 0.000156 0.205306
vt 0.000125 0.242784
vt 0.000064 0.280261
vt 0.123273 0.142438
vt 0.122972 0.079570
vt 0.000064 0.130352
vt 0.000125 0.167829
vt 0.122972 0.331043
vt 0.030806 0.283587
vt 0.245655 0.372324
vt 0.030806 0.283587
vt 0.000125 0.167829
vt 0.030806 0.127026
vt 0.000156 0.205306
vt 0.030806 0.127026
vt 0.805028 0.030806
vt 0.873826 0.071832
vt 0.721203 0.008146
vt 0.873826 0.071832
vt 0.938030 0.277186
vt 0.873826 0.338781
vt 0.968983 0.205307
vt 0.873826 0.338781
vt 0.805028 0.379807
vt 0.721203 0.402467
vt 0.000125 0.242784
vt 0.122972 0.079570
vt 0.245655 0.038289
vt 0.938030 0.133427
vt 0.611917 0.001649
vt 0.489902 0.006032
vt 0.611917 0.408964
vt 0.489902 0.404581
vt 0.367890 0.394602
vt 0.367890 0.016011
f 1/1/1 2/2/2 3/3/3
f 1/1/1 3/3/3 4/4/4
f 1/1/1 4/4/4 5/5/5
f 1/1/1 5/5/5 6/6/6
f 1/1/1 6/6/6 7/7/7
f 1/1/1 7/7/7 8/8/8
f 1/1/1 8/8/8 9/9/9
f 1/1/1 9/9/9 2/2/2
f 10/10/10 11/11/11 12/12/12
f 10/10/10 12/12/12 13/13/13
f 10/10/10 13/13/13 3/3/3
f 10/10/10 3/3/3 2/2/2
f 10/10/10 2/2/2 9/9/9
f 10/10/10 9/9/9 14/14/14
f 10/10/10 14/14/14 15/15/15
f 10/10/10 15/15/15 11/11/11
f 16/16/16 17/17/17 18/18/18
f 16/16/16 18/18/18 19/19/19
f 16/16/16 19/19/19 20/20/20
f 16/16/16 20/20/20 21/21/21
f 16/16/16 21/21/21 22/22/22
f 16/16/16 22/22/22 23/23/23
f 16/16/16 23/23/23 24/24/24
f 16/16/16 24/24/24 17/17/17
f 25/25/25 21/21/21 20/20/20
f 25/25/25 20/20/20 26/26/26
f 25/25/25 26/26/26 27/27/27
f 25/25/25 27/27/27 28/28/28
f 25/25/25 28/28/28 29/29/29
f 25/25/25 29/29/29 30/30/30
f 25/25/25 30/30/30 22/22/22
f 25/25/25 22/22/22 21/21/21
f 31/31/31 32/32/32 22/22/22
f 31/31/31 22/22/22 30/30/30
f 31/31/31 30/30/30 29/29/29
f 31/31/31 29/29/29 33/33/33
f 31/31/31 33/33/33 5/5/5
f 31/31/31 5/5/5 4/4/4
f 31/31/31 4/4/4 3/3/3
f 31/31/31 3/3/3 32/32/32
f 34/34/34 35/35/35 24/24/24
f 34/34/34 24/24/24 23/23/23
f 34/34/34 23/23/23 22/22/22
f 34/34/34 22/22/22 32/32/32
f 34/34/34 32/32/32 3/3/3
f 34/34/34 3/3/3 13/13/13
f 34/34/34 13/13/13 12/12/12
f 34/34/34 12/12/12 35/35/35
f 36/36/36 37/37/37 38/38/38
f 36/36/36 38/38/38 39/39/39
f 36/36/36 39/39/39 40/40/40
f 36/36/36 40/40/40 41/41/41
f 36/36/36 41/41/41 20/20/20
f 36/36/36 20/20/20 19/19/19
f 36/36/36 19/19/19 18/18/18
f 36/36/36 18/18/18 37/37/37
f 42/42/42 41/41/41 40/40/40
f 42/42/42 40/40/40 43/43/43
f 42/42/42 43/43/43 44/44/44
f 42/42/42 44/44/44 45/45/45
f 42/42/42 45/45/45 27/27/27
f 42/42/42 27/27/27 26/26/26
f 42/42/42 26/26/26 20/20/20
f 42/42/42 20/20/20 41/41/41
f 46/46/46 47/47/47 48/48/48
f 46/46/46 48/48/48 49/49/49
f 46/46/46 49/49/49 50/50/50
f 46/46/46 50/50/50 51/51/51
f 46/46/46 51/51/51 52/52/52
f 46/46/46 52/52/52 53/53/53
f 46/46/46 53/53/53 54/54/54
f 46/46/46 54/54/54 47/47/47
f 55/55/55 56/56/56 57/57/57
f 55/55/55 57/57/57 58/58/58
f 55/55/55 58/58/58 48/48/48
f 55/55/55 48/48/48 47/47/47
f 55/55/55 47/47/47 54/54/54
f 55/55/55 54/54/54 59/59/59
f 55/55/55 59/59/59 60/60/60
f 55/55/55 60/60/60 56/56/56
f 61/61/61 62/62/62 63/63/63
f 61/61/61 63/63/63 64/64/64
f 61/61/61 64/64/64 65/65/65
f 61/61/61 65/65/65 66/66/66
f 61/61/61 66/66/66 67/67/67
f 61/61/61 67/67/67 68/68/68
f 61/61/61 68/68/68 69/69/69
f 61/61/61 69/69/69 62/62/62
f 70/70/70 66/66/66 65/65/65
f 70/70/70 65/65/65 71/71/71
f 70/70/70 71/71/71 72/72/72
f 70/70/70 72/72/72 73/73/73
f 70/70/70 73/73/73 74/74/74
f 70/70/70 74/74/74 75/75/75
f 70/70/70 75/75/75 67/67/67
f 70/70/70 67/67/67 66/66/66
f 76/76/76 77/77/77 54/54/54
f 76/76/76 54/54/54 53/53/53
f 76/76/76 53/53/53 52/52/52
f 76/76/76 52/52/52 78/78/78
f 76/76/76 78/78/78 72/72/72
f 76/76/76 72/72/72 71/71/71
f 76/76/76 71/71/71 65/65/65
f 76/76/76 65/65/65 77/77/77
f 79/79/79 80/80/80 60/60/60
f 79/79/79 60/60/60 59/59/59
f 79/79/79 59/59/59 54/54/54
f 79/79/79 54/54/54 77/77/77
f 79/79/79 77/77/77 65/65/65
f 79/79/79 65/65/65 64/64/64
f 79/79/79 64/64/64 63/63/63
f 79/79/79 63/63/63 80/80/80
f 81/81/81 82/82/82 69/69/69
f 81/81/81 69/69/69 68/68/68
f 81/81/81 68/68/68 67/67/67
f 81/81/81 67/67/67 83/83/83
f 81/81/81 83/83/83 84/84/84
f 81/81/81 84/84/84 85/85/85
f 81/81/81 85/85/85 86/86/86
f 81/81/81 86/86/86 82/82/82
f 87/87/87 83/83/83 67/67/67
f 87/87/87 67/67/67 75/75/75
f 87/87/87 75/75/75 74/74/74
f 87/87/87 74/74/74 88/88/88
f 87/87/87 88/88/88 89/89/89
f 87/87/87 89/89/89 90/90/90
f 87/87/87 90/90/90 84/84/84
f 87/87/87 84/84/84 83/83/83
f 91/91/91 92/92/92 38/38/38
f 91/91/91 38/38/38 37/37/37
f 91/91/91 37/37/37 18/18/18
f 91/91/91 18/18/18 93/93/93
f 91/91/91 93/93/93 69/69/69
f 91/91/91 69/69/69 82/82/82
f 91/91/91 82/82/82 94/94/94
f 91/91/91 94/94/94 92/92/92
f 95/95/95 96/96/96 44/44/44
f 95/95/95 44/44/44 43/43/43
f 95/95/95 43/43/43 40/40/40
f 95/95/95 40/40/40 97/97/97
f 95/95/95 97/97/97 84/84/84
f 95/95/95 84/84/84 90/90/90
f 95/95/95 90/90/90 98/98/98
f 95/95/95 98/98/98 96/96/96
f 99/99/99 100/100/100 7/7/7
f 99/99/99 7/7/7 6/6/6
f 99/99/99 6/6/6 5/5/5
f 99/99/99 5/5/5 101/101/101
f 99/99/99 101/101/101 52/52/52
f 99/99/99 52/52/52 51/51/51
f 99/99/99 51/51/51 102/102/102
f 99/99/99 102/102/102 100/100/100
f 103/103/103 104/104/104 15/15/15
f 103/103/103 15/15/15 14/14/14
f 103/103/103 14/14/14 9/9/9
f 103/103/103 9/9/9 105/105/105
f 103/103/103 105/105/105 48/48/48
f 103/103/103 48/48/48 58/58/58
f 103/103/103 58/58/58 106/106/106
f 103/103/103 106/106/106 104/104/104
f 107/107/107 108/108/108 12/12/12
f 107/107/107 12/12/12 11/11/11
f 107/107/107 11/11/11 15/15/15
f 107/107/107 15/15/15 104/104/104
f 107/107/107 104/104/104 106/106/106
f 107/107/107 106/106/106 56/56/56
f 107/107/107 56/56/56 60/60/60
f 107/107/107 60/60/60 108/108/108
f 109/109/109 97/97/97 40/40/40
f 109/109/109 40/40/40 39/39/39
f 109/109/109 39/39/39 38/38/38
f 109/109/109 38/38/38 92/92/92
f 109/109/109 92/92/92 94/94/94
f 109/109/109 94/94/94 85/85/85
f 109/109/109 85/85/85 84/84/84
f 109/109/109 84/84/84 97/97/97
f 110/110/110 111/111/111 27/27/27
f 110/110/110 27/27/27 45/45/45
f 110/110/110 45/45/45 44/44/44
f 110/110/110 44/44/44 96/96/96
f 110/110/110 96/96/96 98/98/98
f 110/110/110 98/98/98 88/88/88
f 110/110/110 88/88/88 74/74/74
f 110/110/110 74/74/74 111/111/111
f 112/112/112 105/105/105 9/9/9
f 112/112/112 9/9/9 8/8/8
f 112/112/112 8/8/8 7/7/7
f 112/112/112 7/7/7 100/100/100
f 112/112/112 100/100/100 102/102/102
f 112/112/112 102/102/102 49/49/49
f 112/112/112 49/49/49 48/48/48
f 112/112/112 48/48/48 105/105/105
f 113/113/113 101/101/101 5/5/5
f 113/113/113 5/5/5 33/33/33
f 113/113/113 33/33/33 29/29/29
f 113/113/113 29/29/29 114/114/114
f 113/113/113 114/114/114 72/72/72
f 113/113/113 72/72/72 78/78/78
f 113/113/113 78/78/78 52/52/52
f 113/113/113 52/52/52 101/101/101
f 115/115/115 116/116/116 24/24/24
f 115/115/115 24/24/24 35/35/35
f 115/115/115 35/35/35 12/12/12
f 115/115/115 12/12/12 108/108/108
f 115/115/115 108/108/108 60/60/60
f 115/115/115 60/60/60 80/80/80
f 115/115/115 80/80/80 63/63/63
f 115/115/115 63/63/63 116/116/116
f 117/117/117 93/93/93 18/18/18
f 117/117/117 18/18/18 17/17/17
f 117/117/117 17/17/17 24/24/24
f 117/117/117 24/24/24 116/116/116
f 117/117/117 116/116/116 63/63/63
f 117/117/117 63/63/63 62/62/62
f 117/117/117 62/62/62 69/69/69
f 117/117/117 69/69/69 93/93/93
f 118/118/118 114/114/114 29/29/29
f 118/118/118 29/29/29 28/28/28
f 118/118/118 28/28/28 27/27/27
f 118/118/118 27/27/27 111/111/111
f 118/118/118 111/111/111 74/74/74
f 118/118/118 74/74/74 73/73/73
f 118/118/118 73/73/73 72/72/72
f 118/118/118 72/72/72 114/114/114
