v -2.361317 0.703611 -1.163171
v -2.363671 0.704307 -1.163153
v -2.363574 0.702223 -1.160639
v -2.360936 0.701613 -1.160976
v -2.358857 0.701225 -1.160977
v -2.359440 0.703028 -1.162754
v -2.360308 0.704084 -1.163904
v -2.361719 0.704957 -1.164778
v -2.363784 0.705752 -1.165061
v -2.365714 0.704903 -1.161931
v -2.367150 0.705293 -1.160580
v -2.367616 0.703798 -1.158508
v -2.365933 0.703081 -1.159568
v -2.365525 0.706075 -1.163705
v -2.366552 0.705919 -1.162144
v -2.366259 0.695350 -1.152876
v -2.368005 0.696009 -1.152141
v -2.367846 0.692937 -1.150425
v -2.366307 0.692349 -1.151090
v -2.364210 0.691629 -1.151854
v -2.363883 0.694541 -1.153727
v -2.363646 0.697319 -1.155782
v -2.366122 0.698180 -1.154874
v -2.367934 0.698891 -1.154076
v -2.361363 0.693912 -1.154257
v -2.361977 0.691077 -1.152310
v -2.360258 0.690708 -1.152564
v -2.359426 0.693489 -1.154559
v -2.358960 0.696254 -1.156606
v -2.361001 0.696676 -1.156318
v -2.360844 0.699272 -1.158625
v -2.363554 0.699887 -1.158134
v -2.358734 0.698900 -1.158837
v -2.366041 0.700799 -1.157160
v -2.367841 0.701576 -1.156269
v -2.366122 0.689216 -1.149438
v -2.367251 0.689680 -1.148893
v -2.366656 0.687723 -1.148222
v -2.365910 0.686802 -1.148274
v -2.364869 0.686396 -1.148736
v -2.364573 0.688660 -1.150044
v -2.362890 0.688266 -1.150349
v -2.363696 0.686151 -1.148898
v -2.362672 0.686553 -1.149345
v -2.361585 0.688015 -1.150491
v -2.361380 0.703425 -1.163335
v -2.363767 0.704128 -1.163310
v -2.363856 0.705616 -1.165176
v -2.361764 0.704815 -1.164898
v -2.360334 0.703978 -1.163996
v -2.359469 0.702885 -1.162881
v -2.358891 0.701088 -1.161109
v -2.361003 0.701434 -1.161148
v -2.363671 0.702051 -1.160803
v -2.365843 0.704736 -1.162077
v -2.367262 0.705175 -1.160684
v -2.366632 0.705828 -1.162221
v -2.365623 0.705949 -1.163811
v -2.366058 0.702919 -1.159723
v -2.367724 0.703683 -1.158619
v -2.366375 0.695221 -1.153067
v -2.368102 0.695916 -1.152280
v -2.368034 0.698790 -1.154208
v -2.366241 0.698040 -1.155055
v -2.363742 0.697172 -1.155970
v -2.363978 0.694405 -1.153925
v -2.364305 0.691502 -1.152057
v -2.366423 0.692228 -1.151286
v -2.367943 0.692850 -1.150569
v -2.361437 0.693770 -1.154459
v -2.361074 0.696522 -1.156512
v -2.359003 0.696137 -1.156754
v -2.359470 0.693380 -1.154713
v -2.360302 0.690605 -1.152723
v -2.362051 0.690943 -1.152519
v -2.360915 0.699105 -1.158807
v -2.363651 0.699727 -1.158309
v -2.358773 0.698773 -1.158976
v -2.366163 0.700647 -1.157328
v -2.367944 0.701467 -1.156391
v -2.366238 0.689099 -1.149636
v -2.367350 0.689596 -1.149038
v -2.364667 0.688536 -1.150250
v -2.364940 0.686303 -1.148891
v -2.365998 0.686715 -1.148422
v -2.366726 0.687660 -1.148330
v -2.362962 0.688136 -1.150560
v -2.361627 0.687914 -1.150651
v -2.362706 0.686479 -1.149463
v -2.363748 0.686054 -1.149056
v -2.367674 0.689798 -1.148775
v -2.366734 0.687139 -1.147873
v -2.368404 0.693095 -1.150266
v -2.366726 0.687660 -1.148330
v -2.363987 0.685403 -1.148485
v -2.362742 0.685966 -1.148998
v -2.364999 0.685600 -1.148369
v -2.362706 0.686479 -1.149463
v -2.358823 0.702769 -1.162672
v -2.360038 0.704135 -1.164056
v -2.358176 0.701034 -1.161036
v -2.360334 0.703978 -1.163996
v -2.365506 0.706410 -1.164342
v -2.366793 0.706120 -1.162151
v -2.363854 0.706173 -1.165747
v -2.366632 0.705828 -1.162221
v -2.367682 0.705372 -1.160175
v -2.368228 0.703988 -1.158203
v -2.365879 0.685959 -1.147951
v -2.361166 0.687886 -1.150610
v -2.359702 0.690539 -1.152720
v -2.361873 0.705342 -1.165366
v -2.358045 0.698719 -1.158970
v -2.358297 0.696061 -1.156768
v -2.368490 0.701788 -1.156025
v -2.368585 0.699084 -1.153868
v -2.368632 0.696189 -1.151956
v -2.358797 0.693299 -1.154729
vn 0.166600 0.760300 0.627800
vn 0.375300 0.732000 0.568600
vn 0.376800 0.693300 0.614300
vn 0.190600 0.717800 0.669600
vn 0.200000 0.699200 0.686400
vn 0.174600 0.759200 0.627000
vn 0.156600 0.798100 0.581800
vn 0.202100 0.811500 0.548200
vn 0.370300 0.787200 0.493100
vn 0.567600 0.642500 0.514700
vn 0.561100 0.645500 0.518100
vn 0.541200 0.598900 0.590200
vn 0.549200 0.612500 0.568500
vn 0.529700 0.715200 0.455900
vn 0.571700 0.676000 0.464800
vn 0.466700 0.470800 0.748600
vn 0.433100 0.475600 0.765600
vn 0.427400 0.449700 0.784200
vn 0.470800 0.440700 0.764300
vn 0.364300 0.467200 0.805600
vn 0.368200 0.502600 0.782200
vn 0.373800 0.571000 0.730900
vn 0.483500 0.527400 0.698500
vn 0.458500 0.522800 0.718600
vn 0.265400 0.530000 0.805400
vn 0.254800 0.504100 0.825200
vn 0.300100 0.487000 0.820200
vn 0.300100 0.514700 0.803100
vn 0.282900 0.574400 0.768100
vn 0.257700 0.593800 0.762200
vn 0.229700 0.664300 0.711300
vn 0.376800 0.641500 0.668100
vn 0.245400 0.641800 0.726500
vn 0.514400 0.580600 0.631000
vn 0.499300 0.567200 0.654900
vn 0.491900 0.420200 0.762500
vn 0.445600 0.426400 0.787100
vn 0.472000 0.401800 0.784700
vn 0.504500 0.364100 0.782800
vn 0.355800 0.401400 0.843900
vn 0.362300 0.450200 0.816100
vn 0.228600 0.497500 0.836800
vn 0.201100 0.453400 0.868300
vn 0.244400 0.468600 0.848900
vn 0.276800 0.475900 0.834800
vn -0.139500 -0.747800 -0.649100
vn -0.375900 -0.721600 -0.581300
vn -0.377000 -0.679600 -0.629200
vn -0.056500 -0.706800 -0.705100
vn 0.061700 -0.685100 -0.725800
vn 0.037100 -0.693500 -0.719400
vn -0.033600 -0.693500 -0.719600
vn -0.175600 -0.718700 -0.672800
vn -0.376800 -0.693400 -0.614200
vn -0.591000 -0.615200 -0.521800
vn -0.724100 -0.469900 -0.504800
vn -0.740600 -0.449200 -0.499700
vn -0.657000 -0.530300 -0.535900
vn -0.561900 -0.605200 -0.563900
vn -0.673500 -0.505500 -0.539300
vn -0.481100 -0.466400 -0.742200
vn -0.577000 -0.434200 -0.691800
vn -0.589900 -0.472200 -0.655000
vn -0.496700 -0.522500 -0.693000
vn -0.373800 -0.570900 -0.731000
vn -0.368100 -0.502500 -0.782300
vn -0.364300 -0.467100 -0.805600
vn -0.487600 -0.437300 -0.755600
vn -0.596900 -0.422700 -0.681900
vn -0.249800 -0.534400 -0.807400
vn -0.243100 -0.597000 -0.764500
vn -0.132700 -0.606400 -0.784000
vn -0.140600 -0.562400 -0.814800
vn -0.115700 -0.564000 -0.817600
vn -0.236900 -0.511000 -0.826300
vn -0.215400 -0.666600 -0.713600
vn -0.376800 -0.641500 -0.668100
vn -0.094600 -0.660300 -0.745000
vn -0.526900 -0.575100 -0.625800
vn -0.625400 -0.504300 -0.595400
vn -0.515800 -0.428200 -0.742000
vn -0.642100 -0.429000 -0.635300
vn -0.363600 -0.460600 -0.809700
vn -0.368400 -0.505100 -0.780400
vn -0.582000 -0.459800 -0.670600
vn -0.667900 -0.436800 -0.602600
vn -0.205500 -0.519300 -0.829500
vn -0.064000 -0.598800 -0.798300
vn -0.033700 -0.623100 -0.781400
vn -0.139600 -0.589800 -0.795400
vn -0.801500 0.030500 0.597200
vn -0.605500 -0.305600 0.734800
vn -0.850600 0.146500 0.505100
vn -0.667900 -0.436800 -0.602600
vn 0.136500 -0.865500 0.481900
vn 0.634300 -0.670100 0.385400
vn -0.141600 -0.893000 0.427100
vn -0.033700 -0.623100 -0.781400
vn 0.940900 0.195600 -0.276300
vn 0.785100 0.399100 -0.473500
vn 0.986100 0.022600 -0.164600
vn 0.061700 -0.685100 -0.725800
vn -0.454600 0.738100 -0.498500
vn -0.589600 0.803100 -0.085600
vn -0.062200 0.572400 -0.817600
vn -0.740600 -0.449200 -0.499700
vn -0.708300 0.680300 0.188500
vn -0.773800 0.539700 0.331600
vn -0.300700 -0.737000 0.605300
vn 0.877600 -0.463100 0.123900
vn 0.926800 -0.375600 0.003900
vn 0.456300 0.470400 -0.755300
vn 0.987900 -0.113100 -0.106100
vn 0.976700 -0.196800 -0.085000
vn -0.815200 0.416600 0.402300
vn -0.839200 0.336400 0.427200
vn -0.856900 0.254400 0.448300
vn 0.958300 -0.278400 -0.063800
vt 0.839504 0.118056
vt 0.856743 0.205307
vt 0.741230 0.205307
vt 0.734555 0.106726
vt 0.724541 0.032791
vt 0.813647 0.052618
vt 0.868992 0.081539
vt 0.913398 0.129584
vt 0.940923 0.205307
vt 0.839504 0.292557
vt 0.813647 0.357995
vt 0.724541 0.377822
vt 0.734555 0.303887
vt 0.913398 0.281029
vt 0.868992 0.329074
vt 0.369475 0.299954
vt 0.368286 0.370940
vt 0.245840 0.351447
vt 0.246397 0.288815
vt 0.246768 0.205307
vt 0.370268 0.205307
vt 0.494283 0.205307
vt 0.492822 0.304944
vt 0.490632 0.379672
vt 0.369475 0.110659
vt 0.246397 0.121798
vt 0.245841 0.059166
vt 0.368286 0.039673
vt 0.490632 0.030941
vt 0.492822 0.105669
vt 0.616755 0.103478
vt 0.619174 0.205307
vt 0.613127 0.027106
vt 0.616755 0.307135
vt 0.613126 0.383507
vt 0.123273 0.268175
vt 0.123047 0.315326
vt 0.054743 0.283353
vt 0.030912 0.249131
vt 0.030973 0.205306
vt 0.123423 0.205306
vt 0.123273 0.142438
vt 0.030912 0.161481
vt 0.054744 0.127260
vt 0.123047 0.095287
vt 0.839504 0.118056
vt 0.856743 0.205307
vt 0.968983 0.205307
vt 0.938030 0.133427
vt 0.876123 0.061548
vt 0.805028 0.030806
vt 0.721203 0.008146
vt 0.734555 0.106726
vt 0.741230 0.205307
vt 0.839504 0.292557
vt 0.805028 0.379807
vt 0.876123 0.349065
vt 0.938030 0.277186
vt 0.734555 0.303887
vt 0.721203 0.402467
vt 0.369475 0.299954
vt 0.367890 0.394602
vt 0.489902 0.404581
vt 0.492822 0.304944
vt 0.494283 0.205307
vt 0.370268 0.205307
vt 0.246768 0.205307
vt 0.246397 0.288815
vt 0.245655 0.372324
vt 0.369475 0.110659
vt 0.492822 0.105669
vt 0.489902 0.006032
vt 0.367890 0.016011
vt 0.245655 0.038289
vt 0.246397 0.121798
vt 0.616755 0.103478
vt 0.619174 0.205307
vt 0.611917 0.001649
vt 0.616755 0.307135
vt 0.611917 0.408964
vt 0.123273 0.268175
vt 0.122972 0.331043
vt 0.123423 0.205306
vt 0.000156 0.205306
vt 0.000125 0.242784
vt 0.000064 0.280261
vt 0.123273 0.142438
vt 0.122972 0.079570
vt 0.000064 0.130352
vt 0.000125 0.167829
vt 0.122972 0.331043
vt 0.030806 0.283587
vt 0.245655 0.372324
vt 0.030806 0.283587
vt 0.000125 0.167829
vt 0.030806 0.127026
vt 0.000156 0.205306
vt 0.030806 0.127026
vt 0.805028 0.030806
vt 0.873826 0.071832
vt 0.721203 0.008146
vt 0.873826 0.071832
vt 0.938030 0.277186
vt 0.873826 0.338781
vt 0.968983 0.205307
vt 0.873826 0.338781
vt 0.805028 0.379807
vt 0.721203 0.402467
vt 0.000125 0.242784
vt 0.122972 0.079570
vt 0.245655 0.038289
vt 0.938030 0.133427
vt 0.611917 0.001649
vt 0.489902 0.006032
vt 0.611917 0.408964
vt 0.489902 0.404581
vt 0.367890 0.394602
vt 0.367890 0.016011
f 1/1/1 2/2/2 3/3/3
f 1/1/1 3/3/3 4/4/4
f 1/1/1 4/4/4 5/5/5
f 1/1/1 5/5/5 6/6/6
f 1/1/1 6/6/6 7/7/7
f 1/1/1 7/7/7 8/8/8
f 1/1/1 8/8/8 9/9/9
f 1/1/1 9/9/9 2/2/2
f 10/10/10 11/11/11 12/12/12
f 10/10/10 12/12/12 13/13/13
f 10/10/10 13/13/13 3/3/3
f 10/10/10 3/3/3 2/2/2
f 10/10/10 2/2/2 9/9/9
f 10/10/10 9/9/9 14/14/14
f 10/10/10 14/14/14 15/15/15
f 10/10/10 15/15/15 11/11/11
f 16/16/16 17/17/17 18/18/18
f 16/16/16 18/18/18 19/19/19
f 16/16/16 19/19/19 20/20/20
f 16/16/16 20/20/20 21/21/21
f 16/16/16 21/21/21 22/22/22
f 16/16/16 22/22/22 23/23/23
f 16/16/16 23/23/23 24/24/24
f 16/16/16 24/24/24 17/17/17
f 25/25/25 21/21/21 20/20/20
f 25/25/25 20/20/20 26/26/26
f 25/25/25 26/26/26 27/27/27
f 25/25/25 27/27/27 28/28/28
f 25/25/25 28/28/28 29/29/29
f 25/25/25 29/29/29 30/30/30
f 25/25/25 30/30/30 22/22/22
f 25/25/25 22/22/22 21/21/21
f 31/31/31 32/32/32 22/22/22
f 31/31/31 22/22/22 30/30/30
f 31/31/31 30/30/30 29/29/29
f 31/31/31 29/29/29 33/33/33
f 31/31/31 33/33/33 5/5/5
f 31/31/31 5/5/5 4/4/4
f 31/31/31 4/4/4 3/3/3
f 31/31/31 3/3/3 32/32/32
f 34/34/34 35/35/35 24/24/24
f 34/34/34 24/24/24 23/23/23
f 34/34/34 23/23/23 22/22/22
f 34/34/34 22/22/22 32/32/32
f 34/34/34 32/32/32 3/3/3
f 34/34/34 3/3/3 13/13/13
f 34/34/34 13/13/13 12/12/12
f 34/34/34 12/12/12 35/35/35
f 36/36/36 37/37/37 38/38/38
f 36/36/36 38/38/38 39/39/39
f 36/36/36 39/39/39 40/40/40
f 36/36/36 40/40/40 41/41/41
f 36/36/36 41/41/41 20/20/20
f 36/36/36 20/20/20 19/19/19
f 36/36/36 19/19/19 18/18/18
f 36/36/36 18/18/18 37/37/37
f 42/42/42 41/41/41 40/40/40
f 42/42/42 40/40/40 43/43/43
f 42/42/42 43/43/43 44/44/44
f 42/42/42 44/44/44 45/45/45
f 42/42/42 45/45/45 27/27/27
f 42/42/42 27/27/27 26/26/26
f 42/42/42 26/26/26 20/20/20
f 42/42/42 20/20/20 41/41/41
f 46/46/46 47/47/47 48/48/48
f 46/46/46 48/48/48 49/49/49
f 46/46/46 49/49/49 50/50/50
f 46/46/46 50/50/50 51/51/51
f 46/46/46 51/51/51 52/52/52
f 46/46/46 52/52/52 53/53/53
f 46/46/46 53/53/53 54/54/54
f 46/46/46 54/54/54 47/47/47
f 55/55/55 56/56/56 57/57/57
f 55/55/55 57/57/57 58/58/58
f 55/55/55 58/58/58 48/48/48
f 55/55/55 48/48/48 47/47/47
f 55/55/55 47/47/47 54/54/54
f 55/55/55 54/54/54 59/59/59
f 55/55/55 59/59/59 60/60/60
f 55/55/55 60/60/60 56/56/56
f 61/61/61 62/62/62 63/63/63
f 61/61/61 63/63/63 64/64/64
f 61/61/61 64/64/64 65/65/65
f 61/61/61 65/65/65 66/66/66
f 61/61/61 66/66/66 67/67/67
f 61/61/61 67/67/67 68/68/68
f 61/61/61 68/68/68 69/69/69
f 61/61/61 69/69/69 62/62/62
f 70/70/70 66/66/66 65/65/65
f 70/70/70 65/65/65 71/71/71
f 70/70/70 71/71/71 72/72/72
f 70/70/70 72/72/72 73/73/73
f 70/70/70 73/73/73 74/74/74
f 70/70/70 74/74/74 75/75/75
f 70/70/70 75/75/75 67/67/67
f 70/70/70 67/67/67 66/66/66
f 76/76/76 77/77/77 54/54/54
f 76/76/76 54/54/54 53/53/53
f 76/76/76 53/53/53 52/52/52
f 76/76/76 52/52/52 78/78/78
f 76/76/76 78/78/78 72/72/72
f 76/76/76 72/72/72 71/71/71
f 76/76/76 71/71/71 65/65/65
f 76/76/76 65/65/65 77/77/77
f 79/79/79 80/80/80 60/60/60
f 79/79/79 60/60/60 59/59/59
f 79/79/79 59/59/59 54/54/54
f 79/79/79 54/54/54 77/77/77
f 79/79/79 77/77/77 65/65/65
f 79/79/79 65/65/65 64/64/64
f 79/79/79 64/64/64 63/63/63
f 79/79/79 63/63/63 80/80/80
f 81/81/81 82/82/82 69/69/69
f 81/81/81 69/69/69 68/68/68
f 81/81/81 68/68/68 67/67/67
f 81/81/81 67/67/67 83/83/83
f 81/81/81 83/83/83 84/84/84
f 81/81/81 84/84/84 85/85/85
f 81/81/81 85/85/85 86/86/86
f 81/81/81 86/86/86 82/82/82
f 87/87/87 83/83/83 67/67/67
f 87/87/87 67/67/67 75/75/75
f 87/87/87 75/75/75 74/74/74
f 87/87/87 74/74/74 88/88/88
f 87/87/87 88/88/88 89/89/89
f 87/87/87 89/89/89 90/90/90
f 87/87/87 90/90/90 84/84/84
f 87/87/87 84/84/84 83/83/83
f 91/91/91 92/92/92 38/38/38
f 91/91/91 38/38/38 37/37/37
f 91/91/91 37/37/37 18/18/18
f 91/91/91 18/18/18 93/93/93
f 91/91/91 93/93/93 69/69/69
f 91/91/91 69/69/69 82/82/82
f 91/91/91 82/82/82 94/94/94
f 91/91/91 94/94/94 92/92/92
f 95/95/95 96/96/96 44/44/44
f 95/95/95 44/44/44 43/43/43
f 95/95/95 43/43/43 40/40/40
f 95/95/95 40/40/40 97/97/97
f 95/95/95 97/97/97 84/84/84
f 95/95/95 84/84/84 90/90/90
f 95/95/95 90/90/90 98/98/98
f 95/95/95 98/98/98 96/96/96
f 99/99/99 100/100/100 7/7/7
f 99/99/99 7/7/7 6/6/6
f 99/99/99 6/6/6 5/5/5
f 99/99/99 5/5/5 101/101/101
f 99/99/99 101/101/101 52/52/52
f 99/99/99 52/52/52 51/51/51
f 99/99/99 51/51/51 102/102/102
f 99/99/99 102/102/102 100/100/100
f 103/103/103 104/104/104 15/15/15
f 103/103/103 15/15/15 14/14/14
f 103/103/103 14/14/14 9/9/9
f 103/103/103 9/9/9 105/105/105
f 103/103/103 105/105/105 48/48/48
f 103/103/103 48/48/48 58/58/58
f 103/103/103 58/58/58 106/106/106
f 103/103/103 106/106/106 104/104/104
f 107/107/107 108/108/108 12/12/12
f 107/107/107 12/12/12 11/11/11
f 107/107/107 11/11/11 15/15/15
f 107/107/107 15/15/15 104/104/104
f 107/107/107 104/104/104 106/106/106
f 107/107/107 106/106/106 56/56/56
f 107/107/107 56/56/56 60/60/60
f 107/107/107 60/60/60 108/108/108
f 109/109/109 97/97/97 40/40/40
f 109/109/109 40/40/40 39/39/39
f 109/109/109 39/39/39 38/38/38
f 109/109/109 38/38/38 92/92/92
f 109/109/109 92/92/92 94/94/94
f 109/109/109 94/94/94 85/85/85
f 109/109/109 85/85/85 84/84/84
f 109/109/109 84/84/84 97/97/97
f 110/110/110 111/111/111 27/27/27
f 110/110/110 27/27/27 45/45/45
f 110/110/110 45/45/45 44/44/44
f 110/110/110 44/44/44 96/96/96
f 110/110/110 96/96/96 98/98/98
f 110/110/110 98/98/98 88/88/88
f 110/110/110 88/88/88 74/74/74
f 110/110/110 74/74/74 111/111/111
f 112/112/112 105/105/105 9/9/9
f 112/112/112 9/9/9 8/8/8
f 112/112/112 8/8/8 7/7/7
f 112/112/112 7/7/7 100/100/100
f 112/112/112 100/100/100 102/102/102
f 112/112/112 102/102/102 49/49/49
f 112/112/112 49/49/49 48/48/48
f 112/112/112 48/48/48 105/105/105
f 113/113/113 101/101/101 5/5/5
f 113/113/113 5/5/5 33/33/33
f 113/113/113 33/33/33 29/29/29
f 113/113/113 29/29/29 114/114/114
f 113/113/113 114/114/114 72/72/72
f 113/113/113 72/72/72 78/78/78
f 113/113/113 78/78/78 52/52/52
f 113/113/113 52/52/52 101/101/101
f 115/115/115 116/116/116 24/24/24
f 115/115/115 24/24/24 35/35/35
f 115/115/115 35/35/35 12/12/12
f 115/115/115 12/12/12 108/108/108
f 115/115/115 108/108/108 60/60/60
f 115/115/115 60/60/60 80/80/80
f 115/115/115 80/80/80 63/63/63
f 115/115/115 63/63/63 116/116/116
f 117/117/117 93/93/93 18/18/18
f 117/117/117 18/18/18 17/17/17
f 117/117/117 17/17/17 24/24/24
f 117/117/117 24/24/24 116/116/116
f 117/117/117 116/116/116 63/63/63
f 117/117/117 63/63/63 62/62/62
f 117/117/117 62/62/62 69/69/69
f 117/117/117 69/69/69 93/93/93
f 118/118/118 114/114/114 29/29/29
f 118/118/118 29/29/29 28/28/28
f 118/118/118 28/28/28 27/27/27
f 118/118/118 27/27/27 111/111/111
f 118/118/118 111/111/111 74/74/74
f 118/118/118 74/74/74 73/73/73
f 118/118/118 73/73/73 72/72/72
f 118/118/118 72/72/72 114/114/114
