v -2.411484 0.787095 -1.237561
v -2.412549 0.787872 -1.236183
v -2.410747 0.786691 -1.234840
v -2.409769 0.785897 -1.236545
v -2.408834 0.785384 -1.237796
v -2.410357 0.786522 -1.238478
v -2.411548 0.787227 -1.238587
v -2.412785 0.787896 -1.238206
v -2.413924 0.788669 -1.237153
v -2.412703 0.788732 -1.234488
v -2.412493 0.789393 -1.233088
v -2.411262 0.788646 -1.231674
v -2.411153 0.787758 -1.233053
v -2.413840 0.789313 -1.235546
v -2.413278 0.789552 -1.234223
v -2.406451 0.783033 -1.228721
v -2.406790 0.783832 -1.227427
v -2.405398 0.781773 -1.226277
v -2.405110 0.781061 -1.227424
v -2.404631 0.780175 -1.228943
v -2.405900 0.782036 -1.230438
v -2.407314 0.783777 -1.231926
v -2.407876 0.784833 -1.230132
v -2.408208 0.785688 -1.228778
v -2.405094 0.781210 -1.232144
v -2.403910 0.779449 -1.230451
v -2.403296 0.778948 -1.231581
v -2.404412 0.780637 -1.233423
v -2.405721 0.782345 -1.235051
v -2.406457 0.782925 -1.233712
v -2.408054 0.784498 -1.235221
v -2.408966 0.785327 -1.233407
v -2.407242 0.783960 -1.236581
v -2.409494 0.786433 -1.231588
v -2.409766 0.787351 -1.230216
v -2.403743 0.778944 -1.226308
v -2.403921 0.779500 -1.225448
v -2.403089 0.778070 -1.225203
v -2.402729 0.777288 -1.225536
v -2.402542 0.776798 -1.226316
v -2.403414 0.778264 -1.227443
v -2.402847 0.777740 -1.228566
v -2.402116 0.776464 -1.227084
v -2.401985 0.776586 -1.227988
v -2.402351 0.777390 -1.229409
v -2.411603 0.786935 -1.237556
v -2.412678 0.787722 -1.236155
v -2.414019 0.788556 -1.237130
v -2.412872 0.787774 -1.238202
v -2.411610 0.787135 -1.238590
v -2.410440 0.786397 -1.238486
v -2.408924 0.785264 -1.237805
v -2.409894 0.785743 -1.236542
v -2.410882 0.786546 -1.234816
v -2.412840 0.788597 -1.234437
v -2.412600 0.789299 -1.233039
v -2.413355 0.789480 -1.234188
v -2.413941 0.789211 -1.235505
v -2.411295 0.787625 -1.233008
v -2.411372 0.788553 -1.231631
v -2.406614 0.782918 -1.228703
v -2.406914 0.783750 -1.227406
v -2.408328 0.785601 -1.228752
v -2.408033 0.784711 -1.230107
v -2.407465 0.783646 -1.231916
v -2.406058 0.781912 -1.230434
v -2.404793 0.780056 -1.228944
v -2.405277 0.780951 -1.227411
v -2.405526 0.781696 -1.226260
v -2.405246 0.781079 -1.232155
v -2.406601 0.782787 -1.233718
v -2.405825 0.782238 -1.235064
v -2.404522 0.780536 -1.233439
v -2.403409 0.778850 -1.231601
v -2.404065 0.779323 -1.230467
v -2.408189 0.784351 -1.235222
v -2.409108 0.785189 -1.233390
v -2.407339 0.783846 -1.236591
v -2.409643 0.786305 -1.231553
v -2.409881 0.787261 -1.230181
v -2.403912 0.778837 -1.226295
v -2.404050 0.779424 -1.225430
v -2.403578 0.778148 -1.227446
v -2.402664 0.776711 -1.226318
v -2.402856 0.777208 -1.225526
v -2.403184 0.778013 -1.225192
v -2.403004 0.777616 -1.228585
v -2.402464 0.777293 -1.229431
v -2.402070 0.776515 -1.228003
v -2.402233 0.776370 -1.227099
v -2.404038 0.779653 -1.225152
v -2.402857 0.777693 -1.224907
v -2.405552 0.781977 -1.225886
v -2.403184 0.778013 -1.225192
v -2.401924 0.775996 -1.226596
v -2.401751 0.776206 -1.227697
v -2.402305 0.776271 -1.225941
v -2.402070 0.776515 -1.228003
v -2.410017 0.786274 -1.238790
v -2.411531 0.787212 -1.238830
v -2.408562 0.785159 -1.238219
v -2.411610 0.787135 -1.238590
v -2.414263 0.789462 -1.235880
v -2.413403 0.789728 -1.234108
v -2.414424 0.788885 -1.237466
v -2.413355 0.789480 -1.234188
v -2.412472 0.789574 -1.232597
v -2.411347 0.788902 -1.231193
v -2.402448 0.776701 -1.225274
v -2.402235 0.777229 -1.229701
v -2.403140 0.778736 -1.231968
v -2.413257 0.788109 -1.238419
v -2.407014 0.783729 -1.237042
v -2.405521 0.782104 -1.235505
v -2.409908 0.787619 -1.229741
v -2.408372 0.785935 -1.228314
v -2.406958 0.784063 -1.226984
v -2.404233 0.780400 -1.233858
vn 0.538000 0.842600 0.024300
vn 0.609100 0.774400 -0.171100
vn 0.651100 0.746000 -0.139300
vn 0.589900 0.806600 0.036500
vn 0.610800 0.790600 0.041900
vn 0.541900 0.840200 0.017600
vn 0.491000 0.871100 -0.000400
vn 0.487800 0.871000 -0.058400
vn 0.539200 0.813000 -0.219500
vn 0.681100 0.650300 -0.336400
vn 0.679700 0.655100 -0.329800
vn 0.732400 0.627100 -0.264900
vn 0.717800 0.634800 -0.286000
vn 0.604600 0.714000 -0.353000
vn 0.639000 0.672200 -0.373700
vn 0.833100 0.545500 -0.090800
vn 0.827800 0.558300 -0.055400
vn 0.842300 0.537800 -0.035000
vn 0.851100 0.519000 -0.079000
vn 0.822900 0.567700 0.023700
vn 0.802400 0.596700 0.000200
vn 0.757000 0.651700 -0.047100
vn 0.796000 0.587800 -0.144000
vn 0.798900 0.590900 -0.111900
vn 0.761300 0.642000 0.090200
vn 0.774100 0.622500 0.115100
vn 0.796900 0.598800 0.079500
vn 0.780300 0.622100 0.064100
vn 0.736300 0.675100 0.046000
vn 0.715400 0.696200 0.059100
vn 0.651200 0.757900 0.038900
vn 0.700400 0.706900 -0.098900
vn 0.674700 0.737000 0.039200
vn 0.752700 0.621400 -0.217200
vn 0.765200 0.615400 -0.189100
vn 0.863400 0.495900 -0.092600
vn 0.857100 0.513400 -0.043200
vn 0.872200 0.485400 -0.060400
vn 0.892500 0.444000 -0.079300
vn 0.855900 0.513000 0.066000
vn 0.832000 0.553700 0.034800
vn 0.769600 0.622000 0.144200
vn 0.784300 0.589400 0.193500
vn 0.791000 0.594500 0.144400
vn 0.796900 0.594300 0.108700
vn -0.541600 -0.838400 -0.060500
vn -0.620900 -0.766900 0.162400
vn -0.665000 -0.735700 0.128400
vn -0.545000 -0.821500 -0.167500
vn -0.497800 -0.820900 -0.279800
vn -0.505500 -0.824400 -0.254500
vn -0.545400 -0.814800 -0.196800
vn -0.584100 -0.810100 -0.050200
vn -0.651100 -0.746100 0.139400
vn -0.702500 -0.622100 0.345500
vn -0.776900 -0.459800 0.430000
vn -0.783800 -0.436500 0.441600
vn -0.759200 -0.533700 0.372500
vn -0.721800 -0.625000 0.297100
vn -0.773500 -0.508200 0.378700
vn -0.836300 -0.538100 0.105000
vn -0.851600 -0.483400 0.202600
vn -0.825000 -0.510900 0.241300
vn -0.799200 -0.580200 0.156600
vn -0.757000 -0.651700 0.047100
vn -0.802500 -0.596600 -0.000300
vn -0.822900 -0.567600 -0.023800
vn -0.853700 -0.511700 0.096600
vn -0.855700 -0.467500 0.221600
vn -0.753800 -0.648900 -0.102900
vn -0.708800 -0.701700 -0.071400
vn -0.662000 -0.729900 -0.169800
vn -0.695900 -0.692600 -0.189800
vn -0.684100 -0.698100 -0.211100
vn -0.764300 -0.631800 -0.128800
vn -0.644900 -0.762500 -0.051200
vn -0.700400 -0.706800 0.099000
vn -0.603600 -0.779400 -0.168100
vn -0.755900 -0.613300 0.228900
vn -0.792800 -0.525000 0.309500
vn -0.859200 -0.496100 0.124800
vn -0.842100 -0.457900 0.284700
vn -0.826500 -0.562200 -0.028100
vn -0.800900 -0.598700 0.001500
vn -0.834700 -0.503100 0.224000
vn -0.828900 -0.455200 0.325000
vn -0.748600 -0.644800 -0.154300
vn -0.636100 -0.734900 -0.235200
vn -0.602900 -0.759100 -0.245500
vn -0.676900 -0.715200 -0.174000
vn 0.039000 0.261200 0.964500
vn 0.294000 -0.063400 0.953700
vn -0.075500 0.361500 0.929300
vn -0.828900 -0.455200 0.325000
vn 0.554900 -0.759000 0.340400
vn 0.736000 -0.657400 -0.161800
vn 0.356300 -0.758600 0.545500
vn -0.602900 -0.759100 -0.245500
vn 0.281700 0.004400 -0.959500
vn 0.013000 0.182700 -0.983100
vn 0.415400 -0.146700 -0.897700
vn -0.497800 -0.820900 -0.279800
vn -0.734500 0.675900 -0.061300
vn -0.477500 0.841300 0.253400
vn -0.761300 0.396100 -0.513200
vn -0.783800 -0.436500 0.441600
vn -0.306700 0.794800 0.523600
vn -0.211900 0.696600 0.685500
vn 0.398600 -0.548700 0.734900
vn 0.637700 -0.543300 -0.546000
vn 0.558500 -0.490100 -0.669200
vn -0.409900 0.239300 -0.880100
vn 0.477400 -0.266600 -0.837200
vn 0.496400 -0.341800 -0.797900
vn -0.165300 0.597500 0.784600
vn -0.151200 0.528400 0.835400
vn -0.136000 0.455500 0.879800
vn 0.511300 -0.414000 -0.753100
vt 0.839504 0.118056
vt 0.856743 0.205307
vt 0.741230 0.205307
vt 0.734555 0.106726
vt 0.724541 0.032791
vt 0.813647 0.052618
vt 0.868992 0.081539
vt 0.913398 0.129584
vt 0.940923 0.205307
vt 0.839504 0.292557
vt 0.813647 0.357995
vt 0.724541 0.377822
vt 0.734555 0.303887
vt 0.913398 0.281029
vt 0.868992 0.329074
vt 0.369475 0.299954
vt 0.368286 0.370940
vt 0.245840 0.351447
vt 0.246397 0.288815
vt 0.246768 0.205307
vt 0.370268 0.205307
vt 0.494283 0.205307
vt 0.492822 0.304944
vt 0.490632 0.379672
vt 0.369475 0.110659
vt 0.246397 0.121798
vt 0.245841 0.059166
vt 0.368286 0.039673
vt 0.490632 0.030941
vt 0.492822 0.105669
vt 0.616755 0.103478
vt 0.619174 0.205307
vt 0.613127 0.027106
vt 0.616755 0.307135
vt 0.613126 0.383507
vt 0.123273 0.268175
vt 0.123047 0.315326
vt 0.054743 0.283353
vt 0.030912 0.249131
vt 0.030973 0.205306
vt 0.123423 0.205306
vt 0.123273 0.142438
vt 0.030912 0.161481
vt 0.054744 0.127260
vt 0.123047 0.095287
vt 0.839504 0.118056
vt 0.856743 0.205307
vt 0.968983 0.205307
vt 0.938030 0.133427
vt 0.876123 0.061548
vt 0.805028 0.030806
vt 0.721203 0.008146
vt 0.734555 0.106726
vt 0.741230 0.205307
vt 0.839504 0.292557
vt 0.805028 0.379807
vt 0.876123 0.349065
vt 0.938030 0.277186
vt 0.734555 0.303887
vt 0.721203 0.402467
vt 0.369475 0.299954
vt 0.367890 0.394602
vt 0.489902 0.404581
vt 0.492822 0.304944
vt 0.494283 0.205307
vt 0.370268 0.205307
vt 0.246768 0.205307
vt 0.246397 0.288815
vt 0.245655 0.372324
vt 0.369475 0.110659
vt 0.492822 0.105669
vt 0.489902 0.006032
vt 0.367890 0.016011
vt 0.245655 0.038289
vt 0.246397 0.121798
vt 0.616755 0.103478
vt 0.619174 0.205307
vt 0.611917 0.001649
vt 0.616755 0.307135
vt 0.611917 0.408964
vt 0.123273 0.268175
vt 0.122972 0.331043
vt 0.123423 0.205306
vt 0.000156 0.205306
vt 0.000125 0.242784
vt 0.000064 0.280261
vt 0.123273 0.142438
vt 0.122972 0.079570
vt 0.000064 0.130352
vt 0.000125 0.167829
vt 0.122972 0.331043
vt 0.030806 0.283587
vt 0.245655 0.372324
vt 0.030806 0.283587
vt 0.000125 0.167829
vt 0.030806 0.127026
vt 0.000156 0.205306
vt 0.030806 0.127026
vt 0.805028 0.030806
vt 0.873826 0.071832
vt 0.721203 0.008146
vt 0.873826 0.071832
vt 0.938030 0.277186
vt 0.873826 0.338781
vt 0.968983 0.205307
vt 0.873826 0.338781
vt 0.805028 0.379807
vt 0.721203 0.402467
vt 0.000125 0.242784
vt 0.122972 0.079570
vt 0.245655 0.038289
vt 0.938030 0.133427
vt 0.611917 0.001649
vt 0.489902 0.006032
vt 0.611917 0.408964
vt 0.489902 0.404581
vt 0.367890 0.394602
vt 0.367890 0.016011
f 1/1/1 2/2/2 3/3/3
f 1/1/1 3/3/3 4/4/4
f 1/1/1 4/4/4 5/5/5
f 1/1/1 5/5/5 6/6/6
f 1/1/1 6/6/6 7/7/7
f 1/1/1 7/7/7 8/8/8
f 1/1/1 8/8/8 9/9/9
f 1/1/1 9/9/9 2/2/2
f 10/10/10 11/11/11 12/12/12
f 10/10/10 12/12/12 13/13/13
f 10/10/10 13/13/13 3/3/3
f 10/10/10 3/3/3 2/2/2
f 10/10/10 2/2/2 9/9/9
f 10/10/10 9/9/9 14/14/14
f 10/10/10 14/14/14 15/15/15
f 10/10/10 15/15/15 11/11/11
f 16/16/16 17/17/17 18/18/18
f 16/16/16 18/18/18 19/19/19
f 16/16/16 19/19/19 20/20/20
f 16/16/16 20/20/20 21/21/21
f 16/16/16 21/21/21 22/22/22
f 16/16/16 22/22/22 23/23/23
f 16/16/16 23/23/23 24/24/24
f 16/16/16 24/24/24 17/17/17
f 25/25/25 21/21/21 20/20/20
f 25/25/25 20/20/20 26/26/26
f 25/25/25 26/26/26 27/27/27
f 25/25/25 27/27/27 28/28/28
f 25/25/25 28/28/28 29/29/29
f 25/25/25 29/29/29 30/30/30
f 25/25/25 30/30/30 22/22/22
f 25/25/25 22/22/22 21/21/21
f 31/31/31 32/32/32 22/22/22
f 31/31/31 22/22/22 30/30/30
f 31/31/31 30/30/30 29/29/29
f 31/31/31 29/29/29 33/33/33
f 31/31/31 33/33/33 5/5/5
f 31/31/31 5/5/5 4/4/4
f 31/31/31 4/4/4 3/3/3
f 31/31/31 3/3/3 32/32/32
f 34/34/34 35/35/35 24/24/24
f 34/34/34 24/24/24 23/23/23
f 34/34/34 23/23/23 22/22/22
f 34/34/34 22/22/22 32/32/32
f 34/34/34 32/32/32 3/3/3
f 34/34/34 3/3/3 13/13/13
f 34/34/34 13/13/13 12/12/12
f 34/34/34 12/12/12 35/35/35
f 36/36/36 37/37/37 38/38/38
f 36/36/36 38/38/38 39/39/39
f 36/36/36 39/39/39 40/40/40
f 36/36/36 40/40/40 41/41/41
f 36/36/36 41/41/41 20/20/20
f 36/36/36 20/20/20 19/19/19
f 36/36/36 19/19/19 18/18/18
f 36/36/36 18/18/18 37/37/37
f 42/42/42 41/41/41 40/40/40
f 42/42/42 40/40/40 43/43/43
f 42/42/42 43/43/43 44/44/44
f 42/42/42 44/44/44 45/45/45
f 42/42/42 45/45/45 27/27/27
f 42/42/42 27/27/27 26/26/26
f 42/42/42 26/26/26 20/20/20
f 42/42/42 20/20/20 41/41/41
f 46/46/46 47/47/47 48/48/48
f 46/46/46 48/48/48 49/49/49
f 46/46/46 49/49/49 50/50/50
f 46/46/46 50/50/50 51/51/51
f 46/46/46 51/51/51 52/52/52
f 46/46/46 52/52/52 53/53/53
f 46/46/46 53/53/53 54/54/54
f 46/46/46 54/54/54 47/47/47
f 55/55/55 56/56/56 57/57/57
f 55/55/55 57/57/57 58/58/58
f 55/55/55 58/58/58 48/48/48
f 55/55/55 48/48/48 47/47/47
f 55/55/55 47/47/47 54/54/54
f 55/55/55 54/54/54 59/59/59
f 55/55/55 59/59/59 60/60/60
f 55/55/55 60/60/60 56/56/56
f 61/61/61 62/62/62 63/63/63
f 61/61/61 63/63/63 64/64/64
f 61/61/61 64/64/64 65/65/65
f 61/61/61 65/65/65 66/66/66
f 61/61/61 66/66/66 67/67/67
f 61/61/61 67/67/67 68/68/68
f 61/61/61 68/68/68 69/69/69
f 61/61/61 69/69/69 62/62/62
f 70/70/70 66/66/66 65/65/65
f 70/70/70 65/65/65 71/71/71
f 70/70/70 71/71/71 72/72/72
f 70/70/70 72/72/72 73/73/73
f 70/70/70 73/73/73 74/74/74
f 70/70/70 74/74/74 75/75/75
f 70/70/70 75/75/75 67/67/67
f 70/70/70 67/67/67 66/66/66
f 76/76/76 77/77/77 54/54/54
f 76/76/76 54/54/54 53/53/53
f 76/76/76 53/53/53 52/52/52
f 76/76/76 52/52/52 78/78/78
f 76/76/76 78/78/78 72/72/72
f 76/76/76 72/72/72 71/71/71
f 76/76/76 71/71/71 65/65/65
f 76/76/76 65/65/65 77/77/77
f 79/79/79 80/80/80 60/60/60
f 79/79/79 60/60/60 59/59/59
f 79/79/79 59/59/59 54/54/54
f 79/79/79 54/54/54 77/77/77
f 79/79/79 77/77/77 65/65/65
f 79/79/79 65/65/65 64/64/64
f 79/79/79 64/64/64 63/63/63
f 79/79/79 63/63/63 80/80/80
f 81/81/81 82/82/82 69/69/69
f 81/81/81 69/69/69 68/68/68
f 81/81/81 68/68/68 67/67/67
f 81/81/81 67/67/67 83/83/83
f 81/81/81 83/83/83 84/84/84
f 81/81/81 84/84/84 85/85/85
f 81/81/81 85/85/85 86/86/86
f 81/81/81 86/86/86 82/82/82
f 87/87/87 83/83/83 67/67/67
f 87/87/87 67/67/67 75/75/75
f 87/87/87 75/75/75 74/74/74
f 87/87/87 74/74/74 88/88/88
f 87/87/87 88/88/88 89/89/89
f 87/87/87 89/89/89 90/90/90
f 87/87/87 90/90/90 84/84/84
f 87/87/87 84/84/84 83/83/83
f 91/91/91 92/92/92 38/38/38
f 91/91/91 38/38/38 37/37/37
f 91/91/91 37/37/37 18/18/18
f 91/91/91 18/18/18 93/93/93
f 91/91/91 93/93/93 69/69/69
f 91/91/91 69/69/69 82/82/82
f 91/91/91 82/82/82 94/94/94
f 91/91/91 94/94/94 92/92/92
f 95/95/95 96/96/96 44/44/44
f 95/95/95 44/44/44 43/43/43
f 95/95/95 43/43/43 40/40/40
f 95/95/95 40/40/40 97/97/97
f 95/95/95 97/97/97 84/84/84
f 95/95/95 84/84/84 90/90/90
f 95/95/95 90/90/90 98/98/98
f 95/95/95 98/98/98 96/96/96
f 99/99/99 100/100/100 7/7/7
f 99/99/99 7/7/7 6/6/6
f 99/99/99 6/6/6 5/5/5
f 99/99/99 5/5/5 101/101/101
f 99/99/99 101/101/101 52/52/52
f 99/99/99 52/52/52 51/51/51
f 99/99/99 51/51/51 102/102/102
f 99/99/99 102/102/102 100/100/100
f 103/103/103 104/104/104 15/15/15
f 103/103/103 15/15/15 14/14/14
f 103/103/103 14/14/14 9/9/9
f 103/103/103 9/9/9 105/105/105
f 103/103/103 105/105/105 48/48/48
f 103/103/103 48/48/48 58/58/58
f 103/103/103 58/58/58 106/106/106
f 103/103/103 106/106/106 104/104/104
f 107/107/107 108/108/108 12/12/12
f 107/107/107 12/12/12 11/11/11
f 107/107/107 11/11/11 15/15/15
f 107/107/107 15/15/15 104/104/104
f 107/107/107 104/104/104 106/106/106
f 107/107/107 106/106/106 56/56/56
f 107/107/107 56/56/56 60/60/60
f 107/107/107 60/60/60 108/108/108
f 109/109/109 97/97/97 40/40/40
f 109/109/109 40/40/40 39/39/39
f 109/109/109 39/39/39 38/38/38
f 109/109/109 38/38/38 92/92/92
f 109/109/109 92/92/92 94/94/94
f 109/109/109 94/94/94 85/85/85
f 109/109/109 85/85/85 84/84/84
f 109/109/109 84/84/84 97/97/97
f 110/110/110 111/111/111 27/27/27
f 110/110/110 27/27/27 45/45/45
f 110/110/110 45/45/45 44/44/44
f 110/110/110 44/44/44 96/96/96
f 110/110/110 96/96/96 98/98/98
f 110/110/110 98/98/98 88/88/88
f 110/110/110 88/88/88 74/74/74
f 110/110/110 74/74/74 111/111/111
f 112/112/112 105/105/105 9/9/9
f 112/112/112 9/9/9 8/8/8
f 112/112/112 8/8/8 7/7/7
f 112/112/112 7/7/7 100/100/100
f 112/112/112 100/100/100 102/102/102
f 112/112/112 102/102/102 49/49/49
f 112/112/112 49/49/49 48/48/48
f 112/112/112 48/48/48 105/105/105
f 113/113/113 101/101/101 5/5/5
f 113/113/113 5/5/5 33/33/33
f 113/113/113 33/33/33 29/29/29
f 113/113/113 29/29/29 114/114/114
f 113/113/113 114/114/114 72/72/72
f 113/113/113 72/72/72 78/78/78
f 113/113/113 78/78/78 52/52/52
f 113/113/113 52/52/52 101/101/101
f 115/115/115 116/116/116 24/24/24
f 115/115/115 24/24/24 35/35/35
f 115/115/115 35/35/35 12/12/12
f 115/115/115 12/12/12 108/108/108
f 115/115/115 108/108/108 60/60/60
f 115/115/115 60/60/60 80/80/80
f 115/115/115 80/80/80 63/63/63
f 115/115/115 63/63/63 116/116/116
f 117/117/117 93/93/93 18/18/18
f 117/117/117 18/18/18 17/17/17
f 117/117/117 17/17/17 24/24/24
f 117/117/117 24/24/24 116/116/116
f 117/117/117 116/116/116 63/63/63
f 117/117/117 63/63/63 62/62/62
f 117/117/117 62/62/62 69/69/69
f 117/117/117 69/69/69 93/93/93
f 118/118/118 114/114/114 29/29/29
f 118/118/118 29/29/29 28/28/28
f 118/118/118 28/28/28 27/27/27
f 118/118/118 27/27/27 111/111/111
f 118/118/118 111/111/111 74/74/74
f 118/118/118 74/74/74 73/73/73
f 118/118/118 73/73/73 72/72/72
f 118/118/118 72/72/72 114/114/114
