v -2.398455 0.699705 -1.193752
v -2.397316 0.701102 -1.192020
v -2.394774 0.699341 -1.193251
v -2.396355 0.697904 -1.195029
v -2.397411 0.696890 -1.196609
v -2.399009 0.698611 -1.195392
v -2.399740 0.699770 -1.194192
v -2.399894 0.700950 -1.192698
v -2.399185 0.702320 -1.191030
v -2.395349 0.702441 -1.191252
v -2.393562 0.703408 -1.191007
v -2.391222 0.702339 -1.191629
v -2.392824 0.701012 -1.192188
v -2.397205 0.703317 -1.190534
v -2.395328 0.703655 -1.190642
v -2.385144 0.694396 -1.194598
v -2.383754 0.695650 -1.193781
v -2.381625 0.692827 -1.194392
v -2.382862 0.691713 -1.195101
v -2.384455 0.690289 -1.196169
v -2.386939 0.692791 -1.195819
v -2.389483 0.695170 -1.195262
v -2.387601 0.696863 -1.194005
v -2.386137 0.698194 -1.193183
v -2.388604 0.691350 -1.197383
v -2.385921 0.689019 -1.197564
v -2.386986 0.688107 -1.198707
v -2.389815 0.690313 -1.198660
v -2.392477 0.692611 -1.198286
v -2.391219 0.693676 -1.196918
v -2.393873 0.695877 -1.196109
v -2.392129 0.697359 -1.194368
v -2.395121 0.694847 -1.197588
v -2.390201 0.699111 -1.193154
v -2.388687 0.700512 -1.192410
v -2.380782 0.688816 -1.195684
v -2.379838 0.689672 -1.195204
v -2.379098 0.687676 -1.195729
v -2.379307 0.686552 -1.196121
v -2.380152 0.685789 -1.196591
v -2.381987 0.687737 -1.196443
v -2.383065 0.686806 -1.197522
v -2.380871 0.685174 -1.197380
v -2.381912 0.685197 -1.197994
v -2.383841 0.686147 -1.198426
v -2.398503 0.699527 -1.193567
v -2.397340 0.700942 -1.191815
v -2.399200 0.702198 -1.190878
v -2.399927 0.700813 -1.192562
v -2.399770 0.699666 -1.194096
v -2.399057 0.698469 -1.195264
v -2.397461 0.696754 -1.196476
v -2.396408 0.697733 -1.194838
v -2.394807 0.699187 -1.193042
v -2.395350 0.702303 -1.191030
v -2.393551 0.703317 -1.190833
v -2.395321 0.703583 -1.190515
v -2.397201 0.703213 -1.190368
v -2.392836 0.700878 -1.191963
v -2.391221 0.702249 -1.191454
v -2.385198 0.694286 -1.194366
v -2.383786 0.695575 -1.193602
v -2.386160 0.698113 -1.193005
v -2.387643 0.696744 -1.193775
v -2.389542 0.695037 -1.195043
v -2.387009 0.692667 -1.195598
v -2.384532 0.690173 -1.195947
v -2.382923 0.691610 -1.194868
v -2.381663 0.692757 -1.194212
v -2.388688 0.691214 -1.197174
v -2.391293 0.693530 -1.196713
v -2.392540 0.692495 -1.198140
v -2.389885 0.690205 -1.198510
v -2.387062 0.688004 -1.198557
v -2.386012 0.688890 -1.197354
v -2.393936 0.695718 -1.195911
v -2.392174 0.697214 -1.194155
v -2.395178 0.694720 -1.197448
v -2.390228 0.698983 -1.192927
v -2.388698 0.700426 -1.192233
v -2.380846 0.688717 -1.195449
v -2.379877 0.689605 -1.195022
v -2.382066 0.687623 -1.196220
v -2.380212 0.685704 -1.196424
v -2.379354 0.686478 -1.195945
v -2.379129 0.687625 -1.195595
v -2.383161 0.686679 -1.197312
v -2.383920 0.686045 -1.198277
v -2.381969 0.685123 -1.197881
v -2.380944 0.685079 -1.197224
v -2.379538 0.689929 -1.194962
v -2.378614 0.687174 -1.195773
v -2.381228 0.693169 -1.194075
v -2.379129 0.687625 -1.195595
v -2.380172 0.684588 -1.197264
v -2.381434 0.684691 -1.198042
v -2.379567 0.685102 -1.196566
v -2.381969 0.685123 -1.197881
v -2.399217 0.698182 -1.195884
v -2.400027 0.699719 -1.194324
v -2.397788 0.696490 -1.197079
v -2.399770 0.699666 -1.194096
v -2.397821 0.703563 -1.190221
v -2.395253 0.703922 -1.190482
v -2.399814 0.702671 -1.190632
v -2.395321 0.703583 -1.190515
v -2.392958 0.703693 -1.190846
v -2.390686 0.702744 -1.191363
v -2.378836 0.685764 -1.196188
v -2.384136 0.685880 -1.198663
v -2.387376 0.687755 -1.199023
v -2.400388 0.701303 -1.192287
v -2.395565 0.694445 -1.198021
v -2.392926 0.692203 -1.198679
v -2.388185 0.700943 -1.192082
v -2.385658 0.698603 -1.192829
v -2.383303 0.696036 -1.193428
v -2.390251 0.689918 -1.199021
vn 0.204400 0.738200 -0.642900
vn 0.050600 0.641900 -0.765100
vn 0.096300 0.609700 -0.786700
vn 0.235700 0.695200 -0.679100
vn 0.248900 0.676500 -0.693100
vn 0.199800 0.734500 -0.648500
vn 0.163500 0.772000 -0.614200
vn 0.108400 0.767300 -0.632000
vn -0.021000 0.687400 -0.725900
vn -0.073800 0.493200 -0.866800
vn -0.068300 0.498500 -0.864200
vn 0.012200 0.468100 -0.883600
vn -0.013000 0.476200 -0.879200
vn -0.118800 0.567200 -0.814900
vn -0.124400 0.518400 -0.846000
vn 0.212700 0.386500 -0.897400
vn 0.243400 0.403100 -0.882200
vn 0.268100 0.382200 -0.884300
vn 0.230900 0.358400 -0.904500
vn 0.314900 0.420200 -0.851000
vn 0.284800 0.450100 -0.846300
vn 0.223000 0.507500 -0.832300
vn 0.148700 0.429600 -0.890700
vn 0.179500 0.434900 -0.882400
vn 0.352400 0.509500 -0.785000
vn 0.380700 0.490400 -0.784000
vn 0.356400 0.460000 -0.813200
vn 0.335600 0.484200 -0.808000
vn 0.301300 0.542200 -0.784300
vn 0.305400 0.567600 -0.764500
vn 0.261600 0.637200 -0.724900
vn 0.152800 0.566500 -0.809700
vn 0.271000 0.612900 -0.742200
vn 0.064100 0.463300 -0.883800
vn 0.095000 0.457800 -0.883900
vn 0.223400 0.332500 -0.916300
vn 0.266600 0.355000 -0.896000
vn 0.256800 0.323400 -0.910700
vn 0.247400 0.277800 -0.928200
vn 0.367500 0.364600 -0.855500
vn 0.328900 0.405900 -0.852700
vn 0.406000 0.493300 -0.769300
vn 0.457900 0.463200 -0.758800
vn 0.414700 0.462500 -0.783600
vn 0.383700 0.458100 -0.801800
vn -0.239400 -0.736800 0.632300
vn -0.063200 -0.633300 0.771400
vn -0.111700 -0.598300 0.793500
vn -0.340400 -0.729100 0.593700
vn -0.427400 -0.746500 0.510000
vn -0.406700 -0.746300 0.526800
vn -0.367900 -0.725000 0.582200
vn -0.246200 -0.700900 0.669400
vn -0.096200 -0.609800 0.786700
vn 0.073700 -0.461100 0.884300
vn 0.121400 -0.281400 0.951900
vn 0.129100 -0.256400 0.957900
vn 0.076100 -0.362300 0.928900
vn 0.021700 -0.464900 0.885100
vn 0.075900 -0.334200 0.939400
vn -0.200900 -0.377400 0.904000
vn -0.117000 -0.312300 0.942700
vn -0.070700 -0.340400 0.937600
vn -0.138400 -0.420400 0.896700
vn -0.223100 -0.507400 0.832300
vn -0.285000 -0.449900 0.846400
vn -0.315000 -0.420100 0.851000
vn -0.215700 -0.349300 0.911800
vn -0.101300 -0.294300 0.950300
vn -0.361300 -0.518600 0.774900
vn -0.314300 -0.575300 0.755200
vn -0.387700 -0.619700 0.682400
vn -0.419600 -0.578900 0.699100
vn -0.435000 -0.588200 0.681700
vn -0.389500 -0.502300 0.771900
vn -0.270600 -0.644000 0.715500
vn -0.152800 -0.566600 0.809700
vn -0.363400 -0.677900 0.639000
vn -0.054500 -0.453700 0.889500
vn 0.004700 -0.353600 0.935300
vn -0.191900 -0.330500 0.924000
vn -0.037900 -0.281600 0.958800
vn -0.320400 -0.414600 0.851700
vn -0.282700 -0.452200 0.845900
vn -0.090500 -0.332800 0.938600
vn 0.004200 -0.277700 0.960700
vn -0.407100 -0.520100 0.750800
vn -0.438800 -0.634700 0.636000
vn -0.435600 -0.665100 0.606600
vn -0.397400 -0.603100 0.691600
vn 0.904800 0.335900 0.261800
vn 0.995800 -0.027100 0.086600
vn 0.827700 0.450600 0.334500
vn 0.004200 -0.277700 0.960700
vn 0.537600 -0.808300 -0.239900
vn 0.135800 -0.784100 -0.605500
vn 0.653800 -0.756500 0.014900
vn -0.435600 -0.665100 0.606600
vn -0.786900 -0.128700 -0.603500
vn -0.911900 0.089500 -0.400500
vn -0.677000 -0.294200 -0.674600
vn -0.427400 -0.746500 0.510000
vn -0.342000 0.782200 0.520700
vn 0.041400 0.929300 0.367000
vn -0.766100 0.472300 0.435900
vn 0.129100 -0.256400 0.957900
vn 0.356700 0.878600 0.317300
vn 0.543900 0.780600 0.307900
vn 0.840600 -0.541500 0.004200
vn -0.260200 -0.689700 -0.675700
vn -0.405300 -0.634800 -0.657800
vn -0.974000 0.226100 0.012500
vn -0.595500 -0.416900 -0.686700
vn -0.550000 -0.490900 -0.675600
vn 0.655200 0.684400 0.319800
vn 0.709000 0.618800 0.338200
vn 0.757200 0.548800 0.354100
vn -0.501400 -0.560200 -0.659300
vt 0.839504 0.118056
vt 0.856743 0.205307
vt 0.741230 0.205307
vt 0.734555 0.106726
vt 0.724541 0.032791
vt 0.813647 0.052618
vt 0.868992 0.081539
vt 0.913398 0.129584
vt 0.940923 0.205307
vt 0.839504 0.292557
vt 0.813647 0.357995
vt 0.724541 0.377822
vt 0.734555 0.303887
vt 0.913398 0.281029
vt 0.868992 0.329074
vt 0.369475 0.299954
vt 0.368286 0.370940
vt 0.245840 0.351447
vt 0.246397 0.288815
vt 0.246768 0.205307
vt 0.370268 0.205307
vt 0.494283 0.205307
vt 0.492822 0.304944
vt 0.490632 0.379672
vt 0.369475 0.110659
vt 0.246397 0.121798
vt 0.245841 0.059166
vt 0.368286 0.039673
vt 0.490632 0.030941
vt 0.492822 0.105669
vt 0.616755 0.103478
vt 0.619174 0.205307
vt 0.613127 0.027106
vt 0.616755 0.307135
vt 0.613126 0.383507
vt 0.123273 0.268175
vt 0.123047 0.315326
vt 0.054743 0.283353
vt 0.030912 0.249131
vt 0.030973 0.205306
vt 0.123423 0.205306
vt 0.123273 0.142438
vt 0.030912 0.161481
vt 0.054744 0.127260
vt 0.123047 0.095287
vt 0.839504 0.118056
vt 0.856743 0.205307
vt 0.968983 0.205307
vt 0.938030 0.133427
vt 0.876123 0.061548
vt 0.805028 0.030806
vt 0.721203 0.008146
vt 0.734555 0.106726
vt 0.741230 0.205307
vt 0.839504 0.292557
vt 0.805028 0.379807
vt 0.876123 0.349065
vt 0.938030 0.277186
vt 0.734555 0.303887
vt 0.721203 0.402467
vt 0.369475 0.299954
vt 0.367890 0.394602
vt 0.489902 0.404581
vt 0.492822 0.304944
vt 0.494283 0.205307
vt 0.370268 0.205307
vt 0.246768 0.205307
vt 0.246397 0.288815
vt 0.245655 0.372324
vt 0.369475 0.110659
vt 0.492822 0.105669
vt 0.489902 0.006032
vt 0.367890 0.016011
vt 0.245655 0.038289
vt 0.246397 0.121798
vt 0.616755 0.103478
vt 0.619174 0.205307
vt 0.611917 0.001649
vt 0.616755 0.307135
vt 0.611917 0.408964
vt 0.123273 0.268175
vt 0.122972 0.331043
vt 0.123423 0.205306
vt 0.000156 0.205306
vt 0.000125 0.242784
vt 0.000064 0.280261
vt 0.123273 0.142438
vt 0.122972 0.079570
vt 0.000064 0.130352
vt 0.000125 0.167829
vt 0.122972 0.331043
vt 0.030806 0.283587
vt 0.245655 0.372324
vt 0.030806 0.283587
vt 0.000125 0.167829
vt 0.030806 0.127026
vt 0.000156 0.205306
vt 0.030806 0.127026
vt 0.805028 0.030806
vt 0.873826 0.071832
vt 0.721203 0.008146
vt 0.873826 0.071832
vt 0.938030 0.277186
vt 0.873826 0.338781
vt 0.968983 0.205307
vt 0.873826 0.338781
vt 0.805028 0.379807
vt 0.721203 0.402467
vt 0.000125 0.242784
vt 0.122972 0.079570
vt 0.245655 0.038289
vt 0.938030 0.133427
vt 0.611917 0.001649
vt 0.489902 0.006032
vt 0.611917 0.408964
vt 0.489902 0.404581
vt 0.367890 0.394602
vt 0.367890 0.016011
f 1/1/1 2/2/2 3/3/3
f 1/1/1 3/3/3 4/4/4
f 1/1/1 4/4/4 5/5/5
f 1/1/1 5/5/5 6/6/6
f 1/1/1 6/6/6 7/7/7
f 1/1/1 7/7/7 8/8/8
f 1/1/1 8/8/8 9/9/9
f 1/1/1 9/9/9 2/2/2
f 10/10/10 11/11/11 12/12/12
f 10/10/10 12/12/12 13/13/13
f 10/10/10 13/13/13 3/3/3
f 10/10/10 3/3/3 2/2/2
f 10/10/10 2/2/2 9/9/9
f 10/10/10 9/9/9 14/14/14
f 10/10/10 14/14/14 15/15/15
f 10/10/10 15/15/15 11/11/11
f 16/16/16 17/17/17 18/18/18
f 16/16/16 18/18/18 19/19/19
f 16/16/16 19/19/19 20/20/20
f 16/16/16 20/20/20 21/21/21
f 16/16/16 21/21/21 22/22/22
f 16/16/16 22/22/22 23/23/23
f 16/16/16 23/23/23 24/24/24
f 16/16/16 24/24/24 17/17/17
f 25/25/25 21/21/21 20/20/20
f 25/25/25 20/20/20 26/26/26
f 25/25/25 26/26/26 27/27/27
f 25/25/25 27/27/27 28/28/28
f 25/25/25 28/28/28 29/29/29
f 25/25/25 29/29/29 30/30/30
f 25/25/25 30/30/30 22/22/22
f 25/25/25 22/22/22 21/21/21
f 31/31/31 32/32/32 22/22/22
f 31/31/31 22/22/22 30/30/30
f 31/31/31 30/30/30 29/29/29
f 31/31/31 29/29/29 33/33/33
f 31/31/31 33/33/33 5/5/5
f 31/31/31 5/5/5 4/4/4
f 31/31/31 4/4/4 3/3/3
f 31/31/31 3/3/3 32/32/32
f 34/34/34 35/35/35 24/24/24
f 34/34/34 24/24/24 23/23/23
f 34/34/34 23/23/23 22/22/22
f 34/34/34 22/22/22 32/32/32
f 34/34/34 32/32/32 3/3/3
f 34/34/34 3/3/3 13/13/13
f 34/34/34 13/13/13 12/12/12
f 34/34/34 12/12/12 35/35/35
f 36/36/36 37/37/37 38/38/38
f 36/36/36 38/38/38 39/39/39
f 36/36/36 39/39/39 40/40/40
f 36/36/36 40/40/40 41/41/41
f 36/36/36 41/41/41 20/20/20
f 36/36/36 20/20/20 19/19/19
f 36/36/36 19/19/19 18/18/18
f 36/36/36 18/18/18 37/37/37
f 42/42/42 41/41/41 40/40/40
f 42/42/42 40/40/40 43/43/43
f 42/42/42 43/43/43 44/44/44
f 42/42/42 44/44/44 45/45/45
f 42/42/42 45/45/45 27/27/27
f 42/42/42 27/27/27 26/26/26
f 42/42/42 26/26/26 20/20/20
f 42/42/42 20/20/20 41/41/41
f 46/46/46 47/47/47 48/48/48
f 46/46/46 48/48/48 49/49/49
f 46/46/46 49/49/49 50/50/50
f 46/46/46 50/50/50 51/51/51
f 46/46/46 51/51/51 52/52/52
f 46/46/46 52/52/52 53/53/53
f 46/46/46 53/53/53 54/54/54
f 46/46/46 54/54/54 47/47/47
f 55/55/55 56/56/56 57/57/57
f 55/55/55 57/57/57 58/58/58
f 55/55/55 58/58/58 48/48/48
f 55/55/55 48/48/48 47/47/47
f 55/55/55 47/47/47 54/54/54
f 55/55/55 54/54/54 59/59/59
f 55/55/55 59/59/59 60/60/60
f 55/55/55 60/60/60 56/56/56
f 61/61/61 62/62/62 63/63/63
f 61/61/61 63/63/63 64/64/64
f 61/61/61 64/64/64 65/65/65
f 61/61/61 65/65/65 66/66/66
f 61/61/61 66/66/66 67/67/67
f 61/61/61 67/67/67 68/68/68
f 61/61/61 68/68/68 69/69/69
f 61/61/61 69/69/69 62/62/62
f 70/70/70 66/66/66 65/65/65
f 70/70/70 65/65/65 71/71/71
f 70/70/70 71/71/71 72/72/72
f 70/70/70 72/72/72 73/73/73
f 70/70/70 73/73/73 74/74/74
f 70/70/70 74/74/74 75/75/75
f 70/70/70 75/75/75 67/67/67
f 70/70/70 67/67/67 66/66/66
f 76/76/76 77/77/77 54/54/54
f 76/76/76 54/54/54 53/53/53
f 76/76/76 53/53/53 52/52/52
f 76/76/76 52/52/52 78/78/78
f 76/76/76 78/78/78 72/72/72
f 76/76/76 72/72/72 71/71/71
f 76/76/76 71/71/71 65/65/65
f 76/76/76 65/65/65 77/77/77
f 79/79/79 80/80/80 60/60/60
f 79/79/79 60/60/60 59/59/59
f 79/79/79 59/59/59 54/54/54
f 79/79/79 54/54/54 77/77/77
f 79/79/79 77/77/77 65/65/65
f 79/79/79 65/65/65 64/64/64
f 79/79/79 64/64/64 63/63/63
f 79/79/79 63/63/63 80/80/80
f 81/81/81 82/82/82 69/69/69
f 81/81/81 69/69/69 68/68/68
f 81/81/81 68/68/68 67/67/67
f 81/81/81 67/67/67 83/83/83
f 81/81/81 83/83/83 84/84/84
f 81/81/81 84/84/84 85/85/85
f 81/81/81 85/85/85 86/86/86
f 81/81/81 86/86/86 82/82/82
f 87/87/87 83/83/83 67/67/67
f 87/87/87 67/67/67 75/75/75
f 87/87/87 75/75/75 74/74/74
f 87/87/87 74/74/74 88/88/88
f 87/87/87 88/88/88 89/89/89
f 87/87/87 89/89/89 90/90/90
f 87/87/87 90/90/90 84/84/84
f 87/87/87 84/84/84 83/83/83
f 91/91/91 92/92/92 38/38/38
f 91/91/91 38/38/38 37/37/37
f 91/91/91 37/37/37 18/18/18
f 91/91/91 18/18/18 93/93/93
f 91/91/91 93/93/93 69/69/69
f 91/91/91 69/69/69 82/82/82
f 91/91/91 82/82/82 94/94/94
f 91/91/91 94/94/94 92/92/92
f 95/95/95 96/96/96 44/44/44
f 95/95/95 44/44/44 43/43/43
f 95/95/95 43/43/43 40/40/40
f 95/95/95 40/40/40 97/97/97
f 95/95/95 97/97/97 84/84/84
f 95/95/95 84/84/84 90/90/90
f 95/95/95 90/90/90 98/98/98
f 95/95/95 98/98/98 96/96/96
f 99/99/99 100/100/100 7/7/7
f 99/99/99 7/7/7 6/6/6
f 99/99/99 6/6/6 5/5/5
f 99/99/99 5/5/5 101/101/101
f 99/99/99 101/101/101 52/52/52
f 99/99/99 52/52/52 51/51/51
f 99/99/99 51/51/51 102/102/102
f 99/99/99 102/102/102 100/100/100
f 103/103/103 104/104/104 15/15/15
f 103/103/103 15/15/15 14/14/14
f 103/103/103 14/14/14 9/9/9
f 103/103/103 9/9/9 105/105/105
f 103/103/103 105/105/105 48/48/48
f 103/103/103 48/48/48 58/58/58
f 103/103/103 58/58/58 106/106/106
f 103/103/103 106/106/106 104/104/104
f 107/107/107 108/108/108 12/12/12
f 107/107/107 12/12/12 11/11/11
f 107/107/107 11/11/11 15/15/15
f 107/107/107 15/15/15 104/104/104
f 107/107/107 104/104/104 106/106/106
f 107/107/107 106/106/106 56/56/56
f 107/107/107 56/56/56 60/60/60
f 107/107/107 60/60/60 108/108/108
f 109/109/109 97/97/97 40/40/40
f 109/109/109 40/40/40 39/39/39
f 109/109/109 39/39/39 38/38/38
f 109/109/109 38/38/38 92/92/92
f 109/109/109 92/92/92 94/94/94
f 109/109/109 94/94/94 85/85/85
f 109/109/109 85/85/85 84/84/84
f 109/109/109 84/84/84 97/97/97
f 110/110/110 111/111/111 27/27/27
f 110/110/110 27/27/27 45/45/45
f 110/110/110 45/45/45 44/44/44
f 110/110/110 44/44/44 96/96/96
f 110/110/110 96/96/96 98/98/98
f 110/110/110 98/98/98 88/88/88
f 110/110/110 88/88/88 74/74/74
f 110/110/110 74/74/74 111/111/111
f 112/112/112 105/105/105 9/9/9
f 112/112/112 9/9/9 8/8/8
f 112/112/112 8/8/8 7/7/7
f 112/112/112 7/7/7 100/100/100
f 112/112/112 100/100/100 102/102/102
f 112/112/112 102/102/102 49/49/49
f 112/112/112 49/49/49 48/48/48
f 112/112/112 48/48/48 105/105/105
f 113/113/113 101/101/101 5/5/5
f 113/113/113 5/5/5 33/33/33
f 113/113/113 33/33/33 29/29/29
f 113/113/113 29/29/29 114/114/114
f 113/113/113 114/114/114 72/72/72
f 113/113/113 72/72/72 78/78/78
f 113/113/113 78/78/78 52/52/52
f 113/113/113 52/52/52 101/101/101
f 115/115/115 116/116/116 24/24/24
f 115/115/115 24/24/24 35/35/35
f 115/115/115 35/35/35 12/12/12
f 115/115/115 12/12/12 108/108/108
f 115/115/115 108/108/108 60/60/60
f 115/115/115 60/60/60 80/80/80
f 115/115/115 80/80/80 63/63/63
f 115/115/115 63/63/63 116/116/116
f 117/117/117 93/93/93 18/18/18
f 117/117/117 18/18/18 17/17/17
f 117/117/117 17/17/17 24/24/24
f 117/117/117 24/24/24 116/116/116
f 117/117/117 116/116/116 63/63/63
f 117/117/117 63/63/63 62/62/62
f 117/117/117 62/62/62 69/69/69
f 117/117/117 69/69/69 93/93/93
f 118/118/118 114/114/114 29/29/29
f 118/118/118 29/29/29 28/28/28
f 118/118/118 28/28/28 27/27/27
f 118/118/118 27/27/27 111/111/111
f 118/118/118 111/111/111 74/74/74
f 118/118/118 74/74/74 73/73/73
f 118/118/118 73/73/73 72/72/72
f 118/118/118 72/72/72 114/114/114
