v -2.365365 0.727870 -1.074348
v -2.367382 0.728921 -1.074726
v -2.368236 0.726535 -1.072995
v -2.365867 0.725571 -1.072809
v -2.364062 0.724844 -1.072407
v -2.363877 0.726921 -1.073675
v -2.364208 0.728256 -1.074638
v -2.365120 0.729470 -1.075532
v -2.366785 0.730617 -1.076082
v -2.369465 0.729591 -1.073998
v -2.371067 0.729939 -1.073062
v -2.372231 0.728272 -1.071711
v -2.370527 0.727527 -1.072412
v -2.368669 0.730960 -1.075229
v -2.370031 0.730700 -1.074142
v -2.373583 0.719314 -1.068463
v -2.375260 0.720081 -1.068076
v -2.375958 0.716949 -1.067266
v -2.374476 0.716269 -1.067623
v -2.372486 0.715389 -1.067966
v -2.371330 0.718319 -1.068837
v -2.370221 0.721180 -1.069920
v -2.372572 0.722229 -1.069508
v -2.374319 0.723043 -1.069070
v -2.369016 0.717397 -1.068852
v -2.370439 0.714574 -1.067968
v -2.368882 0.713979 -1.067869
v -2.367259 0.716723 -1.068758
v -2.365950 0.719530 -1.069783
v -2.367796 0.720224 -1.069915
v -2.366712 0.722986 -1.071283
v -2.369186 0.723937 -1.071349
v -2.364819 0.722308 -1.071055
v -2.371558 0.725020 -1.070870
v -2.373312 0.725873 -1.070331
v -2.375141 0.713090 -1.066877
v -2.376240 0.713607 -1.066558
v -2.376130 0.711605 -1.066294
v -2.375562 0.710649 -1.066381
v -2.374557 0.710184 -1.066637
v -2.373662 0.712426 -1.067173
v -2.372128 0.711825 -1.067134
v -2.373497 0.709782 -1.066557
v -2.372415 0.710045 -1.066610
v -2.370956 0.711389 -1.067008
v -2.365398 0.727745 -1.074552
v -2.367446 0.728809 -1.074929
v -2.366835 0.730530 -1.076232
v -2.365144 0.729373 -1.075682
v -2.364219 0.728183 -1.074750
v -2.363885 0.726823 -1.073827
v -2.364073 0.724752 -1.072564
v -2.365901 0.725456 -1.073018
v -2.368298 0.726430 -1.073203
v -2.369559 0.729492 -1.074197
v -2.371153 0.729873 -1.073208
v -2.370091 0.730648 -1.074250
v -2.368742 0.730884 -1.075376
v -2.370615 0.727435 -1.072616
v -2.372310 0.728210 -1.071862
v -2.373649 0.719256 -1.068689
v -2.375319 0.720042 -1.068243
v -2.374384 0.722996 -1.069233
v -2.372645 0.722160 -1.069728
v -2.370273 0.721102 -1.070143
v -2.371377 0.718253 -1.069066
v -2.372530 0.715331 -1.068198
v -2.374540 0.716220 -1.067852
v -2.376016 0.716916 -1.067436
v -2.369044 0.717323 -1.069081
v -2.367827 0.720137 -1.070139
v -2.365963 0.719461 -1.069951
v -2.367270 0.716663 -1.068929
v -2.368890 0.713925 -1.068043
v -2.370462 0.714508 -1.068200
v -2.366745 0.722884 -1.071499
v -2.369243 0.723844 -1.071565
v -2.364831 0.722228 -1.071217
v -2.371639 0.724938 -1.071082
v -2.373384 0.725818 -1.070488
v -2.375205 0.713044 -1.067107
v -2.376299 0.713577 -1.066728
v -2.373705 0.712371 -1.067406
v -2.374589 0.710144 -1.066811
v -2.375611 0.710616 -1.066553
v -2.376171 0.711582 -1.066420
v -2.372149 0.711762 -1.067367
v -2.370962 0.711337 -1.067183
v -2.372421 0.710008 -1.066740
v -2.373512 0.709735 -1.066732
v -2.376635 0.713767 -1.066526
v -2.376365 0.711024 -1.066146
v -2.376480 0.717162 -1.067222
v -2.376171 0.711582 -1.066420
v -2.373960 0.709080 -1.066443
v -2.372643 0.709461 -1.066463
v -2.374869 0.709419 -1.066535
v -2.372421 0.710008 -1.066740
v -2.363381 0.726560 -1.073518
v -2.363919 0.728282 -1.074695
v -2.363462 0.724559 -1.072343
v -2.364219 0.728183 -1.074750
v -2.368437 0.731382 -1.075704
v -2.370219 0.730926 -1.074158
v -2.366609 0.731143 -1.076600
v -2.370091 0.730648 -1.074250
v -2.371643 0.730028 -1.072814
v -2.372837 0.728494 -1.071544
v -2.375724 0.709821 -1.066293
v -2.370566 0.711219 -1.067044
v -2.368365 0.713756 -1.067914
v -2.365049 0.729960 -1.075993
v -2.364191 0.722046 -1.071051
v -2.365338 0.719267 -1.069814
v -2.373931 0.726134 -1.070221
v -2.374933 0.723294 -1.068996
v -2.375847 0.720320 -1.068021
v -2.366676 0.716471 -1.068802
vn 0.072000 0.566000 0.821200
vn 0.283500 0.510800 0.811600
vn 0.266700 0.463900 0.844800
vn 0.077200 0.511900 0.855500
vn 0.078800 0.488700 0.868900
vn 0.079700 0.563400 0.822300
vn 0.080800 0.613600 0.785400
vn 0.135400 0.624700 0.769000
vn 0.307800 0.580200 0.754000
vn 0.470100 0.398900 0.787300
vn 0.463200 0.402400 0.789600
vn 0.417400 0.346600 0.840000
vn 0.433100 0.362500 0.825200
vn 0.460500 0.488300 0.741300
vn 0.492800 0.440700 0.750200
vn 0.284200 0.205200 0.936600
vn 0.247900 0.212800 0.945100
vn 0.233800 0.185100 0.954500
vn 0.279700 0.172200 0.944500
vn 0.170100 0.209700 0.962800
vn 0.185000 0.247800 0.951000
vn 0.214100 0.322900 0.921900
vn 0.322000 0.266600 0.908400
vn 0.291900 0.262900 0.919600
vn 0.084300 0.289000 0.953600
vn 0.065300 0.262200 0.962800
vn 0.107400 0.238200 0.965200
vn 0.116000 0.268200 0.956300
vn 0.117500 0.336100 0.934400
vn 0.097800 0.360800 0.927500
vn 0.095200 0.444400 0.890700
vn 0.244300 0.403000 0.882000
vn 0.102700 0.416600 0.903300
vn 0.377800 0.325700 0.866700
vn 0.354700 0.310900 0.881800
vn 0.297500 0.148900 0.943000
vn 0.247200 0.158700 0.955900
vn 0.269800 0.130500 0.954000
vn 0.296300 0.088500 0.951000
vn 0.142400 0.140300 0.979800
vn 0.162900 0.191700 0.967800
vn 0.036200 0.258600 0.965300
vn -0.004700 0.214900 0.976600
vn 0.043800 0.225400 0.973300
vn 0.079600 0.229100 0.970100
vn -0.038500 -0.554900 -0.831000
vn -0.279000 -0.498000 -0.821000
vn -0.260700 -0.447500 -0.855400
vn 0.061800 -0.519900 -0.852000
vn 0.182600 -0.517600 -0.835900
vn 0.156300 -0.522300 -0.838300
vn 0.089400 -0.508600 -0.856300
vn -0.062100 -0.515000 -0.854900
vn -0.266700 -0.463900 -0.844700
vn -0.486600 -0.366800 -0.792800
vn -0.599200 -0.205100 -0.773900
vn -0.613600 -0.183300 -0.768000
vn -0.534200 -0.269600 -0.801200
vn -0.445500 -0.354100 -0.822200
vn -0.545700 -0.242000 -0.802200
vn -0.299100 -0.199600 -0.933100
vn -0.400600 -0.160600 -0.902100
vn -0.428400 -0.202200 -0.880600
vn -0.335400 -0.260600 -0.905300
vn -0.214100 -0.322800 -0.921900
vn -0.185000 -0.247700 -0.951000
vn -0.170000 -0.209600 -0.962900
vn -0.297700 -0.167600 -0.939800
vn -0.420900 -0.147700 -0.895000
vn -0.069600 -0.295900 -0.952600
vn -0.083700 -0.366200 -0.926700
vn 0.025300 -0.392600 -0.919300
vn 0.032600 -0.342400 -0.939000
vn 0.056700 -0.348200 -0.935700
vn -0.048900 -0.272000 -0.961000
vn -0.081300 -0.448800 -0.889900
vn -0.244300 -0.403000 -0.882000
vn 0.043200 -0.459700 -0.887000
vn -0.390500 -0.319100 -0.863500
vn -0.483700 -0.238500 -0.842100
vn -0.327200 -0.156200 -0.931900
vn -0.478200 -0.154700 -0.864500
vn -0.167200 -0.202600 -0.964800
vn -0.186100 -0.250500 -0.950000
vn -0.414900 -0.188500 -0.890100
vn -0.513300 -0.164000 -0.842400
vn -0.019300 -0.285400 -0.958200
vn 0.095700 -0.395600 -0.913400
vn 0.116500 -0.428300 -0.896100
vn 0.024300 -0.372900 -0.927500
vn -0.930100 0.060000 0.362400
vn -0.827400 -0.328900 0.455200
vn -0.934900 0.200000 0.293200
vn -0.513300 -0.164000 -0.842400
vn -0.121400 -0.956600 0.264800
vn 0.403100 -0.845400 0.350300
vn -0.373300 -0.917600 0.136500
vn 0.116500 -0.428300 -0.896100
vn 0.997600 0.062900 0.030000
vn 0.933500 0.329200 -0.141900
vn 0.985600 -0.135100 0.101900
vn 0.182600 -0.517600 -0.835900
vn -0.190800 0.899500 -0.393000
vn -0.430700 0.902100 -0.025600
vn 0.253100 0.731100 -0.633600
vn -0.613600 -0.183300 -0.768000
vn -0.639200 0.750200 0.169300
vn -0.761000 0.598400 0.250300
vn -0.556600 -0.773900 0.302000
vn 0.736600 -0.639300 0.220500
vn 0.829400 -0.540000 0.142900
vn 0.713600 0.519700 -0.469800
vn 0.952800 -0.277900 0.122600
vn 0.925300 -0.360400 0.118100
vn -0.836700 0.473800 0.274800
vn -0.877000 0.396300 0.271700
vn -0.910400 0.316800 0.266000
vn 0.891400 -0.438900 0.112400
vt 0.839504 0.118056
vt 0.856743 0.205307
vt 0.741230 0.205307
vt 0.734555 0.106726
vt 0.724541 0.032791
vt 0.813647 0.052618
vt 0.868992 0.081539
vt 0.913398 0.129584
vt 0.940923 0.205307
vt 0.839504 0.292557
vt 0.813647 0.357995
vt 0.724541 0.377822
vt 0.734555 0.303887
vt 0.913398 0.281029
vt 0.868992 0.329074
vt 0.369475 0.299954
vt 0.368286 0.370940
vt 0.245840 0.351447
vt 0.246397 0.288815
vt 0.246768 0.205307
vt 0.370268 0.205307
vt 0.494283 0.205307
vt 0.492822 0.304944
vt 0.490632 0.379672
vt 0.369475 0.110659
vt 0.246397 0.121798
vt 0.245841 0.059166
vt 0.368286 0.039673
vt 0.490632 0.030941
vt 0.492822 0.105669
vt 0.616755 0.103478
vt 0.619174 0.205307
vt 0.613127 0.027106
vt 0.616755 0.307135
vt 0.613126 0.383507
vt 0.123273 0.268175
vt 0.123047 0.315326
vt 0.054743 0.283353
vt 0.030912 0.249131
vt 0.030973 0.205306
vt 0.123423 0.205306
vt 0.123273 0.142438
vt 0.030912 0.161481
vt 0.054744 0.127260
vt 0.123047 0.095287
vt 0.839504 0.118056
vt 0.856743 0.205307
vt 0.968983 0.205307
vt 0.938030 0.133427
vt 0.876123 0.061548
vt 0.805028 0.030806
vt 0.721203 0.008146
vt 0.734555 0.106726
vt 0.741230 0.205307
vt 0.839504 0.292557
vt 0.805028 0.379807
vt 0.876123 0.349065
vt 0.938030 0.277186
vt 0.734555 0.303887
vt 0.721203 0.402467
vt 0.369475 0.299954
vt 0.367890 0.394602
vt 0.489902 0.404581
vt 0.492822 0.304944
vt 0.494283 0.205307
vt 0.370268 0.205307
vt 0.246768 0.205307
vt 0.246397 0.288815
vt 0.245655 0.372324
vt 0.369475 0.110659
vt 0.492822 0.105669
vt 0.489902 0.006032
vt 0.367890 0.016011
vt 0.245655 0.038289
vt 0.246397 0.121798
vt 0.616755 0.103478
vt 0.619174 0.205307
vt 0.611917 0.001649
vt 0.616755 0.307135
vt 0.611917 0.408964
vt 0.123273 0.268175
vt 0.122972 0.331043
vt 0.123423 0.205306
vt 0.000156 0.205306
vt 0.000125 0.242784
vt 0.000064 0.280261
vt 0.123273 0.142438
vt 0.122972 0.079570
vt 0.000064 0.130352
vt 0.000125 0.167829
vt 0.122972 0.331043
vt 0.030806 0.283587
vt 0.245655 0.372324
vt 0.030806 0.283587
vt 0.000125 0.167829
vt 0.030806 0.127026
vt 0.000156 0.205306
vt 0.030806 0.127026
vt 0.805028 0.030806
vt 0.873826 0.071832
vt 0.721203 0.008146
vt 0.873826 0.071832
vt 0.938030 0.277186
vt 0.873826 0.338781
vt 0.968983 0.205307
vt 0.873826 0.338781
vt 0.805028 0.379807
vt 0.721203 0.402467
vt 0.000125 0.242784
vt 0.122972 0.079570
vt 0.245655 0.038289
vt 0.938030 0.133427
vt 0.611917 0.001649
vt 0.489902 0.006032
vt 0.611917 0.408964
vt 0.489902 0.404581
vt 0.367890 0.394602
vt 0.367890 0.016011
f 1/1/1 2/2/2 3/3/3
f 1/1/1 3/3/3 4/4/4
f 1/1/1 4/4/4 5/5/5
f 1/1/1 5/5/5 6/6/6
f 1/1/1 6/6/6 7/7/7
f 1/1/1 7/7/7 8/8/8
f 1/1/1 8/8/8 9/9/9
f 1/1/1 9/9/9 2/2/2
f 10/10/10 11/11/11 12/12/12
f 10/10/10 12/12/12 13/13/13
f 10/10/10 13/13/13 3/3/3
f 10/10/10 3/3/3 2/2/2
f 10/10/10 2/2/2 9/9/9
f 10/10/10 9/9/9 14/14/14
f 10/10/10 14/14/14 15/15/15
f 10/10/10 15/15/15 11/11/11
f 16/16/16 17/17/17 18/18/18
f 16/16/16 18/18/18 19/19/19
f 16/16/16 19/19/19 20/20/20
f 16/16/16 20/20/20 21/21/21
f 16/16/16 21/21/21 22/22/22
f 16/16/16 22/22/22 23/23/23
f 16/16/16 23/23/23 24/24/24
f 16/16/16 24/24/24 17/17/17
f 25/25/25 21/21/21 20/20/20
f 25/25/25 20/20/20 26/26/26
f 25/25/25 26/26/26 27/27/27
f 25/25/25 27/27/27 28/28/28
f 25/25/25 28/28/28 29/29/29
f 25/25/25 29/29/29 30/30/30
f 25/25/25 30/30/30 22/22/22
f 25/25/25 22/22/22 21/21/21
f 31/31/31 32/32/32 22/22/22
f 31/31/31 22/22/22 30/30/30
f 31/31/31 30/30/30 29/29/29
f 31/31/31 29/29/29 33/33/33
f 31/31/31 33/33/33 5/5/5
f 31/31/31 5/5/5 4/4/4
f 31/31/31 4/4/4 3/3/3
f 31/31/31 3/3/3 32/32/32
f 34/34/34 35/35/35 24/24/24
f 34/34/34 24/24/24 23/23/23
f 34/34/34 23/23/23 22/22/22
f 34/34/34 22/22/22 32/32/32
f 34/34/34 32/32/32 3/3/3
f 34/34/34 3/3/3 13/13/13
f 34/34/34 13/13/13 12/12/12
f 34/34/34 12/12/12 35/35/35
f 36/36/36 37/37/37 38/38/38
f 36/36/36 38/38/38 39/39/39
f 36/36/36 39/39/39 40/40/40
f 36/36/36 40/40/40 41/41/41
f 36/36/36 41/41/41 20/20/20
f 36/36/36 20/20/20 19/19/19
f 36/36/36 19/19/19 18/18/18
f 36/36/36 18/18/18 37/37/37
f 42/42/42 41/41/41 40/40/40
f 42/42/42 40/40/40 43/43/43
f 42/42/42 43/43/43 44/44/44
f 42/42/42 44/44/44 45/45/45
f 42/42/42 45/45/45 27/27/27
f 42/42/42 27/27/27 26/26/26
f 42/42/42 26/26/26 20/20/20
f 42/42/42 20/20/20 41/41/41
f 46/46/46 47/47/47 48/48/48
f 46/46/46 48/48/48 49/49/49
f 46/46/46 49/49/49 50/50/50
f 46/46/46 50/50/50 51/51/51
f 46/46/46 51/51/51 52/52/52
f 46/46/46 52/52/52 53/53/53
f 46/46/46 53/53/53 54/54/54
f 46/46/46 54/54/54 47/47/47
f 55/55/55 56/56/56 57/57/57
f 55/55/55 57/57/57 58/58/58
f 55/55/55 58/58/58 48/48/48
f 55/55/55 48/48/48 47/47/47
f 55/55/55 47/47/47 54/54/54
f 55/55/55 54/54/54 59/59/59
f 55/55/55 59/59/59 60/60/60
f 55/55/55 60/60/60 56/56/56
f 61/61/61 62/62/62 63/63/63
f 61/61/61 63/63/63 64/64/64
f 61/61/61 64/64/64 65/65/65
f 61/61/61 65/65/65 66/66/66
f 61/61/61 66/66/66 67/67/67
f 61/61/61 67/67/67 68/68/68
f 61/61/61 68/68/68 69/69/69
f 61/61/61 69/69/69 62/62/62
f 70/70/70 66/66/66 65/65/65
f 70/70/70 65/65/65 71/71/71
f 70/70/70 71/71/71 72/72/72
f 70/70/70 72/72/72 73/73/73
f 70/70/70 73/73/73 74/74/74
f 70/70/70 74/74/74 75/75/75
f 70/70/70 75/75/75 67/67/67
f 70/70/70 67/67/67 66/66/66
f 76/76/76 77/77/77 54/54/54
f 76/76/76 54/54/54 53/53/53
f 76/76/76 53/53/53 52/52/52
f 76/76/76 52/52/52 78/78/78
f 76/76/76 78/78/78 72/72/72
f 76/76/76 72/72/72 71/71/71
f 76/76/76 71/71/71 65/65/65
f 76/76/76 65/65/65 77/77/77
f 79/79/79 80/80/80 60/60/60
f 79/79/79 60/60/60 59/59/59
f 79/79/79 59/59/59 54/54/54
f 79/79/79 54/54/54 77/77/77
f 79/79/79 77/77/77 65/65/65
f 79/79/79 65/65/65 64/64/64
f 79/79/79 64/64/64 63/63/63
f 79/79/79 63/63/63 80/80/80
f 81/81/81 82/82/82 69/69/69
f 81/81/81 69/69/69 68/68/68
f 81/81/81 68/68/68 67/67/67
f 81/81/81 67/67/67 83/83/83
f 81/81/81 83/83/83 84/84/84
f 81/81/81 84/84/84 85/85/85
f 81/81/81 85/85/85 86/86/86
f 81/81/81 86/86/86 82/82/82
f 87/87/87 83/83/83 67/67/67
f 87/87/87 67/67/67 75/75/75
f 87/87/87 75/75/75 74/74/74
f 87/87/87 74/74/74 88/88/88
f 87/87/87 88/88/88 89/89/89
f 87/87/87 89/89/89 90/90/90
f 87/87/87 90/90/90 84/84/84
f 87/87/87 84/84/84 83/83/83
f 91/91/91 92/92/92 38/38/38
f 91/91/91 38/38/38 37/37/37
f 91/91/91 37/37/37 18/18/18
f 91/91/91 18/18/18 93/93/93
f 91/91/91 93/93/93 69/69/69
f 91/91/91 69/69/69 82/82/82
f 91/91/91 82/82/82 94/94/94
f 91/91/91 94/94/94 92/92/92
f 95/95/95 96/96/96 44/44/44
f 95/95/95 44/44/44 43/43/43
f 95/95/95 43/43/43 40/40/40
f 95/95/95 40/40/40 97/97/97
f 95/95/95 97/97/97 84/84/84
f 95/95/95 84/84/84 90/90/90
f 95/95/95 90/90/90 98/98/98
f 95/95/95 98/98/98 96/96/96
f 99/99/99 100/100/100 7/7/7
f 99/99/99 7/7/7 6/6/6
f 99/99/99 6/6/6 5/5/5
f 99/99/99 5/5/5 101/101/101
f 99/99/99 101/101/101 52/52/52
f 99/99/99 52/52/52 51/51/51
f 99/99/99 51/51/51 102/102/102
f 99/99/99 102/102/102 100/100/100
f 103/103/103 104/104/104 15/15/15
f 103/103/103 15/15/15 14/14/14
f 103/103/103 14/14/14 9/9/9
f 103/103/103 9/9/9 105/105/105
f 103/103/103 105/105/105 48/48/48
f 103/103/103 48/48/48 58/58/58
f 103/103/103 58/58/58 106/106/106
f 103/103/103 106/106/106 104/104/104
f 107/107/107 108/108/108 12/12/12
f 107/107/107 12/12/12 11/11/11
f 107/107/107 11/11/11 15/15/15
f 107/107/107 15/15/15 104/104/104
f 107/107/107 104/104/104 106/106/106
f 107/107/107 106/106/106 56/56/56
f 107/107/107 56/56/56 60/60/60
f 107/107/107 60/60/60 108/108/108
f 109/109/109 97/97/97 40/40/40
f 109/109/109 40/40/40 39/39/39
f 109/109/109 39/39/39 38/38/38
f 109/109/109 38/38/38 92/92/92
f 109/109/109 92/92/92 94/94/94
f 109/109/109 94/94/94 85/85/85
f 109/109/109 85/85/85 84/84/84
f 109/109/109 84/84/84 97/97/97
f 110/110/110 111/111/111 27/27/27
f 110/110/110 27/27/27 45/45/45
f 110/110/110 45/45/45 44/44/44
f 110/110/110 44/44/44 96/96/96
f 110/110/110 96/96/96 98/98/98
f 110/110/110 98/98/98 88/88/88
f 110/110/110 88/88/88 74/74/74
f 110/110/110 74/74/74 111/111/111
f 112/112/112 105/105/105 9/9/9
f 112/112/112 9/9/9 8/8/8
f 112/112/112 8/8/8 7/7/7
f 112/112/112 7/7/7 100/100/100
f 112/112/112 100/100/100 102/102/102
f 112/112/112 102/102/102 49/49/49
f 112/112/112 49/49/49 48/48/48
f 112/112/112 48/48/48 105/105/105
f 113/113/113 101/101/101 5/5/5
f 113/113/113 5/5/5 33/33/33
f 113/113/113 33/33/33 29/29/29
f 113/113/113 29/29/29 114/114/114
f 113/113/113 114/114/114 72/72/72
f 113/113/113 72/72/72 78/78/78
f 113/113/113 78/78/78 52/52/52
f 113/113/113 52/52/52 101/101/101
f 115/115/115 116/116/116 24/24/24
f 115/115/115 24/24/24 35/35/35
f 115/115/115 35/35/35 12/12/12
f 115/115/115 12/12/12 108/108/108
f 115/115/115 108/108/108 60/60/60
f 115/115/115 60/60/60 80/80/80
f 115/115/115 80/80/80 63/63/63
f 115/115/115 63/63/63 116/116/116
f 117/117/117 93/93/93 18/18/18
f 117/117/117 18/18/18 17/17/17
f 117/117/117 17/17/17 24/24/24
f 117/117/117 24/24/24 116/116/116
f 117/117/117 116/116/116 63/63/63
f 117/117/117 63/63/63 62/62/62
f 117/117/117 62/62/62 69/69/69
f 117/117/117 69/69/69 93/93/93
f 118/118/118 114/114/114 29/29/29
f 118/118/118 29/29/29 28/28/28
f 118/118/118 28/28/28 27/27/27
f 118/118/118 27/27/27 111/111/111
f 118/118/118 111/111/111 74/74/74
f 118/118/118 74/74/74 73/73/73
f 118/118/118 73/73/73 72/72/72
f 118/118/118 72/72/72 114/114/114
