v -2.410103 0.750019 -1.185498
v -2.408427 0.750324 -1.186401
v -2.409333 0.748278 -1.187657
v -2.411106 0.748125 -1.186462
v -2.412589 0.748025 -1.185723
v -2.411581 0.749673 -1.185068
v -2.410578 0.750610 -1.184776
v -2.409281 0.751306 -1.184807
v -2.407712 0.751770 -1.185433
v -2.407370 0.750352 -1.188012
v -2.406789 0.750256 -1.189477
v -2.407146 0.748688 -1.190731
v -2.408000 0.748504 -1.189319
v -2.406916 0.751594 -1.186983
v -2.406698 0.751083 -1.188346
v -2.410004 0.741352 -1.192381
v -2.408999 0.741549 -1.193578
v -2.409690 0.738913 -1.194055
v -2.410571 0.738738 -1.192988
v -2.411818 0.738534 -1.191648
v -2.411422 0.741123 -1.190875
v -2.410903 0.743637 -1.189977
v -2.409432 0.743886 -1.191565
v -2.408399 0.744103 -1.192836
v -2.413047 0.740982 -1.189582
v -2.413262 0.738410 -1.190512
v -2.414406 0.738339 -1.189717
v -2.414331 0.740899 -1.188673
v -2.413977 0.743424 -1.187705
v -2.412615 0.743498 -1.188637
v -2.411955 0.745915 -1.187553
v -2.410182 0.746036 -1.188877
v -2.413392 0.745870 -1.186662
v -2.408726 0.746309 -1.190524
v -2.407732 0.746560 -1.191869
v -2.411261 0.736071 -1.193401
v -2.410633 0.736213 -1.194230
v -2.411287 0.734661 -1.194088
v -2.411806 0.734043 -1.193622
v -2.412398 0.733921 -1.192889
v -2.412169 0.735910 -1.192377
v -2.413270 0.735826 -1.191553
v -2.413182 0.733876 -1.192356
v -2.413763 0.734359 -1.191810
v -2.414155 0.735784 -1.190990
v -2.410005 0.749904 -1.185366
v -2.408308 0.750210 -1.186286
v -2.407624 0.751682 -1.185348
v -2.409210 0.751217 -1.184708
v -2.410530 0.750545 -1.184699
v -2.411519 0.749586 -1.184960
v -2.412522 0.747943 -1.185614
v -2.411002 0.748017 -1.186327
v -2.409211 0.748170 -1.187538
v -2.407231 0.750242 -1.187917
v -2.406676 0.750176 -1.189416
v -2.406616 0.751022 -1.188299
v -2.406812 0.751509 -1.186914
v -2.407860 0.748399 -1.189218
v -2.407032 0.748612 -1.190665
v -2.409859 0.741280 -1.192260
v -2.408884 0.741496 -1.193493
v -2.408286 0.744043 -1.192756
v -2.409288 0.743804 -1.191449
v -2.410773 0.743553 -1.189847
v -2.411290 0.741049 -1.190741
v -2.411684 0.738467 -1.191511
v -2.410425 0.738673 -1.192864
v -2.409574 0.738866 -1.193969
v -2.412928 0.740906 -1.189436
v -2.412499 0.743412 -1.188494
v -2.413898 0.743359 -1.187592
v -2.414249 0.740842 -1.188558
v -2.414323 0.738287 -1.189600
v -2.413142 0.738342 -1.190364
v -2.411846 0.745818 -1.187414
v -2.410056 0.745939 -1.188752
v -2.413318 0.745797 -1.186551
v -2.408584 0.746215 -1.190415
v -2.407619 0.746491 -1.191795
v -2.411114 0.736009 -1.193276
v -2.410516 0.736168 -1.194144
v -2.412034 0.735846 -1.192239
v -2.412297 0.733874 -1.192786
v -2.411695 0.733998 -1.193529
v -2.411202 0.734628 -1.194023
v -2.413150 0.735761 -1.191403
v -2.414073 0.735735 -1.190871
v -2.413700 0.734323 -1.191724
v -2.413093 0.733827 -1.192243
v -2.410370 0.736241 -1.194469
v -2.411349 0.734145 -1.194229
v -2.409344 0.738951 -1.194374
v -2.411202 0.734628 -1.194023
v -2.413114 0.733204 -1.192573
v -2.413830 0.733843 -1.191946
v -2.412429 0.733237 -1.193014
v -2.413700 0.734323 -1.191724
v -2.412049 0.749519 -1.184875
v -2.410721 0.750702 -1.184597
v -2.413056 0.747955 -1.185427
v -2.410530 0.750545 -1.184699
v -2.406718 0.751970 -1.186610
v -2.406523 0.751214 -1.188460
v -2.407435 0.752212 -1.185072
v -2.406616 0.751022 -1.188299
v -2.406543 0.750190 -1.189940
v -2.406809 0.748716 -1.191174
v -2.411938 0.733348 -1.193655
v -2.414415 0.735748 -1.190748
v -2.414752 0.738292 -1.189398
v -2.408976 0.751695 -1.184532
v -2.413840 0.745822 -1.186314
v -2.414397 0.743370 -1.187343
v -2.407349 0.746613 -1.192287
v -2.408003 0.744149 -1.193226
v -2.408612 0.741591 -1.193941
v -2.414724 0.740846 -1.188317
vn -0.410000 0.599400 -0.687400
vn -0.575000 0.611100 -0.544000
vn -0.595700 0.562900 -0.572900
vn -0.449700 0.551200 -0.702800
vn -0.465300 0.530200 -0.708700
vn -0.417000 0.599400 -0.683200
vn -0.381500 0.645700 -0.661400
vn -0.408700 0.672100 -0.617400
vn -0.538500 0.682000 -0.494900
vn -0.727500 0.560700 -0.395400
vn -0.722900 0.562100 -0.401800
vn -0.735400 0.497300 -0.460200
vn -0.733400 0.516600 -0.441800
vn -0.667800 0.640600 -0.378900
vn -0.710000 0.605700 -0.359200
vn -0.734900 0.326700 -0.594300
vn -0.711400 0.323300 -0.624000
vn -0.714300 0.293100 -0.635500
vn -0.745300 0.294400 -0.598200
vn -0.665800 0.297400 -0.684300
vn -0.659200 0.337600 -0.671900
vn -0.642500 0.416500 -0.643200
vn -0.728800 0.395400 -0.559000
vn -0.714500 0.383100 -0.585300
vn -0.575500 0.346100 -0.740900
vn -0.574400 0.315200 -0.755400
vn -0.613500 0.305400 -0.728300
vn -0.606300 0.336000 -0.720800
vn -0.575600 0.400000 -0.713200
vn -0.550000 0.417200 -0.723400
vn -0.502900 0.494100 -0.709200
vn -0.618500 0.500000 -0.606100
vn -0.523700 0.470600 -0.710100
vn -0.728300 0.466600 -0.501800
vn -0.724600 0.446200 -0.525200
vn -0.763800 0.277600 -0.582700
vn -0.732200 0.272100 -0.624300
vn -0.755200 0.252100 -0.605000
vn -0.784100 0.220100 -0.580300
vn -0.674600 0.223500 -0.703500
vn -0.668500 0.278200 -0.689700
vn -0.555400 0.302900 -0.774400
vn -0.543900 0.249500 -0.801100
vn -0.575000 0.274200 -0.770800
vn -0.598500 0.288600 -0.747300
vn 0.394500 -0.579000 0.713500
vn 0.580800 -0.598100 0.552100
vn 0.602200 -0.546200 0.582200
vn 0.342800 -0.516000 0.785000
vn 0.244400 -0.476200 0.844700
vn 0.264000 -0.488700 0.831500
vn 0.328300 -0.497100 0.803200
vn 0.437400 -0.549400 0.711900
vn 0.595600 -0.563000 0.572900
vn 0.751800 -0.535400 0.384800
vn 0.866300 -0.415500 0.277200
vn 0.879200 -0.398800 0.260500
vn 0.818000 -0.458100 0.347600
vn 0.743100 -0.512200 0.430600
vn 0.834700 -0.435300 0.337300
vn 0.745200 -0.325800 0.581800
vn 0.811400 -0.318200 0.490300
vn 0.807400 -0.365200 0.463300
vn 0.738400 -0.393600 0.547500
vn 0.642500 -0.416400 0.643200
vn 0.659300 -0.337400 0.671900
vn 0.665800 -0.297200 0.684300
vn 0.756900 -0.295200 0.583000
vn 0.825500 -0.311900 0.470400
vn 0.562300 -0.348100 0.750100
vn 0.537800 -0.418000 0.732100
vn 0.445700 -0.409400 0.796100
vn 0.466000 -0.360300 0.808100
vn 0.444600 -0.358300 0.820900
vn 0.558600 -0.319400 0.765400
vn 0.490900 -0.494100 0.717600
vn 0.618500 -0.500000 0.606100
vn 0.394500 -0.466100 0.791900
vn 0.737500 -0.464000 0.490700
vn 0.814500 -0.414900 0.405400
vn 0.776900 -0.293000 0.557200
vn 0.846900 -0.334700 0.413200
vn 0.666900 -0.289800 0.686500
vn 0.658800 -0.340400 0.670900
vn 0.806900 -0.348600 0.476800
vn 0.856500 -0.353200 0.376300
vn 0.531300 -0.323100 0.783100
vn 0.389400 -0.390400 0.834300
vn 0.354500 -0.414300 0.838300
vn 0.456800 -0.391300 0.798900
vn 0.477200 -0.210200 -0.853300
vn 0.240100 -0.544200 -0.803800
vn 0.561200 -0.081700 -0.823600
vn 0.856500 -0.353200 0.376300
vn -0.331100 -0.934100 -0.133100
vn -0.741600 -0.663400 0.099200
vn -0.055500 -0.980300 -0.189600
vn 0.354500 -0.414300 0.838300
vn -0.737200 0.366700 0.567500
vn -0.511700 0.592100 0.622500
vn -0.826200 0.178000 0.534500
vn 0.244400 -0.476200 0.844700
vn 0.626000 0.777900 0.053900
vn 0.576000 0.724200 -0.379100
vn 0.402200 0.742300 0.535900
vn 0.879200 -0.398800 0.260500
vn 0.567900 0.525700 -0.633400
vn 0.566600 0.347700 -0.747000
vn 0.015400 -0.892000 -0.451600
vn -0.851600 -0.371100 0.370100
vn -0.845200 -0.252500 0.471000
vn -0.095200 0.690200 0.717300
vn -0.853100 0.033300 0.520700
vn -0.852400 -0.054200 0.520100
vn 0.573900 0.207300 -0.792300
vn 0.585000 0.122000 -0.801800
vn 0.591600 0.035600 -0.805400
vn -0.844900 -0.139800 0.516300
vt 0.839504 0.118056
vt 0.856743 0.205307
vt 0.741230 0.205307
vt 0.734555 0.106726
vt 0.724541 0.032791
vt 0.813647 0.052618
vt 0.868992 0.081539
vt 0.913398 0.129584
vt 0.940923 0.205307
vt 0.839504 0.292557
vt 0.813647 0.357995
vt 0.724541 0.377822
vt 0.734555 0.303887
vt 0.913398 0.281029
vt 0.868992 0.329074
vt 0.369475 0.299954
vt 0.368286 0.370940
vt 0.245840 0.351447
vt 0.246397 0.288815
vt 0.246768 0.205307
vt 0.370268 0.205307
vt 0.494283 0.205307
vt 0.492822 0.304944
vt 0.490632 0.379672
vt 0.369475 0.110659
vt 0.246397 0.121798
vt 0.245841 0.059166
vt 0.368286 0.039673
vt 0.490632 0.030941
vt 0.492822 0.105669
vt 0.616755 0.103478
vt 0.619174 0.205307
vt 0.613127 0.027106
vt 0.616755 0.307135
vt 0.613126 0.383507
vt 0.123273 0.268175
vt 0.123047 0.315326
vt 0.054743 0.283353
vt 0.030912 0.249131
vt 0.030973 0.205306
vt 0.123423 0.205306
vt 0.123273 0.142438
vt 0.030912 0.161481
vt 0.054744 0.127260
vt 0.123047 0.095287
vt 0.839504 0.118056
vt 0.856743 0.205307
vt 0.968983 0.205307
vt 0.938030 0.133427
vt 0.876123 0.061548
vt 0.805028 0.030806
vt 0.721203 0.008146
vt 0.734555 0.106726
vt 0.741230 0.205307
vt 0.839504 0.292557
vt 0.805028 0.379807
vt 0.876123 0.349065
vt 0.938030 0.277186
vt 0.734555 0.303887
vt 0.721203 0.402467
vt 0.369475 0.299954
vt 0.367890 0.394602
vt 0.489902 0.404581
vt 0.492822 0.304944
vt 0.494283 0.205307
vt 0.370268 0.205307
vt 0.246768 0.205307
vt 0.246397 0.288815
vt 0.245655 0.372324
vt 0.369475 0.110659
vt 0.492822 0.105669
vt 0.489902 0.006032
vt 0.367890 0.016011
vt 0.245655 0.038289
vt 0.246397 0.121798
vt 0.616755 0.103478
vt 0.619174 0.205307
vt 0.611917 0.001649
vt 0.616755 0.307135
vt 0.611917 0.408964
vt 0.123273 0.268175
vt 0.122972 0.331043
vt 0.123423 0.205306
vt 0.000156 0.205306
vt 0.000125 0.242784
vt 0.000064 0.280261
vt 0.123273 0.142438
vt 0.122972 0.079570
vt 0.000064 0.130352
vt 0.000125 0.167829
vt 0.122972 0.331043
vt 0.030806 0.283587
vt 0.245655 0.372324
vt 0.030806 0.283587
vt 0.000125 0.167829
vt 0.030806 0.127026
vt 0.000156 0.205306
vt 0.030806 0.127026
vt 0.805028 0.030806
vt 0.873826 0.071832
vt 0.721203 0.008146
vt 0.873826 0.071832
vt 0.938030 0.277186
vt 0.873826 0.338781
vt 0.968983 0.205307
vt 0.873826 0.338781
vt 0.805028 0.379807
vt 0.721203 0.402467
vt 0.000125 0.242784
vt 0.122972 0.079570
vt 0.245655 0.038289
vt 0.938030 0.133427
vt 0.611917 0.001649
vt 0.489902 0.006032
vt 0.611917 0.408964
vt 0.489902 0.404581
vt 0.367890 0.394602
vt 0.367890 0.016011
f 1/1/1 2/2/2 3/3/3
f 1/1/1 3/3/3 4/4/4
f 1/1/1 4/4/4 5/5/5
f 1/1/1 5/5/5 6/6/6
f 1/1/1 6/6/6 7/7/7
f 1/1/1 7/7/7 8/8/8
f 1/1/1 8/8/8 9/9/9
f 1/1/1 9/9/9 2/2/2
f 10/10/10 11/11/11 12/12/12
f 10/10/10 12/12/12 13/13/13
f 10/10/10 13/13/13 3/3/3
f 10/10/10 3/3/3 2/2/2
f 10/10/10 2/2/2 9/9/9
f 10/10/10 9/9/9 14/14/14
f 10/10/10 14/14/14 15/15/15
f 10/10/10 15/15/15 11/11/11
f 16/16/16 17/17/17 18/18/18
f 16/16/16 18/18/18 19/19/19
f 16/16/16 19/19/19 20/20/20
f 16/16/16 20/20/20 21/21/21
f 16/16/16 21/21/21 22/22/22
f 16/16/16 22/22/22 23/23/23
f 16/16/16 23/23/23 24/24/24
f 16/16/16 24/24/24 17/17/17
f 25/25/25 21/21/21 20/20/20
f 25/25/25 20/20/20 26/26/26
f 25/25/25 26/26/26 27/27/27
f 25/25/25 27/27/27 28/28/28
f 25/25/25 28/28/28 29/29/29
f 25/25/25 29/29/29 30/30/30
f 25/25/25 30/30/30 22/22/22
f 25/25/25 22/22/22 21/21/21
f 31/31/31 32/32/32 22/22/22
f 31/31/31 22/22/22 30/30/30
f 31/31/31 30/30/30 29/29/29
f 31/31/31 29/29/29 33/33/33
f 31/31/31 33/33/33 5/5/5
f 31/31/31 5/5/5 4/4/4
f 31/31/31 4/4/4 3/3/3
f 31/31/31 3/3/3 32/32/32
f 34/34/34 35/35/35 24/24/24
f 34/34/34 24/24/24 23/23/23
f 34/34/34 23/23/23 22/22/22
f 34/34/34 22/22/22 32/32/32
f 34/34/34 32/32/32 3/3/3
f 34/34/34 3/3/3 13/13/13
f 34/34/34 13/13/13 12/12/12
f 34/34/34 12/12/12 35/35/35
f 36/36/36 37/37/37 38/38/38
f 36/36/36 38/38/38 39/39/39
f 36/36/36 39/39/39 40/40/40
f 36/36/36 40/40/40 41/41/41
f 36/36/36 41/41/41 20/20/20
f 36/36/36 20/20/20 19/19/19
f 36/36/36 19/19/19 18/18/18
f 36/36/36 18/18/18 37/37/37
f 42/42/42 41/41/41 40/40/40
f 42/42/42 40/40/40 43/43/43
f 42/42/42 43/43/43 44/44/44
f 42/42/42 44/44/44 45/45/45
f 42/42/42 45/45/45 27/27/27
f 42/42/42 27/27/27 26/26/26
f 42/42/42 26/26/26 20/20/20
f 42/42/42 20/20/20 41/41/41
f 46/46/46 47/47/47 48/48/48
f 46/46/46 48/48/48 49/49/49
f 46/46/46 49/49/49 50/50/50
f 46/46/46 50/50/50 51/51/51
f 46/46/46 51/51/51 52/52/52
f 46/46/46 52/52/52 53/53/53
f 46/46/46 53/53/53 54/54/54
f 46/46/46 54/54/54 47/47/47
f 55/55/55 56/56/56 57/57/57
f 55/55/55 57/57/57 58/58/58
f 55/55/55 58/58/58 48/48/48
f 55/55/55 48/48/48 47/47/47
f 55/55/55 47/47/47 54/54/54
f 55/55/55 54/54/54 59/59/59
f 55/55/55 59/59/59 60/60/60
f 55/55/55 60/60/60 56/56/56
f 61/61/61 62/62/62 63/63/63
f 61/61/61 63/63/63 64/64/64
f 61/61/61 64/64/64 65/65/65
f 61/61/61 65/65/65 66/66/66
f 61/61/61 66/66/66 67/67/67
f 61/61/61 67/67/67 68/68/68
f 61/61/61 68/68/68 69/69/69
f 61/61/61 69/69/69 62/62/62
f 70/70/70 66/66/66 65/65/65
f 70/70/70 65/65/65 71/71/71
f 70/70/70 71/71/71 72/72/72
f 70/70/70 72/72/72 73/73/73
f 70/70/70 73/73/73 74/74/74
f 70/70/70 74/74/74 75/75/75
f 70/70/70 75/75/75 67/67/67
f 70/70/70 67/67/67 66/66/66
f 76/76/76 77/77/77 54/54/54
f 76/76/76 54/54/54 53/53/53
f 76/76/76 53/53/53 52/52/52
f 76/76/76 52/52/52 78/78/78
f 76/76/76 78/78/78 72/72/72
f 76/76/76 72/72/72 71/71/71
f 76/76/76 71/71/71 65/65/65
f 76/76/76 65/65/65 77/77/77
f 79/79/79 80/80/80 60/60/60
f 79/79/79 60/60/60 59/59/59
f 79/79/79 59/59/59 54/54/54
f 79/79/79 54/54/54 77/77/77
f 79/79/79 77/77/77 65/65/65
f 79/79/79 65/65/65 64/64/64
f 79/79/79 64/64/64 63/63/63
f 79/79/79 63/63/63 80/80/80
f 81/81/81 82/82/82 69/69/69
f 81/81/81 69/69/69 68/68/68
f 81/81/81 68/68/68 67/67/67
f 81/81/81 67/67/67 83/83/83
f 81/81/81 83/83/83 84/84/84
f 81/81/81 84/84/84 85/85/85
f 81/81/81 85/85/85 86/86/86
f 81/81/81 86/86/86 82/82/82
f 87/87/87 83/83/83 67/67/67
f 87/87/87 67/67/67 75/75/75
f 87/87/87 75/75/75 74/74/74
f 87/87/87 74/74/74 88/88/88
f 87/87/87 88/88/88 89/89/89
f 87/87/87 89/89/89 90/90/90
f 87/87/87 90/90/90 84/84/84
f 87/87/87 84/84/84 83/83/83
f 91/91/91 92/92/92 38/38/38
f 91/91/91 38/38/38 37/37/37
f 91/91/91 37/37/37 18/18/18
f 91/91/91 18/18/18 93/93/93
f 91/91/91 93/93/93 69/69/69
f 91/91/91 69/69/69 82/82/82
f 91/91/91 82/82/82 94/94/94
f 91/91/91 94/94/94 92/92/92
f 95/95/95 96/96/96 44/44/44
f 95/95/95 44/44/44 43/43/43
f 95/95/95 43/43/43 40/40/40
f 95/95/95 40/40/40 97/97/97
f 95/95/95 97/97/97 84/84/84
f 95/95/95 84/84/84 90/90/90
f 95/95/95 90/90/90 98/98/98
f 95/95/95 98/98/98 96/96/96
f 99/99/99 100/100/100 7/7/7
f 99/99/99 7/7/7 6/6/6
f 99/99/99 6/6/6 5/5/5
f 99/99/99 5/5/5 101/101/101
f 99/99/99 101/101/101 52/52/52
f 99/99/99 52/52/52 51/51/51
f 99/99/99 51/51/51 102/102/102
f 99/99/99 102/102/102 100/100/100
f 103/103/103 104/104/104 15/15/15
f 103/103/103 15/15/15 14/14/14
f 103/103/103 14/14/14 9/9/9
f 103/103/103 9/9/9 105/105/105
f 103/103/103 105/105/105 48/48/48
f 103/103/103 48/48/48 58/58/58
f 103/103/103 58/58/58 106/106/106
f 103/103/103 106/106/106 104/104/104
f 107/107/107 108/108/108 12/12/12
f 107/107/107 12/12/12 11/11/11
f 107/107/107 11/11/11 15/15/15
f 107/107/107 15/15/15 104/104/104
f 107/107/107 104/104/104 106/106/106
f 107/107/107 106/106/106 56/56/56
f 107/107/107 56/56/56 60/60/60
f 107/107/107 60/60/60 108/108/108
f 109/109/109 97/97/97 40/40/40
f 109/109/109 40/40/40 39/39/39
f 109/109/109 39/39/39 38/38/38
f 109/109/109 38/38/38 92/92/92
f 109/109/109 92/92/92 94/94/94
f 109/109/109 94/94/94 85/85/85
f 109/109/109 85/85/85 84/84/84
f 109/109/109 84/84/84 97/97/97
f 110/110/110 111/111/111 27/27/27
f 110/110/110 27/27/27 45/45/45
f 110/110/110 45/45/45 44/44/44
f 110/110/110 44/44/44 96/96/96
f 110/110/110 96/96/96 98/98/98
f 110/110/110 98/98/98 88/88/88
f 110/110/110 88/88/88 74/74/74
f 110/110/110 74/74/74 111/111/111
f 112/112/112 105/105/105 9/9/9
f 112/112/112 9/9/9 8/8/8
f 112/112/112 8/8/8 7/7/7
f 112/112/112 7/7/7 100/100/100
f 112/112/112 100/100/100 102/102/102
f 112/112/112 102/102/102 49/49/49
f 112/112/112 49/49/49 48/48/48
f 112/112/112 48/48/48 105/105/105
f 113/113/113 101/101/101 5/5/5
f 113/113/113 5/5/5 33/33/33
f 113/113/113 33/33/33 29/29/29
f 113/113/113 29/29/29 114/114/114
f 113/113/113 114/114/114 72/72/72
f 113/113/113 72/72/72 78/78/78
f 113/113/113 78/78/78 52/52/52
f 113/113/113 52/52/52 101/101/101
f 115/115/115 116/116/116 24/24/24
f 115/115/115 24/24/24 35/35/35
f 115/115/115 35/35/35 12/12/12
f 115/115/115 12/12/12 108/108/108
f 115/115/115 108/108/108 60/60/60
f 115/115/115 60/60/60 80/80/80
f 115/115/115 80/80/80 63/63/63
f 115/115/115 63/63/63 116/116/116
f 117/117/117 93/93/93 18/18/18
f 117/117/117 18/18/18 17/17/17
f 117/117/117 17/17/17 24/24/24
f 117/117/117 24/24/24 116/116/116
f 117/117/117 116/116/116 63/63/63
f 117/117/117 63/63/63 62/62/62
f 117/117/117 62/62/62 69/69/69
f 117/117/117 69/69/69 93/93/93
f 118/118/118 114/114/114 29/29/29
f 118/118/118 29/29/29 28/28/28
f 118/118/118 28/28/28 27/27/27
f 118/118/118 27/27/27 111/111/111
f 118/118/118 111/111/111 74/74/74
f 118/118/118 74/74/74 73/73/73
f 118/118/118 73/73/73 72/72/72
f 118/118/118 72/72/72 114/114/114
