v -2.455318 0.738586 -1.154642
v -2.456148 0.738912 -1.152145
v -2.452766 0.738019 -1.151667
v -2.452217 0.737677 -1.154544
v -2.451575 0.737615 -1.156736
v -2.454234 0.738489 -1.156521
v -2.456012 0.738873 -1.155873
v -2.457561 0.739119 -1.154590
v -2.458659 0.739452 -1.152471
v -2.455720 0.739725 -1.149657
v -2.454940 0.740488 -1.147779
v -2.452377 0.739885 -1.146805
v -2.452674 0.738972 -1.148878
v -2.457910 0.740105 -1.150275
v -2.456584 0.740491 -1.148793
v -2.442780 0.734381 -1.147090
v -2.442777 0.735084 -1.145040
v -2.439676 0.732883 -1.144882
v -2.439690 0.732249 -1.146694
v -2.439613 0.731528 -1.149121
v -2.442682 0.733576 -1.149837
v -2.445879 0.735401 -1.150513
v -2.445970 0.736265 -1.147643
v -2.445947 0.737036 -1.145505
v -2.442331 0.733112 -1.152642
v -2.439293 0.731127 -1.151603
v -2.438981 0.730917 -1.153485
v -2.441991 0.732861 -1.154768
v -2.445125 0.734710 -1.155680
v -2.445501 0.734938 -1.153450
v -2.448870 0.736460 -1.154116
v -2.449291 0.736865 -1.151123
v -2.448429 0.736325 -1.156396
v -2.449346 0.737807 -1.148223
v -2.449263 0.738686 -1.146070
v -2.436614 0.729965 -1.146582
v -2.436565 0.730487 -1.145236
v -2.434880 0.728973 -1.145764
v -2.434333 0.728167 -1.146598
v -2.434351 0.727725 -1.147827
v -2.436586 0.729390 -1.148388
v -2.436318 0.729128 -1.150246
v -2.434130 0.727594 -1.149108
v -2.434515 0.727941 -1.150281
v -2.436046 0.729019 -1.151661
v -2.455401 0.738322 -1.154628
v -2.456234 0.738654 -1.152093
v -2.458720 0.739257 -1.152431
v -2.457619 0.738919 -1.154581
v -2.456055 0.738725 -1.155874
v -2.454294 0.738290 -1.156530
v -2.451644 0.737418 -1.156741
v -2.452310 0.737416 -1.154527
v -2.452863 0.737764 -1.151617
v -2.455809 0.739478 -1.149568
v -2.455008 0.740309 -1.147694
v -2.456632 0.740357 -1.148734
v -2.457972 0.739919 -1.150206
v -2.452773 0.738726 -1.148795
v -2.452453 0.739707 -1.146726
v -2.442926 0.734153 -1.147025
v -2.442887 0.734917 -1.144979
v -2.446046 0.736864 -1.145440
v -2.446102 0.736031 -1.147573
v -2.446009 0.735159 -1.150468
v -2.442826 0.733342 -1.149796
v -2.439767 0.731299 -1.149082
v -2.439845 0.732027 -1.146630
v -2.439792 0.732720 -1.144822
v -2.442473 0.732873 -1.152624
v -2.445629 0.734692 -1.153431
v -2.445220 0.734524 -1.155679
v -2.442096 0.732680 -1.154766
v -2.439093 0.730740 -1.153486
v -2.439445 0.730893 -1.151587
v -2.448980 0.736206 -1.154097
v -2.449404 0.736616 -1.151075
v -2.448511 0.736133 -1.156397
v -2.449461 0.737566 -1.148147
v -2.449351 0.738510 -1.145999
v -2.436773 0.729745 -1.146518
v -2.436685 0.730326 -1.145175
v -2.436744 0.729163 -1.148349
v -2.434469 0.727555 -1.147798
v -2.434452 0.728003 -1.146548
v -2.434969 0.728853 -1.145722
v -2.436473 0.728896 -1.150233
v -2.436161 0.728843 -1.151664
v -2.434601 0.727811 -1.150280
v -2.434246 0.727420 -1.149100
v -2.436602 0.730590 -1.144758
v -2.434293 0.728548 -1.145615
v -2.439723 0.733023 -1.144249
v -2.434969 0.728853 -1.145722
v -2.433452 0.727005 -1.148726
v -2.433928 0.727513 -1.150141
v -2.433659 0.727094 -1.147627
v -2.434601 0.727811 -1.150280
v -2.453899 0.738368 -1.157156
v -2.456119 0.738896 -1.156193
v -2.451392 0.737507 -1.157473
v -2.456055 0.738725 -1.155874
v -2.458666 0.740149 -1.150450
v -2.456738 0.740647 -1.148534
v -2.459522 0.739545 -1.152562
v -2.456632 0.740357 -1.148734
v -2.454710 0.740664 -1.147111
v -2.452312 0.740112 -1.146075
v -2.433625 0.727496 -1.146581
v -2.436006 0.728904 -1.152137
v -2.438926 0.730768 -1.154115
v -2.458334 0.739208 -1.154569
v -2.448318 0.736195 -1.157160
v -2.445042 0.734551 -1.156426
v -2.449275 0.738901 -1.145318
v -2.445984 0.737217 -1.144761
v -2.442825 0.735245 -1.144327
v -2.441924 0.732696 -1.155478
vn 0.255300 0.966600 0.022500
vn 0.258400 0.946100 -0.195300
vn 0.315600 0.930200 -0.187100
vn 0.315300 0.948900 0.007800
vn 0.340100 0.940400 0.002000
vn 0.256800 0.966300 0.014600
vn 0.196600 0.980200 0.022400
vn 0.170700 0.984900 -0.029400
vn 0.167300 0.964000 -0.206800
vn 0.289300 0.870400 -0.398400
vn 0.289600 0.873600 -0.391000
vn 0.369000 0.858500 -0.356000
vn 0.345700 0.862900 -0.368400
vn 0.198400 0.906300 -0.373100
vn 0.231800 0.880600 -0.413200
vn 0.548400 0.798000 -0.249900
vn 0.554300 0.804600 -0.212900
vn 0.580800 0.788100 -0.203900
vn 0.576000 0.777900 -0.251200
vn 0.578900 0.803800 -0.137000
vn 0.543800 0.826600 -0.145000
vn 0.470300 0.867800 -0.160300
vn 0.483300 0.830700 -0.276300
vn 0.497800 0.831200 -0.247400
vn 0.531300 0.846300 -0.038700
vn 0.557600 0.829700 -0.024600
vn 0.569900 0.818600 -0.070300
vn 0.543000 0.836500 -0.073500
vn 0.482900 0.873400 -0.063100
vn 0.464200 0.884900 -0.039300
vn 0.383200 0.923400 -0.021900
vn 0.385300 0.905900 -0.175900
vn 0.409500 0.911600 -0.034300
vn 0.407300 0.855100 -0.320700
vn 0.431000 0.850800 -0.300700
vn 0.587700 0.761700 -0.272900
vn 0.597100 0.770900 -0.221700
vn 0.611100 0.751400 -0.248800
vn 0.632300 0.721500 -0.282300
vn 0.639400 0.759100 -0.121900
vn 0.595100 0.792500 -0.133100
vn 0.565300 0.824900 0.003400
vn 0.606700 0.794100 0.036000
vn 0.591800 0.806000 -0.010000
vn 0.582800 0.811400 -0.044600
vn -0.273800 -0.960300 -0.053400
vn -0.274200 -0.942000 0.193200
vn -0.334700 -0.924100 0.184100
vn -0.323900 -0.934700 -0.146100
vn -0.327300 -0.907000 -0.264800
vn -0.323000 -0.915500 -0.239700
vn -0.337700 -0.925500 -0.171100
vn -0.314700 -0.948900 -0.023100
vn -0.315400 -0.930300 0.187100
vn -0.312100 -0.852000 0.420300
vn -0.387600 -0.732900 0.559100
vn -0.395200 -0.714600 0.577100
vn -0.374800 -0.790700 0.484100
vn -0.347500 -0.856300 0.382200
vn -0.391900 -0.772100 0.500200
vn -0.547600 -0.793500 0.265600
vn -0.537000 -0.757100 0.372100
vn -0.490900 -0.777900 0.392100
vn -0.483200 -0.825900 0.290600
vn -0.470400 -0.867700 0.160300
vn -0.544000 -0.826500 0.145000
vn -0.579000 -0.803700 0.136900
vn -0.573300 -0.773600 0.269800
vn -0.537300 -0.745500 0.394300
vn -0.527900 -0.848900 0.022900
vn -0.461700 -0.886700 0.024500
vn -0.452100 -0.887600 -0.087500
vn -0.500000 -0.861800 -0.085800
vn -0.496600 -0.860900 -0.110600
vn -0.552000 -0.833800 0.006700
vn -0.381200 -0.924400 0.007400
vn -0.385300 -0.905900 0.175900
vn -0.386800 -0.914700 -0.117100
vn -0.407600 -0.849700 0.334300
vn -0.431800 -0.787300 0.440000
vn -0.571100 -0.763800 0.300800
vn -0.503000 -0.738400 0.449200
vn -0.585300 -0.799400 0.135400
vn -0.541200 -0.828200 0.145600
vn -0.508300 -0.772200 0.381200
vn -0.476200 -0.735500 0.481900
vn -0.544700 -0.838200 -0.024800
vn -0.454000 -0.877000 -0.157400
vn -0.422400 -0.887600 -0.183500
vn -0.470800 -0.878300 -0.083000
vn 0.346800 0.160500 0.924100
vn 0.653200 -0.057600 0.754900
vn 0.205400 0.220100 0.953600
vn -0.476200 -0.735500 0.481900
vn 0.826100 -0.561400 -0.047900
vn 0.758600 -0.355400 -0.546000
vn 0.733000 -0.647800 0.207400
vn -0.422400 -0.887600 -0.183500
vn -0.134800 0.194900 -0.971500
vn -0.427900 0.274900 -0.861000
vn 0.047500 0.091400 -0.994700
vn -0.327300 -0.907000 -0.264800
vn -0.850500 0.395200 0.347100
vn -0.544300 0.604700 0.581500
vn -0.978400 0.169700 -0.118000
vn -0.395200 -0.714600 0.577100
vn -0.274600 0.590400 0.758900
vn -0.101600 0.513600 0.852000
vn 0.789100 -0.456100 0.411500
vn 0.488900 -0.242000 -0.838000
vn 0.355800 -0.205900 -0.911600
vn -0.773300 0.176700 -0.608900
vn 0.158100 -0.006400 -0.987400
vn 0.210800 -0.074700 -0.974600
vn 0.005300 0.426100 0.904600
vn 0.057000 0.360800 0.930900
vn 0.107200 0.293300 0.950000
vn 0.260900 -0.142000 -0.954900
vt 0.839504 0.118056
vt 0.856743 0.205307
vt 0.741230 0.205307
vt 0.734555 0.106726
vt 0.724541 0.032791
vt 0.813647 0.052618
vt 0.868992 0.081539
vt 0.913398 0.129584
vt 0.940923 0.205307
vt 0.839504 0.292557
vt 0.813647 0.357995
vt 0.724541 0.377822
vt 0.734555 0.303887
vt 0.913398 0.281029
vt 0.868992 0.329074
vt 0.369475 0.299954
vt 0.368286 0.370940
vt 0.245840 0.351447
vt 0.246397 0.288815
vt 0.246768 0.205307
vt 0.370268 0.205307
vt 0.494283 0.205307
vt 0.492822 0.304944
vt 0.490632 0.379672
vt 0.369475 0.110659
vt 0.246397 0.121798
vt 0.245841 0.059166
vt 0.368286 0.039673
vt 0.490632 0.030941
vt 0.492822 0.105669
vt 0.616755 0.103478
vt 0.619174 0.205307
vt 0.613127 0.027106
vt 0.616755 0.307135
vt 0.613126 0.383507
vt 0.123273 0.268175
vt 0.123047 0.315326
vt 0.054743 0.283353
vt 0.030912 0.249131
vt 0.030973 0.205306
vt 0.123423 0.205306
vt 0.123273 0.142438
vt 0.030912 0.161481
vt 0.054744 0.127260
vt 0.123047 0.095287
vt 0.839504 0.118056
vt 0.856743 0.205307
vt 0.968983 0.205307
vt 0.938030 0.133427
vt 0.876123 0.061548
vt 0.805028 0.030806
vt 0.721203 0.008146
vt 0.734555 0.106726
vt 0.741230 0.205307
vt 0.839504 0.292557
vt 0.805028 0.379807
vt 0.876123 0.349065
vt 0.938030 0.277186
vt 0.734555 0.303887
vt 0.721203 0.402467
vt 0.369475 0.299954
vt 0.367890 0.394602
vt 0.489902 0.404581
vt 0.492822 0.304944
vt 0.494283 0.205307
vt 0.370268 0.205307
vt 0.246768 0.205307
vt 0.246397 0.288815
vt 0.245655 0.372324
vt 0.369475 0.110659
vt 0.492822 0.105669
vt 0.489902 0.006032
vt 0.367890 0.016011
vt 0.245655 0.038289
vt 0.246397 0.121798
vt 0.616755 0.103478
vt 0.619174 0.205307
vt 0.611917 0.001649
vt 0.616755 0.307135
vt 0.611917 0.408964
vt 0.123273 0.268175
vt 0.122972 0.331043
vt 0.123423 0.205306
vt 0.000156 0.205306
vt 0.000125 0.242784
vt 0.000064 0.280261
vt 0.123273 0.142438
vt 0.122972 0.079570
vt 0.000064 0.130352
vt 0.000125 0.167829
vt 0.122972 0.331043
vt 0.030806 0.283587
vt 0.245655 0.372324
vt 0.030806 0.283587
vt 0.000125 0.167829
vt 0.030806 0.127026
vt 0.000156 0.205306
vt 0.030806 0.127026
vt 0.805028 0.030806
vt 0.873826 0.071832
vt 0.721203 0.008146
vt 0.873826 0.071832
vt 0.938030 0.277186
vt 0.873826 0.338781
vt 0.968983 0.205307
vt 0.873826 0.338781
vt 0.805028 0.379807
vt 0.721203 0.402467
vt 0.000125 0.242784
vt 0.122972 0.079570
vt 0.245655 0.038289
vt 0.938030 0.133427
vt 0.611917 0.001649
vt 0.489902 0.006032
vt 0.611917 0.408964
vt 0.489902 0.404581
vt 0.367890 0.394602
vt 0.367890 0.016011
f 1/1/1 2/2/2 3/3/3
f 1/1/1 3/3/3 4/4/4
f 1/1/1 4/4/4 5/5/5
f 1/1/1 5/5/5 6/6/6
f 1/1/1 6/6/6 7/7/7
f 1/1/1 7/7/7 8/8/8
f 1/1/1 8/8/8 9/9/9
f 1/1/1 9/9/9 2/2/2
f 10/10/10 11/11/11 12/12/12
f 10/10/10 12/12/12 13/13/13
f 10/10/10 13/13/13 3/3/3
f 10/10/10 3/3/3 2/2/2
f 10/10/10 2/2/2 9/9/9
f 10/10/10 9/9/9 14/14/14
f 10/10/10 14/14/14 15/15/15
f 10/10/10 15/15/15 11/11/11
f 16/16/16 17/17/17 18/18/18
f 16/16/16 18/18/18 19/19/19
f 16/16/16 19/19/19 20/20/20
f 16/16/16 20/20/20 21/21/21
f 16/16/16 21/21/21 22/22/22
f 16/16/16 22/22/22 23/23/23
f 16/16/16 23/23/23 24/24/24
f 16/16/16 24/24/24 17/17/17
f 25/25/25 21/21/21 20/20/20
f 25/25/25 20/20/20 26/26/26
f 25/25/25 26/26/26 27/27/27
f 25/25/25 27/27/27 28/28/28
f 25/25/25 28/28/28 29/29/29
f 25/25/25 29/29/29 30/30/30
f 25/25/25 30/30/30 22/22/22
f 25/25/25 22/22/22 21/21/21
f 31/31/31 32/32/32 22/22/22
f 31/31/31 22/22/22 30/30/30
f 31/31/31 30/30/30 29/29/29
f 31/31/31 29/29/29 33/33/33
f 31/31/31 33/33/33 5/5/5
f 31/31/31 5/5/5 4/4/4
f 31/31/31 4/4/4 3/3/3
f 31/31/31 3/3/3 32/32/32
f 34/34/34 35/35/35 24/24/24
f 34/34/34 24/24/24 23/23/23
f 34/34/34 23/23/23 22/22/22
f 34/34/34 22/22/22 32/32/32
f 34/34/34 32/32/32 3/3/3
f 34/34/34 3/3/3 13/13/13
f 34/34/34 13/13/13 12/12/12
f 34/34/34 12/12/12 35/35/35
f 36/36/36 37/37/37 38/38/38
f 36/36/36 38/38/38 39/39/39
f 36/36/36 39/39/39 40/40/40
f 36/36/36 40/40/40 41/41/41
f 36/36/36 41/41/41 20/20/20
f 36/36/36 20/20/20 19/19/19
f 36/36/36 19/19/19 18/18/18
f 36/36/36 18/18/18 37/37/37
f 42/42/42 41/41/41 40/40/40
f 42/42/42 40/40/40 43/43/43
f 42/42/42 43/43/43 44/44/44
f 42/42/42 44/44/44 45/45/45
f 42/42/42 45/45/45 27/27/27
f 42/42/42 27/27/27 26/26/26
f 42/42/42 26/26/26 20/20/20
f 42/42/42 20/20/20 41/41/41
f 46/46/46 47/47/47 48/48/48
f 46/46/46 48/48/48 49/49/49
f 46/46/46 49/49/49 50/50/50
f 46/46/46 50/50/50 51/51/51
f 46/46/46 51/51/51 52/52/52
f 46/46/46 52/52/52 53/53/53
f 46/46/46 53/53/53 54/54/54
f 46/46/46 54/54/54 47/47/47
f 55/55/55 56/56/56 57/57/57
f 55/55/55 57/57/57 58/58/58
f 55/55/55 58/58/58 48/48/48
f 55/55/55 48/48/48 47/47/47
f 55/55/55 47/47/47 54/54/54
f 55/55/55 54/54/54 59/59/59
f 55/55/55 59/59/59 60/60/60
f 55/55/55 60/60/60 56/56/56
f 61/61/61 62/62/62 63/63/63
f 61/61/61 63/63/63 64/64/64
f 61/61/61 64/64/64 65/65/65
f 61/61/61 65/65/65 66/66/66
f 61/61/61 66/66/66 67/67/67
f 61/61/61 67/67/67 68/68/68
f 61/61/61 68/68/68 69/69/69
f 61/61/61 69/69/69 62/62/62
f 70/70/70 66/66/66 65/65/65
f 70/70/70 65/65/65 71/71/71
f 70/70/70 71/71/71 72/72/72
f 70/70/70 72/72/72 73/73/73
f 70/70/70 73/73/73 74/74/74
f 70/70/70 74/74/74 75/75/75
f 70/70/70 75/75/75 67/67/67
f 70/70/70 67/67/67 66/66/66
f 76/76/76 77/77/77 54/54/54
f 76/76/76 54/54/54 53/53/53
f 76/76/76 53/53/53 52/52/52
f 76/76/76 52/52/52 78/78/78
f 76/76/76 78/78/78 72/72/72
f 76/76/76 72/72/72 71/71/71
f 76/76/76 71/71/71 65/65/65
f 76/76/76 65/65/65 77/77/77
f 79/79/79 80/80/80 60/60/60
f 79/79/79 60/60/60 59/59/59
f 79/79/79 59/59/59 54/54/54
f 79/79/79 54/54/54 77/77/77
f 79/79/79 77/77/77 65/65/65
f 79/79/79 65/65/65 64/64/64
f 79/79/79 64/64/64 63/63/63
f 79/79/79 63/63/63 80/80/80
f 81/81/81 82/82/82 69/69/69
f 81/81/81 69/69/69 68/68/68
f 81/81/81 68/68/68 67/67/67
f 81/81/81 67/67/67 83/83/83
f 81/81/81 83/83/83 84/84/84
f 81/81/81 84/84/84 85/85/85
f 81/81/81 85/85/85 86/86/86
f 81/81/81 86/86/86 82/82/82
f 87/87/87 83/83/83 67/67/67
f 87/87/87 67/67/67 75/75/75
f 87/87/87 75/75/75 74/74/74
f 87/87/87 74/74/74 88/88/88
f 87/87/87 88/88/88 89/89/89
f 87/87/87 89/89/89 90/90/90
f 87/87/87 90/90/90 84/84/84
f 87/87/87 84/84/84 83/83/83
f 91/91/91 92/92/92 38/38/38
f 91/91/91 38/38/38 37/37/37
f 91/91/91 37/37/37 18/18/18
f 91/91/91 18/18/18 93/93/93
f 91/91/91 93/93/93 69/69/69
f 91/91/91 69/69/69 82/82/82
f 91/91/91 82/82/82 94/94/94
f 91/91/91 94/94/94 92/92/92
f 95/95/95 96/96/96 44/44/44
f 95/95/95 44/44/44 43/43/43
f 95/95/95 43/43/43 40/40/40
f 95/95/95 40/40/40 97/97/97
f 95/95/95 97/97/97 84/84/84
f 95/95/95 84/84/84 90/90/90
f 95/95/95 90/90/90 98/98/98
f 95/95/95 98/98/98 96/96/96
f 99/99/99 100/100/100 7/7/7
f 99/99/99 7/7/7 6/6/6
f 99/99/99 6/6/6 5/5/5
f 99/99/99 5/5/5 101/101/101
f 99/99/99 101/101/101 52/52/52
f 99/99/99 52/52/52 51/51/51
f 99/99/99 51/51/51 102/102/102
f 99/99/99 102/102/102 100/100/100
f 103/103/103 104/104/104 15/15/15
f 103/103/103 15/15/15 14/14/14
f 103/103/103 14/14/14 9/9/9
f 103/103/103 9/9/9 105/105/105
f 103/103/103 105/105/105 48/48/48
f 103/103/103 48/48/48 58/58/58
f 103/103/103 58/58/58 106/106/106
f 103/103/103 106/106/106 104/104/104
f 107/107/107 108/108/108 12/12/12
f 107/107/107 12/12/12 11/11/11
f 107/107/107 11/11/11 15/15/15
f 107/107/107 15/15/15 104/104/104
f 107/107/107 104/104/104 106/106/106
f 107/107/107 106/106/106 56/56/56
f 107/107/107 56/56/56 60/60/60
f 107/107/107 60/60/60 108/108/108
f 109/109/109 97/97/97 40/40/40
f 109/109/109 40/40/40 39/39/39
f 109/109/109 39/39/39 38/38/38
f 109/109/109 38/38/38 92/92/92
f 109/109/109 92/92/92 94/94/94
f 109/109/109 94/94/94 85/85/85
f 109/109/109 85/85/85 84/84/84
f 109/109/109 84/84/84 97/97/97
f 110/110/110 111/111/111 27/27/27
f 110/110/110 27/27/27 45/45/45
f 110/110/110 45/45/45 44/44/44
f 110/110/110 44/44/44 96/96/96
f 110/110/110 96/96/96 98/98/98
f 110/110/110 98/98/98 88/88/88
f 110/110/110 88/88/88 74/74/74
f 110/110/110 74/74/74 111/111/111
f 112/112/112 105/105/105 9/9/9
f 112/112/112 9/9/9 8/8/8
f 112/112/112 8/8/8 7/7/7
f 112/112/112 7/7/7 100/100/100
f 112/112/112 100/100/100 102/102/102
f 112/112/112 102/102/102 49/49/49
f 112/112/112 49/49/49 48/48/48
f 112/112/112 48/48/48 105/105/105
f 113/113/113 101/101/101 5/5/5
f 113/113/113 5/5/5 33/33/33
f 113/113/113 33/33/33 29/29/29
f 113/113/113 29/29/29 114/114/114
f 113/113/113 114/114/114 72/72/72
f 113/113/113 72/72/72 78/78/78
f 113/113/113 78/78/78 52/52/52
f 113/113/113 52/52/52 101/101/101
f 115/115/115 116/116/116 24/24/24
f 115/115/115 24/24/24 35/35/35
f 115/115/115 35/35/35 12/12/12
f 115/115/115 12/12/12 108/108/108
f 115/115/115 108/108/108 60/60/60
f 115/115/115 60/60/60 80/80/80
f 115/115/115 80/80/80 63/63/63
f 115/115/115 63/63/63 116/116/116
f 117/117/117 93/93/93 18/18/18
f 117/117/117 18/18/18 17/17/17
f 117/117/117 17/17/17 24/24/24
f 117/117/117 24/24/24 116/116/116
f 117/117/117 116/116/116 63/63/63
f 117/117/117 63/63/63 62/62/62
f 117/117/117 62/62/62 69/69/69
f 117/117/117 69/69/69 93/93/93
f 118/118/118 114/114/114 29/29/29
f 118/118/118 29/29/29 28/28/28
f 118/118/118 28/28/28 27/27/27
f 118/118/118 27/27/27 111/111/111
f 118/118/118 111/111/111 74/74/74
f 118/118/118 74/74/74 73/73/73
f 118/118/118 73/73/73 72/72/72
f 118/118/118 72/72/72 114/114/114
