v -1.723142 1.876983 -2.178101
v -1.721443 1.876983 -2.179605
v -1.721943 1.878696 -2.179719
v -1.723520 1.878803 -2.178318
v -1.723143 1.880189 -2.180234
v -1.724648 1.880393 -2.178963
v -1.720839 1.876983 -2.181324
v -1.721385 1.878622 -2.181323
v -1.722490 1.879763 -2.181323
v -1.725808 1.878696 -2.177324
v -1.725596 1.876983 -2.177031
v -1.728478 1.878622 -2.176928
v -1.728457 1.876983 -2.176603
v -1.726720 1.880189 -2.178017
v -1.728521 1.879763 -2.177585
v -1.725808 1.875269 -2.177324
v -1.723520 1.875162 -2.178318
v -1.726720 1.873777 -2.178017
v -1.724648 1.873572 -2.178963
v -1.728478 1.875344 -2.176928
v -1.728521 1.874202 -2.177585
v -1.721943 1.875269 -2.179719
v -1.721385 1.875344 -2.181323
v -1.723143 1.873777 -2.180234
v -1.722490 1.874202 -2.181323
v -1.740774 1.876983 -2.188856
v -1.740190 1.876983 -2.185688
v -1.739820 1.879255 -2.185917
v -1.740412 1.879099 -2.189034
v -1.738709 1.881148 -2.186605
v -1.739332 1.880861 -2.189657
v -1.738855 1.876983 -2.182699
v -1.738484 1.879302 -2.182929
v -1.737374 1.881234 -2.183617
v -1.740264 1.878822 -2.191948
v -1.740603 1.876983 -2.191923
v -1.739405 1.878622 -2.194560
v -1.739686 1.876983 -2.194724
v -1.739277 1.880346 -2.192374
v -1.738835 1.879763 -2.194229
v -1.740264 1.875143 -2.191948
v -1.740412 1.874866 -2.189034
v -1.739277 1.873619 -2.192374
v -1.739332 1.873104 -2.189657
v -1.739405 1.875344 -2.194560
v -1.738835 1.874202 -2.194229
v -1.739820 1.874711 -2.185917
v -1.738484 1.874663 -2.182929
v -1.738709 1.872817 -2.186605
v -1.737374 1.872731 -2.183617
v -1.735978 1.876983 -2.198816
v -1.738029 1.876983 -2.197095
v -1.737862 1.878696 -2.196775
v -1.735953 1.878803 -2.198382
v -1.737647 1.880189 -2.195649
v -1.735877 1.880393 -2.197084
v -1.733996 1.878696 -2.199170
v -1.733876 1.876983 -2.199668
v -1.732311 1.878622 -2.198956
v -1.732068 1.876983 -2.199444
v -1.734069 1.880189 -2.197866
v -1.732804 1.879763 -2.197966
v -1.733996 1.875269 -2.199170
v -1.735953 1.875162 -2.198382
v -1.734069 1.873777 -2.197866
v -1.735877 1.873572 -2.197084
v -1.732311 1.875344 -2.198956
v -1.732804 1.874202 -2.197966
v -1.737862 1.875269 -2.196775
v -1.737647 1.873777 -2.195649
v -1.723442 1.876983 -2.184904
v -1.725670 1.876983 -2.187054
v -1.726040 1.879255 -2.186825
v -1.723841 1.879099 -2.184703
v -1.727150 1.881148 -2.186136
v -1.724957 1.880861 -2.184058
v -1.727752 1.876983 -2.189579
v -1.728122 1.879302 -2.189350
v -1.729232 1.881234 -2.188662
v -1.722153 1.878822 -2.182927
v -1.721669 1.876983 -2.183042
v -1.723286 1.880346 -2.182411
v -1.722153 1.875143 -2.182927
v -1.723841 1.874866 -2.184703
v -1.723286 1.873619 -2.182411
v -1.724957 1.873104 -2.184058
v -1.726040 1.874711 -2.186825
v -1.728122 1.874663 -2.189350
v -1.727150 1.872817 -2.186136
v -1.729232 1.872731 -2.188662
v -1.735397 1.871705 -2.192188
v -1.733246 1.872053 -2.193475
v -1.732418 1.871681 -2.190504
v -1.734638 1.871302 -2.189127
v -1.731083 1.871571 -2.187515
v -1.733303 1.871185 -2.186139
v -1.731452 1.873104 -2.194540
v -1.730567 1.872817 -2.191650
v -1.736859 1.871681 -2.187752
v -1.737543 1.872053 -2.190812
v -1.735524 1.871571 -2.184763
v -1.737673 1.872728 -2.193553
v -1.735751 1.872440 -2.194930
v -1.733808 1.872728 -2.195948
v -1.732183 1.873619 -2.196769
v -1.728819 1.882260 -2.181572
v -1.726709 1.881912 -2.182926
v -1.729001 1.882284 -2.184990
v -1.731221 1.882663 -2.183614
v -1.731083 1.882394 -2.187515
v -1.733303 1.882781 -2.186139
v -1.733442 1.882284 -2.182238
v -1.731006 1.881912 -2.180263
v -1.735293 1.881148 -2.181091
v -1.732837 1.880861 -2.179175
v -1.735524 1.882394 -2.184763
v -1.728609 1.881237 -2.178926
v -1.726521 1.881525 -2.180035
v -1.730379 1.880346 -2.178015
v -1.724744 1.881237 -2.181322
v -1.734196 1.876983 -2.178240
v -1.731373 1.876983 -2.177028
v -1.731200 1.878822 -2.177321
v -1.733875 1.879099 -2.178485
v -1.736403 1.879255 -2.180403
v -1.736773 1.876983 -2.180174
v -1.736403 1.874711 -2.180403
v -1.733875 1.874866 -2.178485
v -1.735293 1.872817 -2.181091
v -1.732837 1.873104 -2.179175
v -1.731200 1.875143 -2.177321
v -1.730379 1.873619 -2.178015
v -1.730021 1.876983 -2.195520
v -1.730899 1.876983 -2.197937
v -1.731217 1.878822 -2.197554
v -1.730378 1.879099 -2.195252
v -1.732183 1.880346 -2.196769
v -1.731452 1.880861 -2.194540
v -1.729457 1.879255 -2.192338
v -1.729087 1.876983 -2.192568
v -1.730567 1.881148 -2.191650
v -1.729457 1.874711 -2.192338
v -1.730378 1.874866 -2.195252
v -1.731217 1.875143 -2.197554
v -1.728819 1.871705 -2.181572
v -1.726709 1.872053 -2.182926
v -1.724744 1.872728 -2.181322
v -1.726521 1.872440 -2.180035
v -1.728609 1.872728 -2.178926
v -1.731006 1.872053 -2.180263
v -1.733442 1.871681 -2.182238
v -1.731221 1.871302 -2.183614
v -1.729001 1.871681 -2.184990
v -1.735397 1.882260 -2.192188
v -1.733246 1.881912 -2.193475
v -1.733808 1.881237 -2.195948
v -1.735751 1.881525 -2.194930
v -1.737673 1.881237 -2.193553
v -1.737543 1.881912 -2.190812
v -1.736859 1.882284 -2.187752
v -1.734638 1.882663 -2.189127
v -1.732418 1.882284 -2.190504
vn 0.547600 0.000000 0.836700
vn 0.842100 0.000000 0.539400
vn 0.747200 0.461200 0.478600
vn 0.498700 0.413100 0.762000
vn 0.563500 0.770900 0.296900
vn 0.366100 0.739400 0.565000
vn 0.998800 0.000000 -0.048300
vn 0.881100 0.471400 -0.038100
vn 0.686900 0.726700 -0.008500
vn 0.252800 0.358600 0.898600
vn 0.278000 0.000000 0.960600
vn 0.008800 0.327500 0.944800
vn 0.004800 0.000000 1.000000
vn 0.167000 0.653300 0.738400
vn 0.018500 0.558600 0.829200
vn 0.252800 -0.358600 0.898600
vn 0.498700 -0.413100 0.762000
vn 0.167000 -0.653300 0.738400
vn 0.366100 -0.739400 0.565000
vn 0.008700 -0.327500 0.944800
vn 0.018500 -0.558700 0.829200
vn 0.747100 -0.461200 0.478600
vn 0.881100 -0.471400 -0.038100
vn 0.563500 -0.770900 0.296900
vn 0.686900 -0.726700 -0.008600
vn -0.997900 0.000000 0.065200
vn -0.954300 0.000000 0.298600
vn -0.888100 0.373200 0.268000
vn -0.933000 0.357200 0.043300
vn -0.662300 0.729900 0.169000
vn -0.715400 0.698200 -0.025800
vn -0.850000 0.000000 0.526700
vn -0.786700 0.378700 0.487500
vn -0.573700 0.737900 0.355500
vn -0.922500 0.334600 -0.192500
vn -0.982300 0.000000 -0.187200
vn -0.842200 0.327500 -0.428400
vn -0.893300 0.000000 -0.449400
vn -0.737300 0.635900 -0.228300
vn -0.734200 0.558700 -0.385700
vn -0.922500 -0.334600 -0.192500
vn -0.933000 -0.357200 0.043300
vn -0.737300 -0.635800 -0.228300
vn -0.715400 -0.698200 -0.025800
vn -0.842200 -0.327500 -0.428300
vn -0.734200 -0.558700 -0.385700
vn -0.888200 -0.373200 0.268000
vn -0.786700 -0.378700 0.487500
vn -0.662300 -0.729900 0.169000
vn -0.573700 -0.737900 0.355400
vn -0.505400 0.000000 -0.862800
vn -0.736400 0.000000 -0.676500
vn -0.692100 0.358700 -0.626400
vn -0.460300 0.413200 -0.785700
vn -0.587000 0.653300 -0.478200
vn -0.343000 0.739400 -0.579400
vn -0.096000 0.461200 -0.882000
vn -0.108300 0.000000 -0.994100
vn 0.426300 0.471400 -0.772000
vn 0.487800 0.000000 -0.872900
vn -0.015000 0.770900 -0.636800
vn 0.313500 0.726700 -0.611200
vn -0.096000 -0.461200 -0.882000
vn -0.460300 -0.413100 -0.785700
vn -0.015000 -0.770900 -0.636800
vn -0.343000 -0.739400 -0.579400
vn 0.426300 -0.471400 -0.772000
vn 0.313500 -0.726700 -0.611300
vn -0.692100 -0.358700 -0.626300
vn -0.587000 -0.653300 -0.478200
vn 0.716100 0.000000 -0.697900
vn 0.735500 0.000000 -0.677500
vn 0.685800 0.389400 -0.614800
vn 0.674600 0.406900 -0.615800
vn 0.510000 0.755900 -0.410600
vn 0.524600 0.764400 -0.374700
vn 0.850000 0.000000 -0.526700
vn 0.782300 0.391100 -0.484800
vn 0.554100 0.758300 -0.343400
vn 0.765300 0.442600 -0.467200
vn 0.835200 0.000000 -0.549900
vn 0.601300 0.765100 -0.230100
vn 0.765300 -0.442600 -0.467200
vn 0.674600 -0.406900 -0.615800
vn 0.601300 -0.765100 -0.230200
vn 0.524600 -0.764400 -0.374700
vn 0.685800 -0.389400 -0.614800
vn 0.782300 -0.391200 -0.484800
vn 0.510000 -0.755900 -0.410600
vn 0.554100 -0.758300 -0.343400
vn -0.112100 -0.977900 -0.176600
vn 0.202200 -0.949700 -0.239100
vn 0.246500 -0.954300 -0.168800
vn -0.051200 -0.996200 -0.069300
vn 0.251500 -0.955200 -0.155900
vn -0.010500 -0.999900 0.006500
vn 0.569000 -0.764400 -0.303000
vn 0.594700 -0.755900 -0.273900
vn -0.340600 -0.939400 0.038100
vn -0.405900 -0.907200 -0.110600
vn -0.273700 -0.946700 0.169600
vn -0.484600 -0.826100 -0.287500
vn -0.210700 -0.915100 -0.343800
vn 0.109900 -0.913700 -0.391200
vn 0.473800 -0.765100 -0.436000
vn 0.108200 0.977900 0.179000
vn 0.304200 0.949700 -0.074600
vn 0.260800 0.954300 -0.145500
vn 0.039300 0.996200 0.076800
vn 0.251500 0.955200 -0.155900
vn -0.010500 0.999900 0.006500
vn -0.185700 0.939400 0.288000
vn -0.081600 0.907200 0.412700
vn -0.446100 0.729900 0.517900
vn -0.295300 0.698200 0.652100
vn -0.273700 0.946700 0.169600
vn 0.041800 0.826100 0.561900
vn 0.214100 0.915100 0.341700
vn -0.123700 0.635800 0.761800
vn 0.399200 0.913700 0.075700
vn -0.502500 0.000000 0.864600
vn -0.269500 0.000000 0.963000
vn -0.238200 0.334600 0.911800
vn -0.454000 0.357200 0.816200
vn -0.635300 0.373200 0.676000
vn -0.692200 0.000000 0.721700
vn -0.635300 -0.373200 0.676000
vn -0.454000 -0.357200 0.816200
vn -0.446100 -0.729900 0.517900
vn -0.295300 -0.698200 0.652200
vn -0.238200 -0.334600 0.911700
vn -0.123700 -0.635800 0.761800
vn 0.943700 0.000000 -0.330700
vn 0.864100 0.000000 -0.503200
vn 0.759000 0.442600 -0.477400
vn 0.851700 0.406900 -0.330000
vn 0.473800 0.765100 -0.435900
vn 0.569000 0.764400 -0.303000
vn 0.855800 0.389400 -0.340500
vn 0.934100 0.000000 -0.357000
vn 0.594700 0.755900 -0.273900
vn 0.855800 -0.389400 -0.340500
vn 0.851700 -0.406900 -0.330000
vn 0.759000 -0.442600 -0.477400
vn 0.108200 -0.977900 0.179000
vn 0.304200 -0.949700 -0.074600
vn 0.399200 -0.913700 0.075700
vn 0.214100 -0.915100 0.341700
vn 0.041800 -0.826100 0.561900
vn -0.081600 -0.907200 0.412700
vn -0.185700 -0.939400 0.288000
vn 0.039300 -0.996200 0.076800
vn 0.260800 -0.954300 -0.145500
vn -0.112100 0.977900 -0.176500
vn 0.202200 0.949700 -0.239100
vn 0.109900 0.913700 -0.391200
vn -0.210700 0.915100 -0.343800
vn -0.484600 0.826100 -0.287500
vn -0.405900 0.907200 -0.110600
vn -0.340600 0.939400 0.038100
vn -0.051200 0.996200 -0.069400
vn 0.246500 0.954300 -0.168800
vt 0.000000 0.000000
vt 0.000000 0.000000
vt 0.000000 0.000000
vt 0.000000 0.000000
vt 0.000000 0.000000
vt 0.000000 0.000000
vt 0.000000 0.000000
vt 0.000000 0.000000
vt 0.000000 0.000000
vt 0.000000 0.000000
vt 0.000000 0.000000
vt 0.000000 0.000000
vt 0.000000 0.000000
vt 0.000000 0.000000
vt 0.000000 0.000000
vt 0.000000 0.000000
vt 0.000000 0.000000
vt 0.000000 0.000000
vt 0.000000 0.000000
vt 0.000000 0.000000
vt 0.000000 0.000000
vt 0.000000 0.000000
vt 0.000000 0.000000
vt 0.000000 0.000000
vt 0.000000 0.000000
vt 0.000000 0.000000
vt 0.000000 0.000000
vt 0.000000 0.000000
vt 0.000000 0.000000
vt 0.000000 0.000000
vt 0.000000 0.000000
vt 0.000000 0.000000
vt 0.000000 0.000000
vt 0.000000 0.000000
vt 0.000000 0.000000
vt 0.000000 0.000000
vt 0.000000 0.000000
vt 0.000000 0.000000
vt 0.000000 0.000000
vt 0.000000 0.000000
vt 0.000000 0.000000
vt 0.000000 0.000000
vt 0.000000 0.000000
vt 0.000000 0.000000
vt 0.000000 0.000000
vt 0.000000 0.000000
vt 0.000000 0.000000
vt 0.000000 0.000000
vt 0.000000 0.000000
vt 0.000000 0.000000
vt 0.000000 0.000000
vt 0.000000 0.000000
vt 0.000000 0.000000
vt 0.000000 0.000000
vt 0.000000 0.000000
vt 0.000000 0.000000
vt 0.000000 0.000000
vt 0.000000 0.000000
vt 0.000000 0.000000
vt 0.000000 0.000000
vt 0.000000 0.000000
vt 0.000000 0.000000
vt 0.000000 0.000000
vt 0.000000 0.000000
vt 0.000000 0.000000
vt 0.000000 0.000000
vt 0.000000 0.000000
vt 0.000000 0.000000
vt 0.000000 0.000000
vt 0.000000 0.000000
vt 0.000000 0.000000
vt 0.000000 0.000000
vt 0.000000 0.000000
vt 0.000000 0.000000
vt 0.000000 0.000000
vt 0.000000 0.000000
vt 0.000000 0.000000
vt 0.000000 0.000000
vt 0.000000 0.000000
vt 0.000000 0.000000
vt 0.000000 0.000000
vt 0.000000 0.000000
vt 0.000000 0.000000
vt 0.000000 0.000000
vt 0.000000 0.000000
vt 0.000000 0.000000
vt 0.000000 0.000000
vt 0.000000 0.000000
vt 0.000000 0.000000
vt 0.000000 0.000000
vt 0.000000 0.000000
vt 0.000000 0.000000
vt 0.000000 0.000000
vt 0.000000 0.000000
vt 0.000000 0.000000
vt 0.000000 0.000000
vt 0.000000 0.000000
vt 0.000000 0.000000
vt 0.000000 0.000000
vt 0.000000 0.000000
vt 0.000000 0.000000
vt 0.000000 0.000000
vt 0.000000 0.000000
vt 0.000000 0.000000
vt 0.000000 0.000000
vt 0.000000 0.000000
vt 0.000000 0.000000
vt 0.000000 0.000000
vt 0.000000 0.000000
vt 0.000000 0.000000
vt 0.000000 0.000000
vt 0.000000 0.000000
vt 0.000000 0.000000
vt 0.000000 0.000000
vt 0.000000 0.000000
vt 0.000000 0.000000
vt 0.000000 0.000000
vt 0.000000 0.000000
vt 0.000000 0.000000
vt 0.000000 0.000000
vt 0.000000 0.000000
vt 0.000000 0.000000
vt 0.000000 0.000000
vt 0.000000 0.000000
vt 0.000000 0.000000
vt 0.000000 0.000000
vt 0.000000 0.000000
vt 0.000000 0.000000
vt 0.000000 0.000000
vt 0.000000 0.000000
vt 0.000000 0.000000
vt 0.000000 0.000000
vt 0.000000 0.000000
vt 0.000000 0.000000
vt 0.000000 0.000000
vt 0.000000 0.000000
vt 0.000000 0.000000
vt 0.000000 0.000000
vt 0.000000 0.000000
vt 0.000000 0.000000
vt 0.000000 0.000000
vt 0.000000 0.000000
vt 0.000000 0.000000
vt 0.000000 0.000000
vt 0.000000 0.000000
vt 0.000000 0.000000
vt 0.000000 0.000000
vt 0.000000 0.000000
vt 0.000000 0.000000
vt 0.000000 0.000000
vt 0.000000 0.000000
vt 0.000000 0.000000
vt 0.000000 0.000000
vt 0.000000 0.000000
vt 0.000000 0.000000
vt 0.000000 0.000000
vt 0.000000 0.000000
vt 0.000000 0.000000
vt 0.000000 0.000000
vt 0.000000 0.000000
vt 0.000000 0.000000
vt 0.000000 0.000000
f 1/1/1 2/2/2 3/3/3
f 1/1/1 3/3/3 4/4/4
f 4/4/4 3/3/3 5/5/5
f 4/4/4 5/5/5 6/6/6
f 2/2/2 7/7/7 8/8/8
f 2/2/2 8/8/8 3/3/3
f 3/3/3 8/8/8 9/9/9
f 3/3/3 9/9/9 5/5/5
f 1/1/1 4/4/4 10/10/10
f 1/1/1 10/10/10 11/11/11
f 11/11/11 10/10/10 12/12/12
f 11/11/11 12/12/12 13/13/13
f 4/4/4 6/6/6 14/14/14
f 4/4/4 14/14/14 10/10/10
f 10/10/10 14/14/14 15/15/15
f 10/10/10 15/15/15 12/12/12
f 1/1/1 11/11/11 16/16/16
f 1/1/1 16/16/16 17/17/17
f 17/17/17 16/16/16 18/18/18
f 17/17/17 18/18/18 19/19/19
f 11/11/11 13/13/13 20/20/20
f 11/11/11 20/20/20 16/16/16
f 16/16/16 20/20/20 21/21/21
f 16/16/16 21/21/21 18/18/18
f 1/1/1 17/17/17 22/22/22
f 1/1/1 22/22/22 2/2/2
f 2/2/2 22/22/22 23/23/23
f 2/2/2 23/23/23 7/7/7
f 17/17/17 19/19/19 24/24/24
f 17/17/17 24/24/24 22/22/22
f 22/22/22 24/24/24 25/25/25
f 22/22/22 25/25/25 23/23/23
f 26/26/26 27/27/27 28/28/28
f 26/26/26 28/28/28 29/29/29
f 29/29/29 28/28/28 30/30/30
f 29/29/29 30/30/30 31/31/31
f 27/27/27 32/32/32 33/33/33
f 27/27/27 33/33/33 28/28/28
f 28/28/28 33/33/33 34/34/34
f 28/28/28 34/34/34 30/30/30
f 26/26/26 29/29/29 35/35/35
f 26/26/26 35/35/35 36/36/36
f 36/36/36 35/35/35 37/37/37
f 36/36/36 37/37/37 38/38/38
f 29/29/29 31/31/31 39/39/39
f 29/29/29 39/39/39 35/35/35
f 35/35/35 39/39/39 40/40/40
f 35/35/35 40/40/40 37/37/37
f 26/26/26 36/36/36 41/41/41
f 26/26/26 41/41/41 42/42/42
f 42/42/42 41/41/41 43/43/43
f 42/42/42 43/43/43 44/44/44
f 36/36/36 38/38/38 45/45/45
f 36/36/36 45/45/45 41/41/41
f 41/41/41 45/45/45 46/46/46
f 41/41/41 46/46/46 43/43/43
f 26/26/26 42/42/42 47/47/47
f 26/26/26 47/47/47 27/27/27
f 27/27/27 47/47/47 48/48/48
f 27/27/27 48/48/48 32/32/32
f 42/42/42 44/44/44 49/49/49
f 42/42/42 49/49/49 47/47/47
f 47/47/47 49/49/49 50/50/50
f 47/47/47 50/50/50 48/48/48
f 51/51/51 52/52/52 53/53/53
f 51/51/51 53/53/53 54/54/54
f 54/54/54 53/53/53 55/55/55
f 54/54/54 55/55/55 56/56/56
f 52/52/52 38/38/38 37/37/37
f 52/52/52 37/37/37 53/53/53
f 53/53/53 37/37/37 40/40/40
f 53/53/53 40/40/40 55/55/55
f 51/51/51 54/54/54 57/57/57
f 51/51/51 57/57/57 58/58/58
f 58/58/58 57/57/57 59/59/59
f 58/58/58 59/59/59 60/60/60
f 54/54/54 56/56/56 61/61/61
f 54/54/54 61/61/61 57/57/57
f 57/57/57 61/61/61 62/62/62
f 57/57/57 62/62/62 59/59/59
f 51/51/51 58/58/58 63/63/63
f 51/51/51 63/63/63 64/64/64
f 64/64/64 63/63/63 65/65/65
f 64/64/64 65/65/65 66/66/66
f 58/58/58 60/60/60 67/67/67
f 58/58/58 67/67/67 63/63/63
f 63/63/63 67/67/67 68/68/68
f 63/63/63 68/68/68 65/65/65
f 51/51/51 64/64/64 69/69/69
f 51/51/51 69/69/69 52/52/52
f 52/52/52 69/69/69 45/45/45
f 52/52/52 45/45/45 38/38/38
f 64/64/64 66/66/66 70/70/70
f 64/64/64 70/70/70 69/69/69
f 69/69/69 70/70/70 46/46/46
f 69/69/69 46/46/46 45/45/45
f 71/71/71 72/72/72 73/73/73
f 71/71/71 73/73/73 74/74/74
f 74/74/74 73/73/73 75/75/75
f 74/74/74 75/75/75 76/76/76
f 72/72/72 77/77/77 78/78/78
f 72/72/72 78/78/78 73/73/73
f 73/73/73 78/78/78 79/79/79
f 73/73/73 79/79/79 75/75/75
f 71/71/71 74/74/74 80/80/80
f 71/71/71 80/80/80 81/81/81
f 81/81/81 80/80/80 8/8/8
f 81/81/81 8/8/8 7/7/7
f 74/74/74 76/76/76 82/82/82
f 74/74/74 82/82/82 80/80/80
f 80/80/80 82/82/82 9/9/9
f 80/80/80 9/9/9 8/8/8
f 71/71/71 81/81/81 83/83/83
f 71/71/71 83/83/83 84/84/84
f 84/84/84 83/83/83 85/85/85
f 84/84/84 85/85/85 86/86/86
f 81/81/81 7/7/7 23/23/23
f 81/81/81 23/23/23 83/83/83
f 83/83/83 23/23/23 25/25/25
f 83/83/83 25/25/25 85/85/85
f 71/71/71 84/84/84 87/87/87
f 71/71/71 87/87/87 72/72/72
f 72/72/72 87/87/87 88/88/88
f 72/72/72 88/88/88 77/77/77
f 84/84/84 86/86/86 89/89/89
f 84/84/84 89/89/89 87/87/87
f 87/87/87 89/89/89 90/90/90
f 87/87/87 90/90/90 88/88/88
f 91/91/91 92/92/92 93/93/93
f 91/91/91 93/93/93 94/94/94
f 94/94/94 93/93/93 95/95/95
f 94/94/94 95/95/95 96/96/96
f 92/92/92 97/97/97 98/98/98
f 92/92/92 98/98/98 93/93/93
f 93/93/93 98/98/98 90/90/90
f 93/93/93 90/90/90 95/95/95
f 91/91/91 94/94/94 99/99/99
f 91/91/91 99/99/99 100/100/100
f 100/100/100 99/99/99 49/49/49
f 100/100/100 49/49/49 44/44/44
f 94/94/94 96/96/96 101/101/101
f 94/94/94 101/101/101 99/99/99
f 99/99/99 101/101/101 50/50/50
f 99/99/99 50/50/50 49/49/49
f 91/91/91 100/100/100 102/102/102
f 91/91/91 102/102/102 103/103/103
f 103/103/103 102/102/102 70/70/70
f 103/103/103 70/70/70 66/66/66
f 100/100/100 44/44/44 43/43/43
f 100/100/100 43/43/43 102/102/102
f 102/102/102 43/43/43 46/46/46
f 102/102/102 46/46/46 70/70/70
f 91/91/91 103/103/103 104/104/104
f 91/91/91 104/104/104 92/92/92
f 92/92/92 104/104/104 105/105/105
f 92/92/92 105/105/105 97/97/97
f 103/103/103 66/66/66 65/65/65
f 103/103/103 65/65/65 104/104/104
f 104/104/104 65/65/65 68/68/68
f 104/104/104 68/68/68 105/105/105
f 106/106/106 107/107/107 108/108/108
f 106/106/106 108/108/108 109/109/109
f 109/109/109 108/108/108 110/110/110
f 109/109/109 110/110/110 111/111/111
f 107/107/107 76/76/76 75/75/75
f 107/107/107 75/75/75 108/108/108
f 108/108/108 75/75/75 79/79/79
f 108/108/108 79/79/79 110/110/110
f 106/106/106 109/109/109 112/112/112
f 106/106/106 112/112/112 113/113/113
f 113/113/113 112/112/112 114/114/114
f 113/113/113 114/114/114 115/115/115
f 109/109/109 111/111/111 116/116/116
f 109/109/109 116/116/116 112/112/112
f 112/112/112 116/116/116 34/34/34
f 112/112/112 34/34/34 114/114/114
f 106/106/106 113/113/113 117/117/117
f 106/106/106 117/117/117 118/118/118
f 118/118/118 117/117/117 14/14/14
f 118/118/118 14/14/14 6/6/6
f 113/113/113 115/115/115 119/119/119
f 113/113/113 119/119/119 117/117/117
f 117/117/117 119/119/119 15/15/15
f 117/117/117 15/15/15 14/14/14
f 106/106/106 118/118/118 120/120/120
f 106/106/106 120/120/120 107/107/107
f 107/107/107 120/120/120 82/82/82
f 107/107/107 82/82/82 76/76/76
f 118/118/118 6/6/6 5/5/5
f 118/118/118 5/5/5 120/120/120
f 120/120/120 5/5/5 9/9/9
f 120/120/120 9/9/9 82/82/82
f 121/121/121 122/122/122 123/123/123
f 121/121/121 123/123/123 124/124/124
f 124/124/124 123/123/123 119/119/119
f 124/124/124 119/119/119 115/115/115
f 122/122/122 13/13/13 12/12/12
f 122/122/122 12/12/12 123/123/123
f 123/123/123 12/12/12 15/15/15
f 123/123/123 15/15/15 119/119/119
f 121/121/121 124/124/124 125/125/125
f 121/121/121 125/125/125 126/126/126
f 126/126/126 125/125/125 33/33/33
f 126/126/126 33/33/33 32/32/32
f 124/124/124 115/115/115 114/114/114
f 124/124/124 114/114/114 125/125/125
f 125/125/125 114/114/114 34/34/34
f 125/125/125 34/34/34 33/33/33
f 121/121/121 126/126/126 127/127/127
f 121/121/121 127/127/127 128/128/128
f 128/128/128 127/127/127 129/129/129
f 128/128/128 129/129/129 130/130/130
f 126/126/126 32/32/32 48/48/48
f 126/126/126 48/48/48 127/127/127
f 127/127/127 48/48/48 50/50/50
f 127/127/127 50/50/50 129/129/129
f 121/121/121 128/128/128 131/131/131
f 121/121/121 131/131/131 122/122/122
f 122/122/122 131/131/131 20/20/20
f 122/122/122 20/20/20 13/13/13
f 128/128/128 130/130/130 132/132/132
f 128/128/128 132/132/132 131/131/131
f 131/131/131 132/132/132 21/21/21
f 131/131/131 21/21/21 20/20/20
f 133/133/133 134/134/134 135/135/135
f 133/133/133 135/135/135 136/136/136
f 136/136/136 135/135/135 137/137/137
f 136/136/136 137/137/137 138/138/138
f 134/134/134 60/60/60 59/59/59
f 134/134/134 59/59/59 135/135/135
f 135/135/135 59/59/59 62/62/62
f 135/135/135 62/62/62 137/137/137
f 133/133/133 136/136/136 139/139/139
f 133/133/133 139/139/139 140/140/140
f 140/140/140 139/139/139 78/78/78
f 140/140/140 78/78/78 77/77/77
f 136/136/136 138/138/138 141/141/141
f 136/136/136 141/141/141 139/139/139
f 139/139/139 141/141/141 79/79/79
f 139/139/139 79/79/79 78/78/78
f 133/133/133 140/140/140 142/142/142
f 133/133/133 142/142/142 143/143/143
f 143/143/143 142/142/142 98/98/98
f 143/143/143 98/98/98 97/97/97
f 140/140/140 77/77/77 88/88/88
f 140/140/140 88/88/88 142/142/142
f 142/142/142 88/88/88 90/90/90
f 142/142/142 90/90/90 98/98/98
f 133/133/133 143/143/143 144/144/144
f 133/133/133 144/144/144 134/134/134
f 134/134/134 144/144/144 67/67/67
f 134/134/134 67/67/67 60/60/60
f 143/143/143 97/97/97 105/105/105
f 143/143/143 105/105/105 144/144/144
f 144/144/144 105/105/105 68/68/68
f 144/144/144 68/68/68 67/67/67
f 145/145/145 146/146/146 147/147/147
f 145/145/145 147/147/147 148/148/148
f 148/148/148 147/147/147 24/24/24
f 148/148/148 24/24/24 19/19/19
f 146/146/146 86/86/86 85/85/85
f 146/146/146 85/85/85 147/147/147
f 147/147/147 85/85/85 25/25/25
f 147/147/147 25/25/25 24/24/24
f 145/145/145 148/148/148 149/149/149
f 145/145/145 149/149/149 150/150/150
f 150/150/150 149/149/149 132/132/132
f 150/150/150 132/132/132 130/130/130
f 148/148/148 19/19/19 18/18/18
f 148/148/148 18/18/18 149/149/149
f 149/149/149 18/18/18 21/21/21
f 149/149/149 21/21/21 132/132/132
f 145/145/145 150/150/150 151/151/151
f 145/145/145 151/151/151 152/152/152
f 152/152/152 151/151/151 101/101/101
f 152/152/152 101/101/101 96/96/96
f 150/150/150 130/130/130 129/129/129
f 150/150/150 129/129/129 151/151/151
f 151/151/151 129/129/129 50/50/50
f 151/151/151 50/50/50 101/101/101
f 145/145/145 152/152/152 153/153/153
f 145/145/145 153/153/153 146/146/146
f 146/146/146 153/153/153 89/89/89
f 146/146/146 89/89/89 86/86/86
f 152/152/152 96/96/96 95/95/95
f 152/152/152 95/95/95 153/153/153
f 153/153/153 95/95/95 90/90/90
f 153/153/153 90/90/90 89/89/89
f 154/154/154 155/155/155 156/156/156
f 154/154/154 156/156/156 157/157/157
f 157/157/157 156/156/156 61/61/61
f 157/157/157 61/61/61 56/56/56
f 155/155/155 138/138/138 137/137/137
f 155/155/155 137/137/137 156/156/156
f 156/156/156 137/137/137 62/62/62
f 156/156/156 62/62/62 61/61/61
f 154/154/154 157/157/157 158/158/158
f 154/154/154 158/158/158 159/159/159
f 159/159/159 158/158/158 39/39/39
f 159/159/159 39/39/39 31/31/31
f 157/157/157 56/56/56 55/55/55
f 157/157/157 55/55/55 158/158/158
f 158/158/158 55/55/55 40/40/40
f 158/158/158 40/40/40 39/39/39
f 154/154/154 159/159/159 160/160/160
f 154/154/154 160/160/160 161/161/161
f 161/161/161 160/160/160 116/116/116
f 161/161/161 116/116/116 111/111/111
f 159/159/159 31/31/31 30/30/30
f 159/159/159 30/30/30 160/160/160
f 160/160/160 30/30/30 34/34/34
f 160/160/160 34/34/34 116/116/116
f 154/154/154 161/161/161 162/162/162
f 154/154/154 162/162/162 155/155/155
f 155/155/155 162/162/162 141/141/141
f 155/155/155 141/141/141 138/138/138
f 161/161/161 111/111/111 110/110/110
f 161/161/161 110/110/110 162/162/162
f 162/162/162 110/110/110 79/79/79
f 162/162/162 79/79/79 141/141/141
