v -2.428954 0.744584 -1.162198
v -2.430588 0.744610 -1.162781
v -2.430838 0.743585 -1.160726
v -2.428954 0.743626 -1.160312
v -2.427544 0.743756 -1.159831
v -2.427748 0.744605 -1.161447
v -2.428186 0.744988 -1.162569
v -2.429019 0.745185 -1.163581
v -2.430407 0.745290 -1.164322
v -2.432291 0.744794 -1.162499
v -2.433599 0.744973 -1.161973
v -2.434191 0.744174 -1.160429
v -2.432745 0.743864 -1.160653
v -2.431907 0.745367 -1.163841
v -2.432925 0.745286 -1.162995
v -2.433496 0.739568 -1.154883
v -2.434898 0.739783 -1.154871
v -2.434786 0.737999 -1.153136
v -2.433545 0.737803 -1.153156
v -2.431899 0.737610 -1.153106
v -2.431635 0.739356 -1.154817
v -2.431370 0.740971 -1.156639
v -2.433317 0.741207 -1.156697
v -2.434783 0.741452 -1.156668
v -2.429781 0.739335 -1.154549
v -2.430259 0.737596 -1.152860
v -2.429028 0.737637 -1.152618
v -2.428388 0.739373 -1.154285
v -2.427973 0.741024 -1.156055
v -2.429430 0.740962 -1.156348
v -2.429133 0.742405 -1.158316
v -2.431101 0.742376 -1.158644
v -2.427655 0.742523 -1.157969
v -2.433077 0.742654 -1.158670
v -2.434566 0.742958 -1.158590
v -2.433393 0.735975 -1.151446
v -2.434321 0.736148 -1.151401
v -2.433827 0.735046 -1.150474
v -2.433204 0.734564 -1.150186
v -2.432361 0.734424 -1.150206
v -2.432163 0.735810 -1.151432
v -2.430940 0.735820 -1.151225
v -2.431524 0.734458 -1.150035
v -2.430804 0.734856 -1.150202
v -2.430021 0.735878 -1.151014
v -2.428931 0.744425 -1.162283
v -2.430590 0.744451 -1.162868
v -2.430409 0.745170 -1.164386
v -2.429001 0.745065 -1.163642
v -2.428167 0.744899 -1.162614
v -2.427718 0.744486 -1.161509
v -2.427517 0.743640 -1.159898
v -2.428932 0.743470 -1.160403
v -2.430839 0.743430 -1.160819
v -2.432318 0.744639 -1.162587
v -2.433632 0.744858 -1.162041
v -2.432946 0.745200 -1.163044
v -2.431929 0.745249 -1.163905
v -2.432769 0.743711 -1.160749
v -2.434220 0.744062 -1.160501
v -2.433510 0.739434 -1.155005
v -2.434916 0.739683 -1.154963
v -2.434804 0.741348 -1.156754
v -2.433332 0.741066 -1.156812
v -2.431369 0.740828 -1.156753
v -2.431633 0.739220 -1.154939
v -2.431896 0.737479 -1.153233
v -2.433558 0.737673 -1.153284
v -2.434804 0.737903 -1.153232
v -2.429762 0.739198 -1.154668
v -2.429412 0.740819 -1.156459
v -2.427951 0.740917 -1.156137
v -2.428366 0.739271 -1.154374
v -2.429005 0.737538 -1.152711
v -2.430240 0.737465 -1.152985
v -2.429114 0.742256 -1.158417
v -2.431101 0.742227 -1.158747
v -2.427631 0.742412 -1.158043
v -2.433096 0.742506 -1.158775
v -2.434591 0.742850 -1.158669
v -2.433406 0.735847 -1.151576
v -2.434340 0.736054 -1.151498
v -2.432160 0.735681 -1.151561
v -2.432358 0.734327 -1.150303
v -2.433215 0.734469 -1.150284
v -2.433839 0.734976 -1.150546
v -2.430919 0.735691 -1.151352
v -2.429996 0.735780 -1.151108
v -2.430788 0.734784 -1.150272
v -2.431507 0.734361 -1.150130
v -2.434640 0.736164 -1.151429
v -2.433882 0.734690 -1.150151
v -2.435209 0.738022 -1.153173
v -2.433839 0.734976 -1.150546
v -2.431711 0.733961 -1.149680
v -2.430853 0.734499 -1.149878
v -2.432425 0.733919 -1.149841
v -2.430788 0.734784 -1.150272
v -2.427330 0.744559 -1.161224
v -2.427980 0.745051 -1.162624
v -2.427059 0.743748 -1.159700
v -2.428167 0.744899 -1.162614
v -2.431789 0.745506 -1.164317
v -2.433107 0.745374 -1.163085
v -2.430347 0.745463 -1.164864
v -2.432946 0.745200 -1.163044
v -2.434053 0.744982 -1.161828
v -2.434688 0.744228 -1.160386
v -2.433146 0.734052 -1.149809
v -2.429701 0.735853 -1.150985
v -2.428605 0.737607 -1.152578
v -2.429032 0.745332 -1.164069
v -2.427150 0.742513 -1.157886
v -2.427475 0.740997 -1.155994
v -2.435076 0.743012 -1.158599
v -2.435283 0.741488 -1.156696
v -2.435375 0.739811 -1.154908
v -2.427912 0.739341 -1.154236
vn -0.200000 0.884900 0.420500
vn 0.017900 0.901900 0.431500
vn 0.011400 0.874700 0.484500
vn -0.183500 0.859400 0.477200
vn -0.177000 0.847400 0.500400
vn -0.192200 0.885800 0.422400
vn -0.201100 0.908900 0.365300
vn -0.150500 0.927000 0.343500
vn 0.027900 0.937900 0.345800
vn 0.230500 0.857800 0.459300
vn 0.222600 0.859600 0.459900
vn 0.189200 0.824500 0.533200
vn 0.201200 0.835100 0.511900
vn 0.201100 0.904900 0.375100
vn 0.244400 0.880800 0.405500
vn 0.091900 0.714800 0.693300
vn 0.054200 0.713700 0.698300
vn 0.047800 0.691400 0.720900
vn 0.096200 0.690500 0.716900
vn -0.020900 0.695400 0.718300
vn -0.016300 0.725200 0.688300
vn -0.007000 0.781300 0.624100
vn 0.113400 0.762900 0.636500
vn 0.084500 0.755900 0.649200
vn -0.124100 0.728400 0.673800
vn -0.135500 0.705000 0.696100
vn -0.088800 0.700000 0.708600
vn -0.088400 0.722600 0.685500
vn -0.104000 0.767700 0.632300
vn -0.129000 0.778200 0.614600
vn -0.151200 0.827300 0.540900
vn 0.003300 0.836400 0.548100
vn -0.137600 0.813200 0.565400
vn 0.154300 0.808100 0.568400
vn 0.134900 0.796100 0.589800
vn 0.120200 0.676400 0.726700
vn 0.068000 0.674800 0.734800
vn 0.097800 0.658100 0.746500
vn 0.135800 0.630800 0.763900
vn -0.029000 0.638500 0.769100
vn -0.023000 0.680900 0.732000
vn -0.162400 0.694100 0.701300
vn -0.189900 0.651400 0.734500
vn -0.146600 0.673500 0.724400
vn -0.113200 0.686300 0.718400
vn 0.229600 -0.870100 -0.436000
vn -0.016100 -0.894700 -0.446300
vn -0.009200 -0.864700 -0.502100
vn 0.317500 -0.820100 -0.476000
vn 0.429400 -0.772400 -0.468000
vn 0.406100 -0.785700 -0.466600
vn 0.340600 -0.804600 -0.486300
vn 0.198700 -0.856800 -0.475800
vn -0.011400 -0.874800 -0.484400
vn -0.254900 -0.839600 -0.479600
vn -0.411100 -0.734300 -0.540100
vn -0.431900 -0.718300 -0.545500
vn -0.327200 -0.779700 -0.533900
vn -0.215900 -0.830700 -0.513100
vn -0.346000 -0.761400 -0.548100
vn -0.108100 -0.713300 -0.692500
vn -0.219600 -0.698300 -0.681300
vn -0.236500 -0.730400 -0.640700
vn -0.128300 -0.760700 -0.636300
vn 0.007000 -0.781200 -0.624300
vn 0.016300 -0.725100 -0.688400
vn 0.020900 -0.695300 -0.718400
vn -0.115300 -0.690100 -0.714400
vn -0.243500 -0.690700 -0.680800
vn 0.140000 -0.728800 -0.670200
vn 0.143800 -0.777800 -0.611800
vn 0.254100 -0.761200 -0.596600
vn 0.248700 -0.727700 -0.639100
vn 0.272900 -0.723300 -0.634300
vn 0.153700 -0.707000 -0.690300
vn 0.165700 -0.826200 -0.538500
vn -0.003300 -0.836400 -0.548100
vn 0.286500 -0.794400 -0.535600
vn -0.168700 -0.805100 -0.568600
vn -0.283200 -0.758500 -0.586800
vn -0.147600 -0.686300 -0.712100
vn -0.299500 -0.699600 -0.648700
vn 0.021700 -0.689700 -0.723700
vn 0.015900 -0.727300 -0.686100
vn -0.226600 -0.719700 -0.656300
vn -0.332800 -0.707400 -0.623500
vn 0.185400 -0.707200 -0.682200
vn 0.320900 -0.738600 -0.592800
vn 0.348000 -0.750200 -0.562200
vn 0.248300 -0.749600 -0.613500
vn -0.945100 -0.066500 0.319900
vn -0.746200 -0.304800 0.591800
vn -0.981700 0.011900 0.190100
vn -0.332800 -0.707400 -0.623500
vn 0.129800 -0.686500 0.715400
vn 0.585300 -0.388500 0.711700
vn -0.103600 -0.797100 0.594800
vn 0.348000 -0.750200 -0.562200
vn 0.923700 0.380200 -0.046400
vn 0.806800 0.492500 -0.326100
vn 0.961200 0.249800 0.116800
vn 0.429400 -0.772400 -0.468000
vn -0.394000 0.479000 -0.784400
vn -0.668400 0.585300 -0.458800
vn 0.106100 0.364100 -0.925300
vn -0.431900 -0.718300 -0.545500
vn -0.846300 0.491400 -0.205700
vn -0.927700 0.369300 -0.054300
vn -0.339500 -0.657100 0.673100
vn 0.857400 -0.179800 0.482200
vn 0.925800 -0.108300 0.362000
vn 0.583800 0.417600 -0.696300
vn 0.969000 0.133900 0.207300
vn 0.967700 0.056200 0.245900
vn -0.966100 0.256000 0.032700
vn -0.981300 0.179100 0.070200
vn -0.989100 0.101400 0.106500
vn 0.959000 -0.021800 0.282700
vt 0.839504 0.118056
vt 0.856743 0.205307
vt 0.741230 0.205307
vt 0.734555 0.106726
vt 0.724541 0.032791
vt 0.813647 0.052618
vt 0.868992 0.081539
vt 0.913398 0.129584
vt 0.940923 0.205307
vt 0.839504 0.292557
vt 0.813647 0.357995
vt 0.724541 0.377822
vt 0.734555 0.303887
vt 0.913398 0.281029
vt 0.868992 0.329074
vt 0.369475 0.299954
vt 0.368286 0.370940
vt 0.245840 0.351447
vt 0.246397 0.288815
vt 0.246768 0.205307
vt 0.370268 0.205307
vt 0.494283 0.205307
vt 0.492822 0.304944
vt 0.490632 0.379672
vt 0.369475 0.110659
vt 0.246397 0.121798
vt 0.245841 0.059166
vt 0.368286 0.039673
vt 0.490632 0.030941
vt 0.492822 0.105669
vt 0.616755 0.103478
vt 0.619174 0.205307
vt 0.613127 0.027106
vt 0.616755 0.307135
vt 0.613126 0.383507
vt 0.123273 0.268175
vt 0.123047 0.315326
vt 0.054743 0.283353
vt 0.030912 0.249131
vt 0.030973 0.205306
vt 0.123423 0.205306
vt 0.123273 0.142438
vt 0.030912 0.161481
vt 0.054744 0.127260
vt 0.123047 0.095287
vt 0.839504 0.118056
vt 0.856743 0.205307
vt 0.968983 0.205307
vt 0.938030 0.133427
vt 0.876123 0.061548
vt 0.805028 0.030806
vt 0.721203 0.008146
vt 0.734555 0.106726
vt 0.741230 0.205307
vt 0.839504 0.292557
vt 0.805028 0.379807
vt 0.876123 0.349065
vt 0.938030 0.277186
vt 0.734555 0.303887
vt 0.721203 0.402467
vt 0.369475 0.299954
vt 0.367890 0.394602
vt 0.489902 0.404581
vt 0.492822 0.304944
vt 0.494283 0.205307
vt 0.370268 0.205307
vt 0.246768 0.205307
vt 0.246397 0.288815
vt 0.245655 0.372324
vt 0.369475 0.110659
vt 0.492822 0.105669
vt 0.489902 0.006032
vt 0.367890 0.016011
vt 0.245655 0.038289
vt 0.246397 0.121798
vt 0.616755 0.103478
vt 0.619174 0.205307
vt 0.611917 0.001649
vt 0.616755 0.307135
vt 0.611917 0.408964
vt 0.123273 0.268175
vt 0.122972 0.331043
vt 0.123423 0.205306
vt 0.000156 0.205306
vt 0.000125 0.242784
vt 0.000064 0.280261
vt 0.123273 0.142438
vt 0.122972 0.079570
vt 0.000064 0.130352
vt 0.000125 0.167829
vt 0.122972 0.331043
vt 0.030806 0.283587
vt 0.245655 0.372324
vt 0.030806 0.283587
vt 0.000125 0.167829
vt 0.030806 0.127026
vt 0.000156 0.205306
vt 0.030806 0.127026
vt 0.805028 0.030806
vt 0.873826 0.071832
vt 0.721203 0.008146
vt 0.873826 0.071832
vt 0.938030 0.277186
vt 0.873826 0.338781
vt 0.968983 0.205307
vt 0.873826 0.338781
vt 0.805028 0.379807
vt 0.721203 0.402467
vt 0.000125 0.242784
vt 0.122972 0.079570
vt 0.245655 0.038289
vt 0.938030 0.133427
vt 0.611917 0.001649
vt 0.489902 0.006032
vt 0.611917 0.408964
vt 0.489902 0.404581
vt 0.367890 0.394602
vt 0.367890 0.016011
f 1/1/1 2/2/2 3/3/3
f 1/1/1 3/3/3 4/4/4
f 1/1/1 4/4/4 5/5/5
f 1/1/1 5/5/5 6/6/6
f 1/1/1 6/6/6 7/7/7
f 1/1/1 7/7/7 8/8/8
f 1/1/1 8/8/8 9/9/9
f 1/1/1 9/9/9 2/2/2
f 10/10/10 11/11/11 12/12/12
f 10/10/10 12/12/12 13/13/13
f 10/10/10 13/13/13 3/3/3
f 10/10/10 3/3/3 2/2/2
f 10/10/10 2/2/2 9/9/9
f 10/10/10 9/9/9 14/14/14
f 10/10/10 14/14/14 15/15/15
f 10/10/10 15/15/15 11/11/11
f 16/16/16 17/17/17 18/18/18
f 16/16/16 18/18/18 19/19/19
f 16/16/16 19/19/19 20/20/20
f 16/16/16 20/20/20 21/21/21
f 16/16/16 21/21/21 22/22/22
f 16/16/16 22/22/22 23/23/23
f 16/16/16 23/23/23 24/24/24
f 16/16/16 24/24/24 17/17/17
f 25/25/25 21/21/21 20/20/20
f 25/25/25 20/20/20 26/26/26
f 25/25/25 26/26/26 27/27/27
f 25/25/25 27/27/27 28/28/28
f 25/25/25 28/28/28 29/29/29
f 25/25/25 29/29/29 30/30/30
f 25/25/25 30/30/30 22/22/22
f 25/25/25 22/22/22 21/21/21
f 31/31/31 32/32/32 22/22/22
f 31/31/31 22/22/22 30/30/30
f 31/31/31 30/30/30 29/29/29
f 31/31/31 29/29/29 33/33/33
f 31/31/31 33/33/33 5/5/5
f 31/31/31 5/5/5 4/4/4
f 31/31/31 4/4/4 3/3/3
f 31/31/31 3/3/3 32/32/32
f 34/34/34 35/35/35 24/24/24
f 34/34/34 24/24/24 23/23/23
f 34/34/34 23/23/23 22/22/22
f 34/34/34 22/22/22 32/32/32
f 34/34/34 32/32/32 3/3/3
f 34/34/34 3/3/3 13/13/13
f 34/34/34 13/13/13 12/12/12
f 34/34/34 12/12/12 35/35/35
f 36/36/36 37/37/37 38/38/38
f 36/36/36 38/38/38 39/39/39
f 36/36/36 39/39/39 40/40/40
f 36/36/36 40/40/40 41/41/41
f 36/36/36 41/41/41 20/20/20
f 36/36/36 20/20/20 19/19/19
f 36/36/36 19/19/19 18/18/18
f 36/36/36 18/18/18 37/37/37
f 42/42/42 41/41/41 40/40/40
f 42/42/42 40/40/40 43/43/43
f 42/42/42 43/43/43 44/44/44
f 42/42/42 44/44/44 45/45/45
f 42/42/42 45/45/45 27/27/27
f 42/42/42 27/27/27 26/26/26
f 42/42/42 26/26/26 20/20/20
f 42/42/42 20/20/20 41/41/41
f 46/46/46 47/47/47 48/48/48
f 46/46/46 48/48/48 49/49/49
f 46/46/46 49/49/49 50/50/50
f 46/46/46 50/50/50 51/51/51
f 46/46/46 51/51/51 52/52/52
f 46/46/46 52/52/52 53/53/53
f 46/46/46 53/53/53 54/54/54
f 46/46/46 54/54/54 47/47/47
f 55/55/55 56/56/56 57/57/57
f 55/55/55 57/57/57 58/58/58
f 55/55/55 58/58/58 48/48/48
f 55/55/55 48/48/48 47/47/47
f 55/55/55 47/47/47 54/54/54
f 55/55/55 54/54/54 59/59/59
f 55/55/55 59/59/59 60/60/60
f 55/55/55 60/60/60 56/56/56
f 61/61/61 62/62/62 63/63/63
f 61/61/61 63/63/63 64/64/64
f 61/61/61 64/64/64 65/65/65
f 61/61/61 65/65/65 66/66/66
f 61/61/61 66/66/66 67/67/67
f 61/61/61 67/67/67 68/68/68
f 61/61/61 68/68/68 69/69/69
f 61/61/61 69/69/69 62/62/62
f 70/70/70 66/66/66 65/65/65
f 70/70/70 65/65/65 71/71/71
f 70/70/70 71/71/71 72/72/72
f 70/70/70 72/72/72 73/73/73
f 70/70/70 73/73/73 74/74/74
f 70/70/70 74/74/74 75/75/75
f 70/70/70 75/75/75 67/67/67
f 70/70/70 67/67/67 66/66/66
f 76/76/76 77/77/77 54/54/54
f 76/76/76 54/54/54 53/53/53
f 76/76/76 53/53/53 52/52/52
f 76/76/76 52/52/52 78/78/78
f 76/76/76 78/78/78 72/72/72
f 76/76/76 72/72/72 71/71/71
f 76/76/76 71/71/71 65/65/65
f 76/76/76 65/65/65 77/77/77
f 79/79/79 80/80/80 60/60/60
f 79/79/79 60/60/60 59/59/59
f 79/79/79 59/59/59 54/54/54
f 79/79/79 54/54/54 77/77/77
f 79/79/79 77/77/77 65/65/65
f 79/79/79 65/65/65 64/64/64
f 79/79/79 64/64/64 63/63/63
f 79/79/79 63/63/63 80/80/80
f 81/81/81 82/82/82 69/69/69
f 81/81/81 69/69/69 68/68/68
f 81/81/81 68/68/68 67/67/67
f 81/81/81 67/67/67 83/83/83
f 81/81/81 83/83/83 84/84/84
f 81/81/81 84/84/84 85/85/85
f 81/81/81 85/85/85 86/86/86
f 81/81/81 86/86/86 82/82/82
f 87/87/87 83/83/83 67/67/67
f 87/87/87 67/67/67 75/75/75
f 87/87/87 75/75/75 74/74/74
f 87/87/87 74/74/74 88/88/88
f 87/87/87 88/88/88 89/89/89
f 87/87/87 89/89/89 90/90/90
f 87/87/87 90/90/90 84/84/84
f 87/87/87 84/84/84 83/83/83
f 91/91/91 92/92/92 38/38/38
f 91/91/91 38/38/38 37/37/37
f 91/91/91 37/37/37 18/18/18
f 91/91/91 18/18/18 93/93/93
f 91/91/91 93/93/93 69/69/69
f 91/91/91 69/69/69 82/82/82
f 91/91/91 82/82/82 94/94/94
f 91/91/91 94/94/94 92/92/92
f 95/95/95 96/96/96 44/44/44
f 95/95/95 44/44/44 43/43/43
f 95/95/95 43/43/43 40/40/40
f 95/95/95 40/40/40 97/97/97
f 95/95/95 97/97/97 84/84/84
f 95/95/95 84/84/84 90/90/90
f 95/95/95 90/90/90 98/98/98
f 95/95/95 98/98/98 96/96/96
f 99/99/99 100/100/100 7/7/7
f 99/99/99 7/7/7 6/6/6
f 99/99/99 6/6/6 5/5/5
f 99/99/99 5/5/5 101/101/101
f 99/99/99 101/101/101 52/52/52
f 99/99/99 52/52/52 51/51/51
f 99/99/99 51/51/51 102/102/102
f 99/99/99 102/102/102 100/100/100
f 103/103/103 104/104/104 15/15/15
f 103/103/103 15/15/15 14/14/14
f 103/103/103 14/14/14 9/9/9
f 103/103/103 9/9/9 105/105/105
f 103/103/103 105/105/105 48/48/48
f 103/103/103 48/48/48 58/58/58
f 103/103/103 58/58/58 106/106/106
f 103/103/103 106/106/106 104/104/104
f 107/107/107 108/108/108 12/12/12
f 107/107/107 12/12/12 11/11/11
f 107/107/107 11/11/11 15/15/15
f 107/107/107 15/15/15 104/104/104
f 107/107/107 104/104/104 106/106/106
f 107/107/107 106/106/106 56/56/56
f 107/107/107 56/56/56 60/60/60
f 107/107/107 60/60/60 108/108/108
f 109/109/109 97/97/97 40/40/40
f 109/109/109 40/40/40 39/39/39
f 109/109/109 39/39/39 38/38/38
f 109/109/109 38/38/38 92/92/92
f 109/109/109 92/92/92 94/94/94
f 109/109/109 94/94/94 85/85/85
f 109/109/109 85/85/85 84/84/84
f 109/109/109 84/84/84 97/97/97
f 110/110/110 111/111/111 27/27/27
f 110/110/110 27/27/27 45/45/45
f 110/110/110 45/45/45 44/44/44
f 110/110/110 44/44/44 96/96/96
f 110/110/110 96/96/96 98/98/98
f 110/110/110 98/98/98 88/88/88
f 110/110/110 88/88/88 74/74/74
f 110/110/110 74/74/74 111/111/111
f 112/112/112 105/105/105 9/9/9
f 112/112/112 9/9/9 8/8/8
f 112/112/112 8/8/8 7/7/7
f 112/112/112 7/7/7 100/100/100
f 112/112/112 100/100/100 102/102/102
f 112/112/112 102/102/102 49/49/49
f 112/112/112 49/49/49 48/48/48
f 112/112/112 48/48/48 105/105/105
f 113/113/113 101/101/101 5/5/5
f 113/113/113 5/5/5 33/33/33
f 113/113/113 33/33/33 29/29/29
f 113/113/113 29/29/29 114/114/114
f 113/113/113 114/114/114 72/72/72
f 113/113/113 72/72/72 78/78/78
f 113/113/113 78/78/78 52/52/52
f 113/113/113 52/52/52 101/101/101
f 115/115/115 116/116/116 24/24/24
f 115/115/115 24/24/24 35/35/35
f 115/115/115 35/35/35 12/12/12
f 115/115/115 12/12/12 108/108/108
f 115/115/115 108/108/108 60/60/60
f 115/115/115 60/60/60 80/80/80
f 115/115/115 80/80/80 63/63/63
f 115/115/115 63/63/63 116/116/116
f 117/117/117 93/93/93 18/18/18
f 117/117/117 18/18/18 17/17/17
f 117/117/117 17/17/17 24/24/24
f 117/117/117 24/24/24 116/116/116
f 117/117/117 116/116/116 63/63/63
f 117/117/117 63/63/63 62/62/62
f 117/117/117 62/62/62 69/69/69
f 117/117/117 69/69/69 93/93/93
f 118/118/118 114/114/114 29/29/29
f 118/118/118 29/29/29 28/28/28
f 118/118/118 28/28/28 27/27/27
f 118/118/118 27/27/27 111/111/111
f 118/118/118 111/111/111 74/74/74
f 118/118/118 74/74/74 73/73/73
f 118/118/118 73/73/73 72/72/72
f 118/118/118 72/72/72 114/114/114
