v -2.407239 0.731070 -1.081611
v -2.405180 0.731720 -1.081123
v -2.404886 0.730852 -1.083923
v -2.407236 0.730155 -1.084150
v -2.409068 0.729775 -1.084517
v -2.408839 0.730677 -1.082368
v -2.408243 0.731183 -1.080958
v -2.407123 0.731646 -1.079778
v -2.405358 0.732267 -1.079039
v -2.403279 0.732695 -1.081700
v -2.401894 0.733526 -1.082522
v -2.401179 0.733011 -1.084693
v -2.402735 0.732001 -1.084250
v -2.403695 0.733052 -1.079855
v -2.402618 0.733490 -1.081083
v -2.401282 0.727889 -1.092380
v -2.399697 0.728740 -1.092567
v -2.399466 0.726771 -1.095049
v -2.400865 0.726009 -1.094874
v -2.402763 0.725089 -1.094724
v -2.403432 0.726856 -1.092220
v -2.404028 0.728452 -1.089602
v -2.401787 0.729550 -1.089779
v -2.400140 0.730467 -1.089993
v -2.405692 0.726080 -1.092281
v -2.404765 0.724410 -1.094787
v -2.406301 0.723968 -1.094897
v -2.407424 0.725570 -1.092395
v -2.408223 0.727152 -1.089813
v -2.406400 0.727658 -1.089677
v -2.406935 0.729017 -1.086902
v -2.404508 0.729773 -1.086793
v -2.408817 0.728577 -1.087093
v -2.402255 0.730937 -1.087007
v -2.400614 0.731941 -1.087276
v -2.400660 0.723967 -1.097327
v -2.399631 0.724573 -1.097492
v -2.399965 0.723160 -1.098780
v -2.400574 0.722355 -1.099135
v -2.401521 0.721828 -1.099008
v -2.402065 0.723253 -1.097190
v -2.403570 0.722774 -1.097263
v -2.402569 0.721537 -1.099091
v -2.403553 0.721688 -1.098701
v -2.404734 0.722480 -1.097378
v -2.407185 0.730860 -1.081531
v -2.405096 0.731520 -1.081043
v -2.405295 0.732116 -1.078983
v -2.407084 0.731487 -1.079722
v -2.408221 0.731063 -1.080915
v -2.408814 0.730516 -1.082308
v -2.409040 0.729617 -1.084450
v -2.407180 0.729949 -1.084061
v -2.404804 0.730655 -1.083835
v -2.403166 0.732509 -1.081621
v -2.401795 0.733395 -1.082464
v -2.402549 0.733390 -1.081041
v -2.403609 0.732913 -1.079799
v -2.402627 0.731817 -1.084163
v -2.401085 0.732880 -1.084628
v -2.401187 0.727719 -1.092253
v -2.399616 0.728617 -1.092472
v -2.400057 0.730340 -1.089907
v -2.401689 0.729374 -1.089664
v -2.403950 0.728267 -1.089486
v -2.403356 0.726677 -1.092092
v -2.402689 0.724915 -1.094588
v -2.400772 0.725844 -1.094739
v -2.399387 0.726652 -1.094949
v -2.405635 0.725894 -1.092154
v -2.406342 0.727466 -1.089560
v -2.408190 0.727004 -1.089726
v -2.407391 0.725428 -1.092299
v -2.406270 0.723829 -1.094796
v -2.404710 0.724229 -1.094651
v -2.406878 0.728817 -1.086800
v -2.404427 0.729582 -1.086691
v -2.408786 0.728423 -1.087016
v -2.402151 0.730756 -1.086905
v -2.400526 0.731812 -1.087200
v -2.400566 0.723805 -1.097190
v -2.399550 0.724456 -1.097390
v -2.401991 0.723081 -1.097051
v -2.401466 0.721700 -1.098904
v -2.400503 0.722234 -1.099032
v -2.399908 0.723072 -1.098704
v -2.403518 0.722594 -1.097124
v -2.404705 0.722342 -1.097275
v -2.403529 0.721587 -1.098624
v -2.402530 0.721402 -1.098987
v -2.399250 0.724724 -1.097502
v -2.399822 0.722796 -1.099259
v -2.398963 0.726973 -1.095063
v -2.399908 0.723072 -1.098704
v -2.402218 0.721065 -1.099654
v -2.403418 0.721322 -1.099179
v -2.401315 0.721296 -1.099568
v -2.403529 0.721587 -1.098624
v -2.409365 0.730474 -1.082593
v -2.408502 0.731165 -1.080846
v -2.409670 0.729577 -1.084610
v -2.408221 0.731063 -1.080915
v -2.403795 0.733109 -1.079216
v -2.402417 0.733661 -1.080981
v -2.405389 0.732381 -1.078320
v -2.402549 0.733390 -1.081041
v -2.401385 0.733747 -1.082771
v -2.400616 0.733291 -1.084812
v -2.400514 0.721764 -1.099692
v -2.405111 0.722319 -1.097371
v -2.406801 0.723758 -1.094889
v -2.407068 0.731767 -1.079143
v -2.409433 0.728361 -1.087122
v -2.408819 0.726917 -1.089819
v -2.400026 0.732220 -1.087332
v -2.399552 0.730718 -1.090026
v -2.399131 0.728970 -1.092587
v -2.407989 0.725336 -1.092390
vn -0.157400 0.937500 -0.310300
vn -0.368400 0.882300 -0.292900
vn -0.362200 0.864000 -0.349600
vn -0.173700 0.913600 -0.367700
vn -0.179800 0.902500 -0.391400
vn -0.165200 0.935900 -0.311000
vn -0.155100 0.955000 -0.252700
vn -0.204700 0.953100 -0.222700
vn -0.375500 0.904400 -0.202400
vn -0.557900 0.773200 -0.301300
vn -0.551300 0.777600 -0.302400
vn -0.520500 0.762700 -0.383800
vn -0.531800 0.766700 -0.359700
vn -0.531900 0.818900 -0.215300
vn -0.569700 0.784900 -0.243400
vn -0.420300 0.707500 -0.568100
vn -0.385500 0.719400 -0.577700
vn -0.376100 0.702800 -0.603800
vn -0.420500 0.685500 -0.594300
vn -0.312600 0.729100 -0.608800
vn -0.321500 0.752700 -0.574400
vn -0.337700 0.796000 -0.502300
vn -0.446600 0.740000 -0.502900
vn -0.419400 0.744200 -0.519900
vn -0.219200 0.789900 -0.572600
vn -0.204700 0.774000 -0.599100
vn -0.248900 0.754900 -0.606700
vn -0.252800 0.773900 -0.580600
vn -0.243900 0.816200 -0.523700
vn -0.221000 0.832500 -0.507900
vn -0.203900 0.879000 -0.431000
vn -0.352600 0.836900 -0.418600
vn -0.216200 0.863600 -0.455500
vn -0.488300 0.762300 -0.424700
vn -0.469800 0.759500 -0.449800
vn -0.440000 0.665300 -0.603100
vn -0.392200 0.681800 -0.617500
vn -0.416700 0.657300 -0.627900
vn -0.446200 0.620900 -0.644500
vn -0.295200 0.683300 -0.667700
vn -0.308200 0.717500 -0.624600
vn -0.177000 0.773200 -0.608900
vn -0.143200 0.745400 -0.651100
vn -0.189100 0.750700 -0.633000
vn -0.223300 0.751100 -0.621300
vn 0.127400 -0.934900 0.331100
vn 0.366900 -0.877600 0.308600
vn 0.359800 -0.857100 0.368600
vn 0.036000 -0.921000 0.387700
vn -0.085100 -0.912500 0.400000
vn -0.059300 -0.917200 0.394000
vn 0.010900 -0.915000 0.403100
vn 0.158500 -0.916000 0.368400
vn 0.362200 -0.864100 0.349500
vn 0.578300 -0.750000 0.321000
vn 0.700900 -0.605300 0.377100
vn 0.716100 -0.584000 0.382100
vn 0.635600 -0.675100 0.374300
vn 0.544300 -0.757800 0.359800
vn 0.649900 -0.652900 0.388900
vn 0.434900 -0.700600 0.565600
vn 0.532900 -0.648400 0.543600
vn 0.552400 -0.669000 0.497200
vn 0.459800 -0.733000 0.501300
vn 0.337700 -0.795900 0.502500
vn 0.321500 -0.752600 0.574600
vn 0.312600 -0.729000 0.608900
vn 0.437800 -0.678600 0.589700
vn 0.552800 -0.633400 0.541300
vn 0.204000 -0.795300 0.570800
vn 0.206500 -0.836800 0.506900
vn 0.095800 -0.856400 0.507300
vn 0.097000 -0.827300 0.553300
vn 0.072200 -0.830700 0.552100
vn 0.187400 -0.781300 0.595300
vn 0.189700 -0.882400 0.430500
vn 0.352600 -0.836900 0.418500
vn 0.066100 -0.892300 0.446500
vn 0.500800 -0.754800 0.423600
vn 0.596300 -0.674800 0.434700
vn 0.466500 -0.664100 0.584200
vn 0.603000 -0.620000 0.501800
vn 0.310900 -0.724600 0.615100
vn 0.322200 -0.754300 0.572000
vn 0.542100 -0.663900 0.515200
vn 0.632600 -0.613900 0.472100
vn 0.156600 -0.791200 0.591100
vn 0.025600 -0.856900 0.514800
vn -0.000900 -0.873800 0.486300
vn 0.100200 -0.845100 0.525000
vn 0.854700 0.281700 -0.435900
vn 0.700300 0.017800 -0.713600
vn 0.885000 0.355100 -0.301100
vn 0.632600 -0.613900 0.472100
vn -0.019500 -0.618200 -0.785800
vn -0.538000 -0.489900 -0.685900
vn 0.253500 -0.655900 -0.711000
vn -0.000900 -0.873800 0.486300
vn -0.976700 0.046300 0.209500
vn -0.858500 0.163100 0.486100
vn -0.996700 -0.072100 0.035900
vn -0.085100 -0.912500 0.400000
vn 0.342600 0.504100 0.792800
vn 0.514500 0.726200 0.455900
vn -0.067200 0.217000 0.973800
vn 0.716100 -0.584000 0.382100
vn 0.670200 0.721700 0.172800
vn 0.760900 0.648800 -0.003600
vn 0.417900 -0.438800 -0.795500
vn -0.822200 -0.406500 -0.398400
vn -0.889900 -0.373500 -0.261700
vn -0.567400 0.130800 0.813000
vn -0.982100 -0.175100 -0.069600
vn -0.962400 -0.243900 -0.119000
vn 0.818800 0.563500 -0.109900
vn 0.851100 0.500100 -0.159300
vn 0.877100 0.433400 -0.207100
vn -0.935800 -0.310600 -0.166900
vt 0.839504 0.118056
vt 0.856743 0.205307
vt 0.741230 0.205307
vt 0.734555 0.106726
vt 0.724541 0.032791
vt 0.813647 0.052618
vt 0.868992 0.081539
vt 0.913398 0.129584
vt 0.940923 0.205307
vt 0.839504 0.292557
vt 0.813647 0.357995
vt 0.724541 0.377822
vt 0.734555 0.303887
vt 0.913398 0.281029
vt 0.868992 0.329074
vt 0.369475 0.299954
vt 0.368286 0.370940
vt 0.245840 0.351447
vt 0.246397 0.288815
vt 0.246768 0.205307
vt 0.370268 0.205307
vt 0.494283 0.205307
vt 0.492822 0.304944
vt 0.490632 0.379672
vt 0.369475 0.110659
vt 0.246397 0.121798
vt 0.245841 0.059166
vt 0.368286 0.039673
vt 0.490632 0.030941
vt 0.492822 0.105669
vt 0.616755 0.103478
vt 0.619174 0.205307
vt 0.613127 0.027106
vt 0.616755 0.307135
vt 0.613126 0.383507
vt 0.123273 0.268175
vt 0.123047 0.315326
vt 0.054743 0.283353
vt 0.030912 0.249131
vt 0.030973 0.205306
vt 0.123423 0.205306
vt 0.123273 0.142438
vt 0.030912 0.161481
vt 0.054744 0.127260
vt 0.123047 0.095287
vt 0.839504 0.118056
vt 0.856743 0.205307
vt 0.968983 0.205307
vt 0.938030 0.133427
vt 0.876123 0.061548
vt 0.805028 0.030806
vt 0.721203 0.008146
vt 0.734555 0.106726
vt 0.741230 0.205307
vt 0.839504 0.292557
vt 0.805028 0.379807
vt 0.876123 0.349065
vt 0.938030 0.277186
vt 0.734555 0.303887
vt 0.721203 0.402467
vt 0.369475 0.299954
vt 0.367890 0.394602
vt 0.489902 0.404581
vt 0.492822 0.304944
vt 0.494283 0.205307
vt 0.370268 0.205307
vt 0.246768 0.205307
vt 0.246397 0.288815
vt 0.245655 0.372324
vt 0.369475 0.110659
vt 0.492822 0.105669
vt 0.489902 0.006032
vt 0.367890 0.016011
vt 0.245655 0.038289
vt 0.246397 0.121798
vt 0.616755 0.103478
vt 0.619174 0.205307
vt 0.611917 0.001649
vt 0.616755 0.307135
vt 0.611917 0.408964
vt 0.123273 0.268175
vt 0.122972 0.331043
vt 0.123423 0.205306
vt 0.000156 0.205306
vt 0.000125 0.242784
vt 0.000064 0.280261
vt 0.123273 0.142438
vt 0.122972 0.079570
vt 0.000064 0.130352
vt 0.000125 0.167829
vt 0.122972 0.331043
vt 0.030806 0.283587
vt 0.245655 0.372324
vt 0.030806 0.283587
vt 0.000125 0.167829
vt 0.030806 0.127026
vt 0.000156 0.205306
vt 0.030806 0.127026
vt 0.805028 0.030806
vt 0.873826 0.071832
vt 0.721203 0.008146
vt 0.873826 0.071832
vt 0.938030 0.277186
vt 0.873826 0.338781
vt 0.968983 0.205307
vt 0.873826 0.338781
vt 0.805028 0.379807
vt 0.721203 0.402467
vt 0.000125 0.242784
vt 0.122972 0.079570
vt 0.245655 0.038289
vt 0.938030 0.133427
vt 0.611917 0.001649
vt 0.489902 0.006032
vt 0.611917 0.408964
vt 0.489902 0.404581
vt 0.367890 0.394602
vt 0.367890 0.016011
f 1/1/1 2/2/2 3/3/3
f 1/1/1 3/3/3 4/4/4
f 1/1/1 4/4/4 5/5/5
f 1/1/1 5/5/5 6/6/6
f 1/1/1 6/6/6 7/7/7
f 1/1/1 7/7/7 8/8/8
f 1/1/1 8/8/8 9/9/9
f 1/1/1 9/9/9 2/2/2
f 10/10/10 11/11/11 12/12/12
f 10/10/10 12/12/12 13/13/13
f 10/10/10 13/13/13 3/3/3
f 10/10/10 3/3/3 2/2/2
f 10/10/10 2/2/2 9/9/9
f 10/10/10 9/9/9 14/14/14
f 10/10/10 14/14/14 15/15/15
f 10/10/10 15/15/15 11/11/11
f 16/16/16 17/17/17 18/18/18
f 16/16/16 18/18/18 19/19/19
f 16/16/16 19/19/19 20/20/20
f 16/16/16 20/20/20 21/21/21
f 16/16/16 21/21/21 22/22/22
f 16/16/16 22/22/22 23/23/23
f 16/16/16 23/23/23 24/24/24
f 16/16/16 24/24/24 17/17/17
f 25/25/25 21/21/21 20/20/20
f 25/25/25 20/20/20 26/26/26
f 25/25/25 26/26/26 27/27/27
f 25/25/25 27/27/27 28/28/28
f 25/25/25 28/28/28 29/29/29
f 25/25/25 29/29/29 30/30/30
f 25/25/25 30/30/30 22/22/22
f 25/25/25 22/22/22 21/21/21
f 31/31/31 32/32/32 22/22/22
f 31/31/31 22/22/22 30/30/30
f 31/31/31 30/30/30 29/29/29
f 31/31/31 29/29/29 33/33/33
f 31/31/31 33/33/33 5/5/5
f 31/31/31 5/5/5 4/4/4
f 31/31/31 4/4/4 3/3/3
f 31/31/31 3/3/3 32/32/32
f 34/34/34 35/35/35 24/24/24
f 34/34/34 24/24/24 23/23/23
f 34/34/34 23/23/23 22/22/22
f 34/34/34 22/22/22 32/32/32
f 34/34/34 32/32/32 3/3/3
f 34/34/34 3/3/3 13/13/13
f 34/34/34 13/13/13 12/12/12
f 34/34/34 12/12/12 35/35/35
f 36/36/36 37/37/37 38/38/38
f 36/36/36 38/38/38 39/39/39
f 36/36/36 39/39/39 40/40/40
f 36/36/36 40/40/40 41/41/41
f 36/36/36 41/41/41 20/20/20
f 36/36/36 20/20/20 19/19/19
f 36/36/36 19/19/19 18/18/18
f 36/36/36 18/18/18 37/37/37
f 42/42/42 41/41/41 40/40/40
f 42/42/42 40/40/40 43/43/43
f 42/42/42 43/43/43 44/44/44
f 42/42/42 44/44/44 45/45/45
f 42/42/42 45/45/45 27/27/27
f 42/42/42 27/27/27 26/26/26
f 42/42/42 26/26/26 20/20/20
f 42/42/42 20/20/20 41/41/41
f 46/46/46 47/47/47 48/48/48
f 46/46/46 48/48/48 49/49/49
f 46/46/46 49/49/49 50/50/50
f 46/46/46 50/50/50 51/51/51
f 46/46/46 51/51/51 52/52/52
f 46/46/46 52/52/52 53/53/53
f 46/46/46 53/53/53 54/54/54
f 46/46/46 54/54/54 47/47/47
f 55/55/55 56/56/56 57/57/57
f 55/55/55 57/57/57 58/58/58
f 55/55/55 58/58/58 48/48/48
f 55/55/55 48/48/48 47/47/47
f 55/55/55 47/47/47 54/54/54
f 55/55/55 54/54/54 59/59/59
f 55/55/55 59/59/59 60/60/60
f 55/55/55 60/60/60 56/56/56
f 61/61/61 62/62/62 63/63/63
f 61/61/61 63/63/63 64/64/64
f 61/61/61 64/64/64 65/65/65
f 61/61/61 65/65/65 66/66/66
f 61/61/61 66/66/66 67/67/67
f 61/61/61 67/67/67 68/68/68
f 61/61/61 68/68/68 69/69/69
f 61/61/61 69/69/69 62/62/62
f 70/70/70 66/66/66 65/65/65
f 70/70/70 65/65/65 71/71/71
f 70/70/70 71/71/71 72/72/72
f 70/70/70 72/72/72 73/73/73
f 70/70/70 73/73/73 74/74/74
f 70/70/70 74/74/74 75/75/75
f 70/70/70 75/75/75 67/67/67
f 70/70/70 67/67/67 66/66/66
f 76/76/76 77/77/77 54/54/54
f 76/76/76 54/54/54 53/53/53
f 76/76/76 53/53/53 52/52/52
f 76/76/76 52/52/52 78/78/78
f 76/76/76 78/78/78 72/72/72
f 76/76/76 72/72/72 71/71/71
f 76/76/76 71/71/71 65/65/65
f 76/76/76 65/65/65 77/77/77
f 79/79/79 80/80/80 60/60/60
f 79/79/79 60/60/60 59/59/59
f 79/79/79 59/59/59 54/54/54
f 79/79/79 54/54/54 77/77/77
f 79/79/79 77/77/77 65/65/65
f 79/79/79 65/65/65 64/64/64
f 79/79/79 64/64/64 63/63/63
f 79/79/79 63/63/63 80/80/80
f 81/81/81 82/82/82 69/69/69
f 81/81/81 69/69/69 68/68/68
f 81/81/81 68/68/68 67/67/67
f 81/81/81 67/67/67 83/83/83
f 81/81/81 83/83/83 84/84/84
f 81/81/81 84/84/84 85/85/85
f 81/81/81 85/85/85 86/86/86
f 81/81/81 86/86/86 82/82/82
f 87/87/87 83/83/83 67/67/67
f 87/87/87 67/67/67 75/75/75
f 87/87/87 75/75/75 74/74/74
f 87/87/87 74/74/74 88/88/88
f 87/87/87 88/88/88 89/89/89
f 87/87/87 89/89/89 90/90/90
f 87/87/87 90/90/90 84/84/84
f 87/87/87 84/84/84 83/83/83
f 91/91/91 92/92/92 38/38/38
f 91/91/91 38/38/38 37/37/37
f 91/91/91 37/37/37 18/18/18
f 91/91/91 18/18/18 93/93/93
f 91/91/91 93/93/93 69/69/69
f 91/91/91 69/69/69 82/82/82
f 91/91/91 82/82/82 94/94/94
f 91/91/91 94/94/94 92/92/92
f 95/95/95 96/96/96 44/44/44
f 95/95/95 44/44/44 43/43/43
f 95/95/95 43/43/43 40/40/40
f 95/95/95 40/40/40 97/97/97
f 95/95/95 97/97/97 84/84/84
f 95/95/95 84/84/84 90/90/90
f 95/95/95 90/90/90 98/98/98
f 95/95/95 98/98/98 96/96/96
f 99/99/99 100/100/100 7/7/7
f 99/99/99 7/7/7 6/6/6
f 99/99/99 6/6/6 5/5/5
f 99/99/99 5/5/5 101/101/101
f 99/99/99 101/101/101 52/52/52
f 99/99/99 52/52/52 51/51/51
f 99/99/99 51/51/51 102/102/102
f 99/99/99 102/102/102 100/100/100
f 103/103/103 104/104/104 15/15/15
f 103/103/103 15/15/15 14/14/14
f 103/103/103 14/14/14 9/9/9
f 103/103/103 9/9/9 105/105/105
f 103/103/103 105/105/105 48/48/48
f 103/103/103 48/48/48 58/58/58
f 103/103/103 58/58/58 106/106/106
f 103/103/103 106/106/106 104/104/104
f 107/107/107 108/108/108 12/12/12
f 107/107/107 12/12/12 11/11/11
f 107/107/107 11/11/11 15/15/15
f 107/107/107 15/15/15 104/104/104
f 107/107/107 104/104/104 106/106/106
f 107/107/107 106/106/106 56/56/56
f 107/107/107 56/56/56 60/60/60
f 107/107/107 60/60/60 108/108/108
f 109/109/109 97/97/97 40/40/40
f 109/109/109 40/40/40 39/39/39
f 109/109/109 39/39/39 38/38/38
f 109/109/109 38/38/38 92/92/92
f 109/109/109 92/92/92 94/94/94
f 109/109/109 94/94/94 85/85/85
f 109/109/109 85/85/85 84/84/84
f 109/109/109 84/84/84 97/97/97
f 110/110/110 111/111/111 27/27/27
f 110/110/110 27/27/27 45/45/45
f 110/110/110 45/45/45 44/44/44
f 110/110/110 44/44/44 96/96/96
f 110/110/110 96/96/96 98/98/98
f 110/110/110 98/98/98 88/88/88
f 110/110/110 88/88/88 74/74/74
f 110/110/110 74/74/74 111/111/111
f 112/112/112 105/105/105 9/9/9
f 112/112/112 9/9/9 8/8/8
f 112/112/112 8/8/8 7/7/7
f 112/112/112 7/7/7 100/100/100
f 112/112/112 100/100/100 102/102/102
f 112/112/112 102/102/102 49/49/49
f 112/112/112 49/49/49 48/48/48
f 112/112/112 48/48/48 105/105/105
f 113/113/113 101/101/101 5/5/5
f 113/113/113 5/5/5 33/33/33
f 113/113/113 33/33/33 29/29/29
f 113/113/113 29/29/29 114/114/114
f 113/113/113 114/114/114 72/72/72
f 113/113/113 72/72/72 78/78/78
f 113/113/113 78/78/78 52/52/52
f 113/113/113 52/52/52 101/101/101
f 115/115/115 116/116/116 24/24/24
f 115/115/115 24/24/24 35/35/35
f 115/115/115 35/35/35 12/12/12
f 115/115/115 12/12/12 108/108/108
f 115/115/115 108/108/108 60/60/60
f 115/115/115 60/60/60 80/80/80
f 115/115/115 80/80/80 63/63/63
f 115/115/115 63/63/63 116/116/116
f 117/117/117 93/93/93 18/18/18
f 117/117/117 18/18/18 17/17/17
f 117/117/117 17/17/17 24/24/24
f 117/117/117 24/24/24 116/116/116
f 117/117/117 116/116/116 63/63/63
f 117/117/117 63/63/63 62/62/62
f 117/117/117 62/62/62 69/69/69
f 117/117/117 69/69/69 93/93/93
f 118/118/118 114/114/114 29/29/29
f 118/118/118 29/29/29 28/28/28
f 118/118/118 28/28/28 27/27/27
f 118/118/118 27/27/27 111/111/111
f 118/118/118 111/111/111 74/74/74
f 118/118/118 74/74/74 73/73/73
f 118/118/118 73/73/73 72/72/72
f 118/118/118 72/72/72 114/114/114
