v -2.351632 0.799592 -1.156778
v -2.349882 0.799905 -1.157691
v -2.351022 0.798121 -1.159301
v -2.352856 0.797922 -1.158062
v -2.354390 0.797829 -1.157286
v -2.353187 0.799301 -1.156360
v -2.352060 0.800113 -1.155926
v -2.350655 0.800708 -1.155872
v -2.348998 0.801144 -1.156471
v -2.348803 0.800114 -1.159360
v -2.348226 0.800216 -1.160888
v -2.348755 0.798868 -1.162429
v -2.349641 0.798515 -1.160996
v -2.348207 0.801160 -1.158106
v -2.348043 0.800854 -1.159593
v -2.352416 0.791946 -1.165298
v -2.351371 0.792260 -1.166513
v -2.352339 0.789722 -1.167434
v -2.353255 0.789440 -1.166350
v -2.354548 0.789115 -1.164984
v -2.353887 0.791582 -1.163761
v -2.353104 0.793940 -1.162427
v -2.351577 0.794332 -1.164045
v -2.350503 0.794678 -1.165333
v -2.355566 0.791365 -1.162423
v -2.356040 0.788926 -1.163808
v -2.357220 0.788821 -1.162978
v -2.356890 0.791242 -1.161475
v -2.356277 0.793613 -1.160064
v -2.354872 0.793724 -1.161038
v -2.353952 0.795938 -1.159533
v -2.352123 0.796126 -1.160910
v -2.355432 0.795870 -1.158594
v -2.350609 0.796555 -1.162584
v -2.349572 0.796951 -1.163942
v -2.354223 0.786859 -1.167211
v -2.353569 0.787089 -1.168050
v -2.354390 0.785544 -1.168154
v -2.354980 0.784883 -1.167770
v -2.355595 0.784686 -1.167027
v -2.355166 0.786602 -1.166169
v -2.356302 0.786475 -1.165313
v -2.356404 0.784620 -1.166469
v -2.356953 0.785072 -1.165815
v -2.357215 0.786417 -1.164722
v -2.351540 0.799443 -1.156664
v -2.349768 0.799758 -1.157596
v -2.348913 0.801032 -1.156402
v -2.350589 0.800594 -1.155787
v -2.352015 0.800029 -1.155860
v -2.353130 0.799189 -1.156266
v -2.354327 0.797721 -1.157190
v -2.352758 0.797779 -1.157945
v -2.350905 0.797980 -1.159201
v -2.348669 0.799973 -1.159285
v -2.348116 0.800114 -1.160842
v -2.347964 0.800777 -1.159557
v -2.348107 0.801052 -1.158053
v -2.349505 0.798379 -1.160914
v -2.348644 0.798769 -1.162377
v -2.352272 0.791838 -1.165190
v -2.351256 0.792181 -1.166438
v -2.350390 0.794592 -1.165264
v -2.351436 0.794215 -1.163943
v -2.352977 0.793820 -1.162312
v -2.353756 0.791472 -1.163640
v -2.354415 0.789012 -1.164859
v -2.353108 0.789339 -1.166238
v -2.352222 0.789648 -1.167356
v -2.355449 0.791252 -1.162290
v -2.354760 0.793602 -1.160910
v -2.356200 0.793520 -1.159962
v -2.356810 0.791156 -1.161370
v -2.357138 0.788741 -1.162870
v -2.355921 0.788821 -1.163671
v -2.353847 0.795805 -1.159411
v -2.352001 0.795995 -1.160803
v -2.355361 0.795770 -1.158495
v -2.350471 0.796427 -1.162492
v -2.349461 0.796858 -1.163880
v -2.354075 0.786761 -1.167098
v -2.353451 0.787018 -1.167972
v -2.355031 0.786501 -1.166042
v -2.355495 0.784611 -1.166932
v -2.354868 0.784810 -1.167686
v -2.354304 0.785491 -1.168095
v -2.356183 0.786373 -1.165174
v -2.357133 0.786339 -1.164612
v -2.356891 0.785014 -1.165734
v -2.356316 0.784543 -1.166364
v -2.353297 0.787135 -1.168297
v -2.354504 0.785049 -1.168384
v -2.351980 0.789783 -1.167762
v -2.354304 0.785491 -1.168095
v -2.356399 0.783967 -1.166808
v -2.357072 0.784575 -1.166040
v -2.355694 0.784014 -1.167270
v -2.356891 0.785014 -1.165734
v -2.353683 0.799154 -1.156177
v -2.352197 0.800190 -1.155725
v -2.354876 0.797749 -1.156983
v -2.352015 0.800029 -1.155860
v -2.347964 0.801460 -1.157665
v -2.347851 0.800991 -1.159691
v -2.348666 0.801507 -1.156034
v -2.347964 0.800777 -1.159557
v -2.347983 0.800205 -1.161379
v -2.348408 0.798942 -1.162886
v -2.355182 0.784192 -1.167919
v -2.357485 0.786362 -1.164475
v -2.357579 0.788751 -1.162652
v -2.350301 0.801029 -1.155532
v -2.355895 0.795803 -1.158236
v -2.356712 0.793534 -1.159692
v -2.349175 0.797042 -1.164369
v -2.350093 0.794755 -1.165733
v -2.350970 0.792330 -1.166886
v -2.357298 0.791162 -1.161111
vn -0.359900 0.739300 -0.569100
vn -0.521700 0.741500 -0.421800
vn -0.547000 0.700900 -0.457700
vn -0.403900 0.698000 -0.591300
vn -0.421500 0.679700 -0.600200
vn -0.366900 0.739200 -0.564800
vn -0.327000 0.777900 -0.536500
vn -0.351200 0.798900 -0.488200
vn -0.478500 0.799600 -0.362700
vn -0.676800 0.680900 -0.279800
vn -0.672200 0.682800 -0.286000
vn -0.691100 0.630000 -0.354100
vn -0.687200 0.645700 -0.332700
vn -0.610000 0.751300 -0.251800
vn -0.655000 0.717500 -0.237100
vn -0.707400 0.484700 -0.514400
vn -0.684600 0.484200 -0.544800
vn -0.690300 0.456700 -0.561200
vn -0.720800 0.454500 -0.523300
vn -0.642100 0.464800 -0.609600
vn -0.631800 0.501700 -0.590900
vn -0.607700 0.572900 -0.550000
vn -0.694800 0.545800 -0.468400
vn -0.682000 0.536900 -0.496700
vn -0.548300 0.514100 -0.659600
vn -0.550100 0.486000 -0.679000
vn -0.589600 0.475400 -0.652900
vn -0.579500 0.503600 -0.640700
vn -0.543100 0.562500 -0.623400
vn -0.516300 0.578700 -0.631300
vn -0.462200 0.647700 -0.605700
vn -0.575800 0.646600 -0.500300
vn -0.485000 0.626600 -0.610000
vn -0.687200 0.606200 -0.400300
vn -0.685600 0.589600 -0.426800
vn -0.740600 0.437100 -0.510300
vn -0.709800 0.435900 -0.553300
vn -0.734400 0.415200 -0.536900
vn -0.766000 0.382400 -0.516800
vn -0.657700 0.396500 -0.640500
vn -0.646600 0.447100 -0.618100
vn -0.532600 0.475400 -0.700200
vn -0.526300 0.426400 -0.735600
vn -0.554500 0.448300 -0.701000
vn -0.576300 0.460700 -0.674900
vn 0.346500 -0.722200 0.598600
vn 0.528900 -0.730600 0.431800
vn 0.555300 -0.686400 0.469600
vn 0.301300 -0.667700 0.680700
vn 0.207500 -0.629700 0.748600
vn 0.225900 -0.641600 0.733000
vn 0.288900 -0.650800 0.702100
vn 0.391900 -0.696700 0.600800
vn 0.547000 -0.700900 0.457600
vn 0.703200 -0.656500 0.273000
vn 0.827500 -0.530500 0.184000
vn 0.841500 -0.512700 0.169900
vn 0.775900 -0.580200 0.247500
vn 0.697100 -0.640400 0.322200
vn 0.794400 -0.557600 0.240700
vn 0.717700 -0.482700 0.501900
vn 0.783300 -0.465900 0.411400
vn 0.775000 -0.507200 0.377000
vn 0.704400 -0.542900 0.457100
vn 0.607700 -0.572800 0.550100
vn 0.631900 -0.501500 0.591000
vn 0.642200 -0.464600 0.609700
vn 0.732100 -0.453900 0.507900
vn 0.797700 -0.457600 0.392700
vn 0.535000 -0.516400 0.668600
vn 0.504000 -0.579900 0.640000
vn 0.413700 -0.573900 0.706700
vn 0.438500 -0.529600 0.726100
vn 0.417400 -0.527800 0.739700
vn 0.534100 -0.490500 0.688600
vn 0.450300 -0.648000 0.614200
vn 0.575800 -0.646600 0.500200
vn 0.357400 -0.624400 0.694500
vn 0.696500 -0.602600 0.389500
vn 0.776900 -0.547000 0.311600
vn 0.752000 -0.449300 0.482300
vn 0.816500 -0.472400 0.332000
vn 0.643900 -0.457800 0.613000
vn 0.631000 -0.504200 0.589500
vn 0.776000 -0.493200 0.393100
vn 0.824000 -0.485300 0.292300
vn 0.506800 -0.494500 0.706100
vn 0.359700 -0.556600 0.748900
vn 0.322900 -0.577700 0.749700
vn 0.426500 -0.557600 0.712100
vn 0.448700 -0.106800 -0.887200
vn 0.181800 -0.421900 -0.888200
vn 0.544100 0.006800 -0.839000
vn 0.824000 -0.485300 0.292300
vn -0.416000 -0.866000 -0.277400
vn -0.797900 -0.602700 0.006000
vn -0.146200 -0.926100 -0.347600
vn 0.322900 -0.577700 0.749700
vn -0.695700 0.330700 0.637700
vn -0.450300 0.523100 0.723500
vn -0.801800 0.158700 0.576100
vn 0.207500 -0.629700 0.748600
vn 0.694700 0.699800 0.166400
vn 0.636000 0.723800 -0.267600
vn 0.473400 0.604500 0.640600
vn 0.841500 -0.512700 0.169900
vn 0.607500 0.571400 -0.551700
vn 0.589100 0.415500 -0.693000
vn -0.070300 -0.802200 -0.592800
vn -0.878500 -0.351000 0.323900
vn -0.860500 -0.251900 0.442800
vn -0.025000 0.567100 0.823200
vn -0.841800 0.021600 0.539300
vn -0.849000 -0.064300 0.524500
vn 0.583100 0.284600 -0.760900
vn 0.585900 0.200600 -0.785100
vn 0.584800 0.116100 -0.802800
vn -0.849500 -0.148400 0.506300
vt 0.839504 0.118056
vt 0.856743 0.205307
vt 0.741230 0.205307
vt 0.734555 0.106726
vt 0.724541 0.032791
vt 0.813647 0.052618
vt 0.868992 0.081539
vt 0.913398 0.129584
vt 0.940923 0.205307
vt 0.839504 0.292557
vt 0.813647 0.357995
vt 0.724541 0.377822
vt 0.734555 0.303887
vt 0.913398 0.281029
vt 0.868992 0.329074
vt 0.369475 0.299954
vt 0.368286 0.370940
vt 0.245840 0.351447
vt 0.246397 0.288815
vt 0.246768 0.205307
vt 0.370268 0.205307
vt 0.494283 0.205307
vt 0.492822 0.304944
vt 0.490632 0.379672
vt 0.369475 0.110659
vt 0.246397 0.121798
vt 0.245841 0.059166
vt 0.368286 0.039673
vt 0.490632 0.030941
vt 0.492822 0.105669
vt 0.616755 0.103478
vt 0.619174 0.205307
vt 0.613127 0.027106
vt 0.616755 0.307135
vt 0.613126 0.383507
vt 0.123273 0.268175
vt 0.123047 0.315326
vt 0.054743 0.283353
vt 0.030912 0.249131
vt 0.030973 0.205306
vt 0.123423 0.205306
vt 0.123273 0.142438
vt 0.030912 0.161481
vt 0.054744 0.127260
vt 0.123047 0.095287
vt 0.839504 0.118056
vt 0.856743 0.205307
vt 0.968983 0.205307
vt 0.938030 0.133427
vt 0.876123 0.061548
vt 0.805028 0.030806
vt 0.721203 0.008146
vt 0.734555 0.106726
vt 0.741230 0.205307
vt 0.839504 0.292557
vt 0.805028 0.379807
vt 0.876123 0.349065
vt 0.938030 0.277186
vt 0.734555 0.303887
vt 0.721203 0.402467
vt 0.369475 0.299954
vt 0.367890 0.394602
vt 0.489902 0.404581
vt 0.492822 0.304944
vt 0.494283 0.205307
vt 0.370268 0.205307
vt 0.246768 0.205307
vt 0.246397 0.288815
vt 0.245655 0.372324
vt 0.369475 0.110659
vt 0.492822 0.105669
vt 0.489902 0.006032
vt 0.367890 0.016011
vt 0.245655 0.038289
vt 0.246397 0.121798
vt 0.616755 0.103478
vt 0.619174 0.205307
vt 0.611917 0.001649
vt 0.616755 0.307135
vt 0.611917 0.408964
vt 0.123273 0.268175
vt 0.122972 0.331043
vt 0.123423 0.205306
vt 0.000156 0.205306
vt 0.000125 0.242784
vt 0.000064 0.280261
vt 0.123273 0.142438
vt 0.122972 0.079570
vt 0.000064 0.130352
vt 0.000125 0.167829
vt 0.122972 0.331043
vt 0.030806 0.283587
vt 0.245655 0.372324
vt 0.030806 0.283587
vt 0.000125 0.167829
vt 0.030806 0.127026
vt 0.000156 0.205306
vt 0.030806 0.127026
vt 0.805028 0.030806
vt 0.873826 0.071832
vt 0.721203 0.008146
vt 0.873826 0.071832
vt 0.938030 0.277186
vt 0.873826 0.338781
vt 0.968983 0.205307
vt 0.873826 0.338781
vt 0.805028 0.379807
vt 0.721203 0.402467
vt 0.000125 0.242784
vt 0.122972 0.079570
vt 0.245655 0.038289
vt 0.938030 0.133427
vt 0.611917 0.001649
vt 0.489902 0.006032
vt 0.611917 0.408964
vt 0.489902 0.404581
vt 0.367890 0.394602
vt 0.367890 0.016011
f 1/1/1 2/2/2 3/3/3
f 1/1/1 3/3/3 4/4/4
f 1/1/1 4/4/4 5/5/5
f 1/1/1 5/5/5 6/6/6
f 1/1/1 6/6/6 7/7/7
f 1/1/1 7/7/7 8/8/8
f 1/1/1 8/8/8 9/9/9
f 1/1/1 9/9/9 2/2/2
f 10/10/10 11/11/11 12/12/12
f 10/10/10 12/12/12 13/13/13
f 10/10/10 13/13/13 3/3/3
f 10/10/10 3/3/3 2/2/2
f 10/10/10 2/2/2 9/9/9
f 10/10/10 9/9/9 14/14/14
f 10/10/10 14/14/14 15/15/15
f 10/10/10 15/15/15 11/11/11
f 16/16/16 17/17/17 18/18/18
f 16/16/16 18/18/18 19/19/19
f 16/16/16 19/19/19 20/20/20
f 16/16/16 20/20/20 21/21/21
f 16/16/16 21/21/21 22/22/22
f 16/16/16 22/22/22 23/23/23
f 16/16/16 23/23/23 24/24/24
f 16/16/16 24/24/24 17/17/17
f 25/25/25 21/21/21 20/20/20
f 25/25/25 20/20/20 26/26/26
f 25/25/25 26/26/26 27/27/27
f 25/25/25 27/27/27 28/28/28
f 25/25/25 28/28/28 29/29/29
f 25/25/25 29/29/29 30/30/30
f 25/25/25 30/30/30 22/22/22
f 25/25/25 22/22/22 21/21/21
f 31/31/31 32/32/32 22/22/22
f 31/31/31 22/22/22 30/30/30
f 31/31/31 30/30/30 29/29/29
f 31/31/31 29/29/29 33/33/33
f 31/31/31 33/33/33 5/5/5
f 31/31/31 5/5/5 4/4/4
f 31/31/31 4/4/4 3/3/3
f 31/31/31 3/3/3 32/32/32
f 34/34/34 35/35/35 24/24/24
f 34/34/34 24/24/24 23/23/23
f 34/34/34 23/23/23 22/22/22
f 34/34/34 22/22/22 32/32/32
f 34/34/34 32/32/32 3/3/3
f 34/34/34 3/3/3 13/13/13
f 34/34/34 13/13/13 12/12/12
f 34/34/34 12/12/12 35/35/35
f 36/36/36 37/37/37 38/38/38
f 36/36/36 38/38/38 39/39/39
f 36/36/36 39/39/39 40/40/40
f 36/36/36 40/40/40 41/41/41
f 36/36/36 41/41/41 20/20/20
f 36/36/36 20/20/20 19/19/19
f 36/36/36 19/19/19 18/18/18
f 36/36/36 18/18/18 37/37/37
f 42/42/42 41/41/41 40/40/40
f 42/42/42 40/40/40 43/43/43
f 42/42/42 43/43/43 44/44/44
f 42/42/42 44/44/44 45/45/45
f 42/42/42 45/45/45 27/27/27
f 42/42/42 27/27/27 26/26/26
f 42/42/42 26/26/26 20/20/20
f 42/42/42 20/20/20 41/41/41
f 46/46/46 47/47/47 48/48/48
f 46/46/46 48/48/48 49/49/49
f 46/46/46 49/49/49 50/50/50
f 46/46/46 50/50/50 51/51/51
f 46/46/46 51/51/51 52/52/52
f 46/46/46 52/52/52 53/53/53
f 46/46/46 53/53/53 54/54/54
f 46/46/46 54/54/54 47/47/47
f 55/55/55 56/56/56 57/57/57
f 55/55/55 57/57/57 58/58/58
f 55/55/55 58/58/58 48/48/48
f 55/55/55 48/48/48 47/47/47
f 55/55/55 47/47/47 54/54/54
f 55/55/55 54/54/54 59/59/59
f 55/55/55 59/59/59 60/60/60
f 55/55/55 60/60/60 56/56/56
f 61/61/61 62/62/62 63/63/63
f 61/61/61 63/63/63 64/64/64
f 61/61/61 64/64/64 65/65/65
f 61/61/61 65/65/65 66/66/66
f 61/61/61 66/66/66 67/67/67
f 61/61/61 67/67/67 68/68/68
f 61/61/61 68/68/68 69/69/69
f 61/61/61 69/69/69 62/62/62
f 70/70/70 66/66/66 65/65/65
f 70/70/70 65/65/65 71/71/71
f 70/70/70 71/71/71 72/72/72
f 70/70/70 72/72/72 73/73/73
f 70/70/70 73/73/73 74/74/74
f 70/70/70 74/74/74 75/75/75
f 70/70/70 75/75/75 67/67/67
f 70/70/70 67/67/67 66/66/66
f 76/76/76 77/77/77 54/54/54
f 76/76/76 54/54/54 53/53/53
f 76/76/76 53/53/53 52/52/52
f 76/76/76 52/52/52 78/78/78
f 76/76/76 78/78/78 72/72/72
f 76/76/76 72/72/72 71/71/71
f 76/76/76 71/71/71 65/65/65
f 76/76/76 65/65/65 77/77/77
f 79/79/79 80/80/80 60/60/60
f 79/79/79 60/60/60 59/59/59
f 79/79/79 59/59/59 54/54/54
f 79/79/79 54/54/54 77/77/77
f 79/79/79 77/77/77 65/65/65
f 79/79/79 65/65/65 64/64/64
f 79/79/79 64/64/64 63/63/63
f 79/79/79 63/63/63 80/80/80
f 81/81/81 82/82/82 69/69/69
f 81/81/81 69/69/69 68/68/68
f 81/81/81 68/68/68 67/67/67
f 81/81/81 67/67/67 83/83/83
f 81/81/81 83/83/83 84/84/84
f 81/81/81 84/84/84 85/85/85
f 81/81/81 85/85/85 86/86/86
f 81/81/81 86/86/86 82/82/82
f 87/87/87 83/83/83 67/67/67
f 87/87/87 67/67/67 75/75/75
f 87/87/87 75/75/75 74/74/74
f 87/87/87 74/74/74 88/88/88
f 87/87/87 88/88/88 89/89/89
f 87/87/87 89/89/89 90/90/90
f 87/87/87 90/90/90 84/84/84
f 87/87/87 84/84/84 83/83/83
f 91/91/91 92/92/92 38/38/38
f 91/91/91 38/38/38 37/37/37
f 91/91/91 37/37/37 18/18/18
f 91/91/91 18/18/18 93/93/93
f 91/91/91 93/93/93 69/69/69
f 91/91/91 69/69/69 82/82/82
f 91/91/91 82/82/82 94/94/94
f 91/91/91 94/94/94 92/92/92
f 95/95/95 96/96/96 44/44/44
f 95/95/95 44/44/44 43/43/43
f 95/95/95 43/43/43 40/40/40
f 95/95/95 40/40/40 97/97/97
f 95/95/95 97/97/97 84/84/84
f 95/95/95 84/84/84 90/90/90
f 95/95/95 90/90/90 98/98/98
f 95/95/95 98/98/98 96/96/96
f 99/99/99 100/100/100 7/7/7
f 99/99/99 7/7/7 6/6/6
f 99/99/99 6/6/6 5/5/5
f 99/99/99 5/5/5 101/101/101
f 99/99/99 101/101/101 52/52/52
f 99/99/99 52/52/52 51/51/51
f 99/99/99 51/51/51 102/102/102
f 99/99/99 102/102/102 100/100/100
f 103/103/103 104/104/104 15/15/15
f 103/103/103 15/15/15 14/14/14
f 103/103/103 14/14/14 9/9/9
f 103/103/103 9/9/9 105/105/105
f 103/103/103 105/105/105 48/48/48
f 103/103/103 48/48/48 58/58/58
f 103/103/103 58/58/58 106/106/106
f 103/103/103 106/106/106 104/104/104
f 107/107/107 108/108/108 12/12/12
f 107/107/107 12/12/12 11/11/11
f 107/107/107 11/11/11 15/15/15
f 107/107/107 15/15/15 104/104/104
f 107/107/107 104/104/104 106/106/106
f 107/107/107 106/106/106 56/56/56
f 107/107/107 56/56/56 60/60/60
f 107/107/107 60/60/60 108/108/108
f 109/109/109 97/97/97 40/40/40
f 109/109/109 40/40/40 39/39/39
f 109/109/109 39/39/39 38/38/38
f 109/109/109 38/38/38 92/92/92
f 109/109/109 92/92/92 94/94/94
f 109/109/109 94/94/94 85/85/85
f 109/109/109 85/85/85 84/84/84
f 109/109/109 84/84/84 97/97/97
f 110/110/110 111/111/111 27/27/27
f 110/110/110 27/27/27 45/45/45
f 110/110/110 45/45/45 44/44/44
f 110/110/110 44/44/44 96/96/96
f 110/110/110 96/96/96 98/98/98
f 110/110/110 98/98/98 88/88/88
f 110/110/110 88/88/88 74/74/74
f 110/110/110 74/74/74 111/111/111
f 112/112/112 105/105/105 9/9/9
f 112/112/112 9/9/9 8/8/8
f 112/112/112 8/8/8 7/7/7
f 112/112/112 7/7/7 100/100/100
f 112/112/112 100/100/100 102/102/102
f 112/112/112 102/102/102 49/49/49
f 112/112/112 49/49/49 48/48/48
f 112/112/112 48/48/48 105/105/105
f 113/113/113 101/101/101 5/5/5
f 113/113/113 5/5/5 33/33/33
f 113/113/113 33/33/33 29/29/29
f 113/113/113 29/29/29 114/114/114
f 113/113/113 114/114/114 72/72/72
f 113/113/113 72/72/72 78/78/78
f 113/113/113 78/78/78 52/52/52
f 113/113/113 52/52/52 101/101/101
f 115/115/115 116/116/116 24/24/24
f 115/115/115 24/24/24 35/35/35
f 115/115/115 35/35/35 12/12/12
f 115/115/115 12/12/12 108/108/108
f 115/115/115 108/108/108 60/60/60
f 115/115/115 60/60/60 80/80/80
f 115/115/115 80/80/80 63/63/63
f 115/115/115 63/63/63 116/116/116
f 117/117/117 93/93/93 18/18/18
f 117/117/117 18/18/18 17/17/17
f 117/117/117 17/17/17 24/24/24
f 117/117/117 24/24/24 116/116/116
f 117/117/117 116/116/116 63/63/63
f 117/117/117 63/63/63 62/62/62
f 117/117/117 62/62/62 69/69/69
f 117/117/117 69/69/69 93/93/93
f 118/118/118 114/114/114 29/29/29
f 118/118/118 29/29/29 28/28/28
f 118/118/118 28/28/28 27/27/27
f 118/118/118 27/27/27 111/111/111
f 118/118/118 111/111/111 74/74/74
f 118/118/118 74/74/74 73/73/73
f 118/118/118 73/73/73 72/72/72
f 118/118/118 72/72/72 114/114/114
