v -2.371103 0.725196 -1.111327
v -2.372623 0.725328 -1.110168
v -2.371312 0.723425 -1.109090
v -2.369761 0.723449 -1.110550
v -2.368423 0.723500 -1.111516
v -2.369693 0.725008 -1.111990
v -2.370821 0.725821 -1.112112
v -2.372157 0.726367 -1.111869
v -2.373636 0.726664 -1.110999
v -2.373396 0.725266 -1.108416
v -2.373715 0.725130 -1.106886
v -2.372992 0.723639 -1.105718
v -2.372367 0.723528 -1.107242
v -2.374142 0.726428 -1.109349
v -2.374078 0.725920 -1.107978
v -2.369131 0.716728 -1.104583
v -2.369939 0.716831 -1.103245
v -2.368897 0.714309 -1.102897
v -2.368192 0.714216 -1.104087
v -2.367171 0.714129 -1.105604
v -2.367967 0.716633 -1.106292
v -2.368896 0.719046 -1.107081
v -2.370100 0.719156 -1.105284
v -2.370924 0.719278 -1.103869
v -2.366577 0.716650 -1.107825
v -2.365933 0.714147 -1.106954
v -2.364939 0.714189 -1.107920
v -2.365464 0.716695 -1.108925
v -2.366243 0.719135 -1.109810
v -2.367428 0.719075 -1.108674
v -2.368513 0.721375 -1.109624
v -2.370040 0.721321 -1.108037
v -2.367251 0.721473 -1.110731
v -2.371223 0.721457 -1.106184
v -2.372002 0.721618 -1.104702
v -2.367159 0.711662 -1.103802
v -2.367653 0.711747 -1.102886
v -2.366868 0.710283 -1.103135
v -2.366369 0.709722 -1.103678
v -2.365897 0.709654 -1.104494
v -2.366422 0.711586 -1.104954
v -2.365474 0.711611 -1.105941
v -2.365214 0.709687 -1.105144
v -2.364789 0.710219 -1.105772
v -2.364697 0.711657 -1.106637
v -2.371207 0.725069 -1.111442
v -2.372746 0.725200 -1.110262
v -2.373726 0.726566 -1.111068
v -2.372233 0.726270 -1.111954
v -2.370873 0.725750 -1.112180
v -2.369761 0.724914 -1.112086
v -2.368497 0.723410 -1.111612
v -2.369871 0.723328 -1.110666
v -2.371439 0.723303 -1.109187
v -2.373535 0.725140 -1.108487
v -2.373827 0.725038 -1.106927
v -2.374158 0.725850 -1.108011
v -2.374245 0.726331 -1.109400
v -2.372508 0.723408 -1.107319
v -2.373104 0.723551 -1.105765
v -2.369284 0.716639 -1.104679
v -2.370058 0.716765 -1.103310
v -2.371042 0.719204 -1.103929
v -2.370249 0.719057 -1.105375
v -2.369034 0.718947 -1.107188
v -2.368110 0.716543 -1.106402
v -2.367316 0.714047 -1.105717
v -2.368348 0.714134 -1.104185
v -2.369019 0.714249 -1.102963
v -2.366708 0.716561 -1.107948
v -2.367554 0.718975 -1.108795
v -2.366332 0.719061 -1.109908
v -2.365556 0.716628 -1.109025
v -2.365034 0.714127 -1.108021
v -2.366067 0.714065 -1.107080
v -2.368631 0.721264 -1.109742
v -2.370172 0.721209 -1.108139
v -2.367333 0.721391 -1.110828
v -2.371368 0.721347 -1.106268
v -2.372117 0.721536 -1.104757
v -2.367316 0.711583 -1.103899
v -2.367776 0.711689 -1.102951
v -2.366569 0.711507 -1.105067
v -2.366007 0.709595 -1.104579
v -2.366488 0.709663 -1.103751
v -2.366957 0.710239 -1.103185
v -2.365608 0.711531 -1.106069
v -2.364791 0.711598 -1.106740
v -2.364861 0.710175 -1.105847
v -2.365314 0.709627 -1.105241
v -2.367873 0.711750 -1.102608
v -2.366728 0.709782 -1.103009
v -2.369188 0.714314 -1.102527
v -2.366957 0.710239 -1.103185
v -2.365172 0.709019 -1.104922
v -2.364646 0.709719 -1.105651
v -2.365771 0.708984 -1.104378
v -2.364861 0.710175 -1.105847
v -2.369251 0.724904 -1.112256
v -2.370721 0.725925 -1.112310
v -2.368008 0.723477 -1.111883
v -2.370873 0.725750 -1.112180
v -2.374436 0.726772 -1.109682
v -2.374244 0.726032 -1.107837
v -2.374013 0.727065 -1.111306
v -2.374158 0.725850 -1.108011
v -2.373872 0.725045 -1.106391
v -2.373251 0.723637 -1.105228
v -2.366158 0.709049 -1.103670
v -2.364479 0.711646 -1.106917
v -2.364649 0.714176 -1.108289
v -2.372541 0.726714 -1.112087
v -2.366866 0.721469 -1.111145
v -2.365886 0.719123 -1.110233
v -2.372313 0.721635 -1.104231
v -2.371253 0.719286 -1.103422
v -2.370262 0.716836 -1.102827
v -2.365132 0.716680 -1.109338
vn 0.447500 0.651400 0.612700
vn 0.584600 0.678900 0.444300
vn 0.614900 0.633700 0.469300
vn 0.494200 0.608000 0.621300
vn 0.512900 0.588900 0.624500
vn 0.453500 0.652100 0.607500
vn 0.410000 0.693900 0.591900
vn 0.426700 0.722300 0.544100
vn 0.533100 0.744400 0.402100
vn 0.715500 0.643200 0.272600
vn 0.711800 0.644300 0.279700
vn 0.740800 0.582100 0.335200
vn 0.733800 0.600700 0.317300
vn 0.645400 0.715900 0.266200
vn 0.687300 0.685600 0.239800
vn 0.781100 0.414500 0.467000
vn 0.763200 0.408900 0.500200
vn 0.771200 0.379500 0.511000
vn 0.795500 0.383600 0.469000
vn 0.731200 0.379200 0.567000
vn 0.718300 0.418300 0.555900
vn 0.688500 0.494400 0.530600
vn 0.761800 0.481600 0.433300
vn 0.753400 0.468200 0.461700
vn 0.646500 0.418600 0.637800
vn 0.651200 0.388000 0.652200
vn 0.686200 0.382000 0.619000
vn 0.674500 0.411600 0.612900
vn 0.636100 0.471800 0.610600
vn 0.610800 0.486100 0.624900
vn 0.553800 0.557200 0.618700
vn 0.649700 0.574200 0.498100
vn 0.576900 0.536200 0.616200
vn 0.744000 0.551400 0.377200
vn 0.746500 0.531000 0.401000
vn 0.813000 0.368700 0.450700
vn 0.789300 0.360500 0.497000
vn 0.811000 0.342800 0.474000
vn 0.838900 0.313700 0.444800
vn 0.751000 0.307200 0.584400
vn 0.736800 0.360500 0.571900
vn 0.637100 0.374000 0.673900
vn 0.636200 0.319900 0.702000
vn 0.658800 0.347300 0.667300
vn 0.676400 0.363800 0.640300
vn -0.438800 -0.629700 -0.640900
vn -0.593200 -0.666600 -0.451300
vn -0.624700 -0.617800 -0.477400
vn -0.406700 -0.562600 -0.719700
vn -0.324200 -0.513100 -0.794700
vn -0.339900 -0.527600 -0.778500
vn -0.397500 -0.542500 -0.740000
vn -0.483800 -0.605100 -0.632300
vn -0.614900 -0.633800 -0.469300
vn -0.740300 -0.620600 -0.258200
vn -0.848600 -0.512000 -0.132900
vn -0.860300 -0.496800 -0.114400
vn -0.807800 -0.550500 -0.210500
vn -0.741900 -0.597200 -0.304700
vn -0.825000 -0.529400 -0.197500
vn -0.789200 -0.414600 -0.453000
vn -0.840000 -0.412900 -0.352000
vn -0.826600 -0.458800 -0.326000
vn -0.769500 -0.480600 -0.420500
vn -0.688600 -0.494200 -0.530600
vn -0.718400 -0.418100 -0.556000
vn -0.731300 -0.379000 -0.567000
vn -0.804300 -0.385500 -0.452100
vn -0.851300 -0.407800 -0.330100
vn -0.634800 -0.419200 -0.649000
vn -0.600100 -0.485800 -0.635500
vn -0.521200 -0.468000 -0.713600
vn -0.548400 -0.421700 -0.722100
vn -0.529800 -0.417500 -0.738200
vn -0.636900 -0.390500 -0.664700
vn -0.543400 -0.556000 -0.628900
vn -0.649700 -0.574200 -0.498100
vn -0.463900 -0.518800 -0.718000
vn -0.751500 -0.549700 -0.364800
vn -0.818700 -0.507900 -0.267900
vn -0.819900 -0.385100 -0.423500
vn -0.860500 -0.431800 -0.270200
vn -0.733500 -0.371800 -0.569000
vn -0.717400 -0.420900 -0.555100
vn -0.830100 -0.442400 -0.339400
vn -0.861900 -0.450700 -0.232200
vn -0.612700 -0.391400 -0.686600
vn -0.474300 -0.443600 -0.760400
vn -0.438200 -0.463600 -0.770100
vn -0.534600 -0.451300 -0.714400
vn -0.306200 -0.247700 0.919200
vn -0.043500 -0.555500 0.830400
vn -0.407700 -0.129500 0.903900
vn -0.861900 -0.450700 -0.232200
vn 0.449300 -0.890200 0.074900
vn 0.784100 -0.580100 -0.220600
vn 0.193500 -0.965200 0.175900
vn -0.438200 -0.463600 -0.770100
vn 0.590100 0.436200 -0.679300
vn 0.335000 0.635000 -0.696000
vn 0.703500 0.259100 -0.661800
vn -0.324200 -0.513100 -0.794700
vn -0.708500 0.703800 0.051000
vn -0.583400 0.663000 0.469000
vn -0.563900 0.685400 -0.460700
vn -0.860300 -0.496800 -0.114400
vn -0.512100 0.470500 0.718600
vn -0.472700 0.295400 0.830200
vn 0.157100 -0.881300 0.445500
vn 0.815800 -0.282100 -0.504900
vn 0.780100 -0.166200 -0.603200
vn -0.099900 0.685400 -0.721300
vn 0.747900 0.118900 -0.653000
vn 0.756900 0.032100 -0.652700
vn -0.456900 0.155800 0.875800
vn -0.456500 0.069000 0.887000
vn -0.453000 -0.017100 0.891300
vn 0.759900 -0.054200 -0.647800
vt 0.839504 0.118056
vt 0.856743 0.205307
vt 0.741230 0.205307
vt 0.734555 0.106726
vt 0.724541 0.032791
vt 0.813647 0.052618
vt 0.868992 0.081539
vt 0.913398 0.129584
vt 0.940923 0.205307
vt 0.839504 0.292557
vt 0.813647 0.357995
vt 0.724541 0.377822
vt 0.734555 0.303887
vt 0.913398 0.281029
vt 0.868992 0.329074
vt 0.369475 0.299954
vt 0.368286 0.370940
vt 0.245840 0.351447
vt 0.246397 0.288815
vt 0.246768 0.205307
vt 0.370268 0.205307
vt 0.494283 0.205307
vt 0.492822 0.304944
vt 0.490632 0.379672
vt 0.369475 0.110659
vt 0.246397 0.121798
vt 0.245841 0.059166
vt 0.368286 0.039673
vt 0.490632 0.030941
vt 0.492822 0.105669
vt 0.616755 0.103478
vt 0.619174 0.205307
vt 0.613127 0.027106
vt 0.616755 0.307135
vt 0.613126 0.383507
vt 0.123273 0.268175
vt 0.123047 0.315326
vt 0.054743 0.283353
vt 0.030912 0.249131
vt 0.030973 0.205306
vt 0.123423 0.205306
vt 0.123273 0.142438
vt 0.030912 0.161481
vt 0.054744 0.127260
vt 0.123047 0.095287
vt 0.839504 0.118056
vt 0.856743 0.205307
vt 0.968983 0.205307
vt 0.938030 0.133427
vt 0.876123 0.061548
vt 0.805028 0.030806
vt 0.721203 0.008146
vt 0.734555 0.106726
vt 0.741230 0.205307
vt 0.839504 0.292557
vt 0.805028 0.379807
vt 0.876123 0.349065
vt 0.938030 0.277186
vt 0.734555 0.303887
vt 0.721203 0.402467
vt 0.369475 0.299954
vt 0.367890 0.394602
vt 0.489902 0.404581
vt 0.492822 0.304944
vt 0.494283 0.205307
vt 0.370268 0.205307
vt 0.246768 0.205307
vt 0.246397 0.288815
vt 0.245655 0.372324
vt 0.369475 0.110659
vt 0.492822 0.105669
vt 0.489902 0.006032
vt 0.367890 0.016011
vt 0.245655 0.038289
vt 0.246397 0.121798
vt 0.616755 0.103478
vt 0.619174 0.205307
vt 0.611917 0.001649
vt 0.616755 0.307135
vt 0.611917 0.408964
vt 0.123273 0.268175
vt 0.122972 0.331043
vt 0.123423 0.205306
vt 0.000156 0.205306
vt 0.000125 0.242784
vt 0.000064 0.280261
vt 0.123273 0.142438
vt 0.122972 0.079570
vt 0.000064 0.130352
vt 0.000125 0.167829
vt 0.122972 0.331043
vt 0.030806 0.283587
vt 0.245655 0.372324
vt 0.030806 0.283587
vt 0.000125 0.167829
vt 0.030806 0.127026
vt 0.000156 0.205306
vt 0.030806 0.127026
vt 0.805028 0.030806
vt 0.873826 0.071832
vt 0.721203 0.008146
vt 0.873826 0.071832
vt 0.938030 0.277186
vt 0.873826 0.338781
vt 0.968983 0.205307
vt 0.873826 0.338781
vt 0.805028 0.379807
vt 0.721203 0.402467
vt 0.000125 0.242784
vt 0.122972 0.079570
vt 0.245655 0.038289
vt 0.938030 0.133427
vt 0.611917 0.001649
vt 0.489902 0.006032
vt 0.611917 0.408964
vt 0.489902 0.404581
vt 0.367890 0.394602
vt 0.367890 0.016011
f 1/1/1 2/2/2 3/3/3
f 1/1/1 3/3/3 4/4/4
f 1/1/1 4/4/4 5/5/5
f 1/1/1 5/5/5 6/6/6
f 1/1/1 6/6/6 7/7/7
f 1/1/1 7/7/7 8/8/8
f 1/1/1 8/8/8 9/9/9
f 1/1/1 9/9/9 2/2/2
f 10/10/10 11/11/11 12/12/12
f 10/10/10 12/12/12 13/13/13
f 10/10/10 13/13/13 3/3/3
f 10/10/10 3/3/3 2/2/2
f 10/10/10 2/2/2 9/9/9
f 10/10/10 9/9/9 14/14/14
f 10/10/10 14/14/14 15/15/15
f 10/10/10 15/15/15 11/11/11
f 16/16/16 17/17/17 18/18/18
f 16/16/16 18/18/18 19/19/19
f 16/16/16 19/19/19 20/20/20
f 16/16/16 20/20/20 21/21/21
f 16/16/16 21/21/21 22/22/22
f 16/16/16 22/22/22 23/23/23
f 16/16/16 23/23/23 24/24/24
f 16/16/16 24/24/24 17/17/17
f 25/25/25 21/21/21 20/20/20
f 25/25/25 20/20/20 26/26/26
f 25/25/25 26/26/26 27/27/27
f 25/25/25 27/27/27 28/28/28
f 25/25/25 28/28/28 29/29/29
f 25/25/25 29/29/29 30/30/30
f 25/25/25 30/30/30 22/22/22
f 25/25/25 22/22/22 21/21/21
f 31/31/31 32/32/32 22/22/22
f 31/31/31 22/22/22 30/30/30
f 31/31/31 30/30/30 29/29/29
f 31/31/31 29/29/29 33/33/33
f 31/31/31 33/33/33 5/5/5
f 31/31/31 5/5/5 4/4/4
f 31/31/31 4/4/4 3/3/3
f 31/31/31 3/3/3 32/32/32
f 34/34/34 35/35/35 24/24/24
f 34/34/34 24/24/24 23/23/23
f 34/34/34 23/23/23 22/22/22
f 34/34/34 22/22/22 32/32/32
f 34/34/34 32/32/32 3/3/3
f 34/34/34 3/3/3 13/13/13
f 34/34/34 13/13/13 12/12/12
f 34/34/34 12/12/12 35/35/35
f 36/36/36 37/37/37 38/38/38
f 36/36/36 38/38/38 39/39/39
f 36/36/36 39/39/39 40/40/40
f 36/36/36 40/40/40 41/41/41
f 36/36/36 41/41/41 20/20/20
f 36/36/36 20/20/20 19/19/19
f 36/36/36 19/19/19 18/18/18
f 36/36/36 18/18/18 37/37/37
f 42/42/42 41/41/41 40/40/40
f 42/42/42 40/40/40 43/43/43
f 42/42/42 43/43/43 44/44/44
f 42/42/42 44/44/44 45/45/45
f 42/42/42 45/45/45 27/27/27
f 42/42/42 27/27/27 26/26/26
f 42/42/42 26/26/26 20/20/20
f 42/42/42 20/20/20 41/41/41
f 46/46/46 47/47/47 48/48/48
f 46/46/46 48/48/48 49/49/49
f 46/46/46 49/49/49 50/50/50
f 46/46/46 50/50/50 51/51/51
f 46/46/46 51/51/51 52/52/52
f 46/46/46 52/52/52 53/53/53
f 46/46/46 53/53/53 54/54/54
f 46/46/46 54/54/54 47/47/47
f 55/55/55 56/56/56 57/57/57
f 55/55/55 57/57/57 58/58/58
f 55/55/55 58/58/58 48/48/48
f 55/55/55 48/48/48 47/47/47
f 55/55/55 47/47/47 54/54/54
f 55/55/55 54/54/54 59/59/59
f 55/55/55 59/59/59 60/60/60
f 55/55/55 60/60/60 56/56/56
f 61/61/61 62/62/62 63/63/63
f 61/61/61 63/63/63 64/64/64
f 61/61/61 64/64/64 65/65/65
f 61/61/61 65/65/65 66/66/66
f 61/61/61 66/66/66 67/67/67
f 61/61/61 67/67/67 68/68/68
f 61/61/61 68/68/68 69/69/69
f 61/61/61 69/69/69 62/62/62
f 70/70/70 66/66/66 65/65/65
f 70/70/70 65/65/65 71/71/71
f 70/70/70 71/71/71 72/72/72
f 70/70/70 72/72/72 73/73/73
f 70/70/70 73/73/73 74/74/74
f 70/70/70 74/74/74 75/75/75
f 70/70/70 75/75/75 67/67/67
f 70/70/70 67/67/67 66/66/66
f 76/76/76 77/77/77 54/54/54
f 76/76/76 54/54/54 53/53/53
f 76/76/76 53/53/53 52/52/52
f 76/76/76 52/52/52 78/78/78
f 76/76/76 78/78/78 72/72/72
f 76/76/76 72/72/72 71/71/71
f 76/76/76 71/71/71 65/65/65
f 76/76/76 65/65/65 77/77/77
f 79/79/79 80/80/80 60/60/60
f 79/79/79 60/60/60 59/59/59
f 79/79/79 59/59/59 54/54/54
f 79/79/79 54/54/54 77/77/77
f 79/79/79 77/77/77 65/65/65
f 79/79/79 65/65/65 64/64/64
f 79/79/79 64/64/64 63/63/63
f 79/79/79 63/63/63 80/80/80
f 81/81/81 82/82/82 69/69/69
f 81/81/81 69/69/69 68/68/68
f 81/81/81 68/68/68 67/67/67
f 81/81/81 67/67/67 83/83/83
f 81/81/81 83/83/83 84/84/84
f 81/81/81 84/84/84 85/85/85
f 81/81/81 85/85/85 86/86/86
f 81/81/81 86/86/86 82/82/82
f 87/87/87 83/83/83 67/67/67
f 87/87/87 67/67/67 75/75/75
f 87/87/87 75/75/75 74/74/74
f 87/87/87 74/74/74 88/88/88
f 87/87/87 88/88/88 89/89/89
f 87/87/87 89/89/89 90/90/90
f 87/87/87 90/90/90 84/84/84
f 87/87/87 84/84/84 83/83/83
f 91/91/91 92/92/92 38/38/38
f 91/91/91 38/38/38 37/37/37
f 91/91/91 37/37/37 18/18/18
f 91/91/91 18/18/18 93/93/93
f 91/91/91 93/93/93 69/69/69
f 91/91/91 69/69/69 82/82/82
f 91/91/91 82/82/82 94/94/94
f 91/91/91 94/94/94 92/92/92
f 95/95/95 96/96/96 44/44/44
f 95/95/95 44/44/44 43/43/43
f 95/95/95 43/43/43 40/40/40
f 95/95/95 40/40/40 97/97/97
f 95/95/95 97/97/97 84/84/84
f 95/95/95 84/84/84 90/90/90
f 95/95/95 90/90/90 98/98/98
f 95/95/95 98/98/98 96/96/96
f 99/99/99 100/100/100 7/7/7
f 99/99/99 7/7/7 6/6/6
f 99/99/99 6/6/6 5/5/5
f 99/99/99 5/5/5 101/101/101
f 99/99/99 101/101/101 52/52/52
f 99/99/99 52/52/52 51/51/51
f 99/99/99 51/51/51 102/102/102
f 99/99/99 102/102/102 100/100/100
f 103/103/103 104/104/104 15/15/15
f 103/103/103 15/15/15 14/14/14
f 103/103/103 14/14/14 9/9/9
f 103/103/103 9/9/9 105/105/105
f 103/103/103 105/105/105 48/48/48
f 103/103/103 48/48/48 58/58/58
f 103/103/103 58/58/58 106/106/106
f 103/103/103 106/106/106 104/104/104
f 107/107/107 108/108/108 12/12/12
f 107/107/107 12/12/12 11/11/11
f 107/107/107 11/11/11 15/15/15
f 107/107/107 15/15/15 104/104/104
f 107/107/107 104/104/104 106/106/106
f 107/107/107 106/106/106 56/56/56
f 107/107/107 56/56/56 60/60/60
f 107/107/107 60/60/60 108/108/108
f 109/109/109 97/97/97 40/40/40
f 109/109/109 40/40/40 39/39/39
f 109/109/109 39/39/39 38/38/38
f 109/109/109 38/38/38 92/92/92
f 109/109/109 92/92/92 94/94/94
f 109/109/109 94/94/94 85/85/85
f 109/109/109 85/85/85 84/84/84
f 109/109/109 84/84/84 97/97/97
f 110/110/110 111/111/111 27/27/27
f 110/110/110 27/27/27 45/45/45
f 110/110/110 45/45/45 44/44/44
f 110/110/110 44/44/44 96/96/96
f 110/110/110 96/96/96 98/98/98
f 110/110/110 98/98/98 88/88/88
f 110/110/110 88/88/88 74/74/74
f 110/110/110 74/74/74 111/111/111
f 112/112/112 105/105/105 9/9/9
f 112/112/112 9/9/9 8/8/8
f 112/112/112 8/8/8 7/7/7
f 112/112/112 7/7/7 100/100/100
f 112/112/112 100/100/100 102/102/102
f 112/112/112 102/102/102 49/49/49
f 112/112/112 49/49/49 48/48/48
f 112/112/112 48/48/48 105/105/105
f 113/113/113 101/101/101 5/5/5
f 113/113/113 5/5/5 33/33/33
f 113/113/113 33/33/33 29/29/29
f 113/113/113 29/29/29 114/114/114
f 113/113/113 114/114/114 72/72/72
f 113/113/113 72/72/72 78/78/78
f 113/113/113 78/78/78 52/52/52
f 113/113/113 52/52/52 101/101/101
f 115/115/115 116/116/116 24/24/24
f 115/115/115 24/24/24 35/35/35
f 115/115/115 35/35/35 12/12/12
f 115/115/115 12/12/12 108/108/108
f 115/115/115 108/108/108 60/60/60
f 115/115/115 60/60/60 80/80/80
f 115/115/115 80/80/80 63/63/63
f 115/115/115 63/63/63 116/116/116
f 117/117/117 93/93/93 18/18/18
f 117/117/117 18/18/18 17/17/17
f 117/117/117 17/17/17 24/24/24
f 117/117/117 24/24/24 116/116/116
f 117/117/117 116/116/116 63/63/63
f 117/117/117 63/63/63 62/62/62
f 117/117/117 62/62/62 69/69/69
f 117/117/117 69/69/69 93/93/93
f 118/118/118 114/114/114 29/29/29
f 118/118/118 29/29/29 28/28/28
f 118/118/118 28/28/28 27/27/27
f 118/118/118 27/27/27 111/111/111
f 118/118/118 111/111/111 74/74/74
f 118/118/118 74/74/74 73/73/73
f 118/118/118 73/73/73 72/72/72
f 118/118/118 72/72/72 114/114/114
