v -2.345180 0.697559 -1.133281
v -2.343621 0.697929 -1.135537
v -2.346704 0.696522 -1.136979
v -2.348103 0.696187 -1.134259
v -2.349412 0.696107 -1.132268
v -2.346825 0.697371 -1.131735
v -2.344913 0.697992 -1.131866
v -2.343012 0.698419 -1.132687
v -2.341306 0.698845 -1.134486
v -2.343367 0.698627 -1.138203
v -2.343646 0.699245 -1.140365
v -2.345801 0.698236 -1.142072
v -2.346042 0.697401 -1.139852
v -2.341443 0.699344 -1.136947
v -2.342338 0.699510 -1.138855
v -2.354701 0.691227 -1.144316
v -2.354150 0.691885 -1.146408
v -2.356896 0.689176 -1.147352
v -2.357369 0.688582 -1.145499
v -2.358114 0.687907 -1.143053
v -2.355556 0.690473 -1.141554
v -2.352830 0.692823 -1.140039
v -2.351951 0.693635 -1.142930
v -2.351401 0.694357 -1.145120
v -2.356720 0.690037 -1.138836
v -2.359155 0.687530 -1.140652
v -2.360025 0.687332 -1.138859
v -2.357688 0.689800 -1.136806
v -2.355102 0.692176 -1.135076
v -2.354063 0.692390 -1.137197
v -2.351127 0.694452 -1.135618
v -2.349827 0.694830 -1.138497
v -2.352257 0.694327 -1.133472
v -2.348984 0.695715 -1.141434
v -2.348502 0.696540 -1.143666
v -2.360095 0.685792 -1.146381
v -2.359787 0.686280 -1.147774
v -2.361432 0.684500 -1.147653
v -2.362134 0.683618 -1.146931
v -2.362445 0.683204 -1.145670
v -2.360615 0.685253 -1.144551
v -2.361427 0.685006 -1.142764
v -2.363047 0.683080 -1.144453
v -2.363075 0.683531 -1.143193
v -2.362124 0.684903 -1.141432
v -2.345061 0.697297 -1.133251
v -2.343488 0.697672 -1.135544
v -2.341210 0.698651 -1.134493
v -2.342927 0.698220 -1.132664
v -2.344852 0.697845 -1.131841
v -2.346744 0.697174 -1.131693
v -2.349322 0.695913 -1.132228
v -2.347973 0.695930 -1.134228
v -2.346562 0.696270 -1.136981
v -2.343221 0.698381 -1.138246
v -2.343531 0.699068 -1.140416
v -2.342256 0.699376 -1.138889
v -2.341336 0.699158 -1.136983
v -2.345888 0.697159 -1.139887
v -2.345680 0.698060 -1.142115
v -2.354508 0.691009 -1.144320
v -2.354002 0.691726 -1.146423
v -2.351262 0.694191 -1.145142
v -2.351770 0.693408 -1.142942
v -2.352658 0.692590 -1.140026
v -2.355371 0.690249 -1.141534
v -2.357921 0.687690 -1.143029
v -2.357169 0.688372 -1.145498
v -2.356742 0.689021 -1.147364
v -2.356544 0.689809 -1.138793
v -2.353901 0.692152 -1.137159
v -2.354985 0.691997 -1.135034
v -2.357562 0.689628 -1.136762
v -2.359893 0.687164 -1.138811
v -2.358972 0.687309 -1.140604
v -2.350981 0.694204 -1.135584
v -2.349670 0.694586 -1.138492
v -2.352154 0.694140 -1.133433
v -2.348817 0.695479 -1.141458
v -2.348372 0.696369 -1.143698
v -2.359891 0.685585 -1.146381
v -2.359630 0.686128 -1.147786
v -2.360420 0.685040 -1.144525
v -2.362298 0.683044 -1.145651
v -2.361981 0.683464 -1.146932
v -2.361316 0.684386 -1.147659
v -2.361242 0.684788 -1.142713
v -2.361990 0.684737 -1.141381
v -2.362974 0.683409 -1.143159
v -2.362909 0.682917 -1.144413
v -2.359614 0.686376 -1.148247
v -2.361913 0.683974 -1.147949
v -2.356669 0.689306 -1.147978
v -2.361316 0.684386 -1.147659
v -2.363526 0.682366 -1.144998
v -2.363559 0.683003 -1.143481
v -2.362990 0.682450 -1.146034
v -2.362974 0.683409 -1.143159
v -2.347340 0.697221 -1.131196
v -2.344909 0.698042 -1.131515
v -2.349810 0.695994 -1.131583
v -2.344852 0.697845 -1.131841
v -2.340755 0.699500 -1.136545
v -2.342124 0.699684 -1.139077
v -2.340493 0.699064 -1.134139
v -2.342256 0.699376 -1.138889
v -2.343686 0.699374 -1.141113
v -2.345665 0.698437 -1.142835
v -2.362746 0.682825 -1.147115
v -2.362298 0.684794 -1.140962
v -2.360258 0.687191 -1.138237
v -2.342253 0.698617 -1.132479
v -2.352589 0.694202 -1.132736
v -2.355398 0.692025 -1.134347
v -2.348282 0.696740 -1.144427
v -2.351155 0.694525 -1.145863
v -2.353900 0.692035 -1.147115
v -2.357956 0.689644 -1.136107
vn -0.348400 0.923000 -0.163400
vn -0.414000 0.909100 0.044900
vn -0.463900 0.885600 0.021400
vn -0.407600 0.898000 -0.165700
vn -0.431700 0.886400 -0.167000
vn -0.352100 0.922800 -0.156300
vn -0.294400 0.944300 -0.147100
vn -0.285900 0.953900 -0.090500
vn -0.333300 0.939300 0.081100
vn -0.495100 0.836500 0.234700
vn -0.493500 0.839500 0.227400
vn -0.556500 0.812900 0.171800
vn -0.538700 0.820700 0.190200
vn -0.405700 0.883300 0.234700
vn -0.446300 0.854700 0.265000
vn -0.687600 0.725700 0.022400
vn -0.683000 0.730200 -0.015000
vn -0.703400 0.710100 -0.030100
vn -0.711800 0.702100 0.017000
vn -0.683500 0.723800 -0.094600
vn -0.655300 0.751300 -0.078200
vn -0.595100 0.802400 -0.045000
vn -0.637700 0.767600 0.064300
vn -0.642800 0.765300 0.032500
vn -0.614000 0.769100 -0.177400
vn -0.632800 0.748700 -0.197400
vn -0.656900 0.737500 -0.156600
vn -0.634400 0.758900 -0.146900
vn -0.578600 0.803200 -0.141900
vn -0.555100 0.816200 -0.159900
vn -0.477700 0.864700 -0.155400
vn -0.523700 0.851800 -0.007900
vn -0.504900 0.849900 -0.150500
vn -0.581900 0.803200 0.127200
vn -0.597800 0.795200 0.101500
vn -0.727400 0.685300 0.035400
vn -0.722100 0.691500 -0.016600
vn -0.741100 0.671300 0.006400
vn -0.767800 0.639700 0.034100
vn -0.731000 0.671100 -0.123600
vn -0.696300 0.710400 -0.102300
vn -0.631100 0.742000 -0.226000
vn -0.656800 0.705200 -0.267000
vn -0.657800 0.720400 -0.219600
vn -0.660400 0.727900 -0.184300
vn 0.356000 -0.913300 0.197900
vn 0.427900 -0.903000 -0.038400
vn 0.480400 -0.876900 -0.013400
vn 0.372700 -0.878400 0.299100
vn 0.337100 -0.846800 0.411400
vn 0.341600 -0.856500 0.386900
vn 0.377100 -0.866700 0.326500
vn 0.402400 -0.897500 0.180200
vn 0.463800 -0.885700 -0.021500
vn 0.521100 -0.816000 -0.250300
vn 0.620200 -0.692300 -0.368900
vn 0.630700 -0.673600 -0.385100
vn 0.592400 -0.748900 -0.297000
vn 0.543700 -0.814300 -0.203300
vn 0.611200 -0.728800 -0.308700
vn 0.691000 -0.721900 -0.037900
vn 0.708500 -0.690600 -0.145100
vn 0.673300 -0.718000 -0.176300
vn 0.641300 -0.763200 -0.078300
vn 0.595200 -0.802300 0.045100
vn 0.655400 -0.751200 0.078300
vn 0.683500 -0.723700 0.094600
vn 0.714300 -0.698900 -0.035800
vn 0.714200 -0.679700 -0.167000
vn 0.606400 -0.771700 0.191600
vn 0.548500 -0.817900 0.173400
vn 0.506100 -0.816600 0.277600
vn 0.548900 -0.784600 0.288100
vn 0.538200 -0.783400 0.310700
vn 0.622600 -0.753000 0.213000
vn 0.471700 -0.865400 0.168800
vn 0.523700 -0.851900 0.008000
vn 0.438600 -0.851100 0.288500
vn 0.585600 -0.798300 -0.140500
vn 0.632800 -0.736700 -0.238500
vn 0.720300 -0.690400 -0.066700
vn 0.697200 -0.678900 -0.230000
vn 0.688500 -0.718600 0.097600
vn 0.653200 -0.753200 0.077100
vn 0.685900 -0.709600 -0.161100
vn 0.681200 -0.680700 -0.269300
vn 0.606800 -0.757300 0.241300
vn 0.485900 -0.803500 0.343900
vn 0.449400 -0.817400 0.360400
vn 0.524100 -0.805000 0.278000
vn -0.071100 0.084000 -0.993900
vn -0.386800 -0.168100 -0.906700
vn 0.064600 0.160800 -0.984800
vn 0.681200 -0.680700 -0.269300
vn -0.731000 -0.664100 -0.156600
vn -0.840100 -0.435200 0.323900
vn -0.556200 -0.745600 -0.366900
vn 0.449400 -0.817400 0.360400
vn -0.185500 0.241800 0.952400
vn 0.115600 0.356300 0.927200
vn -0.353100 0.115800 0.928300
vn 0.337100 -0.846800 0.411400
vn 0.862800 0.493400 -0.109900
vn 0.618300 0.652900 -0.437500
vn 0.871500 0.301900 0.386300
vn 0.630700 -0.673600 -0.385100
vn 0.417900 0.597300 -0.684500
vn 0.290700 0.495100 -0.818700
vn -0.570900 -0.569900 -0.591000
vn -0.685100 -0.278100 0.673200
vn -0.585500 -0.222600 0.779500
vn 0.530000 0.297000 0.794300
vn -0.444100 0.004100 0.895900
vn -0.482000 -0.070800 0.873300
vn 0.215300 0.392700 -0.894100
vn 0.181800 0.320300 -0.929700
vn 0.147800 0.246100 -0.957900
vn -0.515800 -0.144900 0.844400
vt 0.839504 0.118056
vt 0.856743 0.205307
vt 0.741230 0.205307
vt 0.734555 0.106726
vt 0.724541 0.032791
vt 0.813647 0.052618
vt 0.868992 0.081539
vt 0.913398 0.129584
vt 0.940923 0.205307
vt 0.839504 0.292557
vt 0.813647 0.357995
vt 0.724541 0.377822
vt 0.734555 0.303887
vt 0.913398 0.281029
vt 0.868992 0.329074
vt 0.369475 0.299954
vt 0.368286 0.370940
vt 0.245840 0.351447
vt 0.246397 0.288815
vt 0.246768 0.205307
vt 0.370268 0.205307
vt 0.494283 0.205307
vt 0.492822 0.304944
vt 0.490632 0.379672
vt 0.369475 0.110659
vt 0.246397 0.121798
vt 0.245841 0.059166
vt 0.368286 0.039673
vt 0.490632 0.030941
vt 0.492822 0.105669
vt 0.616755 0.103478
vt 0.619174 0.205307
vt 0.613127 0.027106
vt 0.616755 0.307135
vt 0.613126 0.383507
vt 0.123273 0.268175
vt 0.123047 0.315326
vt 0.054743 0.283353
vt 0.030912 0.249131
vt 0.030973 0.205306
vt 0.123423 0.205306
vt 0.123273 0.142438
vt 0.030912 0.161481
vt 0.054744 0.127260
vt 0.123047 0.095287
vt 0.839504 0.118056
vt 0.856743 0.205307
vt 0.968983 0.205307
vt 0.938030 0.133427
vt 0.876123 0.061548
vt 0.805028 0.030806
vt 0.721203 0.008146
vt 0.734555 0.106726
vt 0.741230 0.205307
vt 0.839504 0.292557
vt 0.805028 0.379807
vt 0.876123 0.349065
vt 0.938030 0.277186
vt 0.734555 0.303887
vt 0.721203 0.402467
vt 0.369475 0.299954
vt 0.367890 0.394602
vt 0.489902 0.404581
vt 0.492822 0.304944
vt 0.494283 0.205307
vt 0.370268 0.205307
vt 0.246768 0.205307
vt 0.246397 0.288815
vt 0.245655 0.372324
vt 0.369475 0.110659
vt 0.492822 0.105669
vt 0.489902 0.006032
vt 0.367890 0.016011
vt 0.245655 0.038289
vt 0.246397 0.121798
vt 0.616755 0.103478
vt 0.619174 0.205307
vt 0.611917 0.001649
vt 0.616755 0.307135
vt 0.611917 0.408964
vt 0.123273 0.268175
vt 0.122972 0.331043
vt 0.123423 0.205306
vt 0.000156 0.205306
vt 0.000125 0.242784
vt 0.000064 0.280261
vt 0.123273 0.142438
vt 0.122972 0.079570
vt 0.000064 0.130352
vt 0.000125 0.167829
vt 0.122972 0.331043
vt 0.030806 0.283587
vt 0.245655 0.372324
vt 0.030806 0.283587
vt 0.000125 0.167829
vt 0.030806 0.127026
vt 0.000156 0.205306
vt 0.030806 0.127026
vt 0.805028 0.030806
vt 0.873826 0.071832
vt 0.721203 0.008146
vt 0.873826 0.071832
vt 0.938030 0.277186
vt 0.873826 0.338781
vt 0.968983 0.205307
vt 0.873826 0.338781
vt 0.805028 0.379807
vt 0.721203 0.402467
vt 0.000125 0.242784
vt 0.122972 0.079570
vt 0.245655 0.038289
vt 0.938030 0.133427
vt 0.611917 0.001649
vt 0.489902 0.006032
vt 0.611917 0.408964
vt 0.489902 0.404581
vt 0.367890 0.394602
vt 0.367890 0.016011
f 1/1/1 2/2/2 3/3/3
f 1/1/1 3/3/3 4/4/4
f 1/1/1 4/4/4 5/5/5
f 1/1/1 5/5/5 6/6/6
f 1/1/1 6/6/6 7/7/7
f 1/1/1 7/7/7 8/8/8
f 1/1/1 8/8/8 9/9/9
f 1/1/1 9/9/9 2/2/2
f 10/10/10 11/11/11 12/12/12
f 10/10/10 12/12/12 13/13/13
f 10/10/10 13/13/13 3/3/3
f 10/10/10 3/3/3 2/2/2
f 10/10/10 2/2/2 9/9/9
f 10/10/10 9/9/9 14/14/14
f 10/10/10 14/14/14 15/15/15
f 10/10/10 15/15/15 11/11/11
f 16/16/16 17/17/17 18/18/18
f 16/16/16 18/18/18 19/19/19
f 16/16/16 19/19/19 20/20/20
f 16/16/16 20/20/20 21/21/21
f 16/16/16 21/21/21 22/22/22
f 16/16/16 22/22/22 23/23/23
f 16/16/16 23/23/23 24/24/24
f 16/16/16 24/24/24 17/17/17
f 25/25/25 21/21/21 20/20/20
f 25/25/25 20/20/20 26/26/26
f 25/25/25 26/26/26 27/27/27
f 25/25/25 27/27/27 28/28/28
f 25/25/25 28/28/28 29/29/29
f 25/25/25 29/29/29 30/30/30
f 25/25/25 30/30/30 22/22/22
f 25/25/25 22/22/22 21/21/21
f 31/31/31 32/32/32 22/22/22
f 31/31/31 22/22/22 30/30/30
f 31/31/31 30/30/30 29/29/29
f 31/31/31 29/29/29 33/33/33
f 31/31/31 33/33/33 5/5/5
f 31/31/31 5/5/5 4/4/4
f 31/31/31 4/4/4 3/3/3
f 31/31/31 3/3/3 32/32/32
f 34/34/34 35/35/35 24/24/24
f 34/34/34 24/24/24 23/23/23
f 34/34/34 23/23/23 22/22/22
f 34/34/34 22/22/22 32/32/32
f 34/34/34 32/32/32 3/3/3
f 34/34/34 3/3/3 13/13/13
f 34/34/34 13/13/13 12/12/12
f 34/34/34 12/12/12 35/35/35
f 36/36/36 37/37/37 38/38/38
f 36/36/36 38/38/38 39/39/39
f 36/36/36 39/39/39 40/40/40
f 36/36/36 40/40/40 41/41/41
f 36/36/36 41/41/41 20/20/20
f 36/36/36 20/20/20 19/19/19
f 36/36/36 19/19/19 18/18/18
f 36/36/36 18/18/18 37/37/37
f 42/42/42 41/41/41 40/40/40
f 42/42/42 40/40/40 43/43/43
f 42/42/42 43/43/43 44/44/44
f 42/42/42 44/44/44 45/45/45
f 42/42/42 45/45/45 27/27/27
f 42/42/42 27/27/27 26/26/26
f 42/42/42 26/26/26 20/20/20
f 42/42/42 20/20/20 41/41/41
f 46/46/46 47/47/47 48/48/48
f 46/46/46 48/48/48 49/49/49
f 46/46/46 49/49/49 50/50/50
f 46/46/46 50/50/50 51/51/51
f 46/46/46 51/51/51 52/52/52
f 46/46/46 52/52/52 53/53/53
f 46/46/46 53/53/53 54/54/54
f 46/46/46 54/54/54 47/47/47
f 55/55/55 56/56/56 57/57/57
f 55/55/55 57/57/57 58/58/58
f 55/55/55 58/58/58 48/48/48
f 55/55/55 48/48/48 47/47/47
f 55/55/55 47/47/47 54/54/54
f 55/55/55 54/54/54 59/59/59
f 55/55/55 59/59/59 60/60/60
f 55/55/55 60/60/60 56/56/56
f 61/61/61 62/62/62 63/63/63
f 61/61/61 63/63/63 64/64/64
f 61/61/61 64/64/64 65/65/65
f 61/61/61 65/65/65 66/66/66
f 61/61/61 66/66/66 67/67/67
f 61/61/61 67/67/67 68/68/68
f 61/61/61 68/68/68 69/69/69
f 61/61/61 69/69/69 62/62/62
f 70/70/70 66/66/66 65/65/65
f 70/70/70 65/65/65 71/71/71
f 70/70/70 71/71/71 72/72/72
f 70/70/70 72/72/72 73/73/73
f 70/70/70 73/73/73 74/74/74
f 70/70/70 74/74/74 75/75/75
f 70/70/70 75/75/75 67/67/67
f 70/70/70 67/67/67 66/66/66
f 76/76/76 77/77/77 54/54/54
f 76/76/76 54/54/54 53/53/53
f 76/76/76 53/53/53 52/52/52
f 76/76/76 52/52/52 78/78/78
f 76/76/76 78/78/78 72/72/72
f 76/76/76 72/72/72 71/71/71
f 76/76/76 71/71/71 65/65/65
f 76/76/76 65/65/65 77/77/77
f 79/79/79 80/80/80 60/60/60
f 79/79/79 60/60/60 59/59/59
f 79/79/79 59/59/59 54/54/54
f 79/79/79 54/54/54 77/77/77
f 79/79/79 77/77/77 65/65/65
f 79/79/79 65/65/65 64/64/64
f 79/79/79 64/64/64 63/63/63
f 79/79/79 63/63/63 80/80/80
f 81/81/81 82/82/82 69/69/69
f 81/81/81 69/69/69 68/68/68
f 81/81/81 68/68/68 67/67/67
f 81/81/81 67/67/67 83/83/83
f 81/81/81 83/83/83 84/84/84
f 81/81/81 84/84/84 85/85/85
f 81/81/81 85/85/85 86/86/86
f 81/81/81 86/86/86 82/82/82
f 87/87/87 83/83/83 67/67/67
f 87/87/87 67/67/67 75/75/75
f 87/87/87 75/75/75 74/74/74
f 87/87/87 74/74/74 88/88/88
f 87/87/87 88/88/88 89/89/89
f 87/87/87 89/89/89 90/90/90
f 87/87/87 90/90/90 84/84/84
f 87/87/87 84/84/84 83/83/83
f 91/91/91 92/92/92 38/38/38
f 91/91/91 38/38/38 37/37/37
f 91/91/91 37/37/37 18/18/18
f 91/91/91 18/18/18 93/93/93
f 91/91/91 93/93/93 69/69/69
f 91/91/91 69/69/69 82/82/82
f 91/91/91 82/82/82 94/94/94
f 91/91/91 94/94/94 92/92/92
f 95/95/95 96/96/96 44/44/44
f 95/95/95 44/44/44 43/43/43
f 95/95/95 43/43/43 40/40/40
f 95/95/95 40/40/40 97/97/97
f 95/95/95 97/97/97 84/84/84
f 95/95/95 84/84/84 90/90/90
f 95/95/95 90/90/90 98/98/98
f 95/95/95 98/98/98 96/96/96
f 99/99/99 100/100/100 7/7/7
f 99/99/99 7/7/7 6/6/6
f 99/99/99 6/6/6 5/5/5
f 99/99/99 5/5/5 101/101/101
f 99/99/99 101/101/101 52/52/52
f 99/99/99 52/52/52 51/51/51
f 99/99/99 51/51/51 102/102/102
f 99/99/99 102/102/102 100/100/100
f 103/103/103 104/104/104 15/15/15
f 103/103/103 15/15/15 14/14/14
f 103/103/103 14/14/14 9/9/9
f 103/103/103 9/9/9 105/105/105
f 103/103/103 105/105/105 48/48/48
f 103/103/103 48/48/48 58/58/58
f 103/103/103 58/58/58 106/106/106
f 103/103/103 106/106/106 104/104/104
f 107/107/107 108/108/108 12/12/12
f 107/107/107 12/12/12 11/11/11
f 107/107/107 11/11/11 15/15/15
f 107/107/107 15/15/15 104/104/104
f 107/107/107 104/104/104 106/106/106
f 107/107/107 106/106/106 56/56/56
f 107/107/107 56/56/56 60/60/60
f 107/107/107 60/60/60 108/108/108
f 109/109/109 97/97/97 40/40/40
f 109/109/109 40/40/40 39/39/39
f 109/109/109 39/39/39 38/38/38
f 109/109/109 38/38/38 92/92/92
f 109/109/109 92/92/92 94/94/94
f 109/109/109 94/94/94 85/85/85
f 109/109/109 85/85/85 84/84/84
f 109/109/109 84/84/84 97/97/97
f 110/110/110 111/111/111 27/27/27
f 110/110/110 27/27/27 45/45/45
f 110/110/110 45/45/45 44/44/44
f 110/110/110 44/44/44 96/96/96
f 110/110/110 96/96/96 98/98/98
f 110/110/110 98/98/98 88/88/88
f 110/110/110 88/88/88 74/74/74
f 110/110/110 74/74/74 111/111/111
f 112/112/112 105/105/105 9/9/9
f 112/112/112 9/9/9 8/8/8
f 112/112/112 8/8/8 7/7/7
f 112/112/112 7/7/7 100/100/100
f 112/112/112 100/100/100 102/102/102
f 112/112/112 102/102/102 49/49/49
f 112/112/112 49/49/49 48/48/48
f 112/112/112 48/48/48 105/105/105
f 113/113/113 101/101/101 5/5/5
f 113/113/113 5/5/5 33/33/33
f 113/113/113 33/33/33 29/29/29
f 113/113/113 29/29/29 114/114/114
f 113/113/113 114/114/114 72/72/72
f 113/113/113 72/72/72 78/78/78
f 113/113/113 78/78/78 52/52/52
f 113/113/113 52/52/52 101/101/101
f 115/115/115 116/116/116 24/24/24
f 115/115/115 24/24/24 35/35/35
f 115/115/115 35/35/35 12/12/12
f 115/115/115 12/12/12 108/108/108
f 115/115/115 108/108/108 60/60/60
f 115/115/115 60/60/60 80/80/80
f 115/115/115 80/80/80 63/63/63
f 115/115/115 63/63/63 116/116/116
f 117/117/117 93/93/93 18/18/18
f 117/117/117 18/18/18 17/17/17
f 117/117/117 17/17/17 24/24/24
f 117/117/117 24/24/24 116/116/116
f 117/117/117 116/116/116 63/63/63
f 117/117/117 63/63/63 62/62/62
f 117/117/117 62/62/62 69/69/69
f 117/117/117 69/69/69 93/93/93
f 118/118/118 114/114/114 29/29/29
f 118/118/118 29/29/29 28/28/28
f 118/118/118 28/28/28 27/27/27
f 118/118/118 27/27/27 111/111/111
f 118/118/118 111/111/111 74/74/74
f 118/118/118 74/74/74 73/73/73
f 118/118/118 73/73/73 72/72/72
f 118/118/118 72/72/72 114/114/114
