v -2.313490 0.766720 -1.246176
v -2.314468 0.767622 -1.245800
v -2.314023 0.766857 -1.244187
v -2.312992 0.765893 -1.244795
v -2.312090 0.765211 -1.245169
v -2.312592 0.766037 -1.246267
v -2.313161 0.766632 -1.246846
v -2.313930 0.767296 -1.247135
v -2.314844 0.768144 -1.246986
v -2.314975 0.768542 -1.244903
v -2.315195 0.769233 -1.244033
v -2.315047 0.768842 -1.242632
v -2.314679 0.767964 -1.243348
v -2.315214 0.768873 -1.246033
v -2.315269 0.769220 -1.245037
v -2.314094 0.764978 -1.238457
v -2.314592 0.765803 -1.237868
v -2.314494 0.764437 -1.236433
v -2.314061 0.763704 -1.236958
v -2.313418 0.762763 -1.237625
v -2.313360 0.763916 -1.239207
v -2.313415 0.765003 -1.240826
v -2.314171 0.766120 -1.240038
v -2.314674 0.766994 -1.239417
v -2.312441 0.762948 -1.239876
v -2.312599 0.761910 -1.238213
v -2.311933 0.761292 -1.238631
v -2.311696 0.762247 -1.240353
v -2.311645 0.763274 -1.242016
v -2.312443 0.763997 -1.241522
v -2.312634 0.764982 -1.243203
v -2.313654 0.765983 -1.242507
v -2.311776 0.764276 -1.243687
v -2.314389 0.767136 -1.241698
v -2.314850 0.768051 -1.241049
v -2.313978 0.762295 -1.235546
v -2.314276 0.762855 -1.235141
v -2.314105 0.761820 -1.234534
v -2.313914 0.761180 -1.234524
v -2.313626 0.760678 -1.234884
v -2.313519 0.761582 -1.236053
v -2.312888 0.760955 -1.236482
v -2.313167 0.760262 -1.235166
v -2.312760 0.760169 -1.235688
v -2.312363 0.760507 -1.236782
v -2.313594 0.766623 -1.246200
v -2.314584 0.767537 -1.245814
v -2.314931 0.768079 -1.246995
v -2.314006 0.767221 -1.247151
v -2.313215 0.766575 -1.246861
v -2.312664 0.765958 -1.246290
v -2.312164 0.765136 -1.245194
v -2.313098 0.765800 -1.244823
v -2.314140 0.766775 -1.244206
v -2.315101 0.768472 -1.244907
v -2.315294 0.769188 -1.244032
v -2.315341 0.769185 -1.245036
v -2.315309 0.768821 -1.246034
v -2.314805 0.767895 -1.243359
v -2.315146 0.768797 -1.242636
v -2.314221 0.764919 -1.238494
v -2.314690 0.765763 -1.237892
v -2.314773 0.766951 -1.239435
v -2.314299 0.766057 -1.240068
v -2.313535 0.764930 -1.240862
v -2.313481 0.763848 -1.239250
v -2.313539 0.762698 -1.237673
v -2.314188 0.763648 -1.237000
v -2.314593 0.764400 -1.236461
v -2.312554 0.762872 -1.239924
v -2.312555 0.763916 -1.241564
v -2.311725 0.763209 -1.242051
v -2.311777 0.762185 -1.240393
v -2.312014 0.761233 -1.238674
v -2.312713 0.761836 -1.238266
v -2.312744 0.764894 -1.243237
v -2.313773 0.765905 -1.242535
v -2.311853 0.764206 -1.243716
v -2.314515 0.767070 -1.241717
v -2.314949 0.768007 -1.241060
v -2.314106 0.762241 -1.235589
v -2.314375 0.762820 -1.235169
v -2.313640 0.761519 -1.236103
v -2.313716 0.760631 -1.234921
v -2.314010 0.761140 -1.234556
v -2.314178 0.761792 -1.234556
v -2.313000 0.760882 -1.236538
v -2.312443 0.760448 -1.236827
v -2.312821 0.760126 -1.235721
v -2.313251 0.760207 -1.235208
v -2.314419 0.763027 -1.235017
v -2.314130 0.761588 -1.234227
v -2.314683 0.764666 -1.236269
v -2.314178 0.761792 -1.234556
v -2.313297 0.760006 -1.234746
v -2.312783 0.759934 -1.235383
v -2.313702 0.760356 -1.234511
v -2.312821 0.760126 -1.235721
v -2.312323 0.765773 -1.246308
v -2.313072 0.766576 -1.246987
v -2.311821 0.764949 -1.245306
v -2.313215 0.766575 -1.246861
v -2.315336 0.768960 -1.246410
v -2.315352 0.769376 -1.245031
v -2.315008 0.768289 -1.247385
v -2.315341 0.769185 -1.245036
v -2.315314 0.769445 -1.243742
v -2.315214 0.769116 -1.242394
v -2.313935 0.760790 -1.234198
v -2.312222 0.760330 -1.236903
v -2.311746 0.761059 -1.238790
v -2.314110 0.767455 -1.247462
v -2.311522 0.764009 -1.243862
v -2.311414 0.763003 -1.242197
v -2.315048 0.768338 -1.240837
v -2.314887 0.767267 -1.239217
v -2.314802 0.766061 -1.237682
v -2.311482 0.761985 -1.240531
vn 0.657300 0.734100 0.170200
vn 0.791200 0.609500 0.050000
vn 0.805200 0.584100 0.102400
vn 0.686900 0.695100 0.212100
vn 0.698100 0.678200 0.229700
vn 0.663300 0.729400 0.166900
vn 0.636000 0.762100 0.121200
vn 0.660100 0.747900 0.070300
vn 0.763800 0.644600 -0.032200
vn 0.897900 0.438700 -0.036000
vn 0.894900 0.445100 -0.031800
vn 0.902600 0.427000 0.054100
vn 0.901800 0.431200 0.027600
vn 0.856300 0.507000 -0.098100
vn 0.884900 0.456600 -0.092200
vn 0.887100 0.377900 0.264900
vn 0.869300 0.399900 0.290500
vn 0.867300 0.382900 0.318000
vn 0.890300 0.352900 0.287900
vn 0.830900 0.429300 0.353900
vn 0.831700 0.454200 0.319300
vn 0.828800 0.501600 0.248000
vn 0.890800 0.410500 0.194700
vn 0.879100 0.421100 0.223100
vn 0.766400 0.526100 0.368400
vn 0.760900 0.511800 0.399000
vn 0.790700 0.477000 0.383600
vn 0.789700 0.497600 0.358800
vn 0.773800 0.550400 0.313400
vn 0.755400 0.576800 0.310900
vn 0.725600 0.640200 0.252200
vn 0.818500 0.549600 0.167300
vn 0.740000 0.617100 0.267400
vn 0.896400 0.430500 0.105700
vn 0.892400 0.430000 0.136800
vn 0.901200 0.325500 0.286000
vn 0.877400 0.355500 0.322200
vn 0.891100 0.322300 0.319300
vn 0.906800 0.274900 0.319600
vn 0.825600 0.382700 0.414400
vn 0.830000 0.417300 0.370000
vn 0.743400 0.519300 0.421500
vn 0.724800 0.498500 0.475500
vn 0.754600 0.489900 0.436500
vn 0.776000 0.480000 0.409200
vn -0.642600 -0.738700 -0.203400
vn -0.795400 -0.602700 -0.064400
vn -0.809100 -0.575200 -0.120100
vn -0.591800 -0.748800 -0.298500
vn -0.499400 -0.783200 -0.370300
vn -0.518500 -0.779200 -0.352100
vn -0.576800 -0.749600 -0.324700
vn -0.676400 -0.702800 -0.220300
vn -0.805100 -0.584200 -0.102300
vn -0.913200 -0.406400 0.028800
vn -0.975000 -0.218500 0.039400
vn -0.980300 -0.193100 0.042400
vn -0.951500 -0.307500 0.010400
vn -0.908000 -0.418400 -0.021600
vn -0.960400 -0.278700 0.004500
vn -0.894500 -0.366700 -0.255500
vn -0.939000 -0.287800 -0.188300
vn -0.941200 -0.308300 -0.137900
vn -0.897500 -0.399500 -0.186800
vn -0.828800 -0.501500 -0.248200
vn -0.831700 -0.454100 -0.319400
vn -0.830900 -0.429200 -0.354000
vn -0.898800 -0.341000 -0.275300
vn -0.947400 -0.267100 -0.176500
vn -0.755900 -0.537000 -0.374500
vn -0.745500 -0.586200 -0.317200
vn -0.667200 -0.644800 -0.373000
vn -0.677400 -0.608900 -0.412700
vn -0.658700 -0.621400 -0.424100
vn -0.748500 -0.525600 -0.404200
vn -0.715700 -0.648600 -0.258900
vn -0.818500 -0.549600 -0.167300
vn -0.630500 -0.700200 -0.334700
vn -0.902400 -0.419400 -0.098600
vn -0.949000 -0.309200 -0.061600
vn -0.912600 -0.318300 -0.256400
vn -0.962600 -0.244200 -0.117400
vn -0.830600 -0.424600 -0.360200
vn -0.831700 -0.455900 -0.316800
vn -0.939500 -0.303700 -0.158700
vn -0.969300 -0.233500 -0.076900
vn -0.726600 -0.546700 -0.416000
vn -0.616000 -0.669600 -0.414900
vn -0.589100 -0.700200 -0.403300
vn -0.674200 -0.629400 -0.386200
vn -0.347700 0.486100 0.801800
vn -0.207800 0.135700 0.968700
vn -0.403500 0.589900 0.699400
vn -0.969300 -0.233500 -0.076900
vn 0.123100 -0.721600 0.681200
vn 0.535300 -0.776800 0.331600
vn -0.139600 -0.641600 0.754200
vn -0.589100 -0.700200 -0.403300
vn 0.685100 -0.277600 -0.673400
vn 0.512400 -0.073800 -0.855600
vn 0.732200 -0.425700 -0.531600
vn -0.499400 -0.783200 -0.370300
vn -0.427100 0.737800 -0.522600
vn -0.312200 0.938400 -0.148300
vn -0.310100 0.360800 -0.879600
vn -0.980300 -0.193100 0.042400
vn -0.303600 0.936700 0.174500
vn -0.323000 0.869600 0.373400
vn -0.138800 -0.400000 0.905900
vn 0.659200 -0.749400 -0.062700
vn 0.662100 -0.717900 -0.215200
vn 0.119300 0.067800 -0.990500
vn 0.727000 -0.534500 -0.430900
vn 0.706000 -0.599700 -0.376700
vn -0.353900 0.792800 0.496000
vn -0.382900 0.736700 0.557200
vn -0.408900 0.676400 0.612500
vn 0.679600 -0.659700 -0.320800
vt 0.839504 0.118056
vt 0.856743 0.205307
vt 0.741230 0.205307
vt 0.734555 0.106726
vt 0.724541 0.032791
vt 0.813647 0.052618
vt 0.868992 0.081539
vt 0.913398 0.129584
vt 0.940923 0.205307
vt 0.839504 0.292557
vt 0.813647 0.357995
vt 0.724541 0.377822
vt 0.734555 0.303887
vt 0.913398 0.281029
vt 0.868992 0.329074
vt 0.369475 0.299954
vt 0.368286 0.370940
vt 0.245840 0.351447
vt 0.246397 0.288815
vt 0.246768 0.205307
vt 0.370268 0.205307
vt 0.494283 0.205307
vt 0.492822 0.304944
vt 0.490632 0.379672
vt 0.369475 0.110659
vt 0.246397 0.121798
vt 0.245841 0.059166
vt 0.368286 0.039673
vt 0.490632 0.030941
vt 0.492822 0.105669
vt 0.616755 0.103478
vt 0.619174 0.205307
vt 0.613127 0.027106
vt 0.616755 0.307135
vt 0.613126 0.383507
vt 0.123273 0.268175
vt 0.123047 0.315326
vt 0.054743 0.283353
vt 0.030912 0.249131
vt 0.030973 0.205306
vt 0.123423 0.205306
vt 0.123273 0.142438
vt 0.030912 0.161481
vt 0.054744 0.127260
vt 0.123047 0.095287
vt 0.839504 0.118056
vt 0.856743 0.205307
vt 0.968983 0.205307
vt 0.938030 0.133427
vt 0.876123 0.061548
vt 0.805028 0.030806
vt 0.721203 0.008146
vt 0.734555 0.106726
vt 0.741230 0.205307
vt 0.839504 0.292557
vt 0.805028 0.379807
vt 0.876123 0.349065
vt 0.938030 0.277186
vt 0.734555 0.303887
vt 0.721203 0.402467
vt 0.369475 0.299954
vt 0.367890 0.394602
vt 0.489902 0.404581
vt 0.492822 0.304944
vt 0.494283 0.205307
vt 0.370268 0.205307
vt 0.246768 0.205307
vt 0.246397 0.288815
vt 0.245655 0.372324
vt 0.369475 0.110659
vt 0.492822 0.105669
vt 0.489902 0.006032
vt 0.367890 0.016011
vt 0.245655 0.038289
vt 0.246397 0.121798
vt 0.616755 0.103478
vt 0.619174 0.205307
vt 0.611917 0.001649
vt 0.616755 0.307135
vt 0.611917 0.408964
vt 0.123273 0.268175
vt 0.122972 0.331043
vt 0.123423 0.205306
vt 0.000156 0.205306
vt 0.000125 0.242784
vt 0.000064 0.280261
vt 0.123273 0.142438
vt 0.122972 0.079570
vt 0.000064 0.130352
vt 0.000125 0.167829
vt 0.122972 0.331043
vt 0.030806 0.283587
vt 0.245655 0.372324
vt 0.030806 0.283587
vt 0.000125 0.167829
vt 0.030806 0.127026
vt 0.000156 0.205306
vt 0.030806 0.127026
vt 0.805028 0.030806
vt 0.873826 0.071832
vt 0.721203 0.008146
vt 0.873826 0.071832
vt 0.938030 0.277186
vt 0.873826 0.338781
vt 0.968983 0.205307
vt 0.873826 0.338781
vt 0.805028 0.379807
vt 0.721203 0.402467
vt 0.000125 0.242784
vt 0.122972 0.079570
vt 0.245655 0.038289
vt 0.938030 0.133427
vt 0.611917 0.001649
vt 0.489902 0.006032
vt 0.611917 0.408964
vt 0.489902 0.404581
vt 0.367890 0.394602
vt 0.367890 0.016011
f 1/1/1 2/2/2 3/3/3
f 1/1/1 3/3/3 4/4/4
f 1/1/1 4/4/4 5/5/5
f 1/1/1 5/5/5 6/6/6
f 1/1/1 6/6/6 7/7/7
f 1/1/1 7/7/7 8/8/8
f 1/1/1 8/8/8 9/9/9
f 1/1/1 9/9/9 2/2/2
f 10/10/10 11/11/11 12/12/12
f 10/10/10 12/12/12 13/13/13
f 10/10/10 13/13/13 3/3/3
f 10/10/10 3/3/3 2/2/2
f 10/10/10 2/2/2 9/9/9
f 10/10/10 9/9/9 14/14/14
f 10/10/10 14/14/14 15/15/15
f 10/10/10 15/15/15 11/11/11
f 16/16/16 17/17/17 18/18/18
f 16/16/16 18/18/18 19/19/19
f 16/16/16 19/19/19 20/20/20
f 16/16/16 20/20/20 21/21/21
f 16/16/16 21/21/21 22/22/22
f 16/16/16 22/22/22 23/23/23
f 16/16/16 23/23/23 24/24/24
f 16/16/16 24/24/24 17/17/17
f 25/25/25 21/21/21 20/20/20
f 25/25/25 20/20/20 26/26/26
f 25/25/25 26/26/26 27/27/27
f 25/25/25 27/27/27 28/28/28
f 25/25/25 28/28/28 29/29/29
f 25/25/25 29/29/29 30/30/30
f 25/25/25 30/30/30 22/22/22
f 25/25/25 22/22/22 21/21/21
f 31/31/31 32/32/32 22/22/22
f 31/31/31 22/22/22 30/30/30
f 31/31/31 30/30/30 29/29/29
f 31/31/31 29/29/29 33/33/33
f 31/31/31 33/33/33 5/5/5
f 31/31/31 5/5/5 4/4/4
f 31/31/31 4/4/4 3/3/3
f 31/31/31 3/3/3 32/32/32
f 34/34/34 35/35/35 24/24/24
f 34/34/34 24/24/24 23/23/23
f 34/34/34 23/23/23 22/22/22
f 34/34/34 22/22/22 32/32/32
f 34/34/34 32/32/32 3/3/3
f 34/34/34 3/3/3 13/13/13
f 34/34/34 13/13/13 12/12/12
f 34/34/34 12/12/12 35/35/35
f 36/36/36 37/37/37 38/38/38
f 36/36/36 38/38/38 39/39/39
f 36/36/36 39/39/39 40/40/40
f 36/36/36 40/40/40 41/41/41
f 36/36/36 41/41/41 20/20/20
f 36/36/36 20/20/20 19/19/19
f 36/36/36 19/19/19 18/18/18
f 36/36/36 18/18/18 37/37/37
f 42/42/42 41/41/41 40/40/40
f 42/42/42 40/40/40 43/43/43
f 42/42/42 43/43/43 44/44/44
f 42/42/42 44/44/44 45/45/45
f 42/42/42 45/45/45 27/27/27
f 42/42/42 27/27/27 26/26/26
f 42/42/42 26/26/26 20/20/20
f 42/42/42 20/20/20 41/41/41
f 46/46/46 47/47/47 48/48/48
f 46/46/46 48/48/48 49/49/49
f 46/46/46 49/49/49 50/50/50
f 46/46/46 50/50/50 51/51/51
f 46/46/46 51/51/51 52/52/52
f 46/46/46 52/52/52 53/53/53
f 46/46/46 53/53/53 54/54/54
f 46/46/46 54/54/54 47/47/47
f 55/55/55 56/56/56 57/57/57
f 55/55/55 57/57/57 58/58/58
f 55/55/55 58/58/58 48/48/48
f 55/55/55 48/48/48 47/47/47
f 55/55/55 47/47/47 54/54/54
f 55/55/55 54/54/54 59/59/59
f 55/55/55 59/59/59 60/60/60
f 55/55/55 60/60/60 56/56/56
f 61/61/61 62/62/62 63/63/63
f 61/61/61 63/63/63 64/64/64
f 61/61/61 64/64/64 65/65/65
f 61/61/61 65/65/65 66/66/66
f 61/61/61 66/66/66 67/67/67
f 61/61/61 67/67/67 68/68/68
f 61/61/61 68/68/68 69/69/69
f 61/61/61 69/69/69 62/62/62
f 70/70/70 66/66/66 65/65/65
f 70/70/70 65/65/65 71/71/71
f 70/70/70 71/71/71 72/72/72
f 70/70/70 72/72/72 73/73/73
f 70/70/70 73/73/73 74/74/74
f 70/70/70 74/74/74 75/75/75
f 70/70/70 75/75/75 67/67/67
f 70/70/70 67/67/67 66/66/66
f 76/76/76 77/77/77 54/54/54
f 76/76/76 54/54/54 53/53/53
f 76/76/76 53/53/53 52/52/52
f 76/76/76 52/52/52 78/78/78
f 76/76/76 78/78/78 72/72/72
f 76/76/76 72/72/72 71/71/71
f 76/76/76 71/71/71 65/65/65
f 76/76/76 65/65/65 77/77/77
f 79/79/79 80/80/80 60/60/60
f 79/79/79 60/60/60 59/59/59
f 79/79/79 59/59/59 54/54/54
f 79/79/79 54/54/54 77/77/77
f 79/79/79 77/77/77 65/65/65
f 79/79/79 65/65/65 64/64/64
f 79/79/79 64/64/64 63/63/63
f 79/79/79 63/63/63 80/80/80
f 81/81/81 82/82/82 69/69/69
f 81/81/81 69/69/69 68/68/68
f 81/81/81 68/68/68 67/67/67
f 81/81/81 67/67/67 83/83/83
f 81/81/81 83/83/83 84/84/84
f 81/81/81 84/84/84 85/85/85
f 81/81/81 85/85/85 86/86/86
f 81/81/81 86/86/86 82/82/82
f 87/87/87 83/83/83 67/67/67
f 87/87/87 67/67/67 75/75/75
f 87/87/87 75/75/75 74/74/74
f 87/87/87 74/74/74 88/88/88
f 87/87/87 88/88/88 89/89/89
f 87/87/87 89/89/89 90/90/90
f 87/87/87 90/90/90 84/84/84
f 87/87/87 84/84/84 83/83/83
f 91/91/91 92/92/92 38/38/38
f 91/91/91 38/38/38 37/37/37
f 91/91/91 37/37/37 18/18/18
f 91/91/91 18/18/18 93/93/93
f 91/91/91 93/93/93 69/69/69
f 91/91/91 69/69/69 82/82/82
f 91/91/91 82/82/82 94/94/94
f 91/91/91 94/94/94 92/92/92
f 95/95/95 96/96/96 44/44/44
f 95/95/95 44/44/44 43/43/43
f 95/95/95 43/43/43 40/40/40
f 95/95/95 40/40/40 97/97/97
f 95/95/95 97/97/97 84/84/84
f 95/95/95 84/84/84 90/90/90
f 95/95/95 90/90/90 98/98/98
f 95/95/95 98/98/98 96/96/96
f 99/99/99 100/100/100 7/7/7
f 99/99/99 7/7/7 6/6/6
f 99/99/99 6/6/6 5/5/5
f 99/99/99 5/5/5 101/101/101
f 99/99/99 101/101/101 52/52/52
f 99/99/99 52/52/52 51/51/51
f 99/99/99 51/51/51 102/102/102
f 99/99/99 102/102/102 100/100/100
f 103/103/103 104/104/104 15/15/15
f 103/103/103 15/15/15 14/14/14
f 103/103/103 14/14/14 9/9/9
f 103/103/103 9/9/9 105/105/105
f 103/103/103 105/105/105 48/48/48
f 103/103/103 48/48/48 58/58/58
f 103/103/103 58/58/58 106/106/106
f 103/103/103 106/106/106 104/104/104
f 107/107/107 108/108/108 12/12/12
f 107/107/107 12/12/12 11/11/11
f 107/107/107 11/11/11 15/15/15
f 107/107/107 15/15/15 104/104/104
f 107/107/107 104/104/104 106/106/106
f 107/107/107 106/106/106 56/56/56
f 107/107/107 56/56/56 60/60/60
f 107/107/107 60/60/60 108/108/108
f 109/109/109 97/97/97 40/40/40
f 109/109/109 40/40/40 39/39/39
f 109/109/109 39/39/39 38/38/38
f 109/109/109 38/38/38 92/92/92
f 109/109/109 92/92/92 94/94/94
f 109/109/109 94/94/94 85/85/85
f 109/109/109 85/85/85 84/84/84
f 109/109/109 84/84/84 97/97/97
f 110/110/110 111/111/111 27/27/27
f 110/110/110 27/27/27 45/45/45
f 110/110/110 45/45/45 44/44/44
f 110/110/110 44/44/44 96/96/96
f 110/110/110 96/96/96 98/98/98
f 110/110/110 98/98/98 88/88/88
f 110/110/110 88/88/88 74/74/74
f 110/110/110 74/74/74 111/111/111
f 112/112/112 105/105/105 9/9/9
f 112/112/112 9/9/9 8/8/8
f 112/112/112 8/8/8 7/7/7
f 112/112/112 7/7/7 100/100/100
f 112/112/112 100/100/100 102/102/102
f 112/112/112 102/102/102 49/49/49
f 112/112/112 49/49/49 48/48/48
f 112/112/112 48/48/48 105/105/105
f 113/113/113 101/101/101 5/5/5
f 113/113/113 5/5/5 33/33/33
f 113/113/113 33/33/33 29/29/29
f 113/113/113 29/29/29 114/114/114
f 113/113/113 114/114/114 72/72/72
f 113/113/113 72/72/72 78/78/78
f 113/113/113 78/78/78 52/52/52
f 113/113/113 52/52/52 101/101/101
f 115/115/115 116/116/116 24/24/24
f 115/115/115 24/24/24 35/35/35
f 115/115/115 35/35/35 12/12/12
f 115/115/115 12/12/12 108/108/108
f 115/115/115 108/108/108 60/60/60
f 115/115/115 60/60/60 80/80/80
f 115/115/115 80/80/80 63/63/63
f 115/115/115 63/63/63 116/116/116
f 117/117/117 93/93/93 18/18/18
f 117/117/117 18/18/18 17/17/17
f 117/117/117 17/17/17 24/24/24
f 117/117/117 24/24/24 116/116/116
f 117/117/117 116/116/116 63/63/63
f 117/117/117 63/63/63 62/62/62
f 117/117/117 62/62/62 69/69/69
f 117/117/117 69/69/69 93/93/93
f 118/118/118 114/114/114 29/29/29
f 118/118/118 29/29/29 28/28/28
f 118/118/118 28/28/28 27/27/27
f 118/118/118 27/27/27 111/111/111
f 118/118/118 111/111/111 74/74/74
f 118/118/118 74/74/74 73/73/73
f 118/118/118 73/73/73 72/72/72
f 118/118/118 72/72/72 114/114/114
