v -2.362130 0.707147 -1.198027
v -2.361444 0.706941 -1.200240
v -2.363959 0.705137 -1.200188
v -2.364423 0.705518 -1.197673
v -2.365019 0.705900 -1.195799
v -2.363070 0.707287 -1.196376
v -2.361688 0.707916 -1.197126
v -2.360431 0.708195 -1.198351
v -2.359540 0.708177 -1.200267
v -2.361939 0.706754 -1.202504
v -2.362735 0.706597 -1.204227
v -2.364639 0.705116 -1.204717
v -2.364206 0.705071 -1.202761
v -2.360265 0.707854 -1.202225
v -2.361417 0.707357 -1.203484
v -2.370972 0.698141 -1.202389
v -2.371102 0.698113 -1.204285
v -2.373015 0.695460 -1.203624
v -2.372888 0.695477 -1.201946
v -2.372834 0.695574 -1.199727
v -2.370924 0.698255 -1.199881
v -2.368841 0.700787 -1.200014
v -2.368908 0.700683 -1.202640
v -2.369070 0.700678 -1.204627
v -2.371185 0.698578 -1.197404
v -2.373076 0.695865 -1.197537
v -2.373345 0.696138 -1.195898
v -2.371474 0.698880 -1.195550
v -2.369460 0.701481 -1.195489
v -2.369130 0.701141 -1.197425
v -2.366817 0.703485 -1.197494
v -2.366472 0.703083 -1.200115
v -2.367229 0.703892 -1.195538
v -2.366591 0.703020 -1.202785
v -2.366833 0.703078 -1.204811
v -2.374758 0.692780 -1.201224
v -2.374899 0.692795 -1.202483
v -2.375870 0.691278 -1.201526
v -2.376119 0.690726 -1.200579
v -2.376022 0.690731 -1.199437
v -2.374683 0.692830 -1.199564
v -2.374898 0.693069 -1.197934
v -2.376215 0.690924 -1.198324
v -2.376043 0.691634 -1.197470
v -2.375145 0.693302 -1.196713
v -2.361984 0.706961 -1.197971
v -2.361296 0.706750 -1.200216
v -2.359431 0.708031 -1.200249
v -2.360324 0.708053 -1.198306
v -2.361609 0.707813 -1.197087
v -2.362962 0.707151 -1.196317
v -2.364905 0.705767 -1.195744
v -2.364269 0.705337 -1.197621
v -2.363803 0.704952 -1.200165
v -2.361791 0.706562 -1.202515
v -2.362624 0.706454 -1.204252
v -2.361336 0.707250 -1.203498
v -2.360157 0.707708 -1.202235
v -2.364050 0.704885 -1.202768
v -2.364521 0.704977 -1.204738
v -2.370783 0.697986 -1.202389
v -2.370960 0.697997 -1.204296
v -2.368935 0.700555 -1.204639
v -2.368728 0.700519 -1.202641
v -2.368661 0.700624 -1.199992
v -2.370734 0.698103 -1.199859
v -2.372638 0.695429 -1.199706
v -2.372692 0.695331 -1.201946
v -2.372869 0.695349 -1.203636
v -2.370997 0.698428 -1.197361
v -2.368952 0.700981 -1.197381
v -2.369327 0.701362 -1.195444
v -2.371334 0.698769 -1.195507
v -2.373200 0.696033 -1.195855
v -2.372882 0.695722 -1.197495
v -2.366651 0.703314 -1.197446
v -2.366304 0.702909 -1.200093
v -2.367105 0.703766 -1.195488
v -2.366423 0.702844 -1.202789
v -2.366707 0.702946 -1.204827
v -2.374560 0.692636 -1.201226
v -2.374751 0.692687 -1.202496
v -2.374485 0.692688 -1.199544
v -2.375873 0.690624 -1.199422
v -2.375970 0.690619 -1.200582
v -2.375760 0.691198 -1.201533
v -2.374702 0.692929 -1.197890
v -2.375000 0.693199 -1.196669
v -2.375934 0.691558 -1.197440
v -2.376068 0.690820 -1.198290
v -2.374881 0.692752 -1.202911
v -2.376225 0.690735 -1.201498
v -2.372993 0.695405 -1.204191
v -2.375760 0.691198 -1.201533
v -2.376589 0.690163 -1.198439
v -2.376398 0.691092 -1.197433
v -2.376402 0.689984 -1.199388
v -2.375934 0.691558 -1.197440
v -2.363335 0.707273 -1.195796
v -2.361618 0.708055 -1.196873
v -2.365167 0.705969 -1.195146
v -2.361609 0.707813 -1.197087
v -2.359660 0.708156 -1.202137
v -2.361325 0.707451 -1.203751
v -2.358857 0.708524 -1.200268
v -2.361336 0.707250 -1.203498
v -2.362951 0.706481 -1.204817
v -2.364731 0.705070 -1.205382
v -2.376507 0.689994 -1.200365
v -2.375163 0.693334 -1.196284
v -2.373370 0.696183 -1.195331
v -2.359818 0.708481 -1.198438
v -2.367311 0.703973 -1.194861
v -2.369511 0.701542 -1.194821
v -2.366858 0.703039 -1.205496
v -2.369064 0.700622 -1.205297
v -2.371082 0.698052 -1.204924
v -2.371508 0.698932 -1.194910
vn -0.561100 0.768000 -0.308800
vn -0.566700 0.818300 -0.096000
vn -0.614900 0.782800 -0.095000
vn -0.612400 0.737200 -0.285300
vn -0.633100 0.723300 -0.275700
vn -0.562700 0.769700 -0.301400
vn -0.510300 0.799400 -0.317100
vn -0.489700 0.828600 -0.271200
vn -0.487300 0.867800 -0.097000
vn -0.579500 0.805800 0.122100
vn -0.580400 0.806300 0.114000
vn -0.648700 0.755500 0.091000
vn -0.628800 0.771100 0.099900
vn -0.504600 0.859600 0.080600
vn -0.529200 0.838600 0.128900
vn -0.792900 0.608900 0.021900
vn -0.799100 0.600900 -0.014700
vn -0.818100 0.574700 -0.016300
vn -0.812300 0.582300 0.031400
vn -0.818700 0.567900 -0.084700
vn -0.793500 0.602300 -0.086700
vn -0.738700 0.667900 -0.090200
vn -0.743700 0.667700 0.032200
vn -0.756200 0.654300 0.005600
vn -0.783700 0.589900 -0.194400
vn -0.802400 0.561900 -0.200700
vn -0.812300 0.562700 -0.153100
vn -0.793000 0.588400 -0.157500
vn -0.748200 0.637700 -0.183200
vn -0.733300 0.646400 -0.210600
vn -0.669100 0.701700 -0.244600
vn -0.672000 0.734600 -0.093100
vn -0.690500 0.686600 -0.227500
vn -0.682100 0.728600 0.061400
vn -0.702100 0.710600 0.045400
vn -0.818900 0.571000 0.057700
vn -0.828600 0.559700 0.007000
vn -0.836500 0.546400 0.039800
vn -0.848000 0.523500 0.082400
vn -0.860100 0.503600 -0.080800
vn -0.830100 0.551300 -0.083800
vn -0.806800 0.546200 -0.225100
vn -0.834000 0.494900 -0.243600
vn -0.826000 0.525000 -0.204900
vn -0.820900 0.543800 -0.174400
vn 0.575100 -0.746300 0.334900
vn 0.580200 -0.808800 0.095700
vn 0.630800 -0.770100 0.094500
vn 0.609800 -0.677500 0.411200
vn 0.598600 -0.613800 0.514700
vn 0.598400 -0.630800 0.493900
vn 0.618500 -0.656900 0.431200
vn 0.611100 -0.732500 0.299900
vn 0.614800 -0.782900 0.094900
vn 0.595800 -0.789000 -0.150200
vn 0.633300 -0.702700 -0.324200
vn 0.635200 -0.689700 -0.347500
vn 0.637200 -0.734300 -0.234100
vn 0.628800 -0.768900 -0.115200
vn 0.647800 -0.717200 -0.256500
vn 0.791300 -0.610100 -0.038100
vn 0.773900 -0.615300 -0.149700
vn 0.738300 -0.655400 -0.158900
vn 0.742600 -0.668000 -0.047200
vn 0.738800 -0.667800 0.090100
vn 0.793700 -0.602100 0.086700
vn 0.818800 -0.567800 0.084700
vn 0.809100 -0.585400 -0.050100
vn 0.771400 -0.611900 -0.174400
vn 0.780800 -0.588300 0.210400
vn 0.731000 -0.644100 0.225300
vn 0.717400 -0.612300 0.332300
vn 0.753900 -0.574100 0.319300
vn 0.749300 -0.566500 0.342800
vn 0.797700 -0.561700 0.219200
vn 0.667000 -0.698600 0.258800
vn 0.672000 -0.734700 0.093100
vn 0.663500 -0.648300 0.373200
vn 0.681300 -0.728000 -0.076000
vn 0.687900 -0.698400 -0.197300
vn 0.805100 -0.587300 -0.082400
vn 0.739100 -0.634400 -0.226300
vn 0.823200 -0.561400 0.084400
vn 0.791700 -0.604700 0.086900
vn 0.752300 -0.641000 -0.151600
vn 0.714300 -0.651100 -0.256300
vn 0.791000 -0.558000 0.251000
vn 0.712500 -0.580000 0.394900
vn 0.685200 -0.591400 0.425200
vn 0.732200 -0.599200 0.323800
vn -0.339300 -0.266200 -0.902200
vn -0.563400 -0.507600 -0.651800
vn -0.224800 -0.176100 -0.958300
vn 0.714300 -0.651100 -0.256300
vn -0.593800 -0.754700 0.278900
vn -0.620000 -0.389800 0.680900
vn -0.466100 -0.882800 0.057800
vn 0.685200 -0.591400 0.425200
vn 0.019900 0.528300 0.848800
vn 0.274100 0.660200 0.699200
vn -0.118800 0.383400 0.915900
vn 0.598600 -0.613800 0.514700
vn 0.685000 0.519800 -0.510400
vn 0.337300 0.530300 -0.777800
vn 0.860100 0.510100 -0.008100
vn 0.635200 -0.689700 -0.347500
vn 0.095600 0.372500 -0.923100
vn -0.038000 0.217400 -0.975300
vn -0.573700 -0.796200 -0.192000
vn -0.416900 -0.108100 0.902500
vn -0.306600 -0.008600 0.951800
vn 0.643200 0.605800 0.468300
vn -0.190300 0.257700 0.947300
vn -0.216400 0.175700 0.960400
vn -0.107500 0.087600 -0.990300
vn -0.133000 0.004500 -0.991100
vn -0.157100 -0.078000 -0.984500
vn -0.240200 0.093200 0.966200
vt 0.839504 0.118056
vt 0.856743 0.205307
vt 0.741230 0.205307
vt 0.734555 0.106726
vt 0.724541 0.032791
vt 0.813647 0.052618
vt 0.868992 0.081539
vt 0.913398 0.129584
vt 0.940923 0.205307
vt 0.839504 0.292557
vt 0.813647 0.357995
vt 0.724541 0.377822
vt 0.734555 0.303887
vt 0.913398 0.281029
vt 0.868992 0.329074
vt 0.369475 0.299954
vt 0.368286 0.370940
vt 0.245840 0.351447
vt 0.246397 0.288815
vt 0.246768 0.205307
vt 0.370268 0.205307
vt 0.494283 0.205307
vt 0.492822 0.304944
vt 0.490632 0.379672
vt 0.369475 0.110659
vt 0.246397 0.121798
vt 0.245841 0.059166
vt 0.368286 0.039673
vt 0.490632 0.030941
vt 0.492822 0.105669
vt 0.616755 0.103478
vt 0.619174 0.205307
vt 0.613127 0.027106
vt 0.616755 0.307135
vt 0.613126 0.383507
vt 0.123273 0.268175
vt 0.123047 0.315326
vt 0.054743 0.283353
vt 0.030912 0.249131
vt 0.030973 0.205306
vt 0.123423 0.205306
vt 0.123273 0.142438
vt 0.030912 0.161481
vt 0.054744 0.127260
vt 0.123047 0.095287
vt 0.839504 0.118056
vt 0.856743 0.205307
vt 0.968983 0.205307
vt 0.938030 0.133427
vt 0.876123 0.061548
vt 0.805028 0.030806
vt 0.721203 0.008146
vt 0.734555 0.106726
vt 0.741230 0.205307
vt 0.839504 0.292557
vt 0.805028 0.379807
vt 0.876123 0.349065
vt 0.938030 0.277186
vt 0.734555 0.303887
vt 0.721203 0.402467
vt 0.369475 0.299954
vt 0.367890 0.394602
vt 0.489902 0.404581
vt 0.492822 0.304944
vt 0.494283 0.205307
vt 0.370268 0.205307
vt 0.246768 0.205307
vt 0.246397 0.288815
vt 0.245655 0.372324
vt 0.369475 0.110659
vt 0.492822 0.105669
vt 0.489902 0.006032
vt 0.367890 0.016011
vt 0.245655 0.038289
vt 0.246397 0.121798
vt 0.616755 0.103478
vt 0.619174 0.205307
vt 0.611917 0.001649
vt 0.616755 0.307135
vt 0.611917 0.408964
vt 0.123273 0.268175
vt 0.122972 0.331043
vt 0.123423 0.205306
vt 0.000156 0.205306
vt 0.000125 0.242784
vt 0.000064 0.280261
vt 0.123273 0.142438
vt 0.122972 0.079570
vt 0.000064 0.130352
vt 0.000125 0.167829
vt 0.122972 0.331043
vt 0.030806 0.283587
vt 0.245655 0.372324
vt 0.030806 0.283587
vt 0.000125 0.167829
vt 0.030806 0.127026
vt 0.000156 0.205306
vt 0.030806 0.127026
vt 0.805028 0.030806
vt 0.873826 0.071832
vt 0.721203 0.008146
vt 0.873826 0.071832
vt 0.938030 0.277186
vt 0.873826 0.338781
vt 0.968983 0.205307
vt 0.873826 0.338781
vt 0.805028 0.379807
vt 0.721203 0.402467
vt 0.000125 0.242784
vt 0.122972 0.079570
vt 0.245655 0.038289
vt 0.938030 0.133427
vt 0.611917 0.001649
vt 0.489902 0.006032
vt 0.611917 0.408964
vt 0.489902 0.404581
vt 0.367890 0.394602
vt 0.367890 0.016011
f 1/1/1 2/2/2 3/3/3
f 1/1/1 3/3/3 4/4/4
f 1/1/1 4/4/4 5/5/5
f 1/1/1 5/5/5 6/6/6
f 1/1/1 6/6/6 7/7/7
f 1/1/1 7/7/7 8/8/8
f 1/1/1 8/8/8 9/9/9
f 1/1/1 9/9/9 2/2/2
f 10/10/10 11/11/11 12/12/12
f 10/10/10 12/12/12 13/13/13
f 10/10/10 13/13/13 3/3/3
f 10/10/10 3/3/3 2/2/2
f 10/10/10 2/2/2 9/9/9
f 10/10/10 9/9/9 14/14/14
f 10/10/10 14/14/14 15/15/15
f 10/10/10 15/15/15 11/11/11
f 16/16/16 17/17/17 18/18/18
f 16/16/16 18/18/18 19/19/19
f 16/16/16 19/19/19 20/20/20
f 16/16/16 20/20/20 21/21/21
f 16/16/16 21/21/21 22/22/22
f 16/16/16 22/22/22 23/23/23
f 16/16/16 23/23/23 24/24/24
f 16/16/16 24/24/24 17/17/17
f 25/25/25 21/21/21 20/20/20
f 25/25/25 20/20/20 26/26/26
f 25/25/25 26/26/26 27/27/27
f 25/25/25 27/27/27 28/28/28
f 25/25/25 28/28/28 29/29/29
f 25/25/25 29/29/29 30/30/30
f 25/25/25 30/30/30 22/22/22
f 25/25/25 22/22/22 21/21/21
f 31/31/31 32/32/32 22/22/22
f 31/31/31 22/22/22 30/30/30
f 31/31/31 30/30/30 29/29/29
f 31/31/31 29/29/29 33/33/33
f 31/31/31 33/33/33 5/5/5
f 31/31/31 5/5/5 4/4/4
f 31/31/31 4/4/4 3/3/3
f 31/31/31 3/3/3 32/32/32
f 34/34/34 35/35/35 24/24/24
f 34/34/34 24/24/24 23/23/23
f 34/34/34 23/23/23 22/22/22
f 34/34/34 22/22/22 32/32/32
f 34/34/34 32/32/32 3/3/3
f 34/34/34 3/3/3 13/13/13
f 34/34/34 13/13/13 12/12/12
f 34/34/34 12/12/12 35/35/35
f 36/36/36 37/37/37 38/38/38
f 36/36/36 38/38/38 39/39/39
f 36/36/36 39/39/39 40/40/40
f 36/36/36 40/40/40 41/41/41
f 36/36/36 41/41/41 20/20/20
f 36/36/36 20/20/20 19/19/19
f 36/36/36 19/19/19 18/18/18
f 36/36/36 18/18/18 37/37/37
f 42/42/42 41/41/41 40/40/40
f 42/42/42 40/40/40 43/43/43
f 42/42/42 43/43/43 44/44/44
f 42/42/42 44/44/44 45/45/45
f 42/42/42 45/45/45 27/27/27
f 42/42/42 27/27/27 26/26/26
f 42/42/42 26/26/26 20/20/20
f 42/42/42 20/20/20 41/41/41
f 46/46/46 47/47/47 48/48/48
f 46/46/46 48/48/48 49/49/49
f 46/46/46 49/49/49 50/50/50
f 46/46/46 50/50/50 51/51/51
f 46/46/46 51/51/51 52/52/52
f 46/46/46 52/52/52 53/53/53
f 46/46/46 53/53/53 54/54/54
f 46/46/46 54/54/54 47/47/47
f 55/55/55 56/56/56 57/57/57
f 55/55/55 57/57/57 58/58/58
f 55/55/55 58/58/58 48/48/48
f 55/55/55 48/48/48 47/47/47
f 55/55/55 47/47/47 54/54/54
f 55/55/55 54/54/54 59/59/59
f 55/55/55 59/59/59 60/60/60
f 55/55/55 60/60/60 56/56/56
f 61/61/61 62/62/62 63/63/63
f 61/61/61 63/63/63 64/64/64
f 61/61/61 64/64/64 65/65/65
f 61/61/61 65/65/65 66/66/66
f 61/61/61 66/66/66 67/67/67
f 61/61/61 67/67/67 68/68/68
f 61/61/61 68/68/68 69/69/69
f 61/61/61 69/69/69 62/62/62
f 70/70/70 66/66/66 65/65/65
f 70/70/70 65/65/65 71/71/71
f 70/70/70 71/71/71 72/72/72
f 70/70/70 72/72/72 73/73/73
f 70/70/70 73/73/73 74/74/74
f 70/70/70 74/74/74 75/75/75
f 70/70/70 75/75/75 67/67/67
f 70/70/70 67/67/67 66/66/66
f 76/76/76 77/77/77 54/54/54
f 76/76/76 54/54/54 53/53/53
f 76/76/76 53/53/53 52/52/52
f 76/76/76 52/52/52 78/78/78
f 76/76/76 78/78/78 72/72/72
f 76/76/76 72/72/72 71/71/71
f 76/76/76 71/71/71 65/65/65
f 76/76/76 65/65/65 77/77/77
f 79/79/79 80/80/80 60/60/60
f 79/79/79 60/60/60 59/59/59
f 79/79/79 59/59/59 54/54/54
f 79/79/79 54/54/54 77/77/77
f 79/79/79 77/77/77 65/65/65
f 79/79/79 65/65/65 64/64/64
f 79/79/79 64/64/64 63/63/63
f 79/79/79 63/63/63 80/80/80
f 81/81/81 82/82/82 69/69/69
f 81/81/81 69/69/69 68/68/68
f 81/81/81 68/68/68 67/67/67
f 81/81/81 67/67/67 83/83/83
f 81/81/81 83/83/83 84/84/84
f 81/81/81 84/84/84 85/85/85
f 81/81/81 85/85/85 86/86/86
f 81/81/81 86/86/86 82/82/82
f 87/87/87 83/83/83 67/67/67
f 87/87/87 67/67/67 75/75/75
f 87/87/87 75/75/75 74/74/74
f 87/87/87 74/74/74 88/88/88
f 87/87/87 88/88/88 89/89/89
f 87/87/87 89/89/89 90/90/90
f 87/87/87 90/90/90 84/84/84
f 87/87/87 84/84/84 83/83/83
f 91/91/91 92/92/92 38/38/38
f 91/91/91 38/38/38 37/37/37
f 91/91/91 37/37/37 18/18/18
f 91/91/91 18/18/18 93/93/93
f 91/91/91 93/93/93 69/69/69
f 91/91/91 69/69/69 82/82/82
f 91/91/91 82/82/82 94/94/94
f 91/91/91 94/94/94 92/92/92
f 95/95/95 96/96/96 44/44/44
f 95/95/95 44/44/44 43/43/43
f 95/95/95 43/43/43 40/40/40
f 95/95/95 40/40/40 97/97/97
f 95/95/95 97/97/97 84/84/84
f 95/95/95 84/84/84 90/90/90
f 95/95/95 90/90/90 98/98/98
f 95/95/95 98/98/98 96/96/96
f 99/99/99 100/100/100 7/7/7
f 99/99/99 7/7/7 6/6/6
f 99/99/99 6/6/6 5/5/5
f 99/99/99 5/5/5 101/101/101
f 99/99/99 101/101/101 52/52/52
f 99/99/99 52/52/52 51/51/51
f 99/99/99 51/51/51 102/102/102
f 99/99/99 102/102/102 100/100/100
f 103/103/103 104/104/104 15/15/15
f 103/103/103 15/15/15 14/14/14
f 103/103/103 14/14/14 9/9/9
f 103/103/103 9/9/9 105/105/105
f 103/103/103 105/105/105 48/48/48
f 103/103/103 48/48/48 58/58/58
f 103/103/103 58/58/58 106/106/106
f 103/103/103 106/106/106 104/104/104
f 107/107/107 108/108/108 12/12/12
f 107/107/107 12/12/12 11/11/11
f 107/107/107 11/11/11 15/15/15
f 107/107/107 15/15/15 104/104/104
f 107/107/107 104/104/104 106/106/106
f 107/107/107 106/106/106 56/56/56
f 107/107/107 56/56/56 60/60/60
f 107/107/107 60/60/60 108/108/108
f 109/109/109 97/97/97 40/40/40
f 109/109/109 40/40/40 39/39/39
f 109/109/109 39/39/39 38/38/38
f 109/109/109 38/38/38 92/92/92
f 109/109/109 92/92/92 94/94/94
f 109/109/109 94/94/94 85/85/85
f 109/109/109 85/85/85 84/84/84
f 109/109/109 84/84/84 97/97/97
f 110/110/110 111/111/111 27/27/27
f 110/110/110 27/27/27 45/45/45
f 110/110/110 45/45/45 44/44/44
f 110/110/110 44/44/44 96/96/96
f 110/110/110 96/96/96 98/98/98
f 110/110/110 98/98/98 88/88/88
f 110/110/110 88/88/88 74/74/74
f 110/110/110 74/74/74 111/111/111
f 112/112/112 105/105/105 9/9/9
f 112/112/112 9/9/9 8/8/8
f 112/112/112 8/8/8 7/7/7
f 112/112/112 7/7/7 100/100/100
f 112/112/112 100/100/100 102/102/102
f 112/112/112 102/102/102 49/49/49
f 112/112/112 49/49/49 48/48/48
f 112/112/112 48/48/48 105/105/105
f 113/113/113 101/101/101 5/5/5
f 113/113/113 5/5/5 33/33/33
f 113/113/113 33/33/33 29/29/29
f 113/113/113 29/29/29 114/114/114
f 113/113/113 114/114/114 72/72/72
f 113/113/113 72/72/72 78/78/78
f 113/113/113 78/78/78 52/52/52
f 113/113/113 52/52/52 101/101/101
f 115/115/115 116/116/116 24/24/24
f 115/115/115 24/24/24 35/35/35
f 115/115/115 35/35/35 12/12/12
f 115/115/115 12/12/12 108/108/108
f 115/115/115 108/108/108 60/60/60
f 115/115/115 60/60/60 80/80/80
f 115/115/115 80/80/80 63/63/63
f 115/115/115 63/63/63 116/116/116
f 117/117/117 93/93/93 18/18/18
f 117/117/117 18/18/18 17/17/17
f 117/117/117 17/17/17 24/24/24
f 117/117/117 24/24/24 116/116/116
f 117/117/117 116/116/116 63/63/63
f 117/117/117 63/63/63 62/62/62
f 117/117/117 62/62/62 69/69/69
f 117/117/117 69/69/69 93/93/93
f 118/118/118 114/114/114 29/29/29
f 118/118/118 29/29/29 28/28/28
f 118/118/118 28/28/28 27/27/27
f 118/118/118 27/27/27 111/111/111
f 118/118/118 111/111/111 74/74/74
f 118/118/118 74/74/74 73/73/73
f 118/118/118 73/73/73 72/72/72
f 118/118/118 72/72/72 114/114/114
