v -2.387459 0.733538 -1.055137
v -2.387408 0.733173 -1.053173
v -2.385461 0.731597 -1.054067
v -2.385768 0.732143 -1.056199
v -2.385790 0.732629 -1.057851
v -2.387150 0.733792 -1.056724
v -2.388035 0.734283 -1.055678
v -2.388702 0.734430 -1.054313
v -2.388893 0.734255 -1.052515
v -2.386384 0.732801 -1.051498
v -2.385266 0.732499 -1.050342
v -2.383649 0.731160 -1.050602
v -2.384547 0.731305 -1.052064
v -2.387772 0.733791 -1.051163
v -2.386509 0.733236 -1.050510
v -2.379462 0.725314 -1.054826
v -2.378831 0.725117 -1.053333
v -2.377578 0.722881 -1.054619
v -2.378148 0.723050 -1.055938
v -2.378806 0.723333 -1.057708
v -2.380195 0.725640 -1.056830
v -2.381738 0.727823 -1.055932
v -2.380956 0.727495 -1.053838
v -2.380272 0.727309 -1.052279
v -2.380659 0.726135 -1.058879
v -2.379206 0.723776 -1.059521
v -2.379432 0.724154 -1.060899
v -2.380928 0.726556 -1.060433
v -2.382465 0.728814 -1.059706
v -2.382208 0.728354 -1.058077
v -2.383964 0.730386 -1.057181
v -2.383532 0.729811 -1.054999
v -2.384157 0.730904 -1.058845
v -2.382694 0.729514 -1.052880
v -2.381931 0.729377 -1.051308
v -2.376950 0.720782 -1.057264
v -2.376484 0.720679 -1.056286
v -2.376029 0.719454 -1.057454
v -2.376115 0.719064 -1.058334
v -2.376512 0.719173 -1.059228
v -2.377471 0.720975 -1.058580
v -2.377739 0.721324 -1.059939
v -2.376656 0.719436 -1.060166
v -2.377003 0.720122 -1.060751
v -2.377869 0.721629 -1.060975
v -2.387601 0.733387 -1.055156
v -2.387544 0.733014 -1.053165
v -2.388992 0.734134 -1.052510
v -2.388807 0.734315 -1.054330
v -2.388115 0.734200 -1.055696
v -2.387260 0.733683 -1.056752
v -2.385903 0.732523 -1.057873
v -2.385916 0.731996 -1.056213
v -2.385602 0.731444 -1.054057
v -2.386510 0.732638 -1.051463
v -2.385355 0.732376 -1.050302
v -2.386575 0.733144 -1.050485
v -2.387864 0.733667 -1.051137
v -2.384680 0.731148 -1.052029
v -2.383744 0.731041 -1.050563
v -2.379623 0.725185 -1.054785
v -2.378948 0.725020 -1.053294
v -2.380383 0.727205 -1.052241
v -2.381110 0.727358 -1.053800
v -2.381897 0.727688 -1.055912
v -2.380362 0.725514 -1.056806
v -2.378977 0.723214 -1.057681
v -2.378313 0.722928 -1.055894
v -2.377698 0.722788 -1.054578
v -2.380830 0.726014 -1.058872
v -2.382372 0.728224 -1.058075
v -2.382591 0.728719 -1.059714
v -2.381058 0.726467 -1.060438
v -2.379566 0.724070 -1.060902
v -2.379382 0.723661 -1.059513
v -2.384120 0.730246 -1.057187
v -2.383682 0.729666 -1.054984
v -2.384276 0.730803 -1.058860
v -2.382837 0.729366 -1.052844
v -2.382035 0.729265 -1.051270
v -2.377116 0.720662 -1.057218
v -2.376605 0.720588 -1.056242
v -2.377643 0.720859 -1.058553
v -2.376641 0.719086 -1.059208
v -2.376239 0.718975 -1.058298
v -2.376120 0.719387 -1.057424
v -2.377917 0.721211 -1.059930
v -2.378004 0.721548 -1.060979
v -2.377102 0.720061 -1.060751
v -2.376789 0.719352 -1.060161
v -2.376381 0.720604 -1.055938
v -2.375772 0.718988 -1.057621
v -2.377441 0.722783 -1.054159
v -2.376120 0.719387 -1.057424
v -2.376354 0.718769 -1.060240
v -2.376748 0.719657 -1.060924
v -2.376249 0.718534 -1.059435
v -2.377102 0.720061 -1.060751
v -2.387097 0.733829 -1.057268
v -2.388156 0.734426 -1.055852
v -2.385848 0.732745 -1.058414
v -2.388115 0.734200 -1.055696
v -2.388275 0.734066 -1.051040
v -2.386505 0.733292 -1.050261
v -2.389431 0.734561 -1.052294
v -2.386575 0.733144 -1.050485
v -2.384931 0.732343 -1.049936
v -2.383391 0.731059 -1.050094
v -2.375892 0.718452 -1.058674
v -2.377972 0.721695 -1.061324
v -2.379568 0.724243 -1.061361
v -2.389163 0.734675 -1.054046
v -2.384275 0.731033 -1.059409
v -2.382607 0.728926 -1.060255
v -2.381722 0.729281 -1.050765
v -2.380093 0.727200 -1.051741
v -2.378672 0.725008 -1.052816
v -2.381075 0.726658 -1.060955
vn 0.669300 0.721200 0.178400
vn 0.608200 0.793500 -0.018800
vn 0.651700 0.757500 -0.038900
vn 0.708700 0.692100 0.136600
vn 0.724400 0.678900 0.119300
vn 0.668700 0.723700 0.170800
vn 0.625600 0.752500 0.205700
vn 0.592800 0.786700 0.172100
vn 0.536100 0.844000 0.012800
vn 0.549000 0.803800 -0.229200
vn 0.552500 0.803400 -0.222000
vn 0.621900 0.749300 -0.227500
vn 0.601000 0.766000 -0.227900
vn 0.494500 0.854200 -0.160700
vn 0.501000 0.838000 -0.216200
vn 0.773100 0.593600 -0.223400
vn 0.790400 0.581800 -0.191700
vn 0.807500 0.555200 -0.199000
vn 0.787000 0.567900 -0.241100
vn 0.829900 0.541200 -0.135400
vn 0.808500 0.575600 -0.122100
vn 0.761200 0.641500 -0.094800
vn 0.726200 0.654100 -0.211400
vn 0.746000 0.637700 -0.191800
vn 0.833500 0.552200 -0.018800
vn 0.851800 0.523400 -0.021600
vn 0.845800 0.528900 -0.069500
vn 0.830300 0.554400 -0.056600
vn 0.798800 0.601500 -0.013200
vn 0.794000 0.607600 0.018200
vn 0.747200 0.660200 0.076400
vn 0.702500 0.708800 -0.063800
vn 0.761100 0.646500 0.051900
vn 0.661700 0.718800 -0.213000
vn 0.684900 0.698800 -0.206200
vn 0.784000 0.559300 -0.269100
vn 0.809000 0.542600 -0.225800
vn 0.805200 0.532800 -0.260400
vn 0.801000 0.514200 -0.306400
vn 0.864500 0.476900 -0.158700
vn 0.839400 0.524600 -0.141600
vn 0.863000 0.505100 -0.001500
vn 0.892200 0.451600 0.002100
vn 0.873400 0.486000 -0.028700
vn 0.859700 0.507900 -0.054000
vn -0.690000 -0.696700 -0.196300
vn -0.620400 -0.783900 0.024400
vn -0.665900 -0.744700 0.045700
vn -0.743800 -0.619700 -0.250200
vn -0.763500 -0.545800 -0.345100
vn -0.757600 -0.564800 -0.327200
vn -0.757700 -0.596800 -0.264100
vn -0.711900 -0.685900 -0.150300
vn -0.651600 -0.757600 0.038900
vn -0.554400 -0.789700 0.262600
vn -0.529000 -0.721600 0.446500
vn -0.522600 -0.711100 0.470400
vn -0.563600 -0.743400 0.360100
vn -0.596000 -0.765500 0.242400
vn -0.565500 -0.728700 0.386200
vn -0.766400 -0.596600 0.238000
vn -0.714000 -0.613800 0.336700
vn -0.679400 -0.655400 0.330000
vn -0.720300 -0.656000 0.225200
vn -0.761300 -0.641400 0.094800
vn -0.808600 -0.575500 0.122200
vn -0.830000 -0.541100 0.135500
vn -0.778100 -0.573000 0.257400
vn -0.703500 -0.613000 0.359500
vn -0.835800 -0.549000 0.003000
vn -0.796400 -0.603800 -0.032500
vn -0.816700 -0.561100 -0.134600
vn -0.845100 -0.523900 -0.106900
vn -0.847900 -0.513900 -0.129800
vn -0.853300 -0.521300 0.002600
vn -0.749700 -0.655600 -0.090100
vn -0.702500 -0.708800 0.063800
vn -0.780900 -0.593600 -0.194100
vn -0.656100 -0.719800 0.226500
vn -0.621500 -0.703000 0.345600
vn -0.763900 -0.578200 0.286300
vn -0.657200 -0.641500 0.395600
vn -0.833700 -0.534700 0.137900
vn -0.806900 -0.578100 0.121200
vn -0.694400 -0.639900 0.329100
vn -0.624900 -0.661800 0.414100
vn -0.857000 -0.514400 -0.029000
vn -0.830700 -0.522500 -0.192100
vn -0.815300 -0.531100 -0.230600
vn -0.827100 -0.548800 -0.120600
vn 0.599600 -0.365700 0.711800
vn 0.717600 -0.583200 0.380600
vn 0.514100 -0.279900 0.810800
vn -0.624900 -0.661800 0.414100
vn 0.432100 -0.732200 -0.526400
vn 0.345700 -0.328000 -0.879100
vn 0.376500 -0.880000 -0.289500
vn -0.815300 -0.531100 -0.230600
vn -0.266900 0.614600 -0.742300
vn -0.451800 0.734600 -0.506200
vn -0.165300 0.475600 -0.864000
vn -0.763500 -0.545800 -0.345100
vn -0.455200 0.475300 0.752900
vn -0.039100 0.451500 0.891400
vn -0.783600 0.521600 0.337400
vn -0.522600 -0.711100 0.470400
vn 0.228200 0.274700 0.934000
vn 0.363200 0.112900 0.924800
vn 0.563400 -0.822100 -0.082200
vn 0.095600 -0.019700 -0.995200
vn -0.019300 0.086100 -0.996100
vn -0.728400 0.663000 -0.172800
vn -0.113900 0.352200 -0.928900
vn -0.097500 0.271400 -0.957500
vn 0.427000 -0.018800 0.904000
vn 0.447500 -0.102500 0.888400
vn 0.463600 -0.184100 0.866700
vn -0.081500 0.190100 -0.978400
vt 0.839504 0.118056
vt 0.856743 0.205307
vt 0.741230 0.205307
vt 0.734555 0.106726
vt 0.724541 0.032791
vt 0.813647 0.052618
vt 0.868992 0.081539
vt 0.913398 0.129584
vt 0.940923 0.205307
vt 0.839504 0.292557
vt 0.813647 0.357995
vt 0.724541 0.377822
vt 0.734555 0.303887
vt 0.913398 0.281029
vt 0.868992 0.329074
vt 0.369475 0.299954
vt 0.368286 0.370940
vt 0.245840 0.351447
vt 0.246397 0.288815
vt 0.246768 0.205307
vt 0.370268 0.205307
vt 0.494283 0.205307
vt 0.492822 0.304944
vt 0.490632 0.379672
vt 0.369475 0.110659
vt 0.246397 0.121798
vt 0.245841 0.059166
vt 0.368286 0.039673
vt 0.490632 0.030941
vt 0.492822 0.105669
vt 0.616755 0.103478
vt 0.619174 0.205307
vt 0.613127 0.027106
vt 0.616755 0.307135
vt 0.613126 0.383507
vt 0.123273 0.268175
vt 0.123047 0.315326
vt 0.054743 0.283353
vt 0.030912 0.249131
vt 0.030973 0.205306
vt 0.123423 0.205306
vt 0.123273 0.142438
vt 0.030912 0.161481
vt 0.054744 0.127260
vt 0.123047 0.095287
vt 0.839504 0.118056
vt 0.856743 0.205307
vt 0.968983 0.205307
vt 0.938030 0.133427
vt 0.876123 0.061548
vt 0.805028 0.030806
vt 0.721203 0.008146
vt 0.734555 0.106726
vt 0.741230 0.205307
vt 0.839504 0.292557
vt 0.805028 0.379807
vt 0.876123 0.349065
vt 0.938030 0.277186
vt 0.734555 0.303887
vt 0.721203 0.402467
vt 0.369475 0.299954
vt 0.367890 0.394602
vt 0.489902 0.404581
vt 0.492822 0.304944
vt 0.494283 0.205307
vt 0.370268 0.205307
vt 0.246768 0.205307
vt 0.246397 0.288815
vt 0.245655 0.372324
vt 0.369475 0.110659
vt 0.492822 0.105669
vt 0.489902 0.006032
vt 0.367890 0.016011
vt 0.245655 0.038289
vt 0.246397 0.121798
vt 0.616755 0.103478
vt 0.619174 0.205307
vt 0.611917 0.001649
vt 0.616755 0.307135
vt 0.611917 0.408964
vt 0.123273 0.268175
vt 0.122972 0.331043
vt 0.123423 0.205306
vt 0.000156 0.205306
vt 0.000125 0.242784
vt 0.000064 0.280261
vt 0.123273 0.142438
vt 0.122972 0.079570
vt 0.000064 0.130352
vt 0.000125 0.167829
vt 0.122972 0.331043
vt 0.030806 0.283587
vt 0.245655 0.372324
vt 0.030806 0.283587
vt 0.000125 0.167829
vt 0.030806 0.127026
vt 0.000156 0.205306
vt 0.030806 0.127026
vt 0.805028 0.030806
vt 0.873826 0.071832
vt 0.721203 0.008146
vt 0.873826 0.071832
vt 0.938030 0.277186
vt 0.873826 0.338781
vt 0.968983 0.205307
vt 0.873826 0.338781
vt 0.805028 0.379807
vt 0.721203 0.402467
vt 0.000125 0.242784
vt 0.122972 0.079570
vt 0.245655 0.038289
vt 0.938030 0.133427
vt 0.611917 0.001649
vt 0.489902 0.006032
vt 0.611917 0.408964
vt 0.489902 0.404581
vt 0.367890 0.394602
vt 0.367890 0.016011
f 1/1/1 2/2/2 3/3/3
f 1/1/1 3/3/3 4/4/4
f 1/1/1 4/4/4 5/5/5
f 1/1/1 5/5/5 6/6/6
f 1/1/1 6/6/6 7/7/7
f 1/1/1 7/7/7 8/8/8
f 1/1/1 8/8/8 9/9/9
f 1/1/1 9/9/9 2/2/2
f 10/10/10 11/11/11 12/12/12
f 10/10/10 12/12/12 13/13/13
f 10/10/10 13/13/13 3/3/3
f 10/10/10 3/3/3 2/2/2
f 10/10/10 2/2/2 9/9/9
f 10/10/10 9/9/9 14/14/14
f 10/10/10 14/14/14 15/15/15
f 10/10/10 15/15/15 11/11/11
f 16/16/16 17/17/17 18/18/18
f 16/16/16 18/18/18 19/19/19
f 16/16/16 19/19/19 20/20/20
f 16/16/16 20/20/20 21/21/21
f 16/16/16 21/21/21 22/22/22
f 16/16/16 22/22/22 23/23/23
f 16/16/16 23/23/23 24/24/24
f 16/16/16 24/24/24 17/17/17
f 25/25/25 21/21/21 20/20/20
f 25/25/25 20/20/20 26/26/26
f 25/25/25 26/26/26 27/27/27
f 25/25/25 27/27/27 28/28/28
f 25/25/25 28/28/28 29/29/29
f 25/25/25 29/29/29 30/30/30
f 25/25/25 30/30/30 22/22/22
f 25/25/25 22/22/22 21/21/21
f 31/31/31 32/32/32 22/22/22
f 31/31/31 22/22/22 30/30/30
f 31/31/31 30/30/30 29/29/29
f 31/31/31 29/29/29 33/33/33
f 31/31/31 33/33/33 5/5/5
f 31/31/31 5/5/5 4/4/4
f 31/31/31 4/4/4 3/3/3
f 31/31/31 3/3/3 32/32/32
f 34/34/34 35/35/35 24/24/24
f 34/34/34 24/24/24 23/23/23
f 34/34/34 23/23/23 22/22/22
f 34/34/34 22/22/22 32/32/32
f 34/34/34 32/32/32 3/3/3
f 34/34/34 3/3/3 13/13/13
f 34/34/34 13/13/13 12/12/12
f 34/34/34 12/12/12 35/35/35
f 36/36/36 37/37/37 38/38/38
f 36/36/36 38/38/38 39/39/39
f 36/36/36 39/39/39 40/40/40
f 36/36/36 40/40/40 41/41/41
f 36/36/36 41/41/41 20/20/20
f 36/36/36 20/20/20 19/19/19
f 36/36/36 19/19/19 18/18/18
f 36/36/36 18/18/18 37/37/37
f 42/42/42 41/41/41 40/40/40
f 42/42/42 40/40/40 43/43/43
f 42/42/42 43/43/43 44/44/44
f 42/42/42 44/44/44 45/45/45
f 42/42/42 45/45/45 27/27/27
f 42/42/42 27/27/27 26/26/26
f 42/42/42 26/26/26 20/20/20
f 42/42/42 20/20/20 41/41/41
f 46/46/46 47/47/47 48/48/48
f 46/46/46 48/48/48 49/49/49
f 46/46/46 49/49/49 50/50/50
f 46/46/46 50/50/50 51/51/51
f 46/46/46 51/51/51 52/52/52
f 46/46/46 52/52/52 53/53/53
f 46/46/46 53/53/53 54/54/54
f 46/46/46 54/54/54 47/47/47
f 55/55/55 56/56/56 57/57/57
f 55/55/55 57/57/57 58/58/58
f 55/55/55 58/58/58 48/48/48
f 55/55/55 48/48/48 47/47/47
f 55/55/55 47/47/47 54/54/54
f 55/55/55 54/54/54 59/59/59
f 55/55/55 59/59/59 60/60/60
f 55/55/55 60/60/60 56/56/56
f 61/61/61 62/62/62 63/63/63
f 61/61/61 63/63/63 64/64/64
f 61/61/61 64/64/64 65/65/65
f 61/61/61 65/65/65 66/66/66
f 61/61/61 66/66/66 67/67/67
f 61/61/61 67/67/67 68/68/68
f 61/61/61 68/68/68 69/69/69
f 61/61/61 69/69/69 62/62/62
f 70/70/70 66/66/66 65/65/65
f 70/70/70 65/65/65 71/71/71
f 70/70/70 71/71/71 72/72/72
f 70/70/70 72/72/72 73/73/73
f 70/70/70 73/73/73 74/74/74
f 70/70/70 74/74/74 75/75/75
f 70/70/70 75/75/75 67/67/67
f 70/70/70 67/67/67 66/66/66
f 76/76/76 77/77/77 54/54/54
f 76/76/76 54/54/54 53/53/53
f 76/76/76 53/53/53 52/52/52
f 76/76/76 52/52/52 78/78/78
f 76/76/76 78/78/78 72/72/72
f 76/76/76 72/72/72 71/71/71
f 76/76/76 71/71/71 65/65/65
f 76/76/76 65/65/65 77/77/77
f 79/79/79 80/80/80 60/60/60
f 79/79/79 60/60/60 59/59/59
f 79/79/79 59/59/59 54/54/54
f 79/79/79 54/54/54 77/77/77
f 79/79/79 77/77/77 65/65/65
f 79/79/79 65/65/65 64/64/64
f 79/79/79 64/64/64 63/63/63
f 79/79/79 63/63/63 80/80/80
f 81/81/81 82/82/82 69/69/69
f 81/81/81 69/69/69 68/68/68
f 81/81/81 68/68/68 67/67/67
f 81/81/81 67/67/67 83/83/83
f 81/81/81 83/83/83 84/84/84
f 81/81/81 84/84/84 85/85/85
f 81/81/81 85/85/85 86/86/86
f 81/81/81 86/86/86 82/82/82
f 87/87/87 83/83/83 67/67/67
f 87/87/87 67/67/67 75/75/75
f 87/87/87 75/75/75 74/74/74
f 87/87/87 74/74/74 88/88/88
f 87/87/87 88/88/88 89/89/89
f 87/87/87 89/89/89 90/90/90
f 87/87/87 90/90/90 84/84/84
f 87/87/87 84/84/84 83/83/83
f 91/91/91 92/92/92 38/38/38
f 91/91/91 38/38/38 37/37/37
f 91/91/91 37/37/37 18/18/18
f 91/91/91 18/18/18 93/93/93
f 91/91/91 93/93/93 69/69/69
f 91/91/91 69/69/69 82/82/82
f 91/91/91 82/82/82 94/94/94
f 91/91/91 94/94/94 92/92/92
f 95/95/95 96/96/96 44/44/44
f 95/95/95 44/44/44 43/43/43
f 95/95/95 43/43/43 40/40/40
f 95/95/95 40/40/40 97/97/97
f 95/95/95 97/97/97 84/84/84
f 95/95/95 84/84/84 90/90/90
f 95/95/95 90/90/90 98/98/98
f 95/95/95 98/98/98 96/96/96
f 99/99/99 100/100/100 7/7/7
f 99/99/99 7/7/7 6/6/6
f 99/99/99 6/6/6 5/5/5
f 99/99/99 5/5/5 101/101/101
f 99/99/99 101/101/101 52/52/52
f 99/99/99 52/52/52 51/51/51
f 99/99/99 51/51/51 102/102/102
f 99/99/99 102/102/102 100/100/100
f 103/103/103 104/104/104 15/15/15
f 103/103/103 15/15/15 14/14/14
f 103/103/103 14/14/14 9/9/9
f 103/103/103 9/9/9 105/105/105
f 103/103/103 105/105/105 48/48/48
f 103/103/103 48/48/48 58/58/58
f 103/103/103 58/58/58 106/106/106
f 103/103/103 106/106/106 104/104/104
f 107/107/107 108/108/108 12/12/12
f 107/107/107 12/12/12 11/11/11
f 107/107/107 11/11/11 15/15/15
f 107/107/107 15/15/15 104/104/104
f 107/107/107 104/104/104 106/106/106
f 107/107/107 106/106/106 56/56/56
f 107/107/107 56/56/56 60/60/60
f 107/107/107 60/60/60 108/108/108
f 109/109/109 97/97/97 40/40/40
f 109/109/109 40/40/40 39/39/39
f 109/109/109 39/39/39 38/38/38
f 109/109/109 38/38/38 92/92/92
f 109/109/109 92/92/92 94/94/94
f 109/109/109 94/94/94 85/85/85
f 109/109/109 85/85/85 84/84/84
f 109/109/109 84/84/84 97/97/97
f 110/110/110 111/111/111 27/27/27
f 110/110/110 27/27/27 45/45/45
f 110/110/110 45/45/45 44/44/44
f 110/110/110 44/44/44 96/96/96
f 110/110/110 96/96/96 98/98/98
f 110/110/110 98/98/98 88/88/88
f 110/110/110 88/88/88 74/74/74
f 110/110/110 74/74/74 111/111/111
f 112/112/112 105/105/105 9/9/9
f 112/112/112 9/9/9 8/8/8
f 112/112/112 8/8/8 7/7/7
f 112/112/112 7/7/7 100/100/100
f 112/112/112 100/100/100 102/102/102
f 112/112/112 102/102/102 49/49/49
f 112/112/112 49/49/49 48/48/48
f 112/112/112 48/48/48 105/105/105
f 113/113/113 101/101/101 5/5/5
f 113/113/113 5/5/5 33/33/33
f 113/113/113 33/33/33 29/29/29
f 113/113/113 29/29/29 114/114/114
f 113/113/113 114/114/114 72/72/72
f 113/113/113 72/72/72 78/78/78
f 113/113/113 78/78/78 52/52/52
f 113/113/113 52/52/52 101/101/101
f 115/115/115 116/116/116 24/24/24
f 115/115/115 24/24/24 35/35/35
f 115/115/115 35/35/35 12/12/12
f 115/115/115 12/12/12 108/108/108
f 115/115/115 108/108/108 60/60/60
f 115/115/115 60/60/60 80/80/80
f 115/115/115 80/80/80 63/63/63
f 115/115/115 63/63/63 116/116/116
f 117/117/117 93/93/93 18/18/18
f 117/117/117 18/18/18 17/17/17
f 117/117/117 17/17/17 24/24/24
f 117/117/117 24/24/24 116/116/116
f 117/117/117 116/116/116 63/63/63
f 117/117/117 63/63/63 62/62/62
f 117/117/117 62/62/62 69/69/69
f 117/117/117 69/69/69 93/93/93
f 118/118/118 114/114/114 29/29/29
f 118/118/118 29/29/29 28/28/28
f 118/118/118 28/28/28 27/27/27
f 118/118/118 27/27/27 111/111/111
f 118/118/118 111/111/111 74/74/74
f 118/118/118 74/74/74 73/73/73
f 118/118/118 73/73/73 72/72/72
f 118/118/118 72/72/72 114/114/114
