v -2.388515 0.734554 -1.062500
v -2.389632 0.734119 -1.060489
v -2.387362 0.731984 -1.060428
v -2.386384 0.732669 -1.062743
v -2.385399 0.733240 -1.064409
v -2.387263 0.734803 -1.063932
v -2.388690 0.735511 -1.063322
v -2.390125 0.735785 -1.062289
v -2.391366 0.735609 -1.060569
v -2.389598 0.733524 -1.058224
v -2.389162 0.732996 -1.056433
v -2.387557 0.731187 -1.055890
v -2.387615 0.731498 -1.057883
v -2.391062 0.734893 -1.058588
v -2.390228 0.734047 -1.057249
v -2.381702 0.723744 -1.058309
v -2.381938 0.723414 -1.056438
v -2.380240 0.720621 -1.057222
v -2.380045 0.720908 -1.058881
v -2.379665 0.721344 -1.061043
v -2.381260 0.724240 -1.060749
v -2.383038 0.727017 -1.060530
v -2.383482 0.726511 -1.057970
v -2.383701 0.726185 -1.056001
v -2.380496 0.724891 -1.063071
v -2.378978 0.721923 -1.063092
v -2.378371 0.722399 -1.064602
v -2.379825 0.725424 -1.064782
v -2.381491 0.728288 -1.064729
v -2.382221 0.727711 -1.062951
v -2.384235 0.730346 -1.062867
v -2.385118 0.729608 -1.060433
v -2.383412 0.730980 -1.064640
v -2.385515 0.729128 -1.057813
v -2.385655 0.728846 -1.055782
v -2.378383 0.718087 -1.059740
v -2.378482 0.717893 -1.058483
v -2.377523 0.716401 -1.059517
v -2.377162 0.715963 -1.060497
v -2.377040 0.716153 -1.061629
v -2.378136 0.718396 -1.061366
v -2.377587 0.718844 -1.062882
v -2.376616 0.716482 -1.062651
v -2.376541 0.717334 -1.063392
v -2.377086 0.719221 -1.063993
v -2.388669 0.734401 -1.062612
v -2.389796 0.733956 -1.060570
v -2.391486 0.735484 -1.060629
v -2.390237 0.735667 -1.062374
v -2.388771 0.735427 -1.063392
v -2.387373 0.734693 -1.064031
v -2.385516 0.733134 -1.064504
v -2.386547 0.732521 -1.062851
v -2.387532 0.731828 -1.060509
v -2.389768 0.733355 -1.058272
v -2.389292 0.732867 -1.056452
v -2.390322 0.733951 -1.057268
v -2.391187 0.734763 -1.058622
v -2.387792 0.731336 -1.057934
v -2.387692 0.731064 -1.055914
v -2.381906 0.723619 -1.058367
v -2.382093 0.723319 -1.056471
v -2.383850 0.726081 -1.056034
v -2.383679 0.726375 -1.058028
v -2.383229 0.726885 -1.060610
v -2.381460 0.724120 -1.060829
v -2.379870 0.721232 -1.061122
v -2.380254 0.720792 -1.058939
v -2.380399 0.720532 -1.057255
v -2.380689 0.724777 -1.063170
v -2.382406 0.727586 -1.063053
v -2.381626 0.728197 -1.064816
v -2.379967 0.725341 -1.064867
v -2.378517 0.722322 -1.064686
v -2.379177 0.721817 -1.063191
v -2.384409 0.730208 -1.062972
v -2.385298 0.729463 -1.060513
v -2.383538 0.730882 -1.064731
v -2.385701 0.728979 -1.057868
v -2.385797 0.728732 -1.055811
v -2.378595 0.717974 -1.059796
v -2.378642 0.717806 -1.058513
v -2.378343 0.718288 -1.061445
v -2.377195 0.716072 -1.061688
v -2.377321 0.715878 -1.060538
v -2.377641 0.716337 -1.059543
v -2.377788 0.718742 -1.062983
v -2.377233 0.719148 -1.064079
v -2.376651 0.717279 -1.063453
v -2.376766 0.716405 -1.062727
v -2.378586 0.717790 -1.058075
v -2.377231 0.715819 -1.059580
v -2.380376 0.720485 -1.056681
v -2.377641 0.716337 -1.059543
v -2.376360 0.715660 -1.062608
v -2.376248 0.716754 -1.063462
v -2.376744 0.715369 -1.061743
v -2.376651 0.717279 -1.063453
v -2.386893 0.734838 -1.064457
v -2.388694 0.735696 -1.063558
v -2.385122 0.733384 -1.065009
v -2.388771 0.735427 -1.063392
v -2.391605 0.735291 -1.058724
v -2.390358 0.734113 -1.056988
v -2.391996 0.736050 -1.060622
v -2.390322 0.733951 -1.057268
v -2.389075 0.732762 -1.055840
v -2.387598 0.731028 -1.055233
v -2.376826 0.715217 -1.060768
v -2.376983 0.719315 -1.064404
v -2.378233 0.722524 -1.065145
v -2.390710 0.736142 -1.062257
v -2.383193 0.731149 -1.065274
v -2.381307 0.728441 -1.065363
v -2.385766 0.728701 -1.055115
v -2.383841 0.726029 -1.055357
v -2.382086 0.723261 -1.055827
v -2.379664 0.725566 -1.065392
vn 0.577300 0.624500 0.526000
vn 0.628700 0.704600 0.329000
vn 0.671900 0.663100 0.329900
vn 0.628300 0.590500 0.506500
vn 0.648800 0.575400 0.498000
vn 0.580600 0.627200 0.519200
vn 0.529900 0.661200 0.531000
vn 0.521800 0.699600 0.488100
vn 0.556800 0.764300 0.325100
vn 0.680900 0.722900 0.117300
vn 0.680300 0.722100 0.125200
vn 0.736800 0.659100 0.150200
vn 0.720800 0.678500 0.141000
vn 0.606300 0.780100 0.154200
vn 0.637000 0.763200 0.107800
vn 0.847600 0.484600 0.216300
vn 0.845700 0.470500 0.251600
vn 0.861000 0.441800 0.251700
vn 0.865200 0.457300 0.205800
vn 0.847800 0.424900 0.317100
vn 0.826900 0.461900 0.320700
vn 0.780300 0.533500 0.326200
vn 0.808200 0.550900 0.208200
vn 0.813900 0.531900 0.233800
vn 0.795600 0.435200 0.421500
vn 0.809400 0.404200 0.425900
vn 0.828100 0.410700 0.381500
vn 0.811500 0.437900 0.387000
vn 0.768500 0.488700 0.412800
vn 0.749900 0.495300 0.438500
vn 0.687200 0.553700 0.470300
vn 0.722300 0.608000 0.329400
vn 0.709600 0.538300 0.454600
vn 0.760700 0.623600 0.180000
vn 0.775100 0.600700 0.195800
vn 0.875200 0.449200 0.179300
vn 0.873900 0.429200 0.228200
vn 0.886200 0.419900 0.195500
vn 0.902900 0.402000 0.152000
vn 0.881600 0.356500 0.309200
vn 0.857200 0.407200 0.315200
vn 0.807300 0.384600 0.447600
vn 0.824500 0.327700 0.461300
vn 0.827400 0.364200 0.427500
vn 0.830200 0.387900 0.400300
vn -0.583600 -0.597400 -0.549900
vn -0.640800 -0.693400 -0.329400
vn -0.686000 -0.648500 -0.329900
vn -0.595000 -0.513800 -0.618000
vn -0.557200 -0.437800 -0.705500
vn -0.563000 -0.457600 -0.688200
vn -0.597500 -0.489400 -0.635200
vn -0.623700 -0.583900 -0.519600
vn -0.671800 -0.663200 -0.329900
vn -0.700100 -0.708300 -0.089800
vn -0.759600 -0.644400 0.087800
vn -0.764500 -0.634800 0.112300
vn -0.750100 -0.661200 -0.005800
vn -0.723400 -0.678800 -0.125800
vn -0.762700 -0.646500 0.017000
vn -0.849200 -0.488500 -0.200500
vn -0.853800 -0.512700 -0.090200
vn -0.825500 -0.558400 -0.082200
vn -0.810000 -0.553500 -0.193500
vn -0.780400 -0.533400 -0.326200
vn -0.827000 -0.461700 -0.320700
vn -0.847900 -0.424800 -0.317100
vn -0.866000 -0.463500 -0.187600
vn -0.855600 -0.513400 -0.065200
vn -0.789500 -0.431700 -0.436200
vn -0.744600 -0.491300 -0.451900
vn -0.707400 -0.446200 -0.548100
vn -0.741200 -0.405500 -0.535000
vn -0.731400 -0.395300 -0.555700
vn -0.801300 -0.402000 -0.443100
vn -0.682100 -0.548800 -0.483200
vn -0.722300 -0.608000 -0.329400
vn -0.651400 -0.483100 -0.585000
vn -0.762500 -0.625400 -0.165600
vn -0.788400 -0.613500 -0.043900
vn -0.868400 -0.470700 -0.155900
vn -0.836500 -0.547800 -0.013200
vn -0.851500 -0.418000 -0.316400
vn -0.825300 -0.464500 -0.320900
vn -0.836100 -0.541300 -0.089100
vn -0.819900 -0.572200 0.017200
vn -0.788300 -0.394500 -0.472200
vn -0.687200 -0.405900 -0.602400
vn -0.656200 -0.416500 -0.629200
vn -0.721900 -0.432500 -0.540100
vn 0.130600 -0.443900 0.886500
vn 0.368400 -0.675100 0.639100
vn 0.018600 -0.347700 0.937400
vn -0.819900 -0.572200 0.017200
vn 0.544500 -0.782800 -0.301200
vn 0.688300 -0.369800 -0.624100
vn 0.363700 -0.922400 -0.130000
vn -0.656200 -0.416500 -0.629200
vn 0.201600 0.645500 -0.736600
vn -0.059100 0.789200 -0.611300
vn 0.332700 0.494100 -0.803200
vn -0.557200 -0.437800 -0.705500
vn -0.704500 0.531400 0.470500
vn -0.414400 0.451900 0.789900
vn -0.781700 0.621800 -0.048200
vn -0.764500 -0.634800 0.112300
vn -0.224100 0.240600 0.944400
vn -0.121600 0.062000 0.990600
vn 0.431700 -0.890300 0.145100
vn 0.564200 -0.031300 -0.825000
vn 0.477300 0.088900 -0.874200
vn -0.469200 0.755000 -0.458000
vn 0.393500 0.365700 -0.843400
vn 0.412200 0.283600 -0.865800
vn -0.071800 -0.077000 0.994400
vn -0.056600 -0.162300 0.985100
vn -0.041300 -0.245500 0.968500
vn 0.427200 0.200100 -0.881700
vt 0.839504 0.118056
vt 0.856743 0.205307
vt 0.741230 0.205307
vt 0.734555 0.106726
vt 0.724541 0.032791
vt 0.813647 0.052618
vt 0.868992 0.081539
vt 0.913398 0.129584
vt 0.940923 0.205307
vt 0.839504 0.292557
vt 0.813647 0.357995
vt 0.724541 0.377822
vt 0.734555 0.303887
vt 0.913398 0.281029
vt 0.868992 0.329074
vt 0.369475 0.299954
vt 0.368286 0.370940
vt 0.245840 0.351447
vt 0.246397 0.288815
vt 0.246768 0.205307
vt 0.370268 0.205307
vt 0.494283 0.205307
vt 0.492822 0.304944
vt 0.490632 0.379672
vt 0.369475 0.110659
vt 0.246397 0.121798
vt 0.245841 0.059166
vt 0.368286 0.039673
vt 0.490632 0.030941
vt 0.492822 0.105669
vt 0.616755 0.103478
vt 0.619174 0.205307
vt 0.613127 0.027106
vt 0.616755 0.307135
vt 0.613126 0.383507
vt 0.123273 0.268175
vt 0.123047 0.315326
vt 0.054743 0.283353
vt 0.030912 0.249131
vt 0.030973 0.205306
vt 0.123423 0.205306
vt 0.123273 0.142438
vt 0.030912 0.161481
vt 0.054744 0.127260
vt 0.123047 0.095287
vt 0.839504 0.118056
vt 0.856743 0.205307
vt 0.968983 0.205307
vt 0.938030 0.133427
vt 0.876123 0.061548
vt 0.805028 0.030806
vt 0.721203 0.008146
vt 0.734555 0.106726
vt 0.741230 0.205307
vt 0.839504 0.292557
vt 0.805028 0.379807
vt 0.876123 0.349065
vt 0.938030 0.277186
vt 0.734555 0.303887
vt 0.721203 0.402467
vt 0.369475 0.299954
vt 0.367890 0.394602
vt 0.489902 0.404581
vt 0.492822 0.304944
vt 0.494283 0.205307
vt 0.370268 0.205307
vt 0.246768 0.205307
vt 0.246397 0.288815
vt 0.245655 0.372324
vt 0.369475 0.110659
vt 0.492822 0.105669
vt 0.489902 0.006032
vt 0.367890 0.016011
vt 0.245655 0.038289
vt 0.246397 0.121798
vt 0.616755 0.103478
vt 0.619174 0.205307
vt 0.611917 0.001649
vt 0.616755 0.307135
vt 0.611917 0.408964
vt 0.123273 0.268175
vt 0.122972 0.331043
vt 0.123423 0.205306
vt 0.000156 0.205306
vt 0.000125 0.242784
vt 0.000064 0.280261
vt 0.123273 0.142438
vt 0.122972 0.079570
vt 0.000064 0.130352
vt 0.000125 0.167829
vt 0.122972 0.331043
vt 0.030806 0.283587
vt 0.245655 0.372324
vt 0.030806 0.283587
vt 0.000125 0.167829
vt 0.030806 0.127026
vt 0.000156 0.205306
vt 0.030806 0.127026
vt 0.805028 0.030806
vt 0.873826 0.071832
vt 0.721203 0.008146
vt 0.873826 0.071832
vt 0.938030 0.277186
vt 0.873826 0.338781
vt 0.968983 0.205307
vt 0.873826 0.338781
vt 0.805028 0.379807
vt 0.721203 0.402467
vt 0.000125 0.242784
vt 0.122972 0.079570
vt 0.245655 0.038289
vt 0.938030 0.133427
vt 0.611917 0.001649
vt 0.489902 0.006032
vt 0.611917 0.408964
vt 0.489902 0.404581
vt 0.367890 0.394602
vt 0.367890 0.016011
f 1/1/1 2/2/2 3/3/3
f 1/1/1 3/3/3 4/4/4
f 1/1/1 4/4/4 5/5/5
f 1/1/1 5/5/5 6/6/6
f 1/1/1 6/6/6 7/7/7
f 1/1/1 7/7/7 8/8/8
f 1/1/1 8/8/8 9/9/9
f 1/1/1 9/9/9 2/2/2
f 10/10/10 11/11/11 12/12/12
f 10/10/10 12/12/12 13/13/13
f 10/10/10 13/13/13 3/3/3
f 10/10/10 3/3/3 2/2/2
f 10/10/10 2/2/2 9/9/9
f 10/10/10 9/9/9 14/14/14
f 10/10/10 14/14/14 15/15/15
f 10/10/10 15/15/15 11/11/11
f 16/16/16 17/17/17 18/18/18
f 16/16/16 18/18/18 19/19/19
f 16/16/16 19/19/19 20/20/20
f 16/16/16 20/20/20 21/21/21
f 16/16/16 21/21/21 22/22/22
f 16/16/16 22/22/22 23/23/23
f 16/16/16 23/23/23 24/24/24
f 16/16/16 24/24/24 17/17/17
f 25/25/25 21/21/21 20/20/20
f 25/25/25 20/20/20 26/26/26
f 25/25/25 26/26/26 27/27/27
f 25/25/25 27/27/27 28/28/28
f 25/25/25 28/28/28 29/29/29
f 25/25/25 29/29/29 30/30/30
f 25/25/25 30/30/30 22/22/22
f 25/25/25 22/22/22 21/21/21
f 31/31/31 32/32/32 22/22/22
f 31/31/31 22/22/22 30/30/30
f 31/31/31 30/30/30 29/29/29
f 31/31/31 29/29/29 33/33/33
f 31/31/31 33/33/33 5/5/5
f 31/31/31 5/5/5 4/4/4
f 31/31/31 4/4/4 3/3/3
f 31/31/31 3/3/3 32/32/32
f 34/34/34 35/35/35 24/24/24
f 34/34/34 24/24/24 23/23/23
f 34/34/34 23/23/23 22/22/22
f 34/34/34 22/22/22 32/32/32
f 34/34/34 32/32/32 3/3/3
f 34/34/34 3/3/3 13/13/13
f 34/34/34 13/13/13 12/12/12
f 34/34/34 12/12/12 35/35/35
f 36/36/36 37/37/37 38/38/38
f 36/36/36 38/38/38 39/39/39
f 36/36/36 39/39/39 40/40/40
f 36/36/36 40/40/40 41/41/41
f 36/36/36 41/41/41 20/20/20
f 36/36/36 20/20/20 19/19/19
f 36/36/36 19/19/19 18/18/18
f 36/36/36 18/18/18 37/37/37
f 42/42/42 41/41/41 40/40/40
f 42/42/42 40/40/40 43/43/43
f 42/42/42 43/43/43 44/44/44
f 42/42/42 44/44/44 45/45/45
f 42/42/42 45/45/45 27/27/27
f 42/42/42 27/27/27 26/26/26
f 42/42/42 26/26/26 20/20/20
f 42/42/42 20/20/20 41/41/41
f 46/46/46 47/47/47 48/48/48
f 46/46/46 48/48/48 49/49/49
f 46/46/46 49/49/49 50/50/50
f 46/46/46 50/50/50 51/51/51
f 46/46/46 51/51/51 52/52/52
f 46/46/46 52/52/52 53/53/53
f 46/46/46 53/53/53 54/54/54
f 46/46/46 54/54/54 47/47/47
f 55/55/55 56/56/56 57/57/57
f 55/55/55 57/57/57 58/58/58
f 55/55/55 58/58/58 48/48/48
f 55/55/55 48/48/48 47/47/47
f 55/55/55 47/47/47 54/54/54
f 55/55/55 54/54/54 59/59/59
f 55/55/55 59/59/59 60/60/60
f 55/55/55 60/60/60 56/56/56
f 61/61/61 62/62/62 63/63/63
f 61/61/61 63/63/63 64/64/64
f 61/61/61 64/64/64 65/65/65
f 61/61/61 65/65/65 66/66/66
f 61/61/61 66/66/66 67/67/67
f 61/61/61 67/67/67 68/68/68
f 61/61/61 68/68/68 69/69/69
f 61/61/61 69/69/69 62/62/62
f 70/70/70 66/66/66 65/65/65
f 70/70/70 65/65/65 71/71/71
f 70/70/70 71/71/71 72/72/72
f 70/70/70 72/72/72 73/73/73
f 70/70/70 73/73/73 74/74/74
f 70/70/70 74/74/74 75/75/75
f 70/70/70 75/75/75 67/67/67
f 70/70/70 67/67/67 66/66/66
f 76/76/76 77/77/77 54/54/54
f 76/76/76 54/54/54 53/53/53
f 76/76/76 53/53/53 52/52/52
f 76/76/76 52/52/52 78/78/78
f 76/76/76 78/78/78 72/72/72
f 76/76/76 72/72/72 71/71/71
f 76/76/76 71/71/71 65/65/65
f 76/76/76 65/65/65 77/77/77
f 79/79/79 80/80/80 60/60/60
f 79/79/79 60/60/60 59/59/59
f 79/79/79 59/59/59 54/54/54
f 79/79/79 54/54/54 77/77/77
f 79/79/79 77/77/77 65/65/65
f 79/79/79 65/65/65 64/64/64
f 79/79/79 64/64/64 63/63/63
f 79/79/79 63/63/63 80/80/80
f 81/81/81 82/82/82 69/69/69
f 81/81/81 69/69/69 68/68/68
f 81/81/81 68/68/68 67/67/67
f 81/81/81 67/67/67 83/83/83
f 81/81/81 83/83/83 84/84/84
f 81/81/81 84/84/84 85/85/85
f 81/81/81 85/85/85 86/86/86
f 81/81/81 86/86/86 82/82/82
f 87/87/87 83/83/83 67/67/67
f 87/87/87 67/67/67 75/75/75
f 87/87/87 75/75/75 74/74/74
f 87/87/87 74/74/74 88/88/88
f 87/87/87 88/88/88 89/89/89
f 87/87/87 89/89/89 90/90/90
f 87/87/87 90/90/90 84/84/84
f 87/87/87 84/84/84 83/83/83
f 91/91/91 92/92/92 38/38/38
f 91/91/91 38/38/38 37/37/37
f 91/91/91 37/37/37 18/18/18
f 91/91/91 18/18/18 93/93/93
f 91/91/91 93/93/93 69/69/69
f 91/91/91 69/69/69 82/82/82
f 91/91/91 82/82/82 94/94/94
f 91/91/91 94/94/94 92/92/92
f 95/95/95 96/96/96 44/44/44
f 95/95/95 44/44/44 43/43/43
f 95/95/95 43/43/43 40/40/40
f 95/95/95 40/40/40 97/97/97
f 95/95/95 97/97/97 84/84/84
f 95/95/95 84/84/84 90/90/90
f 95/95/95 90/90/90 98/98/98
f 95/95/95 98/98/98 96/96/96
f 99/99/99 100/100/100 7/7/7
f 99/99/99 7/7/7 6/6/6
f 99/99/99 6/6/6 5/5/5
f 99/99/99 5/5/5 101/101/101
f 99/99/99 101/101/101 52/52/52
f 99/99/99 52/52/52 51/51/51
f 99/99/99 51/51/51 102/102/102
f 99/99/99 102/102/102 100/100/100
f 103/103/103 104/104/104 15/15/15
f 103/103/103 15/15/15 14/14/14
f 103/103/103 14/14/14 9/9/9
f 103/103/103 9/9/9 105/105/105
f 103/103/103 105/105/105 48/48/48
f 103/103/103 48/48/48 58/58/58
f 103/103/103 58/58/58 106/106/106
f 103/103/103 106/106/106 104/104/104
f 107/107/107 108/108/108 12/12/12
f 107/107/107 12/12/12 11/11/11
f 107/107/107 11/11/11 15/15/15
f 107/107/107 15/15/15 104/104/104
f 107/107/107 104/104/104 106/106/106
f 107/107/107 106/106/106 56/56/56
f 107/107/107 56/56/56 60/60/60
f 107/107/107 60/60/60 108/108/108
f 109/109/109 97/97/97 40/40/40
f 109/109/109 40/40/40 39/39/39
f 109/109/109 39/39/39 38/38/38
f 109/109/109 38/38/38 92/92/92
f 109/109/109 92/92/92 94/94/94
f 109/109/109 94/94/94 85/85/85
f 109/109/109 85/85/85 84/84/84
f 109/109/109 84/84/84 97/97/97
f 110/110/110 111/111/111 27/27/27
f 110/110/110 27/27/27 45/45/45
f 110/110/110 45/45/45 44/44/44
f 110/110/110 44/44/44 96/96/96
f 110/110/110 96/96/96 98/98/98
f 110/110/110 98/98/98 88/88/88
f 110/110/110 88/88/88 74/74/74
f 110/110/110 74/74/74 111/111/111
f 112/112/112 105/105/105 9/9/9
f 112/112/112 9/9/9 8/8/8
f 112/112/112 8/8/8 7/7/7
f 112/112/112 7/7/7 100/100/100
f 112/112/112 100/100/100 102/102/102
f 112/112/112 102/102/102 49/49/49
f 112/112/112 49/49/49 48/48/48
f 112/112/112 48/48/48 105/105/105
f 113/113/113 101/101/101 5/5/5
f 113/113/113 5/5/5 33/33/33
f 113/113/113 33/33/33 29/29/29
f 113/113/113 29/29/29 114/114/114
f 113/113/113 114/114/114 72/72/72
f 113/113/113 72/72/72 78/78/78
f 113/113/113 78/78/78 52/52/52
f 113/113/113 52/52/52 101/101/101
f 115/115/115 116/116/116 24/24/24
f 115/115/115 24/24/24 35/35/35
f 115/115/115 35/35/35 12/12/12
f 115/115/115 12/12/12 108/108/108
f 115/115/115 108/108/108 60/60/60
f 115/115/115 60/60/60 80/80/80
f 115/115/115 80/80/80 63/63/63
f 115/115/115 63/63/63 116/116/116
f 117/117/117 93/93/93 18/18/18
f 117/117/117 18/18/18 17/17/17
f 117/117/117 17/17/17 24/24/24
f 117/117/117 24/24/24 116/116/116
f 117/117/117 116/116/116 63/63/63
f 117/117/117 63/63/63 62/62/62
f 117/117/117 62/62/62 69/69/69
f 117/117/117 69/69/69 93/93/93
f 118/118/118 114/114/114 29/29/29
f 118/118/118 29/29/29 28/28/28
f 118/118/118 28/28/28 27/27/27
f 118/118/118 27/27/27 111/111/111
f 118/118/118 111/111/111 74/74/74
f 118/118/118 74/74/74 73/73/73
f 118/118/118 73/73/73 72/72/72
f 118/118/118 72/72/72 114/114/114
