v -2.392074 0.808854 -1.162861
v -2.392203 0.809117 -1.165184
v -2.394539 0.807125 -1.164640
v -2.394096 0.806996 -1.162077
v -2.394003 0.806977 -1.160062
v -2.392382 0.808609 -1.160983
v -2.391348 0.809480 -1.162023
v -2.390596 0.810084 -1.163530
v -2.390428 0.810494 -1.165612
v -2.393464 0.809313 -1.167148
v -2.394819 0.809414 -1.168501
v -2.396772 0.807891 -1.168602
v -2.395675 0.807517 -1.166950
v -2.391798 0.810481 -1.167241
v -2.393322 0.810132 -1.168112
v -2.401855 0.800067 -1.165689
v -2.402643 0.800382 -1.167405
v -2.404188 0.797487 -1.166674
v -2.403478 0.797204 -1.165161
v -2.402647 0.796891 -1.163107
v -2.400928 0.799718 -1.163362
v -2.399037 0.802409 -1.163687
v -2.400023 0.802788 -1.166115
v -2.400874 0.803139 -1.167898
v -2.400307 0.799556 -1.160915
v -2.402109 0.796752 -1.160940
v -2.401790 0.796696 -1.159276
v -2.399931 0.799486 -1.159040
v -2.398037 0.802203 -1.159148
v -2.398404 0.802254 -1.161121
v -2.396270 0.804765 -1.161503
v -2.396862 0.804883 -1.164127
v -2.395975 0.804770 -1.159469
v -2.397912 0.805307 -1.166570
v -2.398853 0.805721 -1.168349
v -2.404960 0.794258 -1.164398
v -2.405536 0.794495 -1.165512
v -2.406099 0.792743 -1.164601
v -2.405995 0.792002 -1.163751
v -2.405502 0.791803 -1.162726
v -2.404306 0.794005 -1.162879
v -2.403939 0.793921 -1.161247
v -2.405295 0.791771 -1.161592
v -2.404840 0.792327 -1.160716
v -2.403745 0.793904 -1.159987
v -2.391915 0.808672 -1.162896
v -2.392053 0.808936 -1.165252
v -2.390318 0.810356 -1.165662
v -2.390478 0.809945 -1.163554
v -2.391259 0.809378 -1.162034
v -2.392258 0.808473 -1.160993
v -2.393875 0.806845 -1.160077
v -2.393930 0.806820 -1.162118
v -2.394381 0.806950 -1.164710
v -2.393325 0.809137 -1.167247
v -2.394721 0.809286 -1.168592
v -2.393249 0.810035 -1.168174
v -2.391698 0.810348 -1.167316
v -2.395528 0.807348 -1.167047
v -2.396667 0.807767 -1.168689
v -2.401674 0.799930 -1.165785
v -2.402512 0.800281 -1.167487
v -2.400749 0.803031 -1.167981
v -2.399851 0.802641 -1.166210
v -2.398858 0.802258 -1.163761
v -2.400740 0.799579 -1.163437
v -2.402454 0.796760 -1.163184
v -2.403292 0.797075 -1.165259
v -2.404053 0.797393 -1.166757
v -2.400114 0.799415 -1.160970
v -2.398218 0.802102 -1.161173
v -2.397895 0.802088 -1.159176
v -2.399784 0.799380 -1.159070
v -2.401638 0.796595 -1.159307
v -2.401910 0.796619 -1.160995
v -2.396094 0.804600 -1.161549
v -2.396694 0.804720 -1.164199
v -2.395840 0.804647 -1.159491
v -2.397753 0.805148 -1.166667
v -2.398739 0.805604 -1.168434
v -2.404772 0.794133 -1.164497
v -2.405400 0.794403 -1.165596
v -2.404110 0.793877 -1.162956
v -2.405355 0.791707 -1.162784
v -2.405855 0.791909 -1.163826
v -2.405997 0.792674 -1.164661
v -2.403737 0.793791 -1.161302
v -2.403591 0.793806 -1.160016
v -2.404726 0.792255 -1.160741
v -2.405143 0.791674 -1.161631
v -2.405668 0.794534 -1.165923
v -2.406418 0.792174 -1.164562
v -2.404366 0.797540 -1.167218
v -2.405997 0.792674 -1.164661
v -2.405680 0.791012 -1.161724
v -2.405157 0.791757 -1.160670
v -2.405835 0.791026 -1.162701
v -2.404726 0.792255 -1.160741
v -2.392429 0.808467 -1.160358
v -2.391195 0.809576 -1.161784
v -2.393914 0.806912 -1.159393
v -2.391259 0.809378 -1.162034
v -2.391199 0.810811 -1.167305
v -2.393330 0.810281 -1.168371
v -2.389788 0.810891 -1.165777
v -2.393249 0.810035 -1.168174
v -2.395228 0.809392 -1.168996
v -2.397092 0.807961 -1.169195
v -2.406278 0.791209 -1.163568
v -2.403611 0.793855 -1.159577
v -2.401615 0.796632 -1.158733
v -2.390051 0.810432 -1.163763
v -2.395816 0.804717 -1.158798
v -2.397851 0.802135 -1.158500
v -2.399117 0.805807 -1.168983
v -2.401103 0.803208 -1.168532
v -2.402848 0.800442 -1.168015
v -2.399740 0.799416 -1.158426
vn -0.641800 0.764400 0.061100
vn -0.573300 0.774000 0.268700
vn -0.617700 0.735300 0.278900
vn -0.681300 0.725900 0.094000
vn -0.697200 0.708800 0.107200
vn -0.640800 0.764600 0.069000
vn -0.597500 0.800700 0.042500
vn -0.562400 0.822600 0.083500
vn -0.499800 0.829000 0.250700
vn -0.509000 0.720500 0.470900
vn -0.512600 0.722400 0.463900
vn -0.584200 0.671400 0.455900
vn -0.562600 0.686700 0.460400
vn -0.454000 0.786800 0.418200
vn -0.459900 0.755400 0.466700
vn -0.741900 0.529100 0.411900
vn -0.760400 0.527600 0.378800
vn -0.778400 0.500700 0.378600
vn -0.756400 0.499800 0.421900
vn -0.802800 0.506500 0.314400
vn -0.780300 0.542600 0.311000
vn -0.730800 0.611900 0.302400
vn -0.692800 0.588800 0.416400
vn -0.713600 0.579500 0.393500
vn -0.808500 0.551100 0.206200
vn -0.828000 0.523400 0.201200
vn -0.820600 0.514600 0.248400
vn -0.804400 0.542100 0.243000
vn -0.771800 0.598700 0.214100
vn -0.767600 0.613500 0.185600
vn -0.719900 0.679100 0.143600
vn -0.670100 0.683200 0.290300
vn -0.733800 0.659400 0.163600
vn -0.625500 0.647900 0.434500
vn -0.649700 0.631600 0.423000
vn -0.753300 0.483300 0.446000
vn -0.779900 0.480800 0.400600
vn -0.775800 0.461200 0.430600
vn -0.771400 0.429900 0.469100
vn -0.839600 0.439400 0.319200
vn -0.812900 0.489200 0.315900
vn -0.840400 0.512100 0.177100
vn -0.871900 0.463100 0.159100
vn -0.851100 0.486200 0.197900
vn -0.835800 0.499400 0.227900
vn 0.663800 -0.746900 -0.037600
vn 0.585700 -0.763700 -0.271600
vn 0.632300 -0.721500 -0.282100
vn 0.722100 -0.690800 0.034500
vn 0.747200 -0.648400 0.146200
vn 0.740000 -0.661100 0.123800
vn 0.737100 -0.673500 0.054000
vn 0.685200 -0.724000 -0.079200
vn 0.617600 -0.735300 -0.278800
vn 0.514200 -0.697600 -0.498900
vn 0.487700 -0.578000 -0.654300
vn 0.481300 -0.560700 -0.673800
vn 0.523200 -0.625100 -0.579100
vn 0.557200 -0.681800 -0.474000
vn 0.525200 -0.603600 -0.599800
vn 0.734800 -0.527400 -0.426500
vn 0.679500 -0.513300 -0.524100
vn 0.643300 -0.553800 -0.528600
vn 0.686500 -0.586400 -0.429900
vn 0.730900 -0.611800 -0.302400
vn 0.780400 -0.542400 -0.311000
vn 0.802900 -0.506400 -0.314400
vn 0.747000 -0.499600 -0.438600
vn 0.668500 -0.505600 -0.545300
vn 0.811300 -0.552700 -0.190300
vn 0.770500 -0.614100 -0.170800
vn 0.794700 -0.603800 -0.061500
vn 0.824000 -0.561100 -0.078200
vn 0.827900 -0.558300 -0.053600
vn 0.830000 -0.527000 -0.182500
vn 0.722800 -0.678800 -0.129200
vn 0.670000 -0.683200 -0.290300
vn 0.759000 -0.651000 -0.012900
vn 0.619600 -0.644800 -0.447600
vn 0.583200 -0.592900 -0.555300
vn 0.732000 -0.495700 -0.467300
vn 0.620300 -0.520700 -0.586500
vn 0.806800 -0.499700 -0.315000
vn 0.778700 -0.545000 -0.310700
vn 0.658900 -0.539900 -0.523800
vn 0.586800 -0.533600 -0.609000
vn 0.834700 -0.529700 -0.150300
vn 0.811700 -0.584000 0.004200
vn 0.796700 -0.603000 0.039000
vn 0.805500 -0.588200 -0.071600
vn -0.630400 -0.122000 -0.766600
vn -0.750000 -0.421700 -0.509500
vn -0.543500 -0.014000 -0.839300
vn 0.586800 -0.533600 -0.609000
vn -0.451000 -0.838400 0.306000
vn -0.339500 -0.557200 0.757800
vn -0.407100 -0.912700 0.034200
vn 0.796700 -0.603000 0.039000
vn 0.309300 0.362600 0.879100
vn 0.493900 0.539800 0.681700
vn 0.204500 0.197400 0.958700
vn 0.747200 -0.648400 0.146200
vn 0.457900 0.658200 -0.597600
vn 0.038700 0.690000 -0.722700
vn 0.797600 0.569800 -0.197500
vn 0.481300 -0.560700 -0.673800
vn -0.236900 0.542600 -0.805900
vn -0.378600 0.389600 -0.839500
vn -0.596000 -0.790600 -0.140800
vn -0.074400 -0.305500 0.949300
vn 0.045000 -0.208600 0.976900
vn 0.759700 0.558300 0.333300
vn 0.149800 0.062500 0.986700
vn 0.130600 -0.022300 0.991200
vn -0.447200 0.260000 -0.855800
vn -0.470600 0.176700 -0.864400
vn -0.489900 0.092700 -0.866800
vn 0.111200 -0.106200 0.988100
vt 0.839504 0.118056
vt 0.856743 0.205307
vt 0.741230 0.205307
vt 0.734555 0.106726
vt 0.724541 0.032791
vt 0.813647 0.052618
vt 0.868992 0.081539
vt 0.913398 0.129584
vt 0.940923 0.205307
vt 0.839504 0.292557
vt 0.813647 0.357995
vt 0.724541 0.377822
vt 0.734555 0.303887
vt 0.913398 0.281029
vt 0.868992 0.329074
vt 0.369475 0.299954
vt 0.368286 0.370940
vt 0.245840 0.351447
vt 0.246397 0.288815
vt 0.246768 0.205307
vt 0.370268 0.205307
vt 0.494283 0.205307
vt 0.492822 0.304944
vt 0.490632 0.379672
vt 0.369475 0.110659
vt 0.246397 0.121798
vt 0.245841 0.059166
vt 0.368286 0.039673
vt 0.490632 0.030941
vt 0.492822 0.105669
vt 0.616755 0.103478
vt 0.619174 0.205307
vt 0.613127 0.027106
vt 0.616755 0.307135
vt 0.613126 0.383507
vt 0.123273 0.268175
vt 0.123047 0.315326
vt 0.054743 0.283353
vt 0.030912 0.249131
vt 0.030973 0.205306
vt 0.123423 0.205306
vt 0.123273 0.142438
vt 0.030912 0.161481
vt 0.054744 0.127260
vt 0.123047 0.095287
vt 0.839504 0.118056
vt 0.856743 0.205307
vt 0.968983 0.205307
vt 0.938030 0.133427
vt 0.876123 0.061548
vt 0.805028 0.030806
vt 0.721203 0.008146
vt 0.734555 0.106726
vt 0.741230 0.205307
vt 0.839504 0.292557
vt 0.805028 0.379807
vt 0.876123 0.349065
vt 0.938030 0.277186
vt 0.734555 0.303887
vt 0.721203 0.402467
vt 0.369475 0.299954
vt 0.367890 0.394602
vt 0.489902 0.404581
vt 0.492822 0.304944
vt 0.494283 0.205307
vt 0.370268 0.205307
vt 0.246768 0.205307
vt 0.246397 0.288815
vt 0.245655 0.372324
vt 0.369475 0.110659
vt 0.492822 0.105669
vt 0.489902 0.006032
vt 0.367890 0.016011
vt 0.245655 0.038289
vt 0.246397 0.121798
vt 0.616755 0.103478
vt 0.619174 0.205307
vt 0.611917 0.001649
vt 0.616755 0.307135
vt 0.611917 0.408964
vt 0.123273 0.268175
vt 0.122972 0.331043
vt 0.123423 0.205306
vt 0.000156 0.205306
vt 0.000125 0.242784
vt 0.000064 0.280261
vt 0.123273 0.142438
vt 0.122972 0.079570
vt 0.000064 0.130352
vt 0.000125 0.167829
vt 0.122972 0.331043
vt 0.030806 0.283587
vt 0.245655 0.372324
vt 0.030806 0.283587
vt 0.000125 0.167829
vt 0.030806 0.127026
vt 0.000156 0.205306
vt 0.030806 0.127026
vt 0.805028 0.030806
vt 0.873826 0.071832
vt 0.721203 0.008146
vt 0.873826 0.071832
vt 0.938030 0.277186
vt 0.873826 0.338781
vt 0.968983 0.205307
vt 0.873826 0.338781
vt 0.805028 0.379807
vt 0.721203 0.402467
vt 0.000125 0.242784
vt 0.122972 0.079570
vt 0.245655 0.038289
vt 0.938030 0.133427
vt 0.611917 0.001649
vt 0.489902 0.006032
vt 0.611917 0.408964
vt 0.489902 0.404581
vt 0.367890 0.394602
vt 0.367890 0.016011
f 1/1/1 2/2/2 3/3/3
f 1/1/1 3/3/3 4/4/4
f 1/1/1 4/4/4 5/5/5
f 1/1/1 5/5/5 6/6/6
f 1/1/1 6/6/6 7/7/7
f 1/1/1 7/7/7 8/8/8
f 1/1/1 8/8/8 9/9/9
f 1/1/1 9/9/9 2/2/2
f 10/10/10 11/11/11 12/12/12
f 10/10/10 12/12/12 13/13/13
f 10/10/10 13/13/13 3/3/3
f 10/10/10 3/3/3 2/2/2
f 10/10/10 2/2/2 9/9/9
f 10/10/10 9/9/9 14/14/14
f 10/10/10 14/14/14 15/15/15
f 10/10/10 15/15/15 11/11/11
f 16/16/16 17/17/17 18/18/18
f 16/16/16 18/18/18 19/19/19
f 16/16/16 19/19/19 20/20/20
f 16/16/16 20/20/20 21/21/21
f 16/16/16 21/21/21 22/22/22
f 16/16/16 22/22/22 23/23/23
f 16/16/16 23/23/23 24/24/24
f 16/16/16 24/24/24 17/17/17
f 25/25/25 21/21/21 20/20/20
f 25/25/25 20/20/20 26/26/26
f 25/25/25 26/26/26 27/27/27
f 25/25/25 27/27/27 28/28/28
f 25/25/25 28/28/28 29/29/29
f 25/25/25 29/29/29 30/30/30
f 25/25/25 30/30/30 22/22/22
f 25/25/25 22/22/22 21/21/21
f 31/31/31 32/32/32 22/22/22
f 31/31/31 22/22/22 30/30/30
f 31/31/31 30/30/30 29/29/29
f 31/31/31 29/29/29 33/33/33
f 31/31/31 33/33/33 5/5/5
f 31/31/31 5/5/5 4/4/4
f 31/31/31 4/4/4 3/3/3
f 31/31/31 3/3/3 32/32/32
f 34/34/34 35/35/35 24/24/24
f 34/34/34 24/24/24 23/23/23
f 34/34/34 23/23/23 22/22/22
f 34/34/34 22/22/22 32/32/32
f 34/34/34 32/32/32 3/3/3
f 34/34/34 3/3/3 13/13/13
f 34/34/34 13/13/13 12/12/12
f 34/34/34 12/12/12 35/35/35
f 36/36/36 37/37/37 38/38/38
f 36/36/36 38/38/38 39/39/39
f 36/36/36 39/39/39 40/40/40
f 36/36/36 40/40/40 41/41/41
f 36/36/36 41/41/41 20/20/20
f 36/36/36 20/20/20 19/19/19
f 36/36/36 19/19/19 18/18/18
f 36/36/36 18/18/18 37/37/37
f 42/42/42 41/41/41 40/40/40
f 42/42/42 40/40/40 43/43/43
f 42/42/42 43/43/43 44/44/44
f 42/42/42 44/44/44 45/45/45
f 42/42/42 45/45/45 27/27/27
f 42/42/42 27/27/27 26/26/26
f 42/42/42 26/26/26 20/20/20
f 42/42/42 20/20/20 41/41/41
f 46/46/46 47/47/47 48/48/48
f 46/46/46 48/48/48 49/49/49
f 46/46/46 49/49/49 50/50/50
f 46/46/46 50/50/50 51/51/51
f 46/46/46 51/51/51 52/52/52
f 46/46/46 52/52/52 53/53/53
f 46/46/46 53/53/53 54/54/54
f 46/46/46 54/54/54 47/47/47
f 55/55/55 56/56/56 57/57/57
f 55/55/55 57/57/57 58/58/58
f 55/55/55 58/58/58 48/48/48
f 55/55/55 48/48/48 47/47/47
f 55/55/55 47/47/47 54/54/54
f 55/55/55 54/54/54 59/59/59
f 55/55/55 59/59/59 60/60/60
f 55/55/55 60/60/60 56/56/56
f 61/61/61 62/62/62 63/63/63
f 61/61/61 63/63/63 64/64/64
f 61/61/61 64/64/64 65/65/65
f 61/61/61 65/65/65 66/66/66
f 61/61/61 66/66/66 67/67/67
f 61/61/61 67/67/67 68/68/68
f 61/61/61 68/68/68 69/69/69
f 61/61/61 69/69/69 62/62/62
f 70/70/70 66/66/66 65/65/65
f 70/70/70 65/65/65 71/71/71
f 70/70/70 71/71/71 72/72/72
f 70/70/70 72/72/72 73/73/73
f 70/70/70 73/73/73 74/74/74
f 70/70/70 74/74/74 75/75/75
f 70/70/70 75/75/75 67/67/67
f 70/70/70 67/67/67 66/66/66
f 76/76/76 77/77/77 54/54/54
f 76/76/76 54/54/54 53/53/53
f 76/76/76 53/53/53 52/52/52
f 76/76/76 52/52/52 78/78/78
f 76/76/76 78/78/78 72/72/72
f 76/76/76 72/72/72 71/71/71
f 76/76/76 71/71/71 65/65/65
f 76/76/76 65/65/65 77/77/77
f 79/79/79 80/80/80 60/60/60
f 79/79/79 60/60/60 59/59/59
f 79/79/79 59/59/59 54/54/54
f 79/79/79 54/54/54 77/77/77
f 79/79/79 77/77/77 65/65/65
f 79/79/79 65/65/65 64/64/64
f 79/79/79 64/64/64 63/63/63
f 79/79/79 63/63/63 80/80/80
f 81/81/81 82/82/82 69/69/69
f 81/81/81 69/69/69 68/68/68
f 81/81/81 68/68/68 67/67/67
f 81/81/81 67/67/67 83/83/83
f 81/81/81 83/83/83 84/84/84
f 81/81/81 84/84/84 85/85/85
f 81/81/81 85/85/85 86/86/86
f 81/81/81 86/86/86 82/82/82
f 87/87/87 83/83/83 67/67/67
f 87/87/87 67/67/67 75/75/75
f 87/87/87 75/75/75 74/74/74
f 87/87/87 74/74/74 88/88/88
f 87/87/87 88/88/88 89/89/89
f 87/87/87 89/89/89 90/90/90
f 87/87/87 90/90/90 84/84/84
f 87/87/87 84/84/84 83/83/83
f 91/91/91 92/92/92 38/38/38
f 91/91/91 38/38/38 37/37/37
f 91/91/91 37/37/37 18/18/18
f 91/91/91 18/18/18 93/93/93
f 91/91/91 93/93/93 69/69/69
f 91/91/91 69/69/69 82/82/82
f 91/91/91 82/82/82 94/94/94
f 91/91/91 94/94/94 92/92/92
f 95/95/95 96/96/96 44/44/44
f 95/95/95 44/44/44 43/43/43
f 95/95/95 43/43/43 40/40/40
f 95/95/95 40/40/40 97/97/97
f 95/95/95 97/97/97 84/84/84
f 95/95/95 84/84/84 90/90/90
f 95/95/95 90/90/90 98/98/98
f 95/95/95 98/98/98 96/96/96
f 99/99/99 100/100/100 7/7/7
f 99/99/99 7/7/7 6/6/6
f 99/99/99 6/6/6 5/5/5
f 99/99/99 5/5/5 101/101/101
f 99/99/99 101/101/101 52/52/52
f 99/99/99 52/52/52 51/51/51
f 99/99/99 51/51/51 102/102/102
f 99/99/99 102/102/102 100/100/100
f 103/103/103 104/104/104 15/15/15
f 103/103/103 15/15/15 14/14/14
f 103/103/103 14/14/14 9/9/9
f 103/103/103 9/9/9 105/105/105
f 103/103/103 105/105/105 48/48/48
f 103/103/103 48/48/48 58/58/58
f 103/103/103 58/58/58 106/106/106
f 103/103/103 106/106/106 104/104/104
f 107/107/107 108/108/108 12/12/12
f 107/107/107 12/12/12 11/11/11
f 107/107/107 11/11/11 15/15/15
f 107/107/107 15/15/15 104/104/104
f 107/107/107 104/104/104 106/106/106
f 107/107/107 106/106/106 56/56/56
f 107/107/107 56/56/56 60/60/60
f 107/107/107 60/60/60 108/108/108
f 109/109/109 97/97/97 40/40/40
f 109/109/109 40/40/40 39/39/39
f 109/109/109 39/39/39 38/38/38
f 109/109/109 38/38/38 92/92/92
f 109/109/109 92/92/92 94/94/94
f 109/109/109 94/94/94 85/85/85
f 109/109/109 85/85/85 84/84/84
f 109/109/109 84/84/84 97/97/97
f 110/110/110 111/111/111 27/27/27
f 110/110/110 27/27/27 45/45/45
f 110/110/110 45/45/45 44/44/44
f 110/110/110 44/44/44 96/96/96
f 110/110/110 96/96/96 98/98/98
f 110/110/110 98/98/98 88/88/88
f 110/110/110 88/88/88 74/74/74
f 110/110/110 74/74/74 111/111/111
f 112/112/112 105/105/105 9/9/9
f 112/112/112 9/9/9 8/8/8
f 112/112/112 8/8/8 7/7/7
f 112/112/112 7/7/7 100/100/100
f 112/112/112 100/100/100 102/102/102
f 112/112/112 102/102/102 49/49/49
f 112/112/112 49/49/49 48/48/48
f 112/112/112 48/48/48 105/105/105
f 113/113/113 101/101/101 5/5/5
f 113/113/113 5/5/5 33/33/33
f 113/113/113 33/33/33 29/29/29
f 113/113/113 29/29/29 114/114/114
f 113/113/113 114/114/114 72/72/72
f 113/113/113 72/72/72 78/78/78
f 113/113/113 78/78/78 52/52/52
f 113/113/113 52/52/52 101/101/101
f 115/115/115 116/116/116 24/24/24
f 115/115/115 24/24/24 35/35/35
f 115/115/115 35/35/35 12/12/12
f 115/115/115 12/12/12 108/108/108
f 115/115/115 108/108/108 60/60/60
f 115/115/115 60/60/60 80/80/80
f 115/115/115 80/80/80 63/63/63
f 115/115/115 63/63/63 116/116/116
f 117/117/117 93/93/93 18/18/18
f 117/117/117 18/18/18 17/17/17
f 117/117/117 17/17/17 24/24/24
f 117/117/117 24/24/24 116/116/116
f 117/117/117 116/116/116 63/63/63
f 117/117/117 63/63/63 62/62/62
f 117/117/117 62/62/62 69/69/69
f 117/117/117 69/69/69 93/93/93
f 118/118/118 114/114/114 29/29/29
f 118/118/118 29/29/29 28/28/28
f 118/118/118 28/28/28 27/27/27
f 118/118/118 27/27/27 111/111/111
f 118/118/118 111/111/111 74/74/74
f 118/118/118 74/74/74 73/73/73
f 118/118/118 73/73/73 72/72/72
f 118/118/118 72/72/72 114/114/114
