v -2.435155 0.765203 -1.099203
v -2.434836 0.765486 -1.100610
v -2.436115 0.764015 -1.100779
v -2.436305 0.763829 -1.099167
v -2.436614 0.763711 -1.097944
v -2.435653 0.764917 -1.098145
v -2.434941 0.765607 -1.098548
v -2.434283 0.766133 -1.099291
v -2.433848 0.766520 -1.100493
v -2.435246 0.765606 -1.102016
v -2.435813 0.765625 -1.103077
v -2.436796 0.764515 -1.103547
v -2.436409 0.764287 -1.102363
v -2.434362 0.766482 -1.101725
v -2.435071 0.766180 -1.102543
v -2.439538 0.759057 -1.102979
v -2.439725 0.759279 -1.104145
v -2.440477 0.757309 -1.104079
v -2.440303 0.757111 -1.103049
v -2.440152 0.756875 -1.101673
v -2.439376 0.758792 -1.101423
v -2.438471 0.760643 -1.101187
v -2.438653 0.760928 -1.102813
v -2.438869 0.761170 -1.104030
v -2.439436 0.758607 -1.099847
v -2.440213 0.756714 -1.100279
v -2.440320 0.756613 -1.099225
v -2.439547 0.758491 -1.098657
v -2.438682 0.760346 -1.098290
v -2.438546 0.760457 -1.099537
v -2.437469 0.762223 -1.099294
v -2.437355 0.762392 -1.100972
v -2.437664 0.762137 -1.098022
v -2.437577 0.762700 -1.102619
v -2.437853 0.762973 -1.103848
v -2.441019 0.755113 -1.102953
v -2.441182 0.755272 -1.103721
v -2.441502 0.754086 -1.103331
v -2.441519 0.753589 -1.102823
v -2.441393 0.753451 -1.102124
v -2.440881 0.754929 -1.101928
v -2.440951 0.754817 -1.100886
v -2.441473 0.753386 -1.101407
v -2.441419 0.753721 -1.100782
v -2.441064 0.754752 -1.100096
v -2.435036 0.765106 -1.099199
v -2.434716 0.765391 -1.100627
v -2.433760 0.766447 -1.100506
v -2.434195 0.766059 -1.099287
v -2.434876 0.765553 -1.098541
v -2.435564 0.764844 -1.098131
v -2.436522 0.763642 -1.097933
v -2.436182 0.763737 -1.099165
v -2.435991 0.763925 -1.100796
v -2.435128 0.765516 -1.102054
v -2.435726 0.765560 -1.103117
v -2.435006 0.766131 -1.102569
v -2.434275 0.766413 -1.101755
v -2.436286 0.764201 -1.102399
v -2.436705 0.764452 -1.103583
v -2.439399 0.758994 -1.103007
v -2.439622 0.759233 -1.104172
v -2.438769 0.761119 -1.104059
v -2.438519 0.760857 -1.102842
v -2.438336 0.760570 -1.101201
v -2.439237 0.758726 -1.101437
v -2.440010 0.756815 -1.101686
v -2.440162 0.757053 -1.103076
v -2.440372 0.757267 -1.104106
v -2.439297 0.758541 -1.099848
v -2.438411 0.760383 -1.099537
v -2.438581 0.760290 -1.098283
v -2.439443 0.758440 -1.098650
v -2.440214 0.756566 -1.099218
v -2.440071 0.756652 -1.100278
v -2.437340 0.762139 -1.099294
v -2.437226 0.762310 -1.100988
v -2.437568 0.762073 -1.098014
v -2.437449 0.762621 -1.102651
v -2.437758 0.762915 -1.103880
v -2.440877 0.755058 -1.102981
v -2.441076 0.755232 -1.103749
v -2.440738 0.754871 -1.101941
v -2.441286 0.753409 -1.102133
v -2.441413 0.753548 -1.102844
v -2.441424 0.754056 -1.103350
v -2.440809 0.754757 -1.100884
v -2.440958 0.754707 -1.100088
v -2.441340 0.753687 -1.100778
v -2.441366 0.753341 -1.101405
v -2.441189 0.755308 -1.103991
v -2.441640 0.753704 -1.103384
v -2.440489 0.757357 -1.104436
v -2.441424 0.754056 -1.103350
v -2.441600 0.752889 -1.101579
v -2.441557 0.753337 -1.100830
v -2.441516 0.752940 -1.102193
v -2.441340 0.753687 -1.100778
v -2.435780 0.764790 -1.097784
v -2.434903 0.765666 -1.098374
v -2.436676 0.763640 -1.097530
v -2.434876 0.765553 -1.098541
v -2.434029 0.766743 -1.101642
v -2.435044 0.766287 -1.102695
v -2.433480 0.766832 -1.100460
v -2.435006 0.766131 -1.102569
v -2.435963 0.765603 -1.103451
v -2.436885 0.764563 -1.103960
v -2.441639 0.753063 -1.102790
v -2.441054 0.754710 -1.099827
v -2.440309 0.756558 -1.098869
v -2.433954 0.766410 -1.099318
v -2.437686 0.762080 -1.097593
v -2.438683 0.760284 -1.097869
v -2.437903 0.763039 -1.104274
v -2.438896 0.761229 -1.104451
v -2.439742 0.759333 -1.104547
v -2.439537 0.758430 -1.098256
vn -0.747200 0.657000 -0.100400
vn -0.744100 0.657400 0.118500
vn -0.782700 0.612000 0.113200
vn -0.787700 0.610500 -0.082500
vn -0.803700 0.590100 -0.075400
vn -0.748400 0.656700 -0.092200
vn -0.705700 0.701000 -0.102900
vn -0.688000 0.723800 -0.052500
vn -0.678600 0.723600 0.125900
vn -0.733200 0.595600 0.328000
vn -0.735000 0.597500 0.320600
vn -0.791900 0.537900 0.289000
vn -0.775300 0.555400 0.300500
vn -0.677000 0.673200 0.297500
vn -0.691400 0.637200 0.340500
vn -0.904900 0.379000 0.193600
vn -0.912500 0.377900 0.156300
vn -0.925200 0.348900 0.149400
vn -0.916700 0.347200 0.197500
vn -0.930500 0.357000 0.081400
vn -0.914200 0.396000 0.086500
vn -0.876200 0.472200 0.096200
vn -0.869500 0.444400 0.215200
vn -0.881200 0.434300 0.186700
vn -0.911900 0.409900 -0.021400
vn -0.924300 0.380300 -0.033300
vn -0.929600 0.368400 0.013600
vn -0.917100 0.398300 0.014400
vn -0.887200 0.461300 -0.000800
vn -0.877400 0.479100 -0.026000
vn -0.830800 0.554300 -0.048900
vn -0.826900 0.552200 0.106100
vn -0.846600 0.531100 -0.034800
vn -0.820900 0.510700 0.255300
vn -0.837800 0.492100 0.236200
vn -0.918100 0.329200 0.220700
vn -0.929700 0.327200 0.169200
vn -0.931200 0.305800 0.198400
vn -0.933200 0.272000 0.235000
vn -0.955700 0.285200 0.071900
vn -0.937700 0.338400 0.079000
vn -0.927200 0.369700 -0.060500
vn -0.943700 0.318400 -0.089200
vn -0.939100 0.340700 -0.044900
vn -0.935500 0.353100 -0.011200
vn 0.758200 -0.638800 0.130000
vn 0.755100 -0.645100 -0.117000
vn 0.795100 -0.596100 -0.111400
vn 0.783300 -0.581900 0.218700
vn 0.767700 -0.546700 0.334200
vn 0.769600 -0.558100 0.310200
vn 0.789100 -0.564300 0.242500
vn 0.786800 -0.609400 0.097800
vn 0.782600 -0.612000 -0.113200
vn 0.742700 -0.569600 -0.352200
vn 0.743100 -0.441300 -0.503000
vn 0.739800 -0.423600 -0.522700
vn 0.762500 -0.489700 -0.422800
vn 0.773400 -0.550200 -0.314800
vn 0.766900 -0.466200 -0.441000
vn 0.902100 -0.377200 -0.209500
vn 0.875900 -0.362300 -0.318600
vn 0.849700 -0.406800 -0.335400
vn 0.867200 -0.441800 -0.229900
vn 0.876300 -0.472000 -0.096200
vn 0.914200 -0.395900 -0.086500
vn 0.930600 -0.356800 -0.081400
vn 0.912600 -0.346900 -0.216200
vn 0.870400 -0.354400 -0.341600
vn 0.910100 -0.412600 0.037400
vn 0.875900 -0.480600 0.041000
vn 0.865500 -0.476900 0.152900
vn 0.891100 -0.429100 0.147500
vn 0.887100 -0.428100 0.172400
vn 0.921400 -0.385200 0.051600
vn 0.829500 -0.554900 0.063400
vn 0.827000 -0.552100 -0.106100
vn 0.825400 -0.532900 0.186400
vn 0.818600 -0.507200 -0.269300
vn 0.807000 -0.451400 -0.380700
vn 0.906100 -0.342600 -0.247900
vn 0.839300 -0.372500 -0.396000
vn 0.933400 -0.349700 -0.080400
vn 0.912900 -0.398800 -0.086800
vn 0.860700 -0.391200 -0.325500
vn 0.816200 -0.387800 -0.428200
vn 0.916900 -0.390100 0.083600
vn 0.859300 -0.461000 0.221400
vn 0.838300 -0.484800 0.249300
vn 0.876100 -0.459200 0.147100
vn -0.353200 -0.140800 -0.924900
vn -0.491900 -0.475700 -0.729200
vn -0.267700 -0.015400 -0.963300
vn 0.816200 -0.387800 -0.428200
vn -0.377800 -0.918100 0.119000
vn -0.448700 -0.665900 0.595900
vn -0.245900 -0.960500 -0.129900
vn 0.838300 -0.484800 0.249300
vn -0.020800 0.321900 0.946500
vn 0.181900 0.540300 0.821500
vn -0.116300 0.136800 0.983700
vn 0.767700 -0.546700 0.334200
vn 0.497900 0.767700 -0.403300
vn 0.133300 0.751100 -0.646600
vn 0.717200 0.692600 0.076200
vn 0.739800 -0.423600 -0.522700
vn -0.077900 0.574700 -0.814600
vn -0.177100 0.406900 -0.896100
vn -0.393000 -0.851200 -0.347700
vn -0.295100 -0.397600 0.868800
vn -0.206200 -0.287500 0.935300
vn 0.529800 0.627700 0.570400
vn -0.154400 -0.006700 0.988000
vn -0.159800 -0.093200 0.982700
vn -0.216600 0.270100 -0.938100
vn -0.222800 0.185000 -0.957100
vn -0.226800 0.099800 -0.968800
vn -0.163500 -0.178000 0.970300
vt 0.839504 0.118056
vt 0.856743 0.205307
vt 0.741230 0.205307
vt 0.734555 0.106726
vt 0.724541 0.032791
vt 0.813647 0.052618
vt 0.868992 0.081539
vt 0.913398 0.129584
vt 0.940923 0.205307
vt 0.839504 0.292557
vt 0.813647 0.357995
vt 0.724541 0.377822
vt 0.734555 0.303887
vt 0.913398 0.281029
vt 0.868992 0.329074
vt 0.369475 0.299954
vt 0.368286 0.370940
vt 0.245840 0.351447
vt 0.246397 0.288815
vt 0.246768 0.205307
vt 0.370268 0.205307
vt 0.494283 0.205307
vt 0.492822 0.304944
vt 0.490632 0.379672
vt 0.369475 0.110659
vt 0.246397 0.121798
vt 0.245841 0.059166
vt 0.368286 0.039673
vt 0.490632 0.030941
vt 0.492822 0.105669
vt 0.616755 0.103478
vt 0.619174 0.205307
vt 0.613127 0.027106
vt 0.616755 0.307135
vt 0.613126 0.383507
vt 0.123273 0.268175
vt 0.123047 0.315326
vt 0.054743 0.283353
vt 0.030912 0.249131
vt 0.030973 0.205306
vt 0.123423 0.205306
vt 0.123273 0.142438
vt 0.030912 0.161481
vt 0.054744 0.127260
vt 0.123047 0.095287
vt 0.839504 0.118056
vt 0.856743 0.205307
vt 0.968983 0.205307
vt 0.938030 0.133427
vt 0.876123 0.061548
vt 0.805028 0.030806
vt 0.721203 0.008146
vt 0.734555 0.106726
vt 0.741230 0.205307
vt 0.839504 0.292557
vt 0.805028 0.379807
vt 0.876123 0.349065
vt 0.938030 0.277186
vt 0.734555 0.303887
vt 0.721203 0.402467
vt 0.369475 0.299954
vt 0.367890 0.394602
vt 0.489902 0.404581
vt 0.492822 0.304944
vt 0.494283 0.205307
vt 0.370268 0.205307
vt 0.246768 0.205307
vt 0.246397 0.288815
vt 0.245655 0.372324
vt 0.369475 0.110659
vt 0.492822 0.105669
vt 0.489902 0.006032
vt 0.367890 0.016011
vt 0.245655 0.038289
vt 0.246397 0.121798
vt 0.616755 0.103478
vt 0.619174 0.205307
vt 0.611917 0.001649
vt 0.616755 0.307135
vt 0.611917 0.408964
vt 0.123273 0.268175
vt 0.122972 0.331043
vt 0.123423 0.205306
vt 0.000156 0.205306
vt 0.000125 0.242784
vt 0.000064 0.280261
vt 0.123273 0.142438
vt 0.122972 0.079570
vt 0.000064 0.130352
vt 0.000125 0.167829
vt 0.122972 0.331043
vt 0.030806 0.283587
vt 0.245655 0.372324
vt 0.030806 0.283587
vt 0.000125 0.167829
vt 0.030806 0.127026
vt 0.000156 0.205306
vt 0.030806 0.127026
vt 0.805028 0.030806
vt 0.873826 0.071832
vt 0.721203 0.008146
vt 0.873826 0.071832
vt 0.938030 0.277186
vt 0.873826 0.338781
vt 0.968983 0.205307
vt 0.873826 0.338781
vt 0.805028 0.379807
vt 0.721203 0.402467
vt 0.000125 0.242784
vt 0.122972 0.079570
vt 0.245655 0.038289
vt 0.938030 0.133427
vt 0.611917 0.001649
vt 0.489902 0.006032
vt 0.611917 0.408964
vt 0.489902 0.404581
vt 0.367890 0.394602
vt 0.367890 0.016011
f 1/1/1 2/2/2 3/3/3
f 1/1/1 3/3/3 4/4/4
f 1/1/1 4/4/4 5/5/5
f 1/1/1 5/5/5 6/6/6
f 1/1/1 6/6/6 7/7/7
f 1/1/1 7/7/7 8/8/8
f 1/1/1 8/8/8 9/9/9
f 1/1/1 9/9/9 2/2/2
f 10/10/10 11/11/11 12/12/12
f 10/10/10 12/12/12 13/13/13
f 10/10/10 13/13/13 3/3/3
f 10/10/10 3/3/3 2/2/2
f 10/10/10 2/2/2 9/9/9
f 10/10/10 9/9/9 14/14/14
f 10/10/10 14/14/14 15/15/15
f 10/10/10 15/15/15 11/11/11
f 16/16/16 17/17/17 18/18/18
f 16/16/16 18/18/18 19/19/19
f 16/16/16 19/19/19 20/20/20
f 16/16/16 20/20/20 21/21/21
f 16/16/16 21/21/21 22/22/22
f 16/16/16 22/22/22 23/23/23
f 16/16/16 23/23/23 24/24/24
f 16/16/16 24/24/24 17/17/17
f 25/25/25 21/21/21 20/20/20
f 25/25/25 20/20/20 26/26/26
f 25/25/25 26/26/26 27/27/27
f 25/25/25 27/27/27 28/28/28
f 25/25/25 28/28/28 29/29/29
f 25/25/25 29/29/29 30/30/30
f 25/25/25 30/30/30 22/22/22
f 25/25/25 22/22/22 21/21/21
f 31/31/31 32/32/32 22/22/22
f 31/31/31 22/22/22 30/30/30
f 31/31/31 30/30/30 29/29/29
f 31/31/31 29/29/29 33/33/33
f 31/31/31 33/33/33 5/5/5
f 31/31/31 5/5/5 4/4/4
f 31/31/31 4/4/4 3/3/3
f 31/31/31 3/3/3 32/32/32
f 34/34/34 35/35/35 24/24/24
f 34/34/34 24/24/24 23/23/23
f 34/34/34 23/23/23 22/22/22
f 34/34/34 22/22/22 32/32/32
f 34/34/34 32/32/32 3/3/3
f 34/34/34 3/3/3 13/13/13
f 34/34/34 13/13/13 12/12/12
f 34/34/34 12/12/12 35/35/35
f 36/36/36 37/37/37 38/38/38
f 36/36/36 38/38/38 39/39/39
f 36/36/36 39/39/39 40/40/40
f 36/36/36 40/40/40 41/41/41
f 36/36/36 41/41/41 20/20/20
f 36/36/36 20/20/20 19/19/19
f 36/36/36 19/19/19 18/18/18
f 36/36/36 18/18/18 37/37/37
f 42/42/42 41/41/41 40/40/40
f 42/42/42 40/40/40 43/43/43
f 42/42/42 43/43/43 44/44/44
f 42/42/42 44/44/44 45/45/45
f 42/42/42 45/45/45 27/27/27
f 42/42/42 27/27/27 26/26/26
f 42/42/42 26/26/26 20/20/20
f 42/42/42 20/20/20 41/41/41
f 46/46/46 47/47/47 48/48/48
f 46/46/46 48/48/48 49/49/49
f 46/46/46 49/49/49 50/50/50
f 46/46/46 50/50/50 51/51/51
f 46/46/46 51/51/51 52/52/52
f 46/46/46 52/52/52 53/53/53
f 46/46/46 53/53/53 54/54/54
f 46/46/46 54/54/54 47/47/47
f 55/55/55 56/56/56 57/57/57
f 55/55/55 57/57/57 58/58/58
f 55/55/55 58/58/58 48/48/48
f 55/55/55 48/48/48 47/47/47
f 55/55/55 47/47/47 54/54/54
f 55/55/55 54/54/54 59/59/59
f 55/55/55 59/59/59 60/60/60
f 55/55/55 60/60/60 56/56/56
f 61/61/61 62/62/62 63/63/63
f 61/61/61 63/63/63 64/64/64
f 61/61/61 64/64/64 65/65/65
f 61/61/61 65/65/65 66/66/66
f 61/61/61 66/66/66 67/67/67
f 61/61/61 67/67/67 68/68/68
f 61/61/61 68/68/68 69/69/69
f 61/61/61 69/69/69 62/62/62
f 70/70/70 66/66/66 65/65/65
f 70/70/70 65/65/65 71/71/71
f 70/70/70 71/71/71 72/72/72
f 70/70/70 72/72/72 73/73/73
f 70/70/70 73/73/73 74/74/74
f 70/70/70 74/74/74 75/75/75
f 70/70/70 75/75/75 67/67/67
f 70/70/70 67/67/67 66/66/66
f 76/76/76 77/77/77 54/54/54
f 76/76/76 54/54/54 53/53/53
f 76/76/76 53/53/53 52/52/52
f 76/76/76 52/52/52 78/78/78
f 76/76/76 78/78/78 72/72/72
f 76/76/76 72/72/72 71/71/71
f 76/76/76 71/71/71 65/65/65
f 76/76/76 65/65/65 77/77/77
f 79/79/79 80/80/80 60/60/60
f 79/79/79 60/60/60 59/59/59
f 79/79/79 59/59/59 54/54/54
f 79/79/79 54/54/54 77/77/77
f 79/79/79 77/77/77 65/65/65
f 79/79/79 65/65/65 64/64/64
f 79/79/79 64/64/64 63/63/63
f 79/79/79 63/63/63 80/80/80
f 81/81/81 82/82/82 69/69/69
f 81/81/81 69/69/69 68/68/68
f 81/81/81 68/68/68 67/67/67
f 81/81/81 67/67/67 83/83/83
f 81/81/81 83/83/83 84/84/84
f 81/81/81 84/84/84 85/85/85
f 81/81/81 85/85/85 86/86/86
f 81/81/81 86/86/86 82/82/82
f 87/87/87 83/83/83 67/67/67
f 87/87/87 67/67/67 75/75/75
f 87/87/87 75/75/75 74/74/74
f 87/87/87 74/74/74 88/88/88
f 87/87/87 88/88/88 89/89/89
f 87/87/87 89/89/89 90/90/90
f 87/87/87 90/90/90 84/84/84
f 87/87/87 84/84/84 83/83/83
f 91/91/91 92/92/92 38/38/38
f 91/91/91 38/38/38 37/37/37
f 91/91/91 37/37/37 18/18/18
f 91/91/91 18/18/18 93/93/93
f 91/91/91 93/93/93 69/69/69
f 91/91/91 69/69/69 82/82/82
f 91/91/91 82/82/82 94/94/94
f 91/91/91 94/94/94 92/92/92
f 95/95/95 96/96/96 44/44/44
f 95/95/95 44/44/44 43/43/43
f 95/95/95 43/43/43 40/40/40
f 95/95/95 40/40/40 97/97/97
f 95/95/95 97/97/97 84/84/84
f 95/95/95 84/84/84 90/90/90
f 95/95/95 90/90/90 98/98/98
f 95/95/95 98/98/98 96/96/96
f 99/99/99 100/100/100 7/7/7
f 99/99/99 7/7/7 6/6/6
f 99/99/99 6/6/6 5/5/5
f 99/99/99 5/5/5 101/101/101
f 99/99/99 101/101/101 52/52/52
f 99/99/99 52/52/52 51/51/51
f 99/99/99 51/51/51 102/102/102
f 99/99/99 102/102/102 100/100/100
f 103/103/103 104/104/104 15/15/15
f 103/103/103 15/15/15 14/14/14
f 103/103/103 14/14/14 9/9/9
f 103/103/103 9/9/9 105/105/105
f 103/103/103 105/105/105 48/48/48
f 103/103/103 48/48/48 58/58/58
f 103/103/103 58/58/58 106/106/106
f 103/103/103 106/106/106 104/104/104
f 107/107/107 108/108/108 12/12/12
f 107/107/107 12/12/12 11/11/11
f 107/107/107 11/11/11 15/15/15
f 107/107/107 15/15/15 104/104/104
f 107/107/107 104/104/104 106/106/106
f 107/107/107 106/106/106 56/56/56
f 107/107/107 56/56/56 60/60/60
f 107/107/107 60/60/60 108/108/108
f 109/109/109 97/97/97 40/40/40
f 109/109/109 40/40/40 39/39/39
f 109/109/109 39/39/39 38/38/38
f 109/109/109 38/38/38 92/92/92
f 109/109/109 92/92/92 94/94/94
f 109/109/109 94/94/94 85/85/85
f 109/109/109 85/85/85 84/84/84
f 109/109/109 84/84/84 97/97/97
f 110/110/110 111/111/111 27/27/27
f 110/110/110 27/27/27 45/45/45
f 110/110/110 45/45/45 44/44/44
f 110/110/110 44/44/44 96/96/96
f 110/110/110 96/96/96 98/98/98
f 110/110/110 98/98/98 88/88/88
f 110/110/110 88/88/88 74/74/74
f 110/110/110 74/74/74 111/111/111
f 112/112/112 105/105/105 9/9/9
f 112/112/112 9/9/9 8/8/8
f 112/112/112 8/8/8 7/7/7
f 112/112/112 7/7/7 100/100/100
f 112/112/112 100/100/100 102/102/102
f 112/112/112 102/102/102 49/49/49
f 112/112/112 49/49/49 48/48/48
f 112/112/112 48/48/48 105/105/105
f 113/113/113 101/101/101 5/5/5
f 113/113/113 5/5/5 33/33/33
f 113/113/113 33/33/33 29/29/29
f 113/113/113 29/29/29 114/114/114
f 113/113/113 114/114/114 72/72/72
f 113/113/113 72/72/72 78/78/78
f 113/113/113 78/78/78 52/52/52
f 113/113/113 52/52/52 101/101/101
f 115/115/115 116/116/116 24/24/24
f 115/115/115 24/24/24 35/35/35
f 115/115/115 35/35/35 12/12/12
f 115/115/115 12/12/12 108/108/108
f 115/115/115 108/108/108 60/60/60
f 115/115/115 60/60/60 80/80/80
f 115/115/115 80/80/80 63/63/63
f 115/115/115 63/63/63 116/116/116
f 117/117/117 93/93/93 18/18/18
f 117/117/117 18/18/18 17/17/17
f 117/117/117 17/17/17 24/24/24
f 117/117/117 24/24/24 116/116/116
f 117/117/117 116/116/116 63/63/63
f 117/117/117 63/63/63 62/62/62
f 117/117/117 62/62/62 69/69/69
f 117/117/117 69/69/69 93/93/93
f 118/118/118 114/114/114 29/29/29
f 118/118/118 29/29/29 28/28/28
f 118/118/118 28/28/28 27/27/27
f 118/118/118 27/27/27 111/111/111
f 118/118/118 111/111/111 74/74/74
f 118/118/118 74/74/74 73/73/73
f 118/118/118 73/73/73 72/72/72
f 118/118/118 72/72/72 114/114/114
