v -2.338203 0.686475 -1.135426
v -2.336896 0.686678 -1.138140
v -2.340793 0.686545 -1.139115
v -2.341841 0.686246 -1.135940
v -2.342835 0.686296 -1.133536
v -2.339656 0.686603 -1.133430
v -2.337517 0.686595 -1.133939
v -2.335587 0.686504 -1.135198
v -2.334030 0.686640 -1.137453
v -2.336859 0.687736 -1.140967
v -2.337300 0.688816 -1.143148
v -2.340159 0.688809 -1.144576
v -2.340314 0.687680 -1.142238
v -2.334424 0.687596 -1.139995
v -2.335609 0.688387 -1.141809
v -2.352156 0.685101 -1.145625
v -2.351731 0.685923 -1.147913
v -2.355681 0.684261 -1.148555
v -2.356046 0.683518 -1.146533
v -2.356610 0.682689 -1.143828
v -2.352803 0.684179 -1.142565
v -2.348904 0.685389 -1.141345
v -2.348235 0.686382 -1.144541
v -2.347805 0.687285 -1.146927
v -2.353652 0.683696 -1.139454
v -2.357370 0.682275 -1.141076
v -2.358000 0.682083 -1.138992
v -2.354353 0.683461 -1.137100
v -2.350547 0.684710 -1.135617
v -2.349800 0.684912 -1.138086
v -2.345784 0.685744 -1.136870
v -2.344848 0.686146 -1.140189
v -2.346586 0.685660 -1.134347
v -2.344197 0.687235 -1.143420
v -2.343804 0.688273 -1.145825
v -2.359995 0.681756 -1.147123
v -2.359753 0.682374 -1.148627
v -2.362054 0.681106 -1.148297
v -2.362961 0.680333 -1.147454
v -2.363203 0.679812 -1.146081
v -2.360391 0.681089 -1.145109
v -2.360982 0.680829 -1.143050
v -2.363638 0.679697 -1.144663
v -2.363271 0.679963 -1.143275
v -2.361484 0.680748 -1.141486
v -2.338175 0.686161 -1.135444
v -2.336859 0.686371 -1.138201
v -2.334006 0.686410 -1.137500
v -2.335571 0.686269 -1.135211
v -2.337507 0.686420 -1.133939
v -2.339641 0.686366 -1.133422
v -2.342808 0.686060 -1.133532
v -2.341799 0.685933 -1.135960
v -2.340743 0.686238 -1.139173
v -2.336811 0.687442 -1.141069
v -2.337259 0.688602 -1.143244
v -2.335582 0.688227 -1.141876
v -2.334392 0.687376 -1.140074
v -2.340254 0.687384 -1.142332
v -2.340109 0.688594 -1.144665
v -2.352043 0.684813 -1.145693
v -2.351644 0.685711 -1.147977
v -2.347729 0.687071 -1.146997
v -2.348138 0.686090 -1.144616
v -2.348814 0.685089 -1.141391
v -2.352696 0.683883 -1.142607
v -2.356492 0.682397 -1.143866
v -2.355922 0.683233 -1.146597
v -2.355585 0.684052 -1.148617
v -2.353552 0.683396 -1.139469
v -2.349717 0.684607 -1.138104
v -2.350489 0.684479 -1.135616
v -2.354281 0.683234 -1.137098
v -2.357920 0.681859 -1.138987
v -2.357258 0.681978 -1.141087
v -2.345723 0.685434 -1.136890
v -2.344779 0.685842 -1.140241
v -2.346544 0.685426 -1.134345
v -2.344120 0.686940 -1.143505
v -2.343742 0.688058 -1.145904
v -2.359865 0.681474 -1.147187
v -2.359653 0.682167 -1.148690
v -2.360269 0.680799 -1.145145
v -2.363110 0.679595 -1.146108
v -2.362864 0.680122 -1.147504
v -2.361980 0.680952 -1.148339
v -2.360867 0.680533 -1.143057
v -2.361402 0.680525 -1.141477
v -2.363209 0.679798 -1.143272
v -2.363551 0.679476 -1.144668
v -2.359627 0.682489 -1.149160
v -2.362789 0.680784 -1.148553
v -2.355516 0.684417 -1.149260
v -2.361980 0.680952 -1.148339
v -2.364484 0.679222 -1.145203
v -2.364009 0.679639 -1.143523
v -2.364098 0.679290 -1.146417
v -2.363209 0.679798 -1.143272
v -2.340135 0.686540 -1.132756
v -2.337433 0.686587 -1.133562
v -2.343156 0.686207 -1.132729
v -2.337507 0.686420 -1.133939
v -2.333599 0.687452 -1.139707
v -2.335369 0.688526 -1.142077
v -2.333064 0.686525 -1.137246
v -2.335582 0.688227 -1.141876
v -2.337428 0.689083 -1.143922
v -2.340084 0.689092 -1.145399
v -2.363906 0.679765 -1.147587
v -2.361616 0.680622 -1.140957
v -2.358175 0.681919 -1.138292
v -2.334709 0.686410 -1.135128
v -2.346836 0.685528 -1.133502
v -2.350771 0.684540 -1.134790
v -2.343644 0.688525 -1.146666
v -2.347627 0.687492 -1.147757
v -2.351550 0.686104 -1.148707
v -2.354555 0.683281 -1.136312
vn -0.035100 0.999300 -0.009100
vn -0.066200 0.976300 0.206200
vn -0.124200 0.973600 0.191600
vn -0.098800 0.995100 -0.001300
vn -0.125300 0.992100 0.001400
vn -0.037400 0.999300 -0.001300
vn 0.024800 0.999700 -0.002500
vn 0.045300 0.997600 0.051700
vn 0.024700 0.973400 0.227600
vn -0.134700 0.905800 0.401800
vn -0.133400 0.909100 0.394500
vn -0.210000 0.912500 0.350900
vn -0.187800 0.911400 0.366000
vn -0.036100 0.921200 0.387400
vn -0.078300 0.902800 0.422800
vn -0.385600 0.894800 0.224800
vn -0.385900 0.903200 0.187700
vn -0.414200 0.893100 0.175400
vn -0.416900 0.881300 0.222400
vn -0.401700 0.909100 0.109600
vn -0.363500 0.923500 0.122100
vn -0.285000 0.947200 0.146600
vn -0.318200 0.911900 0.259000
vn -0.329000 0.916200 0.228800
vn -0.335600 0.941800 0.018500
vn -0.363300 0.931700 0.001200
vn -0.382600 0.922800 0.044900
vn -0.352900 0.934200 0.051500
vn -0.285400 0.957200 0.048800
vn -0.262100 0.964600 0.027600
vn -0.173300 0.984600 0.020200
vn -0.195900 0.965300 0.172300
vn -0.202700 0.978800 0.029200
vn -0.244000 0.918200 0.311900
vn -0.265800 0.919600 0.289400
vn -0.434100 0.867700 0.242100
vn -0.435700 0.879600 0.190700
vn -0.456400 0.863300 0.215400
vn -0.487300 0.838100 0.245300
vn -0.468500 0.879200 0.086600
vn -0.419400 0.901800 0.103600
vn -0.368700 0.929100 -0.027600
vn -0.411900 0.908800 -0.065500
vn -0.399800 0.916400 -0.017900
vn -0.393700 0.919000 0.017700
vn 0.051100 -0.997800 0.042000
vn 0.082200 -0.975900 -0.202200
vn 0.143800 -0.971900 -0.186400
vn 0.095100 -0.985500 0.140300
vn 0.091500 -0.961300 0.259700
vn 0.088300 -0.968200 0.234100
vn 0.107700 -0.980000 0.167000
vn 0.096500 -0.995200 0.016600
vn 0.124100 -0.973600 -0.191600
vn 0.163200 -0.892500 -0.420500
vn 0.277400 -0.790600 -0.545900
vn 0.290800 -0.774100 -0.562300
vn 0.244400 -0.845400 -0.475000
vn 0.192400 -0.905100 -0.379200
vn 0.266700 -0.830700 -0.488600
vn 0.387500 -0.890000 -0.240200
vn 0.396700 -0.850300 -0.345700
vn 0.349600 -0.860200 -0.371200
vn 0.320800 -0.906900 -0.273000
vn 0.285100 -0.947200 -0.146500
vn 0.363700 -0.923500 -0.122100
vn 0.401800 -0.909100 -0.109600
vn 0.417200 -0.876300 -0.241000
vn 0.402100 -0.838700 -0.367300
vn 0.330100 -0.943900 -0.003400
vn 0.257800 -0.966100 -0.013200
vn 0.236100 -0.966800 0.097200
vn 0.288300 -0.952100 0.101400
vn 0.282500 -0.951000 0.125800
vn 0.354900 -0.934800 0.015800
vn 0.169700 -0.985500 -0.006000
vn 0.195900 -0.965300 -0.172300
vn 0.163600 -0.979300 0.118700
vn 0.247000 -0.912800 -0.325200
vn 0.295500 -0.855500 -0.425200
vn 0.420600 -0.865600 -0.271600
vn 0.376200 -0.823200 -0.425100
vn 0.408700 -0.906300 -0.107300
vn 0.360800 -0.924500 -0.123000
vn 0.366700 -0.858500 -0.358300
vn 0.354400 -0.814000 -0.460200
vn 0.343500 -0.938000 0.046200
vn 0.232600 -0.958100 0.167100
vn 0.196800 -0.961900 0.189600
vn 0.256800 -0.961800 0.094900
vn -0.200800 0.249100 -0.947400
vn -0.564200 0.100700 -0.819400
vn -0.047600 0.276500 -0.959800
vn 0.354400 -0.814000 -0.460200
vn -0.928600 -0.366100 -0.059600
vn -0.872400 -0.188600 0.450900
vn -0.829300 -0.466600 -0.307400
vn 0.196800 -0.961900 0.189600
vn 0.067600 0.143600 0.987300
vn 0.381100 0.158800 0.910700
vn -0.134400 0.082600 0.987500
vn 0.091500 -0.961300 0.259700
vn 0.948500 0.204000 -0.242000
vn 0.722500 0.479800 -0.497800
vn 0.973200 -0.052100 0.224000
vn 0.290800 -0.774100 -0.562300
vn 0.477100 0.528300 -0.702300
vn 0.302700 0.493100 -0.815600
vn -0.819900 -0.264000 -0.508000
vn -0.617900 -0.142500 0.773200
vn -0.489000 -0.138000 0.861300
vn 0.722300 -0.008700 0.691500
vn -0.262200 0.011700 0.964900
vn -0.326800 -0.043200 0.944100
vn 0.185600 0.432300 -0.882400
vn 0.124300 0.380500 -0.916300
vn 0.063000 0.326100 -0.943200
vn -0.387900 -0.097400 0.916500
vt 0.839504 0.118056
vt 0.856743 0.205307
vt 0.741230 0.205307
vt 0.734555 0.106726
vt 0.724541 0.032791
vt 0.813647 0.052618
vt 0.868992 0.081539
vt 0.913398 0.129584
vt 0.940923 0.205307
vt 0.839504 0.292557
vt 0.813647 0.357995
vt 0.724541 0.377822
vt 0.734555 0.303887
vt 0.913398 0.281029
vt 0.868992 0.329074
vt 0.369475 0.299954
vt 0.368286 0.370940
vt 0.245840 0.351447
vt 0.246397 0.288815
vt 0.246768 0.205307
vt 0.370268 0.205307
vt 0.494283 0.205307
vt 0.492822 0.304944
vt 0.490632 0.379672
vt 0.369475 0.110659
vt 0.246397 0.121798
vt 0.245841 0.059166
vt 0.368286 0.039673
vt 0.490632 0.030941
vt 0.492822 0.105669
vt 0.616755 0.103478
vt 0.619174 0.205307
vt 0.613127 0.027106
vt 0.616755 0.307135
vt 0.613126 0.383507
vt 0.123273 0.268175
vt 0.123047 0.315326
vt 0.054743 0.283353
vt 0.030912 0.249131
vt 0.030973 0.205306
vt 0.123423 0.205306
vt 0.123273 0.142438
vt 0.030912 0.161481
vt 0.054744 0.127260
vt 0.123047 0.095287
vt 0.839504 0.118056
vt 0.856743 0.205307
vt 0.968983 0.205307
vt 0.938030 0.133427
vt 0.876123 0.061548
vt 0.805028 0.030806
vt 0.721203 0.008146
vt 0.734555 0.106726
vt 0.741230 0.205307
vt 0.839504 0.292557
vt 0.805028 0.379807
vt 0.876123 0.349065
vt 0.938030 0.277186
vt 0.734555 0.303887
vt 0.721203 0.402467
vt 0.369475 0.299954
vt 0.367890 0.394602
vt 0.489902 0.404581
vt 0.492822 0.304944
vt 0.494283 0.205307
vt 0.370268 0.205307
vt 0.246768 0.205307
vt 0.246397 0.288815
vt 0.245655 0.372324
vt 0.369475 0.110659
vt 0.492822 0.105669
vt 0.489902 0.006032
vt 0.367890 0.016011
vt 0.245655 0.038289
vt 0.246397 0.121798
vt 0.616755 0.103478
vt 0.619174 0.205307
vt 0.611917 0.001649
vt 0.616755 0.307135
vt 0.611917 0.408964
vt 0.123273 0.268175
vt 0.122972 0.331043
vt 0.123423 0.205306
vt 0.000156 0.205306
vt 0.000125 0.242784
vt 0.000064 0.280261
vt 0.123273 0.142438
vt 0.122972 0.079570
vt 0.000064 0.130352
vt 0.000125 0.167829
vt 0.122972 0.331043
vt 0.030806 0.283587
vt 0.245655 0.372324
vt 0.030806 0.283587
vt 0.000125 0.167829
vt 0.030806 0.127026
vt 0.000156 0.205306
vt 0.030806 0.127026
vt 0.805028 0.030806
vt 0.873826 0.071832
vt 0.721203 0.008146
vt 0.873826 0.071832
vt 0.938030 0.277186
vt 0.873826 0.338781
vt 0.968983 0.205307
vt 0.873826 0.338781
vt 0.805028 0.379807
vt 0.721203 0.402467
vt 0.000125 0.242784
vt 0.122972 0.079570
vt 0.245655 0.038289
vt 0.938030 0.133427
vt 0.611917 0.001649
vt 0.489902 0.006032
vt 0.611917 0.408964
vt 0.489902 0.404581
vt 0.367890 0.394602
vt 0.367890 0.016011
f 1/1/1 2/2/2 3/3/3
f 1/1/1 3/3/3 4/4/4
f 1/1/1 4/4/4 5/5/5
f 1/1/1 5/5/5 6/6/6
f 1/1/1 6/6/6 7/7/7
f 1/1/1 7/7/7 8/8/8
f 1/1/1 8/8/8 9/9/9
f 1/1/1 9/9/9 2/2/2
f 10/10/10 11/11/11 12/12/12
f 10/10/10 12/12/12 13/13/13
f 10/10/10 13/13/13 3/3/3
f 10/10/10 3/3/3 2/2/2
f 10/10/10 2/2/2 9/9/9
f 10/10/10 9/9/9 14/14/14
f 10/10/10 14/14/14 15/15/15
f 10/10/10 15/15/15 11/11/11
f 16/16/16 17/17/17 18/18/18
f 16/16/16 18/18/18 19/19/19
f 16/16/16 19/19/19 20/20/20
f 16/16/16 20/20/20 21/21/21
f 16/16/16 21/21/21 22/22/22
f 16/16/16 22/22/22 23/23/23
f 16/16/16 23/23/23 24/24/24
f 16/16/16 24/24/24 17/17/17
f 25/25/25 21/21/21 20/20/20
f 25/25/25 20/20/20 26/26/26
f 25/25/25 26/26/26 27/27/27
f 25/25/25 27/27/27 28/28/28
f 25/25/25 28/28/28 29/29/29
f 25/25/25 29/29/29 30/30/30
f 25/25/25 30/30/30 22/22/22
f 25/25/25 22/22/22 21/21/21
f 31/31/31 32/32/32 22/22/22
f 31/31/31 22/22/22 30/30/30
f 31/31/31 30/30/30 29/29/29
f 31/31/31 29/29/29 33/33/33
f 31/31/31 33/33/33 5/5/5
f 31/31/31 5/5/5 4/4/4
f 31/31/31 4/4/4 3/3/3
f 31/31/31 3/3/3 32/32/32
f 34/34/34 35/35/35 24/24/24
f 34/34/34 24/24/24 23/23/23
f 34/34/34 23/23/23 22/22/22
f 34/34/34 22/22/22 32/32/32
f 34/34/34 32/32/32 3/3/3
f 34/34/34 3/3/3 13/13/13
f 34/34/34 13/13/13 12/12/12
f 34/34/34 12/12/12 35/35/35
f 36/36/36 37/37/37 38/38/38
f 36/36/36 38/38/38 39/39/39
f 36/36/36 39/39/39 40/40/40
f 36/36/36 40/40/40 41/41/41
f 36/36/36 41/41/41 20/20/20
f 36/36/36 20/20/20 19/19/19
f 36/36/36 19/19/19 18/18/18
f 36/36/36 18/18/18 37/37/37
f 42/42/42 41/41/41 40/40/40
f 42/42/42 40/40/40 43/43/43
f 42/42/42 43/43/43 44/44/44
f 42/42/42 44/44/44 45/45/45
f 42/42/42 45/45/45 27/27/27
f 42/42/42 27/27/27 26/26/26
f 42/42/42 26/26/26 20/20/20
f 42/42/42 20/20/20 41/41/41
f 46/46/46 47/47/47 48/48/48
f 46/46/46 48/48/48 49/49/49
f 46/46/46 49/49/49 50/50/50
f 46/46/46 50/50/50 51/51/51
f 46/46/46 51/51/51 52/52/52
f 46/46/46 52/52/52 53/53/53
f 46/46/46 53/53/53 54/54/54
f 46/46/46 54/54/54 47/47/47
f 55/55/55 56/56/56 57/57/57
f 55/55/55 57/57/57 58/58/58
f 55/55/55 58/58/58 48/48/48
f 55/55/55 48/48/48 47/47/47
f 55/55/55 47/47/47 54/54/54
f 55/55/55 54/54/54 59/59/59
f 55/55/55 59/59/59 60/60/60
f 55/55/55 60/60/60 56/56/56
f 61/61/61 62/62/62 63/63/63
f 61/61/61 63/63/63 64/64/64
f 61/61/61 64/64/64 65/65/65
f 61/61/61 65/65/65 66/66/66
f 61/61/61 66/66/66 67/67/67
f 61/61/61 67/67/67 68/68/68
f 61/61/61 68/68/68 69/69/69
f 61/61/61 69/69/69 62/62/62
f 70/70/70 66/66/66 65/65/65
f 70/70/70 65/65/65 71/71/71
f 70/70/70 71/71/71 72/72/72
f 70/70/70 72/72/72 73/73/73
f 70/70/70 73/73/73 74/74/74
f 70/70/70 74/74/74 75/75/75
f 70/70/70 75/75/75 67/67/67
f 70/70/70 67/67/67 66/66/66
f 76/76/76 77/77/77 54/54/54
f 76/76/76 54/54/54 53/53/53
f 76/76/76 53/53/53 52/52/52
f 76/76/76 52/52/52 78/78/78
f 76/76/76 78/78/78 72/72/72
f 76/76/76 72/72/72 71/71/71
f 76/76/76 71/71/71 65/65/65
f 76/76/76 65/65/65 77/77/77
f 79/79/79 80/80/80 60/60/60
f 79/79/79 60/60/60 59/59/59
f 79/79/79 59/59/59 54/54/54
f 79/79/79 54/54/54 77/77/77
f 79/79/79 77/77/77 65/65/65
f 79/79/79 65/65/65 64/64/64
f 79/79/79 64/64/64 63/63/63
f 79/79/79 63/63/63 80/80/80
f 81/81/81 82/82/82 69/69/69
f 81/81/81 69/69/69 68/68/68
f 81/81/81 68/68/68 67/67/67
f 81/81/81 67/67/67 83/83/83
f 81/81/81 83/83/83 84/84/84
f 81/81/81 84/84/84 85/85/85
f 81/81/81 85/85/85 86/86/86
f 81/81/81 86/86/86 82/82/82
f 87/87/87 83/83/83 67/67/67
f 87/87/87 67/67/67 75/75/75
f 87/87/87 75/75/75 74/74/74
f 87/87/87 74/74/74 88/88/88
f 87/87/87 88/88/88 89/89/89
f 87/87/87 89/89/89 90/90/90
f 87/87/87 90/90/90 84/84/84
f 87/87/87 84/84/84 83/83/83
f 91/91/91 92/92/92 38/38/38
f 91/91/91 38/38/38 37/37/37
f 91/91/91 37/37/37 18/18/18
f 91/91/91 18/18/18 93/93/93
f 91/91/91 93/93/93 69/69/69
f 91/91/91 69/69/69 82/82/82
f 91/91/91 82/82/82 94/94/94
f 91/91/91 94/94/94 92/92/92
f 95/95/95 96/96/96 44/44/44
f 95/95/95 44/44/44 43/43/43
f 95/95/95 43/43/43 40/40/40
f 95/95/95 40/40/40 97/97/97
f 95/95/95 97/97/97 84/84/84
f 95/95/95 84/84/84 90/90/90
f 95/95/95 90/90/90 98/98/98
f 95/95/95 98/98/98 96/96/96
f 99/99/99 100/100/100 7/7/7
f 99/99/99 7/7/7 6/6/6
f 99/99/99 6/6/6 5/5/5
f 99/99/99 5/5/5 101/101/101
f 99/99/99 101/101/101 52/52/52
f 99/99/99 52/52/52 51/51/51
f 99/99/99 51/51/51 102/102/102
f 99/99/99 102/102/102 100/100/100
f 103/103/103 104/104/104 15/15/15
f 103/103/103 15/15/15 14/14/14
f 103/103/103 14/14/14 9/9/9
f 103/103/103 9/9/9 105/105/105
f 103/103/103 105/105/105 48/48/48
f 103/103/103 48/48/48 58/58/58
f 103/103/103 58/58/58 106/106/106
f 103/103/103 106/106/106 104/104/104
f 107/107/107 108/108/108 12/12/12
f 107/107/107 12/12/12 11/11/11
f 107/107/107 11/11/11 15/15/15
f 107/107/107 15/15/15 104/104/104
f 107/107/107 104/104/104 106/106/106
f 107/107/107 106/106/106 56/56/56
f 107/107/107 56/56/56 60/60/60
f 107/107/107 60/60/60 108/108/108
f 109/109/109 97/97/97 40/40/40
f 109/109/109 40/40/40 39/39/39
f 109/109/109 39/39/39 38/38/38
f 109/109/109 38/38/38 92/92/92
f 109/109/109 92/92/92 94/94/94
f 109/109/109 94/94/94 85/85/85
f 109/109/109 85/85/85 84/84/84
f 109/109/109 84/84/84 97/97/97
f 110/110/110 111/111/111 27/27/27
f 110/110/110 27/27/27 45/45/45
f 110/110/110 45/45/45 44/44/44
f 110/110/110 44/44/44 96/96/96
f 110/110/110 96/96/96 98/98/98
f 110/110/110 98/98/98 88/88/88
f 110/110/110 88/88/88 74/74/74
f 110/110/110 74/74/74 111/111/111
f 112/112/112 105/105/105 9/9/9
f 112/112/112 9/9/9 8/8/8
f 112/112/112 8/8/8 7/7/7
f 112/112/112 7/7/7 100/100/100
f 112/112/112 100/100/100 102/102/102
f 112/112/112 102/102/102 49/49/49
f 112/112/112 49/49/49 48/48/48
f 112/112/112 48/48/48 105/105/105
f 113/113/113 101/101/101 5/5/5
f 113/113/113 5/5/5 33/33/33
f 113/113/113 33/33/33 29/29/29
f 113/113/113 29/29/29 114/114/114
f 113/113/113 114/114/114 72/72/72
f 113/113/113 72/72/72 78/78/78
f 113/113/113 78/78/78 52/52/52
f 113/113/113 52/52/52 101/101/101
f 115/115/115 116/116/116 24/24/24
f 115/115/115 24/24/24 35/35/35
f 115/115/115 35/35/35 12/12/12
f 115/115/115 12/12/12 108/108/108
f 115/115/115 108/108/108 60/60/60
f 115/115/115 60/60/60 80/80/80
f 115/115/115 80/80/80 63/63/63
f 115/115/115 63/63/63 116/116/116
f 117/117/117 93/93/93 18/18/18
f 117/117/117 18/18/18 17/17/17
f 117/117/117 17/17/17 24/24/24
f 117/117/117 24/24/24 116/116/116
f 117/117/117 116/116/116 63/63/63
f 117/117/117 63/63/63 62/62/62
f 117/117/117 62/62/62 69/69/69
f 117/117/117 69/69/69 93/93/93
f 118/118/118 114/114/114 29/29/29
f 118/118/118 29/29/29 28/28/28
f 118/118/118 28/28/28 27/27/27
f 118/118/118 27/27/27 111/111/111
f 118/118/118 111/111/111 74/74/74
f 118/118/118 74/74/74 73/73/73
f 118/118/118 73/73/73 72/72/72
f 118/118/118 72/72/72 114/114/114
