v -2.310578 0.765552 -1.245347
v -2.311881 0.765889 -1.245613
v -2.312000 0.765270 -1.243899
v -2.310518 0.764922 -1.243799
v -2.309366 0.764746 -1.243599
v -2.309565 0.765350 -1.244904
v -2.309968 0.765675 -1.245758
v -2.310691 0.765950 -1.246466
v -2.311814 0.766286 -1.246891
v -2.313087 0.766405 -1.245213
v -2.313966 0.766847 -1.244669
v -2.314365 0.766447 -1.243331
v -2.313370 0.765892 -1.243646
v -2.312863 0.766689 -1.246350
v -2.313532 0.766888 -1.245568
v -2.314027 0.763089 -1.238706
v -2.315037 0.763551 -1.238553
v -2.315079 0.762263 -1.237064
v -2.314188 0.761849 -1.237206
v -2.312981 0.761354 -1.237341
v -2.312660 0.762535 -1.238852
v -2.312379 0.763610 -1.240437
v -2.313805 0.764201 -1.240277
v -2.314855 0.764701 -1.240106
v -2.311233 0.762139 -1.238855
v -2.311717 0.761008 -1.237338
v -2.310749 0.760790 -1.237296
v -2.310141 0.761886 -1.238814
v -2.309734 0.762959 -1.240380
v -2.310882 0.763207 -1.240433
v -2.310632 0.764137 -1.242121
v -2.312162 0.764517 -1.242146
v -2.309449 0.763931 -1.242032
v -2.313597 0.765146 -1.241963
v -2.314646 0.765699 -1.241755
v -2.314212 0.760516 -1.235738
v -2.314870 0.760848 -1.235610
v -2.314596 0.759955 -1.234852
v -2.314186 0.759471 -1.234659
v -2.313582 0.759184 -1.234760
v -2.313318 0.760131 -1.235855
v -2.312368 0.759889 -1.235836
v -2.312922 0.759041 -1.234727
v -2.312323 0.759181 -1.234974
v -2.311636 0.759748 -1.235783
v -2.310604 0.765422 -1.245402
v -2.311926 0.765764 -1.245667
v -2.311848 0.766192 -1.246929
v -2.310710 0.765852 -1.246505
v -2.309978 0.765602 -1.245788
v -2.309575 0.765250 -1.244945
v -2.309378 0.764649 -1.243644
v -2.310546 0.764794 -1.243859
v -2.312045 0.765148 -1.243958
v -2.313151 0.766288 -1.245265
v -2.314022 0.766763 -1.244707
v -2.313571 0.766824 -1.245596
v -2.312912 0.766601 -1.246387
v -2.313431 0.765776 -1.243704
v -2.314419 0.766364 -1.243374
v -2.314080 0.762984 -1.238788
v -2.315083 0.763475 -1.238614
v -2.314903 0.764621 -1.240162
v -2.313860 0.764092 -1.240353
v -2.312422 0.763496 -1.240513
v -2.312702 0.762425 -1.238935
v -2.313022 0.761248 -1.237429
v -2.314241 0.761746 -1.237293
v -2.315125 0.762188 -1.237129
v -2.311262 0.762025 -1.238938
v -2.310912 0.763089 -1.240510
v -2.309750 0.762868 -1.240437
v -2.310157 0.761799 -1.238877
v -2.310765 0.760705 -1.237362
v -2.311746 0.760898 -1.237426
v -2.310661 0.764014 -1.242189
v -2.312207 0.764398 -1.242214
v -2.309463 0.763837 -1.242084
v -2.313655 0.765033 -1.242029
v -2.314697 0.765617 -1.241804
v -2.314265 0.760416 -1.235826
v -2.314916 0.760775 -1.235676
v -2.313359 0.760025 -1.235944
v -2.313612 0.759105 -1.234828
v -2.314226 0.759396 -1.234726
v -2.314629 0.759900 -1.234901
v -2.312396 0.759780 -1.235926
v -2.311650 0.759664 -1.235851
v -2.312335 0.759120 -1.235024
v -2.312942 0.758959 -1.234794
v -2.315111 0.760927 -1.235597
v -2.314666 0.759712 -1.234564
v -2.315398 0.762368 -1.237046
v -2.314629 0.759900 -1.234901
v -2.313115 0.758722 -1.234387
v -2.312388 0.758937 -1.234686
v -2.313683 0.758833 -1.234426
v -2.312335 0.759120 -1.235024
v -2.309230 0.765238 -1.244775
v -2.309808 0.765677 -1.245830
v -2.308986 0.764644 -1.243552
v -2.309978 0.765602 -1.245788
v -2.312810 0.766744 -1.246745
v -2.313663 0.766989 -1.245624
v -2.311807 0.766376 -1.247333
v -2.313571 0.766824 -1.245596
v -2.314286 0.766958 -1.244505
v -2.314722 0.766595 -1.243245
v -2.314195 0.759089 -1.234329
v -2.311397 0.759663 -1.235795
v -2.310432 0.760679 -1.237311
v -2.310737 0.766039 -1.246856
v -2.309059 0.763820 -1.242025
v -2.309357 0.762835 -1.240387
v -2.315020 0.765847 -1.241707
v -2.315228 0.764833 -1.240073
v -2.315395 0.763672 -1.238529
v -2.309783 0.761762 -1.238829
vn 0.106500 0.931800 0.346800
vn 0.320100 0.890200 0.323900
vn 0.316000 0.869400 0.379900
vn 0.125200 0.906600 0.403000
vn 0.132400 0.895000 0.425900
vn 0.114600 0.930700 0.347400
vn 0.102200 0.951500 0.290000
vn 0.151300 0.953900 0.259100
vn 0.324300 0.916500 0.234200
vn 0.516000 0.792500 0.324900
vn 0.509200 0.796300 0.326400
vn 0.480600 0.776600 0.407300
vn 0.491300 0.782100 0.383300
vn 0.485800 0.840100 0.241100
vn 0.526200 0.807200 0.267300
vn 0.387300 0.707800 0.590700
vn 0.352000 0.717200 0.601400
vn 0.344000 0.699000 0.626900
vn 0.389200 0.684800 0.616000
vn 0.279200 0.721200 0.634000
vn 0.286100 0.746700 0.600500
vn 0.298300 0.793700 0.530100
vn 0.410400 0.744500 0.526600
vn 0.383300 0.746300 0.544100
vn 0.181800 0.777700 0.601700
vn 0.168700 0.759800 0.627800
vn 0.213900 0.743300 0.633800
vn 0.216300 0.763500 0.608500
vn 0.204000 0.807300 0.553700
vn 0.179800 0.823000 0.538900
vn 0.158600 0.871300 0.464300
vn 0.309300 0.838900 0.447800
vn 0.172200 0.855800 0.487800
vn 0.449300 0.772400 0.448800
vn 0.431400 0.767600 0.474000
vn 0.410000 0.665500 0.623600
vn 0.361800 0.678400 0.639400
vn 0.387900 0.655000 0.648500
vn 0.419400 0.620100 0.662900
vn 0.265600 0.672100 0.691100
vn 0.275800 0.708700 0.649300
vn 0.141300 0.757000 0.638000
vn 0.109800 0.725400 0.679400
vn 0.155100 0.734300 0.660800
vn 0.189100 0.737200 0.648600
vn -0.077100 -0.926600 -0.367900
vn -0.319100 -0.884800 -0.339400
vn -0.314400 -0.861500 -0.398600
vn 0.012200 -0.905000 -0.425200
vn 0.132300 -0.888600 -0.439100
vn 0.107000 -0.895000 -0.433000
vn 0.036700 -0.896900 -0.440700
vn -0.110000 -0.908100 -0.404000
vn -0.316100 -0.869400 -0.379700
vn -0.537900 -0.769900 -0.343300
vn -0.670300 -0.630400 -0.391500
vn -0.686800 -0.609800 -0.395400
vn -0.600800 -0.696400 -0.392500
vn -0.504300 -0.773900 -0.382900
vn -0.616500 -0.674700 -0.405900
vn -0.402200 -0.701900 -0.587800
vn -0.502600 -0.656700 -0.562200
vn -0.520100 -0.680300 -0.516300
vn -0.424000 -0.738300 -0.524400
vn -0.298300 -0.793700 -0.530100
vn -0.286100 -0.746600 -0.600600
vn -0.279200 -0.721100 -0.634100
vn -0.406800 -0.679200 -0.610900
vn -0.523500 -0.643000 -0.559000
vn -0.166200 -0.782200 -0.600400
vn -0.165100 -0.826400 -0.538300
vn -0.053400 -0.839200 -0.541200
vn -0.057200 -0.808400 -0.585800
vn -0.032100 -0.810300 -0.585100
vn -0.150900 -0.766200 -0.624600
vn -0.144200 -0.873900 -0.464100
vn -0.309300 -0.838900 -0.447700
vn -0.020600 -0.875700 -0.482400
vn -0.462300 -0.765700 -0.447100
vn -0.562500 -0.691300 -0.453500
vn -0.436200 -0.666600 -0.604400
vn -0.573900 -0.634100 -0.518200
vn -0.277900 -0.716300 -0.640100
vn -0.286700 -0.748400 -0.598100
vn -0.510400 -0.674000 -0.534100
vn -0.603300 -0.631000 -0.487700
vn -0.119500 -0.774400 -0.621300
vn 0.016500 -0.835300 -0.549600
vn 0.044500 -0.851600 -0.522200
vn -0.058800 -0.827500 -0.558300
vn -0.862200 0.212600 0.459600
vn -0.687300 -0.053600 0.724300
vn -0.899200 0.288600 0.328700
vn -0.603300 -0.631000 -0.487700
vn 0.070400 -0.647400 0.758800
vn 0.578000 -0.484300 0.656800
vn -0.201000 -0.698600 0.686600
vn 0.044500 -0.851600 -0.522200
vn 0.968400 0.113500 -0.221800
vn 0.838300 0.234400 -0.492200
vn 0.998500 -0.010100 -0.054100
vn 0.132300 -0.888600 -0.439100
vn -0.385800 0.514400 -0.765800
vn -0.564500 0.712200 -0.417200
vn 0.036600 0.260200 -0.964800
vn -0.686800 -0.609800 -0.395400
vn -0.715100 0.686400 -0.132200
vn -0.798200 0.600800 0.042100
vn -0.377100 -0.494900 0.782800
vn 0.851800 -0.371900 0.368800
vn 0.915200 -0.329100 0.232400
vn 0.543500 0.198100 -0.815600
vn 0.991900 -0.118000 0.047100
vn 0.977100 -0.190400 0.094500
vn -0.848900 0.508200 0.145400
vn -0.876600 0.440800 0.193100
vn -0.897600 0.370500 0.238700
vn 0.955500 -0.260000 0.139500
vt 0.839504 0.118056
vt 0.856743 0.205307
vt 0.741230 0.205307
vt 0.734555 0.106726
vt 0.724541 0.032791
vt 0.813647 0.052618
vt 0.868992 0.081539
vt 0.913398 0.129584
vt 0.940923 0.205307
vt 0.839504 0.292557
vt 0.813647 0.357995
vt 0.724541 0.377822
vt 0.734555 0.303887
vt 0.913398 0.281029
vt 0.868992 0.329074
vt 0.369475 0.299954
vt 0.368286 0.370940
vt 0.245840 0.351447
vt 0.246397 0.288815
vt 0.246768 0.205307
vt 0.370268 0.205307
vt 0.494283 0.205307
vt 0.492822 0.304944
vt 0.490632 0.379672
vt 0.369475 0.110659
vt 0.246397 0.121798
vt 0.245841 0.059166
vt 0.368286 0.039673
vt 0.490632 0.030941
vt 0.492822 0.105669
vt 0.616755 0.103478
vt 0.619174 0.205307
vt 0.613127 0.027106
vt 0.616755 0.307135
vt 0.613126 0.383507
vt 0.123273 0.268175
vt 0.123047 0.315326
vt 0.054743 0.283353
vt 0.030912 0.249131
vt 0.030973 0.205306
vt 0.123423 0.205306
vt 0.123273 0.142438
vt 0.030912 0.161481
vt 0.054744 0.127260
vt 0.123047 0.095287
vt 0.839504 0.118056
vt 0.856743 0.205307
vt 0.968983 0.205307
vt 0.938030 0.133427
vt 0.876123 0.061548
vt 0.805028 0.030806
vt 0.721203 0.008146
vt 0.734555 0.106726
vt 0.741230 0.205307
vt 0.839504 0.292557
vt 0.805028 0.379807
vt 0.876123 0.349065
vt 0.938030 0.277186
vt 0.734555 0.303887
vt 0.721203 0.402467
vt 0.369475 0.299954
vt 0.367890 0.394602
vt 0.489902 0.404581
vt 0.492822 0.304944
vt 0.494283 0.205307
vt 0.370268 0.205307
vt 0.246768 0.205307
vt 0.246397 0.288815
vt 0.245655 0.372324
vt 0.369475 0.110659
vt 0.492822 0.105669
vt 0.489902 0.006032
vt 0.367890 0.016011
vt 0.245655 0.038289
vt 0.246397 0.121798
vt 0.616755 0.103478
vt 0.619174 0.205307
vt 0.611917 0.001649
vt 0.616755 0.307135
vt 0.611917 0.408964
vt 0.123273 0.268175
vt 0.122972 0.331043
vt 0.123423 0.205306
vt 0.000156 0.205306
vt 0.000125 0.242784
vt 0.000064 0.280261
vt 0.123273 0.142438
vt 0.122972 0.079570
vt 0.000064 0.130352
vt 0.000125 0.167829
vt 0.122972 0.331043
vt 0.030806 0.283587
vt 0.245655 0.372324
vt 0.030806 0.283587
vt 0.000125 0.167829
vt 0.030806 0.127026
vt 0.000156 0.205306
vt 0.030806 0.127026
vt 0.805028 0.030806
vt 0.873826 0.071832
vt 0.721203 0.008146
vt 0.873826 0.071832
vt 0.938030 0.277186
vt 0.873826 0.338781
vt 0.968983 0.205307
vt 0.873826 0.338781
vt 0.805028 0.379807
vt 0.721203 0.402467
vt 0.000125 0.242784
vt 0.122972 0.079570
vt 0.245655 0.038289
vt 0.938030 0.133427
vt 0.611917 0.001649
vt 0.489902 0.006032
vt 0.611917 0.408964
vt 0.489902 0.404581
vt 0.367890 0.394602
vt 0.367890 0.016011
f 1/1/1 2/2/2 3/3/3
f 1/1/1 3/3/3 4/4/4
f 1/1/1 4/4/4 5/5/5
f 1/1/1 5/5/5 6/6/6
f 1/1/1 6/6/6 7/7/7
f 1/1/1 7/7/7 8/8/8
f 1/1/1 8/8/8 9/9/9
f 1/1/1 9/9/9 2/2/2
f 10/10/10 11/11/11 12/12/12
f 10/10/10 12/12/12 13/13/13
f 10/10/10 13/13/13 3/3/3
f 10/10/10 3/3/3 2/2/2
f 10/10/10 2/2/2 9/9/9
f 10/10/10 9/9/9 14/14/14
f 10/10/10 14/14/14 15/15/15
f 10/10/10 15/15/15 11/11/11
f 16/16/16 17/17/17 18/18/18
f 16/16/16 18/18/18 19/19/19
f 16/16/16 19/19/19 20/20/20
f 16/16/16 20/20/20 21/21/21
f 16/16/16 21/21/21 22/22/22
f 16/16/16 22/22/22 23/23/23
f 16/16/16 23/23/23 24/24/24
f 16/16/16 24/24/24 17/17/17
f 25/25/25 21/21/21 20/20/20
f 25/25/25 20/20/20 26/26/26
f 25/25/25 26/26/26 27/27/27
f 25/25/25 27/27/27 28/28/28
f 25/25/25 28/28/28 29/29/29
f 25/25/25 29/29/29 30/30/30
f 25/25/25 30/30/30 22/22/22
f 25/25/25 22/22/22 21/21/21
f 31/31/31 32/32/32 22/22/22
f 31/31/31 22/22/22 30/30/30
f 31/31/31 30/30/30 29/29/29
f 31/31/31 29/29/29 33/33/33
f 31/31/31 33/33/33 5/5/5
f 31/31/31 5/5/5 4/4/4
f 31/31/31 4/4/4 3/3/3
f 31/31/31 3/3/3 32/32/32
f 34/34/34 35/35/35 24/24/24
f 34/34/34 24/24/24 23/23/23
f 34/34/34 23/23/23 22/22/22
f 34/34/34 22/22/22 32/32/32
f 34/34/34 32/32/32 3/3/3
f 34/34/34 3/3/3 13/13/13
f 34/34/34 13/13/13 12/12/12
f 34/34/34 12/12/12 35/35/35
f 36/36/36 37/37/37 38/38/38
f 36/36/36 38/38/38 39/39/39
f 36/36/36 39/39/39 40/40/40
f 36/36/36 40/40/40 41/41/41
f 36/36/36 41/41/41 20/20/20
f 36/36/36 20/20/20 19/19/19
f 36/36/36 19/19/19 18/18/18
f 36/36/36 18/18/18 37/37/37
f 42/42/42 41/41/41 40/40/40
f 42/42/42 40/40/40 43/43/43
f 42/42/42 43/43/43 44/44/44
f 42/42/42 44/44/44 45/45/45
f 42/42/42 45/45/45 27/27/27
f 42/42/42 27/27/27 26/26/26
f 42/42/42 26/26/26 20/20/20
f 42/42/42 20/20/20 41/41/41
f 46/46/46 47/47/47 48/48/48
f 46/46/46 48/48/48 49/49/49
f 46/46/46 49/49/49 50/50/50
f 46/46/46 50/50/50 51/51/51
f 46/46/46 51/51/51 52/52/52
f 46/46/46 52/52/52 53/53/53
f 46/46/46 53/53/53 54/54/54
f 46/46/46 54/54/54 47/47/47
f 55/55/55 56/56/56 57/57/57
f 55/55/55 57/57/57 58/58/58
f 55/55/55 58/58/58 48/48/48
f 55/55/55 48/48/48 47/47/47
f 55/55/55 47/47/47 54/54/54
f 55/55/55 54/54/54 59/59/59
f 55/55/55 59/59/59 60/60/60
f 55/55/55 60/60/60 56/56/56
f 61/61/61 62/62/62 63/63/63
f 61/61/61 63/63/63 64/64/64
f 61/61/61 64/64/64 65/65/65
f 61/61/61 65/65/65 66/66/66
f 61/61/61 66/66/66 67/67/67
f 61/61/61 67/67/67 68/68/68
f 61/61/61 68/68/68 69/69/69
f 61/61/61 69/69/69 62/62/62
f 70/70/70 66/66/66 65/65/65
f 70/70/70 65/65/65 71/71/71
f 70/70/70 71/71/71 72/72/72
f 70/70/70 72/72/72 73/73/73
f 70/70/70 73/73/73 74/74/74
f 70/70/70 74/74/74 75/75/75
f 70/70/70 75/75/75 67/67/67
f 70/70/70 67/67/67 66/66/66
f 76/76/76 77/77/77 54/54/54
f 76/76/76 54/54/54 53/53/53
f 76/76/76 53/53/53 52/52/52
f 76/76/76 52/52/52 78/78/78
f 76/76/76 78/78/78 72/72/72
f 76/76/76 72/72/72 71/71/71
f 76/76/76 71/71/71 65/65/65
f 76/76/76 65/65/65 77/77/77
f 79/79/79 80/80/80 60/60/60
f 79/79/79 60/60/60 59/59/59
f 79/79/79 59/59/59 54/54/54
f 79/79/79 54/54/54 77/77/77
f 79/79/79 77/77/77 65/65/65
f 79/79/79 65/65/65 64/64/64
f 79/79/79 64/64/64 63/63/63
f 79/79/79 63/63/63 80/80/80
f 81/81/81 82/82/82 69/69/69
f 81/81/81 69/69/69 68/68/68
f 81/81/81 68/68/68 67/67/67
f 81/81/81 67/67/67 83/83/83
f 81/81/81 83/83/83 84/84/84
f 81/81/81 84/84/84 85/85/85
f 81/81/81 85/85/85 86/86/86
f 81/81/81 86/86/86 82/82/82
f 87/87/87 83/83/83 67/67/67
f 87/87/87 67/67/67 75/75/75
f 87/87/87 75/75/75 74/74/74
f 87/87/87 74/74/74 88/88/88
f 87/87/87 88/88/88 89/89/89
f 87/87/87 89/89/89 90/90/90
f 87/87/87 90/90/90 84/84/84
f 87/87/87 84/84/84 83/83/83
f 91/91/91 92/92/92 38/38/38
f 91/91/91 38/38/38 37/37/37
f 91/91/91 37/37/37 18/18/18
f 91/91/91 18/18/18 93/93/93
f 91/91/91 93/93/93 69/69/69
f 91/91/91 69/69/69 82/82/82
f 91/91/91 82/82/82 94/94/94
f 91/91/91 94/94/94 92/92/92
f 95/95/95 96/96/96 44/44/44
f 95/95/95 44/44/44 43/43/43
f 95/95/95 43/43/43 40/40/40
f 95/95/95 40/40/40 97/97/97
f 95/95/95 97/97/97 84/84/84
f 95/95/95 84/84/84 90/90/90
f 95/95/95 90/90/90 98/98/98
f 95/95/95 98/98/98 96/96/96
f 99/99/99 100/100/100 7/7/7
f 99/99/99 7/7/7 6/6/6
f 99/99/99 6/6/6 5/5/5
f 99/99/99 5/5/5 101/101/101
f 99/99/99 101/101/101 52/52/52
f 99/99/99 52/52/52 51/51/51
f 99/99/99 51/51/51 102/102/102
f 99/99/99 102/102/102 100/100/100
f 103/103/103 104/104/104 15/15/15
f 103/103/103 15/15/15 14/14/14
f 103/103/103 14/14/14 9/9/9
f 103/103/103 9/9/9 105/105/105
f 103/103/103 105/105/105 48/48/48
f 103/103/103 48/48/48 58/58/58
f 103/103/103 58/58/58 106/106/106
f 103/103/103 106/106/106 104/104/104
f 107/107/107 108/108/108 12/12/12
f 107/107/107 12/12/12 11/11/11
f 107/107/107 11/11/11 15/15/15
f 107/107/107 15/15/15 104/104/104
f 107/107/107 104/104/104 106/106/106
f 107/107/107 106/106/106 56/56/56
f 107/107/107 56/56/56 60/60/60
f 107/107/107 60/60/60 108/108/108
f 109/109/109 97/97/97 40/40/40
f 109/109/109 40/40/40 39/39/39
f 109/109/109 39/39/39 38/38/38
f 109/109/109 38/38/38 92/92/92
f 109/109/109 92/92/92 94/94/94
f 109/109/109 94/94/94 85/85/85
f 109/109/109 85/85/85 84/84/84
f 109/109/109 84/84/84 97/97/97
f 110/110/110 111/111/111 27/27/27
f 110/110/110 27/27/27 45/45/45
f 110/110/110 45/45/45 44/44/44
f 110/110/110 44/44/44 96/96/96
f 110/110/110 96/96/96 98/98/98
f 110/110/110 98/98/98 88/88/88
f 110/110/110 88/88/88 74/74/74
f 110/110/110 74/74/74 111/111/111
f 112/112/112 105/105/105 9/9/9
f 112/112/112 9/9/9 8/8/8
f 112/112/112 8/8/8 7/7/7
f 112/112/112 7/7/7 100/100/100
f 112/112/112 100/100/100 102/102/102
f 112/112/112 102/102/102 49/49/49
f 112/112/112 49/49/49 48/48/48
f 112/112/112 48/48/48 105/105/105
f 113/113/113 101/101/101 5/5/5
f 113/113/113 5/5/5 33/33/33
f 113/113/113 33/33/33 29/29/29
f 113/113/113 29/29/29 114/114/114
f 113/113/113 114/114/114 72/72/72
f 113/113/113 72/72/72 78/78/78
f 113/113/113 78/78/78 52/52/52
f 113/113/113 52/52/52 101/101/101
f 115/115/115 116/116/116 24/24/24
f 115/115/115 24/24/24 35/35/35
f 115/115/115 35/35/35 12/12/12
f 115/115/115 12/12/12 108/108/108
f 115/115/115 108/108/108 60/60/60
f 115/115/115 60/60/60 80/80/80
f 115/115/115 80/80/80 63/63/63
f 115/115/115 63/63/63 116/116/116
f 117/117/117 93/93/93 18/18/18
f 117/117/117 18/18/18 17/17/17
f 117/117/117 17/17/17 24/24/24
f 117/117/117 24/24/24 116/116/116
f 117/117/117 116/116/116 63/63/63
f 117/117/117 63/63/63 62/62/62
f 117/117/117 62/62/62 69/69/69
f 117/117/117 69/69/69 93/93/93
f 118/118/118 114/114/114 29/29/29
f 118/118/118 29/29/29 28/28/28
f 118/118/118 28/28/28 27/27/27
f 118/118/118 27/27/27 111/111/111
f 118/118/118 111/111/111 74/74/74
f 118/118/118 74/74/74 73/73/73
f 118/118/118 73/73/73 72/72/72
f 118/118/118 72/72/72 114/114/114
