v -2.299188 0.757136 -1.242086
v -2.300150 0.756852 -1.243850
v -2.302172 0.756607 -1.242075
v -2.300852 0.756901 -1.240270
v -2.299966 0.757303 -1.238817
v -2.298708 0.757526 -1.240543
v -2.298145 0.757445 -1.241907
v -2.298051 0.757195 -1.243434
v -2.298662 0.756938 -1.245155
v -2.301775 0.757107 -1.245037
v -2.303245 0.757475 -1.245719
v -2.305120 0.757246 -1.244696
v -2.303792 0.756868 -1.243624
v -2.300290 0.757170 -1.245989
v -2.301819 0.757405 -1.246099
v -2.309886 0.754638 -1.238201
v -2.311043 0.754823 -1.239374
v -2.312715 0.753630 -1.237309
v -2.311686 0.753455 -1.236276
v -2.310360 0.753330 -1.234866
v -2.308392 0.754506 -1.236603
v -2.306376 0.755493 -1.238380
v -2.307942 0.755650 -1.240048
v -2.309160 0.755873 -1.241270
v -2.307005 0.754670 -1.234914
v -2.309138 0.753484 -1.233369
v -2.308250 0.753679 -1.232216
v -2.305995 0.754879 -1.233615
v -2.303879 0.755931 -1.235245
v -2.304929 0.755683 -1.236610
v -2.302821 0.756422 -1.238420
v -2.304274 0.756174 -1.240228
v -2.301780 0.756755 -1.237015
v -2.305879 0.756388 -1.241908
v -2.307138 0.756696 -1.243129
v -2.313316 0.752205 -1.234183
v -2.314101 0.752378 -1.234941
v -2.314662 0.751595 -1.233444
v -2.314468 0.751218 -1.232559
v -2.313766 0.751089 -1.231860
v -2.312314 0.752080 -1.233142
v -2.311414 0.752226 -1.232013
v -2.313166 0.751233 -1.231073
v -2.312317 0.751621 -1.230770
v -2.310767 0.752415 -1.231137
v -2.299148 0.756928 -1.242080
v -2.300129 0.756641 -1.243866
v -2.298648 0.756780 -1.245165
v -2.298022 0.757039 -1.243427
v -2.298118 0.757331 -1.241897
v -2.298668 0.757372 -1.240528
v -2.299923 0.757149 -1.238809
v -2.300807 0.756693 -1.240272
v -2.302144 0.756398 -1.242097
v -2.301773 0.756899 -1.245076
v -2.303253 0.757321 -1.245760
v -2.301824 0.757290 -1.246125
v -2.300292 0.757014 -1.246017
v -2.303781 0.756660 -1.243666
v -2.305120 0.757091 -1.244738
v -2.309842 0.754439 -1.238263
v -2.311016 0.754674 -1.239428
v -2.309140 0.755722 -1.241318
v -2.307907 0.755447 -1.240103
v -2.306327 0.755289 -1.238420
v -2.308335 0.754307 -1.236651
v -2.310297 0.753134 -1.234920
v -2.311635 0.753259 -1.236343
v -2.312683 0.753483 -1.237367
v -2.306936 0.754471 -1.234947
v -2.304867 0.755481 -1.236635
v -2.303827 0.755781 -1.235257
v -2.305937 0.754730 -1.233633
v -2.308187 0.753533 -1.232237
v -2.309063 0.753288 -1.233408
v -2.302769 0.756216 -1.238433
v -2.304237 0.755967 -1.240259
v -2.301733 0.756603 -1.237017
v -2.305856 0.756182 -1.241956
v -2.307129 0.756543 -1.243173
v -2.313264 0.752011 -1.234253
v -2.314070 0.752232 -1.235001
v -2.312248 0.751884 -1.233197
v -2.313716 0.750943 -1.231901
v -2.314430 0.751072 -1.232613
v -2.314636 0.751488 -1.233487
v -2.311336 0.752032 -1.232053
v -2.310702 0.752270 -1.231159
v -2.312270 0.751514 -1.230788
v -2.313106 0.751087 -1.231102
v -2.314351 0.752371 -1.235222
v -2.315044 0.751344 -1.233111
v -2.313045 0.753623 -1.237681
v -2.314636 0.751488 -1.233487
v -2.313723 0.750837 -1.230772
v -2.312696 0.751370 -1.230431
v -2.314228 0.750694 -1.231451
v -2.312270 0.751514 -1.230788
v -2.298528 0.757588 -1.240020
v -2.297910 0.757499 -1.241809
v -2.299650 0.757369 -1.238327
v -2.298118 0.757331 -1.241897
v -2.299797 0.757121 -1.246318
v -2.301885 0.757455 -1.246345
v -2.298160 0.756896 -1.245594
v -2.301824 0.757290 -1.246125
v -2.303741 0.757530 -1.245967
v -2.305564 0.757303 -1.245075
v -2.314836 0.750824 -1.232042
v -2.310521 0.752413 -1.230853
v -2.307925 0.753680 -1.231839
v -2.297659 0.757145 -1.243879
v -2.301410 0.756799 -1.236545
v -2.303505 0.755947 -1.234794
v -2.307555 0.756731 -1.243557
v -2.309559 0.755880 -1.241700
v -2.311418 0.754818 -1.239791
v -2.305631 0.754883 -1.233189
vn -0.216200 0.970400 -0.107900
vn -0.059200 0.997300 0.042200
vn -0.104000 0.991200 0.081500
vn -0.246100 0.967900 -0.051100
vn -0.258800 0.965500 -0.027500
vn -0.211400 0.972100 -0.101600
vn -0.176200 0.972400 -0.153000
vn -0.120800 0.982900 -0.138700
vn 0.011000 0.999700 -0.019400
vn 0.069200 0.973500 0.217700
vn 0.063600 0.975100 0.212200
vn -0.016000 0.968200 0.249500
vn 0.009000 0.970700 0.240000
vn 0.112200 0.985500 0.127300
vn 0.119200 0.975600 0.184100
vn -0.214500 0.921600 0.323500
vn -0.245600 0.921200 0.301700
vn -0.269800 0.908500 0.319100
vn -0.231900 0.907800 0.349500
vn -0.317700 0.909000 0.269700
vn -0.288400 0.925900 0.243800
vn -0.227900 0.954800 0.190500
vn -0.151500 0.946200 0.285700
vn -0.182500 0.943400 0.276900
vn -0.357700 0.920000 0.160100
vn -0.385600 0.906000 0.174100
vn -0.360500 0.907500 0.215700
vn -0.340200 0.920100 0.193900
vn -0.307400 0.942000 0.134300
vn -0.312300 0.944500 0.102300
vn -0.270400 0.962500 0.023200
vn -0.159300 0.978600 0.130100
vn -0.279100 0.958800 0.053000
vn -0.067700 0.964700 0.254400
vn -0.098500 0.960800 0.259200
vn -0.223800 0.899000 0.376400
vn -0.267600 0.898800 0.347100
vn -0.256900 0.888500 0.380100
vn -0.246400 0.870900 0.425300
vn -0.369000 0.874400 0.314900
vn -0.331400 0.900400 0.281700
vn -0.411100 0.896900 0.162600
vn -0.462300 0.868500 0.179000
vn -0.419100 0.886700 0.195200
vn -0.387900 0.897500 0.209900
vn 0.251200 -0.961300 0.113200
vn 0.071600 -0.996000 -0.053000
vn 0.119100 -0.988300 -0.094800
vn 0.352300 -0.926600 0.131300
vn 0.440300 -0.875600 0.198600
vn 0.419300 -0.888200 0.187600
vn 0.379700 -0.915100 0.135400
vn 0.256800 -0.964500 0.061500
vn 0.103900 -0.991200 -0.081400
vn -0.070000 -0.964800 -0.253300
vn -0.122400 -0.894300 -0.430500
vn -0.130600 -0.881900 -0.452900
vn -0.075000 -0.931300 -0.356300
vn -0.018000 -0.967500 -0.252100
vn -0.075600 -0.920200 -0.384100
vn 0.202400 -0.920400 -0.334400
vn 0.116600 -0.906100 -0.406700
vn 0.071000 -0.921600 -0.381500
vn 0.141000 -0.944600 -0.296400
vn 0.228100 -0.954800 -0.190600
vn 0.288600 -0.925900 -0.243900
vn 0.317900 -0.909000 -0.269700
vn 0.216400 -0.907100 -0.360800
vn 0.100500 -0.899700 -0.424800
vn 0.366900 -0.918600 -0.146700
vn 0.321400 -0.942600 -0.090500
vn 0.396400 -0.918000 -0.010400
vn 0.427300 -0.902600 -0.052400
vn 0.443000 -0.895800 -0.034100
vn 0.394900 -0.905100 -0.157300
vn 0.279600 -0.960000 -0.012100
vn 0.159300 -0.978600 -0.130100
vn 0.373900 -0.925400 0.062400
vn 0.057900 -0.962500 -0.265000
vn -0.004000 -0.929600 -0.368500
vn 0.192100 -0.903800 -0.382300
vn 0.036700 -0.897900 -0.438500
vn 0.323100 -0.905700 -0.274400
vn 0.286300 -0.927100 -0.241900
vn 0.090900 -0.917000 -0.388300
vn -0.005400 -0.897100 -0.441800
vn 0.412900 -0.901300 -0.130400
vn 0.448200 -0.893400 0.030900
vn 0.445900 -0.892100 0.073200
vn 0.405600 -0.913600 -0.029000
vn -0.914200 0.024100 -0.404400
vn -0.995600 -0.091500 -0.016800
vn -0.840300 0.048300 -0.539900
vn -0.005400 -0.897100 -0.441800
vn -0.517100 -0.372300 0.770700
vn -0.113100 -0.081900 0.990200
vn -0.636900 -0.526700 0.562900
vn 0.445900 -0.892100 0.073200
vn 0.794400 0.366900 0.484100
vn 0.912700 0.365000 0.183400
vn 0.688700 0.307000 0.656800
vn 0.440300 -0.875600 0.198600
vn 0.320400 0.145200 -0.936100
vn -0.065600 0.354200 -0.932900
vn 0.751900 0.003100 -0.659200
vn -0.130600 -0.881900 -0.452900
vn -0.379200 0.353900 -0.854900
vn -0.563600 0.293100 -0.772200
vn -0.828500 -0.375600 0.415400
vn 0.280800 0.037300 0.959000
vn 0.424800 0.062400 0.903100
vn 0.968600 0.152300 -0.196400
vn 0.610500 0.232600 0.757100
vn 0.567100 0.174300 0.805000
vn -0.673200 0.218100 -0.706500
vn -0.726000 0.159700 -0.668800
vn -0.772400 0.100500 -0.627100
vn 0.519700 0.115000 0.846500
vt 0.839504 0.118056
vt 0.856743 0.205307
vt 0.741230 0.205307
vt 0.734555 0.106726
vt 0.724541 0.032791
vt 0.813647 0.052618
vt 0.868992 0.081539
vt 0.913398 0.129584
vt 0.940923 0.205307
vt 0.839504 0.292557
vt 0.813647 0.357995
vt 0.724541 0.377822
vt 0.734555 0.303887
vt 0.913398 0.281029
vt 0.868992 0.329074
vt 0.369475 0.299954
vt 0.368286 0.370940
vt 0.245840 0.351447
vt 0.246397 0.288815
vt 0.246768 0.205307
vt 0.370268 0.205307
vt 0.494283 0.205307
vt 0.492822 0.304944
vt 0.490632 0.379672
vt 0.369475 0.110659
vt 0.246397 0.121798
vt 0.245841 0.059166
vt 0.368286 0.039673
vt 0.490632 0.030941
vt 0.492822 0.105669
vt 0.616755 0.103478
vt 0.619174 0.205307
vt 0.613127 0.027106
vt 0.616755 0.307135
vt 0.613126 0.383507
vt 0.123273 0.268175
vt 0.123047 0.315326
vt 0.054743 0.283353
vt 0.030912 0.249131
vt 0.030973 0.205306
vt 0.123423 0.205306
vt 0.123273 0.142438
vt 0.030912 0.161481
vt 0.054744 0.127260
vt 0.123047 0.095287
vt 0.839504 0.118056
vt 0.856743 0.205307
vt 0.968983 0.205307
vt 0.938030 0.133427
vt 0.876123 0.061548
vt 0.805028 0.030806
vt 0.721203 0.008146
vt 0.734555 0.106726
vt 0.741230 0.205307
vt 0.839504 0.292557
vt 0.805028 0.379807
vt 0.876123 0.349065
vt 0.938030 0.277186
vt 0.734555 0.303887
vt 0.721203 0.402467
vt 0.369475 0.299954
vt 0.367890 0.394602
vt 0.489902 0.404581
vt 0.492822 0.304944
vt 0.494283 0.205307
vt 0.370268 0.205307
vt 0.246768 0.205307
vt 0.246397 0.288815
vt 0.245655 0.372324
vt 0.369475 0.110659
vt 0.492822 0.105669
vt 0.489902 0.006032
vt 0.367890 0.016011
vt 0.245655 0.038289
vt 0.246397 0.121798
vt 0.616755 0.103478
vt 0.619174 0.205307
vt 0.611917 0.001649
vt 0.616755 0.307135
vt 0.611917 0.408964
vt 0.123273 0.268175
vt 0.122972 0.331043
vt 0.123423 0.205306
vt 0.000156 0.205306
vt 0.000125 0.242784
vt 0.000064 0.280261
vt 0.123273 0.142438
vt 0.122972 0.079570
vt 0.000064 0.130352
vt 0.000125 0.167829
vt 0.122972 0.331043
vt 0.030806 0.283587
vt 0.245655 0.372324
vt 0.030806 0.283587
vt 0.000125 0.167829
vt 0.030806 0.127026
vt 0.000156 0.205306
vt 0.030806 0.127026
vt 0.805028 0.030806
vt 0.873826 0.071832
vt 0.721203 0.008146
vt 0.873826 0.071832
vt 0.938030 0.277186
vt 0.873826 0.338781
vt 0.968983 0.205307
vt 0.873826 0.338781
vt 0.805028 0.379807
vt 0.721203 0.402467
vt 0.000125 0.242784
vt 0.122972 0.079570
vt 0.245655 0.038289
vt 0.938030 0.133427
vt 0.611917 0.001649
vt 0.489902 0.006032
vt 0.611917 0.408964
vt 0.489902 0.404581
vt 0.367890 0.394602
vt 0.367890 0.016011
f 1/1/1 2/2/2 3/3/3
f 1/1/1 3/3/3 4/4/4
f 1/1/1 4/4/4 5/5/5
f 1/1/1 5/5/5 6/6/6
f 1/1/1 6/6/6 7/7/7
f 1/1/1 7/7/7 8/8/8
f 1/1/1 8/8/8 9/9/9
f 1/1/1 9/9/9 2/2/2
f 10/10/10 11/11/11 12/12/12
f 10/10/10 12/12/12 13/13/13
f 10/10/10 13/13/13 3/3/3
f 10/10/10 3/3/3 2/2/2
f 10/10/10 2/2/2 9/9/9
f 10/10/10 9/9/9 14/14/14
f 10/10/10 14/14/14 15/15/15
f 10/10/10 15/15/15 11/11/11
f 16/16/16 17/17/17 18/18/18
f 16/16/16 18/18/18 19/19/19
f 16/16/16 19/19/19 20/20/20
f 16/16/16 20/20/20 21/21/21
f 16/16/16 21/21/21 22/22/22
f 16/16/16 22/22/22 23/23/23
f 16/16/16 23/23/23 24/24/24
f 16/16/16 24/24/24 17/17/17
f 25/25/25 21/21/21 20/20/20
f 25/25/25 20/20/20 26/26/26
f 25/25/25 26/26/26 27/27/27
f 25/25/25 27/27/27 28/28/28
f 25/25/25 28/28/28 29/29/29
f 25/25/25 29/29/29 30/30/30
f 25/25/25 30/30/30 22/22/22
f 25/25/25 22/22/22 21/21/21
f 31/31/31 32/32/32 22/22/22
f 31/31/31 22/22/22 30/30/30
f 31/31/31 30/30/30 29/29/29
f 31/31/31 29/29/29 33/33/33
f 31/31/31 33/33/33 5/5/5
f 31/31/31 5/5/5 4/4/4
f 31/31/31 4/4/4 3/3/3
f 31/31/31 3/3/3 32/32/32
f 34/34/34 35/35/35 24/24/24
f 34/34/34 24/24/24 23/23/23
f 34/34/34 23/23/23 22/22/22
f 34/34/34 22/22/22 32/32/32
f 34/34/34 32/32/32 3/3/3
f 34/34/34 3/3/3 13/13/13
f 34/34/34 13/13/13 12/12/12
f 34/34/34 12/12/12 35/35/35
f 36/36/36 37/37/37 38/38/38
f 36/36/36 38/38/38 39/39/39
f 36/36/36 39/39/39 40/40/40
f 36/36/36 40/40/40 41/41/41
f 36/36/36 41/41/41 20/20/20
f 36/36/36 20/20/20 19/19/19
f 36/36/36 19/19/19 18/18/18
f 36/36/36 18/18/18 37/37/37
f 42/42/42 41/41/41 40/40/40
f 42/42/42 40/40/40 43/43/43
f 42/42/42 43/43/43 44/44/44
f 42/42/42 44/44/44 45/45/45
f 42/42/42 45/45/45 27/27/27
f 42/42/42 27/27/27 26/26/26
f 42/42/42 26/26/26 20/20/20
f 42/42/42 20/20/20 41/41/41
f 46/46/46 47/47/47 48/48/48
f 46/46/46 48/48/48 49/49/49
f 46/46/46 49/49/49 50/50/50
f 46/46/46 50/50/50 51/51/51
f 46/46/46 51/51/51 52/52/52
f 46/46/46 52/52/52 53/53/53
f 46/46/46 53/53/53 54/54/54
f 46/46/46 54/54/54 47/47/47
f 55/55/55 56/56/56 57/57/57
f 55/55/55 57/57/57 58/58/58
f 55/55/55 58/58/58 48/48/48
f 55/55/55 48/48/48 47/47/47
f 55/55/55 47/47/47 54/54/54
f 55/55/55 54/54/54 59/59/59
f 55/55/55 59/59/59 60/60/60
f 55/55/55 60/60/60 56/56/56
f 61/61/61 62/62/62 63/63/63
f 61/61/61 63/63/63 64/64/64
f 61/61/61 64/64/64 65/65/65
f 61/61/61 65/65/65 66/66/66
f 61/61/61 66/66/66 67/67/67
f 61/61/61 67/67/67 68/68/68
f 61/61/61 68/68/68 69/69/69
f 61/61/61 69/69/69 62/62/62
f 70/70/70 66/66/66 65/65/65
f 70/70/70 65/65/65 71/71/71
f 70/70/70 71/71/71 72/72/72
f 70/70/70 72/72/72 73/73/73
f 70/70/70 73/73/73 74/74/74
f 70/70/70 74/74/74 75/75/75
f 70/70/70 75/75/75 67/67/67
f 70/70/70 67/67/67 66/66/66
f 76/76/76 77/77/77 54/54/54
f 76/76/76 54/54/54 53/53/53
f 76/76/76 53/53/53 52/52/52
f 76/76/76 52/52/52 78/78/78
f 76/76/76 78/78/78 72/72/72
f 76/76/76 72/72/72 71/71/71
f 76/76/76 71/71/71 65/65/65
f 76/76/76 65/65/65 77/77/77
f 79/79/79 80/80/80 60/60/60
f 79/79/79 60/60/60 59/59/59
f 79/79/79 59/59/59 54/54/54
f 79/79/79 54/54/54 77/77/77
f 79/79/79 77/77/77 65/65/65
f 79/79/79 65/65/65 64/64/64
f 79/79/79 64/64/64 63/63/63
f 79/79/79 63/63/63 80/80/80
f 81/81/81 82/82/82 69/69/69
f 81/81/81 69/69/69 68/68/68
f 81/81/81 68/68/68 67/67/67
f 81/81/81 67/67/67 83/83/83
f 81/81/81 83/83/83 84/84/84
f 81/81/81 84/84/84 85/85/85
f 81/81/81 85/85/85 86/86/86
f 81/81/81 86/86/86 82/82/82
f 87/87/87 83/83/83 67/67/67
f 87/87/87 67/67/67 75/75/75
f 87/87/87 75/75/75 74/74/74
f 87/87/87 74/74/74 88/88/88
f 87/87/87 88/88/88 89/89/89
f 87/87/87 89/89/89 90/90/90
f 87/87/87 90/90/90 84/84/84
f 87/87/87 84/84/84 83/83/83
f 91/91/91 92/92/92 38/38/38
f 91/91/91 38/38/38 37/37/37
f 91/91/91 37/37/37 18/18/18
f 91/91/91 18/18/18 93/93/93
f 91/91/91 93/93/93 69/69/69
f 91/91/91 69/69/69 82/82/82
f 91/91/91 82/82/82 94/94/94
f 91/91/91 94/94/94 92/92/92
f 95/95/95 96/96/96 44/44/44
f 95/95/95 44/44/44 43/43/43
f 95/95/95 43/43/43 40/40/40
f 95/95/95 40/40/40 97/97/97
f 95/95/95 97/97/97 84/84/84
f 95/95/95 84/84/84 90/90/90
f 95/95/95 90/90/90 98/98/98
f 95/95/95 98/98/98 96/96/96
f 99/99/99 100/100/100 7/7/7
f 99/99/99 7/7/7 6/6/6
f 99/99/99 6/6/6 5/5/5
f 99/99/99 5/5/5 101/101/101
f 99/99/99 101/101/101 52/52/52
f 99/99/99 52/52/52 51/51/51
f 99/99/99 51/51/51 102/102/102
f 99/99/99 102/102/102 100/100/100
f 103/103/103 104/104/104 15/15/15
f 103/103/103 15/15/15 14/14/14
f 103/103/103 14/14/14 9/9/9
f 103/103/103 9/9/9 105/105/105
f 103/103/103 105/105/105 48/48/48
f 103/103/103 48/48/48 58/58/58
f 103/103/103 58/58/58 106/106/106
f 103/103/103 106/106/106 104/104/104
f 107/107/107 108/108/108 12/12/12
f 107/107/107 12/12/12 11/11/11
f 107/107/107 11/11/11 15/15/15
f 107/107/107 15/15/15 104/104/104
f 107/107/107 104/104/104 106/106/106
f 107/107/107 106/106/106 56/56/56
f 107/107/107 56/56/56 60/60/60
f 107/107/107 60/60/60 108/108/108
f 109/109/109 97/97/97 40/40/40
f 109/109/109 40/40/40 39/39/39
f 109/109/109 39/39/39 38/38/38
f 109/109/109 38/38/38 92/92/92
f 109/109/109 92/92/92 94/94/94
f 109/109/109 94/94/94 85/85/85
f 109/109/109 85/85/85 84/84/84
f 109/109/109 84/84/84 97/97/97
f 110/110/110 111/111/111 27/27/27
f 110/110/110 27/27/27 45/45/45
f 110/110/110 45/45/45 44/44/44
f 110/110/110 44/44/44 96/96/96
f 110/110/110 96/96/96 98/98/98
f 110/110/110 98/98/98 88/88/88
f 110/110/110 88/88/88 74/74/74
f 110/110/110 74/74/74 111/111/111
f 112/112/112 105/105/105 9/9/9
f 112/112/112 9/9/9 8/8/8
f 112/112/112 8/8/8 7/7/7
f 112/112/112 7/7/7 100/100/100
f 112/112/112 100/100/100 102/102/102
f 112/112/112 102/102/102 49/49/49
f 112/112/112 49/49/49 48/48/48
f 112/112/112 48/48/48 105/105/105
f 113/113/113 101/101/101 5/5/5
f 113/113/113 5/5/5 33/33/33
f 113/113/113 33/33/33 29/29/29
f 113/113/113 29/29/29 114/114/114
f 113/113/113 114/114/114 72/72/72
f 113/113/113 72/72/72 78/78/78
f 113/113/113 78/78/78 52/52/52
f 113/113/113 52/52/52 101/101/101
f 115/115/115 116/116/116 24/24/24
f 115/115/115 24/24/24 35/35/35
f 115/115/115 35/35/35 12/12/12
f 115/115/115 12/12/12 108/108/108
f 115/115/115 108/108/108 60/60/60
f 115/115/115 60/60/60 80/80/80
f 115/115/115 80/80/80 63/63/63
f 115/115/115 63/63/63 116/116/116
f 117/117/117 93/93/93 18/18/18
f 117/117/117 18/18/18 17/17/17
f 117/117/117 17/17/17 24/24/24
f 117/117/117 24/24/24 116/116/116
f 117/117/117 116/116/116 63/63/63
f 117/117/117 63/63/63 62/62/62
f 117/117/117 62/62/62 69/69/69
f 117/117/117 69/69/69 93/93/93
f 118/118/118 114/114/114 29/29/29
f 118/118/118 29/29/29 28/28/28
f 118/118/118 28/28/28 27/27/27
f 118/118/118 27/27/27 111/111/111
f 118/118/118 111/111/111 74/74/74
f 118/118/118 74/74/74 73/73/73
f 118/118/118 73/73/73 72/72/72
f 118/118/118 72/72/72 114/114/114
