v -2.375487 0.710989 -1.194920
v -2.373860 0.711120 -1.195730
v -2.374735 0.709078 -1.196705
v -2.376460 0.709127 -1.195643
v -2.377893 0.709163 -1.195003
v -2.376912 0.710757 -1.194540
v -2.375945 0.711643 -1.194333
v -2.374696 0.712255 -1.194388
v -2.373175 0.712571 -1.194962
v -2.372798 0.710925 -1.197198
v -2.372196 0.710644 -1.198534
v -2.372536 0.709034 -1.199540
v -2.373404 0.709054 -1.198232
v -2.372368 0.712199 -1.196360
v -2.372126 0.711551 -1.197568
v -2.375415 0.702041 -1.200345
v -2.374413 0.702055 -1.201447
v -2.375135 0.699546 -1.201613
v -2.376014 0.699534 -1.200630
v -2.377250 0.699537 -1.199404
v -2.376820 0.702046 -1.198967
v -2.376281 0.704495 -1.198400
v -2.374822 0.704498 -1.199854
v -2.373790 0.704521 -1.201027
v -2.378410 0.702113 -1.197809
v -2.378662 0.699597 -1.198387
v -2.379776 0.699658 -1.197682
v -2.379660 0.702180 -1.197002
v -2.379279 0.704652 -1.196378
v -2.377954 0.704573 -1.197201
v -2.377293 0.706950 -1.196441
v -2.375564 0.706855 -1.197620
v -2.378686 0.707054 -1.195663
v -2.374115 0.706873 -1.199134
v -2.373116 0.706920 -1.200381
v -2.376739 0.697004 -1.200732
v -2.376108 0.697021 -1.201499
v -2.376783 0.695601 -1.201212
v -2.377312 0.695092 -1.200724
v -2.377903 0.695082 -1.200049
v -2.377640 0.697001 -1.199793
v -2.378715 0.697051 -1.199058
v -2.378666 0.695125 -1.199577
v -2.379220 0.695660 -1.199148
v -2.379574 0.697104 -1.198564
v -2.375404 0.710894 -1.194778
v -2.373756 0.711023 -1.195604
v -2.373097 0.712496 -1.194868
v -2.374635 0.712182 -1.194282
v -2.375905 0.711590 -1.194251
v -2.376860 0.710688 -1.194425
v -2.377836 0.709098 -1.194888
v -2.376371 0.709039 -1.195500
v -2.374628 0.708988 -1.196575
v -2.372674 0.710829 -1.197090
v -2.372094 0.710573 -1.198463
v -2.372053 0.711497 -1.197513
v -2.372276 0.712125 -1.196281
v -2.373279 0.708964 -1.198119
v -2.372434 0.708968 -1.199464
v -2.375285 0.701984 -1.200217
v -2.374309 0.702012 -1.201356
v -2.373688 0.704471 -1.200939
v -2.374694 0.704430 -1.199729
v -2.376166 0.704428 -1.198263
v -2.376703 0.701989 -1.198827
v -2.377131 0.699488 -1.199262
v -2.375883 0.699484 -1.200500
v -2.375030 0.699509 -1.201522
v -2.378306 0.702057 -1.197658
v -2.377854 0.704506 -1.197053
v -2.379211 0.704603 -1.196261
v -2.379589 0.702138 -1.196884
v -2.379704 0.699621 -1.197563
v -2.378557 0.699548 -1.198235
v -2.377198 0.706871 -1.196295
v -2.375453 0.706775 -1.197487
v -2.378623 0.706996 -1.195548
v -2.373989 0.706794 -1.199014
v -2.373014 0.706862 -1.200299
v -2.376606 0.696957 -1.200603
v -2.376002 0.696986 -1.201408
v -2.377521 0.696954 -1.199651
v -2.377814 0.695047 -1.199942
v -2.377212 0.695057 -1.200628
v -2.376706 0.695575 -1.201143
v -2.378610 0.697005 -1.198905
v -2.379503 0.697070 -1.198443
v -2.379165 0.695634 -1.199060
v -2.378588 0.695090 -1.199462
v -2.375850 0.697011 -1.201716
v -2.376853 0.695103 -1.201285
v -2.374794 0.699534 -1.201902
v -2.376706 0.695575 -1.201143
v -2.378616 0.694467 -1.199699
v -2.379294 0.695161 -1.199218
v -2.377951 0.694427 -1.200086
v -2.379165 0.695634 -1.199060
v -2.377366 0.710649 -1.194360
v -2.376084 0.711755 -1.194183
v -2.378348 0.709146 -1.194736
v -2.375905 0.711590 -1.194251
v -2.372184 0.712590 -1.196046
v -2.371952 0.711656 -1.197683
v -2.372912 0.713021 -1.194664
v -2.372053 0.711497 -1.197513
v -2.371948 0.710519 -1.198950
v -2.372200 0.708999 -1.199944
v -2.377459 0.694440 -1.200679
v -2.379830 0.697107 -1.198344
v -2.380116 0.699662 -1.197393
v -2.374406 0.712644 -1.194164
v -2.379124 0.707063 -1.195351
v -2.379692 0.704657 -1.196050
v -2.372736 0.706910 -1.200762
v -2.373399 0.704506 -1.201380
v -2.374031 0.702040 -1.201775
v -2.380046 0.702184 -1.196680
vn -0.359900 0.520000 -0.774600
vn -0.530000 0.554600 -0.641400
vn -0.551200 0.503800 -0.665000
vn -0.400500 0.471400 -0.785700
vn -0.416600 0.450400 -0.789700
vn -0.366800 0.520600 -0.770900
vn -0.330700 0.568300 -0.753500
vn -0.358800 0.600800 -0.714300
vn -0.493100 0.629900 -0.600000
vn -0.690200 0.527900 -0.494800
vn -0.685200 0.528500 -0.501100
vn -0.697700 0.457100 -0.551600
vn -0.695900 0.478500 -0.535500
vn -0.628700 0.607300 -0.485700
vn -0.672700 0.576600 -0.463700
vn -0.697700 0.271000 -0.663100
vn -0.673100 0.263200 -0.691200
vn -0.676500 0.231800 -0.699000
vn -0.709100 0.238800 -0.663400
vn -0.626000 0.228500 -0.745500
vn -0.618600 0.269800 -0.737900
vn -0.600200 0.351200 -0.718600
vn -0.690700 0.343400 -0.636400
vn -0.675700 0.327500 -0.660400
vn -0.531800 0.267100 -0.803600
vn -0.531100 0.234600 -0.814100
vn -0.571700 0.229200 -0.787700
vn -0.563600 0.260500 -0.783800
vn -0.531100 0.324000 -0.782900
vn -0.504600 0.338900 -0.794000
vn -0.455400 0.415600 -0.787300
vn -0.574900 0.437900 -0.691100
vn -0.476900 0.392800 -0.786200
vn -0.690000 0.421200 -0.588600
vn -0.686000 0.397800 -0.609100
vn -0.728800 0.224700 -0.646700
vn -0.695400 0.213000 -0.686300
vn -0.720000 0.196200 -0.665600
vn -0.751300 0.168600 -0.638100
vn -0.636600 0.153200 -0.755800
vn -0.629200 0.208900 -0.748600
vn -0.511900 0.219500 -0.830500
vn -0.501300 0.162800 -0.849800
vn -0.532600 0.191900 -0.824300
vn -0.556500 0.209700 -0.803900
vn 0.343900 -0.496000 0.797300
vn 0.536100 -0.540800 0.648200
vn 0.558000 -0.486100 0.672500
vn 0.291500 -0.423000 0.857900
vn 0.192200 -0.372900 0.907700
vn 0.211900 -0.387700 0.897100
vn 0.277000 -0.401500 0.873000
vn 0.387900 -0.468200 0.793900
vn 0.551200 -0.503900 0.665000
vn 0.715900 -0.504900 0.482200
vn 0.838900 -0.402800 0.365900
vn 0.853100 -0.388800 0.347900
vn 0.786300 -0.434700 0.438900
vn 0.706100 -0.475800 0.524400
vn 0.804100 -0.414100 0.426500
vn 0.708600 -0.272000 0.651100
vn 0.778600 -0.278000 0.562500
vn 0.774200 -0.328000 0.541400
vn 0.700800 -0.343300 0.625200
vn 0.600300 -0.351000 0.718600
vn 0.618600 -0.269600 0.738000
vn 0.626000 -0.228400 0.745600
vn 0.721300 -0.242000 0.649000
vn 0.793700 -0.274700 0.542700
vn 0.518100 -0.267500 0.812400
vn 0.491900 -0.338300 0.802200
vn 0.397600 -0.318800 0.860300
vn 0.419200 -0.269400 0.867000
vn 0.397300 -0.265200 0.878500
vn 0.514800 -0.236900 0.823900
vn 0.443100 -0.414200 0.795000
vn 0.574900 -0.437900 0.691100
vn 0.344600 -0.374200 0.860900
vn 0.699700 -0.420400 0.577700
vn 0.781900 -0.384700 0.490500
vn 0.742300 -0.243600 0.624100
vn 0.816700 -0.305000 0.489800
vn 0.627200 -0.220800 0.746800
vn 0.618000 -0.272700 0.737400
vn 0.773800 -0.309800 0.552500
vn 0.827200 -0.328300 0.455900
vn 0.486800 -0.237500 0.840600
vn 0.340600 -0.293600 0.893200
vn 0.305000 -0.315700 0.898500
vn 0.409300 -0.300900 0.861400
vn 0.504900 -0.329900 -0.797600
vn 0.253300 -0.648400 -0.717900
vn 0.591800 -0.201400 -0.780400
vn 0.827200 -0.328300 0.455900
vn -0.358400 -0.933000 -0.030400
vn -0.768000 -0.623200 0.147500
vn -0.082100 -0.994300 -0.068400
vn 0.305000 -0.315700 0.898500
vn -0.746300 0.457700 0.483300
vn -0.516000 0.681000 0.519600
vn -0.840500 0.269100 0.470200
vn 0.192200 -0.372900 0.907700
vn 0.649900 0.759800 -0.014600
vn 0.616300 0.653600 -0.439200
vn 0.406000 0.791600 0.456600
vn 0.853100 -0.388800 0.347900
vn 0.611900 0.424600 -0.667300
vn 0.609100 0.234600 -0.757600
vn 0.002300 -0.941900 -0.335800
vn -0.878400 -0.297500 0.373900
vn -0.872300 -0.167200 0.459500
vn -0.100200 0.777600 0.620700
vn -0.872200 0.124200 0.473100
vn -0.874500 0.037600 0.483500
vn 0.613200 0.089000 -0.784900
vn 0.621500 0.001800 -0.783400
vn 0.625400 -0.083700 -0.775700
vn -0.869900 -0.048300 0.490800
vt 0.839504 0.118056
vt 0.856743 0.205307
vt 0.741230 0.205307
vt 0.734555 0.106726
vt 0.724541 0.032791
vt 0.813647 0.052618
vt 0.868992 0.081539
vt 0.913398 0.129584
vt 0.940923 0.205307
vt 0.839504 0.292557
vt 0.813647 0.357995
vt 0.724541 0.377822
vt 0.734555 0.303887
vt 0.913398 0.281029
vt 0.868992 0.329074
vt 0.369475 0.299954
vt 0.368286 0.370940
vt 0.245840 0.351447
vt 0.246397 0.288815
vt 0.246768 0.205307
vt 0.370268 0.205307
vt 0.494283 0.205307
vt 0.492822 0.304944
vt 0.490632 0.379672
vt 0.369475 0.110659
vt 0.246397 0.121798
vt 0.245841 0.059166
vt 0.368286 0.039673
vt 0.490632 0.030941
vt 0.492822 0.105669
vt 0.616755 0.103478
vt 0.619174 0.205307
vt 0.613127 0.027106
vt 0.616755 0.307135
vt 0.613126 0.383507
vt 0.123273 0.268175
vt 0.123047 0.315326
vt 0.054743 0.283353
vt 0.030912 0.249131
vt 0.030973 0.205306
vt 0.123423 0.205306
vt 0.123273 0.142438
vt 0.030912 0.161481
vt 0.054744 0.127260
vt 0.123047 0.095287
vt 0.839504 0.118056
vt 0.856743 0.205307
vt 0.968983 0.205307
vt 0.938030 0.133427
vt 0.876123 0.061548
vt 0.805028 0.030806
vt 0.721203 0.008146
vt 0.734555 0.106726
vt 0.741230 0.205307
vt 0.839504 0.292557
vt 0.805028 0.379807
vt 0.876123 0.349065
vt 0.938030 0.277186
vt 0.734555 0.303887
vt 0.721203 0.402467
vt 0.369475 0.299954
vt 0.367890 0.394602
vt 0.489902 0.404581
vt 0.492822 0.304944
vt 0.494283 0.205307
vt 0.370268 0.205307
vt 0.246768 0.205307
vt 0.246397 0.288815
vt 0.245655 0.372324
vt 0.369475 0.110659
vt 0.492822 0.105669
vt 0.489902 0.006032
vt 0.367890 0.016011
vt 0.245655 0.038289
vt 0.246397 0.121798
vt 0.616755 0.103478
vt 0.619174 0.205307
vt 0.611917 0.001649
vt 0.616755 0.307135
vt 0.611917 0.408964
vt 0.123273 0.268175
vt 0.122972 0.331043
vt 0.123423 0.205306
vt 0.000156 0.205306
vt 0.000125 0.242784
vt 0.000064 0.280261
vt 0.123273 0.142438
vt 0.122972 0.079570
vt 0.000064 0.130352
vt 0.000125 0.167829
vt 0.122972 0.331043
vt 0.030806 0.283587
vt 0.245655 0.372324
vt 0.030806 0.283587
vt 0.000125 0.167829
vt 0.030806 0.127026
vt 0.000156 0.205306
vt 0.030806 0.127026
vt 0.805028 0.030806
vt 0.873826 0.071832
vt 0.721203 0.008146
vt 0.873826 0.071832
vt 0.938030 0.277186
vt 0.873826 0.338781
vt 0.968983 0.205307
vt 0.873826 0.338781
vt 0.805028 0.379807
vt 0.721203 0.402467
vt 0.000125 0.242784
vt 0.122972 0.079570
vt 0.245655 0.038289
vt 0.938030 0.133427
vt 0.611917 0.001649
vt 0.489902 0.006032
vt 0.611917 0.408964
vt 0.489902 0.404581
vt 0.367890 0.394602
vt 0.367890 0.016011
f 1/1/1 2/2/2 3/3/3
f 1/1/1 3/3/3 4/4/4
f 1/1/1 4/4/4 5/5/5
f 1/1/1 5/5/5 6/6/6
f 1/1/1 6/6/6 7/7/7
f 1/1/1 7/7/7 8/8/8
f 1/1/1 8/8/8 9/9/9
f 1/1/1 9/9/9 2/2/2
f 10/10/10 11/11/11 12/12/12
f 10/10/10 12/12/12 13/13/13
f 10/10/10 13/13/13 3/3/3
f 10/10/10 3/3/3 2/2/2
f 10/10/10 2/2/2 9/9/9
f 10/10/10 9/9/9 14/14/14
f 10/10/10 14/14/14 15/15/15
f 10/10/10 15/15/15 11/11/11
f 16/16/16 17/17/17 18/18/18
f 16/16/16 18/18/18 19/19/19
f 16/16/16 19/19/19 20/20/20
f 16/16/16 20/20/20 21/21/21
f 16/16/16 21/21/21 22/22/22
f 16/16/16 22/22/22 23/23/23
f 16/16/16 23/23/23 24/24/24
f 16/16/16 24/24/24 17/17/17
f 25/25/25 21/21/21 20/20/20
f 25/25/25 20/20/20 26/26/26
f 25/25/25 26/26/26 27/27/27
f 25/25/25 27/27/27 28/28/28
f 25/25/25 28/28/28 29/29/29
f 25/25/25 29/29/29 30/30/30
f 25/25/25 30/30/30 22/22/22
f 25/25/25 22/22/22 21/21/21
f 31/31/31 32/32/32 22/22/22
f 31/31/31 22/22/22 30/30/30
f 31/31/31 30/30/30 29/29/29
f 31/31/31 29/29/29 33/33/33
f 31/31/31 33/33/33 5/5/5
f 31/31/31 5/5/5 4/4/4
f 31/31/31 4/4/4 3/3/3
f 31/31/31 3/3/3 32/32/32
f 34/34/34 35/35/35 24/24/24
f 34/34/34 24/24/24 23/23/23
f 34/34/34 23/23/23 22/22/22
f 34/34/34 22/22/22 32/32/32
f 34/34/34 32/32/32 3/3/3
f 34/34/34 3/3/3 13/13/13
f 34/34/34 13/13/13 12/12/12
f 34/34/34 12/12/12 35/35/35
f 36/36/36 37/37/37 38/38/38
f 36/36/36 38/38/38 39/39/39
f 36/36/36 39/39/39 40/40/40
f 36/36/36 40/40/40 41/41/41
f 36/36/36 41/41/41 20/20/20
f 36/36/36 20/20/20 19/19/19
f 36/36/36 19/19/19 18/18/18
f 36/36/36 18/18/18 37/37/37
f 42/42/42 41/41/41 40/40/40
f 42/42/42 40/40/40 43/43/43
f 42/42/42 43/43/43 44/44/44
f 42/42/42 44/44/44 45/45/45
f 42/42/42 45/45/45 27/27/27
f 42/42/42 27/27/27 26/26/26
f 42/42/42 26/26/26 20/20/20
f 42/42/42 20/20/20 41/41/41
f 46/46/46 47/47/47 48/48/48
f 46/46/46 48/48/48 49/49/49
f 46/46/46 49/49/49 50/50/50
f 46/46/46 50/50/50 51/51/51
f 46/46/46 51/51/51 52/52/52
f 46/46/46 52/52/52 53/53/53
f 46/46/46 53/53/53 54/54/54
f 46/46/46 54/54/54 47/47/47
f 55/55/55 56/56/56 57/57/57
f 55/55/55 57/57/57 58/58/58
f 55/55/55 58/58/58 48/48/48
f 55/55/55 48/48/48 47/47/47
f 55/55/55 47/47/47 54/54/54
f 55/55/55 54/54/54 59/59/59
f 55/55/55 59/59/59 60/60/60
f 55/55/55 60/60/60 56/56/56
f 61/61/61 62/62/62 63/63/63
f 61/61/61 63/63/63 64/64/64
f 61/61/61 64/64/64 65/65/65
f 61/61/61 65/65/65 66/66/66
f 61/61/61 66/66/66 67/67/67
f 61/61/61 67/67/67 68/68/68
f 61/61/61 68/68/68 69/69/69
f 61/61/61 69/69/69 62/62/62
f 70/70/70 66/66/66 65/65/65
f 70/70/70 65/65/65 71/71/71
f 70/70/70 71/71/71 72/72/72
f 70/70/70 72/72/72 73/73/73
f 70/70/70 73/73/73 74/74/74
f 70/70/70 74/74/74 75/75/75
f 70/70/70 75/75/75 67/67/67
f 70/70/70 67/67/67 66/66/66
f 76/76/76 77/77/77 54/54/54
f 76/76/76 54/54/54 53/53/53
f 76/76/76 53/53/53 52/52/52
f 76/76/76 52/52/52 78/78/78
f 76/76/76 78/78/78 72/72/72
f 76/76/76 72/72/72 71/71/71
f 76/76/76 71/71/71 65/65/65
f 76/76/76 65/65/65 77/77/77
f 79/79/79 80/80/80 60/60/60
f 79/79/79 60/60/60 59/59/59
f 79/79/79 59/59/59 54/54/54
f 79/79/79 54/54/54 77/77/77
f 79/79/79 77/77/77 65/65/65
f 79/79/79 65/65/65 64/64/64
f 79/79/79 64/64/64 63/63/63
f 79/79/79 63/63/63 80/80/80
f 81/81/81 82/82/82 69/69/69
f 81/81/81 69/69/69 68/68/68
f 81/81/81 68/68/68 67/67/67
f 81/81/81 67/67/67 83/83/83
f 81/81/81 83/83/83 84/84/84
f 81/81/81 84/84/84 85/85/85
f 81/81/81 85/85/85 86/86/86
f 81/81/81 86/86/86 82/82/82
f 87/87/87 83/83/83 67/67/67
f 87/87/87 67/67/67 75/75/75
f 87/87/87 75/75/75 74/74/74
f 87/87/87 74/74/74 88/88/88
f 87/87/87 88/88/88 89/89/89
f 87/87/87 89/89/89 90/90/90
f 87/87/87 90/90/90 84/84/84
f 87/87/87 84/84/84 83/83/83
f 91/91/91 92/92/92 38/38/38
f 91/91/91 38/38/38 37/37/37
f 91/91/91 37/37/37 18/18/18
f 91/91/91 18/18/18 93/93/93
f 91/91/91 93/93/93 69/69/69
f 91/91/91 69/69/69 82/82/82
f 91/91/91 82/82/82 94/94/94
f 91/91/91 94/94/94 92/92/92
f 95/95/95 96/96/96 44/44/44
f 95/95/95 44/44/44 43/43/43
f 95/95/95 43/43/43 40/40/40
f 95/95/95 40/40/40 97/97/97
f 95/95/95 97/97/97 84/84/84
f 95/95/95 84/84/84 90/90/90
f 95/95/95 90/90/90 98/98/98
f 95/95/95 98/98/98 96/96/96
f 99/99/99 100/100/100 7/7/7
f 99/99/99 7/7/7 6/6/6
f 99/99/99 6/6/6 5/5/5
f 99/99/99 5/5/5 101/101/101
f 99/99/99 101/101/101 52/52/52
f 99/99/99 52/52/52 51/51/51
f 99/99/99 51/51/51 102/102/102
f 99/99/99 102/102/102 100/100/100
f 103/103/103 104/104/104 15/15/15
f 103/103/103 15/15/15 14/14/14
f 103/103/103 14/14/14 9/9/9
f 103/103/103 9/9/9 105/105/105
f 103/103/103 105/105/105 48/48/48
f 103/103/103 48/48/48 58/58/58
f 103/103/103 58/58/58 106/106/106
f 103/103/103 106/106/106 104/104/104
f 107/107/107 108/108/108 12/12/12
f 107/107/107 12/12/12 11/11/11
f 107/107/107 11/11/11 15/15/15
f 107/107/107 15/15/15 104/104/104
f 107/107/107 104/104/104 106/106/106
f 107/107/107 106/106/106 56/56/56
f 107/107/107 56/56/56 60/60/60
f 107/107/107 60/60/60 108/108/108
f 109/109/109 97/97/97 40/40/40
f 109/109/109 40/40/40 39/39/39
f 109/109/109 39/39/39 38/38/38
f 109/109/109 38/38/38 92/92/92
f 109/109/109 92/92/92 94/94/94
f 109/109/109 94/94/94 85/85/85
f 109/109/109 85/85/85 84/84/84
f 109/109/109 84/84/84 97/97/97
f 110/110/110 111/111/111 27/27/27
f 110/110/110 27/27/27 45/45/45
f 110/110/110 45/45/45 44/44/44
f 110/110/110 44/44/44 96/96/96
f 110/110/110 96/96/96 98/98/98
f 110/110/110 98/98/98 88/88/88
f 110/110/110 88/88/88 74/74/74
f 110/110/110 74/74/74 111/111/111
f 112/112/112 105/105/105 9/9/9
f 112/112/112 9/9/9 8/8/8
f 112/112/112 8/8/8 7/7/7
f 112/112/112 7/7/7 100/100/100
f 112/112/112 100/100/100 102/102/102
f 112/112/112 102/102/102 49/49/49
f 112/112/112 49/49/49 48/48/48
f 112/112/112 48/48/48 105/105/105
f 113/113/113 101/101/101 5/5/5
f 113/113/113 5/5/5 33/33/33
f 113/113/113 33/33/33 29/29/29
f 113/113/113 29/29/29 114/114/114
f 113/113/113 114/114/114 72/72/72
f 113/113/113 72/72/72 78/78/78
f 113/113/113 78/78/78 52/52/52
f 113/113/113 52/52/52 101/101/101
f 115/115/115 116/116/116 24/24/24
f 115/115/115 24/24/24 35/35/35
f 115/115/115 35/35/35 12/12/12
f 115/115/115 12/12/12 108/108/108
f 115/115/115 108/108/108 60/60/60
f 115/115/115 60/60/60 80/80/80
f 115/115/115 80/80/80 63/63/63
f 115/115/115 63/63/63 116/116/116
f 117/117/117 93/93/93 18/18/18
f 117/117/117 18/18/18 17/17/17
f 117/117/117 17/17/17 24/24/24
f 117/117/117 24/24/24 116/116/116
f 117/117/117 116/116/116 63/63/63
f 117/117/117 63/63/63 62/62/62
f 117/117/117 62/62/62 69/69/69
f 117/117/117 69/69/69 93/93/93
f 118/118/118 114/114/114 29/29/29
f 118/118/118 29/29/29 28/28/28
f 118/118/118 28/28/28 27/27/27
f 118/118/118 27/27/27 111/111/111
f 118/118/118 111/111/111 74/74/74
f 118/118/118 74/74/74 73/73/73
f 118/118/118 73/73/73 72/72/72
f 118/118/118 72/72/72 114/114/114
