v -2.341928 0.698907 -1.138835
v -2.341056 0.699235 -1.141354
v -2.344370 0.698001 -1.141885
v -2.344968 0.697695 -1.138975
v -2.345666 0.697643 -1.136769
v -2.343061 0.698767 -1.136955
v -2.341287 0.699300 -1.137583
v -2.339715 0.699654 -1.138854
v -2.338583 0.700025 -1.140985
v -2.341498 0.699935 -1.143910
v -2.342307 0.700570 -1.145854
v -2.344809 0.699691 -1.146879
v -2.344479 0.698863 -1.144742
v -2.339342 0.700543 -1.143246
v -2.340676 0.700760 -1.144791
v -2.353979 0.693247 -1.146625
v -2.353994 0.693891 -1.148723
v -2.356911 0.691375 -1.148881
v -2.356885 0.690795 -1.147025
v -2.356959 0.690138 -1.144545
v -2.354075 0.692514 -1.143819
v -2.351040 0.694676 -1.143124
v -2.350953 0.695465 -1.146055
v -2.350992 0.696171 -1.148246
v -2.354459 0.692102 -1.140973
v -2.357309 0.689782 -1.142027
v -2.357654 0.689601 -1.140123
v -2.354834 0.691885 -1.138821
v -2.351871 0.694073 -1.137888
v -2.351454 0.694267 -1.140144
v -2.348217 0.696140 -1.139444
v -2.347751 0.696493 -1.142477
v -2.348708 0.696035 -1.137142
v -2.347708 0.697355 -1.145443
v -2.347817 0.698165 -1.147654
v -2.359770 0.688199 -1.147131
v -2.359833 0.688678 -1.148512
v -2.361404 0.687010 -1.147966
v -2.361903 0.686173 -1.147107
v -2.361876 0.685767 -1.145847
v -2.359792 0.687674 -1.145284
v -2.360086 0.687444 -1.143401
v -2.362120 0.685655 -1.144551
v -2.361794 0.686079 -1.143367
v -2.360387 0.687353 -1.141972
v -2.341820 0.698648 -1.138838
v -2.340944 0.698981 -1.141396
v -2.338503 0.699834 -1.141017
v -2.339638 0.699458 -1.138855
v -2.341230 0.699155 -1.137576
v -2.342982 0.698572 -1.136938
v -2.345578 0.697451 -1.136756
v -2.344848 0.697441 -1.138981
v -2.344248 0.697751 -1.141925
v -2.341383 0.699691 -1.143989
v -2.342220 0.700394 -1.145933
v -2.340614 0.700628 -1.144844
v -2.339260 0.700360 -1.143308
v -2.344353 0.698623 -1.144816
v -2.344714 0.699516 -1.146951
v -2.353809 0.693029 -1.146680
v -2.353866 0.693730 -1.148777
v -2.350874 0.696005 -1.148304
v -2.350796 0.695238 -1.146115
v -2.350884 0.694443 -1.143158
v -2.353906 0.692291 -1.143850
v -2.356781 0.689920 -1.144574
v -2.356706 0.690583 -1.147079
v -2.356777 0.691220 -1.148933
v -2.354292 0.691874 -1.140980
v -2.351302 0.694030 -1.140152
v -2.351758 0.693894 -1.137881
v -2.354711 0.691712 -1.138814
v -2.357524 0.689433 -1.140113
v -2.357134 0.689561 -1.142032
v -2.348081 0.695894 -1.139452
v -2.347613 0.696251 -1.142515
v -2.348608 0.695849 -1.137132
v -2.347568 0.697121 -1.145509
v -2.347711 0.697993 -1.147718
v -2.359588 0.687991 -1.147185
v -2.359696 0.688525 -1.148566
v -2.359611 0.687459 -1.145313
v -2.361739 0.685607 -1.145868
v -2.361766 0.686017 -1.147149
v -2.361303 0.686896 -1.148002
v -2.359908 0.687225 -1.143403
v -2.360256 0.687187 -1.141960
v -2.361696 0.685956 -1.143362
v -2.361986 0.685491 -1.144551
v -2.359793 0.688770 -1.148999
v -2.361953 0.686521 -1.148116
v -2.356860 0.691500 -1.149525
v -2.361303 0.686896 -1.148002
v -2.362738 0.684986 -1.144934
v -2.362343 0.685588 -1.143509
v -2.362509 0.685060 -1.146044
v -2.361696 0.685956 -1.143362
v -2.343405 0.698634 -1.136316
v -2.341190 0.699344 -1.137257
v -2.345860 0.697540 -1.136024
v -2.341230 0.699155 -1.137576
v -2.338588 0.700665 -1.143053
v -2.340528 0.700924 -1.145054
v -2.337724 0.700203 -1.140876
v -2.340614 0.700628 -1.144844
v -2.342538 0.700705 -1.146541
v -2.344876 0.699890 -1.147627
v -2.362553 0.685428 -1.147118
v -2.360430 0.687249 -1.141488
v -2.357712 0.689465 -1.139481
v -2.338943 0.699815 -1.138860
v -2.348828 0.695917 -1.136367
v -2.351959 0.693929 -1.137130
v -2.347806 0.698359 -1.148422
v -2.350953 0.696334 -1.149005
v -2.353942 0.694034 -1.149450
v -2.354904 0.691735 -1.138098
vn -0.342600 0.937500 -0.060800
vn -0.349400 0.923600 0.157400
vn -0.404700 0.902300 0.148400
vn -0.401200 0.914800 -0.046900
vn -0.425200 0.904100 -0.041500
vn -0.344300 0.937300 -0.052900
vn -0.285400 0.956500 -0.059900
vn -0.261400 0.965200 -0.007700
vn -0.260800 0.950200 0.170400
vn -0.378500 0.851800 0.362100
vn -0.378900 0.854800 0.354700
vn -0.455700 0.831200 0.318300
vn -0.433200 0.838200 0.331200
vn -0.290700 0.895200 0.337700
vn -0.322500 0.867900 0.377900
vn -0.625900 0.751000 0.210300
vn -0.631500 0.755800 0.173000
vn -0.656000 0.736700 0.163900
vn -0.651500 0.728400 0.211700
vn -0.653900 0.750400 0.096500
vn -0.621200 0.776600 0.104600
vn -0.552300 0.824900 0.120200
vn -0.564800 0.790400 0.237100
vn -0.578500 0.788800 0.207800
vn -0.607900 0.794000 -0.002000
vn -0.632200 0.774600 -0.016100
vn -0.644600 0.763900 0.029700
vn -0.619600 0.784200 0.032900
vn -0.562800 0.826300 0.022600
vn -0.544600 0.838700 -0.001100
vn -0.467100 0.884000 -0.017900
vn -0.471600 0.871200 0.136400
vn -0.492500 0.870300 -0.005800
vn -0.492500 0.823200 0.282400
vn -0.515200 0.816000 0.261900
vn -0.662200 0.711900 0.233600
vn -0.671100 0.718600 0.181900
vn -0.684000 0.698800 0.209300
vn -0.703300 0.667900 0.243300
vn -0.709600 0.699900 0.081600
vn -0.668800 0.737600 0.092700
vn -0.638700 0.768200 -0.044000
vn -0.676100 0.732800 -0.076500
vn -0.663600 0.747400 -0.030600
vn -0.656100 0.754700 0.004000
vn 0.359700 -0.928500 0.091900
vn 0.364800 -0.918100 -0.155000
vn 0.423100 -0.894300 -0.145300
vn 0.404700 -0.895500 0.184800
vn 0.402400 -0.864000 0.302500
vn 0.399700 -0.873500 0.277700
vn 0.417000 -0.884300 0.209900
vn 0.400100 -0.914300 0.062200
vn 0.404600 -0.902300 -0.148400
vn 0.400000 -0.832100 -0.384100
vn 0.467800 -0.710800 -0.525200
vn 0.474200 -0.692500 -0.543600
vn 0.458400 -0.767300 -0.448400
vn 0.434600 -0.831800 -0.345100
vn 0.474200 -0.747600 -0.464900
vn 0.625000 -0.747100 -0.226100
vn 0.613900 -0.715200 -0.334000
vn 0.570500 -0.740900 -0.354400
vn 0.564700 -0.786100 -0.251500
vn 0.552400 -0.824800 -0.120200
vn 0.621400 -0.776500 -0.104600
vn 0.654000 -0.750300 -0.096500
vn 0.648900 -0.725100 -0.230400
vn 0.613800 -0.704300 -0.356600
vn 0.604400 -0.796500 0.017700
vn 0.541900 -0.840200 0.015900
vn 0.529600 -0.838600 0.127700
vn 0.574900 -0.808400 0.126200
vn 0.570800 -0.807100 0.150900
vn 0.626500 -0.778600 0.033900
vn 0.464900 -0.884800 0.032400
vn 0.471600 -0.871200 -0.136500
vn 0.466300 -0.870600 0.156700
vn 0.492800 -0.818200 -0.296100
vn 0.513800 -0.757200 -0.403300
vn 0.646600 -0.716500 -0.261700
vn 0.580300 -0.702100 -0.412500
vn 0.659800 -0.745400 -0.095000
vn 0.618900 -0.778400 -0.105200
vn 0.587000 -0.733200 -0.343300
vn 0.554200 -0.702800 -0.445900
vn 0.618900 -0.782700 0.065400
vn 0.528700 -0.825600 0.197100
vn 0.497600 -0.838300 0.222900
vn 0.547500 -0.827700 0.123300
vn -0.335900 0.098700 -0.936700
vn -0.625600 -0.142000 -0.767100
vn -0.200000 0.170300 -0.964900
vn 0.554200 -0.702800 -0.445900
vn -0.771900 -0.633800 0.048100
vn -0.736500 -0.406800 0.540400
vn -0.664700 -0.719300 -0.201700
vn 0.497600 -0.838300 0.222900
vn 0.091000 0.236900 0.967200
vn 0.378200 0.340300 0.860900
vn -0.081700 0.117800 0.989700
vn 0.402400 -0.864000 0.302500
vn 0.819100 0.461400 -0.340600
vn 0.501100 0.634100 -0.588900
vn 0.955200 0.263700 0.134400
vn 0.474200 -0.692500 -0.543600
vn 0.238400 0.589300 -0.771900
vn 0.075700 0.493700 -0.866300
vn -0.732700 -0.540700 -0.413200
vn -0.486100 -0.260000 0.834300
vn -0.358900 -0.209400 0.909500
vn 0.737800 0.266800 0.620000
vn -0.182400 0.010000 0.983200
vn -0.228100 -0.063400 0.971600
vn -0.021200 0.395100 -0.918400
vn -0.066000 0.324500 -0.943600
vn -0.109100 0.252100 -0.961500
vn -0.271300 -0.135600 0.952900
vt 0.839504 0.118056
vt 0.856743 0.205307
vt 0.741230 0.205307
vt 0.734555 0.106726
vt 0.724541 0.032791
vt 0.813647 0.052618
vt 0.868992 0.081539
vt 0.913398 0.129584
vt 0.940923 0.205307
vt 0.839504 0.292557
vt 0.813647 0.357995
vt 0.724541 0.377822
vt 0.734555 0.303887
vt 0.913398 0.281029
vt 0.868992 0.329074
vt 0.369475 0.299954
vt 0.368286 0.370940
vt 0.245840 0.351447
vt 0.246397 0.288815
vt 0.246768 0.205307
vt 0.370268 0.205307
vt 0.494283 0.205307
vt 0.492822 0.304944
vt 0.490632 0.379672
vt 0.369475 0.110659
vt 0.246397 0.121798
vt 0.245841 0.059166
vt 0.368286 0.039673
vt 0.490632 0.030941
vt 0.492822 0.105669
vt 0.616755 0.103478
vt 0.619174 0.205307
vt 0.613127 0.027106
vt 0.616755 0.307135
vt 0.613126 0.383507
vt 0.123273 0.268175
vt 0.123047 0.315326
vt 0.054743 0.283353
vt 0.030912 0.249131
vt 0.030973 0.205306
vt 0.123423 0.205306
vt 0.123273 0.142438
vt 0.030912 0.161481
vt 0.054744 0.127260
vt 0.123047 0.095287
vt 0.839504 0.118056
vt 0.856743 0.205307
vt 0.968983 0.205307
vt 0.938030 0.133427
vt 0.876123 0.061548
vt 0.805028 0.030806
vt 0.721203 0.008146
vt 0.734555 0.106726
vt 0.741230 0.205307
vt 0.839504 0.292557
vt 0.805028 0.379807
vt 0.876123 0.349065
vt 0.938030 0.277186
vt 0.734555 0.303887
vt 0.721203 0.402467
vt 0.369475 0.299954
vt 0.367890 0.394602
vt 0.489902 0.404581
vt 0.492822 0.304944
vt 0.494283 0.205307
vt 0.370268 0.205307
vt 0.246768 0.205307
vt 0.246397 0.288815
vt 0.245655 0.372324
vt 0.369475 0.110659
vt 0.492822 0.105669
vt 0.489902 0.006032
vt 0.367890 0.016011
vt 0.245655 0.038289
vt 0.246397 0.121798
vt 0.616755 0.103478
vt 0.619174 0.205307
vt 0.611917 0.001649
vt 0.616755 0.307135
vt 0.611917 0.408964
vt 0.123273 0.268175
vt 0.122972 0.331043
vt 0.123423 0.205306
vt 0.000156 0.205306
vt 0.000125 0.242784
vt 0.000064 0.280261
vt 0.123273 0.142438
vt 0.122972 0.079570
vt 0.000064 0.130352
vt 0.000125 0.167829
vt 0.122972 0.331043
vt 0.030806 0.283587
vt 0.245655 0.372324
vt 0.030806 0.283587
vt 0.000125 0.167829
vt 0.030806 0.127026
vt 0.000156 0.205306
vt 0.030806 0.127026
vt 0.805028 0.030806
vt 0.873826 0.071832
vt 0.721203 0.008146
vt 0.873826 0.071832
vt 0.938030 0.277186
vt 0.873826 0.338781
vt 0.968983 0.205307
vt 0.873826 0.338781
vt 0.805028 0.379807
vt 0.721203 0.402467
vt 0.000125 0.242784
vt 0.122972 0.079570
vt 0.245655 0.038289
vt 0.938030 0.133427
vt 0.611917 0.001649
vt 0.489902 0.006032
vt 0.611917 0.408964
vt 0.489902 0.404581
vt 0.367890 0.394602
vt 0.367890 0.016011
f 1/1/1 2/2/2 3/3/3
f 1/1/1 3/3/3 4/4/4
f 1/1/1 4/4/4 5/5/5
f 1/1/1 5/5/5 6/6/6
f 1/1/1 6/6/6 7/7/7
f 1/1/1 7/7/7 8/8/8
f 1/1/1 8/8/8 9/9/9
f 1/1/1 9/9/9 2/2/2
f 10/10/10 11/11/11 12/12/12
f 10/10/10 12/12/12 13/13/13
f 10/10/10 13/13/13 3/3/3
f 10/10/10 3/3/3 2/2/2
f 10/10/10 2/2/2 9/9/9
f 10/10/10 9/9/9 14/14/14
f 10/10/10 14/14/14 15/15/15
f 10/10/10 15/15/15 11/11/11
f 16/16/16 17/17/17 18/18/18
f 16/16/16 18/18/18 19/19/19
f 16/16/16 19/19/19 20/20/20
f 16/16/16 20/20/20 21/21/21
f 16/16/16 21/21/21 22/22/22
f 16/16/16 22/22/22 23/23/23
f 16/16/16 23/23/23 24/24/24
f 16/16/16 24/24/24 17/17/17
f 25/25/25 21/21/21 20/20/20
f 25/25/25 20/20/20 26/26/26
f 25/25/25 26/26/26 27/27/27
f 25/25/25 27/27/27 28/28/28
f 25/25/25 28/28/28 29/29/29
f 25/25/25 29/29/29 30/30/30
f 25/25/25 30/30/30 22/22/22
f 25/25/25 22/22/22 21/21/21
f 31/31/31 32/32/32 22/22/22
f 31/31/31 22/22/22 30/30/30
f 31/31/31 30/30/30 29/29/29
f 31/31/31 29/29/29 33/33/33
f 31/31/31 33/33/33 5/5/5
f 31/31/31 5/5/5 4/4/4
f 31/31/31 4/4/4 3/3/3
f 31/31/31 3/3/3 32/32/32
f 34/34/34 35/35/35 24/24/24
f 34/34/34 24/24/24 23/23/23
f 34/34/34 23/23/23 22/22/22
f 34/34/34 22/22/22 32/32/32
f 34/34/34 32/32/32 3/3/3
f 34/34/34 3/3/3 13/13/13
f 34/34/34 13/13/13 12/12/12
f 34/34/34 12/12/12 35/35/35
f 36/36/36 37/37/37 38/38/38
f 36/36/36 38/38/38 39/39/39
f 36/36/36 39/39/39 40/40/40
f 36/36/36 40/40/40 41/41/41
f 36/36/36 41/41/41 20/20/20
f 36/36/36 20/20/20 19/19/19
f 36/36/36 19/19/19 18/18/18
f 36/36/36 18/18/18 37/37/37
f 42/42/42 41/41/41 40/40/40
f 42/42/42 40/40/40 43/43/43
f 42/42/42 43/43/43 44/44/44
f 42/42/42 44/44/44 45/45/45
f 42/42/42 45/45/45 27/27/27
f 42/42/42 27/27/27 26/26/26
f 42/42/42 26/26/26 20/20/20
f 42/42/42 20/20/20 41/41/41
f 46/46/46 47/47/47 48/48/48
f 46/46/46 48/48/48 49/49/49
f 46/46/46 49/49/49 50/50/50
f 46/46/46 50/50/50 51/51/51
f 46/46/46 51/51/51 52/52/52
f 46/46/46 52/52/52 53/53/53
f 46/46/46 53/53/53 54/54/54
f 46/46/46 54/54/54 47/47/47
f 55/55/55 56/56/56 57/57/57
f 55/55/55 57/57/57 58/58/58
f 55/55/55 58/58/58 48/48/48
f 55/55/55 48/48/48 47/47/47
f 55/55/55 47/47/47 54/54/54
f 55/55/55 54/54/54 59/59/59
f 55/55/55 59/59/59 60/60/60
f 55/55/55 60/60/60 56/56/56
f 61/61/61 62/62/62 63/63/63
f 61/61/61 63/63/63 64/64/64
f 61/61/61 64/64/64 65/65/65
f 61/61/61 65/65/65 66/66/66
f 61/61/61 66/66/66 67/67/67
f 61/61/61 67/67/67 68/68/68
f 61/61/61 68/68/68 69/69/69
f 61/61/61 69/69/69 62/62/62
f 70/70/70 66/66/66 65/65/65
f 70/70/70 65/65/65 71/71/71
f 70/70/70 71/71/71 72/72/72
f 70/70/70 72/72/72 73/73/73
f 70/70/70 73/73/73 74/74/74
f 70/70/70 74/74/74 75/75/75
f 70/70/70 75/75/75 67/67/67
f 70/70/70 67/67/67 66/66/66
f 76/76/76 77/77/77 54/54/54
f 76/76/76 54/54/54 53/53/53
f 76/76/76 53/53/53 52/52/52
f 76/76/76 52/52/52 78/78/78
f 76/76/76 78/78/78 72/72/72
f 76/76/76 72/72/72 71/71/71
f 76/76/76 71/71/71 65/65/65
f 76/76/76 65/65/65 77/77/77
f 79/79/79 80/80/80 60/60/60
f 79/79/79 60/60/60 59/59/59
f 79/79/79 59/59/59 54/54/54
f 79/79/79 54/54/54 77/77/77
f 79/79/79 77/77/77 65/65/65
f 79/79/79 65/65/65 64/64/64
f 79/79/79 64/64/64 63/63/63
f 79/79/79 63/63/63 80/80/80
f 81/81/81 82/82/82 69/69/69
f 81/81/81 69/69/69 68/68/68
f 81/81/81 68/68/68 67/67/67
f 81/81/81 67/67/67 83/83/83
f 81/81/81 83/83/83 84/84/84
f 81/81/81 84/84/84 85/85/85
f 81/81/81 85/85/85 86/86/86
f 81/81/81 86/86/86 82/82/82
f 87/87/87 83/83/83 67/67/67
f 87/87/87 67/67/67 75/75/75
f 87/87/87 75/75/75 74/74/74
f 87/87/87 74/74/74 88/88/88
f 87/87/87 88/88/88 89/89/89
f 87/87/87 89/89/89 90/90/90
f 87/87/87 90/90/90 84/84/84
f 87/87/87 84/84/84 83/83/83
f 91/91/91 92/92/92 38/38/38
f 91/91/91 38/38/38 37/37/37
f 91/91/91 37/37/37 18/18/18
f 91/91/91 18/18/18 93/93/93
f 91/91/91 93/93/93 69/69/69
f 91/91/91 69/69/69 82/82/82
f 91/91/91 82/82/82 94/94/94
f 91/91/91 94/94/94 92/92/92
f 95/95/95 96/96/96 44/44/44
f 95/95/95 44/44/44 43/43/43
f 95/95/95 43/43/43 40/40/40
f 95/95/95 40/40/40 97/97/97
f 95/95/95 97/97/97 84/84/84
f 95/95/95 84/84/84 90/90/90
f 95/95/95 90/90/90 98/98/98
f 95/95/95 98/98/98 96/96/96
f 99/99/99 100/100/100 7/7/7
f 99/99/99 7/7/7 6/6/6
f 99/99/99 6/6/6 5/5/5
f 99/99/99 5/5/5 101/101/101
f 99/99/99 101/101/101 52/52/52
f 99/99/99 52/52/52 51/51/51
f 99/99/99 51/51/51 102/102/102
f 99/99/99 102/102/102 100/100/100
f 103/103/103 104/104/104 15/15/15
f 103/103/103 15/15/15 14/14/14
f 103/103/103 14/14/14 9/9/9
f 103/103/103 9/9/9 105/105/105
f 103/103/103 105/105/105 48/48/48
f 103/103/103 48/48/48 58/58/58
f 103/103/103 58/58/58 106/106/106
f 103/103/103 106/106/106 104/104/104
f 107/107/107 108/108/108 12/12/12
f 107/107/107 12/12/12 11/11/11
f 107/107/107 11/11/11 15/15/15
f 107/107/107 15/15/15 104/104/104
f 107/107/107 104/104/104 106/106/106
f 107/107/107 106/106/106 56/56/56
f 107/107/107 56/56/56 60/60/60
f 107/107/107 60/60/60 108/108/108
f 109/109/109 97/97/97 40/40/40
f 109/109/109 40/40/40 39/39/39
f 109/109/109 39/39/39 38/38/38
f 109/109/109 38/38/38 92/92/92
f 109/109/109 92/92/92 94/94/94
f 109/109/109 94/94/94 85/85/85
f 109/109/109 85/85/85 84/84/84
f 109/109/109 84/84/84 97/97/97
f 110/110/110 111/111/111 27/27/27
f 110/110/110 27/27/27 45/45/45
f 110/110/110 45/45/45 44/44/44
f 110/110/110 44/44/44 96/96/96
f 110/110/110 96/96/96 98/98/98
f 110/110/110 98/98/98 88/88/88
f 110/110/110 88/88/88 74/74/74
f 110/110/110 74/74/74 111/111/111
f 112/112/112 105/105/105 9/9/9
f 112/112/112 9/9/9 8/8/8
f 112/112/112 8/8/8 7/7/7
f 112/112/112 7/7/7 100/100/100
f 112/112/112 100/100/100 102/102/102
f 112/112/112 102/102/102 49/49/49
f 112/112/112 49/49/49 48/48/48
f 112/112/112 48/48/48 105/105/105
f 113/113/113 101/101/101 5/5/5
f 113/113/113 5/5/5 33/33/33
f 113/113/113 33/33/33 29/29/29
f 113/113/113 29/29/29 114/114/114
f 113/113/113 114/114/114 72/72/72
f 113/113/113 72/72/72 78/78/78
f 113/113/113 78/78/78 52/52/52
f 113/113/113 52/52/52 101/101/101
f 115/115/115 116/116/116 24/24/24
f 115/115/115 24/24/24 35/35/35
f 115/115/115 35/35/35 12/12/12
f 115/115/115 12/12/12 108/108/108
f 115/115/115 108/108/108 60/60/60
f 115/115/115 60/60/60 80/80/80
f 115/115/115 80/80/80 63/63/63
f 115/115/115 63/63/63 116/116/116
f 117/117/117 93/93/93 18/18/18
f 117/117/117 18/18/18 17/17/17
f 117/117/117 17/17/17 24/24/24
f 117/117/117 24/24/24 116/116/116
f 117/117/117 116/116/116 63/63/63
f 117/117/117 63/63/63 62/62/62
f 117/117/117 62/62/62 69/69/69
f 117/117/117 69/69/69 93/93/93
f 118/118/118 114/114/114 29/29/29
f 118/118/118 29/29/29 28/28/28
f 118/118/118 28/28/28 27/27/27
f 118/118/118 27/27/27 111/111/111
f 118/118/118 111/111/111 74/74/74
f 118/118/118 74/74/74 73/73/73
f 118/118/118 73/73/73 72/72/72
f 118/118/118 72/72/72 114/114/114
