v -2.367059 0.717825 -1.040815
v -2.365164 0.718914 -1.041539
v -2.366707 0.718535 -1.044161
v -2.368655 0.717287 -1.043062
v -2.370316 0.716505 -1.042309
v -2.368793 0.717146 -1.040517
v -2.367433 0.717590 -1.039643
v -2.365805 0.718157 -1.039289
v -2.363973 0.719107 -1.039641
v -2.364134 0.720447 -1.042916
v -2.363664 0.721745 -1.044202
v -2.364490 0.721730 -1.046495
v -2.365331 0.720267 -1.045450
v -2.363273 0.720427 -1.041107
v -2.363279 0.721314 -1.042627
v -2.369177 0.717724 -1.053870
v -2.368127 0.718997 -1.054776
v -2.369400 0.717455 -1.057408
v -2.370318 0.716319 -1.056604
v -2.371634 0.714904 -1.055550
v -2.370676 0.716133 -1.052682
v -2.369566 0.717191 -1.049817
v -2.368013 0.718873 -1.051058
v -2.366938 0.720232 -1.052004
v -2.372434 0.714804 -1.051530
v -2.373199 0.713737 -1.054534
v -2.374448 0.712929 -1.053782
v -2.373834 0.713880 -1.050676
v -2.372908 0.714879 -1.047716
v -2.371420 0.715818 -1.048610
v -2.370134 0.716632 -1.045724
v -2.368209 0.717976 -1.046948
v -2.371711 0.715752 -1.044818
v -2.366677 0.719732 -1.048207
v -2.365653 0.721184 -1.049170
v -2.371586 0.714693 -1.059217
v -2.370938 0.715579 -1.059825
v -2.371920 0.714275 -1.061014
v -2.372561 0.713371 -1.061131
v -2.373175 0.712590 -1.060584
v -2.372539 0.713609 -1.058426
v -2.373735 0.712766 -1.057673
v -2.374033 0.712050 -1.060073
v -2.374571 0.711898 -1.059110
v -2.374707 0.712199 -1.057117
v -2.366942 0.717616 -1.040842
v -2.365024 0.718723 -1.041584
v -2.363870 0.718963 -1.039678
v -2.365721 0.717999 -1.039312
v -2.367375 0.717470 -1.039655
v -2.368718 0.716981 -1.040529
v -2.370234 0.716344 -1.042317
v -2.368531 0.717081 -1.043083
v -2.366563 0.718345 -1.044197
v -2.363974 0.720277 -1.042975
v -2.363534 0.721629 -1.044253
v -2.363186 0.721226 -1.042665
v -2.363154 0.720301 -1.041156
v -2.365168 0.720097 -1.045499
v -2.364358 0.721612 -1.046538
v -2.369000 0.717559 -1.053876
v -2.367988 0.718880 -1.054785
v -2.366802 0.720113 -1.052024
v -2.367841 0.718705 -1.051076
v -2.369408 0.717009 -1.049825
v -2.370512 0.715954 -1.052678
v -2.371468 0.714729 -1.055537
v -2.370138 0.716157 -1.056601
v -2.369259 0.717340 -1.057411
v -2.372286 0.714613 -1.051515
v -2.371278 0.715623 -1.048607
v -2.372809 0.714727 -1.047708
v -2.373730 0.713731 -1.050660
v -2.374342 0.712783 -1.053759
v -2.373047 0.713549 -1.054511
v -2.370001 0.716432 -1.045734
v -2.368058 0.717790 -1.046971
v -2.371621 0.715595 -1.044819
v -2.366510 0.719562 -1.048242
v -2.365520 0.721065 -1.049202
v -2.371404 0.714534 -1.059212
v -2.370795 0.715467 -1.059826
v -2.372371 0.713435 -1.058410
v -2.373050 0.712460 -1.060571
v -2.372423 0.713252 -1.061128
v -2.371816 0.714190 -1.061013
v -2.373584 0.712579 -1.057646
v -2.374602 0.712053 -1.057091
v -2.374490 0.711792 -1.059092
v -2.373920 0.711910 -1.060052
v -2.370656 0.715826 -1.060029
v -2.372089 0.714017 -1.061578
v -2.369030 0.717784 -1.057679
v -2.371816 0.714190 -1.061013
v -2.374083 0.711749 -1.060864
v -2.374745 0.711637 -1.059670
v -2.373332 0.712193 -1.061297
v -2.374490 0.711792 -1.059092
v -2.369341 0.716844 -1.040421
v -2.367563 0.717491 -1.039397
v -2.370836 0.716171 -1.042060
v -2.367375 0.717470 -1.039655
v -2.362933 0.720365 -1.040527
v -2.363068 0.721521 -1.042626
v -2.363531 0.719108 -1.039025
v -2.363186 0.721226 -1.042665
v -2.363447 0.722129 -1.044655
v -2.364149 0.722167 -1.046864
v -2.372824 0.712878 -1.061768
v -2.374986 0.711944 -1.056919
v -2.374819 0.712593 -1.053520
v -2.365350 0.718198 -1.038791
v -2.372199 0.715387 -1.044515
v -2.373362 0.714497 -1.047413
v -2.365251 0.721617 -1.049506
v -2.366518 0.720633 -1.052330
v -2.367714 0.719371 -1.055083
v -2.374256 0.713505 -1.050383
vn -0.407700 0.907000 0.105300
vn -0.552400 0.801000 0.230700
vn -0.582100 0.793000 0.179400
vn -0.454600 0.888300 0.065400
vn -0.473300 0.879500 0.048300
vn -0.414100 0.903700 0.109000
vn -0.370700 0.916200 0.152000
vn -0.389300 0.898200 0.204000
vn -0.502000 0.807600 0.309200
vn -0.692100 0.652000 0.309600
vn -0.688000 0.658100 0.305900
vn -0.715200 0.662700 0.222100
vn -0.708800 0.660400 0.248100
vn -0.621600 0.689900 0.370900
vn -0.665100 0.652400 0.363400
vn -0.751300 0.659800 0.008200
vn -0.732000 0.681100 -0.016800
vn -0.739800 0.671100 -0.046600
vn -0.766100 0.642500 -0.017200
vn -0.697200 0.712200 -0.081500
vn -0.684300 0.727900 -0.044100
vn -0.654700 0.755300 0.031400
vn -0.732700 0.675500 0.081700
vn -0.723200 0.688500 0.053600
vn -0.608600 0.787800 -0.094300
vn -0.613000 0.779700 -0.127200
vn -0.649700 0.751900 -0.111400
vn -0.637800 0.765500 -0.084400
vn -0.598700 0.800100 -0.035800
vn -0.572600 0.819100 -0.033300
vn -0.514900 0.856800 0.026700
vn -0.616400 0.779100 0.114400
vn -0.538400 0.842600 0.011500
vn -0.716800 0.675800 0.171700
vn -0.718400 0.681200 0.140800
vn -0.784600 0.619700 -0.017500
vn -0.758800 0.649200 -0.052900
vn -0.781800 0.621300 -0.052500
vn -0.811500 0.581500 -0.056700
vn -0.717200 0.680700 -0.148600
vn -0.702800 0.704300 -0.099200
vn -0.598000 0.787000 -0.151500
vn -0.596400 0.774400 -0.211100
vn -0.620400 0.766000 -0.168300
vn -0.639100 0.756400 -0.138800
vn 0.398000 -0.914600 -0.070900
vn 0.560800 -0.799100 -0.216700
vn 0.591800 -0.789700 -0.161700
vn 0.363000 -0.931300 0.030300
vn 0.277700 -0.953800 0.114600
vn 0.294000 -0.951200 0.093500
vn 0.353100 -0.933700 0.058600
vn 0.443700 -0.894300 -0.056400
vn 0.582100 -0.793000 -0.179400
vn 0.718000 -0.627600 -0.300800
vn 0.833600 -0.467400 -0.294300
vn 0.846500 -0.443800 -0.294000
vn 0.788700 -0.549500 -0.275400
vn 0.717600 -0.648900 -0.253200
vn 0.806700 -0.527000 -0.267200
vn 0.760200 -0.649400 -0.017000
vn 0.815800 -0.572900 -0.078800
vn 0.803000 -0.581300 -0.131000
vn 0.741100 -0.665400 -0.089100
vn 0.654700 -0.755200 -0.031300
vn 0.684400 -0.727800 0.044300
vn 0.697200 -0.712100 0.081700
vn 0.775700 -0.631000 0.005200
vn 0.828200 -0.553300 -0.088500
vn 0.596300 -0.796400 0.100700
vn 0.561400 -0.826600 0.040000
vn 0.479000 -0.871900 0.101800
vn 0.506500 -0.850200 0.143400
vn 0.487100 -0.859200 0.156500
vn 0.598000 -0.790400 0.132800
vn 0.504000 -0.863400 -0.019400
vn 0.616300 -0.779100 -0.114400
vn 0.420900 -0.904800 0.064300
vn 0.724800 -0.665500 -0.178100
vn 0.797200 -0.567400 -0.206000
vn 0.792700 -0.609400 -0.012400
vn 0.840000 -0.522900 -0.144800
vn 0.699400 -0.709200 0.088500
vn 0.683300 -0.728900 0.041400
vn 0.806100 -0.581400 -0.109700
vn 0.842900 -0.505800 -0.183400
vn 0.572800 -0.806600 0.145700
vn 0.430200 -0.890200 0.149400
vn 0.393400 -0.908700 0.139400
vn 0.492400 -0.862600 0.115400
vn 0.347200 0.537100 -0.768700
vn 0.076700 0.286100 -0.955100
vn 0.449200 0.595600 -0.665900
vn 0.842900 -0.505800 -0.183400
vn -0.458300 -0.486300 -0.743900
vn -0.802300 -0.501500 -0.323600
vn -0.198700 -0.468400 -0.860800
vn 0.393400 -0.908700 0.139400
vn -0.616000 -0.219200 0.756600
vn -0.359600 -0.117800 0.925600
vn -0.731100 -0.312900 0.606300
vn 0.277700 -0.953800 0.114600
vn 0.720100 0.452800 0.525700
vn 0.614900 0.755700 0.225400
vn 0.550200 0.053000 0.833300
vn 0.846500 -0.443800 -0.294000
vn 0.553100 0.828900 -0.083300
vn 0.516600 0.805700 -0.289800
vn -0.148100 -0.208700 -0.966700
vn -0.843400 -0.530300 0.086300
vn -0.810800 -0.534200 0.239100
vn 0.074400 -0.125900 0.989200
vn -0.777300 -0.393200 0.491100
vn -0.787300 -0.447700 0.423900
vn 0.501000 0.752800 -0.426900
vn 0.500000 0.706500 -0.500900
vn 0.495500 0.655200 -0.570200
vn -0.791200 -0.498400 0.354400
vt 0.839504 0.118056
vt 0.856743 0.205307
vt 0.741230 0.205307
vt 0.734555 0.106726
vt 0.724541 0.032791
vt 0.813647 0.052618
vt 0.868992 0.081539
vt 0.913398 0.129584
vt 0.940923 0.205307
vt 0.839504 0.292557
vt 0.813647 0.357995
vt 0.724541 0.377822
vt 0.734555 0.303887
vt 0.913398 0.281029
vt 0.868992 0.329074
vt 0.369475 0.299954
vt 0.368286 0.370940
vt 0.245840 0.351447
vt 0.246397 0.288815
vt 0.246768 0.205307
vt 0.370268 0.205307
vt 0.494283 0.205307
vt 0.492822 0.304944
vt 0.490632 0.379672
vt 0.369475 0.110659
vt 0.246397 0.121798
vt 0.245841 0.059166
vt 0.368286 0.039673
vt 0.490632 0.030941
vt 0.492822 0.105669
vt 0.616755 0.103478
vt 0.619174 0.205307
vt 0.613127 0.027106
vt 0.616755 0.307135
vt 0.613126 0.383507
vt 0.123273 0.268175
vt 0.123047 0.315326
vt 0.054743 0.283353
vt 0.030912 0.249131
vt 0.030973 0.205306
vt 0.123423 0.205306
vt 0.123273 0.142438
vt 0.030912 0.161481
vt 0.054744 0.127260
vt 0.123047 0.095287
vt 0.839504 0.118056
vt 0.856743 0.205307
vt 0.968983 0.205307
vt 0.938030 0.133427
vt 0.876123 0.061548
vt 0.805028 0.030806
vt 0.721203 0.008146
vt 0.734555 0.106726
vt 0.741230 0.205307
vt 0.839504 0.292557
vt 0.805028 0.379807
vt 0.876123 0.349065
vt 0.938030 0.277186
vt 0.734555 0.303887
vt 0.721203 0.402467
vt 0.369475 0.299954
vt 0.367890 0.394602
vt 0.489902 0.404581
vt 0.492822 0.304944
vt 0.494283 0.205307
vt 0.370268 0.205307
vt 0.246768 0.205307
vt 0.246397 0.288815
vt 0.245655 0.372324
vt 0.369475 0.110659
vt 0.492822 0.105669
vt 0.489902 0.006032
vt 0.367890 0.016011
vt 0.245655 0.038289
vt 0.246397 0.121798
vt 0.616755 0.103478
vt 0.619174 0.205307
vt 0.611917 0.001649
vt 0.616755 0.307135
vt 0.611917 0.408964
vt 0.123273 0.268175
vt 0.122972 0.331043
vt 0.123423 0.205306
vt 0.000156 0.205306
vt 0.000125 0.242784
vt 0.000064 0.280261
vt 0.123273 0.142438
vt 0.122972 0.079570
vt 0.000064 0.130352
vt 0.000125 0.167829
vt 0.122972 0.331043
vt 0.030806 0.283587
vt 0.245655 0.372324
vt 0.030806 0.283587
vt 0.000125 0.167829
vt 0.030806 0.127026
vt 0.000156 0.205306
vt 0.030806 0.127026
vt 0.805028 0.030806
vt 0.873826 0.071832
vt 0.721203 0.008146
vt 0.873826 0.071832
vt 0.938030 0.277186
vt 0.873826 0.338781
vt 0.968983 0.205307
vt 0.873826 0.338781
vt 0.805028 0.379807
vt 0.721203 0.402467
vt 0.000125 0.242784
vt 0.122972 0.079570
vt 0.245655 0.038289
vt 0.938030 0.133427
vt 0.611917 0.001649
vt 0.489902 0.006032
vt 0.611917 0.408964
vt 0.489902 0.404581
vt 0.367890 0.394602
vt 0.367890 0.016011
f 1/1/1 2/2/2 3/3/3
f 1/1/1 3/3/3 4/4/4
f 1/1/1 4/4/4 5/5/5
f 1/1/1 5/5/5 6/6/6
f 1/1/1 6/6/6 7/7/7
f 1/1/1 7/7/7 8/8/8
f 1/1/1 8/8/8 9/9/9
f 1/1/1 9/9/9 2/2/2
f 10/10/10 11/11/11 12/12/12
f 10/10/10 12/12/12 13/13/13
f 10/10/10 13/13/13 3/3/3
f 10/10/10 3/3/3 2/2/2
f 10/10/10 2/2/2 9/9/9
f 10/10/10 9/9/9 14/14/14
f 10/10/10 14/14/14 15/15/15
f 10/10/10 15/15/15 11/11/11
f 16/16/16 17/17/17 18/18/18
f 16/16/16 18/18/18 19/19/19
f 16/16/16 19/19/19 20/20/20
f 16/16/16 20/20/20 21/21/21
f 16/16/16 21/21/21 22/22/22
f 16/16/16 22/22/22 23/23/23
f 16/16/16 23/23/23 24/24/24
f 16/16/16 24/24/24 17/17/17
f 25/25/25 21/21/21 20/20/20
f 25/25/25 20/20/20 26/26/26
f 25/25/25 26/26/26 27/27/27
f 25/25/25 27/27/27 28/28/28
f 25/25/25 28/28/28 29/29/29
f 25/25/25 29/29/29 30/30/30
f 25/25/25 30/30/30 22/22/22
f 25/25/25 22/22/22 21/21/21
f 31/31/31 32/32/32 22/22/22
f 31/31/31 22/22/22 30/30/30
f 31/31/31 30/30/30 29/29/29
f 31/31/31 29/29/29 33/33/33
f 31/31/31 33/33/33 5/5/5
f 31/31/31 5/5/5 4/4/4
f 31/31/31 4/4/4 3/3/3
f 31/31/31 3/3/3 32/32/32
f 34/34/34 35/35/35 24/24/24
f 34/34/34 24/24/24 23/23/23
f 34/34/34 23/23/23 22/22/22
f 34/34/34 22/22/22 32/32/32
f 34/34/34 32/32/32 3/3/3
f 34/34/34 3/3/3 13/13/13
f 34/34/34 13/13/13 12/12/12
f 34/34/34 12/12/12 35/35/35
f 36/36/36 37/37/37 38/38/38
f 36/36/36 38/38/38 39/39/39
f 36/36/36 39/39/39 40/40/40
f 36/36/36 40/40/40 41/41/41
f 36/36/36 41/41/41 20/20/20
f 36/36/36 20/20/20 19/19/19
f 36/36/36 19/19/19 18/18/18
f 36/36/36 18/18/18 37/37/37
f 42/42/42 41/41/41 40/40/40
f 42/42/42 40/40/40 43/43/43
f 42/42/42 43/43/43 44/44/44
f 42/42/42 44/44/44 45/45/45
f 42/42/42 45/45/45 27/27/27
f 42/42/42 27/27/27 26/26/26
f 42/42/42 26/26/26 20/20/20
f 42/42/42 20/20/20 41/41/41
f 46/46/46 47/47/47 48/48/48
f 46/46/46 48/48/48 49/49/49
f 46/46/46 49/49/49 50/50/50
f 46/46/46 50/50/50 51/51/51
f 46/46/46 51/51/51 52/52/52
f 46/46/46 52/52/52 53/53/53
f 46/46/46 53/53/53 54/54/54
f 46/46/46 54/54/54 47/47/47
f 55/55/55 56/56/56 57/57/57
f 55/55/55 57/57/57 58/58/58
f 55/55/55 58/58/58 48/48/48
f 55/55/55 48/48/48 47/47/47
f 55/55/55 47/47/47 54/54/54
f 55/55/55 54/54/54 59/59/59
f 55/55/55 59/59/59 60/60/60
f 55/55/55 60/60/60 56/56/56
f 61/61/61 62/62/62 63/63/63
f 61/61/61 63/63/63 64/64/64
f 61/61/61 64/64/64 65/65/65
f 61/61/61 65/65/65 66/66/66
f 61/61/61 66/66/66 67/67/67
f 61/61/61 67/67/67 68/68/68
f 61/61/61 68/68/68 69/69/69
f 61/61/61 69/69/69 62/62/62
f 70/70/70 66/66/66 65/65/65
f 70/70/70 65/65/65 71/71/71
f 70/70/70 71/71/71 72/72/72
f 70/70/70 72/72/72 73/73/73
f 70/70/70 73/73/73 74/74/74
f 70/70/70 74/74/74 75/75/75
f 70/70/70 75/75/75 67/67/67
f 70/70/70 67/67/67 66/66/66
f 76/76/76 77/77/77 54/54/54
f 76/76/76 54/54/54 53/53/53
f 76/76/76 53/53/53 52/52/52
f 76/76/76 52/52/52 78/78/78
f 76/76/76 78/78/78 72/72/72
f 76/76/76 72/72/72 71/71/71
f 76/76/76 71/71/71 65/65/65
f 76/76/76 65/65/65 77/77/77
f 79/79/79 80/80/80 60/60/60
f 79/79/79 60/60/60 59/59/59
f 79/79/79 59/59/59 54/54/54
f 79/79/79 54/54/54 77/77/77
f 79/79/79 77/77/77 65/65/65
f 79/79/79 65/65/65 64/64/64
f 79/79/79 64/64/64 63/63/63
f 79/79/79 63/63/63 80/80/80
f 81/81/81 82/82/82 69/69/69
f 81/81/81 69/69/69 68/68/68
f 81/81/81 68/68/68 67/67/67
f 81/81/81 67/67/67 83/83/83
f 81/81/81 83/83/83 84/84/84
f 81/81/81 84/84/84 85/85/85
f 81/81/81 85/85/85 86/86/86
f 81/81/81 86/86/86 82/82/82
f 87/87/87 83/83/83 67/67/67
f 87/87/87 67/67/67 75/75/75
f 87/87/87 75/75/75 74/74/74
f 87/87/87 74/74/74 88/88/88
f 87/87/87 88/88/88 89/89/89
f 87/87/87 89/89/89 90/90/90
f 87/87/87 90/90/90 84/84/84
f 87/87/87 84/84/84 83/83/83
f 91/91/91 92/92/92 38/38/38
f 91/91/91 38/38/38 37/37/37
f 91/91/91 37/37/37 18/18/18
f 91/91/91 18/18/18 93/93/93
f 91/91/91 93/93/93 69/69/69
f 91/91/91 69/69/69 82/82/82
f 91/91/91 82/82/82 94/94/94
f 91/91/91 94/94/94 92/92/92
f 95/95/95 96/96/96 44/44/44
f 95/95/95 44/44/44 43/43/43
f 95/95/95 43/43/43 40/40/40
f 95/95/95 40/40/40 97/97/97
f 95/95/95 97/97/97 84/84/84
f 95/95/95 84/84/84 90/90/90
f 95/95/95 90/90/90 98/98/98
f 95/95/95 98/98/98 96/96/96
f 99/99/99 100/100/100 7/7/7
f 99/99/99 7/7/7 6/6/6
f 99/99/99 6/6/6 5/5/5
f 99/99/99 5/5/5 101/101/101
f 99/99/99 101/101/101 52/52/52
f 99/99/99 52/52/52 51/51/51
f 99/99/99 51/51/51 102/102/102
f 99/99/99 102/102/102 100/100/100
f 103/103/103 104/104/104 15/15/15
f 103/103/103 15/15/15 14/14/14
f 103/103/103 14/14/14 9/9/9
f 103/103/103 9/9/9 105/105/105
f 103/103/103 105/105/105 48/48/48
f 103/103/103 48/48/48 58/58/58
f 103/103/103 58/58/58 106/106/106
f 103/103/103 106/106/106 104/104/104
f 107/107/107 108/108/108 12/12/12
f 107/107/107 12/12/12 11/11/11
f 107/107/107 11/11/11 15/15/15
f 107/107/107 15/15/15 104/104/104
f 107/107/107 104/104/104 106/106/106
f 107/107/107 106/106/106 56/56/56
f 107/107/107 56/56/56 60/60/60
f 107/107/107 60/60/60 108/108/108
f 109/109/109 97/97/97 40/40/40
f 109/109/109 40/40/40 39/39/39
f 109/109/109 39/39/39 38/38/38
f 109/109/109 38/38/38 92/92/92
f 109/109/109 92/92/92 94/94/94
f 109/109/109 94/94/94 85/85/85
f 109/109/109 85/85/85 84/84/84
f 109/109/109 84/84/84 97/97/97
f 110/110/110 111/111/111 27/27/27
f 110/110/110 27/27/27 45/45/45
f 110/110/110 45/45/45 44/44/44
f 110/110/110 44/44/44 96/96/96
f 110/110/110 96/96/96 98/98/98
f 110/110/110 98/98/98 88/88/88
f 110/110/110 88/88/88 74/74/74
f 110/110/110 74/74/74 111/111/111
f 112/112/112 105/105/105 9/9/9
f 112/112/112 9/9/9 8/8/8
f 112/112/112 8/8/8 7/7/7
f 112/112/112 7/7/7 100/100/100
f 112/112/112 100/100/100 102/102/102
f 112/112/112 102/102/102 49/49/49
f 112/112/112 49/49/49 48/48/48
f 112/112/112 48/48/48 105/105/105
f 113/113/113 101/101/101 5/5/5
f 113/113/113 5/5/5 33/33/33
f 113/113/113 33/33/33 29/29/29
f 113/113/113 29/29/29 114/114/114
f 113/113/113 114/114/114 72/72/72
f 113/113/113 72/72/72 78/78/78
f 113/113/113 78/78/78 52/52/52
f 113/113/113 52/52/52 101/101/101
f 115/115/115 116/116/116 24/24/24
f 115/115/115 24/24/24 35/35/35
f 115/115/115 35/35/35 12/12/12
f 115/115/115 12/12/12 108/108/108
f 115/115/115 108/108/108 60/60/60
f 115/115/115 60/60/60 80/80/80
f 115/115/115 80/80/80 63/63/63
f 115/115/115 63/63/63 116/116/116
f 117/117/117 93/93/93 18/18/18
f 117/117/117 18/18/18 17/17/17
f 117/117/117 17/17/17 24/24/24
f 117/117/117 24/24/24 116/116/116
f 117/117/117 116/116/116 63/63/63
f 117/117/117 63/63/63 62/62/62
f 117/117/117 62/62/62 69/69/69
f 117/117/117 69/69/69 93/93/93
f 118/118/118 114/114/114 29/29/29
f 118/118/118 29/29/29 28/28/28
f 118/118/118 28/28/28 27/27/27
f 118/118/118 27/27/27 111/111/111
f 118/118/118 111/111/111 74/74/74
f 118/118/118 74/74/74 73/73/73
f 118/118/118 73/73/73 72/72/72
f 118/118/118 72/72/72 114/114/114
