v -2.418510 0.788799 -1.233739
v -2.419092 0.789681 -1.231718
v -2.416423 0.788382 -1.231081
v -2.416087 0.787472 -1.233423
v -2.415606 0.786899 -1.235241
v -2.417659 0.788169 -1.235277
v -2.419061 0.788945 -1.234840
v -2.420285 0.789680 -1.233841
v -2.421097 0.790550 -1.232145
v -2.418526 0.790716 -1.229766
v -2.417687 0.791529 -1.228309
v -2.415638 0.790717 -1.227325
v -2.416105 0.789650 -1.228908
v -2.420299 0.791338 -1.230402
v -2.419083 0.791666 -1.229197
v -2.408673 0.784302 -1.226355
v -2.408493 0.785249 -1.224760
v -2.406320 0.782877 -1.224159
v -2.406491 0.782031 -1.225567
v -2.406616 0.780985 -1.227474
v -2.408803 0.783126 -1.228515
v -2.411140 0.785115 -1.229484
v -2.410990 0.786361 -1.227232
v -2.410779 0.787376 -1.225575
v -2.408656 0.782168 -1.230780
v -2.406476 0.780144 -1.229480
v -2.406292 0.779569 -1.231016
v -2.408462 0.781510 -1.232513
v -2.410747 0.783464 -1.233685
v -2.410972 0.784129 -1.231860
v -2.413512 0.785906 -1.232769
v -2.413726 0.786863 -1.230338
v -2.413215 0.785296 -1.234652
v -2.413531 0.788171 -1.228073
v -2.413248 0.789265 -1.226422
v -2.404356 0.779587 -1.224991
v -2.404187 0.780249 -1.223954
v -2.403080 0.778588 -1.224085
v -2.402795 0.777672 -1.224628
v -2.402920 0.777090 -1.225581
v -2.404481 0.778783 -1.226404
v -2.404345 0.778179 -1.227911
v -2.402787 0.776707 -1.226629
v -2.403066 0.776852 -1.227686
v -2.404166 0.777780 -1.229074
v -2.418631 0.788602 -1.233681
v -2.419213 0.789496 -1.231629
v -2.421185 0.790410 -1.232078
v -2.420372 0.789530 -1.233799
v -2.419126 0.788832 -1.234816
v -2.417748 0.788015 -1.235249
v -2.415702 0.786751 -1.235210
v -2.416216 0.787280 -1.233364
v -2.416553 0.788201 -1.230994
v -2.418647 0.790547 -1.229648
v -2.417776 0.791412 -1.228207
v -2.419148 0.791577 -1.229125
v -2.420386 0.791211 -1.230312
v -2.416234 0.789484 -1.228796
v -2.415734 0.790600 -1.227228
v -2.408839 0.784156 -1.226262
v -2.408617 0.785145 -1.224681
v -2.410894 0.787266 -1.225491
v -2.411145 0.786207 -1.227133
v -2.411295 0.784951 -1.229405
v -2.408968 0.782970 -1.228441
v -2.406789 0.780835 -1.227403
v -2.406663 0.781891 -1.225476
v -2.406448 0.782777 -1.224082
v -2.408821 0.782003 -1.230725
v -2.411127 0.783956 -1.231802
v -2.410862 0.783331 -1.233652
v -2.408586 0.781383 -1.232481
v -2.406421 0.779446 -1.230987
v -2.406647 0.779985 -1.229427
v -2.413653 0.785723 -1.232710
v -2.413868 0.786690 -1.230255
v -2.413321 0.785154 -1.234620
v -2.413672 0.788011 -1.227968
v -2.413353 0.789152 -1.226332
v -2.404531 0.779450 -1.224901
v -2.404317 0.780152 -1.223876
v -2.404656 0.778635 -1.226333
v -2.403052 0.776979 -1.225528
v -2.402925 0.777570 -1.224559
v -2.403177 0.778515 -1.224030
v -2.404519 0.778022 -1.227862
v -2.404296 0.777658 -1.229048
v -2.403162 0.776763 -1.227663
v -2.402917 0.776589 -1.226593
v -2.404188 0.780428 -1.223571
v -2.402668 0.778154 -1.223870
v -2.406319 0.783115 -1.223654
v -2.403177 0.778515 -1.224030
v -2.402325 0.776164 -1.226185
v -2.402653 0.776414 -1.227477
v -2.402459 0.776476 -1.225283
v -2.403162 0.776763 -1.227663
v -2.417415 0.787889 -1.235781
v -2.419153 0.788926 -1.235117
v -2.415488 0.786641 -1.235836
v -2.419126 0.788832 -1.234816
v -2.420927 0.791489 -1.230574
v -2.419177 0.791871 -1.229011
v -2.421804 0.790777 -1.232257
v -2.419148 0.791577 -1.229125
v -2.417446 0.791750 -1.227775
v -2.415525 0.791022 -1.226752
v -2.402332 0.776988 -1.224476
v -2.404165 0.777591 -1.229453
v -2.406288 0.779322 -1.231518
v -2.420914 0.789906 -1.233857
v -2.413163 0.785029 -1.235268
v -2.410722 0.783183 -1.234280
v -2.413200 0.789581 -1.225829
v -2.410759 0.787667 -1.224983
v -2.408488 0.785520 -1.224191
v -2.408453 0.781233 -1.233079
vn 0.467300 0.866500 -0.175600
vn 0.460600 0.800200 -0.384100
vn 0.512900 0.774000 -0.371300
vn 0.521500 0.833000 -0.184800
vn 0.543500 0.818000 -0.187900
vn 0.468600 0.864200 -0.183300
vn 0.413100 0.892700 -0.180100
vn 0.387700 0.892000 -0.232400
vn 0.375700 0.835300 -0.401400
vn 0.468900 0.678300 -0.565700
vn 0.470000 0.682900 -0.559200
vn 0.544900 0.658000 -0.519700
vn 0.522800 0.664800 -0.533500
vn 0.389000 0.738500 -0.550700
vn 0.414800 0.697900 -0.583700
vn 0.708300 0.582400 -0.398800
vn 0.716500 0.595100 -0.363800
vn 0.738800 0.575400 -0.350900
vn 0.730600 0.556800 -0.395100
vn 0.742000 0.604900 -0.288800
vn 0.712800 0.632900 -0.302400
vn 0.650200 0.685400 -0.328000
vn 0.651700 0.622600 -0.433100
vn 0.666600 0.626100 -0.404500
vn 0.707500 0.676900 -0.202900
vn 0.729800 0.658100 -0.185000
vn 0.738100 0.635200 -0.227100
vn 0.715900 0.657600 -0.234600
vn 0.665900 0.708500 -0.233800
vn 0.650800 0.728600 -0.213400
vn 0.581000 0.787200 -0.206600
vn 0.575600 0.737400 -0.353400
vn 0.603700 0.767400 -0.215600
vn 0.582200 0.653600 -0.483600
vn 0.604700 0.648400 -0.462400
vn 0.737800 0.534200 -0.412500
vn 0.750300 0.551700 -0.364300
vn 0.758800 0.524300 -0.386300
vn 0.772000 0.483800 -0.412100
vn 0.791200 0.552100 -0.263100
vn 0.755300 0.591400 -0.282200
vn 0.736800 0.657700 -0.156400
vn 0.770800 0.626200 -0.117000
vn 0.757900 0.631100 -0.164900
vn 0.749600 0.630900 -0.200100
vn -0.484700 -0.862800 0.143600
vn -0.475200 -0.793200 0.380700
vn -0.530200 -0.764500 0.366600
vn -0.529900 -0.846800 0.046300
vn -0.529600 -0.844800 -0.075600
vn -0.526800 -0.848500 -0.049200
vn -0.541800 -0.840300 0.019600
vn -0.521200 -0.836400 0.169700
vn -0.512800 -0.774000 0.371300
vn -0.486400 -0.651000 0.582700
vn -0.529800 -0.491500 0.691200
vn -0.532700 -0.468600 0.704700
vn -0.532100 -0.565200 0.630400
vn -0.522700 -0.655200 0.545500
vn -0.544300 -0.540200 0.641800
vn -0.706100 -0.575000 0.413100
vn -0.685100 -0.520300 0.509700
vn -0.644500 -0.546300 0.534900
vn -0.650200 -0.615000 0.446000
vn -0.650300 -0.685200 0.327900
vn -0.712900 -0.632700 0.302300
vn -0.742100 -0.604900 0.288700
vn -0.726600 -0.549500 0.412400
vn -0.682400 -0.504400 0.529000
vn -0.705300 -0.683500 0.188300
vn -0.649300 -0.733900 0.199400
vn -0.642700 -0.760800 0.090300
vn -0.683400 -0.725100 0.085400
vn -0.680500 -0.730200 0.061000
vn -0.725600 -0.667100 0.168600
vn -0.579800 -0.791600 0.192800
vn -0.575500 -0.737400 0.353400
vn -0.585900 -0.807400 0.068900
vn -0.581000 -0.645500 0.495700
vn -0.587900 -0.558500 0.585100
vn -0.721500 -0.534100 0.440700
vn -0.646000 -0.493800 0.582000
vn -0.747300 -0.599700 0.286200
vn -0.710700 -0.634800 0.303300
vn -0.660400 -0.539100 0.522600
vn -0.618500 -0.490200 0.614000
vn -0.720400 -0.679500 0.138900
vn -0.643700 -0.765000 0.019900
vn -0.616000 -0.787700 -0.002600
vn -0.658700 -0.746700 0.092300
vn 0.395200 0.270300 0.877900
vn 0.640800 -0.042300 0.766500
vn 0.272100 0.364700 0.890500
vn -0.618500 -0.490200 0.614000
vn 0.676900 -0.730200 0.092700
vn 0.646100 -0.624300 -0.439000
vn 0.572500 -0.737500 0.358100
vn -0.616000 -0.787700 -0.002600
vn -0.110000 0.010400 -0.993900
vn -0.374900 0.176000 -0.910200
vn 0.043700 -0.134100 -0.990000
vn -0.529600 -0.844800 -0.075600
vn -0.731100 0.640900 0.234100
vn -0.380000 0.820600 0.426800
vn -0.917400 0.356700 -0.176500
vn -0.532700 -0.468600 0.704700
vn -0.116400 0.783900 0.609900
vn 0.036900 0.691300 0.721600
vn 0.675200 -0.524900 0.518200
vn 0.401800 -0.517300 -0.755600
vn 0.278600 -0.468500 -0.838300
vn -0.727300 0.213500 -0.652300
vn 0.129600 -0.250600 -0.959300
vn 0.165700 -0.324600 -0.931200
vn 0.122400 0.595300 0.794100
vn 0.158500 0.527100 0.834900
vn 0.192900 0.455400 0.869100
vn 0.199700 -0.395600 -0.896400
vt 0.839504 0.118056
vt 0.856743 0.205307
vt 0.741230 0.205307
vt 0.734555 0.106726
vt 0.724541 0.032791
vt 0.813647 0.052618
vt 0.868992 0.081539
vt 0.913398 0.129584
vt 0.940923 0.205307
vt 0.839504 0.292557
vt 0.813647 0.357995
vt 0.724541 0.377822
vt 0.734555 0.303887
vt 0.913398 0.281029
vt 0.868992 0.329074
vt 0.369475 0.299954
vt 0.368286 0.370940
vt 0.245840 0.351447
vt 0.246397 0.288815
vt 0.246768 0.205307
vt 0.370268 0.205307
vt 0.494283 0.205307
vt 0.492822 0.304944
vt 0.490632 0.379672
vt 0.369475 0.110659
vt 0.246397 0.121798
vt 0.245841 0.059166
vt 0.368286 0.039673
vt 0.490632 0.030941
vt 0.492822 0.105669
vt 0.616755 0.103478
vt 0.619174 0.205307
vt 0.613127 0.027106
vt 0.616755 0.307135
vt 0.613126 0.383507
vt 0.123273 0.268175
vt 0.123047 0.315326
vt 0.054743 0.283353
vt 0.030912 0.249131
vt 0.030973 0.205306
vt 0.123423 0.205306
vt 0.123273 0.142438
vt 0.030912 0.161481
vt 0.054744 0.127260
vt 0.123047 0.095287
vt 0.839504 0.118056
vt 0.856743 0.205307
vt 0.968983 0.205307
vt 0.938030 0.133427
vt 0.876123 0.061548
vt 0.805028 0.030806
vt 0.721203 0.008146
vt 0.734555 0.106726
vt 0.741230 0.205307
vt 0.839504 0.292557
vt 0.805028 0.379807
vt 0.876123 0.349065
vt 0.938030 0.277186
vt 0.734555 0.303887
vt 0.721203 0.402467
vt 0.369475 0.299954
vt 0.367890 0.394602
vt 0.489902 0.404581
vt 0.492822 0.304944
vt 0.494283 0.205307
vt 0.370268 0.205307
vt 0.246768 0.205307
vt 0.246397 0.288815
vt 0.245655 0.372324
vt 0.369475 0.110659
vt 0.492822 0.105669
vt 0.489902 0.006032
vt 0.367890 0.016011
vt 0.245655 0.038289
vt 0.246397 0.121798
vt 0.616755 0.103478
vt 0.619174 0.205307
vt 0.611917 0.001649
vt 0.616755 0.307135
vt 0.611917 0.408964
vt 0.123273 0.268175
vt 0.122972 0.331043
vt 0.123423 0.205306
vt 0.000156 0.205306
vt 0.000125 0.242784
vt 0.000064 0.280261
vt 0.123273 0.142438
vt 0.122972 0.079570
vt 0.000064 0.130352
vt 0.000125 0.167829
vt 0.122972 0.331043
vt 0.030806 0.283587
vt 0.245655 0.372324
vt 0.030806 0.283587
vt 0.000125 0.167829
vt 0.030806 0.127026
vt 0.000156 0.205306
vt 0.030806 0.127026
vt 0.805028 0.030806
vt 0.873826 0.071832
vt 0.721203 0.008146
vt 0.873826 0.071832
vt 0.938030 0.277186
vt 0.873826 0.338781
vt 0.968983 0.205307
vt 0.873826 0.338781
vt 0.805028 0.379807
vt 0.721203 0.402467
vt 0.000125 0.242784
vt 0.122972 0.079570
vt 0.245655 0.038289
vt 0.938030 0.133427
vt 0.611917 0.001649
vt 0.489902 0.006032
vt 0.611917 0.408964
vt 0.489902 0.404581
vt 0.367890 0.394602
vt 0.367890 0.016011
f 1/1/1 2/2/2 3/3/3
f 1/1/1 3/3/3 4/4/4
f 1/1/1 4/4/4 5/5/5
f 1/1/1 5/5/5 6/6/6
f 1/1/1 6/6/6 7/7/7
f 1/1/1 7/7/7 8/8/8
f 1/1/1 8/8/8 9/9/9
f 1/1/1 9/9/9 2/2/2
f 10/10/10 11/11/11 12/12/12
f 10/10/10 12/12/12 13/13/13
f 10/10/10 13/13/13 3/3/3
f 10/10/10 3/3/3 2/2/2
f 10/10/10 2/2/2 9/9/9
f 10/10/10 9/9/9 14/14/14
f 10/10/10 14/14/14 15/15/15
f 10/10/10 15/15/15 11/11/11
f 16/16/16 17/17/17 18/18/18
f 16/16/16 18/18/18 19/19/19
f 16/16/16 19/19/19 20/20/20
f 16/16/16 20/20/20 21/21/21
f 16/16/16 21/21/21 22/22/22
f 16/16/16 22/22/22 23/23/23
f 16/16/16 23/23/23 24/24/24
f 16/16/16 24/24/24 17/17/17
f 25/25/25 21/21/21 20/20/20
f 25/25/25 20/20/20 26/26/26
f 25/25/25 26/26/26 27/27/27
f 25/25/25 27/27/27 28/28/28
f 25/25/25 28/28/28 29/29/29
f 25/25/25 29/29/29 30/30/30
f 25/25/25 30/30/30 22/22/22
f 25/25/25 22/22/22 21/21/21
f 31/31/31 32/32/32 22/22/22
f 31/31/31 22/22/22 30/30/30
f 31/31/31 30/30/30 29/29/29
f 31/31/31 29/29/29 33/33/33
f 31/31/31 33/33/33 5/5/5
f 31/31/31 5/5/5 4/4/4
f 31/31/31 4/4/4 3/3/3
f 31/31/31 3/3/3 32/32/32
f 34/34/34 35/35/35 24/24/24
f 34/34/34 24/24/24 23/23/23
f 34/34/34 23/23/23 22/22/22
f 34/34/34 22/22/22 32/32/32
f 34/34/34 32/32/32 3/3/3
f 34/34/34 3/3/3 13/13/13
f 34/34/34 13/13/13 12/12/12
f 34/34/34 12/12/12 35/35/35
f 36/36/36 37/37/37 38/38/38
f 36/36/36 38/38/38 39/39/39
f 36/36/36 39/39/39 40/40/40
f 36/36/36 40/40/40 41/41/41
f 36/36/36 41/41/41 20/20/20
f 36/36/36 20/20/20 19/19/19
f 36/36/36 19/19/19 18/18/18
f 36/36/36 18/18/18 37/37/37
f 42/42/42 41/41/41 40/40/40
f 42/42/42 40/40/40 43/43/43
f 42/42/42 43/43/43 44/44/44
f 42/42/42 44/44/44 45/45/45
f 42/42/42 45/45/45 27/27/27
f 42/42/42 27/27/27 26/26/26
f 42/42/42 26/26/26 20/20/20
f 42/42/42 20/20/20 41/41/41
f 46/46/46 47/47/47 48/48/48
f 46/46/46 48/48/48 49/49/49
f 46/46/46 49/49/49 50/50/50
f 46/46/46 50/50/50 51/51/51
f 46/46/46 51/51/51 52/52/52
f 46/46/46 52/52/52 53/53/53
f 46/46/46 53/53/53 54/54/54
f 46/46/46 54/54/54 47/47/47
f 55/55/55 56/56/56 57/57/57
f 55/55/55 57/57/57 58/58/58
f 55/55/55 58/58/58 48/48/48
f 55/55/55 48/48/48 47/47/47
f 55/55/55 47/47/47 54/54/54
f 55/55/55 54/54/54 59/59/59
f 55/55/55 59/59/59 60/60/60
f 55/55/55 60/60/60 56/56/56
f 61/61/61 62/62/62 63/63/63
f 61/61/61 63/63/63 64/64/64
f 61/61/61 64/64/64 65/65/65
f 61/61/61 65/65/65 66/66/66
f 61/61/61 66/66/66 67/67/67
f 61/61/61 67/67/67 68/68/68
f 61/61/61 68/68/68 69/69/69
f 61/61/61 69/69/69 62/62/62
f 70/70/70 66/66/66 65/65/65
f 70/70/70 65/65/65 71/71/71
f 70/70/70 71/71/71 72/72/72
f 70/70/70 72/72/72 73/73/73
f 70/70/70 73/73/73 74/74/74
f 70/70/70 74/74/74 75/75/75
f 70/70/70 75/75/75 67/67/67
f 70/70/70 67/67/67 66/66/66
f 76/76/76 77/77/77 54/54/54
f 76/76/76 54/54/54 53/53/53
f 76/76/76 53/53/53 52/52/52
f 76/76/76 52/52/52 78/78/78
f 76/76/76 78/78/78 72/72/72
f 76/76/76 72/72/72 71/71/71
f 76/76/76 71/71/71 65/65/65
f 76/76/76 65/65/65 77/77/77
f 79/79/79 80/80/80 60/60/60
f 79/79/79 60/60/60 59/59/59
f 79/79/79 59/59/59 54/54/54
f 79/79/79 54/54/54 77/77/77
f 79/79/79 77/77/77 65/65/65
f 79/79/79 65/65/65 64/64/64
f 79/79/79 64/64/64 63/63/63
f 79/79/79 63/63/63 80/80/80
f 81/81/81 82/82/82 69/69/69
f 81/81/81 69/69/69 68/68/68
f 81/81/81 68/68/68 67/67/67
f 81/81/81 67/67/67 83/83/83
f 81/81/81 83/83/83 84/84/84
f 81/81/81 84/84/84 85/85/85
f 81/81/81 85/85/85 86/86/86
f 81/81/81 86/86/86 82/82/82
f 87/87/87 83/83/83 67/67/67
f 87/87/87 67/67/67 75/75/75
f 87/87/87 75/75/75 74/74/74
f 87/87/87 74/74/74 88/88/88
f 87/87/87 88/88/88 89/89/89
f 87/87/87 89/89/89 90/90/90
f 87/87/87 90/90/90 84/84/84
f 87/87/87 84/84/84 83/83/83
f 91/91/91 92/92/92 38/38/38
f 91/91/91 38/38/38 37/37/37
f 91/91/91 37/37/37 18/18/18
f 91/91/91 18/18/18 93/93/93
f 91/91/91 93/93/93 69/69/69
f 91/91/91 69/69/69 82/82/82
f 91/91/91 82/82/82 94/94/94
f 91/91/91 94/94/94 92/92/92
f 95/95/95 96/96/96 44/44/44
f 95/95/95 44/44/44 43/43/43
f 95/95/95 43/43/43 40/40/40
f 95/95/95 40/40/40 97/97/97
f 95/95/95 97/97/97 84/84/84
f 95/95/95 84/84/84 90/90/90
f 95/95/95 90/90/90 98/98/98
f 95/95/95 98/98/98 96/96/96
f 99/99/99 100/100/100 7/7/7
f 99/99/99 7/7/7 6/6/6
f 99/99/99 6/6/6 5/5/5
f 99/99/99 5/5/5 101/101/101
f 99/99/99 101/101/101 52/52/52
f 99/99/99 52/52/52 51/51/51
f 99/99/99 51/51/51 102/102/102
f 99/99/99 102/102/102 100/100/100
f 103/103/103 104/104/104 15/15/15
f 103/103/103 15/15/15 14/14/14
f 103/103/103 14/14/14 9/9/9
f 103/103/103 9/9/9 105/105/105
f 103/103/103 105/105/105 48/48/48
f 103/103/103 48/48/48 58/58/58
f 103/103/103 58/58/58 106/106/106
f 103/103/103 106/106/106 104/104/104
f 107/107/107 108/108/108 12/12/12
f 107/107/107 12/12/12 11/11/11
f 107/107/107 11/11/11 15/15/15
f 107/107/107 15/15/15 104/104/104
f 107/107/107 104/104/104 106/106/106
f 107/107/107 106/106/106 56/56/56
f 107/107/107 56/56/56 60/60/60
f 107/107/107 60/60/60 108/108/108
f 109/109/109 97/97/97 40/40/40
f 109/109/109 40/40/40 39/39/39
f 109/109/109 39/39/39 38/38/38
f 109/109/109 38/38/38 92/92/92
f 109/109/109 92/92/92 94/94/94
f 109/109/109 94/94/94 85/85/85
f 109/109/109 85/85/85 84/84/84
f 109/109/109 84/84/84 97/97/97
f 110/110/110 111/111/111 27/27/27
f 110/110/110 27/27/27 45/45/45
f 110/110/110 45/45/45 44/44/44
f 110/110/110 44/44/44 96/96/96
f 110/110/110 96/96/96 98/98/98
f 110/110/110 98/98/98 88/88/88
f 110/110/110 88/88/88 74/74/74
f 110/110/110 74/74/74 111/111/111
f 112/112/112 105/105/105 9/9/9
f 112/112/112 9/9/9 8/8/8
f 112/112/112 8/8/8 7/7/7
f 112/112/112 7/7/7 100/100/100
f 112/112/112 100/100/100 102/102/102
f 112/112/112 102/102/102 49/49/49
f 112/112/112 49/49/49 48/48/48
f 112/112/112 48/48/48 105/105/105
f 113/113/113 101/101/101 5/5/5
f 113/113/113 5/5/5 33/33/33
f 113/113/113 33/33/33 29/29/29
f 113/113/113 29/29/29 114/114/114
f 113/113/113 114/114/114 72/72/72
f 113/113/113 72/72/72 78/78/78
f 113/113/113 78/78/78 52/52/52
f 113/113/113 52/52/52 101/101/101
f 115/115/115 116/116/116 24/24/24
f 115/115/115 24/24/24 35/35/35
f 115/115/115 35/35/35 12/12/12
f 115/115/115 12/12/12 108/108/108
f 115/115/115 108/108/108 60/60/60
f 115/115/115 60/60/60 80/80/80
f 115/115/115 80/80/80 63/63/63
f 115/115/115 63/63/63 116/116/116
f 117/117/117 93/93/93 18/18/18
f 117/117/117 18/18/18 17/17/17
f 117/117/117 17/17/17 24/24/24
f 117/117/117 24/24/24 116/116/116
f 117/117/117 116/116/116 63/63/63
f 117/117/117 63/63/63 62/62/62
f 117/117/117 62/62/62 69/69/69
f 117/117/117 69/69/69 93/93/93
f 118/118/118 114/114/114 29/29/29
f 118/118/118 29/29/29 28/28/28
f 118/118/118 28/28/28 27/27/27
f 118/118/118 27/27/27 111/111/111
f 118/118/118 111/111/111 74/74/74
f 118/118/118 74/74/74 73/73/73
f 118/118/118 73/73/73 72/72/72
f 118/118/118 72/72/72 114/114/114
