v -2.448425 0.769040 -1.117494
v -2.450995 0.768808 -1.117001
v -2.449629 0.766493 -1.114764
v -2.446875 0.766958 -1.115618
v -2.444684 0.767386 -1.115997
v -2.446277 0.769148 -1.117442
v -2.447752 0.769987 -1.118325
v -2.449639 0.770401 -1.118871
v -2.452022 0.770415 -1.118717
v -2.452979 0.768459 -1.115314
v -2.454263 0.768129 -1.113620
v -2.453756 0.766228 -1.111655
v -2.452050 0.766297 -1.113141
v -2.453580 0.769898 -1.116984
v -2.454219 0.769162 -1.115229
v -2.448191 0.757745 -1.107495
v -2.450003 0.757631 -1.106348
v -2.448376 0.754453 -1.105133
v -2.446780 0.754549 -1.106162
v -2.444605 0.754743 -1.107401
v -2.445726 0.757970 -1.108882
v -2.446923 0.761050 -1.110563
v -2.449495 0.760831 -1.109092
v -2.451378 0.760735 -1.107862
v -2.443120 0.758392 -1.109922
v -2.442295 0.755121 -1.108308
v -2.440517 0.755456 -1.108895
v -2.441117 0.758765 -1.110601
v -2.442084 0.761921 -1.112311
v -2.444190 0.761508 -1.111631
v -2.445452 0.764405 -1.113597
v -2.448248 0.763899 -1.112571
v -2.443279 0.764885 -1.114198
v -2.450835 0.763718 -1.111021
v -2.452712 0.763682 -1.109683
v -2.445117 0.751329 -1.105028
v -2.446290 0.751284 -1.104208
v -2.444853 0.749502 -1.103947
v -2.443791 0.748888 -1.104278
v -2.442711 0.748945 -1.104989
v -2.443511 0.751453 -1.105991
v -2.441771 0.751756 -1.106630
v -2.441498 0.749180 -1.105376
v -2.440726 0.750029 -1.105922
v -2.440421 0.752033 -1.107017
v -2.448452 0.768850 -1.117690
v -2.451057 0.768611 -1.117183
v -2.452066 0.770265 -1.118851
v -2.449656 0.770257 -1.119016
v -2.447758 0.769883 -1.118436
v -2.446280 0.769010 -1.117596
v -2.444695 0.767252 -1.116154
v -2.446910 0.766775 -1.115820
v -2.449695 0.766304 -1.114953
v -2.453074 0.768260 -1.115478
v -2.454351 0.767980 -1.113733
v -2.454280 0.769050 -1.115314
v -2.453652 0.769747 -1.117103
v -2.452146 0.766106 -1.113314
v -2.453843 0.766085 -1.111776
v -2.448297 0.757594 -1.107700
v -2.450093 0.757517 -1.106496
v -2.451466 0.760611 -1.108003
v -2.449597 0.760667 -1.109289
v -2.447003 0.760888 -1.110771
v -2.445810 0.757821 -1.109098
v -2.444693 0.754604 -1.107622
v -2.446889 0.754407 -1.106372
v -2.448469 0.754346 -1.105284
v -2.443182 0.758247 -1.110148
v -2.444246 0.761350 -1.111850
v -2.442113 0.761804 -1.112480
v -2.441153 0.758658 -1.110775
v -2.440555 0.755356 -1.109072
v -2.442361 0.754985 -1.108539
v -2.445498 0.764233 -1.113807
v -2.448320 0.763723 -1.112769
v -2.443300 0.764760 -1.114361
v -2.450933 0.763540 -1.111205
v -2.452799 0.763548 -1.109814
v -2.445230 0.751190 -1.105239
v -2.446385 0.751180 -1.104359
v -2.443600 0.751317 -1.106214
v -2.442778 0.748844 -1.105157
v -2.443877 0.748784 -1.104436
v -2.444921 0.749425 -1.104061
v -2.441836 0.751623 -1.106863
v -2.440458 0.751936 -1.107197
v -2.440757 0.749956 -1.106054
v -2.441546 0.749082 -1.105551
v -2.446726 0.751223 -1.104000
v -2.444645 0.748853 -1.103677
v -2.448952 0.754374 -1.104856
v -2.444921 0.749425 -1.104061
v -2.441428 0.748278 -1.105036
v -2.440511 0.749380 -1.105656
v -2.442474 0.748064 -1.104729
v -2.440757 0.749956 -1.106054
v -2.445558 0.769123 -1.117495
v -2.447535 0.770160 -1.118514
v -2.443955 0.767470 -1.116194
v -2.447758 0.769883 -1.118436
v -2.453813 0.770310 -1.117593
v -2.454532 0.769268 -1.115165
v -2.452384 0.770883 -1.119348
v -2.454280 0.769050 -1.115314
v -2.454734 0.767952 -1.113103
v -2.454366 0.766141 -1.111211
v -2.443387 0.748028 -1.104098
v -2.439985 0.752083 -1.107227
v -2.439939 0.755524 -1.109170
v -2.450050 0.770790 -1.119394
v -2.442561 0.764990 -1.114472
v -2.441392 0.762007 -1.112614
v -2.453379 0.763610 -1.109294
v -2.452048 0.760647 -1.107513
v -2.450649 0.757542 -1.106031
v -2.440463 0.758842 -1.110906
vn 0.013000 0.696400 0.717600
vn 0.203700 0.752600 0.626100
vn 0.226900 0.712500 0.664000
vn 0.057600 0.661300 0.747900
vn 0.075700 0.645600 0.759800
vn 0.020600 0.698200 0.715500
vn -0.017900 0.732600 0.680400
vn 0.013100 0.765200 0.643600
vn 0.165900 0.809900 0.562500
vn 0.401000 0.745800 0.531800
vn 0.394400 0.746000 0.536600
vn 0.405900 0.687800 0.601800
vn 0.404500 0.705600 0.581800
vn 0.330000 0.805600 0.492000
vn 0.383800 0.783700 0.488300
vn 0.411000 0.525000 0.745200
vn 0.381500 0.515400 0.767300
vn 0.388800 0.487300 0.781900
vn 0.428000 0.497000 0.754800
vn 0.328700 0.478200 0.814400
vn 0.315700 0.514900 0.796900
vn 0.287900 0.585700 0.757700
vn 0.397700 0.588900 0.703500
vn 0.380000 0.573400 0.725800
vn 0.216200 0.500200 0.838500
vn 0.219000 0.470300 0.854900
vn 0.265600 0.471600 0.840800
vn 0.253100 0.498900 0.828900
vn 0.210100 0.551700 0.807100
vn 0.179100 0.561100 0.808100
vn 0.119700 0.621500 0.774200
vn 0.254700 0.658800 0.707800
vn 0.144700 0.604800 0.783100
vn 0.395200 0.656700 0.642300
vn 0.390300 0.636200 0.665500
vn 0.454100 0.485900 0.746800
vn 0.414000 0.472200 0.778200
vn 0.446200 0.459300 0.768100
vn 0.488700 0.436500 0.755400
vn 0.350600 0.410100 0.841900
vn 0.334700 0.460600 0.822000
vn 0.199300 0.453400 0.868700
vn 0.195100 0.399100 0.895900
vn 0.226000 0.431200 0.873500
vn 0.250600 0.451300 0.856400
vn 0.003600 -0.672600 -0.740000
vn -0.210100 -0.741900 -0.636700
vn -0.234600 -0.698300 -0.676300
vn 0.055500 -0.598300 -0.799300
vn 0.153000 -0.532900 -0.832200
vn 0.134400 -0.550400 -0.824000
vn 0.069200 -0.576200 -0.814400
vn -0.044000 -0.656300 -0.753200
vn -0.226800 -0.712600 -0.663900
vn -0.433100 -0.728400 -0.530800
vn -0.602000 -0.644400 -0.471500
vn -0.623200 -0.632000 -0.460600
vn -0.525500 -0.672400 -0.521200
vn -0.417800 -0.703900 -0.574300
vn -0.549800 -0.655200 -0.518100
vn -0.424500 -0.527000 -0.736300
vn -0.514200 -0.537500 -0.668300
vn -0.506100 -0.581300 -0.637100
vn -0.410400 -0.589800 -0.695500
vn -0.287900 -0.585600 -0.757700
vn -0.315800 -0.514800 -0.797000
vn -0.328800 -0.478100 -0.814400
vn -0.443000 -0.501000 -0.743500
vn -0.534700 -0.535200 -0.654000
vn -0.200700 -0.498400 -0.843300
vn -0.165000 -0.558500 -0.812900
vn -0.063800 -0.524900 -0.848800
vn -0.092000 -0.483700 -0.870400
vn -0.069200 -0.475800 -0.876800
vn -0.200400 -0.470000 -0.859600
vn -0.106200 -0.618200 -0.778800
vn -0.254700 -0.658800 -0.707800
vn -0.003000 -0.564900 -0.825200
vn -0.407600 -0.656700 -0.634500
vn -0.516600 -0.630500 -0.579300
vn -0.469500 -0.504200 -0.724800
vn -0.565200 -0.562500 -0.603400
vn -0.331100 -0.471400 -0.817400
vn -0.314800 -0.517500 -0.795600
vn -0.506100 -0.565300 -0.651300
vn -0.580100 -0.582700 -0.569100
vn -0.169300 -0.465900 -0.868500
vn -0.006100 -0.491200 -0.871000
vn 0.033400 -0.504300 -0.862800
vn -0.078100 -0.510700 -0.856200
vn -0.635200 -0.328500 0.698900
vn -0.313800 -0.582900 0.749500
vn -0.737500 -0.229000 0.635300
vn -0.580100 -0.582700 -0.569100
vn 0.512400 -0.802400 0.305900
vn 0.886000 -0.429400 0.175100
vn 0.254800 -0.923600 0.286400
vn 0.033400 -0.504300 -0.862800
vn 0.746900 0.554200 -0.367300
vn 0.497100 0.706500 -0.503700
vn 0.869000 0.398300 -0.293400
vn 0.153000 -0.532900 -0.832200
vn -0.764800 0.570500 -0.299100
vn -0.833100 0.536900 0.132900
vn -0.407600 0.594800 -0.692800
vn -0.623200 -0.632000 -0.460600
vn -0.848500 0.350400 0.396500
vn -0.833700 0.181000 0.521700
vn 0.089000 -0.856500 0.508400
vn 0.989500 -0.120900 -0.078900
vn 0.982100 -0.009600 -0.188000
vn 0.116500 0.682900 -0.721100
vn 0.928100 0.267300 -0.259300
vn 0.950500 0.183000 -0.251100
vn -0.816400 0.044400 0.575700
vn -0.806600 -0.040900 0.589600
vn -0.791100 -0.125000 0.598700
vn 0.965400 0.098300 -0.241600
vt 0.839504 0.118056
vt 0.856743 0.205307
vt 0.741230 0.205307
vt 0.734555 0.106726
vt 0.724541 0.032791
vt 0.813647 0.052618
vt 0.868992 0.081539
vt 0.913398 0.129584
vt 0.940923 0.205307
vt 0.839504 0.292557
vt 0.813647 0.357995
vt 0.724541 0.377822
vt 0.734555 0.303887
vt 0.913398 0.281029
vt 0.868992 0.329074
vt 0.369475 0.299954
vt 0.368286 0.370940
vt 0.245840 0.351447
vt 0.246397 0.288815
vt 0.246768 0.205307
vt 0.370268 0.205307
vt 0.494283 0.205307
vt 0.492822 0.304944
vt 0.490632 0.379672
vt 0.369475 0.110659
vt 0.246397 0.121798
vt 0.245841 0.059166
vt 0.368286 0.039673
vt 0.490632 0.030941
vt 0.492822 0.105669
vt 0.616755 0.103478
vt 0.619174 0.205307
vt 0.613127 0.027106
vt 0.616755 0.307135
vt 0.613126 0.383507
vt 0.123273 0.268175
vt 0.123047 0.315326
vt 0.054743 0.283353
vt 0.030912 0.249131
vt 0.030973 0.205306
vt 0.123423 0.205306
vt 0.123273 0.142438
vt 0.030912 0.161481
vt 0.054744 0.127260
vt 0.123047 0.095287
vt 0.839504 0.118056
vt 0.856743 0.205307
vt 0.968983 0.205307
vt 0.938030 0.133427
vt 0.876123 0.061548
vt 0.805028 0.030806
vt 0.721203 0.008146
vt 0.734555 0.106726
vt 0.741230 0.205307
vt 0.839504 0.292557
vt 0.805028 0.379807
vt 0.876123 0.349065
vt 0.938030 0.277186
vt 0.734555 0.303887
vt 0.721203 0.402467
vt 0.369475 0.299954
vt 0.367890 0.394602
vt 0.489902 0.404581
vt 0.492822 0.304944
vt 0.494283 0.205307
vt 0.370268 0.205307
vt 0.246768 0.205307
vt 0.246397 0.288815
vt 0.245655 0.372324
vt 0.369475 0.110659
vt 0.492822 0.105669
vt 0.489902 0.006032
vt 0.367890 0.016011
vt 0.245655 0.038289
vt 0.246397 0.121798
vt 0.616755 0.103478
vt 0.619174 0.205307
vt 0.611917 0.001649
vt 0.616755 0.307135
vt 0.611917 0.408964
vt 0.123273 0.268175
vt 0.122972 0.331043
vt 0.123423 0.205306
vt 0.000156 0.205306
vt 0.000125 0.242784
vt 0.000064 0.280261
vt 0.123273 0.142438
vt 0.122972 0.079570
vt 0.000064 0.130352
vt 0.000125 0.167829
vt 0.122972 0.331043
vt 0.030806 0.283587
vt 0.245655 0.372324
vt 0.030806 0.283587
vt 0.000125 0.167829
vt 0.030806 0.127026
vt 0.000156 0.205306
vt 0.030806 0.127026
vt 0.805028 0.030806
vt 0.873826 0.071832
vt 0.721203 0.008146
vt 0.873826 0.071832
vt 0.938030 0.277186
vt 0.873826 0.338781
vt 0.968983 0.205307
vt 0.873826 0.338781
vt 0.805028 0.379807
vt 0.721203 0.402467
vt 0.000125 0.242784
vt 0.122972 0.079570
vt 0.245655 0.038289
vt 0.938030 0.133427
vt 0.611917 0.001649
vt 0.489902 0.006032
vt 0.611917 0.408964
vt 0.489902 0.404581
vt 0.367890 0.394602
vt 0.367890 0.016011
f 1/1/1 2/2/2 3/3/3
f 1/1/1 3/3/3 4/4/4
f 1/1/1 4/4/4 5/5/5
f 1/1/1 5/5/5 6/6/6
f 1/1/1 6/6/6 7/7/7
f 1/1/1 7/7/7 8/8/8
f 1/1/1 8/8/8 9/9/9
f 1/1/1 9/9/9 2/2/2
f 10/10/10 11/11/11 12/12/12
f 10/10/10 12/12/12 13/13/13
f 10/10/10 13/13/13 3/3/3
f 10/10/10 3/3/3 2/2/2
f 10/10/10 2/2/2 9/9/9
f 10/10/10 9/9/9 14/14/14
f 10/10/10 14/14/14 15/15/15
f 10/10/10 15/15/15 11/11/11
f 16/16/16 17/17/17 18/18/18
f 16/16/16 18/18/18 19/19/19
f 16/16/16 19/19/19 20/20/20
f 16/16/16 20/20/20 21/21/21
f 16/16/16 21/21/21 22/22/22
f 16/16/16 22/22/22 23/23/23
f 16/16/16 23/23/23 24/24/24
f 16/16/16 24/24/24 17/17/17
f 25/25/25 21/21/21 20/20/20
f 25/25/25 20/20/20 26/26/26
f 25/25/25 26/26/26 27/27/27
f 25/25/25 27/27/27 28/28/28
f 25/25/25 28/28/28 29/29/29
f 25/25/25 29/29/29 30/30/30
f 25/25/25 30/30/30 22/22/22
f 25/25/25 22/22/22 21/21/21
f 31/31/31 32/32/32 22/22/22
f 31/31/31 22/22/22 30/30/30
f 31/31/31 30/30/30 29/29/29
f 31/31/31 29/29/29 33/33/33
f 31/31/31 33/33/33 5/5/5
f 31/31/31 5/5/5 4/4/4
f 31/31/31 4/4/4 3/3/3
f 31/31/31 3/3/3 32/32/32
f 34/34/34 35/35/35 24/24/24
f 34/34/34 24/24/24 23/23/23
f 34/34/34 23/23/23 22/22/22
f 34/34/34 22/22/22 32/32/32
f 34/34/34 32/32/32 3/3/3
f 34/34/34 3/3/3 13/13/13
f 34/34/34 13/13/13 12/12/12
f 34/34/34 12/12/12 35/35/35
f 36/36/36 37/37/37 38/38/38
f 36/36/36 38/38/38 39/39/39
f 36/36/36 39/39/39 40/40/40
f 36/36/36 40/40/40 41/41/41
f 36/36/36 41/41/41 20/20/20
f 36/36/36 20/20/20 19/19/19
f 36/36/36 19/19/19 18/18/18
f 36/36/36 18/18/18 37/37/37
f 42/42/42 41/41/41 40/40/40
f 42/42/42 40/40/40 43/43/43
f 42/42/42 43/43/43 44/44/44
f 42/42/42 44/44/44 45/45/45
f 42/42/42 45/45/45 27/27/27
f 42/42/42 27/27/27 26/26/26
f 42/42/42 26/26/26 20/20/20
f 42/42/42 20/20/20 41/41/41
f 46/46/46 47/47/47 48/48/48
f 46/46/46 48/48/48 49/49/49
f 46/46/46 49/49/49 50/50/50
f 46/46/46 50/50/50 51/51/51
f 46/46/46 51/51/51 52/52/52
f 46/46/46 52/52/52 53/53/53
f 46/46/46 53/53/53 54/54/54
f 46/46/46 54/54/54 47/47/47
f 55/55/55 56/56/56 57/57/57
f 55/55/55 57/57/57 58/58/58
f 55/55/55 58/58/58 48/48/48
f 55/55/55 48/48/48 47/47/47
f 55/55/55 47/47/47 54/54/54
f 55/55/55 54/54/54 59/59/59
f 55/55/55 59/59/59 60/60/60
f 55/55/55 60/60/60 56/56/56
f 61/61/61 62/62/62 63/63/63
f 61/61/61 63/63/63 64/64/64
f 61/61/61 64/64/64 65/65/65
f 61/61/61 65/65/65 66/66/66
f 61/61/61 66/66/66 67/67/67
f 61/61/61 67/67/67 68/68/68
f 61/61/61 68/68/68 69/69/69
f 61/61/61 69/69/69 62/62/62
f 70/70/70 66/66/66 65/65/65
f 70/70/70 65/65/65 71/71/71
f 70/70/70 71/71/71 72/72/72
f 70/70/70 72/72/72 73/73/73
f 70/70/70 73/73/73 74/74/74
f 70/70/70 74/74/74 75/75/75
f 70/70/70 75/75/75 67/67/67
f 70/70/70 67/67/67 66/66/66
f 76/76/76 77/77/77 54/54/54
f 76/76/76 54/54/54 53/53/53
f 76/76/76 53/53/53 52/52/52
f 76/76/76 52/52/52 78/78/78
f 76/76/76 78/78/78 72/72/72
f 76/76/76 72/72/72 71/71/71
f 76/76/76 71/71/71 65/65/65
f 76/76/76 65/65/65 77/77/77
f 79/79/79 80/80/80 60/60/60
f 79/79/79 60/60/60 59/59/59
f 79/79/79 59/59/59 54/54/54
f 79/79/79 54/54/54 77/77/77
f 79/79/79 77/77/77 65/65/65
f 79/79/79 65/65/65 64/64/64
f 79/79/79 64/64/64 63/63/63
f 79/79/79 63/63/63 80/80/80
f 81/81/81 82/82/82 69/69/69
f 81/81/81 69/69/69 68/68/68
f 81/81/81 68/68/68 67/67/67
f 81/81/81 67/67/67 83/83/83
f 81/81/81 83/83/83 84/84/84
f 81/81/81 84/84/84 85/85/85
f 81/81/81 85/85/85 86/86/86
f 81/81/81 86/86/86 82/82/82
f 87/87/87 83/83/83 67/67/67
f 87/87/87 67/67/67 75/75/75
f 87/87/87 75/75/75 74/74/74
f 87/87/87 74/74/74 88/88/88
f 87/87/87 88/88/88 89/89/89
f 87/87/87 89/89/89 90/90/90
f 87/87/87 90/90/90 84/84/84
f 87/87/87 84/84/84 83/83/83
f 91/91/91 92/92/92 38/38/38
f 91/91/91 38/38/38 37/37/37
f 91/91/91 37/37/37 18/18/18
f 91/91/91 18/18/18 93/93/93
f 91/91/91 93/93/93 69/69/69
f 91/91/91 69/69/69 82/82/82
f 91/91/91 82/82/82 94/94/94
f 91/91/91 94/94/94 92/92/92
f 95/95/95 96/96/96 44/44/44
f 95/95/95 44/44/44 43/43/43
f 95/95/95 43/43/43 40/40/40
f 95/95/95 40/40/40 97/97/97
f 95/95/95 97/97/97 84/84/84
f 95/95/95 84/84/84 90/90/90
f 95/95/95 90/90/90 98/98/98
f 95/95/95 98/98/98 96/96/96
f 99/99/99 100/100/100 7/7/7
f 99/99/99 7/7/7 6/6/6
f 99/99/99 6/6/6 5/5/5
f 99/99/99 5/5/5 101/101/101
f 99/99/99 101/101/101 52/52/52
f 99/99/99 52/52/52 51/51/51
f 99/99/99 51/51/51 102/102/102
f 99/99/99 102/102/102 100/100/100
f 103/103/103 104/104/104 15/15/15
f 103/103/103 15/15/15 14/14/14
f 103/103/103 14/14/14 9/9/9
f 103/103/103 9/9/9 105/105/105
f 103/103/103 105/105/105 48/48/48
f 103/103/103 48/48/48 58/58/58
f 103/103/103 58/58/58 106/106/106
f 103/103/103 106/106/106 104/104/104
f 107/107/107 108/108/108 12/12/12
f 107/107/107 12/12/12 11/11/11
f 107/107/107 11/11/11 15/15/15
f 107/107/107 15/15/15 104/104/104
f 107/107/107 104/104/104 106/106/106
f 107/107/107 106/106/106 56/56/56
f 107/107/107 56/56/56 60/60/60
f 107/107/107 60/60/60 108/108/108
f 109/109/109 97/97/97 40/40/40
f 109/109/109 40/40/40 39/39/39
f 109/109/109 39/39/39 38/38/38
f 109/109/109 38/38/38 92/92/92
f 109/109/109 92/92/92 94/94/94
f 109/109/109 94/94/94 85/85/85
f 109/109/109 85/85/85 84/84/84
f 109/109/109 84/84/84 97/97/97
f 110/110/110 111/111/111 27/27/27
f 110/110/110 27/27/27 45/45/45
f 110/110/110 45/45/45 44/44/44
f 110/110/110 44/44/44 96/96/96
f 110/110/110 96/96/96 98/98/98
f 110/110/110 98/98/98 88/88/88
f 110/110/110 88/88/88 74/74/74
f 110/110/110 74/74/74 111/111/111
f 112/112/112 105/105/105 9/9/9
f 112/112/112 9/9/9 8/8/8
f 112/112/112 8/8/8 7/7/7
f 112/112/112 7/7/7 100/100/100
f 112/112/112 100/100/100 102/102/102
f 112/112/112 102/102/102 49/49/49
f 112/112/112 49/49/49 48/48/48
f 112/112/112 48/48/48 105/105/105
f 113/113/113 101/101/101 5/5/5
f 113/113/113 5/5/5 33/33/33
f 113/113/113 33/33/33 29/29/29
f 113/113/113 29/29/29 114/114/114
f 113/113/113 114/114/114 72/72/72
f 113/113/113 72/72/72 78/78/78
f 113/113/113 78/78/78 52/52/52
f 113/113/113 52/52/52 101/101/101
f 115/115/115 116/116/116 24/24/24
f 115/115/115 24/24/24 35/35/35
f 115/115/115 35/35/35 12/12/12
f 115/115/115 12/12/12 108/108/108
f 115/115/115 108/108/108 60/60/60
f 115/115/115 60/60/60 80/80/80
f 115/115/115 80/80/80 63/63/63
f 115/115/115 63/63/63 116/116/116
f 117/117/117 93/93/93 18/18/18
f 117/117/117 18/18/18 17/17/17
f 117/117/117 17/17/17 24/24/24
f 117/117/117 24/24/24 116/116/116
f 117/117/117 116/116/116 63/63/63
f 117/117/117 63/63/63 62/62/62
f 117/117/117 62/62/62 69/69/69
f 117/117/117 69/69/69 93/93/93
f 118/118/118 114/114/114 29/29/29
f 118/118/118 29/29/29 28/28/28
f 118/118/118 28/28/28 27/27/27
f 118/118/118 27/27/27 111/111/111
f 118/118/118 111/111/111 74/74/74
f 118/118/118 74/74/74 73/73/73
f 118/118/118 73/73/73 72/72/72
f 118/118/118 72/72/72 114/114/114
