v -2.445000 0.766339 -1.117730
v -2.447215 0.766349 -1.117550
v -2.446437 0.764569 -1.115319
v -2.444019 0.764705 -1.115805
v -2.442119 0.764894 -1.115946
v -2.443197 0.766308 -1.117484
v -2.444294 0.767003 -1.118450
v -2.445796 0.767403 -1.119133
v -2.447805 0.767571 -1.119243
v -2.449055 0.766353 -1.116305
v -2.450308 0.766333 -1.114986
v -2.450197 0.764922 -1.113108
v -2.448627 0.764721 -1.114186
v -2.449306 0.767415 -1.117900
v -2.450053 0.767023 -1.116427
v -2.446512 0.757938 -1.108245
v -2.448142 0.758072 -1.107457
v -2.447114 0.755446 -1.105967
v -2.445676 0.755322 -1.106676
v -2.443727 0.755225 -1.107513
v -2.444304 0.757834 -1.109180
v -2.444937 0.760303 -1.111006
v -2.447241 0.760427 -1.110013
v -2.448938 0.760589 -1.109164
v -2.441996 0.757922 -1.109832
v -2.441683 0.755308 -1.108079
v -2.440116 0.755422 -1.108425
v -2.440230 0.758044 -1.110237
v -2.440661 0.760560 -1.112072
v -2.442517 0.760410 -1.111673
v -2.443191 0.762700 -1.113725
v -2.445663 0.762551 -1.113095
v -2.441282 0.762910 -1.114058
v -2.447984 0.762717 -1.112041
v -2.449681 0.762940 -1.111107
v -2.444614 0.752650 -1.105246
v -2.445674 0.752770 -1.104674
v -2.444619 0.751221 -1.104137
v -2.443743 0.750609 -1.104247
v -2.442769 0.750518 -1.104739
v -2.443171 0.752557 -1.105903
v -2.441633 0.752640 -1.106293
v -2.441701 0.750602 -1.104964
v -2.440945 0.751209 -1.105428
v -2.440448 0.752751 -1.106510
v -2.445019 0.766161 -1.117877
v -2.447264 0.766168 -1.117688
v -2.447841 0.767433 -1.119344
v -2.445807 0.767267 -1.119242
v -2.444296 0.766904 -1.118533
v -2.443195 0.766176 -1.117599
v -2.442123 0.764766 -1.116065
v -2.444043 0.764532 -1.115958
v -2.446489 0.764395 -1.115464
v -2.449134 0.766175 -1.116431
v -2.450382 0.766201 -1.115074
v -2.450104 0.766924 -1.116493
v -2.449365 0.767280 -1.117991
v -2.448705 0.764548 -1.114320
v -2.450269 0.764794 -1.113203
v -2.446592 0.757796 -1.108412
v -2.448212 0.757966 -1.107578
v -2.449007 0.760475 -1.109278
v -2.447320 0.760275 -1.110171
v -2.444996 0.760150 -1.111172
v -2.444366 0.757691 -1.109354
v -2.443791 0.755090 -1.107693
v -2.445759 0.755187 -1.106848
v -2.447186 0.755346 -1.106092
v -2.442038 0.757780 -1.110012
v -2.442555 0.760258 -1.111845
v -2.440679 0.760446 -1.112204
v -2.440251 0.757938 -1.110375
v -2.440139 0.755321 -1.108567
v -2.441726 0.755173 -1.108265
v -2.443223 0.762537 -1.113887
v -2.445718 0.762386 -1.113250
v -2.441293 0.762789 -1.114184
v -2.448062 0.762554 -1.112187
v -2.449752 0.762818 -1.111212
v -2.444699 0.752519 -1.105419
v -2.445747 0.752672 -1.104799
v -2.443235 0.752425 -1.106084
v -2.442817 0.750419 -1.104875
v -2.443807 0.750511 -1.104377
v -2.444671 0.751149 -1.104231
v -2.441677 0.752508 -1.106481
v -2.440470 0.752653 -1.106654
v -2.440963 0.751136 -1.105534
v -2.441732 0.750504 -1.105106
v -2.446062 0.752766 -1.104538
v -2.444516 0.750695 -1.103827
v -2.447628 0.755443 -1.105785
v -2.444671 0.751149 -1.104231
v -2.441737 0.749879 -1.104584
v -2.440834 0.750682 -1.105120
v -2.442656 0.749795 -1.104411
v -2.440963 0.751136 -1.105534
v -2.442592 0.766240 -1.117455
v -2.444082 0.767115 -1.118603
v -2.441484 0.764900 -1.116047
v -2.444296 0.766904 -1.118533
v -2.449416 0.767708 -1.118472
v -2.450313 0.767137 -1.116414
v -2.448018 0.767917 -1.119851
v -2.450104 0.766924 -1.116493
v -2.450763 0.766268 -1.114584
v -2.450755 0.764932 -1.112790
v -2.443481 0.749885 -1.103971
v -2.440060 0.752745 -1.106647
v -2.439602 0.755415 -1.108605
v -2.446065 0.767697 -1.119649
v -2.440648 0.762927 -1.114226
v -2.440048 0.760559 -1.112264
v -2.450281 0.762960 -1.110842
v -2.449536 0.760592 -1.108931
v -2.448719 0.758069 -1.107247
v -2.439649 0.758038 -1.110434
vn -0.006400 0.778600 0.627400
vn 0.197100 0.809600 0.552900
vn 0.212700 0.773000 0.597700
vn 0.031600 0.744700 0.666600
vn 0.047100 0.729500 0.682400
vn 0.001600 0.779800 0.626000
vn -0.029800 0.811900 0.583000
vn 0.007500 0.837400 0.546500
vn 0.171300 0.860900 0.479000
vn 0.402200 0.777200 0.483800
vn 0.395200 0.778500 0.487700
vn 0.394600 0.728300 0.560300
vn 0.396900 0.743400 0.538300
vn 0.341100 0.836300 0.429200
vn 0.392900 0.810500 0.434300
vn 0.370700 0.584900 0.721400
vn 0.338300 0.580200 0.740800
vn 0.341600 0.553800 0.759300
vn 0.384100 0.557200 0.736200
vn 0.277900 0.553100 0.785400
vn 0.269900 0.588100 0.762400
vn 0.252400 0.655100 0.712100
vn 0.367300 0.643800 0.671200
vn 0.346100 0.632500 0.692900
vn 0.165600 0.585700 0.793500
vn 0.164200 0.558000 0.813400
vn 0.211900 0.554300 0.804900
vn 0.203000 0.580600 0.788400
vn 0.167200 0.633000 0.755800
vn 0.137200 0.644600 0.752100
vn 0.087000 0.704300 0.704500
vn 0.231100 0.723500 0.650500
vn 0.109400 0.687200 0.718200
vn 0.377100 0.703300 0.602600
vn 0.368000 0.686300 0.627300
vn 0.409800 0.543400 0.732600
vn 0.365600 0.536600 0.760500
vn 0.397500 0.520200 0.755800
vn 0.439100 0.493200 0.750900
vn 0.291000 0.487600 0.823100
vn 0.281400 0.536200 0.795700
vn 0.141700 0.544400 0.826700
vn 0.130000 0.494400 0.859400
vn 0.165600 0.521100 0.837300
vn 0.193600 0.537200 0.820900
vn 0.027200 -0.759200 -0.650300
vn -0.201500 -0.799800 -0.565400
vn -0.217800 -0.759900 -0.612400
vn 0.091200 -0.696700 -0.711500
vn 0.196700 -0.642800 -0.740300
vn 0.176000 -0.657800 -0.732300
vn 0.108200 -0.677600 -0.727400
vn -0.017200 -0.741300 -0.670900
vn -0.212700 -0.773100 -0.597600
vn -0.432600 -0.757600 -0.488800
vn -0.599400 -0.655200 -0.459800
vn -0.620400 -0.640100 -0.453000
vn -0.520500 -0.694500 -0.496600
vn -0.410800 -0.739900 -0.532700
vn -0.543500 -0.675400 -0.498400
vn -0.385100 -0.584800 -0.713900
vn -0.482200 -0.580400 -0.656100
vn -0.481300 -0.620300 -0.619300
vn -0.380800 -0.642800 -0.664600
vn -0.252500 -0.655000 -0.712200
vn -0.269900 -0.587900 -0.762500
vn -0.277900 -0.553000 -0.785500
vn -0.400500 -0.558700 -0.726200
vn -0.503800 -0.574900 -0.644700
vn -0.149600 -0.585600 -0.796700
vn -0.122500 -0.643700 -0.755400
vn -0.015600 -0.621900 -0.782900
vn -0.037700 -0.581900 -0.812300
vn -0.013700 -0.576600 -0.816900
vn -0.145200 -0.559600 -0.815900
vn -0.072800 -0.702600 -0.707800
vn -0.231100 -0.723500 -0.650500
vn 0.038800 -0.662800 -0.747800
vn -0.390200 -0.701500 -0.596300
vn -0.502100 -0.660900 -0.557700
vn -0.429100 -0.557700 -0.710500
vn -0.541800 -0.593500 -0.595100
vn -0.279300 -0.546500 -0.789500
vn -0.269400 -0.590500 -0.760700
vn -0.478300 -0.606300 -0.635200
vn -0.561900 -0.608000 -0.560800
vn -0.113100 -0.558800 -0.821500
vn 0.046900 -0.595500 -0.802000
vn 0.084000 -0.610200 -0.787800
vn -0.027800 -0.607900 -0.793500
vn -0.731900 -0.192900 0.653500
vn -0.440200 -0.460500 0.770800
vn -0.818200 -0.095300 0.567000
vn -0.561900 -0.608000 -0.560800
vn 0.407900 -0.791200 0.455700
vn 0.823200 -0.464200 0.326800
vn 0.144700 -0.895600 0.420600
vn 0.084000 -0.610200 -0.787800
vn 0.825800 0.450000 -0.339800
vn 0.605500 0.601100 -0.521500
vn 0.925700 0.296800 -0.234500
vn 0.196700 -0.642800 -0.740300
vn -0.677900 0.580100 -0.451600
vn -0.794900 0.605900 -0.029700
vn -0.279500 0.529600 -0.800800
vn -0.620400 -0.640100 -0.453000
vn -0.854100 0.455600 0.250600
vn -0.867100 0.303000 0.395300
vn -0.037600 -0.789800 0.612200
vn 0.978700 -0.198600 0.052500
vn 0.992400 -0.101300 -0.069300
vn 0.250000 0.576800 -0.777600
vn 0.969500 0.167500 -0.178700
vn 0.983900 0.083500 -0.157900
vn -0.867300 0.174000 0.466400
vn -0.866000 0.090100 0.491700
vn -0.858600 0.006700 0.512600
vn 0.990600 0.000100 -0.137000
vt 0.839504 0.118056
vt 0.856743 0.205307
vt 0.741230 0.205307
vt 0.734555 0.106726
vt 0.724541 0.032791
vt 0.813647 0.052618
vt 0.868992 0.081539
vt 0.913398 0.129584
vt 0.940923 0.205307
vt 0.839504 0.292557
vt 0.813647 0.357995
vt 0.724541 0.377822
vt 0.734555 0.303887
vt 0.913398 0.281029
vt 0.868992 0.329074
vt 0.369475 0.299954
vt 0.368286 0.370940
vt 0.245840 0.351447
vt 0.246397 0.288815
vt 0.246768 0.205307
vt 0.370268 0.205307
vt 0.494283 0.205307
vt 0.492822 0.304944
vt 0.490632 0.379672
vt 0.369475 0.110659
vt 0.246397 0.121798
vt 0.245841 0.059166
vt 0.368286 0.039673
vt 0.490632 0.030941
vt 0.492822 0.105669
vt 0.616755 0.103478
vt 0.619174 0.205307
vt 0.613127 0.027106
vt 0.616755 0.307135
vt 0.613126 0.383507
vt 0.123273 0.268175
vt 0.123047 0.315326
vt 0.054743 0.283353
vt 0.030912 0.249131
vt 0.030973 0.205306
vt 0.123423 0.205306
vt 0.123273 0.142438
vt 0.030912 0.161481
vt 0.054744 0.127260
vt 0.123047 0.095287
vt 0.839504 0.118056
vt 0.856743 0.205307
vt 0.968983 0.205307
vt 0.938030 0.133427
vt 0.876123 0.061548
vt 0.805028 0.030806
vt 0.721203 0.008146
vt 0.734555 0.106726
vt 0.741230 0.205307
vt 0.839504 0.292557
vt 0.805028 0.379807
vt 0.876123 0.349065
vt 0.938030 0.277186
vt 0.734555 0.303887
vt 0.721203 0.402467
vt 0.369475 0.299954
vt 0.367890 0.394602
vt 0.489902 0.404581
vt 0.492822 0.304944
vt 0.494283 0.205307
vt 0.370268 0.205307
vt 0.246768 0.205307
vt 0.246397 0.288815
vt 0.245655 0.372324
vt 0.369475 0.110659
vt 0.492822 0.105669
vt 0.489902 0.006032
vt 0.367890 0.016011
vt 0.245655 0.038289
vt 0.246397 0.121798
vt 0.616755 0.103478
vt 0.619174 0.205307
vt 0.611917 0.001649
vt 0.616755 0.307135
vt 0.611917 0.408964
vt 0.123273 0.268175
vt 0.122972 0.331043
vt 0.123423 0.205306
vt 0.000156 0.205306
vt 0.000125 0.242784
vt 0.000064 0.280261
vt 0.123273 0.142438
vt 0.122972 0.079570
vt 0.000064 0.130352
vt 0.000125 0.167829
vt 0.122972 0.331043
vt 0.030806 0.283587
vt 0.245655 0.372324
vt 0.030806 0.283587
vt 0.000125 0.167829
vt 0.030806 0.127026
vt 0.000156 0.205306
vt 0.030806 0.127026
vt 0.805028 0.030806
vt 0.873826 0.071832
vt 0.721203 0.008146
vt 0.873826 0.071832
vt 0.938030 0.277186
vt 0.873826 0.338781
vt 0.968983 0.205307
vt 0.873826 0.338781
vt 0.805028 0.379807
vt 0.721203 0.402467
vt 0.000125 0.242784
vt 0.122972 0.079570
vt 0.245655 0.038289
vt 0.938030 0.133427
vt 0.611917 0.001649
vt 0.489902 0.006032
vt 0.611917 0.408964
vt 0.489902 0.404581
vt 0.367890 0.394602
vt 0.367890 0.016011
f 1/1/1 2/2/2 3/3/3
f 1/1/1 3/3/3 4/4/4
f 1/1/1 4/4/4 5/5/5
f 1/1/1 5/5/5 6/6/6
f 1/1/1 6/6/6 7/7/7
f 1/1/1 7/7/7 8/8/8
f 1/1/1 8/8/8 9/9/9
f 1/1/1 9/9/9 2/2/2
f 10/10/10 11/11/11 12/12/12
f 10/10/10 12/12/12 13/13/13
f 10/10/10 13/13/13 3/3/3
f 10/10/10 3/3/3 2/2/2
f 10/10/10 2/2/2 9/9/9
f 10/10/10 9/9/9 14/14/14
f 10/10/10 14/14/14 15/15/15
f 10/10/10 15/15/15 11/11/11
f 16/16/16 17/17/17 18/18/18
f 16/16/16 18/18/18 19/19/19
f 16/16/16 19/19/19 20/20/20
f 16/16/16 20/20/20 21/21/21
f 16/16/16 21/21/21 22/22/22
f 16/16/16 22/22/22 23/23/23
f 16/16/16 23/23/23 24/24/24
f 16/16/16 24/24/24 17/17/17
f 25/25/25 21/21/21 20/20/20
f 25/25/25 20/20/20 26/26/26
f 25/25/25 26/26/26 27/27/27
f 25/25/25 27/27/27 28/28/28
f 25/25/25 28/28/28 29/29/29
f 25/25/25 29/29/29 30/30/30
f 25/25/25 30/30/30 22/22/22
f 25/25/25 22/22/22 21/21/21
f 31/31/31 32/32/32 22/22/22
f 31/31/31 22/22/22 30/30/30
f 31/31/31 30/30/30 29/29/29
f 31/31/31 29/29/29 33/33/33
f 31/31/31 33/33/33 5/5/5
f 31/31/31 5/5/5 4/4/4
f 31/31/31 4/4/4 3/3/3
f 31/31/31 3/3/3 32/32/32
f 34/34/34 35/35/35 24/24/24
f 34/34/34 24/24/24 23/23/23
f 34/34/34 23/23/23 22/22/22
f 34/34/34 22/22/22 32/32/32
f 34/34/34 32/32/32 3/3/3
f 34/34/34 3/3/3 13/13/13
f 34/34/34 13/13/13 12/12/12
f 34/34/34 12/12/12 35/35/35
f 36/36/36 37/37/37 38/38/38
f 36/36/36 38/38/38 39/39/39
f 36/36/36 39/39/39 40/40/40
f 36/36/36 40/40/40 41/41/41
f 36/36/36 41/41/41 20/20/20
f 36/36/36 20/20/20 19/19/19
f 36/36/36 19/19/19 18/18/18
f 36/36/36 18/18/18 37/37/37
f 42/42/42 41/41/41 40/40/40
f 42/42/42 40/40/40 43/43/43
f 42/42/42 43/43/43 44/44/44
f 42/42/42 44/44/44 45/45/45
f 42/42/42 45/45/45 27/27/27
f 42/42/42 27/27/27 26/26/26
f 42/42/42 26/26/26 20/20/20
f 42/42/42 20/20/20 41/41/41
f 46/46/46 47/47/47 48/48/48
f 46/46/46 48/48/48 49/49/49
f 46/46/46 49/49/49 50/50/50
f 46/46/46 50/50/50 51/51/51
f 46/46/46 51/51/51 52/52/52
f 46/46/46 52/52/52 53/53/53
f 46/46/46 53/53/53 54/54/54
f 46/46/46 54/54/54 47/47/47
f 55/55/55 56/56/56 57/57/57
f 55/55/55 57/57/57 58/58/58
f 55/55/55 58/58/58 48/48/48
f 55/55/55 48/48/48 47/47/47
f 55/55/55 47/47/47 54/54/54
f 55/55/55 54/54/54 59/59/59
f 55/55/55 59/59/59 60/60/60
f 55/55/55 60/60/60 56/56/56
f 61/61/61 62/62/62 63/63/63
f 61/61/61 63/63/63 64/64/64
f 61/61/61 64/64/64 65/65/65
f 61/61/61 65/65/65 66/66/66
f 61/61/61 66/66/66 67/67/67
f 61/61/61 67/67/67 68/68/68
f 61/61/61 68/68/68 69/69/69
f 61/61/61 69/69/69 62/62/62
f 70/70/70 66/66/66 65/65/65
f 70/70/70 65/65/65 71/71/71
f 70/70/70 71/71/71 72/72/72
f 70/70/70 72/72/72 73/73/73
f 70/70/70 73/73/73 74/74/74
f 70/70/70 74/74/74 75/75/75
f 70/70/70 75/75/75 67/67/67
f 70/70/70 67/67/67 66/66/66
f 76/76/76 77/77/77 54/54/54
f 76/76/76 54/54/54 53/53/53
f 76/76/76 53/53/53 52/52/52
f 76/76/76 52/52/52 78/78/78
f 76/76/76 78/78/78 72/72/72
f 76/76/76 72/72/72 71/71/71
f 76/76/76 71/71/71 65/65/65
f 76/76/76 65/65/65 77/77/77
f 79/79/79 80/80/80 60/60/60
f 79/79/79 60/60/60 59/59/59
f 79/79/79 59/59/59 54/54/54
f 79/79/79 54/54/54 77/77/77
f 79/79/79 77/77/77 65/65/65
f 79/79/79 65/65/65 64/64/64
f 79/79/79 64/64/64 63/63/63
f 79/79/79 63/63/63 80/80/80
f 81/81/81 82/82/82 69/69/69
f 81/81/81 69/69/69 68/68/68
f 81/81/81 68/68/68 67/67/67
f 81/81/81 67/67/67 83/83/83
f 81/81/81 83/83/83 84/84/84
f 81/81/81 84/84/84 85/85/85
f 81/81/81 85/85/85 86/86/86
f 81/81/81 86/86/86 82/82/82
f 87/87/87 83/83/83 67/67/67
f 87/87/87 67/67/67 75/75/75
f 87/87/87 75/75/75 74/74/74
f 87/87/87 74/74/74 88/88/88
f 87/87/87 88/88/88 89/89/89
f 87/87/87 89/89/89 90/90/90
f 87/87/87 90/90/90 84/84/84
f 87/87/87 84/84/84 83/83/83
f 91/91/91 92/92/92 38/38/38
f 91/91/91 38/38/38 37/37/37
f 91/91/91 37/37/37 18/18/18
f 91/91/91 18/18/18 93/93/93
f 91/91/91 93/93/93 69/69/69
f 91/91/91 69/69/69 82/82/82
f 91/91/91 82/82/82 94/94/94
f 91/91/91 94/94/94 92/92/92
f 95/95/95 96/96/96 44/44/44
f 95/95/95 44/44/44 43/43/43
f 95/95/95 43/43/43 40/40/40
f 95/95/95 40/40/40 97/97/97
f 95/95/95 97/97/97 84/84/84
f 95/95/95 84/84/84 90/90/90
f 95/95/95 90/90/90 98/98/98
f 95/95/95 98/98/98 96/96/96
f 99/99/99 100/100/100 7/7/7
f 99/99/99 7/7/7 6/6/6
f 99/99/99 6/6/6 5/5/5
f 99/99/99 5/5/5 101/101/101
f 99/99/99 101/101/101 52/52/52
f 99/99/99 52/52/52 51/51/51
f 99/99/99 51/51/51 102/102/102
f 99/99/99 102/102/102 100/100/100
f 103/103/103 104/104/104 15/15/15
f 103/103/103 15/15/15 14/14/14
f 103/103/103 14/14/14 9/9/9
f 103/103/103 9/9/9 105/105/105
f 103/103/103 105/105/105 48/48/48
f 103/103/103 48/48/48 58/58/58
f 103/103/103 58/58/58 106/106/106
f 103/103/103 106/106/106 104/104/104
f 107/107/107 108/108/108 12/12/12
f 107/107/107 12/12/12 11/11/11
f 107/107/107 11/11/11 15/15/15
f 107/107/107 15/15/15 104/104/104
f 107/107/107 104/104/104 106/106/106
f 107/107/107 106/106/106 56/56/56
f 107/107/107 56/56/56 60/60/60
f 107/107/107 60/60/60 108/108/108
f 109/109/109 97/97/97 40/40/40
f 109/109/109 40/40/40 39/39/39
f 109/109/109 39/39/39 38/38/38
f 109/109/109 38/38/38 92/92/92
f 109/109/109 92/92/92 94/94/94
f 109/109/109 94/94/94 85/85/85
f 109/109/109 85/85/85 84/84/84
f 109/109/109 84/84/84 97/97/97
f 110/110/110 111/111/111 27/27/27
f 110/110/110 27/27/27 45/45/45
f 110/110/110 45/45/45 44/44/44
f 110/110/110 44/44/44 96/96/96
f 110/110/110 96/96/96 98/98/98
f 110/110/110 98/98/98 88/88/88
f 110/110/110 88/88/88 74/74/74
f 110/110/110 74/74/74 111/111/111
f 112/112/112 105/105/105 9/9/9
f 112/112/112 9/9/9 8/8/8
f 112/112/112 8/8/8 7/7/7
f 112/112/112 7/7/7 100/100/100
f 112/112/112 100/100/100 102/102/102
f 112/112/112 102/102/102 49/49/49
f 112/112/112 49/49/49 48/48/48
f 112/112/112 48/48/48 105/105/105
f 113/113/113 101/101/101 5/5/5
f 113/113/113 5/5/5 33/33/33
f 113/113/113 33/33/33 29/29/29
f 113/113/113 29/29/29 114/114/114
f 113/113/113 114/114/114 72/72/72
f 113/113/113 72/72/72 78/78/78
f 113/113/113 78/78/78 52/52/52
f 113/113/113 52/52/52 101/101/101
f 115/115/115 116/116/116 24/24/24
f 115/115/115 24/24/24 35/35/35
f 115/115/115 35/35/35 12/12/12
f 115/115/115 12/12/12 108/108/108
f 115/115/115 108/108/108 60/60/60
f 115/115/115 60/60/60 80/80/80
f 115/115/115 80/80/80 63/63/63
f 115/115/115 63/63/63 116/116/116
f 117/117/117 93/93/93 18/18/18
f 117/117/117 18/18/18 17/17/17
f 117/117/117 17/17/17 24/24/24
f 117/117/117 24/24/24 116/116/116
f 117/117/117 116/116/116 63/63/63
f 117/117/117 63/63/63 62/62/62
f 117/117/117 62/62/62 69/69/69
f 117/117/117 69/69/69 93/93/93
f 118/118/118 114/114/114 29/29/29
f 118/118/118 29/29/29 28/28/28
f 118/118/118 28/28/28 27/27/27
f 118/118/118 27/27/27 111/111/111
f 118/118/118 111/111/111 74/74/74
f 118/118/118 74/74/74 73/73/73
f 118/118/118 73/73/73 72/72/72
f 118/118/118 72/72/72 114/114/114
