v -2.418353 0.800917 -1.147377
v -2.416552 0.801379 -1.146168
v -2.415384 0.799922 -1.148455
v -2.417558 0.799505 -1.149542
v -2.419147 0.799300 -1.150584
v -2.419585 0.800589 -1.148671
v -2.419488 0.801292 -1.147220
v -2.418838 0.801838 -1.145753
v -2.417404 0.802361 -1.144437
v -2.414415 0.801958 -1.146030
v -2.412679 0.802416 -1.146308
v -2.411303 0.801376 -1.147900
v -2.413083 0.800689 -1.148011
v -2.415430 0.802740 -1.144587
v -2.413896 0.802771 -1.145307
v -2.409474 0.794831 -1.154186
v -2.407798 0.795412 -1.153811
v -2.407033 0.792958 -1.155689
v -2.408518 0.792437 -1.156009
v -2.410475 0.791822 -1.156539
v -2.411685 0.794142 -1.154796
v -2.412908 0.796309 -1.152898
v -2.410594 0.797046 -1.152274
v -2.408839 0.797678 -1.151906
v -2.413859 0.793671 -1.155686
v -2.412396 0.791411 -1.157336
v -2.413829 0.791160 -1.158014
v -2.415482 0.793379 -1.156439
v -2.416877 0.795552 -1.154656
v -2.415181 0.795833 -1.153844
v -2.416457 0.797794 -1.151747
v -2.414155 0.798234 -1.150741
v -2.418172 0.797573 -1.152641
v -2.411803 0.799025 -1.150155
v -2.410015 0.799731 -1.149851
v -2.407802 0.789922 -1.157862
v -2.406686 0.790341 -1.157665
v -2.406779 0.788747 -1.158776
v -2.407355 0.787971 -1.159240
v -2.408365 0.787610 -1.159448
v -2.409268 0.789439 -1.158226
v -2.410696 0.789156 -1.158853
v -2.409338 0.787447 -1.159919
v -2.410347 0.787803 -1.159996
v -2.411761 0.788999 -1.159401
v -2.418378 0.800721 -1.147254
v -2.416547 0.801190 -1.146035
v -2.417399 0.802218 -1.144339
v -2.418857 0.801690 -1.145664
v -2.419509 0.801182 -1.147156
v -2.419619 0.800441 -1.148585
v -2.419180 0.799156 -1.150491
v -2.417584 0.799315 -1.149411
v -2.415383 0.799737 -1.148314
v -2.414382 0.801779 -1.145887
v -2.412640 0.802287 -1.146197
v -2.413869 0.802674 -1.145226
v -2.415402 0.802604 -1.144482
v -2.413056 0.800514 -1.147862
v -2.411269 0.801250 -1.147784
v -2.409472 0.794680 -1.154009
v -2.407787 0.795302 -1.153676
v -2.408823 0.797562 -1.151777
v -2.410585 0.796886 -1.152106
v -2.412920 0.796143 -1.152735
v -2.411702 0.793985 -1.154625
v -2.410496 0.791671 -1.156362
v -2.408519 0.792292 -1.155827
v -2.407025 0.792853 -1.155550
v -2.413895 0.793509 -1.155523
v -2.415213 0.795662 -1.153689
v -2.416911 0.795422 -1.154544
v -2.415518 0.793256 -1.156320
v -2.413868 0.791042 -1.157891
v -2.412435 0.791256 -1.157166
v -2.416486 0.797613 -1.151604
v -2.414160 0.798058 -1.150590
v -2.418204 0.797436 -1.152538
v -2.411785 0.798857 -1.149996
v -2.409991 0.799609 -1.149729
v -2.407804 0.789779 -1.157678
v -2.406677 0.790238 -1.157524
v -2.409290 0.789291 -1.158047
v -2.408382 0.787499 -1.159314
v -2.407356 0.787865 -1.159102
v -2.406775 0.788670 -1.158672
v -2.410738 0.789003 -1.158682
v -2.411803 0.788882 -1.159277
v -2.410375 0.787717 -1.159904
v -2.409371 0.787332 -1.159791
v -2.406308 0.790436 -1.157536
v -2.406540 0.788276 -1.159099
v -2.406533 0.793086 -1.155520
v -2.406775 0.788670 -1.158672
v -2.408900 0.786826 -1.160218
v -2.410115 0.787331 -1.160322
v -2.408072 0.786951 -1.159796
v -2.410375 0.787717 -1.159904
v -2.420015 0.800413 -1.149065
v -2.419769 0.801332 -1.147224
v -2.419695 0.799168 -1.150890
v -2.419509 0.801182 -1.147156
v -2.415755 0.802940 -1.144060
v -2.413718 0.802933 -1.145154
v -2.417686 0.802625 -1.143817
v -2.413869 0.802674 -1.145226
v -2.412080 0.802513 -1.146351
v -2.410691 0.801550 -1.147811
v -2.407206 0.787274 -1.159638
v -2.412137 0.788894 -1.159530
v -2.414326 0.791024 -1.158186
v -2.419008 0.802079 -1.145173
v -2.418760 0.797438 -1.152895
v -2.417459 0.795400 -1.154877
v -2.409405 0.799914 -1.149695
v -2.408245 0.797838 -1.151725
v -2.407233 0.795558 -1.153625
v -2.416041 0.793227 -1.156638
vn 0.167600 0.866300 -0.470500
vn -0.040300 0.844000 -0.534900
vn -0.016600 0.813800 -0.580900
vn 0.170100 0.833500 -0.525700
vn 0.171500 0.818600 -0.548100
vn 0.160400 0.865700 -0.474200
vn 0.151100 0.894900 -0.420000
vn 0.094400 0.905700 -0.413200
vn -0.077100 0.884900 -0.459300
vn -0.229900 0.761100 -0.606400
vn -0.222400 0.764300 -0.605200
vn -0.166500 0.729200 -0.663700
vn -0.185100 0.739400 -0.647200
vn -0.230300 0.819800 -0.524300
vn -0.260300 0.786000 -0.560700
vn -0.016700 0.624700 -0.780600
vn 0.020800 0.629800 -0.776400
vn 0.036000 0.607100 -0.793800
vn -0.011200 0.598100 -0.801400
vn 0.100300 0.623300 -0.775500
vn 0.083900 0.654400 -0.751400
vn 0.050400 0.713200 -0.699100
vn -0.058800 0.673100 -0.737200
vn -0.026900 0.670100 -0.741700
vn 0.182800 0.677500 -0.712400
vn 0.202900 0.654700 -0.728100
vn 0.162200 0.640500 -0.750600
vn 0.152400 0.664700 -0.731400
vn 0.147100 0.716200 -0.682200
vn 0.165000 0.732300 -0.660600
vn 0.160200 0.790900 -0.590600
vn 0.013000 0.772100 -0.635300
vn 0.155500 0.772500 -0.615600
vn -0.121900 0.716200 -0.687200
vn -0.096000 0.706000 -0.701600
vn -0.029500 0.579200 -0.814600
vn 0.022700 0.586000 -0.810000
vn -0.000300 0.563300 -0.826200
vn -0.028100 0.528700 -0.848400
vn 0.129500 0.564500 -0.815200
vn 0.108100 0.608200 -0.786300
vn 0.231500 0.648200 -0.725400
vn 0.272600 0.608200 -0.745500
vn 0.225300 0.623200 -0.748900
vn 0.190000 0.630500 -0.752600
vn -0.202000 -0.855700 0.476400
vn 0.033800 -0.836000 0.547700
vn 0.008500 -0.802900 0.596000
vn -0.303400 -0.818600 0.487600
vn -0.415400 -0.792000 0.447300
vn -0.390800 -0.801100 0.453200
vn -0.330700 -0.806400 0.490200
vn -0.184600 -0.833700 0.520300
vn 0.016700 -0.813900 0.580800
vn 0.245200 -0.737300 0.629500
vn 0.363600 -0.601300 0.711400
vn 0.379800 -0.581600 0.719400
vn 0.291800 -0.661200 0.691100
vn 0.198200 -0.732400 0.651300
vn 0.303400 -0.638700 0.707100
vn 0.032100 -0.620500 0.783500
vn 0.139400 -0.587300 0.797200
vn 0.170600 -0.619300 0.766400
vn 0.072800 -0.668400 0.740300
vn -0.050500 -0.713200 0.699200
vn -0.084000 -0.654300 0.751600
vn -0.100400 -0.623200 0.775600
vn 0.029900 -0.594600 0.803400
vn 0.161200 -0.575700 0.801600
vn -0.197000 -0.681100 0.705100
vn -0.178500 -0.734900 0.654300
vn -0.282400 -0.739200 0.611400
vn -0.293100 -0.701700 0.649300
vn -0.315700 -0.702000 0.638400
vn -0.218500 -0.660300 0.718500
vn -0.173600 -0.792400 0.584700
vn -0.013000 -0.772100 0.635300
vn -0.293000 -0.782600 0.549200
vn 0.135200 -0.710700 0.690300
vn 0.233000 -0.643400 0.729100
vn 0.060800 -0.585400 0.808400
vn 0.224300 -0.577300 0.785100
vn -0.103400 -0.617400 0.779800
vn -0.082700 -0.656600 0.749700
vn 0.155400 -0.609200 0.777600
vn 0.263600 -0.581300 0.769800
vn -0.246600 -0.666700 0.703300
vn -0.348600 -0.729100 0.588900
vn -0.364900 -0.747800 0.554600
vn -0.283000 -0.725200 0.627600
vn 0.994500 0.072000 -0.075500
vn 0.909100 -0.219900 -0.353900
vn 0.984800 0.166900 0.048300
vn 0.263600 -0.581300 0.769800
vn 0.159500 -0.758200 -0.632200
vn -0.319600 -0.545600 -0.774700
vn 0.368200 -0.815300 -0.446800
vn -0.364900 -0.747800 0.554600
vn -0.950700 0.215200 -0.223000
vn -0.926900 0.370300 0.060200
vn -0.925800 0.067300 -0.371800
vn -0.415400 -0.792000 0.447300
vn 0.105700 0.606700 0.787900
vn 0.435400 0.730700 0.525800
vn -0.391500 0.418700 0.819400
vn 0.379800 -0.581600 0.719400
vn 0.683600 0.647800 0.336200
vn 0.818100 0.529000 0.225300
vn 0.592900 -0.643600 -0.483900
vn -0.669600 -0.368100 -0.645000
vn -0.776600 -0.299300 -0.554300
vn -0.797200 0.367700 0.478800
vn -0.893100 -0.055800 -0.446300
vn -0.870600 -0.134900 -0.473100
vn 0.893600 0.417300 0.165400
vn 0.929200 0.341000 0.142300
vn 0.957500 0.262800 0.118700
vn -0.841700 -0.212800 -0.496100
vt 0.839504 0.118056
vt 0.856743 0.205307
vt 0.741230 0.205307
vt 0.734555 0.106726
vt 0.724541 0.032791
vt 0.813647 0.052618
vt 0.868992 0.081539
vt 0.913398 0.129584
vt 0.940923 0.205307
vt 0.839504 0.292557
vt 0.813647 0.357995
vt 0.724541 0.377822
vt 0.734555 0.303887
vt 0.913398 0.281029
vt 0.868992 0.329074
vt 0.369475 0.299954
vt 0.368286 0.370940
vt 0.245840 0.351447
vt 0.246397 0.288815
vt 0.246768 0.205307
vt 0.370268 0.205307
vt 0.494283 0.205307
vt 0.492822 0.304944
vt 0.490632 0.379672
vt 0.369475 0.110659
vt 0.246397 0.121798
vt 0.245841 0.059166
vt 0.368286 0.039673
vt 0.490632 0.030941
vt 0.492822 0.105669
vt 0.616755 0.103478
vt 0.619174 0.205307
vt 0.613127 0.027106
vt 0.616755 0.307135
vt 0.613126 0.383507
vt 0.123273 0.268175
vt 0.123047 0.315326
vt 0.054743 0.283353
vt 0.030912 0.249131
vt 0.030973 0.205306
vt 0.123423 0.205306
vt 0.123273 0.142438
vt 0.030912 0.161481
vt 0.054744 0.127260
vt 0.123047 0.095287
vt 0.839504 0.118056
vt 0.856743 0.205307
vt 0.968983 0.205307
vt 0.938030 0.133427
vt 0.876123 0.061548
vt 0.805028 0.030806
vt 0.721203 0.008146
vt 0.734555 0.106726
vt 0.741230 0.205307
vt 0.839504 0.292557
vt 0.805028 0.379807
vt 0.876123 0.349065
vt 0.938030 0.277186
vt 0.734555 0.303887
vt 0.721203 0.402467
vt 0.369475 0.299954
vt 0.367890 0.394602
vt 0.489902 0.404581
vt 0.492822 0.304944
vt 0.494283 0.205307
vt 0.370268 0.205307
vt 0.246768 0.205307
vt 0.246397 0.288815
vt 0.245655 0.372324
vt 0.369475 0.110659
vt 0.492822 0.105669
vt 0.489902 0.006032
vt 0.367890 0.016011
vt 0.245655 0.038289
vt 0.246397 0.121798
vt 0.616755 0.103478
vt 0.619174 0.205307
vt 0.611917 0.001649
vt 0.616755 0.307135
vt 0.611917 0.408964
vt 0.123273 0.268175
vt 0.122972 0.331043
vt 0.123423 0.205306
vt 0.000156 0.205306
vt 0.000125 0.242784
vt 0.000064 0.280261
vt 0.123273 0.142438
vt 0.122972 0.079570
vt 0.000064 0.130352
vt 0.000125 0.167829
vt 0.122972 0.331043
vt 0.030806 0.283587
vt 0.245655 0.372324
vt 0.030806 0.283587
vt 0.000125 0.167829
vt 0.030806 0.127026
vt 0.000156 0.205306
vt 0.030806 0.127026
vt 0.805028 0.030806
vt 0.873826 0.071832
vt 0.721203 0.008146
vt 0.873826 0.071832
vt 0.938030 0.277186
vt 0.873826 0.338781
vt 0.968983 0.205307
vt 0.873826 0.338781
vt 0.805028 0.379807
vt 0.721203 0.402467
vt 0.000125 0.242784
vt 0.122972 0.079570
vt 0.245655 0.038289
vt 0.938030 0.133427
vt 0.611917 0.001649
vt 0.489902 0.006032
vt 0.611917 0.408964
vt 0.489902 0.404581
vt 0.367890 0.394602
vt 0.367890 0.016011
f 1/1/1 2/2/2 3/3/3
f 1/1/1 3/3/3 4/4/4
f 1/1/1 4/4/4 5/5/5
f 1/1/1 5/5/5 6/6/6
f 1/1/1 6/6/6 7/7/7
f 1/1/1 7/7/7 8/8/8
f 1/1/1 8/8/8 9/9/9
f 1/1/1 9/9/9 2/2/2
f 10/10/10 11/11/11 12/12/12
f 10/10/10 12/12/12 13/13/13
f 10/10/10 13/13/13 3/3/3
f 10/10/10 3/3/3 2/2/2
f 10/10/10 2/2/2 9/9/9
f 10/10/10 9/9/9 14/14/14
f 10/10/10 14/14/14 15/15/15
f 10/10/10 15/15/15 11/11/11
f 16/16/16 17/17/17 18/18/18
f 16/16/16 18/18/18 19/19/19
f 16/16/16 19/19/19 20/20/20
f 16/16/16 20/20/20 21/21/21
f 16/16/16 21/21/21 22/22/22
f 16/16/16 22/22/22 23/23/23
f 16/16/16 23/23/23 24/24/24
f 16/16/16 24/24/24 17/17/17
f 25/25/25 21/21/21 20/20/20
f 25/25/25 20/20/20 26/26/26
f 25/25/25 26/26/26 27/27/27
f 25/25/25 27/27/27 28/28/28
f 25/25/25 28/28/28 29/29/29
f 25/25/25 29/29/29 30/30/30
f 25/25/25 30/30/30 22/22/22
f 25/25/25 22/22/22 21/21/21
f 31/31/31 32/32/32 22/22/22
f 31/31/31 22/22/22 30/30/30
f 31/31/31 30/30/30 29/29/29
f 31/31/31 29/29/29 33/33/33
f 31/31/31 33/33/33 5/5/5
f 31/31/31 5/5/5 4/4/4
f 31/31/31 4/4/4 3/3/3
f 31/31/31 3/3/3 32/32/32
f 34/34/34 35/35/35 24/24/24
f 34/34/34 24/24/24 23/23/23
f 34/34/34 23/23/23 22/22/22
f 34/34/34 22/22/22 32/32/32
f 34/34/34 32/32/32 3/3/3
f 34/34/34 3/3/3 13/13/13
f 34/34/34 13/13/13 12/12/12
f 34/34/34 12/12/12 35/35/35
f 36/36/36 37/37/37 38/38/38
f 36/36/36 38/38/38 39/39/39
f 36/36/36 39/39/39 40/40/40
f 36/36/36 40/40/40 41/41/41
f 36/36/36 41/41/41 20/20/20
f 36/36/36 20/20/20 19/19/19
f 36/36/36 19/19/19 18/18/18
f 36/36/36 18/18/18 37/37/37
f 42/42/42 41/41/41 40/40/40
f 42/42/42 40/40/40 43/43/43
f 42/42/42 43/43/43 44/44/44
f 42/42/42 44/44/44 45/45/45
f 42/42/42 45/45/45 27/27/27
f 42/42/42 27/27/27 26/26/26
f 42/42/42 26/26/26 20/20/20
f 42/42/42 20/20/20 41/41/41
f 46/46/46 47/47/47 48/48/48
f 46/46/46 48/48/48 49/49/49
f 46/46/46 49/49/49 50/50/50
f 46/46/46 50/50/50 51/51/51
f 46/46/46 51/51/51 52/52/52
f 46/46/46 52/52/52 53/53/53
f 46/46/46 53/53/53 54/54/54
f 46/46/46 54/54/54 47/47/47
f 55/55/55 56/56/56 57/57/57
f 55/55/55 57/57/57 58/58/58
f 55/55/55 58/58/58 48/48/48
f 55/55/55 48/48/48 47/47/47
f 55/55/55 47/47/47 54/54/54
f 55/55/55 54/54/54 59/59/59
f 55/55/55 59/59/59 60/60/60
f 55/55/55 60/60/60 56/56/56
f 61/61/61 62/62/62 63/63/63
f 61/61/61 63/63/63 64/64/64
f 61/61/61 64/64/64 65/65/65
f 61/61/61 65/65/65 66/66/66
f 61/61/61 66/66/66 67/67/67
f 61/61/61 67/67/67 68/68/68
f 61/61/61 68/68/68 69/69/69
f 61/61/61 69/69/69 62/62/62
f 70/70/70 66/66/66 65/65/65
f 70/70/70 65/65/65 71/71/71
f 70/70/70 71/71/71 72/72/72
f 70/70/70 72/72/72 73/73/73
f 70/70/70 73/73/73 74/74/74
f 70/70/70 74/74/74 75/75/75
f 70/70/70 75/75/75 67/67/67
f 70/70/70 67/67/67 66/66/66
f 76/76/76 77/77/77 54/54/54
f 76/76/76 54/54/54 53/53/53
f 76/76/76 53/53/53 52/52/52
f 76/76/76 52/52/52 78/78/78
f 76/76/76 78/78/78 72/72/72
f 76/76/76 72/72/72 71/71/71
f 76/76/76 71/71/71 65/65/65
f 76/76/76 65/65/65 77/77/77
f 79/79/79 80/80/80 60/60/60
f 79/79/79 60/60/60 59/59/59
f 79/79/79 59/59/59 54/54/54
f 79/79/79 54/54/54 77/77/77
f 79/79/79 77/77/77 65/65/65
f 79/79/79 65/65/65 64/64/64
f 79/79/79 64/64/64 63/63/63
f 79/79/79 63/63/63 80/80/80
f 81/81/81 82/82/82 69/69/69
f 81/81/81 69/69/69 68/68/68
f 81/81/81 68/68/68 67/67/67
f 81/81/81 67/67/67 83/83/83
f 81/81/81 83/83/83 84/84/84
f 81/81/81 84/84/84 85/85/85
f 81/81/81 85/85/85 86/86/86
f 81/81/81 86/86/86 82/82/82
f 87/87/87 83/83/83 67/67/67
f 87/87/87 67/67/67 75/75/75
f 87/87/87 75/75/75 74/74/74
f 87/87/87 74/74/74 88/88/88
f 87/87/87 88/88/88 89/89/89
f 87/87/87 89/89/89 90/90/90
f 87/87/87 90/90/90 84/84/84
f 87/87/87 84/84/84 83/83/83
f 91/91/91 92/92/92 38/38/38
f 91/91/91 38/38/38 37/37/37
f 91/91/91 37/37/37 18/18/18
f 91/91/91 18/18/18 93/93/93
f 91/91/91 93/93/93 69/69/69
f 91/91/91 69/69/69 82/82/82
f 91/91/91 82/82/82 94/94/94
f 91/91/91 94/94/94 92/92/92
f 95/95/95 96/96/96 44/44/44
f 95/95/95 44/44/44 43/43/43
f 95/95/95 43/43/43 40/40/40
f 95/95/95 40/40/40 97/97/97
f 95/95/95 97/97/97 84/84/84
f 95/95/95 84/84/84 90/90/90
f 95/95/95 90/90/90 98/98/98
f 95/95/95 98/98/98 96/96/96
f 99/99/99 100/100/100 7/7/7
f 99/99/99 7/7/7 6/6/6
f 99/99/99 6/6/6 5/5/5
f 99/99/99 5/5/5 101/101/101
f 99/99/99 101/101/101 52/52/52
f 99/99/99 52/52/52 51/51/51
f 99/99/99 51/51/51 102/102/102
f 99/99/99 102/102/102 100/100/100
f 103/103/103 104/104/104 15/15/15
f 103/103/103 15/15/15 14/14/14
f 103/103/103 14/14/14 9/9/9
f 103/103/103 9/9/9 105/105/105
f 103/103/103 105/105/105 48/48/48
f 103/103/103 48/48/48 58/58/58
f 103/103/103 58/58/58 106/106/106
f 103/103/103 106/106/106 104/104/104
f 107/107/107 108/108/108 12/12/12
f 107/107/107 12/12/12 11/11/11
f 107/107/107 11/11/11 15/15/15
f 107/107/107 15/15/15 104/104/104
f 107/107/107 104/104/104 106/106/106
f 107/107/107 106/106/106 56/56/56
f 107/107/107 56/56/56 60/60/60
f 107/107/107 60/60/60 108/108/108
f 109/109/109 97/97/97 40/40/40
f 109/109/109 40/40/40 39/39/39
f 109/109/109 39/39/39 38/38/38
f 109/109/109 38/38/38 92/92/92
f 109/109/109 92/92/92 94/94/94
f 109/109/109 94/94/94 85/85/85
f 109/109/109 85/85/85 84/84/84
f 109/109/109 84/84/84 97/97/97
f 110/110/110 111/111/111 27/27/27
f 110/110/110 27/27/27 45/45/45
f 110/110/110 45/45/45 44/44/44
f 110/110/110 44/44/44 96/96/96
f 110/110/110 96/96/96 98/98/98
f 110/110/110 98/98/98 88/88/88
f 110/110/110 88/88/88 74/74/74
f 110/110/110 74/74/74 111/111/111
f 112/112/112 105/105/105 9/9/9
f 112/112/112 9/9/9 8/8/8
f 112/112/112 8/8/8 7/7/7
f 112/112/112 7/7/7 100/100/100
f 112/112/112 100/100/100 102/102/102
f 112/112/112 102/102/102 49/49/49
f 112/112/112 49/49/49 48/48/48
f 112/112/112 48/48/48 105/105/105
f 113/113/113 101/101/101 5/5/5
f 113/113/113 5/5/5 33/33/33
f 113/113/113 33/33/33 29/29/29
f 113/113/113 29/29/29 114/114/114
f 113/113/113 114/114/114 72/72/72
f 113/113/113 72/72/72 78/78/78
f 113/113/113 78/78/78 52/52/52
f 113/113/113 52/52/52 101/101/101
f 115/115/115 116/116/116 24/24/24
f 115/115/115 24/24/24 35/35/35
f 115/115/115 35/35/35 12/12/12
f 115/115/115 12/12/12 108/108/108
f 115/115/115 108/108/108 60/60/60
f 115/115/115 60/60/60 80/80/80
f 115/115/115 80/80/80 63/63/63
f 115/115/115 63/63/63 116/116/116
f 117/117/117 93/93/93 18/18/18
f 117/117/117 18/18/18 17/17/17
f 117/117/117 17/17/17 24/24/24
f 117/117/117 24/24/24 116/116/116
f 117/117/117 116/116/116 63/63/63
f 117/117/117 63/63/63 62/62/62
f 117/117/117 62/62/62 69/69/69
f 117/117/117 69/69/69 93/93/93
f 118/118/118 114/114/114 29/29/29
f 118/118/118 29/29/29 28/28/28
f 118/118/118 28/28/28 27/27/27
f 118/118/118 27/27/27 111/111/111
f 118/118/118 111/111/111 74/74/74
f 118/118/118 74/74/74 73/73/73
f 118/118/118 73/73/73 72/72/72
f 118/118/118 72/72/72 114/114/114
