v -2.423555 0.735344 -1.169190
v -2.421022 0.736722 -1.168387
v -2.419970 0.735038 -1.171840
v -2.422928 0.733595 -1.172330
v -2.425229 0.732644 -1.173003
v -2.425474 0.734341 -1.170339
v -2.425028 0.735429 -1.168504
v -2.423836 0.736519 -1.166884
v -2.421734 0.737852 -1.165787
v -2.418560 0.738269 -1.169093
v -2.416714 0.739470 -1.170169
v -2.415278 0.738471 -1.172811
v -2.417251 0.736919 -1.172221
v -2.419513 0.739050 -1.166801
v -2.417934 0.739583 -1.168367
v -2.413120 0.730048 -1.181779
v -2.411128 0.731452 -1.181988
v -2.410026 0.728370 -1.184770
v -2.411783 0.727119 -1.184569
v -2.414172 0.725553 -1.184439
v -2.415826 0.728285 -1.181647
v -2.417374 0.730830 -1.178653
v -2.414555 0.732694 -1.178810
v -2.412488 0.734192 -1.179060
v -2.418683 0.726791 -1.181886
v -2.416703 0.724239 -1.184664
v -2.418646 0.723322 -1.184937
v -2.420874 0.725744 -1.182176
v -2.422683 0.728222 -1.179257
v -2.420373 0.729287 -1.178922
v -2.421828 0.731565 -1.175655
v -2.418755 0.733077 -1.175323
v -2.424217 0.730563 -1.176087
v -2.415924 0.735022 -1.175542
v -2.413870 0.736622 -1.175888
v -2.410708 0.723942 -1.187299
v -2.409415 0.724914 -1.187505
v -2.409379 0.722706 -1.188925
v -2.409984 0.721444 -1.189295
v -2.411173 0.720585 -1.189145
v -2.412475 0.722744 -1.187160
v -2.414379 0.721792 -1.187370
v -2.412499 0.719971 -1.189344
v -2.413905 0.720056 -1.189012
v -2.415853 0.721144 -1.187629
v -2.423462 0.735094 -1.169026
v -2.420891 0.736491 -1.168221
v -2.421634 0.737677 -1.165667
v -2.423768 0.736329 -1.166766
v -2.424986 0.735285 -1.168415
v -2.425424 0.734145 -1.170217
v -2.425177 0.732455 -1.172872
v -2.422834 0.733352 -1.172155
v -2.419842 0.734813 -1.171664
v -2.418392 0.738063 -1.168928
v -2.416571 0.739329 -1.170046
v -2.417832 0.739474 -1.168277
v -2.419384 0.738895 -1.166681
v -2.417091 0.736716 -1.172045
v -2.415143 0.738331 -1.172679
v -2.412988 0.729870 -1.181556
v -2.411017 0.731326 -1.181822
v -2.412370 0.734059 -1.178904
v -2.414415 0.732507 -1.178600
v -2.417259 0.730626 -1.178443
v -2.415718 0.728092 -1.181424
v -2.414068 0.725367 -1.184207
v -2.411656 0.726949 -1.184337
v -2.409918 0.728250 -1.184597
v -2.418598 0.726585 -1.181664
v -2.420285 0.729070 -1.178714
v -2.422629 0.728052 -1.179102
v -2.420824 0.725583 -1.182011
v -2.418599 0.723166 -1.184765
v -2.416623 0.724040 -1.184433
v -2.421736 0.731335 -1.175464
v -2.418632 0.732862 -1.175131
v -2.424163 0.730383 -1.175945
v -2.415774 0.734826 -1.175349
v -2.413744 0.736485 -1.175744
v -2.410581 0.723775 -1.187064
v -2.409307 0.724797 -1.187330
v -2.412373 0.722561 -1.186925
v -2.411096 0.720449 -1.188969
v -2.409887 0.721321 -1.189119
v -2.409302 0.722618 -1.188795
v -2.414303 0.721595 -1.187136
v -2.415809 0.720990 -1.187455
v -2.413870 0.719943 -1.188883
v -2.412443 0.719824 -1.189169
v -2.408934 0.725188 -1.187496
v -2.409039 0.722152 -1.189450
v -2.409389 0.728735 -1.184761
v -2.409302 0.722618 -1.188795
v -2.411848 0.719299 -1.189924
v -2.413574 0.719497 -1.189537
v -2.410705 0.719805 -1.189729
v -2.413870 0.719943 -1.188883
v -2.426096 0.733917 -1.170668
v -2.425390 0.735377 -1.168391
v -2.425977 0.732242 -1.173169
v -2.424986 0.735285 -1.168415
v -2.419773 0.739242 -1.165985
v -2.417715 0.739872 -1.168243
v -2.421927 0.738151 -1.164868
v -2.417832 0.739474 -1.168277
v -2.416031 0.739811 -1.170474
v -2.414557 0.738929 -1.172949
v -2.409699 0.720557 -1.189882
v -2.416327 0.720858 -1.187639
v -2.419276 0.722946 -1.184952
v -2.423900 0.736825 -1.166064
v -2.424992 0.730148 -1.176168
v -2.423432 0.727790 -1.179300
v -2.413126 0.737096 -1.175939
v -2.411744 0.734634 -1.179075
v -2.410412 0.731865 -1.181985
v -2.421585 0.725323 -1.182200
vn -0.233100 0.842600 -0.485400
vn -0.435700 0.759900 -0.482300
vn -0.419500 0.734100 -0.533900
vn -0.238200 0.807700 -0.539300
vn -0.239600 0.792300 -0.561100
vn -0.240500 0.839700 -0.486800
vn -0.240800 0.869100 -0.431900
vn -0.293500 0.864600 -0.407800
vn -0.457700 0.794800 -0.398400
vn -0.606700 0.623800 -0.492700
vn -0.600500 0.629000 -0.493700
vn -0.557500 0.606200 -0.567200
vn -0.572200 0.612100 -0.545700
vn -0.598700 0.685900 -0.413500
vn -0.627600 0.642700 -0.439300
vn -0.427000 0.538100 -0.726700
vn -0.393100 0.553500 -0.734200
vn -0.378000 0.534500 -0.755900
vn -0.420800 0.512500 -0.748500
vn -0.318500 0.568800 -0.758300
vn -0.334900 0.596000 -0.729800
vn -0.366100 0.647200 -0.668700
vn -0.465800 0.576200 -0.671500
vn -0.437300 0.581700 -0.685800
vn -0.239500 0.647900 -0.723000
vn -0.219600 0.630300 -0.744600
vn -0.259400 0.604000 -0.753500
vn -0.269300 0.625900 -0.731900
vn -0.273700 0.677500 -0.682700
vn -0.255400 0.699500 -0.667500
vn -0.255000 0.759400 -0.598600
vn -0.397300 0.698100 -0.595500
vn -0.261700 0.738700 -0.621100
vn -0.520200 0.604100 -0.603700
vn -0.498200 0.600200 -0.625700
vn -0.436200 0.488500 -0.755700
vn -0.389200 0.509600 -0.767400
vn -0.408700 0.480400 -0.776000
vn -0.430900 0.437800 -0.789100
vn -0.287500 0.517400 -0.806000
vn -0.310500 0.555700 -0.771200
vn -0.190900 0.632100 -0.751000
vn -0.148300 0.603300 -0.783600
vn -0.196700 0.604500 -0.771900
vn -0.231900 0.601600 -0.764300
vn 0.200400 -0.841200 0.502100
vn 0.431400 -0.753100 0.496700
vn 0.413700 -0.724700 0.551000
vn 0.101200 -0.832400 0.544800
vn -0.020500 -0.840200 0.541900
vn 0.006200 -0.841900 0.539600
vn 0.073700 -0.827900 0.555900
vn 0.223500 -0.812300 0.538700
vn 0.419600 -0.734100 0.533800
vn 0.621100 -0.595000 0.510200
vn 0.715400 -0.426600 0.553300
vn 0.727000 -0.402500 0.556200
vn 0.660700 -0.504900 0.555500
vn 0.583400 -0.601600 0.545600
vn 0.669800 -0.478900 0.567400
vn 0.440800 -0.529600 0.724700
vn 0.533200 -0.467600 0.704900
vn 0.561300 -0.492100 0.665300
vn 0.478100 -0.567600 0.670200
vn 0.366000 -0.647100 0.668800
vn 0.334800 -0.595900 0.729900
vn 0.318400 -0.568800 0.758400
vn 0.437500 -0.503900 0.744700
vn 0.551200 -0.450300 0.702400
vn 0.225400 -0.655700 0.720500
vn 0.241900 -0.706000 0.665600
vn 0.135500 -0.741400 0.657100
vn 0.126700 -0.705600 0.697100
vn 0.102900 -0.712800 0.693700
vn 0.204000 -0.640600 0.740200
vn 0.241500 -0.765000 0.597000
vn 0.397300 -0.698200 0.595500
vn 0.119200 -0.790600 0.600600
vn 0.531700 -0.595000 0.602600
vn 0.613800 -0.501000 0.610200
vn 0.464600 -0.486300 0.740000
vn 0.604100 -0.436000 0.667000
vn 0.315300 -0.563700 0.763400
vn 0.336100 -0.597900 0.727700
vn 0.548100 -0.485700 0.680900
vn 0.636400 -0.430300 0.640200
vn 0.175600 -0.655500 0.734400
vn 0.065600 -0.751300 0.656600
vn 0.045600 -0.776200 0.628800
vn 0.136000 -0.727100 0.672900
vn 0.862700 0.333500 -0.380100
vn 0.782500 0.009800 -0.622500
vn 0.864700 0.431000 -0.257800
vn 0.636400 -0.430300 0.640200
vn 0.166500 -0.730400 -0.662300
vn -0.372900 -0.666900 -0.645000
vn 0.429100 -0.714900 -0.552100
vn 0.045600 -0.776200 0.628800
vn -0.993900 -0.068100 0.087100
vn -0.930100 0.107800 0.351100
vn -0.974800 -0.213700 -0.063800
vn -0.020500 -0.840200 0.541900
vn 0.164700 0.668400 0.725300
vn 0.350700 0.857700 0.376000
vn -0.225600 0.355500 0.907000
vn 0.727000 -0.402500 0.556200
vn 0.542500 0.831800 0.117200
vn 0.664800 0.746400 -0.032200
vn 0.574400 -0.491600 -0.654500
vn -0.701700 -0.582400 -0.410300
vn -0.791100 -0.538600 -0.289900
vn -0.684100 0.171500 0.708900
vn -0.933100 -0.328300 -0.146700
vn -0.898100 -0.400700 -0.181100
vn 0.746800 0.655100 -0.114600
vn 0.793700 0.589900 -0.148600
vn 0.834200 0.521000 -0.180700
vn -0.856800 -0.469400 -0.213400
vt 0.839504 0.118056
vt 0.856743 0.205307
vt 0.741230 0.205307
vt 0.734555 0.106726
vt 0.724541 0.032791
vt 0.813647 0.052618
vt 0.868992 0.081539
vt 0.913398 0.129584
vt 0.940923 0.205307
vt 0.839504 0.292557
vt 0.813647 0.357995
vt 0.724541 0.377822
vt 0.734555 0.303887
vt 0.913398 0.281029
vt 0.868992 0.329074
vt 0.369475 0.299954
vt 0.368286 0.370940
vt 0.245840 0.351447
vt 0.246397 0.288815
vt 0.246768 0.205307
vt 0.370268 0.205307
vt 0.494283 0.205307
vt 0.492822 0.304944
vt 0.490632 0.379672
vt 0.369475 0.110659
vt 0.246397 0.121798
vt 0.245841 0.059166
vt 0.368286 0.039673
vt 0.490632 0.030941
vt 0.492822 0.105669
vt 0.616755 0.103478
vt 0.619174 0.205307
vt 0.613127 0.027106
vt 0.616755 0.307135
vt 0.613126 0.383507
vt 0.123273 0.268175
vt 0.123047 0.315326
vt 0.054743 0.283353
vt 0.030912 0.249131
vt 0.030973 0.205306
vt 0.123423 0.205306
vt 0.123273 0.142438
vt 0.030912 0.161481
vt 0.054744 0.127260
vt 0.123047 0.095287
vt 0.839504 0.118056
vt 0.856743 0.205307
vt 0.968983 0.205307
vt 0.938030 0.133427
vt 0.876123 0.061548
vt 0.805028 0.030806
vt 0.721203 0.008146
vt 0.734555 0.106726
vt 0.741230 0.205307
vt 0.839504 0.292557
vt 0.805028 0.379807
vt 0.876123 0.349065
vt 0.938030 0.277186
vt 0.734555 0.303887
vt 0.721203 0.402467
vt 0.369475 0.299954
vt 0.367890 0.394602
vt 0.489902 0.404581
vt 0.492822 0.304944
vt 0.494283 0.205307
vt 0.370268 0.205307
vt 0.246768 0.205307
vt 0.246397 0.288815
vt 0.245655 0.372324
vt 0.369475 0.110659
vt 0.492822 0.105669
vt 0.489902 0.006032
vt 0.367890 0.016011
vt 0.245655 0.038289
vt 0.246397 0.121798
vt 0.616755 0.103478
vt 0.619174 0.205307
vt 0.611917 0.001649
vt 0.616755 0.307135
vt 0.611917 0.408964
vt 0.123273 0.268175
vt 0.122972 0.331043
vt 0.123423 0.205306
vt 0.000156 0.205306
vt 0.000125 0.242784
vt 0.000064 0.280261
vt 0.123273 0.142438
vt 0.122972 0.079570
vt 0.000064 0.130352
vt 0.000125 0.167829
vt 0.122972 0.331043
vt 0.030806 0.283587
vt 0.245655 0.372324
vt 0.030806 0.283587
vt 0.000125 0.167829
vt 0.030806 0.127026
vt 0.000156 0.205306
vt 0.030806 0.127026
vt 0.805028 0.030806
vt 0.873826 0.071832
vt 0.721203 0.008146
vt 0.873826 0.071832
vt 0.938030 0.277186
vt 0.873826 0.338781
vt 0.968983 0.205307
vt 0.873826 0.338781
vt 0.805028 0.379807
vt 0.721203 0.402467
vt 0.000125 0.242784
vt 0.122972 0.079570
vt 0.245655 0.038289
vt 0.938030 0.133427
vt 0.611917 0.001649
vt 0.489902 0.006032
vt 0.611917 0.408964
vt 0.489902 0.404581
vt 0.367890 0.394602
vt 0.367890 0.016011
f 1/1/1 2/2/2 3/3/3
f 1/1/1 3/3/3 4/4/4
f 1/1/1 4/4/4 5/5/5
f 1/1/1 5/5/5 6/6/6
f 1/1/1 6/6/6 7/7/7
f 1/1/1 7/7/7 8/8/8
f 1/1/1 8/8/8 9/9/9
f 1/1/1 9/9/9 2/2/2
f 10/10/10 11/11/11 12/12/12
f 10/10/10 12/12/12 13/13/13
f 10/10/10 13/13/13 3/3/3
f 10/10/10 3/3/3 2/2/2
f 10/10/10 2/2/2 9/9/9
f 10/10/10 9/9/9 14/14/14
f 10/10/10 14/14/14 15/15/15
f 10/10/10 15/15/15 11/11/11
f 16/16/16 17/17/17 18/18/18
f 16/16/16 18/18/18 19/19/19
f 16/16/16 19/19/19 20/20/20
f 16/16/16 20/20/20 21/21/21
f 16/16/16 21/21/21 22/22/22
f 16/16/16 22/22/22 23/23/23
f 16/16/16 23/23/23 24/24/24
f 16/16/16 24/24/24 17/17/17
f 25/25/25 21/21/21 20/20/20
f 25/25/25 20/20/20 26/26/26
f 25/25/25 26/26/26 27/27/27
f 25/25/25 27/27/27 28/28/28
f 25/25/25 28/28/28 29/29/29
f 25/25/25 29/29/29 30/30/30
f 25/25/25 30/30/30 22/22/22
f 25/25/25 22/22/22 21/21/21
f 31/31/31 32/32/32 22/22/22
f 31/31/31 22/22/22 30/30/30
f 31/31/31 30/30/30 29/29/29
f 31/31/31 29/29/29 33/33/33
f 31/31/31 33/33/33 5/5/5
f 31/31/31 5/5/5 4/4/4
f 31/31/31 4/4/4 3/3/3
f 31/31/31 3/3/3 32/32/32
f 34/34/34 35/35/35 24/24/24
f 34/34/34 24/24/24 23/23/23
f 34/34/34 23/23/23 22/22/22
f 34/34/34 22/22/22 32/32/32
f 34/34/34 32/32/32 3/3/3
f 34/34/34 3/3/3 13/13/13
f 34/34/34 13/13/13 12/12/12
f 34/34/34 12/12/12 35/35/35
f 36/36/36 37/37/37 38/38/38
f 36/36/36 38/38/38 39/39/39
f 36/36/36 39/39/39 40/40/40
f 36/36/36 40/40/40 41/41/41
f 36/36/36 41/41/41 20/20/20
f 36/36/36 20/20/20 19/19/19
f 36/36/36 19/19/19 18/18/18
f 36/36/36 18/18/18 37/37/37
f 42/42/42 41/41/41 40/40/40
f 42/42/42 40/40/40 43/43/43
f 42/42/42 43/43/43 44/44/44
f 42/42/42 44/44/44 45/45/45
f 42/42/42 45/45/45 27/27/27
f 42/42/42 27/27/27 26/26/26
f 42/42/42 26/26/26 20/20/20
f 42/42/42 20/20/20 41/41/41
f 46/46/46 47/47/47 48/48/48
f 46/46/46 48/48/48 49/49/49
f 46/46/46 49/49/49 50/50/50
f 46/46/46 50/50/50 51/51/51
f 46/46/46 51/51/51 52/52/52
f 46/46/46 52/52/52 53/53/53
f 46/46/46 53/53/53 54/54/54
f 46/46/46 54/54/54 47/47/47
f 55/55/55 56/56/56 57/57/57
f 55/55/55 57/57/57 58/58/58
f 55/55/55 58/58/58 48/48/48
f 55/55/55 48/48/48 47/47/47
f 55/55/55 47/47/47 54/54/54
f 55/55/55 54/54/54 59/59/59
f 55/55/55 59/59/59 60/60/60
f 55/55/55 60/60/60 56/56/56
f 61/61/61 62/62/62 63/63/63
f 61/61/61 63/63/63 64/64/64
f 61/61/61 64/64/64 65/65/65
f 61/61/61 65/65/65 66/66/66
f 61/61/61 66/66/66 67/67/67
f 61/61/61 67/67/67 68/68/68
f 61/61/61 68/68/68 69/69/69
f 61/61/61 69/69/69 62/62/62
f 70/70/70 66/66/66 65/65/65
f 70/70/70 65/65/65 71/71/71
f 70/70/70 71/71/71 72/72/72
f 70/70/70 72/72/72 73/73/73
f 70/70/70 73/73/73 74/74/74
f 70/70/70 74/74/74 75/75/75
f 70/70/70 75/75/75 67/67/67
f 70/70/70 67/67/67 66/66/66
f 76/76/76 77/77/77 54/54/54
f 76/76/76 54/54/54 53/53/53
f 76/76/76 53/53/53 52/52/52
f 76/76/76 52/52/52 78/78/78
f 76/76/76 78/78/78 72/72/72
f 76/76/76 72/72/72 71/71/71
f 76/76/76 71/71/71 65/65/65
f 76/76/76 65/65/65 77/77/77
f 79/79/79 80/80/80 60/60/60
f 79/79/79 60/60/60 59/59/59
f 79/79/79 59/59/59 54/54/54
f 79/79/79 54/54/54 77/77/77
f 79/79/79 77/77/77 65/65/65
f 79/79/79 65/65/65 64/64/64
f 79/79/79 64/64/64 63/63/63
f 79/79/79 63/63/63 80/80/80
f 81/81/81 82/82/82 69/69/69
f 81/81/81 69/69/69 68/68/68
f 81/81/81 68/68/68 67/67/67
f 81/81/81 67/67/67 83/83/83
f 81/81/81 83/83/83 84/84/84
f 81/81/81 84/84/84 85/85/85
f 81/81/81 85/85/85 86/86/86
f 81/81/81 86/86/86 82/82/82
f 87/87/87 83/83/83 67/67/67
f 87/87/87 67/67/67 75/75/75
f 87/87/87 75/75/75 74/74/74
f 87/87/87 74/74/74 88/88/88
f 87/87/87 88/88/88 89/89/89
f 87/87/87 89/89/89 90/90/90
f 87/87/87 90/90/90 84/84/84
f 87/87/87 84/84/84 83/83/83
f 91/91/91 92/92/92 38/38/38
f 91/91/91 38/38/38 37/37/37
f 91/91/91 37/37/37 18/18/18
f 91/91/91 18/18/18 93/93/93
f 91/91/91 93/93/93 69/69/69
f 91/91/91 69/69/69 82/82/82
f 91/91/91 82/82/82 94/94/94
f 91/91/91 94/94/94 92/92/92
f 95/95/95 96/96/96 44/44/44
f 95/95/95 44/44/44 43/43/43
f 95/95/95 43/43/43 40/40/40
f 95/95/95 40/40/40 97/97/97
f 95/95/95 97/97/97 84/84/84
f 95/95/95 84/84/84 90/90/90
f 95/95/95 90/90/90 98/98/98
f 95/95/95 98/98/98 96/96/96
f 99/99/99 100/100/100 7/7/7
f 99/99/99 7/7/7 6/6/6
f 99/99/99 6/6/6 5/5/5
f 99/99/99 5/5/5 101/101/101
f 99/99/99 101/101/101 52/52/52
f 99/99/99 52/52/52 51/51/51
f 99/99/99 51/51/51 102/102/102
f 99/99/99 102/102/102 100/100/100
f 103/103/103 104/104/104 15/15/15
f 103/103/103 15/15/15 14/14/14
f 103/103/103 14/14/14 9/9/9
f 103/103/103 9/9/9 105/105/105
f 103/103/103 105/105/105 48/48/48
f 103/103/103 48/48/48 58/58/58
f 103/103/103 58/58/58 106/106/106
f 103/103/103 106/106/106 104/104/104
f 107/107/107 108/108/108 12/12/12
f 107/107/107 12/12/12 11/11/11
f 107/107/107 11/11/11 15/15/15
f 107/107/107 15/15/15 104/104/104
f 107/107/107 104/104/104 106/106/106
f 107/107/107 106/106/106 56/56/56
f 107/107/107 56/56/56 60/60/60
f 107/107/107 60/60/60 108/108/108
f 109/109/109 97/97/97 40/40/40
f 109/109/109 40/40/40 39/39/39
f 109/109/109 39/39/39 38/38/38
f 109/109/109 38/38/38 92/92/92
f 109/109/109 92/92/92 94/94/94
f 109/109/109 94/94/94 85/85/85
f 109/109/109 85/85/85 84/84/84
f 109/109/109 84/84/84 97/97/97
f 110/110/110 111/111/111 27/27/27
f 110/110/110 27/27/27 45/45/45
f 110/110/110 45/45/45 44/44/44
f 110/110/110 44/44/44 96/96/96
f 110/110/110 96/96/96 98/98/98
f 110/110/110 98/98/98 88/88/88
f 110/110/110 88/88/88 74/74/74
f 110/110/110 74/74/74 111/111/111
f 112/112/112 105/105/105 9/9/9
f 112/112/112 9/9/9 8/8/8
f 112/112/112 8/8/8 7/7/7
f 112/112/112 7/7/7 100/100/100
f 112/112/112 100/100/100 102/102/102
f 112/112/112 102/102/102 49/49/49
f 112/112/112 49/49/49 48/48/48
f 112/112/112 48/48/48 105/105/105
f 113/113/113 101/101/101 5/5/5
f 113/113/113 5/5/5 33/33/33
f 113/113/113 33/33/33 29/29/29
f 113/113/113 29/29/29 114/114/114
f 113/113/113 114/114/114 72/72/72
f 113/113/113 72/72/72 78/78/78
f 113/113/113 78/78/78 52/52/52
f 113/113/113 52/52/52 101/101/101
f 115/115/115 116/116/116 24/24/24
f 115/115/115 24/24/24 35/35/35
f 115/115/115 35/35/35 12/12/12
f 115/115/115 12/12/12 108/108/108
f 115/115/115 108/108/108 60/60/60
f 115/115/115 60/60/60 80/80/80
f 115/115/115 80/80/80 63/63/63
f 115/115/115 63/63/63 116/116/116
f 117/117/117 93/93/93 18/18/18
f 117/117/117 18/18/18 17/17/17
f 117/117/117 17/17/17 24/24/24
f 117/117/117 24/24/24 116/116/116
f 117/117/117 116/116/116 63/63/63
f 117/117/117 63/63/63 62/62/62
f 117/117/117 62/62/62 69/69/69
f 117/117/117 69/69/69 93/93/93
f 118/118/118 114/114/114 29/29/29
f 118/118/118 29/29/29 28/28/28
f 118/118/118 28/28/28 27/27/27
f 118/118/118 27/27/27 111/111/111
f 118/118/118 111/111/111 74/74/74
f 118/118/118 74/74/74 73/73/73
f 118/118/118 73/73/73 72/72/72
f 118/118/118 72/72/72 114/114/114
