v -2.649645 5.390839 -3.686675
v -2.580238 4.965235 -2.799880
v -2.551584 4.961074 -2.804119
v -2.620991 5.386678 -3.690914
v -2.593138 5.379635 -3.696474
v -2.523731 4.954031 -2.809679
v -2.496716 4.944865 -2.816193
v -2.566122 5.370469 -3.702988
v -2.540508 5.358598 -3.710690
v -2.471102 4.932995 -2.823895
v -2.446761 4.919175 -2.832432
v -2.516168 5.344779 -3.719227
v -2.493777 5.328537 -3.728775
v -2.424371 4.902933 -2.841980
v -2.403641 4.884992 -2.852213
v -2.473048 5.310595 -3.739008
v -2.454741 5.290605 -3.750035
v -2.385335 4.865002 -2.863239
v -2.369013 4.843628 -2.874775
v -2.438420 5.269231 -3.761570
v -2.424900 5.246263 -3.773652
v -2.355494 4.820659 -2.886857
v -2.344207 4.796674 -2.899251
v -2.413614 5.222277 -3.786047
v -2.405401 5.197212 -3.798719
v -2.335995 4.771608 -2.911924
v -2.330177 4.745934 -2.924701
v -2.399583 5.171537 -3.811496
v -2.396993 5.145338 -3.824273
v -2.327587 4.719735 -2.937478
v -2.327461 4.693357 -2.950147
v -2.396868 5.118961 -3.836942
v -2.400000 5.092636 -3.849331
v -2.330593 4.667032 -2.962536
v -2.336165 4.640965 -2.974611
v -2.405571 5.066569 -3.861406
v -2.414305 5.041129 -3.872931
v -2.344898 4.615526 -2.986136
v -2.355953 4.590771 -2.997152
v -2.425359 5.016375 -3.883947
v -2.439359 4.992798 -3.894166
v -2.369952 4.567194 -3.007371
v -2.386065 4.544704 -3.016904
v -2.455472 4.970307 -3.903699
v -2.474199 4.949499 -3.912220
v -2.404793 4.523896 -3.025425
v -2.425344 4.504534 -3.033109
v -2.494751 4.930137 -3.919904
v -2.517487 4.912897 -3.926399
v -2.448081 4.487294 -3.039603
v -2.472281 4.471804 -3.045144
v -2.541688 4.897408 -3.931939
v -2.567559 4.884399 -3.936157
v -2.498152 4.458796 -3.049362
v -2.525072 4.447773 -3.052545
v -2.594478 4.873376 -3.939340
v -2.622489 4.865098 -3.941121
v -2.553083 4.439495 -3.054326
v -2.581688 4.433364 -3.055029
v -2.651094 4.858967 -3.941824
v -2.680169 4.855739 -3.941098
v -2.610763 4.430135 -3.054303
v -2.639953 4.429131 -3.052501
v -2.709359 4.854734 -3.939296
v -2.738381 4.856678 -3.936091
v -2.668974 4.431075 -3.049296
v -2.697628 4.435236 -3.045057
v -2.767034 4.860839 -3.931852
v -2.794887 4.867882 -3.926292
v -2.725481 4.442279 -3.039496
v -2.752497 4.451445 -3.032983
v -2.821903 4.877048 -3.919778
v -2.847517 4.888919 -3.912076
v -2.778111 4.463316 -3.025281
v -2.802451 4.477135 -3.016744
v -2.871858 4.902739 -3.903539
v -2.894248 4.918981 -3.893991
v -2.824842 4.493378 -3.007196
v -2.845571 4.511319 -2.996963
v -2.914977 4.936922 -3.883758
v -2.933284 4.956912 -3.872731
v -2.863878 4.531309 -2.985936
v -2.880199 4.552683 -2.974401
v -2.949606 4.978286 -3.861196
v -2.963125 5.001255 -3.849114
v -2.893719 4.575652 -2.962319
v -2.905005 4.599637 -2.949924
v -2.974411 5.025240 -3.836720
v -2.982624 5.050305 -3.824047
v -2.913218 4.624702 -2.937252
v -2.919035 4.650377 -2.924474
v -2.988442 5.075980 -3.811270
v -2.991032 5.102179 -3.798493
v -2.921626 4.676576 -2.911698
v -2.921751 4.702953 -2.899029
v -2.991158 5.128557 -3.785824
v -2.988026 5.154881 -3.773435
v -2.918619 4.729279 -2.886639
v -2.913048 4.755345 -2.874565
v -2.982454 5.180949 -3.761360
v -2.973720 5.206388 -3.749834
v -2.904314 4.780785 -2.863039
v -2.893259 4.805539 -2.852024
v -2.962666 5.231143 -3.738819
v -2.948666 5.254720 -3.728600
v -2.879260 4.829116 -2.841804
v -2.863147 4.851607 -2.832272
v -2.932553 5.277210 -3.719067
v -2.913826 5.298018 -3.710546
v -2.844419 4.872415 -2.823751
v -2.823868 4.891777 -2.816067
v -2.893274 5.317380 -3.702862
v -2.870538 5.334620 -3.696367
v -2.801131 4.909017 -2.809572
v -2.776931 4.924507 -2.804032
v -2.846337 5.350110 -3.690827
v -2.820467 5.363119 -3.686609
v -2.751060 4.937515 -2.799814
v -2.724140 4.948538 -2.796631
v -2.793546 5.374141 -3.683426
v -2.707856 5.391778 -3.681668
v -2.638449 4.966175 -2.794873
v -2.609260 4.967180 -2.796675
v -2.678666 5.392783 -3.683470
v -2.765535 5.382419 -3.681645
v -2.696129 4.956815 -2.794850
v -2.667524 4.962946 -2.794147
v -2.736931 5.388550 -3.680942
vn 0.148800 0.896000 0.418300
vn 0.148800 0.896000 0.418300
vn 0.244800 0.881400 0.403900
vn 0.244800 0.881400 0.403900
vn 0.338400 0.858400 0.385500
vn 0.338400 0.858400 0.385500
vn 0.428800 0.827100 0.363400
vn 0.428800 0.827100 0.363400
vn 0.515000 0.787800 0.337800
vn 0.515000 0.787800 0.337800
vn 0.596200 0.741000 0.308900
vn 0.596200 0.741000 0.308900
vn 0.671700 0.687000 0.277100
vn 0.671700 0.687000 0.277100
vn 0.740800 0.626400 0.242600
vn 0.740800 0.626400 0.242600
vn 0.802700 0.559700 0.205800
vn 0.802700 0.559700 0.205800
vn 0.856900 0.487700 0.167000
vn 0.856900 0.487700 0.167000
vn 0.902800 0.411000 0.126600
vn 0.902800 0.411000 0.126600
vn 0.940000 0.330300 0.084900
vn 0.940000 0.330300 0.084900
vn 0.968200 0.246400 0.042500
vn 0.968200 0.246400 0.042500
vn 0.987100 0.160200 -0.000400
vn 0.987100 0.160200 -0.000400
vn 0.996400 0.072400 -0.043200
vn 0.996400 0.072400 -0.043200
vn 0.996200 -0.016100 -0.085700
vn 0.996200 -0.016100 -0.085700
vn 0.986300 -0.104400 -0.127300
vn 0.986300 -0.104400 -0.127300
vn 0.967000 -0.191700 -0.167700
vn 0.967000 -0.191700 -0.167700
vn 0.938400 -0.277200 -0.206500
vn 0.938400 -0.277200 -0.206500
vn 0.900700 -0.360000 -0.243300
vn 0.900700 -0.360000 -0.243300
vn 0.854300 -0.439300 -0.277700
vn 0.854300 -0.439300 -0.277700
vn 0.799700 -0.514500 -0.309500
vn 0.799700 -0.514500 -0.309500
vn 0.737400 -0.584600 -0.338300
vn 0.737400 -0.584600 -0.338300
vn 0.668000 -0.649100 -0.363800
vn 0.668000 -0.649100 -0.363800
vn 0.592200 -0.707400 -0.385800
vn 0.592200 -0.707400 -0.385800
vn 0.510700 -0.758800 -0.404200
vn 0.510700 -0.758800 -0.404200
vn 0.424200 -0.803000 -0.418600
vn 0.424200 -0.803000 -0.418600
vn 0.333700 -0.839400 -0.429000
vn 0.333700 -0.839400 -0.429000
vn 0.239900 -0.867700 -0.435200
vn 0.239900 -0.867700 -0.435200
vn 0.143900 -0.887700 -0.437300
vn 0.143900 -0.887700 -0.437300
vn 0.046400 -0.899100 -0.435200
vn 0.046400 -0.899100 -0.435200
vn -0.051400 -0.901900 -0.428800
vn -0.051400 -0.901900 -0.428800
vn -0.148800 -0.896000 -0.418300
vn -0.148800 -0.896000 -0.418300
vn -0.244800 -0.881400 -0.403900
vn -0.244800 -0.881400 -0.403900
vn -0.338400 -0.858400 -0.385500
vn -0.338400 -0.858400 -0.385500
vn -0.428800 -0.827100 -0.363400
vn -0.428800 -0.827100 -0.363400
vn -0.515000 -0.787800 -0.337800
vn -0.515000 -0.787800 -0.337800
vn -0.596200 -0.741000 -0.308900
vn -0.596200 -0.741000 -0.308900
vn -0.671700 -0.687000 -0.277100
vn -0.671700 -0.687000 -0.277100
vn -0.740800 -0.626400 -0.242600
vn -0.740800 -0.626400 -0.242600
vn -0.802700 -0.559700 -0.205800
vn -0.802700 -0.559700 -0.205800
vn -0.856900 -0.487700 -0.167000
vn -0.856900 -0.487700 -0.167000
vn -0.902800 -0.411000 -0.126600
vn -0.902800 -0.411000 -0.126600
vn -0.940000 -0.330300 -0.084900
vn -0.940000 -0.330300 -0.084900
vn -0.968200 -0.246400 -0.042500
vn -0.968200 -0.246400 -0.042500
vn -0.987100 -0.160200 0.000400
vn -0.987100 -0.160200 0.000400
vn -0.996400 -0.072400 0.043200
vn -0.996400 -0.072400 0.043200
vn -0.996200 0.016100 0.085700
vn -0.996200 0.016100 0.085700
vn -0.986300 0.104400 0.127300
vn -0.986300 0.104400 0.127300
vn -0.967000 0.191700 0.167700
vn -0.967000 0.191700 0.167700
vn -0.938400 0.277200 0.206500
vn -0.938400 0.277200 0.206500
vn -0.900700 0.360000 0.243300
vn -0.900700 0.360000 0.243300
vn -0.854300 0.439300 0.277700
vn -0.854300 0.439300 0.277700
vn -0.799700 0.514500 0.309500
vn -0.799700 0.514500 0.309500
vn -0.737400 0.584600 0.338300
vn -0.737400 0.584600 0.338300
vn -0.668000 0.649100 0.363800
vn -0.668000 0.649100 0.363800
vn -0.592200 0.707400 0.385800
vn -0.592200 0.707400 0.385800
vn -0.510700 0.758800 0.404200
vn -0.510700 0.758800 0.404200
vn -0.424200 0.803000 0.418600
vn -0.424200 0.803000 0.418600
vn -0.333700 0.839400 0.429000
vn -0.333700 0.839400 0.429000
vn -0.046400 0.899100 0.435200
vn -0.046400 0.899100 0.435200
vn 0.051400 0.901900 0.428800
vn 0.051400 0.901900 0.428800
vn -0.239900 0.867700 0.435200
vn -0.239900 0.867700 0.435200
vn -0.143900 0.887700 0.437300
vn -0.143900 0.887700 0.437300
vt 0.000000 0.000000
vt 0.000000 0.000000
vt 0.000000 0.000000
vt 0.000000 0.000000
vt 0.000000 0.000000
vt 0.000000 0.000000
vt 0.000000 0.000000
vt 0.000000 0.000000
vt 0.000000 0.000000
vt 0.000000 0.000000
vt 0.000000 0.000000
vt 0.000000 0.000000
vt 0.000000 0.000000
vt 0.000000 0.000000
vt 0.000000 0.000000
vt 0.000000 0.000000
vt 0.000000 0.000000
vt 0.000000 0.000000
vt 0.000000 0.000000
vt 0.000000 0.000000
vt 0.000000 0.000000
vt 0.000000 0.000000
vt 0.000000 0.000000
vt 0.000000 0.000000
vt 0.000000 0.000000
vt 0.000000 0.000000
vt 0.000000 0.000000
vt 0.000000 0.000000
vt 0.000000 0.000000
vt 0.000000 0.000000
vt 0.000000 0.000000
vt 0.000000 0.000000
vt 0.000000 0.000000
vt 0.000000 0.000000
vt 0.000000 0.000000
vt 0.000000 0.000000
vt 0.000000 0.000000
vt 0.000000 0.000000
vt 0.000000 0.000000
vt 0.000000 0.000000
vt 0.000000 0.000000
vt 0.000000 0.000000
vt 0.000000 0.000000
vt 0.000000 0.000000
vt 0.000000 0.000000
vt 0.000000 0.000000
vt 0.000000 0.000000
vt 0.000000 0.000000
vt 0.000000 0.000000
vt 0.000000 0.000000
vt 0.000000 0.000000
vt 0.000000 0.000000
vt 0.000000 0.000000
vt 0.000000 0.000000
vt 0.000000 0.000000
vt 0.000000 0.000000
vt 0.000000 0.000000
vt 0.000000 0.000000
vt 0.000000 0.000000
vt 0.000000 0.000000
vt 0.000000 0.000000
vt 0.000000 0.000000
vt 0.000000 0.000000
vt 0.000000 0.000000
vt 0.000000 0.000000
vt 0.000000 0.000000
vt 0.000000 0.000000
vt 0.000000 0.000000
vt 0.000000 0.000000
vt 0.000000 0.000000
vt 0.000000 0.000000
vt 0.000000 0.000000
vt 0.000000 0.000000
vt 0.000000 0.000000
vt 0.000000 0.000000
vt 0.000000 0.000000
vt 0.000000 0.000000
vt 0.000000 0.000000
vt 0.000000 0.000000
vt 0.000000 0.000000
vt 0.000000 0.000000
vt 0.000000 0.000000
vt 0.000000 0.000000
vt 0.000000 0.000000
vt 0.000000 0.000000
vt 0.000000 0.000000
vt 0.000000 0.000000
vt 0.000000 0.000000
vt 0.000000 0.000000
vt 0.000000 0.000000
vt 0.000000 0.000000
vt 0.000000 0.000000
vt 0.000000 0.000000
vt 0.000000 0.000000
vt 0.000000 0.000000
vt 0.000000 0.000000
vt 0.000000 0.000000
vt 0.000000 0.000000
vt 0.000000 0.000000
vt 0.000000 0.000000
vt 0.000000 0.000000
vt 0.000000 0.000000
vt 0.000000 0.000000
vt 0.000000 0.000000
vt 0.000000 0.000000
vt 0.000000 0.000000
vt 0.000000 0.000000
vt 0.000000 0.000000
vt 0.000000 0.000000
vt 0.000000 0.000000
vt 0.000000 0.000000
vt 0.000000 0.000000
vt 0.000000 0.000000
vt 0.000000 0.000000
vt 0.000000 0.000000
vt 0.000000 0.000000
vt 0.000000 0.000000
vt 0.000000 0.000000
vt 0.000000 0.000000
vt 0.000000 0.000000
vt 0.000000 0.000000
vt 0.000000 0.000000
vt 0.000000 0.000000
vt 0.000000 0.000000
vt 0.000000 0.000000
vt 0.000000 0.000000
vt 0.000000 0.000000
vt 0.000000 0.000000
f 1/1/1 2/2/2 3/3/3
f 1/1/1 3/3/3 4/4/4
f 5/5/5 6/6/6 7/7/7
f 5/5/5 7/7/7 8/8/8
f 9/9/9 10/10/10 11/11/11
f 9/9/9 11/11/11 12/12/12
f 13/13/13 14/14/14 15/15/15
f 13/13/13 15/15/15 16/16/16
f 17/17/17 18/18/18 19/19/19
f 17/17/17 19/19/19 20/20/20
f 21/21/21 22/22/22 23/23/23
f 21/21/21 23/23/23 24/24/24
f 25/25/25 26/26/26 27/27/27
f 25/25/25 27/27/27 28/28/28
f 29/29/29 30/30/30 31/31/31
f 29/29/29 31/31/31 32/32/32
f 33/33/33 34/34/34 35/35/35
f 33/33/33 35/35/35 36/36/36
f 37/37/37 38/38/38 39/39/39
f 37/37/37 39/39/39 40/40/40
f 41/41/41 42/42/42 43/43/43
f 41/41/41 43/43/43 44/44/44
f 45/45/45 46/46/46 47/47/47
f 45/45/45 47/47/47 48/48/48
f 49/49/49 50/50/50 51/51/51
f 49/49/49 51/51/51 52/52/52
f 53/53/53 54/54/54 55/55/55
f 53/53/53 55/55/55 56/56/56
f 57/57/57 58/58/58 59/59/59
f 57/57/57 59/59/59 60/60/60
f 61/61/61 62/62/62 63/63/63
f 61/61/61 63/63/63 64/64/64
f 65/65/65 66/66/66 67/67/67
f 65/65/65 67/67/67 68/68/68
f 69/69/69 70/70/70 71/71/71
f 69/69/69 71/71/71 72/72/72
f 73/73/73 74/74/74 75/75/75
f 73/73/73 75/75/75 76/76/76
f 77/77/77 78/78/78 79/79/79
f 77/77/77 79/79/79 80/80/80
f 81/81/81 82/82/82 83/83/83
f 81/81/81 83/83/83 84/84/84
f 85/85/85 86/86/86 87/87/87
f 85/85/85 87/87/87 88/88/88
f 89/89/89 90/90/90 91/91/91
f 89/89/89 91/91/91 92/92/92
f 93/93/93 94/94/94 95/95/95
f 93/93/93 95/95/95 96/96/96
f 97/97/97 98/98/98 99/99/99
f 97/97/97 99/99/99 100/100/100
f 101/101/101 102/102/102 103/103/103
f 101/101/101 103/103/103 104/104/104
f 105/105/105 106/106/106 107/107/107
f 105/105/105 107/107/107 108/108/108
f 109/109/109 110/110/110 111/111/111
f 109/109/109 111/111/111 112/112/112
f 113/113/113 114/114/114 115/115/115
f 113/113/113 115/115/115 116/116/116
f 117/117/117 118/118/118 119/119/119
f 117/117/117 119/119/119 120/120/120
f 121/121/121 122/122/122 123/123/123
f 121/121/121 123/123/123 124/124/124
f 125/125/125 126/126/126 127/127/127
f 125/125/125 127/127/127 128/128/128
f 36/36/36 35/35/35 38/38/38
f 36/36/36 38/38/38 37/37/37
f 116/116/116 115/115/115 118/118/118
f 116/116/116 118/118/118 117/117/117
f 56/56/56 55/55/55 58/58/58
f 56/56/56 58/58/58 57/57/57
f 64/64/64 63/63/63 66/66/66
f 64/64/64 66/66/66 65/65/65
f 108/108/108 107/107/107 110/110/110
f 108/108/108 110/110/110 109/109/109
f 44/44/44 43/43/43 46/46/46
f 44/44/44 46/46/46 45/45/45
f 76/76/76 75/75/75 78/78/78
f 76/76/76 78/78/78 77/77/77
f 96/96/96 95/95/95 98/98/98
f 96/96/96 98/98/98 97/97/97
f 84/84/84 83/83/83 86/86/86
f 84/84/84 86/86/86 85/85/85
f 128/128/128 127/127/127 122/122/122
f 128/128/128 122/122/122 121/121/121
f 48/48/48 47/47/47 50/50/50
f 48/48/48 50/50/50 49/49/49
f 72/72/72 71/71/71 74/74/74
f 72/72/72 74/74/74 73/73/73
f 100/100/100 99/99/99 102/102/102
f 100/100/100 102/102/102 101/101/101
f 24/24/24 23/23/23 26/26/26
f 24/24/24 26/26/26 25/25/25
f 112/112/112 111/111/111 114/114/114
f 112/112/112 114/114/114 113/113/113
f 60/60/60 59/59/59 62/62/62
f 60/60/60 62/62/62 61/61/61
f 40/40/40 39/39/39 42/42/42
f 40/40/40 42/42/42 41/41/41
f 20/20/20 19/19/19 22/22/22
f 20/20/20 22/22/22 21/21/21
f 16/16/16 15/15/15 18/18/18
f 16/16/16 18/18/18 17/17/17
f 32/32/32 31/31/31 34/34/34
f 32/32/32 34/34/34 33/33/33
f 52/52/52 51/51/51 54/54/54
f 52/52/52 54/54/54 53/53/53
f 104/104/104 103/103/103 106/106/106
f 104/104/104 106/106/106 105/105/105
f 4/4/4 3/3/3 6/6/6
f 4/4/4 6/6/6 5/5/5
f 80/80/80 79/79/79 82/82/82
f 80/80/80 82/82/82 81/81/81
f 8/8/8 7/7/7 10/10/10
f 8/8/8 10/10/10 9/9/9
f 28/28/28 27/27/27 30/30/30
f 28/28/28 30/30/30 29/29/29
f 88/88/88 87/87/87 90/90/90
f 88/88/88 90/90/90 89/89/89
f 124/124/124 123/123/123 2/2/2
f 124/124/124 2/2/2 1/1/1
f 12/12/12 11/11/11 14/14/14
f 12/12/12 14/14/14 13/13/13
f 68/68/68 67/67/67 70/70/70
f 68/68/68 70/70/70 69/69/69
f 92/92/92 91/91/91 94/94/94
f 92/92/92 94/94/94 93/93/93
f 120/120/120 119/119/119 126/126/126
f 120/120/120 126/126/126 125/125/125
